<?xml version="1.0" encoding="utf-8"?>
<!-- Generator: Adobe Illustrator 21.1.0, SVG Export Plug-In . SVG Version: 6.00 Build 0)  -->
<svg version="1.1" id="Layer_1" xmlns="http://www.w3.org/2000/svg" xmlns:xlink="http://www.w3.org/1999/xlink" x="0px" y="0px"
	 viewBox="0 0 300 300" style="enable-background:new 0 0 300 300;" xml:space="preserve">
<g>
	<path d="M246.4,229.7l-36.9,37.2c-0.8,0-3.3-2.4-7.5-7.2c-5.8-6.6-9.1-10.5-9.9-11.7c-3.4-4.8-6.6-13.7-9.6-26.7
		c-2-9.4-3.9-18.8-5.7-28.2h-1.2c-9,14.6-15.2,33.5-18.6,56.7l-3,3c-1.6,0-2.4-1.1-2.4-3.3c0-14.6-1.7-26.8-5.1-36.6
		c-2.2-6-3.5-9.6-3.9-10.8c-2.2-5-4.2-7.7-6-8.1c-1.4,2-5.2,13.4-11.4,34.2l-11.7,38.7c-11.6-7.8-21.2-11.7-28.8-11.7
		c-6.4,0-11.7,1.3-15.9,4c-0.8,0.6-3,2.8-6.5,6.4c-3.5,3.7-5.6,5.5-6.2,5.5c-1.4,0-2.1-0.9-2.1-2.7c0,1,1.9-2.8,5.7-11.5
		c7.2-16.5,19-24.8,35.4-24.8c7,0,12.9,1.2,17.7,3.6c11.2-30,16.8-46.7,16.8-50.1c0-1.4-2.5-2.9-7.3-4.5c-4.9-1.6-8.5-2.4-10.7-2.4
		c-7.4,0-13.7,2.3-18.9,6.9C87.6,190.2,85,196,85,203c0,2.8,0.5,5.2,1.4,7.2c0.9,2,1.8,4.2,2.8,6.6l-2.7,1.5
		c-4.6-3.6-6.9-9.2-6.9-16.8c0-11,3.5-20.5,10.6-28.5c7.1-8,16.1-12,27.2-12c7.6,0,14,0.8,19.2,2.4l10.5-34.2
		c-3-7-10.1-10.5-21.3-10.5c-5.8,0-10.7,1.3-14.7,3.9c-4.6,3-6.9,7.2-6.9,12.6L103,137l-2.1-1.2c-0.6-1.8-0.9-3.6-0.9-5.4
		c0-7.6,3.1-14.6,9.3-21c6.2-6.4,13.1-9.6,20.7-9.6c4.2,0,8.4,1,12.6,3c4.2,2,7,4.4,8.4,7.2c0.8-1.4,1.2-3.4,1.2-6
		c0-8.6-12.5-12.9-37.5-12.9c-3.2,0-7.9,0.9-14.1,2.7c-6.8,2-10.9,3.9-12.3,5.7v2.4c-0.2,0.6-0.3,1.4-0.3,2.4c0-3.4,0.6-2.6,1.8,2.4
		c1.4,6.2,2.9,12.3,4.5,18.3c2,8,3.7,12.8,5.1,14.4c5.8,6.4,13.3,9.6,22.5,9.6c4.4,0,9.1-1.3,14.1-3.9l0.6,3.3
		c-5,3-9.9,4.5-14.7,4.5c-16.6,0-28-8.6-34.2-25.8c-3.4-9.6-4.7-17.7-3.9-24.3c-2.8,1-5.2,4.4-7.2,10c-2,5.7-3,10.4-3,14
		c0,10.6,4.1,18.8,12.3,24.6l0.6,1.5c-0.4,0.4-1.4,0.6-3,0.6c-1.8,0-4.6-2.2-8.2-6.6c-3.7-4.4-6-7.9-6.8-10.5
		c-1.8-5.4-2.7-11.2-2.7-17.4c0-7.4,2.1-15.2,6.3-23.5c4.2-8.3,9.4-14.1,15.6-17.5c3.8-15,13.1-27.4,27.9-37.2
		c13.8-9.2,28.7-13.8,44.7-13.8c22.6,0,40.4,8.5,53.4,25.5c11.4,14.8,17.1,32.7,17.1,53.7c0,17.2-6,33.2-18,48
		c-7.8,7.8-11.7,12-11.7,12.6c0,5.2,1.6,15.1,5,29.7c3.3,14.6,6,24.5,8.2,29.7c3,7,6.7,10.5,11.1,10.5c4,0,7.4-1,10.2-3
		c0.6-0.4,3.3-2.8,8.1-7.2L246.4,229.7z M223.9,110c0-21.2-6.3-38.7-18.9-52.6c-12.6-13.9-29.3-20.9-50.1-20.9
		c-12.2,0-24.2,3.5-36,10.5c-12.6,7.4-20.6,16.6-24,27.6c11.8-5.6,21.5-8.4,29.1-8.4c7.6,0,20.4,3,38.4,9c2.2-5.2,5-11.8,8.4-19.8
		h2.1c3.8,6.8,12.3,41.2,25.5,103.2c7.4-6,13.5-13.4,18.3-22.3C221.5,127.3,223.9,118.6,223.9,110z M174.7,185l-15.6-63
		c-3.2,8-8.1,22.7-14.7,44.1c3.6,2.8,8.1,6.5,13.5,11.1c4.6,4.2,8.5,8.4,11.7,12.6L174.7,185z"/>
</g>
</svg>
