<?xml version="1.0" encoding="utf-8"?>
<!-- Generator: Adobe Illustrator 21.1.0, SVG Export Plug-In . SVG Version: 6.00 Build 0)  -->
<svg version="1.1" id="Layer_1" xmlns="http://www.w3.org/2000/svg" xmlns:xlink="http://www.w3.org/1999/xlink" x="0px" y="0px"
	 viewBox="0 0 300 300" style="enable-background:new 0 0 300 300;" xml:space="preserve">
<g>
	<path d="M256.9,180.4c0,8.4-5.4,15.5-16.2,21.3c-1.2,9.4-2.9,19.4-5.1,30c-8.6,24.6-22.6,36.9-42,36.9c-8.4,0-15.4-3.5-21-10.5
		c-5.2-6.4-7.8-13.9-7.8-22.5c0-0.8,0.2-3.8,0.6-9c-0.2-0.8-0.8-1.2-1.8-1.2c-3,0-4.5,1.5-4.5,4.5c0,4-0.6,6.6-1.8,7.8
		c-4.8,5-12.5,10.5-23.1,16.5c-8.6,4.4-17.2,8.8-25.8,13.2c-7-8.2-15.5-12.3-25.5-12.3c-6.4,0-11.6,1.9-15.6,5.8
		c-3.6,4.5-7.2,8.9-10.8,13.4l-2.4-0.6v-4.2c0-3.2,3.8-10,11.4-20.2c3.4-4.6,8.3-8.7,14.7-12.1c6.4-3.4,12.4-5.1,18-5.1
		c10.4,0,20.3,5,29.7,15h0.9v-18.6c-2.4-0.2-6.3-0.6-11.7-1.2c-7.4-1.2-13.7-5.8-18.9-13.8c-4.6-7.4-6.9-15.1-6.9-23.1
		c0-17.2,10.1-28.6,30.3-34.2c1-0.4,2.9-1.4,5.7-3l-1.2-1.8c-1.4-0.6-3.1-0.9-5.1-0.9c-0.2,0-0.4,0.3-0.5,0.8
		c-0.1,0.5-0.4,0.8-0.8,0.8c-3.4,0-7.2-0.6-11.4-1.8c-9-1.6-20.3-8.7-33.9-21.3c-3.8-1.8-8.5-4.2-14.1-7.2
		c-6-4.2-10.8-10.4-14.4-18.6c-3.4-7.6-5.1-15.3-5.1-23.1c0-8.4,2.9-16.4,8.9-24c5.9-7.6,12.9-11.3,21.2-11.1
		c5.8,0.2,11,2.3,15.8,6.3c4.7,4,7,8.6,7,13.8c0,3.6-1.2,6.8-3.6,9.5c-2.4,2.7-5.3,4-8.7,4c-4.2,0-7.1-1.1-8.7-3.3v-3
		c0.2-0.4,0.8-0.7,1.8-0.9c0.6,0,1.8,0.5,3.6,1.4c1.8,0.9,2.9,1.4,3.3,1.4c5.2,0,7.8-2.4,7.8-7.2c0-4.6-1.8-8.5-5.2-11.7
		c-3.5-3.2-7.7-4.8-12.5-4.8c-6.8,0-12.7,3.5-17.7,10.4c-5,6.9-7.5,13.9-7.5,20.9c0,16,6.3,28.2,18.9,36.6h3
		C65.4,104.6,64,97.6,64,97c0-7.2,2.1-13.6,6.3-19.2c7.6,5.8,11.5,8.8,11.7,9c5,3.2,9.5,4.8,13.5,4.8c5.6,0,15.6-4.1,30-12.3
		c20-11.4,36.9-17.1,50.7-17.1s25.5,4.7,35.2,14.1c9.7,9.4,14.5,21,14.5,34.8c0,4.6-1.3,10.7-3.9,18.3l0.9,1.2
		c8.6-6.6,12.9-17.4,12.9-32.4c0-8-2.3-16.4-6.9-25.2c-12.2-23.2-35.2-34.8-69-34.8c-10.8,0-22.4,2.3-34.8,6.9
		c-15.2,5.6-22.8,13.1-22.8,22.5c0,6.4,3.4,9.6,10.2,9.6c4.4,0,7.1-2.2,8.1-6.6c0.8-3.6,1.5-6.4,2.1-8.4c2.6,0.8,3.9,2.5,3.9,5.1
		c0,3.6-1.8,7.1-5.4,10.4c-3.6,3.3-7.3,5-11.1,5c-3.6,0-6.6-1.7-9-5c-2.4-3.3-3.6-6.9-3.6-11c0-8.8,8.1-17.3,24.3-25.5
		c14-7.2,26.4-10.9,37.2-11.1c23.2-0.6,42.5,4.3,57.9,14.7c17.8,11.8,26.7,28.8,26.7,51c0,1.6-1,6.4-3,14.4
		c-2.4,9.8-7,17.4-13.8,22.8c-9,7.2-14.5,12-16.5,14.4c0.2,0.6,0.5,1.1,0.9,1.5c8.8,5.4,15,10.7,18.6,15.9c3,4.4,6,12,9,22.8
		c0,0.8,0.3,2.8,0.9,6c0.4,1.8,0.7,2.7,0.9,2.7c7-2.8,10.5-8.3,10.5-16.5c0-15.4-7.6-25.1-22.8-29.1c-1.4-0.4-2.6-1.1-3.6-2.1
		c1.4-1.4,2.6-2.1,3.6-2.1c9,0,16.1,3.5,21.3,10.5C254.5,163.2,256.9,171,256.9,180.4z M197.8,131.5v-17.7c0-0.4-6.8-5.3-20.4-14.7
		l-20.7-14.4c-0.2-0.6,0.2-0.9,1.2-0.9c2.6,0,8.3,1.7,17.1,5.1c8.8,3.4,14.5,5.1,17.1,5.1c0.8,0,1.1-0.3,0.9-0.9
		C186.4,77.7,177.6,70,166.6,70c-7.8,0-15.6,3.6-23.4,10.8c-4.8,4.4-12.1,11.2-21.9,20.4c-9.8,7.2-20.6,10.8-32.4,10.8
		c-5.6,0-11.6-2.6-18-7.8l-0.6,1.5c1.6,6.4,3.4,10.8,5.4,13.2c2.8,3,7.2,4.5,13.2,4.5c9,0,18.5-3.3,28.5-9.9
		c4.4-3,12.3-9.2,23.7-18.6c8-6.6,13.7-9.9,17.1-9.9c1.2,0,2.1,0.4,2.7,1.2V88c-2.4,2-3.6,7-3.6,15v5.1c-0.2,1.6-0.3,3.3-0.3,5.1
		v27.9c2.8-1,5.9-2.7,9.3-5.1c4.2-3,6.3-5.6,6.3-7.8c0-2.6-1.7-5.9-5.1-9.9l0.3-1.8c0-0.4-0.1-1.2-0.5-2.6c-0.3-1.3-0.4-2-0.4-2.2
		c0-1.8,0.8-3.8,2.2-6.1c1.5-2.3,3-3.4,4.6-3.4c5.8,0,8.7,4.3,8.7,12.9c0,1.4-0.5,4.2-1.5,8.2c-1,4.1-1.5,6.3-1.5,6.4
		c2.2,2.2,7.3,5.1,15.3,8.7C196.8,135.8,197.8,133.5,197.8,131.5z M127.9,147.7v-6c0-12.6-0.3-19.2-0.9-19.8
		c-9.8,5.8-19.3,8.7-28.5,8.7c-1,0-3.4-0.2-7.2-0.6c-3.8-0.4-6.3-0.6-7.5-0.6c4.8,4.8,10.6,9,17.4,12.6c7.8,4.2,14.6,6.3,20.4,6.3
		c0.6,0,1.7-0.1,3.3-0.3C126.5,147.8,127.5,147.7,127.9,147.7z M128.5,223.3v-39.9c-0.8-1.4-1.7-2.1-2.7-2.1
		c-17.8,0-26.7,5.8-26.7,17.4c0,6.4,2.9,12.3,8.7,17.5c5.8,5.3,11.9,8,18.3,8C127.1,224.2,127.9,223.9,128.5,223.3z M211.6,199.9
		c0-4.8-1.4-12.2-4.2-22.2c-3.2-11.6-6.5-17.4-9.9-17.4c0.2,0-2.7,2-8.7,5.9c-6,3.9-11,5.8-15,5.8c-5,0-7.5-2.3-7.5-6.9
		c0-5.2,3.2-9.4,9.6-12.6c5.2-2.8,10.7-4.3,16.5-4.5c1.4-1.6,2.1-3.4,2.1-5.4c-1-0.4-4.2-2-9.5-5c-5.3-2.9-8.2-4.4-8.5-4.4
		c-0.6,0-2.7,1.5-6.2,4.4c-3.5,2.9-5.5,4.6-6.1,5.2c-5,2.2-7.5,3.8-7.5,4.8l0.9,34.2h2.1c7,0,13.3,2.3,19,6.9
		c5.7,4.6,9.8,10.4,12.2,17.4c1.4-1.4,2.6-2.8,3.6-4.2c-6.6-6.4-9.9-13.2-9.9-20.4c0-4.8,2.3-7.3,6.9-7.5c3-0.2,5.6,1.2,8,4.2
		c2.3,3,3.5,6.3,3.5,9.9c0,0.8-0.8,5.5-2.4,14.1c0.4,0,1.7,0.6,4,1.8c2.3,1.2,4.1,1.7,5.5,1.5C211.1,204.2,211.6,202.3,211.6,199.9z
		 M168.1,202.3c0-3-1-6.1-2.8-9.4c-1.9-3.3-4-5.1-6.2-5.6l-0.9,1.8v33h3C165.8,222.1,168.1,215.5,168.1,202.3z M178,115.3
		c0-4.2-1.5-7-4.5-8.4c-1.4,1.6-2.1,3-2.1,4.2c0,6.6,1.5,10.7,4.5,12.3C177.3,120.4,178,117.7,178,115.3z M186.4,156.4h-3.3
		c-1.2,0-4,1.7-8.4,5.1v1.8l0.9,0.9h0.6c1.6,0,3.5-0.9,5.8-2.8C184.4,159.4,185.8,157.8,186.4,156.4z M211,209.5
		c-9-3-13.2-4.5-12.6-4.5c-1.4,0-2.8,1-4.1,2.9c-1.3,1.9-1.9,3.7-1.9,5.2c0,0.4,0.1,1.5,0.3,3.3c0.2,1.8,0.3,3,0.3,3.6
		c0,3.8-1.2,9.6-3.6,17.4c-2.4,7.8-3.6,13-3.6,15.6c0,5.4,1.9,8.1,5.7,8.1c6.2,0,11.3-7.4,15.3-22.2
		C209.2,229.7,210.6,219.9,211,209.5z M197.2,190.3c0-4.4-1.6-8.5-4.8-12.3c-1.6,1-2.9,1.7-3.9,2.1v2.1c0,1.6,0.9,4.3,2.7,8.2
		s3.3,6.2,4.5,6.8C196.7,194.8,197.2,192.5,197.2,190.3z"/>
</g>
</svg>
