<?xml version="1.0" encoding="utf-8"?>
<!-- Generator: Adobe Illustrator 21.1.0, SVG Export Plug-In . SVG Version: 6.00 Build 0)  -->
<svg version="1.1" id="Layer_1" xmlns="http://www.w3.org/2000/svg" xmlns:xlink="http://www.w3.org/1999/xlink" x="0px" y="0px"
	 viewBox="0 0 825 825" style="enable-background:new 0 0 825 825;" xml:space="preserve">
<style type="text/css">
	.st0{fill:#FFFFFF;}
</style>
<path d="M438,152.1c14.6-5.1,30.2,4.2,44.7-1.1c14.3,10.2,27.4,22.1,40.8,33.5c9.5,8.2,18.9,16.5,28.3,24.7
	c5.2,4.7,11.4,8.2,17.5,11.5c20.8,10.7,42.7,19,64.6,27.2c3,1.3,6.6,1.8,8.9,4.3c12.8,12.3,29,20.9,39.8,35.2
	c3.8,7,4.8,17,13.4,19.9c-2.2,10.6,3,21,10.1,28.6c6.4,7.7,15.7,11.8,24,17c9.8,6.1,20.6,10.9,29,19c3.3,3.2,6.6,7.3,6.4,12.3
	c0.2,3.9-1.7,7.6-4.5,10.1c-6.7,6-15.4,9.7-21.3,16.7c-5.2,5.7-10.9,11-15.2,17.4c-8.1-1.7-16.4-1.8-24.6-2.7
	c-15.3-0.9-30.6-2.6-45.9-1.7c-24.6,0.7-49,3.6-73.6,4.6c-1,42.5-7.9,84.5-13,126.6c-1,10-2.5,19.9-2.8,30c1,6.3,6.3,10.6,10.9,14.4
	c6.7,5.1,14.9,9.3,18.6,17.3c2.6,5.2,0.5,11.8-4.3,15.1c-8.7,6.2-19.7,7.7-30,9.2c-20.3,2.1-41.5,3.9-61.3-2.4
	c-8.9-2.5-15.2-10.7-16.5-19.7c-0.9-8.3-1.6-16.7-2.2-25c-1-19.2-5.6-38.1-11.7-56.3c-3.8-11.7-8.9-23.1-11.7-35.1
	c-4-15.2-5.4-31-4.5-46.7c-13.1,16.2-26.2,32.4-39.4,48.6c-4.7,6-9.9,11.6-13.9,18.1c-15,22.6-26.5,48.2-29.2,75.4
	c-0.4,7.5-1.6,15.2,0.3,22.6c1.7,4.8,5.8,8.1,9.7,11.1c6.7,5.3,15.4,8.4,20,15.9c2.9,4.3,3,10.9-1.2,14.5
	c-6.5,5.7-15.3,7.4-23.6,9.2c-20.9,3.7-42.5,5-63.6,1.9c-6.5-0.7-13.3-2.4-18.1-7.1c-8.9-8.2-11.2-20.8-12.9-32.2
	c-5.3-3.9-10.4-8.2-14.2-13.7c-11.5-16.1-15.5-35.9-19.3-54.9c-2.4-12.3-4.8-24.6-8-36.7c-0.4-2.2-2.4-3.7-3.9-5.2
	c-3.9-3.8-8.8-6.2-13.7-8.4c0.9,21.4,1.6,42.7,2.5,64c0.8,8.1,0.5,16.4,2,24.4c6,7.6,12.2,15.1,18.8,22.2c3.9,4.1,7.7,8.4,12.7,11.2
	c0.5-0.3,1.4-1,1.9-1.3c-1.1,4.1-3.2,8.1-7,10.2c-7.4,4.5-16.4,5.3-24.9,5.7c-19.9,0.3-39.9-2.5-59.8-0.8
	c-14.6-8.3-25.6-21.6-34.1-35.9c-9.9-16.8-16.8-35.2-22.2-53.8c-8.1-27.2-13.6-55-19.4-82.7c-3.2-14.5-5.8-29.2-10-43.5
	c-1.2,1.5-2.1,3.1-2.8,4.9c-3.1-13.1-4.2-26.5-5.7-39.8c-0.3-3.2-0.2-6.5-1.5-9.6c-1.8,2.8-1.7,6.7-4.8,8.5
	c-0.8-15.4,0.1-30.9-0.4-46.3c-3.5,0.7-3.9,4-4.7,6.9c-0.7,0.3-2,1-2.7,1.4c2.7-33.9,11.4-67.8,28.4-97.5
	c14.8-26.1,36-48.4,60.6-65.4c15.4-10.7,31.9-19.6,49.2-26.8c24.2-9.9,50.7-15.6,76.9-12.5c14.3,1.5,28.2,5.2,41.9,9.4
	c15.2,5.4,29.4,15.6,46.2,14.8c14.6-0.8,28.1-7.2,40.7-14.1C414.3,162.8,425.8,156.7,438,152.1z"/>
<path class="st0" d="M413.6,180.6c10.3-4.7,20.9-9.6,32.3-10.7c14.9-1.7,29.9,2.1,43,9.1c19.9,10.2,36.8,25.6,49.5,43.9
	c-17.7,1.7-35.5,4.6-51.9,11.8c29.2-3.7,59.3-1.2,87.1,8.6c19.2,7.6,38.1,15.8,57,23.8c7.6,3.4,16,5.9,21.9,12.1
	c12.9,12.9,20.5,29.8,27.9,46.1c4,8,8.5,15.8,14.2,22.8c14,15.9,35.7,21.9,50.4,37c-4.9-0.8-8.7-4.4-13.2-6.3
	c0.3,5,5.2,8.5,4.6,13.6c-4.3,5.7-12,6.4-18.6,6.9c-7.4,0.8-14.9-0.4-22.3,0.3c3.9,6.8,12.6,6.4,18.8,9.8
	c-14.6,1.5-29.1-1.9-43.6-2.7c-33.1-1.3-66,5.5-99.1,3.9c-12.6-0.9-25.6-3.3-36.5-10.1c-5.8-3.6-10.6-8.7-14.2-14.4
	c1.2,9.2,6.5,17.4,13.6,23.1c5.9,5,12.7,8.6,19.6,12.2c-5.8,7.2-15.7,8.8-24.4,8.4c-8.3-0.5-16.6-1.9-24.4-4.4
	c9.4-3.2,19.6,0.8,29-2.5c-20.3-5.8-40.8-11.2-61-17.8c1.6-7.5,4.9-14.5,6.1-22c-22.7,34.4-47.2,67.6-72,100.5
	c-21.9,29.3-44.1,58.4-65.6,88c7.8-0.7,11.7-8.6,19-10.2c-4.7,18.8-9.4,38-8,57.5c0.7,5.3,1.7,10.9,4.6,15.5
	c8,5.7,15.7,11.8,23.4,18c-14.5,2.1-29.2,4.4-43.9,3.2c-7.8-0.5-15.1-4.6-19.4-11.2c-6-8.3-7.3-18.8-9.7-28.5
	c-1.3-5.3-2.8-10.5-4.8-15.5c-5.2,18.5,2,37.2,7.1,54.9c-10.7-6.5-14.5-19.5-16-31.2c-1.8-19.2-1.9-38.5,0.3-57.6
	c4.8-45.2,11.9-90.1,18.4-135.1c-10.8,20.4-17.2,42.8-23,65c-8.3-0.8-16.2-3.5-23.9-6.4c-11.6-4.4-22.6-9.9-33.8-15.2
	c0.9,4.7,4.4,8.3,8.1,10.9c5.7,4,11.6,7.6,16.7,12.4c1.6,1.6,3.5,2.9,5.4,4.2c-1.6-0.1-3.3-0.1-4.7-1
	c-23.9-12.6-44.7-30.3-64.7-48.3c4.6,7.9,10.8,14.6,17,21.2c12.9,13.3,27.1,25.2,41.2,37.3c-10.3-5.9-20-12.9-29.6-19.8
	c-19.4-14.3-38-30.7-50.2-51.8c-14.6-24.7-19.6-54.2-17.1-82.6c-6.8,13.6-7.9,29.3-5.4,44.1c2.6,17.2,10.1,33.1,15.4,49.5
	c5.4,16.1,11,32.3,13.3,49.2c2.2,0.2,4.5,0.8,5.3,3.2c3.6,9.6,2.9,20,4.8,30c3.9-3.5,3.3-9,4.3-13.6c3,4.6,3.8,10.1,4,15.5
	c0.8,8.5,0,17.2,1.8,25.6c6.8-5.4,2.6-15.1,5.6-22.3c3.1,7.5,2.9,15.8,3.3,23.8c-0.4,14.6-2.2,29.5,1.3,43.9
	c1.6,6.4,6.2,11.9,11.9,15.2c6.1,3.6,12.5,6.8,18.2,11c-17.9,4.2-37.6,4.7-54.4-3.7c-16-7.8-27.3-22.8-34.4-38.8
	c-2-4.2-2.8-8.9-4.9-13.1c1.1,5.3,3.8,10,5.1,15.2c2.9,10.2,6.1,20.3,8.7,30.6c-9.7-13.6-16.7-29-22.8-44.5
	c-7.8-20.4-13.7-41.5-18.3-62.8c-5.8-26-11.5-52-17-78c-0.6-3.8-3.5-6.6-4.5-10.3c-3.8-12.3-4.7-25.1-5.8-37.9
	c-0.1-1.7-0.5-3.2-1.4-4.7c-0.8,1.6-1.6,3.2-2.3,4.8c-6.2-13.6-0.7-28.6-1.1-42.8c-1.7,1.8-3,4-5.5,4.9c-0.6-8.2,1.8-16.3,3.6-24.3
	c1.8-6.8,3.6-13.7,6.2-20.3c0.8,16.6,1.3,33.3,3.1,49.8c1.2,10.1,2.2,20.4,5.7,30c-1-27-0.8-54.1,3.2-80.9
	c2.5-16.7,6.4-33.3,13.4-48.7c4.6-9.8,10.5-19.2,18.3-26.7c9.9-10.3,21.7-18.6,33.8-26.2c21.2-12.8,43.8-24.7,68.6-28.2
	c7.7-0.7,15.4,0.1,23.1,0.1c-16.2,7.6-32.7,15-47.2,25.6c-5,3.7-9.9,7.8-13.5,13c15.2-12.8,33.9-20.7,53.2-25.1
	c24.7-6.2,51.1-6.9,75.6,0.8c-1.4,1.2-2.7,2.9-4.7,2.9c-4.4,0.4-8.7-0.1-13.1-0.1c7.2,7.1,18.2,7.5,26.3,13.2
	c-6,10.5-20,13.1-24.8,24.5c18-10.9,36.7-20.8,56.3-28.6C382.7,195.6,398.1,187.9,413.6,180.6z"/>
<path d="M565.2,263.1c5.2-5,13-5.4,19.7-4.4c6.1,0.8,11.7,4.2,15,9.5c2.2-0.6,4.4-1.3,6.7-1.9c-6.5,6.3-12.8,13-20.5,17.7
	c1.7-4.9,4.8-9.2,7.5-13.6c-6.4-4.1-14.1-0.9-20.3,1.8c-0.1,4.4,0.7,8.8,2.6,12.7c2.1,4.2,4.3,8.5,4.6,13.3
	C565.9,294.8,559.1,276.2,565.2,263.1z"/>
<path d="M669.8,321.4c5.6,0.5,9.1,5.2,10.8,10.1c-2.8,1.3-5.7,2.5-8.7,3.1C671.3,330.2,669.3,325.9,669.8,321.4z"/>
<path class="st0" d="M505,442.9c19.1,6,39.6,3.1,58.2-2.9c0.5,17.7-2.1,35.3-4.7,52.8c-3.8,24.3-8.9,48.5-10.8,73.2
	c-0.4,9.5-1.4,19.6,2.5,28.6c4.5,11.1,14.3,19,24.6,24.4c-7.3,4.8-16.5,4.7-24.9,4.6c-9,0.1-18-0.2-26.9-0.4
	c-6.8-2.8-10.8-9.6-13-16.3c-4-12.1-4.5-25-7.6-37.4c-5.6,16.6-1.2,34.3,1.4,51.1c-2.7-0.7-5.5-2.1-6.5-5
	c-2.5-6.6,0.1-13.7-0.4-20.5c-2.5-26.7-9.1-52.8-15.1-78.8c-3-14-6.4-27.9-7.9-42.1c7.1,13.1,7.9,28.5,14.2,41.9
	c1.1-6.7,0.2-13.6-0.8-20.3c-1.9-11.3-4.1-22.6-3.6-34.1c4.5,7.3,4.1,16.3,8.1,23.8c0.4-12.4,0-24.8,0.8-37.2c7,2.3,3.1,12.6,10,15
	C505.5,456.9,502.7,449.6,505,442.9z"/>
<path class="st0" d="M271.4,539.4c2.4,0,4.9,0,7.3,0c-0.8,21.2-1.4,42.4-3,63.6c-7.4-14.1-10.6-30-12.8-45.7c4.6,5.5,4.9,13,8.5,19
	C271.4,564,271.3,551.7,271.4,539.4z"/>
</svg>
