<?xml version="1.0" encoding="utf-8"?>
<!-- Generator: Adobe Illustrator 21.1.0, SVG Export Plug-In . SVG Version: 6.00 Build 0)  -->
<svg version="1.1" id="Layer_1" xmlns="http://www.w3.org/2000/svg" xmlns:xlink="http://www.w3.org/1999/xlink" x="0px" y="0px"
	 viewBox="0 0 825 825" style="enable-background:new 0 0 825 825;" xml:space="preserve">
<style type="text/css">
	.st0{fill:#FFFFFF;}
	.st1{fill:#575757;}
	.st2{fill:#616161;}
	.st3{fill:#5D5D5D;}
	.st4{fill:#464646;}
</style>
<path d="M414.7,194.3c6.5,3.2,11.1,8.9,16.2,13.8c3.1-3.6,3.3-10.3,8.8-11.4c3.6,6.4,1.8,14.3,5.6,20.5c3.9-5.2,2.6-12.7,7.5-17.3
	c5.4,5.2,1.5,13.5,3.9,20c5.5-3.6,5.7-11.9,12.1-14.3c2.1,5.7-0.6,11.6-1.1,17.3c5.6-1.1,5.9-9,11.9-9.6c0.8,5.4-1.5,10.6-1.3,16
	c5-2,6.1-8.4,11.3-10.1c0.5,3.3,0.8,6.6,1.2,10c1.9-1.5,2.5-4.5,5-5.2c3.5,1.7,2.8,6.5,3.1,9.8c1.7-1.3,3.5-2.6,5.4-3.6
	c1.8,2,1.6,4.7,1.4,7.2c1.9-0.7,3.8-1.2,5.8-1.7c0.9,2.6,0,5.2-0.7,7.7c4.3-2.2,9.5-2.5,13.7,0.2c0,3.6,0,7.2,0,10.7
	c2.1-1.1,4.2-2.3,6.6-2.6c3,2.6,6.1,4.9,8.5,8c8.9-14,17.2-29.3,31.6-38.6c13.2-8.9,31.1-9.7,45.4-3c12.1,5.6,21.5,15.6,28.5,26.7
	c9.3,15.3,13.5,34.3,9.5,51.9c-4.4,18.4-17.6,33.1-32.2,44.4c4.8,12,9.7,23.9,14.4,35.9c1.5,9,0.7,18.3,1.5,27.4
	c1.6,20.6-0.9,41.6-7.5,61.2c-9.3,28.2-26.6,52.7-41.2,78.3c-1-0.9-2.1-1.9-3.1-2.9c-1.8,5.7-3.4,11.3-5,17c-4,1.7-3.9,6.4-5.8,9.8
	c-2.1-2.7-2-6.2-2.5-9.5c-5.9,6.2-7,15.6-13.8,21c-0.4-4.6,2-8.7,2.5-13.2c-7.5,9.9-10,22.6-18,32.2c1.8-10.7,5.8-21,5.7-32
	c-6,9.6-9.4,20.8-16.8,29.7c-2.7-4.4-0.4-9.8-1.1-14.6c-4.3,8.5-5.5,19-13.1,25.4c0.5-4.6,1.7-9,2.8-13.5c-5.3,4.2-6,11.9-11.8,15.7
	c-1.6-3.2-1.1-6.9-1.6-10.4c-4.1,8.2-4.5,17.9-9.2,25.9c-1.6,0.4-2.1-1.4-2.3-2.6c-0.3-3.2-0.1-6.3-0.4-9.5
	c-5.1,7.2-10,14.7-16.4,20.9c-1.5,1.6-3.4,2.7-5.4,3.8c-0.8-5,0.8-9.9,1.5-14.9c-6.6,7.5-9.5,17.8-17.5,24.1
	c-1.1-2.9-2.3-5.9-3.6-8.7c-4.1,5.6-6.8,11.9-9.5,18.2c-1.8,4.2-4.4,8.1-8,11c-2.3-1.6-2.1-4.5-2.3-6.9c-2.1,4.5-4.1,9-6.3,13.5
	c-1.1,2.2-3.1,3.8-5.4,4.6c-1-3.2,0-6.6-0.2-9.9c-2.5,2.8-2.6,6.8-4.7,9.8c-0.8,0.7-1.6,2.6-2.8,1.5c-0.4-1.4-0.8-2.8-1.1-4.2
	c-1.2,1.9-1.7,4.3-3.5,5.8c-1.6-0.2-1.7-2-2.2-3.2c-1.2,0.6-2.5,1.2-3.8,1.7c-1.1-2.7-2-5.5-2.9-8.3c-0.9,1.3-1.8,2.6-2.8,3.8
	c-4.7-5.1-8.2-11.1-11.9-16.8c-0.3,0.4-0.9,1.3-1.2,1.7c-0.1,2-0.3,4-0.6,5.9c-8.1-9.9-11.4-22.8-19.4-32.8
	c-0.3,3.3-0.1,6.6-0.5,9.9c-10.4-11-17.8-24.6-28.9-35c0.1,2.2,0.3,4.5,0.4,6.7c-9.7-4.8-15.2-14.6-23.3-21.4
	c-0.1,5.5,4.4,10,3.5,15.5c-6.4-4.2-11.8-9.7-17.3-15c-3.8-3.5-6.2-8.3-10.4-11.4c0.1,2.5,0.3,5,0.4,7.6c-4.9-1.8-8.9-5.2-12.8-8.5
	c-6.4-5.4-12.1-11.7-18.2-17.4c-0.1,1.6-0.2,3.2-0.3,4.9c-11.4-6-17-18.7-27.1-26.4c-0.4,2-0.7,4-1.1,6c-1.8,0.6-2.7-1.5-3.8-2.5
	c-8.3-9.7-10.3-22.7-14.3-34.4c-0.8-2.1-1.1-4.6-2.8-6.2c-1.2,1.8-2.5,3.6-4.1,5.1c-4.9-6.4-8-13.9-10.6-21.5
	c-6.2-18.7-9.4-38.5-8.5-58.3c1.4-36.3,14.8-71.1,33.7-101.8c-12-11.9-20.4-27.5-23.1-44.2c-3.1-18.1-1.2-38.1,9.5-53.5
	c7.6-10.8,18.2-20.2,31.1-23.9c16-4.5,34.7-1.9,47.3,9.4c10.8,9.5,17.3,22.6,24,35.1c0.8-2.1,1.4-4.2,2.2-6.3c3.6,0,4.7,3.8,7,5.9
	c2.1-5,0.8-11.2,4.2-15.6c3.5,0.2,4.6,4.6,7.3,6.5c3.6-4.1,3-10.2,6.6-14.3c4.4,1.4,5.2,6.6,8.7,9.1c2.4-4.2,2-9.3,3.9-13.7
	c0.5-1.8,2.4-0.1,2.9,0.8c1.6,3.1,1.7,6.8,4.3,9.4c4-5.1,4.2-11.8,7-17.4c2.7,3.6,5.4,7.2,8.8,10.2c2.3-3.9,0.7-8.5,1.6-12.7
	c5.5,1.5,5.6,8.1,8.2,12.3c2.2-6.8-3.8-13.8,0-20.4c6.9,3.5,5.4,12.6,10.3,17.7c3.1-8.1-0.2-16.9,2.1-25.1c8.7,3.1,8.9,14,15.6,19.2
	C413.8,210.6,413.8,202.2,414.7,194.3z"/>
<path class="st0" d="M420.3,233.1c0.8-6.8,1.5-13.7,3.2-20.4c3.7,7.4,2.9,16,2.1,23.9C424.1,235.1,422.3,233.9,420.3,233.1z"/>
<path class="st0" d="M397.6,228c-0.1-4.5-0.4-8.9-0.4-13.4c1.9,3.4,3.4,6.9,5.1,10.3C400.7,226,399.1,227,397.6,228z"/>
<path class="st0" d="M237.7,220.9c4.7-1.4,9.6-2.3,14.3-3.4c12.1,0.2,24.5,4.7,32.8,13.7c13.1,13.9,16.7,33.8,18,52.2
	c4.5-0.2,6.4-4.7,8.4-7.9c5.1-8.5,14-13.8,23.1-17.2c8.3-3,17.1-4.7,25.8-5.6c2-0.4,3.8,0.5,5.7,0.9c2.1-0.5,4.1-1.1,6.1-1.6
	c0.4-1.7,0.8-3.4,1.2-5c1.6,2.3,2.6,5.1,4.8,6.9c4.1-1.8,1.2-7,1.8-10.3c2.8,2.5,3.1,6.7,6.2,8.9c1-1.9,2-3.7,3.1-5.5
	c1.2,1.4,2.4,2.9,3.8,4.2c1.2-1.5,2.3-3,3.5-4.5c2.2,2.3,4.4,4.6,6.6,6.9c1.8-5-2.1-10.2-0.1-15.3c4.1,4.4,2.9,11.8,8.2,15.2
	c0.8-1.1,1.5-2.2,2-3.5c1.3,0.9,2.6,2.6,4.4,1.9c2.1-1.1,2.6-3.6,3.4-5.6c1.3,2.2,2.4,4.5,4.2,6.2c3.7-2.3,2.4-7.3,5.1-10.4
	c0.2,3,0.3,6.2,1.6,9c3.2-1,3.6-4.5,4.9-7.2c0.6,3,0.8,6.5,3.4,8.5c3.9-3.2,3.2-8.7,5.8-12.6c1.6,3.6,1,7.6,1.4,11.4
	c3.2-0.3,4.9-3.3,6.9-5.4c0.1,3,0,5.9,0.1,8.9c3.4-2.1,5-6,8-8.6c-0.8,3.2-3.4,5.8-3.4,9.3c3.1-0.4,5.8-2.2,8.3-4
	c0.9,0.8,1.9,1.6,2.9,2.4c1.9-0.9,3.8-1.8,5.8-2.6c0.1,1.3,0.3,2.7,0.5,4c2.2,1.1,4.5-1,6.7-1.3c0.1,0.7,0.2,2.1,0.2,2.9
	c18.9,2.1,37.8,6.5,54.6,15.6c1.2,3,2.5,6,4.4,8.7c1.7-0.6,3.4-1.2,5.1-1.8c2.3-14.5,7.8-29,18.3-39.6c8.5-8.4,20.6-12.6,32.4-11.9
	c5.2-0.1,10.4,1.3,15,3.8c-1.9,1.6-4,3-5.5,5.1c1.7,2.3,5,1.4,7.4,0.9c2.9-0.8,6-1.1,8.9-0.2c-2.4,3.2-7.7,3.6-8.5,8.1
	c2.4-0.2,4.8-0.2,7.2-0.2c-1,2.6-2.4,4.9-3.5,7.4c4,0.7,5.7-3.6,9.1-4.7c0.4,4.1-1,8-0.7,12.1c3.9,1,4-3.6,6.5-5.3
	c0.6,4.5,0.5,9.1,1.5,13.5c1.9-1,3.7-2.1,5.6-3.1c0.2,12.7-1,25.7-5.5,37.7c-4,11-11,21-20,28.4c-2.8-0.2-5.5,0.3-7.8,1.9
	c8.7,19.9,16.7,40.3,20,61.9c5.8,34.1-1.9,70.2-21,99.1c-0.6-12.3,0.2-24.5,0.4-36.8c7-2.9,7.3-11.4,7.8-17.8c1-0.4,1.9-0.7,2.9-1
	c-0.2-6.4,2.6-12.7,1.3-19.1c-0.3-2.6-1-5.4,0.2-7.8c3.3-5.5,2-13.5-2.8-17.8c-2.5-2.1-5.8-2.4-8.9-2.6c0.2,6.5,3.8,12.1,5.7,18.2
	c-1.7-0.4-3.4-0.7-5.1-1.1c-1.2,4.9,1.7,9.4,2.4,14.1c-2.3,0.8-5.2,1.4-6,4c-1,3.8,0.6,7.6,1.2,11.3c1,3.8,1.2,7.7,2,11.6
	c-2-2-4.7-3-7.2-4.1c2.2,15.9,2.5,32.1,1.1,48.2c-0.5,6.2-1.7,12.8-5.7,17.8c-0.5-9.1-0.7-18.2-2.4-27.2
	c-2.4,11.4-0.3,23.3-3.8,34.6c-2.3-6.2-0.4-13.2-3.2-19.4c-2.4,10.9,0.6,22.3-1.9,33.2c-0.6,3-2.4,5.5-4.7,7.4
	c-0.2-11.5,1.1-23.2-0.8-34.6c-2.1,5.5-0.2,11.5-0.8,17.2c-0.7,0-2.2,0-3,0c-1.6,7.7-2.2,16-7.1,22.4c0.4-7.2,1.2-14.4,2.3-21.5
	c0.5-4.7,0.9-9.5-0.5-14c-4.3,7.2-0.3,16.9-6.1,23.4c-2.4-5.4,1.7-11.6-1.5-16.7c-1.3,4.3-1.5,8.8-2.4,13.1
	c-1.5,7.2-3,14.3-4.6,21.5c-1.4,0.2-2.8,0.4-4.2,0.6c1.7-7.9,3.1-15.9,4.8-23.8c0.2-3,0.9-6.6-1.7-8.8c-3.3,15.6-6.5,31.2-9.8,46.8
	c-0.7-12.3,1.1-24.5,1.8-36.8c-1.5-1.2-3-2.4-4.6-3.5c-2.8,5.5-2,12-4.8,17.6c-3.1-4.3,0.8-10.4-3.2-14.3c-1.6,2.2-1.6,5.2-2.1,7.8
	c-0.5,4.7-1.9,9.4-2.1,14.1c1-0.1,3-0.3,4-0.5c-0.4,5-1.5,10-2.7,14.9c-1.7-2.5-3.5-4.9-5.2-7.3c-0.5-5.2,1.2-10.2,1.8-15.2
	c0.3-2.6-0.5-5.2-2.5-7c-2.8,10.8-2.3,22-2.9,33.1c-0.8,8-2.4,16.6-8.4,22.5c0.8-9.5,2.3-19,3.2-28.5c0.9-7.8,2.2-15.9,0.4-23.7
	c0.9-4.4,2-8.8,4.4-12.6c0.3,1.6,0.6,3.3,0.8,5c2-4.1,3.6-8.5,5.8-12.5c1.2,1.6,1.8,3.5,2.5,5.5c1.5-4.2,3.3-8.2,5.2-12.2
	c0.7,0,2,0,2.7,0c0.3-7.2,0.6-14.5,1-21.7c-0.6,0.3-1.9,0.9-2.5,1.1c-2.5,3.7-1.5,8.5-2.2,12.6c-0.9-1.6-1.8-3.2-2.9-4.6
	c-1.8,1.7-3.3,3.7-4.6,5.9c-0.7-0.4-2.2-1.1-3-1.5c-5.6,8.4-7.1,18.6-9.2,28.3c-1.4-8.1,3.5-15.6,2.7-23.7c-4.2,0.4-4.3,5.1-5.7,8.1
	c-2-1.5-1.4-5-3.8-5.9c-3.9,3.5-3.7,9.6-7.8,12.9c-0.4-2.2-0.6-4.5-0.8-6.7c-1.2-0.8-2.4-1.6-3.6-2.5c3.7-14.6-0.5-29.6,0.5-44.3
	c4.6,10.1,2.4,21.6,4.9,32.2c5-7.9,4.5-17.8,2.8-26.6c-0.4-3.2-2.9-5.8-2.8-9.1c0.1-4.2-0.5-8.4-0.6-12.6c3.4,3.4,5,8.1,6.1,12.6
	c2.4,10.2,3,20.8,3.4,31.3c3.6-2,5-6.2,5.2-10.2c0.6-9.1-1.3-18.2-3.3-27.1c-0.4-2-2.8-2.4-4.4-3.2c-0.1-4.1-1.2-8.1-0.8-12.2
	c1.8,3.5,2.4,8.6,7,9.4c3.8,10.4,2.3,21.7,5.2,32.3c6.1-8.5,4.8-19.6,4.4-29.4c4.1,5.1,1,13,5.9,17.5c4.3-5.4,2.5-12.6,1.2-18.7
	c1.3,0.9,2.6,1.9,4,2.8c3.8-5.9-1.5-11.9-3.4-17.4c3.2,1.5,4.1,5.1,6.5,7.4c0.7,0,2,0,2.7-0.1c-0.8-3.6-1.2-7.2-1.7-10.9
	c1.3,1.2,2.3,2.6,3.4,4c7.3-4.9-2.6-17.7-9.5-12.2c0.5,1.7,1,3.3,1.4,5c-1.4-3.5-2.2-7.1-3.8-10.5c3.5-0.9,7.7-0.7,10.3,2.2
	c3.4,4.2,4.7,9.6,7.5,14.1c7.8-8.7-2.9-24.4-13.8-20.1c-0.2-3.1-1.1-6.2-1.8-9.2c1.9-1.9,3.7-3.8,5.4-5.8c-0.7-2.1-1.5-4.3-1.4-6.6
	c-1.1-1.6-2.3-3.8-4.7-3.4c-3.5,1.7-6.8,5.8-5.6,9.9c0.9,1,2,1.9,2.7,3.1c-1.6-0.9-3.2-2.9-5.1-1.4c-1.4,2.4-0.1,5.2,0.1,7.8
	c-1.4-1.1-2.8-3.1-4.8-2.3c-2.1,4.5,2.1,8.8,2,13.4c-3-0.8-4.1-3.8-5.8-6.1c-1.7-1.7-3.1,0.9-2.7,2.5c0.5,3.2,1.2,6.4,1.8,9.6
	c-1.7-1.2-3.6-2.2-5.5-3c-0.8,2.3-1.1,4.8-1.4,7.2c-1.8-2-3.5-4.1-5.6-5.7c-0.1,3.4-0.1,6.9-0.7,10.3c-1.7-1.5-2.3-4.2-4.4-5.2
	c-3.8,0.7-1.1,5.6-1.4,8.2c-2.5-1.5-3.4-4.4-5-6.7c-0.5,3.6-1.2,7.1-2,10.7c-2.7-2.5-5.1-5.3-7.7-7.8c-2.9,4.4-0.1,9.5-1,14.3
	c-3.5-4.4-7.2-8.9-9.8-13.9c1.6,1.8,3.7,2.9,5.9,3.7c3.5-1.3,2.3-4.7,1.9-7.5c2.4-1.1,4.2-3,6-4.8c-1.2-3.9-2.8-7.6-2.7-11.8
	c2.7,0.9,6.4,2.3,8.5-0.4c-1-1.8-2.2-3.5-3.3-5.2c3.5,0,7.5,0,9.9-2.9c-2.1-1.5-4.4-2.8-5.6-5.1c3.5-1.2,7.1-2.2,10.6-3.5
	c-1.4-0.8-2.8-1.6-4.2-2.3c3.1-3.5,6.1-7.2,8.6-11.1c1.6-2.4,0.9-5.3,0-7.8c-5.1,4.8-9.7,10.4-15.8,14c-3.4,2-7.5,0.5-11-0.6
	c-6.5-2.5-12.9-7.1-20.3-6.2c-6,1.4-9.1,7.4-12.1,12.2c-0.6-4.1,0.5-8.4,3.1-11.7c3.8-5,9.1-8.3,14.4-11.5c-3.2-3.1-8-5.5-12.4-3.5
	c-8.7,3.8-13.6,13.2-15.3,22.2c-5.6-1.1-10.3-5.5-11.7-11c-0.4-6.4,0.8-12.7,0.9-19c-0.2-0.4-0.5-1.3-0.7-1.7
	c-0.5,0.4-1.4,1.2-1.8,1.6c-0.3-0.7-1-2-1.3-2.7c-1.4,1.4-2.8,2.8-4.3,4.1c-0.8-5.2,4.2-8.9,4.1-13.9c-1.6-1.6-3.6-0.4-5.4,0
	c0.6-5.5,5.6-9.8,4.5-15.6c-3.4,0.1-4.4,3.8-7,5.3c-1.4-9.2,3.2-18.2,10.2-24c-4.6-0.7-7.8,2.8-10.6,5.7c1.9-5.6,6.7-9.5,10.6-13.7
	c-4.3-2.3-7.8,1.9-11.4,3.6c3.9-11.2,9.8-21.5,14.5-32.3c-3.3,0.2-6.6,1.4-8.7,4c-4.5,5.3-6.9,11.9-10.9,17.5
	c-2.2-11.9-5.9-24.1-14.5-33c-3.1-3.2-6.7-5.8-10.7-7.5c2.6,6.9,8.3,12,10.7,19c-5.9-4.6-12.1-10-19.9-10.6
	c5.8,4.8,11.8,9.5,16,15.9c6.2,9.6,9.9,20.7,12.6,31.7c-2.5-2.2-5-4.5-7.6-6.6c1.1,3.3,3.1,6.2,4.7,9.2c-2.5-0.7-5-1.4-7.6-2
	c7.6,6.2,11.9,15.8,12,25.6c-2.9-2.3-5.1-5.5-8.3-7.3c-1.6-1-3.2,0.3-4.5,1c2.7,6.7,8.8,11.9,9.2,19.4c-2.1-1.5-4-3.3-6.5-4
	c1.2,6.7,4.6,13,4.4,20c0.1,7.9-1.9,16.9-8.7,21.7c-2.5-2.3-4.5-6.1-8.6-5.6c-0.7,2.9-0.1,5.8-0.1,8.7c-2.1-0.2-4.6,0-6.1-1.8
	c-3.1-3.1-4.8-7.8-9-9.6c-5.7-1.3-10.7,2.5-14.9,5.7c-5.2,4.7-13.4,4.5-19.5,1.4c-4.5-2-7.7-5.9-10-10.1c-4,0.2-8.1,0-12,1.1
	c3.2,1.4,8-0.1,9.9,3.5c-4.8,1.7-10.2,0.6-14.9,2.8c4.5,4,10.8-0.9,15.6,2.3c-0.8,1.7-2,3.1-3.4,4.2c3.8,3.1,10,1.3,13,5.7
	c-4.5-0.3-9.8-1.3-13.7,1.6c5.5,2.8,11.8,1.7,17.7,1.4c-5.2,4-12,4.6-17.8,7.6c0.8,1,1.4,2,2.2,3c-2,0.6-3.9,1.6-5.4,3
	c3,1.3,6,2.6,8.9,4c-1.7,2-5.3,1.7-6.1,4.4c2.5,1.5,4.9-0.1,7.2-1.2c2.1-1.1,4.4-1.6,6.7-1.9c-2.2,3.7-6.7,5-9.6,8.1
	c4.2,2.6,9-2.1,13.6-0.1c-1.3,4-5.6,5-8.5,7.5c4.4-1.5,8.7-3,13.2-4c-1.9,6.6-8.2,10.2-11.6,15.9c-0.6-1.1-1.1-2.3-1.7-3.4
	c-1.7,1-3.1,2.3-4.5,3.6c-0.8-2.9-1.8-6.3-5.4-6c0-0.8-0.1-2.5-0.1-3.4c-1.3,0-2.7-0.1-4-0.1c-0.1-1.9-0.1-3.9-0.4-5.8
	c-2.7,0.4-5.1-0.9-7.2-2.4c-1.8,1.6-3.2,3.6-4,6c1.6,0.6,3.2,1,4.9,1.3c0,0.6,0,1.8,0,2.4c0.9-0.2,2.6-0.7,3.4-0.9
	c-0.6,5.8-1.4,11.6-1.5,17.4c-6.2,2.9-3.7,10.7-4.9,16.1c-2.8-7-2.2-14.8-1.7-22.1c-2,0-4.6-0.3-5.6,1.8c-2.2,4.5-1.7,9.7-2.9,14.5
	c-4.7-12.4,0.5-25.7-2.3-38.3c-4.2,2.8-7.3,6.8-10.6,10.5c0.6-6.3,1.9-12.5,3.1-18.7c-2-0.6-4.1-0.5-6.1-0.6
	c1.3-4.8,3.4-9.4,5.1-14.1c-1.6-0.6-3.6-1.9-5.1-0.4c-4,3.1-3.7,8.7-6.3,12.6c-2.3,3-5,5.7-7.4,8.6c0.9-3.5,1.6-7.1,2.3-10.6
	c3-1.1,5.3-3.5,6.4-6.5c1.8-4.7,2.6-9.8,4.6-14.4c0.4-1.3,1.9-4-0.4-4.3c-2,0.4-3.7,1.6-5.4,2.5c1.6-4.9,5.7-9,5.1-14.4
	c-6.4,1.7-8.9,8.8-11.9,14.1c-5.7,1-8.4,6.7-8.7,11.9c1.2,0.5,2.5,0.9,3.8,1.3c-2.5,6.2-4.8,12.7-4.5,19.4c1.2-0.1,2.5-0.2,3.7-0.2
	c-0.5,4.9-2.5,11.4,2,15.1c-2,7.7-1.1,15.9,1.4,23.4c7.9-0.6,4-11.7,10.1-14.4c1.3,5.2,1.7,10.7,1.6,16.1c0.1,5.1-0.1,10.6,2.5,15.2
	c4.6-4,1.5-11.5,6.5-15.1c-0.7,8.6-2.9,18.3,1.6,26.3c4.9-4.2,3.3-11.4,5.4-16.8c2.9,8.2-0.4,17.6,3.4,25.5c1.6-0.7,3.2-1.5,4.8-2.3
	c-0.1,3.8,0.2,7.6,0,11.4c-4-2-7.9-4.3-11.7-6.8c-1.4,4.2,0,8.9-1.9,13.1c-2.3-0.5-2.9-3.1-2.9-5.1c0-3.1,0-6.3-0.2-9.4
	c-4,0.1-6.1,3.7-7.8,6.8c-1.5-4.8,2-9.4,0.5-14.1c-0.4-1.3-1.9-1.9-2.9-0.8c-2.3,2-3.4,5-5.6,7.1c-0.3-3.7,0.7-7.4,0-11.1
	c-4.3,0.7-6.1,5.4-10.1,6.8c0.4-6.3,2.7-12.2,3-18.5c-5.9-0.2-6.9,6.9-11.4,9.3c-1.1-5.3,2.4-10.2,1.6-15.3
	c-3.5-0.8-4.8,2.9-7.2,4.5c0.3-4.4,1.1-8.8,0.7-13.2c-3.9,5.4-4.2,12.4-5.2,18.8c-0.3,6-1.2,12.4,1,18.2c1.8-3.8,2.9-8,5.3-11.5
	c1.9,6.5-2.4,13.6,1.4,19.7c2.4-1.5,1.6-4.6,2.2-7c3.2,4.1,1.4,9.7,2,14.4c0.2,1.7,2.4,1,3.6,1.4l-1.9-0.3c0.6-0.9,1.7-2.8,2.3-3.7
	c2.1,10,2.6,20.4,2.4,30.6c-4-2.2-6-6.6-6.7-11c-1.1-5.6-1.6-11.2-3.1-16.7c-0.3,5.1-0.7,10.1-1.2,15.2c-0.2-4-2.2-7.7-3.8-11.3
	c-2.1-4.6-4-9.3-6.3-13.7c-2.6,5.3,1.1,12.4-3.8,16.5c-5-6.2-3.2-14.8-5.8-22c-0.8-0.9-1.8-1.6-2.8-2.3c-1.8-5.4-2.5-11.1-4.6-16.3
	c-2.4,1.7-3.4,4.9-6.2,5.9c-8.5-22.2-11.1-46.5-8.6-70.1c2.6-25,9.1-49.9,21.2-72.1c5.3-9.6,11.8-18.6,19.7-26.3
	c-12-5.4-20.5-16.6-24.3-29c-3.4-10.9-4.6-22.4-4.2-33.7c2-3.4,4.2-6.7,5.1-10.6c1.2,0.6,2.4,1.3,3.5,2c-0.1-3.8,0.2-7.5,0.5-11.2
	c1.3,0.8,2.5,1.8,3.9,2.4c2.8,0.1,5.3-2.2,6.2-4.7c1.3-2.3-0.6-4.5-1.2-6.6c2.9,1.1,5.4,5.1,8.7,2.7c-1.6-4.7-5.7-7.6-8.4-11.5
	c2.8,0.9,5.5,2.6,8.5,2.4C239,225.7,237.7,223.1,237.7,220.9z"/>
<path class="st0" d="M436.1,219.2c3.3,4.1,4.3,10.9,0.7,15.1C436.2,229.3,435.7,224.2,436.1,219.2z"/>
<path class="st0" d="M455.7,237.1c0.9-4.5,2.4-8.8,5-12.6c1.4,3.8,1,7.9,0.6,11.8C459.5,236.4,457.6,236.7,455.7,237.1z"/>
<path class="st0" d="M448.8,229c0.2,0.3,0.7,0.9,0.9,1.2c-0.2,1.4-0.4,2.8-0.7,4.2C449,232.6,448.9,230.8,448.8,229z"/>
<path class="st0" d="M467.5,238.1c0.9-2.8,1.8-5.6,2.6-8.4c-0.2,2.7-0.1,5.3,0.1,8C469.5,237.8,468.2,238,467.5,238.1z"/>
<path class="st0" d="M389.1,232.1c1.8,2.1,2.4,4.8,2.3,7.5C390.1,237.3,389.3,234.7,389.1,232.1z"/>
<path class="st0" d="M475.3,246.6c2.1-5.4,6.1-9.8,8.9-14.8C484.8,238,481.5,244.6,475.3,246.6z"/>
<path d="M261,249.1c7.3,2.5,14.2,6.8,18.7,13.1c3.6,5,5.7,11,6.4,17.1c1.1-0.6,2.1-1.3,3.2-1.9c0.6,2.6,1.2,5.3,1.6,7.9
	c1.4-0.9,2.9-1.5,4.5-1.7c-0.2,3.7-1.1,7.3-2,10.9c-6.8,1.5-13,5-18,9.8c-6.6,5.9-11.1,13.6-17.8,19.3c-4.2,3.6-8.9,7.3-14.6,8.1
	c0.5-3,3.6-5.4,3.1-8.6c-2.3-4.3-7.2-6.7-8.7-11.5c-1-4-2.1-8-4.1-11.7c-1.1-1.5,0-2.9,1.4-3.6c-2.5-4.1-4.3-8.5-5.5-13.1
	c1.5,0,3,0.1,4.5,0.2c-1-3.2-2.1-6.4-3-9.6c2.1,0.7,4.2,1.5,6.4,2.2c-0.8-3.5-2.3-6.8-3.1-10.3c0.7-0.3,2.2-1,2.9-1.3
	c0.8,0.2,2.3,0.7,3.1,0.9c2.7-2.4,2.1-6,1-9c5.2-0.9,9.8,2.1,14,4.5c-0.8-3.3-2.6-6.5-2-10.1c2.7,0.3,5,1.5,7.3,2.9
	C260.6,252.2,260.8,250.6,261,249.1z"/>
<path d="M577.2,255.3c5-4.5,12-6.3,18.6-6c0.3,2.7-0.6,5.2-2,7.4c1,1.3,2.1,2.6,3,4c3.7,0.1,7.3-1.9,11-0.7
	c-0.7,4.8-5.4,7.1-7.4,11.2c4.8,0.3,8.3-3.2,12.5-4.8c2.2-0.8,4.2,0.7,5.9,1.9c-1.3,6.9-7.5,11.3-12.7,15.4
	c4.2-1.6,9.8-3.9,13.6-0.3c-1.2,2.4-2.5,4.8-3.8,7.2c0.9,1.2,1.8,2.5,2.7,3.8c-1.2,1.5-2.4,3.1-3.6,4.6c1.8,1,5.5,0.9,4.7,3.9
	c-1.1,1.4-2.5,2.6-3.8,3.9c2,0.5,4.1,1,6.1,1.4c-1.6,5.4-8.8,7-9,13.1c-3.6,0-7,1-10.3,2.6c4.7,19.9,8.2,40.5,6.6,61
	c-6.3-19.8-12.2-39.8-17.8-59.8c-6.5-11.6-16.3-21.1-26.7-29.3c-3-2.9-6.9-5.1-8.7-9c1-1.9,2.8-2.9,4.8-3.6
	C565.2,273.5,568.8,262.5,577.2,255.3z"/>
<path class="st0" d="M512.5,255.5c0.5-2.1,1.2-4.2,2-6.2C514.9,251.6,514.5,254,512.5,255.5z"/>
<path d="M406.9,289.9c-6.4-6.4-6.6-16.4-6.5-24.9c3.9,4.3,5.8,9.9,8,15.2c3.3-5,7-9.9,8.3-15.9c0.4,2.1,1.2,4.3,0.8,6.5
	c-0.9,5.3-0.2,11.3-4.6,15.2C410.6,286.9,408.9,288.6,406.9,289.9z"/>
<path d="M424.5,265.9c0.4,0.3,1.3,1,1.7,1.3c-0.1,1.8-0.2,3.7-0.3,5.5c2.9-0.9,4.8-4,8.1-3.5c-0.4,3.9-2.1,7.8-5.4,10
	c-1-1.7-1.8-3.4-2.6-5.2c-2.2,3.1-4.4,6.9-8.2,8.3C417.7,276.2,421.2,270.9,424.5,265.9z"/>
<path d="M428.2,288.6c2-8.2,8-17.2,17.4-17.4c-0.3,1.6-0.7,3.2-1,4.9c4.2-0.8,8.5-1.7,12.7-2.6c-4,5.1-9.9,8-15.5,10.9
	c-1-0.7-2-1.3-3.1-2c-2.2,1.7-3.7,3.9-5.3,6C432.1,290,429.5,290.2,428.2,288.6z"/>
<path d="M356.8,276.7c1.5-1.1,3.1-2.8,5.2-2.2c4.6,1.1,8.1,4.5,12.3,6.5c2.7,1.5,5.6,2.7,8.3,4.3c3.2,3,4.9,7.2,5,11.5
	c-3.6,0-5.6-3.2-8.1-5.2c-4.1-2.2-7.9-4.9-12-7.1c-1.9-0.8-2.7-2.7-3.9-4.1C361.2,279.3,358.9,278.2,356.8,276.7z"/>
<path d="M453.4,279.3c3.8-2.2,8.3-2.1,12.5-2.4c-0.1,0.8-0.4,2.5-0.6,3.3c2.9-0.2,5.8-0.7,8.7-0.5c-2.8,5.4-9.6,6.2-15.1,6.2
	c0.2-0.9,0.6-2.7,0.7-3.6c-2.4,0.5-4.9,1.2-7.4,1.2C452.3,282.1,451.7,280.2,453.4,279.3z"/>
<path d="M346.4,279.8c4.5-1.3,8.7,1.3,12.7,3.1c4.3,2.3,9.4,4.4,11.7,9c-1.9,4.6-7.8,3.9-11.2,1.6c-0.3,1.4-0.6,2.7-1,4.1
	c-2.8,0.8-5.8,0.5-8.7,0.3c-2.6,0-4-2.7-6.4-3.4c-3.9-1.4-8.1-2-11.9-3.6c4.2-1.3,8.7-1.2,13-1.4c-2.8-0.8-5.4-2-7.9-3.4
	c4.8-4.3,10.7,0.2,15.7,1.7c0.4-1.1,1.7-2.1,1.4-3.4C351.3,282.7,347.8,282.6,346.4,279.8z"/>
<path d="M481.5,281.5c3.8-1.5,9.1-2.8,12.4,0.4c-2.8,3.2-7.2,3.4-11.2,4.1c-3.4,0.4-6.1,2.6-9,4.2C473,285.5,478,283.2,481.5,281.5z
	"/>
<path d="M485.4,287.5c4.1-2.2,8.9-3.3,13.5-3c0.3,0.4,0.9,1.3,1.2,1.7c-5.2,2.5-10.8,4.3-16.4,5.9
	C483.5,290.4,483.7,288.3,485.4,287.5z"/>
<path d="M497.8,289.6c3.9-1.9,8.3-1.4,12.3-0.2c-0.5,1.2-0.9,2.5-1.4,3.7c-4.4-0.6-8.8,0.2-13.1-0.4
	C496.2,291.6,496.5,290.1,497.8,289.6z"/>
<path d="M314.6,291.7c0.8-1.7,2.8-1.8,4.4-2c7.5-1,16.4,2.9,18,11c-4.5-2.7-8.9-5.6-13.7-8C320.5,292.2,317.5,292.3,314.6,291.7z"/>
<path d="M311.2,296c4.5-1.2,10.2-1.4,13.6,2.5c1.3,1.3,0.8,3.1,0.7,4.7c-5.1-1-10.1-2.4-15.1-4C310.5,298.4,311,296.8,311.2,296z"/>
<path d="M505.2,296.7c1.8-1,3.7-1.6,5.7-1.6c1,1.8,0.4,4.7-2,4.5C506.9,300.2,506.1,298,505.2,296.7z"/>
<path d="M309.5,302.6c3.2-1.3,6.5,1,7.5,4c-2.9,0.4-5.8-0.4-8.6-0.8C308.6,304.7,309,303.6,309.5,302.6z"/>
<path d="M519.6,302.1c5.9-1.1,12.5-0.6,17.4,3c2.6,1.9,4.2,4.9,5,8c-5.3-2.8-10.3-6.7-16.3-8C523.7,304.3,520.6,304.5,519.6,302.1z"
	/>
<path d="M528.8,312.3c9.2-0.5,18.5,6.8,19.2,16.2c-4.8-5.6-11.3-9.1-17.2-13.5C529.8,314.5,529.3,313.4,528.8,312.3z"/>
<path d="M518.7,324.2c3.2-0.7,7.3-0.1,8.3,3.6C523.8,328.7,520,327.5,518.7,324.2z"/>
<path d="M276.1,329.7c0.1-3.1,4-3.4,6.4-3c1.8,0.3,1.3,2.4,1.7,3.7C281.5,330.7,278.7,330.8,276.1,329.7z"/>
<path d="M536,326.5c6.1,2.9,14.2,7.2,13.9,15.1c-3.2-2-4.8-5.6-7.8-7.8C539.5,331.9,537.3,329.5,536,326.5z"/>
<path d="M299.8,330.4c0.8-0.2,2.3-0.7,3.1-0.9c1.3,0.3,2.6,0.7,4,1c0.1,3-0.1,5.9-0.7,8.8c-3.2-1.3-6.8-1.6-10-2.9
	c-0.3-2.4,3.3-1.6,4.7-2.3C300.5,332.9,300.1,331.6,299.8,330.4z"/>
<path d="M521.3,331c3.7-0.5,6.7,2,8.3,5.1c-1.6,2.9,0.4,6,0.5,9c-2.6-2-5.2-4.1-7.6-6.3c0.6-0.8,1.3-1.7,1.9-2.5
	C523.3,334.6,522.3,332.9,521.3,331z"/>
<path d="M268.9,335c2.8-3.4,11.3-3,10.9,2.5C276,338.4,272.1,337.5,268.9,335z"/>
<path d="M220.5,357.4c5-9,12-20.4,23.8-20.1c-2.4,5.9-9,8.1-12.6,13.1c2.6-0.7,5.2-1.5,8-1.6c-1.1,9.1-12.2,11.3-15.5,19.3
	c2.6-0.1,5.1-0.2,7.7-0.1c-1.4,6.8-8.4,10-10.8,16.3c1.6,0.3,3.2,0.6,4.8,1c-2.9,4.6-7.4,8.3-8.7,13.8c2.9-0.2,5.9-0.9,8.8,0
	c-0.8,6.2-5.9,10.2-8.5,15.6c2.5-0.1,4.7-1.5,7.2-1.3c0.3,0.7,1,2.1,1.4,2.7c-3.4,3-9.8,2.5-11.2,7.5c3.8,1.5,7.6-0.7,11.3-1.4
	c-3.6,5-8.4,9.6-9.5,15.9c-0.8,3-0.9,6.2-1.1,9.3c1-0.6,2-1.2,3.1-1.8c-0.8-1.3-1.4-2.7-2.1-4.1c0.9-5.6,6.2-12.8,12.6-10.2
	c-2.8,4.1-8,6.6-8.8,11.9c3.8-1,4.3-6.3,8.6-6.6c-1.9,3.8-4.3,7.3-6.4,11c2.3-1.2,4.5-2.9,7.2-2.4c-1,3.8-5,5.3-6.6,8.7
	c-4,6.7-3.7,14.7-3.6,22.2c-2.7-0.7-5.4-2.4-6.1-5.3c-0.7-4.7-1-9.4-1.2-14.1c-1.1-0.2-2.2-0.4-3.3-0.6c-1.8-7.7-1.2-15.8,1.3-23.3
	c-5.2-4.7-4.1-12.2-2-18.1c-2.7-7.2,0.7-14.5,4.1-20.9c-0.8-4.9,0.6-9.7,2.7-14.1c-0.5-7,3.7-12.9,7.4-18.5
	C221.7,360,221.1,358.7,220.5,357.4z"/>
<path d="M428.6,351.7c1.4-7.6,7.6-14,15.4-14.8C439.6,342.5,434.8,347.9,428.6,351.7z"/>
<path d="M537,336.9c7.7-0.8,11.1,7.7,11.7,14c-0.8,0-2.5,0.1-3.3,0.2c0.2,2.2,0.5,4.3,0.5,6.5c-4.8-2.7-6.2-8.5-7.6-13.4
	c1,0.2,3,0.6,4,0.8C540.7,342.2,538.6,339.7,537,336.9z"/>
<path d="M364.4,338.5c6.6-0.8,11.6,5.8,11.6,11.9c-2.3,0.5-4.1-1.4-5.8-2.7C367.4,345.4,365.2,342.2,364.4,338.5z"/>
<path d="M262.2,345.4c1.9-4.4,8.6-7.1,12.4-3.4C271,344.5,266.4,344.9,262.2,345.4z"/>
<path d="M355,340.3c6.6-1,14.3,4,14.6,10.9c-3.4-1.7-6.1-4.6-9.5-6.3C358.1,343.7,355,343.2,355,340.3z"/>
<path d="M445.5,341.6c2.3-0.8,4.5,0.7,6.6,1.5c-2,1-4.1,1.9-6.1,2.8c-3.8,1.7-6.1,6-10.5,6.4C435.2,346.5,440.5,342.8,445.5,341.6z"
	/>
<path d="M297.2,345.2c1.1-2,4.3-3.8,6.1-1.7c1.6,2.9-2.9,3.7-4.8,4.2C298.2,347.1,297.5,345.9,297.2,345.2z"/>
<path d="M343.5,347.7c3.4-6.1,14.8-0.1,11.5,6.2C350.8,352.4,347.2,349.9,343.5,347.7z"/>
<path d="M522,346c3.9-0.2,8.2,3,6.9,7.3C525.3,352.5,522.8,349.5,522,346z"/>
<path d="M447.2,353.9c2.6-5.1,9.8-8.4,15-5.1c-0.1,0.8-0.5,2.2-0.6,3C456.8,352.6,452.1,355.2,447.2,353.9z"/>
<path d="M337.8,351.3c3.1-0.6,6.3,0.7,8.1,3.4c-0.4,0.8-1.3,2.3-1.7,3.1C340.9,357.1,338,354.8,337.8,351.3z"/>
<path d="M557.5,351.5c1.6-0.1,3.4-0.5,4.9,0.4c-0.3,1.2-0.7,2.5-1,3.8c-1.5-0.7-2.9-1.5-4.4-2.2C557.2,352.9,557.4,352,557.5,351.5z
	"/>
<path d="M588.1,353.2c1.7-1.4,4.7-0.8,4.8,1.7c0.5,1.7-1.4,2.5-2.4,3.4c1.5,3.1,6.6,5.8,4.2,9.6c-4.5,0.8-9.2-5.6-6-9.3
	C590.4,357,588.4,355,588.1,353.2z"/>
<path d="M455.7,356.6c4-3.6,12.8-3.7,14.6,2.2C465.5,361.5,459.5,360.5,455.7,356.6z"/>
<path d="M532.4,354c2.3,1.3,3.8,3.8,2.9,6.4C531.7,360.9,530.9,356.5,532.4,354z"/>
<path d="M256.9,358c3.9-3.8,10.4-4.7,15.1-2C267.9,359.4,261.7,359.7,256.9,358z"/>
<path d="M525.5,357.1c3,0.5,4.6,3,4.7,6c-1.2,0.4-2.4,0.7-3.7,1.1C525.9,361.9,525.2,359.5,525.5,357.1z"/>
<path d="M385,359.8c7.1,2.8,9.8,11.7,8.7,18.7c-3.9-1.9-5.5-6.2-6.6-10.1C386.4,365.6,385.1,362.8,385,359.8z"/>
<path d="M255.4,364.6c2.8-3.4,7.6-3.8,11.7-3.5c1.9,0,3.1,1.6,4,3.1C266,365.4,260.5,366.5,255.4,364.6z"/>
<path d="M472.9,362.9c2.6-4,11.1-3,11.2,2.4c0.3,1.9,0.3,3.9,0.3,5.9c-2.1-0.1-3.9-0.9-5.5-2.1c0.6-0.5,1.7-1.6,2.3-2.2
	C478.9,364.6,475.7,364.1,472.9,362.9z"/>
<path d="M295.4,363.6c0.7-0.3,2-0.9,2.6-1.2c1.5,1.9,4.2,2.7,6,0.7c0.7,0.6,1.5,1.2,2.2,1.9c-2.4,3.9-8.1,4-11.4,1.2
	C295,365.5,295.2,364.3,295.4,363.6z"/>
<path d="M552,367.4c-1.7-4.7,4.7-6,7-2.7c-1.3,1.9-2.6,3.9-3.6,6c-2.8,1.2-5.7,1.9-8.7,2c-0.4-0.4-1.1-1.3-1.4-1.8
	C546.4,368.4,549.7,368.5,552,367.4z"/>
<path d="M521,364.4c3.8,0.4,6.6,3.8,5.8,7.6C522.6,372.3,520.1,368.2,521,364.4z"/>
<path d="M379.9,365.4c2.2,0.8,4.8,1.5,6.2,3.6c1.9,2.8,1.7,6.3,1.4,9.6C382.2,376.5,379.7,370.8,379.9,365.4z"/>
<path d="M430.7,378.7c-2.2-4.8,1-10.7,6-11.9c0.1,2.4,0.5,4.9,1.8,7C437,376.9,433.7,377.9,430.7,378.7z"/>
<path d="M256.3,376.7c-1.2-5.8,6.4-7.9,10.7-6.2C266.2,375.5,261,377.9,256.3,376.7z"/>
<path d="M294.7,376.4c0.5-6,9-7.4,13.3-4.6C305.7,377,299.5,376.6,294.7,376.4z"/>
<path d="M355,371.9c4.5-1.5,9.5-2.2,14.1-0.9c4.2,1,8,4.1,9.4,8.3c0.8,2.7,0.5,5.5,0.5,8.3c-5.9-1.5-10.2-6.8-16.5-7.3
	c-7.2-1.4-12.3,6.4-19.5,5.4C343.2,378.9,349.1,374.1,355,371.9z"/>
<path d="M587.5,369.9c7.7-0.4,10.8,8.7,10.9,15c-2.7-1-3.9-3.7-5.2-5.9C591.4,375.8,589.3,372.9,587.5,369.9z"/>
<path d="M518.3,371.2c3.9,0.1,8.3,3.9,6.9,8.1c-1-0.2-3-0.8-4-1c1.2,1.6,1.7,3.5,1.9,5.5c-1.2,0.4-2.3,0.9-3.5,1.2
	c-0.1,1.4-0.3,2.7-0.4,4.1c-2.6-2.3-4.6-5.2-6.4-8.2c1.1-0.4,2.1-0.7,3.2-1.1c-1.1-2.3,0-3.8,2.1-4.6
	C517.5,373.8,517.5,372.5,518.3,371.2z"/>
<path class="st0" d="M395.4,398.4c6.8-6.8,10.2-16.1,13.5-24.9c7.9,9.9,16.2,19.5,23.5,29.9c1.9,7.7,4.1,15.7,9.8,21.6
	c9,13.9,11,30.9,12,47.1c-1.4,15.3-2.8,30.6-4,45.9c-0.6,5.4-0.6,11.5-4.6,15.6c-4,3.9-10.3,3.4-15.1,1.4
	c-7.2-2.9-14.6-7.2-22.7-5.2c0.5-2.4,0.6-5,1.4-7.3c8.4-6.4,18.6-10.4,25.7-18.4c5.5-6.1,8.3-15,5.6-23c-0.8-4.8-4.5-9-3.8-14.1
	c0.6-2.8-1.7-5-3-7.2c-0.5-4.1,2.1-10.4-2.7-12.6c-2.6-0.4-0.9,3.4-1.8,4.8c-1.8,1.6,0.1,3,1,4.4c-2.3,1.8-1.3,4.3-0.5,6.7
	c-3.6,0.2-7.2,0.2-10.8,0.2c3,4.2,8.4,5.1,12.5,7.9c-0.1,2.6-0.7,5.2-2.1,7.5c-14.3-2.8-29-2.5-43.6-2.6c-0.1-3,1.2-6.3,4.2-7.4
	c4.1-1.4,8.6-2.4,12-5.4c-4.4-2.9-10-2-14.9-1c-9.5,2.3-16.7,10.6-19.7,19.7c-2.4,6.9-0.4,14.8,4.2,20.3
	c6.7,7.1,16.2,10.3,23.6,16.4c3.5,2.9,5.8,7,6.7,11.4c-10.7,2.8-21.9,4.2-32.9,3.7c-5.7-5.4-8.5-13.3-9.9-20.9
	c-2.9-21.4,3.8-42.6,11.3-62.4c4.6-13.4,9.8-27,10.3-41.3C385.8,405.9,390.7,402.3,395.4,398.4z"/>
<path d="M535.4,377.1c1.6-0.1,3.2-0.2,4.8-0.4c-0.9,1.6-1.9,3.1-3.2,4.5c0.8,1.1,1.6,2.2,2.4,3.3c-1.8,0.7-3.7,1.3-5.5,1.9
	c-0.9-1.6-3.1-2.9-2.5-4.9c0.7-0.2,2.2-0.5,3-0.6C534.7,379.7,535,378.4,535.4,377.1z"/>
<path d="M543.5,381c1.8-1.7,3.9-3.1,6.4-3.5c2.4-0.1,3.8,2,5,3.6C552.7,385.7,546.4,384.2,543.5,381z"/>
<path d="M259.5,382.5c2.3-2.3,5.8-2.4,8.8-2.3c-1,5.4-6.3,8-10.8,10C257,387.5,257.3,384.4,259.5,382.5z"/>
<path d="M589.2,385.8c2.4,1,3.2,3.5,4.2,5.7c2.5,6.5,4.3,13.3,6.3,20c-1.1,0.7-2.1,1.3-3.2,2c0.3,4.8,1.5,9.5,1.4,14.4
	c-2.2-4.3-2.8-9.3-4.8-13.7c-2.2-6.4-5.6-12.4-7-19c4.6,2.2,6.3,7.2,8.5,11.5C595.1,399,589.2,393.1,589.2,385.8z"/>
<path d="M544.5,388.8c3.1-0.9,7.6-0.8,9.4,2.4c-0.2,3.6-5,4.4-7.6,2.7C544.1,393.2,541.3,390,544.5,388.8z"/>
<path d="M531.1,390.8c-0.3-1.9,1.7-1.7,3-1.8c2.8,0.3,5.4,2.8,4.5,5.8C535.9,394,532.9,393,531.1,390.8z"/>
<path d="M296.2,394.4c2.2-0.5,6-0.6,6.6,2.2c-0.9,2.2-3.6,1.2-5.4,0.9C296.3,397,294.5,395.1,296.2,394.4z"/>
<path class="st0" d="M362.4,397.1c1.3-0.6,2.1,1,2.9,1.7c1.9,1.3-0.5,3.8-2.3,3.2C360.6,402,360.1,397.9,362.4,397.1z"/>
<path class="st0" d="M456.5,398.4c1.3,0.1,2.5,0.2,3.8,0.3c-0.1,1.9-0.5,3.9-1.3,5.7C456.2,403.6,456.2,400.8,456.5,398.4z"/>
<path class="st0" d="M467.3,404c0.8-2,1.7-4.1,2.9-6C470.9,400.6,468.8,402.3,467.3,404z"/>
<path d="M542.1,400.1c3-3.6,8.4-1.1,10.5,2.2c1.1,2-0.1,4.7-2.5,4.6C546.7,405.6,544.3,402.8,542.1,400.1z"/>
<path class="st0" d="M467.2,409.3c3-2.6,4.9-6.1,7.4-9.1c1.4,0.3,2.8,0.7,4.1,1.1c-1.2,1.7-2.2,3.5-2.3,5.6
	c-3.2,0.3-4.9,3.1-5.8,5.9c-2.4,0-4.6,1.1-5.5,3.5c-2.6-0.2-4.9,0.8-6,3.1c-3.1-0.2-6.3-1.1-8.5-3.5
	C456.7,415.7,462.9,413.7,467.2,409.3z"/>
<path d="M579.9,402.2c10.4,6.5,12.9,19.8,13.2,31.1c-1.3-0.8-2.5-1.6-3.6-2.5c0.3,7.2-0.2,14.4-0.2,21.5c-3.1,3.1-4.5,7.3-6.9,10.8
	c-3.2-10-4.9-20.3-7.3-30.5c4.1,1.8,4.9,6.4,6.8,10c0.8-10.3-6-19-7-29c6.4,2.5,7.3,10.1,10,15.5
	C585.8,419.9,581.3,411.3,579.9,402.2z"/>
<path class="st0" d="M347.7,402.8c5.7,3.1,11.6,5.9,17.4,8.9c2.8-0.9,5.7-1.7,8.7-1.8c-0.5,1.7-1.1,3.4-1.8,5
	c-6.2,0.3-12.7,0.2-18.5-2.4C349.8,410.8,347.8,406.8,347.7,402.8z"/>
<path d="M293.6,404.5c3-0.6,7-2.5,9.2,0.5C302.1,409.4,294.8,407.9,293.6,404.5z"/>
<path class="st0" d="M450.4,405.8c1.4,1,2.9,2.1,4.3,3.2c-0.4,0.2-1.2,0.6-1.6,0.8c-1.1-0.3-2.1-0.6-3.1-0.9
	C450.1,408.1,450.3,406.6,450.4,405.8z"/>
<path class="st0" d="M263.1,407.6c0.5,3.2-1.9,5.9-3.1,8.6C260.8,413.2,261.8,410.3,263.1,407.6z"/>
<path d="M538.7,413c1.1-1.9,2.6-4.5,5.2-3.8c4.8,1.8,8.8,7.1,6.6,12.4C545.8,419.8,542.1,416.4,538.7,413z"/>
<path d="M294.5,410.4c3.9-0.4,9.4-2.1,11.8,2.1c-3.8,1.7-7.8,0.6-11.7,0.1C294.6,412,294.6,410.9,294.5,410.4z"/>
<path class="st0" d="M322.6,421.2c3.3-5.7,9.3-9.2,15.5-11.1C333.6,414.7,328,417.8,322.6,421.2z"/>
<path class="st0" d="M336.6,422.1c-0.4-3.3,0.4-7.1,4.1-8C341,417.4,338.9,420,336.6,422.1z"/>
<path d="M298,418.2c1.4-2.6,4.2-3.7,7-3.3c1.5,0.1,4.1,0.6,3.8,2.7C305.5,419.6,301.2,420.7,298,418.2z"/>
<path d="M302.1,427.1c1.5-1.8,4-2.1,6.1-2.7c-0.2,1.5-0.6,3.1-2.1,3.8C304.9,429.3,301.6,429.5,302.1,427.1z"/>
<path class="st0" d="M524.4,425c5.6,3.1,4.6,10,5.5,15.3C528.2,435.1,525.8,430.2,524.4,425z"/>
<path d="M430.4,426.5c4.3-1.6,6.7,4,6,7.5C432.9,433.8,429.5,429.9,430.4,426.5z"/>
<path d="M295,431c0-1.5,1.6-2.2,2.5-3.2c1.7,2.8,3.9,7.3-0.2,9.2C296.4,435,295.5,433,295,431z"/>
<path d="M306.3,436.2c-0.1-3.4,1.9-6.2,5.2-6.8C312.3,432.7,310.4,437,306.3,436.2z"/>
<path class="st0" d="M345.7,438.8c1-3.7,2.2-7.3,4.2-10.6C350.9,432.3,348.6,436.1,345.7,438.8z"/>
<path class="st0" d="M337.1,437.1c-1.4-2.7,0.8-5.5,3.5-6.1C339.8,433.3,338.7,435.4,337.1,437.1z"/>
<path class="st0" d="M263.8,440.3c0.7-2.5,1.2-5.1,2.9-7.1C267.8,435.7,267.6,440.7,263.8,440.3z"/>
<path class="st0" d="M519.3,433.5c2.9,7.3,8.2,13.2,11.1,20.5C523.7,449.3,519.9,441.5,519.3,433.5z"/>
<path d="M430,436.4c3.2-2.4,7,3.1,4.8,6C431.9,441.7,430.2,439.1,430,436.4z"/>
<path d="M378.3,444.2c0.8,0.4,1.7,0.8,2.5,1.2c-0.6,2.6-1.7,5.2-4.5,5.9C374.3,448.7,375.8,445.6,378.3,444.2z"/>
<path d="M571.1,445c3,0.1,4.4,3,5.7,5.2c2.9,6,2.4,13.4-0.5,19.2c-2.9-4.9-2.5-10.8-3.1-16.3C573,450.3,571.3,447.8,571.1,445z"/>
<path class="st0" d="M267.9,445.7c0.4,1.4,0.8,2.8,1.2,4.2c-3.9,1.9-6,5.7-8,9.2C260,453.5,266.6,450.8,267.9,445.7z"/>
<path class="st0" d="M274.5,470.9c-0.9-7.5,1-15.2,5.1-21.5c1.6,4.4,2.6,9.4,0.7,13.9C279.2,466.3,276.9,468.7,274.5,470.9z"/>
<path class="st0" d="M332.2,456.1c0.7-2.2,1.7-4.4,2.8-6.5C334.5,452,333.5,454.2,332.2,456.1z"/>
<path class="st0" d="M484.4,452.7c2.6,4.5,5.8,11.6,0.5,15.5C484.7,463,484.3,457.9,484.4,452.7z"/>
<path d="M372.8,456.7c1.1-2.3,3.7-1.2,5.6-0.8c-1.2,4.4-1.1,10.9-6.9,11.8C371.7,464,371.6,460.2,372.8,456.7z"/>
<path d="M593.6,455c4.6,1.9,5.1,7.6,5.1,12c0.1,5.3,0,12-5.2,15.1c-1.3-6.2-0.7-12.8-2.6-18.9C592.4,460.7,593.2,457.9,593.6,455z"
	/>
<path d="M224.4,462.4c1.9-3.7,5.3-6.6,9.6-6.9c-1.8,3.8-4.6,7.3-4.8,11.7c1.8-0.8,3.6-1.7,5.6-2.2c-1.7,4.3-4.1,8.3-5.1,12.8
	c0.8,0.1,2.4,0.3,3.1,0.4c-0.1,5.8-0.7,13.1-6.5,16.1c-0.1-2.3-0.2-4.6-0.2-6.9c-1.6,0.2-3.2,0.4-4.8,0.6
	C220.1,479.4,220.5,470.3,224.4,462.4z"/>
<path d="M566.4,459.4c1.9,1.2,3.5,2.9,4.1,5.2c1.4,5.5,1.6,12.1-2.2,16.8C566.7,474.2,566.5,466.7,566.4,459.4z"/>
<path class="st0" d="M316.1,464.4c1.2-0.4,2.4-0.8,3.6-1.2c0.4,4-0.5,8.5-3.8,11.2C315.4,471,315.9,467.6,316.1,464.4z"/>
<path d="M561.4,467c5.1,3.9,5.4,11.6,3.2,17.2C562.4,478.8,561.5,472.9,561.4,467z"/>
<path d="M586.2,472.1c0.3-1.6,2.2-1.4,3.4-1.7c-0.1,7.3,0.8,15.1-2.2,22c-1-2-1.3-4.2-1.4-6.5c-2,3.4-1,7.7-3,11.2
	c-2.2,0-2.5-2.5-3.3-4c-1.9,2.5-3.7,5.1-5.3,7.8c-0.7-5.3-0.1-10.7,2.1-15.6c0.8,0.3,2.5,0.8,3.4,1.1c0.6-1.4,1.2-2.9,1.7-4.3
	c1.3,0,2.6,0.1,3.9,0.2C585.8,478.9,585.1,475.4,586.2,472.1z"/>
<path class="st0" d="M333.4,470.6c1.6,0.7,1.3,4-0.2,4.8C332,474.4,332.2,471.7,333.4,470.6z"/>
<path class="st0" d="M488.6,470.6c4.7,3.5,4.1,9.9,1.8,14.7C489.1,480.5,488.8,475.6,488.6,470.6z"/>
<path class="st0" d="M306.9,475.7c1.6-0.9,3.2-1.7,4.9-2.4c-0.9,3.3-2.1,6.6-3,9.9C307.5,480.9,307.5,478.2,306.9,475.7z"/>
<path class="st0" d="M321.5,473.5c1.5,9.7,2.9,19.5,3.2,29.3c-5.4-0.7-6.6-6.9-7.4-11.3C315.7,485,321.1,479.7,321.5,473.5z"/>
<path d="M555.6,480.8c-0.4-2.4-1-4.8,0-7.1c4.1,3.9,5.6,9.7,5.7,15.2c-0.1,2.8-1.6,5.2-4,6.5C556.9,490.5,556.5,485.6,555.6,480.8z"
	/>
<path class="st0" d="M479.6,475.3c4.8,12.6,2.5,26.2-0.2,39C479.3,501.3,479.8,488.3,479.6,475.3z"/>
<path class="st0" d="M282.1,484.5c-1.6-2.6-1-5.7,0.8-8C282.9,479.1,282.5,481.8,282.1,484.5z"/>
<path d="M548.6,481.7c1.3,0.5,2.9,0.7,3.6,2.1c2.4,4.2,2.1,9.4,1.1,13.9C551.8,492.4,550.2,487,548.6,481.7z"/>
<path class="st0" d="M383.1,492.5c1.1-3.2,3.2-6.5,6.6-7.5c4.1,3.4,2.3,9.3,2.3,13.9c-1,0.7-2.1,1.3-3.1,2c-2.3-2.4-0.1-5.4,0.9-7.8
	C387.6,493,385.4,492.8,383.1,492.5z"/>
<path class="st0" d="M471.2,485.3c1.3,0.5,1.4,1.4,0.5,2.5c-0.5-0.2-1.4-0.6-1.9-0.8C470.1,486.6,470.8,485.8,471.2,485.3z"/>
<path d="M542.7,485.4c0.5,0,1.4,0,1.9,0c2.1,6,3.8,13.2,0.4,19.1C540.5,499.2,542.5,491.6,542.7,485.4z"/>
<path class="st0" d="M291.7,486.5c2.5,2.9,2.1,7.6-0.6,10.2C290.3,493.3,290.8,489.8,291.7,486.5z"/>
<path class="st0" d="M412,493c1.3-2.2,2.9-5.4,5.9-5c1.8,1,2.2,3.2,2.8,5c-1.3,0-2.7,0.1-4,0.1c0.6,2.3,0.4,5-1.7,6.5
	C412,499.5,410.4,495.5,412,493z"/>
<path class="st0" d="M299.8,489.7c0.4,0.3,1.1,1,1.4,1.3c0.2,2.5-1,4.6-2.8,6.2C298.8,494.7,299.4,492.2,299.8,489.7z"/>
<path class="st0" d="M484,527.3c-1-11.3,6-21.4,5.5-32.7c0.5,5.4,0.4,10.8,0.7,16.1c0.8-0.2,2.3-0.5,3.1-0.7
	c-0.1,0.7-0.2,2.1-0.3,2.9c-0.8-0.2-2.4-0.5-3.2-0.7C486.3,516.6,485.4,522.1,484,527.3z"/>
<path class="st1" d="M247.3,499.6c-0.7-1,0.2-3.5,1.5-3.3C249.6,497.4,248.9,500.1,247.3,499.6z"/>
<path class="st0" d="M405.9,518.5c-5.4-6.4-5.9-15.4-3.2-23C406.3,502.5,406.2,510.7,405.9,518.5z"/>
<path class="st0" d="M257.1,504c1.5,4.5,1.2,9.3,0.6,13.9c-0.9,5.6-0.9,11.4-0.6,17.1c3.8-2.3,1.5-8.5,6.1-10
	c0.9,4.8,1.4,9.6,2.2,14.4c0.3-2.9,0.6-5.8,0.9-8.7c1.5,0.8,3,1.6,4.6,2.4c1.2,13.4,4.4,26.5,7.2,39.6c-2.9-2.7-4.6-6.3-5.6-10
	c-1.8-6.6-2.7-13.5-4.8-20c0.5,7,0.6,14.1,1,21.2c-9.1-10.9-13.8-24.8-14.9-38.8C253.4,517.8,254.5,510.6,257.1,504z"/>
<path class="st0" d="M298,516c-0.2-4.2,2.3-8,5.2-10.8c2,2,2.5,4.7,3.1,7.3c-4,0.9-4.2,5.3-4.9,8.6C300.1,519.7,298.1,518.3,298,516
	z"/>
<path class="st0" d="M312.8,512.9c4.4,7.3,2.6,16.2,0.7,24c-2.9-5.8-4-12.2-6-18.4C311.4,520,312.8,515.9,312.8,512.9z"/>
<path class="st0" d="M475.7,525.6c0.1-2.7-0.6-6.3,2.1-8.1C478.4,520.5,478,523.6,475.7,525.6z"/>
<path class="st0" d="M322.3,519.9c0.4,0.3,1.2,0.8,1.5,1.1c0.9,5,1.4,10.1,1,15.1C321.7,531.4,320.7,525.4,322.3,519.9z"/>
<path class="st0" d="M283.7,523.7c0.5-0.1,1.4-0.2,1.9-0.3c-0.1,1.5-0.3,3.1-0.4,4.6c-0.5,0.2-1.6,0.6-2.1,0.7
	C283.1,527.1,283.4,525.4,283.7,523.7z"/>
<path class="st0" d="M494.9,522.9c1.1,1.6,1,3.8-1,4.7C494.1,526,494.5,524.5,494.9,522.9z"/>
<path class="st2" d="M289.2,526.2c1.2-0.6,2.4,1.5,1.7,2.5C289.7,529.3,288.6,527.2,289.2,526.2z"/>
<path class="st0" d="M274.6,527.6c2.6,6.1,2.4,12.9,2.8,19.5c0.2,4.1,1.9,8,1.7,12.2C274,549.6,273.2,538.2,274.6,527.6z"/>
<path class="st0" d="M334.2,549.8c-4.7-6.4-4.9-14.8-3.2-22.2C333,534.8,333.4,542.3,334.2,549.8z"/>
<path class="st0" d="M304.9,529.4c1,5.9,1.2,12,0.5,18c-0.1-3,0.1-5.9,0.1-8.9C303.7,535.8,304.6,532.4,304.9,529.4z"/>
<path class="st0" d="M504.4,540c-1.6-3-0.4-6.3,2.4-7.9C506.6,534.8,505.7,537.5,504.4,540z"/>
<path class="st0" d="M284.9,532.9c3.3,12.1,2.4,24.9,4.9,37.1c-3.6-3.7-6.1-8.4-6.6-13.5C286.9,549.1,282.1,540.7,284.9,532.9z"/>
<path class="st0" d="M478.7,535.6c1.3,6.9-0.9,13.9-2.8,20.5C476,549.2,477.6,542.4,478.7,535.6z"/>
<path class="st0" d="M541.7,535.2c0.1,7.9-2,15.6-3.6,23.2c-0.5-0.4-1.6-1.1-2.2-1.5C535.7,549.2,540.7,542.7,541.7,535.2z"/>
<path class="st0" d="M509.4,538c2.5,2.8,4.8,5.7,6.4,9.1c-2.1,1.7-2,4.6-2.3,7c-0.6,9.3,1.5,18.8-1.2,27.9c-1.8-2.7-2.5-5.8-3.3-8.9
	c-0.9,0-2.8,0.1-3.7,0.1c0.9-5,0.1-10.1-0.2-15.2c0.8-3.8,3.1-7,3.5-10.9C508.8,544.1,508.9,541,509.4,538z"/>
<path class="st0" d="M294.6,571.6c-3.6-9.9-6.6-21.5-1.4-31.4c1.1,14.8,4.2,29.5,9.6,43.3C298,581.5,296.5,576,294.6,571.6z"/>
<path class="st0" d="M406.2,559.6c-0.9-6.4-0.9-14.4,4.8-18.6c5,0.6,10,1.4,14.9,2.9c5.2,11.3,3.6,24.2,1,35.9
	c-1.8,7-4.1,14.4-9.9,19.1c-6.6,4.7-16.7,4.6-22.5-1.4c-6.3-6.3-8.9-15.2-10.9-23.6c-1.9-9.9-4.5-19.8-4-29.9
	c6.3-1.9,12.9-2.6,19.5-2.7c0.2,7.3,1.1,14.6,2.3,21.8c1.1,5.6,2.4,11.5,6.3,15.9C407.7,572.5,406.7,566,406.2,559.6z"/>
<path class="st0" d="M498.5,548c-0.3-2.2-0.2-4.4,1.3-6.1C500.2,544.1,500.6,546.5,498.5,548z"/>
<path class="st0" d="M362.9,543.8c1.6,0.5,3.1,0.9,4.7,1.4c-1.8,21.8,4,43.2,11.9,63.3c3.1,7.3,4.5,15.8,10.2,21.7
	c2.6,2.6,6,5,9.9,4.7c-2.4,2.6-3,6.1-3.5,9.5c-1.6-0.8-2.5-2.5-3.6-3.8c0,5,2.2,9.8,1.6,14.9c-5.4-3.8-4.5-10.9-7.5-16.1
	c-1.7-3.1-5.6-0.5-7.9,0.3c-6.5-10.9-12.5-22.7-22.4-31c0.4,4.8,1.7,9.6,2.4,14.4c-2.9-3.4-4.9-7.5-7.6-11.1
	c-4.6-6.1-9.3-12.1-14.3-18c-5.5-6.8-10.7-14.1-13.1-22.6c5.8,1.4,3.5,9.1,8,11.9c2.1-5.2-2.5-10.2-2.1-15.6
	c2.6,5.3,3.5,11.3,6.5,16.4c1.2,0.1,2.4,0.2,3.6,0.3c1,3,2.2,6,3.9,8.7c0.6-1.4,1.1-2.7,1.6-4.1c1.1,2.8,1.4,6.2,4.1,8
	c1.6-3,0-6.1-0.5-9.2c4.9,5.9,6.3,13.9,11.8,19.4l0.9-1.2c0.1-0.6,0.3-1.7,0.4-2.2c4,7,8.4,13.7,12.5,20.5
	c6.5,2.3,8.5,10.5,15.6,11.9c-4.2-6.6-7.7-13.6-10.5-20.9C368.3,593.2,364.6,568.3,362.9,543.8z"/>
<path class="st0" d="M560,544.5c0.9,4.7-0.6,9.4-3,13.5C557.5,553.4,559.3,549,560,544.5z"/>
<path class="st3" d="M469.2,548.3c1.4-0.1,1.4,3.5,0,3.5C468.5,550.7,468.5,549.5,469.2,548.3z"/>
<path class="st0" d="M304.2,573.9c-4.4-7.1-6.9-15.6-5.1-24C303.1,557.3,304.3,565.7,304.2,573.9z"/>
<path class="st0" d="M441.2,559.4c-3.4-1.6-1.5-6.1-1.6-9C440.4,553.3,440.9,556.3,441.2,559.4z"/>
<path class="st0" d="M488.3,551.5c0,0.3,0,0.9,0,1.2c-1.9,5.1-2.9,10.5-5,15.5C484.1,562.5,485.9,556.8,488.3,551.5z"/>
<path class="st0" d="M498.7,567c0.3-3.7-1-7.7,0.5-11.3c-0.2,2-0.3,3.9,0,5.9c1.3,0.3,2.6,0.6,3.9,0.9c-0.7,7.6-1.7,15.2-3.2,22.6
	c-1.2,0.3-2.5,0.7-3.7,1.1c0.4,8-1.9,16.2-6.4,22.8C491.2,594.8,498,581.5,498.7,567z"/>
<path class="st0" d="M468.4,559.1c0.6-0.3,1.7-0.8,2.2-1c-0.7,7.1-2,15.1-7.6,20.1c-1.1,0.8-1,2.2-1.4,3.4
	c-2.1,12.5-6.4,24.6-10.8,36.5c-0.3,6.6-2.4,13-6.3,18.3c5.7-21.8,11.3-43.6,18.7-64.9C464.8,567.2,466.2,562.9,468.4,559.1z"/>
<path class="st0" d="M314.5,581.6c-7.2-4.5-8.5-13.9-8.9-21.6c3.3,4.9,1.1,13.2,7.7,15.6C313.7,577.6,314.2,579.6,314.5,581.6z"/>
<path class="st0" d="M318.1,578.2c2.6-5.6-4.4-12.1,0.9-17c4.2,9.8,1,21.1,5.8,30.7C320.2,589.1,316.4,583.7,318.1,578.2z"/>
<path class="st0" d="M477.1,561.4c0.4,4-1.8,7.5-3.4,11C475,568.8,475.8,565,477.1,561.4z"/>
<path class="st0" d="M375.3,581.6c-2.7-6.2-1.7-13.3,0.8-19.4c1.8,8.1,3.8,16.2,5.5,24.3C379,585.7,376.4,584.2,375.3,581.6z"/>
<path class="st0" d="M437.5,565.8c3.9,4.8,3.6,11.7,1.5,17.1c-1,2.6-3.6,3.6-6.2,3.9C432.4,579.5,434.9,572.5,437.5,565.8z"/>
<path class="st0" d="M490.2,569.7c1.4-0.3,2.8-0.6,4.2-0.9c-0.8,6.7-1.5,13.7-5,19.6C489.3,582.1,489.4,575.9,490.2,569.7z"/>
<path class="st0" d="M442.7,590.3c7.4-5,3.5-16.3,10.6-21.5c-0.7,8.6-5.2,16.1-7.3,24.3c-2-0.7-4-0.9-6.1-0.5
	c0.8-1.9,1.5-3.9,2.2-5.8C442.3,587.7,442.6,589.5,442.7,590.3z"/>
<path class="st0" d="M470.3,575.6c0.4-0.1,1.1-0.2,1.4-0.3c-3,9.2-6.5,18.3-10.4,27.1c-2-4.3,1.4-8.6,1.9-13
	C466.6,585.4,467.5,579.9,470.3,575.6z"/>
<path class="st0" d="M481.9,576c1.2-0.5,2.4-1,3.6-1.5c0.2,1.2,0.3,2.3,0.4,3.5c-0.7,8.7-1.2,17.5-3.7,25.9c-0.6,2.2-1.7,4.1-3.1,6
	C477.2,598.4,481.3,587.3,481.9,576z"/>
<path class="st0" d="M475.4,579.6c0.9-1.4,1.2-3.6,3.1-3.9c-0.8,7.8-0.1,15.8-2.1,23.5c-1.9,5.7-4.2,11.2-6.4,16.8
	c-2.7-3.4-1.2-8.9-5.2-11.4C468.6,596.3,471.8,587.9,475.4,579.6z"/>
<path class="st0" d="M504.7,577.8c0.5,1.5,0.9,2.9,1.4,4.4c-1.1,3-2,6.1-2.8,9.2C503.3,586.8,504.1,582.3,504.7,577.8z"/>
<path class="st0" d="M451.5,586.2c0.3,0.4,0.9,1.3,1.2,1.7c-1.3,9.1-4.7,17.7-5.8,26.9c-0.4,1.8-2.1,2.7-3.6,3.5
	C447.6,608,447,596.4,451.5,586.2z"/>
<path class="st0" d="M429.7,614.6c3.9-6.3,6.9-13.2,9.9-20c-1.9,15-11.3,27.5-20.5,38.8c5,1.5,8.7-3,12.8-5
	c-2.2,5.5-4.6,10.9-7.2,16.2c-0.5-2.6-0.9-5.2-1.5-7.7c-2.7,3.8-3.3,8.6-6.1,12.3c-0.6-3-0.3-6.8-2.8-8.9c-4.7,6.2-0.2,14.8-4,21.6
	c-0.7-4.8-0.1-9.7-0.3-14.5c-2.7-1.6-5.4-3.2-7.9-5.1c-0.3-2-0.5-4.1-1.9-5.7c3.4-1.5,7.4-1.3,10.7-3
	C419.2,629.8,425,622.3,429.7,614.6z"/>
<path class="st0" d="M388.5,600.2c1.9,0.9,2.9,2.6,3.1,4.7C389.4,604.3,388.4,602.4,388.5,600.2z"/>
<path class="st0" d="M419.7,603.9c1.7-0.4,3.5-0.7,5.2-1c-0.9,2-2.6,3.4-4.7,4.1C420,606,419.9,604.9,419.7,603.9z"/>
<path class="st0" d="M382.1,603.8c7,10.1,20.6,12.7,32,10.3c5.8-1.1,10.6-4.7,14.2-9.2c-1.3,6-5.2,11.5-11.1,13.5
	c-8.2,2.8-17.8,2.6-25.7-1.1C386.2,614.8,383.3,609.3,382.1,603.8z"/>
<path class="st0" d="M408.9,610c-1.3-2.9,2.2-3.7,4.2-4.3c0.7,1.4,1.2,2.9,1.6,4.5C413,611.1,409.7,612.7,408.9,610z"/>
<path class="st0" d="M399.3,609.3c0.5-0.8,0-2.7,1.5-2.5c1.8,0.5,2.3,2.1,2.2,3.7C401.7,610.2,400.5,609.7,399.3,609.3z"/>
<path class="st0" d="M455.7,623.2c-0.1-5.9,2.6-11.3,6-15.9C461.6,613.1,459.5,618.9,455.7,623.2z"/>
<path class="st4" d="M437.2,627c1.6,0.4,0.8,3.2-0.5,3.7C435.2,630.2,435.8,627.3,437.2,627z"/>
<path class="st0" d="M417.7,651.8c1,0,1.9,0.1,2.9,0.2c-0.3,2.2-0.6,4.5-1.1,6.7C418.4,656.5,417.9,654.1,417.7,651.8z"/>
</svg>
