<?xml version="1.0" encoding="utf-8"?>
<!-- Generator: Adobe Illustrator 21.1.0, SVG Export Plug-In . SVG Version: 6.00 Build 0)  -->
<svg version="1.1" id="Layer_1" xmlns="http://www.w3.org/2000/svg" xmlns:xlink="http://www.w3.org/1999/xlink" x="0px" y="0px"
	 viewBox="0 0 36 36" style="enable-background:new 0 0 36 36;" xml:space="preserve">
<g>
	<path d="M33.2,26.1c0,1.3,0,2.1-0.1,2.3c-0.2,0.3-1,0.7-2.6,1.2c-0.9,0.3-2.3,0.7-4.3,1.3c-1.8,0.5-3.2,0.9-4.2,1.2
		c-0.1,0-0.3,0.1-0.5,0.1c-0.2,0.1-0.3,0.1-0.4,0.1c0,0-0.3,0.1-0.9,0.3c0,0-0.1,0-0.2,0c-0.1,0-0.1,0-0.2,0c-1,0.3-1.7,0.4-1.9,0.4
		c-0.3,0-0.6-0.1-1.1-0.3c-0.6-0.2-1-0.3-1.1-0.4c-1.5-0.4-2.3-0.6-2.3-0.6c0,0,0,0,0,0c-1-0.4-2.8-0.9-5.3-1.6
		c-0.3-0.1-0.7-0.2-1.3-0.4c-0.6-0.2-1.1-0.3-1.4-0.4c-0.1,0-0.4-0.1-0.7-0.2c-0.3-0.1-0.5-0.1-0.7-0.2c-0.5-0.2-0.9-0.4-1-0.7
		c-0.1-0.2-0.1-1-0.1-2.3V13.9c0-2.5,0-3.7,0-3.6c0.1-1.2,0.5-2.1,1.1-2.5C4,7.8,4.5,7.6,5.5,7.3c1.2-0.3,3-0.8,5.2-1.5
		c2.3-0.7,4.1-1.2,5.2-1.5c1.2-0.4,2-0.5,2.3-0.5c0,0,1.2,0.3,3.5,1c3.8,1.1,6.7,1.9,8.6,2.5c0.9,0.3,1.5,0.5,1.7,0.6
		c0.5,0.3,0.9,0.7,1,1.3c0.1,0.2,0.1,1.8,0.1,4.8V26.1z M3.6,9.4c-0.1,0.3-0.1,0.7-0.1,1.3c0.1,0.7,0.1,1.2,0,1.5
		c0.6-0.4,1-0.9,1.2-1.5c-0.5,0.4-0.8,0.5-0.9,0.5c0.6-0.5,1-0.9,1.1-1.1c-0.1,0-0.2,0.1-0.3,0.2c-0.1,0.1-0.2,0.1-0.3,0.1
		c0.5-0.7,0.8-1.1,0.8-1c0,0-0.1,0-0.2,0.1c-0.1,0.1-0.1,0.1-0.2,0c0.5-0.6,0.7-1,0.6-1.3c-0.6,0.2-0.9,0.3-1,0.4
		C3.9,8.8,3.7,9,3.6,9.4z M3.8,15.6c0,0-0.1,0-0.1,0.1c-0.1,0.1-0.1,0.1-0.1,0.1c-0.1,0.1-0.1,0.2,0,0.2C3.7,15.7,3.8,15.5,3.8,15.6
		z M3.8,16.2c0.1-0.1,0,0-0.2,0.2c-0.1,0.1-0.1,0.2,0,0.2C3.8,16.3,3.9,16.2,3.8,16.2z M32.4,28c0-0.3,0-1.1,0-2.4c0-1,0-1.8,0-2.4
		c-0.1,0-1.9-0.1-5.5-0.3c-0.7,0-1.1-0.1-1.2-0.2c4.4,0.2,6.7,0.2,6.7,0.2V21c-4.3,0.1-7.4,0.2-9.3,0.3c0,0,0,0.1,0.1,0.2
		s0.1,0.2,0,0.3c-0.4,0.2-0.9,0.3-1.5,0.3c-0.7-0.1-1-0.3-1.1-0.8c-0.2,0-0.6,0.1-1.2,0.1c-0.5,0-0.9,0-1.1,0.1
		c0,0.2,0.2,0.3,0.4,0.4c0.2,0.1,0.3,0.3,0.3,0.4c0,0.2-0.3,0.3-0.9,0.4s-1,0.1-1.3-0.1c-0.2-0.1-0.4-0.4-0.5-0.8
		c-0.1-0.4-0.3-0.5-0.6-0.4l0.2,0.5c-0.6,0.4-1.2,0.4-2,0.2c-0.1,0-0.2-0.1-0.4-0.3s-0.3-0.3-0.4-0.4c-0.2-0.1-0.4-0.1-0.8-0.1
		c-0.3,0-0.6,0-0.8-0.1c0,0,0.5,0,1.5,0c0-0.2-0.1-0.4-0.3-0.8c-0.1-0.3-0.2-0.6-0.2-0.8c-3.9,0.1-6.9,0-9-0.1c0,0,0,0.1,0,0.1
		c0,0,0,0,0,0.1c0,0.5,0,1.9,0,4.1c0,1.7,0,3.1,0,4.1c1.6,0.6,5.2,1.6,10.8,3.2c0.1,0,0.3,0.1,0.5,0.1c0.2,0.1,0.4,0.1,0.5,0.1
		c1.9,0.5,2.7,0.8,2.6,0.8c0.2,0,0.6-0.1,1.3-0.3c0,0,0.1,0,0.2,0c0.1,0,0.2,0,0.2,0c0,0,0.1,0,0.2-0.1c0.1-0.1,0.1-0.1,0.1-0.1
		c0.1,0,0.1,0,0.2,0c0.1,0,0.1,0,0.2,0c0.1,0,0.2-0.1,0.4-0.2c0.2-0.1,0.3-0.1,0.4-0.2c0.1,0,0.2-0.1,0.4-0.1c0.2,0,0.3,0,0.4-0.1
		c0.1,0,0.2-0.1,0.4-0.1c0.2-0.1,0.3-0.1,0.4-0.2c0.1,0,0.3-0.1,0.5-0.1c0.2,0,0.4-0.1,0.5-0.1c0.7-0.2,2.9-0.9,6.7-2
		c1.1-0.3,1.6-0.5,1.6-0.5S32.1,28.2,32.4,28z M3.9,14.5c-0.3,0.1-0.4,0.2-0.4,0.3C3.6,14.8,3.8,14.7,3.9,14.5z M3.6,12.4
		c0.1,0.4,0.1,0.6,0,0.6c0.5-0.5,0.7-0.7,0.7-0.8c0,0.1-0.1,0.1-0.2,0.1c0-0.1,0.1-0.2,0.3-0.3c0.1-0.1,0.2-0.2,0.2-0.3
		C4.1,12.1,3.8,12.3,3.6,12.4z M3.6,13.7c0.3-0.1,0.6-0.5,0.9-1.1c0,0,0,0,0,0c0,0,0,0-0.1,0c-0.4,0.3-0.7,0.5-0.9,0.6V13.7z
		 M4.1,13.8C4.1,13.9,4.1,13.9,4.1,13.8C4,13.9,4,13.9,4,13.9c0,0-0.1,0-0.1,0c0.1-0.3,0.1-0.5,0.2-0.4c0,0-0.2,0.2-0.5,0.4
		c0.1,0.4,0.1,0.6,0,0.5c0,0,0.1-0.1,0.3-0.3C4.1,14.1,4.1,14,4.1,13.8z M5.1,18.9c-0.2,0-0.4-0.1-0.7,0c-0.4,0-0.7,0-0.8,0v0.4
		c1.1-0.1,1.6-0.1,1.6-0.1c0,0,0-0.1,0-0.1C5.1,19,5,18.9,5.1,18.9z M5.1,17.7c-0.3-0.1-0.6-0.1-0.8,0.1C4.8,17.7,5.1,17.7,5.1,17.7
		z M7.4,7.6C6.7,7.8,6.2,8,5.8,8.2c0.4,1.3,0.7,2.1,1,2.5c-0.1,0-0.2-0.1-0.3-0.2c-0.1-0.1-0.2-0.2-0.3-0.2c0.1,0.2,0.3,0.6,0.8,1.1
		c0,0-0.1-0.1-0.4-0.1c0,0.1,0.1,0.3,0.3,0.4c0.1,0.2,0.2,0.3,0.3,0.4c-0.1,0-0.2,0-0.4-0.1c-0.1-0.1-0.2-0.1-0.3-0.1
		c0.5,0.6,0.7,0.9,0.7,0.9c0.2-0.2,0.5-0.5,0.9-1.1c-0.1,0-0.2,0.1-0.4,0.2c-0.2,0.1-0.3,0.1-0.4,0.1c0.4-0.2,0.7-0.5,1-0.9
		c0.1-0.1,0.2-0.3,0.4-0.6C8.9,10.1,9,9.9,9.1,9.7c0.1,0.2,0.4,0.6,0.7,1.2c0.3,0.5,0.5,0.9,0.8,1.1c-0.1,0-0.1,0-0.2-0.1
		c-0.1-0.1-0.2-0.1-0.2,0c0.4,0.5,0.6,0.7,0.6,0.8c0,0-0.3-0.1-0.7-0.3c0,0.2,0.2,0.4,0.4,0.6c0.2,0.2,0.3,0.4,0.3,0.5
		c-0.1-0.1-0.2-0.1-0.3-0.2c-0.1-0.1-0.2-0.2-0.3-0.2c0.1,0.2,0.2,0.3,0.4,0.5c0.2,0.2,0.4,0.4,0.4,0.5c-0.1,0-0.2-0.1-0.4-0.2
		s-0.2-0.2-0.3-0.1c0.4,0.3,0.6,0.5,0.7,0.5c0-0.1,0.1-0.2,0.2-0.3c0.1-0.1,0.2-0.2,0.1-0.3c0,0.1-0.1,0.1-0.1,0.1s-0.1,0-0.1,0
		c0.3-0.3,0.5-0.5,0.6-0.7c-0.1,0-0.1,0-0.2,0.1c-0.1,0-0.1,0-0.1,0c0.1-0.1,0.2-0.2,0.4-0.5c0.1-0.3,0.3-0.4,0.4-0.5
		c0.1,0.3,0.2,0.7,0.4,1.1c1.2-1.3,2.4-2,3.4-2c0.3,0,0.7,0.1,1.1,0.2c0.5,0.2,0.9,0.3,1.1,0.3c0.3,0,0.6-0.1,1-0.3
		c0.5-0.3,0.7-0.4,0.9-0.4c0.5-0.1,1,0.1,1.4,0.4c0.1,0.1,0.2,0.2,0.5,0.5c0.2,0.2,0.4,0.4,0.5,0.5c0.2,0.2,0.7,0.4,1.4,0.7
		c0.6,0.2,1,0.5,1.2,0.8c0.1,0.1,0.2,0.4,0.4,0.7c0.1,0.3,0.3,0.5,0.4,0.6c0.1,0.1,0.3,0.2,0.6,0.4c0.3,0.2,0.5,0.3,0.6,0.4
		c0,0,0.1-0.1,0.1-0.1c0.1-0.1,0.1-0.1,0.1-0.1c-0.1,0-0.1-0.1-0.1-0.1c0.1-0.1,0.1-0.2,0.1-0.2c-0.2,0-0.3,0-0.3,0.1l0.7-1
		c0,0-0.1,0.1-0.4,0.2c-0.2,0.1-0.3,0.1-0.4,0.1c0.5-0.3,0.8-0.5,0.7-0.4c0-0.1-0.1-0.1-0.2,0c-0.1,0.1-0.2,0.1-0.3,0.1
		c0.4-0.4,0.7-0.6,0.7-0.7c-0.1,0-0.1,0.1-0.2,0.2c-0.1,0.1-0.2,0.1-0.2,0.1c0-0.1,0.1-0.2,0.3-0.4c0.1-0.2,0.2-0.3,0.2-0.4
		c-0.3,0.2-0.5,0.3-0.5,0.1c0.1-0.1,0.1-0.2,0.2-0.3c0.1-0.1,0.2-0.2,0.2-0.3c-0.3-0.1-0.4,0-0.3,0c0.4-0.4,0.6-0.6,0.7-0.9
		c-0.1,0-0.2,0.1-0.3,0.2c-0.1,0.1-0.2,0.1-0.3,0.1c0.4-0.4,0.6-0.7,0.6-0.8c-0.3,0-0.4,0-0.3,0.1c0,0,0.1-0.1,0.1-0.1
		c0.1-0.1,0.1-0.1,0.2-0.2c0.1-0.2,0.1-0.3,0-0.4c0.2-0.1,0.3-0.5,0.5-1c-0.1,0,0.1,0.3,0.5,0.9c0,0,0.1,0.1,0.2,0.2
		c0.1,0.1,0.2,0.2,0.2,0.3c-0.1,0-0.2,0-0.2-0.1c-0.1-0.1-0.1-0.1-0.2-0.1c0.1,0.4,0.3,0.6,0.5,0.7c0-0.1,0.1-0.2,0.2-0.3
		c0.1-0.1,0.2-0.2,0.1-0.3c-0.2,0.3-0.4,0.4-0.5,0.3c0.4-0.5,0.6-0.8,0.6-0.9c-0.3,0.2-0.5,0.2-0.5,0.2c0-0.1,0.1-0.2,0.3-0.4
		c0.1-0.1,0.2-0.3,0.2-0.3c-0.1,0.2-0.2,0.2-0.3,0.1c0.4-0.3,0.8-1,1.3-2c-0.7-0.1-1.4-0.3-2.1-0.6c-0.1-0.1-0.4-0.1-0.7-0.2
		c-0.3,0-0.5-0.1-0.6-0.1c-0.3-0.1-1.6-0.5-4-1.2c-0.3-0.1-0.8-0.3-1.5-0.5c-0.7-0.2-1.1-0.4-1.4-0.5c-1.8-0.5-2.9-0.7-3.4-0.6
		c-5.4,1.6-8.1,2.4-8.1,2.4S8.6,7.2,7.4,7.6z M5.9,17.8c0,0,0.1,0,0.5,0c0-0.1-0.1-0.1-0.3-0.1C6,17.6,5.9,17.7,5.9,17.8z M8.5,18.9
		c-0.3-0.1-0.8-0.1-1.4-0.1c-0.7,0-1.1,0-1.3,0v0.4h1.5c0.1,0,0.2,0,0.4,0c0.2,0,0.3,0,0.4,0C8.4,19.3,8.5,19.2,8.5,18.9z M6.6,12.5
		c0,0,0.1,0.1,0.2,0.3C6.9,12.9,7,12.9,7.1,13c0-0.1-0.1-0.2-0.2-0.3C6.8,12.5,6.7,12.5,6.6,12.5z M6.7,13.5l0.1,0.1
		c0,0.1,0.1,0.1,0.2,0c0-0.1,0-0.2-0.1-0.2s-0.1-0.1-0.1-0.1S6.8,13.4,6.7,13.5z M7.3,13.5c0-0.1-0.1-0.2-0.3-0.3S6.8,13,6.8,13.1
		c0.1,0,0.1,0.1,0.2,0.2C7.1,13.4,7.2,13.5,7.3,13.5z M7.6,13.8c-0.2-0.1-0.4-0.1-0.6,0c0-0.1,0.1,0.1,0.2,0.4
		C7.4,14.1,7.5,14,7.6,13.8z M7.6,13c0.1-0.4,0.2-0.6,0.3-0.5c-0.2,0.2-0.4,0.4-0.7,0.6c0.1,0.2,0.2,0.2,0.3,0.3
		c0.2-0.2,0.4-0.4,0.4-0.4c0,0-0.1,0-0.1,0C7.6,12.9,7.6,13,7.6,13z M7.5,14.7c0-0.1-0.1-0.2-0.3-0.2C7.2,14.6,7.3,14.7,7.5,14.7
		C7.4,14.7,7.4,14.7,7.5,14.7z M7.4,14.4c0.1,0,0.1,0,0.2-0.1l0.1-0.2c-0.2,0.1-0.3,0.1-0.3,0.1S7.4,14.3,7.4,14.4z M7.5,13.7
		C7.5,13.7,7.5,13.7,7.5,13.7c0.1,0,0.2,0,0.2,0c0.2-0.2,0.3-0.3,0.3-0.5C7.7,13.4,7.6,13.5,7.5,13.7z M11.4,19.1
		c-0.2-0.2-0.4-0.2-0.8-0.2c-0.3,0-0.6,0.1-0.8,0.2c0,0,0-0.1,0.1-0.1c0,0,0-0.1,0-0.1H9c0,0.2,0,0.3,0,0.3c0.1,0,0.5,0,1.2,0
		C10.8,19.2,11.1,19.2,11.4,19.1z M10.8,14.9c0-0.1,0.1-0.1,0.2-0.2c0.1-0.1,0.1-0.2,0.1-0.2c0.1,0-0.2-0.2-0.9-0.5
		C10.3,14.5,10.5,14.8,10.8,14.9z M14.9,25.2c0,0.2,0,0.4,0,0.7c-0.2,0.7-0.6,1.4-1.3,2.2c-0.7,0.8-1.4,1.3-2,1.4
		c-0.1,0-0.2,0-0.3,0c-0.2,0-0.3,0-0.3,0c-0.5-0.2-0.7-0.7-0.6-1.5c0.1-0.8,0.5-1.6,1.2-2.4c0.8-0.8,1.5-1.3,2.3-1.4
		c0.5,0,0.8,0.1,0.9,0.3c-0.1,0-0.2,0-0.5,0s-0.4,0-0.6,0.1c-0.6,0.2-1.1,0.6-1.7,1.4c-0.6,0.7-0.9,1.4-1.1,2
		c-0.2,0.7,0,1.1,0.5,1.1c0.4,0,0.9-0.2,1.3-0.6c0.4-0.3,0.7-0.8,1.2-1.5c0.6-1,0.7-1.6,0.4-1.9c-1.1,0.3-1.7,1.1-1.8,2.3
		c-0.4-0.2-0.5-0.5-0.3-0.9c0.1-0.4,0.4-0.8,0.8-1.2c0.4-0.4,0.8-0.6,1.2-0.7C14.6,24.5,14.8,24.7,14.9,25.2z M10.6,15.2
		c0,0,0.1,0,0.1,0.1c0,0,0,0.1,0.1,0c0-0.1,0-0.1-0.1-0.2C10.7,15.1,10.6,15.1,10.6,15.2z M11,15.3c0,0-0.1,0.1-0.2,0.1
		c-0.1,0.1-0.1,0.1-0.1,0.2c0.1,0,0.2,0,0.2-0.1C11.1,15.4,11.1,15.4,11,15.3z M11,14.4c0.1,0,0.2-0.1,0.2-0.2
		C11.2,14.2,11.1,14.3,11,14.4z M12.5,19.2c0-0.1,0-0.1,0-0.1c0-0.1,0-0.1,0-0.1c-0.3,0-0.5,0-0.5,0.1v0.2L12.5,19.2z M18.2,20.4
		c-0.1,0-0.1,0-0.2,0.1c-0.1,0.1-0.1,0.1-0.1,0c0.1-0.2,0.6-0.8,1.4-2c0.6-0.8,1.1-1.4,1.4-2c0,0,0,0.1-0.1,0.4
		c0.1,0.1,0.3,0.1,0.6,0.2c0.3,0.1,0.5,0.1,0.6,0.2c-0.2,0-0.3,0-0.4,0.1c0.4,0.1,0.7,0,0.8,0c-0.4-0.7-0.6-1-0.7-0.8
		c0.3,0.4,0.9,0.5,1.8,0.5c1.3-0.1,2.1-0.1,2.2,0c0,0,0.1,0,0.1,0c0,0-0.1,0-0.1,0c0,0,0-0.1-0.3-0.2c0.5,0,0.8-0.1,0.9-0.1
		c0.1-0.2,0.1-0.4,0.1-0.3c-0.7-0.4-1.1-0.8-1.3-1.1c0,0.2,0,0.2-0.2,0.2c0-0.1,0-0.2,0-0.2c0-0.1,0.1-0.1,0.1,0c0.1,0,0.1,0,0.1,0
		c-0.5-1.3-1.9-2-4.1-2c0.1-0.1,0.5-0.1,1-0.2c-0.8-0.8-1.5-1.2-2.2-1.1c0,0-0.5,0.2-1.4,0.6c-0.2,0.1-0.4,0.2-0.7,0.3
		c-0.3,0.2-0.5,0.3-0.6,0.3c0-0.1,0.1-0.2,0.2-0.3s0.2-0.2,0.2-0.3c0,0-0.1,0-0.3-0.1c-0.1,0-0.2-0.1-0.2-0.1c0,0,0,0,0.1-0.1
		c0,0,0,0,0-0.1c-0.7-0.2-1.5-0.1-2.5,0.4c0,0,0.4-0.2,1.2-0.8c-2.4,0.3-3.6,1.8-3.5,4.5c0-0.2-0.1-0.4-0.1-0.8c0-0.4,0-0.6-0.1-0.8
		c0,0.1,0,0.2-0.1,0.5c-0.1,0.2-0.1,0.3-0.1,0.5c0.8,3.5,1.3,5.4,1.6,5.9c0-0.1,0-0.2-0.1-0.3c-0.1-0.1-0.1-0.2,0-0.3
		c0.5,0.9,1.1,1.3,1.9,0.9c-0.5-0.1-0.7-0.7-0.6-1.8c-0.1,0-0.1,0-0.1,0.1c0,0.1,0,0.1,0,0.1c0-0.1-0.1-0.2-0.1-0.3
		c0-0.2,0-0.3,0-0.3c0,0,0,0-0.1,0c0,0.1-0.1,0.1-0.1,0c0-0.3-0.2-0.9-0.5-1.8c-0.3-0.7-0.3-1.3-0.2-1.8c0,1.2,0.6,2.2,1.9,3.1
		c0-0.1-0.2-0.2-0.5-0.5c-0.2-0.2-0.4-0.4-0.4-0.6c0.1,0.1,0.3,0.2,0.6,0.5c0.2,0.2,0.4,0.3,0.6,0.4c0-0.1-0.1-0.2-0.2-0.2
		c-0.1-0.1-0.2-0.2-0.2-0.2c0.5,0.3,0.9,0.4,1.2,0.5c0.4-0.9,0.6-1.4,0.6-1.4c-0.4,2.4-0.5,3.8-0.4,4.3c0.1,0.3,0.2,0.5,0.3,0.5
		c-0.1-0.8-0.2-1.2-0.1-1.2c0.1,1,0.6,1.4,1.6,1.2c0-0.1-0.1-0.2-0.2-0.2c-0.1-0.1-0.2-0.2-0.2-0.2C17.9,21.6,18,21.1,18.2,20.4z
		 M14.5,7.7c0,0.1-0.2,0.1-0.4,0.1c-0.2,0-0.4,0-0.4,0c0-0.1,0-0.1,0-0.1c0-0.1,0.2-0.1,0.4-0.1C14.2,7.7,14.4,7.7,14.5,7.7z
		 M25.7,26.3c0.1,0,0.1-0.1,0.3-0.2c0.1-0.2,0.3-0.3,0.4-0.3c0,0.3-0.2,0.6-0.8,0.9c-0.6,0.3-0.9,0.3-1.1-0.2c0,0-0.2,0.1-0.5,0.4
		c-0.2,0.2-0.4,0.2-0.6,0.1c-0.1-0.2,0-0.5,0.1-0.8c0.2-0.3,0.2-0.6,0.3-0.7c-0.2,0-0.3,0.1-0.4,0.3c0,0-0.1,0.1-0.1,0.2
		c0,0.1-0.1,0.2-0.1,0.2c-0.3,0.6-0.7,0.9-1.2,0.9c-0.2,0.1-0.4,0.2-0.6,0.3c-0.3,0.1-0.5,0-0.6-0.2c-0.1,0-0.2,0.1-0.4,0.2
		c-0.2,0.1-0.4,0.2-0.5,0.2c-0.4,0.2-0.7,0.1-0.8-0.1c-0.1,0-0.2,0.1-0.3,0.2c-0.1,0.1-0.2,0.1-0.3,0.2c-0.2,0.1-0.4,0.1-0.6,0
		c-0.1,0.1-0.3,0.2-0.5,0.2c-0.2,0-0.4-0.1-0.4-0.3c-0.1,0-0.2,0.1-0.3,0.2c-0.1,0.1-0.2,0.2-0.3,0.2c-0.2,0.2-0.5,0.2-0.6,0.1
		c0,0-0.1,0.1-0.3,0.1c-0.1,0.1-0.2,0.1-0.3,0.1c-0.1,0-0.1,0-0.1-0.1c0-0.1,0-0.1-0.1-0.1c-0.7,0.2-1,0.3-0.9,0.3
		c0-0.1,0.1-0.5,0.4-1.2c0,0,0.1-0.1,0.1-0.3c0.1-0.1,0.1-0.2,0.1-0.3c0.1-0.2,0.3-0.3,0.5-0.3c-0.1,0.2-0.2,0.5-0.3,0.8
		c-0.2,0.4-0.4,0.6-0.4,0.7c0.3,0,0.6-0.3,0.9-0.8c0.3-0.6,0.6-0.9,0.8-1c0,0.2-0.1,0.5-0.3,0.8c-0.3,0.4-0.4,0.7-0.5,0.8
		c0.3-0.1,0.6-0.4,0.9-0.9c0.3-0.7,0.5-1.1,0.6-1.2c0,0,0-0.1-0.1,0c-0.1,0-0.1,0-0.1-0.1c0-0.2,0.1-0.2,0.3-0.2
		c0.1,0,0.1-0.2,0.3-0.4c0.1-0.2,0.2-0.3,0.4-0.2c0.1,0.1,0,0.2,0,0.2c-0.1,0.1-0.1,0.2-0.1,0.2c0.1,0,0.1,0,0.3,0
		c0.1,0,0.2,0,0.2,0c0-0.1-0.2,0-0.6,0.3L16.4,28c0.3-0.1,0.6-0.4,0.9-1c0.3-0.6,0.6-0.9,1.1-0.9c0.1,0.2,0.2,0.3,0.2,0.3
		c0.2-0.1,0.3-0.4,0.5-0.9c0.2-0.4,0.4-0.7,0.7-0.7c-0.1,0.4-0.3,0.9-0.6,1.4c-0.4,0.8-0.7,1.2-0.8,1.4c0.2,0,0.5-0.4,0.9-1
		c0.3-0.6,0.7-0.9,1.1-0.9c0.3,0,0.4,0.3,0.4,0.6c0,0.3-0.1,0.6-0.3,0.9c0.1-0.1,0.4-0.4,0.8-1.1c0.3-0.5,0.7-0.7,1.2-0.7
		c0.3,0.2,0.2,0.7-0.1,1.5c0.3-0.1,0.6-0.4,0.8-0.8c0-0.1,0.1-0.3,0.2-0.6c0.1-0.3,0.2-0.4,0.3-0.5c0.1,0,0.1,0.1,0.1,0.1
		c0,0,0,0.1,0,0.1c0,0.1,0,0.1,0,0.1c0.1,0,0.2,0.1,0.3,0.1c0.2,0,0.3,0,0.3,0.1c0,0.2-0.1,0.4-0.3,0.7c-0.2,0.3-0.2,0.5-0.3,0.7
		c0.7-0.3,1.2-1,1.5-2.2c0.1,0,0.2,0.1,0.2,0.2c0.1,0.2,0.1,0.2,0.2,0.2c-0.1,0.2-0.1,0.3,0,0.6c0.1,0.3,0.1,0.5,0.1,0.5
		S25.7,26.1,25.7,26.3z M15.4,24.4c-0.1,0-0.2-0.2-0.2-0.5c0-0.3,0-0.4-0.1-0.5c0,0,0.1,0,0.4,0c-0.1,0.1-0.1,0.2-0.1,0.4
		C15.4,24.2,15.4,24.3,15.4,24.4z M15.2,20c0,0,0.1,0,0.3,0c0.1,0,0.2,0,0.2-0.1c0-0.1-0.1-0.1-0.2-0.1c-0.2,0-0.3,0-0.3,0V20z
		 M18.1,9.3c0.1,0-0.4-0.3-1.5-0.8l-1.4-0.7c0.3-0.3,0.8-0.6,1.4-0.8c0.8-0.4,1.3-0.7,1.5-0.8c1,0.5,1.7,0.8,2.1,1.1
		c0.5,0.2,0.8,0.3,0.9,0.6c-0.3,0.1-0.7,0.3-1.1,0.5c-0.6,0.3-0.9,0.5-1.1,0.6c-0.1,0-0.2,0.1-0.4,0.2c-0.1,0.1-0.2,0.1-0.2,0.1
		S18.2,9.3,18.1,9.3z M15.2,20.1c-0.1,0.3-0.1,0.7,0,1.1c0.1,0,0.1,0,0.3,0c0.2,0,0.3,0,0.4,0c0-0.1-0.1-0.3-0.1-0.6
		c-0.1-0.2-0.1-0.4-0.2-0.5H15.2z M16.1,6.8c-0.1,0-0.2,0-0.4-0.1s-0.2-0.2-0.3-0.3C15.8,6.5,16,6.6,16.1,6.8z M15.7,8.8
		c0.1,0.1,0.2,0.1,0.2,0c0.1-0.1,0.2-0.1,0.3-0.1c0,0.1-0.1,0.1-0.2,0.2c-0.1,0.1-0.2,0.1-0.2,0.2c-0.1,0-0.1,0-0.1,0
		c0,0-0.1-0.1-0.1-0.1c0,0,0-0.1,0.1-0.1C15.7,8.9,15.7,8.9,15.7,8.8z M18.1,6.5c-1.1,0.5-1.9,1-2.5,1.3c0.2,0.1,0.6,0.3,1.3,0.6
		c0.5,0.3,0.9,0.5,1.2,0.7c0.2-0.1,0.6-0.4,1.2-0.7c0.5-0.3,1-0.5,1.2-0.7c-0.2-0.1-0.6-0.3-1.2-0.6C18.8,6.8,18.4,6.6,18.1,6.5z
		 M16.1,24.4c0.1,0,0-0.3-0.1-0.9h0.2c0,0,0,0.1,0,0.2c0,0.1,0,0.1,0.1,0.2c0.1,0,0.1-0.1,0.1-0.2c0-0.1,0-0.2,0-0.2
		c0.1,0,0.2,0.2,0.2,0.5c0,0.3-0.1,0.5-0.2,0.5c0-0.1,0-0.1,0-0.2c0-0.1,0-0.2,0-0.2c-0.1,0-0.1,0.1-0.1,0.2
		C16.2,24.3,16.1,24.4,16.1,24.4z M16.4,21.2c0-0.2,0-0.4,0-0.6c0.1-0.4,0.1-0.6,0.1-0.6c0,0-0.1,0-0.1,0c0,0,0,0-0.1,0
		c-0.1,0.1-0.1,0.2,0,0.3c0,0.2,0.1,0.3,0,0.4c-0.1,0-0.1,0-0.1,0c0,0,0,0.1,0,0.2c0,0.1,0,0.2,0,0.2C16.2,21.1,16.3,21.1,16.4,21.2
		z M17,7.3c0.1,0.1,0.2,0.3,0.2,0.6c0,0.2-0.1,0.4-0.2,0.5c-0.2,0-0.3-0.1-0.3-0.4c0-0.2,0-0.4,0.1-0.6c0.1,0.1,0.1,0.2,0.1,0.4
		c0,0.2,0,0.4,0,0.4C17,8.1,17,7.9,17,7.7C17,7.5,17,7.3,17,7.3z M17.4,24.4c-0.2,0.1-0.4,0.1-0.4-0.2c0-0.1,0-0.3,0-0.7
		c0.2-0.1,0.4-0.1,0.4,0c0,0.1,0,0.1-0.1,0.1c-0.1,0-0.1,0-0.2,0c0,0.1,0,0.1,0.1,0.2c0.1,0.1,0.2,0.1,0.2,0.1c0,0.1,0,0.1-0.1,0.1
		c-0.1,0-0.1,0-0.1,0.1c0,0.1,0,0.1,0.1,0.1C17.4,24.3,17.4,24.3,17.4,24.4z M17.6,27.8c0.3,0,0.5-0.2,0.6-0.5
		c0.1-0.2,0.2-0.5,0.1-0.8c-0.3,0-0.5,0.1-0.6,0.4C17.5,27.2,17.5,27.5,17.6,27.8z M25.4,27.5c0.5,0,0.8,0.1,0.8,0.2
		c-4.8,0.9-7.7,1.6-8.6,2c0.1-0.2,0.6-0.4,1.3-0.7C21.6,27.9,23.7,27.4,25.4,27.5z M18.3,8c0,0.2-0.1,0.3-0.2,0.3
		c-0.1,0-0.2-0.1-0.3-0.1c-0.1-0.1-0.1-0.2-0.1-0.2c0.1,0,0.2,0,0.2,0.2c0.1-0.1,0.1-0.2,0-0.3l-0.2-0.3c0-0.2,0-0.3,0.2-0.3
		c0.2,0,0.3,0.1,0.2,0.3c-0.1,0-0.1,0-0.2,0c-0.1-0.1-0.1-0.1-0.1-0.1c0,0.1,0,0.1,0,0.1S18.1,7.7,18.3,8z M18.1,5.9
		C18,5.9,18,5.8,18,5.6c0-0.2,0-0.3,0.1-0.4c0.1,0,0.1,0.1,0.1,0.3C18.1,5.7,18.1,5.8,18.1,5.9z M18,9.6c0.1,0.1,0.1,0.2,0.1,0.3
		c0,0,0,0.1,0,0.2c0,0.1,0,0.2,0,0.2C18,10.3,18,10.2,18,10C18,9.9,18,9.7,18,9.6z M18.3,7c-0.1,0-0.2,0-0.2-0.1
		c0,0,0.1-0.1,0.2-0.1V7z M18.7,24.4c-0.2,0-0.3-0.1-0.3-0.2c0-0.1,0-0.3,0-0.5s0.1-0.3,0.2-0.3s0.2,0.1,0.3,0.3
		c0,0.1-0.1,0.1-0.1,0c-0.1-0.1-0.1-0.1-0.1-0.1c0,0,0,0.2,0,0.6c0.1,0,0.2-0.1,0.2-0.1c0-0.2-0.1-0.3-0.1-0.3
		c0.2,0,0.2,0.1,0.2,0.3S18.8,24.4,18.7,24.4z M18.6,20.3c-0.2,0.2-0.2,0.5-0.2,0.9c0.6,0,1.4,0,2.3-0.1c0-0.1,0-0.3,0-0.7
		C20.1,20.3,19.4,20.3,18.6,20.3z M20.4,19.7c-0.1,0-0.3,0-0.5,0c-0.3,0-0.5,0-0.6,0c-0.4,0-0.6,0.1-0.6,0.3c0.2,0,0.5,0,1,0
		c0.4,0,0.7,0,0.9,0c0-0.1,0-0.1-0.1-0.2C20.5,19.8,20.4,19.7,20.4,19.7z M19.2,7.8c0,0-0.1,0.1-0.1,0.2c0,0.1,0,0.2-0.1,0.2
		c-0.1-0.7,0-1,0.3-1c0.2,0.4,0.2,0.7,0,1c-0.1,0-0.1,0-0.1-0.1C19.2,7.9,19.2,7.8,19.2,7.8z M19.3,19.1c0.6,0.1,0.9,0.1,0.9-0.1
		c0,0-0.2,0-0.5,0C19.5,18.9,19.3,19,19.3,19.1z M19.5,24.4c-0.1-0.1-0.2-0.2-0.2-0.3c0-0.3,0-0.5,0-0.5c0.1,0,0.1-0.1,0.2,0
		c0.1,0,0.2,0,0.2,0.1c0,0.5,0,0.8,0.1,0.8c-0.1,0-0.1,0-0.2-0.1c0-0.1-0.1-0.1-0.1-0.1c-0.1,0-0.1,0-0.1,0.1S19.5,24.4,19.5,24.4z
		 M19.5,23.6v0.2c0,0.1,0,0.1,0.1,0.1c0,0,0-0.1,0-0.3H19.5z M19.9,26.8c0.2,0.2,0.3,0.4,0.2,0.3c0.2-0.4,0.3-0.7,0.3-0.9
		c-0.2-0.2-0.5-0.1-0.8,0.3c-0.1,0.2-0.1,0.3-0.2,0.5s0,0.3,0.2,0.3c0,0,0-0.1,0-0.4C19.7,26.8,19.8,26.7,19.9,26.8z M19.9,8.8
		c0.1-0.1,0.2,0,0.4,0.1c0.1,0.1,0.3,0.2,0.4,0.1v0.2c-0.1-0.1-0.2-0.1-0.4-0.2C20.1,8.9,20,8.8,19.9,8.8z M20.7,6.4
		c-0.1,0.1-0.3,0.3-0.7,0.4C20,6.6,20.3,6.5,20.7,6.4z M20.7,24.4c-0.2,0.1-0.4,0-0.4-0.2c0-0.1,0-0.3,0-0.7h0.4
		c0,0.1,0,0.1-0.1,0.1c-0.1,0-0.1,0-0.2,0.1c0,0.1,0,0.1,0.1,0.2c0.1,0.1,0.1,0.1,0.1,0.1c0,0.1,0,0.1-0.1,0.1
		c-0.1,0-0.1,0.1-0.1,0.1c0,0.1,0,0.1,0.1,0.1C20.7,24.3,20.7,24.3,20.7,24.4z M21.2,20.6c0,0.1,0.1,0.3,0.1,0.6
		c0,0.2,0.1,0.4,0.2,0.5c0.3,0.1,0.7,0.1,1.2,0c-0.4-0.3-0.6-0.9-0.5-1.8c0.2-1.4,0.3-2.2,0.3-2.2c-0.3,0.1-0.7,0.2-1.3,0.1
		c0,0,0,0.1,0,0.1s0,0.1,0,0.1c0,0.1,0,0.1-0.1,0.1c0-0.1-0.1-0.2-0.1-0.2c0,0,0,0.1,0,0.4c0,0.2,0,0.3-0.1,0.3c0,0,0-0.1,0-0.2
		c0-0.1,0-0.1-0.1-0.1c0,0.1,0,0.2,0.1,0.5c0.1,0.2,0,0.3-0.1,0.4c0,0,0-0.1,0-0.2c0-0.1,0-0.2-0.1-0.1c0,0.2,0,0.4,0.1,0.7
		C21,20,21,20.2,21,20.3c0,0,0,0.1,0,0.5c0,0.2,0,0.3,0.1,0.2C21.2,20.8,21.2,20.6,21.2,20.6z M21.2,24.4c-0.1-0.1-0.1-0.2-0.1-0.5
		c0-0.1,0-0.1,0.1-0.3c0-0.1,0.1-0.2,0.1-0.2h0.2c0.1,0.5,0.2,0.8,0.1,0.9c-0.1,0-0.1,0-0.1-0.1c0-0.1,0-0.1-0.1-0.1
		c-0.1,0-0.1,0-0.1,0.1C21.3,24.4,21.3,24.4,21.2,24.4z M21.1,21.3c0,0,0,0.1,0,0.1s0,0.1,0,0.1c0,0.1,0,0.1,0.1,0.1
		c0,0,0-0.1,0-0.2C21.2,21.3,21.2,21.3,21.1,21.3z M21.9,26.8c0.2-0.1,0.4-0.4,0.4-0.9c-0.3-0.2-0.5-0.1-0.8,0.3s-0.2,0.7,0,0.9
		l0-0.4c0-0.2,0.1-0.3,0.2-0.3c0,0,0.1,0.1,0.1,0.1C21.8,26.7,21.8,26.7,21.9,26.8C21.8,26.7,21.9,26.7,21.9,26.8z M22.5,7.8
		c-0.3,0.2-0.6,0.1-0.9,0c0,0,0.3,0,0.8-0.1C22.4,7.8,22.5,7.8,22.5,7.8z M22.2,24.4c-0.1-0.1-0.1-0.2-0.1-0.5s0-0.4-0.1-0.5h0.4
		c-0.1,0.1-0.1,0.2-0.1,0.4C22.3,24.2,22.2,24.3,22.2,24.4z M23,14.5c-0.2-0.1-0.4-0.2-0.4-0.3c-0.1-0.1,0-0.2,0-0.4
		c0.1-0.1,0.2-0.2,0.4-0.2c0.2,0,0.4,0.1,0.5,0.2c-0.3,0.3-0.5,0.4-0.4,0.4c0,0,0-0.1,0.1-0.3c0-0.1-0.1-0.1-0.2-0.1
		c-0.1,0-0.2,0-0.2,0.1c0,0.1,0,0.2,0.1,0.3C22.9,14.4,23,14.5,23,14.5z M22.6,21c1.9-0.1,4.1-0.2,6.8-0.2c-0.8-0.1-1.9-0.2-3.3-0.2
		c-1.9,0-3-0.1-3.4-0.1C22.6,20.5,22.5,20.7,22.6,21z M23.5,19.7c-0.4,0-0.6,0-0.5,0c-0.2,0-0.3,0.2-0.3,0.3
		c1.3,0.2,3.3,0.2,5.8,0.1v-0.4C25.2,19.7,23.5,19.7,23.5,19.7z M22.8,19c0,0.1,0,0.1,0.1,0.1c0.2,0,0.7,0,1.4,0c0.7,0,1.2,0,1.5,0
		h0.2c0,0,0.1,0,0.1,0c0,0,0,0-0.1,0C26.1,19,25,19,22.8,19z M27.2,17c-0.1,0-0.2,0.1-0.5,0.3c-0.2,0.2-0.3,0.2-0.5,0.2
		c0.5-0.8,0.8-1.2,0.8-1.2c-0.1,0.1-0.3,0.3-0.5,0.6c-0.2,0.3-0.4,0.5-0.5,0.5c0.1,0-0.2,0-0.9-0.1c-0.6-0.1-1.4,0-2.2,0.1v0.4h3.5
		C26.7,17.6,27,17.3,27.2,17z M24.8,26.7c0.3,0.1,0.4,0,0.5-0.3c0-0.3,0-0.6-0.2-0.7c-0.1,0.1-0.2,0.3-0.2,0.5
		C24.9,26.4,24.8,26.5,24.8,26.7z M26.7,17.8c0.2,0,0.3,0,0.4-0.2c0.1-0.1,0.2-0.2,0.1-0.3c0,0.1-0.1,0.2-0.3,0.2
		C26.9,17.7,26.8,17.8,26.7,17.8z M29,20.1c0.3,0.1,0.9,0.1,1.7,0.1s1.3,0,1.7,0c0,0,0-0.2,0-0.7c-0.4,0-1,0-1.7,0
		c-0.7,0-1.3,0-1.7,0V20.1z M29.6,12.8c0-0.1-0.1-0.2-0.2-0.2C29.4,12.7,29.5,12.8,29.6,12.8z M29.6,12.4c0,0,0.1,0,0.1,0
		c0,0,0.1,0,0.1,0c0,0,0.1-0.2,0.2-0.4c0,0-0.1,0-0.1,0.1c-0.1,0-0.1,0-0.1,0.1C29.7,12.2,29.6,12.3,29.6,12.4z M32.4,10
		c0-0.5-0.1-0.8-0.4-1.1s-0.5-0.4-0.9-0.4c0.1,0.1,0.2,0.2,0.3,0.4c0.1,0.2,0.2,0.4,0.3,0.5C31.9,9.7,32.1,9.9,32.4,10z M31.8,9.9
		c0.1,0.2,0.3,0.5,0.6,0.8v-0.5c-0.1,0-0.2-0.1-0.3-0.1C32,10,31.9,9.9,31.8,9.9z M32.4,11.9c0-0.2-0.1-0.4-0.4-0.5
		C32.1,11.6,32.2,11.8,32.4,11.9z M32.4,11.3c0-0.2,0-0.4,0-0.4c0.1,0-0.1-0.1-0.3-0.2c0,0,0.1,0.1,0.2,0.3c0,0,0,0.1-0.1,0.1
		c-0.1,0-0.1,0-0.1,0.1c0,0,0.1,0,0.1,0.1C32.3,11.3,32.4,11.3,32.4,11.3z"/>
</g>
</svg>
