<?xml version="1.0" encoding="utf-8"?>
<!-- Generator: Adobe Illustrator 21.1.0, SVG Export Plug-In . SVG Version: 6.00 Build 0)  -->
<svg version="1.1" id="Layer_1" xmlns="http://www.w3.org/2000/svg" xmlns:xlink="http://www.w3.org/1999/xlink" x="0px" y="0px"
	 viewBox="0 0 825 825" style="enable-background:new 0 0 825 825;" xml:space="preserve">
<style type="text/css">
	.st0{fill:#FFFFFF;}
</style>
<path d="M381.5,78.3c13.3-1.5,27,0.7,39.4,5.8c12.2,5,22.8,13.1,33.7,20.4c3.7,2.3,6.9,5.7,11.2,6.5c38.5,9.7,75.7,27.1,105.3,54
	c27.2,24.4,47.2,56.1,59.8,90.1c7,18.4,11.8,37.5,15.4,56.7c4.3,16.6,8.8,33.2,13.2,49.8c10.1,39.7,16.9,80.1,22.4,120.7
	c7.3,54.9,12,110.1,15.6,165.3c1.2,3.4,3.8,6.2,5.6,9.3c4.5,6.7,7.2,14.5,7.7,22.5c-0.1,3.6-1,8.4-5,9.5c-6.4,2-13.2,1.4-19.8,2
	c-21,0-42-0.1-62.9,1c-5.5-0.8-12.6,0.3-16.5-4.6c-3.5-11.2,2.9-22.7,0.9-34C583.3,597,547,545.8,500.7,505.5
	c-1.4,53.2-14.4,107.3-44,152.1c-2,3.8-5.7,6.9-6.1,11.5c-1.5,10.2-4.3,20.2-8.7,29.5c-3.4,7.3-9.2,13.8-17.1,16.2
	c-19.1,6.2-39.6,4-59.3,2.8c-16.8-1-33.7-1.9-50.6-1.8c-5.6-0.4-11.9-0.7-16.2-4.7c-3.3-3-3.6-7.9-2.6-12
	c1.9-7.2,6.6-13.3,11.3-18.9c5.3-6.5,11.7-12.1,18.7-16.9c-10.8-28.9-18.3-59.5-17.7-90.5c-0.4-22.9,7-45.1,6.2-68
	c-1.1-14.4-6.4-28.1-12.5-41.2c-3.7,14.5-9.6,28.6-18.5,40.8c-11.8,16.6-27.9,29.9-45.4,40.2c10.4,8,18.5,19.7,19,33.1
	c4.8,3.8,10.9,5.1,16.9,5.8c-4.3,2.7-9.4,2.9-14,4.5c-1.9,0.7-4.9,2.2-3.4,4.7c5.2,4,12.2,4.1,18.5,4.9c-7.4,2.8-15.4,3.3-23.2,4.2
	c1,1.1,1.8,2.4,3.2,3c5.7,2.3,12.1,2.1,18.2,1.6c-5.9,4.5-13.6,4.8-20.7,5.5c-3.6,0.4-7.4,0.8-10.4,3c5.8,4.4,12.9,6.9,20.1,7.6
	c-6.2,4-13.8,2.3-20.5,0.9c-3.8-0.5-8.1-1.9-11.7,0.2c2.7,3.4,6.8,5,10.5,7.1c-7.1,0.9-12.9-4-19.6-5c-4.5,0.6-8.9,2-13.5,1.2
	c-14.4-0.9-28.1-7-39.3-16c-12.8-10.4-23.4-23.6-30.7-38.4c-5.5-10.7-9.7-22.1-13.5-33.5c-3.2-10.1-6.3-20.3-7-30.9
	c-0.3-5.6,2.2-10.8,3.9-16.1c7.1-19.2,15.2-38,23.1-56.9c5.5-13.2,11.5-26.2,18.3-38.8c3.4-6.8,6.7-13.8,8.7-21.2
	c3.4-12,3.3-24.7,2-37c-0.3-24.1,3.4-48.8,14.8-70.2c4.6-8.7,10.4-16.7,17-24c17.2-20.3,30.9-43.2,47.6-64c0.4-7-0.6-14.2,1.1-21.1
	c1.5-8,6.1-16,13.9-19.4c9.9-4.6,21.1-2.4,31.5-1.1c4.2-2.1,7.9-5.1,11.8-7.6c4.2-2.9,8.7-5.3,12.9-8.1c7.2-9.7,14.1-19.8,22.8-28.2
	C355.9,85.3,368.4,79.4,381.5,78.3z"/>
<path class="st0" d="M352.8,94.8c11.1-8.6,25.2-13.5,39.3-12.6c18.4,0.9,35.5,9.2,50.9,18.9c6,3.6,10.9,8.7,17,12.1
	c6.9,3.2,14.6,3.5,21.6,6.3c37.2,11.5,72.3,31.4,99,59.9c27.8,29.3,46.1,66.6,56.4,105.3c4.6,20.6,7.5,41.6,14.5,61.6
	c21.1,82.8,32.8,167.8,36.8,253.1c-1.8-11.4-2.5-23-4-34.5c-7.9-66.8-18.8-133.5-36.6-198.5c-4.2-17-12.2-33-14.2-50.5
	c-0.8-13.4-3.7-26.5-6.9-39.4c-8.8-34.5-25-67.5-49.6-93.4c-27.3-29.2-64-48.4-102.2-59c-0.6-0.1-1.8-0.3-2.3-0.4
	c11.4,5.8,23,11.3,33.9,18.1c18.4,11.2,35.6,24.8,49.5,41.5c10.8,12.9,19.2,27.9,24.1,43.9c6.4,20.6,7.7,42.5,6,63.9
	c-2.1,26.1-8.3,51.7-16.5,76.5c-3.2,9.5-6.3,19-10.4,28.1c3.6-19.6,7.8-39.1,11.1-58.7c3.5-20.9,7.1-41.8,8-63
	c-0.4-18.2-5.5-36.1-13.7-52.3c-9.8-19.5-23.9-36.6-39.5-51.7c22.9,33,33.3,73.2,35.1,113c1.3,16.5,0.4,33-0.8,49.5
	C556,374.8,544.5,416.7,524,454c-4.3,7.7-8.6,15.4-13.8,22.4c15.6-39.7,28.3-80.8,33.4-123.2c5.4-44.3,3.2-90.1-11.4-132.5
	c-12.8-38.6-36.6-74.1-70.1-97.7c-9.9-7.5-19.4-15.6-30-22c-14.5-8.8-31.4-15.5-48.6-13.6c-14.4,1.5-27.5,9.4-37.3,19.9
	c-5.7,6.1-10.8,12.8-15.2,19.9c-0.9,1.4-1.8,2.9-3.1,3.8c-4.4,3.4-8.9,6.6-13.1,10.3c21.5-3.9,43.6-5,65.3-2.2
	c25.1,3.1,50.9,10.2,70.6,26.7c9.3-4.2,19-7.8,29.2-8.4c6.7-0.4,14.1,1.8,18.1,7.5c4.9,7,5.1,15.9,4.5,24.1
	c-1.6,15.9-8.4,30.6-13.1,45.8c8.1,13.6,12.2,29.9,9.7,45.7s-10.5,30.3-21.2,42.1c1.7-21.1,2.9-42.3,4.1-63.5c0.3-4.3-1-8.7-0.4-13
	c5.4-16,12.2-31.9,13.4-49c0.4-7.4-0.2-15.3-4.7-21.5c-4.7-6.3-12.9-8.8-20.5-9.1c-17.2-0.9-33.8,4.8-50,9.7c-4.1-1.1-8-3.1-12-4.4
	c-26-9.8-54.7-13.3-81.9-7.1c-8.5-4.9-14.7-13.4-24.1-16.9c-8.6-3.1-18.3-4-27.2-1.3c-6.9,2.1-11.2,8.8-12.8,15.5
	c-3,11.7-2.9,24.1-6.2,35.7c-5.4,11.1-13.3,21.3-15,33.8c-1.9,10,0,20.1,2.9,29.7c-6.4-1.6-8.9-8.3-12.8-12.8
	c-3.9,17.6-1.5,35.7,1.1,53.3c-1.1-1.2-2.1-2.5-2.9-3.9c-8.7-15.2-13.3-32.8-12.9-50.4c-12.1,15.2-20,33.3-26,51.7
	c-7,19.8-4.7,41-5.9,61.6c-0.5,6.4-0.5,13.1-3.2,19c-14.2,33-29.3,65.6-43.4,98.6c-1.8,5.1-5.5,9.3-7.7,14.2
	c-1.7,3.8-1.2,8.1-1.2,12.2c0.6,8.4,2.4,16.7,4.3,24.9c4.5,18.5,9.4,37.2,18.1,54.4c-4.2-5.5-7.1-11.9-10.1-18.1
	c-5.7-12.4-10.4-25.2-14.8-38.1c-3.2-9.2-4.9-19.1-3.7-28.9c1.6-6.9,5.3-13.2,8.3-19.6c9.8-23.6,20.3-46.8,31.2-69.9
	c5.1-10.9,9.8-22.1,13.5-33.6c4.1-12.3,2.7-25.4,2.1-38.1c-0.2-8.7-0.7-17.4,0-26.1c1.7-12.9,7.1-25,13.3-36.4
	c9.4-17.4,21.6-33,33-49c10-14,20.1-27.9,30.1-42c3.9-4.7,1.7-11.2,2.5-16.7c1-9.1,4.1-19.3,12.3-24.4c7.8-4.8,17.7-3.5,26-0.9
	c2.1,0.5,4.6,2.4,6.5,0.5c8.8-6.3,17.8-12.4,26.8-18.3C333.9,113.2,342.5,102.9,352.8,94.8z"/>
<path class="st0" d="M404.5,194c14.5,0.8,27.7,8.7,38.2,18.3c8.3,8,16.7,16,24.7,24.3c0.6,7.5,0.6,15.1,0.9,22.6
	c-3.6-11.6-8.2-23.2-15.5-33c-9.1-12.5-21.9-22.1-36.3-27.7C412.7,196.7,408.5,195.7,404.5,194z"/>
<path class="st0" d="M259.7,307.5c-2.3-20,5.8-39.4,15.1-56.6c-2.1,10.1-4.8,20.1-6.1,30.4c8-7.8,16.4-15.6,26.5-20.6
	c-8,7.9-16.1,16.1-21.2,26.3c-4,7.8-6.2,16.8-4.7,25.5c2.3,14.1,7.9,27.3,12.9,40.6C270.2,340.8,261.4,324.8,259.7,307.5z"/>
<path class="st0" d="M453.8,260.2c10.1,11.1,14.1,27.2,11.1,41.8c-2.5,13.2-9.1,25.1-16.8,36c-9.1,12.9-19.1,25.2-30.3,36.3
	c4.2-6.6,9.2-12.6,13.2-19.4c9.9-14.3,17.1-31.3,16.4-49c0.2-12.1-4.7-23.6-11.2-33.6c10.8,5.8,18.6,16.2,22.6,27.7
	c1.8-6.1,2.6-12.6,1.6-18.9C459.7,273.9,456.6,267,453.8,260.2z"/>
<path class="st0" d="M390.1,343.3c6.7,10.5,7.8,23.5,6.4,35.7c2.4-5.8,5.5-11.6,10.7-15.4c-2.1,11-5.6,21.6-8.3,32.4
	c-2.3,8.5-4.5,17.5-10.8,24c-4,4.3-9.6,6.7-15.4,7.1c6.5-7,12.6-14.9,15.4-24.2c1.3-4.6,2.1-9.6,0.7-14.3
	c-1.9-6.4,1.4-12.5,2.3-18.7C392,361,391,352.1,390.1,343.3z"/>
<path class="st0" d="M315.9,373.6c6.1,6.2,11.1,13.4,15.7,20.8c3.1,4-1.3,8.2-1.6,12.4c3.5,8.4,11.8,13.1,17.8,19.4
	c-8.7-4.4-16.9-9.9-24.6-15.9C326.6,397.6,320.7,385.1,315.9,373.6z"/>
<path class="st0" d="M336.5,394.9c0.1-4.1,3.3-7.1,5.7-10.2c-2.1,6.3-3.3,12.9-2.6,19.6C338.4,401.2,337.1,398.2,336.5,394.9z"/>
<path class="st0" d="M360.7,533.5c2.2-5.7,4.2-11.5,7-16.9c-9.2,32.3-18.1,64.8-22.1,98.3c-0.9,6.1-1,12.3-2.1,18.4
	c-0.6-21.8-0.7-43.9,5-65.1C352,556.5,356.4,545,360.7,533.5z"/>
</svg>
