<?xml version="1.0" encoding="utf-8"?>
<!-- Generator: Adobe Illustrator 21.1.0, SVG Export Plug-In . SVG Version: 6.00 Build 0)  -->
<svg version="1.1" id="Layer_1" xmlns="http://www.w3.org/2000/svg" xmlns:xlink="http://www.w3.org/1999/xlink" x="0px" y="0px"
	 viewBox="0 0 36 36" style="enable-background:new 0 0 36 36;" xml:space="preserve">
<g>
	<path d="M29,7.8c2.7,2.5,4.2,5.6,4.6,9.2v2.3c-0.4,3.7-1.9,6.8-4.5,9.2c-2.6,2.4-5.8,3.8-9.5,4.2h-3C13,32.4,9.8,31,7.1,28.5
		C4.5,26.1,3,23,2.6,19.3v-2.2c0.1-1,0.3-2,0.6-2.9c0.7-2.4,2.1-4.5,4-6.4c2.4-2.4,5.7-3.8,9.7-4.2h2.4C23.1,3.9,26.4,5.3,29,7.8z
		 M32.1,24c1-2,1.4-4.1,1.3-6.2c-0.2-3.9-1.8-7.3-4.8-10c-1.3-1.2-2.8-2.2-4.6-2.9c-2.1-0.8-4.2-1.2-6.3-1.1
		c-2.3,0.1-4.3,0.6-6.1,1.4c-1.7,0.7-3.2,1.7-4.5,3c-1.4,1.4-2.4,2.8-3.1,4.3c-0.9,2.1-1.4,4.1-1.3,6.1c0.1,2.2,0.6,4.2,1.5,5.9
		c1.7,3.3,4.4,5.6,7.9,7c2.1,0.8,4.2,1.2,6.3,1.1c2.2-0.1,4.3-0.6,6.1-1.4C28.1,29.7,30.6,27.2,32.1,24z M31,12
		c1,1.8,1.5,3.6,1.6,5.5c0.2,3.9-1.1,7.3-3.9,10.1c-1.2,1.2-2.6,2.2-4.1,2.9c-1.8,0.8-3.7,1.3-5.6,1.4c-4,0.2-7.6-1-10.5-3.6
		c-2.9-2.5-4.5-5.6-4.8-9.3c-0.1-2.1,0.2-4,1-5.9c1.4-3.2,3.7-5.6,7-7.1c0.9-0.4,1.7-0.7,2.6-0.9c0.9-0.3,2-0.4,3.1-0.5
		c4-0.2,7.5,1,10.5,3.5C29.2,9.1,30.2,10.4,31,12z M31,23.4c0.8-1.8,1.2-3.7,1.1-5.7c-0.1-1.9-0.6-3.7-1.5-5.3c-1.6-3-4-5.1-7.2-6.3
		c-1.9-0.8-3.9-1.1-5.8-1c-2,0.1-3.9,0.5-5.6,1.3c-1.4,0.6-2.7,1.5-4,2.7c-1.1,1-2,2.4-2.8,4c-0.8,1.8-1.2,3.7-1.1,5.6
		c0.1,1.9,0.6,3.7,1.4,5.3c1.6,2.9,4,5,7.2,6.3c1.9,0.8,3.8,1.1,5.8,1c1.9-0.1,3.8-0.5,5.5-1.3C27.3,28.6,29.6,26.4,31,23.4z
		 M26.2,9.3c0.7,0,1.3,0.3,1.9,0.9c0.5,0.6,0.8,1.3,0.8,2c0.1,1-0.4,1.9-1.5,2.8c0.4,1.1,0.7,2.2,0.7,3.2c0,1.1-0.2,2.2-0.7,3.3
		c-0.2,0.4-0.4,0.8-0.7,1.4c-0.4,0.7-0.7,1.2-0.7,1.3c0,0-0.1,0-0.1,0c0-0.1,0-0.1-0.1-0.1c0,0-0.1,0.3-0.2,0.8
		c-0.1,0-0.1,0.1-0.2,0.2c0,0.1-0.1,0.2-0.1,0.2c0,0-0.1-0.2-0.1-0.4c-0.1,0.1-0.2,0.2-0.3,0.5c-0.1,0.2-0.2,0.4-0.3,0.5
		c0-0.1,0-0.2,0-0.3c0-0.1,0.1-0.2,0.1-0.3c-0.1,0.1-0.2,0.3-0.4,0.7c-0.2,0.4-0.3,0.6-0.4,0.7c0-0.1,0-0.3,0.1-0.7
		c0.1-0.3,0.1-0.5,0.1-0.7c-0.1,0.1-0.2,0.3-0.3,0.7c-0.1,0.3-0.3,0.5-0.4,0.6c-0.1,0-0.1-0.1-0.1-0.3c0-0.2,0-0.3,0-0.3
		c0,0.1-0.1,0.3-0.3,0.6c-0.1,0.2-0.2,0.4-0.3,0.5c0-0.1,0-0.3,0.1-0.6c-0.1,0.1-0.2,0.2-0.3,0.3c-0.1,0.2-0.2,0.3-0.3,0.3
		c0,0,0-0.1,0-0.2c0-0.1,0-0.2,0-0.2c-0.1,0.1-0.1,0.3-0.2,0.6c-0.1,0.3-0.2,0.5-0.2,0.6c-0.1,0-0.1-0.1-0.1-0.2c0-0.2,0-0.3,0-0.3
		c-0.4,0.7-0.8,1-1,1.1c0-0.1,0-0.2,0-0.3c0-0.2,0.1-0.3,0.1-0.3c0,0-0.2,0.2-0.4,0.6c-0.2,0.3-0.3,0.5-0.4,0.5c0,0,0-0.1-0.1-0.4
		c-0.1,0.1-0.2,0.3-0.3,0.7c-0.1,0.3-0.3,0.5-0.4,0.6c-0.1,0-0.1-0.1-0.1-0.3c-0.5,0.5-0.7,0.8-0.5,0.8c0,0,0-0.1,0-0.2
		c0-0.1,0-0.2,0-0.2c0,0-0.1,0.1-0.1,0.3c0,0.1-0.1,0.2-0.2,0.2c0,0,0,0,0-0.1s0-0.1,0-0.1c0,0,0,0.1-0.1,0.1c0,0.1-0.1,0.1-0.1,0.1
		c-0.1,0-0.1,0-0.1-0.1c0,0-0.1,0-0.1,0s-0.1,0-0.1,0c0,0,0-0.1-0.1-0.2s-0.1-0.1-0.1-0.2c0,0,0,0,0,0.1c0,0.1,0,0.1-0.1,0.1
		c-0.1,0-0.3-0.3-0.6-0.7c0,0,0,0.1,0,0.2c0,0.1,0,0.1,0,0.1c-0.1-0.1-0.3-0.4-0.4-0.7c-0.2-0.4-0.3-0.6-0.4-0.7c0,0,0,0.1,0,0.2
		c0,0.1,0,0.2,0,0.2c-0.1-0.1-0.3-0.4-0.6-0.8c-0.2-0.3-0.5-0.6-0.6-0.8c0,0,0,0.1,0,0.1c0,0.1,0,0.1,0,0.2
		c-0.2-0.1-0.3-0.2-0.5-0.5c-0.2-0.3-0.4-0.4-0.5-0.5c0,0.1,0,0.2,0.1,0.3c0.1,0.1,0.1,0.3,0.1,0.3c-0.2-0.1-0.4-0.3-0.8-0.7
		c0,0-0.1-0.1-0.2-0.2c-0.1-0.1-0.1-0.2-0.2-0.2c0,0,0,0.1,0,0.2c0,0.1,0,0.1,0,0.2c-0.3-0.1-0.7-0.5-1.4-1.1c0,0,0,0,0,0.1
		s0,0.1,0,0.1c-0.2-0.1-0.4-0.3-0.6-0.6c-0.3-0.3-0.5-0.5-0.6-0.6c0,0,0,0.1-0.1,0.1c0,0.1,0,0.1,0,0.1c-0.1-0.1-0.4-0.7-0.9-1.9
		c0,0-0.1,0.1-0.1,0.1c0,0.1-0.1,0.1-0.1,0.1c-0.2-0.3-0.4-0.7-0.5-1.3c-0.2-0.8-0.3-1.6-0.3-2.4c0.1-1.5,0.6-3,1.5-4.5
		c-0.8-0.8-1.1-1.8-1.1-3c0-0.8,0.3-1.4,0.8-1.9c0.5-0.5,1.1-0.8,1.9-0.7c0.6,0,1.1,0.3,1.5,0.7c0.3,0.3,0.5,0.7,0.9,1.4
		c0,0,0.1-0.1,0.1-0.1c0-0.1,0-0.1,0.1-0.1c0.1,0,0.1,0,0.2,0.1c0,0.1,0.1,0.1,0.1,0.1c0-0.1,0.1-0.2,0.1-0.4c0-0.2,0.1-0.3,0.1-0.3
		c0.1,0,0.1,0.1,0.2,0.1c0.1,0.1,0.1,0.2,0.1,0.2c0.1,0,0.1-0.1,0.1-0.3c0-0.2,0.1-0.3,0.2-0.3c0.1,0,0.2,0.1,0.2,0.2
		c0.1,0.1,0.1,0.2,0.2,0.2c0.1,0,0.1-0.1,0.1-0.3c0-0.2,0-0.3,0.1-0.3c0.1,0,0.1,0.1,0.2,0.2c0,0.1,0.1,0.2,0.1,0.2
		c0.1-0.1,0.1-0.2,0.2-0.4s0.1-0.3,0.2-0.4c-0.1,0,0,0.1,0.3,0.5c0,0,0.1-0.1,0.1-0.2c0-0.2,0-0.3,0-0.3c0.1,0,0.2,0.1,0.2,0.2
		c0.1,0.2,0.1,0.3,0.1,0.3c0-0.1,0-0.2,0-0.4s0-0.4,0-0.5c0.1,0,0.2,0.1,0.3,0.3C16.9,9.5,17,9.6,17,9.7c0-0.1,0.1-0.3,0-0.6
		c0-0.3,0-0.5,0.1-0.5c0.1,0,0.3,0.2,0.4,0.4c0.1,0.2,0.2,0.4,0.3,0.5c0.1-0.1,0.2-0.4,0.2-1c0.1,0,0.3,0.2,0.7,0.6
		c0,0,0.1-0.1,0.2-0.3c0.1-0.1,0.1-0.2,0.2-0.2c0.1,0.1,0.1,0.2,0.1,0.5c0,0.2,0.1,0.4,0.1,0.5c0.1,0,0.1-0.2,0.2-0.4
		s0.1-0.3,0.2-0.4c0.1,0,0.1,0.2,0.1,0.4c0,0.3,0,0.4,0,0.5c0.1,0,0.2-0.2,0.2-0.3s0.2-0.3,0.3-0.3c0,0.1,0,0.2,0,0.4
		c0,0.2-0.1,0.3-0.1,0.4c0.1,0,0.2-0.1,0.2-0.2s0.2-0.2,0.3-0.2c0,0.1,0,0.2,0,0.3c0,0.2,0,0.3-0.1,0.3c0.1,0,0.2-0.1,0.2-0.2
		c0.1-0.1,0.2-0.2,0.3-0.2l0,0.4c0,0,0.1-0.1,0.1-0.1c0-0.1,0.1-0.1,0.1-0.1c0.1,0.1,0.1,0.2,0.1,0.4c0,0,0.1,0,0.1,0
		C22,10,22,10,22.1,10c0,0,0.1,0.1,0,0.3c0,0,0.1,0,0.1,0c0,0,0.1,0,0.1,0c0,0,0,0.1,0,0.2c0,0.1,0,0.1,0,0.2c0.2-0.1,0.4-0.1,0.6,0
		v0.5c0,0,0.1,0,0.1-0.1s0.1-0.1,0.2,0c0.3,0.2,0.4,0.4,0.3,0.4c0,0,0.2-0.2,0.5-0.7C24.7,9.7,25,9.3,25,9.3S25.4,9.3,26.2,9.3z
		 M27.1,14.5c0.8-0.7,1.2-1.6,1.1-3c0,0,0,0-0.1,0.1c0,0-0.1,0.1-0.1,0c0-0.4,0-0.5-0.1-0.6c0,0-0.1,0-0.1,0.1
		c0,0.1-0.1,0.1-0.1,0.1c0-0.1,0-0.1,0-0.3s0-0.2,0-0.2c-0.1,0-0.1,0-0.2,0.1C27.4,11,27.3,11,27.3,11c0-0.1,0-0.1,0.1-0.2
		s0.1-0.1,0.1-0.1c-0.2,0-0.3,0-0.3,0c0-0.1,0-0.2,0.1-0.2c0.1-0.1,0.2-0.1,0.2-0.2c-0.1-0.1-0.2-0.1-0.4,0c-0.2,0.1-0.3,0-0.3,0
		c0-0.1,0-0.1,0.1-0.1c0.1,0,0.1-0.1,0.1-0.1c-0.2-0.1-0.4-0.1-0.5-0.1c-0.7-0.1-1.3,0.1-1.7,0.6c-0.4,0.4-0.6,1-0.7,1.7
		c0,0-0.1,0.1-0.2,0.1c0,0-0.1-0.2-0.2-0.4c-0.6-0.4-1.5-0.6-2.4-0.7c0,0,0-0.1,0-0.1c0,0-0.1,0-0.1,0c-0.1,0-0.1,0-0.1,0
		c0,0,0-0.1,0-0.2c0,0-0.1,0-0.1,0s-0.1,0-0.1,0c0,0,0,0-0.1,0c0,0,0-0.1-0.1,0c-0.2,0.1-0.3,0.2-0.3,0.2c0-0.1,0-0.1,0.1-0.2
		c0-0.1,0.1-0.1,0-0.2c0,0-0.1,0.1-0.1,0.2c-0.1,0.1-0.1,0.2-0.2,0.2c0,0,0-0.1,0-0.4c0,0,0,0-0.1,0.1c-0.1,0.1-0.2,0.2-0.2,0.1
		c0,0,0-0.1,0-0.3c0-0.1,0-0.2-0.1-0.2c0,0-0.1,0.1-0.1,0.3c0,0.1-0.1,0.2-0.1,0.2c-0.1,0-0.1,0-0.1-0.1c0-0.1,0-0.2-0.1-0.2
		c0-0.1,0,0-0.1,0.2c0,0.1-0.1,0.1-0.1,0.1c0,0-0.1-0.1-0.1-0.3c-0.1,0-0.1,0.1-0.1,0.2c0,0.1-0.1,0.2-0.1,0.2c0,0-0.1,0-0.1-0.1
		c0-0.1-0.1-0.1-0.1-0.1c0,0.2-0.1,0.2-0.2,0.2c0,0,0,0-0.1-0.1c0,0-0.1,0-0.1,0c0,0.1,0,0.2-0.1,0.1c-0.1-0.1-0.1-0.2-0.1-0.3
		c-0.1-0.2-0.1-0.3-0.2-0.3c0,0.1,0,0.2,0,0.4c0,0.2,0,0.3,0,0.3c0,0-0.1-0.1-0.3-0.3c-0.1,0.1-0.1,0.2-0.1,0.2c0,0-0.1,0-0.1,0
		c0-0.1,0-0.1-0.1-0.1c-0.1,0.2-0.2,0.2-0.1,0.2c-0.1,0-0.1-0.1-0.2-0.2s-0.1-0.2-0.1-0.2c0,0,0,0.1,0,0.3c0,0.1,0,0.2-0.1,0.2
		c-0.1,0-0.1-0.1-0.1-0.1c0-0.1-0.1-0.1-0.1-0.2l0,0.2c0,0-0.1,0-0.3,0c0,0-0.1,0-0.1,0c0,0-0.1,0-0.1,0c-1.2,0.1-2,0.5-2.3,1.1
		c-0.1,0.2-0.2,0.3-0.3,0.3c-0.1-1.9-0.9-2.9-2.3-3c-0.1,0-0.2,0.1-0.3,0.1c-0.2,0-0.3,0.1-0.3,0.1c0,0,0,0.1,0,0.2
		c0,0.1,0,0.1-0.1,0.1C9.8,9.9,9.7,9.8,9.8,9.8c0,0.1,0.1,0.1,0.2,0.2c0.1,0.1,0.1,0.2,0.1,0.3c0,0,0,0,0,0c0,0,0,0,0,0
		c0,0-0.1,0-0.2-0.1c-0.1-0.1-0.1-0.1-0.1,0c0.1,0.1,0.1,0.3,0,0.4c-0.1,0.1-0.2,0.1-0.3,0c-0.1,0.4,0,0.6,0,0.6c0,0-0.1,0-0.1,0
		c0,0-0.1-0.1-0.1-0.1c0,0.2-0.1,0.3-0.2,0.4c0,1.5,0.4,2.4,1.3,2.9c-0.8,0.8-1.3,1.9-1.7,3.4c-0.3,1.6-0.3,3,0.2,4.2
		c0,0,0.1,0,0.1-0.1c0-0.1,0.1-0.1,0.1-0.1c0,0.1,0.1,0.2,0.1,0.3c0,0.2,0.1,0.3,0.1,0.4c0,0,0,0,0.1,0c0,0,0,0,0,0
		c0,0.1,0.1,0.3,0.1,0.6c0,0.2,0.1,0.4,0.2,0.5c0.1,0,0.1-0.2,0.1-0.3c0-0.2,0-0.4,0-0.4c0.4,0.8,0.5,1.2,0.5,1.1
		c0.1-0.5,0.1-0.8,0.1-0.7c0,0.1,0.1,0.3,0.1,0.8c0,0.3,0.1,0.5,0.3,0.5c0-0.6-0.1-1.1-0.1-1.3l-0.1,0.2c0-0.1-0.1-0.2-0.1-0.4
		c0-0.2,0-0.3-0.1-0.3c0,0,0,0.1,0,0.1c0,0.1,0,0.1-0.1,0.1c-0.1-0.1-0.1-0.2-0.1-0.5s0-0.4,0-0.4l-0.2,0.5c0-0.1-0.1-0.3,0-0.6
		c0-0.5,0.1-0.9,0.2-1c0,0,0,0.2,0,0.6c0,0,0.1-0.1,0.1-0.1c0-0.1,0.1-0.1,0.2-0.1c0,0.1,0,0.2,0,0.3c-0.1,0.2-0.1,0.3,0,0.3
		c0.1,0,0.1-0.1,0.2-0.2c0.1-0.1,0.2-0.2,0.3-0.2c0,0.1,0,0.2-0.1,0.4c0,0.2-0.1,0.3-0.1,0.4c0.1,0,0.1,0,0.2-0.1
		c0.1-0.1,0.2-0.1,0.2-0.1c0,0,0,0.2,0,0.5c0,0,0.1-0.1,0.1-0.2c0.1-0.1,0.1-0.1,0.2-0.1c0.1,0.1,0.1,0.2,0.1,0.3
		c-0.1,0.2-0.1,0.3,0,0.3c0.1-0.2,0.2-0.3,0.3-0.3c0,0,0,0.2,0,0.3c0,0.1,0,0.2,0.1,0.3c0.1,0,0.1-0.1,0.1-0.3c0-0.2,0-0.3,0-0.3
		c0.1,0,0.2,0.1,0.5,0.3c0,0,0-0.2,0-0.5c0,0,0,0-0.1,0c0,0-0.1,0-0.1,0c0-0.1-0.1-0.3-0.1-0.6s0-0.4-0.1-0.5c0,0-0.1,0.2-0.1,0.4
		c0,0.2-0.1,0.3-0.1,0.3c-0.1-0.1-0.2-0.5-0.1-1.1c-0.1,0-0.1,0.1-0.1,0.3c0,0.2-0.1,0.3-0.1,0.3c-0.1-0.1-0.1-0.3-0.1-0.7
		c0-0.4,0-0.6-0.1-0.7c-0.1,0-0.1,0.1-0.2,0.3c0,0.2-0.1,0.3-0.2,0.3c-0.1-0.4-0.2-0.8-0.1-1.1c-0.1,0-0.1-0.1-0.1-0.3
		c0-0.1,0-0.1,0-0.2s0-0.1,0-0.2c-0.1,0-0.2,0-0.2,0c0-0.2,0.1-0.5,0.2-0.9c-0.1,0-0.2,0-0.2-0.1c0-0.3,0.1-0.5,0.4-0.5
		c0.2-0.4,0.3-0.6,0.5-0.6c0,0.1,0,0.2-0.1,0.3c-0.1,0.2-0.1,0.3-0.1,0.3c0,0,0,0,0.1-0.1c0.1,0,0.1,0,0.1,0c0,0,0,0,0,0
		c0,0,0,0,0,0c0,0.1-0.1,0.3-0.2,0.6c-0.1,0.3-0.2,0.4-0.3,0.5c-0.1,0.4-0.1,0.5-0.1,0.5c0,0,0.1-0.1,0.4-0.4c0,0,0-0.1,0.1-0.2
		c0-0.1,0.1-0.2,0.1-0.2c0.1-0.2,0.2-0.2,0.3-0.1c-0.1,0.3-0.2,0.5-0.2,0.6c0,0,0.1,0,0.1,0c0.1,0,0.1,0,0.1,0.1
		c-0.1,0.5-0.1,0.7-0.1,0.8c0.2-0.3,0.4-0.4,0.5-0.5c0.1,0.1,0.1,0.4,0,0.8c0,0.4,0,0.7,0.1,0.9c0,0,0-0.1,0-0.2s0-0.2,0-0.3
		c0-0.2,0.1-0.2,0.3-0.2c0,0.5,0,0.9,0.1,1c0-0.1,0-0.1,0-0.2s0-0.2,0-0.2c0-0.2,0.1-0.3,0.2-0.3c0,0.1,0-0.2,0.1-0.8
		c0,0-0.1,0-0.1,0c0,0-0.1,0-0.1,0v-0.1c-0.1,0-0.2,0-0.2,0c0-0.1,0.1-0.2,0.2-0.3c0.1,0.1,0.2,0.1,0.3,0.1c0,0.1,0,0.1,0,0.3
		c0.1,0,0.2,0,0.2,0c0,0.1,0,0.2,0,0.2c0.1,0,0.1,0,0.2,0.1c0,0,0,0,0,0.1s0,0.1,0,0.1c0,0,0.1,0,0.1-0.1c0,0,0-0.1,0.1-0.1
		c0,0,0,0,0,0.1c0,0,0,0.1,0.1,0.1c0-0.1,0.1-0.2,0.3-0.3c0.1-0.1,0.2-0.3,0.2-0.4c-0.5,0.2-0.7,0.2-0.6,0.3c0-0.1,0.1-0.1,0.2-0.2
		s0.2-0.1,0.2-0.2c0,0-0.2,0-0.3,0c-0.2,0-0.2,0-0.2,0c0,0,0-0.1,0.2-0.1c0.1-0.1,0.2-0.1,0.2-0.2c-0.1,0-0.2,0-0.3,0.1
		c-0.1,0.1-0.2,0.1-0.3,0c0,0,0.1-0.1,0.1-0.1c0.1,0,0.1,0,0.1-0.1c-0.3-0.1-0.4-0.2-0.4-0.1c0,0,0-0.1,0.1-0.1
		c0.1,0,0.1-0.1,0.1-0.1c0,0,0,0-0.1-0.1c0,0-0.1,0,0-0.1c0.1,0,0.2-0.1,0.4-0.1c0.2-0.1,0.3-0.1,0.4-0.2c-0.5,0-0.7,0-0.8-0.1
		c0.1-0.1,0.3-0.1,0.6-0.1c0-0.1-0.1-0.1-0.2-0.1c-0.2,0-0.3-0.1-0.3-0.1c0,0,0-0.1,0.1-0.1c0,0,0.1-0.1,0-0.1
		c0-0.1-0.1-0.1-0.3-0.1c-0.2,0-0.3,0-0.3-0.1c0,0,0.2-0.1,0.3-0.1c0.2,0,0.3,0,0.3-0.1c0-0.1-0.1-0.1-0.2-0.1c-0.1,0-0.2,0-0.2-0.1
		c0,0,0.2,0,0.6,0c0.1,0.2,0.3,0.4,0.5,0.5c0.2,0.1,0.5,0.1,0.8,0c-0.1,0,0,0,0.3-0.2c0.1-0.1,0.3-0.1,0.4-0.1
		c0.1,0,0.2,0.1,0.3,0.3c0.1,0.2,0.2,0.2,0.4,0.2c0,0,0-0.1,0-0.2c0-0.1,0-0.2,0.1-0.2c0.1,0,0.2,0,0.2,0.1c0.1,0.1,0.1,0.1,0.1,0.1
		c0.2-0.1,0.3-0.3,0.3-0.5c0.1-0.3,0-0.5,0-0.8c-0.1-0.4-0.2-0.5-0.2-0.5c0.1,0,0.1,0,0.2,0c0.1,0.1,0.1,0.1,0.1,0.1
		c0-0.2-0.1-0.3-0.2-0.5C17.1,15.1,17,15,17,14.9c0.1-0.1,0.2-0.1,0.3,0c0.2,0.2,0.2,0.2,0.2,0.2c0-0.5-0.2-0.9-0.6-1.2
		c0,0,0.1,0.1,0.4,0.1c0,0-0.1-0.1-0.1-0.2c-0.1-0.1-0.1-0.2,0-0.2c-0.1,0,0,0.1,0.3,0.3c-0.2-0.8-0.5-1.4-0.8-1.7
		c-0.3-0.3-0.5-0.5-0.5-0.4c0.2,0,0.5,0.1,0.9,0.5c0-0.1-0.1-0.3-0.2-0.4c-0.1-0.2-0.2-0.3-0.2-0.4c0.6,0.3,1,0.9,1.1,1.8
		c0-0.1,0.1-0.2,0.2-0.3c0.1-0.2,0.1-0.3,0.2-0.3c0.2-0.2,0.3-0.4,0.5-0.3c-0.4,0.9-0.7,1.4-0.7,1.4c0,0,0.1,0,0.2-0.1
		c0.1-0.1,0.2-0.1,0.3,0C18.2,14,18,14.2,18,14.3c0.2-0.2,0.3-0.3,0.5-0.2c-0.3,0.3-0.5,0.6-0.5,1c0,0,0.1-0.1,0.1-0.1
		c0-0.1,0.1-0.1,0.2-0.1c0,0.1,0,0.2-0.1,0.3c-0.1,0.2-0.1,0.3-0.1,0.3c0.1-0.1,0.2,0,0.2,0c0,0.1,0,0.2-0.1,0.3
		c-0.1,0.1-0.1,0.2-0.1,0.3l0.2-0.2c0,0,0,0,0,0.1c0,0,0,0.1,0,0.1c0,0,0,0,0-0.1s0,0,0.1,0c0,0.6,0,0.9,0,0.9
		c0.1,0.3,0.3,0.4,0.5,0.5c0-0.3,0.2-0.6,0.4-0.8c0.3-0.2,0.6-0.2,0.8,0c-0.6,0.3-0.8,0.7-0.8,1c0.2-0.3,0.4-0.5,0.6-0.6
		c0.1,0,0.3,0,0.6,0.2s0.5,0.2,0.7,0.2c0.1,0,0.4-0.2,0.8-0.7c0.1,0.2,0.1,0.3-0.1,0.5c-0.2,0.3-0.3,0.4-0.3,0.4
		c0.1,0.1,0.2,0.1,0.2,0.1c0,0-0.2,0.1-0.5,0.2c0,0.1,0,0.1,0.1,0.1c0.1,0,0.1,0.1,0.1,0.1c-0.1,0.1-0.2,0.1-0.4,0.1
		c0,0,0,0.1,0,0.1s0.1,0.1,0.1,0.1c0,0.1-0.2,0.1-0.4,0c0,0.1,0,0.2,0.1,0.3c0,0.1,0.1,0.2,0.1,0.2c-0.1,0.2-0.2,0.2-0.3,0.2
		c0,0,0,0.1,0,0.1c0,0.1,0,0.1,0,0.1c0,0.1-0.1,0.1-0.2,0.1s-0.2-0.1-0.2-0.1c0,0.1,0.1,0.2,0.2,0.3c0.1,0.1,0.2,0.2,0.2,0.3
		c0,0,0-0.2,0-0.3c0-0.2,0-0.3,0.1-0.3c0.2,0.2,0.3,0.3,0.3,0.3c0,0,0-0.1,0-0.3c0-0.1,0-0.2,0.1-0.2c0.1,0,0.1,0.1,0.1,0.1
		c0,0.1,0.1,0.1,0.1,0.1c0,0,0,0,0-0.1c0-0.1,0-0.1,0-0.1c0-0.1,0-0.1,0.1-0.1c0,0,0.1,0.1,0.1,0.1c0,0.1,0.1,0.1,0.1,0.1
		c0-0.3,0-0.5,0-0.4c0.1,0,0.1,0,0.1,0.1c0,0.1,0.1,0.1,0.1,0.1c0-0.2,0-0.3,0.1-0.3c0.1,0,0.1,0,0.1,0.1c0,0,0.1,0.1,0.1,0.1
		l-0.1-0.3c0-0.1,0-0.2,0.1-0.3c0,0,0.1,0.1,0.1,0.2c0.1,0.1,0.1,0.1,0.2,0.1c0-0.1,0-0.2-0.1-0.3c0-0.1,0-0.2,0-0.3
		c0.1,0,0.1,0,0.2,0.1l0-0.2c0-0.1,0-0.1,0.1-0.2c0.1,0,0.2,0,0.2,0.1c-0.2-0.2-0.2-0.3,0-0.5s0.3-0.1,0.4,0.1c0,0,0,0.1,0,0.3
		c-0.1,0.1-0.2,0.2-0.2,0.3c0,0,0,0.1,0,0.2c0,0.1,0,0.2,0,0.2c0.3-0.1,0.5,0,0.6,0.2c0.2,0.2,0.2,0.5,0,0.7c0-0.1-0.1-0.1-0.1-0.3
		c-0.1-0.1-0.1-0.2-0.1-0.3c-0.1-0.2-0.3-0.3-0.5-0.2c0.1,0.3,0.2,0.5,0.1,0.5c0,0,0-0.1,0-0.1s0-0.1,0-0.1c0.2-0.1,0.3-0.1,0.5,0.1
		c0.1,0.2,0.1,0.3,0,0.4c0,0,0,0-0.1-0.1c0-0.1-0.1-0.1-0.1-0.1c0,0.3,0.1,0.5,0.1,0.5c0,0-0.1,0-0.1,0c-0.1,0-0.1-0.1-0.1-0.2
		s-0.1-0.2-0.2-0.2c0,0,0.1,0.1,0.2,0.4c0.1,0.2,0.1,0.3,0,0.4c0,0,0,0-0.1-0.1c0.1,0.5,0.1,0.7-0.1,0.8c-0.1-0.1-0.1-0.2-0.1-0.4
		c0-0.2-0.1-0.3-0.1-0.4c0.1,0.7,0,1.1-0.2,1.3c0-0.1-0.1-0.4-0.1-0.7c0-0.3-0.1-0.6-0.1-0.7c-0.1,0-0.2-0.1-0.2-0.2
		c-0.1-0.1-0.1-0.2-0.1-0.2c0,0,0,0.2,0.1,0.6c0,0,0,0,0.1,0s0.1,0,0.1,0.1c0.2,1,0.2,1.6-0.1,1.7c0-1.1-0.2-1.7-0.4-1.9
		c0,0,0,0.1,0,0.3c0,0.1,0,0.2,0,0.3c0.1,0.2,0.2,0.4,0.2,0.8c0,0.4,0,0.6-0.2,0.8c0-0.1-0.1-0.4-0.1-0.8c0-0.3-0.1-0.6-0.1-0.7
		c0,0.2,0,0.5,0,1c0,0.4,0,0.8-0.1,1c0.1,0.1,0.2,0.1,0.2,0.1c0,0.2,0,0.3,0,0.3c0.1,0,0.1-0.1,0.2-0.3c0.1-0.2,0.1-0.2,0.2-0.3
		c0,0,0,0.1,0.1,0.1c0,0.1,0,0.1,0.1,0.1c0,0,0-0.1,0.1-0.2c0-0.1,0.1-0.1,0.2-0.1c0,0.1,0,0.3-0.1,0.5c-0.1,0.2-0.1,0.4,0,0.5
		c0.1-0.6,0.3-1.1,0.4-1.3c0,0,0,0,0.1,0.1c0.1-0.1,0.1-0.2,0.2-0.2c0,0,0.1,0,0.1,0.1s0,0.1,0.1,0.1c0,0,0-0.1,0-0.4
		c0-0.2,0.1-0.2,0.2-0.2c0,0.6,0,0.9,0,1h-0.1c-0.2,0.4-0.2,0.5-0.2,0.5c-0.1,0-0.1,0-0.1-0.1c0-0.1,0-0.1-0.1-0.1
		c0,0,0,0.1-0.1,0.3c0,0.1-0.1,0.2-0.2,0.2c0,0,0,0,0-0.1c0-0.1,0-0.1,0-0.1c-0.1,0.2-0.1,0.4-0.2,0.6c0,0,0,0.2,0,0.6
		c0,0.2,0,0.5-0.1,0.9c-0.1,0.4-0.1,0.7-0.1,0.9c0.2-0.2,0.4-0.6,0.4-1.1c0-0.7,0.1-1.2,0.1-1.3c0.1,0.1,0.1,0.2,0.1,0.4
		c-0.1,0.3-0.1,0.5,0,0.6c0,0,0.1,0.1,0.2,0.3c0.1-0.2,0.1-0.4,0.1-0.6c0,0,0,0-0.1,0c0,0-0.1,0-0.1-0.1c0-0.1,0.1-0.2,0.1-0.5
		s0.1-0.4,0.1-0.5c0.1,0,0.2,0.1,0.1,0.3c0,0.2,0,0.3,0.1,0.3c0-0.1,0.1-0.2,0.1-0.4c0-0.2,0.1-0.3,0.1-0.4l0.2,0.2
		c-0.1,0.7-0.1,1.2-0.1,1.6c0-0.1,0.2-0.7,0.5-2.1c0.1,0,0.1,0.1,0.1,0.3c0,0-0.1,0.4-0.2,1.1l0.2,0c0.2-0.7,0.2-1.1,0.2-1.2
		c0-0.2,0.1-0.4,0.1-0.4c0.1,0.1,0.1,0.2,0.1,0.3c0,0.2,0,0.3,0,0.4c0.1-0.1,0.2-0.2,0.2-0.5c0-0.3,0.1-0.5,0.1-0.5
		c0,0.2,0,0.4,0,0.8C25,23.7,25,24,25,24.1c0.1-0.1,0.2-0.5,0.3-1c0,0,0.1,0,0.1,0c0-0.1,0-0.2,0-0.4c0-0.2,0-0.3,0.1-0.4
		c0,0.1,0.1,0.6,0,1.5c0.2-0.1,0.3-0.4,0.2-0.8c0-0.6,0-0.9,0-1c0.1,0.1,0.1,0.2,0.1,0.4c0,0.2,0,0.4,0.1,0.5
		c0.1-0.2,0.1-0.4,0.1-0.8c0-0.4,0-0.7,0.1-0.8c0,0.1,0.1,0.5,0.1,1.2c0.1-0.2,0.2-0.5,0.3-0.9c0-0.6,0-1.1,0-1.5
		c0-0.4-0.1-0.6-0.1-0.6c0.3,0.1,0.4,0.2,0.3,0.2c0-0.1,0-0.3-0.1-0.7c-0.1-0.3,0-0.4,0.3-0.4c0-0.1,0-0.2-0.1-0.3
		c0-0.1,0-0.2,0-0.3c0,0,0.1,0,0.1,0s0.1,0,0.1,0c0-0.1-0.1-0.2-0.1-0.4c-0.1-0.2-0.1-0.3-0.1-0.4c0.2,0,0.4,0,0.5,0.2
		c0.1,0.2,0.1,0.3,0.1,0.5c0,0,0,0.1,0,0.1c0,0,0,0.1,0,0.1c0,0.1,0,0.2,0,0.3c0,0.1,0,0.2,0,0.3c-0.1,0.3-0.1,0.5-0.1,0.5
		c0,0-0.1,0-0.1,0.1c0,0.5-0.1,0.7-0.3,0.8c0,1,0,1.6,0,1.6c0.8-1.2,1.1-2.4,1-3.8c-0.1-1-0.4-2.1-1-3.4c0-0.1,0.1-0.1,0.1-0.1
		S26.9,14.5,27.1,14.5z M9.3,15.7c0.3-0.6,0.7-0.9,1.1-0.9c0,0.1-0.1,0.2-0.2,0.3c-0.2,0.1-0.2,0.2-0.3,0.3c0,0,0.1,0,0.1,0
		s0.1,0,0.2,0c0,0.1-0.1,0.3-0.3,0.4c-0.2,0.2-0.3,0.3-0.4,0.4c0.2,0,0.3,0,0.3,0c0,0.1-0.1,0.2-0.2,0.4c-0.2,0.2-0.2,0.3-0.3,0.4
		c0,0,0,0,0.1,0s0.1,0,0.1,0c0,0.1-0.1,0.2-0.2,0.3c-0.1,0.1-0.2,0.2-0.2,0.3c0,0,0.1,0,0.2,0c0.1,0,0.2,0,0.2,0
		c0,0.1-0.1,0.2-0.2,0.4c-0.1,0.2-0.2,0.3-0.2,0.3c0,0,0.1,0,0.2,0c0.1,0,0.1,0,0.2,0c0,0,0,0,0,0c0,0,0,0,0,0
		c0,0.1-0.1,0.1-0.3,0.2c-0.1,0-0.2,0.1-0.2,0.2c0.1,0,0.1,0,0.3,0c0.1,0,0.2,0,0.3,0c0-0.1-0.1,0.1-0.3,0.4
		c-0.1,0.2-0.2,0.4-0.2,0.7c0,0,0,0,0.1-0.1c-0.1-0.1-0.1-0.3,0-0.5C9.4,19,9.6,19,9.7,19.1c0,0.1-0.1,0.2-0.2,0.2s-0.2,0.2-0.2,0.3
		c0,0,0.1,0,0.2-0.1c0.1-0.1,0.1-0.1,0.2-0.1c0,0-0.1,0.1-0.3,0.5c0,0,0.1,0,0.1-0.1c0.1,0,0.1,0,0.2,0c0,0-0.1,0.1-0.2,0.2
		c-0.2,0.2-0.3,0.6-0.3,1.1C9.1,21,9,20.9,9,20.8c0,0.1,0-0.1,0-0.6c0,0,0,0-0.1,0s-0.1,0-0.1,0c-0.1-0.3-0.1-0.7,0.1-1.1
		c-0.2-0.1-0.2-0.4-0.1-0.8c-0.1-0.2,0-0.5,0.2-0.9c-0.1-0.2,0-0.4,0.1-0.6c-0.1-0.2,0.1-0.5,0.3-0.8C9.4,15.9,9.4,15.8,9.3,15.7
		C9.3,15.8,9.3,15.8,9.3,15.7z M9.7,20.7c0,0,0.1,0,0.1,0c0,0,0.1-0.1,0.1,0c0,0-0.1,0.1-0.1,0.3C9.8,21,9.8,21,9.8,21.1
		c0,0,0,0,0.1,0c0,0,0.1,0,0.1,0c0,0.4-0.1,0.7-0.3,0.7v-0.3c0,0,0,0-0.1,0c-0.1,0-0.1,0-0.1,0c-0.1-0.4,0-0.7,0.1-0.9
		c0.1-0.3,0.3-0.5,0.5-0.5c0,0.1,0,0.2-0.1,0.2S9.7,20.6,9.7,20.7z M12.7,12.4c0,0.1,0,0.2-0.1,0.5c-0.4,0.1-0.8,0.3-1.1,0.8
		c-0.4,0.5-0.8,0.8-1.1,0.9c0-0.1,0-0.1,0.1-0.2c0-0.1,0.1-0.1,0.1-0.2c0-0.1-0.1-0.1-0.2-0.3c-0.1-0.1-0.2-0.3-0.2-0.4
		c0-0.2-0.1-0.4-0.2-0.5c0-0.1,0-0.1,0.1-0.1c-0.1-0.1-0.2-0.3-0.3-0.6c0,0,0.1,0,0.2,0c-0.1-0.3-0.1-0.5-0.1-0.5
		c0,0,0.1,0.1,0.3,0.1c0,0,0-0.1,0-0.2c0-0.1-0.1-0.2-0.1-0.2c0.1-0.1,0.2-0.1,0.2,0c0.1-0.1,0.1-0.2,0.1-0.4c0.1-0.1,0.3,0,0.6,0.2
		c0,0,0-0.1-0.1-0.2c0-0.1,0-0.2,0-0.2c0.1,0,0.2,0,0.3,0.1c0,0,0,0,0-0.1c0-0.1,0-0.1,0-0.1c0.6,0.2,1,0.7,1.1,1.3c0,0,0.1,0,0.1,0
		c0,0,0,0,0.1,0c0,0,0,0.1,0,0.2c0,0.1,0,0.2,0,0.2c0,0,0,0,0.1,0C12.6,12.4,12.7,12.4,12.7,12.4z M10.6,21.9c0,0.1,0,0.2,0,0.2
		C10.6,22,10.6,22,10.6,21.9z M11.4,23.9c0,0.1,0.1,0.3,0.2,0.8c0.1,0.3,0.2,0.6,0.3,0.7c-0.2-0.8-0.3-1.4-0.3-1.8c0,0-0.1,0-0.1,0
		c0,0-0.1,0-0.1,0c0,0.3,0,0.4-0.1,0.4c0,0,0-0.2-0.1-0.7c-0.1,0-0.1,0.1-0.1,0.2c0,0.1-0.1,0.2-0.1,0.2c0-0.1,0-0.4,0-0.7
		c0-0.3,0-0.5,0-0.7c-0.2,0.4-0.2,0.9,0,1.5c0.1,0.5,0.3,0.9,0.6,1.2C11.5,24.3,11.5,23.9,11.4,23.9z M10.9,16.1
		c0.1-0.1,0.2-0.2,0.3-0.2c0.2,0,0.3,0,0.3,0.1C11.3,16.1,11.1,16.1,10.9,16.1z M11.4,16.3c-0.1,0.2-0.2,0.3-0.5,0.3
		c0-0.1,0-0.2,0.1-0.2C11.2,16.3,11.3,16.3,11.4,16.3z M11,15.8c0.1-0.1,0.2-0.1,0.3-0.2s0.3,0,0.3,0v0c-0.1,0.1-0.2,0.1-0.3,0.1
		C11.2,15.8,11.1,15.8,11,15.8z M11,17.2c-0.1-0.1,0-0.3,0.1-0.3c0.1-0.1,0.2-0.1,0.4-0.1C11.5,16.9,11.3,17.1,11,17.2z M11.2,18
		c-0.1,0.3-0.1,0.4-0.1,0.4C11.2,18.1,11.3,18,11.2,18z M11.5,19.7c0,0.1-0.1,0.2-0.2,0.3c-0.1,0.1-0.1,0.2-0.1,0.3
		c0.1-0.2,0.2-0.4,0.3-0.4C11.5,19.8,11.4,19.7,11.5,19.7z M11.2,15.2c0-0.1,0.1-0.2,0.2-0.2c0.1,0,0.2,0,0.3,0c0,0,0,0.1,0,0.1
		c0,0-0.1,0-0.2,0.1C11.4,15.2,11.3,15.2,11.2,15.2z M11.4,19.2c-0.1,0.2-0.1,0.3-0.1,0.3c0.1,0,0.1,0,0.1-0.1
		C11.4,19.2,11.4,19.2,11.4,19.2z M11.5,14.7c0-0.1,0.1-0.1,0.3-0.1c0.2,0,0.2,0.1,0.2,0.2C11.8,14.9,11.7,14.9,11.5,14.7z M12,24.8
		c0,0,0-0.2,0-0.4c0-0.1,0-0.2-0.1-0.5c0-0.2,0-0.4-0.1-0.5C11.7,23.9,11.8,24.4,12,24.8z M11.8,20.8c0.3-0.2,0.4-0.6,0.2-0.9
		C11.8,20.2,11.7,20.5,11.8,20.8z M11.8,14.5c0-0.1,0-0.2,0.2-0.2c0.2,0,0.2,0.1,0.2,0.2C12.2,14.5,12,14.5,11.8,14.5z M12.1,21.4
		c0-0.2,0-0.3,0-0.3C12,21.2,12,21.3,12.1,21.4z M12.1,23.4c0.1,0,0.1,0,0.1-0.1c0,0,0,0,0-0.1c0,0,0-0.1,0-0.1h-0.1
		C12.2,23.3,12.2,23.3,12.1,23.4z M12.1,24.7c0,0.3,0.2,0.5,0.3,0.6c-0.1-0.2-0.1-0.4-0.1-0.8c0-0.4-0.1-0.6-0.1-0.8
		c0,0.1,0,0.3,0,0.6C12.2,24.4,12.2,24.6,12.1,24.7z M12.4,23.3c0,0.1,0.1,0.2,0,0.2C12.5,23.4,12.5,23.4,12.4,23.3
		C12.5,23.3,12.5,23.3,12.4,23.3z M12.7,25.3c0.1,0.4,0.3,0.6,0.4,0.6c-0.2-0.6-0.4-1.2-0.4-1.9C12.4,24.3,12.4,24.7,12.7,25.3z
		 M12.5,22c0,0,0.1-0.1,0.1-0.2c0-0.1,0-0.2-0.1-0.2C12.5,21.8,12.5,21.9,12.5,22z M13,17.9C13,18,13,18,12.9,18
		c-0.1,0-0.2,0-0.2-0.1v-0.1C12.9,17.8,13,17.8,13,17.9z M12.7,16.6c0-0.1,0.1-0.2,0.2-0.2s0.3,0,0.3,0C13.2,16.6,13,16.6,12.7,16.6
		z M13.2,16.1c0,0.1-0.1,0.1-0.2,0.1c-0.1,0-0.2,0-0.3-0.1c0-0.1,0.1-0.1,0.2-0.1S13.1,16,13.2,16.1z M12.7,18.1
		c0.3-0.1,0.5,0,0.5,0.1C13.1,18.3,12.9,18.3,12.7,18.1L12.7,18.1z M12.7,19.1c0-0.1,0.1-0.1,0.1-0.1c0.1,0.2,0.1,0.4,0,0.4
		C12.7,19.2,12.7,19.1,12.7,19.1z M13,17.5c0,0.1-0.1,0.1-0.2,0.1c-0.1,0-0.2-0.1-0.1-0.1c0,0,0.1-0.1,0.2,0S13,17.4,13,17.5z
		 M13.2,14.9c0,0-0.1-0.1-0.2-0.1c-0.1,0-0.2,0-0.2-0.1c0,0,0.1-0.1,0.2-0.1c0,0,0-0.1,0-0.1c0,0,0,0,0-0.1c0.1-0.1,0.2-0.1,0.3,0
		C13.2,14.7,13.2,14.8,13.2,14.9z M12.7,15.8c0.2,0.3,0.3,0.3,0.4,0C12.9,15.8,12.8,15.8,12.7,15.8z M12.8,15.3
		C12.8,15.3,12.8,15.3,12.8,15.3C12.8,15.2,12.8,15.2,12.8,15.3c0-0.2,0-0.2,0.1-0.2s0.1,0,0.2,0.1C13.1,15.2,13,15.3,12.8,15.3z
		 M13.1,22.4c-0.1,0.1-0.2,0.2-0.2,0.3c0,0.2,0,0.3,0.1,0.3c0,0,0-0.1,0.1-0.3c0.1-0.1,0.2-0.1,0.1-0.1c0,0,0-0.1-0.1-0.2
		C13.1,22.5,13.1,22.4,13.1,22.4z M12.9,24.4c-0.1,0.3,0,0.6,0.2,1C13.1,25,13,24.7,12.9,24.4z M12.8,18.5c0-0.1,0.1-0.1,0.2-0.1
		c0.2,0,0.2,0,0.2,0.1C13.1,18.5,12.9,18.6,12.8,18.5z M12.8,22c0.1,0,0.1-0.1,0.1-0.1c0-0.1,0-0.1-0.1-0.2c0,0,0,0.1,0,0.2
		S12.8,22,12.8,22z M13.3,18.7c0,0.1,0,0.2-0.1,0.2c-0.1,0-0.1,0-0.2,0C13,18.8,13.1,18.8,13.3,18.7z M13.2,24.2
		c0-0.5-0.1-0.8,0-0.8C13.1,24,13.1,24.2,13.2,24.2z M13.1,24.9c0.1,0.5,0.2,0.8,0.4,0.9c0,0,0-0.1,0-0.1s0-0.1,0-0.1
		c-0.1,0-0.2-0.1-0.2-0.3C13.2,25,13.2,24.9,13.1,24.9z M13.2,19.2c0-0.2,0.1-0.2,0.2-0.3c0,0.1,0,0.2,0,0.2
		C13.3,19.3,13.3,19.3,13.2,19.2z M13.3,21.4c0-0.1,0-0.2,0.1-0.4c0,0,0,0-0.1,0c-0.1,0-0.1,0.1-0.1,0.1c0,0,0,0.1,0,0.2
		C13.2,21.3,13.3,21.4,13.3,21.4z M13.5,23.8c0.1-0.5,0.1-0.9,0-1.1c0,0.2-0.1,0.3-0.2,0.2C13.4,23.4,13.4,23.7,13.5,23.8z
		 M13.3,13.4c0-0.2,0-0.2,0.2-0.2c0.2,0,0.2,0.1,0.2,0.2C13.7,13.5,13.6,13.5,13.3,13.4z M13.4,13c0.2,0,0.3,0,0.5,0
		c0.2,0.1,0.2,0.2,0.2,0.3c-0.5-0.1-0.7-0.2-0.7-0.2C13.4,13,13.4,13,13.4,13z M13.6,12.7c0.3-0.1,0.5,0,0.7,0.1
		c0.2,0.1,0.3,0.3,0.3,0.5c0.1,0-0.1-0.1-0.6-0.4C13.7,12.8,13.6,12.8,13.6,12.7C13.6,12.8,13.6,12.7,13.6,12.7
		C13.6,12.7,13.6,12.7,13.6,12.7z M13.6,20.5c0,0.1,0,0.1,0,0.2c0,0.1,0,0.1,0,0.2c0.1,0,0.1-0.1,0.1-0.2c0-0.1,0-0.2,0-0.2
		C13.8,20.5,13.7,20.5,13.6,20.5C13.7,20.5,13.6,20.5,13.6,20.5z M13.7,21.6c0,0.1,0,0.3,0.1,0.4c0.1,0.2,0.2,0.2,0.2,0.2
		c0-0.6-0.1-1-0.1-1.3c0,0.1,0,0.2-0.1,0.3C13.7,21.4,13.7,21.5,13.7,21.6z M13.7,25.7c0,0.2,0.1,0.4,0.3,0.5
		c-0.1-0.1-0.1-0.3-0.1-0.7c0-0.3-0.1-0.6-0.1-0.7c0,0,0,0.2,0,0.7c0,0,0,0,0,0.1S13.7,25.7,13.7,25.7z M14,23.7
		c0-0.4,0-0.6-0.1-0.7C13.8,23.2,13.9,23.5,14,23.7z M13.9,18.6c0.4-0.3,0.6-0.4,0.7-0.5C14.3,18.2,14.1,18.4,13.9,18.6z M18.2,28.1
		c0.6-0.7,0.9-1.2,0.9-1.7c-0.2,0.6-0.4,1-0.6,1.2c-0.3,0.4-0.7,0.6-1.2,0.6c-0.3,0-0.5-0.2-0.7-0.6c0,0.1-0.1-0.3-0.4-1
		c-0.3-0.9-0.5-1.7-0.4-2.5c-0.1-0.1-0.2-0.1-0.2-0.1v0.1c0.1,1.2,0.3,2.2,0.7,3c0,0.1,0.1,0.2,0.1,0.4c0.1,0.2,0.1,0.3,0.2,0.3
		c0.2,0.3,0.2,0.4,0.2,0.4c-0.1,0-0.2-0.1-0.4-0.2s-0.2-0.2-0.3-0.3c-0.5-0.7-0.6-1-0.6-0.9c0,0.1,0,0.1-0.1,0.1
		c-0.1-0.1-0.2-0.2-0.3-0.4s-0.2-0.3-0.2-0.4c0,0,0,0.1,0,0.2c0,0.1,0,0.1,0,0.2c-0.1,0-0.1,0-0.1-0.1c0-0.1-0.1-0.2-0.1-0.2
		c0,0.1,0,0.2,0,0.2c0,0-0.1-0.2-0.2-0.4c0,0,0,0-0.1,0c0,0,0,0-0.1,0c-0.1-0.1-0.1-0.2-0.1-0.3c-0.1-0.2-0.1-0.3-0.1-0.4
		c0,0.1,0,0.2,0.1,0.3c0,0.1,0,0.2,0,0.3c-0.1,0-0.1-0.1-0.2-0.3c0-0.2-0.1-0.2-0.2-0.2c0.1,0.3,0.3,0.7,0.6,1.1
		c0.4,0.5,0.6,0.8,0.7,0.9c0.1,0.2,0.2,0.3,0.2,0.3c-0.1-0.4-0.1-0.6-0.1-0.6c0.2,0.2,0.6,0.6,1,1.4c0.3,0,0.4,0,0.3-0.1
		c0.1,0.1,0.1,0.2,0.2,0.4s0.1,0.3,0.2,0.4c0-0.1,0-0.2,0-0.3c0-0.1-0.1-0.2,0-0.3c0,0,0,0,0.1,0.1c0,0,0.1,0.1,0.1,0.1
		c0-0.2,0.1-0.4,0.1-0.4c0.1,0,0.1,0.1,0.1,0.3c-0.1,0,0.1,0.1,0.3,0.3c0,0.3,0,0.5,0,0.6c0.1-0.1,0.1-0.2,0.1-0.5
		c0-0.2,0-0.4,0.1-0.5c0.1,0.1,0.1,0.2,0.1,0.4c0.1,0,0.1-0.1,0.1-0.3s0.1-0.2,0.1-0.3c0,0.1,0,0.2,0,0.3c0-0.1,0.2-0.3,0.3-0.7
		c0,0-0.1,0-0.3,0.2C18.4,28.2,18.3,28.2,18.2,28.1z M14.4,24.3c0-0.5-0.1-0.8-0.1-1C14.2,23.8,14.3,24.1,14.4,24.3z M15,13
		c0-0.1-0.2-0.1-0.3-0.2c-0.2-0.1-0.3-0.1-0.4-0.1c0,0,0.2,0,0.6-0.1c0,0-0.1,0-0.3-0.1c0.1-0.1,0.2-0.1,0.3-0.1c0,0,0.1,0,0.2,0.1
		c0.1,0,0.1,0,0.2,0.1c0-0.1,0.1-0.1,0.1-0.1c0,0-0.1-0.1-0.2-0.1c-0.1,0-0.1-0.1-0.1-0.1c0.1-0.1,0.3,0,0.6,0.1
		c0.3,0.2,0.5,0.3,0.5,0.4c0,0.1-0.1,0.2-0.2,0.2s-0.2,0-0.3-0.1c0,0,0,0,0,0.1c0,0,0,0.1,0,0.1C15.5,13.1,15.3,13.1,15,13z
		 M14.4,20.1c0.1-0.2,0.1-0.2,0.1-0.2C14.4,20.1,14.4,20.1,14.4,20.1z M14.4,21c0-0.1,0-0.2,0-0.2c0,0,0,0,0,0.1
		C14.4,21,14.4,21,14.4,21z M14.7,18.3c-0.1,0-0.2,0.2-0.2,0.3C14.7,18.5,14.8,18.4,14.7,18.3z M14.7,19.1c-0.1,0-0.1,0-0.1,0.1
		c0,0.1,0,0.1,0,0.2C14.7,19.2,14.7,19.1,14.7,19.1z M15,15.6l-0.1,0.1c-0.1,0-0.2-0.1-0.3-0.2c0-0.1,0.1-0.1,0.2,0
		c0.1,0,0.1,0.1,0.1,0.1S14.9,15.6,15,15.6z M14.8,17c0-0.2,0.1-0.3,0.3-0.5s0.4-0.2,0.6-0.2c0.2,0,0.4,0,0.6,0.2
		c0.2,0.1,0.2,0.3,0.2,0.6c-0.1,0-0.2-0.1-0.4-0.2c-0.2-0.1-0.3-0.2-0.5-0.1c-0.1,0-0.2,0.1-0.4,0.1C15.1,17,14.9,17,14.8,17z
		 M14.9,15.3c0.1-0.1,0.2-0.2,0.3-0.1c0.2,0.1,0.2,0.2,0.1,0.3c-0.1,0-0.2-0.1-0.2-0.1C15,15.4,14.9,15.3,14.9,15.3z M15.1,18.9
		C15,19.2,15,19.3,15,19.4c0.1,0,0.1-0.1,0.1-0.2C15.2,19.1,15.2,19,15.1,18.9z M15.8,18.2c0,0-0.3-0.1-0.8-0.4
		c0,0.4,0.4,0.6,1.1,0.5c0.1-0.1,0.1-0.2,0.1-0.2c-0.1,0-0.1,0-0.2,0C15.9,18.1,15.8,18.2,15.8,18.2z M15.6,15.2c0,0,0,0-0.2-0.1
		c-0.1,0-0.1-0.1-0.1-0.1c0.1,0,0.3,0,0.4,0.1s0.2,0.3,0.2,0.4C16,15.5,15.9,15.4,15.6,15.2z M15.5,12.1c0.1-0.1,0.2-0.2,0.3-0.1
		c0.1,0,0.1,0.1,0.2,0.1c0.1,0.1,0.2,0.1,0.2,0.1c0.3,0.1,0.4,0.2,0.4,0.2c0.2,0.2,0.2,0.4,0.2,0.5c-0.1,0-0.2,0-0.3-0.2
		c-0.1,0-0.2-0.1-0.3-0.2c-0.1-0.1-0.2-0.1-0.3-0.2c0,0,0,0-0.1-0.1c0,0,0-0.1,0-0.1C15.7,12.3,15.6,12.2,15.5,12.1z M19.8,20.9
		c0-0.9-0.2-1.6-0.5-2.1c0,0-0.1-0.1-0.1-0.1s-0.1-0.1-0.1-0.1c-0.1-0.2-0.2-0.5-0.3-0.7c0,0-0.3-0.4-1-1.4c-0.2,0.6-0.5,1-0.7,1.2
		c-0.4,0.3-0.6,0.5-0.6,0.4c0,0.4-0.2,1.1-0.6,2.1c-0.6,1.7-0.6,2.8,0,3.5c0.5,0,1,0,1.5-0.2c0-0.3-0.2-0.5-0.6-0.7
		c-0.4-0.2-0.7-0.4-0.8-0.6c-0.2-0.4-0.3-0.7,0-1.1c0.2-0.4,0.5-0.6,0.9-0.7c0.3,0,0.4,0,0.5,0.1c0,0.1-0.2,0.2-0.4,0.2
		c-0.2,0.1-0.3,0.2-0.3,0.4c1,0,1.7,0,1.9,0.1c0.1-0.1,0.1-0.2,0.1-0.3c0-0.1-0.1-0.1-0.3-0.2c-0.2-0.1-0.2-0.2-0.3-0.2
		c-0.1,0,0.1,0.1,0.5,0c0,0,0,0-0.1-0.1c0-0.1,0-0.1,0.1-0.1c-0.1-0.1-0.1-0.1-0.1-0.2c0.1,0,0.1-0.1,0.1-0.1s0-0.1,0-0.1
		c0.1,0,0.2,0.1,0.2,0.2c0,0.3,0,0.4,0,0.3c0.1,0.1,0.1,0.2,0.2,0.3c0,0,0,0.1,0,0.1s0,0.1,0,0.1c0.1,0.3,0.2,0.5,0.2,0.7
		c0,0.4-0.1,0.7-0.5,1c-0.1,0.1-0.3,0.2-0.5,0.3c-0.2,0.1-0.4,0.2-0.5,0.3c0,0.2,0,0.3,0,0.3c0.2-0.1,0.5,0,0.7,0.1
		c0.3,0.1,0.5,0.2,0.6,0.2c0.3,0,0.5-0.2,0.6-0.6C19.8,21.6,19.8,20.9,19.8,20.9z M16.3,15.4c-0.3-0.2-0.4-0.3-0.5-0.5
		c0.1,0,0.3,0,0.4,0.1C16.3,15.1,16.3,15.3,16.3,15.4C16.3,15.4,16.3,15.4,16.3,15.4z M16.1,20.7c0,0,0-0.1,0-0.2c0-0.1,0-0.2,0-0.2
		c0-0.1,0.1-0.2,0.3-0.1c0-0.1,0,0-0.1,0.3C16.3,20.6,16.3,20.7,16.1,20.7z M16.6,26l-0.2-1c-0.1,0.2-0.1,0.4-0.1,0.6
		c0,0.3,0,0.4,0,0.4S16.4,26,16.6,26z M16.3,19.9c0-0.1,0-0.2,0-0.2s0.1-0.1,0.2,0C16.5,19.8,16.4,19.9,16.3,19.9z M18,26.7
		c0.3-0.1,0.6-0.5,0.7-1.1c0.1-0.6,0.1-1.1-0.1-1.4C18.3,24,18.1,24,17.9,24c-0.2,0.1-0.3,0.4-0.2,0.8c0.1,0.6,0.1,0.9,0.1,0.9
		c-0.2-0.2-0.4-0.7-0.4-1.7c-0.3,0-0.6,0-0.9,0.1c0,0.2,0,0.6,0.2,1.3C16.9,26.5,17.3,26.9,18,26.7z M16.5,16.1
		c0.3,0,0.4,0.2,0.3,0.6C16.6,16.6,16.5,16.4,16.5,16.1z M18.7,26.9c-0.2,0.3-0.6,0.5-1.1,0.4c-0.5,0-0.8-0.2-1-0.5
		c0.1,0.5,0.4,0.7,1,0.7C18.2,27.5,18.6,27.3,18.7,26.9z M16.6,21.8c0.2,0,0.3,0,0.3,0L16.9,22c0,0.1,0,0.1,0.1,0.2
		c0.1,0,0.1-0.2,0.1-0.3c0-0.2,0-0.3-0.1-0.3c-0.2,0.1-0.2,0.2-0.2,0.2S16.7,21.7,16.6,21.8z M16.7,15.9
		C16.7,15.9,16.7,15.9,16.7,15.9c0.1,0,0.2,0.1,0.3,0.2s0.1,0.4,0.1,0.5c-0.1,0-0.2-0.2-0.2-0.3C16.8,16.1,16.7,16,16.7,15.9z
		 M16.9,26.6c0,0.1,0,0.2,0.1,0.2C17,26.7,17,26.7,16.9,26.6z M17,10.4c0-0.2,0-0.2-0.1-0.3C16.9,10.3,17,10.4,17,10.4z M17.3,9.4
		c0,0.3,0,0.5,0,0.6c0,0,0-0.1,0.1-0.1c0,0,0.1,0,0.1-0.1C17.4,9.5,17.3,9.4,17.3,9.4z M17.4,27c0,0,0.1,0,0.1,0.1
		C17.5,27,17.5,27,17.4,27C17.4,26.9,17.4,26.9,17.4,27z M18.1,11.5c0.1,0,0.2,0.1,0.1,0.3c-0.1,0.3-0.1,0.5-0.1,0.5
		c0,0-0.1,0.1-0.1,0.2c0,0-0.1,0-0.1,0.1c0,0.1-0.1,0.1-0.1,0.1c-0.2-0.2-0.3-0.6-0.2-1.1c0.1,0,0.2,0.3,0.3,0.7
		C18.1,11.8,18.2,11.6,18.1,11.5z M17.5,21.9c-0.1,0.4-0.1,0.7,0.1,1C17.7,22.5,17.6,22.1,17.5,21.9z M18,27.1c0-0.1,0-0.2-0.1-0.2
		c-0.1,0-0.1,0.1-0.1,0.2C17.9,27.2,18,27.2,18,27.1z M18.1,22.1c0.1-0.1,0.1-0.2,0.1-0.3c0.1,0,0.2,0,0.2,0c0-0.1-0.1-0.2-0.1-0.2
		c-0.1,0-0.1,0-0.2,0.1C17.9,21.9,17.9,22,18.1,22.1z M18.9,11.8c0,0.2-0.1,0.4-0.2,0.4c0,0-0.1-0.1-0.1-0.2
		c-0.2,0.2-0.3,0.3-0.3,0.3c0-0.2,0.1-0.4,0.3-0.7c0,0,0,0,0,0c0,0,0,0,0.1,0c0,0,0,0.1,0,0.2c0,0,0.1,0,0.2-0.1
		C18.8,11.8,18.9,11.8,18.9,11.8z M18.3,29.2l0.1-0.3c0,0-0.1,0-0.1,0C18.2,29.1,18.2,29.2,18.3,29.2C18.2,29.2,18.2,29.2,18.3,29.2
		z M18.5,26.8c-0.2,0-0.2,0.1-0.2,0.2C18.4,26.9,18.5,26.8,18.5,26.8z M18.5,9.2c-0.1,0.7-0.2,1-0.1,0.9c0.1,0,0.1,0,0.2,0.1
		C18.6,9.8,18.6,9.4,18.5,9.2z M19.1,12.4c0,0-0.1,0.1-0.2,0.2c-0.1,0.1-0.2,0.1-0.2,0.1c-0.1,0-0.1-0.1,0-0.1
		c0.2-0.5,0.4-0.8,0.8-0.7l0,0.2c0.5-0.1,0.7-0.1,0.6-0.1c-0.1,0.2-0.3,0.3-0.7,0.5C19.3,12.4,19.2,12.4,19.1,12.4z M19.4,14.8
		c-0.3,0.4-0.5,0.6-0.7,0.7C18.8,15.1,19,14.9,19.4,14.8z M19.1,16.2c0,0.2,0,0.2,0,0.3c0,0.1-0.1,0.2-0.3,0.2
		c-0.1-0.1-0.1-0.2,0-0.3C18.9,16.2,19,16.1,19.1,16.2z M18.7,18.8c0.1,0,0.2,0,0.2,0.1s0.1,0.2,0.1,0.3
		C18.9,19.1,18.8,19,18.7,18.8z M18.7,19.3c0.1-0.1,0.1,0,0.2,0c0.1,0.1,0.1,0.1,0,0.2C18.8,19.5,18.8,19.4,18.7,19.3z M18.9,26
		c0.2,0,0.3-0.1,0.3-0.4c0-0.2,0-0.4-0.1-0.6C18.9,25.5,18.9,25.8,18.9,26z M19.7,15.1l-0.3,0.1c0,0-0.1,0.1-0.2,0.2
		c-0.1,0.1-0.2,0.1-0.2,0.1c0-0.2,0.1-0.3,0.2-0.4c0.2-0.1,0.3-0.2,0.3-0.2S19.6,15,19.7,15.1z M19,9.5c0,0,0,0.3,0,0.6
		c0.1,0,0.1-0.1,0.1-0.3S19.1,9.6,19,9.5z M19.1,28c0-0.2,0-0.2,0-0.2C19.1,28,19.1,28,19.1,28z M19.2,24.8c0-0.2-0.1-0.3-0.1-0.3
		c0,0,0,0.1,0,0.2C19.2,24.7,19.2,24.8,19.2,24.8z M19.2,26.3c0,0,0.1,0,0.1,0s0.1,0,0.1,0c0-0.1,0.1-0.3,0.2-0.5
		c0.1-0.2,0.1-0.4,0.1-0.6c-0.1,0.1-0.2,0.2-0.2,0.5c-0.1,0.3-0.1,0.4-0.2,0.5c0,0,0,0,0-0.1c0,0,0-0.1,0-0.1c0,0,0,0.1,0,0.1
		C19.2,26.2,19.2,26.3,19.2,26.3z M19.7,26c-0.1,0.1-0.1,0.4-0.2,0.7c-0.1,0.3-0.1,0.6-0.2,0.7c0.1,0,0.1-0.2,0.2-0.4
		C19.7,26.5,19.7,26.2,19.7,26C19.8,26.1,19.7,26,19.7,26z M19.4,28.2c0.2-0.3,0.3-0.5,0.3-0.8c0.3-0.7,0.4-1.3,0.5-1.8
		c0.2-0.1,0.3-0.4,0.4-0.9h-0.1c-0.2,0.3-0.4,1-0.8,2.3C19.5,27.9,19.4,28.2,19.4,28.2z M20.2,15.4c0,0,0,0.1-0.1,0.1
		c0,0-0.1,0-0.3,0.1c-0.1,0-0.2,0-0.3,0c0-0.1,0.1-0.2,0.3-0.2C20,15.3,20.1,15.3,20.2,15.4z M19.6,10c0.1,0.1,0.1,0.2,0,0.2
		C19.6,10.1,19.6,10,19.6,10z M19.6,18c0.1,0.1,0.2,0.1,0.2,0c0,0,0,0-0.1-0.1c0,0-0.1,0-0.1-0.1C19.6,17.9,19.6,18,19.6,18z
		 M20.7,17.7c-0.3,0.5-0.6,0.7-1,0.7c0,0.1,0.2,0.2,0.4,0.2c0-0.1,0.1-0.1,0.3-0.1c0-0.1,0.1-0.2,0.2-0.2c0.1-0.2,0.2-0.3,0.3-0.2
		c0-0.1,0-0.2,0.1-0.2C20.9,17.7,20.8,17.7,20.7,17.7z M20.3,12.3c0,0,0.1,0,0.2,0s0.2,0,0.2,0c-0.1,0.2-0.3,0.2-0.6,0.3
		c0,0,0-0.1,0-0.2c0,0-0.1,0-0.2,0c-0.1,0-0.1,0-0.2,0c-0.1-0.1,0-0.2,0.1-0.3c0.1,0,0.2,0,0.5,0C20.4,12.1,20.4,12.2,20.3,12.3z
		 M19.9,27.7c0.2-0.2,0.3-0.5,0.2-0.7C20,27.2,19.9,27.4,19.9,27.7z M20.1,9.8c-0.1,0.2-0.2,0.4-0.2,0.5c0,0,0,0,0.1,0
		c0.1,0,0.1,0,0.1,0C20.2,10,20.2,9.8,20.1,9.8z M19.9,15.7c0.1-0.1,0.2-0.1,0.3-0.1c0.2,0,0.3,0.1,0.3,0.2
		C20.3,15.9,20.1,15.9,19.9,15.7z M20.1,17.6c-0.1,0-0.1,0-0.1,0.1c0,0.1,0,0.1,0.1,0.1c0,0,0.1,0,0.1-0.1S20.1,17.6,20.1,17.6z
		 M20.1,26.7c0.1-0.2,0.3-0.6,0.5-1.2l0,0c0,0,0,0,0,0c-0.2,0.4-0.3,0.6-0.3,0.6c0,0.1,0,0.2-0.1,0.3C20.1,26.6,20.1,26.7,20.1,26.7
		C20.1,26.7,20.1,26.7,20.1,26.7z M20.5,27.3l0.3-0.7c0-0.1,0.1-0.3,0.1-0.5c0-0.3,0-0.5,0-0.6c0,0,0,0-0.1,0
		c-0.1,0.2-0.2,0.4-0.3,0.6c-0.1,0.4-0.2,0.6-0.3,0.7c0.1,0,0.1,0.1,0.2,0.2C20.5,27.2,20.5,27.3,20.5,27.3
		C20.5,27.3,20.5,27.3,20.5,27.3z M20.5,10c-0.1,0.2-0.1,0.4-0.1,0.4c0,0,0,0,0.1,0c0,0,0,0,0.1,0C20.5,10.1,20.5,10,20.5,10z
		 M20.4,17.8c0,0,0.1,0,0.1-0.1c0-0.1,0-0.1,0-0.1C20.5,17.8,20.4,17.8,20.4,17.8z M20.5,24.3c0,0.1,0,0.2,0,0.2
		C20.5,24.4,20.5,24.4,20.5,24.3C20.5,24.3,20.5,24.3,20.5,24.3z M20.6,21.6c-0.1,0-0.1-0.1,0-0.1V21.6z M21.2,16c0,0,0,0.1,0,0.3
		c-0.1,0.1-0.1,0-0.2,0c0,0,0,0,0-0.1s0,0,0,0c0,0-0.1-0.1-0.1-0.1c-0.1,0-0.2-0.1-0.2-0.1c0-0.1,0.1-0.1,0.2-0.1S21.1,15.9,21.2,16
		z M20.7,12.7c-0.1-0.1,0-0.2,0.2-0.3c0.2-0.1,0.3-0.1,0.5-0.1c0.1,0,0.2,0,0.2,0.1c0,0.1-0.1,0.1-0.3,0.1c-0.2,0-0.3,0.1-0.3,0.1
		C20.8,12.7,20.7,12.7,20.7,12.7z M20.9,24.9c-0.1,0.3-0.1,0.5-0.1,0.5C20.8,25.1,20.9,25,20.9,24.9z M21.2,10.1
		c0,0.1-0.1,0.2-0.2,0.3s-0.2,0.2-0.2,0.3C21.1,10.6,21.2,10.4,21.2,10.1z M20.8,23.3c0.1-0.1,0.2-0.2,0.1-0.3
		C20.8,23,20.8,23.1,20.8,23.3z M20.9,23.7c-0.1,0.5-0.1,0.8-0.1,0.9C20.9,24.2,21,23.9,20.9,23.7z M21.2,25.9c0-0.3,0-0.4,0-0.4
		c0,0-0.1,0-0.1,0.1c0,0.1,0,0.4-0.1,0.8c-0.1,0.3-0.1,0.5,0,0.7C21.1,26.9,21.2,26.5,21.2,25.9z M21,22.7c0.2-0.7,0.2-1.3,0-1.7
		C21,21.9,21,22.5,21,22.7z M21.6,12.5c0.2-0.1,0.4,0,0.3,0.1c-0.2,0.1-0.4,0.2-0.7,0.3C21.1,12.6,21.2,12.5,21.6,12.5z M21.2,23.4
		c0.1-0.4,0.2-0.6,0.3-0.7l0.1,0c0,0,0,0,0-0.1c0,0,0-0.1-0.1,0s-0.1,0-0.1,0v-0.7c0,0.2,0,0.4-0.1,0.8c-0.1,0.3-0.1,0.5-0.1,0.5
		S21.1,23.2,21.2,23.4z M21.1,25.2c0.1-0.5,0.2-0.7,0.2-0.7C21.2,25,21.1,25.2,21.1,25.2z M21.2,20c0,0,0,0.3,0,0.7
		C21.4,20.6,21.4,20.4,21.2,20z M21.4,20.8c0,0.4,0,0.6,0.1,0.7C21.6,21.2,21.6,21,21.4,20.8z M21.4,25.3c0,0.3-0.1,0.5,0,0.8
		c0.1-0.1,0.2-0.4,0.2-0.9c0,0-0.1,0-0.1,0C21.5,25.3,21.5,25.3,21.4,25.3z M21.7,26C21.7,26,21.8,26,21.7,26c0.1,0,0.2,0,0.2,0
		c0.1-0.4,0.1-0.8,0.1-1c0,0,0,0-0.1,0s-0.1,0-0.1,0c-0.1-0.2-0.1-0.2,0-0.2c0,0,0,0,0,0s0,0-0.1,0C21.9,25,21.8,25.4,21.7,26
		c-0.2,0.5-0.3,0.9-0.3,1C21.6,26.7,21.7,26.4,21.7,26z M21.7,23.2C21.7,23.2,21.6,23.2,21.7,23.2c0,0.1,0,0.1,0,0.2
		c0,0,0.1,0,0.1-0.1C21.7,23.2,21.7,23.2,21.7,23.2z M22.3,12.9c-0.1,0-0.2,0-0.3,0c-0.1,0-0.2,0-0.3,0c0-0.1,0.1-0.2,0.3-0.2
		c0.1,0,0.3,0,0.4,0C22.3,12.7,22.3,12.8,22.3,12.9z M21.9,24c0,0,0,0.1,0,0.1c0,0,0,0.1,0,0.1c0,0,0.1,0,0.1-0.1
		C21.9,24.1,21.9,24.1,21.9,24z M22,26.2c0.1-0.3,0.1-0.5,0.1-0.6C22,26,22,26.2,22,26.2z M22.2,23.6c-0.1,0.1-0.1,0.2-0.1,0.3
		C22.2,23.7,22.2,23.6,22.2,23.6z M22.4,25.8c0.1-0.2,0.1-0.4,0.1-0.8s0-0.6,0.1-0.7c0.1,0,0-0.2-0.2-0.5c0,0,0,0.1,0,0.3
		c0,0.1,0,0.2-0.1,0.3c-0.1,0.1-0.1,0.2-0.1,0.3c0,0.1,0,0.2,0,0.3c0,0.2,0,0.3,0,0.4c0.2,0,0.2,0,0.2-0.1c0,0,0,0.1,0.1,0.2
		C22.4,25.7,22.4,25.8,22.4,25.8z M22.1,13c0,0,0.1-0.1,0.1-0.1c0.1,0,0.1,0,0.1,0.1c0,0.1-0.1,0.1-0.1,0.1
		C22.2,13.1,22.1,13.1,22.1,13z M22.5,10.9c-0.1,0.2-0.1,0.3-0.1,0.2c0,0,0.1,0,0.1-0.1C22.5,11,22.5,10.9,22.5,10.9z M22.7,16.6
		c-0.1-0.2,0-0.3,0.2-0.2s0.2,0.2,0.1,0.3c0,0-0.1,0-0.1,0c0,0-0.1,0-0.1,0c0,0,0,0.1,0.1,0.1c0,0,0,0.1,0,0.1
		C22.9,17,22.8,17,22.8,17c0,0.1,0,0.2,0,0.2c0,0-0.1-0.1-0.3-0.3c0,0,0,0,0.1,0c0,0,0,0,0.1,0c0,0,0-0.1,0-0.1
		C22.6,16.6,22.6,16.6,22.7,16.6z M23.1,14.4c-0.1,0-0.1,0-0.2,0s-0.1-0.1-0.1-0.2c0.1,0,0.1,0,0.2,0C23,14.3,23.1,14.3,23.1,14.4z
		 M23.2,20.1c0-0.1-0.1-0.3-0.2-0.5c-0.1-0.2-0.2-0.3-0.2-0.4C22.8,19.6,23,19.9,23.2,20.1z M23.8,13.8c0.1,0-0.1-0.1-0.5-0.3
		c-0.1,0-0.1-0.1-0.3-0.1c-0.1,0-0.2-0.1-0.3-0.1v-0.1C23.4,13.2,23.7,13.3,23.8,13.8z M22.8,16.1c0.1,0,0.2,0,0.2,0.1
		s0.1,0.1,0,0.2c-0.1,0-0.2,0-0.2-0.1C22.8,16.2,22.8,16.1,22.8,16.1z M23.2,14.8c0,0.1,0,0.1,0,0.2c0,0.1,0.1,0.2,0,0.2l-0.3-0.3
		c0,0,0-0.1,0-0.1c0,0,0,0,0,0c-0.1-0.2-0.2-0.3-0.1-0.2c0.2-0.1,0.2-0.1,0.2-0.1S23.1,14.6,23.2,14.8z M22.9,15.2
		c0.1,0,0.2,0,0.3,0.1c0.1,0.1,0.1,0.2,0,0.2C23,15.5,22.9,15.4,22.9,15.2z M23,18.8c0.2,0.5,0.3,0.7,0.2,0.7c0,0,0-0.1,0-0.2
		s0-0.2,0-0.2C23.1,18.9,23.1,18.8,23,18.8z M23,15.7c0.1,0,0.2,0.1,0.2,0.2c0,0-0.1,0.1-0.2,0C23,15.9,23,15.8,23,15.7z M23.2,13.8
		C23.2,13.8,23.2,13.7,23.2,13.8c0.2-0.1,0.4,0,0.6,0.1c0.2,0.2,0.3,0.3,0.3,0.5l-0.3-0.3c0,0,0.1,0,0.1,0S23.6,14.1,23.2,13.8z
		 M23.7,16.6c0,0.1,0,0.1-0.1,0.2c0.1,0.1,0.1,0.1,0.1,0.2c-0.2,0.1-0.3,0-0.3-0.1c0-0.1,0-0.1,0.1-0.1c0-0.1,0-0.2,0-0.2
		C23.5,16.6,23.5,16.6,23.7,16.6z M23.3,17.2c0.1,0,0.2,0,0.2,0c0.1,0.1,0.1,0.1,0.1,0.2C23.5,17.4,23.4,17.3,23.3,17.2L23.3,17.2z
		 M23.5,15.9c-0.1,0-0.1,0-0.1-0.1c0-0.1,0-0.1,0-0.2c0.1,0,0.1,0,0.1,0.1S23.5,15.8,23.5,15.9z M23.6,24.7c0.1-0.6,0.2-0.9,0.2-1
		c-0.1,0.4-0.2,0.6-0.2,0.7c0,0,0,0.1,0,0.2C23.5,24.7,23.5,24.7,23.6,24.7z M23.5,14.4c0.4,0.2,0.6,0.4,0.6,0.6
		c-0.1,0-0.2-0.1-0.2-0.2C23.6,14.6,23.5,14.4,23.5,14.4z M23.9,15.7c-0.1-0.1-0.2-0.3-0.3-0.6c0,0,0.1,0,0.1,0s0.1,0,0.1,0
		c0-0.1,0-0.1-0.1-0.2c-0.1-0.1-0.1-0.1-0.1-0.2c0.1,0,0.3,0,0.3,0.1c0.1,0.1,0.2,0.3,0.2,0.5c0,0-0.1,0-0.1,0c0,0,0,0.1,0,0.2
		C24,15.7,24,15.7,23.9,15.7z M23.6,18.2c0.1-0.2,0.2-0.2,0.4-0.1c0.2,0.2,0.2,0.3,0.1,0.5C24,18.6,23.8,18.4,23.6,18.2z M23.9,21.5
		c0.1,0.1,0.1,0.2,0.1,0.4c0,0.2,0,0.3-0.1,0.4C23.8,22.2,23.8,21.9,23.9,21.5L23.9,21.5z M23.8,17.7c0.1-0.1,0.2-0.1,0.3-0.1
		c0.1,0.1,0.2,0.2,0.2,0.3l0,0.1c0,0,0,0,0,0c-0.1,0-0.2,0-0.2,0S23.9,17.8,23.8,17.7z M24.3,17.3c0,0.1-0.1,0.2-0.3,0.1
		c-0.1,0-0.2-0.1-0.2-0.2c0-0.1,0.1-0.1,0.3-0.1C24.2,17.1,24.3,17.2,24.3,17.3z M24,16.9c-0.2-0.1-0.2-0.1,0-0.2
		c0.2-0.1,0.3,0,0.3,0.1C24.3,16.9,24.2,17,24,16.9z M23.9,16.4c0-0.1,0-0.1,0.1-0.1c0.1,0,0.2,0,0.2-0.1c0-0.1,0-0.2,0.1-0.2
		c0.1,0,0.2,0,0.2,0.1c-0.1,0.2-0.2,0.2-0.2,0.2C24.2,16.4,24.1,16.4,23.9,16.4C24,16.4,24,16.4,23.9,16.4z M24.1,21.3
		c0.1,0,0.2,0.1,0.2,0.3c0,0.2,0,0.3-0.1,0.4C24.3,22.1,24.3,21.9,24.1,21.3L24.1,21.3z M24.4,21c0.1,0.1,0.2,0.3,0.2,0.5
		c0,0.3,0,0.4-0.2,0.5c0-0.1,0-0.3-0.1-0.5C24.4,21.2,24.3,21.1,24.4,21L24.4,21z M27.1,13.5c0,0,0,0,0.1,0c0.1,0,0.1,0,0.1,0
		c0,0.1-0.1,0.2-0.2,0.3S27,14,27,14.1c-0.2,0-0.3,0-0.5,0.1c0.3,1.2,0.4,2.1,0.3,2.7c-0.6-1.8-0.8-2.7-0.8-2.6
		c-0.3-0.5-0.7-0.9-1.2-1.4c-0.2-0.2-0.3-0.3-0.3-0.3c-0.1-0.1,0-0.2,0.1-0.3c0.2-0.5,0.4-0.9,0.5-1.1c0.3-0.3,0.6-0.5,1-0.5
		c0,0.1,0,0.2-0.1,0.3c0,0.1,0.1,0.1,0.1,0.2c0,0,0.1,0,0.3-0.1c0.1,0,0.2,0,0.2,0c0,0.1,0,0.2-0.1,0.3c-0.1,0.1-0.2,0.2-0.2,0.2
		c0.1,0,0.2,0,0.4-0.1c0.2-0.1,0.3-0.1,0.4,0c0,0.2-0.2,0.4-0.6,0.7c0.3-0.1,0.5-0.1,0.6,0c0,0-0.1,0.1-0.2,0.3c0,0,0,0.1,0.1,0.1
		c0,0,0,0.1,0.1,0.1c0,0,0,0.1-0.1,0.1c0,0-0.1,0.1-0.1,0.1c0,0,0,0,0.1,0.1c0,0,0.1,0,0.1,0c0,0,0,0.1,0,0.1
		C27.2,13.4,27.1,13.4,27.1,13.5z M24.5,24.7c0.1-0.2,0.2-0.4,0.1-0.6c0,0.1,0,0.2-0.1,0.3C24.5,24.6,24.5,24.7,24.5,24.7z
		 M24.6,15.6l-0.2-0.1c0-0.1,0-0.1,0.1-0.1c0.1,0,0.1,0,0.1,0.1c0,0,0,0,0,0S24.7,15.5,24.6,15.6z M24.7,20.7
		c0.1,0.1,0.1,0.2,0.2,0.3c0,0.2,0,0.3,0,0.4C24.7,21.4,24.7,21.1,24.7,20.7L24.7,20.7z M24.9,20.3c0.1,0.1,0.2,0.2,0.2,0.5
		s0,0.4-0.1,0.5C24.9,21.1,24.9,20.7,24.9,20.3z M25.2,19.7c0.3,0.3,0.3,0.6,0.2,1.1c-0.1-0.1-0.2-0.2-0.2-0.5s0-0.4-0.1-0.5
		c0,0,0,0,0,0C25.1,19.7,25.1,19.7,25.2,19.7L25.2,19.7z M25.7,21.3c0,0,0-0.1,0-0.3c0-0.1,0.1-0.2,0.2-0.2c0,0.6,0,0.9-0.1,1
		c-0.1-0.1-0.1-0.2-0.1-0.3c0,0-0.1,0.1-0.1,0.3c0,0.1,0,0.2-0.1,0.2c-0.1,0-0.1-0.1-0.1-0.2c-0.2,0.3-0.3,0.4-0.2,0.4
		c-0.1-0.2,0-0.5,0.1-0.8c0.1,0,0.1,0,0.1,0c0,0,0,0,0-0.1c0,0,0-0.1,0-0.1C25.6,21.3,25.7,21.3,25.7,21.3z M25.2,19.1
		c0.1,0,0.2,0.1,0.3,0.4c0-0.2,0-0.4-0.1-0.7c-0.1-0.3-0.2-0.5-0.2-0.6c0.1,0,0.2,0.1,0.3,0.3c0.1,0.3,0.2,0.5,0.2,0.4
		c0-0.2,0-0.4-0.1-0.6c-0.1-0.3-0.1-0.5-0.1-0.6c0.3,0.2,0.5,0.7,0.6,1.4c0,0-0.1,0-0.2-0.1c0,0.1,0,0.2,0,0.5c0,0.2,0,0.4,0,0.5
		c-0.1,0-0.1,0.1-0.2,0.2c-0.1,0.1-0.1,0.2-0.1,0.2c0,0-0.1-0.3-0.2-0.7C25.3,19.3,25.2,19.1,25.2,19.1z M25.9,17
		c0.1,0.1,0.2,0.4,0.4,1.1c0,0-0.1,0.1-0.1,0.1l0.1,0.6c0,0-0.1-0.1-0.1-0.3c0-0.1-0.1-0.3-0.2-0.6c-0.1-0.2-0.2-0.4-0.2-0.6
		c0.1,0,0.2,0.2,0.4,0.5c0-0.1,0-0.3-0.1-0.5C25.9,17.3,25.9,17.1,25.9,17L25.9,17z M26,16.7c0,0-0.1-0.1-0.1-0.2
		c0-0.1-0.1-0.1-0.1-0.2c0.2,0,0.3,0.1,0.4,0.2c0.1,0.2,0.1,0.3,0.1,0.5C26.2,17,26.2,16.9,26,16.7z M26.1,16.2
		c-0.1,0-0.2-0.1-0.3-0.2c-0.1-0.1,0-0.2,0.1-0.3c-0.1-0.2-0.1-0.2-0.1-0.2c0-0.1,0.1-0.1,0.1-0.1c0.1,0,0.1,0.1,0.1,0.1
		c0,0.1,0,0.1-0.1,0.1c0,0,0.1,0.1,0.1,0.2C26.1,16,26.2,16.1,26.1,16.2C26.2,16.2,26.1,16.2,26.1,16.2z M26.1,20.1
		c0.1,0.1,0.2,0.3,0.2,0.6c0,0.3-0.1,0.5-0.2,0.6c0-0.1,0-0.2-0.1-0.4c0-0.2,0-0.3-0.1-0.4C26,20.4,26.1,20.3,26.1,20.1L26.1,20.1z"
		/>
</g>
</svg>
