<?xml version="1.0" encoding="utf-8"?>
<!-- Generator: Adobe Illustrator 21.1.0, SVG Export Plug-In . SVG Version: 6.00 Build 0)  -->
<svg version="1.1" id="Layer_1" xmlns="http://www.w3.org/2000/svg" xmlns:xlink="http://www.w3.org/1999/xlink" x="0px" y="0px"
	 viewBox="0 0 825 825" style="enable-background:new 0 0 825 825;" xml:space="preserve">
<style type="text/css">
	.st0{fill:#FFFFFF;}
	.st1{fill:#060606;}
</style>
<path d="M445.5,108.2c5.1-6.8,14.6-6.4,22.2-5.7c0.5,1.1,1,2.2,1.5,3.4c-1.4,0.6-2.9,1.2-4.3,1.8c5.6,3.3,11.6,5.9,16.4,10.4
	c0.2,2.7-2.8,3.3-4.5,4.6c3.1,5.4,5.4,11.1,7.3,17c-4.4,0.6-5.5-3.9-7.1-7c-2.8-4.2-6.9-7.4-10.8-10.6c1-1.3,1.9-2.6,2.9-3.9
	c-3.5-2.9-7.8-5.9-12.6-4.7c-1.5-2.2-1-4.5,0.7-6.4C453.5,108.3,449.5,109.1,445.5,108.2z"/>
<path d="M405.8,109.8c4.4,0.9,8.3-1.6,12.2-3c13.4-2.2,27,2.4,38,10c9,6.3,15.1,16.4,16.9,27.3c0.8,5.6,1.5,11.4,0.8,17
	c0,14.8,4.2,29.2,3.4,44.1c-1.5-0.9-3-1.7-4.6-2.5c-2.2,7.4-3.4,15.1-6.1,22.4c-1.3,3.4-2.6,7.1-5.5,9.5c-0.7-3.6-0.4-7.3-0.8-10.9
	c-5,6.4-9.5,13.6-16.5,18c5.8-10.4,11.9-20.8,15.6-32.2c1.6,0.7,3.1,1.6,4.6,2.5c1.1-9.7,1.6-19.5,0.6-29.2c1.9,0,3.1,1.6,4.5,2.5
	c2.4-16.9,1-34.9-7-50.2c-4.6-9.2-12-17.4-21.6-21.3c-5.1-2.2-10.7-3-16.2-3.2c-4.2-0.1-8.1,1.9-12.1,2.8c-11,1.2-22.4-3.8-33.1,0.2
	c6.2,0.9,13.3-0.8,18.7,3.4c-3.4,1.9-7.4,1.2-11.2,1.4c0.9,1.2,1.7,2.4,2.6,3.5c-4.5,0.2-9,0.9-13.4,1.7c0,1.2,0,2.5,0,3.7
	c-2.3,0.8-4.8,1.8-6,4.1c-2.5,4.8-3.2,10.4-6.8,14.6c0.2-6,2.9-11.4,5-16.9c-1.7,0.1-3.5,0.2-5.2,0.3c3-5.7,8.9-8.7,14.7-10.8
	c-1.7-0.4-3.1-1.2-3.1-3.1c-11.6,3.9-21.7,12-27.4,22.9c-5.7,10.4-6.9,22.7-5.4,34.3c-3.7-3.1-5.9-7.9-5.5-12.8
	c0.4-8.4,3.4-16.3,5.9-24.2c2.7-4.9,7.8-8.3,9.5-13.8c-3,0.6-5.8,1.8-8.4,3.2c0.6,1.2,1.3,2.5,2,3.7c-4.8,3.5-4.6,10.3-8.6,14.4
	c-3.4-4-2.6-10.3,0-14.4c-2,0.3-4,0.7-6,0.4c2.8-4.3,7-7.3,11.1-10.3c-1.1-1-2.1-2.1-3-3.3c4.2-1.6,8.8-3.3,13.4-2.1
	c1.9,0.9,3.2,2.8,4.8,4.1c5-2.2,10-4.3,14.8-6.8c3.4-1.6,6.8-3.7,10.8-3.4C390,107.2,397.9,108.8,405.8,109.8z"/>
<path class="st0" d="M351.5,121c-0.1-1.4,1.8-2.2,3-1.7c0.4,1,0,1.8-1.1,2.3C352.9,121.4,352,121.1,351.5,121z"/>
<path d="M436,128.9c1.5-1.3,2.8-3.5,5-3.5c4.9-0.5,9.3,5.8,6.3,10c-1.2,1.8-3.7,2.1-5.6,2.8c11.1,18.4,20.1,40,16.7,61.9
	c-0.8-1.3-1.5-2.6-2.2-3.9c-2.5,4.9-5,9.9-7.2,15c-0.3-1.7-0.5-3.4-0.7-5.1c-4,4.5-5.7,11-11.2,14.1c-0.1-2.2-0.2-4.3-0.3-6.5
	c-5.4,4-2.6,13.1-9.1,16c0.7-12.2,5.7-23.9,12.3-34.1c1.3,0.8,2.6,1.5,3.9,2.3c-0.3-5,0.8-9.9,0.8-14.9c1.4,0.6,2.8,1.2,4.2,1.8
	c0.7-7.9,2.1-16,0.8-23.9c-2.6-8.4-7.8-15.7-12.6-22.9C435.1,135.4,436.3,131.9,436,128.9z"/>
<path d="M381.2,130.5c3.4-4.3,9.5-4.3,14.5-3.4c2.2,0.4,3.9,1.8,5.4,3.3c-0.9,5.4-4,11.2-10.1,11.8c-0.2-4.6-5.2-6.9-5.3-11.6
	C384.2,130.6,382.7,130.6,381.2,130.5z"/>
<path d="M411.5,128.4c6.8-1.5,14.7-2,20.5,2.4c2.5,1.5,2.2,4.8,2.1,7.2c-0.7,4.6-3.8,9-8.3,10.7c-2.5,1-5-0.3-7.4-1
	c2.8-1.6,6.4-3,7.1-6.6c0-5.1-5.8-8.3-10.4-7.3c-2.2,0.6-5,0.5-6.7,2.3c-0.5,2.5-0.8,5-1.3,7.5c-2.3-2.4-5.7-4.8-5.3-8.6
	C403,130.8,407.8,129.4,411.5,128.4z"/>
<path class="st1" d="M415.8,150.3c3.6,1.6,5.1,5.7,4.2,9.4C416.1,158.4,415.8,153.8,415.8,150.3z"/>
<path d="M331.6,152c1.5,2.3,2.6,5.1,1.8,7.9c-1.6,6.2-6.8,10.4-10.5,15.3c0.7,1.1,1.4,2.2,2.1,3.3c-3,5.5-6.1,10.9-8.9,16.4
	c1.3-0.6,2.6-1.3,4-1.9c-0.9,9.5-2.5,19-3.6,28.5c1.5-0.7,2.9-1.4,4.4-2.1c0,14,6.9,26.8,15.6,37.4c0.5-0.7,1.5-2,2-2.6
	c6.3,3.5,11.4,8.7,16.8,13.4c0.8-1.7,1.7-3.3,2.6-4.9c10,2.6,20,5.7,29,10.8c1.9-0.7,3.8-2.7,5.8-1.4c4.2,1.7,8.4,3.5,12.4,5.7
	c8.5,5.4,16.3,13.5,17.7,24c-7.5-5.4-14.2-11.8-22.4-16.2c0.2,2.7,0.7,5.3,0.7,8c-8.4-8.5-17.8-16.9-29.9-19.2
	c1.2,2.6,2.4,5.2,3.1,8c-7-0.3-13.2-3.8-19.1-7.1c-0.4,1-0.7,1.9-1.1,2.9c-12.6-4.4-24.7-12.1-31.4-23.9c-2.4-3.9-3.9-8.2-5.3-12.5
	c0,1.6,0,3.1,0,4.7c-2,1.4-2.4-1.6-3.2-2.7c-3.5-8.6-4.4-17.9-5.7-27.1c-1,0.2-2.9,0.7-3.9,1c-0.9-7.8,0.3-15.7,2.7-23.1
	c0.9-1.8-1.7-2.7-2.5-3.9c1-3.8,2.5-7.6,4.9-10.8c5-7.3,13.1-11.8,17.9-19.2C329.5,158,330.6,155,331.6,152z"/>
<path d="M474.7,158.2c10.6,6.8,17.5,17.9,22.1,29.4c-1.9-1.1-3.9-1.9-5.9-2.7c3.2,9.8,7.5,19.2,9.8,29.3c-1.2,0.4-2.4,0.8-3.6,1.1
	c1.5,3.6,3.7,6.9,3.9,10.9c0.6,7.5,2.3,15.1,1.4,22.7c-0.3,2.8-1.9,5.1-3.6,7.2c-0.5-1.5-1-2.9-1.4-4.4c-1.5,10-2,20.2-4.2,30.2
	c1.7,0.1,3.4,0.3,5.1,0.4c-0.1,6.1,2.1,12,5.9,16.7c4.4,5.4,9,10.7,13.3,16.1c-0.3,0.2-1,0.6-1.3,0.8c-1.9-0.2-3.7-0.3-5.6-0.1
	c7.9,11.9,16.9,23.1,24,35.5c-1.7,0.1-3.4,0.1-5,0.2c10.5,16.3,20.1,34,22,53.6c0,8-0.5,16.1,0.6,24.1c0.8,4.1-0.5,8.9-4.6,10.8
	c-0.9-4.2-1.9-8.5-4.1-12.3c-5.3,10.2-10.1,20.9-17.9,29.5c0.3-2.4,0.3-4.9,0.3-7.3c-4.8,3.1-8.9,7.9-14.9,8.8
	c6.4-10.9,15.1-20.4,20.3-32.1c1,2.1,1.8,4.4,2.6,6.6c4.4-9,4.4-19.1,4.5-28.9c2.8,0.3,3.8,3,5.4,5c-6-25.4-17.9-50.2-37.5-68
	c1.6-0.8,3.2-1.6,4.8-2.5c-5.7-10.8-11-21.8-17.6-32.1c1.2-0.3,2.5-0.5,3.7-0.8c-2.1-7.2-4.6-14.6-4.1-22.2c-4.2-2-6.6-6.1-8.8-10
	c-2.2,6.8-4.6,13.5-6.5,20.3c-1.8-2.3-3.2-4.8-4.8-7.1c-8.7,6.4-14.2,16.4-16.1,27c-3.2-1.7-3.5-5.7-3.7-8.9
	c-0.5-6.5,2.1-12.8,4.9-18.5c2.6-4.9,5.7-9.8,10.1-13.2c2.1,1.4,4,3.1,5.9,4.8c3.2-5.9,3.4-12.7,6.2-18.7c3.7,0.8,5.8,4,8.6,6.2
	c-0.9-10.7-0.8-21.5-0.9-32.3c3,0.3,4.9,2.6,6.9,4.6c-0.4-13-8.6-24-10.4-36.8c1.2,2.2,4,1.4,6,1.9c-2.4-10.3-6.9-20-12.1-29.2
	c-1.4-1.8,0.7-3,2.2-3.5C478.3,166.4,474.4,163,474.7,158.2z"/>
<path d="M406,166c5.8-3.8,13-6.3,19.8-4.1c5.9,1.6,9.9,6.7,13,11.6c0.9,1.6,3,0.9,4.4,1.4c-1.1,1.2-2.2,2.5-3.4,3.7
	c-1.9-1-3.4-2.5-4.2-4.5c-2.4-5-7.6-8.1-12.9-8.8c-7.6,0.6-14,5.1-20.4,8.8c-5,2.8-11.1,3.5-16.5,1.3C393.2,174,399.8,170.1,406,166
	z"/>
<path d="M413.1,179.5c1-2.1,1.6-6,4.7-5.6c3.7,1.8,5.3,5.9,7.4,9.1c1.9-2.1,3.1-5,6.2-5.4c-1,4.8-5,8.1-6.9,12.5
	c-2.4-1.8-3.8-4.3-5.1-7c-0.9,2-1.7,4.1-2.6,6.1c-3.1-1.1-5.1-3.7-6.6-6.6c-0.1,1.6-0.2,3.2-0.3,4.8c-2.3-0.6-4.8-1.2-6.4-3.1
	c-2.2-2.2-2.4-5.5-3-8.4c2.7,0,5.4-0.2,8-0.8C410,176.7,411.5,178.2,413.1,179.5z"/>
<path d="M363.1,179.5c3.3,2.6,6,5.9,8.9,8.9c1.1-2.6,2.2-5.1,3.8-7.4c3.9,2.3,5.3,6.8,8.4,9.9c0.6-2.1,1.1-4.2,1.8-6.3
	c3.1,0.6,6,2,8,4.4c8.7,9.5,14.1,21.5,17.3,33.8c-6.9-4.3-13.3-9.6-20.8-12.8c1,2.9,2.3,5.7,3.4,8.7c-3.7,0.3-7.5-0.5-10.4-2.9
	c-4.8-3.7-7.9-9-11.9-13.4c-0.5,1.9-1,3.9-1.6,5.8c-1.9-1.1-3.5-2.7-4.4-4.8C362.2,195.9,362.6,187.5,363.1,179.5z"/>
<path d="M341.2,184.1c3.8,0.5,3,5.2,3.2,7.9c1.5-0.1,3-0.2,4.5-0.2c0.2,5.8,0.9,11.5,1.3,17.2c1.4,0.3,2.7,0.7,4.1,1
	c2,4,3.8,8.1,5.6,12.2c0.5-0.2,1.4-0.5,1.9-0.6c7.2,4.8,15.3,7.8,23.3,11.1c6.9,2.9,12.9,8.9,13.7,16.6c-7.3-8-17.8-13.4-28.8-12.3
	c0.5,2,1.2,4,1.7,6c-8.2-3.8-13.7-11.3-19.5-17.9c-0.5,1.2-0.9,2.5-1.5,3.8c-1.4,0.8-2.3-0.8-2.9-1.8c-3.7-6-4-13.3-5.2-20.1
	c-1.3,0.6-2.6,1.3-3.9,2C339.2,200.6,340.4,192.4,341.2,184.1z"/>
<path d="M313.2,267.1c2.7-2.1,6-3,9.4-2.8c-3.6,6.4-8.3,12-13.4,17.2c1.9,0.6,3.9,1.2,5.8,1.8c-10.4,11.4-17.2,25.4-25.8,38.1
	c1.2-0.2,3.5-0.7,4.7-0.9c-3.2,15.8-7.5,31.4-9,47.5c1.7-0.2,3.3-0.4,5-0.6c2.7,25.1,7.7,50.8,21,72.7c4.5,7.7,11.2,13.6,16.9,20.4
	c-9-4.2-16-11.6-22-19.4c-10.5-14.2-18-30.4-24.4-46.8c-1.3,1-2.6,1.9-4,2.8c-6.5-18-5.4-37.9-0.3-56.1c-1.2,0.8-2.5,1.6-3.7,2.4
	c-0.1-18.9,8.9-36.8,21-50.9c-1.7,0.4-3.4,0.4-5.1-0.1C294.8,281.8,304.1,274.2,313.2,267.1z"/>
<path d="M328.6,304.6c12.5-6.6,26.9-9.1,40.9-8.7c-1,1.7-2.1,3.3-3.1,4.9c10.4,1.1,21.1,1,31.2,4.1c-0.4,0.9-0.8,1.9-1.2,2.8
	c6,2.5,12.1,5,18,7.8c4.8,2.2,8.8,6.1,10.3,11.2c-13.4-5.8-27.4-11-42-12.8c-5.4-0.9-10.8-0.1-16.2-0.3c-0.1-0.7-0.3-2-0.4-2.7
	c-7.9,0.6-15.9,1.4-23.2,4.4c-3.9,1.6-7,4.8-10.9,6.3l-1.3-0.5c-0.7-2.9,2-4.8,3.1-7.2c-7.3,4-14.7,8-21.9,12.3
	c-5.1,3.8-9.5,8.4-14.8,11.9C304.1,324.1,314.8,311.9,328.6,304.6z"/>
<path d="M424.2,333.6c0.6-4.3,4.9-6.3,8.8-6.6c5.5-0.3,11.6-0.6,16.5,2.5c0.1,0.3,0.5,0.9,0.6,1.2c-1.8,2.3-4.7,0.4-7,0.4
	C436.7,331.1,430.6,334,424.2,333.6z"/>
<path d="M427.2,340.3c1.8-3.2,4.9-5.8,8.8-5.8c6.6-0.4,15.4-0.2,18.4,6.9c-3.9-0.2-7.5-2.3-11.5-2
	C437.7,339.4,432.5,341.3,427.2,340.3z"/>
<path d="M427.2,342.1c8.1-1.4,19.2,1.4,21.2,10.6c-2.3-1.8-4.8-3.4-7.5-4.4c-3.7-1.3-7.7-1.2-11.4-2.5
	C427.8,345.3,427.5,343.5,427.2,342.1z"/>
<path d="M426,352.7c1.8-1.3,3.6-2.9,6-2.9c6.7,0,13.5,4.8,14.4,11.7c-4.3,0.5-6.1-3.9-8.7-6.3C433.7,355,429.5,354.8,426,352.7z"/>
<path d="M464.8,350.5c0.6,0.1,1.9,0.4,2.5,0.5c1.5,10.2,10.1,16.8,14.7,25.5c-2.3,0.1-4.6,0.4-6.9,0.6c1.1,5,1.9,10,2.7,15
	c0.7,4.1,0.6,8.4,1.9,12.4c-1.8-1.6-3.9-2.8-6-3.8c-1,7.8-1.7,15.6-3.4,23.2c-1.3,5.6-5.6,10.4-11.4,11.5
	c6.4-15.7,10.1-34.1,2.7-50.2c1.9,0.5,3.9,0.9,5.8,1.4c-1.5-6.5-5.1-12.3-6.3-18.9c1.8,0,3.6,0,5.4,0
	C465.1,362.2,463.7,356.3,464.8,350.5z"/>
<path d="M388.9,362.7c9-0.2,18-0.8,27-0.9c4.8,0,9.8-0.7,14.4,1c-6.8,3.2-14,5.3-21,7.9c0.6,1.5,1.2,3,1.8,4.5
	c-10.5,3-21.9,2-32.2-1.3c-4.1-1.3-7.9-3.4-11.2-6c4-1.8,8.2,0.2,12.2,1c3.5,1,7.1,1,10.6,0.2C390,366.9,389.5,364.8,388.9,362.7z"
	/>
<path d="M367.1,385.5c1.6-4.4,0.3-9.2,1.6-13.7c1.1,0.4,2.2,0.7,3.2,1.1c2.8,10.3,0.4,21.2,2.1,31.6c-1.6-0.2-3.2-0.6-4.7-1.2
	c-1.1,8.5-2.7,17-4.6,25.4c-1.2,4.5-2.2,9.2-4.7,13.3c-1.7-3-2.1-6.5-2.4-9.9c-5.8,7.2-11.4,14.8-18.9,20.4
	c0.9-4.7,4.1-8.3,6.9-11.9c5.1-6.2,6.5-14.4,9.1-21.8c1-2.6,1.1-5.3,1.5-8c1.4,0.4,2.8,0.7,4.2,1.1c1.6-5.8,2.1-11.9,1.5-17.8
	c-0.2-3.4,0.1-6.8,0.8-10.1C364.4,383.8,365.9,384.4,367.1,385.5z"/>
<path d="M414.5,446.5c7.7-5.6,17.6-7,26.8-5.6c-12.4,12-29.1,19.2-39.6,33.2c-1.5-0.6-3-1.2-4.5-1.8
	C400,462.2,405.6,452.5,414.5,446.5z"/>
<path d="M312.4,460.1c1,0.3,2.1,0.6,3.1,0.9c-0.8,7.1-4,13.7-5.6,20.7c1.8-0.7,3.6-1.3,5.4-1.6c-0.7,11.4-1.5,22.7-1.3,34.1
	c1.3-0.7,2.7-1.4,4-2.1c2.1,8.8,7,16.5,12,23.9c3.1,4.2,5.9,8.7,9.5,12.6c0.6-2.8-0.4-6.2,2.1-8.2c3.5,2.9,4.9,8,9.4,9.7
	c10.4,5.1,19,13.2,25.4,22.8c9.1,13.5,13.9,29.3,17.1,45.1c0.5,2.4,1.8,4.6,2.6,7c-0.2,1.4-1.7,2.1-2.6,3.1
	c-5.4-15.9-15.5-29.7-25.5-43c-5.3-6.7-10.7-13.4-16.2-19.9c0,3,0,6.1-0.1,9.1c-3.6,0.4-4.4-3.5-6.3-5.6c-9.3-12-21.7-21.2-31.3-33
	c-1.4,0.4-2.7,0.8-4.1,1.1c-3.3-11.7-5.6-23.7-5.4-35.9c-3.8,1.5-3.1,6.5-6.4,8.6c-2.3-10.1,1.6-20.3,5-29.7
	C305.7,473.1,308.5,466.3,312.4,460.1z"/>
<path d="M477.1,478.2c7.2-5.7,13.2-12.8,20.1-18.8c1.3,1,2.1,2.5,2.5,4.1c2.5-1.9,5.4-3.2,8.5-3.7c-2.2,6.1-6.1,11.3-9.6,16.7
	c-3.1,4.5-6,9.3-9.8,13.2c-0.7-3.6-0.1-7.3,0.5-10.8c-10.9,5.8-19.5,15-26.5,25c-0.6-0.3-1.7-1-2.3-1.3c0.9-2.3,1.7-4.6,2.4-7
	c-10.5,10.2-23,19.5-37.7,22.2c-4.5,0.5-9.8,2.5-13.7-0.9c7.1-1.9,14.1-4.2,20.5-8c17.5-9.7,29.8-25.9,45.3-38.2
	C477.4,473.2,477.3,475.7,477.1,478.2z"/>
<path d="M521.4,460.2c1.1,0.3,2.3,0.5,3.4,0.8c7.8,16.5,10.8,35.4,7.5,53.4c-1.5-0.9-2.8-2-4.1-3.1c-1.6,10.6-4.9,20.8-7.9,31
	c0-0.5,0-1.5,0.1-2c-1.6-1-3.2-2.1-4.7-3.1c-4.8,8.8-10.3,17.1-16.1,25.3c-4.5,6.5-8.1,13.6-10.3,21.2c-3.4-1.6-4.3-5.4-4.8-8.7
	c-8.1,13.3-20.3,23.6-28.4,36.9c-3.4,5.3-4,12.1-8.4,16.9c-3.7,0.5-2.5-5.1-2.3-7.3c-0.1-0.7-0.4-2.1-0.5-2.8
	c-2.1,3.6-4.6,6.9-6.6,10.6c-1.6,3.9,0.4,9.6-4.3,11.8c-3.8-11.8,0.9-24,5.4-34.9c2.8-5.7,5.3-12.6,11.7-15.2c1.1,1.9,2.1,3.8,3,5.7
	c2.5-9.7,8.2-18.2,15-25.5c6-6.6,11.9-13.3,17.9-19.8c2.2,1.4,2.3,4,2.3,6.3c9.4-13.1,15.8-27.9,21.6-42.9c2.1,1.1,3.5,3,4.7,5
	c2.9-9.9,2.1-20.3,1.1-30.4c1.7,0.5,3.5,1.1,5.2,1.6C523.1,480.8,519,470.5,521.4,460.2z"/>
<path d="M396.5,481.5c2.5-1.5,5.1-3,7.8-4.1c0.2,2.2,0.4,4.4,0.7,6.6c-6.2,1.7-14.2,4.1-19.2-1.5
	C389.3,482.4,393.2,483.5,396.5,481.5z"/>
<path d="M406.4,487.7c1.1,0.5,2.1,1.1,3.2,1.7c-0.4,8.3-9.3,12.7-16.7,12.8c-3.4-0.1-5.9-2.7-7.6-5.3c4.2,0.9,8.8,1.1,12.8-0.9
	C401.8,494.3,404.2,491,406.4,487.7z"/>
<path d="M398.4,507.3c3.3-3.1,6.3-7.6,11.5-7.2c-0.3,2.7-0.9,5.4-2.5,7.7c1.7,0.3,3.4,0.6,5.2,1c-1.1,4.8-2.8,9.8-6.5,13.2
	c-2.3,2.1-5.5,2.5-8.5,2.4c2.4-5.9,9.8-8.9,9.6-16c-2.3,2.1-4.5,4.6-7.6,5.5c-3.5,0.9-7.2-0.4-9.7-3
	C392.6,509.3,396.2,509.9,398.4,507.3z"/>
<path d="M291.2,602c-3.5-22,3-45.1,16.6-62.7c1,13.1-6.4,25-6.8,38c1.7,0.1,3.4,0.3,5,0.5c-0.1,12-1.1,24-3.2,35.8
	c-3.8,19.6-8.8,39-10.9,59c-2.9-5-3.1-10.9-3-16.5c0.6-17.9,4.7-35.3,7.1-53c0.4-2.5,0.8-5.1,0.5-7.7c-1.5,2.1-2.3,4.5-3.7,6.7
	C292.5,602.1,291.6,602,291.2,602z"/>
<path d="M519.1,545.5c0.4,0.1,1.3,0.2,1.7,0.3c1.6,3.8,4.1,7.2,5.3,11.2c3.5,10.3,2.7,21.4,1.9,32c-1.9-1-3.6-2.3-5.2-3.8
	c-0.4,6.2,5.1,10.3,5.8,16.1c-5.3,0.1-9.9-3.5-11.8-8.3c-3.8-9-4-18.9-4.5-28.5c1.9,0,3.8,0.1,5.8,0.1c1.6-5.5,2.8-11.1,3.5-16.8
	C520.7,547.1,519.9,546.3,519.1,545.5z"/>
<path d="M528.4,607.5c0.6,0.2,1.8,0.4,2.3,0.6c1,5.2,0.4,10.6,0.8,15.9c-0.4,14-0.1,28.1-1,42.1c-1.1-0.6-2.3-1.1-3.4-1.7
	c-1.4,6.5-2.5,13.2-2.3,19.8c1.4,6.6,4,12.9,5.8,19.4c-7-2.4-11.4-9-12.4-16.1c-2.2-14.8,1.5-29.6,2.5-44.3c1.8,0.3,3.7,0.7,5.5,1.2
	C529.7,632.4,529.3,619.8,528.4,607.5z"/>
<path d="M436.6,645.2c1.5,0.4,3.2,0.7,4.4,1.9c4.1,3.3,7.8,6.9,11.3,10.8c1.8-0.9,3.5-1.8,5.3-2.7c1.5,7.7,4.2,15,5.3,22.8
	c2-1.4,3.9-2.9,6.5-3c-0.8,10.4-2.6,20.7-2.1,31.2c0.3,4.8,1.5,10.2,5.6,13.1c2.1,1.7,5,1.6,7.6,2c-2.4,2.6-6.2,5.8-9.7,3
	c-7.5-7-9.5-17.7-11.1-27.4c-0.9,2.3-1.2,4.8-1.3,7.3c-1.9-0.8-4.2-1.6-4.6-3.9c-1.3-5.5-0.6-11.2-1.2-16.8c-2.5,2-4.6,4.6-7.9,5.4
	c-0.1-5-0.9-9.9-0.4-14.9c0.2-3.9-0.5-7.9-2.7-11.2c-0.3,2-0.6,4-1.2,5.9c-4.5-3.4-6.9-8.5-9.8-13.2c-1.7-2.7-2.8-5.8-3.1-8.9
	c2.8,1.2,5.4,2.8,8,4.3C435.8,649,436.2,647.1,436.6,645.2z"/>
<path d="M407.3,655.1c3.7-3,7.4-6,11.2-9c-3.1,11.7-12.2,20.2-16.6,31.2c-2.4-2-2.5-5.1-2.6-7.9c-5.3,6.1-8.3,13.8-10.2,21.6
	c-4.2-2.4-4.8-7.9-8.9-10.5c-0.6,5.3,1.5,10.5,1,15.8c-6.9-0.2-11.9-5.3-17.9-7.9c0,8.9-0.6,17.7-0.9,26.5
	c-0.2,7.5-4.9,15.2-12.4,17.3c-5.8,1.5-11.9,2.9-17.9,1.9c-2.1-0.2-2.9-2.4-3.4-4.1c6.1,1.2,12.5,2.6,18.5,0.1
	c5.9-2.3,9.6-8.1,10.9-14.1c3.2-12.5,0.8-25.6-2.9-37.7c5.1,1.8,10.5,2.7,15.9,3.8c2.6-6.7,1.5-14.1,4.1-20.8
	c5.6,1.9,9.5,6.6,13.3,10.9c6.2-7.7,9-18.1,17.6-23.6C406.9,650.7,407.2,652.9,407.3,655.1z"/>
<path d="M291.9,696.9c-1.7-6.2-4.9-13-2.2-19.3c5.5,5,3.5,14.2,10.1,18.4c-2.8,6.5-8.1,11.2-12.6,16.4c0,2,0,4.1,0,6.2
	c1.8,0.2,3.6,0.5,5.5,0.8c-2.5,7.1-7.7,12.8-9.8,20.1c-1.3-1.3-3.4-2.5-3.2-4.6c-0.5-5.6,2.9-10.7,6.3-14.8c-1.4-2-2.6-4.4-2.2-6.9
	C284.3,706.8,288.4,701.8,291.9,696.9z"/>
<path d="M526.9,706.3c10.4-1.2,18,9.6,17.9,19.1c-5.8-4.4-11.7-8.7-17-13.6C527.5,710,527.2,708.2,526.9,706.3z"/>
<path d="M517.6,714.8c2.7,0,5.6-0.2,8,1.4c4.3,2.7,5.9,8.2,5.1,13c-1.1,0-3.3,0-4.4,0c-0.2-2.2-0.4-4.7-2.3-6.1
	C521.3,720.8,518.4,718.5,517.6,714.8z"/>
<path d="M506.4,716.9c2.6-0.5,5.7-1.1,7.7,1.2c4,4.3,6.1,11.3,2.7,16.6c-3.6-2.9-4-7.8-5.6-11.9
	C509.5,720.9,507.3,719.4,506.4,716.9z"/>
<path d="M492.6,718.8c2.5-0.6,5.6-1.1,7.7,0.8c4.9,4.4,5.4,12.6,1.6,17.8c-4.1-0.4-3-5.6-3.5-8.5C499,724.4,493.2,723.1,492.6,718.8
	z"/>
<path d="M293.6,720.7c1.4-2.2,4.1-2,6.4-2c0.6,1.8,1.3,3.5,2,5.3c-5.7,4-6.4,11.5-5,17.7c-3.2-1.2-5.3-4.3-5.4-7.7
	C291.4,729.5,291.1,724.5,293.6,720.7z"/>
<path d="M305,721.8c2.4-1.4,4.3,1.2,5.9,2.6c-3.8,5-6.2,11-5.9,17.3c-2.5-1.2-4.5-3.7-4.2-6.6C301,730.5,301.7,725.2,305,721.8z"/>
<path d="M313.6,724.9c3.1-1.2,6.6-1.2,8.9,1.5c-2.1,5.9-4,11.8-5.2,18c-1.9-1.1-3.7-2.6-4-4.9C312.5,734.6,313,729.7,313.6,724.9z"
	/>
</svg>
