<?xml version="1.0" encoding="utf-8"?>
<!-- Generator: Adobe Illustrator 21.1.0, SVG Export Plug-In . SVG Version: 6.00 Build 0)  -->
<svg version="1.1" id="Layer_1" xmlns="http://www.w3.org/2000/svg" xmlns:xlink="http://www.w3.org/1999/xlink" x="0px" y="0px"
	 viewBox="0 0 825 825" style="enable-background:new 0 0 825 825;" xml:space="preserve">
<path d="M478.9,227.5c2.2-1,4.3-2,6.3-3.3c0.3,1.2,0.7,2.3,1,3.5c10.8-1.5,22.3-5.3,32.9-0.8c3.2,1.7,6.3-1.3,8.9-3
	c0.6,1.3,1.1,2.5,1.8,3.8c3.7-0.9,7.3-2.4,11-2.8c2.8,1.4,4.3,4.9,7.7,5.4c31.5,7.9,60.5,24.2,85.7,44.4
	c20.4,16.6,35.2,39.7,43,64.7c-1,1-1.9,2.1-2.8,3.2c1.7,3.9,4.5,7.3,6,11.3c0.3,3.3-1,6.6-0.9,10c0.2,9.9,4.3,19.2,4.8,29
	c-1.2-0.3-2.5-0.6-3.7-0.9c3.2,23.8,19.9,42.5,26.3,65.2c1.3,2,3.6,3.3,6.1,3.2c5.2,14.6,17.3,25,26.6,37c4,5.6,8.3,11.4,9.1,18.4
	c0.1,9.1-1.6,18-1.7,27.1c-0.6,4.6,0.7,9.2,0.3,13.8c-3.3,8.5-7,16.9-11.3,25c-4,7.3-10.1,14.1-18.3,16.6c-4.6,1.5-9.5,1.1-14.2,0.5
	c0.6-14.4,5.1-28.5,4-43c-0.7-11.5-7.8-22.1-17.7-27.6c-2.3-0.5-4.7-0.3-6.9-1.3c-2.7-2.3-4.2-5.7-6.9-8
	c-10.2-7.1-21-13.5-29.9-22.4c-1.5,14.8,2.6,29.4,7.1,43.3c3.4,11.1,5.7,22.8,4.9,34.5c-3.4,1.8-5.5,5.8-9.8,5.7
	c-4.2,9.5-13.7,15.1-23.2,17.8c-16.8,4.7-35.2,5.7-51.9-0.1c-4.3-0.7-5-5.6-7.3-8.6c-1.6,0.3-3.3,0.7-4.9,1c0-6.1,2.5-11.9,6.1-16.8
	c9.4,0,18.9,2,28.1-0.4c3.7-1,6.8-3.3,9-6.3c-5-9.3-10.1-18.8-16.8-27.1c-8.6-21.6-23.2-40.2-32.7-61.4c-1.3-3.4-4.4-5.6-7.4-7.4
	c0.1-4.4-3.7-7.9-2.3-12.5c-2.3-2.2-4.5-4.5-6.8-6.6c-1.5,1.6-2.9,3.3-5,4.1c-0.5-4.8-6.1-4.1-7.9-7.9c-2.6,1.4-5.5,2.2-8.4,1.5
	c-3.7-0.9-7.2,0.9-10.6,2.2c-3.2-0.4-6.4-0.8-9.3-2.2c-1.3,1.1-2.4,2.4-3.7,3.6c-16.8-5.4-34.8-6-51.4-11.9
	c-2.5,22.2-5.3,44.3-8.9,66.3c-3.1,18.6-6.5,37.2-12,55.3c-1.5,5-3.2,9.9-5.5,14.6c-1.8-0.6-3.6-1.3-5.4-1.8
	c-1.7,2.7-2.4,5.8-3.5,8.8c-20.9,2.6-41.7-2.3-62.5-3.3c-5.7,1.9-11.4,5.5-17.7,4.6c-2.6-0.3-3.7-2.8-4.1-5c6.6-0.7,13.3-0.2,19.9,0
	c1.9,0.2,3.5-0.9,5.2-1.7c9.9-5.2,19.4-11.2,28.8-17.4c-0.1-24.7,0.8-49.6-3.5-74.1c-1.1-6.3-2.9-12.5-6.1-18.1
	c-4.4-8.5-11-15.9-13.1-25.4c-0.9,0.2-1.8,0.4-2.8,0.6c-1-2.1-3.3-2.4-5.1-3.4c-6.4-3.3-10-11.1-7.7-18c-7.8,1.6-14.9,6.3-19.2,13
	c-4.9,6.8-6.5,15.2-8.6,23.2c-1.9,7.6-3.6,15.2-5.3,22.8c-2.9,1.1-5.1,3.5-8.4,3.5c-0.1,1.7-0.1,3.3-0.2,5c-1.1,0-2.2-0.1-3.3-0.1
	c-0.1,5.2-2.2,10.3-6.1,13.8c-5.1,4.4-11.1,8.2-14.4,14.2c-3.8-0.6-7.6-0.9-11.3,0.1c-6,1.3-11,5.2-16.6,7.4
	c-2.1,0.9-4.3,1.4-6.4,2.4c-1.6,1.4-3.3,2.9-5.2,3.9c-7.9,4.5-15.9,9.2-24.3,12.7c-2.8,1.1-6.4,2.9-8.7-0.1
	c-7.7,2.3-15,5.9-22.2,9.2c-2.9,1.2-4.4,4.2-6.5,6.4c-1.3,1.9-3.9,1.3-5.8,1.5c-4.4,0.2-8.7-1-13.1-0.8c-5.3,0.8-10.2,5.1-15.8,3.6
	c-6.8-2.9-9-10.6-13.7-15.7c-3-3.2-7.6-2.4-11.3-1.5c3.4-6.1,10.3-9,16.9-10.2c8.9-1.5,18.2-1.6,26.6-5c7.6-3.8,10.6-12.4,14.8-19.2
	c4.1-7.6,11-13,17.3-18.8c13.1-11.9,27.9-22.1,38.6-36.4c2.8-3.7,5.4-7.6,7.1-11.9c0.5-3,0.6-6.2,2-9c3.2-3.5,5-8.1,7.9-11.9
	c-2.6-11.4-7-22.1-11.3-32.9c-0.5-2-2.7-2.6-4.2-3.5c-10.4-5.4-22.6-6.2-33.9-4c-12.7,2.6-25.4,5.1-38,7.8c-2.7,0.5-4.6,2.7-6.8,4.1
	c-13.7,10.3-31.1,16.6-48.4,14.4c-3.2-0.6-7-0.3-9.5-2.9c-4.4-4-9.9-6.7-15.2-9.4c0.7-6.7,4.2-12.7,8.1-18
	c8.2-10.7,18.4-19.9,25.6-31.4c4.3-6.7,1.4-15.5,5.8-22.2c4.1-6.5,9-12.3,13.8-18.2c9.9-12.1,22.3-21.7,33.5-32.5
	c2.5-1.9,1.3-5.3,2.1-7.9c1-6.2,5.8-11.5,11.9-13c2.4,0.3,4.6,1.5,6.8,2.5c4-2,8.2-3.8,12.2-6.1c5.1,3.9,7.9,9.8,10.5,15.5
	c35.3-15.8,71-30.8,107.7-42.7c1.2-0.5,2.5,0.3,3.7,0.5c8.6,2.8,17.9,4.2,26.9,2.9c12.2,11.4,28.7,17.1,45.1,17.9
	c16,0.9,32-2,46.9-7.7c12.7-5.6,26.1-9.4,39.1-14.3C476.3,225.6,477.6,226.6,478.9,227.5z"/>
</svg>
