<?xml version="1.0" encoding="utf-8"?>
<!-- Generator: Adobe Illustrator 21.1.0, SVG Export Plug-In . SVG Version: 6.00 Build 0)  -->
<svg version="1.1" id="Layer_1" xmlns="http://www.w3.org/2000/svg" xmlns:xlink="http://www.w3.org/1999/xlink" x="0px" y="0px"
	 viewBox="0 0 825 825" style="enable-background:new 0 0 825 825;" xml:space="preserve">
<style type="text/css">
	.st0{fill:#FFFFFF;}
</style>
<path d="M221.7,185.8c4.9-2.6,10.7-2.6,16-1.7c5.5,1.2,9.7,5.4,12.1,10.3c3.5,6.6,3.3,14.6,1.7,21.7c5.7,0.4,8,6.8,13.4,8
	c16.4,4.5,33,8.6,49.9,10.6c13.6,1.8,27.1,4.5,40.9,5.6c24.4,1.5,48.8,2.8,73.1,5.4c8.8,0.6,16.5,5,24.7,7.8
	c4.8,1.5,8.2,5.2,12.4,7.7c4.1,2.4,8.6,3.9,12.6,6.5c5.9,3.7,11.6,7.8,17.4,11.6c6.5,1.8,13.4,2.3,20.1,3.3c27.2,4.1,54.8,1,82,4.5
	c13.8,2,27.8,5.6,39.4,13.7c8,6.4,13.6,15.3,19.3,23.7c2.9,4.5,6.1,9,7.6,14.3c5.4,18.5,7,37.9,7.4,57.2c0.7,6.7-3.6,12.7-2.6,19.4
	c1,12.5,12.8,20.2,15.7,32c0.5,1.7,0.5,3.7,1.7,5.2c10,13.9,22.4,26.5,37.8,34.2c3.4,1.8,7.1,2.9,10.5,4.7
	c5.1,5.4,10.1,11.3,13.1,18.2c0.5,0.3,1.6,0.8,2.1,1c3.2,12.1,2.9,24.9,1.4,37.3c-1.4,12.3-3.3,24.5-5.6,36.7
	c-3.9,5.1-8.1,10.1-13.7,13.3c-3.7,2.1-4.3,6.9-7.8,9.3c-5.4,4-12.1,5.9-18.5,7.5c-15.9,3.7-32.2,5.1-48.4,6.2
	c-6.7,0.1-13.5,0.4-20.2-0.6c-1.3-8.3,4.4-15.1,8.8-21.5c1.7-2.2,3-4.9,5.3-6.6c4.1-1.8,8.6-0.2,12.9-0.5c2.9-0.3,5.5-1.6,8.1-2.8
	c-1.3-8.8-1.1-17.9-3.7-26.5c-1.6-5.2-4.9-10.6-10.4-12.2c-9.6-1.6-19.2-2.8-28.8-4.4c-7.7-1.6-14.9-4.8-21.9-8
	c-10.5-5-20.7-10.8-30.8-16.7c-4.8,3.7-7.2,9.9-6.6,15.9c-0.6,5.5,4,10.2,2.4,15.6c-1.4,5.1-5.1,9.2-8.5,13
	c-10.7,11.1-23.3,20.4-32.5,32.9c-7.1,3-13.8,7.3-21.3,9.5c-4.8,1.6-9.9,1.5-14.9,1.2c-15.1-0.2-30.1-1.8-45.2-2.2
	c-4.3,0-9-3.3-8.5-8c1.6-8.7,11.6-13,13-21.9c3.8-0.2,7.5,1.5,11.3,1.3c8.7-1.7,15.2-8.5,20.5-15.1c6-7.9,11.5-16.2,16.3-24.9
	c2.2-3.8,3.3-8,3.5-12.3c1.7-10.9,0.8-22.5,5.9-32.5c-17.1,0.5-34.1,2-51.1,3.3c-9.6,0.2-19.4,0.6-28.9-0.9
	c-3.4,13.5,0.9,27.2,0.4,40.8c0.5,8.9-3.1,17.3-7.4,24.8c-6.2,10.6-14,20-22.2,29.1c-3.8,3.9-7.5,8-12,11.1
	c-3.8,2.6-8.5,2.7-12.9,3.5c-13.5,2.2-27.2,3-40.8,2.4c-9.3-0.7-19-0.6-27.7-4.5c-0.9-5.3,2.7-10.1,6-14c1.5-1.5,1.5-3.8,2-5.7
	c3.5-0.8,7,1.3,10.5,0.5c2.8-1.5,4.9-4.1,7.2-6.2c7.9-8.1,15.6-17.2,18.2-28.4c3-20.7-2.5-42.2-14.5-59.2
	c-6.7,3.4-11.6,9.6-18.3,12.9c-1.3,0.7-2.6,1.5-3.6,2.6c-7.6,8.1-15.5,15.9-23.3,23.8c-6.2,6.8-13,13-19.5,19.4
	c-2.2,2.4-5.5,3.1-8.2,4.8c-3.6,2.4-6.1,5.9-9.2,8.8c-3.5,3.2-8.4,4.1-12.4,6.6c-9.6,6.9-16.7,18.3-28.9,21
	c-8.6,1.6-17.5,2.1-26.3,1.4c-8.5-0.2-17-0.9-25.3-3.1c-5.6-1.2-9.6-5.9-15.2-7.1c-1-10.8,11.4-15.2,13.7-24.8
	c5.6,1.9,12.2,2.3,17.3-1c5.1-3,8.1-8.2,10.8-13.2c4.7-9.1,8.7-18.8,15.7-26.5c14.6-17.4,34.9-29.4,46.8-49.1
	c5.4-8.9,11.8-18.4,11.8-29.2c-15.8-16.6-27.6-36.5-37.6-57.1c-2.8-6.4-4.9-13.2-8.7-19.1c-4.9-7.6-10.5-14.8-17.4-20.7
	c-6.5-5.4-14.5-10.1-23.2-9.5c-13.2,0.7-26.5,1.7-39.8,1c-5.8-0.2-11.5,1.7-17.3,1.6c-7.1-0.4-12.8-5.4-19.8-6
	c-8.9-8.7-19.4-16.2-25.6-27.2c-2.2-3.9-4.1-9-2-13.3c7.6-5.6,15.9-10.2,23.2-16.1c4.6-3.7,9.1-7.5,13.4-11.5
	c2.5-2.6,5.2-5.2,6.3-8.7c2.3-9.8,7.5-18.7,12.9-27.1c3.4-6.1,10.4-8.4,15.9-12.1c6-3.1,10.7-8.2,16.6-11.4
	c6.7-2.9,14.1-3.5,20.9-6.2c5.1-1.8,10.1-4,15.5-4.6c4.7,0.7,8.6,3.8,13.2,5.1C215.5,192.8,217.4,187.9,221.7,185.8z"/>
<path class="st0" d="M218.9,196.8c5.1-4.8,12.4-7.7,19.4-5.6c2.8,3.5,5.5,7.2,6.5,11.7c2,7.6-0.6,16.1-6.4,21.3
	c-2.3,2-4,4.4-5.8,6.8c4.8-4,10.5-6.4,15.9-9.5c11.1,8.2,24.5,12.8,37.7,16.5c25.6,6.7,51.9,9.6,78.2,11.6c17.9,1.6,36,1.1,53.7,4.5
	c6.5,1.2,13.1,2.8,19.1,5.7c11.9,6.1,22.2,14.8,34,21c6.5,3.4,13.8,5.4,20.9,7.2c23.2,5.1,47,7.1,70.6,8.7
	c6.8,0.6,13.7,0.7,20.5-0.2c12.4-1.2,25.5,0.8,36.5,6.8c10.2,5.4,12.7,17.8,20.4,25.6c2.4,2.4,5.8,3.7,7.8,6.4
	c2.1,5.5,3.1,11.4,4.6,17.2c4.4,15.8,3.7,32.4,5.1,48.6c0.7,5.6-0.1,11.2,0.3,16.9c1.4,17.3,9.3,33.5,20.6,46.5
	c7.8,8.9,15.9,17.6,25.4,24.7c7.4,5.7,16.5,8.3,24.8,12.2c6.5,7.1,9.1,16.8,10.7,26.1c2.4,12.5-2.3,25-0.4,37.5
	c1,7.4,2.3,15.8-2.6,22.2c-10,13.1-26.2,19.4-41.7,23.1c-13.1,2.9-26.5,4.7-39.9,4.6c1.8-3.1,5-5.4,5.2-9.2c-4.7,1-7,5.2-9.7,8.6
	c-2,2.5-5.5,2.5-8.3,2.2c3-5.9,6.9-11.4,10.4-17c3.4,0.9,7.3,1.4,10.2-1c5.5-4.3,11-8.8,17.3-12c4.5-11.7,0.5-24.2-1.8-36
	c-1.7-2.2-2.4-5.2-4.6-7c-3.6-3-8.1-4.9-12.7-5.9c-8.8-2-17.8-2.7-26.7-3.1c-11-0.7-21.5-4.6-31.2-9.5c-9.8-4.7-17.3-12.6-25.9-19
	c-4.1-3.2-9.6-4-13.6-7.3c-12.7-10.3-22.2-23.9-30-38.1c-3.5-0.2-7.1-0.3-10.6-0.8c3.3,8.1,9.5,14.5,12.9,22.6
	c-29.7,3-59.6,3.5-89.4,4.8c-16.2,0.3-32.5,0.8-48.6-1c-13.9-2.3-26.7-9-40.7-10.9c2-4.7,6.5-7.9,8.2-12.7c1.2-5-2.9-8.9-4.5-13.3
	c-3-7.6,0.1-15.9-1.4-23.8c-7.7,5.2-8.5,15.9-6,24.1c1.1,3.3,5,6,3.5,9.8c-1.8,4-5.1,7.1-8.1,10.1c-9.2,8.8-20.1,15.7-29.6,24.2
	C306,504.3,296.5,518,285,530c-9.8,10.6-23,17.1-35.8,23.2c-7.5,3.2-13.7,8.9-19.2,14.9c-4.9,4.9-9.9,10.2-16.8,12.1
	c-14.4,4.2-29.8,2.9-44.3,0.6c2-1.7,4.2-3,6-4.9c1-1.8,0-3.6-0.7-5.2c-6.1,1.1-10.2,7.1-16.6,7.2c1-5,5.9-8,6.7-13.1
	c6.2,1,13,1.4,18.9-1.4c5.1-2.2,9.2-6.3,12.1-11c5.2-8.7,8.4-18.5,14-27c2.3-3.6,5.5-6.5,8.7-9.4c15.4-14,29.9-29.1,41.9-46.2
	c6.1-9.2,12.5-19.2,12.6-30.6c1.1-1.4,2.3-2.7,3.4-4.1c-7.6-12.1-19-21.5-25.6-34.4c-6.7-12.6-13.4-25.1-19.9-37.7
	c-1-2-1.8-4.1-3.4-5.8c-5-5.9-10.1-11.8-15.2-17.8c-4.5-5.4-10.3-9.4-15.6-13.9c15.1-5.3,29.9-12.5,41.7-23.4
	c7-6.7,13.7-14.2,16.9-23.4c1.8-5.1,2-10.6,1.1-15.9c-6.1,10.1-8.3,22.8-17.5,30.8c-8.3,6.9-17.6,12.5-26.7,18.3
	c-7.6,4.5-15.4,8.9-24,10.8c-5.6,0.9-11.2-0.5-16.9-0.7c-16.3,1.6-32.2,8.2-48.7,6c7.2-2.8,15.4-2.5,22.2-6.4c3.5-2,5.1-6.1,5.2-10
	c-10.2,2.9-20.2,6.1-30.5,8.4c-5,1.2-10.1,1-15.2,0.9c-4.8-5.3-10.1-10.2-15.3-15c2-4.4,4.5-8.6,6.5-13c1.5-4-1.1-7.6-4.5-9.3
	c6.4-5,13.2-9.4,19.8-14.2c5.2-4.2,11.2-9.8,10.2-17.2c-0.6-5.1,2.2-9.8,4.6-14.1c8.2-13.3,22.2-21.5,36.1-27.8
	c13.6-6,28.2-11.2,43.3-10.1c-1.3,3.1-4.7,4.3-6.7,6.8C206,207.5,213.1,202.2,218.9,196.8z"/>
<path d="M209.6,213.8c6.8-3.7,12.9-8.4,19.1-13c-0.1,2.8,0.3,5.9-1.5,8.2C223.3,214.6,215.7,216.2,209.6,213.8z"/>
<path d="M149.1,251.8c0.7-7.1,9.5-9,15.2-6.9c-0.9,4-2.2,8.1-5.7,10.5C155.3,254.7,152.1,253.5,149.1,251.8z"/>
<path class="st0" d="M345.5,484.3c1.2-0.8,2.5-1.6,3.7-2.4c24.1,10.6,50.8,13.5,76.9,14.2c-1.9,15.2-5.5,31.1-0.6,46.1
	c-5.6,10.7-10.1,22.1-17.5,31.7c-5.4,6.9-11.1,13.6-18.1,18.9c-2.9,2.3-6.3,4-10,4.6c-16.3,2.8-32.8,2.5-49.3,2.6
	c0.1-2.3,0.1-4.6-0.1-6.9c-2.8,1.6-5,3.8-7.4,5.8c-1.9,1.6-4.5,0.9-6.7,0.6c2-3.4,3.9-6.9,6.4-9.9c5-0.9,10.1-1.5,14.9-3.2
	c8.2-2.4,14.2-8.9,19.4-15.4c6.2-7.9,9.3-18,9.1-28C366.4,521.8,359,500.7,345.5,484.3z"/>
<path class="st0" d="M518.3,493.8c7.3-0.5,14-4.2,21.3-4.1c4.2,2,7.2,5.9,10.5,9c6.2,6.8,13,12.9,20.6,18.1
	c-2.9,7.9-9.7,15.6-6.3,24.5c1.9,5.2-2.1,9.5-5,13.3c-7.5,10.1-16.1,19.2-25.4,27.6c-4.8,4-7,10.7-13,13.2
	c-10,4.7-21.3,6.5-32.4,6.2c-8.7-0.7-17.4-1.7-26.1-2.3c2.1-2.8,4.5-5.8,3.7-9.6c-4.9,1.7-8.3,5.7-11.4,9.6c-2,0-4,0-6-0.1
	c2.9-5.5,7.3-10,10.6-15.2c7.2,1.5,14.4-0.6,21.3-2.2c0.7-2.9,2.6-5.3,3.5-8.1c6.3-4.9,10.5-11.7,15.2-18
	c4.3-6.4,9.1-12.7,11.6-20.1C513.9,521.7,515.3,507.6,518.3,493.8z"/>
</svg>
