<?xml version="1.0" encoding="utf-8"?>
<!-- Generator: Adobe Illustrator 21.1.0, SVG Export Plug-In . SVG Version: 6.00 Build 0)  -->
<svg version="1.1" id="Layer_1" xmlns="http://www.w3.org/2000/svg" xmlns:xlink="http://www.w3.org/1999/xlink" x="0px" y="0px"
	 viewBox="0 0 300 300" style="enable-background:new 0 0 300 300;" xml:space="preserve">
<path d="M206.9,92.5c4.9-5.2,11.1-9.5,18.3-10.4c10.9-1.5,21.8,3.6,29.2,11.5c8.7,8.7,14.4,21.4,12.3,33.8
	c-1.1,7.5-5.6,14.2-11.6,18.7c-5.1-17.6-15.6-33.9-30.9-44.3C218.9,98.1,213,95,206.9,92.5z"/>
<path d="M64.2,98.4c7.8-1,15.5,1.6,22.2,5.3c-10.3,11.7-21.8,22.9-28.3,37.3c-4.2,9-6.4,18.9-7,28.9c-8-3.3-14.3-10.4-16.6-18.8
	c-4.1-13-0.7-27.5,7-38.6C46.6,105,55,99.4,64.2,98.4z"/>
<path d="M194.4,135.5c3-1.4,7.1-0.6,8.8,2.4c1.6,3.1,1.6,6.8,1.2,10.2c-0.4,3.7-3.1,6.5-5.4,9.3c-3.9-0.7-8.1-1.5-11.2-4.2
	c-2.5-2.1-3.7-5.8-2.4-8.8C186.9,140.4,190.4,137.2,194.4,135.5z"/>
<path d="M106.4,146.1c4.3-0.9,10.1,0,11.6,4.7c4.1,7-1,16.9-9.1,17.4c-5.6,0.6-9.2-5.2-9.2-10.1C99.1,153.2,101.7,147.9,106.4,146.1
	z"/>
<path d="M141.7,184.8c4.6-5,11.5-7.4,18.3-7.2c5.1-0.3,10.6,1.4,14,5.4c3.9,4.5,3.8,11.2,1.4,16.4c-2.7,4.6-8.2,6.2-13.1,7.3
	c0.1,4.9,1.7,10.2,5.6,13.4c3.6,3.2,9.3,2.3,12.8-0.5c2.9-3.7,1.1-10.6,6.8-12.1c1.7,5.3,1,11.8-3.4,15.6c-5.9,6-17.3,5.6-21.9-2
	c-3.8,10.1-18.8,11.6-26.3,4.9c-3.6-3.2-3.8-8.4-2.1-12.6c1.6,5.1,5.5,9.4,10.6,11c3.1,0.8,6.8,0.7,9.1-1.8c3.4-3.5,3.4-8.7,3-13.2
	c-5.8-2.5-13.2-3.6-17-9.3C137.3,195.3,137.8,188.7,141.7,184.8z"/>
</svg>
