<?xml version="1.0" encoding="utf-8"?>
<!-- Generator: Adobe Illustrator 21.1.0, SVG Export Plug-In . SVG Version: 6.00 Build 0)  -->
<svg version="1.1" id="Layer_1" xmlns="http://www.w3.org/2000/svg" xmlns:xlink="http://www.w3.org/1999/xlink" x="0px" y="0px"
	 viewBox="0 0 825 825" style="enable-background:new 0 0 825 825;" xml:space="preserve">
<style type="text/css">
	.st0{fill:#FFFFFF;}
</style>
<path d="M478.7,226.6c16.9-6.9,36.7-8.6,53.7-1.1c10.8,4.2,19.9,12.2,31.2,15c25.3,4,50.8,6.4,76.2,8.9c7.3-5.6,18-6.2,25.5-0.8
	c3.4,2.2,4.5,6.2,6.1,9.7c11.7,8.4,25.5,14,35.3,24.9c4.5,5.1,9,10.9,10.2,17.8c0.8,4.5,1.9,9.3,5.4,12.6
	c8.6,9.6,21.4,13.6,30.9,22.1c3,2.8,5.9,6.8,4.7,11.1c-2,6.9-7.7,11.8-13,16.4c-7,5.6-14.5,10.9-23.1,13.9c-10,3.3-20.7,1.7-31,1
	c-13.9-1.5-27.9-3.9-41.9-2.5c-5.3,0.4-9.7,3.6-14.5,5.3c-6.2,2.5-13.1,1.9-19.7,2.3c-4.4,0.3-7.2,4.4-8.4,8.3
	c-2.1,6.9-2.8,14.1-5.3,20.8c-4.6,9.6-13.6,15.9-19.9,24.1c-3.1,17.4-2,35.5,2.7,52.5c4,14.6,10.8,28.3,19.1,40.9
	c6.2,9.3,12.7,18.5,20.2,26.8c4.1,4.2,8.2,8.8,13.6,11.3c7.7,3.5,16,5.6,23.3,9.8c3.1,1.8,6.2,4.2,7.4,7.7c1.2,3.6,0.1,8.2-3.3,10.1
	c-3.8,2.3-8.4,2.7-12.8,3.4c-9.2,0.9-18.4,0.5-27.6,0.4c-12-0.5-24.4-1.1-35.6-5.7c-14.8-5.9-28.1-14.7-40.9-24.2
	c-14.9-11.2-29-23.6-42.6-36.4c-3.7-3.7-7.6-7.2-11.9-10.1c-7.8-4.9-10-15.3-18.2-19.7c-1.6-1.1-3.9-1.3-4.8-3.3
	c-5.1-10.5-10.1-21.2-15.9-31.3c0.6,7.7,0.6,15.7-2.2,23c-5.7,15-16.5,27.7-20.7,43.3c-3.2,11-2.8,22.9,1.4,33.6
	c6.8,2.5,13.8,4.6,20.5,7.4c4.4,1.8,8.4,6,8,11c0,4.2-3.6,7.5-7.4,8.8c-8.8,3.3-18.5,2.8-27.7,2.7c-12.9-0.5-26.8-2.7-36.7-11.8
	c-12.8-11.3-20.6-27-27.8-42.3c-3.9-8.4-8.4-16.7-10.1-26c-1.8-9.8-1.4-19.8,0.3-29.5c-29.1,0.4-58.2,1.3-87.4,0.1
	c-14,22.4-23.3,48.3-24.3,74.9c-0.3,1.8,1.4,2.7,2.6,3.5c5.9,3.8,12.5,6.1,18.9,9c3.9,1.8,7.8,4.6,9.3,8.9c1.4,4.3-0.2,10-4.7,11.7
	c-8.9,3.7-18.7,2.3-28,2.1c-13.3-1.1-26.7-1.5-40.1-0.9c-4.3-1.8-7.8-5-11-8.2c-6.6-7-11.5-15.5-14.5-24.7
	c-3.8-10.7-7.5-21.4-11.2-32.1c-13.7,9.9-23.8,23.8-34.4,36.8c8,2.9,16.4,5,24.6,7.4c4.3,1.5,9.1,3.6,10.8,8.2
	c0.8,2.9,1,6.8-1.9,8.6c-4.3,2.9-9.6,3.7-14.7,4.5c-15.8,1.9-31.9,1.8-47.6-0.7c-11.6-1.8-22.3-8.9-28.1-19.2
	c-11.3-19.6-9.4-44.6,0.6-64.4c5.5-10.6,13.1-19.8,18.6-30.3c9.9-20.4,15.9-42.6,17.6-65.2c3.3-30.5,2.4-61.7,10.6-91.5
	c3.8-14.6,11-28,20.2-39.9c7.4-9.9,16.4-19.1,27.9-24.1c5.8-2.8,12.5-1.4,18.4-3.7c15.5-5.9,28.7-16.5,43.8-23.1
	c23.2-9.5,48.2-14,73.2-13.8c18.8,0.5,37.6,3.2,55.6,8.4c12.3,3.7,24,9.3,36.4,12.6c7.8,2.2,15.9,3.2,23.9,3.5
	c8.9,0.1,17.3-3,25.5-5.9C454.8,237,466.7,231.7,478.7,226.6z"/>
<path class="st0" d="M467.7,248.6c10.7-8.3,23.4-15.1,37.3-15.5c9.5-0.5,19,1.9,27.4,6.4c5.2,2.8,10.5,5.5,15.8,8.3
	c10.3,5.6,21.6,9.7,33.3,10.8c18.3,1.9,36.7,1.2,55,2.9c1.5,9,4.3,18.9,12.6,23.9c0.6-6.9-0.3-13.7,0-20.6c0.2-3,1.3-6.4,4.2-7.9
	c5.9-0.4,10.4,4.4,12.9,9.2c-2.9,1.1-5.7,2.6-7.8,5c9.7,0.9,19.2,4.3,26.8,10.5c8.6,7.1,15.7,16.3,20.2,26.5c-2-0.7-3.9-1.8-5.8-2.8
	c-0.3,2.7-1,5.3-1.9,7.9c3.1,2,6.3-0.1,9.4-0.9c2.1,4.2,3.8,8.7,7.2,12.1c8.4,9.1,20,14.4,29.2,22.6c-3.4,0.3-6.2-1.8-8.9-3.4
	c0.2,3.5,1.3,6.9,1.5,10.4c-7.9,2.8-16.2-2.4-23.9,0.9c2.9,4.5,10.2,1.7,12.2,7.2c-9.3,4.1-19.8,2.8-29.6,1.7
	c-9.3-0.9-18.6-2.1-27.9-2.9c-20.7,0.4-40.8,5.6-60.5,11.5c-11.3,3.3-22.6,6.3-33.8,9.7c6.9,3.6,14.8,1.2,22.1,2.4
	c-2.5,9.5-3.4,19.8-9,28.1c-2.1,3.2-5.2,5.4-8.5,7.4c-0.1-2.4,0.5-5.1-1.2-7c-1.6-2.1-2.8-4.5-3.4-7.1c-2,21-4.6,42-5.2,63.1
	c0,6.1-0.4,12.3,1.2,18.2c4.4,18,13.4,34.4,23.2,49.9c8.8,13.2,18.2,26.4,30.5,36.5c6.9,5.9,16.2,6.9,23.9,11.2
	c-15.9,3.2-32.7,1.1-47.4-5.8c-11.5-5.8-22.2-13.2-33.6-19.2c0.9,1.8,1.9,3.5,2.9,5.3c-15-10.7-29.7-21.9-44.2-33.3
	c-13.7-11.2-27.8-22.3-38.6-36.4c-11.3-14.2-20-30.4-25.3-47.8c-4.5-14.2-6.4-29.1-6.7-44c-3.4,6.1-4.6,13.1-5.9,19.9
	c-0.7,3.2-0.8,6.6-2.4,9.5c-0.8-2.2-1.4-4.5-2-6.7c-2.4,8.8-2.6,18-3.3,27.1C404,470,364.2,476.3,325,477.1
	c-11.9,0.9-23.9-0.2-35.9-0.4c0.5-11.6,2-23.2,2.2-34.8c-4.6,3.1-5.5,8.6-6.4,13.7c-3.3-11.1,5.2-22.3,0.5-33.2
	c-5.8,6.3-4.2,15.7-7.3,23.2c-0.3-19.2,0.2-38.4,0-57.6c-0.2-8.1,0.5-16.3-0.5-24.4c-1,6.4-1.3,12.9-1.7,19.3
	c0.1,11.7,0.2,24-5.3,34.6c-1.2,25.2-10.8,49-21.8,71.4c-12.4,24.2-22,50.7-21.5,78.2c0.2,2.6-0.4,5.8,1.8,7.8
	c4.1,4.4,9.9,6.7,15.4,8.9c-11,3.9-23.5,4.2-34.1-1.2c-9.6-4.4-16.5-12.9-21.1-22.2c-0.2,7,4.3,12.8,6.2,19.3
	c-9.1-10.5-14.3-23.8-17.8-37c-1.7-8.7-3.2-17.5-5-26.2c-2.4-12.1-4.3-24.4-7.8-36.2c-7-25.5-17.2-50.1-22.9-76
	c-0.6-2.7-0.9-5.5-1.8-8.1c-2-3.1-4.3-6-6-9.3c-1.4-3,4.3-5.2,1.7-8.2c-5.7-9.4-8.7-20.4-8.5-31.4c0.6-15.6,6.4-30.7,14.7-43.9
	c7.1-11.1,16.9-20.5,28.6-26.5c-4.8,10.1-13.6,18.2-15.8,29.5c17.7-20.3,38.4-38.4,62.3-50.9c36.2-19.3,79.4-24.4,119.2-14.7
	c24.9,6,49,14.8,74.3,19c-5.3,7.7-15.3,9.9-21.1,17c20.1-8.8,41.7-13.8,61.6-23.2c5.3-2.5,10.3-5.5,15-8.8
	C466.7,245.8,467.2,247.2,467.7,248.6z"/>
<path class="st0" d="M121.7,397.6c3.8,8.2,7.5,16.5,10.8,25c-2.8-2.5-4.8-5.6-7-8.5c4,20.9,12.3,40.7,15.9,61.7
	c-3.7-6-6.7-12.4-9.8-18.7c-0.5,21.1,12.3,40.5,10,61.8c-2.4,11-14.4,16.2-17.4,27c8.4-4.1,13.1-12.9,21-17.5
	c-5.9,8.6-13.9,15.5-20.8,23.3c-5.2,5.9-10.6,13.2-9.5,21.5c0.8,5.9,5.6,10,10.3,13.1c-9.5,0.3-19.4-1.3-27.3-6.9
	c-8.5-5.6-13.3-14.9-16.9-24.1c-1.9,6.6,0.5,13.1,2.1,19.5c-5.3-6.2-8.2-14.3-8.2-22.4c-0.3-8,1.4-15.8,3.8-23.3
	c5.6-16.4,20.7-27.6,25.3-44.5c6.8-22.7,11.1-46.1,15.9-69.3c0.2-1.7,1.3-2.8,2.8-3.4C122,407,121.5,402.2,121.7,397.6z"/>
<path d="M257.3,409.3c0.7-3.4,1.3-6.8,2.2-10.2c2.8,15.2,1.5,31-3.6,45.6c-3.3,9.7-8.2,18.8-13.8,27.3
	C246.3,450.9,253,430.4,257.3,409.3z"/>
<path d="M465.2,439.3c1.3,2,3.5,2.1,5.7,1.8c3,14.5,11.1,27.4,20.4,38.7c5.4,6.5,11.3,12.5,16.5,19.2c-18.6-8.7-32.4-26-38.3-45.5
	C467.7,448.8,467.6,443.7,465.2,439.3z"/>
<path class="st0" d="M365.1,487.8c12-2.8,24.1-5.3,36.3-7.2c-2.8,4.2-8.3,2.3-12.2,4.6c15.8,5.7,33,5.1,49.4,2.9
	c-10,15.2-18,32.1-21.6,50.1c-2.2,11.6-2.1,24.4,4.2,34.8c2.5,4.4,6.3,7.7,10.1,11c-4.6,0.3-9.4,0.5-13.8-1.4
	c-9.4-3.9-15.9-12.3-24.4-17.6c0.2,5.2,4.9,8.2,6.7,12.7c-13.1-11.1-22.5-26.2-27.8-42.4C366.9,519.9,365.2,503.8,365.1,487.8z"/>
</svg>
