<?xml version="1.0" encoding="utf-8"?>
<!-- Generator: Adobe Illustrator 21.1.0, SVG Export Plug-In . SVG Version: 6.00 Build 0)  -->
<svg version="1.1" xmlns="http://www.w3.org/2000/svg" xmlns:xlink="http://www.w3.org/1999/xlink" x="0px" y="0px"
	 viewBox="0 0 300 300" style="enable-background:new 0 0 300 300;" xml:space="preserve">
<style type="text/css">
	.st0{fill:#FFFFFF;}
</style>
<g id="Layer_1">
	<path d="M144,42.2c32.9-2.5,67,10.1,89.6,34.2c17.3,16.4,28.7,38.9,30.9,62.7c2.9,23.1-3.2,47-15.7,66.6
		c-12,18.5-29.6,33.4-49.8,42.2c-17.5,7.9-36.9,10.7-56,10.1c-22.9-1.1-45.3-9.6-63.7-23.3c-17.9-13.9-32.6-32.7-39.2-54.7
		c-6-20.8-6.2-43.6,1.4-64.1c5.1-14.7,13.7-27.9,24.6-38.8c8.6-9,18.6-16.8,29.8-22.3C110.8,47,127.4,43.3,144,42.2z"/>
	<path class="st0" d="M146,47.2c21.2-1.4,42.5,4.6,61,14.8c22.2,12.9,40.1,33.6,48.1,58.1c4.7,14.8,6.5,30.7,3.5,46
		c-4.7,25.2-18.7,48.8-39.6,63.9c-21.7,16.2-49.2,24-76.2,22.8c-21.7-1.5-42.8-9.6-60.5-22.3c-17.3-12.7-30.6-31.1-37.1-51.6
		c-3.3-11.3-5.1-23.1-4.5-34.9c1.8-22.4,11.1-44.2,26.4-60.8C87,60.8,116.5,48.7,146,47.2z"/>
	<path d="M139.6,50.7c25.1-2.5,51.1,3.6,71.9,18c21.7,14.3,37.7,37.3,42.9,62.8c3.3,18,1.8,37-5.1,54c-7.5,18.5-21.1,34.1-37.5,45.4
		c-21.2,14.3-47.4,20.9-72.9,18.1c-27.4-2.2-53.3-16.2-71.2-36.9c-12.9-14.7-21.1-33.6-22.7-53.1c-2.4-21.5,3.8-43.4,15.3-61.4
		C77.6,70.7,108.2,53.7,139.6,50.7z"/>
	<path d="M150.2,78.7c1.8,1.4,3.4,2.9,5.1,4.4c1-1,1.2-3.7,3.1-2.9c0.4,2,0.7,4.1,1.2,6.1c1.3-1.8,1.6-4.2,3.1-5.9
		c0.6,2.2,0.6,4.5,0.8,6.7c1.4-1.7,2.7-3.5,4.2-5.1c0,2.1-0.2,4.1-0.4,6.1c1.3-1.2,2.6-2.3,3.9-3.4c-0.2,1.8-0.4,3.6-0.6,5.3
		c1.3-1.1,2.5-2.2,3.8-3.3c0.1,0.8,0.3,2.3,0.3,3.1c0.6-0.4,1.7-1.1,2.3-1.5c0.1,0.8,0.2,2.3,0.3,3.1c0.8-0.2,1.6-0.5,2.4-0.7
		l-0.4,1.9c0.6-0.1,1.8-0.3,2.4-0.4c-0.1,0.5-0.4,1.6-0.5,2.1c1.5-0.2,3-0.2,4.5,0.2c0,0.8-0.1,2.5-0.1,3.4c2.2-1.3,3.6,0.8,5.1,2.1
		c3-5,6.1-10.3,11.3-13.3c5.1-3,11.9-2.2,16.6,1.3c7.8,5.7,12.2,16.3,9.1,25.7c-1.7,5.4-5.9,9.4-10,13c1.8,5.3,5.3,10.3,5,16.1
		c0.1,6.6,0.7,13.3-1,19.8c-2.4,10.8-8.9,20-14.4,29.5c-0.4,0.1-1.2,0.4-1.6,0.5c-0.8,2.8-1.8,5.6-3.6,8c-0.2-0.7-0.5-2.2-0.7-3
		c-1.6,2.2-2.7,4.7-4.3,6.9c0.1-1,0.4-3.1,0.5-4.1c-2.1,3.1-3,6.9-5.5,9.7c0.6-3.2,1.7-6.4,1.7-9.8c-2,3.2-3.2,6.8-5.6,9.8
		c-0.1-1-0.4-2.9-0.5-3.8c-1.2,2.6-2.3,5.2-3.7,7.6c0.1-1.3,0.3-4,0.4-5.3c-1.1,2-2.2,3.9-3.6,5.7c-0.3-1.2-0.6-2.4-0.9-3.6
		c-0.9,2.9-1.3,6-3.1,8.5c-0.2-0.9-0.5-2.8-0.7-3.7c-2.1,2.9-4.2,5.9-7.2,8.1c0.1-1.7,0.3-3.5,0.5-5.2c-1.7,2.6-3.3,5.3-5.2,7.9
		c-0.6-0.9-1.2-1.8-1.9-2.7c-2.1,3.1-2.7,7.3-5.9,9.6c-0.1-0.6-0.3-1.9-0.4-2.5c-1,2.2-1.7,4.7-3.8,6.2c0-0.9-0.1-2.6-0.1-3.5
		c-0.6,1.2-1.2,2.4-1.8,3.6c-0.4-0.2-1.1-0.7-1.4-0.9l-0.4,1.4c-1.2-0.6-2.6-1.1-3.5-2.2c-2.5-0.1-2.8-3.3-4.6-4.5l-0.9,1.6
		c-2.1-3.4-3.7-7.1-5.9-10.5c-0.1,0.8-0.3,2.3-0.4,3.1c-3.3-3.6-5.9-7.9-9.4-11.3l0.1,2.2c-3.2-1.6-5-5.1-7.7-7
		c-0.4,1.4,1.6,3.7,1.5,5.4c-3.4-2.5-6.3-5.5-9-8.8c-0.1,0.6-0.3,1.8-0.5,2.4c-3.4-2.3-6.5-4.9-9.2-8.1c-0.4,0.2-1.2,0.6-1.6,0.9
		c-2.7-2.6-5.1-5.5-7.6-8.2c-0.3,0.5-0.9,1.5-1.2,2c-3.7-3.9-4.4-9.4-6.1-14.3c-0.5,0.4-1.4,1.2-1.9,1.5c-6-10.6-7.3-23.5-4.8-35.3
		c1.7-8.5,5.4-16.4,9.8-23.8c-5.4-5.5-8.4-13.2-8-20.9c0.2-7.3,4.4-14.4,10.9-17.8c5.6-2.9,12.8-2.4,17.8,1.6
		c3.8,3.1,6,7.7,8.4,11.9c0.2-0.5,0.4-1.4,0.6-1.9c0.9,0.4,1.8,0.8,2.6,1.2c0.3-1.6,0.5-3.1,0.8-4.7c1,0.7,1.9,1.5,2.9,2.2
		c0.6-1.6,1.1-3.1,1.7-4.7c1.1,0.9,2.2,1.9,3.2,2.9c0.4-1.6,0.8-3.2,1.2-4.8c0.8,1.3,1.6,2.6,2.4,3.9c0.7-1.9,1.4-3.8,2.1-5.8
		c1,1.1,2,2.2,3,3.2c0.2-1.4,0.4-2.9,0.6-4.3c1,1.3,1.9,2.7,2.9,4c-0.2-2.1-0.9-4.2-0.6-6.3c2.4,0.7,2.1,4.1,3.9,5.6
		c0.2-2.8,0.2-5.7,0.4-8.5c2.4,1.7,3.1,4.8,5.4,6.5C149.2,83.8,149.7,81.3,150.2,78.7z"/>
	<path class="st0" d="M152.8,84.8c1,2.5,0.8,5.2,0.8,7.8c-0.4-0.2-1.4-0.5-1.8-0.7C151.8,89.5,152.2,87.1,152.8,84.8z"/>
	<path class="st0" d="M144.1,86.2c1.9-0.7,2.6,4.3,0.2,3.3C143.5,88.5,143.4,87.4,144.1,86.2z"/>
	<path class="st0" d="M91.8,89.7c-0.5-3.3,3-3.1,5.2-3.3c5.1-0.2,10.1,2.7,12.6,7c2.7,4.4,3.3,9.7,4,14.7c2.4-2.2,3.8-5.4,6.7-7
		c4.2-2.3,9-3.5,13.8-3.3c2.2,1,2.6-4.2,3.8,0.2c0.2-0.8,0.7-2.2,0.9-3c0.8,0.9,1.4,3.3,2.7,1.3c1.9,0.1,3.7,0.2,5.1,1.6
		c-0.3-1-0.5-2.1-0.8-3.1c0.2-0.4,0.6-1.3,0.8-1.7c0.5,1.5,0.9,2.9,1.4,4.4c0.7,0,2.1-0.1,2.8-0.1c0.3-0.3,0.9-0.9,1.2-1.2
		c0.4,0.3,1.2,0.8,1.6,1.1c0.4-0.6,1.1-1.8,1.5-2.3l0.1,1.6c1.2,0,2.5,0.1,3.7,0.2c0.4-0.9,0.9-1.8,1.4-2.8c0.2,0.8,0.5,2.3,0.6,3.1
		c0.6-0.4,1.7-1.2,2.2-1.5l0,2.7c0.5-0.5,1.5-1.6,2-2.2c-0.1,0.6-0.3,1.8-0.4,2.5c1.8-0.7,3.7-0.8,5.6-1l0.1,1
		c6.4,1.4,13.2,2.1,19.1,5.4c1.6,0.7,1.5,3.5,3.6,3c1.4-4.5,2.5-9.5,6-12.9c3.9-4.4,10.4-5.1,15.8-3.4c-0.4,0.6-1.2,1.8-1.7,2.5
		c1.8-0.1,3.5-0.3,5.3-0.4c-0.7,0.7-2,2.1-2.7,2.8h2c-0.1,0.6-0.2,1.8-0.2,2.5c0.6-0.4,1.7-1.2,2.3-1.6c0,1,0,2.9,0,3.9
		c0.6-0.4,1.7-1.2,2.3-1.6c0,1.4,0,2.8,0,4.3c0.5-0.3,1.5-0.9,2.1-1.1c0.1,7.3-1.5,15.2-6.9,20.4c-1,1.2-2.6,1.4-4,1.9
		c4.8,10.8,8.6,22.6,6.6,34.5c-1.1,6.3-3.1,12.7-7,17.9c-0.3-3.8,0-7.6,0.2-11.4c1.7-1.5,2.2-3.8,2.8-5.9c1.7-3.5,0.6-7.6,1.7-11.3
		c0.5-2.7-1.8-5-4.4-4.9c0.5,2.1,1.2,4.2,2.1,6.1l-1.9-0.5c0.2,1.5,0.5,2.9,0.7,4.3c-3.4,1.9-0.9,5.9-0.7,8.9
		c-0.5-0.2-1.6-0.7-2.2-0.9c0.2,7.2,1.7,15-1.7,21.7c-0.3-3-0.2-5.9-0.6-8.9c-0.7,3.8-0.5,7.6-1,11.4c-0.4-2.3-0.7-4.6-1.3-6.8
		c-0.6,4.5,0.8,9.7-2.3,13.5c-0.2-3.8-0.1-7.5-0.7-11.2c-0.2,1.5-0.3,3-0.4,4.5c-1.1,2.7-1.1,5.9-2.9,8.3c0-3.9,1.6-7.9,0.3-11.7
		c-0.6,2.1,0.4,5-1.7,6.6c0-1.1-0.1-3.3-0.2-4.4c-1.4,3.6-1.5,7.5-2.7,11.1l-1.3,0.8c0.3-3.7,2.1-7.4,1-11.1
		c-1.2,5.1-2,10.3-3.2,15.4c-0.1-3.4,0.2-6.8,0.4-10.1c0.3-1.3-0.3-2.4-1.1-3.2c-0.6,1.9-1.1,3.8-1.9,5.6c-0.2-1.2-0.6-3.5-0.7-4.7
		c-0.7,1.7-1,3.6-0.9,5.5c-0.4,0.1-1.1,0.2-1.5,0.3c0-0.8,0.1-2.4,0.2-3.2c-0.3,0.3-1,0.9-1.3,1.2c-0.9,5.6,1.1,12.5-3.4,17
		c0.1-0.7,0.4-2.1,0.6-2.8c-1.5-0.7-2.1-2.3-3.1-3.5c-0.8-3.4,1.6-6.8,0.4-9.9l-0.4-0.5c0-0.5-0.1-1.4-0.1-1.9
		c0.2-0.2,0.7-0.5,1-0.7c-2.1,2.6,2.3,2.2,2.4,4.6c-1,3.1-0.7,6.3-0.6,9.4c2.1-4.9,0.7-10.3,2-15.3c1.3,0,2-0.7,2.2-2.1
		c1.8,0,2.3-1.6,2.9-3c0.3-0.1,0.9-0.4,1.2-0.5c0-2.4,0-4.9-0.1-7.3c-0.6,1.1-1.1,2.3-1.3,3.6c-1.6,1.1-4.2,1.5-4.5,3.8
		c-1.5-0.4-2.5,0.1-2.9,1.5c-0.4-0.4-1.1-1.3-1.5-1.8c-0.7,1.4-1.4,2.8-2.1,4.2c-0.3-1-1-3-1.4-4c-0.7,0.3-2.1,0.8-2.8,1.1
		c-0.6,1.6-1.2,3.2-1.7,4.8c0.4-3.8,1.7-7.5,2.4-11.3c0,1.9-0.1,3.7-0.1,5.6c0.8-0.4,1.6-0.8,2.4-1.1c0-2.8,0-5.6-0.3-8.3l-0.7-0.3
		c-0.5,0.3-1.4,0.9-1.9,1.3c0.2-1.7,0.2-3.3,0.2-5c0.4,0.5,1.2,1.4,1.5,1.9c0.3-0.4,0.8-1.1,1.1-1.5c1.1,3.2,1,6.6,1.5,9.9
		c3.2-5.2-0.9-10.7,0-16.2c2.4,4.5,2.8,9.7,2.9,14.7c0.4-0.3,1.1-0.8,1.4-1.1c0.3-4.1,0.8-9.1-2.1-12.4c-0.2-1.2-0.3-2.4-0.5-3.6
		c4.1,3.5,2.8,9.1,4.5,13.7c1.3-3,1.3-6.3,1.2-9.6c0.5,1.8,0.8,3.6,1.4,5.3c2.1-0.5,0.7-3.9,1-5.5c0.4,0,1.3,0,1.8,0
		c-0.4-1.3-1.3-3.8-1.8-5.1l2.8,2.7c-0.1-0.7-0.4-2.1-0.6-2.8c1.2-0.4,2.3-0.8,3.5-1.1c0.9-1.5,0.5-4.1-1.6-4.5
		c0.8-0.6,1.7-1.3,2.5-1.9c-1.1-1.7-3.1-4.5-4.8-1.6l1.8,0.6c-1,0.6-1.9,1.1-2.9,1.7c-1.2-2.7,1-4.9,0.9-7.5l-1.5,0.1
		c0.5-0.7,0.9-1.5,1.2-2.3l0-0.9c0.2-1.4,0.4-2.9,0.6-4.3c-0.6,0.8-1.2,1.6-1.8,2.5c0.2,3.9-2.6,6.8-3.2,10.5l-1.6-0.4
		c0.2,2.4,2.4,5.3,4.9,5.3l-1.1-2.2c2.6-0.7,4.1,1.4,5.4,3.2c-2.8-3.5-5.2-0.2-5.8,2.5c0-1.7-1-3.1-1.5-4.6
		c-1.8,0.2-2.9-0.8-3.3-2.8c-0.2,1.6-0.2,3.2,0.1,4.8c-0.5-0.3-1.5-1-2-1.3c0,0.6-0.1,1.7-0.1,2.3c-0.5-0.4-1.5-1.3-2-1.7
		c1,3.1-2.5,2.3-4.2,3.5c0,0.5,0,1.5,0.1,2.1c-1.1-0.8-2.1-1.5-3.2-2.3c0,1.2,0.1,3.6,0.1,4.8c-1.2-1.6-2.3-3.3-3.4-5
		c0.6,0.3,1.7,0.8,2.2,1.1c1.2-2.4,2.9-4.7,1.6-7.5c0.7,0.1,2.1,0.2,2.8,0.3c-0.2-0.5-0.6-1.5-0.9-1.9c0.9-0.3,1.9-0.7,2.8-1
		c-2.5-1.4-0.6-2.2,0.6-3c0.8-2.4,3.3-4.2,2.9-6.9c-1.8,1.5-3.3,3.4-5.4,4.5c-3.8,1-6.8-2.8-10.6-2.2c-1.5,1.1-2.7,2.6-4.1,3.9
		c0.5-3.6,3.5-5.8,6.2-7.8c-4.1-2.9-7.7,1.7-8.8,5.3c-0.2,1.9-1.9,0.5-2.8-0.1c-2.1-2.5-0.7-6.1-1-9.1c-0.7,0.2-2,0.6-2.7,0.8
		c0.3-0.9,0.9-2.8,1.2-3.7c-2.8-1-0.3-3.5,0-5.3c-0.7,0.1-2,0.4-2.6,0.5c0.2-2.8,1.5-5.3,3.4-7.3l-2.7,0.6c0.7-0.8,2-2.4,2.6-3.1
		c-0.9,0.2-2.8,0.6-3.7,0.8c1.8-3.5,3.5-6.9,4.9-10.6c-3.5,1.1-4.6,4.8-6.3,7.6c-1-5.3-3.1-11.1-8.4-13.5c1.2,2.1,2.6,4.2,3.8,6.3
		c-1.9-1.4-3.9-2.7-6.1-3.7c1.5,1.7,3.1,3.2,4.5,5c-3.8-0.7-6.6-3.9-10.6-4.1c2.7,3.1,6.4,4.7,9.6,7.3c0.4-1.1,0.9-2.1,1.4-3.2
		c1.4,3.2,2.8,6.5,3.8,9.9c-0.6-0.1-1.9-0.3-2.5-0.4c0.4,0.5,1.3,1.5,1.8,2l-2-0.4c1.8,2.3,3,5.1,3.4,8c-1.3-1-2.8-1.6-4.4-1.9
		c1.1,2.1,2.4,4.2,3.3,6.5l-2.1-1.3c-0.1,1.2-0.4,2.4-0.8,3.6l-2.5-2.3l1.5,4c-1-0.7-2.1-1.3-3.2-1.8c0.6,1.5,1.4,3,2.2,4.4
		c0.2-0.6,0.7-1.7,0.9-2.3c0.4,0.5,1.2,1.6,1.6,2.2c0-1.8,0-3.8,1.1-5.3c0.8,3.8,0.6,8.2-2.2,11.1c-0.7-0.4-2.2-1.3-2.9-1.8
		c-0.2,0.7-0.6,2.1-0.8,2.8c-2.2-0.3-2.9-3.4-5.1-3.9c-3,0.2-4.8,3.7-7.9,3.2c-2.7,0.1-4.7-1.9-6.1-3.9c-0.7,0-2.1-0.1-2.8-0.1
		c0.5,0.4,1.6,1.2,2.2,1.7c-1.2,0.1-3.6,0.4-4.7,0.5c1.6,0.6,3.4,0.6,5.1,0.7c-0.2,0.5-0.5,1.4-0.7,1.9c1.1,0.5,2.3,1,3.4,1.5
		c-1,0.1-3,0.4-4.1,0.5c1.6,0.7,3.2,1,4.9,1.1c-2.3,0.9-4.6,1.9-5.8,4.2c0.6,0.2,1.9,0.6,2.6,0.9l-1.1,1.9c0.9-0.3,2.8-1,3.7-1.3
		c-0.7,0.8-2.2,2.5-2.9,3.3c1.1-0.2,3.2-0.6,4.3-0.9l-1.6,2.5c2.3-0.1,3.1-2.1,4.3-3.6c-1.7,2.9-2.7,7.6-6.9,7.5c-1-1.1-2-2.2-3-3.3
		c-0.3-1.3-1.4-1.9-2.6-2.3c-1.7,1.6-0.1,2.6,1.3,3.6c0,2.8-0.2,5.8-2.4,7.9c-0.1-1.7-0.2-3.5-0.4-5.2c-1.1,1.1-2.2,2.3-3.3,3.4
		c0-3.3,0.3-6.5,0.2-9.8c-1.4,0.9-2.7,2-3.9,3.1c0.4-1.9,0.8-3.7,1.2-5.6c-0.5-0.2-1.5-0.8-2-1c0.6-1.5,1.2-3.1,1.7-4.6
		c-3.6,0.5-3.4,5.6-6.3,7.5c0.3-1.2,0.6-2.4,0.9-3.6c2.6-2,2.9-5.4,3.9-8.3l-2,0.6c1.1-2.3,0.8-4.8-0.9-6.7c-1.5,0.8-3,1.9-3.1,3.8
		c0.5-0.3,1.4-0.9,1.8-1.2c0.6,0.4,1.2,0.8,1.8,1.2c-1.2,2.6-6.3,4.3-4,7.7c-0.5,1.9-1.1,3.8-1.5,5.8l1.4,0.1
		c-0.3,1.8-0.2,3.6,0.5,5.3c-0.1,2.3-0.2,4.6,0.4,6.8c2.3,1.3,2.2-3.1,2.5-4.3c3,2.4,0.7,7.2,2.3,10.5c0.5-1.2,1.5-3.6,2-4.8
		c-0.1,2.8-0.6,5.7,0.7,8.3c0.5-0.9,1.4-2.7,1.9-3.5c0.3,2.1,0.4,4.2,0.7,6.3c0.4-0.2,1.3-0.5,1.7-0.7c0.2,0.6,0.3,3,1.6,2.3
		c0.6-0.8,1.2-1.6,1.7-2.4c0.2,0.7,0.4,2.1,0.6,2.8c0.6,0.6,1.1,1.2,1.7,1.8l1-2c0.5,2.7,0.7,5.6-0.3,8.2l-0.8-3.4
		c-1.3,2-1.9,4.4-1.2,6.8c-0.2-1.9-1.9-3.8-1.1-5.7c1.9-0.8,1.9-3.3,0.3-4.5l-1.5,0.5l-1,0c-1.6-0.9-3.3-1.8-5-2.6
		c-0.1,1.1-0.2,3.2-0.3,4.2c-1.8-1.2-1.1-3.5-1.3-5.2c-0.6,0.7-1.9,2-2.6,2.7c0.2-1.8,0.4-3.6,0.5-5.3c-1,0.9-2,1.8-3,2.7
		c0.1-0.9,0.2-2.6,0.2-3.5c-1.1,0.7-2.3,1.4-3.4,2.1c0.3-1.9,0.7-3.8,1-5.7c-1.3,0.9-2.7,1.8-3.9,2.8c0.3-1.7,0.6-3.3,0.8-5
		c-0.7,0.3-2,0.9-2.6,1.2c0.2-1.3,0.4-2.5,0.6-3.8c-2.8,3.2-2.1,7.9-1.9,11.8c0.7-1.4,1.5-2.7,2.3-4c-0.1,2-0.2,4.1-0.4,6.1
		c0.5-0.1,1.5-0.4,2.1-0.6c-0.1,0.8-0.3,2.4-0.4,3.2c0.5,0.1,1.4,0.2,1.8,0.2c0.4,3.2,0.5,6.4,0.6,9.7c-2.4-1.9-2.7-5.1-2.9-7.9
		l-1.1,2.3c-0.8-2.4-1.8-4.7-3.1-6.9c-0.2,1.9-0.3,3.8-0.6,5.8c-2.2-2.1-1.5-5.3-2.8-7.8c-1-1.8-1.4-3.7-1.8-5.7
		c-0.8,0.5-1.6,1.1-2.4,1.6c-5-13.3-3.3-28.3,1.8-41.3c1.9-5.1,5-9.6,8.6-13.7c-7.4-3.9-9.6-13-8.8-20.8c0.2-1.4,1.4-2.4,2.4-3.4
		c0-0.6,0.1-1.9,0.2-2.5c0.7,0.1,2.1,0.2,2.8,0.2c0-0.9,0.1-2.6,0.1-3.5c1,0.4,2,0.9,3,1.3c-0.8-1.4-1.7-2.8-2.7-4.2
		C90,89.2,91.2,89.5,91.8,89.7z"/>
	<path class="st0" d="M164.7,88.7c0.7,1.1,0.7,2.4,0.9,3.7c-0.6,0.1-1.7,0.3-2.3,0.4C163.7,91.4,164.1,90,164.7,88.7z"/>
	<path class="st0" d="M169.9,96.2c0.7-2,1.7-3.8,3-5.4C172.8,93,171.7,94.9,169.9,96.2z"/>
	<path d="M96.9,97.6c1.7,0.2,3.7-0.8,5.3,0.3c4.3,2.1,5.2,7.1,7.5,10.8l1.4-0.6c-0.2,1.1-0.5,2.2-0.7,3.3c-7.3,1.6-9.6,10-16.4,12.6
		c0.2-0.7,0.6-2,0.8-2.7c-3.2-3.7-3.7-8.5-5.4-12.9c0.4-0.2,1.1-0.6,1.4-0.7c-0.2-0.7-0.7-2-1-2.6l2,0.6c-0.2-0.8-0.6-2.3-0.8-3.1
		c2.2-0.1,2.4-1.9,2.5-3.7c1.4,0.5,2.8,1.1,4.2,1.7C97.5,99.7,97.1,98.3,96.9,97.6z"/>
	<path d="M202.9,98.9c1.6-1.6,3.8-1.9,6-2c0,0.9-0.1,2.6-0.1,3.4c1.4,0,2.9,0,4.3,0c-0.8,1.3-1.6,2.7-2.3,4c1.5-0.7,3-1.4,4.4-2.1
		c0.5,0.2,1.4,0.7,1.9,0.9c-1.1,1.8-2.5,3.3-4.2,4.6c1-0.1,3-0.4,4-0.5c-0.2,1.5-0.7,3.1-0.2,4.6l-0.6,0.3c0.7,1.2,0.8,2.5,0.4,3.8
		l1.3,0.1c-1.5,2.3-2.8,5.1-6,4.9c1.2,6.4,2.8,12.8,2.1,19.3c-2.4-6.2-3.8-12.8-6-19.1c-2.6-5.1-7.6-8.2-11.6-12.1
		C199.6,106.6,199.6,101.6,202.9,98.9z"/>
	<path d="M145.3,101.8c1,1.6,1.8,3.3,2.6,5.1c1-1.5,1.9-3,2.6-4.6c0.4,0.8,0.8,1.7,1.3,2.5c0.4-0.7,1.2-2.1,1.7-2.8
		c0,0.6,0.1,1.9,0.2,2.6c0.6-0.3,1.9-0.9,2.5-1.2c-0.4,1.1-0.8,2.3-1.2,3.4c-0.4-0.5-1.2-1.4-1.6-1.8c-0.3,0.5-0.8,1.6-1.1,2.1
		c-0.4,0-1.4,0-1.8,0c-0.8,1.3-1.8,2.4-3,3.2C145.4,107.8,145.1,104.7,145.3,101.8z"/>
	<path d="M154.2,110.1c0.8-2.8,2.4-5.6,5.4-6.3l0.2,1.9c1.3-0.4,2.6-0.8,3.8-1.2c0,0.4,0,1.3,0,1.7c2.1-0.5,3.8,0.9,5.7,1.6
		c-2.8,1.3-5.8,0.6-8.4-0.8c-1.1,0.5-2.2,0.9-3.4,1.2C156.7,108.6,155,109.6,154.2,110.1z"/>
	<path d="M128,106.2c2.2,0.9,4.6,1.6,6.5,3.3c1.8,1.6-1,2.5-2.3,2c-0.7,1.5-2.3,1.2-3.6,1.2c-1.7-1.2-3.6-1.9-5.7-1.9
		c0.6,0.9,1.2,1.8,1.9,2.8c-2.1-0.9-4.1-3.2-6.5-2.3l-0.2,0.4c1.3,0.5,2.3,1.5,3.3,2.6c-0.8,0-2.5,0-3.3-0.1
		c-0.1,0.4-0.3,1.1-0.5,1.4c-0.6,0-1.7-0.1-2.3-0.1c0.2-0.4,0.8-1.1,1-1.5c0-0.4-0.1-1.2-0.1-1.5c0.6-0.8,1.1-1.7,1.6-2.5
		c1.7,0.2,3.4,0.4,5.2,0.7c0.9-0.3,2.8-0.9,3.7-1.2l-2.4-1.7c2,0.4,3.9,0.9,5.9,1.4C129.6,108.5,128.6,107,128,106.2z"/>
	<path d="M168.9,109.9c1.1-2.2,5.4-4.8,6.8-1.7c0.5,0,1.5,0.1,2,0.2l0.6,0.3c1.1,0.6,2.2,1.2,3.2,1.9c-1.5,0.2-3.1,0.3-4.6,0.4
		c-0.2-0.3-0.6-0.8-0.8-1.1c-1.1-0.7-2.3,0.6-3.5,0.8c0.1-0.6,0.3-1.8,0.4-2.5C171.6,108.9,170.2,109.4,168.9,109.9z"/>
	<path d="M180.2,112.2C180.9,112.8,180.9,112.8,180.2,112.2z"/>
	<path d="M183.8,114.2c2.8-0.5,5.8-0.1,7.8,2.2c-0.8,0.5-1.6,1-2.5,1.5c2.4,0.2,3.6,2.4,4.7,4.2c-2.3-1.3-4.4-2.9-6.5-4.4
		c0.9-0.5,1.7-1.1,2.6-1.6C187.8,115.5,185.8,114.9,183.8,114.2z"/>
	<path d="M184.4,121.1c0.2,0,0.7,0,1,0c0.6,2.4,2.4,4.3,2.4,6.9c-0.5-0.4-1.6-1.2-2.1-1.5c0-1.2-0.1-2.4-0.1-3.6
		C185.2,122.5,184.7,121.6,184.4,121.1z"/>
	<path d="M189.7,122c2,1.1,5.3,2.7,3.5,5.4c0.7,1.7-0.2,3.3-0.7,4.9c-0.7-1.2-1.4-2.5-2.1-3.8c1.4-1,1.4-1.7-0.1-2.1
		c0.9-0.3,1.8-0.7,2.6-1.1C191.6,124.4,190.6,123.4,189.7,122z"/>
	<path d="M112.3,123.3c0.6,0,1.7,0.1,2.3,0.2c0,0.6,0,1.9,0,2.6c-1.2-0.2-2.4-0.5-3.6-0.8c0.4-0.2,1.3-0.6,1.7-0.8L112.3,123.3z"/>
	<path d="M158,125.5c1,1.3,2.5,1.8,4.1,1.8c-1.8,0.9-3.4,1.9-5,3.1c-0.1-0.5-0.2-1.6-0.3-2.1c-0.6,0.4-1.7,1.2-2.2,1.7
		C155.1,128.1,156.4,126.6,158,125.5z"/>
	<path d="M87.4,130.4c1.4-2.5,3.6-4.7,6.6-5c-1.2,1.7-2.7,3-4.2,4.4c0.8-0.1,2.4-0.4,3.2-0.5c-1.4,2.5-3.7,4.2-5.7,6.2
		c0.7,0.1,2,0.2,2.6,0.3c-1,1.7-2.1,3.2-3.3,4.7c0.3,0.2,0.9,0.7,1.2,1c-0.9,1.3-1.7,2.6-2.6,3.9c0.7,0.1,2,0.4,2.7,0.5
		c-0.4,1.8-1.4,3.2-2.4,4.6c0.6,0.1,2,0.3,2.6,0.4c-0.9,1.2-2.3,1.8-3.4,2.7c0.8,0.1,2.4,0.2,3.2,0.2c-1.3,1.6-2.4,3.4-3,5.3
		c1.2-1.4,2.4-2.7,4.1-3.4c-1.1,1.8-1.5,3.7-1.4,5.8l1.6-0.4c-2.4,2.5-3.5,5.8-3.2,9.2c1.2-2.4,2.1-5.1,4.6-6.4
		c-0.3,1-1.1,3-1.4,3.9c0.4-0.1,1.3-0.3,1.8-0.4c-2.3,2.9,0.4,6.9-2.4,9.4c-0.1-0.5-0.2-1.5-0.2-2c-2.7,0-1.8-3.1-1.6-4.8l-1.6,0.7
		c-1.8-2-0.6-5.3-2.7-7.2c-0.3-2.3,0-4.6,0.4-6.8c-0.3-0.7-0.8-2.2-1.1-2.9C82.2,145.8,84.7,138,87.4,130.4z"/>
	<path d="M130.5,126.6c1.9,0.3,4.4-0.6,6,0.8c0.2,0.7,0.5,2.1,0.7,2.8c-0.5-0.4-1.4-1.2-1.9-1.5c-0.2,0.3-0.5,0.9-0.7,1.2
		C133.2,128.8,131.8,127.8,130.5,126.6z"/>
	<path d="M126.7,127.9c1.9,0.2,3.8,0.9,4.2,3C129.2,130.4,127.2,129.9,126.7,127.9z"/>
	<path d="M160.6,130.9c1.2-1.9,3.4-2.1,5.4-1.9l-1.9,1.1c1.5,0.8,3,1.4,4.3,2.5c-1.4,0.1-2.8,0.2-4.1,0.2c-0.1-0.6-0.4-1.8-0.5-2.3
		C163,130.6,161.4,130.8,160.6,130.9z"/>
	<path d="M125.2,130.2c1.6-0.4,2.2,0.2,1.7,1.8C125.3,132.4,124.8,131.8,125.2,130.2z"/>
	<path d="M207.4,130c0.2,0.9,0.3,1.8,0.3,2.8c1.7,1.1,0.8,3.3,1.2,4.9c0.6,1.1,1,2.3,1,3.6C206.9,138.3,207.1,133.9,207.4,130z"/>
	<path d="M99.1,131.4c1.2-0.2,2.4-0.3,3.6-0.5c-0.4,1.2-0.4,2.4-0.3,3.7c-1.5,0.1-3.1,0.2-4.6,0.2c0.4-0.4,1.3-1.1,1.8-1.5
		C99.5,132.9,99.2,131.9,99.1,131.4z"/>
	<path d="M186.4,132.4C189.8,132.7,184.9,135.3,186.4,132.4z"/>
	<path d="M168.9,132.8c2,0.3,3.9,1.1,4.2,3.4C171.3,135.6,170.1,134.1,168.9,132.8z"/>
	<path d="M110.7,133.9c0.8,0.1,2.4,0.2,3.2,0.3c0,0.6-0.1,1.9-0.2,2.5l1.7,0.2c-1.4,1.1-3.2,1.6-5,1.6
		C111.6,137.4,113.7,134.5,110.7,133.9z"/>
	<path d="M192.7,136.8c1.3-1.1,2.7-2.2,4.2-3c-0.3,1-0.7,1.9-1.1,2.9C195.1,136.7,193.5,136.8,192.7,136.8z"/>
	<path d="M155.4,136.4c0.7-0.3,1.3-0.6,2-0.9c0.1,0.6,0.2,1.8,0.3,2.4c-0.8,0.5-1.6,0.9-2.4,1.4
		C155.3,138.5,155.4,137.1,155.4,136.4z"/>
	<path d="M184.9,136.8c0.1-0.7,0.2-2,0.3-2.7c2.4,1.6,0.7,3.8-0.2,5.6c0.1,0.1,0.4,0.4,0.6,0.5c-0.8,0.6-1.6,1.2-2.4,1.8
		c-0.2-0.5-0.6-1.4-0.8-1.9c0.5-1.1,1-2.2,1.5-3.4L184.9,136.8z"/>
	<path d="M99.2,136.2c0.7,0.1,2.1,0.3,2.8,0.4c-1.1,0.9-2.3,1.6-3.6,2.2C98.6,138,98.9,137.1,99.2,136.2z"/>
	<path d="M126.2,141.2c1.1-3.9,6-6,9.7-4.3c2,0.8,2.2,3.1,2.8,4.9c-2.3-0.5-4.3-2.5-6.7-2.2C130,140.1,128.2,140.8,126.2,141.2z"/>
	<path class="st0" d="M148.1,137.5c3.1,3.9,7.3,7.4,8.6,12.5c1,3,3.4,5.1,4.3,8.1c3.3,9.3,1.1,19.2,0.3,28.8c0,2.3-2,4.1-4.3,3.7
		c-3.2-0.6-6.1-2.6-9.5-2.4c0.2-3,3.4-3.8,5.5-5.3c3.3-2,6.6-5.6,5.6-9.8c-1.1-3.8-2.5-7.6-2.9-11.5c-0.8,0.8-1.5,1.6-0.8,2.8
		c0,0.6-0.1,1.6-0.1,2.2c-0.7,0.1-2.1,0.4-2.8,0.6c1.2,0.7,2.4,1.4,3.6,2.1c-0.2,0.6-0.5,1.7-0.7,2.3c-4.8-0.4-9.6-0.6-14.5-0.7
		c0.2-3,3.7-2.8,5.6-4.5c-2.5-0.4-5.2-0.6-7.3,1.2c-0.6-1.2-1.1-2.4-1.1-3.7c-2.6,0.5-1.3,3.6-0.3,5.1c-3.7,2.4-4.1,8.6-0.5,11.2
		c3.2,2.8,8.3,3.8,9.1,8.6c-3.6,0.6-7.3,1.2-11,1.3c-2.5-3.1-3.6-7.1-3.4-11c0.1-10.5,6.4-19.7,7.5-30.1
		C143.4,146.5,146.4,142.4,148.1,137.5z"/>
	<path d="M191.8,139.6c1.4-0.8,4.2-1.7,3.8,1C194.2,141.1,192.9,140.4,191.8,139.6z"/>
	<path d="M192.1,142.9c0.1-1.8,3-1.3,3.2,0.2C195.2,144.9,192.2,144.4,192.1,142.9z"/>
	<path d="M206.9,141.6c2.2,2,2.4,5.1,3.4,7.8c-0.2,0.2-0.7,0.7-0.9,1c0.1,1.3,0.2,2.6,0.2,3.9l-0.8-3.2c-1.3,1.6-1,3.5-0.3,5.4
		l-1.5-0.3c0,2.4,0,4.7,0,7.1c-0.8,1.1-1.5,2.1-2.3,3.2c-0.8-3.2-1.5-6.4-2.2-9.7c0.9,1.1,1.7,2.2,2.5,3.2c-0.7-3.2-1.9-6.4-2.8-9.5
		c1.9,1.2,2.6,3.3,3.7,5.1c-0.4-2.9-1.3-5.8-1.9-8.7c1.3,1.2,2.7,2.4,2.9,4.4c0.4-0.1,1.3-0.3,1.7-0.4c-0.9-2-1.9-4-2.7-6.1
		c0.8,0.7,2.3,2.1,3.1,2.8C208.3,145.6,207.5,143.6,206.9,141.6z"/>
	<path d="M111.3,144.1C114.1,142.4,111.6,147.4,111.3,144.1z"/>
	<path d="M192.1,145.4c1.4-0.8,3.5,1.2,2.8,2.7C193.5,149.1,191,146.8,192.1,145.4z"/>
	<path class="st0" d="M166.5,149.5c1.4-1.2,2.4-3.1,4.2-3.6c-0.1,0.5-0.3,1.6-0.4,2.1c-1.8,1.9-3.7,3.5-6.2,4.4
		c-0.9-0.3-1.8-0.6-2.6-0.9C163.2,150.9,165.2,150.8,166.5,149.5z"/>
	<path d="M110.8,147.3c0.6-0.1,1.2-0.1,1.9-0.1c0.1,0.4,0.3,1.3,0.4,1.7l0.4,0.7c0,0.3,0,0.9,0.1,1.2c0.6,0.3,1.7,0.9,2.2,1.1
		c-1.1,0.3-2.2,0.5-3.3,0.7c0.1-0.6,0.2-1.8,0.3-2.4c-0.6,0-1.7-0.1-2.2-0.1C110.6,149.1,110.8,148.2,110.8,147.3z"/>
	<path class="st0" d="M127.7,146.8c2.8,1.3,5.6,3.5,8.9,2.6c-0.2,0.4-0.5,1.2-0.6,1.7C132.7,151.2,128.3,150.8,127.7,146.8z"/>
	<path class="st0" d="M120.2,152.7c-0.1-1.5,1.7-2.8,3.1-3.1C124.9,150.8,121.4,152.8,120.2,152.7z"/>
	<path d="M111.2,155.6c1.3,0.2,1.6,0.9,0.8,2.1C110.6,157.6,110.4,156.9,111.2,155.6z"/>
	<path d="M155.2,155c1.6-0.3,2.2,0.3,1.8,1.8C155.4,157.2,154.8,156.6,155.2,155z"/>
	<path d="M115.1,156.4C115.7,157.1,115.7,157.1,115.1,156.4z"/>
	<path class="st0" d="M184,156.9c1.4,2.2,2.8,4.5,3.6,7C185.5,162.1,184.4,159.5,184,156.9z"/>
	<path class="st0" d="M85.3,160.2C85.7,160.9,85.7,160.9,85.3,160.2z"/>
	<path d="M137.3,161.1c1.3-0.6,1.8-0.1,1.3,1.3C137.3,163,136.8,162.5,137.3,161.1z"/>
	<path class="st0" d="M105.6,161.9c1.4,2.6,0.8,5.7-1.6,7.5C103.8,166.8,104.5,164.3,105.6,161.9z"/>
	<path d="M201.3,160.5c2.7,2,2.9,5.7,1.3,8.4C202.1,166.1,201.8,163.3,201.3,160.5z"/>
	<path d="M208.7,163.8c1.8,2.6,2.2,6.8-0.3,9.1C208.1,169.9,207.3,166.7,208.7,163.8z"/>
	<path class="st0" d="M172.9,164.9c1.4-0.5,1.8,2.9,0.3,2.6C173.1,166.9,173,165.6,172.9,164.9z"/>
	<path d="M199.9,166.2c1.5,0.7,1.6,4.7,0.4,5.6C199.8,170.1,199.2,167.9,199.9,166.2z"/>
	<path d="M197.8,171.8c0.4-1.3,0.8-2.7,1.1-4c0.1,1.1,0.4,3.3,0.6,4.4c-1.9,0.8-1.9,2.5-1.7,4.2c-0.7,0.1-2.1,0.2-2.8,0.2
		c-0.4-1.3-0.8-2.6-1.2-3.9c0.6,0.7,1.9,2,2.5,2.6c-0.1-1.8-0.2-3.5-0.4-5.3C196.3,171,196.9,171.6,197.8,171.8z"/>
	<path d="M205.9,172.7c0.1-1.4,0.1-2.9,0.9-4.2c0.3,2.4,0.8,5.2-0.8,7.3c-1.4,0.8-2.7,1.7-3.9,2.8c0.1-1.4,0.3-2.7,0.4-4.1
		C203.6,174,204.7,173.3,205.9,172.7z"/>
	<path class="st0" d="M120.3,180.1c-3.3-2.3-2.6-6.7-0.8-9.7C120.1,173.6,120.4,176.8,120.3,180.1z"/>
	<path class="st0" d="M171.3,170.6c1.4,4.1,0.8,8.4,0.1,12.6C170.9,179,170.7,174.8,171.3,170.6z"/>
	<path class="st0" d="M139.3,176.3c0.7-1,1.5-1.9,2.2-2.9c1.4,1.6,1.7,4.4-0.1,5.9c0-0.8,0.1-2.2,0.1-3
		C140.9,176.3,139.8,176.3,139.3,176.3z"/>
	<path d="M192.6,179.7c-1.4-0.7-1.6-4.6-0.2-5.3C193.1,175.9,193.3,178,192.6,179.7z"/>
	<path class="st0" d="M109.1,175.3C112.5,175.6,107.4,178.1,109.1,175.3z"/>
	<path class="st0" d="M149.1,178.9c-0.9-1.8,0.3-3.2,1.5-4.4c0.2,0.4,0.8,1.1,1,1.5C150.8,177,149.9,177.9,149.1,178.9z"/>
	<path class="st0" d="M101.6,199.2c-3.8-5.6-5.6-13.1-3.1-19.5c0.2,3.3-0.1,6.6-0.3,9.9c0.5-0.7,1.6-2,2.1-2.6
		c0.4,1.4,0.8,2.8,1.3,4.2l-0.2-2.4c3,0.2,1.3,3.6,1.9,5.3c0.7-2,0.7-4.2,1.2-6.3c0.5,3.7,1.1,8.3-1.4,11.4
		c-0.1-0.7-0.3-2.2-0.4-2.9C102.4,197,101.9,198.5,101.6,199.2z"/>
	<path class="st0" d="M184,186.5c-1.6,0.6-1.6-2.8-0.1-2.2C183.9,184.9,184,186,184,186.5z"/>
	<path class="st0" d="M107.3,189.4c1.2,3,1.2,6.3,0.8,9.5c1.2-1.6,1.5-3.4,1.6-5.3c1.5,2.1,1.4,4.8,1.5,7.3c0.9-1.8,0.8-4,1.1-6
		c0.5,1.7,0.9,3.3,1.3,5l1.5-0.7c-0.5,1.4-1.1,2.7-1.9,3.9l0.5-2.3c-0.6,0-1.7,0-2.3,0c0.7,1.8,1.4,3.6,2,5.5c-2.5-1.4-3-4.4-3.6-7
		c-0.6,0.8-1.1,1.5-1.7,2.3C106.4,197.7,107.4,193.4,107.3,189.4z"/>
	<path class="st0" d="M138.3,192.9c2.2-0.3,4.3-0.5,6.5-0.7c0.5,4.1,0,8.8,2.9,12.1c-0.2-4.1-1.7-8.4,0.4-12.2
		c2.1,0.6,6.1-0.2,6.2,2.9c0.7,4.3,0.2,8.8-1.3,12.9c-0.8,1.8-2.2,4.1-4.6,3.8c0.3,1.3,0.6,2.7,0.9,4c-0.6-0.9-1.2-1.8-1.7-2.7
		c-1.4-1.1-2,1.2-2.7,2c0.2-1.2,0.4-2.3,0.5-3.5c-2,0.4-2.9-1.8-3.8-3.1C139.3,203.7,138.7,198.2,138.3,192.9z"/>
	<path class="st0" d="M133.1,192.7c0.3,0.2,0.9,0.7,1.2,0.9c0.3,3.2,0,6.4,1,9.5l0.6,0.1c1.3-0.6,0.5-2.5,1.5-3.4
		c0.9,2.4,1.3,5,1.8,7.5c-1.1-0.6-1.7-2.1-3.1-2.2c-0.7,2.2,0.8,4.3,1.3,6.4c1.8,4.2,2.4,10,7.4,11.8c-0.6,1-1.2,2.1-1.8,3.1
		c0,0.9,0,2.6,0,3.5c-1.1-1.8-1.8-3.8-2.4-5.8c-0.6,0.1-1.9,0.3-2.5,0.4c-2-3.6-4.2-7.2-7.1-10.2c0.1,1.2,0.4,3.5,0.5,4.7
		c-3-5.6-8.8-9.5-10.6-15.7c-0.5,0.6-1.1,1.3-1.6,1.9c0.3,0.9,0.9,2.6,1.2,3.4c-0.6-0.3-1.1-0.5-1.7-0.8c-0.9-3-0.9-6.2-0.4-9.3
		c0.2,0.7,0.7,2.1,1,2.8c0.9,0.6,1.7,1.4,2.4,2.1c0.2-0.7,0.8-2.1,1-2.8c-0.2,1-0.5,3.1-0.7,4.2l1.2-0.6c1.5,2,2.9,4.9,5.9,4.3
		c0.7,1.3,1.3,2.5,2,3.8c3.4,1.6,4.2,5.8,6.8,8.2c0.5-0.6,1-1.1,1.6-1.7C135.2,211,133.3,201.8,133.1,192.7z"/>
	<path class="st0" d="M177.2,193.2C177.9,193.8,177.9,193.8,177.2,193.2z"/>
	<path class="st0" d="M189.7,195.7c0.4-0.8,1.1-2.3,1.4-3.1c-0.1,1.8-0.2,3.6-0.3,5.4c-0.5-0.5-1.5-1.6-2-2.1
		c-0.3,1.4-0.7,2.7-1.1,4.1c-0.8-1.4-1.8-2.7-1.9-4.3C187.1,195.2,188.4,195,189.7,195.7z"/>
	<path class="st0" d="M177.4,196.8c0.1,0.5,0.4,1.6,0.5,2.2l1.1,0.1c-0.7,2.8-0.2,6.1-2.1,8.5c-0.5,2.6-1.2,5.1-2.5,7.4
		C175.2,208.8,178,203,177.4,196.8z"/>
	<path class="st0" d="M167.5,197.6c1.8,2.3-0.8,5.4-2.1,7.3c-0.4,1.9-0.4,3.7-0.1,5.6l0.8-4.2c0.3,0.6,0.7,1.2,1,1.8
		c-0.6,1.4-1.2,2.7-1.7,4.1c-0.1-0.6-0.2-1.8-0.3-2.3c-0.3-0.1-0.9-0.2-1.2-0.3c-0.1,2.4-0.6,4.9-2.2,6.7c0.2-2.8,2.3-5.8,0.5-8.5
		c-0.2,0.9-0.5,2.8-0.7,3.7c-0.1-2.1-1.8-2.9-3.5-3.5c3.7,0,2.4-5.1,4.7-7.1c-0.3,2.2-0.9,4.3-2,6.2c1,0.1,2.1,0.8,3.1,0.6
		C165.2,204.4,166.1,200.9,167.5,197.6z"/>
	<path class="st0" d="M104.1,199.8c0.3,0.2,0.9,0.5,1.2,0.6l-0.5,0.8l-0.9-0.1l-0.4-0.9L104.1,199.8z"/>
	<path class="st0" d="M157.6,199.9c1.1,2.5,1.4,5.5-0.7,7.6C154.2,205.8,157.2,202.1,157.6,199.9z"/>
	<path class="st0" d="M174.4,207.4c0.2-2.2-0.8-5.2,1.4-6.7C176,203.1,175.6,205.4,174.4,207.4z"/>
	<path class="st0" d="M115.2,202.3c1.2-0.4,2.5,1.5,1.7,2.5C115.7,205.4,114.6,203.3,115.2,202.3z"/>
	<path class="st0" d="M168.1,203.2c0.9,0.4,1.7,0.8,2.6,1.1c-0.1,0.8-0.2,2.5-0.3,3.3l1-0.1c-0.2-2,0.4-3.7,1.7-4.9
		c-0.1,3.9,0,8.2-2.1,11.7c-0.2-2.2-0.3-4.4-0.3-6.6c-0.5,3.1-1.4,6.1-2.7,8.9c-0.5-1.3-1.1-2.6-1.7-3.8c1.1-2.6,2.1-5.1,3.3-7.6
		c-0.8,0-1.6,0.2-2.4,0.2C167.2,204.7,167.5,203.9,168.1,203.2z"/>
	<path class="st0" d="M179.1,205.1C182.4,205.4,177.5,208.1,179.1,205.1z"/>
	<path class="st0" d="M157.7,209.8c0.1,2.2-0.7,4.2-1.7,6.1c-1.3,2.1-2.8,4.1-4.2,6.1c1.5,0,2.7-0.7,3.9-1.5
		c-0.8,1.8-1.5,3.6-2.1,5.4c-0.3-0.5-0.9-1.4-1.2-1.9c-0.5,1.1-0.9,2.1-1.4,3.2c-0.3-0.6-1-1.9-1.3-2.5c-0.5,2.5-0.7,5.1-1.3,7.6
		c-0.1-1.7,0-3.4,0.1-5.1c-1.5-0.9-2.7-2.2-3.4-3.9c4.2-0.1,7.3-3.1,9.6-6.3c-0.5-0.5-0.9-1-1.4-1.5c-3.5,4.8-12.4,3.3-14.3-2.4
		c3.9,3.5,9.5,4.3,14.2,1.9c-0.9-0.5-1.7-0.9-2.6-1.4l2.4,0.4l-0.4-2.7c0.6,1.2,1.1,2.4,1.7,3.5c0.6-0.3,1.7-0.8,2.2-1
		C156.8,212.4,157.2,211.1,157.7,209.8z"/>
	<path d="M140.9,222.2c-1.4,1.9-2.8-2-0.6-1.6C140.4,221,140.7,221.8,140.9,222.2z"/>
</g>
<g id="Layer_2">
</g>
</svg>
