<?xml version="1.0" encoding="utf-8"?>
<!-- Generator: Adobe Illustrator 21.1.0, SVG Export Plug-In . SVG Version: 6.00 Build 0)  -->
<svg version="1.1" id="Layer_1" xmlns="http://www.w3.org/2000/svg" xmlns:xlink="http://www.w3.org/1999/xlink" x="0px" y="0px"
	 viewBox="0 0 36 36" style="enable-background:new 0 0 36 36;" xml:space="preserve">
<g>
	<path d="M30.4,12.9c0.4,1.1,0.6,2.4,0.5,3.8c-1.1-3.2-1.7-5.1-2-5.4c-0.8-1.1-2.1-2.1-3.9-3c0.8-0.9,1.9-1.3,3.1-1.1
		c-0.9,0.2-1.5,0.7-1.8,1.3c0.9-0.5,1.5-0.7,1.8-0.7c0.6,0,1,0.1,1.3,0.4c0.2,0.2,0.3,0.5,0.3,0.9c0-0.1,0,0.3-0.1,1.2
		c0.3-0.8,0.4-1.4,0.5-1.8c0.1-0.7,0-1.3-0.4-1.7c-0.5-0.6-1.3-0.9-2.2-0.8c-0.7,0.1-1.8,0.6-3.3,1.6C23.7,7.8,23.3,8,23.1,8
		c0,0-0.4-0.1-1.2-0.2c-1.7-0.3-3-0.5-3.9-0.5c-0.9,0-2.3,0.2-4,0.5C13.1,8,12.7,8,12.8,8c-0.2,0-0.9-0.4-2.1-1.2
		C9.8,6.3,9,5.9,8.3,5.9c-1-0.1-1.7,0.2-2.2,0.8c-0.3,0.4-0.5,1-0.4,1.7c0,0.1,0.1,0.7,0.4,1.8c0-0.1,0-0.3,0-0.6c0-0.3,0-0.5,0-0.6
		c0-0.5,0.1-0.8,0.3-0.9c0.3-0.2,0.7-0.4,1.2-0.4c0.4,0,1,0.2,1.8,0.7c0.1,0,0.1,0,0.1,0c-0.4-0.7-1-1.1-1.8-1.2
		c1.1-0.3,2.1,0.1,3.1,1.1c-2,1.1-3.3,2.2-4,3.2c-0.3,0.4-0.9,2.2-1.9,5.3c0-1.4,0.2-2.7,0.5-3.8c0.3-1,0.5-1.4,0.5-1.4
		c0-0.4-0.1-1-0.3-1.8C5.3,9,5.2,8.4,5.3,8c0-0.7,0.3-1.2,0.9-1.7c0.6-0.5,1.2-0.7,2-0.7c0.7,0,1.8,0.6,3.3,1.6
		c0.5,0.4,0.9,0.5,1.1,0.6c0.1,0,0.6-0.1,1.4-0.2c0.6-0.1,1-0.2,1.3-0.2c1.6-0.2,2.5-0.4,2.8-0.4C18.9,7,20.2,7.2,22,7.5
		c0.8,0.1,1.2,0.2,1.2,0.2c0.2,0,0.5-0.2,1-0.5c1.6-1,2.7-1.6,3.4-1.6c0.7-0.1,1.4,0.1,2,0.6c0.6,0.4,0.9,1,0.9,1.7
		c0,0.5,0,1.1-0.2,1.8c-0.2,0.8-0.4,1.3-0.4,1.7C29.9,11.5,30.1,12,30.4,12.9z M30.3,19c0.3-0.4,0.4-1,0.5-1.8c0.3,1.9,0,3.9-1,6
		c-1,2.1-2.3,3.2-3.9,3.5c0,0,0.1-0.1,0.2-0.4c0.2-0.4,0.4-1,0.5-1.7c-0.6,1.3-1.6,2.4-3.2,3.6c0-0.1,0-0.2,0.1-0.4s0-0.3,0.1-0.4
		c-0.6,0.5-1.3,1.2-2,2c-1.1,1.3-2.2,1.8-3.5,1.4c-1.2,0.3-2.3-0.1-3.3-1.1c-0.1-0.1-0.5-0.5-1.1-1.3c-0.5-0.5-0.8-0.9-1.2-1.1
		c0,0.1,0,0.2,0.1,0.4c0,0.2,0.1,0.3,0.1,0.4c-0.6-0.4-1.2-0.9-1.8-1.5c-0.7-0.7-1.1-1.4-1.4-2.1c0,0.9,0.2,1.6,0.7,2.2
		c-1.5-0.2-2.7-1.1-3.6-2.8c-0.9-1.6-1.4-3.2-1.5-4.9c0-0.7,0-1.3,0.1-1.8c0,0.8,0.2,1.4,0.4,1.8c0.1-1.5,0.7-3.5,2-5.9
		c-1.1,2.6-1.4,4.9-0.7,6.9C7.2,21.3,8,22.3,9.3,23c0.2,0.1,0.4,0.2,0.6,0.3c0.4,0.1,0.6,0.2,0.7,0.3c0.2,0.1,0.6,0.5,1.1,1.1
		c0.3,0.4,0.6,0.8,0.8,1.2c-0.4-1.8-0.6-3.2-0.8-4.1c0,0,0.1,0.1,0.1,0.2c0.2,0.6,0.5,1.4,0.8,2.6c0.4,1.2,0.6,2.1,0.8,2.6
		c0.5,1.3,0.9,2.1,1.2,2.4c0.7,0.8,1.6,1.2,2.5,1.2c0.1,0,0.2,0,0.4-0.1c0.2,0,0.3-0.1,0.4-0.1c0.1,0,0.2,0,0.4,0.1
		c0.2,0,0.3,0.1,0.4,0.1c0.6,0,1.2-0.2,1.8-0.5c0.5-0.3,0.9-0.7,1.2-1.2c0.1-0.1,0.3-0.7,0.7-1.8c0.2-0.6,0.5-1.5,0.9-2.8
		c0.4-1.3,0.7-2.2,0.9-2.8c0,0.6-0.3,2-0.7,4.1c0.1-0.1,0.4-0.5,0.8-1.2c0.4-0.6,0.7-0.9,1-1.1l0.1,0c1.1-0.4,1.9-0.9,2.5-1.4
		c0.7-0.7,1.2-1.6,1.4-2.5c0.5-2.3,0.2-4.5-0.8-6.5c1.3,2.3,1.9,3.4,1.9,3.4S30.2,17.3,30.3,19z M9.1,14.2c0.1-0.1,0.2-0.1,0.2-0.1
		c-0.6,1.4-0.7,3-0.2,4.8c0.4,1.5,1.1,2.7,2.1,3.7c-1-0.5-1.8-1.3-2.4-2.4c-0.6-1.2-0.8-2.5-0.6-4C8.3,15.3,8.6,14.7,9.1,14.2z
		 M10.5,11.2c0.4-0.5,0.6-0.8,0.7-0.9c0.3-0.3,0.7-0.4,1.1-0.4c0.5,0,1.2,0.5,2.2,1.4c-1.1-0.5-1.9-0.7-2.4-0.7
		c-0.8,0.1-1.7,0.8-2.6,2.1C9.7,12.3,10,11.8,10.5,11.2z M13.3,12.9c0.2-0.3,0.4-0.4,0.4-0.4c0-0.1-0.2-0.2-0.5-0.4
		c-0.3-0.2-0.6-0.3-0.7-0.3c-0.2,0-0.3,0.1-0.3,0.3c0,0.2,0.1,0.3,0.4,0.3c0.1,0,0.2,0,0.3,0.1c0.1,0,0.2,0,0.3,0.1
		c-0.4,0.2-0.7,0.2-1,0c-0.3-0.2-0.5-0.5-0.5-0.9c0.4-0.3,0.8-0.3,1.3-0.1c0.3,0.1,0.6,0.4,1.1,0.8c-0.9,1-1.7,2.3-2.3,4.1
		C12.1,14.9,12.6,13.7,13.3,12.9z M13.5,15.5c0-1.7,0.5-3,1.5-3.8c0,0,0.5-0.2,1.2-0.5s1.3-0.5,1.4-0.5c0.6,0,1.2,0.1,1.9,0.5
		c0.9,0.2,1.6,0.7,2.1,1.5c0.5,0.8,0.7,1.7,0.7,2.8c0,1.1-0.2,1.7-0.6,2c-0.2,0.1-0.5,0.2-1,0.1c-0.3,0-1.2-0.3-2.7-0.8
		c0,0,0.5,0.1,1.3,0.3c0.6,0.1,1.1,0.2,1.5,0.1c0.3,0,0.6-0.2,0.7-0.4c0.1-0.2,0.2-0.4,0.3-0.8c0.2-1.1,0-2.1-0.4-3
		c-0.4-0.8-1-1.4-1.8-1.8c0,0,0,0.1,0.1,0.1s0,0.1,0,0.1c-0.3-0.1-0.7-0.1-1.2-0.1c-0.2,0.4-0.1,0.9,0.3,1.4
		c0.3,0.4,0.6,0.5,0.7,0.5c0.2,0,0.4-0.2,0.5-0.5c0.1-0.3,0.1-0.6,0-1c0.3,0.4,0.4,0.9,0.2,1.5c-0.1,0.7-0.4,1.1-0.8,1.3
		c-0.1,0.1-0.6,0.1-1.6,0.1c-0.9,0-1.4,0-1.5-0.1c-0.4-0.2-0.7-0.6-0.8-1.2c-0.1-0.6-0.1-1.2,0.2-1.6c0,1,0.2,1.5,0.5,1.5
		c0.2,0,0.4-0.2,0.7-0.5c0.3-0.3,0.4-0.6,0.5-0.9c0-0.2,0-0.4-0.1-0.6c-0.3-0.1-0.7-0.1-1.2,0c0,0,0,0,0-0.1c0,0,0,0,0-0.1
		c-1.7,0.9-2.4,2.3-2.3,4.3c0.1,0.9,0.2,1.4,0.5,1.5c0.4,0.2,0.9,0.3,1.7,0.1c0.2,0,0.5-0.1,0.9-0.2c0.4-0.1,0.6-0.2,0.8-0.2
		c-0.2,0-0.4,0.1-0.7,0.3c-0.4,0.2-0.6,0.3-0.8,0.3c-0.7,0.2-1.3,0.3-1.8,0.2C13.8,17.6,13.5,16.9,13.5,15.5z M21.9,17.8
		c0.1,1.5-0.1,3.5-0.6,5.8c-0.4,1.7-0.7,2.8-1.1,3.4c0-0.2,0-0.4,0-0.6c0-0.3,0-0.5,0-0.6c0,0-0.3,0.5-0.7,1.3
		c-0.1-0.1-0.1-0.2-0.2-0.4c0,0-0.1,0.2-0.2,0.5c-0.1,0-0.1-0.1-0.1-0.2c0-0.2-0.1-0.2-0.1-0.3c0,0-0.1,0.1-0.2,0.3
		c-0.1,0.1-0.1,0.2-0.2,0.3c0-0.1,0-0.1-0.1-0.2s-0.1-0.2-0.1-0.3c-0.1,0-0.1,0.1-0.2,0.2c-0.1,0.1-0.1,0.2-0.2,0.3
		c0,0-0.1-0.2-0.4-0.5c0,0.1-0.1,0.3-0.1,0.5c0,0-0.1-0.2-0.4-0.6c-0.1,0.1-0.1,0.3-0.2,0.5c-0.1,0-0.1-0.1-0.1-0.2
		c-0.1-0.1-0.1-0.2-0.1-0.3c0,0-0.1,0.1-0.1,0.2s-0.1,0.2-0.1,0.2c0,0-0.3-0.5-0.7-1.3c0,0.3-0.1,0.7-0.1,1.2
		c-0.4-0.6-0.7-1.8-1.1-3.4c-0.5-2.4-0.7-4.3-0.6-5.8c0.7,2.2,1,3.3,1.1,3.3c0-1.5,0-2.6,0.1-3.3c0.1,0.1,0.2,0.3,0.4,0.5
		c0.1,0,0.3-0.2,0.6-0.6c0,0,0.2,0.2,0.4,0.6c0.1-0.1,0.1-0.1,0.2-0.3c0.1-0.2,0.2-0.3,0.2-0.3c0.2,0.2,0.3,0.4,0.5,0.6
		c0.1,0,0.1-0.1,0.2-0.2c0.1-0.2,0.2-0.2,0.2-0.2c0.1,0,0.1,0.1,0.2,0.2c0.1,0.2,0.2,0.2,0.3,0.3c0,0,0.1-0.1,0.2-0.3
		c0.1-0.1,0.2-0.2,0.3-0.3c0,0.1,0.2,0.2,0.4,0.6c0.1-0.2,0.3-0.4,0.4-0.6c0.1,0.1,0.2,0.2,0.3,0.3c0.1,0.1,0.2,0.2,0.3,0.3
		c0.2-0.2,0.3-0.3,0.4-0.5c0.1,1,0.2,2.1,0.1,3.3c0.2-0.2,0.4-0.7,0.6-1.6C21.6,18.9,21.8,18.3,21.9,17.8z M18.8,28.3
		c0.8,0,1.4-0.4,1.8-1.2c0.1-0.3,0.3-0.6,0.5-1.1c0.2-0.6,0.3-0.9,0.4-1.1c-0.1,0.3-0.2,0.9-0.5,1.9c-0.3,1.1-0.6,1.8-0.7,2
		c-0.3,0.6-0.9,0.9-1.7,0.9c-0.1,0-0.2,0-0.3,0c-0.2,0-0.3-0.1-0.4-0.1s-0.2,0-0.3,0.1c-0.1,0-0.3,0-0.3,0c-0.9,0-1.5-0.3-1.8-0.9
		c-0.1-0.1-0.3-0.8-0.6-1.9c-0.4-1.2-0.5-1.9-0.5-2c0-0.1,0,0,0.1,0.3c0.2,0.6,0.4,1,0.5,1.4c0.3,0.6,0.5,1,0.7,1.2
		c0.3,0.3,0.8,0.5,1.4,0.5c0.1,0,0.3,0,0.5-0.1c0.2,0,0.3-0.1,0.4-0.1c0.1,0,0.3,0,0.5,0.1C18.6,28.3,18.7,28.3,18.8,28.3z
		 M20.4,21.5c0-0.7-0.1-1.1-0.3-1.3c-0.4,0-0.8,0.1-1.2,0.3c-0.1,0-0.2,0.1-0.5,0.3c-0.2,0.1-0.4,0.2-0.5,0.3
		c-0.1-0.1-0.3-0.2-0.5-0.3c-0.2-0.1-0.4-0.2-0.5-0.3c-0.4-0.2-0.8-0.3-1.2-0.2c-0.2,0.5-0.3,1.4-0.1,2.7c0.2,1.3,0.4,2.1,0.7,2.4
		c0.4,0.4,0.9,0.6,1.7,0.6c0.8,0,1.3-0.2,1.7-0.6c0.3-0.3,0.5-1.1,0.7-2.4C20.4,22.4,20.4,21.9,20.4,21.5z M17.9,9.5l-0.4-0.4
		c-0.4-0.4-0.9-0.7-1.4-1c0.2,0,0.8,0.2,1.8,0.6c0.9-0.4,1.5-0.6,1.8-0.7c0,0,0,0,0,0c-0.7,0.5-1.2,0.8-1.4,1
		C18,9.4,17.9,9.5,17.9,9.5z M24.5,10.2c0.6,0.5,1.1,1.3,1.7,2.5c-0.5-0.6-0.8-1-1-1.2c-0.5-0.5-1-0.7-1.5-0.8
		c-0.7-0.1-1.5,0.2-2.4,0.7c0.9-0.9,1.6-1.3,2.2-1.4C23.9,9.9,24.2,9.9,24.5,10.2z M22.6,12.7c-0.1,0,0.1,0,0.6-0.1
		c0.2-0.1,0.4-0.2,0.4-0.3c-0.1-0.3-0.3-0.4-0.7-0.2c-0.1,0-0.2,0.1-0.4,0.2c-0.2,0.1-0.3,0.2-0.4,0.2c0.9,0.9,1.5,2.3,1.9,4.1
		c-0.7-1.8-1.4-3.2-2.3-4.1c0.3-0.3,0.6-0.6,1.1-0.8c0.6-0.2,1-0.2,1.3,0.1c-0.1,0.4-0.2,0.7-0.5,0.9C23.4,12.9,23,12.9,22.6,12.7z
		 M24.7,22.6c1-1.2,1.6-2.4,2-3.6c0.6-1.8,0.5-3.5-0.2-4.9c0.6,0.4,0.9,1.2,1.1,2.1c0.2,0.9,0.1,1.8-0.1,2.8
		C27.2,20.5,26.2,21.7,24.7,22.6z"/>
</g>
</svg>
