<?xml version="1.0" encoding="UTF-8" ?>
<!DOCTYPE svg PUBLIC "-//W3C//DTD SVG 1.1//EN" "http://www.w3.org/Graphics/SVG/1.1/DTD/svg11.dtd">
<svg width="340pt" height="375pt" viewBox="0 0 340 375" version="1.1" xmlns="http://www.w3.org/2000/svg">
<path fill="#ffffff" d=" M 0.00 0.00 L 340.00 0.00 L 340.00 375.00 L 0.00 375.00 L 0.00 0.00 Z" />
<path fill="#030303" d=" M 162.36 24.60 C 167.49 23.46 173.14 23.66 177.83 26.24 C 184.67 29.79 188.79 37.30 188.97 44.91 C 188.98 73.28 188.96 101.66 188.98 130.04 C 188.91 135.78 186.76 141.61 182.50 145.58 C 177.22 151.00 168.94 152.11 161.86 150.42 C 153.51 147.90 147.28 139.83 147.07 131.10 C 147.02 102.03 147.03 72.95 147.08 43.87 C 147.54 35.05 153.79 26.92 162.36 24.60 Z" />
<path fill="#030303" d=" M 115.43 67.72 C 123.22 65.54 132.52 67.82 137.57 74.40 C 143.14 80.83 143.42 90.59 139.82 98.02 C 137.34 102.04 133.87 105.39 131.67 109.60 C 127.37 117.68 125.17 127.16 126.82 136.25 C 129.03 156.21 147.83 173.04 168.04 172.24 C 177.95 172.65 187.69 168.61 195.07 162.12 C 212.02 148.25 214.40 120.41 200.20 103.77 C 195.62 98.70 192.58 91.71 193.84 84.80 C 194.68 78.13 198.92 71.92 205.03 69.01 C 213.03 65.08 223.66 66.55 229.71 73.30 C 236.78 81.05 242.19 90.23 245.98 99.99 C 255.77 126.06 252.35 157.09 235.71 179.66 C 223.74 196.54 205.25 208.80 184.91 212.85 C 176.87 214.22 168.61 215.73 160.46 214.30 C 144.19 212.81 128.35 206.49 115.69 196.14 C 100.20 183.70 89.40 165.59 85.84 146.04 C 84.76 141.79 85.20 137.35 84.36 133.06 C 83.73 110.87 91.78 88.29 107.31 72.25 C 109.60 70.11 112.41 68.56 115.43 67.72 Z" />
<path fill="#030303" d=" M 93.99 229.08 C 101.93 224.88 111.01 223.10 119.94 223.39 C 153.00 223.40 186.05 223.40 219.10 223.39 C 231.08 223.68 242.74 228.45 251.76 236.28 C 260.34 243.55 266.80 252.98 272.00 262.87 C 280.58 279.30 286.17 297.23 289.20 315.49 C 291.12 324.54 292.05 333.79 293.11 342.98 C 278.11 343.01 263.12 343.00 248.12 342.99 C 247.42 331.53 243.84 320.44 243.30 308.96 C 242.90 308.31 242.51 307.65 242.14 307.00 C 238.51 302.33 230.21 304.10 229.11 310.01 C 227.95 320.98 228.84 332.11 230.85 342.95 C 189.07 342.97 147.29 343.15 105.52 342.86 C 109.60 334.87 105.43 325.40 108.23 317.10 C 108.31 315.65 108.37 314.21 108.41 312.77 C 107.75 311.38 107.07 310.00 106.39 308.63 C 104.10 306.26 100.84 306.07 97.78 306.57 C 96.33 307.55 95.37 309.19 93.68 309.80 C 90.58 320.64 88.89 331.84 87.45 343.00 C 72.30 342.99 57.15 343.00 42.00 343.00 C 45.01 317.32 50.28 291.61 60.81 267.88 C 67.95 252.27 78.45 237.20 93.99 229.08 Z" />
</svg>
