<?xml version="1.0" encoding="utf-8"?>
<!-- Generator: Adobe Illustrator 21.1.0, SVG Export Plug-In . SVG Version: 6.00 Build 0)  -->
<svg version="1.1" id="Layer_1" xmlns="http://www.w3.org/2000/svg" xmlns:xlink="http://www.w3.org/1999/xlink" x="0px" y="0px"
	 viewBox="0 0 825 825" style="enable-background:new 0 0 825 825;" xml:space="preserve">
<path d="M598,225.9c9.9-0.3,19.9-1.9,29.7,0.3c14.5,4.2,29,8.5,43.5,12.8c5.1,1.6,9.6,4.8,15,5.6c6.5,0.7,13.2,0.3,19.6,1.8
	c4.7,1.2,7.8,5.5,8.9,10c8.6,0,13.4,7.9,19.5,12.6c7,3.7,15.1,3,22.7,4.3c2.5,1,5.8,2,6.1,5.1c2.5,9.6,8,18.6,7.7,28.8
	c0.2,7.1-4.4,12.8-8.3,18.3c-2.6,3-5,6.6-8.8,8.1c-7.1,1.8-11.5-6.7-18.5-6.1c-4.6,0.3-9.3,0.7-13.7-1.2c-4.2,3.1-7.7,7.1-11.2,10.9
	c-2.7,2.9-6.8,4.2-10.7,3.6c1-4.1,6-6.9,4.9-11.5c-1.6-3.3-5.5-4.1-8.7-5.1c-0.3-2.4,0.8-5.7-1.5-7.3c-9.5,0.8-19.4,1.9-28.5-1.2
	c-3.8-1.2-6.8-3.9-8.5-7.4c2.1-0.5,4.2-1.6,6.4-0.8c6.4,2,11.5,7.6,18.5,8c9,0.2,17.8-2.7,25.9-6.5c4-1.9,7.8-4.7,9.5-8.9
	c0-2.3-2.7-1.6-4.2-1.6c-5.4,1.1-10.3,4.7-16,3.8c-5.5-0.8-11.5-2.5-15.1-7c-2.7-5.9,3.1-12.4,8.9-13.2c4.7,2.2,8.5,6.1,13.5,7.9
	c3.4,1.1,6.5-0.9,9.2-2.8c-8.9-8.5-22-9.2-32.2-15.2c-5.2-3.4-8.6-8.8-13.6-12.3c-9.2-3.8-18.4-7.5-27.6-11.4
	c-26.1-10.5-55.6-9.8-82.2-1.9c-5.2,1.8-11.2,3.7-14.4,8.6c-2,3-0.3,6.7,1.7,9.1c3.2,3.8,8.4,4.7,11.9,8c6.4,6,11.3,13.4,17.2,19.8
	c3.7,4.6,7.9,8.9,10.9,14.1c3.9,7.7,5.9,16.3,7.6,24.7c3.4,17.2,5.1,34.7,6.5,52.1c5.3,1.2,10.9,1.2,16.1,2.7
	c5.5,10.3,7.6,21.9,11.6,32.8c2.9,8,5.2,16.2,7.6,24.3c1.9,6,3.5,12.4,8,17.1c5.5,6.5,14.5,11,16.2,20c2.4,14.8,1.3,29.9,1.5,44.9
	c-9,2-18.2,3.4-27.4,3.9c-3.7,0.6-6-3-7.5-5.7c-3.3-7.4-2.7-15.6-2.5-23.5c0.5-7.3,0.8-14.7,0.6-22c-0.2-4.7-0.4-9.6-2.7-13.9
	c-3.7-7.3-8.6-13.9-13.8-20.1c-2.8-3.2-5.5-6.8-9.4-8.7c-6.5-1.4-13.5,3.1-19.7-0.3c-5.3-3.3-9.5-8.2-15.4-10.5
	c-8-3.1-16.3-5.1-24.6-7.3c-8.4-2.3-17.6-1.9-25.6,1.4c-4,1.5-6.9,5.1-7.4,9.4c-4.1,19.4-9.5,38.9-8.9,58.9c-1.9,1.1-4.2,2-5.2,4.1
	c-1.8,4.2-1,9-3,13.1c-2.6,3.6-6.9,5.5-10.9,7.2c-4.5,1.9-9.5,3.2-14.4,2.2c-3.1-1.4-5.2-4.4-8.5-5.3c-3.1-1.2-7.1,0.1-9.5-2.6
	c-2.7-2.4-3.7-6.5-2.1-9.8c3.8-8,12.3-14.3,21.5-13.8c4.4-0.2,6.9-4.9,8.4-8.6c3.5-10.3,2.8-21.4,5.1-31.9
	c1.2-4.9,5.2-10.1,1.8-15.1c-7,2.1-11.2,8.5-17.5,11.6c-6.4,2.6-13.2,4.2-19.9,6.1c-20.5,5.1-41.1,10.9-62.3,11.3
	c-15.3,25.5-33.8,48.9-51.5,72.8c-4.9,7.1-8.9,14.9-14.5,21.5c-2.7,3.3-7.3,4.8-9.4,8.7c-2,16.4,0.6,33.2-3.8,49.3
	c-1.3,4.1-3,8.8-7,11c-5.4,2.2-11.3-0.2-16.2-2.7c-5.1-3-11.8,0-16.5-3.7c-1.4-0.8-0.6-2.6-0.5-3.8c2.5-12.2,8.9-23.1,16.1-33
	c3.4-4.5,8.2-8.3,10-13.9c4.2-12.8,0.2-26.7,3.7-39.6c3.8-8.3,11.6-13.9,16.1-21.8c2.2-3.8,2.9-8.3,2.6-12.6
	c-13.6-2-26.8-6.2-39.8-10.4c-1.3-3.7-1.4-7.6-2.1-11.3c-4.5-0.8-9.1,0.4-13.6,0.5c-3,1.9-2.7,6-3.9,9c-1.2,5.1-8.4,5.1-9.9,10
	c-1.9,4.9,0.6,10.1-0.8,15.1c-1.3,6.1-4.9,11.7-10.3,14.9c-5.7,3.7-12.8,4.3-19.3,3.4c-3.7-0.6-7.1-2.9-10.9-2.9
	c-1.7,0.4-2.9,1.9-4.2,3c-7.1,7-13.9,14.1-20.3,21.6c-3.9,4.7-8.1,9.5-9.3,15.7c-2.2,7.3-2.5,16-8.8,21.2c-6.7,4.8-15.4,5.4-23.4,5
	c-5.7-0.1-11.3-2-16.3-4.7c3.1-6.7-0.4-14.2,2.1-20.9c4.5-8.2,13-13.1,19.2-19.9c3.3-4.6,4.9-10.8,10.1-13.9
	c7.8-5.2,15.5-10.7,23.8-15.1c-0.7-6.3,0.2-13.5,5-18.1c3.7-3.4,7.9-6.1,11.6-9.6c0.8-14.5-2.1-28.9-6.8-42.5
	c-3.8-11.6-7.4-23.3-8.9-35.5c-6.2-1.6-12.4-3.4-18-6.3c-4.2-2.1-6.1-6.7-9.7-9.6c-11.8,5-24.2,8.7-36.5,12.3
	c-6.5,1.4-13.7,3.9-20.1,0.7c-4.9-2.7-9-7.8-9.4-13.6c0.1-5.1,5.2-7.8,9.5-9c2,3.2,2.7,7.1,4.8,10.2c7.7-4.7,15.8-8.8,23.8-13
	c11.7-6.2,23.9-12,37-14.7c6.9-1.5,13.9-0.8,20.8-0.1c10-0.8,18.1-7.6,24.7-14.7c9.1-9.9,11-24.7,21.8-33.3
	c12.3-10.8,24.7-21.6,38.5-30.5c8.9-5.9,17.6-12.1,27.4-16.6c7.1-3.5,15.3-3.5,22.6-6.4c5.7-2.2,10.5-6.3,16.6-7.4
	c11.7-2.4,23.7-1.8,35.5-1.5c22.3,1.6,44.7,3.2,67,2c15.1-0.4,30.2-2.1,45.1-4.6c7.1-1.2,13.8-3.9,20.9-5.2c9.9-1.5,20-1.2,29.7-3.4
	c6.2-1.4,11.9-4.7,18.3-5C560.8,230.9,579.3,227.5,598,225.9z"/>
</svg>
