<?xml version="1.0" encoding="utf-8"?>
<!-- Generator: Adobe Illustrator 21.1.0, SVG Export Plug-In . SVG Version: 6.00 Build 0)  -->
<svg version="1.1" id="Layer_1" xmlns="http://www.w3.org/2000/svg" xmlns:xlink="http://www.w3.org/1999/xlink" x="0px" y="0px"
	 viewBox="0 0 300 300" style="enable-background:new 0 0 300 300;" xml:space="preserve">
<style type="text/css">
	.st0{fill:#28384B;}
</style>
<path class="st0" d="M74.9,46.8c1.4-1.8,5-0.2,3.9,2.1c-1.9,5.3-3.5,10.7-3.8,16.3c6.9,0.6,13.7-0.4,20.4-1.6
	c3.6-0.4,6.1-3.4,9.4-4.7c17.7-7.3,39-6.3,55.3,4c7.3,1.6,14.9,2.6,22.4,2.1c-0.5-4.9-1.4-9.8-3.2-14.3c-0.3-1.3-1.7-3.4,0-4.4
	c1.7-1.7,3.6,0.4,4.7,1.7c5.6,6.5,11.3,13.2,14.9,21.1c1.5,3.3,2.1,8.1-1.5,10.2c-10.2,6.7-23.3,6.4-34.6,3.2
	c1.4,3.9,2.4,7.8,3,11.9c8.5,4.6,17.4,9.6,23.1,17.6c2.6,3.7,5.7,7.3,9.7,9.6c3,0.9,5.9-1.4,6.5-4.2c3-10.6-0.2-21.6-0.5-32.3
	c0.1-12.2,10-23.6,22.2-24.9c10.2-1.2,21.4,3,27.4,11.7c1.4,1.7,1.5,4.6-0.3,6.1c-8.2,5.7-20.7,2.9-26.1-5.4
	c-6.6,2.3-11.1,9.5-10.2,16.4c1.2,10.5,4.9,21.2,2.3,31.8c-2.3,9.4-9.9,17.6-19.7,19.1c0.8,8.4,0.8,17-0.6,25.3
	c-2.4,14.2-8.1,27.6-13.9,40.7c-0.7,1.9-2.4,3.8-4.6,3.6c-2.7,0-4.8-2.8-4.2-5.4c1.2-9.4,2.3-18.9,2.1-28.4c-2.4,3.7-5.3,7-8.6,9.9
	c-0.8,11.1-2.5,22.1-6,32.7c-3.2,10.1-8.1,19.6-13.4,28.7c-1.8,2.9-3.4,6.4-6.9,7.6c-2.8-0.9-5.4-3.3-4.4-6.5
	c3.3-14.1,5.6-28.7,3.4-43.2c-0.8-4.3-2-8.7-4.6-12.2c-2.6-3.4-8.1-4.6-11.4-1.6c-2.4,2.7-3.3,6.4-3.8,9.9
	c-0.9,10.1,2.6,19.7,5.2,29.2c1,2.9,0.1,6.8-3.4,7.3c-3.5,0.5-5.2-3.2-6.9-5.6c-17.3-26.4-25.8-58.3-25.4-89.8
	c0.8-12.3,3.6-24.5,2.1-36.8c-5.7-6.4-2.5-15.6-0.1-22.7c-10.2,2.7-21.5,3.7-31.2-1c-2.4-1.3-5.5-2.6-6-5.7
	c-0.6-4.2,1.7-8.1,3.8-11.6C65.2,58,69.8,52.1,74.9,46.8z"/>
<path class="st0" d="M102.7,79.1c-0.5-1.8,0.8-2.8,2.1-3.7c4.9,3,9.9,5.9,14.5,9.4c2.4,1.6,2.8,4.8,3,7.4c0.4,6.6-0.3,13.2-0.7,19.7
	c-0.3-6.8-0.5-13.7-1.5-20.5c-4-1.8-8.1-3.5-12.1-5.2c0.2-0.9,0.5-2.8,0.7-3.8C106.7,81.4,104.5,80.5,102.7,79.1z"/>
<path class="st0" d="M140.9,82.9c4-2.6,8-5.3,12.3-7.5c0.9,1,2.6,2.7,1.2,4.1c-1.8,1.3-3.8,2.1-5.8,3.1c0.2,0.9,0.6,2.8,0.8,3.7
	c-4,1.7-8,3.4-12,5.1c-1.2,6.9-1,13.8-1.4,20.8c-0.5-7.8-1.8-15.8-0.3-23.5C136.3,85.8,138.8,84.3,140.9,82.9z"/>
</svg>
