<svg id="Layer_1" data-name="Layer 1" xmlns="http://www.w3.org/2000/svg" viewBox="0 0 300 300"><defs><style>.cls-1{fill:#0a4a85;}</style></defs><title>Artboard 1</title><path class="cls-1" d="M39.46,77.05C47,85,54.27,93.16,61.71,101.19,57.64,105.94,52.9,110.09,49,115c-1.53,3.88-1.61,8.19-2.52,12.24q3.36,2.79,6.61,5.69c4.78-1.14,9.46-2.67,14.15-4.13C75,124.93,82,119.33,90.29,116.48c31.44-12.08,62.83-24.27,94.29-36.26,15.63,13.79,31.66,27.16,47.05,41.19,4.23,13.28,7.56,26.86,11.74,40.15,5.1,6.52,10.94,12.48,16.05,19-7.23-4.35-14.4-8.8-21.62-13.15,5.71,6.25,11.47,12.45,17.15,18.72-7.77-3.44-15.32-7.37-23.05-10.91-2.45,1.69-4.69,3.71-7.28,5.18-3.54.49-7.12-.16-10.67.09-4.74,1.11-9.09,3.45-13.85,4.49q-2-1.8-4-3.53c.06-2.14.17-4.26.29-6.39h-3.85c1.86-4.63,3.76-9.25,5.64-13.87,1-2.77,3.51-4.52,5.45-6.59,3-2.85,5.57-6.18,8.82-8.76a62.15,62.15,0,0,1,7.86-2.17q-4.71-.79-9.46-1.28c-4.67,4.75-9.42,9.42-14.14,14.12-4.18.46-8.36,1-12.54,1.42.34-3.66,1.48-7.21,1.67-10.88-.14-4.09-.71-8.15-.92-12.23-.69,3.65-.39,7.41-1,11.07-1.36,4.43-3,8.79-4.59,13.13,2.76,4.64,5.83,9.13,8.28,13.94-.72,4.6-2.47,8.95-3.49,13.48-9.39,3.16-18.93,5.83-28.31,9-1.91-3-3.83-6-5.69-9.05-1.7-.19-3.4-.37-5.09-.57-1.6-2.61-3.28-5.16-4.9-7.75,3.48-.63,6.9-1.91,10.46-1.88,3.31,3.19,6.13,6.84,9.29,10.18,3.61-3.44,7.17-6.93,10.73-10.41C165.14,171.92,159.53,168,154,164c-2.53-1.5-2.81-4.67-3.74-7.19-.16,2,.59,4.58-.91,6.23-14.55.67-29.08,1.56-43.63,2.26-.34-3.61-1.39-7.26-.53-10.87a43.5,43.5,0,0,0,1.16-10.84,41.56,41.56,0,0,1-2.89,9.87c-1.71,4-1.22,8.36-1.55,12.56-4,3.25-8,6.5-12,9.81-3.57,3.44-8.9,3-13.34,4.5-4.24,1.45-9.36,1.06-12.57,4.67-4.45,3.06-6.51,8.26-8.67,13A45.5,45.5,0,0,1,60,211.13H47.41c.39-6.24-1-12.77,1.27-18.75,1.78-5.83,3.23-11.76,5.13-17.54,2.62-3.8,6.17-6.9,8.68-10.78.87-4.75.71-9.62,1.39-14.39.76-3.56,2.06-6.95,3.06-10.44-5.62.34-11.24.64-16.85,1.1-4-4-8.22-7.72-12.29-11.63,1.93-5.42,3.77-10.91,6-16.22,3.19-4,6.93-7.55,10.25-11.45-3.42-2.62-7-5-10.34-7.76C42.24,87.87,41,82.42,39.46,77.05Z"/></svg>