<?xml version="1.0" encoding="utf-8"?>
<!-- Generator: Adobe Illustrator 21.1.0, SVG Export Plug-In . SVG Version: 6.00 Build 0)  -->
<svg version="1.1" id="Layer_1" xmlns="http://www.w3.org/2000/svg" xmlns:xlink="http://www.w3.org/1999/xlink" x="0px" y="0px"
	 viewBox="0 0 825 825" style="enable-background:new 0 0 825 825;" xml:space="preserve">
<style type="text/css">
	.st0{fill:#FFFFFF;}
</style>
<path d="M471.3,255.3c20-9.7,42.7-12.2,64.7-11.9c14.4,0.1,29.2,2.7,41.9,9.6c3.9,2,6.8,5.2,10.3,7.6c2.2,1.8,5,2.8,7,4.9
	c4.6,7.1,9.5,14.1,13.4,21.7c10,17.9,17.1,37.7,30.5,53.4c5.9,7.5,12.3,15.2,14.3,24.8c2.1,8.7-0.7,17.6-4.6,25.4
	c-5.6,8.4-11.4,16.6-17,24.9c-5.9,9-10.4,18.9-13.7,29.1c-3.8,9.3-0.8,19.8-3.8,29.3c-0.7,2.5-3,4.1-5.4,4.6
	c-6,1.3-12.1-0.3-17.9-1.8c-6.5-1.8-13-3.5-19.5-5.4c-1.8-8.5-3.8-17-4.7-25.7c-0.8-5.7,2.3-11.2,1.1-16.8c-1.7-4.3-5.6-7.5-6.9-12
	c-1.8-6.4-3.2-12.9-4.6-19.4c-5.6,5-9.2,12.6-16.7,15.1c-1.8,0.4-3.6,1.4-5.5,0.9c-5.3-4.6-6.9-12.1-6.9-18.8
	c0.1-8.5,0.3-17.1-2.2-25.3c-3.9-14.3-15-26.1-28.4-32.1c0.3,5.2,4,9,6.4,13.2c5.1,8.5,10.6,16.9,13.9,26.2c3.5,13.1,2,27,6,40.1
	c1.1,3.7,2.7,7.5,6,9.8c2.6,2.1,6,3.8,7,7.3c3,14.7-10.2,29.8-24.9,30.2c-7.3-7.9-4.5-20.5-12.1-28.2c-2.7,3.5-3.9,8.3-2.5,12.6
	c6.6,19.3,9.7,39.5,14.9,59.1c3.5,11.7,7,24.1,15.9,33c6.1,8.4,17.1,11.4,23.3,19.7c3.1,4.2,2.8,9.8,1.1,14.6
	c-10.9-1.4-21.8-3.7-32.4-6.5c-0.1-8.2-7.3-13.2-11.1-19.6c-4.7-11.7-1.5-25-6.2-36.7c-3.1-8.2-8.2-15.5-14.7-21.4
	c-3.1-2.9-6.8-5.2-9.5-8.4c-1.6-1.7-2.9-3.9-5.1-4.9c-3.8-1.2-7.9,0.1-11.4,1.7c-19.6,8.8-41.4,10.1-61.8,16.2
	c-6.5,1.9-8.4,10-14.8,12.2c-5.2,1.7-10.9,0.7-16.1-0.3c2.2-9.7,4.7-20.5,12.5-27.3c2.9-2.9,7.1-2,10.8-2.5
	c3.9-0.5,6.6-3.7,10.3-4.9c4.5-0.5,8.4,3,12.9,2.6c6.5-1.7,12.2-5.5,18.4-8c5.2-2.3,10.6-3.9,15.7-6.4c2.2-1.2,4.8-2.6,5.8-5.1
	c0.3-1.7-1.4-2.4-2.6-2.9c-3.9-1.4-8.1-1.9-12.1-1.3c-16.5,2-32.4,6.7-48.4,11.1c-8.6,2.3-16.7,6.3-25.6,7.3
	c-6.6-0.1-10.4-7.3-17-7.4c-5.2,0.5-8.9,4.6-11.7,8.7c-2.6,3.7-3.1,8.6-1.3,12.7c2.9,6.9,8,12.5,12.8,18.1
	c5.7,6.6,13,11.8,18.3,18.7c10.6,13.2,20.1,27.6,26.5,43.4c-8.7,1.1-17.2-1.3-25.1-4.8c-0.4-3.2,0-6.7-1.4-9.6
	c-4.2-3.5-10.1-3.7-14.8-6.4c0.5-10.5-0.3-22.6-8.3-30.4c-10.9-9.4-24.3-15.1-36.5-22.5c-3.6-2.4-7.8-4.6-9.6-8.7
	c-1.2-3.8,0.5-7.8,2.6-11c5.6-8.3,14.2-13.8,20.8-21.2c6.6-7.1,12.8-14.5,19-22c4.3-5.3,8.9-10.6,11.4-17.1
	c-3.8-0.4-7.7,0.3-10.8,2.6c-5,3.6-7.5,9.4-10.6,14.5c-4.4,7.6-9.9,14.6-15.9,21c-2.6,2.7-4.9,5.9-8.2,7.8
	c-18.2,10.4-37.8,18.3-55.5,29.6c-12.7,8.3-24.9,18.5-31.4,32.5c-4.2,7.7-9.7,14.8-12.9,23c-2.9,7.7-1.4,17.4,5.3,22.7
	c4.7,3.3,6.9,8.9,9.2,13.9c-8.4,0-16.8,0-25.2,0c-2.2,0.1-4.6-0.3-6.4-1.7c-1.6-5.2-1.3-10.7-2.9-15.8c-1.4-4.5-2.7-9.1-4.7-13.4
	c2-3.4,5.3-5.5,8-8.2c3.1-3,2.6-8.2,6.2-10.8c3.1-2.5,7-4.7,8.3-8.7c6.1-18,2.6-37.9,9.2-55.8c2.6-7.7,11.2-9.9,17.5-13.5
	c4-1.8,6.4-5.6,9.8-8.2c1.5-1.1,2.2-3,2.5-4.8c-1.1-11.4-2.7-22.7-3.5-34.1c0.2-6.5,1.8-12.9,2.7-19.3c1.6-10.1,4.6-20.5,2.4-30.7
	c-11.5-2.5-23.3,0.5-34.3,3.8c-14,4.4-28,9.4-42.6,11.1c-12.4,0.7-25.4-0.4-36.5-6.5c-7.3-3.9-12.4-12-11.7-20.3
	c1.2-6.8,3.9-13.3,6.5-19.7c3.9-9.1,7.8-18.1,11.5-27.3c-5.4-5.2-13.2-5.9-19.4-9.7c-6-4.3-6.3-12.3-9.7-18.4
	c-1.2-1.9-1-4.1-1.1-6.1c8.9,2.8,12,13.7,21.3,15.8c2.5-5.2-1.8-10.1-5.7-13.2c-5.2-3.7-10.8-7-15.9-10.8c5.2-2.7,11-0.3,15.9,1.7
	c6.9,3.1,13.8,6.5,19.7,11.4c5.5,4.3,9.9,10.8,9.5,18.1c0.4,8.7-4.8,16.1-7.5,24.1c-1.1,2.7-1.4,5.7-2.7,8.4
	c-3.6,4.5-5.7,10-6.8,15.6c-1.1,4.2,0.8,9.4,5.1,11c9.4,3.7,19.5,0.2,28.6-2.8c20.7-7.4,40.9-16,61-25c12.9-5.1,24.9-12.2,37-18.9
	c18.5-10.8,40.5-14,61.6-12.3c15,1.6,29.7,5.5,44.7,7.2c14.9,2.4,29.9-1.2,44-5.8c7.4-2.5,15.1-4.7,21.7-9.1
	C450.2,269.1,460.2,261.3,471.3,255.3z"/>
<path class="st0" d="M570.7,343.8c7.2-3.2,15.4-4.3,23.1-2.4c4.5,1.1,8.8,4.2,9.8,9c2.2,6.7,0.7,15.5,6.8,20.3
	c10.4,6.4,22.2-2.2,33.3,0.5c-6.5,9.2-17.9,13.3-28.7,14.5c-10.4,0.9-21.1-0.8-30.7-5c-7.6-3.5-14.5-9.6-17.1-17.8
	C565.3,356.5,565.3,348.4,570.7,343.8z"/>
<path d="M658,354.3c10,1.4,17.8,9.2,28,10.1c12.3-0.4,24.5-5.6,36.8-2.9c-1.9,7.8-9.4,11.6-15.4,15.8c-7.2,5.6-16.5,7-25.3,8.1
	c-8,1.1-16.7,0.8-23.8-3.4C659.5,372.8,656,363.5,658,354.3z"/>
<path class="st0" d="M591.8,404.8c3.8-1.8,8.5-0.6,11.4,2.3c-1.7,5.1-8.5,7-13,4.6C590.1,409.4,589.2,406.1,591.8,404.8z"/>
</svg>
