<?xml version="1.0" encoding="utf-8"?>
<!-- Generator: Adobe Illustrator 21.1.0, SVG Export Plug-In . SVG Version: 6.00 Build 0)  -->
<svg version="1.1" id="Layer_1" xmlns="http://www.w3.org/2000/svg" xmlns:xlink="http://www.w3.org/1999/xlink" x="0px" y="0px"
	 viewBox="0 0 300 300" style="enable-background:new 0 0 300 300;" xml:space="preserve">
<title>Artboard 1</title>
<path d="M39.5,77.1C47,85,54.3,93.2,61.7,101.2c-4.1,4.8-8.8,8.9-12.7,13.8c-1.5,3.9-1.6,8.2-2.5,12.2c2.2,1.9,4.4,3.8,6.6,5.7
	c4.8-1.1,9.5-2.7,14.1-4.1c7.8-3.9,14.8-9.5,23.1-12.3c31.4-12.1,62.8-24.3,94.3-36.3c15.6,13.8,31.7,27.2,47.1,41.2
	c4.2,13.3,7.6,26.9,11.7,40.1c5.1,6.5,10.9,12.5,16.1,19c-7.2-4.4-14.4-8.8-21.6-13.1c5.7,6.2,11.5,12.4,17.1,18.7
	c-7.8-3.4-15.3-7.4-23.1-10.9c-2.4,1.7-4.7,3.7-7.3,5.2c-3.5,0.5-7.1-0.2-10.7,0.1c-4.7,1.1-9.1,3.4-13.9,4.5
	c-1.3-1.2-2.7-2.4-4-3.5c0.1-2.1,0.2-4.3,0.3-6.4h-3.9c1.9-4.6,3.8-9.2,5.6-13.9c1-2.8,3.5-4.5,5.4-6.6c3-2.9,5.6-6.2,8.8-8.8
	c2.6-0.9,5.2-1.6,7.9-2.2c-3.1-0.5-6.3-1-9.5-1.3c-4.7,4.8-9.4,9.4-14.1,14.1c-4.2,0.5-8.4,1-12.5,1.4c0.3-3.7,1.5-7.2,1.7-10.9
	c-0.1-4.1-0.7-8.1-0.9-12.2c-0.7,3.6-0.4,7.4-1,11.1c-1.4,4.4-3,8.8-4.6,13.1c2.8,4.6,5.8,9.1,8.3,13.9c-0.7,4.6-2.5,8.9-3.5,13.5
	c-9.4,3.2-18.9,5.8-28.3,9c-1.9-3-3.8-6-5.7-9.1c-1.7-0.2-3.4-0.4-5.1-0.6c-1.6-2.6-3.3-5.2-4.9-7.8c3.5-0.6,6.9-1.9,10.5-1.9
	c3.3,3.2,6.1,6.8,9.3,10.2c3.6-3.4,7.2-6.9,10.7-10.4c-5.5-4-11.1-8-16.6-12c-2.5-1.5-2.8-4.7-3.7-7.2c-0.2,2,0.6,4.6-0.9,6.2
	c-14.6,0.7-29.1,1.6-43.6,2.3c-0.3-3.6-1.4-7.3-0.5-10.9c0.8-3.6,1.2-7.2,1.2-10.8c-0.6,3.4-1.5,6.7-2.9,9.9
	c-1.7,4-1.2,8.4-1.6,12.6c-4,3.2-8,6.5-12,9.8c-3.6,3.4-8.9,3-13.3,4.5c-4.2,1.4-9.4,1.1-12.6,4.7c-4.5,3.1-6.5,8.3-8.7,13
	c2.2,4.1,3.8,8.5,4.7,13.1H47.4c0.4-6.2-1-12.8,1.3-18.8c1.8-5.8,3.2-11.8,5.1-17.5c2.6-3.8,6.2-6.9,8.7-10.8
	c0.9-4.8,0.7-9.6,1.4-14.4c0.8-3.6,2.1-6.9,3.1-10.4c-5.6,0.3-11.2,0.6-16.8,1.1c-4-4-8.2-7.7-12.3-11.6c1.9-5.4,3.8-10.9,6-16.2
	c3.2-4,6.9-7.6,10.2-11.4c-3.4-2.6-7-5-10.3-7.8C42.2,87.9,41,82.4,39.5,77.1z"/>
</svg>
