<?xml version="1.0" encoding="utf-8"?>
<!-- Generator: Adobe Illustrator 21.1.0, SVG Export Plug-In . SVG Version: 6.00 Build 0)  -->
<svg version="1.1" id="Layer_1" xmlns="http://www.w3.org/2000/svg" xmlns:xlink="http://www.w3.org/1999/xlink" x="0px" y="0px"
	 viewBox="0 0 825 825" style="enable-background:new 0 0 825 825;" xml:space="preserve">
<path d="M252.1,176.2c1.6-2,4-2.7,6.3-3.5c0.1,3.6,0,7.2,0.1,10.8c4.7-3.2,8.8-7.5,14.4-9c-0.2,3.4-2.3,6.2-3.9,9.1
	c3.9-1.4,7.5-3.4,11.3-4.9c1.5-0.8,3.1-0.1,4.7,0.3c-1.4,2-3.9,3.7-3.6,6.4c5.8-1,11.7-1,17.5-1.2c3.8-0.4,7.6-0.4,11.4,0
	c24.3,0.2,48.5,1.9,72.8,3.5c12.9,1,26.1,1.3,38.5,5.5c20.4,6.1,36.7,20.6,55.7,29.6c16.9,7.9,34.5,14.3,51.3,22.5
	c10.7,5.4,20.9,12.3,28.7,21.5c6.3,0.5,12.6,1,18.6,3.1c10.9,3.5,20.3,11.1,26.4,20.8c7.9,13.2,12.5,27.9,17.4,42.4
	c16.2,10.9,26.5,28.5,32.8,46.5c10.4,29,19.5,58.5,29.1,87.7c3.9,9.4,1,19.7,0.9,29.6c0.1,6.1,0.1,12.8,3.6,18
	c2.9,4.7,7.4,8.4,9.6,13.5c3.3,13.3,7.3,26.4,11,39.5c2.3,8.7,6.1,17.4,12.8,23.6c3.2,3,7.3,4.9,11.5,6.2c2.7,9,9.6,15.8,16.3,22
	c6.4,5.9,11.8,13.7,12.5,22.6c-14.8,2.2-29.6,5.1-44.7,5.2c-2.4-7.5-3.7-15.4-6.6-22.7c-2.2-4.8-5.9-9-10.9-10.9
	c1.7-6.2,0.6-12.7-2-18.4c-2.9-6.3-5.8-12.7-8.9-18.9c-12.8-3.9-20.7-16.2-25.5-28c-5.2-13.5-9.6-27.5-16.6-40.2
	c-1.6-3-3.5-5.8-5.9-8.2c-2.3,7.3-3.1,15-4.8,22.4c-1.1,4.6-3.4,9.2-7.8,11.5c-5-0.9-9.5-3.5-13.2-6.9c-1.3-1-2.3-2.5-3.9-3
	c5.3,7.9,11.2,15.3,17.3,22.5c6.6,7.8,12.2,17,14.1,27.2c1.2,8.6-1.6,17.3,0.2,25.9c4.2,8,11.3,14.2,15.4,22.2
	c1.4,3.5,2.4,8,0.6,11.3c-10.5,5.1-23.1,5.5-34.1,1.5c-3.7-1.3-7.1-3.1-10.5-5c1.1-9.3,4.3-18.2,4.4-27.6
	c0.4-13.2-7.3-24.5-15.2-34.3c-3.4-3.9-6.5-8.5-11.2-10.9c-0.4,0-1.3,0-1.8,0c-4,2.2-6.8,5.9-9.8,9.2c-5.8,6.9-11.5,13.9-16.3,21.7
	c-2.7,4.6-5.3,9.5-5.1,14.9c-0.4,8.2,3,15.9,3.8,24c0.7,4.8,0,9.6-0.9,14.3c-1.8-3.5-1.5-7.4-1.4-11.2c-1.4-8.2-5.2-16-5.3-24.5
	c-3.3,14,3.6,28.7-1.7,42.4c-3.3-11.5-1.1-23.6-3.2-35.3c-2.5,9.6-3.6,19.6-6,29.3c-1.6,6.1-3.8,12.4-8.7,16.7
	c-0.8-7.2,7.2-12.2,5.4-19.5c-2.4,2.3-4.8,4.6-7.1,7c-3.1,3.7-5.7,8-9.5,11.1c1.8-4.9,6.7-7.7,9.6-11.9c6.2-9.7,9.1-21.4,8.8-32.8
	c-17.6,9.9-26.6,29.4-31.9,48c-2.3-12.6,5.3-23.8,8.9-35.3c-12.5,10.7-16.6,28.1-29.2,38.7c-2.9,2.6-6.5,4.3-10.1,5.6
	c9.2-4.6,14-14.3,17.2-23.5c2-4.9,3.7-9.9,5.5-14.9c-5.6,6.3-10.1,13.3-15.3,19.9c-4.2,5.3-9.8,9.6-16.3,11.3
	c8.4-5.4,14.4-13.9,18.8-22.8c3.3-6.7,6.7-13.3,9.9-20c-14.1,8.9-25.5,21.3-38.2,32c-9.6,8-20.9,14.3-33.3,16.3
	c19.5-8.8,35.9-23.3,49.9-39.3c-12.4,4.6-24.3,10.9-37.6,12.5c-5.5,0.7-11.5-0.2-15.7-4c14.2,2.2,28.6-1.6,41.1-8.3
	c14-7.5,26.7-18.1,35.1-31.7c-17.4,12.6-37.6,20.8-58.4,25.9c4.1-4.6,10.1-6.8,15.7-9c8.1-3.2,16.9-5.8,23.5-11.7
	c-10,2.1-20.1,3.7-30.2,5.6c-9.2,1.8-18.9,4.6-25.4,11.9c2-3.1,4.4-6,7.5-8c8.3-5.6,18.1-8.3,27.6-10.8c9.5-2.6,19.1-5.4,28.1-9.7
	c3-1.4,6-3.2,8.4-5.5c-24.4-3.3-45.6,14.7-69.9,12.3c16.2-2.1,30.9-9.9,46.4-14.8c8.4-2.6,17.1-5.1,25.9-4.4
	c5.4,0.5,11.1,0.9,16.1-1.6c18.1-8,27.8-27.2,45.4-35.9c-11.6-14.4-23.6-28.5-36.5-41.8c-13.3-13.5-27.3-26.5-43.7-36
	c-16.6-9.4-35.6-13.9-51.4-24.9c-8.4-5.8-15.5-13.8-19.5-23.3c-10.8,8.7-18.7,20.3-27.1,31.2c-7.5,10.9-17.4,21-30.3,25.2
	c-4.3,1.7-8.9,1.9-13.5,2.6c-7.7,5.5-9.7,15.9-8.9,24.8c-10.5,6-19.1,15.2-30.8,19.2c-8.7,3.3-18.7,1.8-26.4-3.2
	c7.1-10.1,11.3-21.8,18.2-32c3.6-5.8,10.9-7.1,15.3-12.1c3.6-24,8.4-47.8,12.9-71.6c-15.7-18.5-38.8-28.8-62.1-33.9
	c-7.2,11.3-22.2,13.1-30.4,23.3c-1.7,1.9-2.7,4.3-3.6,6.6c-4.5,0.2-8.9,1.4-12.7,3.9c-7,4.3-10.6,12.2-17.2,17
	c-3.7,2.9-8.8,5.5-13.5,3.5c-3.1-1.3-5.5-3.8-8.4-5.4c-8.5-4.5-18.9-3.7-27.1-9c-5.1-3.2-7.9-9.2-8.3-15c0.3-4.9,3.3-9.1,3.8-13.9
	c1.1-12,2.6-24,3.4-36c0.7-3.7-2.1-6.4-3.3-9.6c-6.8-15.2-6.9-32.5-3.7-48.5c-17.7,3.3-36.7,4.2-53.6-3.1
	c-8.7-3.6-15.6-11.2-17.8-20.4c12.9,6.2,27.4,9.3,41.8,8.1c8.1-0.7,16.1-3.2,22.5-8.1c-2.8-5.1-7.3-8.8-11.1-13
	c-3-3.3-4.7-7.6-5.2-12c10.8,6.4,22.9,11.7,35.7,11c-2.1-3.4-4.3-6.7-5.5-10.5c3.8-2.1,8.2-1.9,12.3-3c-0.3-1.6-0.8-3.1-1.4-4.5
	c3,0.7,6.1,1.4,9.2,1.8c0.8-2.3,1.1-4.7,1.2-7.1c1.7,1.2,3.5,3,5.8,2.6c2.3-0.4,4.1-2,6.3-2.6c1.7-0.8,3.1,1,4.4,1.7
	c2.2-3.2,2.2-7.1,2.9-10.8c3.4,1.7,5.8,4.6,7.8,7.7c1.9-2.9,1.2-6.5,2.5-9.6c5.9,1.7,6.1,8.7,9.4,12.9c5.9-4.4,10.8-10.3,18-12.8
	c-2.2-3.9-8-5.4-7.9-10.4c4.2-0.5,8.5,0,12.6,1.2c2.9,0.6,6.5,1.7,8.9-0.7c-2.5-3.2-7.4-5.1-7-9.9c3.3,1.8,6.3,4.1,9.6,5.9
	c2.5-5.2,1.4-11.9,5.5-16.3c2.9,1.6,0,5.8,2.1,8.1C247.7,184.3,249.1,179.8,252.1,176.2z"/>
</svg>
