<?xml version="1.0" encoding="utf-8"?>
<!-- Generator: Adobe Illustrator 21.1.0, SVG Export Plug-In . SVG Version: 6.00 Build 0)  -->
<svg version="1.1" id="Layer_1" xmlns="http://www.w3.org/2000/svg" xmlns:xlink="http://www.w3.org/1999/xlink" x="0px" y="0px"
	 viewBox="0 0 36 36" style="enable-background:new 0 0 36 36;" xml:space="preserve">
<g>
	<path d="M10.2,5.5c0.2,0,0.5-0.2,0.8-0.4c0.3-0.2,0.6-0.4,0.8-0.4c-0.5,0.3-0.9,0.6-1.1,0.9c0.2,0,0.4-0.2,0.7-0.4
		C11.6,5,11.8,4.9,12,4.9c0,0.1-0.2,0.2-0.4,0.3c-0.2,0.1-0.3,0.3-0.3,0.4c0.3-0.1,0.7-0.3,1.2-0.7c-0.1,0.2-0.2,0.4-0.4,0.6
		c-0.3,0.2-0.6,0.4-0.9,0.4c0.4,0.1,1.1-0.1,2.2-0.6c-0.3,0.4-0.8,0.7-1.6,0.9c0.8,0,1.6-0.3,2.4-1.2c-0.2,0.4-0.6,0.7-1.1,1
		c-0.6,0.3-1.2,0.5-1.8,0.6c0.1,0.1,0.2,0.1,0.5,0.1c0.4-0.1,0.6-0.1,0.5-0.1C12,6.9,11.5,7,10.7,6.9c-1-0.1-1.6-0.2-1.9-0.1
		c0,0-0.1,0.1-0.1,0.1c0,0-0.1,0.1-0.1,0.1C7.8,7,7.2,7.5,6.9,8.5C6.6,9.4,6.7,10.3,7,11.2c0.3,0,0.6,0,0.9-0.3
		c0.3-0.3,0.5-0.4,0.7-0.5c0.1-0.1,0.4-0.4,0.9-0.9c0.4-0.4,0.7-0.8,1.1-0.9c0.2-0.1,0.5-0.2,1-0.3c0.5-0.1,0.9-0.3,1.1-0.4
		c1.5-0.8,2.6-1.2,3.2-1.2c0.2,0,0.4,0,0.7,0.1C16.9,6.9,17.2,7,17.3,7c1.1,0.2,1.6,0.3,1.6,0.3c1.1,0.6,2.2,1.9,3.2,3.8
		c0.3,0.6,0.7,1.4,1.2,2.5c0.5,1.2,0.9,1.9,1.1,2.3c0.5,0.4,0.9,1.4,1.1,2.9c0.1,0.2,0.3,0.4,0.5,0.6c0.3,0.3,0.4,0.5,0.5,0.5
		c0.4,0.5,0.6,0.9,0.7,1.4c0,0.1,0,0.2,0,0.4c0,0.2,0,0.3,0,0.4c0.1,0.2,0.3,0.7,0.8,1.3c0.4,0.5,0.6,1,0.5,1.4
		c0.2,0.2,0.5,0.4,0.9,0.5c0.5,0.1,0.9,0.2,1,0.4c0,0,0.1,0.1,0.2,0.3c0.1,0.1,0.1,0.2,0.2,0.3c0.1,0.1,0.3,0.1,0.5,0.2
		c0.2,0.1,0.4,0.1,0.5,0.2c0.3,0.3,0.5,1.1,0.5,2.3c-0.6,0.2-1.1,0.2-1.5,0.2c-0.3,0-0.7-0.2-1.1-0.5c-0.4-0.3-0.7-0.6-0.9-0.9
		c0,0-0.1-0.3-0.5-1c-0.2-0.4-0.4-0.7-0.7-0.9c-0.1-0.1-0.3-0.1-0.5-0.2c-0.2,0-0.4-0.1-0.5-0.2c-0.3-0.2-0.6-0.8-1-1.7
		c-0.3-0.8-0.7-1.3-1.1-1.5c-0.6-0.1-1.1,0.1-1.5,0.7c-0.4,0.5-1,0.7-1.6,0.6c0.1,0.3,0.3,0.4,0.7,0.6c0.5,0.1,0.8,0.3,0.9,0.4
		c0.2,0.4,0.5,0.9,0.9,1.6c0.4,0.7,0.7,1.2,0.9,1.7c-0.5,0.5-1.2,0.5-1.8,0.2c-0.7-0.4-1-0.9-0.9-1.6l-0.8-0.4
		c-0.1,0.8,0.2,1.6,0.9,2.4c0.7,0.8,1,1.5,1,2.3c-0.3,0.3-0.7,0.4-1.2,0.3c-0.5-0.1-0.9-0.2-1.1-0.6c0-1.8-0.5-2.9-1.5-3.3
		c-0.1-0.6-0.4-1-0.9-1.4c-0.2-0.2-0.7-0.5-1.4-0.8c-0.1,0.3-0.3,0.8-0.5,1.7c-0.1,0.8-0.3,1.3-0.6,1.6c0.2,0.4,0.3,0.8,0.2,1.1
		c-0.1,0.3-0.3,0.6-0.7,0.9c-0.3,0.2-0.7,0.4-1.1,0.4c-0.4,0-0.8-0.1-1.1-0.4c-0.3,0.5-0.7,0.6-1.3,0.4c-0.6-0.2-0.9-0.6-1-1.2
		c0-0.1,0-0.5,0.1-1.2c0.1-0.5,0-0.8-0.3-1c0,0-0.1-0.1-0.3-0.1c-0.1,0-0.2,0-0.2,0C9.5,26.6,9,26,8.5,25.1H7.9
		C8,25,8.1,24.9,8.4,24.9c0-0.3-0.2-0.5-0.4-0.6c-0.3-0.2-0.4-0.3-0.5-0.4c-0.1,0.2-0.4,0.6-0.7,1.2c-0.3,0.5-0.5,0.9-0.7,1.2
		c-0.6,0.9-1.4,1.2-2.3,1c0.7-0.3,1.3-1,1.8-2.2c0.6-1.6,1-2.5,1.2-2.8C6.8,22,6.7,22,6.6,22c0.8-0.9,1.5-1.3,2.2-1.1
		c0-0.3,0-0.6-0.2-1c-0.2-0.5-0.4-0.8-0.4-1.1c0-0.1,0-0.2,0-0.4c0-0.2,0-0.4,0-0.5c-0.1-0.3-0.2-0.7-0.4-1.3
		c-0.2-0.6-0.4-1.1-0.5-1.3c-0.3-1-0.2-1.9,0.2-2.7c-0.9,0.2-1.4-0.1-1.6-0.9c0-0.4,0-1.2,0.2-2.4c0-0.3,0.1-0.6,0.1-1
		c0-0.5,0.1-0.8,0.1-0.8c0-0.5,0.2-0.9,0.4-1.2c0.3,0,0.6-0.2,0.9-0.5c0.1,0,0.1,0.1,0,0.1C7.7,6.1,7.6,6.2,7.5,6.2
		c0.4,0,0.8-0.3,1.3-0.8c0.6-0.6,1-0.9,1.3-1C9.9,4.5,9.7,4.7,9.5,5.1C9.3,5.4,9,5.7,8.9,5.8c0.1,0,0.3-0.1,0.5-0.2
		c0.2-0.2,0.4-0.4,0.4-0.6c0.1,0.1,0,0.2-0.1,0.4C9.5,5.7,9.3,5.8,9.4,5.8c0.5-0.2,1-0.7,1.5-1.4C10.9,4.4,10.7,4.8,10.2,5.5z"/>
</g>
</svg>
