<?xml version="1.0" encoding="utf-8"?>
<!-- Generator: Adobe Illustrator 21.1.0, SVG Export Plug-In . SVG Version: 6.00 Build 0)  -->
<svg version="1.1" id="Layer_1" xmlns="http://www.w3.org/2000/svg" xmlns:xlink="http://www.w3.org/1999/xlink" x="0px" y="0px"
	 viewBox="0 0 36 36" style="enable-background:new 0 0 36 36;" xml:space="preserve">
<g>
	<path d="M33.8,23c0,0,0.1,0.3,0.3,0.8c-0.1,0-0.1-0.1-0.1-0.3c-0.1,0-0.1,0.1,0,0.2C34,23.8,34,23.9,34,24c-0.1,0-0.2-0.2-0.3-0.6
		c0.1-0.1,0.1,0.2,0.2,1c-0.6-0.8-0.9-1.7-1-2.9c-0.1,0.1-0.1,0.4-0.1,1c0-0.3-0.1-0.7-0.1-1.2c0-0.5,0-0.9-0.1-1.2
		c-0.1-0.9-0.5-1.4-1.2-1.7c-0.1,0.5,0,1.1,0.3,1.8c0.4,0.9,0.7,1.5,0.7,1.8c0-0.1,0,0.8,0.2,2.7c0.1,1,0.3,1.8,0.7,2.4
		c-0.1,0.4-0.1,0.8,0.1,1.3c0.2,0.7,0.3,1.1,0.3,1.4c-0.2,0.4-0.6,0.6-1.1,0.7c-0.5,0.1-0.9-0.1-1.2-0.4c0-0.4,0-1.1,0.1-1.9
		c0.1-0.8,0.1-1.4,0.1-1.9c0-0.4-0.2-1-0.5-1.7c-0.3-0.8-0.5-1.4-0.6-1.7c0-0.1,0-0.2,0-0.3c0-0.1,0-0.3,0-0.3
		c-0.3-0.9-1.1-1.8-2.6-2.7c0.4,0.6,0.4,1.1,0.2,1.6c-0.3,0.5-0.7,0.6-1.4,0.4c-0.1-0.2-0.2-0.4-0.2-0.8c0-0.5,0-0.8-0.1-1
		c-0.4,0.2-0.6,0.5-0.7,0.9c-0.1,0.3,0,0.7,0,1.3c0.2,1.4,0.2,2.2,0,2.5c0.1,0.5,0,1.2-0.3,2.2c-0.2,0.9-0.3,1.7-0.1,2.3
		c-0.2,0.1-0.4,0.2-0.5,0.2c0,0.7-0.3,1.2-1.1,1.6c-0.7,0.3-1.3,0.3-1.8-0.2c0-0.5,0.3-1.1,0.8-1.7c0.6-0.7,0.9-1.3,0.9-1.7
		c0.2-1.1,0.2-2.1-0.1-3c0-0.1-0.1-0.2-0.2-0.4c-0.1-0.2-0.2-0.3-0.3-0.4c0-0.1-0.2-0.6-0.3-1.5c-0.1-0.6-0.3-1-0.6-1.2
		c-0.4,0-0.6,0-0.8,0.1c0,0.3,0,0.6,0.1,1.1c0.1,0.4,0.1,0.8,0.1,1.1c0,0.2-0.1,0.5-0.3,0.9c-0.2,0.4-0.3,0.6-0.3,0.8
		c-0.1,0.5,0,1.1,0.1,1.9c0.2,0.8,0.3,1.4,0.3,1.7c0,0.2-0.1,0.6-0.3,1.1c-0.2,0.5-0.3,0.9-0.5,1c-0.4,0.5-1.1,0.7-2,0.7
		c-0.2-0.2-0.4-0.4-0.7-0.4c0.1-0.5,0.3-1.2,0.8-2.1c0.4-0.8,0.6-1.5,0.7-2c0.1-0.9,0-1.8-0.2-2.8c0-0.1-0.1-0.3-0.2-0.5
		c-0.1-0.2-0.2-0.4-0.2-0.6c0-0.3,0-0.7,0.1-1.2c0.1-0.5,0.1-0.9,0.1-1.2c-0.4,0-0.8,0.5-1.2,1.2c-0.4,0.8-0.8,1.2-1.1,1.3
		c0.2,0-0.4-0.3-1.8-0.9c0.1-0.1,0.2,0.3,0.2,1.2c0,0.1,0,0.3-0.1,0.6c-0.1,0.3-0.1,0.5-0.1,0.6c0,0.2,0,0.6,0,1.1
		c0,0.4,0,0.8-0.1,1c-0.1,0.6-0.5,1-1.1,1c0.1,0-0.1-0.1-0.6-0.2c-0.3,0.3-0.8,0.4-1.4,0.3c-0.7,0-1.1-0.3-1.2-0.6
		c0-0.2,0-0.3,0.1-0.5c0.1-0.2,0.1-0.4,0.1-0.5c-0.2,0.1-0.3,0.3-0.5,0.7c-0.1,0.5-0.1,0.9,0,1.2c-0.1,0-0.2,0.2-0.4,0.5
		c-0.1,0.2-0.3,0.3-0.5,0.3c0,1.7-1.1,2.4-3.2,2.2c-0.2-0.5-0.2-1,0.2-1.6c0.3-0.5,0.7-0.8,1.2-1.1C7.7,27,8.1,26.2,8.8,25
		c0.6-1,0.8-1.8,0.7-2.3c0-0.2-0.2-0.4-0.5-0.5c-0.4-0.2-0.7-0.3-0.7-0.3c-0.2-0.1-0.4-0.4-0.6-0.7c-0.3-0.4-0.4-0.6-0.5-0.7
		c-0.1,0.2-0.3,0.3-0.6,0.4c-0.4,0.1-0.6,0.2-0.7,0.3c-0.1,0-0.2,0.2-0.3,0.4C5.5,21.9,5.3,22,5.1,22C5,21.6,4.9,21.1,5,20.5
		c0.1-0.5,0.2-1,0.4-1.4c-1.2,0.8-2,1.7-2.2,2.7c0,0.1,0.1,0.1,0.2,0c0.1-0.1,0.2-0.1,0.3-0.1c-0.1,0.6-0.4,0.9-1,0.9
		c-0.5,0-0.9-0.3-0.9-0.9c-0.1-0.9,0.4-1.9,1.5-3.1c1.4-1.5,2.1-2.3,2.1-2.4c0.7-0.4,1.3-0.9,1.8-1.4c-0.3-0.6-0.3-1.3-0.2-2.2
		c0-0.3,0.1-0.6,0.3-1c0.1-0.5,0.2-0.8,0.3-1c0.4-1.8,0.7-2.8,0.9-3.1c0.3-0.4,0.8-0.8,1.4-1.1C10,6.3,10.3,6.2,10.7,6
		c0.4-0.2,0.7-0.3,0.9-0.4c0.2-0.5,0.6-0.7,1.3-0.9c0.2,0,0.5,0,0.9-0.1c0.4,0,0.7,0,0.8-0.1c0.2,0,0.4-0.1,0.6-0.1
		c0.3-0.1,0.5-0.1,0.6-0.1c0.5-0.1,0.9-0.1,1.4,0c0.7,0.2,1.5,0.7,2.5,1.6C21,7.1,21.8,7.7,22,7.8c0.1,0,0.2,0.1,0.4,0.1
		c0.2,0,0.3,0,0.4,0.1c0.3,0.1,0.6,0.3,1.1,0.5C24.4,8.8,24.8,9,25,9.1l2.4,1c0.3,0.1,0.7,0.1,1.1,0c0.7-0.2,1-0.3,1.1-0.3
		c0.8-0.1,1.4,0.1,2,0.6c0.5,0.4,0.8,0.9,0.9,1.5c0.1,0.7,0,1.5-0.3,2.4c-0.4,1-0.6,1.8-0.6,2.2c0,0.7,0.4,1.5,1.2,2.3
		c0.9,0.9,1.4,1.6,1.5,2.1c0,0,0,0.1,0,0.2c0,0.1-0.1,0.2-0.1,0.3c0,0.1,0.1,0.5,0.2,1.2c0,0.4,0,0.3-0.2-0.3
		C33.9,22.7,33.8,23,33.8,23z M31.7,12.1c-0.4-1-1.1-1.4-2.1-1.2c0.1,0.2,0.3,0.5,0.5,0.8c0.3,0.4,0.5,0.7,0.6,0.9
		c0.5,0.8,0.7,1.5,0.8,2.2C31.9,13.9,32,13,31.7,12.1z"/>
</g>
</svg>
