<?xml version="1.0" encoding="utf-8"?>
<!-- Generator: Adobe Illustrator 21.1.0, SVG Export Plug-In . SVG Version: 6.00 Build 0)  -->
<svg version="1.1" id="Layer_1" xmlns="http://www.w3.org/2000/svg" xmlns:xlink="http://www.w3.org/1999/xlink" x="0px" y="0px"
	 viewBox="0 0 36 36" style="enable-background:new 0 0 36 36;" xml:space="preserve">
<g>
	<path d="M6.3,21.3c0-0.1,0.1-0.3,0.2-0.4c0.1-0.1,0.2-0.3,0.2-0.4c-0.1,0-0.4,0.3-0.9,0.7c-0.4,0.3-0.7,0.5-1.1,0.6v-0.1
		c0.7-0.4,1.9-1.6,3.5-3.6c0.6-0.7,0.9-1.2,1.1-1.3c0.4-0.3,0.7-0.5,1-0.6c0.3,0,0.5,0,0.7,0.2c0.2,0.2,0.3,0.3,0.3,0.6
		c0,0.5-0.3,1-1,1.5c0-0.2,0.1-0.4,0.3-0.6c0.2-0.2,0.3-0.5,0.3-0.8c-0.1-0.1-0.3-0.2-0.5-0.1c-0.2,0-0.4,0.1-0.5,0.2
		c-0.1,0.1-0.5,1.1-1.4,3c-0.1-0.1-0.1-0.2-0.1-0.4c0-0.3,0-0.5,0-0.5c-0.7,0.9-1,1.4-0.9,1.3c0-0.1,0-0.2,0-0.3
		c0-0.1,0.1-0.2,0.1-0.2c-0.1,0.1-0.3,0.3-0.6,0.6C6.7,21.1,6.5,21.2,6.3,21.3z M14.6,25.5c0.6,1.3,1.2,2.2,1.9,2.9
		c-0.6-0.2-1.1-0.5-1.5-0.9c0,0-0.1-0.1-0.2-0.2c-0.1-0.1-0.1-0.2-0.2-0.2c-0.1-0.1-0.2-0.2-0.4-0.3c-0.2-0.1-0.3-0.3-0.4-0.4
		c-0.1-0.9-0.2-1.3-0.2-1.4c-0.2-0.6-0.4-0.9-0.6-1c-0.2,0-0.5,0-1,0.2c-0.3,0.1-0.6,0.4-1.1,0.9C10,25.9,9.4,27,8.8,28.3
		C8.6,28.7,8.5,29,8.5,29c0,0,0,0.1,0,0.2c0,0.1,0,0.2,0,0.2c0,0.1,0,0.3-0.1,0.7c-0.1,0.3-0.1,0.5,0,0.6c0,0.2-0.1,0.4-0.5,0.5
		c-0.3,0.2-0.5,0.1-0.6-0.2c-0.1,0.2-0.3,0.3-0.6,0.2c-0.3-0.1-0.4-0.3-0.4-0.5c0-0.1,0-0.3,0.1-0.4c0.1-0.2,0.2-0.3,0.2-0.4
		c-0.1-0.1-0.1-0.5,0-1.1c0.5-2.1,1-3.6,1.6-4.6c0-1.2,0.4-2.4,1.1-3.7c1.3-2.4,2.9-3.7,4.8-3.8c0.1,0,0.2,0,0.4,0
		c0.1,0,0.3,0,0.3,0c0.3,0,0.6-0.2,1-0.6c0.1-0.1,0.5-0.5,1.1-1.2c0.5-0.5,0.9-0.9,1.2-1.1c0,0.1,0,0.6-0.1,1.3
		c-0.1,0.5,0,1,0.1,1.3c0.2,0.5,0.3,0.6,0.3,0.6c-0.9-0.1-1.4-0.1-1.5-0.1c-1,0.1-2,0.6-3.1,1.6c-0.4,0.4-1.3,1.4-2.5,3
		c0.2-0.8,0.8-1.8,1.9-3.2l0.3-0.4c-0.1-0.2-0.3-0.2-0.8,0.1c-1.1,0.6-2,1.6-2.8,2.9c-0.6,1-0.8,1.8-0.7,2.3c0.4,0,0.8-0.3,1.2-0.9
		c0.1-0.2,0.2-0.4,0.3-0.7c0.1-0.3,0.3-0.6,0.3-0.7c0.2,1.1-0.4,2.2-1.6,3.4c-0.4,0.4-0.6,0.7-0.7,0.8c-0.2,0.3-0.5,0.9-0.8,1.7
		c-0.1,0.2-0.2,0.6-0.3,1c-0.2,0.8-0.2,1.3,0.1,1.5c0.3-0.4,0.6-1.1,1-2.1c0.4-0.9,0.7-1.6,1.1-2c0,0-0.1,0-0.2,0.1
		c-0.1,0-0.2,0-0.3,0c0,0,0-0.1,0.1-0.2c1.3-1.2,2.3-2.3,2.9-3.2c0,0.1,0,0.2,0,0.3c-0.1,0.1-0.1,0.2-0.1,0.3c0,0.2,0.2,0.3,0.7,0.5
		c-0.1-1,0.1-1.6,0.6-1.9c-0.1,1-0.2,1.5-0.2,1.5S13.7,23.5,14.6,25.5z M30.3,31.5c0.2,0.3,0.3,0.6,0.3,0.7c0,0.1-0.2,0.2-0.5,0.5
		c-0.1-0.1-0.2-0.2-0.3-0.4c-0.1,0.3-0.1,0.4-0.2,0.4h-0.3c-0.1,0-0.2-0.1-0.5-0.2c-0.2-0.1-0.4-0.1-0.5-0.2c0-0.9-0.1-1.4-0.3-1.5
		c-0.1-1.6-0.6-3-1.6-4.3c-0.5-0.7-1.5-1.6-3-2.9c-0.3,0.1-0.8,0.4-1.4,0.7c-0.6,0.3-1.1,0.6-1.4,0.7c-0.1,0.1-0.2,0.3-0.3,0.6
		c-0.2,0.3-0.3,0.5-0.3,0.6c-0.2,0.5-0.3,0.9-0.2,1.4c-0.1,0.2-0.3,0.3-0.6,0.5c0,0.1,0.1,0.3,0.2,0.6c0.1,0.2,0.1,0.4,0.1,0.6
		c-0.7,0.3-1.2,0.4-1.4,0.5V29c-0.1,0.1-0.1,0.2-0.2,0.3c-0.1,0.2-0.1,0.3-0.2,0.3c-0.7-0.1-1.1-0.2-1.2-0.4
		c0.2-0.3,0.4-0.8,0.6-1.6c0.2-0.7,0.5-1.3,0.7-1.5c-0.6-0.2-1.1-0.5-1.5-1c-0.4-0.5-0.6-1.2-0.6-1.9c0-0.3,0.1-0.6,0.2-1
		c0.2-0.5,0.3-0.8,0.3-0.9c-0.2,0.1-0.4,0.3-0.6,0.8c-0.3,0.6-0.4,1.4-0.2,2.2c0.2,0.7,0.6,1.3,1.1,1.7c-1-0.2-1.8-0.9-2.4-2
		c-0.6-1.1-0.7-2.3-0.3-3.5c-0.3,0.1-0.7,0.2-1,0.5c-0.5,0.4-0.8,0.6-0.9,0.6c0.6-1.2,1.6-2.2,2.9-3.2c0.9-0.6,1.7-1,2.4-1.1
		c-0.1,0.1-0.3,0.2-0.6,0.5c-0.3,0.2-0.5,0.4-0.7,0.5c-0.5,0.4-0.9,0.9-1,1.3c-0.1,0.3,0,0.6,0.3,0.9c1.1,0,1.9-0.5,2.5-1.4
		c0.5-0.8,0.7-1.9,0.7-3.2c0-0.2-0.1-0.5-0.1-0.9c-0.1-0.4-0.1-0.7-0.2-0.8c0.6,0.5,0.9,1.4,1,2.9c0.1,0.7-0.1,1.4-0.4,1.9
		c0.8-0.5,1.2-1.3,1.2-2.5c0-0.7-0.3-1.5-0.8-2.3c0.9,0.2,1.5,0.8,1.9,1.8c0.4,1,0.4,2.1,0.2,3.2c0.3,0.9,0.5,1.4,0.5,1.5
		c-0.2-0.3-0.4-0.5-0.7-0.8c-0.4-0.5-0.7-0.9-0.7-1.3c-0.1,0.1-0.4,0.3-0.7,0.6c-0.3,0.3-0.5,0.5-0.7,0.6c0.7-0.2,1.4-0.2,1.9,0.2
		c0.5,0.4,0.8,0.9,0.9,1.6c0.7-1.3,1.1-2.5,1.1-3.5c0.1-2.3-0.6-4-2.2-5.1c0.8,0.1,1.5,0.8,2.2,2c0.6,1,0.9,2.1,1,3.3
		c0.3-0.3,0.5-0.7,0.6-1.3c0.1-0.6,0.1-1.1,0-1.7c0.5,0.8,0.6,1.7,0.4,2.9c-0.2,1-0.5,1.9-1,2.7c-0.5,0.7-1,1.2-1.7,1.7
		c-0.6,0.5-1,0.8-1,1.1c2.8-1.1,4.3-2.8,4.5-5c0-0.3-0.1-1.2-0.4-2.7c1.1,1.4,1.8,3.9,2.4,7.3c0.1,0.8,0.1,1.3,0.1,1.5
		c-0.1-0.1-0.3-0.7-0.6-1.7c-0.2-0.7-0.6-1.1-1-1.3c-0.2,0-0.4,0.2-0.5,0.5c-0.1,0.3-0.1,0.6-0.1,0.9c0.1,0.6,0.7,1.3,1.6,2
		c0.4,0.3,0.6,0.5,0.6,0.5c-0.1,0-0.3,0-0.4-0.1s-0.3-0.1-0.4-0.1c0,0.2,0.2,0.5,0.5,0.9c0.2,0.3,0.4,0.6,0.6,0.9
		c0.1-0.1,0.1-0.2,0.2-0.4c0.1-0.2,0.1-0.3,0.2-0.4c0,0.1,0.2,0.8,0.4,2.2c0.1,0.8,0.3,1.5,0.6,2c-0.2-1.4-0.4-3.1-0.8-5.2
		c0,0-0.1,0.1-0.1,0.2c0,0.1-0.1,0.2-0.1,0.2c-0.1,0.2-0.2,0.2-0.3,0.2c0-2.6-0.4-5-1.4-7.3c-0.5-1.3-1.5-3.2-3-5.6
		c0.3,1.7,0.3,2.7,0.1,3.3c-0.6-3.2-1.5-5.4-2.7-6.8c1.3,0.8,2.5,2,3.6,3.7c2.5,3.6,4.1,8.8,4.8,15.6c0.1,1.1,0.2,1.6,0.2,1.7
		C29.9,30.9,30.1,31.2,30.3,31.5z M13.6,11.7c-0.2,0-0.3-0.2-0.5-0.4c0-0.1-0.1-0.2-0.2-0.3s-0.1-0.3-0.2-0.3
		c-0.2-0.3-0.2-0.4-0.2-0.5c0,0,0.3-0.2,0.8-0.6C13.7,9.4,14,9.2,14.1,9c-0.1,0,0.2,0,0.6,0c0.2,0,0.5-0.2,0.8-0.4
		c0.4-0.3,0.6-0.4,0.8-0.5C16.6,8.1,16.9,8,17.3,8c0.3-0.1,0.6-0.1,0.7-0.1c0.6-0.2,1-0.4,1.2-0.7c0.2-0.2,0.3-0.4,0.3-0.5
		c0-0.2-0.2-0.5-0.5-0.8c-0.4-0.3-0.5-0.6-0.5-0.9c0.1-0.5,0.5-1,1.4-1.6h0.1c0,0.1-0.1,0.2-0.2,0.3c-0.1,0.1-0.2,0.1-0.2,0.2
		c-0.3,0.4-0.2,0.8,0.2,1.3c0.3,0.4,0.7,0.7,1.1,0.8c0.3,0.4,0.5,0.6,0.6,0.7c0.2,0.3,0.3,0.6,0.2,0.9c-0.1,0.5-0.4,1-1,1.3
		c0,0.1,0.2-0.1,0.5-0.6c0.3-0.4,0.2-0.8-0.1-1.3c-0.3-0.4-0.6-0.7-1-0.8c0.2,0.4,0.3,0.7,0.2,1.1C20,7.5,19.8,7.8,19.4,8
		c0,0-0.2,0-0.5,0.2c-0.2,0.1-0.3,0.2-0.3,0.3c0,0.1,0.1,0.2,0.2,0.2c0.1,0.1,0.2,0.1,0.1,0.2c-0.3,0-0.7-0.1-1.1-0.5
		c-0.5,0-0.7,0.1-0.8,0.1c-0.3,0.1-0.4,0.2-0.4,0.4c0.1,0,0.1,0,0.2-0.1c0.1-0.1,0.2-0.2,0.2-0.2c0.1,0,0.2,0,0.3,0
		c0.1,0.1,0.2,0.1,0.3,0.1c0,0,0,0,0-0.1c-0.1,0-0.1-0.1-0.1-0.1h0.3C18,9,17.7,9.3,17,9.4c-0.1,0-0.7,0-1.8-0.1c0,0,0,0.1,0,0.1
		c0.1,0.1,0.1,0.1,0,0.2c-0.1,0-0.2-0.1-0.4-0.2c-0.1-0.1-0.3-0.2-0.4-0.1c0,0-0.2,0.2-0.8,0.6c-0.1,0-0.1,0.1-0.2,0.1
		C13.3,10,13.2,10,13.2,10c-0.2,0.1-0.3,0.2-0.3,0.3c0.1-0.2,0.2-0.2,0.5,0c0.2,0.2,0.2,0.4,0.1,0.5c-0.1,0-0.1,0-0.2,0
		c-0.1-0.1-0.1-0.1-0.2-0.1c0.1,0.2,0.2,0.3,0.4,0.5c0.6-0.4,0.9-0.6,1-0.6c0.5-0.2,0.8-0.2,1.1,0.1c0.3,0,0.5,0,0.4,0
		c0,0.2-0.1,0.4-0.3,0.4c-0.1,0-0.2,0-0.3,0c-0.2,0-0.3,0-0.4,0c-0.3,0-0.6,0.2-0.9,0.5c-0.3,0.3-0.2,0.6,0.2,0.8
		c-0.1-0.3,0-0.5,0-0.6c0.4-0.2,0.9-0.2,1.4,0.1c0.1,0,0.5,0.3,1.2,0.7c-0.1,0-0.2-0.1-0.4-0.1c-0.2-0.1-0.4-0.2-0.5-0.2
		c-0.4-0.1-0.7,0-0.9,0.2c0.4,0.2,0.7,0.3,1.1,0.3c0.2,0.7,0.8,1,1.7,0.9c0,0.1,0,0.1-0.1,0.2c-0.1,0.1-0.2,0.1-0.3,0.1
		c-0.4,0.1-0.8,0-1-0.1c-0.1,0-0.2-0.2-0.4-0.6c-0.2-0.3-0.4-0.4-0.6-0.4c-0.8-0.1-1.2-0.2-1.2-0.2C13.8,12.4,13.6,12.1,13.6,11.7z
		 M14.8,7.3c0-0.3-0.1-0.6-0.2-0.7c-0.2-0.2-0.4-0.2-0.8-0.2c0.1-0.3,0.4-0.4,0.8-0.3c0.4,0,0.7,0.2,0.9,0.4
		c0.2,0.3,0.2,0.8,0.1,1.4c0,0.1,0,0.1,0.1,0.2c0.1,0.1,0.1,0.1,0.1,0.1c-0.3,0.4-0.7,0.6-1.1,0.6C14.7,9,14.7,8.5,14.8,7.3z
		 M14.6,10.2c-0.2,0-0.4-0.1-0.5-0.3c-0.1-0.2,0-0.4,0.2-0.5c0.2,0,0.3,0.1,0.3,0.3S14.7,10.1,14.6,10.2z M21.7,9.3
		c-0.1,0.2-0.4,0.4-0.7,0.5c-0.3,0.1-0.6,0.1-0.8-0.1c0-0.1,0.1-0.1,0.2-0.1c0.1,0,0.2,0,0.2-0.1c0-0.2-0.1-0.2-0.4-0.2
		c-0.2,0-0.3,0-0.4,0.1c0.2,0.3,0.4,0.7,0.4,1.1c0.1,0.5,0,0.9-0.3,1.1c-0.2,0.2-0.6,0.3-1.1,0.4c-0.7,0.1-1.2-0.1-1.6-0.5
		c-0.4-0.4-0.6-0.7-0.8-1.1c-0.3-0.3-0.7-0.4-1.2-0.3c0-0.2,0.2-0.3,0.4-0.3c0.1,0,0.2,0,0.3,0c0.1,0,0.3,0,0.3,0
		c0.1,0,0.2-0.1,0.4-0.2c0.2-0.1,0.3-0.2,0.4-0.2c0.5-0.1,1,0,1.4,0.2c0.2,0.2,0.5,0.5,0.9,1c-0.1,0-0.2,0-0.3-0.1
		c-0.2-0.2-0.3-0.3-0.2-0.3c-0.2-0.1-0.4-0.2-0.7-0.3c-0.6-0.1-0.9,0-0.9,0.2c-0.1,0.2,0,0.4,0.2,0.6c0.2,0.3,0.5,0.5,1,0.7
		c0.5,0.2,1,0.2,1.3-0.1c0.1-0.1,0.2-0.3,0.2-0.6c0-0.3-0.1-0.7-0.5-1c-0.5-0.5-0.8-0.8-0.8-0.7c0.4-0.3,0.9-0.4,1.4-0.5
		c0.6,0,1,0.2,1.1,0.6H21.7z M22.1,18c-0.1,0.3-0.2,0.5-0.3,0.5c0.3-1,0.2-1.9-0.3-2.7c-0.4-0.8-1-1.3-1.7-1.6
		c-0.2-0.1-0.4-0.1-0.7-0.2c-0.3-0.1-0.6-0.2-0.8-0.2c-0.6-0.2-0.9-0.5-1.1-1c0.1,0,0.2,0.1,0.5,0.2c0.2,0.1,0.4,0.1,0.5,0.1
		c0.7,0,1.3-0.2,1.8-0.7c0.5-0.5,0.8-1,0.9-1.7c0,0,0,0,0,0c0,0,0,0,0,0c0,0,0,0,0,0c0,0,0,0,0,0c0.1,0.9-0.3,1.8-1,2.6
		c0.8,0.4,1.4,1.1,1.8,1.9C22.3,16.1,22.5,17,22.1,18z M19.5,25c0.9-1.2,1.4-2.2,1.4-2.9c0-1-0.3-1.5-1-1.5
		c-0.6-0.1-1.3,0.3-1.9,1.1c-0.5,0.6-0.7,1.3-0.7,2.1c0,0.8,0.3,1.4,0.8,1.9c0.2-0.3,0.3-0.6,0.4-1c0.1-0.5,0-0.8-0.1-1.1
		c-0.1,0.1-0.2,0.2-0.2,0.3c-0.1,0.2-0.2,0.3-0.2,0.4c-0.1-0.2,0-0.8,0.3-1.6c0.2-0.5,0.3-0.9,0.5-1.1c0.2-0.3,0.5-0.5,0.8-0.5
		c0.4-0.1,0.6,0,0.8,0.3c-0.5-0.1-0.8,0.3-0.9,0.9c-0.1,0.6,0,1.1,0.3,1.6c0.1,0,0.1,0,0.2-0.1s0.1-0.1,0.2-0.1c0,0-0.1,0.2-0.2,0.4
		c-0.1,0.2-0.2,0.3-0.2,0.3c-0.1,0-0.1,0-0.2-0.1c-0.1-0.1-0.1-0.1-0.2-0.1c-0.1,0.6-0.2,1.1-0.4,1.4c0,0.1-0.1,0.3-0.2,0.5
		c-0.1,0.2-0.2,0.4-0.2,0.5c-0.2,0.4-0.2,0.8-0.1,1.1c0.9-0.6,1.5-1.6,1.9-3c0,0-0.1,0.1-0.3,0.3C19.7,25.1,19.6,25.1,19.5,25z"/>
</g>
</svg>
