<?xml version="1.0" encoding="utf-8"?>
<!-- Generator: Adobe Illustrator 21.1.0, SVG Export Plug-In . SVG Version: 6.00 Build 0)  -->
<svg version="1.1" id="Layer_1" xmlns="http://www.w3.org/2000/svg" xmlns:xlink="http://www.w3.org/1999/xlink" x="0px" y="0px"
	 viewBox="0 0 825 825" style="enable-background:new 0 0 825 825;" xml:space="preserve">
<path d="M380.1,134.1c4-4.7,8.7-8.7,14-11.6c-2.6,16.7-7.8,32.9-9.7,49.7c-1,11.7-0.7,24.4,5.9,34.5c2.9,5,8.8,7,13.9,8.9
	c17.4,5.6,36.2,3.7,53.8,0c0-2.9-0.1-6.1-3.1-7.5c3.6,1.3,8.5,1.1,11.1-2c4.5-4.2,11.1-4.3,16.9-4c8.4,0.9,16.7,2,25,3
	c11.4,2.1,22.1-5.4,33.5-3.8c8,1.1,16.5,2.2,23,7.3c2.5,1.8,3.7,4.6,4.9,7.3c18.1,0.3,36.4,5.1,54.4,1c10.8-2.5,19.9-10,25.5-19.4
	c7.4-12.4,9.7-27.1,11.7-41.2c1.5-10.8,2.4-21.8,3.3-32.7c6.8,12.7,8,27.4,7.8,41.5c-1.2,20.4-3.9,41.6-14.5,59.4
	c-5.7,9.8-15.7,16.5-26.3,19.8c-18.3,6-38,4.8-56.8,1.8c1.8,2.5,4.6,4.2,7.7,4.6c11,1.5,22.2-3.2,33,0.5
	c1.9,12.4-5.7,23.5-13.2,32.6c-1.4,2.4-4.4,1.4-6.7,1.3c-9.3-1.6-18.3-4.8-27.2-7.8c0.3,9.3,3,18.4,3.2,27.7
	c0.4,12.6-1.3,25.5-5.9,37.3c-3.7,5.5-7.9,11-9.6,17.6c-6.1,1.8-10.4,7.3-11,13.6c-1.4,12.1,1,24.4-0.3,36.5
	c-0.3,9.5-6,18.3-4.5,27.9c2.6,15.3,5.8,30.4,8.7,45.7c3.4,16.5,3.9,34.1-1.7,50.2c-4.5,12.3-14.4,21.6-19.7,33.5
	c-4.6,10.1-9.2,20.1-13.6,30.3c-4.7,6.9-9.9,13.6-14.5,20.6c-3.3,5.2-7.1,10.4-8.2,16.6c-2.7,10.3-5.5,21.8-0.7,32
	c2.9,7.2,9.5,11.8,14.4,17.6c4.4,5.2,8.9,11.1,9.4,18.1c-10,2.9-20.7,4.9-31.1,2.7c-6.2-1.1-12-3.8-17.3-7.3
	c-0.4-7.7,0.6-15.4,2.3-22.9c-3.8-0.8-7.6,1.5-11.2,0.3c-3.7-1.6-1.4-6.1,0-8.7c2.8-4.4,6.3-8.8,6.1-14.3c-2.8-1.2-5.8-2.1-8.5-3.5
	c-1.7-1-1.8-3.2-2.5-4.8c-9.4-0.9-17.6-6.4-24.4-12.6c6.5-12.2,18-21.9,31.8-24.4c-3.7-8.7-8.9-17.4-17.1-22.6
	c-12.6,0.6-24.7,6-37.5,4.3c-8.9-0.7-17.5-3.2-26.5-3.4c-5.1-0.2-10,3-11.7,7.8c-3.2,8.9-1.9,18.7,0.8,27.6c-2.8-0.2-5.5-0.4-8-1.8
	c0,2.4-0.1,4.8-0.3,7.2c-0.6-1.5-1-3-1.7-4.5c-6-9.4-10.5-19.6-15.2-29.7c-4.3-8.9-10.7-17.7-20.4-21.1c-1,3.3-2.2,6.6-4.2,9.4
	c-2.9,4.3-7.2,8-8.7,13.2c-1.7,9.9,2.4,19.8,8.1,27.8c6.9,9.4,15.8,17,23.8,25.4c2.1,2.5,2.2,6.1,1.7,9.1c7.2,4.6,14.3,10,18.4,17.6
	c2.1,4,3.1,8.7,2.3,13.2c-8.6,2.6-17.9,4.1-26.6,1.3c-6.3-1.9-12.3-6.2-14.4-12.6c-2-5.3-0.6-11,0-16.4c-4.2,0.3-7.4,4.2-11.8,3.2
	c-0.9-15.5-5.9-31-16-43.1c-6.3-7.7-12.4-15.6-19.3-22.8c-1.7-1.5-0.8-3.9-0.5-5.8c1.5-6.3,4.7-12.3,4.4-18.9c-4-5-12-1.9-16.8-5.3
	c-2.7-6.4-4.5-13.3-4.2-20.2c-11.1,13-21.8,26.9-27.4,43.2c-1.8,4.8-1.8,10.1-4.4,14.6c-5.5,9.7-12.2,18.6-18.1,28
	c-7.1,12.9-6.7,28.4-3.5,42.3c0.8,3.9-0.4,9.3-4.4,10.9c-9.7,0.1-21.5,1.6-28.9-6.1c1-6.9,1.3-14.3,4.9-20.5
	c-2.7-1.4-4.9-3.5-6.1-6.3c10.4-14.4,13.7-32.2,17.2-49.2c2.8-9.9,6.4-19.6,9.4-29.4c2.8-9.2,3.2-19,2.1-28.5
	c-2.4-14.6-11.8-27.4-12-42.5c-9.3-2.3-18.1-7.5-23.6-15.5c-4.8-6.7-7.7-14.6-8.5-22.8c-1.2-6.7,0.6-13.3,2-19.8
	c3.1-13.4,8-26.9,5.7-40.8c-1.8-11.1-3.2-22.4-2-33.6c0.8-5.3,2-10.9,5.4-15.2c-1.1,8.8-4.7,17.3-3.7,26.3
	c3.6-12.9,7.9-26.1,17.1-36.1c2.3,1.3,3.9-0.8,5.5-2.2c-7.1,15.1-13.9,31.2-13.2,48.2c7.6-15.3,7.9-33.8,18.2-47.9
	c-1.9,10.6-5.5,20.8-8.1,31.2c5.1-4.1,9.6-9.4,11.5-15.8c1.7-4.8,1.3-10,1.1-15c3.2,9.6,0.3,19.9-4.5,28.4c-4.3,8.2-9,16.6-10.3,26
	c6.5-10.2,12.6-20.8,19.1-31c-0.3,14.6-10.2,26.3-14.3,39.8c7.6-8.6,11.7-19.6,17.4-29.4c-1.5,9.7-5.3,18.9-9.6,27.7
	c2.5-2.2,4.5-4.8,6.7-7.2c-6.7,11.8-15.3,22.5-21.6,34.6c-4.7,8.7-8.4,18.8-5.8,28.7c2.2,8.3,9.4,14.1,16.9,17.5
	c3.4-13.2,4.9-26.9,9.2-39.9c2.6-7.7,6.6-15.2,13.1-20.3c-0.8-8,0.5-16.6,5.7-23c5.5-6.6,13.7-11,22.3-11.8c7-0.6,13.8,2.4,19.3,6.5
	c6.6-5.4,15.3-6.8,23.6-7.1c9-1.2,18.1,0.9,27.2-0.4c10.9,0.1,21-4.4,31.3-7.6c8.5-2.8,18.1-2.4,26-7.1c6.3-3.7,8.3-11.1,12.1-16.9
	c7.1-11.7,14.5-24.3,26.6-31.5c0.5-10.8,5-20.7,9.1-30.5c-5.4-0.6-8.7,4.4-13.1,6.4c-10.4-7.1-15.7-20.1-15.9-32.4
	c4.1-5.8,11.6-7.4,18.3-8.2c14.3-1.2,29.7,1.3,43.2-4.7c-8.5-0.6-17-1.1-25.5-1.4c-11.6-1-23.6-0.9-34.7-5.2
	c-8.9-3.2-17.1-9.6-20.5-18.7c-5.3-13.9-4.2-29.2-2.5-43.7C364.4,164.7,369,147.3,380.1,134.1z"/>
</svg>
