<?xml version="1.0" encoding="utf-8"?>
<!-- Generator: Adobe Illustrator 21.1.0, SVG Export Plug-In . SVG Version: 6.00 Build 0)  -->
<svg version="1.1" id="Layer_1" xmlns="http://www.w3.org/2000/svg" xmlns:xlink="http://www.w3.org/1999/xlink" x="0px" y="0px"
	 viewBox="0 0 300 300" style="enable-background:new 0 0 300 300;" xml:space="preserve">
<g>
	<path d="M245.2,94c0.4,9.6-1.7,18-6.3,25.2c-5.4,8-12.7,12-21.9,12c-15.8,0-24.5-9.8-26.1-29.4c-0.2,0-1.6,0.8-4.1,2.4
		c-2.5,1.6-4,2.4-4.3,2.4c-3.6,0-6.7-1-9.2-3.1c-2.5-2.1-3.8-4.8-3.8-8.2c0-0.6,0.8-2.2,2.4-4.8c0.4,0,1.7,0.4,3.9,1.2
		c2.2,0.8,3.5,1.2,3.9,1.2c6.4,0,9.6-3.6,9.6-10.8c0-3-1.3-5.6-3.9-8c-2.6-2.3-5.4-3.5-8.4-3.5c-8.2,0-12.3,6.8-12.3,20.4
		c0,23.8,0.1,45.8,0.3,66l7.2-2.7c17.2-6.4,32.5-10.8,45.9-13.2c5.4-1,10.5,0.6,15.3,4.7c4.8,4.1,7.2,8.8,7.2,14.2
		c0,6.6-2.5,10.8-7.5,12.6l-3-0.9c2.4-5,4.4-9,6-12c0-3.6-1.5-6.7-4.4-9.3c-2.9-2.6-6.4-4-10.6-4.2c-12.8-0.8-31.2,4.9-55.2,17.1
		v15.9c4.8-1.6,10-0.9,15.6,2.1c6.2-9.2,14.6-13.5,25.2-12.9c10.8,0.6,19.4,5.1,25.8,13.5c5.8,7.6,8.7,17,8.7,28.2
		c0,19-8.8,33.7-26.4,44.1c-14.6,8.6-32.1,12.9-52.5,12.9c-12.6,0-25.5-4-38.7-12c-12-7.4-21.9-16.7-29.7-27.9c-4.2,3-7.8,9-10.8,18
		c-2.4,7.4-3.8,14.4-4.2,21l-1.2,5.1h-2.1c-0.6-1.4-1.1-2.4-1.5-3c0-12.8,5-27.7,15-44.7c-9.2-17-13.8-34.7-13.8-53.1
		c0-5.4,0.5-11.4,1.5-18l-3.6-0.3H61.6c-6.2,0-11.8-1.5-16.8-4.5c-5.8-3.4-8.7-8-8.7-14c0-4.2,1.5-7.9,4.5-11.2
		c3-3.3,6.5-4.9,10.5-4.9c-0.2,0,2.2,0.4,7.2,1.1l0.6,2.8c-0.6,0.2-2.9,0.1-6.9-0.3c-2.2,0-4,1.2-5.5,3.5c-1.5,2.3-2.2,4.8-2.2,7.3
		c0,10.8,6.6,16.2,19.8,16.2c10.2,0,15.1-2.4,14.7-7.2c-11.8-11.2-17.6-24.3-17.4-39.3c0.4-26.6,12.9-46.1,37.5-58.5
		c18.6-9.2,42.7-14,72.3-14.4c14.4,2,26.9,5.7,37.5,11.1C232,51.8,244.2,69.8,245.2,94z M241.3,97.3c0-20-8.8-35.3-26.4-45.9
		c-14.6-8.8-32.5-13.2-53.7-13.2c-22.6,0-42.8,4.8-60.6,14.4c-22,12-33,28.3-33,48.9c0,8,0.7,13.9,2.1,17.8
		c1.4,3.9,4.8,8.7,10.2,14.2c6.2-15.2,13.6-27.2,22.2-36c7.8-8.4,19.3-16.6,34.5-24.6l2.1,1.2V76c-8,5.8-14.1,13.6-18.3,23.4
		c-1,1.6-4.3,11-9.9,28.2l-1.2,2.7c5.6-5,12.6-14.1,21.2-27.3c8.5-13.2,15.5-22.3,20.8-27.3c9.4-8.8,19.6-13.2,30.6-13.2
		c9.6,0,17.3,3.1,23.1,9.3c3.2,3.4,6.5,9.3,9.9,17.7c2.6,6.2,5,9.3,7.2,9.3l4.5-2.7l0.9-9.3h1.8c0,0.2,0.5,1.5,1.5,3.8
		c1,2.3,1.5,3.7,1.5,4c0,3.6-1.6,7.1-4.6,10.4c-3.1,3.3-6.6,5-10.4,5c-4.6,0-8.6-1.8-12-5.4c-0.8,0.2-1.4,1.2-1.8,3
		c-0.2,0.8-0.2,2.3,0,4.5c0.2,1.6,0.3,3,0.3,4.2c0,3,1.4,5.5,4,7.4c2.7,1.9,5.9,2.9,9.5,2.9c7.2,0,13.1-3.2,17.7-9.6
		C239.2,111.2,241.3,104.7,241.3,97.3z M133.9,182.8c0.2-4.4,0.2-10.6,0-18.6c-4.8-0.6-13.8-2.8-27-6.6c-1,3.2,0.4,16.1,4.2,38.7
		C115.3,190.9,122.9,186.4,133.9,182.8z M134.2,106.3c0-1.4-1.8,1.6-5.4,9c-1.2,2.6-2.8,4.8-4.8,6.6l-1.5,1.5
		c-2.4,2-3.9,3.4-4.5,4.2c-3.2,2.8-6.4,6.1-9.6,9.9c-1,1.6-1.5,4.5-1.5,8.7v6.9c8.2,4.6,16.6,6.9,25.2,6.9c1.2,0,1.9-0.3,2.1-0.9
		V106.3z M133.9,187.3l-9.6,4.2c-2.4,0.6-5,2.2-7.6,4.8c-2.7,2.6-4.1,4.9-4.1,6.9c0,2.4,1.5,7.4,4.5,15c3,7.6,5.3,12.4,6.9,14.4
		c6.8-5.6,10.2-14.3,10.2-26.1c0-0.2,0-1.4,0-3.6c-0.2-2.2-0.3-4.2-0.3-6V187.3z M219.7,207.7c0-7.6-1.6-14.6-4.8-21
		c-4-7.6-9.5-11.4-16.5-11.4c-6.2,0-10.2,3.1-12,9.3c10,6.4,15,13.1,15,20.1c0,4.2-1,8-3,11.4c-2.2,4-5.3,6-9.3,6
		c-8.6,0-12.9-6.5-12.9-19.5c0-3.4,1.1-8.7,3.3-15.9c-2-2-5.3-3-9.9-3l-3.3-0.3v16.8c0,23.4,7.4,35.1,22.2,35.1
		c6.8,0,12.7-4.9,17.7-14.7l1.5,0.3c0,6.8-2.8,12-8.4,15.6c-4.8,3.2-10.8,4.8-18,4.8c-5.4,0-13.4-4.1-24-12.3l-8.1,15l-6.9-15.3
		c-4.2,2.6-9.3,5.5-15.3,8.7c2.2,5.6,7.7,11.1,16.5,16.4c8.8,5.3,16.3,7.9,22.5,7.9c15.2,0,27.9-5.2,38.2-15.6
		C214.5,235.7,219.7,222.9,219.7,207.7z M193.9,209.5c0-4-1.1-8.2-3.3-12.8c-2.2-4.5-4.7-7.1-7.5-7.7c-2.4,4.8-3.6,9.3-3.6,13.5
		c0,2.8,0.9,5.9,2.7,9.3c2,4,4.3,6,6.9,6C192.3,217.9,193.9,215.1,193.9,209.5z"/>
</g>
</svg>
