<?xml version="1.0" encoding="utf-8"?>
<!-- Generator: Adobe Illustrator 21.1.0, SVG Export Plug-In . SVG Version: 6.00 Build 0)  -->
<svg version="1.1" id="Layer_1" xmlns="http://www.w3.org/2000/svg" xmlns:xlink="http://www.w3.org/1999/xlink" x="0px" y="0px"
	 viewBox="0 0 825 825" style="enable-background:new 0 0 825 825;" xml:space="preserve">
<style type="text/css">
	.st0{fill:#FFFFFF;}
</style>
<path d="M566.5,198.4c12.7-5.4,27.2-7.5,40.7-3.8c7.8,2.1,15.2,5.8,21.4,10.9c1.8,5.6,1.5,11.6,1.9,17.4c0.7,9.6,0.6,19.3,0.6,29
	c12.2,8.8,27.5,14.5,42.7,12.2c13.8-1.7,26.2-8.9,37.4-16.8c12.6-8.8,24.1-19.3,37.3-27.2c12.1,11.8,14.1,30.4,26.8,41.7
	c-2.3,11-5.4,21.8-7.7,32.7c-1,7.7-1.1,15.6,0.4,23.3c-9.2,15.1-22.8,26.7-35.5,38.7c-9.8,9.6-19.7,19.7-25.4,32.3
	c-1.6,11.3-0.4,22.9-0.7,34.3c0.7,17,0.7,34,1.7,51c0.6,25.7,2.7,51.4,1,77.1c-1.2,12.2-3,24.8-9.1,35.7
	c-3.8,6.7-10.1,12.6-17.8,14.2c-71.4,0.1-142.9,0-214.3,0.1c-7.1,12.4-20.9,19-34.2,22.7c-17.9,4.6-37.6,4.8-54.7-2.8
	c-9.2-3.8-17.3-10.7-21.2-20c-29.5,0-59.1,0-88.6,0c-15.7,0.1-31.4-0.3-47,0.8c-24.2,0.5-48.6,3.1-72.5-1.3
	c-9.2-1.8-18.8-4.7-25.8-11.2c-4.2-3.8-6.5-9.3-7.6-14.8c-2.6-12.7-2.7-25.7-2.7-38.6c-0.1-18.7,1-37.3,2.4-55.9
	c1-13.4,2.2-26.7,2.2-40.1c0.4-5.5,0.6-11.1,0.1-16.6c-0.2-12.8-1.2-25.7-4.6-38c-1.7-6-4.1-11.9-8.1-16.8
	c-4.6-5.1-11.4-7.1-17.1-10.8c-5-2.9-8.7-7.5-12.1-12c-7.7-10.5-13.4-22.3-21.5-32.5c1.8-3.7,2.7-7.8,2.6-11.9
	c-0.8-13.6-9.2-26.1-7.5-40c0.8-4.8,5.2-7.3,9.1-9.4c5.5-2.8,7.8-8.9,11-13.9c2.6-4.9,6.1-9.7,6.2-15.4c-0.6-0.1-1.8-0.4-2.3-0.6
	c3,0,6.1-0.2,9,0.7c7.2,2,12.7,7.5,17.5,12.9c7.3,9,14.4,18.4,24.1,25c3.1,1.9,6.7,4.1,10.5,3.1c16.4-3.5,32.8-7,49.4-9.6
	c3.1-0.5,6.3-0.7,9.5-0.8c1-16.8,2.1-33.5,2.8-50.3c13-7.7,28.8-8.9,43.5-6.7c16.3,2.5,31.7,8.6,46.5,15.7
	c33.5,17.3,66.5,35.5,100.3,52c9.1-6.7,21-10,32.1-7.4c5,1.1,9.6,3.5,13.6,6.7c1,1,2.2,0,3.2-0.3c25-11.6,50.1-23.3,75-35.2
	C529.8,218.6,547.2,206.6,566.5,198.4z"/>
<path class="st0" d="M230.9,203.2c26.2,10.9,51.7,23.2,77,35.9c24.6,12.7,49.5,24.9,74.2,37.4c-4.6,8.7-10.4,17.4-19.4,22.1
	c-7.2,4-16,4-23.9,2.2c-14.8-3.3-28.2-10.8-42-16.8c-11-4.8-22.1-10.2-34.2-11.6c-11-1.8-22.5,0.6-32,6.3
	c-2.9-6.9-2.7-14.4-2.7-21.7C227.8,239,229.3,221.1,230.9,203.2z"/>
<path class="st0" d="M440.9,278.8c48.8-29.1,99.7-55.4,153.8-73.1c0,23.5,0,47,0,70.5c-10-4.9-21.4-7.3-32.5-5.6
	c-13,1.3-24.5,8-36,13.5c-13.7,6.5-26.7,15-41.7,18c-7.3,1.6-15.2,0.6-21.9-2.9C453.4,294.8,446.5,287,440.9,278.8z"/>
<path class="st0" d="M669.9,284.2c28.8-9.9,54-28.1,75.9-49c0.6,13.5-4.2,27.2-13.6,37c-12.1,13.1-29.2,20.1-46.2,24.5
	c-15.7,4.2-31.9,5.4-48,6.8c7.6,1.1,15.2,2.2,22.9,2.5c18,0,35.9-4.2,51.9-12.4c17.4-8.6,33.2-20.1,50.3-29.4
	c-3.2,13.9-11.2,26.7-22.5,35.4c-16,12.4-36.1,17.9-55.8,20.8c-17.2,2.5-34.6,2.7-52,2.3c16.7,5.4,34.5,6.8,51.8,4.2
	c25-3.5,48.2-14,71.3-23.5c-0.6,7.6-3.6,15.1-9.1,20.4c-8.8,8.6-21.1,12.4-32.9,14.7c-29.9,5.5-60.8,2.9-90.4-3.6
	c18.7,9.3,40,11.5,60.6,12.2c15.8,0.3,31.6-1.1,47-4.6c-11,12.4-28.3,16.5-44.3,16.8c-31.2-0.2-62-8.8-90.1-22.1
	c15.1,11.1,32.2,19.2,50.2,24.3c17.9,5.2,36.5,7.3,55,7.8c-8,8.2-19.7,11.7-30.9,11.4c-15-0.6-29.3-5.7-42.8-11.9
	c-12.4-5.8-24.5-12.4-36.2-19.4c4.6,10.6,15.1,16.7,24.9,21.9c10.1,5.1,20.7,8.9,31.3,12.6c-9.2,3.8-19.7,2.5-28.5-1.7
	c-16.9-7.9-29.6-22.2-44.8-32.8c2.6,7,7.7,12.6,13.2,17.6c6.1,5.6,13.3,10,19.1,15.9c5.2,5.1,9.7,11,12,18
	c-13.7,0.9-26.7-6.4-35.6-16.3c-10.9-11.8-18.2-26.2-25.7-40.3c-0.7,12.1,5.2,23.3,12.2,32.8c7.5,10.3,15.3,20.5,22.2,31.2
	c-4.1,1.5-8.6,2.8-13,1.7c-6.9-1.3-12.3-6.5-16.2-12.1c-9.7-14.1-14-31.1-22.2-46c-1.1,8.2,1.3,16.3,4.4,23.9
	c4.8,11.5,10.3,22.8,12.8,35c-6.9-0.9-13.4-4.7-17.3-10.4c-4.8-6.4-6.6-14.3-9.2-21.7c-2.6-8.2-5.6-16.2-7.8-24.5
	c-3.8,11.3,0.8,22.9,4.7,33.5c2.2,6.5,4.3,13.5,3,20.5c-9.5-1.8-16-10.3-19.5-18.8c-4-10-6.5-20.5-10.1-30.7
	c2.8,14,3.4,28.3,4.9,42.4c-7.6-2-13.2-8.4-16-15.5c-3-7.9-4.9-16.1-8.4-23.8c-3.5,3.6-3,9.1-1.8,13.6c1.2,5.2,3.9,10.6,2.1,16
	c-5.1-1-9.3-4.6-11.5-9.2c-4.3-8.8-4.9-18.8-8.4-27.8c-2.2,2.8-3.3,6.3-2.8,9.9c0.7,5.8,1.8,11.6,2.7,17.4c-3.7,0-7.8,0.3-11.1-1.8
	c-3.1-2.1-3.7-6.3-3.2-9.8c1.6-11.1,4.9-22,4.9-33.2c-4.8,17.4-13.2,33.4-20.9,49.6c-4.3,9.2-9.2,18-13.5,27.2
	c4.6-0.4,7.3-4.5,9.8-7.9c3.8-5.7,7.8-12.2,14.6-14.6c3.9,13.7,15.8,23.4,28.7,28.3c17.5,6.6,36.3,8.9,54.4,13.4
	c-2.3,6.3-7.4,11.9-14.2,13.1c-11.3,1.7-22.2-2.9-32.2-7.7c-9.7-4.8-18.6-11-27.1-17.8c4,12,14.9,20.1,26.1,25
	c13.3,5.6,26.7,11.1,40,16.8c-4.6,5.4-11.5,9.2-18.8,8.4c-12-1.2-22-8.9-30.7-16.6c-6.8-5.9-12.9-12.5-19.1-19
	c6.6,13,15.4,25.1,27.2,33.9c8,6.1,17.3,10.4,27,12.9c0.4,6.9-2,13.4-5,19.4c-14.2-1.4-27.9-8.3-37.2-19.2
	c-7.2-8.6-13.1-18.3-19.3-27.6c-0.1,10.9,6,20.4,12.7,28.4c6.4,7.8,13.5,15,19.4,23.3c-0.7,6.3-3.6,12.1-7.4,17.1
	c-9.2,0.7-18.6-0.3-26.8-4.8c-5.8-21.1-9.7-42.6-14.8-63.9c-1.6,6.2-1.5,12.6-0.7,19c1.1,15.9,6.7,31.6,4.1,47.7
	c-0.8,4.4-2.8,8.6-5.8,12c-8.9,1.5-18-0.9-26.7-2.7c-4.3-9.6-3.6-20.5-2.3-30.6c2.8-16.6,6.4-33.4,4.7-50.3
	c-7.6,21.4-12.8,43.7-14.7,66.3c-9.1,4.4-19,8.1-29.3,7.3c-2.9-4.8-4.9-10.4-4-16.1c1.1-7.3,6-13.3,10.5-18.9
	c8.5-9.7,17.1-19.8,22.2-31.8c1.9-4.5,3.1-9.2,3.2-14.1c-12.4,16-20,36-36.4,48.7c-8.4,6.6-19.2,9.2-29.8,7.9
	c-0.9-3.2-1.7-6.5-2.3-9.8c9-7.3,18.2-14.4,27.4-21.6c13.2-9.7,25.6-21.8,31.4-37.5c-8.7,6.8-15.7,15.5-23.8,23
	c-8.1,7.8-17.4,15.2-28.7,17.2c-7.4,1.5-15-1.1-20.9-5.5c8.2-6.7,16.6-12.9,24.9-19.4c1.5-1.2,3.2-2.2,5-2.9
	c8.4-3.4,15.8-8.6,23.3-13.7c5.6-4.1,11.4-8,16.8-12.4c0.3-0.4,1-1.3,1.3-1.8c-3.3,0.1-6,2-8.7,3.6c-12.2,7.6-23.5,16.6-35.2,25
	c-7.3,3.1-15.9,4.9-23.5,1.8c-5.3-2.2-9-6.9-11.3-12c14.2-3.8,28.8-6,43.1-9.6c12-2.8,23.9-7.6,32.9-16.3c4.4-4.3,7.6-9.7,9.6-15.5
	c9.1,7.5,12.7,19.7,22,27c-5.4-17.8-14.8-34.1-23.1-50.7c-6.1-12.7-10.6-26.4-11.3-40.5c-1.1,2.5-1.5,5.2-1.4,7.9
	c-0.1,10.8,4.1,21.1,5.1,31.8c0.6,5.5-0.6,12.3-6.2,14.8c-2.7-0.8-4.8-2.9-5.1-5.8c-1-8,1.1-16.1,0.5-24.1
	c-6.6,8.4-7,19.6-10.9,29.3c-1.8,4.3-4.6,8.4-9.1,10.3c-3.2-5.2-1.5-11.5-0.3-17c1.1-5,1.3-10.1,0.6-15.2
	c-5.4,8.5-8.1,18.3-11.8,27.6c-2.5,6.1-6.6,11.8-12.8,14.5c-2.7-8.2,0.9-16.6,2.9-24.5c1.3-5.7,2.9-11.6,1.9-17.4
	c-6,11.1-9.8,23.2-14.8,34.8c-2.9,6.6-8.9,13.2-16.8,12c-0.7-5.8,0.9-11.5,2.3-17c3.5-11.3,8.1-22.8,7.4-34.9
	c-6,10-9.2,21.4-13,32.4c-2.3,7.7-6,15.6-12.8,20.3c-3.2,2.3-7,3.3-10.8,4c6.5-21.7,16.2-42.3,22.1-64.1
	c-9.6,14.7-15.8,31.2-23.8,46.8c-4.3,7.9-11,15.4-20.1,17.3c-4.1,1.1-8.3,0.6-12.3-0.1c3.1-9.8,9.3-18.2,15.7-26.1
	c8.2-9.5,16-20.2,18.6-32.7c-8.6,9.4-15.2,20.3-23.1,30.2c-6.3,7.9-14.2,15.1-24.1,17.9c-4.5,1.5-9.4,1.2-14,0.9
	c1.9-10.3,9.8-18,18.1-23.7c8-5.8,16.5-11.7,21.3-20.5c-10.2,6.8-20.6,13.3-30.8,20c-10.7,6.9-23,11.2-35.7,12.2
	c14.8-14.5,36-19.2,52-32c-19.4,6-38.2,13.6-57.5,19.9c-16.4,5-35.4,6.8-50.6-2.6c13.2-3.8,26.7-6.5,40-9.7
	c18.2-4,36.9-7.9,53.2-17.2c-14.9,1.1-29.2,5.5-43.9,8.1c-18.1,3.5-37.1,6.5-55.2,1.7c-8.4-2.3-16.1-7.3-21.2-14.4
	c15.7,4,32,5.2,48.1,4.6c20.4-1.1,41.1-4,60-12.3c-19.4,3.7-39.1,6.5-58.9,6.2c-16.6,0.3-33.6-1-49.4-6.8
	c-13.2-4.5-25.4-14.4-29.1-28.3c17.5,5.5,35.2,10.5,52.8,15.6c24.1,7.4,50.3,9.6,74.9,3.5c-23.2-1.7-46.5-4-69.4-8.3
	c-16.4-3-32.5-9.4-45-20.7c-9.8-8.9-16.2-21.2-18.2-34.3c16.9,11.1,33.6,22.6,51.5,32c25,11.9,53.5,14.8,80.8,11.6
	c-13-1.4-25.9-3.6-38.8-6c-16.5-3.4-33.3-7-47.9-15.8c-11.3-6.7-20.8-16.8-25.9-29.1c-2.7-6.3-4.2-12.9-5.1-19.7
	c16.7,12.2,32.2,26.1,49.9,36.8c18.6,11.4,39.9,18.9,61.8,19.8c15,1.1,30.1-0.2,44.9-2.5c8.5-1.2,15.9-6.1,24.3-7.5
	c7.1-1.2,14.3,1,20.9,3.5c18.6,7.5,34.6,20.2,53.5,27.1c12.4,4.5,26.5,5.6,39,0.7c6.9-2.6,13.1-6.9,18.4-11.9
	c7,11.5,20.8,18.1,24.5,31.7c3.7-6.3,7.6-12.5,11.5-18.7c4-6.1,8.1-12.8,15.1-15.9c11.2,4.9,21.5,11.9,33.2,15.9
	c7.2,2.7,15,0.7,22-1.7c18.6-6.1,34.5-18,53-24.3c8.3-2.8,17.1-5,26-4.4c8.8,0.7,16.4,5.8,24.9,7.4
	C621.5,294.5,646.7,292.3,669.9,284.2z"/>
<path class="st0" d="M396.8,275c6.3-7.9,17.9-8.1,27-5.7c6.1,4.7,10.2,13,8,20.7c-2.7,11-11.2,19.3-20.3,25.4
	c-8.3-3.2-13.8-11-16.7-19.1C392.4,289.4,392.3,281,396.8,275z"/>
<path d="M518.6,309.6c9.7-8.9,21-17.6,34.5-18.8c-9.5,6.8-18.8,14-28.1,21.2c-8.3,6.4-16.4,13.3-26.6,16.6c-8.6,3-18.1,2.5-26.5-1
	c7.1,0.6,14.4,0.8,21.3-1.5C503.2,323.4,511.5,316.9,518.6,309.6z"/>
<path d="M274.6,291.9c4.3,0.1,8.8,0.6,12.9,1.8c5,2.7,9,6.9,13.2,10.6c9.6,8.6,17.6,19.4,29.8,24.4c4.9,2.4,10.4,1.4,15.6,1.8
	c-13,1.1-26.6-1.6-37.1-9.6C297.1,311.7,287.5,299.6,274.6,291.9z"/>
<path class="st0" d="M150.1,393.7c4.1,15.4,4.9,31.4,5.5,47.2c-0.1,13.7,0.4,27.4-0.6,41.1c-0.3,23-1.2,46.1,1.6,69
	c0.3,1.6,0.1,3.7,1.6,4.8c5.6,5.9,13.3,9.2,20.9,11.4c20.6,6,42.5,4.8,63.3,9.6c-30.9,2.8-62,0.2-92.4-5.1
	C150.1,512.4,149.9,453,150.1,393.7z"/>
<path class="st0" d="M308.1,417.5c18.7-8.3,37.8-15.9,56.8-23.6c-7.2,9.7-18.9,14.9-30.4,17.5C325.7,413.3,317,415.5,308.1,417.5z"
	/>
<path class="st0" d="M668,438c0.1-14.4-0.3-28.9,0.2-43.3c4.5,22.5,5.1,45.4,5.4,68.3c-0.7,36.2-1.7,72.5-1,108.8
	c-23.1,5.5-47.1,4.4-70.6,5.9c-7.1,0-14.1,1-21.2,1.1c19.6-6.9,40.7-6.5,60.9-11c8.4-2,17-4.6,23.6-10.4
	C669.8,517.7,667.8,477.8,668,438z"/>
<path class="st0" d="M457.8,395.9c9.1,0.3,17.6,4,25.8,7.5c9.8,4.5,19.8,8.5,29.9,12.3c-8,1-15.9-1.6-23.5-3.8
	C478.6,408.1,466.9,404,457.8,395.9z"/>
<path class="st0" d="M189.2,399.6c2.3,9,2.4,18.3,3.1,27.5c0.5,10.6,0.6,21.2,0.6,31.9c0.6,14,0.5,28,0.8,42
	c7.1,6,15.3,10.5,23.4,14.9c28.6,15,58.7,26.6,88.5,38.8c-39.5-0.9-78.5-8.9-116.4-19.5C189.3,490,189.5,444.8,189.2,399.6z"/>
<path class="st0" d="M629.6,430.1c0.8-9.2,0.6-18.5,2-27.6c3,26.7,4.6,53.6,3.4,80.5c-0.2,18.2-2.1,36.4-3.6,54.5
	c-37.7,7.8-75.8,13.4-113.8,19.4c18.8-8.9,38.1-16.7,57.2-25.2c17.2-7.6,34.4-15.2,51.4-23.3c-0.3-12.2,0.9-24.3,1.2-36.5
	C628.2,458,628.9,444.1,629.6,430.1z"/>
<path class="st0" d="M531,418c20.9,4.5,42.3,6.9,63.7,4.9c0,22.7,0,45.4,0,68.2c-56.9,27.6-115.7,51.2-175.8,70.8
	c-1.3-6.7-0.2-14.3,4.9-19.1c5.7-5.3,13.6-7.5,19.5-12.5c5.9,3.3,12.9,5.6,19.7,4c7.1-1.1,12.8-5.9,18-10.5
	c8.5-6.7,17.3-14.1,28.3-15.8c10.1-22,19.7-44.3,27.4-67.3c1.5-4.3,3.5-9.7,0.1-13.6C534.1,424.7,531.1,422,531,418z"/>
<path class="st0" d="M266.8,421.5c8.4-0.5,16.8-1.1,24.9-3.4c-6.5,12.5-5.3,27.5-0.2,40.3c6.5,15.8,13.8,31.4,19.9,47.4
	c16.9,4.4,29.9,16.9,41.6,29.2c10.6,1,21.2-2.1,31.4-4.7c2.8,7.3,10.4,10.6,16.2,15c5,4,5,10.9,3.8,16.7
	c-39.5-13.7-78.7-28.1-117.3-44.2c-19.8-8.3-39.4-17-58.6-26.7c-2.8-22.6-1.9-45.4-2.3-68.1C239.7,422.3,253.3,422.6,266.8,421.5z"
	/>
<path class="st0" d="M391.1,582.4c11.3-3.8,23.6-3.7,35.3-1.7c9.1,1.7,18.2,5.7,24.1,13.1c-4.4,9.7-14,16.5-24.5,18.2
	c-17.9,3.1-37.6-0.9-51.2-13.4C377.2,590.8,383.6,584.9,391.1,582.4z"/>
</svg>
