<?xml version="1.0" encoding="utf-8"?>
<!-- Generator: Adobe Illustrator 21.1.0, SVG Export Plug-In . SVG Version: 6.00 Build 0)  -->
<svg version="1.1" id="Layer_1" xmlns="http://www.w3.org/2000/svg" xmlns:xlink="http://www.w3.org/1999/xlink" x="0px" y="0px"
	 viewBox="0 0 825 825" style="enable-background:new 0 0 825 825;" xml:space="preserve">
<style type="text/css">
	.st0{fill:#FFFFFF;}
</style>
<path d="M360.6,125.6c19.4,0.6,38.9,0.1,58.4-0.6c14.1,0.2,28.6,0.2,42.2,4.7c-0.1,29.6,0,59.2,0,88.8c29.7,0,59.5,0,89.2,0
	c0,33.5,0,67.1,0,100.6c-28.3,0-56.7,0-85,0c-3.1,25.3-4.4,50.8-4.4,76.2c-1,11.2,0.3,22.5,0.1,33.8c0.1,32.8,0.4,65.7,0.4,98.5
	c-34.5,4.6-69.8,5.4-104.3,0.2c1.2-50.6,1.8-101.1,2.8-151.7c-0.1-19,0.9-38,0.8-57c-29.6,0-59.1,0-88.7,0
	c-5.1-16.8-4.6-34.6-4.3-52c0.3-9.1,0.3-18.2,0.4-27.3c0.8-7.1,0.1-14.2-0.2-21.3c29.7,0,59.4,0,89.1,0c3.7-11.2,3.8-23.1,4.2-34.8
	C360.8,164.3,360.6,145,360.6,125.6z"/>
<path class="st0" d="M368.4,137.4c27.1,0,54.3,0,81.5,0c0,29.6,0,59.2,0,88.8c29.6,0,59.2,0,88.8,0c0,27.1,0,54.2,0,81.2
	c-28.4,0-56.8,0.1-85.2,0c-3.7,26-3.9,52.4-4.4,78.6c0.8,44.6,1.3,89.3,0.8,133.9c-27.1,0-54.3,0-81.5,0c0-70.8,0-141.6,0-212.4
	c-29.5,0-58.9,0-88.4,0c0-27.1,0-54.2,0-81.2c28.3,0,56.6,0,84.9,0c4.9-13.8,4.3-28.8,4.1-43.2C368.3,167.8,368.3,152.6,368.4,137.4
	z"/>
<path d="M380,148.8c19.4,0,38.8,0,58.1,0c0,28.3,0,56.7,0,85c12.4,4.5,25.8,4.5,38.8,4.6c16.7-0.6,33.5-1.1,50.3-0.6
	c-1.8,15.4,0.8,30.7,1.1,46.1c0,3.9-0.1,7.8-1,11.6c-28.4,0-56.7,0-85.1,0c-4.8,33.9-4.7,68.2-4.6,102.4c0.6,36.8,1,73.6,0.6,110.4
	c-19.3,0-38.5,0-57.8,0c0-70.9,0-141.9,0-212.8c-29.8,0-59.6,0-89.4,0c0-19.2,0-38.5,0-57.8c28.4,0,56.9,0,85.3,0
	c5-14.4,4.6-29.9,4.3-44.9C380.1,178.2,379.5,163.5,380,148.8z"/>
<path d="M435,598.1c16.8-10.1,36.9-12.1,56.1-12.4c35.9-0.1,71.3,6.2,107,10c27.8,2.7,56.4,4.4,83.8-2.2c5.1,12.4,10.2,24.8,15.9,37
	c2.2,4.6,4.4,9.3,7.4,13.6c-50.7,1.9-101.4,3.3-152.1,3.5c-12,0.9-24,0.1-36,0.5c-54,0.2-108-0.1-162-0.1c-18.3-0.8-36.7-0.2-55-0.4
	c-47.7-0.5-95.4-0.1-143-0.2c-14.6-0.1-29.1,0.1-43.7,0.2c8.8-17.5,17.5-35.3,23.3-54.1c23.6,4.4,47.7,3.4,71.5,2.2
	c18.8-1.2,37.5-2.9,56.1-5c25.5-3,51.2-4.9,76.8-3.5c17.2,1.2,34.6,3.5,50.6,10.4c3.7,5.4,6.6,11.4,9.9,17
	c3.7,6.2,5.8,13.3,5.9,20.6C411.5,620,421.3,606.1,435,598.1z"/>
<path d="M328.8,662.4c9.6-0.8,19.4-2.6,28.9,0.2c6.5,1.6,12.3,6.1,15,12.4c-27.9,5.1-56.3,6.5-84.6,7.4c-22.3,0.4-44.7,1.2-67,0.4
	c-43.7-0.4-87.4-2-131-4.2c0.7-5-2.2-12.3,3.2-15.2c4.5-0.8,9.2-0.1,13.7-0.3c17.7,0.8,35.4,0.2,53,0.4c21.3-0.9,42.7,0,64-0.6
	c25.3,0,50.6,0,76,0C309.6,663.1,319.2,663.1,328.8,662.4z"/>
<path d="M449.8,666.7c55-2.9,110.1-5.1,165.2-4.8c39.1,0.8,78.5,1.4,117,9c-4,8.3-13.2,12.5-22,13.4c-11,1.2-22-0.8-32.9-1.1
	c-14.6-1-29.3-0.3-44-0.5c-19.4,0.1-38.7-0.4-58.1-0.2c-15.2-0.4-30.5,0-45.8-0.6c-26.5-0.7-53-0.6-79.4-3.2
	C449.8,674.6,449.8,670.6,449.8,666.7z"/>
<path d="M376,674.7c10.4,9.1,24.7,11.5,38,11.7c10.4,0,21.8-2.8,28.3-11.6c2.4,5.1,3.3,11.6,0.1,16.5c-4.3,6.4-11.4,10.5-18.8,12.3
	c-10.5,2.5-21.9,2.3-32-2c-6.2-2.7-12.1-7.1-14.4-13.7C375.4,683.7,375.8,679.1,376,674.7z"/>
</svg>
