<?xml version="1.0" encoding="utf-8"?>
<!-- Generator: Adobe Illustrator 21.1.0, SVG Export Plug-In . SVG Version: 6.00 Build 0)  -->
<svg version="1.1" id="Layer_1" xmlns="http://www.w3.org/2000/svg" xmlns:xlink="http://www.w3.org/1999/xlink" x="0px" y="0px"
	 viewBox="0 0 825 825" style="enable-background:new 0 0 825 825;" xml:space="preserve">
<style type="text/css">
	.st0{fill:#FFFFFF;}
</style>
<path d="M149.9,128.8C181.6,110.1,218,97.9,255,98.6c21.4-0.2,42.8,4.2,62.9,11.3c14.5,5.2,28.7,11.7,41.1,21
	c23.8,17.6,40.2,43.6,50.2,71.1c14.1,38.4,18.4,79.5,20.6,120c1.2,26.5,0.9,53.1-0.1,79.6c-1.5,45.8-3.2,91.6-5.2,137.4
	c-0.7,21-1.6,41.9-1.5,62.9c0.1,5.4-0.1,10.7-0.4,16.1c0.9,17.3,0,34.7,1.4,52c0.4,11.7,1.4,23.4,2.5,35c-116.6,0-233.2,0-349.8,0
	c0-56.3,0-112.6,0-168.9c-0.1-43.4,0.6-86.9-1.5-130.3c-1.9-49.2-5.7-98.5-1.3-147.7c1.4-14.3,3.5-28.7,7.4-42.5
	c5.4-19.2,14.8-37.3,27.7-52.5C120.5,149.3,134.6,138,149.9,128.8z"/>
<path d="M523.2,103.6c40.4-5.7,83-1.1,119.8,17.3c30,14.7,57.2,37,73,66.9c10.5,19.1,15.4,40.8,17.8,62.3
	c4.8,40.8,4.9,81.9,4.2,122.8c-0.7,25.5-1.7,51.1-3.3,76.6c-3.1,48.4-6,96.8-6.7,145.4c0.1,11.4-0.7,22.7-0.4,34.1
	c0.8,14.7,0.2,29.4,1.4,44c0.3,10.7,1.5,21.3,2.5,32c-92.9,0-185.8,0-278.6,0c0-12.5,0-25,0-37.6c22.8-2.2,45.6-2.7,68.4-3.2
	c29.2-0.8,58.5,0.8,87.7,0.5c27,0.2,54-0.2,81-1c-1.3-16.5-1.7-33.1-1.5-49.6c-0.2-41.8,2.5-83.5,4.9-125.2
	c1.7-30.6,3.4-61.2,4.5-91.8c1.6-34,1.7-68.1-1.7-101.9c-2.1-22.1-5.7-44.1-12-65.4c-5.2-17.3-12.8-34.1-23.9-48.5
	c-9.1-11.7-20.6-21.7-33.9-28.2c-14.6-7.4-31-10.3-47.2-11.6c-23.2-1.8-46.7,1.2-69,7.9c-6.9,2.1-13.9,4.2-20.3,7.6
	c-19.2,9.3-33.5,25.7-51.8,36.6c-6.5-9-11.5-19.9-10-31.3c1.5-12,9.8-21.8,19.1-28.9C468.9,116.1,496,107.4,523.2,103.6z"/>
<path class="st0" d="M238.4,185.4c7.6,0,15.1,0,22.6,0c0,22.7,0,45.4,0,68c-7.6,0-15.1,0-22.6,0C238.4,230.7,238.4,208,238.4,185.4z
	"/>
<path d="M509.2,185.4c6.3,0,12.7,0,19,0c7.7,15.5,11.8,32.4,15,49.2c5.7-5.6,7.7-13.7,10-21.1c2.5-7.9,3-16.9,8.8-23.4
	c4.8-5.3,12.5-6.2,19.2-4.8c-5.9,23.2-17.6,44.6-22.8,68c-7.6,0-15.2,0-22.7,0C525.8,231.1,517.7,208.2,509.2,185.4z"/>
<path d="M592.1,185.4c6.3,0.1,12.7,0,19,0c-1.3,8.8,0,17.7,0,26.6c0.2,13.8,2,28.3-3.7,41.3c-2.7,0-5.4,0-8,0.1
	c0.6-0.2,1.9-0.6,2.5-0.8c1.1-5.5,0.2-11.2-0.4-16.7C599.2,218.9,595.7,202.1,592.1,185.4z"/>
<path class="st0" d="M219.6,275.6c6.3,0,12.6,0,18.9,0c5.2,13.8,3.9,28.9,3.5,43.4c0.1,9.5-0.2,19,0.1,28.4c-7.5,0-15,0-22.5,0
	C219.6,323.5,219.6,299.5,219.6,275.6z"/>
<path class="st0" d="M257.2,275.6c6.3,0,12.6,0,18.9,0c2.1,15.1,5.1,30.1,5.6,45.4c-0.3,8-0.9,16.9-6.6,23.1
	c-4.6,4.8-11.9,4.8-17.9,3.3C257.2,323.5,257.2,299.5,257.2,275.6z"/>
<path d="M495.4,279.1c5.9-0.5,11.7,0.8,17.6,0.5c0.4,7.6,2.5,14.9,5.5,21.9c3.1,7.4,5.5,15.2,5.9,23.3c5.8-4.7,7.8-12.2,10-19
	c2.5-7.7,2.7-16.6,8.5-22.8c5-5.1,12.8-5,19.3-3.6c-3.6,13-7.9,25.7-12.1,38.5c-2.3,7.7-5.2,15.6-11,21.3
	c-5.8,5.9-14.2,8.5-22.3,8.2c-8.6-21.2-17.6-42.3-26.1-63.6C489.7,281,493.1,279.5,495.4,279.1z"/>
<path d="M573.3,279.4c6.3,0.1,12.6,0,18.9,0c-0.6,14.2,0.1,28.4,0.7,42.6c-0.4,8.6-0.5,17.4-4.3,25.3c-2.7,0-5.4,0.1-8,0.3
	c0.6-0.1,1.8-0.4,2.4-0.5c1.5-6,0.2-12.2-0.4-18.2C580.2,312.2,576.8,295.8,573.3,279.4z"/>
<path d="M610.9,279.4c6.3,0,12.6,0,19,0c-0.9,9.2,0.3,18.5,0.2,27.8c0,13.4,1.9,27.6-3.9,40.2c-2.7,0-5.4,0-8.1,0.1
	c0.7-0.2,2-0.6,2.7-0.8c1-7.3-0.2-14.7-1.2-21.9C617.2,309.5,614.2,294.5,610.9,279.4z"/>
<path class="st0" d="M201,370.2c7.3,0,14.7,0,22,0c0,22.5,0,45,0,67.5c-7.3,0-14.7,0-22,0C201,415.1,201,392.7,201,370.2z"/>
<path class="st0" d="M238.4,370.2c7.6,0,15.1,0,22.6,0c0,22.5,0,45,0,67.5c-7.6,0-15.1,0-22.6,0
	C238.4,415.1,238.4,392.7,238.4,370.2z"/>
<path class="st0" d="M276.2,370.2c7.5,0,15,0,22.5,0c0,22.5,0,45,0,67.5c-7.5,0-15,0-22.5,0C276.2,415.1,276.2,392.7,276.2,370.2z"
	/>
<path d="M474.1,370.1c6.6-1.4,13.5,0.4,20.2-0.1c2.4,15.7,6.8,31.3,15.1,44.9c4.4-10.4,7-21.4,10.4-32.2c1.7-5.1,5.1-10.1,10.3-12
	c4.2-1.7,8.7-1.1,13.1-0.9c-4.7,23.4-16.3,44.7-22.3,67.8c-7.6,0-15.2,0-22.8,0c-8.8-18.8-13.9-39.2-23.1-57.8
	C473.5,376.8,469.5,372.4,474.1,370.1z"/>
<path d="M554.5,370c6.3,0,12.5,0,18.8,0c-0.4,12.3-0.1,24.7,0.6,37c0.2,10.3,0.3,21-4.1,30.6c-2.2,0-4.3,0.1-6.4,0.2
	c1.8-3.6,1.3-7.7,1-11.6C562.5,407.2,558.5,388.6,554.5,370z"/>
<path d="M592.2,370c6.3,0,12.6,0,18.9,0c-1.2,9.3,0.1,18.6,0,28c0.2,13.2,2,27.2-3.8,39.6c-2.3,0.1-4.7,0.2-7,0.1
	c1-1.4,2.4-2.8,2.1-4.7c0.1-6.1-0.8-12.2-1.7-18.2C598.5,399.8,595.3,384.9,592.2,370z"/>
<path d="M629.7,370c6.3,0,12.6,0,18.9,0c-0.7,12,0.3,23.9,0.5,35.9c0.1,10.6,0.6,21.9-4.2,31.7c-2.4,0-4.8-0.1-7.1,0.2
	c0.5-0.4,1.4-1.1,1.9-1.5c0.9-6.8-0.3-13.7-1.2-20.4C636.1,400.5,633,385.2,629.7,370z"/>
<path class="st0" d="M283.3,464.3c4.7-5.2,12.4-5.8,18.8-4.1c-1.8,25.4-16.6,47.2-22.2,71.6c-7.5,0-15,0-22.5,0
	c-9-23.8-18.7-47.4-26.4-71.7c7.5,0,15,0,22.5,0c3.6,15.3,10.4,29.8,11.3,45.6c5.9-3.1,9.4-9.3,10-15.7
	C276.8,481.3,277,471.4,283.3,464.3z"/>
<path d="M516.9,460c1.2-0.4,2.4-0.7,3.7-1c3.8,0.3,6.5,3.9,10.3,3.9c0.3-0.7,1-2.1,1.3-2.8c4.3,11.4,4.5,23.8,4.5,35.9
	c-0.1,10.8-0.5,22-4.5,32.2c-2.8,0-5.6-0.1-8.3,0.5c1.2-0.6,3-1.1,3-2.8c0.9-7-0.3-14-1.2-20.9C523.2,490,520.1,475,516.9,460z"/>
<path class="st0" d="M201,460.2c7.3,0,14.6,0,21.9,0c-2.4,13.9,0.6,27.8,1,41.8c0.8,8.4,0.8,17.7-4.1,24.9
	c-4.2,5.8-12.3,6.7-18.8,5.1C201,508,201,484.1,201,460.2z"/>
<path d="M550.6,460c6.3,0,12.7-0.1,19,0c3.3,7.9,6.4,16,10.8,23.4c3.8-5.4,8.2-10.5,12.3-15.7c1.9-2.4,4-4.8,6.9-6.1
	c4.8-2.3,10.3-2,15.5-1.6c-2,13.4-12.5,22.9-19,34.2c7.7,10,12.1,22.8,22.7,30.3c-4,3.2-9.2,5.5-14.4,4.4c-9.5-2.2-19-9.1-20.1-19.4
	c-4.8,4.5-8.5,10.1-13.2,14.6c-6.6,5.8-16.1,6-24.2,4.1c7.5-10.2,12.3-22.7,22.7-30.6C566,483.7,554,474,550.6,460z"/>
<path class="st0" d="M213.9,554.9c6.6-2.7,13.8,0.5,20.7-0.5c4.7,14,8.5,28.3,15,41.6c7.6-12.9,8.1-28.5,14.9-41.8
	c7.5,0,15.1,0,22.7,0c-10.5,21.9-17.1,45.3-26,67.8c-8.8,0-17.6,0-26.4,0c-3.7-20.6-11.9-40.1-20.4-59.2
	C213.1,560.4,210.6,556.8,213.9,554.9z"/>
<path d="M535.2,554.2c6.4-1.6,12.9,1.1,19.3,0.1c-0.5,7.2,5.5,12.2,7.4,18.8c4.5-5.3,9-10.5,13.9-15.4c5.6-5,13.5-4.8,20.5-3.7
	c-4.2,11.3-11.9,20.9-19,30.5c6,12.2,13.6,23.7,22.7,33.9c-4.8,3.7-11.3,6.3-17.2,3.9c-9.3-3.7-15.1-13-17.2-22.5
	c-3.9,5.3-8,10.5-11.9,15.8c-2.3,3.2-5.5,5.8-9.2,7c-5.4,1.8-11.1,0.9-16.5-0.4c6.3-12.2,13.8-23.7,22.8-34.1
	c-4.4-11.3-12.1-20.8-19.2-30.5C532.6,556.3,533.4,554.6,535.2,554.2z"/>
</svg>
