<?xml version="1.0" encoding="utf-8"?>
<!-- Generator: Adobe Illustrator 21.1.0, SVG Export Plug-In . SVG Version: 6.00 Build 0)  -->
<svg version="1.1" id="Layer_1" xmlns="http://www.w3.org/2000/svg" xmlns:xlink="http://www.w3.org/1999/xlink" x="0px" y="0px"
	 viewBox="0 0 825 825" style="enable-background:new 0 0 825 825;" xml:space="preserve">
<style type="text/css">
	.st0{fill:#FFFFFF;}
</style>
<path d="M396.4,140.7c15.4-9.4,34.5-11.4,51.8-7.3c10.4,2.3,19.9,8.8,25.1,18.3c12.2-1,24.3-2.1,36.4-3.1
	c10.2,7.1,21.8,13.2,28.7,24c3.1,4.6,4.7,9.9,5.8,15.2c14.5-0.1,29.6,2.5,41.5,11.3c12.3,8.7,20.2,23.1,21.6,38
	c0.8,9.8,0.1,19.7-2.4,29.2c6.2,0,12.2,1.9,18.1,3.4c-3.4,40-12,80.6-33.3,115.1c-7.7,12.5-17.3,23.9-28.2,33.8
	c-2.1,3.3-6.2,3.5-9.7,4.4c-26.2,5.5-52.6,9.5-79,13.9c-17.3,2.6-34.5,6.2-52.1,6.1c-13.3-0.4-26.7-1.4-39.9-3.6
	c-21.6-3.2-42.6-9.4-64-13c-20-3.4-40.5-6.3-60.9-3.7c-19.8-20.1-35.4-44.2-45.5-70.6c-9.9-25.4-15.2-52.5-17.3-79.7
	c4.4-3.6,10.4-2.7,15.7-2.8c-2.1-20.4-1.3-41.4,5.6-60.8c4.6-12.9,12-24.8,21.4-34.7c7.9-8.1,18.2-14.4,29.6-15.8
	c15.3-2.7,30.8,2.8,43.5,11.2c2-5.4,4.4-10.6,8.1-15.1c7.8-10.1,19.7-16,31.7-19.6C364.7,130,382.4,132.1,396.4,140.7z"/>
<path class="st0" d="M344,159c10.3-1.7,20.8-3.4,31.2-2.4c-7.8,14.5-20.7,25.4-29,39.5c-1.9-1.2-4.2-2.6-4-5.1
	c0.4-2.6,2-4.9,2.8-7.4c-3.1,0.2-6.1,1-9.1,1.7c3.2-5.5,7.8-9.8,13-13.4c0.1-0.6,0.2-1.7,0.2-2.2c-3.2,0.6-6,2.3-8.4,4.4
	c0.6-3.9,3.9-6.3,6.1-9.3C348.4,162.3,345.7,160.4,344,159z"/>
<path class="st0" d="M433.1,156.5c5.9,0.8,12,2,17,5.4c10.8,7,17.2,18.9,21.5,30.7c8.7,24.6,9.9,51.7,3.8,77.1
	c-27.5-0.3-55,0.7-82.5,0.2c-8.3-0.1-16.6-0.7-24.8-1.8c6-1.2,12.1-2.3,18.1-3.7c-7.8-5.3-16.9-8.1-25.5-11.8
	c9.4-0.8,18.6-2.5,27.9-4c-5.5-4.4-12.7-5.6-19.1-8.1c-3.5-1.3-6-4.1-7.5-7.4c9.8-0.2,19.6,0.1,29.5-0.1c-5.1-3.6-11.1-5.5-17-6.9
	c5.4-0.9,10.8-1.6,16.1-2.6c2.1-0.6,4.7,0.9,6.5-0.9c-1.5,0.1-3,0.2-4.5,0.4c-7.3-3.4-13.9-7.9-20.6-12.3c9.2-0.5,18.2-2.2,27.2-3.8
	c-5.5-3.1-11.6-4.7-17.5-7c9.4-0.5,18.7-2.1,27.9-3.7c-5.2-5-12.2-7-18.9-9.4c9.1-0.8,18.1-2.4,27.1-4c-3.5-5.7-11.1-4.6-16.7-6.4
	c6.5-1.1,12.9-2.4,19.2-4.2c-1.5-1.8-3.4-3.3-5.5-4.3c5.4-0.6,10.6-2.1,15.9-3.3c-1.8-0.8-3.5-1.6-5.2-2.6c1.8-2.7,5.3-2.8,8.1-3.8
	C433.6,157.7,433.3,156.9,433.1,156.5z"/>
<path class="st0" d="M500.2,176.1c2.1-1.2,4.2-3.4,6.8-2.3c7,2.5,12.7,9.3,13.1,16.9c-8.3,0-15.7,3.9-23.7,5.4
	c-1.6-4.4-3.7-9-2.9-13.7C494,179,497.6,177.7,500.2,176.1z"/>
<path class="st0" d="M251.6,196c2.1-6.8,7.2-13,14.4-14.6c10.6-2.1,21.1,1.7,30.8,5.8c15.7,6.7,30.6,17.2,39,32.4
	c-5.7,14.9-10.2,32.5-2.9,47.6c-7.2,1.5-14.5,2.5-21.9,2.6c-19.1,0.2-38.3-0.3-57.4-0.4c2-5.5,9.7-4.6,11.6-10.3
	c-9.2,1.1-18.2,3.6-27.3,5.1c4.7-7.8,15-9.8,18.9-18.2c-7.1,1.2-13.9,3.6-21,5.1c7.7-7.7,16.5-14.4,26.6-18.6
	c-7.8,3-16.3,2.2-24.5,2.9c5.7-7.1,14.1-11.2,21.7-16.1c-1.6-1.5-3.3-3.3-5.7-2.7c-4,1-7.8,2.8-12,3.2c4.7-3.6,9.8-6.9,14.3-10.8
	c0.2-0.6,0.6-1.7,0.9-2.3c-4-1.8-9-1.8-12.5,1c3-4.1,7.2-7,11.6-9.5c1.7,0.3,3.5,0.6,5.3,0.8c0.2-1.2,0.5-2.3,0.7-3.5
	c-2,0.8-4,1.6-6,2.4C254.7,197.6,253.1,196.8,251.6,196z"/>
<path class="st0" d="M533.5,217.1c1.2-0.7,2.6-1.2,4-0.6c5.8,2.1,10.3,6.4,14.4,10.9c1.6,0.2,2.2-0.5,2-2.1
	c-0.9-3.9-3.8-7.1-7.6-8.6c1.4-0.5,3-1.2,4.5-0.4c4.3,1.9,8,5.2,10.9,8.9c-0.8-2.5,0.1-5.1,0.5-7.6c2.1,1.1,4.4,1.9,6.8,1.8
	c0.3-0.5,1-1.6,1.3-2.1c6.5,3.2,11.5,9,13.5,16c3.5,11.9,1.9,24.5-0.3,36.5c-28.1,0-56.2,0-84.4,0c2-5.8-0.3-13.4,4.7-17.8
	c1.1,0.6,2.3,1.2,3.4,1.8c-1.2-3.6-3.2-6.9-4.9-10.3c-1.7-3.4-1.3-7.3-0.8-10.9c4.4,3,8.4,6.7,13.5,8.5c-3.5-7.1-8.9-12.9-13.3-19.4
	c10.8,1.9,18.2,10.9,27.2,16.4c0-1.9,0.4-4-0.8-5.7c-3-4.7-7-8.7-10.5-13c0.8-0.3,2.5-0.8,3.3-1.1c3.8,0.9,7.1,3,9.9,5.6
	c4.1,3.8,8.5,7.3,13.8,9.4C539.4,229.4,537.1,222.6,533.5,217.1z"/>
<path class="st0" d="M253.6,306.5c35.7-2.5,71.6-2.5,107.4-2.5c64.8,0.1,129.6,0.3,194.4,0.1c-2.6,3-6.8,2.5-10.3,2.7
	c-9.3-0.1-18.6-0.4-27.9-0.1c-8.8,0.8-17.7,1.6-26.5,2.4c17.6,6.1,36.8,2.6,54.6,7.8c7.3,0.6,15-0.8,22.1,1.5
	c-5.5,2.3-11.6,1.1-17.4,1.4c-21.5,0.7-43,4-64.6,2.8c22.4,6.2,45.9,6.6,69,7.9c-9.7,5.7-21.4,5.6-32.2,6
	c-12.2,0.1-24.5,0.1-36.7,1.8c23.5,5.3,47.6,6.3,71.6,7.9c-7.3,3.1-15.4,3.3-23.2,4.1c-16.9,0.9-33.8,1.4-50.8,1.2
	c21.4,6.2,43.9,7,66,7.9c-5.5,2.7-11.8,3.2-17.8,4c-19.5,1.7-39,1.6-58.4,3.9c20.7,4.4,42,4.7,63,5.4c-11.5,5.2-24.5,5-36.9,5.3
	c-10.6,0.7-21.2,0.6-31.7,2.4c19.7,5.4,40.4,4.1,60.2,8.3c-23.6,1.8-47.1,3.4-70.7,5.2c14.6,5.1,30.4,3.1,45.3,6.3
	c8.1,2.8,16.9,0.6,25.2,1.7c-0.5,3.2-4.2,1.9-6.4,2.2c-16.3,1.1-32.6,0.5-48.9,1.3c-27,0.2-54,0.6-81,0.6
	c-11.4,0.8-22.8,0.2-34.1,0.4c-7.3,0.4-14.6,0.1-22,0.2c-13-0.1-26,0.5-39,0.1c3.4-4.5,9.9-1.3,14-4.9c-7.2-4.4-16-4.6-24.1-5.6
	c4.2-4.2,10.5-5,16.2-5.2c-8.8-5.8-19.8-5.4-30-5.5c1-2,2.1-4.3,4.4-5.1c5.5-2.3,11.5-1.9,17.3-2.4c-1.6-3.8-6-5-9.8-5.3
	c-4.9-0.3-10.1-0.3-14.5-2.9c4.5-4.2,11.1-3.2,16.5-5.3c-9.2-4.8-19.8-5.2-29.9-5.4c1.3-2,3-3.9,5.4-4.5c4.6-1.3,9.2-2.1,13.9-3
	c-9.7-1.9-19.5-3.5-29.2-5.6c8-4.7,17.4-5.9,26.4-7.6c-9.7-4.8-20.7-5-31.2-5.4c8.3-6,18.9-6.9,28.7-8.1c-9.7-5.7-21.3-5.1-32.1-5.3
	c7.5-6,17.6-6.7,26.9-7.7C264,306.6,257.9,306.5,253.6,306.5z"/>
<path d="M399.1,335.6c2.2-6.7,2.1-13.9,2.6-21c4.3,0,8.6,0,12.9,0c-0.5,5.8-1.9,13.3,3.2,17.5c4.9,2.1,10.4,2.2,15.5,3.6
	c0,4.3,0,8.6,0,12.9c-6.3,0-12.5,0-18.8,0c0,15.9,0,31.9,0,47.8c-4.3,0-8.7,0-13,0c0-14.1,0-28.2,0-42.3c0.1-2-1.5-3.5-3.1-4.4
	c-5-2.1-10.5-0.4-15.7-0.6c0-4.5,0-8.9,0-13.4C388.1,334.3,393.9,333.6,399.1,335.6z"/>
<path d="M523.5,439.2c17.7-1.8,35.7-1.7,53.3,0.9c15.4,2.4,30.9,5.8,44.6,13.4c21.6,11.2,39.8,28.1,62.3,37.6
	c-11.5,17-23.1,34-34.9,50.8c-8.2,12.1-17.7,23.4-28.2,33.6c-8.7,8.3-18.4,15.8-29.3,21.1c1.3-18.1,6-35.9,14.1-52.2
	c7.6-15.1,18-28.7,30.5-39.9c-9.5-6.3-19-12.7-28.9-18.4c-15.7-8.9-34.2-11.9-52.1-10.9c-5.1,4.3-7.3,11-9.2,17.2
	c-2.8,10.6-3.9,21.7-4.5,32.6c-6.6,0.6-11.4,7.5-18.5,5.6c-6.9-16.5-9.9-35.1-5.3-52.6c-14.5-3.4-29.6,0.2-43.2,5.4
	c-10.9,4.2-21.1,9.9-31.1,15.9c-10.9-5.5-17.4-16.5-23.3-26.7C451,453.1,487.2,443,523.5,439.2z"/>
<path d="M257,440.8c23.4-1.2,47.1-0.3,70,5.1c38.9,8.6,74.7,29.2,102.8,57.2c24.6,24.3,44.4,53,61.3,83.1
	C497.8,568.3,510,552,527,543c22-11.9,48.2-12.7,72.5-9.6c-2.3,20.2-8.4,39.6-13.8,59.1c-3.1,12.8-5.7,26-4.8,39.2
	c-9-3.5-9-15.9-18.1-19.3c-6,1.1-12.1,1.7-18.1,3c7,1.4,13.6,5.3,18,11.1c6.1,7.9,8.6,18,9.7,27.7c2.5,18.9-0.7,38.2-7.4,56
	c-19.6-5.1-39.9-11-55.9-24c-11.3-9-18.2-22.6-20.4-36.8c-10.3,0.3-20.7-0.4-31,0.4c-2.4,3.8,0.1,8.5-0.4,12.7
	c-15.9,0.2-32.7-2.9-45.4-13.1c-11-8.8-17.1-22.4-19.4-36c-0.8-3.6-0.8-7.4-1.6-11c4.5,3.6,9.6,6.3,14.6,9.2
	c2.4,1.5,5.1-0.1,7.6-0.5c13.8-3.6,28.1-7.8,39-17.4c-7.8-1.6-15.6,2-22.1,6c-0.8-1.8-1.1-3.9,0.5-5.3c3.7-3.6,8.7-6,11-10.9
	c-8.6-0.2-15.5,6.4-24.2,5.8c7.1-5.4,14.7-10.3,21.5-16.2c-2-0.8-4.2-0.9-6.2-0.3c-6.8,1.8-13.4,4.9-20.4,5.8
	c5.1-5.5,10.7-10.6,15.8-16.1c-7.6-0.5-13.8,5.3-21.3,5.5c2.9-7.8,13.3-8.1,16.4-15.9c-9.4,1.4-17.6,6.6-27,8.1
	c5.4-7.3,15.1-10.4,18.9-19c-6.4,1.6-12.5,3.7-18.8,5.5c2.6-6.4,9.6-8.7,13.8-13.8c-5.5-2.3-11,3.3-16.7,0.7c1.4-4.8,7.2-6,8.8-10.7
	c-4,0.1-7.3,2.8-11.3,2.7c-0.5-4,3.7-5.2,6.1-7.5c-11.4-12-24.9-22-39.9-29.1c-18-8.7-38-13-57.9-13.6c4.4,15.4,4.3,32.4-2.4,47.2
	c-7.1,15.8-19.8,28.2-32.1,40.1c5.4-19.4,9.8-39.4,9.2-59.6c-0.5-9.8-2.6-20-9.1-27.8c-12-0.4-24,0.8-35.5,4.4
	c-16.5,5-30.9,14.6-46.2,22.2c14.3,26.7,34.6,50,58.3,68.8c-4.9,10-14.8,17.3-16.1,29c-13.5-11.3-24.6-25.1-36.2-38.2
	c-19.1-22.1-37.6-44.7-56.1-67.3c16-9.7,31.6-20.2,47.8-29.7C203.8,450.8,230.1,442.5,257,440.8z"/>
<path d="M243,485.7c6,0.9,12.2,2.4,16.8,6.4c4,3.8,5.4,9.9,3.7,15.1c-2.1,6.3-6.9,11.4-12.3,15.1c-5.2,3.5-12.7,4.2-18,0.5
	c-5.6-4.4-7.2-11.8-8.2-18.4c5.1,1.4,10,3.2,15,4.5c3.9,1.2,8.7,0.6,11.6-2.4c0.8-4.1-1.6-8.1-4.7-10.7c-1.9-1.8-4.5-3.2-5-6
	C241.7,488.4,242.7,487.1,243,485.7z"/>
<path d="M554.7,494.1c6.8-3.3,13-9.2,21.1-8.3c0.8,7.2-9.1,9.1-8.4,16.2c-0.3,4.4,4.7,7.3,8.7,6.5c5.2-1.1,10.3-2.7,15.5-4.1
	c0.8,3.5,0.9,7.6-1.6,10.4c-2.6,2.5-6.4,3-9.8,3.2c-7.7,0.3-15.6-0.1-23.1,2.2C556.1,511.5,555.3,502.8,554.7,494.1z"/>
<path d="M251.7,572.6c5,5.8,5.7,14.7,13,18.6c4.6-3.3,9-7,13.5-10.6c1.2,1.1,2,2.7,0.8,4.1c-1.7,2.7-3.9,5.2-4.1,8.6
	c5.3-3.6,10.8-6.8,16.3-9.9c0.5,0.5,1.6,1.4,2.1,1.9c0.3,5.9-5.2,9.6-7.4,14.6c3.3,0.2,6.4-1.2,9-3c5.5-4.1,10.1-9.2,14.8-14.2
	c-5.7,7-7.5,16.1-10.8,24.3c7.5-3.5,14.2-8.4,20.6-13.4c2.2-1.6,3.5-4.1,5.9-5.4c-6.1,5.9-8,14.5-10.7,22.2c3.7,0.8,7.1-1.3,9.8-3.7
	c5-4.3,10.2-9.1,16.9-10.4c-3.6,6.3-9.9,11.3-11,18.9c10.5,0.4,14.3-12.1,24.1-13.6c-1.3,6.2-7.6,9.7-8.3,16.2
	c7.8-1.8,14.8-6.7,19-13.5c2.8,2.4,0,5.2-1.4,7.4c-1.4,1.7-1.7,3.9-1.8,6c1.5,0.1,3,0.2,4.5,0.4c3.8-2.7,7.5-5.6,11.4-8.1
	c0.6,0.3,1.9,0.9,2.6,1.2c-0.6,0.4-1.7,1.2-2.2,1.6c8.5,13.2,10.4,29.9,20.7,42.1c-12.3,2.4-24.4,5.6-36.7,7.7
	c0.3-4.1-1.6-8.5-5.6-10.1c-8.2-3.8-17.4-1.1-26-3c-3.9,14.4-12.8,27.4-24.5,36.6c-15.1,12.1-33.5,19.2-52.1,24.1
	c-3.3-11.7-6.5-23.4-8.9-35.4c-1.1-5.8-2.1-11.7-1.6-17.6c0.7-2.7,3.1-4.4,5.1-6.2c-3.1-9.7-10.9-16.9-14.2-26.5
	c-2.7-6.5-1.5-13.7,0.7-20.1C238.9,592.9,245.2,582.6,251.7,572.6z"/>
</svg>
