<?xml version="1.0" encoding="utf-8"?>
<!-- Generator: Adobe Illustrator 21.1.0, SVG Export Plug-In . SVG Version: 6.00 Build 0)  -->
<svg version="1.1" id="Layer_1" xmlns="http://www.w3.org/2000/svg" xmlns:xlink="http://www.w3.org/1999/xlink" x="0px" y="0px"
	 viewBox="0 0 825 825" style="enable-background:new 0 0 825 825;" xml:space="preserve">
<style type="text/css">
	.st0{fill:#FFFFFF;}
	.st1{fill:#A9A9A9;}
</style>
<path d="M390.1,125.1c10.8-4.2,22.8-2,33.8,0.4c4.8,27.1,4.1,54.8,6.4,82.1c44.2,0,88.5,0,132.8,0c5.5,10.1,6,22.3,12.5,31.9
	c-1.7,11.6-8.5,22.4-18.5,28.7c-13.6,8.8-30.1,12-46.2,11.9c-24.9,0.6-49.8,0.3-74.7,0.4c-4.9,11.1-2.8,23.6-2.7,35.3
	c-0.3,6.1,1,12.2,0,18.2c18.2-9.7,38.7-15.5,59.4-15.4c19.7,0.3,39.5,4.6,56.9,14.2c29.4,16,51.2,44.2,61.4,75.8
	c9.7,29,9.4,60.7,2.2,90.3c-8.7,37.5-28.2,72-53.8,100.6c-20.4,22.8-43.9,42.7-69,60.1c-19.3,13-39.3,25.6-61.5,33.3
	c-11.8,4.2-24.6,6.1-37.1,4.1c-19.4-2.9-37.4-11.6-54.3-21.3c-28.8-16.9-55.2-37.6-79.1-60.8c-27-26.1-49.8-57.2-62.8-92.6
	c-8-21.6-12.2-44.6-12.2-67.5c-0.7-27.2,7.3-54.5,21.8-77.5c13.3-21.3,32.8-38.8,55.6-49.3c19.8-9.1,42.4-11.9,63.7-7.8
	c14.9,2.7,29,8.8,41.8,16.9c1.6-18.9,5.3-37.8,3.4-56.7c-29.7-0.4-59.4-0.1-89.2-0.5c-13.8-1.8-27.9-5.3-39.1-13.9
	c-6-4.6-10.7-10.9-13.3-18c-0.5-1.3-1-2.7-0.6-4.1c2.9-12.5,7.7-24.5,12.3-36.4c43.3-0.2,86.6,0.5,129.9,0.1
	c5.8-19.7,2.9-40.5,5.5-60.7C376.9,138.2,381.3,128.7,390.1,125.1z"/>
<path class="st0" d="M386.2,135c10.5,0,21,0,31.5,0c-1.3,9.6-0.9,19.3-0.7,28.9c1,16.8,1.3,33.6,0.8,50.4
	c18.9,3.2,38.1,3.4,57.2,3.3c27.2-0.2,54.5-0.8,81.7-0.4c0.5,6.7,1.2,14.1,6.1,19.2c-43,6.2-86.6,2.3-129.9,2.7
	c-3.1,0.1-6.1,0.5-9.2,0.5c-0.4,2.5-0.9,5-1,7.6c-0.9,19-0.2,38.1,0.2,57.1c1,12.8,0.8,25.8-1.8,38.4c-2.2,9.8-6.6,20-15.3,25.8
	c-0.9,0.9-2.1,0-3.1-0.2c-9.6-3.2-16.6-11.8-19.6-21.3c-5.9-17.4-4-36-3-54c1.1-16.7,2.8-33.4,2.8-50.1c-35-6-70.7-3.2-106-3.3
	c-12.2,0.3-24.3,0.3-36.5,0c2.5-7.4,5.2-14.7,6.7-22.3c44.3,0.1,88.6,0,132.9,0c5.5-16.1,4.7-33.4,5.8-50.2
	C386.1,156.3,386.2,145.7,386.2,135z"/>
<path class="st0" d="M243.6,248.8c30.3-5.1,61.2-3.5,91.8-3.1c11.5,0.3,23.1,0.6,34.5-0.2c0,7.5,0,14.9,0,22.4
	c-6.3-0.4-12.7-0.6-19-0.9c-10.3,0.5-20.6,0.7-31,1c-18,0.9-36.4,2-53.9-3.1C257.1,262.4,248.2,257.3,243.6,248.8z"/>
<path class="st0" d="M430.4,264.6c0-6.3,0-12.7,0-19c41.2,0,82.3-0.1,123.5,0.1c0.5,2.9,1.1,6.1-0.5,8.9c-2.6,5.2-8.4,7.5-13.6,9.3
	c-14.3,4.4-29.3,5-44.1,5.3c-5.6,0.8-11.1-0.4-16.7-0.1C462.7,268.6,446.5,267,430.4,264.6z"/>
<path class="st0" d="M240,352.9c21.1-14.3,47-20.5,72.2-20.2c22.1,0.6,44.3,7.5,62.2,20.8c12,8.9,21.4,21,27.5,34.6
	c7-18.1,21.2-33,38.5-41.6c18-9.4,38.4-13.8,58.6-13.2c19.8,0.7,39.6,5.3,57.1,14.6c15.3,8.2,29,20.2,37.6,35.4
	c6.8,11.9,10.1,25.6,10.3,39.2c-1.3-0.8-2.7-1.6-4.1-2.3c-3,4.1-5.4,8.6-8.8,12.4c-5.7,0.5-5.5-5.9-5.8-9.9
	c-3.9,13.2-10.2,25.7-15.9,38.2c-2.8,0-5.9,0.4-8.3-1.4c-2.3-1.6-5-2.1-7.7-2.2c0,6.2,5.1,10.1,9.7,13.3c-2.3,0.1-4.9,0.7-6.8-0.9
	c-5.7-4.2-9.3-10.9-15.9-14c-4.6-2.7-10.2-2.5-15.4-1.8c2.2-9.6,8-18.4,6.9-28.5c-1.2,4.1-2.3,8.2-4.7,11.8
	c-5.4,8.6-13.9,14.7-22.7,19.5c-9.3,4.9-18.6,10.3-26,17.9c-3.3,3.3-5.7,7.3-7.4,11.5c-3.7-0.8-7.3-2.5-9.5-5.7
	c-3.2-4.6-5.6-9.7-9.4-13.9c1.4-4.5,3.4-8.8,5.3-13.1c2.2-4.8,1.9-10.3,1.4-15.4c-7,5.8-6.5,16.1-12.4,22.7
	c-12.2-1.5-24.1-5.2-36.3-6.7c-5.9-0.6-11.7-0.3-17.6-0.1c2.9-6.4,6.3-12.6,9.5-18.9c-10.2,15.5-26.5,26-43.9,32
	c-13.4,4.9-28.6,7-42.3,2c-8.4-2.8-15.5-8.5-21.6-14.9c-0.3-2.9-0.7-6,0.2-8.9c1.4-3.7,4-6.7,6.1-9.9c-0.9-0.6-1.8-1.1-2.7-1.7
	c-1.8,0.9-3.6,1.8-4.9,3.3c-4.2,4.8-7.9,10.5-8.6,16.9c-9.1-1.4-19-0.7-26.6,5c-5.7,3.8-11.5,7.5-17.4,11.1
	c-1.4-8-5.9-14.9-10.3-21.4c-4.6-6.7-6.3-15.1-5.5-23.1c-0.5,5.9-6.4,9.2-11.9,8.8c-5.6-0.6-11-1.7-16.6-2
	c0.5-9.9,1.6-19.9,4.8-29.4C207.6,382.3,222.3,365,240,352.9z"/>
<path class="st0" d="M208.9,444.9c4.6,0.9,9.7,2.6,12.2,6.9c1.7,2.7,1.5,6,1.5,9.1c0,5.3-0.8,10.5-1.1,15.8c2.9-2.3,7-5.7,10.7-3.1
	c3.6,3,3.8,8.2,3.6,12.5c-0.2,7.2-3.5,14.2-8.9,19c-3.3,2.8-7.9,3.6-12,2.9c-1.7-9.4-1.9-18.9-2.7-28.4c-5.2,2.9-6.7,9.1-6.8,14.6
	c-3.3-9.9-6.7-19.9-7.7-30.4c-0.5-3.4,0.1-7,1.8-10c2,3.2,2.4,7,3.2,10.6C207.8,459.2,206.4,451.3,208.9,444.9z"/>
<path class="st0" d="M597.1,466.1c2.2-6.7,0.5-13.8,1-20.6c3.5,13.9,6.4,28.8,2.3,43c-2.4,9.1-9.5,16.4-18.3,19.6
	c-4.8-9-0.3-19.2-3.3-28.6c-1.1,0.5-2.1,1-3,1.6c-0.5,4.8,0.3,9.6,0,14.4c-6-2.9-10.1-9.6-8.4-16.4c2.9-12.6,12.5-22,19.8-32.2
	c0.4,8.1,2.4,16,4.4,23.8C593.8,469.7,596.3,468.6,597.1,466.1z"/>
<path class="st0" d="M271.8,470.6c4-2.4,8.9-1.6,13.4-1.5c12.4,1.7,23.7,7.6,34.6,13.6c-3.9,9.3-8.6,18.7-9.4,28.9
	c5.7-3,6.7-9.8,9.4-15c1.7-3.3,5.6-4.5,9-4.5c2.6,3.5,4.1,8.3,1.8,12.4c-3.9,7.4-12,10.8-17.8,16.4c-6.4-2.5-11-8.3-12.9-14.9
	c-2.2-6.6-2.6-13.6-2.8-20.5c-4.3,5.8-4.9,13.5-3.9,20.4c0.6,6.1,2.3,12,3.8,17.9c-15.7-0.9-32.5-7.1-40.6-21.4
	c2.7-6.5,4.4-13.3,6.4-20c1.8,1,3.3,2.5,3.4,4.8c0.3,5.1-0.9,10.1-0.5,15.2c2.4-1.9,4.5-4.4,5-7.5
	C272.3,486.9,268.7,478.5,271.8,470.6z"/>
<path class="st0" d="M509.4,470.1c13.9-3.4,29.2-1.4,41.2,6.7c0.2,7.2-7,11.8-6.5,19c-3.1-1.5-3.9-4.9-5.3-7.7
	c-0.7-1.8-2.7-1.9-4.2-2.6c-2.5,9.9,4.7,19,3.2,29c-9.1,5.2-19.3,9.3-30,8.5c-6.1-0.1-12-2.4-17.4-5.2c-0.7-11.3,8.4-20.7,6.4-32.1
	c-6.6,6-8.1,15.3-12.8,22.6c-3.3-2.4-6.9-6.1-5.4-10.6c3.7-10,13.5-18.6,24.7-17.7c3.4,9.2,1.6,19.6,5.9,28.6
	c4.5-5.3,5.2-12.7,4.3-19.4C513,482.6,511.2,476.4,509.4,470.1z"/>
<path class="st0" d="M383,473.9c6.9-2.6,14.4-3.6,21.8-3.9c-2.5,5.3-3.3,11.2-6.2,16.3c2.5-0.2,5.5-0.2,7.3-2.4
	c2.6-3.1,3.4-7.1,5.3-10.6c14-2.4,28.3,3.3,38.5,12.9c0.3,3.8,0.1,7.7-1.1,11.3c-2,1-2.9,2.8-2.7,5c1-1.5,1.9-3,2.9-4.6
	c3.5,0.9,6.9,2.2,10.1,3.9c-5.9,9.1-11.9,18.6-20.5,25.5c-8.4,6.7-19.5,9.6-30.2,9c1.1-6.3,4.8-12.2,3.3-18.9
	c-7.1,5.4-10.8,14.4-18.6,19c-11-4.3-22.4-8.2-31.8-15.6c-1.2-3.4-0.9-7.2,0.5-10.5c1.3-3.2,4.1-5.4,5.7-8.5
	c-1.4-1.6-3.8-3.1-5.9-1.8c-3.1,1.4-6.4,2.1-9.8,2C358.4,489.5,369.3,478.8,383,473.9z"/>
<path class="st0" d="M557,502c5,4.1,10,8.1,14.9,12.2c6,5.8,7.7,14.7,7,22.8c1.1-0.6,2.6-0.9,3.2-2.1c1-4.1-0.8-8.5,0.3-12.6
	c0.7-1,1.9-1.3,2.9-1.9c3.4,9.3,0.1,19.3-3.9,27.9c-7.8,16.3-18.8,30.7-30.5,44.4c-26,30-58.3,54.4-93.8,72
	c-18.8,9.6-38.5,17.2-58.5,23.7c-37.5-15-74-33.4-106.2-58c-26.2-20-49.5-44.7-65.2-73.8c-6.2-11.4-11.2-23.5-14.9-35.9
	c1.7-0.2,3.7-1.1,5.1,0.4c2.3,3.9,0.6,8.5,0.9,12.7c5.9-9,12.2-17.7,19.2-25.9c14.2,10.2,29.2,19.3,44.2,28.3
	c-3.2,5.8-4.1,12.4-6.7,18.5c0.2,0.5,0.4,1,0.6,1.5c1-3.5,4.5-5.4,7.3-7.4c11.2-6.6,24.1-9.8,35.9-14.9c7-3.3,13.2-8.3,20.4-11.4
	c2.8-1.2,5.8,0.2,8.1,1.8c4.2,3.3,7.3,7.8,10.2,12.2c-1.7,9.6-8.2,18.4-6.3,28.6c5.7-7,10-15,15.6-22.1c10.2,7.9,23.6,9.4,36.1,9.9
	c4.9,0.2,9.8-0.3,14.6-0.7c-4.2,7.1-6.6,15-9.4,22.8c8.2-8.4,16.3-16.9,24.8-25c12.3-11.9,27.7-22.6,45.5-23
	c-2.7-5.3-10.1-3.5-13.1-8.3c-0.3-1.4-0.5-2.7-0.6-4.1c16.1,7.9,32.5,15.6,48,24.7c-0.9,8.8-7,15.4-10.1,23.4
	c8.4-13.3,21.1-23,32.9-33.1C544.5,522,552.5,513,557,502z"/>
<path class="st1" d="M273.7,557.8c0.8,1.2,0.2,3.3-1.2,3.9C271.2,560.8,272.5,558.4,273.7,557.8z"/>
</svg>
