<?xml version="1.0" encoding="utf-8"?>
<!-- Generator: Adobe Illustrator 21.1.0, SVG Export Plug-In . SVG Version: 6.00 Build 0)  -->
<svg version="1.1" id="Layer_1" xmlns="http://www.w3.org/2000/svg" xmlns:xlink="http://www.w3.org/1999/xlink" x="0px" y="0px"
	 viewBox="0 0 825 825" style="enable-background:new 0 0 825 825;" xml:space="preserve">
<style type="text/css">
	.st0{fill:#FFFFFF;}
</style>
<path d="M404.2,124.3c3.5-1,7.2-0.7,10.8-0.4c5.7,0.8,10.5,5.4,11.4,11.1c1,5.2-0.9,10.3-3.5,14.7c4.7-2.9,10.7-5.2,16-2.5
	c7,3,9.7,11.5,8.6,18.6c-0.6,3.5-3.8,6.4-7.4,6.6c-5.3,0.5-10.4-1.8-15-4.3c1.7,40.3,3.6,80.6,5.2,121c15.5-1.9,31.1-3.7,46.7-2
	c7.6,1.1,15.8,3.1,20.7,9.5c-2,6-8.4,9.8-8.9,16.4c-0.2,2.2,0.5,4.4,0.8,6.6c3.9,1.9,8.1,3.3,12.1,5.1c4,1.9,6.1,6.3,6,10.6
	c2.3,0.3,5,0.9,6.8-1.1c2.4-2.4,5.2-4.4,8.7-4.5c-2.2,3.4-5,6.8-5.1,11.1c-0.5,4.9,2.2,9.2,5.1,12.9c6.3-1,11-6.8,17.7-5.8
	c-0.1-2.8-0.1-6.2,2.7-7.7c-4.1-5.9-10.6-11.1-18.2-10c0.7-3.8,1.8-7.5,2.1-11.4c-1.7-2.3-4.8-1.5-7.2-1.6c0-2.6,0.6-5.7,3.4-6.7
	c3.4-1.3,6.2-4.7,4.7-8.5c2.6,1.5,6,2.7,8.8,1c4.4-2.3,9.4-5.2,14.5-3.5c5.7,2.3,11.4,6.5,12.8,12.8c-4.7-5.5-12.2-8.2-19.4-7.7
	c-4.2,0.3-8.1,3.4-9,7.6c-0.2,7.5,6.6,12.1,10.2,17.9c3.5-1.6,7.1-2.9,10.4-4.9c2.7-1.8,2.8-5.4,2.8-8.2c2.6,2.9,5.4,5.7,7.5,9
	c3.6,5.3,6.9,11.2,12.6,14.5c9.6-1.9,19.2-3.8,28.8-5.4c1.1,1.3,2.8,3,1.5,4.7c-2.2,3.2-6.3,5.1-7.3,9.1c0.8,4.5,3.7,8.1,5.7,12.1
	c5.9-0.8,11.8-1.9,17.7-2.7c1.1-4.2,1.3-8.8-0.7-12.7c-2.1-3.8-4.7-7.3-7.1-10.9c2.8,0.4,6,0.8,7.9,3.2c5.4,5.7,3,14.9,8.3,20.7
	c1.2,1.5,3.2,2.1,4.9,2.9c-0.6,3.9-4.3,5.5-7,7.7c-2.7,2.6-1.3,6.4-0.8,9.6c1,3.7,4.5,6,7.5,8.1c5.5-0.9,10.6-3.4,16.2-4.3
	c4.5-0.7,8.8,1.3,12.1,4.1c-6,4.5-11.2,10-15.9,15.9c-0.2,2.8,1.5,4.9,3.6,6.5c2,1.4,2.3,4,2.4,6.3c5.8-0.7,12-0.2,17.4-2.7
	c3.5-7.2-2.5-13.8-3.1-20.9c4.6,2.2,8.2,6.8,8.8,12c0.4,4.2-0.3,8.6-2.2,12.5c-3.3,6.8-7.7,13-10.5,20.1c-1.5,3.7,0.6,7.9,3.7,10
	c2.5,1.6,5.5,1.4,8.3,1.9c3.6-0.7,7.1-1.4,10.7-2.1c-7,6.3-11.6,14.6-15.6,23c5.9,0.4,9.7-5.4,15.6-5.4c-7.8,16.6-8.7,35.2-9.8,53.2
	c-0.7,23.4-0.5,47.1-5,70.1c-2.3,13.2-11.8,24-23.5,30.1c-16.5,8.7-35.5,13-54.1,10.9c-10-1.3-19.8-4.5-28.6-9.6
	c-4.6-4.6-6.3-11.9-12.3-15.1c-2.9-0.5-4.9,2.2-6.7,4.1c-3.9,4.4-6.7,10.3-12.5,12.5c-18.3,8.7-39.3,9.2-59.1,7
	c-17.5-2.2-35.2-5.5-50.9-13.9c-4.8-2.6-9.3-5.9-13.3-9.6c-13.4,10.7-30.1,16.2-46.7,19.8c-18.5,3.8-37.6,6.3-56.4,3.6
	c-8.7-1.4-17.4-3.8-25-8.3c-5.4-4.2-7.1-12.1-13.3-15.4c-10,3.8-17.2,12.5-26.7,17.2c-6.2,3.7-13.6,4-20.6,4.9
	c-16.1,1.8-33.6,1.3-48-7c-13.7-7.9-21-23-24.5-37.8c-8.1-38.6-5.8-79.2-19.4-116.6c3-0.3,6.4-0.9,9.1,1.1c2.8,2,5.8,3.8,9.2,4.4
	c-6.2-3.3-7-10.9-10.4-16.4c-1.7-2.9-5-4-8.1-4.5c0.9-1.7,1.6-4.6,4.2-3.9c4.8,1.3,9.1,4.6,14.2,4.1c1.9-0.1,3.5-1.3,5-2.3
	c-0.2-5.2,0.2-10.4-0.1-15.6c-1.1-3.7-5.6-5.4-9.1-4.7c-4.9,0.9-9.3,3.3-14.1,4.8c-0.1-2.7,0.5-6.1,3.5-7.1c4.9-1.5,10.2-1.2,15-3.3
	c-2.8-2.2-5.4-5-6.3-8.6c-1.6-6.9,0.9-13.9,3.6-20.2c0.9,0.7,2,1.2,2.8,2.1c1.5,5.2-1.8,10.1-1.3,15.2c-0.2,3.2,2.3,6.6,5.7,6.5
	c5.2,0.3,11.5-0.4,14.6-5.2c2.6-3.5,0.7-7.9-0.3-11.6c-1.5-5.1-6-8.8-11.2-9.7c1.4-2.1,3.1-4.1,5.7-4.8c8.1-2.5,16.3,3.6,24.3,0.5
	c5.2-1.7,7.7-7.9,6-12.9c-1.2-4.9-6.6-6.5-10.7-8.2c2.8,0,5.4-1.3,7-3.6c4.8-6.4,2.9-15.6,8.1-21.9c2.1-2.7,5.8-3.3,9-3.4
	c-5.2,4.5-8.5,11.1-8.8,18c0.4,3.6,1.6,9.4,6.4,8.9c7.2,1.2,12.2-4.6,17.5-8.5c-0.8-5-2.5-11-8-12.8c5.6-0.4,8.9-5.6,10.8-10.3
	c2.2-5.6,3.4-11.9,8.1-16c3.8-3.4,9.7-2.7,13.5,0.3c2.8,2.3,5.9,4.2,9.3,5.5c-1.5,1-3,2.8-5,1.9c-4-1.9-7.2-5.9-12-5.6
	c-3.2,0.7-7.6,1.2-8.5,5.1c-0.9,4.7-0.3,9.5-0.1,14.2c2.5,3.8,7.4,4.9,11.7,5c4.1-0.7,7.6-3.4,10.2-6.6c4.5-5.6,6.8-12.6,8.9-19.4
	c6,3.7,6,12.1,12,15.8c5.1-0.6,9.8-3.7,11.8-8.4c2.9-5.6,2-12.3-0.8-17.7c-4.3-0.9-8.9-1.1-12.9,1c-3.6,2.1-6.9,4.6-10.5,6.8
	c0.6-2.8,1-5.9,2.9-8.2c2.4-3.1,6.6-4.2,10.4-3.9c7.5,0.8,14.9,2.1,22.5,1.9c0,1.6-0.4,3.4,0.5,4.9c1.3,2.5,4.2,3.1,6.2,4.8
	c1.5,1.4,1.3,3.6,1.6,5.5c-2.4,0.1-5.6-0.7-7.2,1.6c0.4,3.9,1.5,7.7,2.2,11.6c-3.9-0.9-8.7-1.5-12,1.4c-2.7,2.6-4.5,6-6.6,9
	c4,6.9,12,9.9,18.9,12.9c2.2-1.3,4.3-3.2,4.5-5.8c0.7-5.9-0.6-11.9-0.2-17.9c2.7,1.5,4.9,3.7,7.4,5.4c4.4-6.2,10.7-10.9,17.7-13.9
	c9.6-3.9,19.5-7.3,28.9-11.9c1.9,1.4,4,3,6.4,3.1c6.3,0.8,12-3.8,18.3-2.5c2.1,0.3,4.2,2.6,6.3,1.3c3-2,3.5-5.8,5.3-8.7
	c2.7-3,9-2.1,9.7,2.2c0.9,4-2.9,6.7-4.6,9.9c6.2,3.6,13.7,3,20.6,2.3c0.5-6.6,1.3-13.8-2.1-19.9c-1.9-3.5-5.2-7.2-9.5-7.1
	c-5.3,0.9-8.7,5.5-11.9,9.3c-4.7-2.8-9-6.6-14.5-8c-0.6,0.1-1.9,0.5-2.5,0.6c-2.1,1.9-2.8,4.7-3.3,7.4c-3.7,0-5.9-3.2-7.5-6.1
	c-1.8-3.1-5.9-2.6-8.8-1.8c-1.4,0.3-1.9,2-1.9,3.2c-0.1,3.2,0.6,6.4,0.2,9.6c-4.6-0.6-6.9-4.7-9.3-8.1c-3.7-4.7-12.1-2.8-13.1,3.3
	c1.4,4.2,2.9,8.3,4.4,12.4c-7.5-2.9-13-10-13.3-18.1c10.7-7,24-7.8,36.4-8.3c9.7-0.1,19.9,0.5,28.5,5.4c2-29.7,4.3-59.3,6.7-88.9
	c1-10.7,1.8-21.4,3.4-32c-5.6,0.5-11,1.6-16.6,2.3c-4.4,0.4-9.4-0.8-11.9-4.7c-0.8-4.3-1.1-9,0.9-13c2.2-4.5,7.3-6.5,12-7
	c4.9-0.6,9.4,2,13.4,4.6c0.9-4.8-0.2-9.7-1.2-14.4C400,133.3,401,128,404.2,124.3z"/>
<path class="st0" d="M431.7,301.2c-0.4-4.3,1.9-10.7,7.3-9.9c4.9-0.3,7.9,4.2,9.3,8.4c2.8-1.6,5-3.9,7.2-6.2
	c2.1-2.1,5.3-2.2,8.1-1.8c4.4,6.8,4.3,16.4,0.1,23.3c-5.3-2.2-10.7-5.5-16.7-5.1c-5.6,1.1-11.1,3-16.4,5.1
	C432.2,310.4,432.4,305.7,431.7,301.2z"/>
<path d="M314.1,294c3.6,0,7.1,0,10.7,0c-2,4.6-4.1,9.2-5.9,13.9c-1.3,4.3,1.4,8.5,3.3,12.2c-3.8-2.9-8.9-5.3-10.1-10.3
	C311.6,304.5,313.2,299.3,314.1,294z"/>
<path class="st0" d="M472.9,297c2.8-3.4,7.5-3.3,11.5-2.9c3.3,6,2.2,13.4-1.1,19.2c-1,1.9-2.8,3.1-4.6,4.3c-2.7-0.8-5.5-1.7-7.1-4.2
	C468,308.5,469.3,301.5,472.9,297z"/>
<path d="M502.1,294c3.5,0,7.1,0,10.6,0c-0.9,2.5-2.4,5.5-0.6,8c2,3,3.4,6.4,3.3,10c-2,0.3-4.3,0-5.9,1.4c-2.1,1.6-2,4.4-2.4,6.7
	c-1.6-3.4-1.9-7.1-0.9-10.7C507.7,304,505.2,298.5,502.1,294z"/>
<path d="M575.1,314.1c7.1-3.1,15.6-0.4,21,4.9c3.2,3.1,4,7.8,5.4,11.9c-2.2,1.5-4.4,3-6.6,4.5c0.9-5.2,1.5-12.3-3.6-15.6
	c-7.4-3.4-15,1.4-22.2,2.9C570,319.3,571.6,315.5,575.1,314.1z"/>
<path class="st0" d="M402,335.2c-0.5-4.9,3.1-8.6,5.3-12.7c4.9,0,9.9,0,14.8,0c-1.6,4.7,2.8,7.9,3.1,12.4c-3.6,0.1-7.3,0-10.9,0.1
	c0.8,4.5,4.8,6.9,8.2,9.3c3,1.9,3.3,5.8,2.5,9c-7.2-3.3-15.4-4.9-23.2-2.9c0.4-1.7,0.3-3.7,1.5-5.1c2.4-3.3,7.3-4.1,9-8
	C409,336.2,405.5,335.6,402,335.2z"/>
<path class="st0" d="M337.2,339.3c11.9-9.1,26.7-14.2,41.6-14.2c3.9,8.1,5.7,17,7.3,25.7c4,21.9,3.9,44.3,9.1,65.9
	c1.5,6.6,3.6,13,6.7,19c-10.8,9.8-14.7,25-14.1,39.2c0.7,19.5,7,38.2,14.2,56.1c-11.9-6.5-17-20.3-27.6-28.4c-3.3-2.5-7.1-5-11.4-5
	c-9,2.6-15.4,10.6-18.4,19.2c-2.7,9-4.9,18.1-7.3,27.1c13.6-5,28.8-6.6,42.7-2c6.8,2.2,12.5,7.7,14.2,14.7
	c-9.3-5.8-20.7-6.1-31.3-5.2c-7.3,0.4-15.2,2-20.3,7.6c-0.5,8.4-0.4,17.6,4.3,25c1.1,1.5,2.1,3.4,4,4c10.4-3.3,18-11.9,28-16
	c6-2.6,12.9-1.2,18,2.8c-1.3,8.7-6.7,16.7-14.7,20.5c-12.4,6.2-26.7,5.2-40.2,4.6c-14.4-0.1-28.8-1.5-43.1,0.4
	c-3.9-5.2-8.6-9.8-12.2-15.2c-2.4-3.8-2.9-8.8-0.7-12.8c3.1-1.2,6.6-2.5,9.9-1.4c8.8,2.2,15.6,10.4,15.9,19.5
	c5.9-2.7,10.9-7.9,12.2-14.4c2-6.8-0.1-14.4-4.3-19.9c-4.8-6.3-13-9.3-20.8-8.7c-4.5,0.2-8.7,2.1-12.8,4c2-4.5,5.7-8.1,10.3-9.8
	c9.9-4.1,21.6-3.2,30.8,2.3c-1.6-10.2-3.6-20.6-8.3-29.9c-2.3-4.5-5.6-8.4-9.6-11.4c-6.4,1.5-12.7,4.5-16.7,9.9
	c-3.6,4.6-5.4,10.2-6.6,15.8c-2.7-3-3.4-7.2-2.6-11.1c1.7-8.6,6.4-16.5,7.7-25.2c0.3-10.9-5.2-21.1-5-32
	c-0.3-25.2,4.9-50.4,15.6-73.3C310.2,368.8,321.2,351.4,337.2,339.3z"/>
<path class="st0" d="M445.6,325.1c16.1,1,32.1,6.3,44.8,16.4c13.9,11.1,24,26.6,29.6,43.4c8.7,24.4,16,49.2,23.5,73.9
	c-5.6,6.8-7.5,15.7-7.6,24.3c0.6,15.4,4.9,30.3,7.7,45.3c-4.5-5.5-7.5-11.9-11.4-17.8c-3.2-4.8-8.9-8-14.7-7.7
	c-6.6,2-10.8,8.3-12.8,14.6c-2.1,7.9-3.3,16.1-5.1,24c10.2,0,20.6-4,30.6-0.6c4.6,1.6,7.6,6,8.2,10.8c-12.1-2.5-26.6-3.7-36.5,5.2
	c-1.4,11.7,0.6,24.2,7.9,33.7c5.9-5,9.6-12.1,15.6-17.1c4.4-3.5,10.5-3.5,15.4-1.1c1.6,4,1.4,8.7-0.9,12.4
	c-3.6,6.3-9.1,11.2-14.8,15.6c-15.6-2.8-31.5-0.7-47.2-0.4c-11.8,0.9-24.5,1-35.2-5c-7.3-4-11.9-11.9-12.6-20
	c3.5-3.2,8.5-4.8,13.2-4.3c11.8,1.7,21.1,10.4,27.8,19.8c6.5-4.6,11.8-11.4,12.9-19.4c0.5-4.6,1.3-10.2-2.7-13.5
	c-6.7-6.1-16.5-6.2-25.1-6.2c-9,0-18.1,1.6-26.3,5.5c2.7-6.1,7.8-11,14-13.5c13.6-5.5,29.6-5.8,42.8,0.8
	c0.6-12.9-3.4-25.8-10.5-36.5c-3.4-4.4-7.9-9.1-13.5-9.9c-14.6,5.3-24.1,18.4-32.9,30.6c0.2-18.1,7.2-35.2,8.5-53.2
	c1.5-13.4-2.2-28.4-13.6-36.7c4-7.3,5.9-15.5,7.5-23.6c4.2-21.8,3.8-44.2,7.3-66.1C441,340.8,442.6,332.7,445.6,325.1z"/>
<path class="st0" d="M203.6,398.6c17.5-21.5,41-38.1,67-47.8c-2.5,8.8-4.5,17.7-7.9,26.2c3.2-5,9.6-6.2,15.1-5
	c4.6,0.3,8.8,2.9,10.9,7c-1.5,5.4-3.7,12.6-10.3,13.3c3.9,16.2,0.6,33.3-5.5,48.6c-6.1-0.9-11.9-3.4-17.7-5.2
	c-0.9-3.7-1.4-7.7,0.1-11.3c2.2-5,6.9-8.1,10.3-12.1c-1.4-2.1-3.1-4-5.5-5c-4.9,3.8-7.9,9.7-8.4,15.8c-1.9,15.1,6.1,29.7,3.4,44.8
	c-0.6,4.4-2.3,8.6-5.3,11.9c-1.5,17.8,10.9,33.1,10.2,50.8c-5-6.9-8-15.4-14.5-21.1c-3.2-2.6-7.3-5.3-11.6-3.8
	c-6.6,1.5-10.8,7.5-12.7,13.5c-2.6,8.2-5.2,16.5-7.5,24.9c9.2-4.7,20.1-6.5,30.3-4.2c5.7,1.2,10.3,5.8,11.2,11.6
	c-7.1-2.7-15-5.2-22.6-2.7c-7.2,2.1-12.2,8.7-14.3,15.7c-2.2,9.4,1.3,19.5,8.3,26.1c5.6-6.4,10.3-13.9,17.8-18.4
	c4.1-2.5,9-1.7,13.2,0.1c2.2,7.2-0.9,15.1-7,19.4c-11.3,8.5-26,10.6-39.7,10.9c-13.1-0.4-26.9-2-38-9.6c-5.8-3.9-10-11-8.6-18.1
	c0-3.9,4.9-3.9,7.7-4.3c10.1,0.6,16.5,9.7,21.4,17.5c4.1-2.6,8-6,9.6-10.8c3.9-11.2-3-24.7-14.2-28.4c-7-2.6-14.8-1-21.1,2.6
	c0.5-5.9,5.6-10.3,11.2-11.5c9.2-2.1,19.6-1.6,27.6,4c-1.5-13.3-4.9-27.8-15.6-36.8c-3-3.4-7.7-0.8-11,0.8c-8.9,5-11.7,15.3-17.5,23
	c-0.7-15.7,0.1-31.6,2.8-47.1C170.4,452.8,183.7,423,203.6,398.6z"/>
<path class="st0" d="M276.2,354.1c5.1-3.7,11.9-1.9,17.6-0.6c0,6,1.2,12.1,0,18.1c-3.9-0.1-7.2-2.1-10.2-4.4
	c-3.1-2.3-7.1-1.7-10.7-1.3C272.9,361.8,272.7,357,276.2,354.1z"/>
<path class="st0" d="M530.4,361.1c1.8-8.8,15.2-12.6,21-5.5c2.5,2.8,2.5,6.7,2.5,10.3c-3.7-0.3-7.6-0.8-11,1
	c-3.2,1.7-6.4,3.5-9.8,4.6C531.5,368.3,529.6,364.8,530.4,361.1z"/>
<path class="st0" d="M407.2,355.2c3.6-2.6,8.2-2.2,12.4-1.9c0,4.6,4.8,8.3,2.7,13c-6.8,0.4-13.6,0.3-20.4-0.5
	C402.6,362,403.5,357.5,407.2,355.2z"/>
<path class="st0" d="M553.9,353.5c17.7,1,33.4,10.9,46.5,22.1c15.3,13.3,28.7,28.9,40,45.8c12.2,18.5,21.6,39.3,24.1,61.5
	c0,11.4-2.5,22.7-1.9,34.1c0.2,4.8,1.8,9.4,3.9,13.7c-9.1-6.4-11.8-19-22-24.2c-3.1-2-7.1-0.8-10,1c-4.4,2.7-7.1,7.5-8.9,12.2
	c-2.6,7.3-5.2,14.5-7.7,21.8c10.8,0.1,21.7-4,32.3-0.8c5.6,1.7,9.2,7.3,8.9,13.1c-5.5-3.8-12.3-6.1-19-4.7
	c-11.2,1.6-20.3,13.4-18.3,24.7c0.9,5.6,4.3,10.8,9.1,13.9c7.6-4.3,11.2-14.2,20.1-16.7c3.6-1.3,7.5-0.2,10.9,1.2
	c1.3,8-2.5,16.1-9,20.8c-13.1,9.7-30.4,10.8-46.1,9.4c-11.5-1.3-23.5-4.1-32.4-12c-5.2-4.4-7.5-11.8-5.2-18.2
	c5.4-2.2,11.9-1.9,16.5,1.8c5.6,3.5,8.7,9.9,9.2,16.4c4.1-1.7,8.2-4.1,10.5-8.1c4.6-7.4,3.3-17-1-24.2c-3.5-6.8-11-11.1-18.6-10.8
	c-5.1-0.1-9.8,1.9-14.2,4.1c0.7-4.8,4-8.9,8.5-10.6c9-3.5,20.3-3.5,27.9,3.2c2.8-9.1-0.1-18.6-4.2-26.8c-2.5-4.8-6-9.5-11-11.8
	c-6.5-0.8-12.2,3.6-15.7,8.7c-3.6,5.4-7.3,11.1-13.1,14.4c5.7-14.5,10.9-29.8,10.5-45.6c-0.1-7.8-2.5-15.6-7.5-21.7
	c6-9.9,7.3-21.9,7.5-33.3c0-5.7,0-12.1-3.8-16.7c-2.6-2.6-6.6-2-9.9-1.2c0,6,6.1,8.8,8.8,13.3c2.2,2.8,2.5,6.4,2.2,9.8
	c-4.9,6-12.9,8.4-20.5,7.9c-2.2-16.7-5-34.1-0.5-50.6c5.7,4.1,12.3,6.8,18.6,9.7c1.4-7.1-2.3-13.8-2.7-20.9
	c-7.4,7.5-18.3,9.5-28.4,10.2c-1.4-5-1.5-11.4,3.1-14.8c5.8-4.7,13.9-4,20.2-0.8C558.9,367.2,556.5,360.3,553.9,353.5z"/>
<path d="M645,363.3c0.4-2.7,4.5-3.2,6.6-2.3c5,2.9,7,8.8,10.5,13.2c-3.5,2-6.2-1.7-8.2-4.1C651.7,367,648.7,364.5,645,363.3z"/>
<path class="st0" d="M404.9,371.3c5.4,0.4,11,0.1,16.2,1.8c1.9,0.3,1.8,2.4,2.2,3.8c1,4.6-2.6,8.6-2.4,13.1c0,2.5,0.9,4.9,1.5,7.2
	c-5.9,2.8-12.5-0.7-18.3,2.4c-3.2-4,0.1-8.4,1.9-12.1c1.4-3-1.6-5.2-4-6.4C402.5,377.8,404.7,374.8,404.9,371.3z"/>
<path d="M257.8,378.9c5,1.6,8.7,5.5,13.4,7.5c1.6,1,4.2-1.1,5.2,1.2l-1.3-0.1c-3.6,2.1-8,2.8-11.4,5.4c-2.3,1.7-3.1,4.7-3.9,7.3
	c-2.3-1.2-4.9-3.2-4.1-6.2C256.8,389,258.6,384.1,257.8,378.9z"/>
<path class="st0" d="M404.8,402.3c5,0,10,0.1,15,0c1.4,4.8,6.8,8.8,4.6,14.2c-2,6.5-9.5,8.1-14.6,11.5c-4.5-3.5-5.7-9.7-10.5-13
	c1.5-2,3.4-3.9,4.9-5.9C405.4,407.1,404.9,404.6,404.8,402.3z"/>
<path d="M183,631.4c54.7,0,109.3,0,164,0c2.1,0.1,4.2-0.2,6.3,0.3c3.5,5.9,3.2,13.3,6.6,19.2c2.8,4.3,8.4,4.6,13,3.8
	c3.6-1.1,6.3-4.9,4.8-8.7c-2.3-5.5-8.7-8.4-10-14.5c11.4-1,22.9-0.7,34.3-0.7c19-0.1,37.9,0,56.8,0.6c-3,5-7.8,8.8-9.6,14.4
	c-1,3.7,1.7,6.6,4.2,8.9c5.6,1.1,12.8-0.1,15.1-6.1c1.4-5.6,1.7-11.5,2.6-17.2c57.6,0,115.2,0,172.8,0c0,23.2,0,46.4,0,69.6
	c-11,0-22,0-33,0c-14.7-1-29.4,0-44-0.6c-35.6,0-71.3-0.5-106.9-0.4c-15.3-1-30.6,0-45.9-0.6c-40,0-80.1-0.5-120.1-0.4
	c-20.6-1-41.4,0.1-62-0.7c-16.3,0-32.7,0-49,0C183.1,676.1,183,653.7,183,631.4z"/>
<path class="st0" d="M390,643.9c14.6-7.5,33-8.4,47.5-0.4c2.4,1.4,5.3,2.5,6.8,5c4.1,5.9,7.5,13.2,6.2,20.6
	c-1.6,8.3-8.2,14.6-15.7,18c-14.7,6.7-32.5,7.7-47.1,0c-7.5-3.7-13-11.2-14.2-19.5C375,657.7,381,648.5,390,643.9z"/>
<path d="M412.3,644.1c7.5-1.2,16-0.5,22.1,4.5c5.8,4.6,7.5,12.6,6.3,19.5c-0.7,5.9-2.7,12.2-7.7,16c-5.8,4.5-13.7,4.8-20.7,3.7
	c-9.2-2-18.2-6.6-24.4-13.9c-4.4-5.2-5.6-13.5-0.7-18.8C393.9,648.7,403.4,646,412.3,644.1z"/>
<path class="st0" d="M334,657c8.7-7.6,23.2-4.5,29.8,4.3c1.3,2.2,3,5.4,1.3,7.8c-2.7,4.6-7.9,7-13,7.9c-7.7,1.7-16-0.1-22.5-4.5
	C328.8,667,329.4,660.7,334,657z"/>
<path class="st0" d="M473.5,653.7c6.4-1,13.8-1.7,19.2,2.6c2.8,2.3,5.5,5.7,4.6,9.6c-0.3,4.1-2.8,8-6.6,9.8
	c-6.1,2.8-13.3,3-19.7,1.2c-4.5-1.1-8.5-4.4-9.7-8.9C460.8,660.8,466.8,654.8,473.5,653.7z"/>
<path class="st0" d="M362.2,677c3.4-2.1,8.6-3.1,11.8,0.1c1.5,1.4,3.1,2.6,4.9,3.7c-2.1,5.2-4.6,10.5-9.1,14
	c-3.2,2.7-7.5,3.6-11.5,4.1C352.8,692.1,355.5,681.7,362.2,677z"/>
<path class="st0" d="M448,680.1c2.9-2.9,6.6-5.9,11-5c5.4,1.1,10.2,5.2,12.4,10.3c1.7,4.6-0.2,9.4-2.6,13.3
	c-4.4,0.1-9.1-0.9-12.5-3.9C451.9,691.1,449.6,685.6,448,680.1z"/>
</svg>
