<?xml version="1.0" encoding="utf-8"?>
<!-- Generator: Adobe Illustrator 21.1.0, SVG Export Plug-In . SVG Version: 6.00 Build 0)  -->
<svg version="1.1" id="Layer_1" xmlns="http://www.w3.org/2000/svg" xmlns:xlink="http://www.w3.org/1999/xlink" x="0px" y="0px"
	 viewBox="0 0 825 825" style="enable-background:new 0 0 825 825;" xml:space="preserve">
<style type="text/css">
	.st0{fill:#FFFFFF;}
</style>
<path d="M221,294.9c34.4-11.2,70.6-16.8,106.8-17.2c33.1-0.2,66.3,3.6,98.5,11.2c36.4,9.3,70.3,26.1,102.6,44.9
	c19,11.1,37.5,23.1,55.5,35.8c16.1,11,30.7,24.1,46.1,36c1.8,1.4,3.8,2.7,5.9,3.9c7.7-1.4,13.6-6.9,19.4-11.7
	c18.3-16.4,32.8-36.4,49.7-54.2c7.1-7.3,14.5-14.3,21.7-21.4c4.9-4.5,9.7-9.1,13.3-14.7c4.6-6.5,9-14,16.6-17.4
	c4.1-1.9,8.7-1.1,12.7,0.8c2.9,10.6-1.6,21.5-8.3,29.6c-11.6,14.1-27,24.3-39.9,37.1c-21.1,22.1-42.1,44.2-62.6,66.8
	c25.1,25.2,52.2,48.4,76.7,74.2c14.5,15.7,28.6,32.3,38,51.6c-4.1,4.1-10.4,5.3-15.8,3.3c-8.7-3.2-16.1-9.2-22-16.3
	c-25-26.9-49.7-54.2-75.7-80.2c-6.5-6.1-12.8-12.6-20-17.9c-32.9,22.7-65.8,45.4-99.7,66.5c-36.3,22.2-75.6,39.8-116.8,50.5
	c-26.7,6.9-54.2,10-81.7,10.1c-69.5,0.9-139.2-16.9-199.7-51.3c-37.5-21.5-71.1-51.8-90.8-90.7c17.6-28.4,40-53.9,66.1-74.6
	C148.2,325,183.7,306.9,221,294.9z"/>
<path class="st0" d="M150.2,350.3c45.4-27.6,98.5-40.7,151.2-43.7c78.5-3.8,158.7,11.6,228.5,48.4c33.8,18,65.2,41.7,88,72.8
	c-32.8,21.6-65.5,43.5-99,63.9c-35.6,20.7-74.1,37-114.4,45.6c-22.4,4.8-45.4,6.8-68.4,6.7c-41.9,0.5-83.9-6.4-123.1-20.9
	c-41.1-15.1-79.8-38.1-110.4-69.6c-9.2-9-17.3-19-25.1-29.3C94.7,393.8,120.3,368.4,150.2,350.3z"/>
</svg>
