<?xml version="1.0" encoding="utf-8"?>
<!-- Generator: Adobe Illustrator 21.1.0, SVG Export Plug-In . SVG Version: 6.00 Build 0)  -->
<svg version="1.1" id="Layer_1" xmlns="http://www.w3.org/2000/svg" xmlns:xlink="http://www.w3.org/1999/xlink" x="0px" y="0px"
	 viewBox="0 0 300 300" style="enable-background:new 0 0 300 300;" xml:space="preserve">
<style type="text/css">
	.st0{fill:#FFFFFF;}
	.st1{fill:#020202;}
</style>
<g>
	<path class="st0" d="M17.8,17.8h264.5v264.5H17.8V17.8 M137.5,40.2c-1.4,0.3-2.8,0.3-4.1,0.7c-2.5,0.7-5.1,1.2-7.6,2.1
		c-12,3.8-23,10.9-31.6,20.1c-8,8.6-13.9,19-17,30.3c-0.5,2.3-1.3,4.4-1.5,6.8c-1.7,8.5-1.7,17.2,0,25.7c0.2,2.5,1.1,4.9,1.6,7.3
		c1.1,3.6,2.4,7.1,3.9,10.5c5.4,11.8,14,22.3,24.7,29.8c0.4,0.3,1,0.6,1,1.2c0.3,1.8,0.6,3.5,0.7,5.3c0.4,2.7,0.8,5.4,1.2,8.2
		c0.2,3.5,1.1,7,1.4,10.5c0.2,1.3,0.8,2.4,1.3,3.6c-0.5,1.3-1.1,2.5-1.3,3.8c-0.1,1.5-0.1,3.1,0,4.6c0.1,1,0.6,2,0.8,3
		c-0.2,1-0.7,2-0.8,3.1c-0.1,1.5-0.1,3.1,0,4.6c0.1,1.1,0.6,2,0.8,3c-0.3,1-0.8,2-0.8,3c-0.1,1.7-0.2,3.4,0.1,5.1
		c0.6,2.4,1.7,4.7,3.3,6.6c2.2,2.5,5.3,4.3,8.5,4.9c0.2,2.1,0.9,4.1,1.9,5.8c1.7,3,4.8,4.8,7.8,6.5c1.8,0.9,3.7,1.7,5.7,2.4
		c2.4,0.6,4.7,1.4,7.2,1.5c3.4,0.5,6.8,0.2,10.2-0.2c3.2-0.7,6.3-1.5,9.2-2.9c3-1.5,6-3.2,8.3-5.7c1.6-2.1,2.9-4.7,2.9-7.4
		c5.9-0.9,11.1-5.9,12-11.9c0.5-2.6,0.1-5.2-0.7-7.7c0.4-1.4,0.7-2.8,0.9-4.2c0.2-2.2-0.3-4.4-0.9-6.5c1.1-3.2,1.2-6.7,0.2-10
		c-0.2-0.5-0.6-1-0.6-1.6c0.3-0.8,0.7-1.5,0.9-2.3c0.5-2.7,0.9-5.4,1.3-8.1c0.3-4,1.3-7.8,1.6-11.8c0.3-1.9,0.6-3.9,0.9-5.8
		c0.5-0.7,1.3-1.1,1.9-1.6c6.7-4.9,12.6-11,17.3-17.9c5.5-7.9,9.3-17,11.5-26.4c0.4-2.8,1.2-5.6,1.3-8.4c0-1.7,0.2-3.5,0.3-5.2
		c0.2-3.1-0.2-6.2-0.3-9.3c-0.2-2.8-0.9-5.4-1.3-8.2c-1.1-4.7-2.6-9.4-4.6-13.8c-5.5-12.5-14.6-23.4-25.8-31.1
		c-7.7-5.4-16.4-9.2-25.5-11.3c-1.9-0.6-3.9-0.7-5.9-1.1C152.2,39,144.7,39,137.5,40.2 M141.5,54.4c2.1-0.1,4.2-0.4,6.3-0.4
		c2.3-0.1,4.6,0.1,6.9,0.3c2.5,0,5,0.7,7.4,1.2c1.8,0.2,3.4,1,5.2,1.4c4.5,1.5,8.8,3.4,12.8,5.9c11.9,7.3,21.1,19,25.4,32.3
		c0.3,1.4,0.9,2.8,1.2,4.3c0.4,2.5,1,4.9,1.3,7.4c0.3,4.4,0.3,8.9,0,13.3c-0.2,2.2-0.8,4.3-1.2,6.5c-2.7,11.6-9,22.4-17.9,30.4
		c-3.3,3-7,5.7-10.9,7.8c-0.3,0.2-0.7,0.4-1,0.7c-0.2,1.4-0.4,2.8-0.6,4.2c-0.2,3.5-1.1,7-1.4,10.5c-0.5,3.4-1.2,6.7-1.4,10.1
		c-0.3,1.9-0.5,3.9-0.9,5.8c-16-0.1-31.9,0-47.9,0c-0.4-3.2-1.1-6.4-1.3-9.6c-0.4-2.6-0.8-5.2-1.2-7.8c-0.3-3.4-1-6.8-1.4-10.2
		c-0.1-1-0.1-1.9-0.3-2.9c-0.5-0.6-1.3-0.9-2-1.3c-12.7-7.4-22.5-19.7-26.7-33.7c-0.5-2-1.3-3.9-1.5-6c-1.5-7.3-1.6-14.9-0.1-22.2
		c0.2-1.6,0.6-3.2,1.1-4.7c3.5-13.1,11.8-24.8,22.9-32.6c4.9-3.5,10.4-6.2,16.1-8.1c1.7-0.4,3.3-1.1,5.1-1.4
		C137.4,55.1,139.4,54.6,141.5,54.4 M157.8,78.4c-5.1,8.2-10.2,16.5-15.4,24.7c-2.8,4.4-5.4,8.9-8.2,13.3c-0.4,0.9-1.2,1.6-1.5,2.6
		c0.4,0.2,0.9,0.1,1.3,0.1c4.3,0,8.7,0,13,0c-0.2,1.8-0.3,3.7-0.9,5.5c-0.4,3.3-1,6.5-1.6,9.7c-0.2,1.5-0.3,3-0.8,4.4
		c-0.5,3.8-1.1,7.6-1.9,11.4c0.1,1.7-0.8,3.2-0.6,4.9c4.6-7.8,9.5-15.3,14.2-23c3.3-5.3,6.5-10.7,9.9-15.9c1-1.9,2.5-3.6,3.3-5.6
		c-4.8-0.1-9.5,0-14.3,0c0.3-2,0.8-4.1,0.9-6.1c0.1-1.2,0.6-2.2,0.7-3.4c0.1-1.8,0.6-3.5,0.8-5.2c0.4-2.3,1-4.5,1.1-6.8
		c0-0.8,0.5-1.5,0.5-2.2c0.2-2.6,0.8-5.2,1-7.8c0.5-1.3,0.6-2.7,0.7-4.1C159.2,75.8,158.6,77.2,157.8,78.4 M121.3,206.5
		c0.8-1.3,2.3-2,3.7-2c11.6,0,23.1,0,34.7,0c-2.4,0.9-5.1,1-7.5,1.8c-2.2,0.4-4.4,0.9-6.6,1.5c-2.3,0.3-4.5,1.1-6.7,1.4
		c-1.5,0.3-3,0.8-4.5,1.1c-2.4,0.3-4.6,1.2-7,1.5c-1.4,0.2-2.9,1.2-4.3,0.4c-1-0.5-1.9-1.4-2.3-2.5
		C120.7,208.6,120.6,207.4,121.3,206.5 M171.3,204.8c2-0.7,4.5,0.3,5.1,2.4c0.6,1.6,0.1,3.7-1.5,4.6c-1.5,1-3.3,0.9-4.9,1.4
		c-2.8,0.8-5.7,1.2-8.5,2c-2.5,0.3-4.8,1.2-7.3,1.5c-1.7,0.4-3.5,0.9-5.2,1.2c-1.6,0.3-3.2,0.8-4.8,1.1c-2.2,0.3-4.3,1.1-6.5,1.4
		c-2,0.3-4,1-6,1.3c-2.5,0.4-4.9,1.5-7.5,1.4c-2.6-0.1-4.3-3.2-3.2-5.5c0.6-1.1,1.6-2.1,2.8-2.2c1.9-0.3,3.8-1,5.8-1.3
		c1.7-0.3,3.4-0.9,5.1-1.2c2.1-0.3,4.1-1.1,6.2-1.3c1.6-0.3,3.2-0.8,4.8-1.1c1.8-0.2,3.5-0.8,5.3-1.2c2.5-0.3,4.8-1.2,7.3-1.5
		c2.7-0.8,5.5-1.1,8.2-1.9C168.1,205.4,169.7,205.2,171.3,204.8 M171.3,215.3c1.3-0.1,2.9-0.3,3.9,0.7c1.6,1.2,1.8,3.6,0.8,5.3
		c-0.4,0.5-0.9,1-1.5,1.3c-3.5,1-7.1,1.6-10.6,2.5c-2.4,0.3-4.7,1.2-7.1,1.5c-1.6,0.3-3.2,0.8-4.8,1.1c-2.1,0.3-4.1,1.1-6.1,1.3
		c-1.7,0.3-3.4,0.9-5.1,1.2c-2,0.3-3.9,1-5.8,1.3c-2,0.3-3.9,1-5.9,1.3c-1.2,0.2-2.4,0.6-3.6,0.8c-2,0.5-4.2-0.9-4.8-2.8
		c-0.1-1.1-0.2-2.4,0.6-3.3c1.4-1.9,4-1.9,6.1-2.4c3-0.8,6-1.3,9-2.1c2-0.3,4-0.9,6-1.3c2.3-0.3,4.4-1.1,6.7-1.4
		c1.8-0.3,3.5-0.9,5.3-1.2c1.9-0.2,3.7-0.9,5.6-1.2c1.9-0.2,3.8-0.9,5.7-1.3C167.6,216.3,169.4,215.7,171.3,215.3 M170.2,226.5
		c1.1-0.2,2.1-0.6,3.1-0.7c1.1,0.3,2.2,0.9,2.8,1.9c0.5,1,0.7,2.1,0.3,3.2c-0.4,1.8-2.4,2.9-4.2,2.8c-11.5,0-23,0-34.5,0
		c1.5-0.6,3.2-0.9,4.8-1.2c1.5-0.3,2.9-0.8,4.4-1c2.1-0.3,4.1-1,6.2-1.3c1.7-0.3,3.3-0.8,5-1.1c1.9-0.2,3.7-0.9,5.6-1.2
		C166,227.6,168,226.8,170.2,226.5 M134.4,240.5c0.8-0.3,1.8-0.2,2.5,0.4c4.5,3.2,10.3,4.5,15.7,3.4c3-0.5,5.8-1.9,8.3-3.6
		c1.8-1,4.2,0.9,3.7,2.9c0,1-0.9,1.6-1.7,2.1c-4.2,2.8-9.2,4.3-14.2,4.4c-5.3-0.1-10.6-1.8-14.8-4.9c-0.7-0.5-1.2-1.3-1.1-2.2
		C132.6,241.8,133.5,241,134.4,240.5L134.4,240.5z"/>
	<path class="st1" d="M137.5,40.2c7.2-1.2,14.7-1.2,22-0.1c2,0.4,4,0.5,5.9,1.1c9.1,2.1,17.9,5.9,25.5,11.3
		c11.3,7.7,20.3,18.6,25.8,31.1c2,4.4,3.4,9.1,4.6,13.8c0.4,2.7,1.1,5.4,1.3,8.2c0.1,3.1,0.4,6.2,0.3,9.3c0,1.7-0.2,3.5-0.3,5.2
		c-0.1,2.8-0.9,5.6-1.3,8.4c-2.1,9.4-6,18.5-11.5,26.4c-4.7,6.9-10.6,13-17.3,17.9c-0.7,0.5-1.5,0.9-1.9,1.6
		c-0.3,1.9-0.6,3.9-0.9,5.8c-0.3,4-1.3,7.8-1.6,11.8c-0.4,2.7-0.8,5.4-1.3,8.1c-0.2,0.8-0.6,1.5-0.9,2.3c0.1,0.6,0.5,1.1,0.6,1.6
		c1.1,3.2,0.9,6.7-0.2,10c0.6,2.1,1.1,4.3,0.9,6.5c-0.2,1.4-0.4,2.8-0.9,4.2c0.8,2.5,1.2,5.1,0.7,7.7c-0.8,6-6,11-12,11.9
		c0,2.7-1.3,5.3-2.9,7.4c-2.2,2.6-5.3,4.2-8.3,5.7c-2.9,1.4-6,2.3-9.2,2.9c-3.4,0.4-6.8,0.6-10.2,0.2c-2.5,0-4.8-0.9-7.2-1.5
		c-1.9-0.7-3.8-1.5-5.7-2.4c-2.9-1.6-6-3.5-7.8-6.5c-1-1.8-1.8-3.8-1.9-5.8c-3.3-0.6-6.4-2.4-8.5-4.9c-1.7-1.9-2.7-4.2-3.3-6.6
		c-0.2-1.7-0.2-3.4-0.1-5.1c0.1-1.1,0.5-2,0.8-3c-0.2-1-0.7-2-0.8-3c-0.1-1.5-0.1-3.1,0-4.6c0.1-1.1,0.6-2,0.8-3.1
		c-0.3-1-0.7-2-0.8-3c-0.1-1.5-0.1-3.1,0-4.6c0.2-1.4,0.8-2.6,1.3-3.8c-0.5-1.2-1.1-2.4-1.3-3.6c-0.3-3.5-1.2-7-1.4-10.5
		c-0.4-2.7-0.9-5.4-1.2-8.2c-0.1-1.8-0.4-3.5-0.7-5.3c0-0.6-0.6-0.8-1-1.2c-10.7-7.5-19.3-17.9-24.7-29.8c-1.6-3.4-2.8-6.9-3.9-10.5
		c-0.5-2.4-1.4-4.8-1.6-7.3c-1.7-8.5-1.6-17.2,0-25.7c0.2-2.3,1-4.5,1.5-6.8c3.1-11.3,9.1-21.7,17-30.3c8.6-9.2,19.5-16.3,31.6-20.1
		c2.5-0.9,5-1.4,7.6-2.1C134.7,40.6,136.1,40.5,137.5,40.2 M141.5,54.4c-2.1,0.2-4.1,0.7-6.2,1.1c-1.8,0.2-3.4,1-5.1,1.4
		c-5.7,1.9-11.2,4.6-16.1,8.1c-11.1,7.8-19.4,19.5-22.9,32.6c-0.5,1.5-0.9,3.1-1.1,4.7c-1.5,7.3-1.5,14.9,0.1,22.2
		c0.2,2.1,1,4,1.5,6c4.3,14.1,14,26.3,26.7,33.7c0.7,0.4,1.5,0.7,2,1.3c0.2,0.9,0.3,1.9,0.3,2.9c0.4,3.4,1.2,6.8,1.4,10.2
		c0.4,2.6,0.8,5.2,1.2,7.8c0.2,3.2,0.9,6.4,1.3,9.6c16,0.1,31.9,0,47.9,0c0.4-1.9,0.6-3.9,0.9-5.8c0.3-3.4,1-6.7,1.4-10.1
		c0.2-3.5,1.1-7,1.4-10.5c0.2-1.4,0.5-2.8,0.6-4.2c0.3-0.2,0.7-0.5,1-0.7c3.9-2.2,7.6-4.8,10.9-7.8c8.9-8,15.2-18.8,17.9-30.4
		c0.4-2.2,0.9-4.3,1.2-6.5c0.4-4.4,0.3-8.9,0-13.3c-0.3-2.5-0.9-4.9-1.3-7.4c-0.3-1.4-0.9-2.8-1.2-4.3c-4.3-13.3-13.5-25-25.4-32.3
		c-4-2.5-8.3-4.4-12.8-5.9c-1.7-0.4-3.4-1.2-5.2-1.4c-2.5-0.5-4.9-1.2-7.4-1.2c-2.3-0.2-4.6-0.4-6.9-0.3
		C145.7,54,143.6,54.3,141.5,54.4 M121.3,206.5c-0.7,0.9-0.6,2.1-0.5,3.2c0.4,1.1,1.2,2,2.3,2.5c1.4,0.8,2.9-0.2,4.3-0.4
		c2.4-0.3,4.6-1.2,7-1.5c1.5-0.3,3-0.8,4.5-1.1c2.3-0.3,4.5-1.1,6.7-1.4c2.2-0.5,4.4-1.1,6.6-1.5c2.5-0.8,5.1-0.9,7.5-1.8
		c-11.6,0-23.1,0-34.7,0C123.5,204.5,122,205.2,121.3,206.5 M171.3,204.8c-1.6,0.5-3.2,0.6-4.8,1c-2.7,0.7-5.5,1.1-8.2,1.9
		c-2.5,0.3-4.8,1.2-7.3,1.5c-1.8,0.4-3.5,0.9-5.3,1.2c-1.6,0.3-3.2,0.8-4.8,1.1c-2.1,0.3-4.1,1-6.2,1.3c-1.7,0.3-3.4,0.8-5.1,1.2
		c-2,0.2-3.8,0.9-5.8,1.3c-1.2,0.2-2.2,1.2-2.8,2.2c-1.1,2.3,0.6,5.4,3.2,5.5c2.6,0.1,5-1,7.5-1.4c2-0.3,4-1,6-1.3
		c2.2-0.4,4.3-1.1,6.5-1.4c1.6-0.3,3.2-0.8,4.8-1.1c1.8-0.2,3.5-0.8,5.2-1.2c2.5-0.3,4.8-1.2,7.3-1.5c2.8-0.8,5.7-1.2,8.5-2
		c1.6-0.5,3.5-0.4,4.9-1.4c1.5-0.9,2.1-3,1.5-4.6C175.8,205.1,173.2,204.1,171.3,204.8 M171.3,215.3c-1.9,0.4-3.7,1-5.6,1.2
		c-1.9,0.3-3.8,1-5.7,1.3c-1.9,0.3-3.7,1-5.6,1.2c-1.8,0.3-3.5,0.9-5.3,1.2c-2.3,0.3-4.4,1.1-6.7,1.4c-2,0.4-4,1-6,1.3
		c-3,0.8-6,1.2-9,2.1c-2.1,0.5-4.7,0.5-6.1,2.4c-0.8,0.9-0.7,2.2-0.6,3.3c0.6,1.9,2.8,3.3,4.8,2.8c1.2-0.3,2.4-0.6,3.6-0.8
		c2-0.3,3.9-1,5.9-1.3c2-0.3,3.9-1,5.8-1.3c1.7-0.3,3.4-0.9,5.1-1.2c2.1-0.3,4.1-1,6.1-1.3c1.6-0.3,3.2-0.8,4.8-1.1
		c2.4-0.3,4.7-1.2,7.1-1.5c3.5-0.9,7.1-1.5,10.6-2.5c0.6-0.3,1-0.8,1.5-1.3c1-1.7,0.8-4.1-0.8-5.3
		C174.2,215,172.6,215.2,171.3,215.3 M170.2,226.5c-2.2,0.3-4.2,1.1-6.4,1.4c-1.9,0.3-3.7,1-5.6,1.2c-1.7,0.3-3.3,0.8-5,1.1
		c-2.1,0.3-4.1,1-6.2,1.3c-1.5,0.3-2.9,0.7-4.4,1c-1.6,0.3-3.3,0.5-4.8,1.2c11.5,0,23,0,34.5,0c1.8,0.1,3.7-1,4.2-2.8
		c0.4-1,0.2-2.2-0.3-3.2c-0.6-1-1.7-1.7-2.8-1.9C172.3,225.9,171.3,226.3,170.2,226.5 M134.4,240.5c-0.9,0.5-1.8,1.3-1.7,2.4
		c-0.1,0.9,0.4,1.7,1.1,2.2c4.3,3.1,9.6,4.8,14.8,4.9c5-0.1,10.1-1.5,14.2-4.4c0.8-0.5,1.7-1.1,1.7-2.1c0.5-2-1.9-3.9-3.7-2.9
		c-2.5,1.7-5.2,3.2-8.3,3.6c-5.4,1.2-11.2-0.2-15.7-3.4C136.2,240.3,135.2,240.2,134.4,240.5 M157.8,78.4c0.8-1.2,1.4-2.6,2.3-3.8
		c-0.1,1.4-0.2,2.8-0.7,4.1c-0.3,2.6-0.8,5.2-1,7.8c0,0.8-0.5,1.5-0.5,2.2c0,2.3-0.7,4.6-1.1,6.8c-0.2,1.8-0.6,3.5-0.8,5.2
		c-0.1,1.2-0.6,2.2-0.7,3.4c-0.2,2.1-0.6,4.1-0.9,6.1c4.8,0,9.5,0,14.3,0c-0.9,2-2.3,3.7-3.3,5.6c-3.4,5.2-6.6,10.6-9.9,15.9
		c-4.7,7.7-9.6,15.3-14.2,23c-0.1-1.7,0.7-3.2,0.6-4.9c0.7-3.8,1.4-7.6,1.9-11.4c0.5-1.4,0.6-2.9,0.8-4.4c0.5-3.2,1.2-6.5,1.6-9.7
		c0.6-1.8,0.7-3.6,0.9-5.5c-4.3,0-8.7,0-13,0c-0.4,0-0.9,0.1-1.3-0.1c0.3-0.9,1.2-1.6,1.5-2.6c2.8-4.4,5.4-8.9,8.2-13.3
		C147.6,94.9,152.7,86.6,157.8,78.4L157.8,78.4z"/>
</g>
</svg>
