<?xml version="1.0" encoding="utf-8"?>
<!-- Generator: Adobe Illustrator 21.1.0, SVG Export Plug-In . SVG Version: 6.00 Build 0)  -->
<svg version="1.1" id="Layer_1" xmlns="http://www.w3.org/2000/svg" xmlns:xlink="http://www.w3.org/1999/xlink" x="0px" y="0px"
	 viewBox="0 0 825 825" style="enable-background:new 0 0 825 825;" xml:space="preserve">
<style type="text/css">
	.st0{fill:#FFFFFF;}
</style>
<path d="M398.8,91.2c38-2.3,76.6,0.9,113.2,11.9c37.4,11,72.2,30,102.9,54c61.6,48.3,103.8,120.3,116.8,197.4
	c6.4,37.8,6.2,76.6,0.5,114.5c-6.2,41.4-21,81.5-43.5,116.7c-21,33-48.1,62-78.9,86.1c-28.8,22.5-61.5,40-96.5,50.8
	c-20.6,6.4-41.9,10.5-63.4,12.6c-44.5,3.7-89.8,0.8-132.9-11.2c-36.6-10-71.2-26.9-101.6-49.6c-29-21.8-54.4-48.3-74.8-78.2
	c-24-35.3-40.2-75.9-47.3-118c-5.5-31.4-6.1-63.5-3.6-95.2c2.5-31,9-61.8,20.4-90.7c22.1-56.9,62.8-105.5,112.2-141
	c33.4-24,71.6-41.1,111.6-50.6C355.3,95.5,377,92.6,398.8,91.2z"/>
<path class="st0" d="M255.1,207.2c30.9-25.7,69.3-42.9,109.6-46.2c6.9,8.6,9.9,19.6,11.7,30.3c4.4,28.8,0.8,57.8,1.4,86.7
	c0.7,27.7,2.6,55.4,3.2,83.1c0.5,8.5,0.8,17.1,0.6,25.6c-8.5,14.6-19.7,27.3-30.7,40c-19.9,22.4-41,43.7-62.4,64.7
	c-25.7,25-51.7,49.7-78.2,73.9c-23.7-28.6-40-63.1-46.8-99.6c-4.6-23.5-5.6-47.5-3.9-71.4c3.1-37.2,14.1-73.5,31.2-106.7
	C206.6,257,228.4,229.2,255.1,207.2z"/>
<path class="st0" d="M450.2,161c40.3,1.4,79.7,15.8,112,39.8c32.5,23.8,58.2,56.2,75.4,92.4c17.6,36.6,28.2,77,28.4,117.8
	c0.9,40.9-7.4,82.3-25.9,118.9c-6.2,12.5-13.7,24.2-21.9,35.5c-31.2-25.2-61.6-51.4-90.4-79.2c-27.2-26.5-53.6-54.3-75.3-85.6
	c-3.1-4.6-6.4-9.1-9-14c-1.2-37.4-0.1-74.8,2.4-112.1C447.9,236.6,450.1,198.8,450.2,161z"/>
<path class="st0" d="M261.7,620.1c40.4-45.1,79.7-91.2,119.8-136.6c5.2,28.3,4.6,57.3,2.7,85.9c-2.3,31.8-4.5,63.5-6.4,95.3
	c-21.9-1.7-43.1-8-63.2-16.6C296.3,640.3,278.7,630.7,261.7,620.1z"/>
<path class="st0" d="M440.1,486.8c47.6,37.7,89.8,82.5,123.3,133.2c-34.4,21.7-72.2,40.2-113.1,44.9c-3.4-12.5-4.5-25.4-5.7-38.3
	c-1.2-16.2-1.8-32.4-1.6-48.6c-0.1-8,0.3-16-0.4-24c0.1-15-0.2-30.1-0.6-45.1C441.3,501.5,441.4,494.1,440.1,486.8z"/>
</svg>
