<?xml version="1.0" encoding="utf-8"?>
<!-- Generator: Adobe Illustrator 21.1.0, SVG Export Plug-In . SVG Version: 6.00 Build 0)  -->
<svg version="1.1" id="Layer_1" xmlns="http://www.w3.org/2000/svg" xmlns:xlink="http://www.w3.org/1999/xlink" x="0px" y="0px"
	 viewBox="0 0 825 825" style="enable-background:new 0 0 825 825;" xml:space="preserve">
<path d="M430.4,109.3c11.7-4.2,24.3-5,36.6-4.9c13.2-0.1,26.8,0.4,39.3,5c-3.2,27.1-4.4,54.3-5.8,81.5c-1.1,31.2-2.2,62.3-3.7,93.5
	c-1,18.7-1.7,37.4-3.5,56c56.7,1.1,113.3-3.6,169.9-5.9c21.9-1.4,43.9-1.7,65.8-2.6c-1.1,22.5,4.1,45,0,67.3
	c-97.9,7.9-196.4,7.9-294.4,0c0.2-12.1,0.5-24.2,0.4-36.2c0.6-11.7,0.6-23.4,0-35.1c0.2-36-1-71.9-2.1-107.9
	C431.9,183.1,430.6,146.2,430.4,109.3z"/>
<path d="M316.9,105.4c23.8,0,47.5,0,71.3,0c0,98,0,195.9,0,293.9c-58.2,6.4-116.8,4.9-175.2,4.7c-10.9-0.9-21.9,0-32.9-0.6
	c-28.7,0.1-57.3-0.5-86,0c-4-9.9-4.6-20.7-5.1-31.3c0-13.5,0.3-27.3,5.1-40c59.6,3.2,119.3,3.8,178.8,7.8c17.5,1.3,35,2.5,52.4,4.9
	c0.7-17.9,1.7-35.8,0.7-53.8c-0.2-28.1-2.1-56.2-3.7-84.3C320.3,172.9,318.1,139.2,316.9,105.4z"/>
<path d="M213.1,445.6c12.6-0.6,25.3,0.3,37.9-0.6c45.8,0,91.6,0,137.2,4.7c0,98.1,0,196.3,0,294.4c-14.7-1.6-29.4-2.6-44.1-3.8
	c-9.1-0.3-18.2-1.8-27.4-0.9c1.9-20.5,2.3-41.1,3.6-61.7c2.6-56.4,5.3-112.8,9.2-169.2c-30.8-1.2-61.7,0.3-92.5,1.6
	c-47.6,2.4-95.2,5.5-142.9,7c-5.2-14.8-5.9-30.8-5.1-46.4c1-8.9,2-19,9.1-25.2C136.4,446.2,174.8,445.6,213.1,445.6z"/>
<path d="M434.6,445.6c98.1,0,196.2,0,294.4,0c1.2,23.9,0.6,47.7,0,71.6c-77.2-4.3-154.3-8.6-231.5-12.9c-0.6,9.5-0.2,19.1-0.9,28.6
	c0.8,17.3,0.2,34.7,1.3,52c0.8,27,2.3,53.9,3.7,80.9c1.7,24.5,2.6,49.1,4.8,73.6c-9.2-0.9-18.4,0.6-27.6,0.9
	c-14.7,1.2-29.5,2.3-44.2,3.8C434.6,644.7,434.6,545.1,434.6,445.6z"/>
</svg>
