<?xml version="1.0" encoding="utf-8"?>
<!-- Generator: Adobe Illustrator 21.1.0, SVG Export Plug-In . SVG Version: 6.00 Build 0)  -->
<svg version="1.1" id="Layer_1" xmlns="http://www.w3.org/2000/svg" xmlns:xlink="http://www.w3.org/1999/xlink" x="0px" y="0px"
	 viewBox="0 0 825 825" style="enable-background:new 0 0 825 825;" xml:space="preserve">
<path d="M388.1,97.6c22.8-2.5,46,1.1,67.6,8.5c22.1,7.6,43.4,18.6,60.2,35c14.1,13.7,23.7,31.6,28.7,50.4
	c9.1,35.1,4.4,73.8-13.9,105.2c-9,15.5-21.8,28.9-37.4,37.8c-18.1,10.4-39.7,14.2-60.4,11.9c-16.4-1.7-31.8-8.9-45.2-18.3
	c-9.1-6.6-17.4-15-21.5-25.7c-5.7-14.6-9.4-30.7-6.6-46.4c2-11.9,8-23.1,16.7-31.6c6.9-6.7,16.9-9.6,26.3-8.5
	c12.7,1.4,24,8.4,33.3,16.8c1.5,5-0.2,10.8-4,14.3c-4.6,5-12.3,6-16,12c-3.2,4.9-4.4,13,0.9,16.9c7.7,7.6,17.9,13.6,29,13.6
	c10.8-0.3,20.8-5.9,28.6-13.1c10.1-9.4,15.5-23,16.4-36.5c1.8-15.6-1.9-32-11.2-44.8c-8.7-12.1-21.2-20.9-34.4-27.4
	c-16.9-8.6-36.4-12.5-55.2-9.6c-12,1.7-23.8,5.4-34.2,11.6c-19.6,11.6-34.7,29.9-44.6,50.4c-10,20.7-12.8,44.2-10.2,66.9
	c2.4,25.2,12.7,49.5,29.2,68.6c14.8,17.2,33.6,30.9,54.6,39.4c20.6,8.3,43,11.5,65.1,10.9c18.7,0.3,36.7-5.4,54.6-10.3
	c16.6-4.9,33.1-10.1,50.4-12c32.9-2.3,66.7,3.2,96.4,17.9c18.1,8.9,34.6,21,49.1,34.9c23,22,39.8,50.6,46.2,81.8
	c5,24.9,6.4,50.9,1.8,76c-5,28.1-18.6,54.4-38,75.2c-11.2,12.2-24.5,22.4-39.4,29.6c-16.5,8.2-34.8,12.5-53.1,14
	c-11.3,0.7-22.8,1-34-1c-19.7-3.1-38.3-11.4-54.8-22.3c-15.4-10.2-29.8-23-38.5-39.5c-7.6-14.9-11.4-31.6-11-48.3
	c0.5-21.3,7.5-42.1,17.7-60.6c7.8-13.9,19.3-26.3,34-33c16.7-7.7,36-7.6,53.7-3.7c13.1,3.3,23.8,12.8,31.7,23.5
	c7.1,9.8,11.4,21.7,12.4,33.7c0.9,10.6-3.6,21.7-12.5,27.7c-6.1,4.1-13.4,6.5-20.7,6.7c-4.3,0.2-9.9-1.4-11.2-6.1
	c-1.5-7.7,1.2-15.5,0.1-23.3c-0.4-4.8-5.5-7.6-9.9-7.6c-8.3,0.9-16.7,3.1-23.4,8.2c-6.5,4.9-10.8,12.5-12.2,20.5
	c-1.3,9.2,0.5,18.6,4.2,27.1c5.4,12.8,15.5,23.3,27,30.9c14.4,9.2,32.8,10.6,49,6.3c17.5-4.8,32.5-16,44.8-29
	c12.1-12.8,21.9-28.4,24.7-46c2.6-18,1.6-36.7-3.7-54.2c-5.7-18.9-17.5-35.8-32.9-48.1c-14.2-11.5-31.3-18.8-49-22.9
	c-23.8-5.7-48.9-5.8-72.7-0.2c-18.6,4.4-36.7,11.4-52.5,22.3c-11.8,8.2-22.3,18.6-30.3,30.7c-11.8,18.7-16.7,40.5-22.4,61.5
	c-5.6,19.5-10.6,39.3-19.3,57.7c-13.5,28.9-35.2,53.5-61.3,71.8c-19.2,13.7-41,24-64.1,29.1c-17.7,4.1-36,4.6-54.1,4
	c-21.9-1.2-43.6-6.3-63.4-15.7c-28.1-13.4-53-34.5-68.3-61.8C82.6,629.3,77,603.5,76.6,578c-0.5-21.9,3.3-44,12.3-64
	c9.6-21.2,24.1-40.3,42.8-54.2c19.8-14.7,44.7-21.8,69.2-21.4c26.7-0.3,52.9,9.4,74,25.6c11.3,8.6,21.1,19.9,25.6,33.6
	c7.1,19.8,8.1,41.9,1.9,62c-4.3,14.5-11.6,28.8-24,38c-11.8,9-27.1,11.6-41.5,11.5c-12.8-0.2-26.7-4.8-34.2-15.8
	c-8-11.9-7.8-27.2-5.2-40.7c3.6-3.5,9.4-4.2,14.2-3.4c7.8,1.2,13.4,7.7,21.2,9.1c4.2,1.2,8.6-0.2,12.4-2.1
	c-0.1-12.9-1.3-26.3-7.7-37.7c-5.7-10.5-16.7-18.3-28.7-19.2c-12.1-1.1-24,3.6-34.1,9.9c-17.7,11.2-29.8,30.1-34.6,50.2
	c-4,16.6-1.8,34.3,4.4,50.1c5.6,14.4,15.5,26.9,27.7,36.3c15.6,12,34.2,20.2,53.7,23c20.2,2.7,41.2,0.5,60.1-7.3
	c17.6-7.2,32.9-19.5,44.9-34.2c11.6-14.2,21-30.3,27.4-47.5c11.7-30.8,11-65.9-0.7-96.6c-7.2-13.6-16.9-25.6-26.1-37.8
	c-13.9-18-28.8-35.2-43-53c-16.7-21.5-32.6-44.3-41.9-70.1c-4.1-11.1-5.6-22.9-6.5-34.6c-1.6-20.8-0.3-42,4.7-62.3
	c8.6-34.8,28.2-66.6,54.8-90.4C324,113,355.7,100.2,388.1,97.6z"/>
</svg>
