<?xml version="1.0" encoding="utf-8"?>
<!-- Generator: Adobe Illustrator 21.1.0, SVG Export Plug-In . SVG Version: 6.00 Build 0)  -->
<svg version="1.1" id="Layer_1" xmlns="http://www.w3.org/2000/svg" xmlns:xlink="http://www.w3.org/1999/xlink" x="0px" y="0px"
	 viewBox="0 0 825 825" style="enable-background:new 0 0 825 825;" xml:space="preserve">
<path d="M269.1,158.2c15.9-23.3,44.8-35.8,72.6-35c17.1,0.5,34.5,7.2,46.3,19.8c8,8.1,13.2,18.7,16.3,29.6c4-14.7,13.4-27.9,26.4-36
	c16.4-10.6,36.8-14.7,56.1-12.1c15.3,1.6,30.4,7.3,42.3,17.2c13,10.4,21.9,25.8,24.1,42.3c2.5,16.4-0.1,33.4-6.2,48.8
	c-7,18.2-18.2,34.5-30.8,49.3c-12.6,15-27.2,28.2-41.7,41.3c-12.5,11.6-25.2,22.9-37.8,34.3c-11.7,12.3-23,25.9-28,42.3
	c-6-15.6-17.9-27.9-29.7-39.5C360.6,342.6,339.8,327,321,309c-19-17.6-36.6-37.3-48.9-60.3c-9.6-17.9-15.3-38.4-13.6-58.7
	C259,178.7,262.8,167.6,269.1,158.2z"/>
<path d="M611.8,276.7c16.3-5.5,34.6-7.7,51-1.3c14.3,5.5,25.3,17,32.9,30c9.4,15.6,12.6,34.6,9.5,52.5c-2.8,16.3-8.8,32.7-20.6,44.7
	c-7.9,8.4-18.8,13.3-29.9,15.6c15,4.4,28.1,14.5,36.2,27.9c17.5,28.4,15.9,67.2-3.4,94.3c-9.5,13.3-24,22.9-40,26.2
	c-19,4-39.1,1.1-57-6.3c-18.6-7.5-35.1-19.3-50.1-32.5c-27.1-24.1-48.2-53.9-73.9-79.4c-11.6-10.8-24.2-21.4-39.7-25.8
	c13.9-11.7,26.6-24.7,39.7-37.2c26.6-26.1,53.9-51.8,83.6-74.3C569.1,297.2,589.3,284.3,611.8,276.7z"/>
<path d="M129.3,291.3c10.4-10,24.1-16.7,38.6-17.6c15.7-1.3,31.2,2.8,45.6,8.8c27.4,11.7,51.5,29.8,74.3,48.8
	c32.7,27.4,62.1,58.4,93.9,86.8c-11.4,7.6-20.4,18-30.2,27.4c-14.7,15-28.9,30.5-43.1,46c-10.6,11.4-20.6,23.4-31.9,34
	C261.6,539.5,244.9,552,226,560c-16.3,6.9-34.3,10.3-52,8.4c-16-1.2-31.3-8.4-42.5-19.8c-15.9-15.3-24.7-37.5-24.1-59.5
	c-0.1-17.2,7.3-34.1,19.1-46.5c8.9-9.1,20.2-15.5,32.1-20c-17.4-5.7-32.3-18.1-41.2-34c-8.9-15.7-14.3-34-12.1-52.1
	C107.4,319.1,117,303.4,129.3,291.3z"/>
<path d="M374.5,478.5c10.1-10.9,20.6-21.5,29.9-33.1c3.7,6.2,8.9,11.2,13.7,16.5c26.1,26.9,53.9,52.1,81.4,77.6
	c15.9,15.4,30.5,32.5,40.9,52.2c9.3,17.5,14.8,37.3,13.8,57.2c-0.4,14.1-5.3,28-13.9,39.2c-8.8,11.2-20.1,20.6-33.4,26.1
	c-14.6,6.1-31.1,8.3-46.6,4.8c-15.8-3.8-30.3-13.3-39.7-26.6c-5.2-7.3-9.1-15.6-11.8-24.1c-7.1,17-19.1,32.4-35.3,41.5
	c-29.9,17.4-70.9,11.3-95.1-13c-10.7-10.2-18-24-19.7-38.7c-2.5-16.7,1.4-33.7,7.9-49.1c7.6-17.7,18.7-33.7,30.9-48.4
	c10.3-12.6,22-23.9,33.1-35.8C345.3,509.4,360,494,374.5,478.5z"/>
</svg>
