<?xml version="1.0" encoding="utf-8"?>
<!-- Generator: Adobe Illustrator 21.1.0, SVG Export Plug-In . SVG Version: 6.00 Build 0)  -->
<svg version="1.1" id="Layer_1" xmlns="http://www.w3.org/2000/svg" xmlns:xlink="http://www.w3.org/1999/xlink" x="0px" y="0px"
	 viewBox="0 0 825 825" style="enable-background:new 0 0 825 825;" xml:space="preserve">
<path d="M353.8,136.8c19.8,0,39.5,0,59.3,0c-1.5,29.2-6.4,58.2-7.8,87.4c10.2,1.3,20.5,0.3,30.7-0.5c19.8-1.8,39.5-4.4,59.1-7.2
	c0,22.2,0,44.5,0,66.7c-28.9-4.4-58.2-6.5-87.2-10.2c-1.3,12.9-1.6,25.9-1.8,38.9c-0.9,62,2.2,124,5.4,185.9
	c0.7,7.9,0.7,15.9,1.5,23.8c17-2.2,34.1-4.7,51.2-4.9c6.8-47.9,1.6-96.6-7.8-143.8c22.2,0,44.5,0,66.7,0c-6.4,30.9-7.8,62.5-8.9,94
	c-1.2,70.6,3.2,141.1,8.9,211.4c-22.2,0-44.4,0-66.7,0c1.8-23.1,3.3-46.2,5.1-69.2c0.7-12,2-23.9,2.3-35.9c-24.4-8.6-50.5-9-76-9.7
	c-27.6,0.5-55.3,1.8-82.7,4.7c-1.9,13.8-0.3,27.8,0.1,41.7c1.3,22,2.9,44,4.9,66c-22.8,5.4-46.7,5.4-69.5,0
	c8.3-70.7,13.7-141.8,11.9-213c-1.1-30.1-3.4-60.3-9.1-89.9c22.2-0.5,44.5-0.5,66.7,0c-5.7,20.8-7.4,42.5-8.9,64
	c-1.4,25.7-1.5,51.5-1.1,77.2c16.6,5.4,34.6,2.2,51.2,7.5c3.2-25.9,4.6-51.9,5.9-78c1.8-37.9,2.7-75.8,3.6-113.8
	c0-19,1-37.9,0.8-56.9c-30.1,1.7-60.2,5.2-90,10.1c0-22.2,0-44.5,0-66.7c28.8,5.2,58,8.1,87.2,10.2c3.4-17.2,0.8-34.9-1.1-52.1
	C356.2,162.1,354.5,149.5,353.8,136.8z"/>
<path d="M609.3,373.2c12.1-6.8,26-9.7,39.8-10.1c11.4,0.2,23,1.1,33.8,5c16.7,6,30.3,18.6,39.4,33.6c8,13.1,12.1,28.2,14,43.3
	c-18.1,0-36.2,0.1-54.2-0.1c-8.3-9.6-9-24.4-20-31.9c-7.2-3.6-15.6-4.6-23.5-3.6c-10.7,1.6-19,9.9-24,19.1c-5.1,9-6.2,20.2-3.3,30.1
	c3.5,9.7,12.2,16.4,20.8,21.2c10,5.6,21,9,31.6,13.3c9.7,3.8,19.4,7.8,28.9,12.2c8.1,3.9,16.3,7.8,23.2,13.6
	c13.5,10.8,23.8,25.5,28.9,42c6.3,19.3,5.9,40.6-0.3,59.9c-5.3,17.5-15.1,33.8-29.1,45.7c-15.9,14.2-37.1,22.4-58.5,22.1
	c-16,0.5-32.2-2.6-46.5-10.1c-16.7-8.6-30.1-22.8-39-39.2c-7.8-14.1-12.3-29.8-14.9-45.7c12.1-3.9,25-2.7,37.4-2.7
	c8.1,0.7,16.2,0.3,24.2,0.4c0,10.5,2.2,21.7,9.5,29.7c7.4,8.5,18.9,12.9,30.1,12.5c9.7-0.7,19.5-3.3,27.5-9
	c11.3-7.9,18.6-21.7,17.3-35.6c-1.2-12.4-6.6-24.5-15.8-33c-10.5-10.6-24.3-16.9-37.7-23.1c-19.6-9.3-40.3-17.2-57.5-30.7
	c-11.8-9.3-21.1-22.3-24.3-37.1c-3.5-17.2-2.6-35.6,4.5-51.7C579.7,396.4,593.1,382.2,609.3,373.2z"/>
<path d="M107.5,373c22.3-2.2,44.6-0.8,66.9,0.1c-6.1,29.9-6.9,60.6-7.7,91.1c-0.4,13.6-0.1,27.3-0.2,40.9c0.8,15.5,0.3,31,1.2,46.4
	c1.3,42.3,3.8,84.6,6.6,126.9c-22.3,0-44.5,0-66.8,0c3.2-48.5,6.9-97,9.9-145.5c1.4-31,1.4-62.1-0.7-93
	C115.3,417.4,112.4,395,107.5,373z"/>
</svg>
