<?xml version="1.0" encoding="utf-8"?>
<!-- Generator: Adobe Illustrator 21.1.0, SVG Export Plug-In . SVG Version: 6.00 Build 0)  -->
<svg version="1.1" id="Layer_1" xmlns="http://www.w3.org/2000/svg" xmlns:xlink="http://www.w3.org/1999/xlink" x="0px" y="0px"
	 viewBox="0 0 825 825" style="enable-background:new 0 0 825 825;" xml:space="preserve">
<path d="M361.6,139.6c14.4-14.5,29.3-28.6,42.2-44.5c22.9,11.5,42,29.1,59.9,47.2c19.9,21.1,39.4,42.6,61.1,61.9
	c2.8,2.5,5.8,4.9,8.8,7.2c-30.1,21.5-55,49.9-73.5,81.8c-21.5,36.9-34.9,78-43.1,119.7c41.5-1.5,82.5-13.2,118.8-33.3
	c33-17.7,62.6-42.6,82.8-74.4c31,20.7,56.1,48.6,81.8,75.3c14.2,14.1,28.1,28.6,43.5,41.4c-37.3,43.1-78.7,82.4-120.8,120.8
	c-24.5-29.4-53.5-55.3-87-73.9c-35-19.7-74.6-31-114.6-33.7c5.4,42.6,17,85.1,39.1,122.3c17.9,30.3,43.2,56.2,73.1,74.8
	C495,674.1,454.7,714.5,412.5,753c-14.3-11-27.2-23.8-40.3-36.2c-27.2-26.3-53.8-53.3-80.4-80.1c28.4-23.3,53.3-51.2,72.1-82.8
	c21.7-36.1,34.8-77,40.1-118.7c-41.8,1.8-83,13.9-119.4,34.6c-33.3,18.4-63,44.5-82.2,77.5c-41.9-38.7-82.4-79-120.8-121.3
	c16-20.3,34.6-38.4,52.4-57.1c21.3-21.2,42.4-42.6,63.9-63.7c30.9,35.9,68.8,66.3,112,86.2c28.3,13.2,58.7,21.7,89.7,26
	c-1.2-42.5-13.3-84.6-34.3-121.6c-17.9-31.8-42.6-60.2-73.4-80C310.8,186.8,336.8,163.5,361.6,139.6z"/>
</svg>
