<?xml version="1.0" encoding="utf-8"?>
<!-- Generator: Adobe Illustrator 21.1.0, SVG Export Plug-In . SVG Version: 6.00 Build 0)  -->
<svg version="1.1" id="Layer_1" xmlns="http://www.w3.org/2000/svg" xmlns:xlink="http://www.w3.org/1999/xlink" x="0px" y="0px"
	 viewBox="0 0 825 825" style="enable-background:new 0 0 825 825;" xml:space="preserve">
<style type="text/css">
	.st0{fill:#FFFFFF;}
</style>
<path d="M353,109.2c19.3-4.3,39.1-6.9,59-6.6c19.6-0.3,39,2.4,58.2,6.5c0.3,7.5-0.7,14.9-1.4,22.3c-1.9,17.7-4.5,35.3-6.8,52.9
	c37.1,14.3,73.2,32.3,103.9,57.9c27.7,23.1,49.3,53.6,61.5,87.6c4,11.1,7.2,22.4,9.4,34c4.6,1.5,9.5,1.3,14.3,1.2
	c19.8-0.8,39-7.4,58.9-7.1c3.5,0,7,0.7,10.4,1.6c0,39.1,0,78.1,0,117.1c-25.4,0.7-49.9-8.1-75.3-8.3
	c-15.2,38.3-35.6,74.9-63.3,105.6c-31.7,35.5-73.8,61.7-119.9,73.8c4.9,26.2,6.6,52.8,8.3,79.3c-39.1,0-78.1,0-117.2,0
	c1.4-26.5,2.2-53.3,8.4-79.2c-37.8-11.8-74.1-30-104-56.3c-28.7-24.9-50.7-57.1-64.9-92.3c-4.2-10.1-7.6-20.6-10.7-31
	c-12.3-0.7-24.6,0.8-36.7,3.3c-13.9,3-28.1,5.5-42.4,5.1c0.3-30.2-1.5-60.4-1.4-90.7c0.4-8.8,0.1-17.6,1.3-26.3
	c7.6-2.1,15.6-2,23.4-1.7c17.5,1.4,34.7,5.3,51.6,10c11.5-29.5,25.5-58.2,44-84.1c19.6-27.7,44.5-52,73.9-69.3
	c20.4-12.1,42.8-20.5,65.9-25.8c-3.4-23-6.8-45.9-8.2-69.1C352.9,116.2,353,112.7,353,109.2z"/>
<path class="st0" d="M457.3,255.6c18.7,3.8,36.7,10.9,52.5,21.5c15.6,10.4,28.8,24.1,39.3,39.6c10.8,15.7,18.8,33.2,25,51.1
	c-16.5,2.9-33.3,4.3-50,5.7c-22,1.3-44.1,2.5-66.2,2.4c-1.5-0.1-3,0.3-4.5,0.6c-1.1-28.2,0.9-56.4,2-84.6
	C456,279.9,456.7,267.8,457.3,255.6z"/>
<path class="st0" d="M299.5,287.6c16.9-14.4,36.9-25,57.9-31.9c7.6,13.4,9.7,29,11.1,44.1c1.6,25.6,0.4,51.2,1.1,76.8
	c-4.1-1.1-8.5-0.4-12.7-0.6c-36.1-0.8-72.4-2.3-108.1-8.1C258,337.2,274.9,308.4,299.5,287.6z"/>
<path class="st0" d="M276,460c15.3-1.4,30.7-0.7,46-0.4c15.9,0.8,31.9,0.5,47.8,0.5c2.9,40.4-6.1,80.4-4.1,120.8
	c-35-10.7-68.2-30.7-90.1-60.6c-12.4-16.8-21.3-36.1-26.8-56.2C257.7,461.6,266.8,460.5,276,460z"/>
<path class="st0" d="M453.3,460.1c25,0.4,49.9,1.5,74.9,2.2c15.3,0.6,30.6,0.9,45.9,1.8c-8.9,34.1-28.7,65.7-57,86.9
	c-17.8,13.6-38.4,23.2-59.6,30C456,540.7,455.1,500.4,453.3,460.1z"/>
</svg>
