<?xml version="1.0" encoding="utf-8"?>
<!-- Generator: Adobe Illustrator 21.1.0, SVG Export Plug-In . SVG Version: 6.00 Build 0)  -->
<svg version="1.1" id="Layer_1" xmlns="http://www.w3.org/2000/svg" xmlns:xlink="http://www.w3.org/1999/xlink" x="0px" y="0px"
	 viewBox="0 0 825 825" style="enable-background:new 0 0 825 825;" xml:space="preserve">
<path d="M380.3,76.3c14.4-7.1,31-8.8,46.7-6.7c18.1,2.4,34.5,15.2,40.9,32.4c6.4,17.1,3,35.9-2.7,52.7c14.1-3.4,29.4-4.8,43.1,0.8
	c14.7,5.9,25.2,19.6,29.4,34.6c4.1,15.1,2.3,31.2-2.4,46c-4.3,13.7-13.5,26.2-26.6,32.7c-10.9,5.8-24,6.6-35.8,3.3
	c-12.3-3.2-23.5-9.8-33.8-17.2c-6.6,15.1-8.9,31.7-9.8,48.1c-0.4,19.3,0.2,39,6.1,57.5c2.5,7.4,6.1,14.6,11.9,20
	c1.9,1,4.1,1.1,6.2,1.6c35.3,6.8,72,6.5,107.1-1.2c-8.9-10.1-16.4-22-18.4-35.5c-2.4-15.4,3.3-31.2,13-43.2
	c10.9-13.2,27.1-21,43.6-24.6c13.9-3.1,29.2-0.9,40.8,7.7c12,8.2,18.5,22.2,20.6,36.3c1.6,9.5,1.2,19.2,0.8,28.8
	c15.1-5.1,31.5-8.8,47.2-4.9c15.7,3.7,28.6,15.8,34.6,30.5c5.6,13.5,5.5,28.7,3.5,43c-2.3,14.9-9.1,29.7-21.3,39.1
	c-9.4,7.6-21.9,11.3-33.8,9.4c-10.9-1.4-20.8-6.5-30.2-11.9c4.2,15.1,4.9,32-2.2,46.5c-7.1,15.9-22.2,27.1-38.9,31.3
	c-23.5,5.9-50.7,0.2-67.9-17.5c-4.7-16.6-5.8-34.1-3.9-51.2c1.7-13.1,5.6-27.1,16.3-35.8c-20.7-5.5-42.2-9.4-63.7-8.4
	c-17.9,0.9-36.2,5.8-50.2,17.4c-13.5,10.7-21.5,27.1-23.8,44c-3.1,23.2,1.3,46.7,7.7,69c10.6-8.1,23.2-14.6,36.8-15.2
	c20-1.2,40,8,53.3,22.8c8.4,9.6,14.4,21.3,17.5,33.7c3.2,13.1,0.9,27.8-7.5,38.6c-9.4,12.8-25,19.2-40.2,22.1
	c-8.1,1.6-16.5,2.1-24.7,2.4c4.4,13.6,7.1,28.2,3.8,42.4c-4.1,18.7-19.3,34-37.3,39.9c-14.4,4.7-30.1,5-44.7,1.3
	c-11.9-3.1-22.8-10.2-29.9-20.2c-7.1-9.8-9.8-22.5-8-34.4c0.9-8.5,3.7-16.7,6.9-24.6c-16.1,0.4-32.8-1.3-47.3-8.7
	c-13.7-6.9-24.3-19.7-28.8-34.3c-4.5-15.2-1.4-31.6,5.1-45.8c5.5-12.3,15.1-23,27.5-28.5c12.2-5.7,26.7-6.4,39.4-1.8
	c11.5,3.8,21.4,11.2,30.5,19c7.8-18.3,10.9-38.4,10.7-58.3c-0.5-20.9-4.3-41.6-10.3-61.5c-0.5-2.5-3-3.6-4.8-5
	c-9.5-5.9-20.7-7.8-31.6-9c-10.3-0.7-20.6-1.3-30.9-0.5c-18.3,0.2-36.6,0.4-54.9,0.1c1.8,13.6,7.2,26.3,11.6,39.1
	c4.2,12.4,4.7,26.2,0,38.5c-4,11.8-13.2,21.4-24.4,26.8c-17,8.6-37.5,9-55.3,2.5c-13.3-4.7-24.9-14.4-30.9-27.2
	c-6.9-14-5.7-30.6-1.5-45.3c-12.6,5.5-26.5,9.2-40.4,7.3c-19.1-2.7-35.5-17.1-42.3-34.8c-5.2-13.8-6.2-29-3.7-43.4
	c2.2-12.3,8.7-23.9,18.6-31.7c7.9-6.5,17.9-10.1,28.1-10.6c13.8-0.7,27.2,3.5,39.8,8.7c-3.5-15.3-5.4-31.9,0.1-46.9
	c5.9-16.2,21.7-27.5,38.6-29.8c13.6-1.8,27.5,1.1,40.2,5.9c12.8,4.9,24.4,13.7,31.1,25.9c7.1,11.9,8.4,26.8,4.2,39.9
	c-3.6,11.6-10.5,21.8-18.2,31c22.8,3.8,45.9,5.8,69.1,5.6c16.1-0.6,32.4-1.7,48.1-5.7c2.8-2.5,4.6-6.1,6.5-9.3
	c7.9-15.3,10.1-32.9,11-49.9c0.5-22.6-1.9-45.4-8.8-67c-10,1.2-16.3,9.9-24.8,14.3c-7.6,4.2-16.6,4.4-25.1,4.2
	c-13.8-0.5-27.5-6.1-37.1-16.1c-10-9.7-16.3-23.1-17.4-37.1c-1.9-17.7,2.7-37.1,16.2-49.4c11.9-11.4,29.2-16.1,45.4-14.2
	c5.5,0.3,10.9,1.6,16.3,2.6c-5.8-12.2-10.4-25.4-9.6-39.1C351.6,101.4,364,84.7,380.3,76.3z"/>
</svg>
