<?xml version="1.0" encoding="utf-8"?>
<!-- Generator: Adobe Illustrator 21.1.0, SVG Export Plug-In . SVG Version: 6.00 Build 0)  -->
<svg version="1.1" id="Layer_1" xmlns="http://www.w3.org/2000/svg" xmlns:xlink="http://www.w3.org/1999/xlink" x="0px" y="0px"
	 viewBox="0 0 825 825" style="enable-background:new 0 0 825 825;" xml:space="preserve">
<path d="M299.8,91.7c20.8-10.7,44.7-15.7,68-13.1c18.3,1.8,36.1,8.5,50.6,19.8c19.9-13.8,44.5-20.2,68.6-19.6
	c32,0.1,65.2,13.2,84.9,39.2c14.4,18.5,19.7,43,16.5,66c-8.7-17.5-23.1-32.1-40.3-41.4c-9.9-5.3-20.9-8.8-32.2-8.6
	c-11.6-0.1-22.9,3.6-32.9,9.3c-9.3,40.3-12.5,81.6-15.5,122.7c-2.1,34.7-3.8,69.5-4.3,104.2c30.6-5.6,61.9-4.4,92.9-4.6
	c10.6-0.6,21.3,0.2,31.9-0.6c23.7,0,47.6-1.1,70.5-7.6c12.9-3.7,26-9.9,33.7-21.3c8-11.7,8.6-26.8,5.8-40.2
	c-2.2-10.6-9.2-19.5-17.4-26.4c-10.5-8.2-21.2-16.2-31.3-25c15.9-2,32.5-0.4,47.4,5.9c14.1,5.8,26.3,15.7,35.3,27.9
	c28,37.9,29.7,93.5,2.7,132.4c22.1,31.4,25.3,73.8,11.5,109.2c-7.7,20.3-21,39.1-39.5,50.8c-16.8,10.9-37.8,14.6-57.4,10.7
	c15.3-6.1,28.1-17.7,36.5-31.8c7.9-13.1,13.7-28.2,12.9-43.8c-0.7-13.1-7.4-25.4-17-34.2c-71.3-8.8-143.1-12.2-214.8-16.2
	c-3.3,22-3.1,44.3-2.7,66.5c0.9,33.8,5.6,67.3,9.5,100.8c2.1,18.6,3.8,37.2,5.4,55.8c11.1,9,25.4,14.5,39.8,13.3
	c15.9-1.1,30.8-8.3,43.5-17.5c11.3-8.4,20.6-19.8,26.1-32.8c2.1,16.1,0.6,33-6,48c-7.5,17.5-20.9,32.4-37.4,41.9
	c-37.2,22.2-87.3,21-122.9-4c-16.4,11.7-36.2,18.2-56.2,19.6c-11,0.1-22.1,0.5-33-1.8c-21.6-4-42.5-13.5-58.3-28.9
	c-13.4-13-22.8-30.5-24.3-49.2c-1.1-8.5,0.1-17,1.6-25.3c12.2,14.2,24.4,28.5,37.3,42c2.3,2.3,4.5,4.8,7.1,6.7
	c6.8,1,13.8,1.3,20.7,0.5c15.6-1,31.1-8.7,39.6-22.1c11.1-17.4,13.6-38.5,15-58.7c0.2-19,0.2-38.1-0.1-57.1
	c0-31.1-2.2-62.9,5.9-93.4c-67.9-4.6-136.6-2.1-203.3,11.8c-6.5,1.5-13,2.6-19.4,4.5c-7.2,6.9-12.4,16.2-14.3,26.1
	c-2.6,12.6,1.1,25.6,6.8,36.8c8.7,17.8,23.2,32.2,39.9,42.5c-13.8,2.2-28.3,1.1-41.3-4.2C128.3,570,113.2,557,103,541
	c-13.3-20.5-20-45.4-18.5-69.9c0.8-20.3,7.9-40.6,21.1-56.1c-14.9-22.1-21.2-49.5-19.6-75.9c1.4-20.8,7.4-41.5,19.1-58.8
	c11.3-16.7,28.7-29,48.2-34.2c12.4-3.2,25.4-3.3,38.1-1.6c-19,9.2-35.4,24.3-44.5,43.6c-5.7,11.7-8.4,25.2-5.9,38.1
	c1.4,8.4,4.9,16.4,9.2,23.7c24.3,5.6,49.3,7.9,74.1,10.5c49.6,4.7,99.4,7.4,149.1,10.1c-1-7.1-0.9-14.4-1.1-21.5
	c-0.6-8.6-0.6-17.2,0-25.7c0-12.7,0.4-25.4,0.6-38.1c-0.2-12.6,1.1-25.3,0-37.9c0.1-21.4-1.2-43.1-6.4-64
	c-4.1-16.1-11.1-32.9-25.3-42.7c-11.5-8.1-26.4-8.6-39.8-5.8c-2.1,3.8-5.2,6.8-8.1,9.9C280.1,158,266,170.9,252,183.8
	c-3.6-15.3-2.8-31.8,3.4-46.4C263.7,117.2,280.5,101.4,299.8,91.7z"/>
</svg>
