<?xml version="1.0" encoding="utf-8"?>
<!-- Generator: Adobe Illustrator 21.1.0, SVG Export Plug-In . SVG Version: 6.00 Build 0)  -->
<svg version="1.1" id="Layer_1" xmlns="http://www.w3.org/2000/svg" xmlns:xlink="http://www.w3.org/1999/xlink" x="0px" y="0px"
	 viewBox="0 0 825 825" style="enable-background:new 0 0 825 825;" xml:space="preserve">
<style type="text/css">
	.st0{fill:#FFFFFF;}
</style>
<path d="M371.4,80.4c22.2-7.7,46.5-8.2,69.3-3.3c27,5.8,51.2,22.5,67.3,44.8c12.4,16.8,20.1,36.7,23.7,57.2
	c7.3,42.5,0,87.2-20.4,125.2c-15,28-34.2,53.4-50.7,80.4c51.4-0.1,102.7-6.5,153.2-15.9c4.1,17.8,6.3,36.1,4.6,54.3
	c-0.6,9.7-2.4,19.3-4.6,28.8c-54-7.9-108.4-12.4-162.8-16c-7.8,28.9-9.6,59.1-10.3,89c-1,75.1,11.8,149.3,16.4,224.1
	c-29.8,0.1-59.6,0.1-89.4,0c3.6-52.2,7-104.4,9.4-156.7c2-42.8,3.6-85.7,2.4-128.5c-0.4-8.3-1-16.5-2.1-24.7
	c-11.9-1.1-23.7-0.4-35.6,0c-43.8,2.4-87.3,7.4-130.8,12.8c-6.9-27.2-6.9-55.9,0-83.1c49.6,8.6,99.6,15.3,150,15.8
	c-12.5-20.9-25.1-41.7-37-63c-14.7-26.2-25.9-54.5-31-84.2c-2.5-15.1-3.1-30.4-1.5-45.6C294,166.2,303,140.7,319,120
	C332.3,102.3,350.4,87.8,371.4,80.4z"/>
<path class="st0" d="M392.9,143.1c15.7-4.4,33.1-3.6,48,3.2c14.2,6.5,26.1,18.1,32.4,32.4c6.9,15.4,8,32.8,6.4,49.4
	c-2.1,22.6-8.7,44.4-16.1,65.7c-6.2,17.2-13.7,34-23.3,49.6c-8.3,13.3-18.5,25.7-31,35.2c-22.9-25.4-37.6-57-48.7-89.1
	c-7.4-22.2-13.8-45-15-68.5c-0.8-16.4,1.2-33.4,9.2-48C362.9,158.4,376.9,147.4,392.9,143.1z"/>
</svg>
