<?xml version="1.0" encoding="utf-8"?>
<!-- Generator: Adobe Illustrator 21.1.0, SVG Export Plug-In . SVG Version: 6.00 Build 0)  -->
<svg version="1.1" id="Layer_1" xmlns="http://www.w3.org/2000/svg" xmlns:xlink="http://www.w3.org/1999/xlink" x="0px" y="0px"
	 viewBox="0 0 825 825" style="enable-background:new 0 0 825 825;" xml:space="preserve">
<style type="text/css">
	.st0{fill:#FFFFFF;}
</style>
<path d="M239.5,95.2c24.8-3.3,50.4-1.4,74.5,5.4c32.8,9,62.5,27.9,85.5,52.8c2.3,2.5,4.5,5,6.8,7.5c12.6-16,28.1-29.8,45.5-40.3
	c21.8-13.2,46.6-21,71.9-24.2c40.9-5.7,83.1,2.5,119.9,21c18.5,9.2,35.5,21.4,49.9,36.3c24.2,25.2,40.9,57.8,46.5,92.4
	c4.2,24.8,2.9,50.2-1.9,74.8c-6.4,33.4-22.6,64.2-42.5,91.6C671,446.1,640.9,475.3,609,502c-28.3,23.1-58.6,43.6-88.3,65
	c-17,12-33.4,25-48.6,39.2c-11.8,11.3-23.1,23.3-31.6,37.3c-3.3,5.2-5,11.3-7,17.1c-4.4,13.6-7.7,27.5-11.8,41.1
	c-3.7,10.7-8.5,22.4-19,28.1c-4.2-36.6-19.4-71.6-41.9-100.7c-11.3-14.8-24.3-28.3-38.3-40.6c-29.4-26-61.3-49-92.9-72.1
	c-17.5-13-34.7-26.5-51.4-40.6c-14.6-12.7-29.1-25.7-41.7-40.3c-21.1-24.3-37.8-52.6-47.7-83.3c-7.4-22.3-11-45.8-11.7-69.3
	c-0.2-22,2.7-44.1,9.9-64.9c12.5-36.7,37.1-69.2,69.1-90.9C180.9,110.3,209.7,99.3,239.5,95.2z"/>
<path class="st0" d="M191.2,181.2c22.1-13.7,48.7-19.2,74.5-17.5c22.1,1.2,44.2,8.1,61.9,21.6c19.6,14.4,33.7,35.9,39.3,59.6
	c3.6,15.5,4.7,31.7,2.9,47.5c-33.1-1.3-66-5.7-98.6-11.1c-3.9,11.8-4.1,24.3-4.1,36.6c0.7,15.7,1.3,31.5,0.8,47.2
	c35.5-0.2,70.1-9.7,105.5-10.8c2.4,36.9-0.8,74.8-14.6,109.4c9.5,2.8,19.4,3.7,29.3,3.9c11.3,1.1,22.7-0.3,34-0.3
	c11.8,0,23.6-0.6,35.5-0.1c-3.6-22.5-10.8-44.2-13.7-66.7c-1.9-15.4-2-31.3,2.7-46.2c19.3,2.6,38.7,4.8,58,7.5
	c14.6,2.1,29.3,3.8,43.7,7.1c-0.2-10.3,0.9-20.5,1.1-30.7c1-17.8,1.8-35.5,2.9-53.3c-14.3-3-28.9-0.4-43.1,2.2
	c-19.3,4-39,7.2-58.7,5.6c-2.4-17.2-1.2-35.1,3.5-51.9c5.3-18.9,16.4-35.9,30.9-48.9c15.7-14.5,36.1-23.5,57.1-26.6
	c20.2-3.2,41.1-2.1,60.6,4.4c18,6,34.5,16.6,47.6,30.4c13.1,13.7,21.9,31.2,26.1,49.6c7.5,33.3,3.4,69-10.9,100
	c-8.9,19.6-21.2,37.4-35.6,53.4c-12.7,14.2-26.5,27.5-40.7,40.2C560.9,468.9,530,491.5,500,515c-31.9,24.2-63.7,49.2-89.9,79.6
	c-12-12-25.5-22.3-38.5-33.2C328.1,525.7,283.9,491,240,456c-19.5-16.1-37.9-33.5-54.1-53c-18.7-22.5-34.4-48.1-42.8-76.3
	c-8.4-28.3-9.5-59.4,0.2-87.5C151.6,214.9,169.4,194.5,191.2,181.2z"/>
</svg>
