<?xml version="1.0" encoding="utf-8"?>
<!-- Generator: Adobe Illustrator 21.1.0, SVG Export Plug-In . SVG Version: 6.00 Build 0)  -->
<svg version="1.1" id="Layer_1" xmlns="http://www.w3.org/2000/svg" xmlns:xlink="http://www.w3.org/1999/xlink" x="0px" y="0px"
	 viewBox="0 0 825 825" style="enable-background:new 0 0 825 825;" xml:space="preserve">
<path d="M330.6,89.1c20-9,43-6.3,63.3,0.2c0.1,100.2,0,200.4,0,300.7c-42.1,5.1-84.6,4.3-126.9,4c-6.4,0-12.7,0.2-19-0.4
	c-27,0.1-54-0.6-80.9,0c-2.9-7.9-3.9-16.3-4.2-24.6c-0.1-12.8-0.3-26.1,4.3-38.2c57,3.5,114.1,6.9,171,11c3.9-9.4,3.1-19.9,2.3-29.9
	c-2.2-14.7-4.3-29.7-2.5-44.5c-25.5-1.1-50.9,2.6-76.1,5.9c-4.3,0.6-8.7,1.2-13,2c0.4-12.7-0.2-25.4-0.2-38.2
	c-0.2-10.9-0.5-22.3,4-32.6c25.2,7.5,51.5,12.4,77.9,11.1c2.7-9.2,3.8-18.9,4.3-28.4c0-10.7,0.4-21.4-0.8-32.1
	C332.4,133.1,329.7,111.2,330.6,89.1z"/>
<path d="M437.3,88.2c7.5-3.1,15.7-3.7,23.7-3.6c11.2-0.1,22.6,0.9,33.2,4.7c0.4,40.9,0.3,81.8-3.8,122.5c14.9,5.4,31.2,4.3,46.5,1.5
	c13.1-2.4,25.9-6.5,39-8.9c2.8,8.2,3.7,16.9,4.2,25.6c0.2,15.1,0.5,30.6-4.3,45.2c-23.3-3.2-46.6-5.9-70.1-7.6
	c-5.1-0.5-10.3-0.3-15.4-0.3c-3.8,8.7-4.2,18.3-4.2,27.6c0.2,11.3,0.3,22.7,0.9,34c0,3-0.4,6-0.5,9c6.7-0.2,13.4,1,20.1,0.1
	c50.4-0.4,100.5-6.2,150.9-7.3c4,10.2,4.1,21.4,4.5,32.2c-0.5,10.3-0.7,20.9-4.5,30.6c-73,0-146.1-0.1-219.1,0
	c-1-10.7-0.5-21.4-1.3-32.1c-2.3-89.6-4.4-179.1-6.3-268.7C432.7,91,434.8,89.2,437.3,88.2z"/>
<path d="M434.6,434.5c40.5-4.8,81.3-4.2,122-4c34.9,0.4,69.8,0.6,104.6,0.5c-1.8,18.7-3.5,37.4-4.5,56.1c-0.3,2.4-0.4,4.8,0.4,7.1
	c-12-1.4-24.2-1.6-36.3-2.7c-44.8-2.8-89.5-6.2-134.3-8.6c0,24.8,0,49.6,0,74.4c13.9,0,27.7-1.5,41.5-2.7
	c15.9-1.6,31.9-3.2,47.8-5.1c4.7,14.6,4.5,30.1,4.2,45.3c-0.6,8.6-1.5,17.2-4.3,25.4c-27.5-9.2-56.7-12.6-85.6-11.1
	c2.9,25.8,4.2,51.8,4.4,77.7c0.6,8,0.5,16,0,24c0.1,8.2-0.2,16.4-0.5,24.6c-6.7,2.8-13.9,3.8-21.1,4.1c-8,0.8-16,0.2-24-0.5
	c-4.9-0.5-9.8-1.7-14.4-3.6c-0.1-18.5,0.2-37-0.2-55.6c0-52.3,0-104.6,0-157C434.4,493.5,434.3,464,434.6,434.5z"/>
<path d="M167.1,431c74.2,0,148.4,0,222.6,0c0.1,2.5,2.2,3.2,4.3,3.7c0,99.4,0,198.9,0,298.3c-0.1,0.6-0.3,1.9-0.5,2.5
	c-5.4,2.2-11.3,3.2-17,3.7c-15.3,1.2-31.2,1.4-45.9-3.7c-0.1-18.7,1.5-37.4,2.5-56.1c1.6-23.4,2.2-46.8,1.2-70.3
	c-27.6-1.5-55.4,2.8-81.7,11.1c-5-11.4-4.1-24.1-4.1-36.3c0.1-11.5,0.6-22.9,0.2-34.4c28.5,2.6,57,5.4,85.5,7.6
	c6.6-23,4-47.2,7.6-70.6c-45.4-1.4-90.7,3.6-136,5.7c-12.9,0.8-25.8,1.4-38.8,1.7c-3-8-3.9-16.6-4.3-25.1
	C162.7,456.2,162.6,443.1,167.1,431z"/>
</svg>
