<?xml version="1.0" encoding="utf-8"?>
<!-- Generator: Adobe Illustrator 21.1.0, SVG Export Plug-In . SVG Version: 6.00 Build 0)  -->
<svg version="1.1" id="Layer_1" xmlns="http://www.w3.org/2000/svg" xmlns:xlink="http://www.w3.org/1999/xlink" x="0px" y="0px"
	 viewBox="0 0 825 825" style="enable-background:new 0 0 825 825;" xml:space="preserve">
<style type="text/css">
	.st0{fill:#FFFFFF;}
</style>
<path d="M297.8,82.5c16-3.8,33.3-2,48,5.5c10.6,5.2,19.5,13.3,27,22.4c10.9-14.1,26.7-24.4,44.2-27.6c36.1-7.1,75.5,12.2,92.2,44.9
	c7.7,14.5,10.4,31.5,8.1,47.7c-2.2,19.3-11,37.5-23.1,52.6c-11.8,14.9-26.6,27.1-41.9,38.4c-16.6,12.6-34.5,23.7-49.8,38
	c-9.6,65.7-10,132.4-7.2,198.6c0.7,9.1,0.8,18.3,1.6,27.4c39.4,0,78.8,0,118.2,0c-0.1,20.7,0,41.3,0,62c-17.3,5.3-35.8,9.3-53.7,5.3
	c-0.5-12.8,0.7-25.8,5.2-37.9c-8.8-1.1-17.7-1.9-26.5-2.7c0.3,13.5,4.5,27,2.3,40.5c-2.4,0.9-5.1,0.7-7.6,0.7
	c-11.5-0.2-22.9-1.9-34.3-3.4c0.5,8.1-2.1,16.1-3.7,24c15,5.3,30.7-4.3,45.8-0.2c1.6,12.2-2.2,24.1-2.6,36.2c-0.3,1.6,0.8,3,2.2,3.6
	c7.2,3.1,15.6-1.2,22.4,3.2c1.1-5,0.3-10.2-0.4-15.2c-1.7-9.1-3.5-18.3-2.7-27.6c17.1,0.8,34.2,1.9,51.3,2.7
	c-0.2,15.1-0.7,30.2-1,45.4c-0.7,6.4-0.4,12.9-1.8,19.3c-35.9,0-71.8,0-107.7,0c-0.7,9.5-0.4,19.1-0.1,28.6
	c0.5,9.3,1.3,18.6,0.2,27.8c-18.9,1.5-37.9,0.4-56.9,0.1c2-55.3,3.9-110.6,5.3-165.9c0.8-13.7,0.4-27.4,1.3-41
	c0.4-29.7,1.6-59.4,1.6-89.1c0.8-16.6,0.2-33.3,0.4-50c0.2-12.4-0.5-24.8-0.8-37.3c-1-16-1.3-32-3.8-47.8c-1-7.2-5.4-13.4-10-18.8
	c-14-15.8-33-25.8-50.2-37.6c-10.4-7.2-20.9-14.4-29.8-23.4C243,212.9,232,187.8,232.6,162c-0.4-14.8,4.3-29.5,12.5-41.8
	C257.3,101.8,276.2,87.7,297.8,82.5z"/>
<path class="st0" d="M413.5,135.6c11-4.4,23.5-8,35.1-4c10.1,3.7,15.3,14.4,17.2,24.3c3.1,13.8-1.1,28.3-9,39.7
	c-9.5,14.3-23.9,24.2-36.8,35.1c-10.6,8.8-21.1,17.6-31.1,26.9c-3.6,3.6-7.5,7.1-10.5,11.3c-14-13.9-31.2-23.8-47.2-35.2
	c-15.4-10.4-30.8-22.1-40.5-38.4c-6.8-11.1-10.1-24.6-7.6-37.5c1.2-8.6,5.5-17.1,12.9-21.9c9.8-6.4,22.5-6.1,33.5-3.5
	c13.9,3.2,27.8,9.7,36.2,21.7c3.4,4.7,5.7,10,7.2,15.6C380.7,153.2,396.8,142.2,413.5,135.6z"/>
</svg>
