<?xml version="1.0" encoding="utf-8"?>
<!-- Generator: Adobe Illustrator 21.1.0, SVG Export Plug-In . SVG Version: 6.00 Build 0)  -->
<svg version="1.1" id="Layer_1" xmlns="http://www.w3.org/2000/svg" xmlns:xlink="http://www.w3.org/1999/xlink" x="0px" y="0px"
	 viewBox="0 0 825 825" style="enable-background:new 0 0 825 825;" xml:space="preserve">
<path d="M260.6,88c3.6,0,7.1,0,10.7,0c0,61.3,0,122.7,0,184c-61.2,0-122.5,0-183.7,0c0-3.7,0-7.3,0-11c57.7,0,115.3,0,173,0
	C260.6,203.3,260.6,145.7,260.6,88z"/>
<path d="M320,88c61.5,0,122.9,0,184.4,0c0,77.6,0,155.1,0,232.6c77.5,0,155.1,0,232.6,0c0,61.4,0,122.9,0,184.4
	c-77.5,0-155.1,0-232.6,0c0,77.5,0,154.9,0,232.4c-61.4,0-122.9,0-184.4,0c0-77.5,0-154.9,0-232.4c-77.4,0-154.9,0-232.4,0
	c0-61.5,0-122.9,0-184.4c77.5,0,154.9,0,232.4,0C320,243.1,320,165.6,320,88z"/>
<path d="M553,88c3.7,0,7.3,0,11,0c0,57.5,0,114.9,0,172.4c41.3,0.7,82.6,0.7,124,0.4c16.3,0.1,32.7-0.2,49,0.2c0,3.7,0,7.3,0,11
	c-43,0-86,0-129,0c-7.7-0.1-15.4,0.3-23-0.4c-10.7,0.1-21.3-0.3-32-0.4C553,210.1,553,149.1,553,88z"/>
<path d="M87.6,553.6c61.2,0,122.5,0,183.7,0c0,61.2,0,122.5,0,183.7c-3.6,0-7.2,0-10.7,0c0-57.4,0-114.8,0-172.2
	c-4.9-0.4-9.8-0.2-14.6-0.2c-9.9-0.9-19.9,0-29.9-0.6c-24-0.1-48.1,0-72.1,0c-18.8,0.6-37.6,0.1-56.3,0
	C87.7,560.8,87.7,557.2,87.6,553.6z"/>
<path d="M553.9,553.6c61,0,122.1,0,183.1,0c0,3.6,0,7.1,0,10.7c-57.5,0-114.9,0-172.4,0c-1.3,57.7-0.1,115.3-0.7,173
	c-3.7,0-7.3,0-11,0c0-48.8,0-97.6,0-146.3C553.7,578.6,553.4,566.1,553.9,553.6z"/>
</svg>
