<?xml version="1.0" encoding="utf-8"?>
<!-- Generator: Adobe Illustrator 21.1.0, SVG Export Plug-In . SVG Version: 6.00 Build 0)  -->
<svg version="1.1" id="Layer_1" xmlns="http://www.w3.org/2000/svg" xmlns:xlink="http://www.w3.org/1999/xlink" x="0px" y="0px"
	 viewBox="0 0 825 825" style="enable-background:new 0 0 825 825;" xml:space="preserve">
<path d="M258.5,95.8c103.9,0,207.8,0,311.8,0C543.8,126.3,520,159,500,194c-32.6,56.8-54.6,119.9-62.2,185c6.3-0.1,12.5,1,18.8,0.2
	c44.4-0.7,88.2-11.8,128.5-30.2c36-16.4,68.8-39,100.5-62.5c15.3-11.5,30.4-23.2,45.1-35.3c-0.1,47.9,0,95.8-0.1,143.7
	c0.8,15,0.2,30,0.4,45c-0.2,18.3,0.4,36.7-0.4,55c0.1,24.4-0.1,48.7,0.1,73.1c-30.3-25.3-62.5-48.4-96.5-68.3
	C580.4,468.2,521.1,445,459,437.1c-3.9-0.5-7.8-1.2-11.7-1c-2.9,30.6,0.5,61.6,8.7,91.2c6,21.9,14.4,43.1,24.4,63.5
	c9.2,18.8,20.3,36.6,31.6,54.2c18.5,28.4,38.2,56.1,58.3,83.4c-81.9-1.4-163.9-1.5-245.9-1c-9.1,0.5-18.3-0.3-27.4,0.5
	c-12.9,0-25.7,0.1-38.6,0.4c22.1-32,44.2-63.9,65.6-96.4c9.2-14,18.5-28.1,25.4-43.4c23-47.5,35.1-100,36.4-152.6
	c-45.6,3.2-90.6,13.9-133,31.1C195.4,490.5,144.9,527.8,98,568c-0.3-32-0.1-64-0.2-96c-0.2-17-0.2-34-0.2-51
	c0.4-34.7,0-69.3,0.3-104c0.2-20.3,0-40.5,0.1-60.8c28.6,20.5,57.3,40.8,87,59.7c46.4,29.8,97.4,53.8,152,63.6
	c16.1,2.8,32.5,4.5,48.9,4.2c-1.7-49.3-11.8-98.5-31.9-143.7c-15.2-35.4-37.2-67.2-59.9-98.2C282.5,126.3,270.6,110.9,258.5,95.8z"
	/>
</svg>
