<?xml version="1.0" encoding="utf-8"?>
<!-- Generator: Adobe Illustrator 21.1.0, SVG Export Plug-In . SVG Version: 6.00 Build 0)  -->
<svg version="1.1" id="Layer_1" xmlns="http://www.w3.org/2000/svg" xmlns:xlink="http://www.w3.org/1999/xlink" x="0px" y="0px"
	 viewBox="0 0 300 300" style="enable-background:new 0 0 300 300;" xml:space="preserve">
<g>
	<path d="M241.5,102.8c0,10.8-3.7,22.4-11.1,34.8c5.6,8,8.4,16.6,8.4,25.8c0,14.6-9,28.1-27,40.5c0,17.2,0.1,26.5,0.3,27.9
		c-10.2,7.4-30.5,21.2-60.9,41.4c-13.6-10.6-28.6-15.9-45-15.9c-10,0-17.2,1.2-21.6,3.6c-4.4,2.4-9.4,7.7-15,15.9l-0.6,0.3
		c-0.6-1.2-1-2.2-1.2-3c3-11.4,12.2-20.9,27.6-28.5c13.6-6.8,26.8-9.9,39.6-9.3c17,0.8,30,4.9,39,12.3l7.5-5.7v-33.6l-3,0.3
		c-9,1-15.7-1.3-20.1-6.9c-5.2,7.2-16,14-32.4,20.4c-18.8,7.4-31.2,13.5-37.2,18.3l-1.2-3.6c6.8-3.6,11.7-9.3,14.7-17.1
		c-11.2-1.6-20-5.4-26.4-11.4c-7.2-6.8-10.8-15.6-10.8-26.4c0-9.8,3.8-17.6,11.4-23.4c6.6-5,15-8,25.2-9c0.4-2.8,0.5-4.7,0.3-5.7
		c-8-1.6-14.3-7.4-18.9-17.4c-3.6-8.2-5.4-17-5.4-26.4c0-2,0.2-4.6,0.6-7.8c-8.8-6-13.2-15.6-13.2-28.8c0-8.8,1.8-15.3,5.4-19.5
		c1.4,3.8,3,7.3,4.8,10.5c3.8,7,7.6,10.6,11.4,10.8c5.6-11.4,16-20.2,31.2-26.4c12.8-5.4,26.5-8.1,41.1-8.1c22,0,40.9,6.3,56.7,18.9
		C232.9,64,241.5,81.4,241.5,102.8z M102.9,185.6c0-9-3.3-13.5-9.9-13.5c-4.4,0-8.6,1.5-12.6,4.4c-4,2.9-6,6.6-6,10.9
		c0,8,2.5,14.5,7.6,19.4c5.1,4.9,11.6,7.3,19.7,7.3h1.2V185.6z M134.7,98.9l-39.9,0.6c-5.4,0-9.5-1.2-12.3-3.6
		c-0.4,3.2-0.6,5-0.6,5.4c0,7.6,1.6,15.2,4.8,22.8c4.2,9.8,9.4,14.6,15.6,14.4c0-9,3.3-17.3,9.9-24.9
		C118.2,106.4,125.7,101.5,134.7,98.9z M235.8,103.7c0-21.6-9.3-38-27.9-49.2c-15.2-9.2-34.4-13.8-57.6-13.8c-11.6,0-22.5,2-32.7,6
		c-12,4.6-20.7,11.2-26.1,19.8l73.2-0.3c18,0,30.4,4.4,37.2,13.2c5.4,7,8.7,20.3,9.9,39.9l0.3,4.8c2.4,0.8,7.2,3.8,14.4,9
		c2.6-0.4,4.9-4.7,6.9-12.9C235,113.4,235.8,107.9,235.8,103.7z M181.2,116.3c-0.8-6.8-2.2-11.3-4.2-13.5c-2-2.2-6.3-3.3-12.9-3.3
		h-19.5c-4.8,3.2-7.6,5.4-8.4,6.6c-1.4,2-2.1,5.6-2.1,10.8v23.4c12-4,18-10.9,18-20.7c0-2.2-1.6-5.8-4.8-10.8l2.7-2.1
		c4,0,6,4.2,6,12.6c0,7.4-2.1,13.2-6.3,17.4c-3,3-8.4,6.4-16.2,10.2c0.4,14.6,0.4,36.8,0,66.6c5.8-2,12.8-6.6,21-13.8
		c-6.6-7.8-9.9-15.5-9.9-23.1c0-10.4,3.9-15.6,11.7-15.6c7.4,0,11.1,6.4,11.1,19.2c0,1.8-0.9,5.1-2.6,9.9c-1.7,4.8-2.5,7.7-2.5,8.7
		l7.2,4.5l8.1,0.3l3.9-2.4l-0.3-44.7h-1.5c-4.8,0-9-1.6-12.5-4.8c-3.5-3.2-5.2-7.2-5.2-12c0-4.4,2.2-8.5,6.6-12.3
		c3.6-3.2,7.8-5.4,12.6-6.6V116.3z M162.3,178.4c0-2.6-0.7-5.3-2.1-8.2c-1.4-2.9-3-4.3-4.8-4.3c-3.6,0-5.4,3.4-5.4,10.2
		c0,5.4,2.3,11.2,6.9,17.4l3.9-4.2c0-0.6,0.2-2.3,0.8-5.1C162,181.3,162.3,179.4,162.3,178.4z M181.2,128.6l-0.6-0.3
		c-0.2,0-0.7,0.2-1.3,0.6c-0.7,0.4-1.3,0.6-1.7,0.6c-2.4,0-4.7,1.3-6.9,3.8c-2.2,2.5-3.3,5.1-3.3,7.6c0,1.8,0.8,3.9,2.4,6.1
		c1.6,2.3,3.2,3.5,4.8,3.5c5.4,0,7.6-0.1,6.6-0.3V128.6z M233.1,161.3c0-3-0.6-6.7-1.8-11.1c-1.4-5.6-3.1-8.4-5.1-8.4
		c-1.2,0-6,3.6-14.4,10.8v43.5c5.4,0,10.4-4.6,15-13.8C231,174.3,233.1,167.3,233.1,161.3z M223.8,138.2c0-1.2-1.2-2.6-3.6-4.4
		c-2.4-1.7-4.2-2.6-5.4-2.6h-2.4v14.4c1.6-0.4,3.9-1.4,6.9-3.2C222.3,140.9,223.8,139.4,223.8,138.2z"/>
</g>
</svg>
