<?xml version="1.0" encoding="utf-8"?>
<!-- Generator: Adobe Illustrator 21.1.0, SVG Export Plug-In . SVG Version: 6.00 Build 0)  -->
<svg version="1.1" id="Layer_1" xmlns="http://www.w3.org/2000/svg" xmlns:xlink="http://www.w3.org/1999/xlink" x="0px" y="0px"
	 viewBox="0 0 36 36" style="enable-background:new 0 0 36 36;" xml:space="preserve">
<g>
	<path d="M4,31.5c0,0,0,0.1,0,0.2c0,0.1,0,0.2,0.1,0.2c-0.1,0-0.1,0-0.1,0c0,0-0.1-0.1,0-0.2C4,31.6,4,31.5,4,31.5z M4.8,27.1
		c-0.3,2.1-0.4,3.3-0.5,3.5c-0.1,0.2-0.2,0.5-0.3,0.7c0,0.1,0,0.1-0.1,0.1C4.3,30.8,4.6,29.4,4.8,27.1c0-0.1,0-0.2,0-0.3
		c0-0.1,0.1-0.2,0.1-0.3c0-0.1,0-0.3,0-0.6c0-0.2,0-0.4,0-0.5c0-0.1,0.2-0.3,0.3-0.4c-0.1,0.2-0.2,0.3-0.3,0.4
		c0,0.1-0.1,0.3-0.1,0.5c0,0.3,0,0.5,0,0.6c0,0.1,0,0.1-0.1,0.3C4.9,26.9,4.8,27,4.8,27.1z M9.1,23.3c0,0,0.1-0.1,0.3-0.1
		c-0.1,0-0.2,0.1-0.3,0.2c0-0.1-0.8,0.9-2.6,2.8c0,0,0,0,0.1,0c-0.5,0.5-0.9,1.1-1.1,2.1c0-0.1,0-0.3,0-0.4c0,0-0.1,0.1-0.1,0.1
		c-0.1,0.1-0.1,0.1-0.1,0.2c0,0,0.1,0,0.1-0.1c0,0,0.1,0,0.1,0c-0.1,0.2-0.2,0.4-0.2,0.3c0,0,0.1-0.1,0.2-0.1c0,0,0,0.1-0.1,0.1
		c0,0-0.1,0.1-0.1,0.1c0.1,0,0.2-0.1,0.2-0.3c0,0.2-0.1,0.3-0.1,0.5c0-0.1,0-0.1,0-0.1C5.2,28.9,5.2,29,5.2,29c0.1,0,0.2,0,0.2-0.1
		c0-0.1,0-0.1,0.1-0.1c-0.1,0.7-0.2,1.6-0.3,2.8c-0.1-0.1-0.1-0.1-0.1,0.1c0.1,0.1,0.1,0.2,0.1,0.4c0.4,0.7,0.5,1,0.5,0.9
		c0-0.1-0.1,0-0.3,0.1c0,0,0,0,0.1,0c0,0.1-0.2,0.1-0.4,0.1c0,0,0,0,0.1,0c-0.1,0.1-0.3,0-0.5,0c-0.1,0-0.1-0.1-0.1-0.1
		c0,0,0.1,0,0.3,0.1c-0.5-0.2-0.7-0.3-0.7-0.3c0,0,0.1,0,0.2,0c0,0,0-0.1-0.1-0.2c0,0,0,0.1,0.1,0.1c0,0,0,0.1,0.1,0.1
		c0,0,0,0,0-0.1c0,0,0-0.1,0.1-0.1c0,0-0.1,0-0.1-0.1c0,0,0.1,0,0.5,0.1c0,0,0,0.1-0.1,0.1H4.6c0.1,0,0.2,0.1,0.4,0.1
		C5,33,5.1,33,5.4,33c-0.1-0.4-0.2-0.6-0.2-0.5c0.1,0,0.2,0.2,0.3,0.5c0,0,0.1,0,0.1,0c0-0.1-0.1-0.3-0.2-0.5
		c-0.1-0.2-0.2-0.3-0.2-0.5c0,0.2-0.1,0.3-0.1,0.5c0,0,0,0,0,0c0,0,0,0,0,0c-0.1,0-0.1-0.1-0.1-0.3c0,0,0,0.1,0,0.3
		c0,0-0.1,0-0.1-0.1c0-0.1,0-0.1,0-0.1c0,0,0,0-0.1,0.1c0,0-0.1,0.1-0.1,0.1c0,0,0-0.1-0.1-0.1c0,0,0-0.1,0-0.1
		c0.1,0,0.1,0.1,0.1,0.1c0,0,0.1,0,0.1-0.1c0,0,0.1,0,0.1,0c0-0.3,0.1-0.6,0.1-0.9c0,0,0,0.1-0.2,0.3c0-0.1,0-0.2,0.1-0.3
		C4.9,31.3,5,31.1,5,31.1c0,0,0,0.1-0.2,0.4c0-0.1,0-0.2,0.1-0.3C4.9,31,5,30.8,5,30.8c-0.1,0-0.1,0.1-0.2,0.2c0,0,0-0.2,0.1-0.5
		c0,0,0,0-0.1,0c0-0.1,0.1-0.2,0.2-0.2c0,0.1,0,0.1-0.2,0C4.9,30,5,29.9,5.1,29.8c0,0,0-0.1-0.1-0.1c0,0,0.1-0.1,0.1-0.2
		c0-0.1,0-0.1,0.1-0.2c0,0,0,0-0.1,0c0-0.1,0.1-0.2,0.1-0.2c-0.1,0-0.1-0.1-0.1-0.1c0-0.1,0.1-0.1,0.1-0.1c0,0,0,0-0.1,0
		c0.1-0.1,0.1-0.2,0.1-0.2c0,0,0-0.1,0.1-0.2c-0.1,0-0.1,0,0.1-0.3c-0.1,0-0.1,0-0.1-0.1s0.1-0.2,0.2-0.2c0,0.1,0,0.1-0.2,0
		c0,0,0-0.1,0.1-0.1c0,0,0,0-0.1,0c0.1-0.1,0.1-0.1,0.1-0.2c0,0,0-0.1,0.1-0.1c0,0,0,0-0.1,0c0-0.1,0.1-0.1,0.2-0.2
		c-0.1-0.1-0.2-0.1-0.2-0.1c0,0,0.1-0.1,0.2-0.2c0.1-0.1,0.1-0.2,0.2-0.2c0,0,0,0-0.1,0c0.1-0.2,0.2-0.2,0.3-0.1c0,0,0-0.1,0-0.1
		c0,0,0,0-0.1,0C6,26.2,6.2,26,6.3,26c0,0-0.1,0-0.2-0.1c0-0.1,0.1-0.1,0.2-0.1c-0.1,0-0.1-0.1,0-0.1c0,0,0,0-0.1,0
		c0.1-0.1,0.2-0.1,0.3-0.1c0,0,0,0-0.1,0c0,0-0.1,0-0.1-0.1c0.1,0,0.1,0,0.1,0c0,0,0.1,0,0.1,0c0,0,0,0-0.1,0c0,0,0.2-0.1,0.5-0.3
		c0,0,0,0-0.1,0c-0.1,0-0.1,0-0.1,0c0.4-0.2,0.6-0.3,0.6-0.3c0,0,0.1,0,0.3,0S8,24.6,8,24.5c0,0-0.2,0-0.6,0.1c0,0,0,0,0-0.1
		c0.1,0,0.1,0,0.2,0c0,0-0.1,0-0.3,0c0.1-0.1,0.3-0.2,0.4-0.2c0,0-0.1,0-0.3,0.1c0.4,0.1,0.7,0,0.9-0.2c0,0,0,0-0.1,0
		c0.4-0.1,0.6-0.2,0.6-0.2S8.9,23.8,9.1,23.3z M4.2,32c0,0,0.1,0.1,0.1,0.2c0,0.1,0,0.2,0,0.2c0,0,0-0.1-0.1-0.1V32z M4.7,33
		c0.1,0,0.1,0,0.1-0.1c-0.2,0-0.3,0-0.3,0C4.7,33,4.8,33,4.7,33C4.7,33,4.7,33,4.7,33z M5.1,30.4c0-0.1,0-0.1,0-0.2
		c0-0.1,0-0.2,0-0.2l-0.2,0.3c0.1-0.1,0.2-0.2,0.2-0.1c0,0-0.1,0.1-0.1,0.2c-0.1,0.1-0.1,0.1-0.1,0.1c0,0,0.1,0,0.1-0.1
		C5.1,30.4,5.1,30.4,5.1,30.4C5.1,30.4,5.1,30.4,5.1,30.4z M5,33.1c0,0,0,0,0.2,0.1c0.1,0,0.1,0,0.1-0.1C5.1,33.1,4.9,33.1,5,33.1z
		 M5.1,31.4c-0.1-0.6-0.1-0.8,0-0.7c0,0,0,0.2-0.1,0.7c0,0.3,0,0.5,0.1,0.6c0-0.5,0-0.7,0-0.7C5.1,31.4,5.1,31.4,5.1,31.4z M5,29.9
		c0.1,0,0.1-0.1,0.2-0.2c0-0.2,0.1-0.3,0.1-0.3c0,0,0,0.1-0.2,0.2c0.1,0,0.1,0,0.1,0.1C5.1,29.9,5,29.9,5,29.9z M5.9,24.4
		c-0.1,0-0.1,0.2-0.1,0.5c0,0,0,0,0.1,0c-0.3,0.7-0.5,1.2-0.7,1.4c0,0,0.1-0.3,0.2-0.7c0-0.1-0.1,0-0.2,0.1c0-0.1,0-0.3,0.2-0.7
		c-0.2,0.3-0.3,0.5-0.3,0.6c0,0,0,0.1,0,0.1s0,0,0-0.1c0,0.1,0-0.1,0.2-0.5c0,0,0,0,0,0c0,0,0,0,0,0c0-0.1,0.1-0.2,0.2-0.3
		c0.1-0.1,0.2-0.2,0.2-0.3c0,0.1-0.1,0.2-0.2,0.4c0.1,0.1,0.1,0.1-0.1,0.2l0.3-0.2c0,0.1,0,0.1-0.2,0c0,0,0.1-0.1,0.1-0.2
		c0.1-0.1,0.1-0.1,0.1-0.2c0,0,0,0,0,0c0,0,0,0,0,0.1c0,0,0-0.1,0.1-0.2C5.9,24.6,5.9,24.5,5.9,24.4C5.9,24.5,5.9,24.5,5.9,24.4z
		 M5.3,29c-0.1,0.2-0.1,0.3-0.1,0.3c0,0,0.1-0.1,0.1-0.1C5.3,29.1,5.3,29.1,5.3,29z M5.3,25c0.1-0.1,0.2-0.2,0.3-0.3
		C5.5,24.7,5.4,24.8,5.3,25z M5.4,27.9l0.2-0.1c0.1,0,0.1-0.1,0-0.2c0,0,0,0.1-0.1,0.1C5.4,27.8,5.4,27.8,5.4,27.9
		C5.4,27.8,5.4,27.8,5.4,27.9z M5.4,25.7c0,0,0-0.1,0.1-0.2c0.1-0.1,0.1-0.2,0.1-0.2C5.4,25.6,5.4,25.7,5.4,25.7z M5.4,27.7
		c0.2-0.1,0.3-0.3,0.5-0.6c0.2-0.4,0.3-0.6,0.4-0.7c-0.4,0.2-0.6,0.3-0.7,0.4c0.1,0,0.1,0,0.2-0.1c0.1,0,0.1-0.1,0.2,0
		c-0.3,0.1-0.4,0.2-0.6,0.4c0.1,0,0.1-0.1,0.3-0.2c0.1-0.1,0.2-0.1,0.2-0.1c-0.2,0.3-0.3,0.4-0.4,0.3c0.1,0,0.2-0.1,0.3-0.2
		c0,0-0.1,0.1-0.2,0.2c-0.1,0.1-0.2,0.1-0.1,0.2c0.2-0.1,0.3-0.1,0.3-0.1c0,0-0.1,0.1-0.2,0.2c-0.1,0.1-0.1,0.1-0.1,0.2
		c0.2-0.1,0.3-0.1,0.3-0.1c0,0-0.1,0.1-0.2,0.2C5.4,27.6,5.4,27.7,5.4,27.7z M5.4,26.1c0.2-0.4,0.2-0.6,0.2-0.6
		C5.5,25.8,5.4,26,5.4,26.1z M5.5,18c0,0,0,0,0.1-0.2c0,0-0.1,0-0.1,0c0,0-0.1,0-0.1,0c0.1-0.1,0.3-0.3,0.5-0.6
		c0,0.1-0.1,0.2-0.3,0.5C5.6,17.7,5.6,17.8,5.5,18c0.1,0,0.1,0,0.1,0c0,0,0,0,0,0.1c0.1-0.4,0.3-0.8,0.4-0.9l-0.3,1H5.7v0.2
		c0,0,0-0.1,0-0.2c0.1,0,0.2,0.1,0.1,0.2c0,0.1,0,0.2,0,0.5c0,0.3,0,0.4,0,0.5c0-0.1,0.1-0.1,0.1-0.1c0,0.1,0,0.1,0,0.1
		c0-0.1,0-0.1,0-0.1c0-0.3,0.1-0.7,0.3-1c0.2-0.4,0.4-0.7,0.4-0.9c0,0.2,0,0.4-0.2,0.7c0,0,0,0.1,0.1,0c0,0,0-0.1,0.1-0.1
		c0,0.1,0,0.1-0.1,0.3c-0.1,0.1-0.2,0.2-0.2,0.3c0,0,0.1,0,0.2-0.1s0.1-0.1,0.2-0.1c0,0.1-0.1,0.2-0.1,0.3c-0.1,0.1-0.1,0.2-0.2,0.3
		c-0.1,0,0-0.2,0.2-0.5c0,0-0.1,0.1-0.3,0.2c0,0,0-0.2,0.1-0.4C6.2,18.2,6,18.4,6,18.8c-0.1,0.4-0.1,0.7,0,1c-0.1,0-0.1,0.1-0.1,0.2
		c0,0.2,0,0.4,0,0.4C6,20.3,6,20,6.1,19.7c0-0.4,0-0.7,0.1-0.8c0,0.1,0,0.2,0,0.5c0,0.3,0,0.5,0,0.6c0.1-0.1,0.1-0.2,0-0.3
		c0,0,0-0.1,0.2-0.3c0,0,0,0.1,0,0.3c0,0.2-0.1,0.3-0.1,0.4c0,0,0,0,0-0.1c-0.1,0.1-0.1,0.5,0,1.2c0,0,0.1,0,0.1,0
		c0.1,0,0.1-0.1,0.2-0.1c0,0.2,0,0.3,0,0.5c0,0.1,0,0.1,0-0.2c0,0,0-0.1,0-0.1c0-0.1,0-0.1,0-0.1c-0.1,0-0.2,0.2-0.3,0.4
		c0,0,0,0.1,0.1,0c0.1,0,0.1,0,0.1,0c0,0,0,0.1,0,0.1c0,0.1,0,0.1,0,0.2l0-0.3c0,0,0,0-0.1,0c0,0-0.1,0-0.1,0c0-0.1,0-0.3,0.1-0.4
		c0,0-0.1,0-0.2,0c-0.1-0.3-0.1-0.4,0-0.4c0,0-0.1,0.2,0,0.4c0,0.1,0,0.1-0.1,0.1c0-0.4,0-0.6,0-0.6s0,0,0,0s0,0,0,0
		c0-0.2-0.1-0.4-0.2-0.7c-0.1-0.4-0.1-0.7-0.1-0.7c0-0.1,0-0.1,0-0.2c0,0,0,0,0,0.1c0,0,0,0.1,0,0.2c0,0.1,0,0.2,0.1,0.2
		c0-0.1,0-0.3,0-0.5c0-0.2,0-0.4,0.1-0.5c-0.1,0-0.1-0.1-0.1-0.3C5.6,18.1,5.6,18,5.5,18z M6.2,24c-0.1,0.2-0.3,0.4-0.6,0.7
		c0.1-0.1,0.2-0.2,0.2-0.3c0,0.1,0.1,0.1,0.1,0c0.4-0.4,0.6-1,0.5-1.8c0-0.1,0-0.1,0-0.1c0,0,0,0,0.1,0.1C6.4,23.2,6.4,23.7,6.2,24z
		 M5.7,19c0,0,0,0,0-0.2c0-0.1,0-0.2,0-0.2c0,0,0,0.1,0,0.2C5.7,18.9,5.7,19,5.7,19z M5.8,19.8c0,0,0,0,0-0.1c0-0.1,0-0.1-0.1-0.1
		C5.7,19.6,5.7,19.6,5.8,19.8C5.7,19.8,5.7,19.8,5.8,19.8z M5.8,19.6c0.1,0.2,0.1,0.3,0,0.3c0,0,0-0.1,0-0.2
		C5.9,19.7,5.9,19.6,5.8,19.6z M5.9,20.2C5.9,20.2,5.9,20.2,5.9,20.2c0-0.1-0.1-0.1-0.1-0.1c0,0.2,0,0.4,0.1,0.5
		C5.9,20.6,5.9,20.5,5.9,20.2z M5.9,26.4c0.4-0.1,0.6-0.2,0.7-0.4C6.2,26.2,5.9,26.3,5.9,26.4z M6.1,26.1c0.5-0.2,0.7-0.3,0.8-0.3
		C6.4,26,6.1,26.1,6.1,26.1z M6.2,25.9c0.5,0,0.8-0.1,1-0.4c-0.1,0.1-0.3,0.1-0.5,0.2C6.5,25.7,6.3,25.8,6.2,25.9z M6.4,25.6
		c0.1,0,0.2-0.1,0.3-0.1c0.2,0,0.3,0,0.3-0.1c0.2-0.1,0.4-0.2,0.4-0.3c-0.1,0-0.2,0.1-0.5,0.2c-0.2,0-0.4,0.1-0.4,0.2
		c0.1,0,0.2,0,0.4-0.1c0.2,0,0.3-0.1,0.3-0.1c-0.1,0-0.2,0.1-0.4,0.1C6.6,25.5,6.5,25.5,6.4,25.6z M6.6,25.3c0.5,0,0.9-0.1,1.1-0.3
		C7.5,24.8,7.1,25,6.6,25.3z M7.2,15.8C7,15.9,6.9,16,6.8,16.2C6.7,16,6.9,15.9,7.2,15.8z M7,18.9c-0.1-1.1,0.1-1.8,0.5-2.1
		C7.2,17.4,7,17.8,7,18.1c0.3-0.5,0.5-0.8,0.4-0.8c-0.2,0.4-0.4,0.7-0.4,1c0,0,0-0.1,0.2-0.3c0,0.1,0,0.2-0.1,0.4
		C7,18.6,7,18.7,7,18.9z M7,19.3c0-0.1,0-0.3,0-0.4C7,19,7,19.1,7,19.3C7,19.3,7,19.3,7,19.3z M7.9,24.7C7.2,24.9,6.9,25,7,25
		C7.5,24.9,7.8,24.8,7.9,24.7z M7.2,19.1c0,0-0.1,0.1-0.1,0.1c0,0.1-0.1,0.1-0.1,0.1c0,0,0,0,0-0.1c0,0,0.1-0.2,0.3-0.5
		c-0.1,0-0.1,0,0,0.2c0,0,0-0.1,0.1-0.1c0,0.1,0,0.2,0,0.3c-0.1,0.2-0.1,0.3-0.1,0.3c0,0,0.1-0.1,0.1-0.2c0-0.1,0.1-0.1,0.2-0.1
		c0-0.1-0.1,0.2-0.3,0.9c0,0.1,0,0.1,0,0.1c0,0,0,0,0-0.1c0-0.1,0-0.2,0.1-0.4c0.1-0.2,0.1-0.3,0.1-0.4c-0.1,0.1-0.1,0.2-0.2,0.5
		c0,0,0-0.2,0.1-0.4c0,0,0,0-0.1,0l-0.1,0.1c0,0,0.1,0.1,0.1,0.1S7.2,19.3,7.2,19.1z M7.5,19.5c0,0.1,0,0.3-0.1,0.4
		c-0.1,0.2-0.1,0.4-0.1,0.5c0-0.1,0-0.3,0.1-0.5C7.4,19.7,7.5,19.6,7.5,19.5z M7.5,19.9c0,0,0,0.3-0.2,0.8c0-0.1,0-0.2,0.1-0.4
		C7.5,20.1,7.5,19.9,7.5,19.9z M7.4,24.4c0.1-0.1,0.3-0.1,0.5-0.2C7.8,24.3,7.6,24.4,7.4,24.4z M7.6,19.9
		C7.6,19.9,7.6,19.9,7.6,19.9c0,0.1,0,0.4-0.1,0.9c0.1-0.1,0.2-0.4,0.2-0.7c0,0.5,0,0.9-0.2,1.1c0,0,0-0.1,0-0.3
		c0-0.2,0.1-0.3,0.1-0.3c0,0-0.1,0.1-0.1,0.1c0,0.1-0.1,0.1-0.1,0.1c0-0.1,0-0.3,0-0.5C7.5,20.2,7.6,20,7.6,19.9z M11.1,15.1
		c-1.3-0.2-2.5,0-3.6,0.5c0.6-0.4,1.4-0.6,2.5-0.7c-0.1,0-0.2,0.1-0.3,0.1c0.4,0,1,0,1.7,0.1c0.8,0.1,1.4,0.1,1.8,0.1
		c0,0-0.1,0-0.2,0c0.6-0.1,1-0.1,1.2,0c-0.3,0-1.6,0-3.9-0.1c0.1,0,0.2,0,0.4,0C10.9,15.1,11,15.1,11.1,15.1z M10.5,23.2
		c0,0-0.1,0-0.3,0c-0.1,0-0.2,0-0.2,0c0,0,0.1,0,0.2,0.1c0.1,0,0.2,0,0.2,0.1c-0.3,0-0.5-0.1-0.6-0.2h0.4c-0.1,0-0.2-0.1-0.4-0.3
		c-0.2-0.1-0.3-0.2-0.4-0.3c0,0-0.1,0-0.1,0.1c0,0.1-0.1,0.1-0.1,0.1c0-0.1,0-0.1,0-0.2c0-0.1,0-0.1,0-0.2c-0.1,0-0.2,0.2-0.4,0.4
		c0,0,0-0.1,0.2-0.2l-0.7,0.6c0,0-0.1,0.1-0.1,0.2c-0.1,0.1-0.1,0.1-0.2,0.2c0,0-0.1,0-0.2,0.1c-0.1,0.1-0.1,0.1-0.1,0
		c0.4-0.4,0.7-0.7,0.9-0.8c-0.4,0.3-0.7,0.6-1,0.9c0.1-0.2,0.3-0.4,0.6-0.7c0.4-0.3,0.6-0.5,0.7-0.6c-0.2,0.1-0.4,0.3-0.7,0.6
		c-0.3,0.4-0.6,0.6-0.7,0.7c0.3-0.4,0.7-0.9,1.4-1.4c0,0,0,0-0.1,0c-0.1,0-0.1,0.1-0.1,0.1c0.1,0,0.1,0,0.1-0.2
		c-0.3,0.3-0.7,0.7-1.1,1.2c0.1-0.2,0.2-0.4,0.4-0.6c0.3-0.3,0.5-0.5,0.6-0.6c-0.1,0-0.3,0.3-0.9,0.9c0-0.2,0.1-0.3,0.3-0.5
		c0.2-0.2,0.4-0.4,0.4-0.5c-0.1,0-0.2,0.1-0.3,0.2c-0.1,0.2-0.2,0.3-0.3,0.3c0-0.1,0.1-0.2,0.2-0.3c0.1-0.1,0.2-0.2,0.2-0.3
		c-0.1,0.1-0.2,0.2-0.4,0.4c-0.2,0.2-0.3,0.4-0.3,0.4c0-0.1,0.1-0.2,0.3-0.5c0.2-0.2,0.3-0.4,0.2-0.6c0,0,0,0,0.1,0.1
		c0-0.3,0-0.6,0-0.9c-0.1,0-0.1,0-0.1,0.1c0,0,0,0,0-0.1c0,0,0,0.1,0,0.2c0,0.1-0.1,0.2-0.1,0.2c0,0,0,0,0.1,0c0,0,0,0,0,0
		c0,0.2-0.3,0.6-0.8,1.3c0-0.1,0.1-0.2,0.3-0.5c0.2-0.2,0.2-0.4,0.3-0.6c0-0.1-0.1,0.1-0.3,0.5c0-0.1,0.1-0.2,0.3-0.5
		c0.1-0.2,0.2-0.4,0.1-0.7c0,0-0.2,0.4-0.4,1.1c0-0.1,0-0.4,0.2-0.7c0.1-0.3,0.2-0.6,0.2-0.8C8.1,20.8,8,21,7.9,21.2
		c-0.1,0.4-0.2,0.6-0.3,0.7c0-0.1,0.1-0.3,0.2-0.7C8,20.8,8.1,20.5,8,20.3c0.1,0,0.1,0.2,0,0.5c0,0,0.1-0.1,0.1-0.1
		c0-0.1,0.1-0.1,0.1-0.1c0,0.2,0,0.4,0,0.5c0.5-1.3,0.8-2,0.7-1.9c-0.4,0.6-0.5,1.1-0.6,1.7c0,0,0.1,0.1,0.2,0.2
		c0.1-0.8,0.2-1.3,0.2-1.3c0,0.1,0.1,0.2,0,0.3c0,0.2,0,0.3,0,0.3c0,0,0,0,0.1-0.1c0-0.1,0-0.1,0-0.1c0,0.2-0.1,0.6-0.1,1.3
		c0.1,0,0.1,0,0.1,0.1c0,0,0,0.1,0,0.2c0.1-0.1,0.1-0.5,0.2-1.2c0-0.2,0.1-0.4,0.2-0.7c0.1-0.3,0.2-0.5,0.3-0.6
		c0,0.1-0.1,0.4-0.3,0.9C9,20.2,8.9,20.6,9,20.9C9,21,8.9,21.2,8.9,21.6c0.1,0,0.1,0,0.1,0.1c0,0,0,0.1-0.1,0.1
		c0.1,0,0.2-0.1,0.2-0.3c0.1-0.2,0.1-0.4,0-0.5c0-0.1,0-0.2,0-0.3c0-0.2,0-0.3,0-0.3c0.1,0.1,0.1,0.3,0.1,0.5c0,0.3,0,0.5,0.1,0.6
		c-0.1,0-0.2,0.1-0.2,0.4c0,0.3,0,0.5-0.1,0.5c0.2-0.1,0.3-0.5,0.4-1.2c0,0,0.1,0,0.1,0.1c0,0,0,0,0-0.1c-0.1,0.2-0.1,0.5,0.1,0.8
		c0,0,0,0,0,0c0-0.1,0-0.1,0-0.1c-0.1,0.2-0.1,0.5-0.2,1c0,0,0.1-0.3,0.4-0.9c0,0-0.1,0.2-0.1,0.7c0.1,0,0.1,0,0-0.2
		c0,0,0,0.1-0.1,0.2c0.1,0,0.2,0.2,0.5,0.4c0.2,0.2,0.3,0.2,0.3,0.2S10.3,23.2,10.5,23.2z M7.9,20.2c0,0,0,0.1,0,0.3
		c0,0.1,0,0.2-0.1,0.4c0,0.2-0.1,0.3,0,0.4c0,0,0,0.1-0.2,0.2c0-0.1,0.1-0.3,0.2-0.6C7.9,20.6,7.9,20.4,7.9,20.2z M7.7,16.6
		c0.1-0.1,0.2-0.3,0.4-0.4c0,0-0.1,0-0.1,0c-0.1,0.1-0.1,0.1-0.2,0.1c0.1-0.1,0.2-0.2,0.4-0.3c0,0,0,0-0.1,0c0,0,0-0.1,0.2-0.1
		c0,0.1,0,0.1-0.1,0.1C8,16.1,8,16.1,8,16.2C8.1,16,8.2,16,8.2,16c0,0.1,0,0.1-0.2,0.2c-0.1,0.1-0.2,0.2-0.2,0.2c0,0,0.1,0,0.1,0
		c0,0,0.1,0,0.1,0C8,16.5,7.9,16.5,7.7,16.6z M7.9,17.2c0,0-0.1,0-0.2,0.1C7.7,17.2,7.8,17,8,16.9c0.2-0.1,0.3-0.3,0.3-0.4
		c0,0.1-0.1,0.2-0.2,0.3c-0.2,0.2-0.3,0.3-0.3,0.3C7.8,17.2,7.8,17.2,7.9,17.2C7.9,17.1,7.9,17.1,7.9,17.2z M9.1,22.8
		c0,0.1-0.2,0.4-0.7,0.8c0,0,0.1,0,0.2-0.1c0.1-0.1,0.2-0.1,0.3-0.1c-0.1,0.1-0.3,0.2-0.7,0.3c-0.1,0,0.1-0.1,0.6-0.1
		c-0.1,0.1-0.2,0.1-0.4,0.2c-0.2,0.1-0.4,0.1-0.5,0.2c0.1,0,0.2,0,0.3,0c0.2,0,0.3-0.1,0.3-0.1c-0.1,0.1-0.2,0.1-0.4,0.1
		c-0.2,0-0.3,0.1-0.4,0.1c0.1,0,0.3,0,0.7-0.1c0,0-0.3,0.1-0.8,0.2c0-0.1,0-0.1,0.1-0.1c0.1,0,0.1-0.1,0-0.1c0,0,0.1,0,0.2-0.1
		c0.1,0,0.1-0.1,0.2-0.1c0,0,0,0-0.1,0c-0.1,0-0.1,0-0.1,0c0.5-0.3,0.9-0.6,1.1-0.9c0,0-0.1,0-0.1,0.1c0,0.1-0.1,0.1-0.2,0.1
		c0,0,0.1-0.1,0.2-0.1C9,22.9,9.1,22.8,9.1,22.8z M7.8,16.9c0-0.1,0.1-0.2,0.2-0.3c0.2-0.2,0.3-0.3,0.3-0.3c0,0.1-0.1,0.2-0.2,0.3
		C7.9,16.7,7.8,16.8,7.8,16.9z M7.9,24.3c0.1,0,0.1,0,0.2,0C8,24.3,7.9,24.3,7.9,24.3z M7.9,24.8c0.1,0,0.1,0,0.2-0.1
		C8,24.6,7.9,24.7,7.9,24.8z M7.9,23.4c0.4-0.3,0.7-0.6,0.8-0.8c-0.1,0.1-0.2,0.2-0.3,0.3c-0.2,0.2-0.3,0.3-0.4,0.3
		C8.2,23.1,8.2,23.1,7.9,23.4z M8,17.4c0.1-0.2,0.3-0.4,0.6-0.6c-0.1,0.2-0.2,0.3-0.4,0.5c0.1,0,0.1,0,0,0.1
		C8.1,17.4,8.1,17.4,8,17.4z M8.2,17.6c0-0.1,0.1-0.2,0.2-0.3C8.5,17.2,8.6,17,8.6,17c0,0-0.1,0.1-0.3,0.5c0,0,0.1,0,0.1-0.1
		c0,0,0.1-0.1,0.1-0.1c0,0-0.1,0.1-0.2,0.2C8.3,17.5,8.2,17.6,8.2,17.6z M8.2,24.4c0,0,0.1,0,0.2,0c0.1-0.1,0.1-0.1,0-0.1
		c0,0-0.1,0.1-0.1,0.1C8.3,24.3,8.2,24.4,8.2,24.4z M8.9,17.1c-0.1,0.3-0.3,0.5-0.5,0.7c0-0.1,0.1-0.2,0.3-0.3
		C8.8,17.3,8.9,17.1,8.9,17.1z M8.5,17.9c0-0.1,0.1-0.2,0.3-0.4C8.9,17.4,9,17.2,9,17.1C9,17.2,8.8,17.4,8.5,17.9z M8.7,19.8
		c-0.1,0.1-0.1,0.4-0.1,0.9c0,0.1,0,0.1,0,0.1h0c0,0.2,0,0.3,0,0.3c0,0,0-0.1,0-0.2c0-0.2,0-0.2,0-0.2c0,0.1,0,0.1,0,0.1
		c0,0,0-0.1,0-0.1C8.7,20.1,8.7,19.8,8.7,19.8C8.7,19.8,8.7,19.8,8.7,19.8z M8.7,21.7c0-0.2,0-0.3-0.1-0.3L8.7,21.7
		C8.6,21.7,8.6,21.7,8.7,21.7C8.6,21.7,8.6,21.7,8.7,21.7z M8.6,18.1c0-0.1,0.1-0.2,0.3-0.5c0.1-0.2,0.2-0.3,0.3-0.5
		c0,0-0.1,0.2-0.3,0.6c0,0,0.1-0.1,0.2-0.2c0.1-0.1,0.2-0.2,0.2-0.2c0,0-0.1,0.2-0.3,0.4c0,0,0.1,0,0.2-0.1c0.1-0.1,0.2-0.1,0.2-0.1
		c0-0.1,0,0-0.1,0.3c0,0,0-0.1,0-0.1c0,0,0.1-0.1,0-0.1c-0.1,0-0.2,0.1-0.3,0.2C9,18,8.9,18.1,8.8,18.1c0-0.1,0.1-0.2,0.2-0.3
		c0.1-0.1,0.2-0.2,0.2-0.3c-0.1,0-0.1,0.1-0.3,0.3C8.8,18,8.7,18.1,8.6,18.1z M9,20.9C9.1,20.9,9.1,20.9,9,20.9
		C9.1,20.9,9.1,20.9,9,20.9z M9.1,21L9.1,21C9.1,21,9.1,20.9,9.1,21C9.1,20.9,9.1,21,9.1,21z M9.2,22.4c0,0,0-0.1,0-0.1s0-0.1,0-0.1
		c0,0,0,0-0.1,0.1c0,0,0,0.1-0.1,0.1C9.1,22.4,9.2,22.4,9.2,22.4z M9.1,20.5c0,0,0,0.1,0,0.3c0,0.1,0,0.1,0.1,0.1c0,0,0-0.1,0-0.2
		C9.2,20.5,9.2,20.5,9.1,20.5z M9.3,21.9c0,0.3,0,0.4-0.1,0.4C9.4,21.9,9.4,21.8,9.3,21.9z M17.3,29.4c-0.3-0.5-0.3-0.7-0.3-0.7
		c0-0.5-0.2-1.2-0.4-2.1c-0.3-0.9-0.4-1.6-0.5-2c-0.3,0-0.8,0.1-1.6,0.3c-0.7,0.1-1.2,0.2-1.5,0.2c0,0,0-0.1-0.1-0.1
		c-1.1,0.1-1.7,0.2-1.6,0.1c0,0,0.1,0,0.2,0c0.1,0,0.2,0,0.3,0c-0.1,0.1-0.2,0.1-0.4,0.2c-0.2,0.1-0.4,0.1-0.4,0.1
		c0,0,0.2,0,0.4-0.1c0.2-0.1,0.3-0.1,0.3,0c-0.6,0.1-0.8,0.2-0.7,0.2c0.4,0.1,0.7,0,0.9-0.3c-0.1,0.4-0.2,0.5-0.2,0.5
		c-0.2,0.2-0.4,0.4-0.6,0.5c0.1,0.1,0.2,0.1,0.3-0.1c-0.2,0.9,0,1.6,0.4,2.1c0,0.1,0.1,0.3,0.3,0.6c0.1,0.2,0.2,0.4,0.2,0.5
		c0-0.2-0.1-0.3-0.3-0.5c-0.1-0.2-0.2-0.4-0.3-0.5c-0.1,0.1-0.2,0.3-0.1,0.7c-0.1-0.1-0.1-0.3-0.1-0.4c-0.1,0-0.1,0-0.2-0.2
		c0,0,0,0-0.1,0c0,0-0.1,0-0.1,0c-0.2-0.4-0.3-0.7-0.2-0.8c0,0.1-0.1,0.1-0.2,0c0,0.2,0,0.3,0.1,0.4c0,0-0.1-0.2-0.1-0.6
		c0,0,0,0-0.2-0.1c0,0,0-0.1,0-0.1c0.1,0,0.1,0,0.1,0l-0.1,0.1c0.1,0,0.1,0,0.1-0.1c0-0.1-0.1-0.1-0.2-0.1c0-0.1,0.1-0.1,0.1-0.1
		c0,0,0.1,0,0.1,0.1c0-0.1,0-0.1-0.1-0.1c-0.1,0.1-0.1,0.1-0.2,0.2c0-0.1,0-0.2,0-0.4c0-0.2,0-0.3,0-0.4c0-0.2-0.1-0.2-0.1-0.1
		c0,0-0.1,0-0.1,0c0,0-0.1,0-0.1,0c0,0.4,0,0.6,0,0.7c-0.1,0-0.1-0.1-0.1-0.2c0,0.1,0,0.2,0.2,0.5c0.7,1,1.5,2.3,2.4,3.8
		c-0.1-0.2-0.6-0.9-1.4-2.2c-0.6-0.9-1-1.6-1.4-2.2h0c0,0,0,0,0,0c-0.1,0-0.1,0,0,0h0c-0.1,0-0.1,0-0.2-0.2
		c-0.1-0.2-0.2-0.4-0.2-0.4c0-0.3,0-0.3,0.1,0.1c-0.1-0.4,0-0.8,0.3-1.1c0,0,0,0,0,0c0,0,0,0,0.1-0.1c0.1-0.1,0.1-0.1,0.2-0.2
		c-0.1,0-0.1,0.1-0.2,0.2c0,0,0,0-0.1,0.1c0-0.2,0.1-0.4,0.2-0.7c0.2-0.3,0.2-0.5,0.2-0.7c0,0.1,0.1,0.1,0.2,0.1
		c0.2-0.1,0.3-0.1,0.3-0.1c0,0-0.1-0.1-0.2-0.1s-0.2,0-0.2,0c0,0.1,0,0,0.2-0.1c0,0-0.1,0-0.4,0c0,0.1,0.1,0.1,0.5,0
		c0,0,0,0.1-0.1,0.1s-0.1,0-0.1,0c0,0,0.1,0,0.2,0c0.1,0,0.2,0,0.2,0c0,0.1,0,0.1-0.1,0.1c-0.1,0-0.1,0-0.1,0.1c0,0,0.1,0,0.2,0
		c0.1,0,0.2,0,0.2,0c0-0.1-0.1,0-0.2,0.2c0.1,0,0.3-0.1,0.5-0.3c0.2-0.2,0.4-0.3,0.5-0.3c0,0-0.2,0.1-0.7,0.3
		c0.1-0.1,0.3-0.3,0.8-0.4c-0.2,0.2-0.5,0.4-1,0.7c0.1,0,0.2,0,0.4-0.1c0.2-0.1,0.3-0.2,0.4-0.2c-0.1,0.1-0.2,0.2-0.4,0.2
		c-0.2,0.1-0.4,0.2-0.4,0.2c0.1,0,0.4-0.1,0.7-0.2c0,0.1,0,0.1-0.2,0.2c-0.1,0.1-0.2,0.1-0.3,0.2c0.1,0,0.3,0,0.5-0.1
		c0.2-0.1,0.4-0.2,0.5-0.2c0,0-0.3,0.1-0.9,0.3c0.1,0,0.5-0.1,1.2-0.3c-0.2,0.2-0.6,0.3-1.3,0.4c0,0,0.1,0,0.2,0c0.1,0,0.2,0,0.3,0
		c0,0-0.1,0.1-0.1,0.1c-0.1,0-0.1,0-0.2,0c0.2,0,0.2,0.1,0.3,0.1c-0.3,0.2-0.4,0.2-0.4,0.2c0,0,0.1,0,0.2,0c0.1,0,0.1,0,0.2,0
		c-0.1,0-0.1,0-0.2,0.1c-0.1,0-0.1,0.1,0,0.1c0.1-0.1,0.2-0.1,0.3-0.2c0-0.1,0-0.1,0-0.1c0.2,0.1,0.5,0,0.6-0.1c0,0-0.1,0.1-0.1,0.1
		c0,0,0.7-0.2,2.1-0.7c0.2-0.2,0.3-0.4,0.3-0.7c0,0.1,0,0.3-0.1,0.7c0,0,0.1,0,0.2-0.2c0,0,0,0,0,0.1c0,0,0,0.1,0,0.1
		c0-0.1-0.1,0-0.2,0.1c0-0.1,0.1-0.1,0.3,0c0,0-0.1,0.1-0.1,0.1s-0.1,0.1-0.2,0.1c0.1,0,0.2,0,0.3-0.2c-0.1-0.1-0.1,0-0.1,0.2
		c0.5-0.1,0.7-0.1,0.6-0.1c0,0-0.1,0.1-0.3,0.2c0,0,0.1,0,0.2,0c0.1,0,0.2,0,0.3,0v0.1c0,0,0.1,0,0.2,0c0.1,0,0.1,0,0.2,0
		c0,0,0-0.1,0-0.3c0-0.2-0.1-0.3-0.1-0.3c0,0-0.1,0.1,0,0.3c-0.1-0.1-0.1-0.5-0.1-1.3c0.1,0,0.1-0.2,0.2-0.3
		c0.1-0.2,0.1-0.3,0.2-0.3c0,0,0,0.1,0,0.2C16,22.6,16,22.7,16,22.7c-0.1,0-0.1,0.2,0,0.4c0.4-0.6,0.5-0.8,0.5-0.8
		c-0.3,0.9-0.5,1.3-0.5,1.3c0,0.2,0.1,0.4,0.2,0.9c0.1,0.5,0.2,0.8,0.2,1.1c0,0.3,0.1,0.7,0.3,1.2c0.2,0.6,0.3,0.9,0.3,1.2
		c0,0.2,0.1,0.4,0.2,0.7c0.1,0.3,0.1,0.5,0.1,0.5S17.3,29.3,17.3,29.4z M9.6,25.5c-0.1,0.2-0.1,0.3-0.1,0.5c0-0.1,0.1-0.3,0.3-0.5
		l0.3-0.5c-0.1,0-0.2,0.1-0.3,0.3C9.7,25.5,9.6,25.6,9.6,25.5C9.6,25.6,9.6,25.6,9.6,25.5C9.6,25.6,9.6,25.5,9.6,25.5z M9.7,26.1
		c-0.1,0.4,0,0.6,0.1,0.7C9.7,26.5,9.7,26.3,9.7,26.1z M9.9,26.8c0,0,0-0.1,0-0.4c0-0.2,0-0.3-0.1-0.3c0,0,0,0.2,0,0.4
		C9.8,26.7,9.8,26.8,9.9,26.8z M9.8,25c0-0.1,0.1-0.2,0.2-0.3c-0.1,0-0.1,0.1-0.2,0.1C9.8,24.9,9.8,25,9.8,25z M9.8,22.9
		c0,0,0.1,0.1,0.4,0.1C10.3,22.9,10.2,22.9,9.8,22.9z M10.3,25.1c-0.1,0-0.1,0.1-0.2,0.2c-0.1,0.1-0.1,0.2-0.1,0.2
		c0-0.1,0-0.1,0.1-0.1c0,0-0.1,0.1-0.2,0.2C10.2,25.4,10.3,25.2,10.3,25.1z M10,26.9c-0.1-0.4-0.1-0.6-0.1-0.6
		C9.8,26.6,9.9,26.8,10,26.9z M10,25.7c0,0,0.1-0.1,0.2-0.2C10.1,25.5,10,25.6,10,25.7z M10.4,25.8c0,0-0.2,0.1-0.4,0.2
		c0.2-0.2,0.3-0.2,0.3-0.1h-0.1L10.4,25.8z M10.1,26.3c0,0,0.1,0,0.3-0.1c0.1-0.1,0.2-0.1,0.1-0.2c0,0-0.1,0.1-0.3,0.1
		C10.1,26.2,10.1,26.2,10.1,26.3z M10.5,24.2c0,0-0.1,0-0.1,0c-0.1,0-0.1,0-0.1,0c-0.1,0-0.1,0.1-0.1,0.1c0,0,0.1-0.1,0.2-0.1
		C10.4,24.3,10.5,24.2,10.5,24.2z M10.4,23.9c-0.1,0-0.2,0-0.2,0.1s-0.1,0.2,0,0.2c0.2-0.1,0.2-0.2,0.2-0.2v0.1
		c0.2-0.1,0.3-0.1,0.3-0.1c-0.1,0-0.2,0.1-0.2,0.1c0.2,0,0.3-0.1,0.4-0.2c-0.1,0-0.2,0-0.3,0.1c-0.2,0.1-0.3,0.1-0.3,0.1V24
		C10.4,24,10.4,24,10.4,23.9C10.4,24,10.4,23.9,10.4,23.9z M10.4,25.1c0.1,0,0,0.1-0.2,0.2C10.3,25.3,10.4,25.2,10.4,25.1z M11,17.3
		c0,0-0.1,0.2-0.4,0.5c-0.2,0.2-0.3,0.5-0.3,0.7C10.2,18.3,10.5,17.9,11,17.3z M10.5,24.4C10.4,24.4,10.4,24.3,10.5,24.4
		c0.1-0.1,0.3-0.1,0.3-0.2c-0.2,0.1-0.4,0.1-0.5,0.2C10.4,24.3,10.5,24.3,10.5,24.4z M10.4,25.8c0,0,0.1-0.1,0.2-0.1
		c0.1,0,0.2-0.1,0.2-0.1C10.5,25.7,10.4,25.7,10.4,25.8z M10.4,19c0-0.1,0.2-0.4,0.6-0.9C11,18.1,10.8,18.4,10.4,19z M10.5,27
		c0,0,0-0.1,0-0.2c0-0.1,0-0.2,0-0.2h-0.1C10.5,26.8,10.5,27,10.5,27z M11.5,17.2c0,0.1-0.2,0.2-0.6,0.5c-0.2,0.2-0.4,0.4-0.4,0.7
		C10.5,18.2,10.8,17.8,11.5,17.2z M10.4,25.7c0.1,0,0.2-0.1,0.4-0.2C10.6,25.6,10.5,25.6,10.4,25.7z M10.5,25.9c0,0,0.1-0.1,0.2-0.1
		c0.1,0,0.1,0,0.2-0.1c0,0,0,0-0.2,0.1C10.5,25.8,10.4,25.8,10.5,25.9z M10.5,18.5c0.1-0.1,0.3-0.4,0.5-0.7c0,0.1-0.1,0.2-0.3,0.4
		C10.6,18.3,10.5,18.5,10.5,18.5z M11.2,26.4c0,0.1-0.1,0.1-0.2,0.2c-0.1,0-0.2,0.1-0.3,0.1c0.1,0,0.1,0,0.2-0.1
		c0.1,0,0.2-0.1,0.2-0.1l-0.6,0.3c0,0,0-0.1-0.1-0.1c0-0.2,0.2-0.2,0.6-0.1l-0.1,0c0,0-0.1,0-0.1,0c-0.1,0-0.1,0.1,0,0.1
		c0,0,0.1-0.1,0.3-0.1C11.2,26.5,11.2,26.4,11.2,26.4C11.2,26.4,11.2,26.4,11.2,26.4z M10.7,26.2c0,0-0.1,0-0.1,0.1c0,0,0,0.1,0,0.1
		C10.6,26.3,10.7,26.3,10.7,26.2C10.7,26.3,10.7,26.3,10.7,26.2z M11.2,24.4c-0.3,0.1-0.4,0.2-0.4,0.2c0,0,0.1-0.1,0.2-0.1
		C11.1,24.5,11.1,24.4,11.2,24.4z M11.3,25.8c0,0-0.1,0-0.2,0c-0.1,0-0.1,0-0.2,0c-0.1,0-0.2,0.1-0.2,0.2
		C11.2,25.8,11.4,25.8,11.3,25.8z M11.1,26.2c-0.2,0-0.3,0.1-0.4,0.2C10.8,26.5,10.9,26.4,11.1,26.2z M10.8,27.2
		c0.1,0.1,0.1,0.1,0.2-0.1c0,0,0,0-0.1,0s0,0,0,0C10.9,27.1,10.9,27.1,10.8,27.2C10.8,27.1,10.8,27.2,10.8,27.2z M10.8,27.1
		C10.8,27,10.8,27,10.8,27.1c0.1-0.1,0.1-0.1,0.2-0.2c-0.1,0-0.1,0-0.2,0.1C10.8,27,10.8,27,10.8,27.1z M10.8,26.3
		c0-0.1,0.1-0.1,0.2-0.2c0.1,0,0.2-0.1,0.3-0.1c0,0-0.1,0-0.2,0c-0.1,0-0.1,0-0.2,0.1C10.8,26.1,10.8,26.2,10.8,26.3z M11,25.3
		C11,25.3,11,25.3,11,25.3c0.1-0.1,0.1-0.1,0.1-0.1c-0.2,0.1-0.3,0.1-0.3,0.2c0,0,0.1,0,0.1,0C11,25.3,11,25.3,11,25.3z M11,27.1
		c0,0,0.1,0,0.3,0c0-0.1,0-0.2-0.1-0.2c0,0-0.1,0.1-0.1,0.1C11,27,11,27,11,27.1z M11.4,24.1c0,0-0.1,0.1-0.2,0.1
		c-0.1,0-0.1,0.1-0.2,0.1c0.1,0,0.2,0,0.3-0.1C11.4,24.2,11.4,24.2,11.4,24.1z M11,26c0.3-0.1,0.5-0.1,0.5-0.2
		C11.2,25.9,11,26,11,26z M11.1,27.3c0.1-0.2,0.2-0.2,0.2-0.2L11.1,27.3L11.1,27.3L11.1,27.3C11,27.3,11,27.3,11.1,27.3
		C11.1,27.3,11.1,27.3,11.1,27.3L11.1,27.3C11.1,27.3,11.1,27.3,11.1,27.3z M11.4,25c-0.1,0-0.2,0-0.2,0c-0.1,0-0.1,0.1-0.1,0.1
		c0,0,0.1,0,0.2-0.1C11.3,25,11.4,25,11.4,25z M11.1,27.6c0.1,0,0.1,0,0.2,0c0,0,0-0.1,0-0.1C11.2,27.5,11.2,27.5,11.1,27.6
		C11.1,27.6,11.1,27.6,11.1,27.6z M11.4,27.2c-0.2,0.1-0.3,0.2-0.3,0.2c0,0,0.1-0.1,0.2-0.1C11.3,27.3,11.4,27.3,11.4,27.2z
		 M11.6,25.4c-0.3,0.1-0.4,0.1-0.5,0.2C11.5,25.5,11.6,25.5,11.6,25.4z M11.6,25.6c0,0-0.1,0-0.2,0.1c-0.1,0-0.2,0-0.2,0.1
		C11.4,25.7,11.6,25.7,11.6,25.6z M11.6,25.1c0,0-0.1,0-0.2,0c-0.1,0-0.1,0-0.1-0.1c-0.1,0-0.2,0.1-0.2,0.1c0,0,0.1,0,0.1,0
		c0.1,0,0,0.1-0.1,0.1C11.3,25.3,11.5,25.2,11.6,25.1z M11.2,25.7c0.3-0.1,0.4-0.1,0.4-0.2C11.4,25.6,11.2,25.7,11.2,25.7z
		 M11.4,27.5c0-0.1-0.1-0.2-0.1-0.1C11.3,27.5,11.3,27.6,11.4,27.5z M11.3,24.7c0.1,0,0.2,0,0.2-0.1C11.4,24.5,11.4,24.6,11.3,24.7z
		 M11.5,28.2c0.1,0.1,0.1,0,0.2,0c0-0.1-0.1-0.2-0.2-0.3c-0.1-0.1-0.1-0.2-0.1-0.3c0,0,0,0-0.1,0.1c0,0,0,0,0,0.1c0,0,0,0,0.1,0
		c0,0,0.1,0,0.1,0c-0.1,0-0.1,0.1-0.1,0.1c0,0,0,0,0.1-0.1c0,0.1,0,0.1,0,0.2S11.5,28.1,11.5,28.2z M11.4,26.1
		C11.4,26.1,11.4,26,11.4,26.1C11.4,26.1,11.4,26.1,11.4,26.1z M12.4,29.4C12.3,29.4,12.3,29.4,12.4,29.4c-0.1-0.1,0,0.1,0,0.6
		c-0.1-0.1-0.2-0.3-0.3-0.6c0,0,0,0,0,0.1c0,0.1,0,0.1,0,0.1c-0.1,0-0.1-0.1-0.2-0.3c-0.1-0.2-0.1-0.2-0.2-0.2c0-0.1,0-0.2,0-0.4
		c0,0.1,0.1,0.2,0.2,0.4c0,0.2,0.1,0.3,0.2,0.4c0-0.1,0-0.2,0-0.4c-0.1-0.2-0.1-0.3-0.1-0.4c0.1,0.1,0.1,0.3,0.2,0.5
		c0.1,0.3,0.1,0.4,0.1,0.5c0,0,0-0.1,0-0.2c0-0.1,0-0.2,0-0.3C12.3,29.3,12.3,29.3,12.4,29.4c0.5,0.8,1,1.6,1.6,2.3
		c-0.5-0.6-1-1.3-1.5-2.2c0,0.1,0,0.2,0,0.3s0.1,0.3,0.1,0.4c0,0,0.1-0.1,0-0.1c0-0.1,0-0.2,0-0.2c0,0,0,0.2,0.1,0.6
		C12.5,30.3,12.4,29.9,12.4,29.4z M11.9,24.7C11.9,24.7,11.9,24.7,11.9,24.7C11.9,24.7,11.9,24.7,11.9,24.7
		C11.8,24.7,11.9,24.7,11.9,24.7z M13.1,24.9c-0.1,0,0-0.1,0-0.2c-0.1,0-0.3,0.1-0.7,0.1c-0.3,0-0.5,0.1-0.6,0.1
		c0.1,0,0.2,0,0.4-0.1c0.1,0,0.3,0,0.3,0c-0.1,0-0.1,0-0.1,0C12.6,25,12.8,25,13.1,24.9z M14.3,23.2c0,0.1-0.1,0.2-0.3,0.3
		c0-0.1,0.1-0.1,0.2,0c-0.6,0.6-0.9,0.9-0.9,0.8c0.1,0,0.2-0.1,0.5-0.2s0.4-0.2,0.5-0.2c-0.7,0.4-1.1,0.6-1.1,0.6
		c0,0,0.1-0.2,0.2-0.5c-0.1,0-0.4,0.2-0.9,0.5c0.1,0,0.1-0.1,0.2-0.2c-0.1,0-0.2,0-0.4,0.1c-0.2,0.1-0.3,0.1-0.4,0.1
		c1.1-0.3,1.9-0.8,2.2-1.3c-0.1,0-0.3,0.2-0.5,0.4S13.2,24,13.1,24c0-0.1,0.2-0.2,0.3-0.4c0.1-0.2,0.2-0.3,0.3-0.4
		c0,0-0.1,0.2-0.3,0.5c0.1,0,0.2-0.2,0.4-0.3C14,23.3,14.2,23.3,14.3,23.2z M12.7,31.9C12.7,32,12.7,32,12.7,31.9
		c0.1,0.1,0.1,0.1,0.1,0.1c-0.1,0.1-0.2,0.2-0.3,0.2c0-0.1-0.1-0.3-0.1-0.5c0-0.3,0-0.5,0-0.6c0,0.1,0.1,0.2,0.1,0.5
		c0,0.3,0,0.4,0,0.5c0,0,0-0.1,0-0.3C12.6,31.8,12.6,31.9,12.7,31.9C12.7,32,12.7,32,12.7,31.9z M12.6,30.1c0.1,0.1,0.1,0.3,0.2,0.4
		C12.8,30.5,12.7,30.3,12.6,30.1z M12.9,30.5c0,0,0,0.1,0,0.2c0,0.1,0,0.2,0,0.2c-0.1-0.1-0.2-0.3-0.1-0.5c0.3,0.5,0.5,0.8,0.5,1
		c0,0,0-0.1,0.1-0.3c0.1,0.1,0.1,0.2,0.2,0.4c0.1,0.2,0.1,0.3,0.2,0.4c0,0-0.1,0-0.1-0.1l-0.1-0.2c0,0,0,0,0,0.1s0,0.1,0,0.1
		c0,0,0-0.2-0.1-0.5c0,0,0,0.1,0,0.4c-0.1-0.1-0.1-0.2-0.2-0.4c0-0.2-0.1-0.3-0.1-0.4c0,0-0.1,0.1,0,0.2c0,0.1,0.1,0.2,0.1,0.3
		c-0.1-0.1-0.1-0.2-0.1-0.4c0-0.2-0.1-0.3-0.1-0.3S12.9,30.5,12.9,30.5z M14.3,32c0.1,0.1,0.2,0.2,0.5,0.5c0,0.1,0,0.1,0,0.1
		c-0.1,0.1-0.3,0.2-0.7,0.2c-0.3,0-0.5,0-0.7-0.1c-0.1-0.1-0.2-0.2-0.2-0.3C13.1,32.1,13,32,13,31.9c0.1,0,0.1,0.1,0.2,0.2
		c0,0.2,0.1,0.2,0.1,0.3c0.1-0.1,0.1-0.2,0.1-0.3c0.1,0.1,0.1,0.2,0.1,0.3c0-0.1-0.1-0.1-0.1-0.1c0,0,0,0.1,0,0.2
		c0-0.1,0.1-0.1,0.3,0c0,0-0.1-0.1-0.1-0.2c0,0,0,0,0,0.1c0,0,0,0.1,0,0.1c0,0,0-0.1,0-0.2c0.1,0,0.1,0.1,0.2,0.2
		c0.1,0,0.1-0.1,0.1-0.2c0,0,0,0,0.1,0c0,0,0.1,0,0.1,0v-0.2c0,0,0,0,0.1,0c0,0,0,0,0.1,0c0,0,0,0,0.1,0c-0.1,0.1-0.2,0.1-0.2,0.2
		c0,0,0,0-0.1,0c0,0,0,0-0.1,0c0,0,0,0.1,0,0.1c0,0,0,0.1,0,0.1c0.3,0,0.4,0,0.4,0c0,0,0.1,0,0.2,0c0,0,0-0.1-0.1-0.1
		c-0.1-0.1-0.1-0.1-0.1-0.2c-0.1,0,0,0,0.1,0c0,0,0.1,0.1,0.2,0.2c0.1,0.1,0.2,0.2,0.2,0.2c0-0.1,0-0.2-0.1-0.2
		C14.3,32.2,14.2,32.1,14.3,32c-0.1,0-0.1,0.1-0.2,0.1c0,0,0,0,0-0.1C14.1,32,14.1,32,14.3,32c-0.1-0.1-0.1-0.2-0.2-0.2
		c0,0,0.1,0,0.1,0C14.2,32,14.3,32,14.3,32z M33.3,5.1c0.2,0,0.3,0,0.4,0.1c0,0.1,0,0.2-0.1,0.3s-0.1,0.1-0.1,0.1
		c-0.3,0.4-0.8,0.6-1.3,0.6c0,0,0,0,0,0s0,0,0,0c-0.1,0.1-0.5,0.1-1.3,0.2c-0.2,0.6-0.3,1-0.3,1c0-0.1-0.3,0.3-0.8,1.3
		c-0.7,0.6-1.3,0.9-1.7,1c-0.2,0.1-1.1,0.5-2.6,1.2c0.2,0,0.5-0.1,0.9-0.2c0.4-0.1,0.7-0.2,1-0.2c-0.2,0.1-0.5,0.2-0.9,0.2
		c0.1,0,0.2,0,0.3,0c0.1,0,0.2,0,0.3,0c-0.3,0.2-0.4,0.4-0.5,0.6c-0.4,0-0.6,0.1-0.5,0.4c0,0-0.1,0-0.1-0.1c0,0-0.1-0.1-0.1-0.1
		c0,0,0,0.1,0.1,0.1c0.1,0,0.1,0.1,0.1,0.1c0,0,0,0-0.1,0c0,0-0.1-0.1-0.2-0.3c0.3-0.3,0.5-0.4,0.5-0.4c0,0,0,0.1,0,0.1
		c-0.1,0-0.1,0.1-0.1,0.1c0.1,0,0.2,0,0.3-0.1c0.1-0.1,0.2-0.1,0.2-0.1c0.1,0,0,0-0.3,0.2c0.1,0,0.3-0.2,0.7-0.5
		c-0.4-0.1-0.8,0-1.1,0.3c-0.3-0.1-0.5,0.1-0.5,0.5c0,0,0,0,0.1,0c0,0.2,0,0.2,0,0.3c0,0,0,0,0.1,0c0,0,0,0,0,0.1c0,0,0.1,0,0.2,0
		c0.1,0,0.1,0,0.2,0c0,0,0,0-0.1,0.1c0,0,0,0,0,0.1c0.1,0,0.2,0,0.4-0.1c0.1,0,0.2,0,0.3,0.1c0,0,0,0,0.2-0.1C26.4,12,26.2,12,26,12
		c-0.1-0.1,0.1-0.1,0.5,0c-0.1-0.1-0.2-0.1-0.3-0.1c0,0,0-0.1,0.1-0.1c0.1,0,0.1,0,0.1,0c0,0,0,0,0.1-0.1c0-0.1,0-0.1,0-0.2
		c-0.1,0,0.1-0.1,0.4-0.2c-0.1,0-0.1,0-0.1,0.1c0.1,0,0.2-0.1,0.3-0.4c0.1-0.3,0.2-0.4,0.2-0.5c0,0.1-0.1,0.3-0.2,0.5
		c-0.1,0.2-0.1,0.4-0.1,0.4c-0.3,0.7-0.8,1-1.4,1c0,0,0.1,0.1,0.2,0c0.1,0,0.1,0,0.1,0.1c-0.1,0-0.4,0-0.8-0.1
		c-0.1,0-0.1,0.1-0.2,0.3c-0.1,0.1-0.2,0.2-0.3,0.3c0,0,0,0-0.1-0.2c0,0,0,0,0,0.1s0,0.1,0,0.1c-0.1,0-0.1-0.1,0-0.3
		c0.1-0.2,0.2-0.2,0.3-0.2c0,0,0,0,0-0.1c0-0.1,0-0.1,0-0.1c-0.1,0-0.1-0.1-0.2-0.2c-0.1-0.1-0.1-0.2-0.2-0.2c0,0,0,0.1,0,0.1
		c0,0,0,0,0,0.1c-0.1,0-0.1-0.1-0.2-0.2c-0.1-0.1-0.1-0.2-0.3-0.2c0-0.1,0-0.1,0.1-0.1c0,0-0.1,0-0.2,0c0,0,0-0.1,0-0.1
		c0,0,0,0,0-0.1c-0.4,0.2-0.6,0.2-0.6,0.2c0,0,0,0,0,0.1c0,0,0,0-0.1,0c0,0,0,0,0,0s0,0,0,0c0,0.1,0,0.2-0.1,0.3
		c-0.1,0.1-0.1,0.3-0.1,0.4c0-0.1,0-0.2,0.2-0.5c0,0,0,0-0.1,0c-0.1,0-0.1,0.1-0.1,0.1c0,0,0-0.1,0.1-0.1c0,0,0.1-0.1,0.1-0.1
		c0,0-0.1,0-0.1,0c0,0.1-0.1,0.1-0.1,0.1c0-0.1,0-0.2,0-0.1c0,0,0,0.1,0,0.2c0,0.1,0,0.2-0.1,0.2c0.1-0.6,0.2-0.9,0.2-0.9
		c0,0,0,0-0.1,0c0,0-0.1,0-0.1-0.1c0.1,0.2,0,0.4-0.1,0.6c0,0,0,0-0.1-0.1c-0.1,0.1-0.2,0.2-0.1,0.1c0,0,0,0,0.1,0.1c0,0,0,0,0.1,0
		c-0.1,0-0.1,0-0.1,0.1c-0.3-0.2-0.4-0.4-0.5-0.4c-0.2-0.2-0.2-0.5-0.1-0.8c0,0-0.1,0.2-0.1,0.6c-0.1,0,0,0.1,0.2,0.3
		c-0.2,0-0.2,0-0.3,0c0.1,0.1,0.2,0.2,0.4,0.2c0,0-0.1,0-0.3,0c-0.2,0-0.3,0-0.4,0c0,0,0,0,0.1,0c0,0,0.1,0,0.1,0.1c0,0-0.1,0-0.1,0
		c-0.1,0-0.1,0.1-0.2,0.1c0,0-0.1,0.1-0.2,0.3c-0.1,0.1-0.1,0.2-0.1,0.4c0.2-0.1,0.2-0.1,0.3,0c0.1,0.2,0.2,0.3,0.2,0.5h-0.2
		c0,0,0,0,0,0c0,0,0.1,0,0.1,0c0,0,0,0,0-0.1c0,0,0,0,0-0.1c-0.2,0.1-0.3,0.1-0.4,0c0,0.2,0,0.3,0,0.5c0,0.1,0,0.1,0,0
		c0-0.1,0-0.2,0-0.3c-0.2-0.1-0.4-0.4-0.5-0.7c-0.1,0-0.1,0-0.2,0.1c-0.1,0-0.2,0-0.2,0.1c0-0.2-0.1-0.2-0.2-0.1c0,0,0-0.1,0-0.1
		c0,0,0.1,0,0.1-0.1c0.1,0,0,0-0.2,0.1c-0.1,0-0.1,0.1-0.1,0.1c-0.7-0.3-0.9-0.7-0.8-1c-0.1,0-0.2-0.1-0.2-0.3
		c0.1,0,0.1,0.1,0.1,0.2c0.1,0,0.2,0,0.3,0c0,0.1,0,0.1,0,0.1c0,0,0,0.1-0.1,0.1c-0.1,0-0.1,0-0.1,0c0-0.1,0-0.1,0.3,0
		c0,0,0,0.1,0,0.1c0.1,0,0.1,0,0.1,0.1c0,0,0.1,0,0.2,0c0,0,0.1,0,0.1,0c-0.1,0.1-0.2,0.1-0.2,0.1c-0.1,0-0.2,0-0.3,0
		c0-0.1,0.2,0.1,0.5,0.5c0-0.1,0.1-0.2,0.1-0.3c0,0,0,0,0,0.1c0,0,0.1,0,0.1-0.1C20,12,20,12,20,12c0,0-0.1,0.1-0.1,0.1
		c-0.1,0.1-0.1,0.1-0.1,0.1c0.2-0.1,0.3-0.2,0.4-0.3c0,0,0,0.1,0,0.2c0.1-0.1,0.3-0.2,0.4-0.2c0,0,0,0.1-0.1,0.1c0,0,0,0.1-0.1,0.1
		c0,0,0,0,0-0.1c-0.1,0-0.1,0.1-0.2,0.3c0.2-0.1,0.3-0.2,0.4-0.2c0,0-0.1-0.1-0.1-0.2c0,0,0.1,0,0.1,0.1c0,0.1,0,0.1,0.1,0.1
		c0,0,0,0-0.1,0c0,0,0,0.1,0,0.1c0.2-0.1,0.3-0.1,0.2-0.1c0,0,0,0-0.1-0.1s0-0.1,0-0.1c0,0,0.1,0,0.1,0.1c0,0-0.1-0.1-0.1-0.1
		c0,0,0,0-0.1,0c0,0,0.1,0,0.1-0.1c0,0-0.1,0-0.1,0c-0.1,0-0.1,0-0.1,0c0-0.1,0.1-0.1,0.2-0.1c0,0,0,0-0.1,0c0,0,0,0,0,0
		c0.1,0,0.1,0,0.1-0.1c0,0,0-0.1-0.1-0.1c0,0,0.1,0,0.1,0s0.1,0,0.1,0l-0.1-0.1l-0.4,0.3c0-0.1,0.1-0.2,0.1-0.2
		c-0.3,0.2-0.5,0.4-0.4,0.4c0.1,0,0.2-0.2,0.3-0.4c0-0.2,0-0.4-0.1-0.5c-0.1,0.1-0.1,0.3-0.2,0.4c0,0,0-0.1-0.1-0.1
		c0.1-0.1,0.1-0.2,0.2-0.3c-0.1-0.4-0.4-0.5-0.7-0.3c0-0.1-0.1-0.1-0.3-0.1c-0.2,0-0.4,0-0.4-0.1c0.2,0.4,0.2,0.6,0.2,0.5
		c-0.1-0.2-0.2-0.3-0.2-0.4c0,0,0,0,0,0.1c0,0,0,0.1,0,0.1c-0.1,0-0.2-0.1-0.4-0.4c0,0.1-0.1,0.1,0,0.2c0,0.1,0.1,0.2,0.1,0.2
		c0,0-0.1,0-0.1-0.1c-0.1-0.1-0.1-0.2-0.1-0.2c-0.1,0-0.3-0.1-0.5-0.2c-0.2-0.1-0.3-0.1-0.5-0.1c0,0,0,0,0.1-0.1c0,0,0.1,0,0.1,0
		c0-0.1-0.1-0.1-0.2-0.2c0,0.1,0.1,0.1,0.2,0.1c-0.1,0-0.2,0-0.3-0.1c-0.1-0.1-0.2-0.2-0.2-0.2c0,0,0,0,0,0c0,0,0,0,0,0
		c-0.1,0-0.2-0.1-0.3-0.2c-0.1-0.1-0.3-0.2-0.3-0.2c0,0,0,0,0.1,0c0-0.1,0-0.1-0.1-0.1c-0.1,0-0.1,0-0.1,0c-0.5-0.2-1.1-0.8-1.7-1.7
		c0,0.1,0.1,0.2,0.2,0.4c0,0-0.2-0.2-0.7-0.6c-0.2-0.2-0.3-0.3-0.3-0.3c0,0-0.1-0.1-0.2-0.2c0.1,0.1,0.2,0.1,0.2,0.2
		c0,0-0.1-0.1-0.2-0.3c-0.1-0.1-0.2-0.2-0.2-0.3c0,0.1,0,0.1,0,0.2c-0.3-0.2-0.4-0.4-0.5-0.5c0,0,0,0,0,0h0.1c0-0.1-0.1-0.3-0.2-0.6
		c-0.1-0.3-0.2-0.5-0.2-0.7c0,0,0-0.2,0-0.6c0-1,0.1-1.6,0.3-2c0.2,0,0.3,0.2,0.3,0.5c0,0.6,0,0.8,0,0.8c0-0.1,0.1-0.1,0.2,0
		c0,0,0,0.1,0,0.2c0-0.1-0.1-0.1-0.1-0.1h-0.1c0,0.4,0,0.8,0.1,1.1c0.1,0.1,0.3,0.2,0.4,0.5c0.1,0.2,0.2,0.3,0.4,0.4
		c0-0.2-0.1-0.4-0.3-0.7S14,4.7,14,4.5V4.2c0.1,0.6,0.3,1.1,0.6,1.4c0.2-0.2,0.2-0.5,0.1-0.7l0.1,1.9c0.2,0.8,0.5,1.3,0.8,1.4
		c0,0.1,0.1,0.1,0.2,0.2c0.2,0.1,0.3,0.1,0.3,0.2c0,0-0.1-0.1-0.4-0.1c0.1,0.1,0.3,0.1,0.7,0.2c0,0,0.1,0.1,0.4,0.3c0,0,0,0,0,0
		c-0.1,0-0.1,0-0.1-0.1c0,0,0.1,0,0.3,0.2c0,0-0.1,0-0.2,0c0.1,0.1,0.2,0.1,0.4,0.1c0,0,0,0-0.1,0c0.1,0,0.2,0.1,0.3,0.1
		c0.1,0.1,0.3,0.1,0.4,0.1c0,0,0,0,0,0.1c0.1,0,0.3,0.1,0.6,0.2c0.3,0.1,0.5,0.2,0.6,0.3c0,0-0.1-0.1-0.1-0.1
		c-0.1,0-0.1-0.1-0.1-0.1c0.5,0.2,0.7,0.3,0.7,0.4c0.1-0.1,0.1-0.1,0.1,0c0,0,0,0,0-0.1c-0.1-0.1-0.1-0.1,0-0.1c0,0,0,0.1,0.1,0.2
		c0,0.1,0.1,0.1,0.2,0.1c0,0,0-0.1-0.1-0.1c0.1,0.1,0.2,0.1,0.2,0.1c0,0,0,0,0,0c0,0,0,0,0,0c0,0,0,0,0-0.1c0,0,0,0,0,0
		c-0.2,0-0.2,0-0.2-0.1c0,0,0,0,0,0s0,0,0,0c0,0,0-0.1-0.1-0.1c0,0,0,0,0,0.1c-0.1-0.1-0.2-0.1-0.3-0.2c-0.2-0.1-0.3-0.2-0.4-0.3
		c-0.4-0.3-0.5-0.4-0.6-0.5c0.1,0,0.1-0.1,0.1-0.1c-0.1-0.1-0.1-0.1-0.1-0.2c-0.6-0.7-0.9-1.4-0.9-1.9c0,0.1,0,0.2,0.1,0.3
		c0-0.4,0-0.6,0-0.5c0.1,0,0.2,0.1,0.2,0.3c0,0.2,0,0.2,0.1,0.2c0.2,0.8,0.5,1.3,0.8,1.5v0.2c0.1,0,0.2,0.1,0.4,0.2c0,0-0.1,0-0.1,0
		c0,0,0,0,0,0.1c0,0,0.1,0,0.2,0c0.1,0,0.1,0,0.2,0.1c-0.1,0-0.1,0-0.2-0.1c0,0.1,0.1,0.1,0.2,0.2c0.1,0,0.2,0.1,0.2,0.2
		c0.3,0.1,0.5,0.1,0.4,0.1c-0.2,0-0.3,0.1-0.3,0c0,0,0.1,0,0.3,0c0.1,0,0.2,0,0.3,0.1c-0.2-0.1-0.3-0.1-0.4,0
		c0.3,0.1,0.4,0.1,0.5,0.1c0,0.1,0,0.2,0.1,0.2c0,0,0.1,0,0.3,0.1c0,0,0,0,0.1,0c0,0,0.1,0,0.1-0.1c0,0.1,0.1,0.2,0.3,0.3
		c0.1,0.1,0.2,0.2,0.2,0.4c-0.1,0,0,0,0.1,0.1c0,0,0.1,0,0.1-0.1c-0.1,0-0.2,0-0.2-0.1c0,0,0.1-0.1,0.1-0.1c0-0.1,0.1-0.1,0.1-0.1
		c0.1,0.1,0,0.2,0,0.2c0.1-0.2,0.1-0.3-0.1-0.4c0.1,0.2,0.1,0.3,0,0.3c0,0-0.1-0.3-0.3-0.9c0,0,0,0.2,0.1,0.3c0,0.2,0.1,0.3,0,0.3
		c-0.1-0.1-0.2-0.2-0.4-0.4c-0.2-0.2-0.3-0.3-0.4-0.4c-1.1-0.3-2-1.3-2.6-2.9c-0.1,0-0.2,0-0.3,0.2c0-0.1,0-0.1,0-0.2
		c0.1,0,0.2,0,0.3,0C18.1,8,18.5,8.8,18.8,9c0.8,0.5,1.4,0.8,1.7,0.8c0,0,0.1,0,0.1,0.1c0.1,0,0.1,0.1,0.2,0.1
		c-0.1-0.1-0.1-0.1,0-0.1c0.1,0,0.2,0,0.2,0c0,0.1,0,0.1,0,0.2c0.1-0.1,0.1-0.2,0-0.4c0-0.2-0.1-0.3-0.1-0.3c0,0,0,0,0,0
		c0,0,0,0,0.1,0.1c0-0.1,0-0.3-0.1-0.6c-0.1-0.3-0.1-0.4-0.1-0.5c-0.1,0.1-0.2,0.3-0.1,0.5c0.1,0.4,0.1,0.6,0.1,0.6
		c-0.2-1.5-0.3-2.4-0.2-2.7c0.2,0,0.3,0.3,0.4,0.8c0.2,0.9,0.3,1.4,0.3,1.4c0,0,0,0,0.1,0c0,0,0.1,0,0.1,0c0,0,0,0.1,0,0.2
		c0,0.1,0,0.1,0,0.1c0-0.1-0.1,0-0.1,0c0,0,0,0,0,0.1c0,0.1,0,0.2,0,0.2c0.1-0.1,0.1-0.2,0.1-0.2c0.1,0.4,0.1,0.7,0.1,0.6
		c0.2,0.3,0.3,0.4,0.3,0.5c0,0,0.1,0,0.2-0.1c0.1,0,0.1,0,0.2,0.2c0,0,0,0,0-0.1s0-0.1,0-0.1c0,0,0,0.1,0,0.1c0,0.1,0,0.1,0,0.2
		c0,0.1,0.1,0.2,0.2,0.1c0.2,0.1,0.3,0.1,0.3,0.2c0,0-0.1,0-0.3-0.1c0,0.1,0,0.1,0,0.1c0,0,0.1,0.1,0.1,0.1
		c-0.2-0.1-0.4-0.3-0.5-0.6c-0.1,0-0.1,0-0.1,0c-0.1,0.1-0.1,0.2-0.1,0.3c0,0,0,0,0.1-0.1c0,0,0-0.1,0.1-0.1c0.1-0.1,0.1,0,0.1,0
		c0,0.3,0.1,0.5,0.2,0.6c0,0-0.1,0-0.1,0c-0.1-0.2-0.1-0.2-0.1-0.2c0-0.1,0.1,0.1,0.1,0.4c0.1,0,0.2,0,0.3,0.1
		c0.1,0.1,0.1,0.2,0.1,0.2c0,0-0.1-0.1-0.3-0.3c0,0,0.1,0.1,0.3,0.3c0.1,0.1,0.1,0.1,0.2,0.2c0-0.1,0-0.3,0-0.7c0,0,0,0,0,0.1
		c0,0-0.1-0.1-0.1-0.2c0-0.1,0-0.2,0.1-0.2c0,0,0,0.1,0,0.1c0,0,0,0.1,0,0.1c0,0,0.1,0,0.2,0c0,0,0-0.1,0-0.1c0,0,0-0.1,0-0.1
		c0,0,0.1,0,0.3,0c0.1,0.2,0.1,0.3,0,0.4c0.1,0,0.1,0.1,0.1,0.3c0.1,0,0.2-0.1,0.3-0.2c0.1-0.1,0.2-0.2,0.3-0.2c0,0.1-0.1,0.1-0.3,0
		c0.1,0,0,0.1,0,0.1c-0.1,0-0.2,0.1-0.2,0.1l0.1-0.5c0,0,0.1,0,0.1,0c0,0,0-0.1,0.1-0.1c-0.1,0-0.1-0.1-0.1-0.1
		c0-0.1,0.1-0.2,0.1-0.2c0,0-0.1,0.1-0.3,0.2c0.1-0.2,0.2-0.3,0.2-0.4c0.2,0.3,0.3,0.4,0.3,0.3c-0.1-0.1-0.1-0.1-0.2-0.1
		c0,0,0,0,0-0.1c0,0-0.1,0.1-0.1,0.1c0,0.1,0,0.1-0.1,0.2c0.1,0.1,0.1,0.1,0,0.1c0,0,0,0,0.2-0.1c0,0,0-0.1,0-0.1c0,0,0-0.1,0-0.1
		c0.1,0,0.1,0,0.1,0.1c0,0.1,0,0.1,0,0.1c0,0-0.1,0.1-0.3,0.3c0.1,0.1,0.2,0,0.3-0.1c0,0.2,0,0.2,0,0.2c0,0,0.1-0.1,0.2-0.1
		c0.1,0,0.2,0,0.2-0.1c0,0.1,0,0.1-0.2,0c0,0,0.2-0.2,0.4-0.5c0,0,0,0-0.1,0c0,0-0.1,0-0.1,0c0-0.1,0.1-0.1,0.4-0.2
		c0.2-0.1,0.3-0.2,0.3-0.3c0,0,0.1,0,0.3-0.1c0,0,0-0.1-0.1,0c0,0-0.1,0-0.1,0.1c0-0.1,0-0.1,0-0.2c0-0.1,0.1-0.1,0.2-0.1
		c0-0.1,0.1-0.1,0.1-0.2c0,0,0,0,0,0.1c0.2-0.1,0.3-0.3,0.2-0.4c0,0-0.1,0.1-0.2,0.2C25.8,8.8,26,8.4,26,8.1c0,0,0,0,0,0
		c0,0,0,0,0,0c0-0.3,0.1-0.5,0.1-0.6c0-0.1,0-0.1,0-0.1c-0.1,0-0.1,0.1-0.2,0.4c-0.1-0.1-0.1-0.2,0-0.4c0.1-0.2,0.2-0.2,0.3-0.1
		c0,0,0,0,0,0.1c0,0,0,0,0,0.1c0,0,0-0.1,0.1-0.1c0,0,0,0,0.1,0.1c0,0.3,0,0.7-0.2,1.3c-0.2,0.6-0.3,0.8-0.5,0.9c0.1,0,0.1,0,0,0.1
		c-0.1,0.1-0.2,0.2-0.2,0.2c0.3-0.1,0.4-0.2,0.4-0.2c0,0,0,0.1-0.1,0.1c0,0.1,0,0.1-0.1,0.2c0,0,0,0,0-0.1c-0.1,0.2-0.2,0.3-0.2,0.3
		c0,0,0,0,0.1,0c0,0,0,0-0.1,0.1c0,0,0,0.1,0,0.1c0,0,0.1,0,0.1-0.1c0-0.1,0-0.1,0.1-0.1c0,0,0,0.1,0,0.2c0,0,0.1-0.1,0.1-0.1
		c0-0.1,0.1-0.1,0.1-0.2c0,0,0,0.1,0,0.1c0,0,0.1,0,0.1-0.1c0,0,0-0.1,0-0.1c0,0.1-0.1,0.1-0.1,0.2c0.1,0,0.1-0.1,0.2-0.3
		c0,0,0,0,0,0.1c0.1-0.1,0.3-0.2,0.6-0.3c0.3-0.1,0.5-0.2,0.6-0.3c0,0,0,0,0-0.1c0,0,0.1,0,0.1-0.1c0.1,0,0.1-0.1,0.1-0.1
		c0,0,0,0-0.1,0c0.5-0.4,0.7-0.6,0.7-0.6c0,0,0.1-0.1,0.2-0.3c0.1-0.1,0.1-0.2,0.2-0.2c0-0.1,0-0.3,0.1-0.5s0.1-0.5,0.1-0.6
		c0,0,0.1,0.1,0,0.1c0.1-0.1,0.1-0.2,0.1-0.3s0-0.2,0-0.3c0,0-0.1,0-0.1-0.1c0-0.1,0-0.2,0-0.2c0,0-0.1,0-0.1,0
		c0-0.2,0.1-0.2,0.1-0.3c0.1,0,0.1,0,0,0.1c0,0,0.1,0,0.1,0c0-0.1,0-0.1-0.1-0.1c-0.1,0-0.2,0-0.2-0.1c0.2,0,0.4-0.2,0.4-0.5
		c0-0.1,0-0.2,0.1-0.4c0-0.2,0-0.3,0.1-0.4c-0.1,0.1-0.1,0,0-0.3c0,0,0,0,0,0.1c-0.5-0.7-0.6-1.5-0.3-2.3c0.1,0,0.2,0.1,0.3,0.3
		c0,0,0-0.3-0.1-0.8c-0.1-0.4,0-0.6,0.2-0.7c-0.2,0.1-0.3,0.3-0.2,0.4c0,0,0-0.1,0.1-0.2c0,0,0,0,0,0.1c0.1-0.1,0.2-0.2,0.2-0.2
		c0.2,0.4,0.2,0.6,0.2,0.7c0-0.1,0-0.2-0.1-0.3c-0.1-0.1-0.1-0.2-0.1-0.3c-0.1,0.1-0.1,0.3,0,0.7c0,0-0.1,0-0.1-0.2c0,0,0,0.1,0,0.3
		c0,0-0.1-0.1-0.1-0.3c0,0,0,0.1,0,0.3c0.1,0.1,0.1,0.2,0.1,0.3c-0.1,0-0.1-0.1-0.1-0.1c0.1,1,0.1,1.5,0.1,1.6c0,0,0-0.1,0-0.2
		c0-0.1,0-0.2,0-0.2c-0.1,1.2-0.2,2-0.5,2.5c0,0,0,0.1,0.1,0.3c0,0.1,0,0.2,0,0.3c0,0,0,0,0,0s0,0,0-0.1c0,0,0.1,0.1,0,0.1
		c0,0.1-0.1,0.1-0.1,0.1c0,0,0,0,0.1,0c0,0,0-0.1,0-0.1c0.1,0.2,0,0.6,0,1.1C29,7.6,29,7.3,29.1,6.9c0-0.4,0-0.5,0.1-0.5
		c0,0,0,0,0,0c0,0,0,0,0,0c0,0,0-0.2,0-0.4v0.2c0.1-0.1,0.2-0.3,0.1-0.4c0,0,0.1-0.1,0.3-0.3c0,0-0.1,0-0.1,0.1c0,0-0.1,0-0.1,0
		l0.1-0.1c0,0,0-0.1-0.1-0.1c0,0,0.1-0.1,0.2-0.2C29.6,5.1,29.6,5,29.6,5c0,0,0,0,0,0c0,0,0,0,0,0.1c0,0,0-0.1,0.1-0.2
		c0.1-0.1,0.1-0.2,0.1-0.2c0,0,0,0.1,0,0.2c0,0.1,0,0.2,0,0.2c0,0-0.1,0.1-0.2,0.2s-0.1,0.2-0.2,0.2c0,0,0.1,0,0.2-0.1
		c0.1-0.1,0.2-0.2,0.2-0.2c0,0,0-0.1,0-0.2c0-0.1,0-0.2,0-0.2c0,0,0,0,0.1-0.1c0,0.1,0,0.1,0,0.2c-0.1,0.4-0.1,0.7,0,0.8
		c0,0.2,0,0.3,0,0.3s0-0.1,0-0.4c0,0,0,0.2-0.1,0.6c0.1,0,0.2-0.2,0.2-0.5c0-0.1,0-0.2,0-0.4c0-0.2,0-0.3,0-0.3c0,0.1,0.1,0.1,0.1,0
		c0-0.1,0.1-0.2,0.1-0.2c0,0,0,0.2-0.1,0.6c0,0.3,0,0.5,0,0.6C30,5.9,29.9,6,29.9,6c0-0.1,0-0.1,0.1,0c0,0-0.1,0-0.4,0.2v0.3
		c0,0,0-0.1-0.1-0.2c0-0.1,0-0.2-0.1-0.2c0,0,0,0,0,0c0,0,0,0,0,0v0c0,0,0,0.4,0.1,1.1c0,0,0,0,0.1-0.1c0,0,0-0.1,0.1-0.1
		c0,0-0.1-0.2-0.1-0.4c0-0.2,0-0.1,0.1,0.2c0,0,0.1-0.2,0.1-0.5c0,0,0.1,0,0.3,0c-0.2,0.1-0.2,0.3-0.2,0.4c0,0,0.1-0.1,0.1-0.2
		c0,0,0,0,0,0.2c0.1-0.1,0.2-0.2,0.2-0.4c0,0,0,0,0,0.1c0.1-0.1,0.1-0.2,0.1-0.3c-0.1,0.9-0.5,1.6-1,2c-0.1,0.1-0.3,0.2-0.7,0.5
		c-0.3,0.2-0.5,0.3-0.6,0.5v0c0,0,0,0,0,0v0v0c0,0.1,0,0.1-0.1,0.1c-0.1,0-0.2,0.1-0.2,0.1c0,0,0.1,0,0.1-0.1c0.1,0,0.1,0,0.1,0.1
		c0.1-0.2,0.2-0.3,0.2-0.2c0,0-0.1,0.1-0.1,0.1c-0.1,0.1-0.1,0.1-0.1,0.2c0.7-0.5,1.1-0.9,1.4-1c0-0.1,0,0-0.1,0.1
		c0.2,0,0.3,0,0.3-0.1c0-0.1,0.2-0.3,0.4-0.3l-0.1-0.1c0,0,0.1,0,0.1,0c0,0,0.1,0,0.1,0c0,0-0.1,0,0-0.1c0,0,0,0-0.1-0.1
		c0.1,0,0.2-0.1,0.2-0.2c0,0.1,0,0.1,0.1,0.1c0,0,0-0.1,0.1-0.3c0-0.1,0.1-0.1,0.2-0.1c0.1-0.7,0.2-0.9,0.3-0.8c0-0.1,0-0.2,0-0.4
		c0-0.2,0-0.3,0-0.3c0,0,0.1-0.2,0-0.3c0-0.2,0-0.3,0-0.4c0,0.2,0.1,0.3,0,0.3c0.1-0.2,0.1-0.5,0-0.8C30.6,5,30.6,5,30.6,5
		c0-0.1,0-0.2,0-0.4c0,0,0,0,0.1,0c0,0,0,0,0,0c0,0-0.1-0.1-0.1-0.1c0,0,0-0.1,0-0.1c0.1,0,0.1-0.1,0.1-0.2c0,0,0,0.1-0.1,0.1
		c0,0-0.1,0-0.1,0c0,0,0.1,0,0.1-0.1c0,0,0-0.1,0-0.1c0,0,0,0,0,0c0,0,0,0,0,0C30.8,4.1,30.9,4,31,4c0,0,0,0-0.2,0.1
		c-0.1,0-0.1,0.1-0.1,0.1c0,0,0.1-0.1,0.2-0.1c0.1,0,0.1-0.1,0.1-0.1c0,0-0.1,0.1-0.1,0.1c-0.1,0-0.1,0-0.1-0.1l0.2-0.1
		c0,0-0.1,0-0.1,0.1c0,0-0.1,0-0.1-0.1c0,0,0.1,0,0.1-0.1l0,0c0.1,0,0.2-0.1,0.2-0.1c-0.1,0-0.2,0-0.2,0.1h0v0c0.1-0.1,0,0.5-0.4,2
		c0,0,0,0.1,0,0.1c0,0-0.1,0.1-0.1,0.1C30.1,6,30,6.1,30,6.1c0,0,0-0.1,0.1-0.2c0.1-0.1,0.2-0.2,0.2-0.2c0,0-0.1,0.1-0.2,0.2
		c0,0,0-0.1,0.1-0.2c0,0-0.1,0-0.1,0.1c-0.1-0.2,0-0.4,0.2-0.5c0-0.1-0.1,0-0.2,0.2c0,0,0-0.1,0-0.2c0-0.1,0-0.2,0-0.3
		c0-0.1,0-0.1,0.1,0c0,0,0,0.1,0,0.1c0,0,0-0.1,0-0.3c0.1,0,0.2-0.1,0.2-0.3c0.1-0.3,0.1-0.4,0.1-0.4c-0.1,0.1-0.1,0.2-0.2,0.4
		c-0.1,0.1-0.2,0.2-0.2,0.3c0,0,0,0,0-0.1c0,0,0,0,0.1-0.1c0,0,0,0,0,0c0-0.1,0.1-0.3,0.3-0.5c0.2-0.2,0.3-0.4,0.4-0.6H31
		c0.1,0.1,0.1,0.3,0.1,0.7c-0.1,0.4-0.1,0.7-0.1,0.8L31,4.9c0,0-0.1,0.4-0.1,0.9c0,0,0.1-0.1,0.2-0.2c0.1-0.1,0.2-0.2,0.2-0.3
		c0,0,0,0,0.1,0l0,0c0,0,0,0,0-0.1c0.1,0,0.2-0.1,0.3-0.2c0,0,0.1-0.1,0.1-0.1c0.1-0.1,0.1-0.1,0.1-0.1c-0.1-0.1-0.2,0-0.2,0.3
		c0-0.1-0.1,0-0.3,0.2c0,0,0,0-0.1,0c0-0.1,0-0.2,0.2-0.4s0.2-0.3,0.1-0.5c0,0,0-0.1,0-0.1c0,0,0.1,0,0.1-0.1c0,0,0-0.2,0.1-0.4
		c0.1-0.3,0.1-0.5,0.1-0.7c0,0,0,0.1,0,0.3c0-0.1,0-0.2,0-0.4c0-0.2,0-0.3,0-0.5c0,0,0,0,0,0.1c0-0.1-0.1-0.2-0.1-0.3
		c0,0,0,0.1,0,0.1c0,0,0,0.1,0,0.1c0,0,0,0,0-0.1c0-0.2,0-0.3,0-0.5C32,2,32,2,32,2c0-0.1,0-0.1,0-0.1c0,0,0.1,0.1,0.2,0.3
		C32,2.1,32,2,32.1,2c0.1,0,0.1,0,0.1,0.2c-0.1,0.3-0.1,0.4-0.1,0.3c0,0.1,0,0.3,0,0.7c0,0.3,0,0.5,0,0.7c0,0,0,0,0-0.1
		c0,0.5-0.1,1-0.4,1.6c0,0,0-0.1,0-0.1c-0.2,0.4-0.3,0.5-0.3,0.5c0.4,0.1,0.8,0,1.3-0.2c0,0.1-0.3,0.2-0.7,0.2
		c-0.5,0.1-0.7,0.1-0.9,0.2c0,0.1,0,0.2,0,0.2c0.1,0.1,0.2,0.1,0.2,0c0,0.1,0,0.1,0.1,0C31.7,6,31.7,6,31.8,6c0,0,0.1,0,0.4,0
		c0.1,0,0.2-0.1,0.2-0.2c0.3,0.1,0.5,0,0.7-0.2c0.2,0,0.4-0.1,0.5-0.3c0,0,0,0,0,0.1c0,0,0,0,0.1,0s0,0,0.1,0c0,0,0,0-0.1-0.2
		C33.5,5.2,33.4,5.2,33.3,5.1C33.3,5.2,33.3,5.2,33.3,5.1C33.3,5.2,33.3,5.2,33.3,5.1z M14.4,6.9c0.1,0.2,0.3,0.3,0.4,0.4
		c-0.1-0.2-0.1-0.4-0.2-0.8c-0.1,0-0.1,0-0.1,0c-0.4-0.9-0.6-1.3-0.6-1.2c-0.1-0.2-0.2-0.6-0.2-1.3c0-0.7-0.1-1.2-0.2-1.4h-0.2
		c-0.1,0.2-0.2,0.4-0.2,0.8c0,0.4,0,0.6,0.1,0.8c0,0-0.1,0-0.1,0c0,0,0,0.1,0,0.1c0.1,0.1,0.1,0.3,0.1,0.5c0,0.3,0.1,0.5,0.1,0.7
		c0,0-0.1,0-0.1,0c0,0-0.1,0-0.1,0c0,0.1,0.1,0.1,0.1,0.1c0.1,0,0.1,0,0.1,0c0,0.1,0,0.2,0.1,0.3c0.1,0.1,0.1,0.2,0.2,0.3
		c0,0-0.1-0.1-0.1-0.1c0.4,0.4,0.5,0.7,0.5,0.8c0-0.1,0.1-0.1,0.2,0C14.4,6.7,14.4,6.8,14.4,6.9C14.4,6.9,14.4,6.9,14.4,6.9
		C14.4,6.8,14.4,6.8,14.4,6.9C14.4,6.8,14.4,6.9,14.4,6.9L14.4,6.9C14.4,6.9,14.4,6.9,14.4,6.9C14.4,6.9,14.4,6.9,14.4,6.9z M13.1,5
		c0,0.1,0,0.1,0.1,0.2c0,0.1,0.1,0.1,0.1,0.1c0,0-0.1-0.1-0.1-0.1C13.2,5,13.2,5,13.1,5z M13.2,24c0.1,0,0.1-0.1,0.2-0.1
		c0.1-0.1,0.1-0.1,0.1-0.2c0,0-0.1,0.1-0.1,0.2C13.2,23.9,13.2,23.9,13.2,24z M14.4,24.3c-0.7,0.2-1.1,0.4-1.2,0.4
		c0,0.1,0,0.1,0.1,0.2c0,0,0-0.1,0-0.1c0,0,0.1-0.1,0.4-0.2c0,0,0,0.1,0,0.1c0.1-0.1,0.2-0.1,0.4-0.2C14.2,24.4,14.3,24.4,14.4,24.3
		z M13.2,25c0.2,0.1,0.4,0.1,0.5,0C13.3,25,13.2,25,13.2,25z M13.3,4.3c0,0-0.1-0.2-0.1-0.4C13.2,3.8,13.3,4,13.3,4.3z M14,24.1
		c-0.5,0.3-0.8,0.4-0.8,0.4C13.5,24.4,13.7,24.3,14,24.1z M13.3,5.9c0.3,0.3,0.5,0.5,0.4,0.5c-0.1-0.1-0.1-0.1-0.1-0.2
		c-0.1,0-0.1-0.1-0.2-0.1C13.4,6,13.4,5.9,13.3,5.9z M14.1,24.6c-0.5,0.1-0.7,0.2-0.8,0.3c0.1,0,0.4,0,0.8-0.1
		C14.1,24.8,14.1,24.8,14.1,24.6C14.1,24.7,14.1,24.7,14.1,24.6z M13.4,2.8C13.4,2.8,13.5,2.8,13.4,2.8C13.5,2.8,13.5,2.8,13.4,2.8
		c0.1,0.4,0.1,0.6,0.1,0.8C13.4,3.4,13.3,3.1,13.4,2.8C13.4,2.7,13.4,2.8,13.4,2.8z M14,22.9c0.5-0.3,0.8-0.7,0.9-1.3
		c0,0.6,0.1,1,0.3,1.2c0,0,0,0-0.1,0c0,0,0,0.1,0,0.1c0,0.1,0.1,0.2,0.1,0.2c-0.1,0-0.1-0.2-0.2-0.4c0,0-0.1,0.1-0.2,0.1
		c-0.1,0.1-0.1,0.1-0.2,0.1c0,0,0-0.1,0.1-0.1c0-0.1,0-0.1,0.1-0.1c0,0-0.1,0-0.1,0.1c0,0.1-0.1,0.1-0.1,0.1
		c0.1-0.2,0.1-0.3,0.1-0.4c-0.1,0-0.3,0.1-0.3,0.4c0,0-0.1,0-0.1,0C14.1,22.9,14,22.9,14,22.9c0-0.1,0-0.3,0.1-0.4
		c0,0-0.1,0-0.1,0.1c-0.1,0.1-0.1,0.1-0.1,0.1l0-0.2c0-0.1,0-0.2,0-0.3c0,0-0.1,0-0.1,0.1c0,0-0.1,0,0-0.1c0,0,0.1-0.1,0.1-0.1v0.4
		c0.1,0,0.2-0.2,0.3-0.4c0.1-0.2,0.2-0.3,0.3-0.3c0,0-0.1,0.1-0.2,0.3c-0.1,0.1-0.2,0.2-0.2,0.3c0.1,0,0.3-0.3,0.7-0.9
		c0,0.2-0.2,0.4-0.4,0.7c-0.2,0.3-0.4,0.4-0.4,0.4S14,22.7,14,22.9z M14.5,24.9c0,0,0-0.1,0-0.1c0,0,0-0.1,0-0.1
		c-0.3,0-0.5,0.1-0.8,0.3c0.1,0,0.2,0,0.4-0.1C14.3,24.9,14.4,24.9,14.5,24.9z M14.1,7.1C14,7,13.9,6.9,13.9,6.9
		C14,7,14.1,7,14.1,7.1z M13.9,15.3c0,0,0.3,0.1,1,0.1c-0.1,0-0.2,0-0.5-0.1C14.2,15.3,14,15.3,13.9,15.3z M13.9,4.1
		c0,0,0,0.1,0,0.2C14,4.2,14,4.1,13.9,4.1z M13.9,24.6c0.1,0,0.2,0,0.3-0.1c0.1,0,0.1-0.1,0.1-0.1c0,0-0.1,0.1-0.2,0.1
		C14,24.5,14,24.6,13.9,24.6z M14,5.5c0,0,0,0.1,0.1,0.2c0.1,0.1,0.1,0.1,0.1,0.1c-0.1,0-0.1-0.1-0.1-0.1C14.1,5.5,14.1,5.5,14,5.5z
		 M14.4,24.1c-0.1,0-0.2,0.1-0.3,0.2C14.3,24.3,14.4,24.2,14.4,24.1z M14.1,24.7c0,0,0.1,0.1,0.2,0c0.1,0,0.1-0.1,0.1-0.1
		C14.2,24.6,14.1,24.6,14.1,24.7z M14.2,24.6c0.1,0,0.2-0.1,0.3-0.2C14.4,24.4,14.3,24.5,14.2,24.6z M14.5,24.2c0,0,0.1,0,0.1-0.1
		c0-0.1,0-0.1,0-0.1C14.5,24.1,14.4,24.2,14.5,24.2z M14.5,5.4c0,0.1,0-0.2-0.1-0.9c0-0.4,0.1-0.7,0.2-0.8c0.1,0,0.2,0.1,0.3,0.3
		c0,0-0.1,0-0.1-0.1c-0.1-0.1-0.1-0.1-0.2-0.1c-0.1,0.1-0.1,0.4-0.1,0.8C14.5,5,14.5,5.3,14.5,5.4z M15.1,24.8
		c0.1-0.1,0.2-0.1,0.2-0.1c-0.3-0.1-0.5,0-0.7,0.2c0.1,0,0.3-0.1,0.4-0.2C14.9,24.7,15,24.7,15.1,24.8
		C15.1,24.7,15.1,24.7,15.1,24.8z M15,4.9c0,0,0-0.3,0-0.7c0,0,0.1,0.3,0.2,0.8c0-1.1,0.1-2,0.2-2.7c-0.2,1.8-0.2,3-0.1,3.6
		c0,0,0-0.1,0-0.1c0,0,0.1,0.1,0,0.2c0,0.1,0,0.1,0,0.2c0.1,0,0.1,0,0.1-0.1c0-0.1,0-0.1,0.1-0.1c0,0.1,0,0.2,0,0.4c0,0,0-0.1,0-0.3
		c0.1,0,0.1,0.3,0.2,0.9c0,0,0.1-0.1,0.1-0.1s0-0.1-0.1-0.1c0,0,0,0,0.1,0c0,0.1,0.1,0.1,0.1,0.1c0,0,0-0.1-0.1-0.2
		c0-0.1-0.1-0.2-0.1-0.2c0.1,0.1,0.3,0.4,0.4,0.8c0.2,0.4,0.3,0.6,0.5,0.7c0,0,0,0-0.1,0c0,0,0,0.1,0.1,0.1c0,0,0.1,0,0.1,0
		c0,0,0-0.1,0-0.2C17,8.7,17.4,9.1,18,9.3c-0.7-0.3-1.2-0.5-1.4-0.7c0.2,0.1,0.3,0.2,0.3,0.2c-0.8-0.7-1.1-1.1-1.1-1.1
		c0,0,0,0,0,0.1c0,0,0,0.1,0.1,0.1c-0.4-0.5-0.6-1-0.7-1.7c0,0.1,0,0.2,0,0.3c0,0.1,0,0.2,0,0.3C15.1,6.3,15,6,15.1,6
		c0,0.1,0,0.2-0.1,0.3c0,0.1,0,0,0-0.3c0,0,0,0,0,0c0,0,0-0.1,0-0.1c0-0.1,0-0.1,0.1-0.1c0,0,0,0-0.1,0c0,0.1-0.1,0.1-0.1,0
		c0-0.1,0-0.1,0.1-0.2C15,5.5,15,5.4,15,5.4c0,0,0,0-0.1,0c0,0.1-0.1,0.1-0.1,0.1C14.9,5.3,15,5.1,15,5c0,0-0.1,0-0.1,0.1
		c0,0.1,0,0.2,0,0.2C14.8,5.2,14.8,5.1,15,4.9c-0.1-0.1-0.2-0.3-0.1-0.5c0,0-0.1,0-0.1-0.1c0-0.1-0.1-0.2-0.1-0.2
		c0-0.1,0.1-0.2,0.2-0.2c0,0,0,0.1-0.1,0.3c0,0,0.1,0,0.1,0c0,0,0,0,0-0.1c0-0.1,0-0.1,0.1-0.1c0,0.1,0,0.2,0.1,0.4
		C15,4.6,15,4.7,15,4.9z M15,22.6c-0.1,0-0.1-0.2-0.1-0.4c0-0.2,0-0.4-0.1-0.4c0,0.1,0,0.3-0.1,0.5c-0.1,0.2-0.1,0.4-0.1,0.4
		c0.1-0.2,0.2-0.3,0.2-0.3c0,0,0,0.1-0.1,0.2c0,0.1-0.1,0.1,0,0.2c0-0.1,0-0.1,0.1-0.1C14.9,22.7,14.9,22.6,15,22.6z M14.7,4.9
		c0,0,0.1,0.1,0,0.1c0,0.1,0,0.1,0,0.1c0,0.1-0.1,0.1-0.1-0.1C14.7,4.9,14.7,4.9,14.7,4.9z M15,5.7c0.2-0.2,0.2-0.3,0.1-0.4
		C15,5.6,15,5.8,15,5.7z M16.8,15.3c-0.1,0-0.5,0-1,0.1c-0.4,0-0.6,0.1-0.8,0.1C14.9,15.5,15.5,15.4,16.8,15.3
		c0-0.1-0.1-0.1-0.1-0.1c0.5-0.2,1.2-0.3,2.2-0.2c0.3,0.2,0.8,0.2,1.4-0.2c0,0,0.3-0.4,0.8-1c0,0,0,0,0,0c0,0,0,0,0,0
		c0-0.1,0-0.2,0-0.3c0,0,0,0.1-0.1,0.3c0-0.1,0-0.1,0-0.2c0-0.1,0.1-0.2,0.1-0.2v0.3c0.1-0.1,0.1-0.2,0.1-0.2c0,0,0.1,0.1,0.2,0.2
		c0,0,0-0.1,0.1-0.2c0-0.1,0-0.2,0.1-0.2c0,0,0,0.1-0.1,0.5c0,0,0-0.1-0.1-0.1c0-0.1-0.1-0.1-0.1-0.1c0,0,0,0.1-0.1,0.3
		c0.1,0.2,0,0.3-0.2,0.4c0,0,0,0,0.1,0c0,0,0.1-0.1,0.1-0.1c0,0.1,0,0.1,0,0.2c0,0,0-0.1,0.1-0.1c0,0,0,0.1,0,0.1
		c0.1,0,0,0.2-0.3,0.7c0,0,0.1,0,0.1-0.1c0.1-0.1,0.1-0.1,0.2-0.1c0,0.5-0.1,0.7-0.1,0.7c0.1,0,0.1-0.2,0.1-0.4
		c0-0.2,0.1-0.3,0.1-0.3c0-0.4,0-0.5,0-0.2c0,0.3,0,0.5,0,0.6c0,0,0,0,0,0c0,0,0.1,0,0.1,0c0,0.1,0,0.1,0,0.2c0,0.1,0,0.2,0,0.2
		c-0.1,0.1-0.1,0,0-0.1c0-0.2,0-0.3,0-0.3c0,0,0,0.1-0.1,0.5c0-0.1-0.1-0.1-0.1,0.1c0,0,0,0,0.1-0.1c0.1,0.1,0.1,0.2-0.1,0.4
		c0.1,0.1,0.1,0.2,0,0.3c-0.1-0.2-0.1-0.4,0.1-0.6c0,0-0.1,0-0.1,0.1c0,0.1-0.1,0.1-0.1,0.1c0,0.2,0,0.3,0,0.3c0,0.1,0,0.2,0,0.2
		c0,0,0-0.1,0-0.2c0-0.1,0-0.3,0.1-0.5c0.1-0.2,0.1-0.4,0.1-0.5c0.1,0,0,0.2-0.3,0.6c0-0.1,0-0.2,0-0.3c0-0.2,0.1-0.3,0.1-0.4
		c0,0-0.1,0-0.1,0c0,0-0.1,0.1-0.2,0.4c0,0,0,0.1,0,0.1c0,0,0,0,0,0c0-0.1,0.1-0.2,0.1-0.3c0-0.1,0.1-0.2,0.1-0.3
		c-0.1,0-0.1,0,0,0.2c0.1,0,0.1-0.1,0-0.2c0,0-0.1,0.1-0.2,0.3C21,15.3,21,15.2,21.1,15c-0.1,0-0.2,0.1-0.3,0.4c0,0,0-0.1,0.1-0.1
		c0,0-0.1,0-0.1,0.1c-0.1,0.1-0.1,0.1-0.1,0.1c0-0.1,0-0.1,0-0.1c0-0.1,0.1-0.1,0.3-0.2c0.1-0.1,0.2-0.2,0.2-0.2c0,0,0-0.1,0-0.2
		c0-0.1,0-0.2,0-0.2c-0.1,0.1-0.3,0.2-0.6,0.5c-0.2,0.2-0.5,0.4-0.7,0.5c0,0,0.1-0.1,0.3-0.2c0,0,0,0-0.1,0c0.1-0.1,0.2-0.3,0.5-0.5
		c0.2-0.2,0.4-0.4,0.4-0.7c0,0-0.7,0.6-2.1,1.9c0,0,0,0.1,0.1,0.1c0,0,0.1,0,0.1,0.1c0,0-0.1,0.1-0.2,0.1c-0.1,0.1-0.1,0.1-0.2,0.2
		c0,0,0,0,0.1,0c-0.1,0.1-0.2,0.2-0.3,0.4c-0.1,0.2-0.3,0.3-0.3,0.4c0-0.1,0.1-0.2,0.2-0.3c0.2-0.2,0.3-0.3,0.3-0.3
		c-0.1,0-0.1,0-0.1,0.1c0,0.1-0.1,0.1-0.2,0.1c0,0,0.1-0.1,0.1-0.1c0.1,0,0.1-0.1,0.1-0.1c0,0-0.1,0.1-0.2,0.2
		c-0.1,0.1-0.2,0.1-0.2,0.2c0.1-0.2,0.4-0.4,0.8-0.7c-0.2-0.1-0.4-0.1-0.6,0.1c-0.4,0.2-0.6,0.4-0.5,0.4c0.1,0.1,0.1,0.2,0,0.3
		c-0.2,0.2-0.2,0.3-0.2,0.3c0.1,0,0.2-0.1,0.3-0.4c0,0,0,0-0.1,0c0-0.1,0.3-0.3,0.8-0.6c-0.1,0-0.1,0-0.2,0c-0.1,0-0.2,0.1-0.3,0.1
		c0,0,0.1,0.1,0.1,0c0.1,0,0.1,0,0.1,0.1c-0.1,0-0.1,0-0.2,0.1c-0.1,0-0.1,0.1-0.2,0.1c0,0,0,0,0.1,0c0,0-0.1,0.1-0.2,0.1
		c0,0,0.1-0.1,0.2-0.2c0,0-0.1,0-0.2,0c0.6-0.3,1-0.5,1.1-0.5c0,0-0.1-0.1-0.2-0.1c0-0.1,0.1-0.1,0.2-0.1c0.1,0-0.1,0-0.5,0
		c0-0.1,0-0.1,0.1-0.1c0.1,0,0.2,0,0.2,0c-0.8-0.2-1.7,0.1-2.7,0.7c0,0,0.1,0,0.2,0c0.1,0,0.2-0.1,0.2-0.1c-0.2,0.2-0.3,0.2-0.5,0.2
		c0.1-0.2,0.5-0.4,1.1-0.6c-0.4,0-0.8,0.2-1.2,0.5c0.3-0.3,1.3-0.6,3-0.9c0,0-0.1,0-0.2,0c0.1,0,0.1,0,0.3,0c0.1,0,0.2,0,0.3,0
		c-0.3-0.2-0.9-0.3-1.7-0.3c0.1,0,0,0.1-0.2,0.1c-0.1,0-0.2,0-0.3,0.1C16.9,15.2,16.8,15.3,16.8,15.3z M15.1,5.9
		C15.1,5.9,15.1,5.8,15.1,5.9C15.1,6,15.2,6,15.2,6c-0.1-0.2-0.2-0.4-0.1-0.4C15.1,5.9,15.1,6,15.1,5.9z M15.1,22.8
		c0,0,0.1,0.1,0.1,0.2C15.2,22.9,15.1,22.8,15.1,22.8z M15.3,6c0-0.1,0-0.2-0.1-0.4c0-0.2-0.1-0.3-0.1-0.4c0,0.1,0,0.2,0.1,0.4
		C15.2,5.8,15.2,5.9,15.3,6z M15.5,22.9c0,0,0,0.1,0.1,0.2c0.1,0.1,0.1,0.2,0.1,0.3c0,0.1-0.1-0.1-0.5-0.6
		C15.4,22.8,15.5,22.9,15.5,22.9z M15.4,23.1c0,0-0.1,0-0.2-0.1C15.3,23,15.3,23,15.4,23.1z M15.2,24.6c0.2,0,0.3,0,0.4-0.1
		C15.4,24.6,15.2,24.6,15.2,24.6z M15.6,23c0.1,0.1,0.2,0.1,0.1,0.1c-0.1,0-0.2-0.1-0.3-0.2C15.5,22.9,15.6,22.9,15.6,23z M16,1.5
		c-0.2,0-0.3,0.1-0.3,0.4c-0.1,0.3-0.1,0.5-0.2,0.5C15.6,2.1,15.6,2,15.6,2c0,0-0.1,0.1-0.1,0.2c0-0.1,0-0.3,0.1-0.4
		C15.7,1.6,15.9,1.5,16,1.5c0,0,0,0.1,0.1,0.2c0.1,0.1,0.1,0.1,0.1,0.1c0,0.2,0,0.4,0,0.6c0,0.2-0.1,0.3,0,0.4c0-0.1,0-0.3,0-0.5
		c0-0.2,0-0.4,0-0.6c0,0.5,0,1.3-0.1,2.3c0-0.1,0.1-0.2,0.1-0.4c0-0.2,0-0.4,0.1-0.4c0-0.2,0-0.3,0-0.3c0,0,0,0.1,0,0.3
		C16,3.8,16,4.8,16.1,6c0,0,0-0.1,0.1-0.2c-0.1,0-0.1,0.1,0,0.3c0,0,0,0,0-0.1c0.3,1.5,1,2.6,1.9,3.3c-0.1,0-0.2-0.1-0.5-0.3
		c-0.2-0.2-0.4-0.3-0.5-0.3c-0.7-1.2-1.2-2.4-1.4-3.6c0,0,0,0.1,0.1,0.2S16,5.6,16,5.6c0,0,0-0.5-0.1-1.5c0,0.5,0,1,0.1,1.3
		c-0.1-0.2-0.2-0.4-0.2-0.6c0,0,0,0-0.1,0c0,0,0,0,0,0.1c-0.2-0.2-0.2-0.2-0.1-0.3c0-0.2,0.1-0.5,0.1-0.9c0-0.4,0-0.6,0.1-0.8
		c0,0,0,0.1,0,0.1c-0.1-0.2,0-0.3,0.1-0.5c0,0,0,0-0.1-0.1c0,0,0-0.1-0.1-0.1c0,0,0-0.1,0.1-0.3c0-0.1,0.1-0.2,0.2-0.2
		C16,1.7,16,1.6,16,1.5z M15.8,3.6c0-0.1,0.1-0.2,0.1-0.3C16,3.2,16,3.1,16,3c0,0.1,0,0.2-0.1,0.3C15.8,3.5,15.8,3.6,15.8,3.6z
		 M15.8,2.9c-0.1,0.2-0.1,0.2,0,0.2s0.1-0.1,0.1-0.3C15.9,2.8,15.9,2.8,15.8,2.9C15.9,2.8,15.9,2.8,15.8,2.9
		C15.9,2.8,15.8,2.9,15.8,2.9z M15.9,3.5c-0.1,0.2-0.1,0.3-0.1,0.3c0,0,0-0.1,0-0.2C15.9,3.6,15.9,3.5,15.9,3.5z M15.9,1.9
		c0,0,0,0.1-0.1,0.1c0,0,0,0,0,0.1C15.9,2.1,15.9,2,15.9,1.9C16,1.9,16,1.9,15.9,1.9C16,1.9,15.9,1.9,15.9,1.9C15.8,2,15.8,2,15.9,2
		C15.9,2,15.9,1.9,15.9,1.9z M15.9,23.5c0-0.3,0-0.4,0-0.5c0,0.1,0,0.1,0,0.1c0,0,0,0,0,0c0,0,0.1,0.1,0,0.2
		C15.8,23.4,15.9,23.4,15.9,23.5z M15.9,2.6c0-0.1,0.1-0.2,0.2-0.2C16,2.4,15.9,2.5,15.9,2.6z M16.1,8.9L16.2,9c0,0,0.1,0,0.1,0
		l-0.1-0.1C16.1,8.9,16.1,8.8,16.1,8.9C16.1,8.8,16.1,8.9,16.1,8.9z M17.2,16.9c0.2-0.2,0.3-0.2,0.3-0.1c-0.1,0.1-0.3,0.2-0.6,0.4
		c-0.3,0.2-0.5,0.3-0.6,0.4c0,0,0-0.1,0-0.1c0.2-0.1,0.4-0.3,0.6-0.5c0.3-0.3,0.5-0.6,0.6-0.6c-0.1,0.1-0.2,0.3-0.4,0.4
		c-0.2,0.2-0.3,0.3-0.4,0.4C16.8,17.1,16.9,17,17.2,16.9z M17.2,16.3c-0.4,0.4-0.7,0.7-0.9,1.1c0.2-0.6,0.5-1,1-1.2
		C17.3,16.2,17.3,16.2,17.2,16.3z M16.3,17.4C16.3,17.4,16.3,17.4,16.3,17.4L16.3,17.4z M16.9,23c0,0.1,0,0.2-0.1,0.3
		c0,0-0.1,0.1-0.1,0.1c0,0,0-0.1,0.1-0.2c0,0.1-0.1,0.1-0.2,0c0-0.1,0-0.2,0.1-0.2c0,0,0,0-0.1,0c-0.1,0-0.1,0.1-0.1,0.1
		c0,0,0-0.1,0-0.1c0,0,0,0,0-0.1c0,0-0.1,0.1-0.1,0.1c-0.1,0-0.1,0.1-0.1,0.1c-0.1-0.2,0-0.3,0.3-0.4c0,0-0.1,0.1-0.1,0.1
		c-0.1,0.1-0.1,0.1-0.1,0.2c0.1,0,0.1-0.1,0.2-0.1c0.1-0.1,0.2-0.1,0.2-0.1c0,0.1-0.1,0.1-0.2,0.2c0,0,0,0,0.1,0
		c0,0,0.1-0.1,0.1-0.1c0,0,0,0.1-0.1,0.3C16.8,23.3,16.9,23.2,16.9,23z M16.6,8.3C16.5,8.3,16.5,8.3,16.6,8.3L16.6,8.3
		c0,0.1,0.1,0.2,0.2,0.2c-0.1-0.1-0.1-0.1-0.1-0.1S16.6,8.4,16.6,8.3z M17.2,17.4c0,0,0,0.1-0.1,0.1S17,17.6,17,17.6
		c0,0,0.2-0.3,0.7-0.9c-0.1,0.1-0.1,0.3-0.3,0.4c-0.2,0.2-0.3,0.3-0.3,0.4c0,0,0,0,0.1,0C17.2,17.4,17.2,17.4,17.2,17.4z M18.7,33.9
		c0.1,0,0.1,0.1,0.1,0.3c0,0.2,0,0.2,0.1,0.2c-0.3,0.2-0.7,0.3-1.1,0.1c-0.4-0.2-0.6-0.5-0.5-1c-0.1,0.2-0.2,0.2-0.3,0.2
		c0-0.2,0-0.4,0.1-0.6c0.1-0.3,0.1-0.5,0.2-0.7c0-0.3,0.1-0.4,0-0.4v0.4c-0.1,1,0.1,1.6,0.5,1.9c-0.1-0.2-0.1-0.3-0.1-0.2h0.5
		c0,0-0.1,0-0.3-0.1c0,0,0-0.1,0-0.1c0,0,0.1,0,0.2,0c0,0,0,0-0.1,0c0,0-0.1,0-0.1,0c0.1,0,0.3,0,0.4,0.1c0.1,0.2,0.2,0.2,0.3,0.2
		c0-0.1-0.1-0.3-0.2-0.4c0.1,0,0.1,0.1,0.2,0.3c0.1,0.1,0.1,0.2,0.2,0.2c0-0.1,0-0.1,0-0.2C18.7,34.1,18.7,34,18.7,33.9z M17.5,22.3
		c0.1,0.1,0,0.3-0.3,0.6c0,0,0,0,0.1,0c0,0,0,0,0-0.1c0,0,0,0,0,0.1c0,0.1-0.1,0.1-0.1,0.1c0-0.1,0.1-0.2,0.2-0.4
		C17.4,22.5,17.5,22.3,17.5,22.3z M17.3,29.5c0.1,0.4,0.1,1.3-0.1,2.7c0-0.2,0-0.6,0.1-1.3C17.4,30.3,17.4,29.8,17.3,29.5z M24.3,15
		c0,0,0,0.1,0,0.3c0,0.2,0,0.3,0,0.4c0,0.2,0,0.3,0,0.3c0,0,0-0.1,0-0.3c0-0.1,0-0.2,0-0.3c-0.1,0.2-0.1,0.5-0.1,1
		c0,0.4-0.1,0.8-0.2,0.9c0-0.6,0-0.9,0-0.9c0,0,0,0.1,0,0.3c0,0.1,0,0.2-0.1,0.3c-0.1-0.1-0.2-0.2-0.2-0.2c0,0.1,0,0.2,0,0.5
		c0,0.2,0,0.4,0,0.5c0.1,0,0.1-0.1,0.1-0.2c0.1,0.1,0.1,0.2,0,0.5c0,0,0-0.1,0-0.2c0-0.1,0-0.1-0.1-0.1c0-0.4,0-0.6,0-0.6
		c-0.1,0.1-0.2,0.3-0.1,0.6c0.1,0.4,0.1,0.6,0.1,0.7c0,0,0.1-0.2,0.2-0.4c0,0,0,0.1,0,0.3c0.1-0.1,0.1-0.4,0.1-0.8
		c0-0.4,0.1-0.6,0.3-0.6c-0.1,0.1-0.2,0.4-0.2,0.7c0,0.5-0.1,0.8-0.1,0.9c-0.1,0-0.1-0.1-0.1-0.3c-0.2,0.3-0.3,0.5-0.5,0.9
		c0,0.1,0.1,0,0.1-0.1c-0.2,0.4-0.3,0.8-0.4,1c0,0-0.1,0-0.1-0.1c0,0,0,0.1-0.1,0.2c0,0.1-0.1,0.2-0.1,0.2c-0.1,0.2-0.2,0.2-0.2,0.1
		c-0.1,0.1-0.1,0.2-0.2,0.3c0,0,0-0.1,0-0.1c0-0.1,0,0-0.1,0.3c0,0,0.1,0,0.1-0.1c-0.1,0.1-0.1,0.3-0.2,0.6
		c-0.1,0.3-0.2,0.5-0.2,0.6c-0.1,0.2-0.3,0.5-0.6,0.8c-0.3,0.3-0.6,0.6-0.7,0.8c0,0,0,0,0-0.1c0,0.1-0.1,0.3-0.3,0.6
		c-0.1,0.3-0.2,0.4-0.4,0.5c0.4-0.6,0.6-0.9,0.7-1.1C20.2,24,20,24.1,20,24.1c0,0.1,0,0.1-0.1,0.2c-0.1,0.1-0.1,0.2-0.1,0.2
		c0,0,0,0-0.1,0c0,0-0.1,0-0.1,0s0-0.1,0.1-0.2c0,0-0.1,0-0.2,0.2c0,0,0-0.1,0.1-0.2c0.1-0.1,0.2-0.2,0.2-0.2
		c-0.1,0-0.2,0.1-0.4,0.4c0.1,0.1,0.1,0.2-0.1,0.4c0.1,0,0.2-0.1,0.3-0.2c0,0,0,0.1,0,0.1c-0.1,0.1-0.1,0.1-0.1,0.2c0,0,0,0,0-0.1
		c0,0,0,0-0.1,0c0,0.3-0.1,0.9-0.3,1.7c0,0,0,0,0,0c-0.1,0.1-0.1,0.4-0.2,0.8c0,0.4-0.1,0.7-0.1,0.9c0,0,0,0,0-0.1
		c-0.1,0.4-0.3,0.8-0.5,1.2c0,0,0.1-0.1,0.3-0.3c0-0.1,0-0.1,0,0.1c0,0.2,0,0.3-0.1,0.4c0,0.1,0,0.1,0,0.1c0,0,0,0,0-0.1
		c0,0,0-0.1,0-0.2c0-0.1,0-0.1,0-0.2c0,0-0.1,0.1-0.3,0.3c0,0.1,0.1,0,0.1-0.1c0,0.1,0,0.1-0.1,0.2c-0.1,0.1-0.1,0.2-0.2,0.2
		c0-0.1,0.1-0.4,0.4-1c-0.1,0-0.1,0-0.1,0.1c0,0.1-0.1,0.1-0.1,0.1c0.1-0.3,0.2-0.4,0.2-0.3c0,0-0.1,0-0.1,0.1c0,0-0.1,0.1-0.1,0
		c0-0.1,0.1-0.2,0.2-0.4c0,0,0,0-0.1,0c0,0-0.1,0-0.1,0.1c0,0.1,0.1-0.1,0.2-0.4c0,0,0,0-0.1,0c0,0,0.1-0.1,0.2-0.2
		c0.1-0.1,0.1-0.2,0.2-0.2c-0.1,0-0.2,0.1-0.3,0.2C18.7,28,18.6,28,18.5,28c0-0.1,0.1-0.2,0.2-0.2c0.1-0.1,0.2-0.2,0.2-0.2
		c0,0,0,0,0.1,0.1c0,0,0.1,0,0.1,0c-0.1-0.1-0.1-0.2,0-0.2c0,0,0-0.1,0-0.1s0-0.1,0-0.1c-0.3,0.3-0.5,0.5-0.6,0.6
		c0-0.1,0.1-0.2,0.2-0.3c0.2-0.2,0.3-0.3,0.3-0.3c-0.1,0-0.2,0.1-0.2,0.2c-0.1,0.1-0.2,0.1-0.2,0.1c0.1-0.1,0.3-0.3,0.4-0.4
		c0,0-0.1,0-0.2,0.1c-0.1,0.1-0.2,0.1-0.2,0.1c0,0,0.1-0.2,0.3-0.3c0,0,0,0.1-0.2,0.1c0-0.1,0.1-0.2,0.2-0.3
		c0.1-0.1,0.2-0.2,0.3-0.3c-0.1,0-0.1,0.1-0.2,0.2c-0.1,0.1-0.2,0.2-0.3,0.2c0.5-0.6,0.7-0.8,0.6-0.8c0,0.2-0.1,0.5-0.3,0.6
		c0.2,0,0.3-0.2,0.4-0.7c-0.1,0-0.2,0.1-0.3,0.3c-0.2,0.2-0.3,0.3-0.3,0.4c0,0,0-0.1,0.1-0.2c0.1-0.1,0.2-0.2,0.2-0.2
		c0,0-0.1,0-0.3,0.2c0-0.1,0.1-0.2,0.3-0.4c0.2-0.2,0.3-0.3,0.3-0.5c-0.1,0.1-0.2,0.2-0.4,0.3c-0.1,0.1-0.3,0.3-0.3,0.4
		c0-0.1,0.1-0.3,0.3-0.4c0.2-0.2,0.3-0.3,0.4-0.4c-0.1,0-0.3,0.2-0.4,0.3c-0.2,0.2-0.3,0.3-0.4,0.3c0-0.1,0.1-0.3,0.3-0.5
		c0.2-0.3,0.4-0.4,0.4-0.5c-0.1,0-0.2,0.1-0.3,0.3c-0.1,0.2-0.2,0.3-0.3,0.3c0-0.1,0.1-0.2,0.2-0.3c0.2-0.2,0.3-0.3,0.3-0.3
		c-0.2,0.1-0.4,0.3-0.6,0.5c0.2-0.4,0.4-0.6,0.8-0.7c0,0,0,0,0,0.1c0,0,0,0,0,0.1c0,0,0.1-0.1,0.1-0.3c-0.1,0.1-0.1,0.2-0.1,0.2
		c0,0-0.2,0-0.3,0.2c-0.2,0.2-0.4,0.4-0.4,0.4c0.1-0.1,0.2-0.2,0.3-0.4c0.2-0.2,0.3-0.3,0.4-0.3c-0.1,0-0.2,0.1-0.3,0.3
		c-0.1,0.1-0.2,0.2-0.4,0.2c0-0.1,0.1-0.1,0.2-0.2c0.1,0,0.2-0.1,0.2-0.2c0,0-0.1,0-0.1,0.1c0,0.1-0.1,0.1-0.2,0.1
		c0.1-0.1,0-0.1-0.1,0c-0.2,0.1-0.3,0.2-0.4,0.2c0-0.1,0.1-0.1,0.2-0.2c0.1-0.1,0.2-0.2,0.2-0.2c0,0-0.1,0.1-0.3,0.2c0,0,0,0,0-0.1
		c0,0-0.1,0.1-0.2,0.3c0.1,0.1,0.1,0,0.1-0.3c0,0-0.1,0.1-0.2,0.2c-0.1,1-0.1,1.6-0.1,1.6c0.1-0.1,0.1-0.2-0.1-0.2
		c-0.1,0.3-0.1,0.5-0.2,0.6c0,0,0,0,0,0c0-0.1,0.1-0.1,0.1-0.1c-0.2,0.2-0.3,0.3-0.3,0.4c0.1,0,0.1-0.1,0.2-0.3
		c0.1-0.1,0.1-0.2,0.1-0.3c-0.1,0-0.1,0,0-0.1l0.1-0.2c0,0,0.1,0,0.1,0.1c0,0.1,0,0.1-0.1,0.1c0,0,0.1-0.1,0.1-0.1
		c0.1-0.2,0.1-0.7,0.1-1.3c0-0.5,0.1-0.9,0.2-1.1c0,0-0.1,0.1-0.1,0.1c0,0.1-0.1,0.1-0.1,0.1c0,0.1,0,0.1,0,0.1c0,0,0,0,0,0.1
		c-0.1,0-0.1-0.1-0.1-0.2c0-0.2,0-0.3,0-0.3c0,0-0.1,0-0.1,0c-0.1,0-0.1,0-0.2,0c0-0.1,0-0.1,0.1-0.2c0,0,0,0-0.1,0.1
		c0,0-0.1,0.1-0.1,0.1c0,0,0.2-0.1,0.4-0.4c0,0,0,0,0,0c0,0-0.1,0-0.1,0.1c0.1,0,0.1,0,0.1-0.2c-0.1,0-0.1,0.1-0.3,0.2
		C17.8,24,17.7,24,17.6,24c0-0.1,0-0.1,0.1-0.2s0.1-0.1,0.1-0.2c0,0-0.1,0-0.2,0.1c-0.1,0.1-0.2,0.1-0.2,0.1c0,0,0.1-0.1,0.4-0.4
		c-0.1,0-0.2,0.1-0.3,0.2c-0.1,0.1-0.2,0.2-0.3,0.2c0.1-0.2,0.3-0.4,0.5-0.5c0,0-0.1,0.1-0.2,0.2c-0.1,0.1-0.2,0.2-0.3,0.1
		c0.1-0.2,0.4-0.7,1-1.6c-0.1,0.1-0.3,0.2-0.5,0.5c-0.2,0.3-0.4,0.5-0.5,0.6c0.1-0.1,0.2-0.3,0.3-0.5c0.2-0.3,0.3-0.4,0.3-0.5
		c0-0.1-0.1,0-0.2,0.1c0,0,0-0.1,0.1-0.1C18,22,18,22,18.1,21.9c0,0-0.1,0.2-0.2,0.5c0.5-0.4,0.7-0.6,0.8-0.6c0,0.1-0.1,0.3-0.2,0.5
		c-0.1,0.2-0.2,0.4-0.2,0.5c0,0,0.1,0,0.2-0.1c0.1-0.1,0.2-0.1,0.2-0.1c0,0.1-0.1,0.3-0.1,0.4c-0.1,0.2-0.2,0.3-0.2,0.4
		c0.1,0.1,0.2,0,0.3-0.1c0,0,0.1,0.1,0.1,0.1c0.1,0.1,0.1,0.1,0.2,0.1c-0.1,0-0.1-0.1,0.1-0.1c0,0,0,0.1-0.1,0.1c0-0.1,0-0.1,0.2,0
		c-0.1,0.1-0.1,0.1,0,0.1c0.1-0.1,0.2-0.1,0.2-0.1c0,0,0,0.1-0.1,0.1c-0.1,0-0.1,0.1-0.1,0.1c0.2-0.1,0.3-0.2,0.4-0.2c0,0,0,0,0,0.1
		c0,0,0,0,0,0.1c0.4-0.1,0.6-0.3,0.7-0.5c0,0.1,0,0.1,0,0.1c0,0,0,0,0,0s0,0,0,0c0,0,0,0.1,0,0.3c0.1,0,0.1-0.1,0.2-0.2
		c0.1-0.1,0.1-0.2,0.2-0.2c-0.2,0.5-0.3,0.7-0.3,0.6c0.2-0.2,0.3-0.4,0.3-0.6c0,0-0.1,0-0.1,0c-0.1,0-0.1,0-0.1-0.1
		c0-0.1,0.1-0.2,0.1-0.2c0.1-0.1,0.1-0.1,0.1-0.2c0,0-0.1,0.1-0.2,0.2C20.1,22.8,20,22.9,20,23c0-0.1,0.1-0.3,0.2-0.4
		c0.2-0.2,0.3-0.4,0.3-0.4c0.1,0-0.1,0.2-0.7,0.6c0.2-0.3,0.3-0.4,0.3-0.6c0,0.1,0,0.1-0.1,0c0.2-0.3,0.3-0.5,0.3-0.5
		c0,0-0.1,0-0.1,0.1c0,0.1-0.1,0.1-0.1,0.1c0,0,0-0.1,0-0.3c0-0.2,0-0.4,0-0.4c0,0,0,0.1,0,0.2c0,0.1,0,0.2,0,0.2
		c0.1,0.1,0.2,0,0.4-0.3c0,0-0.1,0.2-0.2,0.5c0-0.1,0-0.1,0.2,0c-0.1,0.2-0.2,0.4-0.3,0.4c0.3-0.1,0.4-0.2,0.4-0.3
		c0.1,0.1,0.1,0.2,0,0.4c0.1,0,0.1,0,0.2-0.1c0,0,0,0.1,0,0.2c0.1,0,0.3-0.3,0.5-0.6c-0.2,0.2-0.3,0.4-0.3,0.5c0-0.1,0-0.2,0.1-0.4
		c0.1-0.2,0.1-0.3,0.1-0.4c-0.1,0-0.2,0.1-0.3,0.2s-0.2,0.2-0.3,0.2c0.1-0.6,0.1-1,0.1-0.9c-0.1,0.6-0.1,0.9-0.1,0.9
		c0,0,0.1-0.1,0.2-0.2c0.1-0.1,0.2-0.2,0.2-0.2c0.1,0.1,0.1,0.2,0.1,0.3C21,22,20.9,22.1,20.9,22c0,0,0.1-0.1,0.2-0.2
		c0.1-0.1,0.1-0.2,0.2-0.2c0,0.1-0.1,0.3-0.2,0.5c-0.2,0.3-0.3,0.5-0.3,0.5c-0.1,0.1,0.2-0.6,1-2c0-0.3,0.1-0.4,0.1-0.4v0.2
		c0,0,0,0,0-0.1c-0.1,0.1-0.1,0.2,0,0.4c-0.1,0-0.2,0.3-0.4,0.8c0.2-0.4,0.4-0.9,0.9-1.4c0-0.1,0-0.3,0.1-0.6c0-0.3,0.1-0.5,0.1-0.7
		c0,0.1-0.1,0.2-0.1,0.3c-0.1,0.2-0.1,0.3-0.1,0.4c-0.1,0.1,0-0.1,0.1-0.4c0.1-0.4,0.2-0.7,0.2-0.8h0.1c0,0,0-0.1,0-0.2
		c0-0.1,0-0.2,0-0.2c-0.1,0.1-0.2,0.2-0.1,0.4c0,0,0-0.2-0.1-0.4c0-0.2,0-0.4,0-0.4c-0.3,1.3-0.4,2-0.4,2.1c0,0,0-0.4,0.1-1.4
		c0,0-0.1,0.1-0.1,0.2c0,0.1-0.1,0.2-0.1,0.2c0.2-0.4,0.3-0.9,0.2-1.5c0,0,0,0.2,0.1,0.8c0.1-0.1,0.1-0.3,0.1-0.5c0-0.3,0-0.5,0-0.5
		c0.1,0.2,0.1,0.5,0,0.9c0,0,0-0.2,0.2-0.7c-0.1,0-0.1-0.1-0.1-0.3c0-0.2,0-0.2-0.1-0.2c0,0,0-0.1,0.1-0.1c0,0,0-0.1,0-0.1
		c0,0,0-0.1,0-0.1c0,0-0.1,0.1-0.1,0.2c-0.1,0.1-0.1,0.2-0.1,0.3c-0.1-0.3,0-0.6,0.1-0.8l0,0.3c0.1-0.3,0.3-0.4,0.4-0.5
		c0,0,0,0.1,0,0.2c0.1,0,0.1-0.1,0.1-0.2c0.2,0.2,0.5,0.2,0.7,0.1c0.3-0.1,0.4-0.3,0.4-0.5c0,0-0.2,0-0.4-0.1
		c-0.2-0.1-0.3-0.1-0.5,0c0,0,0,0,0-0.1c0,0,0,0,0.1-0.1c-0.1,0-0.1,0-0.1,0.1c-0.3,0-0.5,0-0.6,0c0,0,0.1,0.1,0.1,0.2
		c0.1,0.1,0.1,0.2,0.1,0.2c0,0-0.1,0-0.1-0.1c0-0.1-0.1-0.1-0.1-0.1c0,0.1,0,0.3-0.1,0.4c0.1,0,0.1,0,0.1-0.2
		c-0.1,0-0.3,0.1-0.3,0.2c-0.1,0.2-0.2,0.3-0.2,0.3l0.1-0.2c0-0.1,0-0.1-0.1-0.1c0.1-0.4,0.2-0.5,0.2-0.4c-0.1,0-0.1-0.1-0.1-0.2
		c0-0.1,0.1-0.2,0.2-0.2c0.1,0,0.1,0.1,0.1,0.2c0.4,0,0.6-0.1,0.8-0.1c0,0-0.1-0.1-0.2-0.2c-0.1-0.1-0.1-0.2-0.2-0.3
		c0,0,0,0,0.2-0.1c0-0.1-0.1-0.2-0.2-0.2c0,0.1-0.1,0.1,0,0.2c0,0,0.1,0.1,0.1,0.1c0,0,0,0-0.1,0c0,0,0,0-0.1,0.1
		c-0.1,0-0.1-0.1-0.1-0.3c0-0.1,0.1-0.2,0.2-0.2c-0.1,0-0.1,0.1,0.1,0.2c0.1,0.1,0.2,0.1,0.2,0.1c-0.1,0-0.1,0-0.1,0.2
		c0,0,0.2-0.1,0.4-0.2c0,0,0,0.1-0.1,0.3c0,0,0.1,0,0.1-0.1c0,0,0.1,0,0,0.1c0,0,0.1,0,0.1-0.1c0,0,0-0.1,0-0.1c0.1,0,0.1,0.1,0,0.1
		c0,0,0.1,0,0.1,0c0,0,0,0,0.1,0c0,0,0,0-0.1,0c0.1-0.1,0.2-0.2,0.4-0.2c0-0.2-0.1-0.2-0.2-0.2c0.2,0,0.3,0.2,0.3,0.6
		c-0.1,0.3-0.2,0.5-0.5,0.5c0,0,0,0,0.1,0c0,0,0.1,0,0.1,0c0,0.1,0.1,0,0.3-0.2c0.1,0,0.1,0.1,0.1,0.2c0.1,0,0.1,0,0.2-0.1
		c0.1-0.1,0.1-0.1,0.1-0.1c0,0-0.1,0-0.1,0.1c0,0-0.1,0.1-0.1,0.1c0,0,0,0.1,0.1,0.4c0,0.2,0,0.3-0.1,0.3c0,0.1,0,0.2,0.1,0.3
		c0.1-0.3,0.1-0.6,0-0.9c0,0,0.1,0,0.1,0c0,0,0-0.1-0.1-0.1c0,0,0,0,0.1,0c0,0,0,0.1,0,0.1c0,0,0-0.1,0.1-0.2
		c0.1,0.1,0.2,0.2,0.2,0.2S24.4,15.3,24.3,15z M17.3,7.2c0-0.1,0-0.1,0-0.2C17.3,7.1,17.3,7.2,17.3,7.2z M18.1,22.6
		c0,0.1-0.2,0.2-0.4,0.4c-0.2,0.2-0.3,0.3-0.3,0.5c0.6-0.5,1-1.1,1.1-1.7c-0.3,0.3-0.5,0.6-0.6,0.9C18,22.7,18,22.6,18.1,22.6z
		 M17.7,25.1c-0.2,0.2-0.2,0.4-0.3,0.6c0.1-0.1,0.1-0.2,0.2-0.4c0.1-0.2,0.1-0.3,0.2-0.4c0,0.1-0.1,0.3-0.2,0.5
		c-0.1,0.2-0.1,0.3-0.2,0.4c0,0,0.1-0.2,0.2-0.3c0.1-0.1,0.1-0.2,0.2-0.3c0,0.3,0,0.5-0.2,0.6c0-0.1,0-0.1,0.2,0
		c-0.1,0.5-0.2,0.8-0.2,0.7c0,0,0,0,0.1-0.1c0,0.3-0.1,0.6-0.4,1.1c0-0.1,0-0.2,0.1-0.4c0.1-0.2,0.2-0.4,0.2-0.5
		c0,0-0.1,0.2-0.3,0.5c0-0.1,0-0.3,0.1-0.4c0.1-0.2,0.2-0.4,0.2-0.5c0.1-0.1-0.1,0.2-0.3,0.7c0,0.1,0.1-0.2,0.4-0.9
		c0,0-0.2,0.2-0.4,0.7c0-0.1,0.1-0.6,0.4-1.3c-0.1,0-0.1,0.1-0.2,0.3c-0.1,0.2-0.2,0.3-0.2,0.4c0-0.1,0.1-0.2,0.2-0.5
		c0,0,0,0-0.2,0.2C17.4,25.8,17.5,25.5,17.7,25.1z M17.7,17.1l-0.2,0.6c0-0.2,0-0.2,0-0.2S17.6,17.3,17.7,17.1z M18.6,32.3
		c0,0,0.1,0,0-0.1c0-0.1,0-0.1,0-0.1c0,0,0.1,0.2,0.4,0.7c0.1,0.3,0.1,0.6-0.2,0.7c0,0-0.1,0-0.2-0.1c0,0,0,0.1,0,0.2
		c0-0.1,0.1,0,0.2,0.1s0.1,0.2,0.1,0.3c0,0,0,0,0,0c0,0,0,0,0,0c-0.1,0-0.2-0.1-0.3-0.4c-0.3,0.2-0.4,0.2-0.3,0.1
		c0-0.2,0-0.3,0.1-0.3c0,0,0,0,0,0.1c0,0,0,0,0,0c0,0,0,0-0.1,0c0,0,0,0,0-0.1c0.1,0,0.1,0.1,0,0.2c0-0.1-0.1-0.1-0.1,0
		c-0.1,0.2-0.1,0.2-0.1,0.2c0,0-0.1-0.1-0.1-0.1c0,0,0,0,0,0.1c0,0,0,0.1,0,0.1c-0.1,0-0.1-0.1-0.1-0.2c0,0,0,0.1-0.2,0.2
		c0-0.3,0-0.5-0.1-0.6c0,0,0.1,0.1,0.1,0.4c0,0,0,0,0.1-0.1s0-0.1,0.1-0.1v0.2c0,0,0.1-0.1,0.1-0.2c0,0,0.1,0.1,0.1,0.3
		c0,0,0.1-0.1,0.1-0.3c0-0.2,0.1-0.2,0.2-0.2c0,0,0,0,0-0.1c0.4,0.3,0.6,0.4,0.5,0.4c0.1-0.1,0.1-0.2-0.1-0.4
		c-0.1-0.2-0.2-0.2-0.3-0.2c0-0.1,0-0.2,0-0.3C18.2,32.5,18.3,32.4,18.6,32.3C18.5,32.3,18.5,32.3,18.6,32.3
		c-0.1,0.1-0.1,0.2-0.2,0.2c0-0.2,0-0.3,0-0.3c0,0,0-0.1,0.1-0.2c0,0,0.1-0.1,0.1-0.2c0,0,0.1,0.1,0,0.2
		C18.6,32.1,18.5,32.2,18.6,32.3C18.5,32.3,18.5,32.3,18.6,32.3z M17.5,23.8c0.1,0,0.1,0,0.2-0.1c0.1,0,0.1-0.1,0-0.1
		c0,0-0.1,0.1-0.1,0.1C17.6,23.7,17.5,23.7,17.5,23.8z M17.9,27.3c0,0-0.1,0.2-0.3,0.8c0.3-0.5,0.4-0.9,0.4-1c0,0,0,0.1,0,0.2
		c0.1,0.2,0.1,0.4,0,0.5c0.3,0.5,0.3,0.9,0,1.4c0.1,0,0.1,0,0-0.2c0,0-0.1,0.2-0.1,0.4s0,0.3-0.1,0.4c0,0,0.1,0,0.1-0.2
		c-0.1,1.1-0.1,1.7-0.2,1.8c0.1,0,0.2-0.1,0.2-0.2c0,0,0,0.1,0,0.1c0,0.1,0,0.1,0,0.2c-0.1,0-0.1,0-0.2,0.1c0.1,0,0.1,0.1,0,0.2
		c0,0,0,0,0-0.1c0-0.1,0-0.1,0-0.1c-0.1,0,0-0.1,0.1-0.2c0,0.1,0,0.1-0.2,0c0.1-0.4,0.2-0.6,0.2-0.5c-0.1,0-0.1,0.1-0.1,0.1
		c0,0.1,0,0.1-0.1,0.1c0,0,0-0.1,0-0.2c0,0,0,0-0.1,0c0,0,0,0.1-0.1,0.1c0,0,0-0.1,0.1-0.4c0,0,0,0.1-0.1,0.3c0,0,0,0,0,0
		c0,0,0,0,0,0c0.1-0.2,0.1-0.6,0.2-1.2c-0.1,0.1-0.1,0.2-0.1,0.3c0,0.1,0,0.2-0.1,0.3c0,0,0,0,0.1,0c0,0-0.1,0.1-0.2,0.2
		c0,0,0-0.1,0.1-0.1c0-0.1,0.1-0.1,0.1-0.1c0-0.1-0.1,0-0.1,0.1c0-0.2,0.1-0.4,0.2-0.5c0,0,0,0,0,0c0,0-0.1,0-0.1,0.1
		c0,0,0-0.1,0.1-0.2c0.1-0.1,0.1-0.2,0.1-0.2c0,0,0-0.1-0.1,0c0,0-0.1,0-0.1,0.1c0,0,0-0.1,0-0.3c-0.1,0.1-0.1,0.1,0-0.1
		c0-0.2,0-0.3,0-0.3c0,0,0.1-0.1,0.2-0.4c0,0,0-0.1,0-0.3c0,0-0.1,0.1-0.1,0.1c0-0.1,0-0.2,0.1-0.4c0.1-0.2,0.2-0.4,0.1-0.5
		c0,0.1-0.1,0.2-0.2,0.4s-0.1,0.3-0.2,0.4c0,0.1,0.1-0.1,0.2-0.5c-0.1,0-0.1,0.1-0.2,0.3c-0.1,0.1-0.1,0.2-0.2,0.3
		c0-0.1,0-0.2,0.1-0.4c0.1-0.2,0.2-0.4,0.2-0.5c0,0-0.1,0.1-0.2,0.3c0,0.1-0.1,0.2-0.2,0.2C17.6,27.6,17.8,27.4,17.9,27.3z
		 M18.1,17.6c0,0.1-0.1,0.2-0.2,0.5c-0.1,0.2-0.2,0.4-0.2,0.5c0.1-0.3,0.2-0.6,0.3-0.7c0,0-0.1,0-0.2,0.1c0-0.1,0-0.3,0.1-0.6
		c0,0.1,0,0.1-0.1,0.2c-0.1,0.1-0.1,0.2-0.1,0.3C17.8,17.9,17.9,17.8,18.1,17.6z M17.7,23.3c0.1-0.1,0.2-0.2,0.2-0.3
		c0,0,0,0.1-0.1,0.1C17.7,23.2,17.6,23.3,17.7,23.3z M17.7,30.9c0-0.1,0.1-0.2,0.1-0.2c0,0,0,0-0.1,0c0,0,0,0,0-0.1c0,0,0,0,0-0.1
		c0,0,0,0,0,0.1c0.1-0.1,0.1-0.1,0.1-0.1c0,0,0,0.1-0.1,0.2C17.7,30.8,17.7,30.8,17.7,30.9z M17.8,34.3c0.1,0.1,0.2,0.1,0.3,0.1
		c0,0,0-0.1-0.1-0.1C17.8,34.3,17.8,34.3,17.8,34.3z M18.1,32.8c0.1,0,0,0.1-0.1,0.2c0-0.2,0-0.3,0-0.4c-0.1,0-0.2-0.1,0-0.2
		c0,0,0,0-0.1,0c0-0.1,0.1-0.2,0-0.2c0-0.1,0-0.2,0-0.3c0,0,0,0-0.1,0c0,0,0-0.1,0.2-0.1c0,0.1,0,0.2,0,0.3c0,0.1,0,0.1-0.1,0.2
		c0,0,0.1,0,0.1-0.1c0,0,0.1,0,0.1,0c0,0,0-0.2,0-0.3c0-0.1,0-0.2,0-0.3c0-0.1,0,0,0.1,0.3c0,0.1,0.1,0.3,0.1,0.6
		c0.1,0.3,0.1,0.5,0.1,0.6c-0.1-0.2-0.2-0.5-0.2-0.9c-0.1,0-0.1,0.1-0.1,0.2c0,0,0,0,0.1,0C18,32.8,18,32.8,18.1,32.8
		C18,32.8,18,32.8,18.1,32.8C18,32.8,18.1,32.8,18.1,32.8z M17.9,23.8c0.1,0,0.2,0,0.2-0.1s0.1-0.1,0.1-0.2c0,0-0.1,0.1-0.1,0.1
		C17.9,23.7,17.9,23.7,17.9,23.8z M17.9,23.7c0.1-0.2,0.1-0.3,0.2-0.3C18,23.6,17.9,23.7,17.9,23.7z M17.9,34.5
		c0.1,0,0.2,0.1,0.2,0.1c0,0,0-0.1-0.1-0.1S17.9,34.5,17.9,34.5z M18.5,22.6c-0.2,0-0.4,0.3-0.5,0.8c0.2,0,0.3-0.1,0.3-0.3
		c0,0,0.1-0.1,0.1-0.2C18.4,22.7,18.5,22.6,18.5,22.6z M18.2,28.5c0-0.3-0.1-0.6-0.1-0.7C18,28.3,18,28.4,18,28.4
		c0,0.1,0,0.1,0.1,0.2C18.1,28.6,18.1,28.5,18.2,28.5z M18,33.1c0,0,0-0.1,0-0.1c0,0,0.1,0,0.1,0.1C18,33.1,18,33.1,18,33.1z
		 M18.1,25.9c0,0,0-0.2,0.1-0.3c0-0.1,0-0.2,0-0.3h-0.1c0,0,0,0.2,0,0.3C18,25.8,18,25.9,18.1,25.9z M18.2,24.4
		C18.2,24.4,18.2,24.3,18.2,24.4c0.1-0.1,0.1-0.1,0.1-0.1c-0.1,0-0.1,0-0.1-0.1c0,0,0,0,0,0c0,0,0,0,0,0c0,0,0,0-0.1,0
		c0,0.1,0,0.1,0,0.1C18,24.1,18,24,18.1,24l0,0.2c0,0,0,0,0,0S18.1,24.2,18.2,24.4z M18.2,28.6C18.1,28.6,18.1,28.6,18.2,28.6
		c-0.1,0-0.1,0.1-0.1,0.1C18.1,28.8,18.1,28.8,18.2,28.6C18.1,28.6,18.1,28.6,18.2,28.6z M18.1,25.3c0,0,0-0.1,0.1-0.1
		c0-0.1,0-0.1-0.1-0.1c0,0,0,0,0,0.1C18.1,25.2,18.1,25.2,18.1,25.3z M18.1,33.1L18.1,33.1C18.1,33.1,18.1,33.1,18.1,33.1
		C18.1,33.1,18.1,33.1,18.1,33.1z M18.1,23.7c0.2-0.2,0.3-0.3,0.3-0.3C18.4,23.4,18.3,23.5,18.1,23.7z M18.1,33.2
		c0,0.1,0.1,0.2,0.2,0.3C18.3,33.4,18.3,33.3,18.1,33.2z M18.4,23.5c-0.1,0.2-0.2,0.3-0.3,0.4c0.1,0,0.1-0.1,0.2-0.2
		C18.4,23.7,18.4,23.6,18.4,23.5z M18.2,25.2c0,0,0-0.1,0.1-0.2c0-0.1,0.1-0.1,0-0.2C18.1,25,18.1,25.1,18.2,25.2z M18.3,24.8
		c0-0.1,0.1-0.2,0.3-0.3c0.1-0.2,0.2-0.3,0.3-0.4c0,0-0.1,0-0.1,0c0,0,0,0,0,0.1c0,0,0,0,0,0c0,0,0,0,0,0c0,0,0,0-0.1,0.1
		c-0.1,0.1-0.1,0.1-0.2,0.1c-0.1,0-0.2,0.1-0.3,0.3C18.2,24.8,18.2,24.8,18.3,24.8C18.3,24.8,18.2,24.8,18.3,24.8
		C18.3,24.8,18.3,24.8,18.3,24.8z M18.3,34.3c0,0.1,0,0.1,0.1,0.1c0.1,0,0.1,0,0.1-0.1C18.4,34.3,18.4,34.3,18.3,34.3
		C18.3,34.3,18.3,34.3,18.3,34.3z M18.3,9.4c0,0,0.1,0.1,0.1,0.1c0,0.1,0.1,0.1,0.1,0.1c0-0.1,0-0.1-0.1-0.2
		C18.3,9.4,18.3,9.3,18.3,9.4z M18.8,16.9c0,0.1,0,0.2-0.1,0.3c-0.1,0.2-0.2,0.3-0.2,0.3c0,0,0,0.1,0.1,0.1c0,0,0.1,0,0.1,0.1
		c0,0.1-0.1,0.2-0.2,0.4c-0.1,0.1-0.2,0.2-0.2,0.3c0,0.1,0.1-0.1,0.3-0.6c0,0,0-0.1-0.1-0.1c0,0-0.1-0.1-0.1-0.1
		c0-0.1,0.1-0.3,0.3-0.5c0,0,0-0.1-0.1,0c0,0,0,0.1-0.1,0.1C18.8,17.2,18.8,17.1,18.8,16.9z M18.6,30.1c0,0-0.1,0.1-0.1,0.2
		c0,0.1-0.1,0.1-0.1,0.1c0.1-0.2,0.2-0.3,0.2-0.4c0,0,0,0.1-0.2,0.2C18.4,30.2,18.4,30.1,18.6,30.1c0-0.2,0-0.2,0-0.3
		c0,0-0.1,0.1-0.1,0.2c0,0.1-0.1,0.1-0.1,0.1c0,0,0-0.1,0.1-0.2c0.1-0.1,0.1-0.2,0.1-0.2C18.6,29.7,18.7,29.9,18.6,30.1
		c0,0.4,0,0.6,0,0.6c0,0,0,0.1,0,0.3c0,0.1,0,0.2,0,0.2c-0.1,0.1-0.1,0.2,0.1,0.5c0,0,0-0.1-0.1-0.1c-0.1,0.1-0.1,0.2-0.1,0.3
		c0-0.2,0-0.3,0-0.5c0,0,0,0,0,0c0,0,0,0,0,0.1c-0.1,0,0-0.1,0.1-0.2c0,0,0,0-0.1,0c0,0,0,0-0.1,0.1c0,0,0-0.1,0.1-0.3
		c0,0,0-0.1-0.1,0c0,0,0,0.1-0.1,0.1c-0.1-0.1,0-0.2,0.1-0.4c0,0.1,0,0.1-0.1,0c0,0,0-0.1,0.1-0.1c0,0,0.1-0.1,0.1-0.1
		c0-0.1-0.1,0-0.1,0.1c0,0,0-0.1,0.1-0.2C18.5,30.3,18.6,30.2,18.6,30.1z M18.4,30c0-0.2,0.1-0.4,0.3-0.5
		C18.5,29.7,18.4,29.8,18.4,30z M19.2,16.5C19.2,16.4,19.2,16.4,19.2,16.5c-0.1,0.1-0.2,0.2-0.2,0.2c0,0,0.1,0.1,0.1,0
		c0,0,0.1,0,0.1,0c0,0,0,0.1-0.1,0.1c-0.1,0-0.1,0.1-0.1,0.1c-0.1,0-0.1,0,0-0.1l0.1-0.1c-0.1,0-0.2,0.1-0.3,0.2
		c-0.1,0.2-0.2,0.4-0.3,0.4c0.1-0.1,0.2-0.2,0.3-0.4s0.3-0.3,0.3-0.4c0,0-0.1,0-0.1,0c0,0.1-0.1,0.1-0.1,0.1
		c0.1-0.1,0.2-0.3,0.4-0.4c-0.1,0-0.1,0.1-0.1,0.1c0,0,0,0.1,0,0.1S19.1,16.5,19.2,16.5z M18.7,23.5c-0.2,0.2-0.3,0.3-0.3,0.4
		c0,0,0.1-0.1,0.2-0.2C18.7,23.6,18.7,23.5,18.7,23.5z M18.5,24.9c0-0.1,0.1-0.1,0.2-0.2c0,0-0.1,0,0-0.1c0,0,0-0.1,0-0.1
		C18.5,24.9,18.5,25,18.5,24.9z M18.8,16.1c0,0.1-0.1,0.2-0.4,0.3c0,0,0.1-0.1,0.2-0.2C18.8,16.2,18.8,16.1,18.8,16.1z M19.1,23.5
		c-0.4,0.1-0.6,0.3-0.6,0.5c0.1-0.1,0.1-0.2,0.3-0.3C18.9,23.6,19,23.5,19.1,23.5z M18.7,32.7c-0.1,0-0.2,0-0.2-0.1
		c0,0,0,0.1,0.1,0.1C18.7,32.7,18.7,32.7,18.7,32.7z M18.6,15.9c0.2,0,0.4,0,0.5-0.2C18.8,15.8,18.6,15.8,18.6,15.9z M18.6,28.7
		l0.1-0.1c0,0,0-0.1,0-0.1c0,0.2,0,0.3,0,0.3S18.6,28.7,18.6,28.7z M18.6,9.6c0,0,0,0.1,0,0.2c0,0,0.1,0,0.1,0
		C18.7,9.7,18.7,9.7,18.6,9.6C18.7,9.6,18.7,9.6,18.6,9.6z M18.6,24.4c0.1,0,0.1,0,0.2-0.1c0-0.1,0.1-0.1,0-0.2c0,0-0.1,0.1-0.1,0.1
		C18.7,24.3,18.7,24.4,18.6,24.4z M18.9,24.6c-0.1,0-0.1,0.1-0.2,0.1c-0.1,0.1-0.1,0.1-0.1,0.2C18.8,24.9,18.9,24.8,18.9,24.6
		C19,24.6,18.9,24.6,18.9,24.6z M18.8,25.1c0.1-0.1,0.2-0.3,0.3-0.4c-0.1,0-0.1,0.1-0.1,0.1C18.8,24.9,18.7,25,18.8,25.1
		C18.7,25,18.7,25,18.8,25.1z M19,33.2c0-0.4-0.1-0.6-0.3-0.5c0,0,0.1,0.1,0.1,0.2c0.1,0.1,0.1,0.2,0.1,0.2c-0.1,0-0.1,0-0.1-0.1
		C18.8,33,18.9,33.1,19,33.2z M18.7,33.1c0,0,0.1,0,0.1,0.1c0,0.1,0.1,0.1,0.1,0c0,0-0.1,0-0.1-0.1S18.8,33,18.7,33.1z M18.8,27.2
		c0.3-0.4,0.4-0.6,0.4-0.5C18.9,27.1,18.8,27.3,18.8,27.2z M18.8,10.3c0,0,0.1,0,0.1,0c0,0,0.1,0,0.1,0
		C18.9,10.4,18.8,10.3,18.8,10.3C18.9,10.2,18.9,10.3,18.8,10.3C18.8,10.3,18.8,10.3,18.8,10.3z M18.8,26.1c0,0,0.2-0.2,0.4-0.4
		c0.2-0.2,0.3-0.3,0.3-0.4C19.2,25.6,19,25.9,18.8,26.1z M19.1,28c0,0,0-0.1,0-0.2c0-0.1,0-0.1,0-0.2c0,0.1,0,0.1-0.1,0.2
		c-0.1,0-0.1,0.1-0.1,0.1C18.9,27.9,19,27.9,19.1,28C19,28,19,28,19.1,28z M19.1,15.5c0.1,0,0.1,0,0.2,0c0,0,0,0-0.1,0
		c-0.1,0-0.3,0-0.3,0.1C18.9,15.5,18.9,15.5,19.1,15.5z M18.9,24.4c0-0.1,0.1-0.2,0.2-0.3c0.1-0.1,0.1-0.2,0.1-0.3
		C19,24.1,18.9,24.3,18.9,24.4z M19.2,23.6C19.1,23.7,19,23.8,19,24c0,0,0.1-0.1,0.2-0.2C19.2,23.7,19.2,23.6,19.2,23.6z M19,25
		c0.3-0.3,0.4-0.4,0.4-0.4C19.1,24.7,19,24.9,19,25z M19.7,23.9c0,0-0.1,0,0-0.1c0,0,0.1-0.1,0-0.1C19.3,24,19,24.3,19,24.4
		c0.1,0,0.3-0.1,0.4-0.2C19.6,24,19.7,23.9,19.7,23.9z M19.4,9.7c0,0-0.1,0-0.2,0c-0.1,0-0.2,0-0.2,0c0.2-0.1,0.4-0.1,0.5,0.1
		C19.6,9.7,19.5,9.7,19.4,9.7c0,0.1-0.1,0.1-0.1,0C19.3,9.7,19.3,9.7,19.4,9.7z M19.4,23.5c0,0-0.1,0.1-0.3,0.3
		c0.1,0,0.2-0.1,0.2-0.1C19.4,23.6,19.5,23.6,19.4,23.5z M19.5,19.9c0-0.1-0.1-0.2,0-0.4c0-0.2,0-0.3,0-0.4c0,0,0,0.1-0.2,0.3
		c0-0.1,0.1-0.5,0.4-1.3c0.1-0.1,0,0.1-0.1,0.5c-0.1,0.4-0.2,0.6-0.2,0.6c0,0,0.1-0.1,0.2-0.2c-0.1-0.1-0.1,0.2,0,0.7
		c0,0,0.1,0,0.2,0c0.1,0.1,0.2,0.4,0.3,0.7c0,0,0,0.1,0,0.1c0,0,0,0,0,0c0-0.2-0.1-0.4-0.2-0.7H19.5z M19.8,23.4
		c-0.2,0.2-0.4,0.4-0.4,0.5c0.1,0,0.2-0.1,0.4-0.2c0.1-0.1,0.2-0.2,0.2-0.2C19.9,23.4,19.9,23.4,19.8,23.4c0,0.1,0,0.1,0,0.1
		C19.7,23.4,19.7,23.4,19.8,23.4z M19.4,24.4c0.3-0.3,0.4-0.5,0.5-0.7C19.6,24.3,19.4,24.5,19.4,24.4z M19.4,10.7c0,0,0.1,0,0.2,0
		c0.1,0,0.1,0,0.2,0.1c0-0.1,0-0.1-0.2-0.1c0,0.1,0.1,0.2,0.1,0.2C19.7,11,19.7,10.9,19.4,10.7c0.1,0,0.1,0.1,0.1,0.3
		C19.4,10.9,19.4,10.9,19.4,10.7z M19.6,17c-0.1,0.1-0.1,0.2-0.2,0.2C19.5,17.1,19.6,17.1,19.6,17z M19.8,11.1
		c-0.1,0.1-0.1,0.1-0.2,0.1c0.1-0.1,0.1-0.2-0.1-0.1c0-0.1,0-0.1,0.1-0.1C19.7,11.1,19.7,11.1,19.8,11.1z M19.6,10.5
		C19.6,10.4,19.5,10.4,19.6,10.5C19.6,10.4,19.6,10.4,19.6,10.5z M19.6,17C19.6,17,19.6,17,19.6,17c0.1-0.1,0.1-0.1,0.2-0.2
		C19.7,16.9,19.7,17,19.6,17z M19.6,24.3c0.4-0.2,0.6-0.4,0.5-0.6c0,0-0.1,0-0.2,0c0,0.1-0.1,0.2-0.2,0.3S19.7,24.2,19.6,24.3z
		 M20.2,16.6C20.2,16.7,20.1,16.7,20.2,16.6C20.1,16.7,20.1,16.7,20.2,16.6c-0.1,0.1-0.1,0.1-0.2,0.2c-0.1,0.1-0.2,0.1-0.2,0.2
		c0,0,0-0.1,0.2-0.2C20,16.7,20.1,16.7,20.2,16.6z M19.7,11.3C19.7,11.3,19.7,11.2,19.7,11.3l0.1-0.2c0.1,0,0.2,0,0.3,0
		c0,0.1,0,0.1,0,0.1c0,0,0.1-0.1,0.1-0.1c0,0,0,0.1,0,0.2c0,0.1,0,0.1,0,0.2c-0.3,0.1-0.4,0.1-0.4,0.1c0.1-0.1,0.2-0.2,0.2-0.3
		c0,0-0.1,0-0.2,0.1c0-0.1,0-0.2,0.1-0.2c0,0,0,0-0.1,0c0,0.1-0.1,0.1-0.1,0.1c0-0.1,0.1-0.1,0.1-0.1C20,11.3,19.9,11.3,19.7,11.3
		c0.1,0,0.1,0,0.1-0.1c0,0,0,0,0-0.1L19.7,11.3z M20.6,15.9c0,0.2-0.3,0.5-0.8,1C20,16.6,20.3,16.3,20.6,15.9
		C20.6,15.9,20.6,15.9,20.6,15.9z M20,23.5c-0.1,0.3-0.2,0.4-0.2,0.3c0,0,0.1,0,0.3-0.2C20.1,23.5,20.1,23.5,20,23.5
		C20,23.4,20,23.4,20,23.5C20,23.4,20,23.4,20,23.5z M19.9,10.5c0,0.1,0.1,0.1,0.2,0.2c0,0,0-0.1-0.1-0.1
		C19.9,10.5,19.9,10.5,19.9,10.5z M19.9,24.8c0.1,0,0.1,0,0.2-0.1c0-0.1,0.1-0.1,0-0.1c0,0,0,0.1-0.1,0.1
		C20,24.7,19.9,24.8,19.9,24.8z M20.3,10.9c0,0-0.1,0-0.2,0.1c0-0.1,0-0.1-0.2-0.1c0,0,0,0,0.1,0C20.2,10.9,20.3,10.9,20.3,10.9z
		 M20.3,14.9C20.1,15,20,15,20,15.2c0,0,0.1-0.1,0.2-0.1C20.2,14.9,20.3,14.9,20.3,14.9z M22.6,20.4c0,0.1,0-0.1,0.2-0.4
		c-0.1,0-0.1,0-0.1-0.1c0.2-0.3,0.4-0.8,0.4-1.5c-0.2,0.6-0.3,0.9-0.2,0.9l0-0.1c0,0.2-0.1,0.3-0.1,0.4c0,0,0,0-0.1,0c0,0,0,0,0,0
		c0,0,0,0,0,0c0,0-0.1-0.1,0-0.2c0-0.2,0-0.3,0-0.4c0,0.1-0.1,0.3-0.1,0.6c0,0.3,0,0.4-0.1,0.5c-0.1,0.1-0.2,0.3-0.4,0.6
		c-0.1,0.2-0.2,0.4-0.3,0.5c0.1,0.1,0.2,0.1,0.3-0.2c0.1-0.3,0.2-0.5,0.2-0.5c0,0.1,0,0.1,0,0.1c0,0.1-0.1,0.3-0.2,0.7
		c-0.1,0.3-0.2,0.5-0.2,0.7c0-0.1,0-0.2,0.1-0.4c0-0.2,0.1-0.3,0.1-0.4c-0.1,0.2-0.2,0.4-0.3,0.7c-0.2,0.3-0.3,0.6-0.3,0.6
		c0-0.1,0.1-0.3,0.3-0.6c0.1-0.2,0.2-0.4,0.2-0.6c-0.2,0.2-0.4,0.6-0.7,1.1c-0.3,0.5-0.5,0.9-0.6,1.1c0-0.1-0.1,0-0.2,0.1
		c-0.1,0.1-0.1,0.2-0.1,0.2c0-0.1,0-0.1-0.1,0s-0.1,0.1,0,0.1c0,0,0.1,0,0.1,0c0.4-0.6,0.6-0.9,0.6-0.8c0,0.1,0,0.1,0,0.2
		c0.2-0.2,0.5-0.6,1-1.3c0,0-0.1,0.1-0.1,0.1c0,0.1,0,0.1-0.1,0.2l0.4-0.7v-0.3c0.1,0,0.1-0.1,0.2-0.2c0.1-0.1,0.1-0.2,0.1-0.2
		c0-0.4,0-0.7,0.2-0.6c-0.2,0.2-0.2,0.3-0.1,0.4c0,0,0.1-0.1,0.1-0.2C22.5,20.5,22.5,20.4,22.6,20.4c-0.1,0-0.1-0.1-0.1-0.2
		c0-0.1,0-0.2,0-0.2c0,0,0,0-0.1,0.1c0.1-0.2,0.1-0.4,0.2-0.5c0,0.1,0,0.2,0,0.4c0,0.2-0.1,0.2-0.1,0.2S22.6,20.3,22.6,20.4z
		 M20.1,22.8c0.2-0.2,0.3-0.3,0.5-0.4c0,0,0-0.1,0-0.1c0-0.1,0-0.1,0-0.1c0,0.1-0.1,0.2-0.3,0.4C20.2,22.6,20.1,22.7,20.1,22.8z
		 M20.1,21.8c0,0,0.1,0,0.1-0.1c0-0.1,0-0.1,0-0.1C20.2,21.7,20.1,21.8,20.1,21.8z M20.3,15.2c0.3-0.1,0.5-0.3,0.5-0.6
		c0,0.1-0.1,0.2-0.3,0.3C20.4,15,20.3,15.1,20.3,15.2z M20.4,22.9c0.3,0,0.4-0.2,0.4-0.5C20.5,22.7,20.4,22.9,20.4,22.9z M20.9,17.3
		c-0.4,0.6-0.6,0.9-0.5,0.9c0,0,0.1-0.3,0.5-1c0,0,0,0.1,0,0.3C21,17.5,21,17.4,20.9,17.3z M20.5,17.8
		C20.4,17.9,20.4,17.9,20.5,17.8c0-0.1,0-0.3,0.1-0.4C20.6,17.4,20.6,17.5,20.5,17.8z M20.7,22.4c0,0-0.1,0-0.1,0.1
		c0,0.1,0,0.1,0,0.1C20.5,22.7,20.6,22.6,20.7,22.4z M20.6,23c0-0.2,0-0.3,0.1-0.2C20.5,22.9,20.5,23,20.6,23z M20.8,11.2
		c0-0.1,0-0.1-0.1-0.2c-0.1-0.1-0.1-0.1-0.2-0.1C20.6,10.9,20.7,11,20.8,11.2z M21.1,14.7c0,0.1-0.1,0.1-0.2,0.2
		c-0.2,0.1-0.2,0.2-0.3,0.2c0.1-0.1,0.1-0.1,0.1-0.1c0,0,0,0,0,0.1c-0.1,0-0.1,0-0.2,0c0-0.1,0.1-0.2,0.2-0.2
		C20.9,14.8,21,14.8,21.1,14.7z M20.6,7.6C20.6,7.6,20.6,7.6,20.6,7.6C20.6,7.6,20.6,7.6,20.6,7.6C20.6,7.6,20.6,7.6,20.6,7.6z
		 M20.6,7.7c0,0,0,0,0,0.1L20.6,7.7L20.6,7.7C20.6,7.7,20.6,7.7,20.6,7.7C20.6,7.7,20.6,7.7,20.6,7.7z M20.8,16.8
		c0-0.1-0.1,0.1-0.1,0.5c0,0,0-0.1,0-0.2C20.8,16.9,20.8,16.8,20.8,16.8z M20.7,23.7c0-0.2,0.1-0.3,0.2-0.3
		C20.8,23.6,20.7,23.7,20.7,23.7z M20.9,17.6c0,0,0,0.1-0.1,0.3c-0.1,0.3-0.1,0.4-0.1,0.6C20.6,18.4,20.7,18.1,20.9,17.6z M21,21
		c0,0,0-0.2,0.2-0.5c0.1-0.4,0.2-0.6,0.2-0.7c0,0.1-0.1,0.2-0.1,0.3c0,0.2-0.1,0.3-0.1,0.3c0-0.1,0.1-0.3,0.1-0.6
		c0,0.1-0.1,0.2-0.1,0.4c0,0.2-0.1,0.3-0.1,0.4c0-0.1,0-0.3,0-0.5c0-0.2,0-0.4,0-0.5c0-0.1,0-0.2-0.1-0.3c-0.1-0.1-0.1-0.2-0.1-0.3
		c0-0.2,0-0.3,0.1-0.5c0.1-0.3,0.1-0.4,0.2-0.5c0,0.1,0,0.3-0.1,0.5c-0.1,0.2-0.1,0.4-0.1,0.5c0,0.1,0.1,0.2,0.2,0.5
		c0.1,0.2,0.1,0.4,0,0.6c0,0,0.1-0.1,0.1-0.1c0-0.1,0-0.1,0.1-0.1c0.1,0.1,0.1,0.2,0,0.3c0,0,0.1-0.1,0.1-0.2c0-0.1,0.1-0.1,0.1-0.2
		C21.3,20.1,21.2,20.6,21,21z M21.1,12.5C21.1,12.5,21.1,12.5,21.1,12.5C21,12.5,21,12.6,21.1,12.5c0,0.1,0.1,0.1,0.1,0.2
		C21.1,12.7,21.1,12.7,21.1,12.5C21.1,12.5,21.1,12.5,21.1,12.5z M21,12.7c0,0,0.1,0.1,0.1,0.1c0,0.1,0.1,0.1,0.1,0.1
		c0-0.1,0-0.1-0.1-0.2C21.1,12.7,21,12.7,21,12.7z M21.1,10.4C21.1,10.4,21.2,10.4,21.1,10.4c0.1-0.1,0.1-0.2,0.1-0.1
		c0,0-0.1,0-0.1-0.1c0-0.1,0-0.1,0.1-0.1c0,0-0.1,0-0.1,0.1c0,0.1,0,0.1,0,0.1c0-0.1,0-0.1,0,0C21.1,10.4,21.1,10.4,21.1,10.4z
		 M21.4,11.7c0.1,0,0.2,0,0.3,0c0.1,0,0.2,0,0.3,0c-0.1,0-0.2-0.1-0.3-0.1c-0.1,0-0.2,0-0.2,0.1c-0.1,0-0.1-0.1-0.1-0.1
		c0,0,0.1,0,0.1,0c0,0-0.1,0-0.2-0.1c-0.1-0.1-0.1-0.1-0.2-0.1c0,0,0.1,0.1,0.2,0.1c0.1,0,0.1,0.1,0.2,0.1
		C21.5,11.6,21.4,11.6,21.4,11.7z M21.2,11.3C21.2,11.3,21.2,11.3,21.2,11.3C21.1,11.3,21.1,11.3,21.2,11.3c0.1,0,0.1,0,0.1,0
		C21.3,11.3,21.2,11.3,21.2,11.3l0.2-0.1c0,0.1,0,0.1,0.2,0.2c0.1,0.1,0.2,0.1,0.3,0.1c-0.1,0-0.2-0.1-0.3-0.1
		c-0.1-0.1-0.2-0.1-0.2-0.1c0.1,0,0.1,0,0.1-0.1c-0.1-0.1-0.2-0.1-0.3-0.1C21.1,11.3,21.1,11.3,21.2,11.3z M21.3,12.2
		C21.3,12.1,21.3,12.1,21.3,12.2c0.1-0.1,0.1-0.1,0.1-0.2c-0.2,0.1-0.2,0.2-0.2,0.2C21.2,12.1,21.2,12.1,21.3,12.2z M21.8,11.4
		c0-0.1-0.2-0.2-0.5-0.3C21.4,11.1,21.5,11.2,21.8,11.4z M22,18.6c0,0.1,0,0.3-0.1,0.5c-0.1,0.2-0.1,0.4-0.2,0.5c0,0.1,0,0.1,0,0.2
		c0,0-0.1-0.1-0.1-0.1c0-0.1,0.1-0.2,0.1-0.5c0.1-0.2,0.1-0.3,0.2-0.5c-0.2,0.1-0.3,0.4-0.3,0.7c-0.1,0.8-0.1,1.1-0.1,1
		c0-0.3,0-0.8,0-1.5c-0.1-0.6-0.1-1.1,0-1.4c0,0,0,0.3,0,0.8l0.1-0.3c0,0.1,0,0.3,0,0.5c0,0.2-0.1,0.4,0,0.6
		c0.1-0.1,0.1-0.2,0.2-0.3C21.8,18.8,21.9,18.7,22,18.6C21.9,18.7,21.9,18.7,22,18.6z M21.5,17.6c0-0.1,0-0.2,0.1-0.3
		C21.5,17.4,21.5,17.5,21.5,17.6z M21.6,13.7c-0.1,0-0.1,0.1,0,0.3c0,0,0.1,0,0.1-0.1C21.7,13.8,21.7,13.8,21.6,13.7
		c0,0,0,0.1,0,0.3c0,0,0.1-0.1,0.1-0.1c0,0-0.1,0.1,0,0.3c0,0,0.1-0.1,0.1-0.1c0,0,0,0.1,0,0.1c0,0,0,0,0.1,0c0,0,0,0.1,0,0.1
		c0,0.1,0,0.1,0,0.1c0,0,0,0,0,0c0,0,0,0,0,0c0,0,0,0-0.1-0.1l0,0.3c0,0,0.1,0,0.1,0.1c0,0.2,0.1,0.3,0.2,0.3
		c-0.1,0-0.2-0.2-0.3-0.4c-0.1-0.3-0.2-0.5-0.2-0.6c0.1-0.1,0.1-0.2,0.1-0.2S21.6,13.7,21.6,13.7z M21.6,15.9c0,0,0,0.1,0,0.2
		c0,0.1-0.1,0.2-0.1,0.2C21.6,16.3,21.6,16.2,21.6,15.9z M21.7,20.7c0,0,0-0.1,0-0.3c0-0.2,0.1-0.3,0.1-0.4
		C21.8,20.4,21.8,20.6,21.7,20.7z M21.7,19.8c0,0.1,0,0.2,0,0.3C21.7,19.9,21.7,19.8,21.7,19.8z M21.9,10.5c-0.2,0.4-0.2,0.6,0,0.6
		l0-0.2c0-0.1,0-0.2,0-0.2c0,0.2-0.1,0.3-0.1,0.3c0,0,0-0.1,0.1-0.3C21.9,10.6,21.9,10.5,21.9,10.5C21.9,10.5,21.9,10.5,21.9,10.5z
		 M22.1,17c0,0,0,0.1-0.1,0.3c0,0.2,0,0.3,0.1,0.4c0,0,0-0.1,0-0.2c0-0.1-0.1-0.2-0.1-0.3c0.1,0.2,0.2,0.4,0.1,0.6
		c-0.1,0-0.2-0.2-0.2-0.4C22,17.2,22,17,22.1,17z M22.2,14.5c0,0,0,0.1,0,0.3c0,0.1,0,0.2,0,0.3C22.1,15,22.1,14.8,22.2,14.5z
		 M22.2,15.8c0.3-0.2,0.3-0.3,0.2-0.4c0,0.1,0,0.2-0.1,0.2C22.2,15.7,22.2,15.8,22.2,15.8z M22.3,16.8c0,0,0,0.1,0,0.3
		C22.3,17,22.3,17,22.3,16.8c-0.1,0,0,0.1,0,0.1C22.3,16.9,22.3,16.8,22.3,16.8z M22.3,20.5c0,0,0,0.1,0,0.1l0,0
		C22.2,20.6,22.2,20.6,22.3,20.5C22.2,20.6,22.2,20.6,22.3,20.5z M22.3,20.5C22.2,20.5,22.2,20.5,22.3,20.5
		C22.3,20.4,22.3,20.5,22.3,20.5z M22.4,20.9c0,0,0,0.1-0.1,0.1C22.4,21,22.4,21,22.4,20.9z M22.5,20.1L22.5,20.1
		C22.5,20.1,22.5,20.1,22.5,20.1z M22.6,17.1c0.2-0.2,0.2-0.3,0.1-0.4c0-0.2,0-0.3,0-0.3c0,0,0,0.1-0.1,0.2
		C22.5,16.8,22.5,17,22.6,17.1z M22.7,12.7C22.8,12.7,22.8,12.7,22.7,12.7c0,0.2-0.1,0.2-0.1,0.2c0,0,0.1-0.1,0.1-0.1
		c0.1-0.1,0.1-0.1,0.2-0.1c0,0.2-0.1,0.4-0.4,0.5C22.5,13.1,22.6,12.9,22.7,12.7z M22.9,12.8c0,0.1-0.1,0.1-0.2,0.2
		s-0.1,0.2-0.2,0.2C22.8,13.1,22.9,12.9,22.9,12.8z M22.7,16.1c-0.1,0-0.2,0-0.2,0C22.6,16.1,22.6,16.1,22.7,16.1
		c0,0.1,0,0.1-0.1,0.1c0,0,0,0,0.1,0V16.1z M22.7,18c0,0,0-0.1,0-0.2s0-0.2,0-0.2c-0.1,0-0.1,0-0.1,0.2C22.6,17.8,22.6,17.9,22.7,18
		z M22.7,16.7c-0.1,0.5-0.1,0.7-0.1,0.8v0h0c0,0,0,0.1,0,0.1c0,0,0-0.1,0.1-0.1c0,0,0-0.1,0-0.1c0,0,0,0,0,0.1c0,0,0,0.1,0,0.1
		c0,0,0,0,0,0c0.1-0.2,0.1-0.3,0.1-0.3S22.7,17,22.7,16.7z M22.7,20.6c0,0,0-0.1,0.1-0.2c0-0.1,0-0.1,0-0.2c0,0,0,0.1-0.1,0.2
		C22.7,20.5,22.7,20.6,22.7,20.6z M22.9,18.3c-0.2,0.2-0.3,0.4-0.2,0.7c0,0,0-0.1,0-0.1c0,0,0,0,0,0c0,0.4,0,0.6,0,0.5
		c0,0,0-0.1,0-0.1c0-0.1,0-0.1,0-0.2c0-0.1,0.1-0.2,0.1-0.1c0,0,0-0.2,0.1-0.5c0,0-0.1,0-0.1,0s0,0-0.1,0
		C22.9,18.4,23,18.3,22.9,18.3z M22.7,18.3c0,0.2,0,0.3,0,0.3C22.7,18.4,22.7,18.3,22.7,18.3z M22.8,20c0-0.2,0-0.3,0.1-0.3
		c0,0,0,0.1-0.1,0.1C22.7,19.9,22.7,19.9,22.8,20z M22.9,17.2c0,0.1,0,0.2-0.1,0.3c-0.1,0.1-0.1,0.2,0,0.3c0-0.1,0-0.2,0.1-0.2
		c0,0,0,0.1,0,0.2c0,0.1,0,0.1,0,0.1c0.1-0.3,0.1-0.6,0.1-0.9C22.9,17.1,22.9,17.1,22.9,17.2C22.8,17.3,22.8,17.3,22.9,17.2
		C22.8,17.3,22.9,17.3,22.9,17.2z M22.9,16.5c-0.1,0.1-0.1,0.2-0.1,0.3C22.9,16.7,22.9,16.6,22.9,16.5z M22.9,14.2l0.2-0.1
		c0.1,0,0.2-0.1,0.1-0.2c0,0,0.1,0.1,0.4,0.1c0,0,0,0,0,0c0,0,0,0.1,0,0.1c0,0.1,0,0.1,0,0.1c-0.1,0-0.1,0-0.1,0c0,0-0.1,0-0.4,0
		c0.1-0.1,0.1-0.1,0-0.1s-0.1,0-0.2,0.1c0,0-0.1,0-0.2-0.1c0,0,0.1,0,0.2,0C23,14.2,23,14.2,22.9,14.2z M22.8,18.3
		c0.1-0.1,0.2-0.3,0.2-0.5c0-0.3,0-0.5,0.1-0.6c-0.1,0.1-0.1,0.3-0.2,0.5C22.9,18,22.9,18.2,22.8,18.3z M23,19.5c0-0.3,0-0.5,0-0.5
		C23,19.4,23,19.6,23,19.5z M23.1,16.5c-0.1,0-0.1,0.1-0.1,0.3c0,0.2,0,0.3,0.1,0.3c0-0.1,0-0.2,0-0.3
		C23.1,16.6,23.1,16.5,23.1,16.5z M23.2,10.7c-0.1,0-0.2,0.1-0.2,0.1C23,10.7,23,10.7,23.2,10.7z M23,20c0.1-0.1,0.2-0.2,0.1-0.4
		c0,0-0.1,0.1-0.1,0.1C23.1,19.8,23.1,19.9,23,20z M23.2,18.3c0,0-0.1-0.1,0-0.2c0-0.1,0-0.1,0-0.1c0,0-0.1,0.1-0.1,0.2
		C23,18.2,23,18.3,23.2,18.3L23.2,18.3C23.1,18.2,23.1,18.3,23.2,18.3C23.1,18.3,23.1,18.3,23.2,18.3z M23.5,15.8
		c0,0.1,0,0.1-0.1,0.2c-0.1,0-0.2,0-0.3,0c0,0,0.1-0.1,0.2-0.1C23.4,15.8,23.5,15.8,23.5,15.8z M23.2,19.1c0.1-0.3,0.1-0.5,0-0.5
		C23.1,18.8,23.1,18.9,23.2,19.1z M23.2,18.5c0,0,0,0,0.1,0.1c0-0.1,0-0.2,0-0.3c0-0.1,0-0.2-0.1-0.3C23.2,18,23.2,18.2,23.2,18.5z
		 M23.3,16.9c-0.1,0.3-0.1,0.4,0,0.4c0,0,0.1-0.1,0.1,0c0,0.1,0,0.1,0.1,0c-0.1,0.1-0.1,0.2,0,0.2c0-0.1,0-0.1-0.1-0.1
		c-0.1,0-0.1,0.1-0.1,0.1c0.1-0.1,0.1,0,0.1,0.1c0,0.2,0,0.2-0.1,0.1c0,0.2,0.1,0.3,0,0.2c0.2-0.4,0.2-0.8,0-1c0,0,0,0.1-0.1,0.1
		c0,0,0-0.1,0-0.1C23.4,17,23.4,17,23.3,16.9C23.4,16.9,23.4,16.9,23.3,16.9C23.3,16.9,23.3,16.9,23.3,16.9z M23.7,18.2
		c-0.1,0-0.1,0-0.1-0.1c0-0.1,0-0.1-0.1-0.2c0,0.1,0,0.3-0.1,0.4c-0.1,0.2-0.1,0.3-0.1,0.4c0-0.2,0.1-0.2,0.1-0.2
		c-0.1,0.2-0.1,0.3-0.2,0.2l0,0.3l0.1,0.1c0.2-0.4,0.3-0.5,0.3-0.5S23.7,18.4,23.7,18.2z M23.4,18.5c0.1-0.3,0.1-0.5,0-0.6
		C23.4,18.3,23.4,18.5,23.4,18.5z M24,13c0,0.1-0.1,0-0.2,0c0,0.1,0.1,0.1,0.1,0.2c-0.1,0.1,0,0.3,0.1,0.7c-0.1-0.1-0.2-0.2-0.3-0.3
		c-0.1-0.2-0.2-0.3-0.3-0.4c0.1,0,0.1,0,0.2,0.2c0.1,0.1,0.1,0.2,0.2,0.2c0-0.1-0.1-0.2-0.2-0.4c-0.1-0.2-0.2-0.4-0.2-0.4
		c0,0,0.1,0,0.1,0.1c0,0,0,0.1,0.1,0.1c0,0,0-0.1-0.1-0.2c0-0.1,0-0.1,0-0.1c0.1,0,0.2,0.1,0.2,0.3c-0.1,0-0.1,0,0-0.2
		C23.9,12.7,24,12.9,24,13z M23.7,17.2c0.1-0.2,0-0.3-0.1-0.3c0,0.1,0,0.1-0.1,0.1l0.1,0.3C23.6,17.3,23.6,17.2,23.7,17.2
		c-0.1-0.1-0.1-0.2-0.1-0.2C23.6,17,23.6,17,23.7,17.2C23.6,17.2,23.6,17.2,23.7,17.2z M23.7,18.6C23.7,18.6,23.8,18.6,23.7,18.6
		c0.1,0,0.1,0,0.1,0c0,0.1,0,0.1-0.1,0.2c0,0.1-0.1,0.2,0,0.3c-0.1,0-0.2,0-0.2,0.1c0,0,0-0.1,0.1-0.2c0-0.1,0-0.2,0.1-0.2
		c0,0,0,0.1,0,0.2C23.7,19,23.7,18.8,23.7,18.6z M23.7,10.9c0,0-0.1,0-0.1,0.1c-0.1,0-0.1,0.1,0,0.1C23.6,11,23.6,11,23.7,10.9
		C23.7,10.9,23.7,10.9,23.7,10.9z M23.7,13c0.1-0.1,0.1-0.2,0-0.2C23.9,13,24,13,23.9,13c0,0-0.1-0.1-0.3-0.4
		C23.6,12.6,23.6,12.7,23.7,13z M23.8,14.6c0,0,0,0-0.1,0.1c-0.1,0-0.1,0.1-0.1,0.1c0,0,0.1,0,0.2,0c0,0.1,0,0.1-0.1,0.1
		c0-0.1,0.1-0.1,0.1-0.1C23.9,14.7,23.9,14.7,23.8,14.6z M23.8,11.3c0,0,0.1-0.1,0.2-0.1c0.1,0,0.1,0,0.1-0.1c-0.1,0-0.2,0-0.2,0
		C23.7,11.2,23.7,11.3,23.8,11.3z M23.9,13.2L23.9,13.2C23.9,13.2,23.9,13.2,23.9,13.2L23.9,13.2z M24.4,14c0,0,0-0.1,0-0.2
		c-0.1,0.4-0.1,0.7-0.1,0.9c-0.1-0.3-0.2-0.5-0.3-0.6c0,0,0.1,0,0.1,0.1c0.1-0.1,0.1-0.3-0.1-0.5c-0.1-0.2-0.2-0.4-0.2-0.5
		c0.3,0.5,0.4,0.8,0.4,0.8c0.2-0.3,0.3-0.5,0.3-0.5c0,0.1,0,0.2-0.1,0.3C24.5,13.9,24.4,14,24.4,14z M24.1,10.8
		C24.2,10.8,24.2,10.8,24.1,10.8c-0.1,0.1-0.1,0.2-0.1,0.2c-0.2-0.2-0.2-0.4,0-0.5c0,0,0,0.1,0,0.1c0,0,0,0,0.1,0c0,0,0,0,0,0.1
		s0,0,0,0.1C24,10.8,24,10.9,24.1,10.8C24.1,10.9,24.1,10.8,24.1,10.8z M25.1,9.5c-0.4,0.5-0.7,0.8-1,0.8
		C24.4,10.1,24.7,9.9,25.1,9.5C25,9.5,25,9.5,25.1,9.5z M24,17.1c0.1-0.3,0.1-0.5,0.1-0.6C24.1,16.9,24.1,17.1,24,17.1z M24.1,15.5
		C24.1,15.5,24.1,15.5,24.1,15.5L24.1,15.5z M24.3,10.7c0,0.1,0.1,0.1,0.1-0.1C24.4,10.7,24.4,10.7,24.3,10.7c0.1,0.1,0,0.1,0,0.1
		c0,0-0.1,0-0.1,0C24.2,10.8,24.2,10.8,24.3,10.7C24.3,10.7,24.3,10.7,24.3,10.7z M24.8,13.1c-0.2,0.6-0.3,1.1-0.4,1.4
		C24.5,13.9,24.6,13.5,24.8,13.1z M24.5,11.4C24.5,11.3,24.5,11.3,24.5,11.4c0.1-0.1,0.1-0.1,0.1-0.1c0-0.1-0.1-0.1-0.1,0
		C24.4,11.3,24.4,11.3,24.5,11.4z M24.4,10.5L24.4,10.5C24.4,10.5,24.4,10.5,24.4,10.5z M24.6,10.5c0.1,0,0.1,0,0.2,0
		c0.1,0,0.1-0.1,0-0.1c0,0-0.1,0.1-0.1,0.1C24.6,10.4,24.6,10.4,24.6,10.5z M24.7,11.4c0.1,0,0.2-0.1,0.3-0.2
		c0.1-0.1,0.2-0.2,0.2-0.2C25,11.1,24.9,11.2,24.7,11.4z M25.8,7.9c-0.1,0.7-0.3,1.2-0.7,1.5C25.3,9.2,25.6,8.7,25.8,7.9z
		 M25.3,10.5c0-0.1,0.1-0.2,0-0.2c-0.2,0.1-0.3,0.2-0.3,0.3c0-0.1,0-0.1,0.1-0.1c0.1,0,0.1-0.1,0.1-0.1
		C25.3,10.4,25.3,10.5,25.3,10.5z M25.3,9.7c0.1,0,0.2-0.1,0.2-0.2C25.5,9.5,25.4,9.6,25.3,9.7z M26.1,12.2c0,0-0.2,0-0.4,0.1
		c-0.2,0-0.3,0.1-0.3,0.1C25.9,12.3,26.1,12.2,26.1,12.2z M25.5,9.4c0,0,0-0.1,0.1-0.2C25.6,9.3,25.5,9.4,25.5,9.4z M26.7,9.3
		c-0.4,0.2-0.6,0.3-0.7,0.3c0.9-0.5,1.3-0.7,1.3-0.6C27.3,9.1,27.1,9.2,26.7,9.3z M26.4,10.2C26.4,10.2,26.4,10.2,26.4,10.2
		c0.1-0.1,0.1-0.1,0.1-0.2c0,0-0.1,0-0.1,0C26.4,10.1,26.4,10.2,26.4,10.2C26.3,10.2,26.3,10.2,26.4,10.2
		C26.3,10.2,26.3,10.2,26.4,10.2C26.4,10.2,26.4,10.2,26.4,10.2z M26.4,11.9c0.1,0.1,0.1,0.1,0.2,0c0.1-0.1,0.1-0.2,0.1-0.2
		C26.8,11.6,26.7,11.7,26.4,11.9z M26.6,11.1c0.1-0.3,0.2-0.4,0.2-0.3c0,0,0,0.1-0.1,0.2C26.6,11,26.6,11,26.6,11.1z M26.9,10
		C27,9.9,27,9.9,27.1,9.9c0-0.1,0-0.2,0-0.2c0,0-0.1,0.1-0.2,0.1C26.9,9.9,26.9,10,26.9,10z M27.1,10.1c0,0,0-0.1,0.1-0.1L27.1,10.1
		C27.1,10,27.1,10,27.1,10.1C27.1,10.1,27.1,10.1,27.1,10.1C27.1,10.1,27.1,10.1,27.1,10.1z M28.2,7.5C28,8,27.7,8.5,27.3,8.8
		c0,0,0.2-0.2,0.4-0.5C28,8,28.1,7.8,28.1,7.6L28.2,7.5c0.1-0.2,0.1-0.4,0.2-0.7c0-0.4,0-0.6,0.1-0.7c0,0.9-0.1,1.6-0.3,1.8
		c0,0,0-0.1,0-0.2C28.2,7.7,28.2,7.6,28.2,7.5C28.2,7.6,28.2,7.6,28.2,7.5z M28.1,8c0,0-0.2,0.3-0.7,1c0-0.1,0.2-0.2,0.4-0.4
		C27.9,8.3,28,8.1,28.1,8z M27.5,10c0,0,0.1-0.1,0.1-0.1c0.1,0,0.1-0.1,0.2-0.1c-0.1,0-0.1,0-0.2,0.1C27.5,9.9,27.5,9.9,27.5,10z
		 M28.2,9.5c0.2,0,0.3-0.1,0.3-0.1C28.4,9.4,28.3,9.4,28.2,9.5z M28.6,8.2c-0.1,0.2-0.1,0.3-0.1,0.4C28.5,8.4,28.6,8.2,28.6,8.2z
		 M28.8,7.5L28.6,8c0.1,0,0.1-0.1,0.2-0.2C28.8,7.6,28.8,7.6,28.8,7.5C28.8,7.6,28.8,7.6,28.8,7.5z M29,3.9c0,0,0,0.1,0.1,0.2
		c0,0.1,0,0.1,0,0C29.1,4,29.1,4,29,3.9c0,0,0-0.1,0.1-0.1c0,0.1,0.1,0.2,0.1,0.2c0-0.9-0.2-1.4-0.4-1.6c-0.1,0.3-0.1,0.9,0.2,1.9
		c0,0,0-0.1,0-0.1C29,4.3,29,4.4,29,4.4c-0.1-0.5-0.1-0.7-0.1-0.7c0,0.1,0,0.1,0,0.2C29,4,29,4.1,29,4C29.1,3.9,29.1,3.8,29,3.9z
		 M28.9,7.9c0-0.2-0.1-0.2,0-0.2L28.9,7.9c-0.1,0-0.1,0-0.1,0S28.8,7.9,28.9,7.9z M28.8,9C28.9,9,28.9,9,29,8.9c0-0.1,0-0.1,0-0.2
		c0,0,0,0.1-0.1,0.2C28.9,8.9,28.8,9,28.8,9z M29.1,6.5c-0.1,0.6-0.1,1.1,0,1.2c0-0.2,0.1-0.4,0.1-0.7c0,0.2,0,0.3,0.1,0.2
		c-0.2,0.2-0.2,0.4-0.1,0.4c0.1-0.2,0.1-0.4,0.2-0.7c0-0.3,0-0.5-0.1-0.6c0,0,0,0.1-0.1,0.1s-0.1,0,0-0.1c0,0,0,0.1,0,0.2
		c0,0.1,0,0.2,0,0.2C29.1,6.6,29.1,6.5,29.1,6.5z M29.5,1.8c-0.1-0.4-0.3-0.6-0.4-0.7C29.3,1.2,29.4,1.5,29.5,1.8z M29.1,9.1
		c0.1,0,0.2,0,0.3-0.1C29.3,8.9,29.2,9,29.1,9.1z M29.5,2.7c0,0,0,0,0,0.1c0,0.1,0,0.1-0.1,0.1c0-0.1,0-0.1,0.1,0
		c0,0.1,0,0.2-0.1,0.2c0,0,0,0,0.1,0.1c0,0,0,0-0.1,0.1c0,0,0,0,0.1,0c0,0,0.1,0,0.1-0.1l-0.1,0.3c0,0,0.1,0,0.1,0c0,0,0,0,0.1,0
		c-0.1,0.1-0.1,0.2-0.1,0.4c0,0,0.1-0.1,0.1-0.1c0,0,0-0.1,0.1-0.1c0,0,0,0.2-0.1,0.3c0,0.1,0.1,0,0.2-0.1c0,0,0,0.1-0.1,0.3
		c0.1-0.1,0.1,0,0.1,0c0,0.1,0,0.1-0.1,0.1c0,0,0,0.1,0,0.1c0,0,0.1,0,0.1,0c0,0,0,0.1,0,0.1c0,0-0.1,0.1-0.3,0.3
		c0,0,0.1-0.1,0.2-0.4c0,0,0,0-0.1,0c0,0.1-0.1,0.1-0.1,0.1l0.1-0.1c0,0.1,0,0.1-0.1,0C29.6,4,29.6,3.9,29.6,4c0,0,0,0-0.1,0
		c0,0.1-0.1,0.1-0.1,0.1c0,0.1,0,0,0.1-0.2c-0.1,0-0.1,0-0.1-0.1c0-0.1,0.1-0.2,0.1-0.2c-0.1,0-0.1,0.1-0.1,0.1c0,0,0-0.1,0-0.1
		c0,0,0,0-0.1,0c0-0.1,0.1-0.2,0.1-0.2S29.6,3,29.6,3c0,0-0.1,0-0.1,0.1c0,0-0.1,0.1-0.1,0.1c0-0.1,0-0.1,0.1-0.2
		c0-0.1,0.1-0.1,0.1-0.1C29.5,2.8,29.5,2.8,29.5,2.7c-0.1,0.1-0.1,0.1-0.1,0.1C29.4,2.8,29.4,2.8,29.5,2.7
		C29.5,2.7,29.5,2.7,29.5,2.7z M29.6,5.8c0,0,0,0.1-0.1,0.1c0,0-0.1,0.1-0.1,0.1C29.5,6,29.5,6,29.6,5.8c0.1,0,0.1-0.1,0-0.2
		c-0.1,0.2-0.1,0.3-0.2,0.3C29.5,5.8,29.5,5.7,29.6,5.8z M29.5,2.1C29.5,2.1,29.5,2.1,29.5,2.1C29.5,2,29.5,2.1,29.5,2.1
		c0.3,0.9,0.5,1.6,0.5,2C29.9,3.8,29.8,3.1,29.5,2.1z M29.8,4.4c0,0.2-0.1,0.4-0.3,0.5c0-0.1,0.1-0.2,0.1-0.2
		C29.7,4.6,29.8,4.5,29.8,4.4z M29.7,5.3c0,0,0,0.1-0.1,0.2c-0.1,0.1-0.1,0.1,0,0.2c0,0,0,0,0.1-0.2C29.7,5.4,29.7,5.4,29.7,5.3z
		 M29.5,6.1c0.1,0,0.1,0,0.1-0.1c0-0.1,0-0.2,0-0.2C29.6,5.9,29.6,6,29.5,6.1z M29.9,4.5C29.9,4.5,29.9,4.5,29.9,4.5
		c0-0.1,0-0.2,0-0.4C29.9,4.3,29.9,4.4,29.9,4.5z M29.9,6.4 M30,8.4c0.1,0,0.2-0.1,0.3-0.2c0.1-0.1,0.1-0.2,0.1-0.2
		c0,0.1-0.1,0.2-0.2,0.2C30,8.2,30,8.3,30,8.4z M30.3,5.8c0,0.2,0,0.3-0.1,0.4C30.3,6.1,30.3,6,30.3,5.8C30.3,5.8,30.3,5.8,30.3,5.8
		z M30.4,7.9c0.1-0.2,0.1-0.3,0.1-0.4c0,0.1,0,0.1-0.1,0.2C30.4,7.8,30.4,7.9,30.4,7.9z M30.7,7c0,0,0-0.1,0.1-0.2
		c0.1-0.1,0.1-0.2,0.1-0.2c0-0.1,0,0-0.1,0.3C30.6,6.9,30.6,7,30.7,7z M30.8,6.3c0.1-0.2,0.1-0.3,0.1-0.3c0,0,0,0.1-0.1,0.2
		C30.7,6.2,30.7,6.3,30.8,6.3z M31.1,4.7c0.4-0.7,0.5-1.4,0.5-2c0,0,0,0,0,0.1c0.1,0,0.1-0.2,0.1-0.3c0,0.1,0,0.4-0.1,0.7
		c-0.1,0.4-0.1,0.6-0.1,0.7c0,0.1-0.1,0.2-0.2,0.4C31.2,4.5,31.1,4.6,31.1,4.7z M31.1,4.1c0,0,0-0.1,0.1-0.3c0-0.2,0-0.2-0.1-0.3
		c0.1,0,0.2,0,0.1,0.2C31.2,4,31.2,4.1,31.1,4.1z M31.7,1.9c-0.1,0.5-0.1,0.8-0.1,0.7c0-0.5,0.1-0.9,0.2-0.9
		C31.8,1.7,31.8,1.8,31.7,1.9z M31.8,4.3c0-0.2,0-0.3,0-0.3C31.9,4.2,31.9,4.3,31.8,4.3z M32.2,1.9C32,1.8,32,1.7,31.9,1.7
		c0.1-0.1,0.1-0.1,0.2,0C32.2,1.8,32.2,1.8,32.2,1.9z"/>
</g>
</svg>
