<?xml version="1.0" encoding="utf-8"?>
<!-- Generator: Adobe Illustrator 21.1.0, SVG Export Plug-In . SVG Version: 6.00 Build 0)  -->
<svg version="1.1" id="Layer_1" xmlns="http://www.w3.org/2000/svg" xmlns:xlink="http://www.w3.org/1999/xlink" x="0px" y="0px"
	 viewBox="0 0 825 825" style="enable-background:new 0 0 825 825;" xml:space="preserve">
<path d="M223,121c4.5-8.5,8.5-17.3,14-25.2c0.4,14.1-7.2,26.8-15.6,37.6c-4.4,6.2-9.7,11.9-13.2,18.8c-0.9,17,3.6,34.7,14.4,48
	c5.7,7.2,11.7,14.1,18.2,20.6c-0.9-9.3-7-17.5-5.9-27.2c11.4,16.9,22.9,33.7,33.1,51.4c3.4-12.8,0.5-26.1,0.9-39.1
	c0.4-6.4,1-13.7,6.3-18.2c0.2,18.6,0,37.3,0.1,55.9c5.5,3.6,10.9,7.2,15.7,11.6c1.2-0.9,3.3-1.5,3-3.4c-0.3-3.5-1.9-6.9-1.4-10.5
	c2.6,1.6,4.2,4.6,7.5,4.8c3.1-6.9,3.3-14.6,4.1-21.9c1.1-12.7,1.4-25.5,2-38.2c4.4,4.8,5.5,11.5,5.9,17.8c0.5,13.3-1.8,26.7-0.5,40
	c5.2-1.8,9.2-6,11.2-11.1c2.8-7.1,4.1-14.7,6.2-22c0.6,0.2,1.9,0.6,2.5,0.8c0.5,0.9,1,1.9,1.5,2.8c7.8-12.4,14.8-25.4,18.7-39.6
	c2.9-10.3,3.7-21.9-1.2-31.7c-0.7-1.4-1.1-4.3,1.1-4.4c1.9,1.9,3.8,3.9,6,5.5c2-16.4-2.1-32.7-5.6-48.6c8.6,5.8,10.8,16.7,11.9,26.3
	c1.2,8.7,1.1,17.6,3.5,26.1c10.7-8.2,4.9-24.9,15.2-33.4c1,14.1-3.8,28-11.2,39.8c-5.1,9-10.7,18-13.6,28c4.9-1.2,9-4.6,11.8-8.8
	c3.9-6.1,7.1-12.5,11.2-18.5c1.7,10.2-3.6,20-10.7,26.9c-7.6,7.4-15.4,14.7-22,23c3.4,6.4,10.8,9.5,17.8,9.4
	c11.2-0.4,22.9-4.2,30.3-13c0.3,6.7-4,13.2-10.5,15.2c-15.7,4.4-32.8,1.5-48.1,7.8c-6.8,2.9-10.6,10.2-10.4,17.3
	c7.9-1.4,15.8-3.1,23.6-5c3.8-0.9,7.7-1.8,11.1-3.8c-1.8,2.6-3.1,5.4-4.6,8.1c-7,12.3-16.8,22.9-28.2,31.2c4.1,24.1,5,48.9,12,72.4
	c4.1,13,11.2,26.7,24.3,32.5c7.2,3.6,15.6,2.7,23.2,1c7-1.7,13.9,0.7,20.7,2.2c21.5,5.1,41.8,14.6,63.8,18
	c16.1,1.9,31.8-3.1,47.9-3.7c17.5-0.7,35.7,5.3,48.4,17.6c8,7.4,13.9,17.3,16.2,28.1c2,8.3,0.2,16.8-1.7,25
	c-5,20.2-12.7,39.6-20.3,58.9c-5.2,13.2-8.7,27.2-9.2,41.4c0,12.7,3,25.8,10.5,36.3c-7.2,21.1-7.2,43.8-5.6,65.7
	c0.9,17.3,1.6,34.6,1,51.9c-0.1,3.1-0.5,6.1-0.9,9.1c-12.2,0.1-24.5,0.1-36.7,0c11.6-11.8,16.6-28.4,17.7-44.6
	c1.4-19.8-1.6-39.6-6-58.8c-9.2,5.5-15,15.2-18.4,25.2c-5.5,15.9-6,32.9-6.7,49.6c-2.9,3.7-7.5,5.8-10,9.9
	c-2.6,3.9-2.3,8.8-1.8,13.2c-11.3,0.5-22.7,1.2-34.1,1.7c8.6-24.2,17.4-48.3,26.2-72.5c5.7-14.7,10.7-29.6,17.5-43.8
	c-1-15.4-10-29-20.4-39.8c-11.1-11.2-22-22.5-33.1-33.7c-11.1,2.2-22.5,1.9-33.8,1.1c-9.2,0.2-19.1,0.1-27.1,5.3
	c-9,6.3-12.8,17.3-15.2,27.6c-3.9,15.4-4,31.3-7.2,46.9c-3.3,19.5-6.6,39.1-9.2,58.7c-0.8,7.6-2.5,15.3-1,22.9
	c1.2,7.8,2.4,15.6,3.3,23.5c-12.6,5.5-26.6,7-40.3,5.9c4.5-17.4,13.9-33.9,13.5-52.4c-0.9-20.9-8.8-40.5-12-61
	c-2.7-19.8-2.4-40-6.4-59.7c-2.1-9.4-5-18.9-10.8-26.7c-0.8,2.6-1.2,5.2-1.6,7.9c-13.4-10-15.3-28.8-28.5-39
	c-1.3-6.4-4.7-12.2-5.7-18.7c-0.3-1.3,0-2.9-0.9-3.9c-1.6-1.1-3.6-1.5-5-3c-1.7-4.1-2-8.6-2.2-13c-0.9-21.9,0.4-43.7,1.8-65.5
	c2.3-31.9-8.8-62.5-11.3-93.9c-0.9-8.6-0.6-17.3-0.2-26c-9.7-4.5-20.1-8.1-28.1-15.4c-6.4-6-9.5-14.6-10.2-23.2
	c2.8-1.2,5.8-2.3,8.9-1.8c5.6,0.7,10.7,3.5,16.4,4c0.2-7.5-7-11.7-13.2-13.8c-9.4-3.1-19.4-5-28-10.1c-2-1.2-3.7-2.8-5.3-4.6
	c8,0.1,15.3,4.6,23.5,3.8c-5.2-12.7-12.5-24.5-18.8-36.7c-4.2-8.5-7.3-17.7-8.3-27.2c2.4,1.4,4.1,3.6,5.6,5.9
	c-0.9-12.1-1.6-24.2-1.5-36.4c3.2,1.8,2.3,6.7,5.9,8.1c8.6-6.2,3-20.7,13.3-25.6c1,12.1-7,22.8-6,34.9
	C214.9,132.5,219.7,126.9,223,121z"/>
</svg>
