<?xml version="1.0" encoding="utf-8"?>
<!-- Generator: Adobe Illustrator 21.1.0, SVG Export Plug-In . SVG Version: 6.00 Build 0)  -->
<svg version="1.1" id="Layer_1" xmlns="http://www.w3.org/2000/svg" xmlns:xlink="http://www.w3.org/1999/xlink" x="0px" y="0px"
	 viewBox="0 0 825 825" style="enable-background:new 0 0 825 825;" xml:space="preserve">
<path d="M182.9,224.9c17.5-27.5,40.9-52.1,70.8-66c-7.1,9.4-14.4,18.7-21.9,27.9c-21.9,28.3-39.9,59.7-52.8,93.1
	c-12,30.9-19.4,63.6-22.4,96.6c-1.4,16.6-1.9,33.4,1.1,49.9c1.7,9.1,4.6,18.1,9.8,25.9c5-4.2,8.1-10.1,10.5-16.1
	c6.5-16.1,8.8-33.5,11.9-50.5c4.4-23,8.3-46.1,14.6-68.6c7.7-24.9,21.4-50.1,45.4-62.4c-20.9,25.8-29.7,59.2-33.3,91.7
	c-1.1,12.3-2.5,24.8-0.1,37.1c0.6,3.5,2.1,6.8,4.2,9.7c7.9-3.2,13.6-10,18.9-16.4c10.4-13.7,19.8-28.3,29.6-42.4
	c-2.1,10.5-6.4,20.4-11,30c-12.6,25.6-27.8,49.9-43.1,74c-9.5,15.1-20.5,29.5-26.6,46.4c-3.7,9.5,0,19.9,5.5,27.8
	c7.9,11.1,18.8,19.7,30.3,26.8c13.3,8,29.4,13.7,44.9,9.7c3.3-10.4,2.2-21.4,3.9-32.1c1.7-12,5.2-24.1,12.8-33.7
	c4.6-5.9,10.9-10.4,17.7-13.4c-3.1,12.1-6.4,24.1-9.4,36.3c-1.5,6-1.3,12.3-0.7,18.4c1.1,14.6,7,28.8,16.5,40.1
	c12.7,15.4,29.4,26.6,43.7,40.3c7.7,7.2,15.1,15,19.7,24.6c5.9,11.4,7.9,24.4,7.3,37.1c-17.8,4.2-36.7,5.1-54.3-0.7
	c-2.5-15.3-10.2-29.5-21.5-40.1c-7.4-7.5-16.5-13.1-25.7-18.2c-17.9-10.1-36.5-18.9-54.7-28.4c-19.7-10.2-39.2-20.5-58.3-31.8
	c-15.2-9.1-30.4-18.5-42.7-31.3c-19.3-18.6-33.5-42.5-40.4-68.5c-3.6-13.6-5.6-27.8-5.7-41.9c7.9,16.8,16.2,33.4,24.3,50.1
	c9.1,16.1,20.6,31.4,36,42c1.5-3.4,2.7-7,2.8-10.8c0.8-13.4-2.2-26.6-5.6-39.4c-9.1-32.3-21.2-63.7-27.5-96.7
	c-3.8-20.3-5.4-41.2-2.2-61.7c2.7-18.8,9.4-37.4,21.5-52.2c2.3-2.5,3.7-5.6,6-8c0.6-0.1,1.7-0.2,2.2-0.3
	c-9.2,25.3-12.7,52.5-12.3,79.3c0.2,13.4,2.2,27,7.1,39.6c7.1-12.4,10.6-26.3,15-39.8C154.1,278.8,166.6,250.6,182.9,224.9z"/>
<path d="M571,159c30.6,13.3,55,37.8,72.3,65.9c11.1,17.6,19.2,36.8,26.9,56c8.7,22,16.6,44.3,24.3,66.7c7.5-15.6,8.8-33.4,8.3-50.5
	c-0.7-23.2-4.6-46.3-12.2-68.3c4.4,2.4,7,6.9,9.8,10.9c11.9,17.3,18.2,37.9,20.2,58.7c1.8,19.4,1,39.1-3.1,58.1
	c-4.5,22.6-12.8,44.3-19.7,66.2c-6.4,19.6-13.1,39.5-13.4,60.3c-0.1,5,0.5,10.1,2.1,14.9c7.7-3.9,13.7-10.4,19.2-16.9
	c10.6-13.3,19.2-28.1,27.2-43.1c5.4-10.4,10-21.2,14-32.2c-0.5,17.2-2.8,34.5-8.2,50.9c-11.3,35.2-36.4,65.2-67.8,84.3
	c-31.4,19.4-64.4,36.1-97.2,52.9c-12.5,6.3-25,12.7-36.9,19.9c-13.4,7.7-25.7,18.5-32.3,32.7c-3,6-4.4,12.7-5.3,19.3
	c-17.6,5.7-36.7,5.2-54.5,0.7c-1.1-16.4,4.1-32.8,13.6-46.1c9.6-14.3,23.9-24.3,36.2-36c8.9-8.4,17.8-16.9,25.5-26.4
	c3.8-4.8,7.5-9.9,9.4-15.8c4.4-13.2,3.5-27.5,1-41c-2-10.4-4.8-20.6-8.5-30.4c14.4,5,23.1,19.1,27.5,33c4.3,13,4.3,26.8,5,40.3
	c-0.1,3.1,2.9,5.2,5.4,6.4c6.6,2.6,13.9,0.5,20.4-1.5c16.4-6,31.6-15.6,44-27.8c7.7-7.9,14.6-18,14.2-29.4
	c-1.9-12.1-8.8-22.8-15-33.1c-20.7-32.1-41.8-64.2-58.3-98.8c-3.4-7.7-7.2-15.4-8.7-23.7c4.7,4.3,7.8,9.8,11.5,14.9
	c5.5,9.3,11.9,18.1,18.4,26.8c4,5,7.9,10.2,13.1,13.9c1.7,1.3,4,1.9,6,0.7c2.4-1.9,3.2-4.9,3.9-7.8c2-10.6,0.9-21.4,0.2-32.1
	c-1.9-20.5-5.3-41.1-12.8-60.4c-5-13.2-12.1-25.8-21.6-36.4c16.8,7.3,28.7,22.5,36.7,38.6c13.8,28,18.8,59.2,23.2,89.8
	c2.3,18.4,5.4,36.9,13.2,53.9c2.3,5.1,5.3,9.9,8.8,14.4c5.9-5,7.7-13.1,9.3-20.3c3.1-16.2,3.9-32.8,3.3-49.2
	c-2-41.8-13.9-82.5-30.6-120.7C622.3,224.3,599.3,189.2,571,159z"/>
</svg>
