<?xml version="1.0" encoding="utf-8"?>
<!-- Generator: Adobe Illustrator 21.1.0, SVG Export Plug-In . SVG Version: 6.00 Build 0)  -->
<svg version="1.1" id="Layer_1" xmlns="http://www.w3.org/2000/svg" xmlns:xlink="http://www.w3.org/1999/xlink" x="0px" y="0px"
	 viewBox="0 0 825 825" style="enable-background:new 0 0 825 825;" xml:space="preserve">
<path d="M217.9,91.3c2.3,1.4,2.4,4.4,3,6.7c2.6,14.4,3.7,28.9,5.1,43.5c-0.2,5.4,3.5,9.7,6.5,13.8c8.2-2.4,15.2-7.6,23.1-10.8
	c-2.8,9.6-13.8,11.5-20.9,17c2.6,6.1,5.7,12,8.7,17.9c3.9,7.1,7.8,14.4,13.8,19.9c12-2.2,21.2-11.3,28-20.9
	c2.9-4.1,5.4-8.5,7.9-12.9c2.8,7,0.7,15-4,20.7c-3.9,4.5-8.2,8.7-12.4,12.9c12.5,3.7,18.7,16.5,23.1,27.7c4-0.5,8.2-1.7,10.8-5.1
	c5.8-6.8,5.8-16.2,7.2-24.6c1.3-7.3,2.4-15,6.5-21.3c0.4,3.1,0.7,6.1,0.6,9.2c-0.6,7.6-0.4,15.2-2.3,22.7
	c10.8-2.9,20.2-9.6,31.2-11.6c11.1-2.3,22.5-0.6,33.7,0c10.6,0.8,22.1,1.6,31.6-3.9c5.8-3.7,11-9.8,10.7-17c0.6-9-0.8-18.2-5-26.2
	c-6.2-11.6-16.9-20-23-31.6c19.9,11.7,32.7,32.7,38.1,54.7c8.6-4.5,5.4-17.9,14.8-21.4c-1.3,18.9-13.8,34.5-27.4,46.7
	c2.4,1.1,4.8,2.4,7.5,2.2c6.3-0.6,11.9-3.7,18.1-4.8c-4.7,6.2-12,9.9-19.5,11.5c-14,3-28.3,1.2-42.4,0c-15-1.2-30.3-3.8-45.2-0.9
	c-8.7,1.6-17.2,6.5-21.3,14.6c5,0.5,9.4-2.2,12.9-5.4c2.8-2.6,6.8-5.2,10.5-3c-0.9,5.9-3,11.8-7.2,16.1c-5.2,5.3-11,10-16.2,15.4
	c8.6,30.3,18.6,60.4,32.6,88.7c8.8,16.8,18.9,33.9,34.7,45c18.8,12.6,40.2,20.2,61.3,27.8c16.8,6.4,33.7,12.7,49.5,21.5
	c17.3,10.5,31.3,25.4,47.1,37.9c9.9,7.8,19.9,15.5,30.5,22.3c9.8,6.5,21.2,11.8,33.2,10.7c12.1-0.8,23-7.2,31.8-15.1
	c0.5,8.4-1,17.4-6.5,24c-4.4,5-9.4,9.4-14.3,13.8c2.6,7.4,2.5,15.8-0.7,23c-3.4,8.5-9.9,15.2-14.2,23.2c8.2,5.4,18,7.8,27.5,9.5
	c10.8,1.8,21.7,3.3,32.4,6c1.1,0.4,2.6,0.3,3.3,1.5c11.1,19.8,14.8,42.6,25.5,62.6c4.4,8.8,12.4,15,19,22c5.5,5.1,9.5,12,9.8,19.7
	c-10.4,1.3-21.7-1.7-28.5-9.9c-10.8-13.1-14.5-30-22.7-44.6c-5.9-10.6-12.7-22.3-24.4-27.1c7.6,33.1,16.8,66,31.5,96.7
	c-6.1,11.5-17.9,18.1-29.3,23.5c-6.7,2.9-13.8,5.1-21,5.7c-0.4-7.3,1.2-15.1,6.4-20.5c4.9-5,11.2-9.2,14.1-15.8
	c3.5-12.2,1.3-25.4-3.5-37c-5-11.7-12.2-22.6-21.5-31.3c-6.1-5.6-13.7-10-22.1-11c-6.4-1-12.8-0.4-19.2,0.3c-24,2.4-46.8,12-71,13.2
	c-15.1,1.3-30.7-3.3-42.9-12.3c-10.8-7.9-17.2-20.5-20-33.3c-3.7-17-3.4-34.6-2.5-51.9c-2.1,1-4.2,2.5-4.2,5
	c-0.9,6.2,1.9,13-1.5,18.8c-9.9-6.4-21.2-10.2-32.4-13.7c-20.8-6.3-42-11.1-63.2-15.5c-20.5-4-41.1-9.1-59.8-18.7
	c-12.9-6.7-25.1-16.2-31.7-29.5c-15.9-3-31.7-8.6-48.1-6.8c-3,12.4-4.6,25.6-0.8,38.1c3.2,10.6,10.4,20.4,20.7,25.1
	c9.4,4.3,20.2,3.9,30.2,1.9c6.5,6.2,14.4,11.5,18.3,19.8c2.1,4.3,2.8,9.1,2.8,13.8c-35.2-9.7-69.8-24.9-96.7-50.2
	c-1.1-17.6-2.9-35.3-2-52.9c0.6-7.2,0.9-14.5,3.7-21.2c0.2-1.4,1.6-1.6,2.7-2.1c4.1-1.6,8.3-3,12.7-3.9
	c-7.8-10.7-22.6-11.1-31.6-20.2c-17.8,11.8-31.5,28.5-43.6,45.8c-0.4,3.9,2.8,6.3,5.5,8.4c2.9,2.4,3.4,6.4,2.3,9.8
	c-2.1,9.9-10.5,16.3-16.5,23.8c-4.8-7.7-9.6-15.5-13.8-23.5c-2.2-4.3-4.3-8.8-5.1-13.6c2.4-1,4.3-2.9,6-4.8
	c6.9-7.6,13.4-15.5,19.8-23.5c9-10.8,14.7-24.1,24.8-34c5-5.1,11.4-8.9,18.5-10c9.4,3.2,18.6,7,27.9,10.5
	c13.6,5.7,28.3,11.1,43.3,8.8c13-27.5,23.5-56.5,28.7-86.6c2.3-14.4,3.8-29,2.9-43.5c-19.5,2.9-39.6,4.9-59.2,1.8
	c-8.9-1.6-18.2-4.7-24.6-11.5c-3.4-3.7-5.5-8.4-6.7-13.3c10.9-8.1,25-9.2,38.1-9.9c8.2-1.1,16.9-0.6,24.6-3.7
	c15.4-10.7,29.8-23,44.4-34.8c-2.3-4-6.3-7.1-11-7.4c-10-0.7-19.1,4.4-28.8,5.6c-4.3-8.4-9-16.5-13.2-24.9c-2.3-4.5-6.6-7.6-11-9.9
	c-6.2-3.2-13.4-3.5-20.2-3c0.4-1.6,0.7-3.5,2.4-4.2c4.3-1,9,0.6,12.9-1.7c-10.1-12.4-24.6-19.8-38.2-27.8c11.2-1.2,21.8,4.4,30,11.8
	c6.3,5.8,12.4,11.7,18.6,17.6c-0.6-8.6-1.1-17.3-2.1-25.9C219.4,128.6,217.6,109.8,217.9,91.3z"/>
</svg>
