<?xml version="1.0" encoding="utf-8"?>
<!-- Generator: Adobe Illustrator 21.1.0, SVG Export Plug-In . SVG Version: 6.00 Build 0)  -->
<svg version="1.1" id="Layer_1" xmlns="http://www.w3.org/2000/svg" xmlns:xlink="http://www.w3.org/1999/xlink" x="0px" y="0px"
	 viewBox="0 0 300 300" style="enable-background:new 0 0 300 300;" xml:space="preserve">
<g>
	<path d="M257.4,220.1c0,2-1.5,5.6-4.5,10.8c0.2-1.8,0.3-3.4,0.3-4.8c0-6.4-2.3-9.6-6.9-9.6c-5.6,0.8-8.4,4.6-8.4,11.4
		c-0.6,4.6-2.4,11.3-5.4,20.1c-10.4,15.6-30.7,23.4-60.9,23.4c-32.2,0-58.3-13.3-78.3-39.9l-4.2,0.6c-3.8,0-10.4-2.2-19.8-6.6
		c-2.2,2.8-4,9.5-5.4,20.1c-1,8.2-1.5,15.4-1.5,21.6c0,2.4,0.2,5.2,0.6,8.4c-1,0.6-2.5,0.4-4.5-0.6l-0.3-13.5
		c-0.2-12.2,2.1-25.1,6.9-38.7c-10.6-12.2-15.9-24.1-15.9-35.7c0-14.8,4.1-26.3,12.3-34.5c-5.2-7.6-8.5-13.5-9.9-17.7
		c-1.8-5.2-2.6-12-2.4-20.4c1-30.8,14.8-53.8,41.4-69C113,32.7,140,27,171.6,28.4c20.2,1,38.2,6.4,54,16.2
		c18.6,11.6,27.9,26.9,27.9,45.9c0,7-2.2,13.2-6.6,18.6c-4.4,5.4-9.9,8.1-16.5,8.1c-7,0-12.1-1.9-15.3-5.7
		c-3.2,4.4-5.1,8.3-5.7,11.7h-0.9c-0.8-2.6-2.8-7.2-6-13.8l-10.2,3.9c-7.4-2-10.9-5.7-10.5-11.1c8.8-0.6,13.2-5.1,13.2-13.5
		c0-10.6-3.6-15.9-10.8-15.9c-6,0-9.6,3.5-10.8,10.5c0,3.4-0.2,8.4-0.6,15c-0.6,9.8-0.6,24.5,0,44.1c1.6,4,4.2,5.7,7.8,5.1
		c4-0.2,6.7-0.6,8.1-1.2c2.8-1,4.2-3.1,4.2-6.3c0.2-4.8-2.2-7.8-7.2-9c3.6-2.4,6.8-3.6,9.6-3.6c6.2,0,10.2,1.6,12,4.8
		c1.2,2.2,1.8,7,1.8,14.4c3,3,10,6.1,21,9.3c-4.6,1.4-11.8,4.6-21.6,9.6c1,13-3.7,19.5-14.1,19.5c-2.8,0-6.1-1.4-9.9-4.2
		c5.8-1.6,8.6-4.3,8.4-8.1c-0.4-4.8-1.9-7.6-4.5-8.4c-1.2-0.4-4.1-0.6-8.7-0.6c-4.2,0-6.3,2-6.3,6c-0.2,8.8-0.3,18-0.3,27.6
		c0,29.4,7.9,46.6,23.7,51.6l-5.7,0.9c-6.4,1-12-1-16.8-6c-0.8-0.8-4-5.5-9.6-14.1c-1.2,1.4-2.4,5.8-3.6,13.2
		c-0.4,3.2-1.2,8-2.4,14.4l-5.4-27.3l-1.2-0.6c-5.2,6.4-11.7,11-19.5,13.8c4.2,6.2,10.2,11.5,18.1,15.8c7.9,4.3,15.5,6.5,22.7,6.5
		c9.4,0,17.5-3.4,24.5-10.2c6.9-6.8,10.3-14.9,10.3-24.3c0-9-3.1-13.5-9.3-13.5c-4.8,0-7.2,3.8-7.2,11.4c-4-4.6-6-8.5-6-11.7
		c0-4,1.4-7.4,4.2-10.3c2.8-2.9,6.3-4.4,10.5-4.4c2.4,0,5.8,1.3,10.2,3.9c3.2-4.8,6.4-12.1,9.6-21.9c2.8,6.4,6.3,13.3,10.5,20.7
		c3.2-3.2,6.8-4.8,10.8-4.8c4.8,0,8.6,2,11.6,5.8C256,210,257.4,214.7,257.4,220.1z M79.5,201.2c-1.4-6.6-1.5-17.9-0.3-33.9
		c-0.6-0.4-5.3-3.8-14.1-10.2c-7.6,6.4-11.4,16.8-11.4,31.2c0,5.4,1.3,11,3.9,16.6c2.6,5.7,5.9,9.8,9.9,12.2l7.2-8.1
		C78.1,205,79.7,202.4,79.5,201.2z M248.7,90.2c0-16-9.1-29.2-27.3-39.6c-15.6-8.8-32.1-13.2-49.5-13.2c-27.8,0-51.7,4.7-71.7,14.1
		c-28,13.2-42.8,34.2-44.4,63c-0.8,12.8,2.3,24.3,9.3,34.5c6.8-6.2,14.2-10.7,22.2-13.5c1.2-2,2.8-4.8,4.9-8.6
		c2.1-3.7,3.6-6.4,4.7-8.2c9.6-12.6,22.6-21.7,39-27.3c0.6-0.6,1-0.7,1.2-0.3c0.2,0.2,0,0.6-0.6,1.2c-11.8,13.6-18.9,26.9-21.3,39.9
		c4.2,0.4,7.7,2.2,10.5,5.4c2.8,3.2,4.2,6.8,4.2,10.8c0,4.6-2.4,8.8-7.2,12.6c-3.8,3-8.3,5.1-13.5,6.3c-0.8,11.6-0.4,19.7,1.2,24.3
		c14.8-1.2,22.4,3.6,22.8,14.4c0.2,6.6-3.9,12.5-12.3,17.7c2.2,6.4,5.4,11.9,9.6,16.5c4.6-2.2,8.4-6.7,11.4-13.5
		c2.8-6.2,4.1-12,3.9-17.4c-0.4-14.2-0.3-46.6,0.3-97.2c0.4-22.6-5-33.9-16.2-33.9c-7.6,0-11.9,4.5-12.9,13.5l-2.4,1.8
		c-1.6-2.6-2.4-4.5-2.4-5.7c0-5.4,2.4-10.4,7.2-15c4.8-4.6,9.9-7.1,15.3-7.5c5.2-0.4,10.5,2.7,15.9,9.3c0.8-3,3.4-10.1,7.8-21.3
		l9,21.9c5.6-6.8,12.3-10.1,20.1-9.9c12.4,0.4,21.6,4.1,27.6,11.1c2.4,2.8,5.7,9.3,9.9,19.5c2.8,6.8,6.7,10.2,11.7,10.2
		C244.7,106.1,248.7,100.8,248.7,90.2z M85.5,142.4c-9.8,4.2-15.5,8.1-17.1,11.7c1.6,2,5.5,4.6,11.7,7.8c0.8-5.4,2-10.3,3.6-14.7
		L85.5,142.4z M90.9,227.3c-1.8-2.4-5-8.5-9.6-18.3c0-0.2-1.8,1.4-5.2,4.8c-3.5,3.4-5.2,5.4-5.2,6c0,1.2,1.9,2.8,5.8,4.8
		c3.9,2,6.5,3,8,3L90.9,227.3z M124.8,149c0-4.8-4-8.4-12-10.8c-2.6,15.2-3.6,23.1-3,23.7c3.8-0.6,7.2-2.1,10.3-4.6
		C123.3,154.7,124.8,152,124.8,149z M128.7,206.6c0-2.8-1.1-5.1-3.3-6.9c-2.2-1.8-4.8-2.7-7.8-2.7c-1.4,0-3.6,0.4-6.6,1.2
		c0.8,3.4,3.4,9.9,7.8,19.5C125.4,213.7,128.7,210,128.7,206.6z"/>
</g>
</svg>
