<?xml version="1.0" encoding="utf-8"?>
<!-- Generator: Adobe Illustrator 21.1.0, SVG Export Plug-In . SVG Version: 6.00 Build 0)  -->
<svg version="1.1" id="Layer_1" xmlns="http://www.w3.org/2000/svg" xmlns:xlink="http://www.w3.org/1999/xlink" x="0px" y="0px"
	 viewBox="0 0 300 300" style="enable-background:new 0 0 300 300;" xml:space="preserve">
<path d="M111.2,61.8c-0.9-10.2,1.6-21.3,9.8-28.2c-2.9,7.5-5.4,15.5-4.5,23.6c2.3,16.4,14.5,29.3,16.8,45.7
	c2.4,11.6-2.9,22.9-3.5,34.4c0.2,5.9,3.1,12.2,9.2,13.9c5.8-4.8,9.6-14.8,3.9-21c-1.3,0.8-2.7,1.5-4.1,2.3
	c-2.3-9,10.5-15.9,16.9-9.5c3.1,3.9,3.4,9.1,4.6,13.7c-2.2,4.6,0.4,9.6,1.3,14.3c7-0.6,10.3-8,10.2-14.3c-0.3-11.1-5.1-21.8-3.9-33
	c1.8-12.7,9.2-23.5,13.9-35.1c4.4-11,4.2-23.6-1-34.3c6.7,5.4,9.6,14.1,9.6,22.5c0.1,18.3-7.2,35.5-10.1,53.4
	c3.8-9,8.7-17.5,12.7-26.4c5-11.1,6.7-23.6,5.2-35.6l-1.5-0.8c2-0.6,2.1,2,2.6,3.3c3.9,13.8,4.6,28.6,1.5,42.6
	c-2.7,12.9-13.8,21.5-19.2,33.2c9.7-8.2,20.8-16,26-28.1c2.4-5,3.3-10.5,4.2-15.9c0.1,10.8-0.6,21.9-5.2,31.8
	c-4.9,11.4-14.6,19.6-23.9,27.6c6.7-2.9,13.4-5.7,20.1-8.6c6.5-2.9,12.1-7.9,14.6-14.7c-0.1,5.8,0,11.5,0,17.3
	c-6.2,4.2-11.8,9.5-18.7,12.6c-5.1,2.5-10.6,4.1-15.8,6.2c11.9-1.9,23.8-4,35.8-5c-1.1,5-4,9.7-8.6,12.1c-9.5,5.1-20.7,3.8-31.1,4.5
	c10.8,4.4,21.6,9.2,33,11.9c-2.8,2.4-5.9,4.7-9.7,5c-9.3,1-17.5-4.3-25.9-7.4c4.3,5.3,8.1,11.6,14.4,14.6c3,1.5,6.5,1.8,9.8,2.1
	c-5.4,5.5-14.2,5.6-20.5,1.7c-5.1-2.9-7.2-8.7-10.8-13.1c-1.5-1.9-4.6-2.7-6.4-0.6c-2.7,3.3-3.3,8.8-0.3,12.2
	c2.9,2.3,7.2,1.6,10.2,3.8c1.5,1,2.2,2.8,3,4.3c-2,1-3.9,1.9-5.9,2.7c1.3,2.6,2.9,5.8,6.3,5.8c4.2-0.6,7.9-2.9,12-3.6
	c2.1-0.2,3.5,1.5,5.1,2.5c-2.8,1.3-5.4,3.1-7.7,5.2c2.2,1,4.6,1.8,6.9,2.5c0.4,1.5,0.8,3,1.1,4.5c-3.5-0.8-7-1.2-10.4-2.1
	c0.5,2.1,1.1,4.3,1.4,6.4c-4.1-0.5-3.8-5.2-5.1-8.1c-3.4,0.5-6.8,1.4-10.1,2.3c0.6-2.3,2.4-4,3.4-6.2c-1-4.5-6.1-6.1-10.2-5.7
	c-1.4,4.4-1.3,9.4,1.2,13.4c1.8,3.1,4.6,6.4,8.5,6.4c2.1,0.1,4-0.9,5.9-1.7c-4.1,7.2-14.7,5.7-19.9,0.5c0.3,4.7,1.6,9.5,4.9,13
	c5.5-1,10.6-3.4,16.2-4c2.9-0.4,5.7,0.9,8.3,2.1c-5.4,1.7-10.2,4.9-15.5,6.8c-4.4,1.6-9.8,1.1-13.3-2.3c-1.6-3.1-2.4-6.5-3.9-9.6
	c-1.9,5.1-1,11.6,3.6,15c4.1,3.8,10.1,4.3,15.1,2.2c-2.3,7.6-13.4,8.4-17.9,2.6c-0.9-1.6-1.6-3.3-2.3-4.9c0.2,3.1,2.6,5.5,3.4,8.4
	c-0.8,4.3-3,8.2-4.6,12.2c-3-3.3-5.1-7.3-7.3-11.2c1.8-2.6,3.4-5.4,4.5-8.4c-0.2,0-0.5-0.1-0.6-0.2c-0.8,2.3-1.6,4.8-3.7,6.3
	c-3.1,2.1-7,2.3-10.6,1.6c-3.2-0.8-4.8-3.8-6.4-6.3c5.7,2.2,12.5,1.2,16.7-3.4c3.7-3.6,3.8-9.2,2.9-14c-2.5,3.7-2.1,9.2-6.4,11.5
	c-3.9,2.6-8.8,1.6-12.9,0c-4.8-1.8-9.5-3.6-14.3-5.2c1.8-1.4,3.8-2.8,6.2-2.9c6.3,0,12.3,3.7,18.6,2.7c4.4-1.5,4.3-7.1,5-10.9
	c-5.9,3.6-14.8,5.8-20-0.2c3,0.4,6.5,1.4,9.3-0.5c6.2-3.9,9-11.8,6.7-18.7c-4.4-0.8-8.5,1.4-10.8,5.1c1.3,2.2,3.2,4.1,3.7,6.8
	c-3.2-0.9-6.5-1.8-9.8-2.4c-1.8,2.8-1.5,7-5,8.3c0-2.3,0.5-4.5,1.2-6.6c-3.4,0.8-6.9,1.4-10.3,2.2c0.3-1.6-0.1-3.6,1.4-4.7
	c1.8-1.2,4.1-1.1,6.2-1.6c-1.8-2.2-3.8-4.5-6.5-5.7l-1.2,1.9c-0.3-2.1,1.9-3.7,3.6-4.6c5-0.7,9,3.4,13.9,3.8c3-0.3,4.4-3.2,5.6-5.6
	c-2-0.8-3.9-1.6-5.6-2.9c0.7-1.6,1-3.8,2.8-4.6c2.9-1.3,6.3-1.2,9.2-2.6c4.3-3.5,3.7-10.6,0.1-14.4c-1.5-0.7-3.4-0.2-4.7,0.8
	c-4.7,4.1-6.3,11.1-12.1,14.1c-6.3,3.7-14.8,3.4-20.1-2c3.6-0.3,7.4-0.6,10.5-2.5c6-3.3,9.8-9.1,14.1-14.2c-7.9,2.8-15.5,7.2-24,7.5
	c-4.4,0.2-8.6-1.6-12-4.3c11.9-1.4,22.1-8.1,33.3-11.8c-9.7-1.6-19.9-0.6-29.2-4.1c-5.7-2.1-9.8-7.1-11.5-12.7
	c4.3,3.5,9.9,4.8,15.4,4.7c7.2-0.2,14.3,0.5,21.5,0.9c-9.1-4.6-19.5-7.2-26.9-14.4c-6-6-8.2-14.6-8.8-22.8c2.7,6.4,8,11.4,14.3,14.3
	c7.2,3.2,14.5,6.5,21.8,9.5c-6.8-5.5-13.6-11.4-19.1-18.3c-8.9-11.8-11.5-27.1-11.1-41.6c1.4,10.8,5.8,21.4,13.7,29
	c5.2,4.8,10.2,9.7,15.7,14.2c-6.6-12.4-16.2-23.7-19-37.8c-2.5-13.7-0.9-27.9,3.3-41.1c-1.8,12.9,0.5,26.2,5.9,38
	c4,8.7,8.6,17,11.8,26C119.3,94.3,112.4,78.6,111.2,61.8z"/>
</svg>
