<?xml version="1.0" encoding="utf-8"?>
<!-- Generator: Adobe Illustrator 21.1.0, SVG Export Plug-In . SVG Version: 6.00 Build 0)  -->
<svg version="1.1" id="Layer_1" xmlns="http://www.w3.org/2000/svg" xmlns:xlink="http://www.w3.org/1999/xlink" x="0px" y="0px"
	 viewBox="0 0 300 300" style="enable-background:new 0 0 300 300;" xml:space="preserve">
<path d="M140.2,68.8c6.2-0.9,12.6-0.3,18.8,0.2c1.3,3.8,1.7,7.7,1.7,11.7c-2.7-1.3-5.6-2.2-8.5-1.2c0.1,6.8,5.6,11.7,6.2,18.4
	c-8.5-1.8-17.2-2-25.7,0C134.3,87.9,137.6,78.5,140.2,68.8z"/>
<path d="M83,82.9c9.9-11.4,27-13.8,40.9-9.7c-0.5,7.1-3.2,14.1-2.3,21.3c0.5,3.7,3.6,6.1,7.1,6.9c-3.1,5.1-6.4,10.1-9.1,15.3
	c-0.3,4.3,1.5,8.3,2.8,12.3c-6.4,0.4-13.4-1.9-17-7.6c-5-8-5.6-17.7-6.1-26.8C94.5,89.8,87.3,88.3,83,82.9z"/>
<path d="M168.6,73.2c10.2-2.8,21.6-2.8,31.2,2c3.9,1.9,6.8,5.1,9,8.8c-5.3,3.4-10.6,7-16.4,9.6c0,9.7-0.3,20.3-6.2,28.5
	c-3.6,5.1-10,7-16,7c2.4-5,2.9-10.8,0.5-15.9c-1.7-4.1-4.4-7.6-7.1-11.1c2.6-2,5.9-3.8,7.2-7C171.8,87.7,168.5,80.6,168.6,73.2z"/>
<path d="M43,103.8c13.1-4,24.5-11.9,37.1-16.9c5.8,0.8,8.9,6.8,14.5,8c-13.8,7.6-26.5,17.5-41.7,22.1c-10,3.1-21.1,3.4-30.8-0.9
	C26.2,108.5,35.5,106.5,43,103.8z"/>
<path d="M197.8,95.6c3.6-4.5,9.2-7.8,15.2-6.9c9,1.4,16.8,6.5,24.9,10.3c8.1,4.5,17.7,5.8,25.7,10.4c3.2,1.8,5.5,4.6,7.2,7.8
	c-12.5,3.8-26.1,2.2-37.9-2.9C220.6,109.1,209.7,101.4,197.8,95.6z"/>
<path d="M60.5,116.4c12.2-6.3,24.3-13,35.8-20.5c0.9,4.6,1.1,9.3,1.5,13.9c-9.9,6.3-19,13.9-28.9,20.2c-11.9,8-27.9,11.8-41.3,5.4
	C36.2,125.6,49.1,122,60.5,116.4z"/>
<path d="M195,97.9c24.2,10.3,47.4,23,70,36.5c-7.2,5.1-16.7,5.7-24.9,3c-17.2-5.5-30.6-18.1-45.4-27.8
	C194.6,105.7,195,101.8,195,97.9z"/>
<path d="M131.3,101c9.6-0.9,19.9-2.5,28.8,1.9c6.1,2.8,9.2,9.6,9.4,16.1c0.7,10.8-4.6,21.1-11.6,29c-4.5,5.1-12.2,8.2-18.6,4.9
	c-6.8-3.7-10.5-11-13.7-17.7c-2.9-6.8-5.5-15.1-1.6-22.1C126.6,109.2,129.7,105.5,131.3,101z"/>
<path d="M65.8,132.7c11.4-6.1,22.2-13.3,32.7-20.8c1.1,4.1,2.7,8.1,3.6,12.3c1.8,1.3,3.2,3.1,4.6,4.8c-5,7.5-9.9,15.1-15.2,22.5
	c-5.9,8.2-15.2,14.8-25.6,15c2.5-10,9.5-18.2,17.5-24.4c6.1-5.1,12.6-10.1,17.5-16.4c-9.1,7.5-17.7,15.8-28.5,20.8
	c-8.9,4.1-19.1,5.4-28.6,2.8C48.8,141.1,57.5,136.7,65.8,132.7z"/>
<path d="M193.2,111.8c17.5,13.3,37.8,22.4,55.5,35.5c-8.6,5.8-19.8,3.8-28.6-0.5c-11.2-5.5-21.3-13.2-29.6-22.4
	C190.6,120,193.3,116.2,193.2,111.8z"/>
<path d="M185.6,128.8c1.1-1.4,2.2-2.9,3.3-4.3c7.2,7.4,15.5,13.6,23.4,20.2c6.8,5.9,11.8,13.9,13.5,22.8
	c-7.4-1.6-14.4-5.1-19.9-10.3C197.6,149,192,138.5,185.6,128.8z"/>
<path d="M92.1,153.1c5.3-7.4,10.9-14.7,15.8-22.4c2.1,0.6,4.2,1.2,6.3,1.6c-5.5,16.9-13.9,35.2-31.1,42.9
	C83.9,167.1,87.4,159.6,92.1,153.1z"/>
<path d="M178.3,131.8c1.2-0.4,2.4-0.6,3.7-0.8c3.4,0.6,4.9,3.9,6.5,6.6c4.9,9.5,13.8,16.2,18.1,26c1.7,3.6,2.6,7.5,3,11.4
	C192,167.8,183,149.1,178.3,131.8z"/>
<path d="M158.6,151.7c2.5-2,4-4.9,5.3-7.8c3.7,7.5,7.4,15,11.4,22.3c-3.1,3.5-5.8,7.7-10,10.1c-3.7-2.7-3.8-7.5-5.9-11.2
	c-0.6,4.6,1.3,9,2.9,13.2c-3.4,3.6-8.3,5-13.1,5.2c-0.2-5-1.5-9.9-2-14.9c-2.1,4.7-1.8,10-2.9,14.9c-4.5-0.1-8.7-1.7-12.4-4.3
	c1-4.5,1.8-9,2.3-13.5c-1.6,3.8-3.3,7.6-4.7,11.4c-4.2-2.8-7.8-6.4-10.6-10.6c3.1-7.2,6.8-14.2,9.6-21.5c2.4,4.8,6.5,8.9,11.8,10.3
	C146.6,156.9,153.8,156.1,158.6,151.7z"/>
<path d="M169.9,175.8c2.6,2.5,5,5.2,7.2,8c-0.9,0.7-1.7,1.4-2.6,2.1c1.7,3.4,3.6,6.9,6.8,9.1c3.6-2.4,7.9-5.8,12.5-4.2
	c3,2.1,2.3,6.2,2.5,9.4c-2.9-1.7-7-3.4-9.4,0.1c2.8,1.2,5.8,1.4,8.6,2.4c-0.1,3.4,0.7,7.6-2.6,9.9c-0.3-3.9-4-4.7-7.1-5.8
	c-0.5,1-1,2-1.5,3c1,3.8,3.2,7.3,3.2,11.3c-1.9-0.5-4.3-0.5-5.6-2.2c-1.6-2.3-2.6-4.9-3.9-7.4c-3,1.3-1.7,4.7-0.5,6.8
	c-2.4,0.9-6,0.2-6.6-2.6c-0.4-4.1,2.8-7.1,4-10.8c0.1-8.5-5.3-15.8-11.5-21C164.9,180.9,167.9,178.7,169.9,175.8z"/>
<path d="M116.5,182.1c1.4-2.3,3.4-5.2,6.5-4.8c3.3-0.6,4.8,2.9,6.7,4.8c-4.7,5.5-10.6,11.1-11.5,18.8c-0.9,5.6,6,9.2,4.8,14.8
	c-1.3,2.3-3.9,2.9-6.3,3.1c0.5-2.4,0.8-4.8,0.7-7.3c-4.9,2.6-4.5,10.5-10.9,10.7c-1.2-5.1,4.7-9.8,1.2-14.6
	c-3.4,1.1-6.7,2.9-7.3,6.8c-1.8-3.5-1.9-7.5-1.7-11.4c2.5-0.4,5.1-0.7,7.7-0.9c-0.9-1.2-1.4-3.6-3.4-3.1c-2.2,0.4-4.2,1.5-6.2,2.4
	c-0.6-4.2,1.1-7.9,3.6-11.1c4.5,0,7.5,3.5,10.8,5.9c3-2.5,5.6-5.7,6.9-9.3C117.7,185.3,116.4,183.9,116.5,182.1z"/>
<path d="M131.9,183.4c8.4,6.6,20.6,6.2,29.6,0.9c4.6,4.9,8.2,10.7,11.1,16.8c-3.7,7.6-3,16.2-3.1,24.4c-4-3.8-4-9.6-6.4-14.2
	c0.3,5.4,2.5,10.4,3.2,15.7c-3.1,1.6-6.2,3.5-9.8,3.5c-0.8-6.4-1.4-12.8-3.1-19.1c-0.6,6.7,1.2,13.4,1.6,20.1
	c-4.9,1.3-10.1,1.9-15,0.2c-0.7-6.1,1.2-12.1,0.6-18.2c-1.2,6-1.9,12-2.9,18c-3.3-1.4-6.7-2.7-10-4.2c2.2-6.8,3.2-13.9,5-20.8
	c-3.1,6.3-4.1,13.4-6.5,19.9c-4.3-2.8-2.3-8.1-0.8-12c-2.9-4.4-4.5-9.9-2.7-15C124.7,193.6,128.8,188.7,131.9,183.4z"/>
</svg>
