<?xml version="1.0" encoding="utf-8"?>
<!-- Generator: Adobe Illustrator 21.1.0, SVG Export Plug-In . SVG Version: 6.00 Build 0)  -->
<svg version="1.1" id="Layer_1" xmlns="http://www.w3.org/2000/svg" xmlns:xlink="http://www.w3.org/1999/xlink" x="0px" y="0px"
	 viewBox="0 0 300 300" style="enable-background:new 0 0 300 300;" xml:space="preserve">
<path d="M219,61c7.8-4.9,15-10.8,21.3-17.5c-1.9,14.7-9.4,28.7-21.2,37.7c-16.4,12.6-37,17.6-54.3,28.7
	c17.4-6.4,34.6-13.4,51.9-20.2c14.3-5.9,28.9-11.3,42.6-18.5c-4.2,10-11.7,18.4-20.3,24.8c-15.4,11.6-33.8,18.2-51.4,25.6
	c3.8,0.3,7.7-0.2,11.5-0.7c25.4-2.5,50.2-9.8,73.2-20.9c-1.5,7.9-6.1,15-12.5,19.7c-9.9,7.5-22.3,10.7-34.3,12.9
	c-9.3,1.6-18.6,3-28,3.7c11.8,1.9,23.7,0.5,35.6,0.2c12.3-0.9,24.7-1.8,37-3.1c-9.2,11.3-23.8,16.2-37.7,18.2
	c-12.4,1.8-25,1.7-37.5,2.7c17.8,1.9,35.9,1.8,53.7-0.6c-2.9,5.9-8.7,10-14.9,11.9c-11.3,3.5-23.3,2.9-35,4.2c8,3.2,16.6,4,24.9,5.8
	c-7.8,8.3-20.1,9-30.7,7.2c-10-1.9-19.9-3.8-29.9-5.7c-2.8-0.4-5.6-1.4-8.5-0.8c16.1,5.1,30.4,14.5,44.6,23.4
	c11.5,7.2,23,14.5,35.1,20.8c-3.9,7.3-11.3,11.8-19.1,13.9c-11.4,3.2-23.4,3.1-34.9,0.6c-3.2-4.8-6.7-9.5-10-14.3
	c-3.7-5.2-7.9-10.6-14-13.2c-0.2,6.3,6.7,9.1,8.9,14.4c-1.7,0.6-3.4,1.1-5.1,1.7c3.6,3.5,9.2,5.8,9.7,11.5c-1.6,0-3.1,0-4.7,0
	c3.3,5.2,6.4,10.6,9.5,15.9c-13.4,2.1-27.1,2.3-40.6,2.6c-8.7,0.8-17.5,0.2-26.3,0.4c-0.8-3.9-1.6-7.9-1.1-12c1.5-2.9,5.1-3.6,8-3.9
	c3.8-0.2,7.5-0.2,11.3-0.3c0.4-7.2-3.2-13.8-6.3-20c-16.1-5.3-32-11.6-48.1-17c-13.5-4.3-28.9-4.8-41.4,2.5
	c-3.6-4.1-6.2-9.8-4.2-15.2c3-6.9,10.1-10.6,16.6-13.5c12.7-5.6,26.6-8.3,40.5-7.7c0.3,2.4-1.8,4-3,5.8c4-0.3,7.5-2.5,11-4.2
	c-1.5-7.7-6.6-14.1-12.9-18.5c-7.7-5.3-16.2-9.7-23-16.3c5.8-8.8,14.7-14.9,23.8-19.7c24.6-12.5,52.2-16.4,78.2-25.1
	C178.5,81.5,199.8,73.2,219,61z"/>
</svg>
