<?xml version="1.0" encoding="utf-8"?>
<!-- Generator: Adobe Illustrator 21.1.0, SVG Export Plug-In . SVG Version: 6.00 Build 0)  -->
<svg version="1.1" id="Layer_1" xmlns="http://www.w3.org/2000/svg" xmlns:xlink="http://www.w3.org/1999/xlink" x="0px" y="0px"
	 viewBox="0 0 36 36" style="enable-background:new 0 0 36 36;" xml:space="preserve">
<g>
	<path d="M33.6,11.9L33.6,11.9C33.6,11.9,33.6,11.9,33.6,11.9c-0.9,0.7-2.1,1-3.6,1.2c0.7,0.3,1.1,0.5,1.3,0.7
		c-0.2,0.3-0.6,0.5-1.3,0.5c-1.1,0.1-1.7,0.1-1.7,0.1c-0.1,0,0.1,0,0.7,0.1c-0.3,0.3-1,0.5-2.3,0.6c0.2,0.3,0.3,0.5,0.3,0.6
		c-0.2,0-0.5,0.1-1,0.3c0.1,0.3,0.2,0.6,0.1,0.9c-0.3-0.2-0.5-0.1-0.8,0.1c-0.2,0.2-0.3,0.5-0.1,0.8c-0.3,0.1-0.6,0.2-0.8,0.1
		c0,0.1-0.1,0.2-0.2,0.3c-0.1,0.2-0.1,0.3-0.2,0.3c-0.2-0.1-0.4-0.4-0.5-0.9c0,0-0.1,0.2-0.3,0.7c-0.1,0.3-0.3,0.4-0.5,0.5
		c-0.3-1-0.5-1.5-0.5-1.5c0,0.1-0.1,0.4-0.1,0.8c-0.6-0.1-0.8-0.5-0.8-1.1c0,0,0,0.1,0,0.3c0,0.1,0,0.2,0,0.3c0,0,0.2,0.3,0.7,0.8
		c0,0,0.2,0.3,0.6,1c0.5,0.9,1,1.4,1.4,1.6c0.1,0,0.4,0.1,0.9,0.2c0,0,0.2,0,0.3,0.1c0.2,0,0.3,0.1,0.3,0.1c0.3,0,0.4,0,0.5-0.1
		c0.6,0.2,0.9,0.7,0.8,1.6c-0.1-0.6-0.2-1-0.3-1.1c0,0.1,0,0.2,0,0.3c0,0.2,0,0.3,0,0.4c-0.2-0.5-0.3-0.7-0.3-0.8
		c-0.1,0-0.5-0.1-1.4-0.2c-0.4,0-0.8-0.1-1.3-0.3c0,0,0,0.1,0.1,0.2c0,0.1,0.1,0.2,0.1,0.2c0.1,0.1,0.4,0.1,0.6,0.1
		c0.3,0,0.5-0.1,0.6-0.2c0.6,0.3,0.8,0.8,0.9,1.6c-0.1-0.5-0.4-1-0.9-1.3C24.7,22,24.5,22,24.2,22c-0.3,0-0.5-0.1-0.6-0.2
		c-0.1-0.3-0.3-0.6-0.7-0.9c-0.5-0.3-0.8-0.6-0.8-0.7c0,0,0,0.1,0,0.2c0,0.1,0,0.2,0,0.2c-0.2-0.2-0.6-0.7-1.2-1.4
		c-0.5-0.5-0.9-1-1.1-1.5c0,0,0.4,0.2,1.4,0.7c0,0,0,0-0.1,0c-0.1,0-0.1,0-0.2,0c0.1,0.2,0.2,0.3,0.2,0.4c-0.1,0-0.2-0.1-0.4-0.3
		c-0.2-0.1-0.3-0.2-0.4-0.3c0.1,0.2,0.7,0.8,1.6,1.7c0-0.1-0.1-0.2-0.1-0.2c0,0,0.1,0.1,0.5,0.4c-0.6-0.6-0.9-1.3-1.1-1.9
		c0.5,0.9,1.1,1.7,2.1,2.4c-0.5-0.7-0.8-1.1-0.8-1.1c0-0.1-0.2-0.4-0.4-1c-0.1-0.4-0.3-0.6-0.6-0.8c0.1,0.4,0.2,0.7,0.3,0.8
		c-0.6-0.6-1-1.1-1.2-1.7c-0.1-0.5-0.2-0.7-0.2-0.8c0-0.4,0.3-0.7,0.8-0.7c0.4-0.4,0.7-0.6,1-0.6c0,0,0-0.1,0-0.2
		c0-0.1,0-0.1,0.1-0.1c0.1,0,0.2,0,0.5,0.1c0.2,0.1,0.3,0.1,0.4,0c0,0,0-0.1,0-0.1c-0.1,0-0.2,0-0.4,0c-0.1-0.1-0.2-0.2-0.1-0.3
		c-0.2-0.2-0.5-0.6-1-1c0,0,0.4,0.3,1.2,0.8c0,0,0,0,0-0.1c0,0,0.1,0.1,0.2,0.3c0.1,0.1,0.2,0.2,0.3,0.3c0,0,0,0,0.1-0.1
		c0.2,0.4,0.3,0.5,0.5,0.5c0.1-0.1,0.1-0.2,0.1-0.4c0-0.1,0,0,0.1,0.1c0.1-0.3,0-0.6-0.4-0.8c0,0,0.1,0,0.2,0c0,0-0.2-0.2-0.6-0.7
		c0.1,0,0.3,0.1,0.5,0.4c0-0.3-0.2-0.5-0.5-0.6c-0.4-0.2-1.2-0.4-2.4-0.6c-0.7-0.1-1.5-0.3-2.6-0.4c0.2,0.1,0.5,0.2,1.1,0.3
		c-0.1,0.1-0.2,0.1-0.4,0.2c0.1,0,0.5,0.1,1.3,0.3c0,0-0.4,0.1-1.1,0.3c0,0,0.5,0.1,1.3,0.3c-0.1,0.1-0.2,0.1-0.4,0.2
		s-0.3,0.2-0.4,0.2c0.2,0.1,0.4,0.1,0.5,0c0,0.1-0.1,0.1-0.2,0.2c-0.1,0.1-0.2,0.2-0.2,0.2c0.2,0,0.5,0,0.9,0.1
		c-0.5,0.3-0.8,0.5-0.8,0.5c0,0,0.2,0,0.8-0.1c0,0.1-0.1,0.1-0.3,0.2C20.1,14.8,20,14.9,20,15c0.1,0,0.1,0,0.2,0c0.1,0,0.2,0,0.2,0
		c0,0.1,0,0.1-0.1,0.2c0,0.1-0.1,0.2-0.1,0.2c0.1,0,0.2-0.1,0.5-0.3c-0.4,0.6-0.7,1.5-0.8,2.7c-0.1,0-0.2-0.1-0.6-0.2
		c0.1,0.6,0.5,1.4,1.2,2.3c-0.1-0.1-0.3-0.2-0.5-0.4c-0.2-0.2-0.4-0.3-0.5-0.4c0.1,0.5,0.4,1,0.9,1.6c-0.5-0.2-1-0.6-1.5-1.3
		c0.4,0.9,0.9,1.5,1.4,1.9c-0.5-0.1-1.1-0.5-1.7-1.1c0.3,0.5,0.7,1,1.4,1.3c-0.1,0-0.3-0.1-0.6-0.3c-0.3-0.2-0.5-0.3-0.6-0.4
		c0.5,1,1.2,1.7,2.3,2.1c0-0.1-0.1-0.2-0.2-0.4c-0.1-0.2-0.2-0.3-0.2-0.4c0.4,0.2,0.8,0.5,1.1,0.9c0-0.1-0.1-0.2-0.2-0.4
		c-0.1-0.2-0.2-0.3-0.2-0.4c0.1,0.2,0.2,0.3,0.3,0.4c0-0.1,0.1-0.2,0.1-0.4c0,0,0.1,0.1,0.2,0.2c0,0,0-0.1,0-0.2c0-0.1,0-0.1,0-0.2
		c0.6,0.2,0.8,0.4,0.8,0.4c0,0,0.1,0,0.2-0.1c0.1,0,0.1-0.1,0.2-0.1l0.8,0.1c-0.2,0.3-0.2,0.5,0,0.8c0.1,0.1,0.1,0.2,0.3,0.3
		c0.1,0.1,0.2,0.2,0.2,0.3c-0.3,0-0.5-0.1-0.7-0.3c-0.2-0.2-0.2-0.4-0.1-0.7c-0.1-0.1-0.2-0.2-0.5-0.2s-0.3,0.1-0.3,0.3
		c-0.1,0-0.1-0.1-0.3-0.2s-0.2-0.2-0.3-0.2c0,0,0,0.1,0.1,0.3c0.1,0-0.1-0.1-0.5-0.2c0,0.1,0.1,0.2,0.1,0.4c0.1,0.2,0.1,0.3,0.1,0.4
		c-0.3-0.1-0.6-0.3-1.1-0.8c0,0.1,0.1,0.2,0.2,0.4c0.1,0.2,0.2,0.4,0.2,0.5c-0.2-0.1-0.4-0.3-0.7-0.5c-0.3-0.2-0.6-0.4-0.7-0.5
		c-0.7-0.5-1.2-0.8-1.3-1c0,0-0.1-0.1-0.1-0.2c0-0.1-0.1-0.2-0.1-0.2c0,0-0.1-0.1-0.1-0.1S18.6,21,18.5,21c-0.1-0.2-0.4-1-0.7-2.5
		c0,1.9,0.5,3.2,1.6,4c-0.1-0.2-0.2-0.3-0.2-0.5c0.7,0.3,1.4,0.9,2,1.7c0.3,0.4,0.5,0.8,0.4,0.9c0,0.2-0.2,0.3-0.4,0.5
		c-0.3,0.2-0.5,0.2-0.8,0.1c-0.1,0.1-0.3,0.3-0.5,0.6c-0.3,0.4-0.4,0.7-0.5,0.7c-0.2,0.2-0.3,0.4-0.4,0.4c0,0-0.2-0.1-0.6-0.4
		c-0.3,0.7-0.8,1-1.3,1.1c0-0.1,0-0.2,0.1-0.3c0.1-0.2,0.1-0.3,0.1-0.3c-0.1,0.1-0.3,0.3-0.6,0.5c-0.3,0.3-0.5,0.4-0.5,0.5
		c-0.6,0.5-1,0.8-1.3,0.9c0,0,0-0.1,0-0.3c-0.5,0.1-0.8,0.2-1,0.2c-0.4,0.1-0.7,0-0.8-0.3c-0.8,0.3-1.5,0.4-2.1,0.2
		c0,0.1,0.1-0.2,0.4-0.7c0,0-0.1,0-0.2,0.1c-0.1,0-0.2,0.1-0.2,0.1c-0.2-0.3-0.3-0.7-0.3-1.1s0.2-0.8,0.5-0.9
		c-1.3,0.1-2-0.1-2.3-0.6c1.6-0.5,2.9-1.1,4-1.7c0.2-0.4,0.4-0.9,0.7-1.6c0.3-0.8,0.5-1.3,0.6-1.6c0.5-1.2,1.1-2.1,1.8-2.6
		c-0.4,0.6-1.4,2.6-2.8,6c-1,0.8-2.2,1.4-3.4,1.7c0.3,0.2,0.7,0.2,1.3,0.2c0.5,0,0.9-0.1,1.2-0.3c0,0-0.2,0.2-0.4,0.4
		c-0.2,0.2-0.3,0.4-0.4,0.5c-0.3,0.4-0.3,0.9-0.1,1.3c0,0,0.5-0.4,1.4-1.2c-0.1,0.2-0.3,0.5-0.5,0.9c-0.3,0.4-0.4,0.7-0.5,0.9
		c0.5,0.2,0.9,0.2,1.3-0.1c0.2-0.1,0.5-0.4,0.9-0.9c0,0-0.2,0.3-0.5,0.9c0.1,0,0.3,0,0.6,0.1c0.2,0,0.4,0,0.5,0
		c0.1,0,0.3-0.2,0.6-0.6c0,0,0.1-0.2,0.4-0.8c0,0-0.1,0.3-0.4,1.1c0,0,0.3-0.3,0.9-0.9c0,0.1-0.1,0.3-0.2,0.5
		c-0.1,0.2-0.2,0.4-0.2,0.5c0.2-0.2,0.6-0.5,1.3-1.1c0.5-0.4,0.9-0.9,1.2-1.2c0,0.1,0,0.2-0.1,0.4c-0.1,0.2-0.2,0.4-0.2,0.4
		c0.3,0,0.5-0.1,0.6-0.4c0.1-0.2,0.2-0.5,0.1-0.9c0.2,0.4,0.3,0.6,0.5,0.6c0-0.1,0.1-0.3,0.3-0.6c0,0.1,0,0.2,0,0.3
		c0,0.1,0,0.2,0,0.2c0.5-0.3,0.8-0.8,0.9-1.5c0.1,0.2,0.2,0.3,0.5,0.2s0.4-0.2,0.4-0.4c0-0.1-0.1-0.2-0.2-0.4
		c-0.1-0.2-0.2-0.3-0.2-0.3c0,0,0,0.1-0.1,0.4c-0.2-0.7-0.6-1.2-1.1-1.6c0,0.2,0.2,0.5,0.4,1c0.2,0.4,0.3,0.8,0.4,1
		c-0.3,0-0.6-0.4-0.9-1c-0.2-0.5-0.4-0.8-0.4-1c0,0.1,0.1,0.4,0.2,1.1c0.1,0.5,0.1,0.9,0,1.2c0,0-0.2-0.4-0.6-1.4
		c0,0.3-0.1,0.9-0.1,1.7c-0.1-0.4-0.2-0.9-0.4-1.6c-0.2-0.8-0.3-1.4-0.3-1.7c0,0.4,0,1,0.1,1.7c0.1,0.9,0.1,1.5,0.1,1.7
		c0-0.2-0.2-1.1-0.5-2.8c0,0.1,0,1.2,0,3.3c-0.1-0.7-0.3-1.5-0.4-2.4c-0.2,0.6-0.5,1.7-0.7,3.1c-0.2-2.1-0.1-4.1,0.4-5.8
		c-0.8,1.6-1.3,3.7-1.4,6.3c-0.1-2.5,0.1-4.4,0.8-5.8c-0.9,1.5-1.5,3.1-1.7,4.6c0-1.1,0.4-2.5,1.1-4.3c-0.8,1.3-1.4,2.6-1.7,3.9
		c0.1-1.1,0.5-2.3,1-3.5c0,0-0.3,0.6-1.1,1.9c0.9-2.1,1.4-3.1,1.4-3.1c0.6-1.2,1.3-2,2-2.4c-0.1,0.3-0.5,1-1.4,2.2
		c0,0,0.2-0.2,0.5-0.5c0.2-0.2,0.4-0.4,0.5-0.5c0.4-0.4,0.6-0.9,0.6-1.5c-0.5,0.2-0.9,0.5-1.2,0.9c0.2-0.7,0.4-1.1,0.7-1.4
		c-0.1,0-0.2,0.1-0.5,0.3c0.7-1.2,1.3-1.9,1.8-2.3c-1.4,0.5-2.4,1.6-3.3,3.1c0-0.4,0.2-0.9,0.4-1.8c0,0-1.2,1.6-3.7,4.8
		c0-0.2,0.1-0.7,0.3-1.5c-0.3,0.3-0.7,0.8-1.2,1.4c0-0.2,0-0.4,0-0.7c0-0.4,0.1-0.6,0.1-0.7c-0.1,0.1-0.4,0.4-0.8,0.9
		c-0.1,0.2-0.2,0.2-0.3,0.2c0.1-0.3,0.1-0.7,0.2-1.2c-0.1,0.1-0.2,0.2-0.4,0.4c-0.2,0.2-0.4,0.4-0.5,0.4C8.9,20.7,9,20.2,9,19.7
		c-0.1,0.1-0.2,0.2-0.4,0.4c-0.2,0.2-0.3,0.4-0.4,0.5c0-0.2,0.1-0.4,0.1-0.7c0-0.3,0-0.5,0.1-0.7c-0.1,0.1-0.3,0.4-0.7,0.8
		c0-0.2,0-0.4,0.1-0.6C7.9,19.2,7.9,19,8,18.9c-0.1,0-0.2,0.1-0.3,0.3c-0.1,0.2-0.2,0.3-0.3,0.3c0-0.2,0.1-0.4,0.1-0.6
		c0-0.3,0.1-0.5,0.1-0.6c-0.1,0.1-0.2,0.2-0.4,0.4c-0.2,0.2-0.3,0.4-0.4,0.4c0.1-0.6,0.2-1,0.2-1.2c0.9-0.9,1.8-1.8,2.7-2.6
		c-0.3,0.2-0.8,0.6-1.5,1.1c-0.6,0.5-1.1,0.8-1.5,1.1c-0.1,0-0.3-0.1-0.6-0.1c-0.3,0-0.5-0.1-0.6-0.1c0.4-0.3,1.2-0.9,2.4-1.7
		c1-0.7,1.8-1.3,2.4-1.8c-0.4,0.2-0.8,0.4-1.5,0.7c-0.7,0.4-1.2,0.6-1.5,0.8c-0.7,0.3-1.1,0.4-1.4,0.4c1.1-1.1,2.1-1.8,2.9-2.3
		c-1.8-0.1-3.2-0.4-4.2-0.9C3.4,11.9,2.6,11,2.2,9.8c3.5,1.3,6.4,1.9,8.5,1.9c-1.6-0.4-3-0.9-4.1-1.5C5.7,9.7,5,9.3,4.7,8.9
		C4.1,8.3,3.8,7.5,3.9,6.6C5,8,7.1,9.1,10.1,10.1c1.2,0.4,2.1,0.5,2.7,0.5c-1.2-0.3-2.4-0.7-3.6-1.5C8.4,8.7,7.9,8.3,7.6,7.9
		C7.1,7.3,6.9,6.6,6.9,5.8c1.1,1.3,2.7,2.4,4.6,3.4c-1.4-1-2.1-2.2-2.1-3.8c0.9,1.3,1.8,2.3,2.6,3.1c0.7,0.7,1.4,1.3,2.1,1.6
		c0.5,0.2,1.2,0.5,2,0.8c0.1,0,0.2,0.1,0.4,0.1c0.2,0,0.3,0.1,0.4,0.1s0.2,0.1,0.3,0.1c0.2,0.1,0.3,0.1,0.3,0.2
		c0.3,0.1,1,0.3,2.2,0.5c1.2,0.2,2.1,0.5,2.8,0.8c0.6-0.3,0.9-0.4,0.8-0.4c0.1,0,0.2,0,0.4,0s0.4,0,0.5-0.1c-0.1,0,0.1-0.1,0.7-0.4
		c0.4-0.2,0.7-0.3,0.8-0.4c0.1,0,0.3,0,0.5,0c0.2,0,0.4,0.1,0.5,0.1c0.8,0,1.3-0.4,1.6-1.2c1.3,0.1,2.1-0.1,2.6-0.6
		c0,0,0.3-0.6,1.1-1.9c0.1,0.8-0.2,1.5-0.9,2.3c0.6-0.2,1.2-0.7,1.7-1.5c-0.2,0.9-0.9,1.7-2.2,2.2c0.7,0.1,1.5-0.1,2.4-0.8
		c0,0.5-0.3,0.9-0.9,1.2c-0.1,0-0.4,0.2-0.8,0.3c-0.3,0.1-0.6,0.2-0.7,0.4c1.1,0.4,1.6,0.6,1.6,0.6S32.7,12.3,33.6,11.9z M3.9,15.3
		c0.1,0.2,0.3,0.5,0.6,0.8c0.3,0.4,0.5,0.7,0.6,0.8c-0.1,0-0.2,0.1-0.3,0.2c-0.1,0.1-0.3,0.2-0.3,0.2c-0.6-0.7-1.2-1.5-1.8-2.3
		C4,13.9,4.7,13.3,5,13.1c0,0,0,0,0.1,0c0.1,0,0.2,0.1,0.5,0.1c0.2,0.1,0.4,0.1,0.6,0.1C4.7,14.6,3.9,15.2,3.9,15.3z M5.8,17.8
		c0.1,0.1,0.2,0.2,0.3,0.4c0.1,0.2,0.2,0.3,0.3,0.4c0,0.1,0,0.3-0.1,0.6c0,0.2-0.1,0.4-0.1,0.5c0,0-0.1,0-0.2-0.2
		c-0.6-0.8-1.2-1.4-1.6-1.9C5.4,17.7,5.9,17.8,5.8,17.8z M7.5,19.7c0,0.1,0,0.3,0,0.6c0,0.3,0,0.5,0,0.6c0,0,0,0-0.1,0
		c-0.1-0.1-0.2-0.3-0.5-0.6c-0.2-0.2-0.4-0.4-0.5-0.6c0,0,0.1-0.1,0.1-0.1s0.1-0.1,0.2-0.1c0.2-0.2,0.3-0.3,0.2-0.3
		c0.1-0.1,0.2,0,0.2,0.1c0,0.1,0,0.2,0,0.4c0,0.2,0,0.3,0,0.4c0,0,0.1-0.1,0.2-0.2C7.3,19.8,7.4,19.8,7.5,19.7z M11.2,24.6
		c0,0-0.2-0.1-0.5-0.4c-1.4-1.2-2.5-2.3-3.3-3.1c0.2-0.3,0.4-0.6,0.5-0.7C8,20.4,8.1,20.6,8,20.8c0,0.3,0,0.5,0,0.5
		c0.1,0,0.2-0.2,0.4-0.5c0.1,0.1,0.2,0.2,0.2,0.4c0,0,0,0.1-0.1,0.3c0,0.1,0,0.2,0,0.3c0,0,0.2-0.2,0.4-0.5c0.1,0.1,0.2,0.2,0.3,0.3
		c0,0.1,0,0.2,0,0.3s0,0.2,0,0.3C9.5,22.1,9.6,22,9.6,22c0.6,0.6,1.4,1.3,2.4,2.2c0,0-0.2,0.1-0.4,0.2
		C11.4,24.5,11.3,24.6,11.2,24.6z M8.3,11.2c0,0,0,0-0.1,0c-0.1,0-0.1,0-0.1,0C8.1,11.3,8.2,11.3,8.3,11.2z M14.3,9.9
		c-0.4-0.2-0.7-0.4-0.9-0.6c2.4-0.5,3.8-0.8,4.1-0.8c0.6,0,1.4,0.1,2.7,0.3c2.6,0.5,4.8,1.3,6.8,2.1C26.9,11,26.7,11,26.4,11
		c-0.3-0.1-0.5-0.1-0.6-0.1c-0.3,0-0.6,0.2-1,0.4c-0.5,0.3-0.8,0.5-0.9,0.5c-0.5-0.1-1.1,0-1.7,0.2c-0.9-0.4-1.9-0.6-2.9-0.7
		c-1-0.1-1.6-0.2-1.7-0.3V9.3C16.7,9.3,15.6,9.5,14.3,9.9z M25.6,23.2c0,0,0.1,0,0.1,0.1s0,0.1,0.1,0.1c-0.1,0.2-0.4,0.5-0.9,0.9
		c-0.9,0.8-2,1.8-3.4,3c-2.1,1.7-3.2,2.7-3.5,2.9h-0.1c0,0-0.4-0.4-1.3-1.1l-0.5-0.4c0,0,0.1-0.1,0.3-0.3c0.2-0.2,0.3-0.3,0.3-0.3
		c0,0,0.3,0.3,1,0.8V28c0.1-0.1,0.2-0.2,0.4-0.4c0.2-0.2,0.3-0.3,0.4-0.4c0.2,0.3,0.4,0.4,0.7,0.2c0.2-0.1,0.4-0.3,0.6-0.7
		c0.3-0.4,0.5-0.8,0.7-1.1c0.6,0.1,1.1-0.2,1.5-0.7c-0.1-0.4-0.4-0.9-0.8-1.4c0.1,0,0.2,0.1,0.4,0.1c0.2,0.1,0.4,0.1,0.5,0.2
		c0-0.1,0-0.2-0.1-0.4c0,0,0.2,0.1,0.4,0.1c0.2,0.1,0.3,0.1,0.4,0.2c0-0.1,0-0.2-0.1-0.4c-0.1-0.2-0.1-0.4-0.1-0.4
		c0.2,0.1,0.4,0.2,0.5,0.3c0,0,0-0.1-0.1-0.2c0,0,0.1,0,0.1,0.1c0.1,0.1,0.2,0.1,0.2,0.1c0-0.1,0-0.3,0.1-0.4c0.1-0.1,0.2-0.1,0.3,0
		c0.1,0.5,0.2,0.8,0.2,0.8c0.1,0.1,0.5,0.2,1.2,0.4c0,0,0-0.1-0.1-0.2c-0.1-0.1-0.1-0.1,0-0.1c0.1,0.1,0.1,0.1,0.2,0.1s0.1,0,0.2,0
		c0.1-0.1,0.2-0.1,0.2-0.1S25.5,23.6,25.6,23.2z M23.4,16.3c0.2,0,0.4-0.2,0.5-0.5c0.1-0.3,0.1-0.6,0.1-0.8c0-0.1-0.2-0.2-0.3-0.2
		c0,0-0.1,0-0.2,0s-0.2,0-0.2,0c0,0,0,0,0,0.1c0,0,0,0.1,0,0.1c-0.3-0.1-0.6-0.2-0.7-0.2c0,0.1,0.2,0.2,0.3,0.3
		c0.2,0.2,0.3,0.3,0.4,0.4C23.5,15.7,23.6,16,23.4,16.3z M29.5,14.7c0.9,0,1.6-0.2,2.3-0.7c0.3,0.2,0.7,0.6,1.3,1.1
		c-2.2,3-4.2,5.4-6,7.2c-0.1-0.7-0.5-1.1-1.1-1.2c0,0-0.1,0-0.1,0.1c0,0-0.1,0.1-0.1,0.1c-1-0.2-1.6-0.4-1.7-0.4
		c-0.2-0.1-0.4-0.4-0.6-0.7c-0.2-0.4-0.4-0.6-0.5-0.8c0.3-0.1,0.5-0.4,0.6-0.7c0.1,0.1,0.2,0.3,0.5,0.4c0,0,0.2-0.2,0.5-0.7
		c0.5,0.1,0.9-0.1,1.3-0.5c-0.3-0.3-0.3-0.5-0.1-0.6c0.2,0,0.4,0,0.6,0.2c0.2-0.4,0.2-0.7,0.1-1.1c0.1,0,0.4-0.1,0.9-0.2
		c0-0.1,0-0.2-0.1-0.3s-0.1-0.2-0.1-0.3c0.6,0.1,1.4-0.1,2.4-0.6C29.7,14.9,29.6,14.8,29.5,14.7z M23.4,15.1c0.1,0,0.1,0,0.2,0
		c0,0,0.1,0.1,0,0.2c0,0,0-0.1-0.1-0.1C23.4,15.2,23.4,15.2,23.4,15.1z M24.9,22.4c-0.2,0.1-0.2,0.3-0.1,0.6c0,0.1,0.1,0.3,0.3,0.6
		c0,0,0,0,0,0c-0.2-0.3-0.4-0.5-0.5-0.8c-0.1-0.4,0-0.6,0.3-0.8c0.6,0.5,0.8,1,0.5,1.5C25.3,23,25.2,22.6,24.9,22.4z M25.8,21.7
		c0.1,0.4,0.3,0.8,0.8,1.1c0.1,0,0.1,0,0,0c-0.3-0.1-0.5-0.2-0.7-0.4C25.6,22.2,25.6,21.9,25.8,21.7z M25.9,23.4
		c0-0.5,0-0.7,0.1-0.6c0.1,0.1,0.2,0.1,0.4,0.2c0,0-0.1,0.1-0.2,0.2C26,23.3,25.9,23.3,25.9,23.4z"/>
</g>
</svg>
