<?xml version="1.0" encoding="utf-8"?>
<!-- Generator: Adobe Illustrator 21.1.0, SVG Export Plug-In . SVG Version: 6.00 Build 0)  -->
<svg version="1.1" id="Layer_1" xmlns="http://www.w3.org/2000/svg" xmlns:xlink="http://www.w3.org/1999/xlink" x="0px" y="0px"
	 viewBox="0 0 100 100" style="enable-background:new 0 0 100 100;" xml:space="preserve">
<g>
	<path d="M8.2,46.6c0.4-0.4,0.5-0.5,0.5-0.5c0,0.1,0,0.2-0.1,0.3C8.3,46.6,8.1,46.7,8.2,46.6z M91.9,48.9c0.1,0,0.1,0,0,0.1
		c-0.1,0.1,0,0.1,0.1,0.1c0.9,3,0.6,6.8-0.8,11.5L91,60.8c-0.3,1.5-1,3.7-2.3,6.4c-1.1,2.5-1.7,4.6-2,6.4c-0.1,0.9-0.2,1.4-0.2,1.4
		c0.1,0.1,0.1,0.2,0.1,0.5s0,0.4-0.1,0.4c0,0-0.2-0.3-0.4-1c-0.4-1-0.6-1.6-0.7-2l-0.2-0.3c-0.5-2-0.8-3.9-0.7-5.6c0-1,0-1.5,0-1.6
		c-0.3,0.3-0.5,0.7-0.8,1.3c-0.3,0.8-0.5,1.3-0.6,1.5c-0.2-0.1-0.3-0.2-0.3-0.4c0,0,0-0.1,0-0.2c0-0.1,0-0.2,0-0.2
		c-0.4-2.8-0.6-5-0.4-6.8c-0.2,0-0.3,0-0.4,0c-0.2,0.3-0.5,0.7-0.8,1.3c-0.3,0.5-0.5,0.9-0.8,1.3c0,0.3,0-1.5,0.1-5.3h-0.2
		c-0.7,1.1-1.1,1.7-1.1,1.8c-0.5-1.2-0.7-2.5-0.5-4.1c0-0.2-0.2-0.3-0.5-0.4c-0.5,1.1-0.9,1.8-1.3,2c-0.2-0.4-0.3-0.9-0.4-1.7
		c-0.2-0.9-0.3-1.5-0.4-1.7c0,0-0.2,0.2-0.5,0.6c-0.5-0.7-0.8-1-0.9-1.1c0,0-0.1,0.1-0.2,0.4c-0.1,0.1-0.1,0-0.1,0
		c0-0.1-0.1-0.1-0.2-0.1c0-0.1,0-0.1,0.1-0.1c0.1,0,0.1-0.1,0.1-0.1c0.1-1.2-0.2-2.8-0.9-4.9c-0.6-0.6-1.1-1.5-1.6-2.5
		c-0.1,0-0.1,0.1,0,0.2c0,0.1,0.1,0.1,0.1,0.1c0,0-0.1-0.2-0.4-0.5c0,0.5,0.2,1.3,0.7,2.3c0.5,1,0.7,1.9,0.8,2.5
		c-0.7-1.5-1.2-2.3-1.3-2.5c0-0.1,0.2,0.4,0.6,1.3c-0.1-0.1-0.2-0.3-0.4-0.7c-0.2-0.4-0.4-0.7-0.5-0.8c0,0.1,0.1,0.3,0.2,0.6
		c0.1,0.2,0.2,0.4,0.2,0.6c-0.1-0.1-0.3-0.5-0.6-1.1c-0.2-0.5-0.4-0.8-0.7-1c0.1,0.3,0.3,0.6,0.4,0.8c0.1,0.3,0.1,0.4,0,0.3
		c-0.1-0.1-0.2-0.3-0.4-0.7c-0.2-0.3-0.3-0.6-0.5-0.8c0.1,0.2,0.2,0.4,0.3,0.8c0.2,0.3,0.3,0.6,0.3,0.8c-0.1-0.1-0.3-0.4-0.5-0.8
		c-0.2-0.4-0.4-0.6-0.6-0.8c0.5,1.1,0.8,1.5,0.7,1.3c-0.1-0.1-0.3-0.4-0.6-1c0.7,2.5,1.7,4.2,2.7,5.2c1.1,1.1,1.7,1.5,1.6,1.4
		c-1.2-0.9-1.9-1.4-2.2-1.6c0.3,2.1,0.3,3.5-0.2,4.4c-0.3-0.7-0.5-1-0.6-1.1c-0.2,0.2,0,0.3,0.4,0.4c0.5-2.1,0.1-4.1-1.3-6
		c0,0.2,0.1,0.6,0.2,1.2c0.1,0.5,0.2,0.9,0.2,1.2l-0.2-0.7c-0.1-0.2-0.2-0.5-0.4-1c-0.2-0.4-0.3-0.7-0.4-1c0,0.2,0,0.5,0.2,1
		c0.2,0.4,0.3,0.7,0.2,0.8c-0.1-0.4-0.3-0.8-0.5-1.4c-0.3-0.8-0.5-1.2-0.5-1.4c0,0.1,0,0.4,0.1,0.7c0.1,0.4,0.2,0.7,0.2,0.8
		c-0.1-0.1-0.2-0.3-0.3-0.6c-0.1-0.3-0.2-0.5-0.2-0.6c-0.1,0.1,0,0.2,0,0.4c0.1,0.2,0.1,0.4,0.1,0.5c-0.3-0.8-0.6-1.5-0.8-2
		c0,0.1,0,0.3,0.1,0.5c0.1,0.3,0.1,0.5,0.1,0.7c-0.1-0.1-0.2-0.4-0.3-0.7c-0.1-0.3-0.2-0.6-0.3-0.7c0,0.1,0,0.2,0.1,0.4
		c0.1,0.2,0.1,0.4,0.1,0.5c-0.1-0.1-0.1-0.2-0.2-0.4c-0.1-0.2-0.2-0.3-0.2-0.4c0.2,1.9,1.2,4.2,2.9,7c0,0-0.2-0.2-0.5-0.6
		c-0.2-0.2-0.3-0.3-0.2-0.3c-0.4-0.5-0.6-0.8-0.7-1.1c-0.1,0.1-0.2,0.1-0.2,0.1c0,0.1,0,0.6,0,1.6c0.1,0.8,0,1.4,0,1.7
		c-1.2-2-2-3.1-2.1-3.3c-0.4,1.6-0.6,2.4-0.4,2.3c0.2-1,0.2-1.8,0.1-2.2c0.1,0,0,0.2,0,0.5c-0.1,0.1-0.2-0.2-0.2-0.9
		c-0.1,0.1-0.1,0.4,0,0.7c0,0.3,0,0.5,0,0.7c-0.1-0.1-0.1-0.3-0.1-0.6c0-0.3,0-0.5,0-0.6c0,0,0,0.2-0.1,0.5c0,0.1-0.1-0.1-0.1-0.4
		c0.1,0,0,0.1,0,0.4c-0.1,0-0.1-0.1-0.1-0.3c0-0.3-0.1-0.5-0.1-0.6c0.1,0,0.1,0.2,0,0.6c-0.1-0.1-0.1-0.4-0.2-0.7
		c0-0.4-0.1-0.6-0.1-0.7c-0.2,0.9,0.1,2.1,0.8,3.7c0,0.1,0,0.1,0.1,0c0.1-0.1,0.1-0.1,0.1,0c0,0.9-0.1,1.4-0.1,1.3
		c0,0-0.2-0.1-0.6-0.3c0.1,0.2,0.3,0.5,0.7,0.9c0.4,0.4,0.6,0.7,0.6,1.1c-0.1,0-0.3,0-0.4-0.2c-0.2-0.2-0.4-0.3-0.5-0.3
		c0.2,0.3,0.7,0.6,1.4,1.1c-0.2-0.6-0.4-1-0.5-1.3c-0.1,0-0.2-0.2-0.5-0.5c-0.2-0.2-0.2-0.3-0.1-0.3c0-0.1,0,0,0.2,0.2
		c0.2,0.2,0.3,0.3,0.3,0.3c0.3,0.4,0.5,0.9,0.8,1.6c0,0,0,0,0.1,0c0,0,0.1,0,0.1,0.1c-0.1,0.2-0.2,0.2-0.4,0c0,0.3,0.1,0.6,0.4,1
		c0.2,0.4,0.3,0.7,0.2,1c-0.2-0.3-0.2-0.5-0.2-0.6c-0.1,0.1-0.1,0.2,0,0.3c0.1,0.2,0.1,0.3,0,0.4c-0.2-0.1-0.5-0.3-1.1-0.7
		c0,0,0.4,0.4,1.3,1.2c0.1,0,0.1-0.1,0-0.3c0-0.2,0-0.2,0.2-0.2c0-0.3,0.8,1.1,2.4,4.3c0,0,0.2,0.2,0.7,0.5c-0.1,0.1-0.2,0.1-0.3,0
		c-0.2-0.1-0.4-0.2-0.5-0.1c-0.2,0-0.3,0.1-0.4,0.3c-0.1,0.2-0.2,0.3-0.3,0.3c-0.2-0.4,0-0.8,0.6-1.1c-0.3-0.3-0.8-1-1.4-2
		c-0.5-0.9-1-1.5-1.5-1.9c0,0.1,0,0.2,0,0.4c0.1,0.3,0.1,0.5,0,0.6c-0.1,0-0.2,0-0.5-0.1c-0.1,0.6,0,1,0.3,1.2
		c0.5-0.6,0.7-0.9,0.6-0.9c-0.2,1-0.2,1.5,0.1,1.7c0.3-0.4,0.4-0.7,0.6-0.7c-0.3,0.7-0.2,1.2,0.1,1.4c0.1,0,0.2-0.1,0.2-0.2
		c0.1-0.2,0.1-0.3,0.1-0.3c-0.1,1.2,0.1,1.9,0.7,2.2c0.2-0.4,0.4-0.6,0.5-0.6c-0.1,0.3-0.1,0.6,0,0.7c0.1,0.1,0.1,0.1,0.2,0
		c0.1-0.1,0.2-0.1,0.3,0c-0.2,0.4-0.3,0.7-0.2,0.8c0,0.1,0.1,0.1,0.2,0c0.1-0.1,0.3-0.1,0.4,0c-0.4,0.7-0.5,1.1-0.5,1.2
		c0,0.1,0,0.1,0.1,0c0.1,0,0.1-0.1,0.1-0.1c0,0.1-0.1,0.3-0.3,0.5c-0.2,0.2-0.3,0.4-0.3,0.6c0,0.5,0.1,0.8,0.5,1
		c0.4,0.2,0.7,0,1-0.5c-0.1-1.6-0.3-2.8-0.5-3.7c-0.1,0-0.1,0-0.1,0.1c0,0.1-0.1,0.1-0.2,0.1c0.1-0.3,0.2-0.6,0.1-0.9
		c0.1,0.2,0.3,0.3,0.4,0.4c0.1,0,0.1-0.1,0.1-0.4c0.1,0.3,0.2,0.3,0.3,0c0,0.2,0.2,0.4,0.4,0.7c0.2,0.3,0.3,0.6,0.3,0.9
		c0,0.1,0,0.1,0.1,0.1c0.1,0,0.1,0,0,0.1c0.2,0,0.4,0,0.4-0.1c-0.2,0.5-0.3,0.8-0.3,0.9c0.5,0,0.7,0,0.5,0.1
		c-0.4,0.3-0.6,0.4-0.7,0.5v0.4c0,0.2,0,0.2-0.1,0.2l0-0.2c-0.1-0.1,0-0.3,0-0.4c-0.4,0-0.7-0.1-0.7-0.1c0,0.5,0.2,0.9,0.6,1.2
		c-0.1,0-0.1,0.1-0.1,0.2c0,0.2,0,0.2-0.1,0.2c0,0.1,0.2,0.1,0.5,0.1c0.3,0,0.4,0,0.2-0.1c0-0.1,0.1-0.1,0.2,0
		c0.2,0.1,0.2,0.1,0.2,0.2c-0.7,0.1-1,0.2-0.9,0.1c-0.3,0-0.5-0.1-0.7-0.4c-0.4,0.4-0.9,0.4-1.3,0c-0.4-0.3-0.6-0.7-0.8-1.2
		c0-0.1,0-0.2,0.1-0.2c0.1,0,0.2-0.1,0.2-0.2c-0.1-0.1-0.4-0.2-0.9-0.3c0.3,1.2,0.2,2-0.5,2.4c0,0,0,0.1,0,0.3c0,0.2,0,0.3,0,0.3
		c0.2,0.4,0.4,0.7,0.5,0.9c-0.1-0.1,0.3,0.1,1,0.5c0.4,0.2,0.5,0.5,0.5,1c0,0.1,0,0.2-0.1,0.3c-0.1,0.3-0.8,0.8-2,1.6
		c-0.2,0.3-0.6,0.6-1.1,0.8c-0.6,0.3-1.1,0.6-1.2,0.7c-0.1,0-0.2,0-0.2,0c-0.1,0-0.2,0-0.2,0c0,0,0,0.1,0,0.2
		c-2.2,0.5-3.2,0.8-3.1,0.8c0,0.5-0.3,1-0.7,1.5c-0.7-0.2-1.1-0.5-1-0.8c-0.4,0.1-0.8,0.4-1,1.1c-0.3,0.8-0.5,1.2-0.6,1.3
		c-0.3-0.2-0.4-0.3-0.3-0.4c-0.2,0-0.4-0.2-0.6-0.6c-0.3-0.4-0.5-0.5-0.8-0.6c-0.2,1.4-0.4,2.2-0.7,2.4c-0.3-0.1-0.6-0.2-1-0.5
		c-0.5-0.3-0.9-0.5-1-0.6c0,0,0,0,0.1,0c-0.1,0-0.2-0.1-0.3-0.2c-0.2-0.1-0.3-0.2-0.5-0.3c-0.1,0.2-0.4,0.8-0.8,1.7
		c-0.3,0.7-0.6,1.2-0.8,1.5c-0.2,0-0.5-0.3-0.8-0.8c-0.3-0.5-0.4-0.7-0.6-0.8c-0.4-0.7-0.7-1.1-0.9-1.2c-0.3,1-0.8,1.8-1.5,2.5
		c-1.1-0.7-1.7-1.7-1.8-3.1c-0.5,0-0.9,0.1-1.2,0.5c-0.4,0.4-0.7,0.6-1.1,0.6c-0.4-0.8-0.7-1.4-0.8-1.9c-0.6-0.1-0.9-0.2-0.9-0.2
		c-0.4,0.4-0.7,0.8-1.1,1.1c-0.4-0.5-0.7-0.9-0.7-1.3c-0.2-0.1-0.7-0.2-1.5-0.2c-0.7,0-1.1-0.1-1.2-0.3c-0.8,0.2-2.2-0.2-4-1.3
		c0,0-0.1,0-0.2,0c-0.1,0-0.2,0-0.2,0c0,0,0-0.1,0-0.1c0-0.1,0-0.1,0-0.1c0,0-0.1-0.1-0.3-0.1c-0.2-0.1-0.3-0.1-0.3-0.1
		c-0.8-0.6-1.4-1.7-2-3.3l0.3-0.3c0.2-0.2,0.2-0.2,0.2-0.1c0.1-0.1,0.2-0.3,0.3-0.7c0.1-0.4,0.2-0.5,0.4-0.5
		c-0.8-1.6-1.2-2.4-1.2-2.5c-0.2,0.1-0.3,0.1-0.2,0.1c-0.1,0.1-0.1,0.2,0,0.3c0,0.2,0,0.4,0,0.5c-0.8,1.2-1.4,1.5-1.9,0.8
		c-0.3,0.1-0.5,0.3-0.6,0.5c-0.2,0-0.4,0-0.6-0.1c-0.2-0.1-0.4-0.2-0.4-0.1c0.1,0.1,0.2-0.1,0.5-0.4c0,0,0,0.1,0,0.1
		c0,0.1,0,0.1,0,0.2l0.3-0.1c0.2,0,0.2-0.1,0.2-0.2c-1-1.3-1.4-2-1.2-2c0.2,0,0.4,0,0.7,0.1c0-0.2,0-0.4-0.1-0.6
		c-0.1-0.2-0.1-0.4-0.1-0.5c0.3,0.2,0.4,0.1,0.5-0.2c0.1-0.4,0.1-0.7-0.1-0.9c0.1,0.1,0.2,0.2,0.2,0.4c0.4-0.4,0.6-0.7,0.5-1
		c0.1,0,0.2,0.1,0.3,0.1c0.1,0,0.1,0.1,0,0.3c0.3,0,0.4-0.1,0.6-0.3c0.2-0.4,0.2-0.5,0.2-0.6c0.8-0.2,1.2-0.3,1.2-0.2
		c-0.1,0.1-0.1,0.3,0.1,0.5c0.2,0.2,0.2,0.4,0,0.6c-0.2-0.6-0.5-0.8-1.1-0.6c-0.6,0.2-0.7,0.6-0.4,1.2c-0.1,0-0.1-0.1-0.1-0.2
		c-0.9,3-0.8,4.4,0.3,4.2c0.4-0.1,0.6-0.4,0.6-1c0-0.5-0.2-0.9-0.6-1.1c0,0.1,0.1,0.1,0.4,0.1c0-0.7-0.2-1.2-0.5-1.3
		c0-0.1,0.1-0.1,0.3-0.1c0.2,0,0.3,0.1,0.3,0.1c0-0.2,0-0.5-0.1-0.9c-0.1,0,0,0,0.4,0.1c0.2-0.1,0.3-0.4,0.1-0.9
		c0.1,0,0.2,0.1,0.4,0.4c0,0.3-0.1,0.5-0.3,0.7c0.5,0.1,0.8,0,1-0.4c0,0,0.1-0.4,0.3-1.2l0.2,0.6c0.4-0.1,0.6-0.6,0.6-1.4
		c0.1,0,0.2,0.2,0.2,0.6c0.2,0,0.3-0.1,0.4-0.3c0.1-0.3,0.1-0.5,0-0.8c0.2,0,0.2,0.1,0.2,0.4c0.2-0.1,0.5-0.4,0.9-1
		c-0.1,0-0.2,0-0.5,0.1c-0.3,0.1-0.5,0.2-0.7,0.1c0.1-0.5,0.2-0.9,0.4-1.1c-0.3,0.2-0.7,0.6-1.2,1.2c-0.6,0.6-1,1.1-1.3,1.3
		c-0.1-0.2,0.2-0.5,0.7-0.9c0.6-0.4,1-0.9,1.1-1.2c0-0.1-0.1-0.1-0.2,0c-0.1,0.1-0.2,0-0.2,0c0.1-0.3,0.3-0.6,0.6-1.1
		c0.3-0.4,0.5-0.8,0.5-1.1c0,0,0,0-0.1,0c-0.1,0-0.1,0-0.1,0c0.9-1.7,1.5-2.7,1.9-2.9c-0.3,0.3-0.5,0.7-0.8,1.3
		c-0.4,0.7-0.7,1.2-0.8,1.3c1-0.5,1.7-1,2.2-1.5c-0.2,0.1-0.4,0.2-0.8,0.5c-0.4,0.3-0.7,0.4-0.9,0.5c0.2-0.6,0.9-1.6,2.2-2.9
		c-0.1,0-0.3,0.2-0.6,0.4c-0.2,0.2-0.4,0.2-0.5,0.2c0-0.6,0.2-1.1,0.7-1.6c0.4-0.4,0.9-0.7,1.4-0.9c0.1-0.3,0-0.6-0.2-0.8
		c-0.2-0.3-0.3-0.5-0.3-0.6h-0.2c0.1-0.1,0,0.3-0.5,1.1c-0.3-0.6-0.4-1.2-0.5-1.8c-0.3,0.1-0.5,0.3-0.6,0.7l-0.4,1.1
		c-0.4-0.3-0.6-1.3-0.6-3c-0.4,0.5-0.6,0.7-0.5,0.6c0-0.1,0.2-0.7,0.6-1.6c0.3-0.6,0.5-1.2,0.7-1.8c-0.1,0.1-0.2,0.5-0.5,1.1
		c0,0,0.3-0.8,0.8-2.5c-0.4,0.1-0.6,0.4-0.9,1.1c-0.1,0.2-0.1,0.4-0.2,0.8c-0.1,0.4-0.2,0.6-0.2,0.8c-0.1,0.1-0.1,0,0-0.1
		c0.1-0.2,0.1-0.4,0.1-0.4c-0.1,0.2-0.4,0.9-0.8,2.1c0-1,0.3-2.1,0.8-3.5c0-0.1-0.1,0-0.1,0.1c0,0.1-0.1,0.2-0.1,0.3
		c-0.1,0-0.1-0.1,0-0.3c0.1-0.2,0.1-0.4,0.2-0.5c-0.2,0.2-0.4,0.7-0.7,1.5c-0.3,0.8-0.5,1.4-0.7,1.6c0-0.2,0,0.9-0.1,3.3
		c-0.1,0.2,0.3-0.5,1.2-2c0.1,0.2-0.1,0.5-0.4,0.9c-0.4,0.4-0.5,0.8-0.5,1.1c-0.1,0-0.2,0-0.3,0c0.1,0.3,0,0.5-0.1,0.9
		c-0.3-1-0.3-2.2,0-3.4c0,0-0.1,0-0.4-0.1c-0.4,0.7-0.7,1.1-0.9,1.2c1.2-2.1,2.1-4.1,2.5-6.2c-0.1-0.1-0.2,0.1-0.4,0.6
		c-0.1-0.1,0-0.2,0-0.3c0.1-0.2,0.1-0.4,0.1-0.4c-0.1,0.2-0.3,0.7-0.6,1.5c-0.1-0.2,0-0.4,0.1-0.7c0.1-0.4,0.2-0.6,0.2-0.7
		c-0.4,0.7-0.6,1.3-0.8,2c0,0,0.1-0.3,0.1-0.9c0.1,0-0.2,0.5-0.7,1.6c0-0.2,0.1-0.5,0.2-0.9c0.2-0.5,0.3-0.8,0.3-1
		c-0.1,0.2-0.4,0.9-0.9,2.2c-0.3,0.7-0.3,0.8-0.2,0.3c0,0,0.1-0.2,0.2-0.5c0.1-0.3,0.2-0.5,0.2-0.7c-0.3,0.5-0.7,1.3-1,2.5
		c0,0.3,0,0.3,0,0.1c-0.1-0.2,0-0.2,0-0.2c0,0,0.2-0.8,0.5-2.4c-1.5,1.6-2,3.6-1.4,5.9c0.2-0.2,0.4-0.5,0.6-0.8
		c0.3-0.4,0.5-0.7,0.6-0.8c0,0.2-0.3,0.5-0.7,1c-0.4,0.4-0.5,0.9-0.6,1.4c-0.6-1.2-0.6-2.7-0.1-4.6c-0.2,0-0.4,0-0.5,0.1
		c-0.2,0.3-0.3,0.4-0.3,0.4c-0.1,0.1-0.4,0.3-1,0.6c-0.4,0.3-0.7,0.5-0.8,0.6c-0.1,0-0.1-0.1-0.1-0.2c0-0.1-0.1-0.1-0.2-0.1
		c-0.2,0.2-0.4,0.5-0.7,1.1c-0.1,0-0.2-0.2-0.3-0.4c-0.1-0.2-0.2-0.2-0.4-0.2c-0.4,2.1-0.7,3.2-0.9,3.4c-0.2-0.2-0.4-0.5-0.7-1
		c-0.3-0.4-0.5-0.8-0.7-0.9c-0.1,0.3-0.2,1-0.3,2.3c-0.1,1-0.2,1.7-0.4,2.1c0,0,0-0.1,0-0.2c0-0.1,0-0.1-0.1,0
		c0-0.4,0.1-1.3,0.3-2.8c0.1-1.1,0.2-2.1,0.1-2.8c0-0.2-0.2-1-0.4-2.5c-0.2-1.1-0.2-1.9-0.1-2.6c-0.1,0.1-0.1,0.3-0.1,0.6
		c0,0.4-0.1,0.6-0.2,0.8c0,0.1,0,0.2,0,0.4c0,0.2,0,0.2,0,0c0-0.4,0-1,0.1-1.7c-0.4,0.2-0.4,1.1-0.2,2.6c-0.1-0.1-0.1-0.4-0.1-1
		c0.1-0.1,0,0.5-0.1,1.6c-0.1-0.3-0.2-0.2-0.2,0.5c0,0.6,0,1,0,1.3c-0.7-2.3-0.8-4.6-0.3-6.9c-0.1,0.1-0.2,0.4-0.3,1.1
		c0,0.3,0,0.4,0,0.3c0-0.5,0-1.1,0.1-1.7c-0.1,0.1-0.3,0.5-0.5,1.3c-0.1-0.1-0.1-0.3,0-0.6c0.1-0.4,0.1-0.6,0.1-0.7
		c0-0.1-0.1,0.3-0.3,1.2l0-1c-0.4,0.4-0.5,1.7-0.4,3.7c0.1,0.6,0.3,1.6,0.6,2.8c0.4,1.4,0.6,2.4,0.7,2.9c0.2,1.4,0.7,2.4,1.3,3
		c-0.2,0-0.4-0.2-0.6-0.7c-0.2-0.4-0.4-0.6-0.6-0.6c0,0.2,0,1,0,2.6c0,1.2,0.1,2.1,0.1,2.6c-0.1,0.1-0.2,0-0.2-0.1
		c0-0.2,0-0.3,0-0.4c-0.2-0.2-0.5-0.6-0.8-1.1c-0.3-0.5-0.6-0.9-0.9-1.2c0.1,1.2,0,2.5-0.2,4.1c-0.2,2-0.4,3.4-0.4,4.2
		c-0.1-0.2-0.5-1.2-1.1-3c0.2,0.4,0.5,0.9,0.8,1.6c0.3-2.6,0.4-4.7,0.3-6.3c-0.1-1.4-0.6-3.4-1.4-6.1c-0.8-2.6-1.2-4.7-1.3-6.3
		c0-0.5-0.1-0.8-0.2-0.8c-0.1,0.7,0,1.7,0.1,3.2c0.1,0.7,0,0.7-0.1,0.1c0-0.3,0-0.5,0-0.7c-0.1,0.3-0.1,0.6,0,1.1
		c0.1,0.6,0.1,0.9,0.1,1.1c-0.2-0.4-0.2-1.1-0.2-1.9c0-0.1,0,0.7,0,2.4c0.1-0.2,0.1-0.4-0.1-0.6c0,1.2,0.3,3,0.9,5.3
		c0,0.1,0,0.2,0,0.2c-0.1,0-0.1-0.1,0-0.2c-1-2.9-1.5-4.8-1.6-6c-0.1-1,0.2-3.4,0.9-7.2c-0.3,0.9-0.5,1.7-0.6,2.5c0-1,0.2-2,0.6-3.1
		c-0.2,0.2-0.4,0.4-0.5,0.9c-0.2,0.5-0.3,0.8-0.4,1c-0.1,0.1,0-0.1,0.1-0.6c0.1-0.5,0.2-0.8,0.3-1c-0.3,0-0.5,0.4-0.7,1.2
		c0,0-0.1-0.1-0.1-0.2c-1.2,2.7-0.8,7,1,12.8c1.5,4.9,2.3,7.3,2.3,7.4c-0.2,0.1-0.3,0-0.3,0c-0.1-0.1-0.2-0.1-0.3-0.1
		c-0.1,3.9-0.4,6.4-0.8,7.4c-0.1,0-0.1,0-0.2,0c0,0.9-0.3,2-1.1,3.1c-0.1-1.7-0.4-3.5-0.9-5.6c-0.2-0.1-0.3-0.4-0.3-0.9
		c-0.2-0.4-1.2-2.9-3-7.4c0-0.2,0-0.3,0.1-0.4c-0.3-0.3-0.5-0.8-0.7-1.4c-1.6-5.5-1.6-9.8-0.1-12.9c0.1-0.7,0.2-1.2,0.4-1.5
		c0-0.2,0-0.5,0.1-0.8c0.2-0.4,0.2-0.8,0.2-1c0-0.1-0.1-0.1-0.2,0c-0.1,0-0.2,0-0.2,0c-0.1,0.5-0.7,1.3-2,2.2
		c1.3-1.2,3.2-4.2,5.7-8.9c2.1-4,4.3-6.7,6.7-7.9c-0.1-0.2-0.3-0.2-0.6,0c-0.1,0.1-0.2,0.1-0.3,0.2c-0.1,0.1-0.2,0.2-0.3,0.2
		c-1.7,1.3-2.8,2.2-3.2,2.8c0,0,0-0.1,0.2-0.4c0.8-1,2-2,3.8-3.2c-0.5-0.1-1.4,0.5-2.7,1.7c-0.3,0.3-0.7,0.7-1.1,1.2
		c-0.5,0.6-0.8,1-0.9,1.1c0.9-1.5,2.3-2.9,4-4c-1.4,0.7-2.9,2.2-4.6,4.4c-0.3,0.3-0.3,0.2,0-0.1c0.2-0.3,0.3-0.4,0.3-0.5
		c0,0,0.1-0.1,0.1-0.1c1.1-1.5,2.2-2.6,3.4-3.3c-0.9,0.2-2.1,1.3-3.5,3.5c-0.1,0.2-0.2,0.4-0.3,0.5c-0.3,0.5-0.6,0.9-0.8,1.1
		c-0.2,0.2-0.2,0.2-0.1,0c0.1-0.2,0.1-0.3,0.2-0.4c0.4-0.6,0.5-0.9,0.5-0.9c-0.2,0.2-1.5,2.3-3.7,6.2c0,0,0,0.1,0,0.1
		c0-0.1,0.1-0.2,0.1-0.3c1.1-2.9,2.5-5.6,4.4-7.9c0.4-0.2,0.8-0.6,1.2-1.2c0.6-0.6,1-1.1,1.2-1.3c-0.2-0.1-0.4,0.1-0.7,0.5
		c0-0.2,0.2-0.4,0.6-0.6c0.4-0.3,0.6-0.5,0.7-0.8c-0.1,0-0.4,0.2-1,0.6c-0.5,0.4-0.7,0.5-0.6,0.4c0.2-0.2,0.5-0.5,0.9-0.8
		c0.4-0.4,0.7-0.6,0.9-0.8c0.1,0-1.1,0.9-3.6,2.8c-1.7,1.6-3.1,3.9-4.3,7.1c-0.4,1-0.9,2.5-1.5,4.3c-0.7,2.1-1.2,3.6-1.4,4.3
		c1.9-6.4,3-10,3.4-10.8l0.2,0c0-0.1,0-0.1,0-0.2c0-0.1,0-0.2,0-0.3c1.9-3,3.5-5,4.9-5.9c0.3-0.5,0.6-0.8,1-0.9
		c0.2-0.3,0.6-0.6,1.2-1.1c0.6-0.4,1-0.7,1.2-1c-0.4-0.2-1,0-1.8,0.4l5.8-3.6c0.9-0.6,1.6-1.1,2-1.4c0.4-0.4,0.8-0.5,1.1-0.6
		c0-0.1,0.2-0.2,0.7-0.5c2-1,3.5-1.6,4.8-1.7c0.2,0,0.4,0,0.7,0c0.3,0.1,0.6,0.1,0.7,0c0.1,0,0.2-0.1,0.4-0.2
		c0.2-0.1,0.3-0.2,0.4-0.2c0.5-0.2,1.2-0.2,1.9-0.2c0.8,0,1.3,0.1,1.4,0.3c0.4,0.1,0.9,0.3,1.5,0.7c0.6,0.4,1,0.6,1.3,0.7
		c-0.1,0.4,0,0.5,0.1,0.4c0,0,0.1,0,0.1,0c0,0,0.1,0,0.1,0c0.6,0.6,1,1.3,1,2.2c0,0.9-0.2,1.7-0.8,2.5l-0.1,0h0l0,0.2l0,0.2
		c0,0-0.1,0-0.1,0c-0.1,0-0.1,0-0.1,0.1c-0.1,0.1-0.3,0.3-0.7,0.7v0.1l0,0.1c0,0-0.1,0-0.2,0c-0.1,0-0.2,0-0.2,0
		c0.1-0.1,0,0-0.1,0.3c-0.1,0.2-0.2,0.2-0.4,0.1c-1.7,2.3-2.5,3.4-2.4,3.2c-0.6,1.8-0.6,3.3,0,4.6c0.3,0.6,0.4,0.9,0.4,0.8
		c1.7,0.7,2.6,1.1,2.6,1.2c0,0.1,0.6-0.7,1.8-2.2c-0.1,0.2-0.4,0.6-1.1,1.4c-0.5,0.6-0.7,1.3-0.6,1.9c0.3-0.8,0.8-1.5,1.5-2.2
		c0.5,0.4,0.9,1.1,1,2c0.4-0.4,0.4-0.9,0.1-1.5c-0.1-0.2-0.2-0.4-0.4-0.8c-0.2-0.3-0.4-0.6-0.4-0.7c0.2,0,0.5-0.2,0.8-0.6
		c0.4-0.4,0.7-0.7,1-0.7c0,0.1-0.3,0.4-0.9,0.9c-0.4,0.4-0.5,0.7-0.3,1c0-0.3,0.3-0.7,0.8-1.1c0.4-0.4,0.6-0.7,0.5-1
		c0.1-0.1,0.1,0,0.2,0c0.1,0.1,0.2,0.2,0.3,0.2c0-0.1,0.4-0.5,1.2-1.2c0,0,0.1,0.1,0.1,0.2c0,0.1,0.1,0.1,0.1,0.1
		c0.3-0.4,0.8-0.7,1.6-1c0.8-0.3,1.5-0.4,2-0.2c0.1-0.1-0.2,0-0.8,0.1c0.4,0.2,1,0.2,1.7,0c0.7-0.2,1.3-0.1,1.8,0.2
		c0.9-0.6,1.8-0.7,2.9-0.3c0,0-0.3,0-0.9,0c-0.9,0-1.6,0.2-2.1,0.7c1.4-0.5,2.4-0.6,3,0c0.1,0,0.2-0.1,0.3-0.2
		c0.1,0.1,0.1,0.2,0,0.3c0.5,0,1,0.1,1.3,0.2c0.1,0.4,0.1,0.6,0.1,0.7c0.6-0.1,1.1,0,1.7,0.2c0.5,0.2,0.8,0.5,1,0.9
		c0,0-0.1-0.2-0.4-0.4c-1.2-0.6-1.9-0.7-2.2-0.2c1.2-0.2,1.9,0,2.2,0.5c0,0-0.1,0.1-0.1,0.2c0,0.1,0,0.2-0.1,0.2
		c0.3-0.1,0.4,0,0.3,0.2c0.3,0,0.7,0.2,1.3,0.4c-0.1,0.2-0.1,0.4,0,0.5c0.1,0,0.1,0,0-0.1c-0.1-0.1-0.1-0.1,0-0.1
		c0.1,0,0.2,0,0.3,0.2c0.2,0.2,0.4,0.3,0.5,0.3c0,0.1,0,0.2,0,0.4c-0.1,0.2-0.1,0.3-0.1,0.4c0.3,0.1,0.6,0,1.1-0.2
		c0.4-0.3,0.7-0.4,0.9-0.4c0.8-0.9,1.1-2.2,1.1-4.1c-0.1-1.8-1.3-3.5-3.5-5.2c0,0,0,0,0,0c0,0.1,0,0.1,0,0c0,0,0,0,0,0
		c-1-1.3-1.5-2-1.5-2l-0.4-0.2c0-0.2-0.1-0.4-0.2-0.7c-0.1-0.3-0.2-0.4-0.2-0.6c-0.1-1.1,0.3-2,1.3-2.7c0.3-0.2,0.7-0.5,1.3-0.8
		c0.5-0.3,0.9-0.6,1.1-0.8c0.6,0,0.9,0,0.8,0c0.1-0.3,0.5-0.4,1.1-0.4c0.5,0,1,0.1,1.3,0.2l0.1,0.2c0.1,0,0.2,0,0.4-0.1
		c0.6,0.3,0.9,0.4,0.9,0.4c1.5-0.2,3.9,0.5,7.2,2c0,0.1,0,0.2,0.1,0.2s0.1,0.1,0,0.2c0.3,0.1,0.4,0.1,0.4,0c0.7,0.7,2.2,1.6,4.4,2.9
		c-0.2,0.1-0.6-0.1-1.3-0.4c-0.5-0.3-1.3-0.8-2.2-1.4c-1-0.7-1.8-1.2-2.2-1.4c-1.8-1.1-3.7-1.7-5.5-1.8c-0.3,0-0.9,0-1.7,0
		c-0.7,0.1-1.3,0.1-1.8,0c0.1-0.1,0.4-0.2,0.9-0.2c0.5,0,0.8,0,1,0c-2.2-0.6-4.2,0-6.1,1.7c-1.3,1.2-1.4,2.7-0.2,4.2
		c0.4,0.5,0.9,1.1,1.7,1.9c0.8,0.8,1.3,1.3,1.5,1.5c1.2,1.5,1.8,3.1,1.7,5c-0.1,2.1-1.2,3.4-3.4,3.8c0,0.1-0.1,0.2-0.2,0.4
		c-0.1,0.2-0.2,0.3-0.2,0.4c1-0.4,1.5-0.6,1.6-0.7c0,0.1-0.2,0.3-0.6,0.7c-0.1-0.1,0.1,0,0.6,0.4c1.4-1.2,2.1-1.7,2-1.6
		c-0.3,0.6-0.9,1.2-2,1.6c0.2,0.5,0.6,0.4,1.2-0.1c0.2-0.2,0.5-0.4,0.7-0.7l0.5-0.6c-0.1,0.2-0.7,0.9-1.7,2c0.5,0,1.3-0.7,2.4-2
		l-1.7,2.2c0.6-0.1,1.4-1,2.4-2.5c-0.4,1-1,1.8-1.8,2.5c0.3,0.1,0.6,0,0.9-0.3c1.4-1.1,2.1-3.2,2.1-6.2c0-0.6,0.1-0.5,0.1,0.5
		c0.1,1,0.1,1.6,0,1.8c-0.2,3.1-1.6,4.9-4.1,5.4l-2.8,0.6c3.6,0,5.8-0.6,6.6-1.8c0.5-0.8,0.8-1.8,1-3.2c0.2-2,0-3.8-0.7-5.5
		c-0.6-1.8-1.5-3-2.8-3.8c0-0.1-0.1-0.2-0.2-0.3c-0.1-0.1-0.1-0.2-0.1-0.2c-1.1,0-1.7-0.3-2-0.7c1.1,0.3,1.9,0.4,2.5,0.2
		c-0.7-0.1-1.7-0.6-3-1.6c1.7,1,3.3,1.5,4.9,1.7c-0.2-0.5-0.6-1-1.2-1.4c-0.8,0-1.8-0.3-2.9-0.8c2.1,0.3,3.3,0.3,3.6,0.1
		c-0.2-0.1-0.6-0.2-1.2-0.3c-0.5-0.1-0.9-0.2-1-0.4c0.1,0,0.8,0.1,2.2,0.3c0.8,0.1,1.8,0.5,2.9,1.3c1.1,0.7,2.1,1.1,2.9,1.2
		c-0.6-0.4-1-0.8-1.1-1.1c0.2,0.1,0.7,0.4,1.3,0.7c0.6,0.3,1,0.5,1.3,0.7c0-0.1,0-0.3-0.2-0.4c-0.2-0.2-0.3-0.4-0.3-0.5
		c0.4,0.1,1,0.4,1.9,0.9c1,0.5,1.7,0.9,2.2,1c-1-1.3-2.6-2.5-4.8-3.5c0.5-0.1,1,0,1.6,0.4c1,0.6,1.5,0.9,1.5,1c1.4,0.6,2,0.8,2,0.8
		c0.3,0.1,0.7,0.3,1.3,0.5c0.6,0.2,1,0.4,1.3,0.5c-0.4-0.7-1.2-1.4-2.5-2.1c-1.7-0.9-2.6-1.4-2.9-1.6c0.3,0.1,1.6,0.7,4.2,1.8
		l0.1,0.3c0.7,0.3,1.5,0.5,2.2,0.9c0.1-0.1,0-0.2-0.2-0.2c-0.2-0.1-0.3-0.2-0.3-0.3c0.8,0.2,1.3,0.5,1.4,1c-0.1,0.1-0.2,0.1-0.3,0
		c-0.1-0.1-0.1-0.2-0.1-0.3c-0.2,0-0.4,0-0.5,0c-0.2,0.1-0.3,0.1-0.4,0.1c0.2,0.4,0.2,0.7,0.2,0.7c0.2,0.2,0.4,0.2,0.7,0.1
		c0,0.3,0.2,0.5,0.5,0.7c0.2,0,0.3,0,0.3-0.1c0.2,0.2,0.8,0.7,1.8,1.4c0,0-0.1,0-0.1,0c0,0-0.1,0-0.1,0c0.4,0.2,0.8,0.5,1.2,1
		c0.6,0.7,1,1.1,1.2,1.3c0,0,0,0.1,0,0.1c0,0.1,0,0.1,0,0.1c0,0,0.1,0,0.1,0c0.1,0,0.1,0,0.1,0c0.1,0.4,0.4,0.8,1,1.3h-0.2
		c0.7,0.8,1.6,2.7,2.8,5.7c0,0.1,0,0.1,0,0.2c0,0.1,0,0.1,0,0.2c0,0,0,0,0.1,0c0,0,0,0,0,0c0.3,0.7,0.7,1.9,1.1,3.6
		c0.4,1.6,0.7,2.8,1.1,3.6c-0.2-0.1-0.4-0.5-0.6-1.1c-0.2-0.5-0.7-2.2-1.6-5c-0.6-2-1.2-3.5-1.8-4.7c-1.7-3.3-4-5.9-7-7.9
		c0.2,0.3,0.5,0.6,0.9,1c0.5,0.4,0.9,0.7,1,0.9c-0.2-0.1-0.4-0.3-0.8-0.6s-0.7-0.5-0.9-0.6c0,0.1,0.5,0.5,1.3,1.3
		c-0.1,0-0.2,0-0.3-0.1c-0.2-0.2-0.3-0.2-0.3-0.2c0.2,0.4,0.6,0.8,1.2,1.4c0.8,0.8,1.3,1.3,1.5,1.5c1.4,1.6,2.7,4.1,4,7.3
		c0.2,0.5,0.2,0.7,0.1,0.5c-0.2-0.3-0.7-1.3-1.6-3.2c-0.6-1.3-1.3-2.3-2-2.9c0.1,0.3,0.3,0.5,0.5,0.8c0.2,0.2,0.3,0.4,0.4,0.7
		c0.1,0.3,0.1,0.3-0.1,0c-0.1-0.1-0.2-0.4-0.4-0.8c-0.2-0.4-0.4-0.8-0.7-1.1c-1.2-1.6-2.2-2.7-3-3.2c-0.3-0.2-0.5-0.2-0.8-0.1
		c0-0.1-0.1-0.1-0.2-0.1c-0.1-0.1-0.2-0.1-0.2-0.1c0.1,0-0.1,0-0.8,0c2.3,1.8,3.5,2.9,3.7,3.2c0.1,0.1,0.2,0.2,0.3,0.4
		c0.1,0.2,0.1,0.3,0,0.1c-0.3-0.4-1.5-1.4-3.5-3c0,0-0.1-0.1-0.2-0.2c-0.1-0.1-0.2-0.2-0.2-0.2c-0.2-0.2-0.3-0.2-0.5,0
		c2.3,1.3,4.6,4.1,6.9,8.4c2.4,4.7,4.5,7.7,6.2,9c-0.7-0.4-1.7-1.2-2.8-2.6c0,0-0.1,0-0.2,0c0,0.5,0.2,1.3,0.6,2.5
		c0.4,1.1,0.5,1.9,0.5,2.4C91.8,48.9,91.8,48.9,91.9,48.9C91.9,48.9,91.9,48.9,91.9,48.9C91.9,48.9,91.9,48.9,91.9,48.9z M16.7,69.3
		c0.2-2.6-0.4-6.1-1.6-10.5c-1.3-4.4-1.8-7.9-1.5-10.7c0.1-0.7,0.1-1,0-1.1c-0.1-0.2-0.2-0.1-0.2,0.1c0,0.2,0,0.4,0.1,0.4
		c0-0.3,0-0.5,0.1-0.5c-0.1,0.5-0.2,2.3-0.2,5.5c0,0-0.1-0.2-0.1-0.6c-0.1-0.5-0.1-0.4-0.1,0.5c0.1,1.5,0.1,2.1,0.1,2
		c0-0.3-0.1-0.8-0.2-1.8c0-0.4,0-0.5,0-0.4c0,0.1,0,0.3,0,0.5c0,0.4,0.1,1,0.2,1.9c0.1,0.8,0.1,1.3,0.1,1.6
		c-0.3-2.2-0.4-3.5-0.4-3.8c0-0.5-0.1-0.7-0.1-0.6c0,0.6,0,1.5,0.1,2.5c0.1,1.1,0.2,1.8,0.2,2.2c0-0.1,0-0.1-0.1-0.1
		c0,1.1,0.2,2.6,0.6,4.5c0.5,2,0.8,3.4,0.8,4.3c-1.6-6.3-2.5-10.3-2.5-11.9c-0.2-3.6,0.2-7,1.2-10.2c0.1-0.2-0.2,0.7-1,2.5
		c0-0.1,0.3-1.1,0.8-2.8c0.2-0.1-0.2,0.7-1.1,2.4c0-0.2,0.2-0.9,0.6-2.2c-0.2,0.1-0.4,0.4-0.5,0.7c-0.1,0.4-0.2,0.7-0.3,0.8
		c0-0.1,0-0.3,0.1-0.6c0.1-0.3,0.1-0.4,0.1-0.5c-1.5,5.8-2.2,9.2-2.2,10.4c0.2,2.9,1.1,6.4,2.7,10.5c1.8,4.4,2.8,7.8,3.1,10.1
		c0.1-0.4,0.3-1.2,0.7-2.5C16.5,70.9,16.7,70.1,16.7,69.3z M13.1,56.9c0,0,0-0.1,0-0.3C13.1,56.7,13.1,56.8,13.1,56.9z M13.4,52.5
		c0,0.1,0,0.2,0,0.3C13.3,52.7,13.3,52.6,13.4,52.5z M13.5,45.6c2.1-2.1,4.8-6,8.4-11.9c-0.7,0.8-1.1,1.2-1.3,1.4l1.4-1.7
		c-0.3,0.1-0.6,0.3-1,0.8c-0.4,0.5-0.7,0.8-0.9,0.9c0.7-0.7,1.2-1.3,1.5-1.8c0.1,0-0.7,0.8-2.4,2.5c0.2-0.4,0.5-0.8,1-1.3
		c0.5-0.6,0.9-1,1-1.2c0,0-0.9,1-2.9,3.2c0,0,0.2-0.3,0.6-0.8c0.4-0.5,0.5-0.7,0.4-0.7c-0.9,1.1-1.6,1.9-2,2.5l2.8-3.8
		c-2.1,1.9-3.5,4.2-4.4,7c0.6-2.7,1.7-5,3.2-6.7c0.1-0.1,0.4-0.3,0.9-0.7c0.4-0.3,0.6-0.6,0.7-0.9c-0.2,0.1-0.4,0.2-0.7,0.5
		c-0.3,0.3-0.5,0.4-0.6,0.4c0.4-0.4,0.8-0.7,1.1-1.2c-0.2,0.1-0.5,0.3-0.9,0.6c-0.3,0.3-0.6,0.4-0.7,0.5c0.4-0.3,0.7-0.6,1-1
		c-0.2,0-0.4,0.1-0.7,0.4C19,32.9,18.8,33,18.7,33c0-0.1,0-0.2,0.1-0.3c0.1-0.1,0.1-0.2,0.1-0.2c-0.4,0.2-0.6,0.3-0.5,0.3
		c0.1-0.1,0.3-0.4,0.7-0.7c0.3-0.2,0.5-0.5,0.5-0.8c-0.2,0.1-0.5,0.3-0.8,0.7c-0.3,0.4-0.5,0.6-0.7,0.6c-0.1,0.1,0.3-0.3,1-1.2
		c-3.1,2.7-4.7,4-4.7,4S14.1,38.9,13.5,45.6z M19.3,78.7c0,0.1,0.1,0.2,0.3,0.5c0.2,0.3,0.3,0.4,0.4,0.5c0.3,0.6,0.3,1.2,0.1,1.9
		c-0.2,0.7-0.6,1.2-1.2,1.5c-1.3,0.5-2.3,0.7-2.9,0.7c0,0.1-0.2,0.3-0.5,0.5c-0.4,0.2-0.6,0.5-0.7,0.7c0,0.1,0,0.2,0,0.5
		c0,0.2,0,0.4-0.1,0.6c0-0.1,0-0.3,0-0.6c0-0.3,0-0.6,0-0.7c-0.1,0.1-0.1,0.4-0.1,1c-0.2-0.4-0.2-0.9,0.1-1.3c0.2-0.5,0.6-0.8,1-0.9
		c0,0,0-0.1,0-0.2c1.6-0.6,2.5-1.6,2.5-3c0-0.3-0.2-0.7-0.5-1.1c-0.3-0.4-0.5-0.8-0.4-1c-0.2-0.3-0.3-0.6-0.1-1
		c0.1-0.4,0.3-0.6,0.5-0.8c-0.3,0.4-0.4,1-0.4,1.7c0,0,0.1,0,0.2,0c0.7,3.1,1.1,4.5,1.2,4.1c-0.1-0.1-0.1-0.3-0.1-0.7
		c0-0.3-0.1-0.5-0.2-0.5c-0.3,0.6-0.9,1.4-2,2.4c0.4,0.1,0.9-0.2,1.5-0.7c0.1,0,0.1,0.1,0,0.2c-0.2,0.2-0.2,0.4-0.2,0.4
		c0,0,0.7-0.3,1.9-0.9c0-0.2,0.1-0.5,0.2-1c0.1-0.4,0.1-0.7,0.1-0.9c0-0.4-0.2-0.8-0.6-1.4c-0.3-0.5-0.4-1-0.3-1.3
		c0.1-0.6,0.5-1,1-1.2c0,0.1-0.1,0.2-0.3,0.4c-0.2,0.2-0.3,0.3-0.3,0.4C19.2,77.8,19.1,78.3,19.3,78.7z M21.1,59.3
		c-0.1-1.1-0.4-2.6-0.9-4.4c-0.5-1.9-0.8-3.3-0.9-4.2c-0.1-1.1-0.2-1.7-0.2-1.8c0,0.3,0,0.7,0,1.3c0,0.5,0,0.9,0,1.1
		c-0.2-1.3-0.3-1.9-0.2-1.7c0,0.2,0,0.6,0.1,1.1c0.1,0.4,0.1,0.7,0,0.9c-0.2-1.2-0.3-1.8-0.3-2c0,0.4,0,0.9,0.1,1.6
		c0.1,0.6,0.1,1.1,0.1,1.4c-0.4-1.1-0.5-1.6-0.4-1.6c0.1,1.1,0.4,2.8,0.9,5c-1.3-2.7-1.8-5.4-1.3-8.1c0.3-1.4,0.4-2.1,0.4-1.9
		c-0.1,0.2-0.3,0.8-0.6,1.6c0-0.3,0-0.6,0.2-1.1c0.2-0.4,0.2-0.7,0.2-0.9c-0.1,0.2-0.2,0.4-0.3,0.7c-0.1,0.3-0.2,0.6-0.3,0.7
		c0-0.2,0-0.5,0.2-0.8c0.2-0.3,0.2-0.5,0.1-0.6c-0.1,0.1-0.2,0.3-0.3,0.6c-0.1,0.3-0.2,0.5-0.3,0.6c0.1-0.4,0.2-0.7,0.3-1.1
		c0.2-0.1,0,0.3-0.6,1c0-0.1,0-0.2,0-0.3c0.1-0.1,0-0.2,0-0.3c-0.1,0.2-0.2,0.3-0.4,0.4c-0.2,1-0.2,1.6-0.2,2
		c0.1,1.5,0.8,3.9,1.9,7.3c1.2,3.6,2.1,5.7,2.7,6.4C21.1,61.2,21.1,60.3,21.1,59.3z M16.7,46.1c3.1-2.9,4.8-4.5,4.9-4.6
		c0.7-0.8,1.8-2.8,3.5-5.9c-0.2,0.2-0.5,0.5-0.8,1.1c-0.4,0.5-0.6,0.9-0.8,1.1l1.2-2.3c-0.7,1-1.3,1.9-2,2.7
		c0.1-0.2,0.4-0.6,0.9-1.3c0.4-0.5,0.7-1,0.9-1.3c-0.3,0.4-0.7,0.9-1.2,1.6c-0.6,0.8-1.1,1.4-1.2,1.6c0,0,0.5-0.7,1.6-2.3
		c0.3-0.4,0.4-0.6,0.3-0.7c-0.2,0.3-0.7,0.9-1.4,1.9c-0.6,0.8-1.1,1.5-1.4,1.9c1.6-2.5,2.4-3.7,2.4-3.6c-0.2,0.3-0.9,1.2-2.2,2.8
		c-0.9,1.2-1.6,2.2-2,3.1c0.6-1.7,2-3.9,4.1-6.6c-0.2,0-0.3,0.1-0.4,0.3c-0.2,0.2-0.3,0.3-0.4,0.3c0.3-0.5,0.4-0.7,0.3-0.6
		c-0.3,0.2-0.6,0.6-1.1,1.2c0.1-0.5,0.2-0.8,0.4-0.9c-0.1,0-0.2,0.1-0.4,0.3c-0.2,0.2-0.3,0.2-0.4,0.1c0-0.1,0.1-0.3,0.2-0.6
		c0.1-0.2,0.1-0.4,0-0.5c-0.3,0.5-0.8,1.3-1.5,2.5c-0.6,1.1-1.1,1.9-1.4,2.5c-1.1,2-1.6,3-1.6,3S16.9,44.2,16.7,46.1z M18.9,49.3
		v-0.4c0-0.2,0-0.3-0.1-0.3c0,0,0,0.2,0,0.4c0,0.2,0,0.3,0,0.3S18.8,49.4,18.9,49.3z M19.5,73.5c0,0.1-0.1,0.2-0.1,0.5
		c0,0.3-0.1,0.4-0.1,0.6c-0.1,0.5-0.3,0.8-0.5,0.8c0.1-0.1,0.2-0.3,0.3-0.8C19.2,74,19.4,73.6,19.5,73.5z M19.4,28.4
		c0.7-0.3,1.8-0.4,3.3-0.3c1,0,2.1-0.2,3.3-0.6c1.2-0.4,2-0.8,2.4-1.3c-0.1,0.1,0,0,0.1-0.4C26.8,26.6,26,27,26.2,27
		c-0.2,0,0-0.1,0.6-0.4c-0.1,0-0.4,0.1-0.7,0.3c-0.3,0.2-0.5,0.2-0.6,0.2c1.4-0.9,2.1-1.4,2.1-1.3c-1,0.7-1.8,1.1-2.5,1.2
		c1.2-0.6,1.7-1,1.7-1.2c-1.7,1.1-3,1.5-4,1.3c0.6-0.1,1.2-0.4,2-0.9c-0.1,0-0.5,0.1-1,0.3c-0.4,0.1-0.7,0.1-0.9,0
		c0-0.1,0.2-0.3,0.4-0.4c0.2-0.2,0.4-0.4,0.4-0.5c-0.3,0.3-0.6,0.4-0.8,0.5c0.1-0.1,0.2-0.2,0.4-0.3c0.2-0.1,0.3-0.2,0.4-0.3
		L22.9,26c0-0.1,0.1-0.2,0.2-0.2c0.1-0.1,0.2-0.2,0.3-0.3c-0.2,0-0.4,0.1-0.6,0.3c-0.2,0.2-0.4,0.3-0.6,0.3c0-0.1,0.1-0.2,0.2-0.2
		c0.1-0.1,0.2-0.2,0.2-0.2c-1.4,0.6-2.2,1-2.2,1S20.1,27.2,19.4,28.4z M19.4,47.5c3.2-3.2,5.7-6.3,7.6-9.5c-0.2,0.2-0.5,0.4-0.8,0.9
		c-0.4,0.5-0.6,0.8-0.8,1c0.1-0.1,0.2-0.3,0.4-0.6c0.2-0.3,0.3-0.4,0.3-0.5c-0.1,0.1-0.3,0.4-0.6,0.7c-0.3,0.3-0.5,0.6-0.6,0.7
		c0-0.1,0.2-0.2,0.4-0.5c0.2-0.2,0.2-0.4,0.2-0.5c-0.1,0.1-0.3,0.4-0.6,0.8c-0.2,0.3-0.4,0.6-0.6,0.7c0.1-0.1,0.2-0.3,0.3-0.5
		c0.2-0.2,0.3-0.4,0.3-0.5c0.1,0-0.5,0.6-1.6,1.8c0.1-0.3,0.3-0.6,0.7-1c0.4-0.4,0.6-0.7,0.6-0.9c-1.3,1.5-2.3,2.9-2.9,4
		c1-2.2,1.9-3.8,2.6-4.6c0.5-0.6,0.8-0.9,0.8-0.9l-0.9,0.9l0.1-0.4c-0.1,0-0.2,0-0.2,0.1c-0.1,0.1-0.1,0.1-0.1,0
		c0.3-0.6,0.5-1,0.4-1.1c-1.6,3-3,5-4.2,5.9c-0.6,1.2-0.9,1.9-0.9,1.9S19.4,46,19.4,47.5z M19.5,73.4c0.1-0.3,0.2-0.4,0.4-0.5
		C19.7,73.2,19.5,73.4,19.5,73.4z M23.9,28.5c-1.3,0.3-2.7,1.6-4.2,3.7c0.6-0.2,1.8-0.6,3.8-1c1.6-0.4,2.8-0.8,3.6-1.2
		c2.1-1.2,3.8-2.6,5-4.5c-0.4,0.5-0.9,1-1.4,1.4c0.3-0.4,0.3-0.4,0-0.2c-0.4,0.4-0.7,0.6-0.8,0.7c0.7-1,1.1-1.4,1.1-1.2
		c-1.1,1.1-2,1.7-2.6,2.1c1.2-0.9,2.2-1.9,3.2-2.9l-1.3,1.2c-1.9,1.7-3.8,2.7-5.9,3.1c2.2-0.7,3.9-1.8,5-3.2
		c-0.2,0.2-0.4,0.4-0.8,0.6c0.2-0.2,0.5-0.4,0.9-0.8c0.4-0.4,0.7-0.6,0.9-0.8c-0.1,0-0.3,0.1-0.5,0.2c-0.2,0.1-0.3,0.2-0.2,0.2
		c0.3-0.1,0.4-0.1,0.4-0.1c-1,0.9-2.1,1.7-3.3,2.4c0-0.1,0.1-0.2,0.3-0.3c0.2-0.1,0.3-0.2,0.2-0.2c-0.6,0.4-1.3,0.8-2,1.1
		c0-0.1,0.1-0.1,0.2-0.1c0.1,0,0.2-0.1,0.2-0.2C25.9,28,26,28,26,28S25.3,28.1,23.9,28.5z M19.9,25.3c0.8-0.4,1.3-0.5,1.7-0.6
		c0.4-0.5,1.2-0.9,2.4-1.4c1.3-0.5,2.1-0.9,2.5-1.1c-0.4,0.3-1.3,0.9-2.9,1.7c-1.2,0.6-2,1.3-2.3,2c0.3-0.1,1.1-0.4,2.2-1
		c0.9-0.4,1.7-0.7,2.3-0.9c1.5-1,2.5-1.4,3.1-1.4c-2.3,1.3-3.9,2.5-4.9,3.6c0.6-0.1,1.3-0.4,2.3-1c0.9-0.5,1.6-0.8,2-0.9
		c0,0.1-0.1,0.2-0.3,0.4c-0.2,0.2-0.3,0.3-0.2,0.5c1.5-0.8,2.3-1.2,2.5-1.3c0,0.1-0.3,0.4-1,1c0.8-0.1,1.8-0.5,2.9-1.2
		c1.1-0.8,2.1-1.2,2.8-1.3c0.2,0,0.6-0.1,1.2-0.1c0.5,0,0.8-0.1,1.1-0.1c-0.2,0.2-0.5,0.4-1.1,0.4c-0.7,0.1-1.1,0.1-1.3,0.2
		c0.9,0.5,2.1,0.4,3.7-0.1c-0.9,0.6-1.9,0.9-3,0.7c-0.1,0.3-0.3,0.5-0.5,0.8c-0.3,0.4-0.5,0.6-0.6,0.7c2-0.3,3.6-0.9,5-1.8
		c-1,0.9-2,1.5-3,1.7c-0.1,0,0.7-0.1,2.4-0.1c-0.4,0.4-1,0.6-2,0.6c0,0-0.4,0.3-1.2,1.1c-0.7,0.6-1.4,1.7-1.9,3.3
		c-0.6,1.6-0.8,3.2-0.7,4.7c0.1,2,0.5,3.4,1.2,4.3c0.2,0.3,1.4,0.9,3.7,1.6c0-0.1,0.1-0.2,0.2-0.2c0.1-0.1,0.1-0.2,0-0.3
		c-1.7-0.3-3-1.2-3.7-2.9c-0.8-1.6-1-3.4-0.5-5.4c-0.2,1.6,0,3.1,0.5,4.4c0.5,1.3,1.3,2.3,2.5,2.7c-1.2-1.7-1.8-2.6-1.8-2.7
		c0.7,1.4,1.5,2.3,2.5,2.5c-1.1-1-1.7-1.8-1.8-2.3c0.9,1.3,1.8,2,2.5,2.2c-0.1-0.2-0.4-0.5-0.9-0.9c-0.4-0.4-0.6-0.7-0.8-0.9
		c1.3,1.1,1.9,1.6,2,1.6c0.3-0.4,0.4-0.5,0.4-0.4c0.1,0,0.2,0,0.3-0.1c0.1-0.1,0.2-0.2,0.3-0.2c-0.1-0.1-0.2-0.2-0.3-0.3
		c-0.2-0.1-0.3-0.3-0.3-0.4c0.5,0.4,0.8,0.5,0.9,0.6c0-0.1,0-0.3,0.1-0.4c0.1-0.1,0.2-0.2,0.1-0.4c-0.1,0-0.4-0.1-0.8-0.1
		c-1.9-0.9-2.8-2.4-2.6-4.5c0.1-1.6,0.7-3,1.9-4.2c0.2-0.2,0.8-0.7,1.6-1.4c0.6-0.6,1.1-1.1,1.4-1.5c0.7-0.9,0.9-1.8,0.8-2.7
		c-0.2-0.8-0.6-1.6-1.4-2.2c-1.9-1.5-3.6-2-5.3-1.4c1.1,0.2,1.6,0.3,1.6,0.2c-1.8,0-2.6,0-2.4,0c-2.5-0.2-5.3,0.8-8.4,3
		c-0.7,0.5-1.8,1.2-3.3,1.9C21.6,24.2,20.5,24.8,19.9,25.3z M19.9,72.9c0.7-0.7,1.3-1.1,1.8-1.1C21.4,72,20.8,72.3,19.9,72.9z
		 M28.7,80.3l0.4,0.3c0.2,0.1,0.2,0.2,0.1,0.4c0,0,0,0,0-0.1c-0.1,0-0.1,0-0.1,0.1c0-0.3,0-0.4,0-0.3c-0.1,0-0.2,0.1-0.2,0.1
		c-0.1-0.3-0.2-0.4-0.3-0.4c0,0.1-0.1,0.2-0.2,0.2c-0.4-0.3-0.9-0.4-1.6-0.3c-0.2,0.4-1,0.4-2.6,0.2c-1.6-0.2-2.6-0.5-2.9-0.9
		c0,0-0.1-0.1-0.2-0.2l-0.2-0.1c-0.2-0.3-0.3-0.8-0.2-1.5c0.1-0.6,0-1-0.1-1.2c-0.1,0-0.3,0-0.4,0c0.5-0.7,0.8-1.4,1-2.3
		c0.1,0,0.1,0,0.2,0c0.1,0,0.1,0,0.2,0c-0.5,0.7-0.8,1.8-0.6,3.2c0.1,1.4,0.3,2.2,0.5,2.3c-0.1-0.1,0.3,0,1.3,0.2
		c2.2,0.5,3.6,0.6,4.1,0.4c0.9-0.4,1.6-0.4,2.2-0.1c0,0.1,0,0.2,0,0.2S28.9,80.3,28.7,80.3z M29.4,79c0.1,0.1,0.3,0.6,0.6,1.5
		c-0.3-0.6-0.6-1.1-1.1-1.4c-0.5-0.4-0.7-0.5-0.7-0.5c-2.6,0.6-4.5,0.5-5.5-0.3c0-0.1,0-0.2-0.2-0.4l-0.3-0.2
		c-0.1-0.3,0-0.8,0.2-1.5c0.3-0.6,0.5-1,0.7-1.2c0-0.1,0-0.1,0,0c0.1-0.2,0.3-0.4,0.5-0.9c0.2-0.4,0.4-0.8,0.6-1.2
		c-0.3,0.1-0.6,0.3-0.8,0.6c0.2,0.4-0.1,0.6-0.8,0.8c0.1,0,0.1,0.1,0,0.3c0-0.1,0-0.2-0.1-0.1c-0.1,0-0.2,0.1-0.2,0.2
		c-0.1-0.1,0-0.3,0.1-0.4c0.1-0.2,0.2-0.4,0.2-0.4c-0.1-0.1-0.2-0.1-0.3,0c0,0.2,0.4-0.1,1.2-1c-0.6-0.1-1,0-1.2,0.1
		c0,0.3-0.3,0.3-1.1,0c0.2-0.2,1.6-0.4,4.3-0.8c0.2-0.1,0.3-0.4,0.2-0.7c-0.2-0.5-0.2-0.7-0.2-0.8c-0.4,0.3-1.5,0.6-3,0.9
		c0.1-0.1,0.7-0.3,1.9-0.6c0.8-0.2,1.3-0.6,1.4-1.2c0.1,0.1,0.2-0.1,0.2-0.5c0-0.7,0-1.1,0-1.2c0-0.1,0.1-0.3,0.2-0.4
		c0.1-0.1,0.2-0.2,0.2-0.3c0-0.1,0-0.2,0-0.3c0-0.1,0-0.2,0-0.2c0.4-0.2,0.6-0.4,0.8-0.4c0.2,0.2,0.3,0.4,0.4,0.5
		c-0.1,0-0.1,0,0,0.1c0.2,0.2,0.2,0.3,0.1,0.4c0.3,0,0.5-0.3,0.5-0.7h0.3c-0.1,0.2-0.1,0.4,0,0.6c-0.1,0-0.2,0-0.2,0
		c0-0.1-0.1-0.1-0.1-0.1c-0.1,3.2-0.3,4.6-0.5,4.3c0.3,0.1-0.1-0.7-1.2-2.3c0.1,0,0.2,0,0.2,0.1c0.1,0.1,0.1,0.2,0.2,0.2
		c0.2-0.4,0.2-0.8-0.1-1.4c0.1,0,0.2,0.1,0.3,0.2c0.1,0,0.2-0.1,0.2-0.3c0-0.2,0-0.3,0-0.3c0.1-0.1,0.1-0.1,0.1,0
		c0.1,0.1,0.1,0.2,0,0.3c0.2,0,0.3-0.1,0.3-0.3c-0.4-0.4-0.7-0.8-0.8-0.9c-0.4,0-0.5,0.2-0.5,0.6c0,0.7,0,1,0,1
		c-0.1-0.1-0.1-0.2-0.1-0.3c0,0.2-0.1,0.6-0.2,1.1c-0.2,0.6-0.3,0.9-0.3,1.1c-0.2,0.9,0.1,1.4,0.8,1.6c0.1,0,0.2-0.1,0.3-0.2
		c0.2-0.1,0.3-0.2,0.3-0.2c-0.2,0.2-0.1,0.2,0.1,0.2C27,72,26.8,72.1,26.8,72c-0.1,0-0.2,0-0.3,0c-0.1,0-0.3,0-0.4,0
		c-0.2,0.2-0.3,0.3-0.3,0.4c-0.9,0.3-1.5,0.6-1.7,1.1c-0.3,0.5-0.7,1.3-1.2,2.4c0,0.1-0.1,0.3-0.3,0.5c-0.1,0.2-0.2,0.4-0.2,0.5
		c0.2,1,0.8,1.7,1.8,1.9c0.5,0.1,1.3,0.1,2.3,0c1.1-0.2,1.8-0.3,2.2-0.2c0.3,0,0.4,0.1,0.6,0.3c0,0,0,0.1,0,0.1l0,0.1h0.1
		C29.4,79,29.4,79,29.4,79z M21.9,35.6c0.4-0.2,1.5-0.6,3.4-1.3c1.3-0.5,2.3-1.1,3.1-1.6c0.8-0.6,1.6-1.4,2.4-2.3
		c1.1-1.2,1.7-2.1,2.1-2.6c-0.1,0.1-0.6,0.6-1.4,1.4c0.2-0.5,0.4-0.7,0.4-0.6c0,0.2-0.2,0.3-0.4,0.4c-0.2,0.1-0.3,0.2-0.3,0.2
		c0-0.1,0.3-0.4,0.9-1c0.5-0.4,0.8-0.8,0.8-1c-0.5,0.6-1.3,1.3-2.5,2.3c0.2-0.2,0.6-0.6,1.2-1.1c0.5-0.5,0.8-0.9,1.1-1.2
		c-3.5,2.9-5.7,4.6-6.6,5c2.1-1.3,3.7-2.7,5-4.4c0.1-0.1,0.2-0.3,0.3-0.4c-0.1,0.1-0.2,0.3-0.3,0.4c-0.8,0.7-1.1,1-1.1,0.8
		c0-0.1,0-0.1,0.1-0.2c0.4-0.3,0.8-0.7,1.1-1c0.7-0.5,1-0.9,1-1.2c-0.3,0.4-0.6,0.8-1,1.2c-0.6,0.5-1,0.8-1.1,1
		c-0.5,0.4-1.3,0.9-2.3,1.5c-1.2,0.7-2,1.2-2.4,1.5C23.7,32.6,22.5,34,21.9,35.6z M22,48.5c0.4-0.5,1.1-1.1,1.9-1.7
		c1-0.8,1.6-1.4,1.9-1.7c1.5-1.4,2.5-2.8,3.1-4.2c-0.2,0.1-0.3,0.3-0.5,0.6c-0.3,0.4-0.4,0.6-0.5,0.6c0,0,0-0.1,0.1-0.2
		c0.1-0.1,0.1-0.1,0-0.1c-0.5,0.7-0.9,1.1-1.2,1.2c-0.1,0.1,0.4-0.6,1.6-2.1c-0.3,0.2-0.7,0.6-1.2,1.3c-0.4,0.6-0.7,1-1.1,1.2
		c0.7-0.6,1.2-1.3,1.4-2.1c-0.2,0.2-0.6,0.7-1.1,1.4c-0.4,0.6-0.8,1.1-1.2,1.2c0.7-0.8,1.2-1.5,1.3-2c-1.9,2.2-2.8,3.3-2.7,3.2
		c0.3-0.4,0.7-0.9,1.1-1.7c0.5-0.9,0.8-1.5,1.1-1.8c-0.1,0-0.2,0-0.2-0.1c0.3-0.4,0.4-0.6,0.3-0.7c0,0-0.1,0.1-0.1,0.1
		c-0.1,0.1-0.1,0.1-0.1,0c0.2-0.6,0.3-0.9,0.4-0.8c-0.4,0.5-0.7,0.8-0.8,0.8l0.7-1.1c-0.3,0.4-0.8,1.1-1.4,1.9
		c-0.7,0.9-1.2,1.5-1.4,1.9c-1,1.6-1.5,2.4-1.5,2.4S22,46.8,22,48.5z M22.1,74C22.1,74,22.1,73.9,22.1,74C22.1,73.9,22.1,74,22.1,74
		z M24.8,56.8c0.6-2.5,0.7-4.3,0.2-5.4c0.1-1,0.1-1.8,0-2.5c-0.1,0.3-0.1,0.5-0.1,0.4v-1.5c-0.1,0.2-0.1,0.4-0.1,0.9
		c0,0.4,0,0.7-0.1,0.9c0-0.3,0-0.7,0-1.1c0-0.4,0-0.5,0,0c-0.1,0.2-0.1,0.5-0.1,1.1c0,0.5,0,0.9,0,1.1c-0.1-0.3-0.1-0.7-0.1-1.2
		c0-0.6,0-1,0-1.2c-0.1,0.2-0.2,0.6-0.1,1.2c0,0.6,0,1.1-0.1,1.3v-0.6c0-0.2,0-0.2,0-0.2c-0.1,0-0.1,0.1,0,0.2c0,0.3,0,0.8,0,1.4
		c0.1,0.6,0.1,1,0,1.2c-0.3-1.4-0.5-2.7-0.6-4c-0.1,0.6-0.1,0.9-0.1,1c-0.1-0.2-0.1-0.6,0-1.1c0.1-0.4,0.1-0.7,0-0.9
		c-0.1,0.1-0.1,0.3-0.1,0.5c0,0.3-0.1,0.4-0.1,0.5C23,48.3,23,48,23.1,48.1c-0.1,0.3-0.1,0.3-0.2,0.1C22.8,52.4,23.4,55.3,24.8,56.8
		z M23,74.9L23,74.9C23,75,23,74.9,23,74.9z M24.8,22.8c-0.2,0.1-0.3,0.2-0.2,0.1c0,0,0.3-0.3,1-0.8c1.4-1,2.6-1.7,3.7-2
		C29.5,20.1,28.1,21,24.8,22.8z M25.4,50.9c2.6-2.5,4.2-4.6,4.6-6.4c-0.5,0.6-0.9,1.1-1.3,1.6c0.1-0.2,0.3-0.6,0.7-1.1
		c0.4-0.4,0.5-0.8,0.6-1c0.1-0.1-0.5,0.6-1.7,2.1c0.1-0.2,0.3-0.6,0.7-1.1c0.4-0.4,0.6-0.7,0.6-1c-0.2,0.1-0.8,0.8-1.8,2.2
		c0-0.1,0.1-0.2,0.2-0.4c0.1-0.1,0.1-0.2,0-0.2c-0.7,0.9-1.2,1.8-1.6,2.6c0.1-0.2,0.1-0.4,0.1-0.7c0.1-0.3,0.1-0.5,0.1-0.6
		c0.2-0.4,0.4-0.9,0.8-1.5c0.4-0.6,0.6-1.1,0.7-1.4c-0.4,0.2-0.5,0.3-0.5,0.4c0.4-0.7,0.6-1,0.5-0.9c-0.1,0-0.1,0.1-0.2,0.2
		c-0.1,0.1-0.2,0.1-0.2,0l0.2-0.2c0.1-0.1,0-0.1-0.1-0.1l-0.5,0.4c0.1,0,0.1,0,0.2-0.1c0-0.1,0-0.1,0-0.1c-1.9,1.5-2.9,2.3-2.9,2.3
		S25,47.6,25.4,50.9z M26.5,34.3c-0.3,0.4-0.5,0.9-0.7,1.6c-0.2,0.8-0.4,1.4-0.6,1.8c3.8-1.6,6.1-3.3,6.9-5.1
		c-0.1,0-0.2,0.1-0.3,0.3c-0.1,0.2-0.2,0.2-0.3,0.2c0.1-0.2,0.2-0.3,0.1-0.3c-0.2,0.3-0.3,0.4-0.3,0.2c0,0,0.1,0,0.1-0.1
		c0-0.1,0-0.1-0.1-0.1l-0.7,0.7c0.8-1.1,1.2-1.6,1.2-1.6c-1.1,1.2-1.7,1.9-2.1,2.1c0.8-0.7,1.2-1.2,1.2-1.3c-0.6,0.7-1.6,1.5-3,2.5
		c1.5-1.3,3-3,4.5-5.1c-0.1,0-0.3,0.2-0.5,0.5c-0.2,0.2-0.3,0.3-0.4,0.3c0.3-0.3,0.7-0.8,1.2-1.3c-0.2,0-0.5,0.2-0.8,0.5
		c-0.3,0.3-0.5,0.5-0.6,0.5l0.8-0.9c-1.9,2-2.8,2.9-2.6,2.8c-0.2,0.2-0.7,0.5-1.6,1c-0.7,0.4-1.1,0.6-1.1,0.6S26.7,34,26.5,34.3z
		 M26.4,54c0.4-0.9,0.7-2.1,0.7-3.5c0,0-0.1,0.2-0.2,0.6c0,0.2-0.1,0.2-0.2,0c0,0.3,0,0.5-0.1,0.7c0-0.4,0.1-0.9,0.2-1.3
		c0.2-0.2,0,0.5-0.4,2.1c0-0.2,0-0.6,0-1c0.1-0.4,0.1-0.7,0-0.8c0,0.2-0.1,0.5-0.1,1c0,0.4-0.1,0.8-0.1,1c-0.1-1.2-0.2-1.7-0.1-1.6
		c0,0.3,0,0.5-0.1,0.7c-0.1-0.4-0.1-0.6,0-0.6C25.5,52.1,25.6,53.1,26.4,54z M31.9,34.1c-3,2.3-4.8,4.6-5.2,6.8
		c2.6-1.1,4.4-2.5,5.4-4.2c-0.1,0-0.2,0-0.3,0.2c-0.1,0.1-0.2,0.2-0.3,0.1c0.1,0,0.2-0.2,0.4-0.4c0.2-0.2,0.2-0.2,0-0.1
		c-0.3,0.4-0.6,0.8-1,1.1c0.5-0.6,0.9-1.1,1.1-1.4c-0.2,0.1-0.4,0.3-0.8,0.7c-0.3,0.4-0.5,0.6-0.8,0.7c0.6-0.7,0.9-1,0.8-0.9
		c-0.2,0.1-0.6,0.4-1.1,0.9c-0.5,0.4-0.8,0.7-1.1,0.8c1.2-1.2,2.1-2.3,2.6-3.2c0.1-0.1,0.1-0.2,0.2-0.4c-0.1,0.1-0.1,0.3-0.2,0.4
		c-0.1,0.1-0.2,0.1-0.3,0.1c0.5-0.7,0.8-1.1,0.8-1.1c-0.2,0.1-0.4,0.2-0.6,0.5c-0.2,0.3-0.4,0.4-0.5,0.4
		C30.9,35.3,31.2,34.9,31.9,34.1z M27,22.3c0.3-0.3,0.5-0.4,0.5-0.4c1.1-0.8,2.1-1.3,3.1-1.6C28.6,21.3,27.4,22,27,22.3z M32.1,47
		c-0.1,0.1-0.2,0.3-0.3,0.5c-0.2,0.2-0.3,0.4-0.4,0.5c0.1-0.3,0.4-0.8,0.8-1.4c-0.2,0.1-0.4,0.4-0.6,0.8c-0.2,0.4-0.4,0.7-0.5,0.9
		c0.4-1.1,0.7-1.6,0.7-1.6c-0.1,0.2-0.3,0.4-0.5,0.8c-0.2,0.4-0.4,0.6-0.5,0.8c0-0.1,0.1-0.3,0.3-0.6c0.2-0.3,0.2-0.4,0.2-0.6
		c-0.2,0.2-0.3,0.5-0.5,0.9c-0.3,0.4-0.4,0.8-0.5,0.9c0-0.1,0.1-0.3,0.2-0.5c0.1-0.2,0.2-0.3,0.1-0.4c-0.5,0.9-0.8,1.4-0.9,1.6
		c0.1-0.2,0.2-0.5,0.5-1.1c0.1-0.4,0-0.3-0.2,0.2c0,0-0.3,0.7-1.1,2.3c0.1-0.7,0.3-1.5,0.8-2.6c0.5-1.1,0.7-1.8,0.8-2.4
		c-0.1,0.1-0.1,0.1-0.2,0.1c0,0,0,0,0.1,0.1c-2.1,2.6-2.9,5-2.6,7.4C29.9,52.2,31.4,50,32.1,47z M30,66.7c-0.2-0.4-0.5-0.6-0.8-0.5
		c-0.4,0-0.6,0.3-0.7,0.7c-0.1-0.3-0.1-0.6,0.2-0.8c0.3-0.2,0.6-0.2,0.9-0.1C29.9,66.4,30,66.6,30,66.7z M33.2,40
		c-0.4,0.3-0.5,0.4-0.4,0.5c0.3-0.5,0.4-0.8,0.4-0.8c-0.4,0.5-0.8,0.8-0.9,0.9c0.4-0.8,0.6-1.2,0.6-1.1c-0.4,0.5-0.8,0.9-1.3,1.3
		c0.3-0.3,0.6-0.8,1.1-1.3c-0.3,0.2-0.6,0.4-1,0.8c-0.4,0.4-0.8,0.7-0.9,0.9c0.2-0.2,0.5-0.7,0.9-1.4c0.4-0.6,0.7-1,1-1.3
		c-0.1,0-0.2,0-0.2,0.1c0,0.1-0.1,0.1-0.1,0c0.2-0.4,0.3-0.6,0.3-0.5c-0.3,0.3-0.5,0.4-0.5,0.3c0.4-0.4,0.6-0.7,0.5-0.8
		c-0.1,0.3-0.4,0.5-0.7,0.6c0.4-0.6,0.7-0.9,0.6-0.8c-0.1-0.1-0.2,0-0.3,0.1c-0.1,0.2-0.2,0.2-0.3,0.1c0.1-0.3,0.2-0.4,0.2-0.4
		c-1.2,1.2-1.9,2.1-2.2,2.6c-0.7,1.2-1,2.4-0.9,3.7c-0.1,0.1,0.7-0.4,2.4-1.7C32.5,41.5,33.1,40.7,33.2,40z M29.3,69.5l0.5-0.6
		c0,0.1-0.1,0.2-0.3,0.3c-0.2,0.1-0.2,0.1-0.2,0.1S29.2,69.4,29.3,69.5z M29.8,68.6c-0.1-0.4-0.1-0.5,0-0.5
		c-0.3,0.5-0.5,0.8-0.5,0.7c0.1,0,0.2,0,0.3,0C29.7,68.6,29.7,68.6,29.8,68.6z M31,20.4c0.1,0,0.2-0.1,0.4-0.3c0.1,0,0.3,0,0.5,0
		c0.2-0.1,0.3-0.1,0.4-0.1C32,20.1,31.6,20.3,31,20.4z M31.2,46.3c2.1-1.4,3.4-3,3.7-4.6c-0.3,0.5-0.5,0.8-0.6,0.8l0.3-0.6
		c0.2-0.3,0.2-0.4,0-0.6c-0.4,0.6-0.6,1-0.7,1c0.3-0.8,0.4-1.1,0.5-1.1c-0.5,0.9-0.9,1.4-1.1,1.6c0.2-0.5,0.3-0.7,0.3-0.7
		c-0.4,0.8-0.8,1.2-1.1,1.3c0.7-1.1,1.1-2.2,1.3-3.2c-0.1,0.2-0.2,0.4-0.3,0.6c-0.2,0.3-0.3,0.5-0.4,0.6c0-0.2,0.1-0.5,0.3-0.8
		c0.2-0.3,0.2-0.5,0.2-0.7c-0.3,0.7-0.9,1.4-1.8,2.1c-0.6,1.9-1,2.8-1,2.8S31.2,45.5,31.2,46.3z M69.1,69.6c-0.4,0.4-1.1,0.8-2.3,1
		c-1.5,0.3-2.4,0.5-2.6,0.7c0.4-0.3,1.2-0.6,2.4-0.9c1-0.2,1.8-0.6,2.2-1.2c0.4-0.6,0.6-1.1,0.4-1.5c-0.2-0.4-0.7-0.7-1.4-0.8
		c-0.5,0-1.3,0.1-2.5,0.3c-1,0.2-1.9,0.2-2.6,0c-0.9-0.2-1.6-0.6-2.3-1.1c-0.8-0.6-0.7-1.2,0.1-1.5c-0.9,0.3-1.4,0.5-1.4,0.7
		c-0.1,0.4,0.1,0.7,0.5,1c0.2,0.1,0.4,0.2,0.6,0.3c0.3,0.1,0.4,0.2,0.5,0.2c1.2,0.6,1.6,0.9,1.4,0.9c0.3,0.1,1,0.1,2,0
		c0.8-0.1,1.3,0,1.6,0.2c-0.4-0.1-1,0-1.7,0c-0.8,0.1-1.4,0.2-1.7,0.1c-0.2,0-0.4-0.1-0.8-0.3c-0.3-0.2-0.5-0.2-0.7-0.2
		c0,0.5,0.3,0.8,0.9,1.1c1,0.4,1.5,0.6,1.6,0.7c-0.2,0.1-0.5,0.1-0.8,0c-0.4-0.1-0.6-0.1-0.7-0.1c0.3,0.1,0.4,0.2,0.2,0.3
		c-0.2,0-0.3,0-0.4-0.1c-0.2-0.1-0.3-0.2-0.4-0.2c0,0.2-0.2,0.4-0.4,0.6c-0.2,0.2-0.4,0.4-0.4,0.7c3.3-0.7,5-1.1,5.3-1.2
		c0,0-0.1,0-0.2,0c-0.1,0-0.2,0-0.2-0.1c0.8-0.2,1.1-0.2,1.1,0c-0.8-0.1-1.1-0.2-1.1-0.2c1.1-0.2,1.5-0.2,1.4,0
		c-1.1-0.2-1.6-0.3-1.4-0.2c0.2,0,0.5,0,1,0c0.4,0.1,0.7,0,0.8,0c0.2,0-0.6-0.1-2.4-0.3c0.3-0.1,0.8,0,1.6,0c0.6,0.1,1,0,1.1-0.2
		c-0.3-0.1-0.8-0.1-1.3-0.1c-0.7,0-1.1,0-1.3,0c1.6-0.1,2.5-0.1,2.9,0c0.1-0.2,0.1-0.4,0-0.7c-0.1-0.1-0.3-0.1-0.5,0
		c-0.3,0-0.4,0-0.5,0c0.5-0.2,1-0.2,1.4,0c0.4,0.3,0.6,0.6,0.6,1.1c-0.1,0.6-0.6,1-1.6,1.2c-0.3,0.1-0.8,0.1-1.3,0.2
		c-0.7,0.1-1.1,0.1-1.3,0.1c-2.4,0.4-4.7,1-7,1.9c-1.5,0.6-2.7,0.9-3.6,0.9c-0.7,0.1-1.8,0-3.2-0.2c-1.3-0.1-2.2-0.2-2.6-0.1
		c-0.2-0.2-0.3-0.2-0.4-0.2c-1.1,0-2.6-0.2-4.6-0.5c-2.6-0.5-4.2-0.8-4.8-0.8c-3-0.4-4.8-0.9-5.3-1.6c-0.3-0.4-0.2-0.9,0.2-1.4
		c-0.6,0.6-0.9,1-0.9,1.3c0.1,0.8,0.9,1.3,2.6,1.6c2.4,0.4,3.7,0.6,3.8,0.7h-0.1c2.9,0.7,4.2,0.9,4,0.7c-0.8-0.2-2.4-0.4-4.9-0.7
		c-2-0.3-3.5-0.5-4.5-0.8c0,0.2,0.2,0.6,0.6,1.2c0.3,0.5,0.3,1,0.2,1.3c-0.6-0.8-0.8-1.1-0.6-1.1c-0.4,0.6-0.4,1.4,0,2.3
		c-0.3,0-0.4-0.1-0.6-0.4c-0.2-0.5-0.3-0.7-0.3-0.7c-0.2,0.8,0.3,1.8,1.6,3c1.4,1.4,3.6,2.2,6.5,2.4c0.8,0.1,2,0.3,3.6,0.6
		c1.6,0.4,2.8,0.6,3.6,0.7l6.6-0.3c0.3,0,0.7,0,1.3,0c0.6,0,1,0,1.3,0c1.2-0.1,2.4-0.4,3.7-0.9c1.9-0.7,3.1-1.1,3.8-1.3
		c1.8-0.4,3-0.8,3.6-1.2c2.4-1.6,3-2.6,1.7-3.1c-0.3,1-1,1.6-2,1.7c0.6-0.4,1-0.8,1.3-1.4c0.3-0.7,0.1-1.3-0.4-1.8
		c-0.1,0.1-0.2,0.2-0.4,0.3c-0.2,0.2-0.3,0.3-0.4,0.4c0.2,0,0.2,0,0,0.1c-0.3,0.2-0.4,0.3-0.4,0.4c0.1,0.1,0.2,0,0.3-0.1
		c0.1-0.1,0.2-0.1,0.3,0c-0.3,0.2-0.7,0.4-1,0.7c0-0.5,0.3-1.2,1-1.9c0.6-0.7,1-1,1-1S69.3,70.3,69.1,69.6z M33,67.2
		c0,0.2,0,0.4,0,0.4c0.8-0.2,2.4-1,4.9-2.5c1.9-1.2,3.7-1.6,5.4-1.3c0.2-1.5,0.4-2.5,0.6-3.1c-0.3-0.3-0.6-0.4-0.9-0.4
		c-0.6,1.3-1.6,2-2.8,2.1c-0.9,1.1-2.2,1.9-3.9,2.6c0.1-0.3,0.1-0.4,0.1-0.4c-0.4,0-0.7,0.1-1,0.3c-0.3,0.3-0.6,0.5-0.8,0.5
		c0,0.6-0.3,0.8-0.8,0.8C33.8,66.8,33.5,67.1,33,67.2z M33.5,47.2c1.6-2.3,2.4-3.7,2.5-4.2c-0.6,0.9-0.8,1.3-0.7,1.2V44
		c-0.4,0.6-0.6,0.9-0.6,0.9c0.3-0.8,0.5-1.2,0.6-1.2c-0.1,0.1-0.2,0.2-0.3,0.4c-0.1,0.2-0.2,0.3-0.3,0.4l0.6-2
		c-0.3,0.6-0.4,0.9-0.5,1c-0.1-0.2-0.1-0.2,0-0.2c-1.2,1.3-1.7,2-1.7,2S33.2,46,33.5,47.2z M33.7,63.8c0.9-0.6,1.4-1.1,1.6-1.4
		c-0.5,0.4-0.9,0.6-1.1,0.7c-0.1-0.4,0-0.6,0.1-0.5c-0.1,0.2-0.2,0.4-0.4,0.6C33.8,63.4,33.7,63.6,33.7,63.8z M36.4,75.7
		c0.3,0,0.4,0,0.4,0C36.8,75.7,36.7,75.7,36.4,75.7c-1.1-0.1-2-0.5-2.6-1.2C35.5,75.3,36.4,75.7,36.4,75.7z M36.2,75
		c-0.5,0.1-1.3-0.2-2.3-1c0.2,0,0.5,0.2,1,0.5C35.4,74.9,35.8,75,36.2,75z M34,75.4c0.2,0.1,0.7,0.2,1.3,0.5
		c0.7,0.3,1.1,0.4,1.3,0.5C35.6,76.2,34.8,75.9,34,75.4z M34.3,76.1L34.3,76.1L34.3,76.1z M37.1,77.2c-1.3-0.2-2.2-0.6-2.8-1.1
		c0.1,0,0.6,0.2,1.3,0.5C36.3,76.9,36.8,77.1,37.1,77.2z M34.5,69.3c0.2,0.1,0.5,0.2,1,0.3c0.5,0.1,0.8,0.2,1,0.4
		c-1-0.3-1.6-0.4-1.7-0.3c0.8,0.3,2.3,0.5,4.5,0.9c2,0.3,3.5,0.6,4.5,1c0.1-0.2,0.3-0.3,0.5-0.4c0.3-0.1,0.5-0.2,0.5-0.3
		c0.2-0.4,0.2-0.7,0-1.2c-0.1-0.2-0.2-0.3-0.4-0.5c-0.3-0.2-0.4-0.4-0.4-0.4c-0.4,0.7-1.1,1-2,0.9c0.2,0,0.5-0.1,0.8-0.2
		c0.4-0.2,0.7-0.3,0.8-0.3c0.3-1.1,0.4-1.8,0.4-2c-0.7,1.4-2.7,1.7-5.9,0.9c0.1,0,0.2,0,0.3,0c0.1,0,0.1,0-0.1,0
		c-2.4-0.2-3.6-0.3-3.4-0.3c0.6,0.1,0.9,0.2,1,0.3c-0.1,0.1-0.2,0.1-0.4,0.1c-0.2,0-0.4,0-0.4,0c0.4,0,0.6,0.1,0.7,0.1
		c-0.7,0-1.1,0-1.2,0.2c0.4,0,0.9,0.1,1.6,0.3c0.7,0.2,1.2,0.3,1.5,0.3c-0.5,0-1,0-1.6-0.2c-0.7-0.2-1.2-0.3-1.5-0.3
		c0.2,0.1,0.5,0.2,1.1,0.3c0.5,0.1,0.8,0.3,1,0.4c-0.2,0-0.5-0.1-1.1-0.2C35,69,34.6,68.9,34.4,69c0.8,0.2,1.5,0.4,2,0.7
		C35,69.5,34.4,69.4,34.5,69.3z M38.4,72c-1.6,0.1-2.9,0-3.9-0.3C35.3,71.7,36.7,71.8,38.4,72z M36,74.5c-0.3,0.1-0.8-0.1-1.4-0.6
		c0.2,0,0.4,0,0.7,0.2C35.5,74.4,35.8,74.5,36,74.5z M36.4,73.1c-0.5,0.1-1.1,0.1-1.8-0.2c0,0,0.3,0,0.8,0.1
		C35.7,73,36,73.1,36.4,73.1c0.1-0.1,0.3-0.1,0.3,0C36.8,73.1,36.6,73.1,36.4,73.1z M34.7,51.6c0-0.4,0.1-0.8,0.3-1.4
		c0.3-0.7,0.4-1.2,0.5-1.3c0,0.4-0.1,0.8-0.3,1.3C34.9,50.9,34.7,51.4,34.7,51.6z M35.2,48.1c1.2-1.8,1.7-2.8,1.7-2.9
		c-0.3,0.5-0.5,0.8-0.5,0.8l0.2-0.6C36.2,46,36,46.3,36,46.3c0.5-1.2,0.8-1.8,0.7-2c-0.1,0.3-0.3,0.6-0.5,1.1
		c-0.3,0.5-0.5,0.9-0.5,1c0.4-1.4,0.5-2.1,0.5-2.1c-0.2,0.6-0.4,1-0.5,1.1c0.3-0.7,0.4-1.1,0.3-1.1c-0.9,1.1-1.3,1.6-1.3,1.6
		S34.8,46.6,35.2,48.1z M34.7,64.4c0.9-0.3,1.6-0.8,1.9-1.6c-0.4,0.5-0.9,0.8-1.3,0.9c0-0.2,0.2-0.5,0.4-0.9
		c0.3-0.4,0.4-0.6,0.4-0.7C35.4,62.8,34.9,63.6,34.7,64.4z M35.3,74c-0.6-0.2-0.8-0.3-0.3-0.2c-0.1-0.1,0.6,0.1,2.1,0.4
		C36.6,74.4,36,74.3,35.3,74z M44.4,65.2c-0.1-0.7-1.1-1.1-2.8-1.1c-1.2,0-2.4,0.4-3.7,1.2c-1.6,1-2.6,1.6-3.2,1.8
		c0.1,0,1.2-0.3,3.2-0.9c-0.1,0.1-0.3,0.2-0.7,0.4c-0.4,0.2-0.5,0.4-0.5,0.5c0.2-0.1,0.5-0.3,0.9-0.5c0.4-0.2,0.7-0.3,0.8-0.4
		c-0.2,0.2-0.4,0.3-0.8,0.5c-0.4,0.2-0.6,0.4-0.8,0.5c0.2,0,0.4-0.1,0.8-0.2c0.3-0.2,0.5-0.2,0.6-0.2c-0.1,0.1-0.2,0.1-0.5,0.2
		c-0.2,0.1-0.3,0.2-0.4,0.3c0.1,0,0.3-0.1,0.5-0.2c0.2-0.1,0.4-0.1,0.5-0.1c0,0.1-0.1,0.1-0.2,0.1c-0.1,0.1-0.2,0.1-0.2,0.2
		c0.1,0.1,0.3,0.1,0.4,0c0.2-0.1,0.2-0.1,0.2,0c-0.1,0-0.2,0.1-0.2,0.2c0.5,0.1,1-0.1,1.6-0.5c0.8-0.6,1.2-0.9,1.2-0.9
		c-0.3,0-0.7,0.1-1.2,0.3c-0.5,0.2-0.9,0.4-1.2,0.4c0.7-0.7,1.9-1.1,3.6-1.2c-1-0.1-1.5-0.2-1.3-0.1c1.1-0.3,1.6-0.4,1.6-0.3
		c-0.3-0.1-0.7-0.1-1.3,0c-0.6,0.1-1,0.2-1.2,0.2c0.3-0.1,1-0.3,2-0.5c-0.3,0-0.8,0-1.3,0.1c-0.7,0.2-1.2,0.2-1.2,0.2
		c0.2-0.1,0.4-0.1,0.8-0.2c0.4-0.1,0.6-0.2,0.8-0.3c-0.8-0.1-1.5,0.1-2.2,0.4c-0.2,0.1-0.4,0.3-0.8,0.5c-0.4,0.3-0.6,0.4-0.8,0.5
		c1.2-1.1,2.3-1.6,3.3-1.8c0.9-0.1,1.7-0.1,2.3,0.1c0.8,0.2,1,0.7,0.5,1.4c-0.6,0.8-1.8,1.5-3.8,2.1l-0.5,0h0.8
		c1.1,0.3,2.1,0.1,3.2-0.7c1-0.7,1.5-1.1,1.5-1.1S44.5,66,44.4,65.2z M36.1,73.6c0.8,0.1,1.2,0.1,1.2,0.1c-0.9,0.2-1.7,0-2.5-0.4
		C34.9,73.4,35.4,73.5,36.1,73.6z M35.3,55.4c0.9-1.2,1.2-2.5,0.9-3.7c0,0.4-0.1,0.8-0.2,1.4c-0.1-0.5-0.1-0.7,0-0.7
		c-0.1,0.6-0.2,0.9-0.1,0.9c0-0.4,0-0.5-0.1-0.4c0,0.3,0,0.5-0.1,0.6c0-0.4-0.1-0.5-0.1-0.4c0,0.4,0,0.7-0.1,0.8v-0.5
		c0-0.3,0-0.3,0-0.2c-0.1,0.4-0.2,0.5-0.1,0.5c-0.1-0.4-0.1-0.7-0.1-0.6c-0.1,0.5-0.1,0.7-0.1,0.7S35.1,54.3,35.3,55.4z M37.8,72.3
		c0.3,0,0.1,0.1-0.6,0.1c-0.7,0-1.4,0-2.1-0.1c-0.3-0.1-0.1-0.1,0.5,0c0.6,0,1.1,0.1,1.2,0.1H37.8z M36.7,72.7c-0.3,0-0.7,0-1.4-0.1
		c0.1-0.1,0.5-0.1,1.1,0C36.7,72.7,36.8,72.7,36.7,72.7z M37.6,59.7c-0.9,0.8-1.5,1.6-1.8,2.3c1-0.4,1.7-0.9,2-1.4
		c-0.8,0.5-1.3,0.8-1.4,0.8c0.1-0.3,0.3-0.6,0.7-1C37.5,60,37.6,59.8,37.6,59.7z M36.9,64.2h-0.5c0.2-0.6,0.3-0.9,0.4-0.8
		c-0.3,0.1-0.5,0.5-0.9,1.2c0.5-0.1,0.8-0.2,0.8-0.2S36.7,64.3,36.9,64.2z M36,29.5c-0.1-0.2,0.1-0.8,0.5-1.9c0,0.1-0.1,0.4-0.2,0.8
		C36.1,28.9,36,29.3,36,29.5z M36.5,28.9c-0.1-0.2,0.1-0.8,0.4-1.6c0,0.1-0.1,0.4-0.2,0.7C36.5,28.5,36.5,28.8,36.5,28.9z M36.6,58
		c1-0.2,1.6-0.5,1.8-0.9c-1,0.5-1.5,0.7-1.5,0.7c0-0.1,0.1-0.2,0.2-0.3c0.1-0.1,0.1-0.2,0.1-0.3c-0.1,0.1-0.2,0.2-0.3,0.4
		C36.8,57.8,36.7,57.9,36.6,58z M36.7,59.6c0.9-0.1,1.8-0.6,2.6-1.4c-0.1,0.1-0.5,0.3-1.1,0.6c-0.4,0.3-0.8,0.4-1.2,0.5
		c0.4-0.6,0.7-1,0.8-1.2c0.5-0.5,0.8-0.8,0.9-0.8C37.8,58.1,37.1,58.8,36.7,59.6z M36.8,35.3c-0.3-0.2,0.6,0.5,2.5,2
		C39.1,37.2,38.2,36.5,36.8,35.3z M36.9,55.4c0.3-0.2,0.4-0.5,0.4-1c0-0.4-0.1-0.8-0.3-1.1v0.5c-0.1,0-0.2,0-0.3-0.1
		c0,0.2,0,0.5,0,0.8C36.9,55,36.9,55.3,36.9,55.4z M38.7,51.3c-0.1-0.1-0.3-0.3-0.5-0.5c-0.3-0.3-0.4-0.4-0.5-0.6
		c-0.4-0.5-0.6-1-0.5-1.7c0-0.1,0.1-0.1,0.2,0c0.1,0.1,0.2,0.1,0.2,0L37.3,48c-0.1-0.2-0.2-0.2-0.4-0.2c-0.2,0.9-0.1,1.6,0.3,2.3
		c0.4,0.6,0.6,0.9,0.6,0.9S38.1,51.1,38.7,51.3z M38.4,62.2c-0.3,0.3-0.6,0.5-1.1,0.7c0-0.2,0.1-0.5,0.3-0.9
		c0.2-0.4,0.3-0.6,0.3-0.7c-0.6,0.6-0.9,1.3-1,2C37.8,62.9,38.3,62.6,38.4,62.2z M36.9,36.1c0.2,0.3,0.5,0.6,1,0.9
		c0.5,0.4,0.9,0.6,1,0.7C37.8,37.3,37.2,36.8,36.9,36.1z M37.1,27.9c0-0.5,0.5-1.1,1.4-1.9c0,0-0.2,0.3-0.7,0.8
		C37.4,27.3,37.2,27.7,37.1,27.9z M37.2,51.4c0.1,0.5,0.3,0.9,0.7,1.2c0.4,0.3,0.9,0.4,1.3,0.3c-0.4-0.1-0.8-0.2-1.1-0.5
		c-0.4-0.3-0.4-0.6-0.1-1.1C37.8,51.2,37.5,51.2,37.2,51.4z M37.6,44.7c-0.4,0.8-0.4,1.8,0,2.8c0.3,1,0.8,1.7,1.5,2.2
		c0-0.1-0.3-0.7-0.9-2c-0.4-0.8-0.5-1.6-0.3-2.3c0.2,0.1,0.5,0.4,1,0.8c0.4,0.4,0.8,0.7,1.1,0.8C38.6,45.6,37.9,44.8,37.6,44.7z
		 M38.8,42.5c0-0.4-0.3-1-0.9-1.9c-0.3,0.5-0.5,1.1-0.5,1.7c-0.1,1.3,0.1,1.9,0.5,2c-0.2-0.3-0.2-0.8-0.2-1.5c0-0.7,0.1-1.2,0.3-1.4
		c0.1,0.1,0.2,0.3,0.4,0.6C38.6,42.2,38.7,42.4,38.8,42.5z M38,54.7c0,0.1-0.1-0.2-0.1-0.8c0-0.6,0-0.8,0-0.8
		C37.5,53.8,37.5,54.4,38,54.7z M38,68.1C37.9,68.1,37.9,68.1,38,68.1C37.9,68.1,37.9,68.1,38,68.1z M39.8,58.4c0-0.1,0-0.1-0.1-0.1
		c-0.8,0.8-1.3,1.7-1.6,2.5c0.8-0.1,1.4-0.3,2-0.8c0.5-0.4,0.7-0.7,0.5-0.9c-0.7,0.8-1.3,1.2-2,1.2C38.8,59.6,39.2,59,39.8,58.4z
		 M39.2,62.1c-0.4,0.5-0.7,1.1-1,1.8c0.7-0.1,1.2-0.5,1.5-1.2c-0.4,0.5-0.7,0.8-1.1,0.9c0-0.2,0.1-0.5,0.3-0.8
		C39.1,62.4,39.2,62.2,39.2,62.1z M39.2,57c0-0.2,0.2-0.5,0.4-1c0.2-0.4,0.3-0.7,0.2-0.9c-0.1,0.1-0.2,0.3-0.4,0.6
		c-0.2,0.2-0.3,0.4-0.4,0.5c-0.1-0.1-0.3-0.8-0.5-2C38.2,55.3,38.4,56.2,39.2,57z M38.5,78.2c2.6-0.2,4.3,0,5.2,0.4
		C42.7,78.3,40.9,78.2,38.5,78.2z M38.5,26.8c0.1-0.1,0.7-0.8,1.8-2c0.8-0.9,1.2-1.8,1.1-2.7c-0.1-0.7-0.6-1.6-1.7-2.5
		c1,0.3,1.6,1.1,1.9,2.3c0.3,1.3,0,2.3-0.7,3.2c-0.2,0.3-0.6,0.5-1.2,0.9C39.1,26.2,38.7,26.5,38.5,26.8z M39.7,72.4
		c-0.1,0.1-0.3,0-0.5,0c-0.3-0.1-0.5-0.1-0.7-0.1c0.1-0.1,0.3-0.1,0.6,0C39.4,72.3,39.6,72.4,39.7,72.4z M38.6,40.6
		c0-0.3,0.1-0.7,0.3-1.2c0.2-0.4,0.2-0.8,0.2-1.1C38.8,39.5,38.6,40.3,38.6,40.6z M39.7,46c-0.7-1.7-0.8-3.1-0.2-4.3
		c0.4,0.2,1.1,1,2.1,2.4v-0.8c-1.2-1.4-1.9-2.1-2.3-2.2c-0.4,0.7-0.5,1.6-0.5,2.6C38.9,44.8,39.2,45.5,39.7,46z M51.4,61.2
		c0.3,0.4,0.8,0.8,1.6,1.1c0.9,0.4,1.4,0.7,1.6,1c0.6,0.6,1.1,1.5,1.4,2.5c0,0.1,0,0.2,0,0.2c-0.1,0.1-0.1,0.1-0.1,0.1
		c1,0,1.7-0.4,2.1-1.2c0.4-0.7,0.6-1.5,0.5-2.5c-0.1-1-0.4-1.9-1-2.6c-0.5-0.8-1.2-1.2-2-1.3c0.3,0,0.6,0,0.9,0.2
		c0.3,0.2,0.6,0.2,0.8,0.1c0-0.1,0-0.3-0.1-0.5c-0.1-0.2-0.1-0.4,0-0.6c0.7,0.7,0.8,1.3,0.4,1.8c-0.2,0,0,0.1,0.5,0.3
		c0.2-0.7-0.2-1.6-1-2.8l0.2-1.6c-0.2-1.8-0.8-3.1-1.6-3.9c-0.3-0.3-0.8-0.5-1.6-0.6c-0.7-0.1-1.2-0.4-1.5-0.7
		c-0.3-0.4-0.5-1-0.5-1.6c0-0.7,0.1-1.3,0.4-1.7c-0.2,0.5-0.2,0.9,0,1.1c0.4-1,0.7-1.6,1-1.7c-0.6,1.1-0.9,1.9-0.8,2.4
		c0.2-0.9,0.4-1.3,0.5-1.3c-0.2,0.3-0.3,0.6-0.3,1c0,0.5,0,0.8,0.2,1.1c0.1-1.5,0.6-2.6,1.5-3.3c-0.8,1.1-1.2,2-1.1,2.6
		c0.1-0.7,0.3-1.1,0.7-1.2c-0.4,0.6-0.6,1.2-0.6,2c0.1-0.1,0.2-0.2,0.3-0.5c0.1-0.3,0.2-0.4,0.3-0.5c-0.1,1.1-0.2,1.6-0.2,1.5
		c0.1-1,0.5-1.7,1.2-2.1c-0.6,0.7-0.8,1.2-0.7,1.6c0.1-0.2,0.5-0.5,1.1-1c0,0.1-0.2,0.2-0.4,0.4c-0.2,0.2-0.3,0.3-0.3,0.4
		c1.2-0.4,1.8-0.9,1.9-1.5c-0.4,0-0.7,0.1-1.2,0.4C55,48.8,54.7,49,54.6,49c0.2-0.2,0.6-0.5,1.2-1c0.5-0.4,0.8-0.7,0.9-0.9
		c-0.4,0.1-0.8,0.3-1.3,0.5c-0.6,0.3-1,0.5-1.3,0.6c0.2-0.2,0.5-0.6,1.1-1.1c0.5-0.4,0.8-0.8,1-1.1c-0.2,0-0.4,0.2-0.8,0.4
		c-0.3,0.2-0.6,0.3-0.7,0.3c0.1-0.1,0.3-0.4,0.7-0.9c0.3-0.4,0.5-0.7,0.6-1c-0.3,0.2-0.6,0.4-1.1,0.8c-0.5,0.4-0.9,0.7-1.1,0.8
		c0.1-0.3,0.4-0.7,0.9-1.4c0.4-0.5,0.7-1,0.7-1.3c-0.3,0.2-0.7,0.6-1.2,1.1c-0.5,0.5-0.9,0.9-1.2,1.1c0-0.2,0.3-0.6,0.7-1.2
		c0.3-0.4,0.4-0.8,0.4-1.2c-0.4,0.4-0.8,0.9-1.2,1.6c-0.5,1-0.9,1.6-1.1,1.8c1.2-3.1,1.8-4.7,1.8-4.8c-1.4,1.8-2.3,3.5-2.6,4.9
		c0.1-0.6,0.3-1.3,0.6-2.3c0.3-0.9,0.5-1.7,0.6-2.3c-0.3,0.2-0.6,0.6-1,1.2c-0.4,0.6-0.7,1-0.8,1.2c0.6-2,0.9-3.2,0.9-3.5
		c-0.7,0.9-1.2,1.8-1.7,2.9c0.3-1.9,0.4-3.2,0.3-4c-0.3,0.4-0.6,0.9-0.9,1.6c-0.4,1.1-0.7,1.7-0.8,1.8c0.1-1.5,0.1-2.4,0.1-2.6
		c-0.3,0.5-0.8,1.8-1.3,3.9c0.1-1.2-0.1-2.6-0.4-4.3c-1.2,1.5-1.5,3.4-0.9,5.8c-0.2-0.4-0.3-1.2-0.4-2.4c-0.1-1.1-0.2-1.9-0.4-2.3
		c-0.1,0.3-0.2,1.4-0.4,3.5c0-0.6-0.2-1.2-0.5-1.9c-0.4-0.9-0.7-1.5-0.7-1.7c-0.1,0.3,0,1.8,0.1,4.5c-0.1-0.7-0.6-1.8-1.5-3.3
		c-0.1,0.9,0.1,2.2,0.5,3.8c-0.1-0.1-0.2-0.4-0.4-0.9c-0.1-0.4-0.3-0.6-0.5-0.7c0,0.1,0.3,1.2,1.1,3.2c-0.8-1.1-1.2-1.7-1.2-1.8
		c-0.1,0-0.5-0.5-1.4-1.3c0.4,2.3,1.6,4.4,3.5,6.1c-1-0.7-1.6-1.2-1.8-1.5c-0.1-0.1-0.4-0.5-0.8-1.2c-0.4-0.5-0.7-0.9-1-1
		c0.4,1,1.2,2.5,2.6,4.4c-1.1-1.2-2.3-2.4-3.5-3.4c0.4,1.2,1.3,2.7,2.9,4.6c-0.4-0.4-0.9-0.8-1.5-1.3c-0.8-0.6-1.3-1-1.6-1.3
		c0.1,0.4,0.4,1,0.8,1.6c0.4,0.6,0.6,1.2,0.7,1.5c-0.1-0.4-0.3-0.6-0.5-0.7c0.3,1,0.5,1.7,0.8,2.2c0-0.1,0-0.2-0.1-0.3
		c-0.1-0.1-0.1-0.2,0-0.2c0.4,1,0.9,1.6,1.7,1.8c-0.8-0.6-1.3-1.4-1.5-2.3c0.6,1.3,1.6,2.4,2.8,3.1c-1.5-1.8-2.2-2.6-2.1-2.5
		l1.6,1.4c-1-1.3-1.6-2.1-1.7-2.4c0.9,1.3,1.6,2.1,2.2,2.5c-0.7-0.7-1.1-1.2-1.2-1.7c0.1,0.2,0.4,0.5,0.9,1.2
		c0.4,0.5,0.7,0.9,0.9,1.2c0.8,0.8,1.6,1.3,2.5,1.5c-1.5-0.6-2.7-1.8-3.7-3.6c1,1.5,2.2,2.6,3.5,3.2c-2-1.7-3.1-3-3.5-3.9
		c1,1.6,2.2,2.7,3.5,3.5c-1.9-1.7-3-3.2-3.5-4.4c0.9,1.7,2,2.9,3.4,3.6c-1.7-1.7-2.7-3.1-3-4.2c0.6,1.4,1.6,2.7,2.9,3.8
		c-1.5-2-2.2-3.1-2.3-3.4c0.2,0.4,0.6,1.1,1.2,2c-1-2.4-1.5-3.5-1.5-3.3c0.9,2.3,2,3.8,3.1,4.4c-0.1,0-0.2,0-0.3-0.1
		c-0.1-0.1-0.2-0.1-0.3-0.1c0.3,0.7,1.1,1.4,2.4,2.1c-0.4-0.1-0.8-0.2-0.9-0.3c0.1,0.3,0.3,0.4,0.7,0.6s0.7,0.1,0.9-0.2L48.1,57
		c1.2,0.9,2.1,1.3,2.4,1.3c0,0.1,0,0.1-0.1,0.1s-0.1,0.1-0.1,0.1c0.3,0.3,0.7,0.4,1.3,0.3c0.6-0.1,0.8-0.3,0.8-0.7
		c-0.3,0.3-0.7,0.4-1.3,0.3c0.9-0.1,1.2-0.3,1.1-0.7c0.2-0.2,0.1-0.3-0.1-0.2c0,0.1-0.1,0.2-0.2,0.2c0-0.1,0-0.1,0-0.1
		c0.1,0,0.1-0.1,0.1-0.1c-1.1,0.4-1.5,0.6-1.3,0.6c-0.6,0-1-0.2-1.2-0.7c-0.3-0.5-0.3-1,0-1.6c0-0.2-0.1-0.4-0.3-0.8
		c-0.1-0.3-0.2-0.5-0.2-0.7c0.1,0,0.2,0.1,0.2,0.2c0.1,0.2,0.1,0.3,0.1,0.3c0-0.2-0.1-0.5-0.4-0.9c0.1,0,0.2,0.1,0.3,0.3
		c0.2,0.2,0.3,0.3,0.3,0.3c0-0.1-0.1-0.3-0.2-0.5C49.1,54,49,53.9,49,53.8c0.3,0.4,0.6,0.8,0.9,1.1c0-0.2-0.1-0.5-0.3-0.7
		c-0.2-0.3-0.3-0.5-0.3-0.5c0.2,0.2,0.5,0.6,1.1,1.3c0-0.1-0.3-0.6-0.7-1.4c-0.1,0,0.3,0.4,1,1.4c-0.1-0.9-0.6-1.6-1.3-2.1
		c0.7,0.1,1.5,1,2.3,2.7c0.8,1.6,1.7,2.2,2.8,1.9c0.8-0.2,0.9-1,0.4-2.4c0.1,0.1,0.2,0.3,0.3,0.6c0.1,0.4,0.2,0.6,0.2,0.7
		c0.1-0.4,0.1-0.6,0.1-0.5c0.1,0.5,0,0.9-0.2,1.2c0.4-0.1,0.6-0.4,0.6-1c0-0.2,0-0.4-0.1-0.7c-0.1-0.3-0.1-0.4-0.1-0.5
		c0.6,0.6,0.8,0.9,0.7,0.9c-0.2,0.4-0.2,0.7,0,0.7c0.1-0.1,0.1-0.3,0.1-0.6c0-0.3,0-0.5,0.1-0.6c0.1,0.2,0.1,0.5,0,0.8
		c-0.1,0.4-0.1,0.6,0,0.7c0.1,0,0.2-0.2,0.2-0.5c0-0.3,0-0.5,0.1-0.6c0,0.4,0,0.6,0,0.5c0-0.1,0-0.4,0-0.7c0-0.3,0-0.5,0-0.6
		c0.3,1.2,0.2,1.9-0.1,2.3c-0.5-0.1-1,0.1-1.5,0.4c-0.5,0.4-0.9,0.5-1.3,0.5c-1.2,1.1-2.2,1.6-2.9,1.4c-0.1,0-0.3-0.2-0.6-0.4
		c-0.3-0.2-0.4-0.3-0.6-0.3c-0.1,0-0.6,0-1.3,0c-0.7,0-1.3,0.2-1.8,0.6c-0.5,0.4-0.8,0.9-0.7,1.5c0.1,0.3,0.3,0.5,0.7,0.7
		c0.8,0.4,1.1,0.5,0.9,0.4c0.1,0.1,0.9,1.1,2.5,3l0-0.3c0.1,0.3,0.2,0.7,0.2,1.2c0.1,0.5,0.1,0.9,0.2,1.2c0.3,0.1,0.5,0.1,0.9,0
		c0.2-0.3,0.3-1.2,0.3-2.6c0.1-1,0-1.5-0.1-1.6c-0.3,2.5-0.4,3.8-0.4,3.7c0.2-1.5,0.2-2.6,0-3.1c-0.2,0.5-0.2,0.8-0.1,0.7
		c0,0.1,0,0.2-0.2,0.3c-0.4-2-1.2-3-2.6-3.3c-0.2,0.4-0.2,0.5-0.2,0.5c1.6,1.1,2.5,2.1,2.6,3c0.2,1.5,0.3,2.3,0.3,2.3
		c-0.2-0.2-0.3-0.8-0.4-1.7c-0.2-1.2-0.7-2.2-1.6-2.9c-0.2-0.1-0.4-0.3-0.9-0.4c-0.4-0.1-0.7-0.3-0.8-0.5c-0.4-0.5-0.4-1,0.2-1.4
		c0.6-0.4,1.2-0.5,1.9-0.4c0.6,0.1,1.1,0.3,1.4,0.7c0.1,0.1,0.3,0.3,0.4,0.5c0.2,0.3,0.3,0.5,0.3,0.5S51.3,61.1,51.4,61.2z
		 M41.6,39.2c0-0.7-0.5-1.3-1.6-2c-0.9,1.9-0.9,3.2,0,3.7c-0.2-0.4-0.3-1-0.3-1.6c0-0.7,0.1-1.2,0.4-1.5
		C40.9,38.4,41.4,38.9,41.6,39.2z M39.4,61.7c1.2-0.4,1.9-1,2.1-1.6c-0.3,0.3-0.8,0.7-1.6,1.2c0-0.2,0-0.4,0.2-0.7
		c0.1-0.3,0.2-0.5,0.1-0.5C40.1,60.3,39.8,60.8,39.4,61.7z M41.1,58.7c-0.8-1.3-1.1-2.2-0.9-2.8c0-0.1-0.1-0.1-0.1-0.1
		c-0.3,1.2,0.1,2.3,1.2,3.5c0.2-1.2,0.3-1.9,0.3-2C41.2,58.2,41.1,58.7,41.1,58.7z M40,67.6c1-0.2,1.8-0.6,2.5-1.2
		C42.3,66.4,41.5,66.8,40,67.6z M41.1,61.4c-0.2,0.2-0.3,0.5-0.5,0.9c0.9-0.2,1.3-0.5,1.2-1c-0.3,0.3-0.5,0.5-0.9,0.6
		c0-0.1,0-0.2,0.1-0.3C41.1,61.5,41.1,61.4,41.1,61.4z M42.4,38.5c-0.4,0.5-0.7,1.1-0.8,1.9c-0.2,0.9-0.1,1.6,0.2,2.2
		c0.1-0.2,0.2-0.7,0.1-1.6c0-0.8,0.2-1.2,0.5-1.3c0.3,0,0.7,0.3,1.2,0.9c-0.1-0.1,0.3,0.5,1.1,2c0.3-0.8,0.1-1.6-0.6-2.3
		c-0.1-0.2-0.4-0.4-0.9-0.9C42.8,39,42.6,38.7,42.4,38.5z M41.7,69c0.4-0.2,0.9-0.4,1.5-0.7C42.9,68.6,42.4,68.9,41.7,69z M42,57.5
		c-0.2,1.4,0.5,2.4,2.3,3C42.9,59.2,42.1,58.2,42,57.5z M42.6,80.4c0-0.1,0.1-0.1,0.2-0.2c0.1-0.1,0.2-0.2,0.2-0.3
		c-0.6,0.1-0.9,0.2-0.9,0.1c0.1,0,0.1,0.1,0.2,0.2C42.5,80.3,42.5,80.4,42.6,80.4z M42.6,70.6c-0.3,0-0.3,0-0.1-0.1
		c0.1,0,0.3-0.1,0.6-0.2c0.4-0.1,0.6-0.2,0.9-0.4C43.8,70.2,43.4,70.5,42.6,70.6z M43.3,68.7c0.1,0.1,0,0.3-0.4,0.4
		c-0.4,0.2-0.5,0.2-0.5,0.1c0.1,0,0.2-0.1,0.4-0.2C43,68.8,43.2,68.7,43.3,68.7z M43.6,69.6c-0.2,0.2-0.5,0.4-1.1,0.4
		C42.8,69.9,43.1,69.7,43.6,69.6z M44,70.1c-0.1,0.3-0.5,0.5-1.4,0.7c0.1-0.1,0.4-0.2,0.7-0.3C43.6,70.3,43.8,70.2,44,70.1z M43,71
		c0.2-0.2,0.4-0.3,0.8-0.3c0,0,0,0.1-0.1,0.1c-0.1,0,0,0,0.1,0c0,0.1-0.1,0.2-0.2,0.2c-0.2,0.1-0.3,0.1-0.3,0.1
		C43.3,71,43.2,70.9,43,71z M43.5,38.1c0,0.6,0,1,0.2,1.1c0-1.2,0.5-2.4,1.4-3.6c0.5,0.5,0.8,1.2,1,2.1c0.5-0.8,0.2-1.9-0.9-3.2
		C44.1,35.6,43.6,36.8,43.5,38.1z M45.9,31.8c-1.5,1.3-2.2,2.7-2.1,4c0.9-1.9,1.6-3,2-3.2c0.2,0.6,0.4,1,0.4,1.1
		c0-0.1,0.1-0.2,0.2-0.4c0.1-0.2,0.1-0.3,0.1-0.4C46,32.1,45.8,31.8,45.9,31.8z M44.6,49.6c-0.4-0.1-0.6-0.6-0.6-1.6
		C44.3,49,44.5,49.5,44.6,49.6z M44.4,50l0.5,1c-0.5-0.5-0.8-1-0.9-1.6c0-0.1,0-0.1,0-0.1S44.2,49.5,44.4,50z M45.3,52.4
		c-0.6-0.2-1-0.8-1.2-1.8C44.4,51.2,44.8,51.8,45.3,52.4z M45.3,70.2c0,0.5-0.3,1-0.8,1.5c0.1,0,0.2,0,0.3,0c0.1,0,0.2,0,0.3,0
		c0.9-3.2,1.4-5.9,1.6-8c-0.8,2.6-1.1,3.7-1.1,3.6c0-0.4,0.2-1,0.4-2c0.2-0.9,0.3-1.5,0.3-1.9c0.1-0.2-0.3,1-1.2,3.7
		c0.2-1.3,0.5-2.5,0.9-3.7c-0.3,0.2-0.6,0.6-0.7,1.3c-0.2,0.9-0.3,1.4-0.4,1.6c0-0.4,0-0.8,0.2-1.4c0.2-0.6,0.2-1,0.2-1.2
		c0.1-0.1-0.1,0.5-0.4,1.7c-0.5,1.7-0.7,2.7-0.7,2.9c0,0.2,0.2,0.4,0.6,0.8C45.2,69.5,45.3,69.9,45.3,70.2z M44.6,63
		c-0.2,0.4-0.3,0.8-0.3,1.2c0.1-0.1,0.2-0.3,0.3-0.6S44.7,63.1,44.6,63z M45.8,53.7c-0.9-0.4-1.4-1-1.4-1.9
		C44.5,52.2,45,52.9,45.8,53.7z M44.6,58.7c0.1,0.2,0,0.5,0,1.2c-0.1,0.6,0,0.9,0.1,1.1c0.1-0.3,0.1-1.1,0.1-2.2H44.6z M45.1,53.9
		c0.1,0.2,0.4,0.4,0.8,0.7c0.4,0.3,0.7,0.6,0.9,0.8c-0.9-0.3-1.5-0.8-1.9-1.7C44.8,53.6,44.9,53.7,45.1,53.9z M46,49.7
		c-0.3-0.1-0.7-1-1.1-2.5l0.4,1.2C45.6,49,45.8,49.5,46,49.7z M49,39.3c-0.5-1.2-0.9-1.9-1.3-2.2c-0.4-0.3-0.9-0.1-1.4,0.6
		c-0.4,0.5-0.7,1.1-0.9,1.7c-0.1,0.2-0.1,0.5-0.1,0.9c0,0.4-0.1,0.7-0.1,0.9c0.1,0,0.2,0.1,0.2,0.3c0.1,0.2,0.1,0.4,0.1,0.4
		c0.4-2.7,1-4,2-3.9c0.5,0.1,0.9,0.5,1.1,1.4c0.1,0.2,0.1,0.6,0.2,1.2c0.1,0.5,0.1,0.9,0.2,1.1C49.4,41.1,49.4,40.2,49,39.3z
		 M45.6,81.5c0.1-0.1,0.2-0.2,0.5-0.3c0.2-0.1,0.4-0.3,0.4-0.4c-0.5-0.2-1-0.3-1.5-0.3C45.2,80.8,45.4,81.2,45.6,81.5z M46.1,51.2
		c-0.3-0.1-0.6-0.6-0.9-1.5C45.6,50.3,45.9,50.8,46.1,51.2z M47.1,65.1c-0.6,3.5-1.1,5.8-1.4,6.7c0.3,0,0.7,0,1.2,0s0.8,0,1.1,0
		c0-0.3,0.2-1.5,0.6-3.6c0.3-1.4,0.3-2.6,0.2-3.5c0-0.1-0.2,1-0.6,3.2c0-0.5,0-1.2,0.1-2c0.1-0.8,0.2-1.4,0.1-1.8
		c-0.1,0.4-0.2,1-0.3,2.1c-0.1,0.9-0.3,1.6-0.5,2c0.3-1.3,0.4-2.7,0.5-4.3c-0.2,0.4-0.3,1-0.4,1.8c-0.2,1-0.3,1.6-0.3,1.8
		c0.1-1.8,0.3-2.9,0.4-3.5c0.1-0.2-0.2,0.9-0.8,3.3c0-0.3,0-0.7,0-1.2C47.1,65.8,47.1,65.4,47.1,65.1z M47.3,51.4
		c-0.4-0.5-0.9-1.5-1.4-2.9C46.4,49.4,46.9,50.4,47.3,51.4z M48.6,34.8c0.7-0.5,0.6-1.7-0.4-3.4c-1,1.4-1.4,2-1.3,1.7
		c-0.6,1-0.7,1.7-0.5,2.2c0.4-1.5,0.9-2.5,1.6-3C48.4,33,48.5,33.8,48.6,34.8z M47.7,61.7c-0.5,0-0.8-0.2-1.1-0.7
		c-0.3-0.5-0.2-1,0.3-1.2c-0.4,0.3-0.4,0.6-0.2,1.1C46.9,61.3,47.2,61.6,47.7,61.7z M48.9,30.7c-1.3,0.3-2.1,0.7-2.4,1.3
		C47.5,31.4,48.3,30.9,48.9,30.7z M47.4,50.6c-0.3-0.2-0.5-0.6-0.6-1.1C47.2,50.1,47.4,50.4,47.4,50.6z M47.9,50
		c-0.4-0.4-0.6-1-0.7-2c0-0.1,0-0.3,0-0.5c0-0.2,0-0.1,0,0.2C47.6,49,47.8,49.7,47.9,50C48,50,48,50,47.9,50
		C47.9,50,47.9,50,47.9,50z M47.7,55c0.1,0,0.1,0.1,0.2,0.2c0.1,0.1,0.1,0.2,0.2,0.2c-0.1,0.1-0.2,0.1-0.3,0S47.7,55.1,47.7,55z
		 M48.4,56.4c-0.2-0.1-0.5-0.4-0.7-0.9C47.9,55.6,48.1,55.9,48.4,56.4z M48.8,50.7c-0.6-0.4-1-1.4-1.1-2.9
		C48.1,49.3,48.4,50.2,48.8,50.7z M47.8,56.2c0.1,0,0.2,0.1,0.4,0.3c0.2,0.2,0.4,0.4,0.5,0.4C48.4,57.1,48.1,56.9,47.8,56.2z
		 M47.8,72.9c3.7,0.5,6.6,0.5,8.6-0.1C54.5,73.6,51.6,73.6,47.8,72.9z M48.1,46.6c0,0,0,0.4,0.1,1c0.1,0.6,0.3,1.3,0.7,2.1
		c-0.2-0.2-0.4-0.6-0.7-1.2C48,47.7,47.9,47.1,48.1,46.6z M49.3,83.3c0.6-0.4,1-1.1,1.3-2.1c-0.7-0.3-1.5-0.3-2.5-0.1
		C48.2,82,48.6,82.7,49.3,83.3z M51,37c0.2-0.5,0.2-1.1-0.1-1.7c-0.2-0.6-0.5-1.1-1-1.4h-0.1c-0.1,0.2-0.3,0.4-0.6,0.8
		c-0.3,0.4-0.5,0.7-0.6,0.8c-0.5,0.7-0.6,1.3-0.3,1.9c0.4-1.2,1-2.1,1.7-2.7C50,34.7,50.3,35.5,51,37z M50.9,72.1c0,0.1,0-1.5,0-4.9
		c-0.1,0.1-0.2,0.4-0.1,0.9c0,0.4-0.1,0.7-0.2,0.8c-0.2-1.2-0.2-1.8,0-1.7c0,1.2-0.1,2-0.3,2.3c0.2-1.1,0.2-1.9,0-2.3
		c-0.1,0.7-0.2,1.4-0.4,2.1c0-1.6,0-2.4,0-2.4c-0.1,0.5-0.2,1.4-0.4,2.6c0-0.4,0.1-1.1,0.2-2c0.1-0.8,0.2-1.5,0.2-2
		c-0.2,0.3-0.3,0.8-0.4,1.4c-0.1,0.8-0.2,1.3-0.2,1.5c0-0.6,0.1-1.5,0.2-2.8c-0.2,0.4-0.4,1.4-0.6,2.9c-0.2,1.6-0.4,2.7-0.4,3.3
		c0.3,0,0.7,0,1.2,0C50.2,72.1,50.6,72.1,50.9,72.1z M49.3,49.7c-0.2-0.2-0.4-0.7-0.4-1.4C49,48.5,49.2,49,49.3,49.7z M52.3,31.1
		c-0.5-0.3-1.2-0.3-2,0c-0.7,0.3-1.1,0.7-1.2,1.2C50.4,31.3,51.4,30.9,52.3,31.1z M50.2,49.9c-0.5-0.3-0.8-1.2-0.9-2.7
		C50,49.1,50.2,50,50.2,49.9z M56.4,79.3c-4,0.4-6.3,0.5-7,0.4c0.9,0,2.1,0,3.6-0.1C54.6,79.4,55.8,79.3,56.4,79.3z M51.5,57.2
		c-0.4,0.3-0.8,0.3-1.2,0c-0.4-0.3-0.5-0.6-0.1-1c0,0.3,0,0.4,0.2,0.3h0.2c0.2-0.2,0.1-0.3,0-0.5c-0.3-0.3-0.4-0.4-0.4-0.5
		c-0.4,0.2-0.7,0.5-0.7,0.8c0,0.4,0.1,0.7,0.3,1c0.3,0.3,0.6,0.5,0.9,0.5C51,57.9,51.3,57.7,51.5,57.2z M51.7,37.7
		c0.6,0.5,0.9,1.5,0.8,2.8l0,1.3c0.4-0.4,0.5-1.3,0.4-2.8c-0.1-0.5-0.2-1-0.3-1.5c-0.2-0.6-0.5-0.9-0.7-0.7c-1.4,0.8-2.1,2-2.1,3.6
		c0.1-0.2,0.4-0.6,0.9-1.4c0.4-0.6,0.5-0.9,0.5-0.9S51.3,37.9,51.7,37.7z M50.1,61.7c0.1,0,0.1,0,0.2-0.1s0.2-0.1,0.2,0
		c-0.1,0.1-0.2,0.2-0.2,0.3c-0.1,0.2,0,0.3,0.1,0.3c0-0.1,0.1-0.3,0.4-0.6c-0.4-0.2-0.5-0.2-0.4-0.2C50.3,61.3,50.2,61.5,50.1,61.7z
		 M50.7,50c-0.2-0.1-0.3-0.3-0.4-0.8C50.5,49.3,50.6,49.6,50.7,50z M50.7,63.1c0.1-0.2,0.2-0.3,0.2-0.2l-0.1,0.7
		c0,0.1,0.1-0.1,0.3-0.5c-0.1-0.1-0.1-0.3-0.1-0.6c0-0.4,0-0.6,0-0.8c-0.1,0-0.2,0.1-0.3,0.3c-0.1,0.2-0.1,0.3,0,0.4
		c0.1-0.3,0.2-0.4,0.3-0.3c-0.3,0.3-0.3,0.4-0.1,0.6c0-0.1,0-0.1,0.1-0.2c0.1-0.1,0.1-0.1,0.1,0C50.5,62.7,50.5,62.9,50.7,63.1z
		 M53,31.5c0,0-0.3,0.2-0.9,0.5c-0.4,0.3-0.7,0.5-1,0.7c-0.7,0.6-0.8,1.2-0.4,1.8c0.5-1.3,1.2-2,2-2.2c0.6,0.7,0.7,1.7,0.3,3
		C53.8,35,53.8,33.7,53,31.5z M51,50.8c0.1-0.1,0.2,0,0.5,0.2c0.3,0.2,0.4,0.4,0.5,0.6c-0.1,0-0.3-0.1-0.5-0.3
		C51.3,51,51.1,50.8,51,50.8z M52.1,65.7c-0.1,0.3-0.2,0.8-0.2,1.4c0,0.7,0,1.2-0.1,1.5c0-0.9-0.1-1.6-0.2-2.1
		c-0.4,0.9-0.5,2.9-0.3,5.8c1.2,0.1,2.1,0.1,2.8,0.1c-0.4-4.7-0.6-7.1-0.6-7.2c0,0.3-0.1,1.3-0.1,3.2c-0.1-0.3-0.1-0.8-0.2-1.6
		c0-0.7-0.1-1.3-0.2-1.6c0,0.2,0,0.7,0,1.6c0,0.7,0,1.3,0,1.6c0-0.4,0-0.9-0.1-1.5c-0.1-0.8-0.1-1.3-0.1-1.5
		c-0.2,0.3-0.3,0.8-0.2,1.6c0,0.9,0,1.5,0,1.8C52.3,68.5,52.2,67.5,52.1,65.7z M53.1,83.8c0.7-0.8,1.1-1.8,1.2-3.1
		c-1.2,0-2.2,0.1-2.8,0.3c0.1,0.4,0.4,0.8,0.8,1.4C52.7,83,53,83.5,53.1,83.8z M51.6,47.9c0.1,0.2,0.1,0.8,0.2,1.9
		C51.6,49.4,51.5,48.8,51.6,47.9z M51.9,50.9c0.5,0.2,0.8,0.7,0.8,1.5c-0.1-0.1-0.2-0.4-0.3-0.8C52.2,51.3,52.1,51,51.9,50.9z
		 M52,60.1c0.4,0.5,0.6,0.8,0.9,0.9c-0.2,0.1-0.4,0-0.6-0.1C52.1,60.7,52,60.4,52,60.1z M55.2,59.1c-0.1,0.1-0.3,0.3-0.6,0.6
		c-0.4,0.4-0.6,0.7-0.8,0.9c-0.7,0.6-1.2,0.5-1.7-0.5c0.4,0.7,1,0.8,1.6,0.2c0.2-0.1,0.4-0.4,0.8-0.8c0.3-0.3,0.6-0.5,0.7-0.6h0.7
		C56,59,56,59,55.8,59C55.4,59.1,55.2,59.1,55.2,59.1z M54.5,79.1c-0.2,0.1-0.9,0.1-2.1,0.1C53,79,53.8,79,54.5,79.1z M55,34.5
		c-1.2,0.6-2,1.5-2.4,2.6c1.2-1.1,1.8-1.7,2-1.8c0.1,0.3,0.2,1.2,0.1,2.9C55.1,37.5,55.2,36.3,55,34.5z M52.6,51.5
		c0.2,0.1,0.3,0.4,0.4,0.8c0.1,0.4,0.1,0.8,0,1.2C52.9,52.3,52.7,51.6,52.6,51.5z M53.5,59.9c-0.1,0.3-0.3,0.4-0.4,0.3
		c-0.1-0.1-0.2-0.2-0.2-0.4c-0.1-0.6,0.2-0.9,0.8-0.9c0,0.1-0.1,0.2-0.3,0.2C53.3,59.8,53.4,60,53.5,59.9z M54.5,43.8
		c0.6-0.5,1.1-1.3,1.3-2.4c0.3-1.2,0.2-2.2-0.2-3.1c-0.1,0.1-0.4,0.2-0.7,0.4c-0.4,0.2-0.6,0.3-0.8,0.4c-0.5,0.3-0.8,0.8-0.9,1.3
		c1.2-0.9,2-1.4,2.2-1.4c0.2,0.8,0.2,1.7-0.1,2.7c-0.1,0.3-0.2,0.7-0.4,1.2C54.6,43.2,54.5,43.6,54.5,43.8z M53.3,52.3
		c0.1,0.1,0.1,0.7,0.1,1.6C53.4,53.8,53.3,53.3,53.3,52.3z M53.5,54.6c-0.1-0.2-0.1-0.4,0-0.7c0.1-0.4,0.1-0.6,0-0.6
		C53.7,53.6,53.7,54.1,53.5,54.6z M53.8,54.3c0.1,0.1,0.1,0.3,0,0.7C53.8,55,53.8,54.8,53.8,54.3z M57.1,31.6
		c-0.5-0.3-1.1-0.3-1.9,0c-0.7,0.3-1.2,0.6-1.2,1.1c1.1-0.7,2-1,2.8-0.9c0,0.3-0.1,0.6-0.2,1c-0.1,0.4-0.2,0.6-0.2,0.8
		C56.8,33.2,57.1,32.6,57.1,31.6z M54,66.3c0.3,4,0.4,6,0.4,6.1c0.6-0.1,1.5-0.3,2.6-0.7c-0.2-0.5-0.3-1.2-0.5-2.1
		c-0.2-1-0.3-1.7-0.4-2.2c0,0.1,0,0.3,0,0.5c0.1,0.2,0.1,0.3,0,0.4c-0.3-1.2-0.4-1.9-0.5-1.9c0,0.2,0.1,0.7,0.2,1.4
		c0.1,0.6,0.1,1,0.1,1.3c-0.1-0.3-0.2-0.9-0.4-1.9c-0.1-0.8-0.3-1.3-0.5-1.7c0,0.4,0.1,1,0.2,1.9c0.2,0.9,0.2,1.6,0.2,2
		c-0.5-2.5-0.8-3.8-0.9-4c0,0.4,0.1,1,0.2,1.9c0.1,0.7,0.1,1.3,0,1.7c-0.1-0.7-0.3-1.7-0.6-3.2c0.2,1.5,0.3,2.6,0.2,3.2
		c-0.1-0.2-0.1-0.7-0.2-1.3C54.2,67,54.2,66.6,54,66.3z M54.6,52.7c0.5,0.1,0.7,0.6,0.6,1.3c-0.1-0.1-0.2-0.3-0.3-0.7
		C54.8,53.1,54.7,52.9,54.6,52.7z M55,59.5c0-0.2,0.2-0.3,0.6-0.3c0.4-0.1,0.7,0,0.9,0.1C55.5,59.3,55,59.4,55,59.5z M56.1,49.4
		C55.4,49.9,55,50,55.1,50c0.1,0,0.3-0.1,0.6-0.2C55.9,49.6,56.1,49.5,56.1,49.4z M58.5,40.8c-0.7-0.1-1.3,0.1-1.9,0.5
		c-0.6,0.4-0.9,0.8-0.9,1.4c0.6-0.7,1.3-1.2,2.2-1.3c0,1.1-0.3,2.1-1,3c-0.2,0.3-0.5,0.6-1,1.1c-0.4,0.4-0.8,0.8-0.9,1
		C57.3,45.2,58.5,43.4,58.5,40.8z M57.5,33.3c-1.3,0.4-2,1-2.3,1.9c1.1-1,2.2-1.5,3.3-1.4c-0.1,0.4-0.3,1-0.6,1.7
		c-0.4,0.7-0.6,1.2-0.6,1.4c0.7-0.4,1.3-1.6,1.8-3.6C58.6,33.2,58.1,33.2,57.5,33.3z M57.4,82.1c0.1-0.2,0.1-0.5,0.2-0.8
		c0.1-0.4,0.1-0.6,0.1-0.8c-0.6-0.3-1.4-0.2-2.4,0C55.5,80.8,56.2,81.3,57.4,82.1z M55.5,30.7c0.2,0.1,0.4,0.2,0.4,0.3
		C55.6,30.9,55.5,30.8,55.5,30.7z M58,39.7c0.3-0.4,0.4-0.8,0.6-1.4c0.1-0.7,0-1.2-0.2-1.6c-1.4,1.1-2.2,1.9-2.3,2.3
		c0.1-0.1,0.4-0.3,1-0.8c0.4-0.3,0.7-0.5,1.1-0.7c0.2,0.3,0.2,0.7,0.1,1.2C58,39.3,57.9,39.6,58,39.7z M56.4,66.8
		c0.1,0.4,0.3,1.2,0.5,2.4c0.2,1,0.4,1.7,0.6,2.3c0.1,0,0.6-0.2,1.6-0.6c-0.1-0.8-0.4-2-1-3.7c-0.2-0.6-0.4-0.9-0.5-1
		c0.3,0.7,0.4,1.2,0.4,1.6c-0.1-0.2-0.1-0.4-0.2-0.8c-0.1-0.4-0.2-0.6-0.3-0.8c0,0.1,0.1,0.4,0.2,1c0.2,0.5,0.2,0.8,0.2,1
		c-0.4-1.2-0.7-1.8-0.8-1.8c0,0.3,0.1,0.7,0.2,1.2c0.2,0.5,0.2,0.9,0.2,1.1c-0.1-0.4-0.3-0.9-0.6-1.7c-0.1-0.3-0.2-0.4-0.1-0.2
		c0,0.2,0.1,0.7,0.3,1.3c0.1,0.5,0.2,0.9,0.1,1.2C56.8,67.8,56.5,66.9,56.4,66.8z M56.5,64c0.1,0.1,0.1,0.3,0.2,0.5
		c0,0.3,0.1,0.5,0.1,0.6c0.1-0.2,0.1-0.5,0-0.9c-0.1-0.4-0.2-0.7-0.1-0.8c0.2,1.1,0.3,1.5,0.3,1.4c0.2,0,0.3-0.3,0.1-1
		c-0.1-0.3-0.1-0.5-0.1-0.5c0.2,0.5,0.3,0.9,0.3,1.2c0,0-0.1-0.5-0.2-1.5c0.1,0.2,0.2,0.3,0.2,0.5c0.1-0.1,0.1-0.3,0-0.5
		c-0.1-0.3-0.2-0.5-0.2-0.5c0.1,0.1,0.2,0.5,0.5,1.3c0.1-0.6-0.1-1.3-0.6-2.1c0.2,0,0.4,0.5,0.7,1.3c0.2-0.3,0.2-0.5,0-0.9l-0.4-0.8
		c0.3,0.4,0.4,0.7,0.5,0.8c0.1-0.1,0-0.3-0.1-0.6c-0.1-0.3-0.2-0.5-0.2-0.6c0.2,0.2,0.2,0.4,0.2,0.5c-0.1,0.1-0.2-0.3-0.3-1.2
		c0.6,0.7,0.9,1.7,0.8,3c-0.1,1.3-0.6,2.1-1.5,2.4c0.1-0.2,0.1-0.2,0.1-0.2S56.6,65,56.5,64z M57.4,72.5c-0.2,0.2-0.5,0.2-0.9,0.2
		C56.6,72.8,56.9,72.7,57.4,72.5z M57.1,49.4c0.3,0,1-0.2,2-0.5c0.1-0.2,0.3-0.5,0.7-0.8c0.4-0.4,0.6-0.7,0.8-0.9
		c-0.7-0.3-1.1-0.5-1.2-0.5c-0.5-0.2-0.8-0.1-1.1,0.2c0.2,0,0.2,0,0.2,0c0,0.1,0,0.1,0,0.1c0.2-0.1,0.6,0,1.4,0.3
		c-0.7,0.9-1.8,1.5-3.3,1.7l0.3,0C57.1,49.2,57.1,49.3,57.1,49.4z M57.1,46.8c1.5-0.2,2.7-1.1,3.4-2.7c-1.5-0.2-2.3,0-2.5,0.4
		c0.9-0.2,1.5-0.3,1.9-0.1C59.7,44.7,58.8,45.5,57.1,46.8z M57.1,53.4c0.3,0.5,0.8,0.8,1.7,0.9c0.3,0,0.7,0,1.2,0c0.6,0,1,0,1.2,0
		c-0.1-0.5-0.3-1.1-0.8-1.6c-0.4-0.5-0.9-0.8-1.4-0.9c0.6,0.3,1.2,1,1.7,1.9C59.2,53.9,58,53.8,57.1,53.4z M57.3,51.2
		c0.7,0.3,1.8,0.1,3.3-0.6c-0.9-0.9-1.6-1.3-2.1-1.1c0.1,0.1,0.4,0.3,0.7,0.4c0.4,0.2,0.7,0.3,0.8,0.4
		C59.7,50.8,58.8,51.1,57.3,51.2z M59.9,54.8c0.2,0.2,0.3,0.6,0.4,1.2c-0.2,0-0.4,0-0.8,0c-0.3,0-0.6,0-0.8,0
		c-0.6-0.1-0.9-0.2-0.9-0.2c0.2,0.4,0.6,0.6,1.2,0.7c0.6,0.1,1.2,0,1.7-0.1c0-0.1-0.1-0.4-0.3-1C60.3,55,60.2,54.8,59.9,54.8z
		 M59.9,41c0.5-0.4,0.7-1.2,0.7-2.5c-1.4,0.2-2.2,0.7-2.4,1.5c0.5-0.5,1.2-0.8,1.9-0.9c0.1,0.3,0.1,0.7-0.1,1.2
		C59.9,40.6,59.9,40.9,59.9,41z M58.3,66.3c0.9,3.2,1.3,4.7,1.2,4.5c0.1,0,0.1,0,0.2,0c0.1,0,0.2,0,0.3,0c0-0.4,0.1-0.7,0.4-1.1
		c0.4-0.4,0.6-0.6,0.7-0.8c-0.3-0.2-0.6-0.8-0.9-1.7c-0.1-0.1-0.4-0.2-0.7-0.5c-0.3-0.3-0.5-0.4-0.6-0.4c0.3,0.5,0.5,0.9,0.4,1.3
		c-0.4-1-0.8-1.6-1.1-1.9c0,0.3,0.2,0.7,0.4,1.2c0.2,0.5,0.3,0.8,0.3,1.1C59.1,67.8,58.8,67.3,58.3,66.3z M58.4,58.9
		c0.4,0.5,0.9,0.7,1.7,0.4c-1.1-1.7-1.5-2.5-1.2-2.4c0,0.2,0.2,0.5,0.4,1c0.2,0.5,0.4,0.9,0.4,1.2C59.2,59.1,58.8,59,58.4,58.9z
		 M59.7,43.6c1-0.6,1.4-1.5,1.3-2.6c0,0-0.4,0.1-1.4,0.5c-0.6,0.2-0.9,0.5-1,1c1-0.4,1.7-0.7,2-0.8C60.5,42.2,60.2,42.8,59.7,43.6z
		 M58.8,65.6v-0.3c0-0.1,0-0.2-0.1-0.1c0,0.3,0,0.4,0,0.4S58.7,65.6,58.8,65.6z M61.7,35.1c-1.8,0-2.8,0.3-3,0.8
		c0.8-0.3,1.6-0.5,2.5-0.4c0,0.4-0.1,0.6-0.1,0.6C61.4,36.1,61.6,35.8,61.7,35.1z M59.8,81.2c0.4-0.8,0.5-1.2,0.5-1.2
		c-0.1,0-0.4,0.1-0.8,0.1c-0.3,0-0.5,0.1-0.7,0.2c0.1,0.1,0.3,0.2,0.5,0.4C59.6,80.9,59.7,81.1,59.8,81.2z M67.9,64.6
		c0-0.2-0.2-0.4-0.5-0.7c-0.3-0.2-0.4-0.5-0.5-0.7c-1-0.1-1.8-0.6-2.6-1.6c0,0.1,0,0.2,0.1,0.4c0.1,0.1,0,0.2,0,0.3
		c-2.5-1.5-3.8-2.4-4-2.6c-0.1,0.1-0.5,0.1-1.2,0.2c0.1,0.5,0.3,1.2,0.7,2.1c0.4,0.9,0.6,1.6,0.7,2.2c1.6-0.4,3.2-0.4,4.9,0.1
		c1.4,0.4,2.6,1.2,3.6,2.1C69,65.9,69,65.7,69,65.5c-0.3,0-0.5-0.3-0.7-0.9C68.1,64.6,68,64.6,67.9,64.6z M60.8,34.2
		c-0.3-0.2-0.8-0.4-1.4-0.4C59.4,33.9,59.9,34,60.8,34.2z M59.6,38.5c0.9-0.8,1.4-1.5,1.7-2.1c-0.1,0-0.1,0-0.1,0
		c-0.1,0-0.1,0-0.1,0c-0.1,0.4-0.3,0.8-0.7,1.2C59.9,38,59.7,38.3,59.6,38.5z M59.9,58.2c0.1,0.3,0.4,0.5,0.9,0.6c0.1,0,0.3,0,0.7,0
		c0.3,0,0.5,0.1,0.6,0.1c-0.3-1.3-0.6-2-1-2.1c0,0.1,0.1,0.4,0.3,0.8c0.2,0.4,0.3,0.7,0.2,1.1c-0.3,0.1-0.7,0-1.1-0.2
		C60.2,58.3,60,58.2,59.9,58.2z M62.2,19.4c-1.2,1.7-1.8,2.5-1.8,2.3c-0.2,1,0.1,1.9,1,2.9c0.2,0.2,0.5,0.6,1.1,1.2
		c0.5,0.4,0.8,0.8,1,1.1c-0.2-0.2-0.5-0.4-1-0.7c-0.5-0.3-0.9-0.6-1.1-0.8c-0.8-0.7-1.3-1.5-1.3-2.5C60,21.7,60.7,20.5,62.2,19.4z
		 M61.8,45.6c0,0-0.3-0.2-0.9-0.6c-0.4-0.3-0.7-0.2-0.8,0.1c0.5,0,1,0.2,1.3,0.5c-0.3,0.4-0.7,0.7-1.3,1c0.1,0.1,0.3,0.1,0.6,0.1
		c0.2,0,0.3-0.1,0.3-0.1c0,0.1-0.1,0.1-0.1,0c0,0-0.1-0.1-0.1-0.1C61,46.4,61.4,46.1,61.8,45.6z M60.1,49.7c0.4,0.2,0.8,0.1,1.2-0.4
		c0.1-0.1,0.3-0.3,0.4-0.6c0.2-0.3,0.3-0.5,0.3-0.6c-0.1,0-0.2-0.1-0.4-0.2c-0.2-0.2-0.3-0.3-0.4-0.3c-0.3-0.2-0.6-0.2-0.8,0
		c0.1,0,0.1,0.1,0,0.1c-0.1,0.1-0.2,0.1-0.1,0.2c0.7-0.1,1.1,0.1,1.4,0.4C61.3,48.8,60.8,49.3,60.1,49.7z M61.8,59.6
		c0.3,0.6,0.4,0.9,0.4,1c-0.3-0.1-0.6-0.3-0.9-0.7c-0.4-0.4-0.7-0.6-0.9-0.7c0.3,0.7,1.1,1.3,2.3,1.6c-0.2-0.1-0.3-0.3-0.5-0.7
		C62.1,59.8,61.9,59.6,61.8,59.6z M60.8,52.2c0.7,0.2,1.3,0,1.6-0.5c-0.7-0.9-1.3-1.1-1.7-0.8c0.7,0.1,1.2,0.4,1.3,0.7
		c-0.1,0.1-0.3,0.2-0.6,0.3C61.1,52,60.8,52.1,60.8,52.2z M63.3,55.8c-0.6-1.7-1.3-2.6-2.3-2.9c-0.1-0.1,0.3,0.3,1.2,1.2
		c0.4,0.4,0.7,0.9,0.8,1.5c-0.9,0.1-1.5,0.1-2,0C61,55.9,61.8,56,63.3,55.8z M68.2,66.5c-0.2-0.1-0.8-0.2-1.7-0.3
		c-0.7-0.1-1.2-0.3-1.5-0.5c1.5,0.2,2.5,0.3,2.9,0.2c-2-1.6-4.2-2.1-6.6-1.6c-0.2,0-0.3,0-0.2,0c0,0.1,0.1,0.1,0.2,0
		c0.2,0,0.7,0,1.7,0c0.7,0,1.2,0.1,1.4,0.2c-1.2,0-1.8,0.1-2.1,0.2c0.7,0.1,1.1,0.2,1.2,0.2c0.1,0-0.2-0.1-0.9-0.1
		c-0.4,0-0.6,0.1-0.7,0.3c0.7,0.1,1,0.1,0.9,0c-0.1,0-0.2,0-0.3,0c-0.2,0-0.3,0-0.3,0c-0.3,0-0.4,0.1-0.4,0.3c0,0,0.1,0,0.4,0
		c0.3,0,0.5,0,0.5,0.1c-0.1,0-0.2,0.1-0.5,0.1c-0.2,0-0.4,0-0.4,0.1c0,0.1,0.2,0.1,0.4,0.1c0.3,0,0.5,0,0.5,0
		c-0.2,0-0.2,0.1-0.2,0.2c1.2,0.3,2.4,0.3,3.5-0.1c-0.5,0-0.8-0.1-1-0.2c0.2,0,0.7,0.1,1.5,0.2C67.1,66.5,67.6,66.5,68.2,66.5
		C68.1,66.5,68.1,66.5,68.2,66.5z M63.2,68.5c-0.3,0.1-1-0.1-2-0.5C62.1,68.2,62.7,68.4,63.2,68.5z M61.7,59.3
		c1.4,1.1,2.3,1.8,2.8,2c-0.4-0.7-0.7-1.1-0.8-1.1c0.1,0,0.1,0.1,0.1,0.2c0,0.1,0,0.2,0,0.2c-0.4,0-0.7-0.3-1.2-0.7
		C62.2,59.6,61.9,59.4,61.7,59.3z M62.9,49.2c0.1,0-0.1-0.1-0.6-0.3c-0.2-0.1-0.4,0-0.5,0.2c0.5,0.2,0.8,0.3,0.8,0.4
		c-0.1,0.1-0.2,0.3-0.4,0.6c-0.2,0.2-0.3,0.4-0.4,0.6C62.3,50.8,62.7,50.2,62.9,49.2z M61.8,68.6c0.1,0,0.3,0,0.6,0.1
		c0.4,0.1,0.6,0.1,0.8,0.1C62.9,69,62.4,68.9,61.8,68.6z M62.6,79.8c0-0.1,0-0.2,0.1-0.3c0.1-0.1,0.1-0.2,0.1-0.3
		c-0.4,0-0.7,0.1-0.9,0.3c0.1,0,0.2,0,0.3,0.1C62.3,79.7,62.4,79.8,62.6,79.8z M62,71.3c0.1-0.2,0.3-0.2,0.8-0.2
		C62.6,71.2,62.3,71.3,62,71.3z M62.4,56.3c0.1,0.2,0.2,0.4,0.4,0.7c0.2,0.3,0.4,0.5,0.4,0.7c-0.5-0.1-0.9-0.1-1.2-0.2
		c0.4,0.5,1,0.7,1.7,0.7C63.2,57,62.7,56.4,62.4,56.3z M62.4,58.6c0.4,1,1.1,1.5,2.1,1.5c-0.1-0.1-0.2-0.4-0.3-0.9
		c-0.1-0.4-0.3-0.6-0.5-0.7c0.2,0.9,0.3,1.3,0.3,1.2C63,59.1,62.5,58.7,62.4,58.6z M63.3,50.9c0.3,0.2,0.4,0.5,0.5,0.8
		c-0.1,0.1-0.4,0.1-0.7,0.1c-0.3,0-0.5,0-0.5,0.1c0.2,0.1,0.7,0.1,1.5,0C63.8,51.3,63.6,50.9,63.3,50.9z M62.6,37.3
		c0.2-0.3,0.5-0.6,1-1c0.7-0.5,1.1-0.9,1.2-1C64.6,35.8,63.8,36.4,62.6,37.3z M68.5,75.7c-1,0.9-3,1.6-5.9,2
		C66.5,76.4,68.5,75.7,68.5,75.7z M62.8,47.3c0,1.3,0.4,2.2,1.4,2.7c0.2-0.9-0.1-1.7-0.8-2.5c0.3,0.6,0.4,1,0.4,1.3
		c-0.2-0.2-0.3-0.5-0.4-1c-0.2-0.5-0.3-0.8-0.4-1c-0.1,0.1-0.1,0.3,0,0.5c0.1,0.2,0.2,0.4,0.1,0.5C63,47.5,62.9,47.3,62.8,47.3z
		 M62.8,25.7c0.9,0.5,1.6,1.2,2.1,2.2C63.6,26.5,62.9,25.7,62.8,25.7z M63.2,52.5c0.5,0.7,0.8,1.1,0.8,1.2c-0.1,0.1-0.3,0.1-0.6,0
		c-0.3-0.1-0.5-0.1-0.6,0c0.2,0.3,0.7,0.4,1.7,0.4C64.1,53.1,63.7,52.6,63.2,52.5z M63.3,44.7c-0.1,0.8,0.1,1.6,0.6,2.5
		c0.1,0.3,0.4,0.6,0.7,1.1c0.3,0.4,0.5,0.8,0.7,1c0-1.9-0.3-3.2-1-3.8c0,0.7,0,1,0,1.1c-0.3-1-0.6-1.8-0.7-2.5
		c-0.1,0.3-0.1,0.6,0,1.1c0.1,0.5,0.2,0.8,0.2,0.9C63.4,45.2,63.3,44.7,63.3,44.7z M63.5,55.5c0.5,0.6,1.2,1.1,2.1,1.3
		c-0.3-1.2-0.8-1.9-1.6-2.3c0.6,0.7,0.9,1.3,0.9,1.7c-0.2,0-0.5-0.2-0.8-0.4C63.8,55.7,63.6,55.6,63.5,55.5z M67.2,75.4
		c-0.4,0.5-1.7,0.8-3.7,0.8c0.3-0.1,0.9-0.2,1.9-0.3C66.3,75.8,66.9,75.7,67.2,75.4z M63.7,71.8c0,0,0.2-0.1,0.8-0.2
		c1.4-0.3,2.4-0.6,3-1C66.6,71.3,65.3,71.7,63.7,71.8z M64.2,46c-0.2-1.1-0.3-1.6-0.2-1.6C64,45.1,64,45.6,64.2,46z M64.7,57.3
		c0.3,0.3,0.5,0.5,0.5,0.8c-0.2,0-0.4-0.1-0.8-0.2c-0.3-0.2-0.5-0.2-0.6-0.2c0.6,0.5,1.2,0.8,1.9,0.9C65.6,57.8,65.3,57.4,64.7,57.3
		z M64.2,72.1C64.1,72.1,64.1,72,64.2,72.1c0.2-0.1,0.4-0.1,0.5-0.1c1.7-0.4,2.9-0.8,3.5-1.3c0,0.1-0.1,0.2-0.4,0.4
		C66.6,71.8,65.4,72.2,64.2,72.1z M67.2,59.9c-0.4-0.1-0.8-0.4-1.4-1c-0.6-0.4-1.1-0.7-1.4-0.7c1,0.9,1.5,1.6,1.5,2.3
		c-0.2,0-0.4-0.1-0.6-0.3c-0.3-0.2-0.4-0.4-0.6-0.4c0.2,0.4,0.8,0.9,1.9,1.3c-0.1-0.3-0.3-0.7-0.7-1.2c-0.4-0.5-0.5-0.8-0.6-1.1
		c0.1,0.1,0.5,0.4,1.1,1c0.4,0.4,0.8,0.6,1.3,0.6c-0.1-1-0.4-1.6-1.1-1.8C67,59,67.3,59.5,67.2,59.9z M65.8,76.6
		c-0.2,0-0.4,0.1-0.7,0.1c-0.3,0.1-0.5,0.1-0.7,0.1c1.9-0.6,3.2-1.1,4.1-1.6c0.1,0.1,0,0.2-0.3,0.3c-0.3,0.1-0.5,0.2-0.7,0.2
		c-0.2,0.1-0.4,0.3-0.8,0.4C66.2,76.4,65.9,76.6,65.8,76.6z M64.6,26.8c0.5,0.4,0.8,1.1,0.8,2.2c-0.1-0.2-0.2-0.5-0.4-1.1
		C64.9,27.4,64.8,27.1,64.6,26.8z M65.1,60.8c0,0.1,0.1,0.2,0.2,0.3c0.1,0.1,0.1,0.2,0.1,0.3c-0.1,0-0.2-0.1-0.4-0.2
		c-0.1-0.1-0.2-0.1-0.3-0.1c0.3,0.4,0.6,0.6,0.9,0.6C65.7,61.2,65.5,60.9,65.1,60.8z M64.8,45.2c0.1,0.2,0.7,1.1,1.7,2.8
		c0.5-1.5,0.2-2.8-0.8-3.8c0,0.1,0,0.3,0.1,0.5c0.1,0.2,0.1,0.4,0,0.4c-0.3-0.6-0.5-0.9-0.4-0.9c0,0.2,0.1,0.5,0.3,1.1
		c0.1,0.4,0.2,0.8,0.2,1c-0.4-1-0.8-1.6-1.1-2c0,0.3,0.2,0.6,0.4,1.1c0.2,0.4,0.4,0.8,0.4,0.9c-0.5-0.6-0.8-0.9-0.6-0.9
		c0.1,0.4,0.2,0.7,0.2,0.6C65.1,45.6,64.9,45.3,64.8,45.2z M66.3,56.3c-0.4-0.8-0.8-1.5-1.4-2.1c0,0.1,0,0.2,0,0.3
		c0.2,0.2,0.5,0.5,0.7,0.9C65.9,55.8,66.1,56.1,66.3,56.3z M65.9,62c0.3,0.2,0.3,0.4,0,0.5c-0.1,0-0.3-0.1-0.6-0.3
		c-0.3-0.2-0.4-0.2-0.5-0.2c0.9,0.5,1.4,0.8,1.6,0.9C66.3,62.2,66.2,61.9,65.9,62z M66.9,73.7c-0.3,0.5-1,0.8-2,0.8
		c0.1,0,0.5-0.1,1.1-0.3C66.4,74,66.7,73.9,66.9,73.7z M68.5,73.5c-0.8,0.9-1.9,1.4-3.5,1.6C67,74.3,68.2,73.8,68.5,73.5z
		 M67.9,71.4c-0.8,0.6-1.7,1-2.6,1c0.2-0.1,0.7-0.2,1.3-0.4C67.1,71.8,67.6,71.6,67.9,71.4z M65.3,27.7c0.1,0.1,0.2,0.3,0.3,0.5
		c0.1,0.3,0.2,0.4,0.2,0.5c0,0.1,0,0.3,0,0.4c0,0.2,0,0.3,0,0.4c-0.1-0.2-0.2-0.5-0.3-1C65.5,28.1,65.4,27.8,65.3,27.7z M67.5,72
		c-0.4,0.6-1.1,1-2.3,1.1c0.1,0,0.5-0.2,1.2-0.4C67,72.4,67.3,72.2,67.5,72z M66.9,72.9c0,0.1-0.1,0.2-0.4,0.3
		c-0.4,0.2-0.7,0.2-0.9,0.2C65.4,73.5,65.9,73.3,66.9,72.9z M66.7,73.3c0.2,0,0.1,0-0.3,0.2c-0.3,0.2-0.6,0.3-0.8,0.3
		C65.7,73.9,66,73.7,66.7,73.3z M67.5,62.2c-0.1-0.5-0.3-1-0.8-1.6c0,0.1,0.1,0.4,0.2,0.7c0.2,0.2,0.2,0.4,0.1,0.6
		c-0.2-0.1-0.6-0.4-1.2-0.9C65.9,61.5,66.5,61.9,67.5,62.2z M68.4,47.2c0.2-1.1,0-2-0.6-2.7c-1-1.4-1.5-2-1.4-1.8
		c0,0.3,0.3,0.9,0.7,2c-0.1-0.1-0.3-0.2-0.4-0.4c-0.1-0.2-0.2-0.4-0.3-0.5c0,0.2,0.1,0.4,0.3,0.6c0.2,0.3,0.2,0.4,0.2,0.5
		c-0.1-0.3-0.3-0.6-0.6-0.9c-0.3-0.4-0.5-0.7-0.6-0.8C66.3,44.4,67.2,45.8,68.4,47.2z M68.8,52.2c-0.1-0.4-0.3-0.8-0.6-1.4
		c-0.4-0.6-0.6-1-0.6-1.3c0,0.3,0.1,0.9,0.3,1.6c0.2,0.8,0.2,1.4,0.2,1.7l-0.8-2.1c0,0.1,0,0.3,0.1,0.5c0.1,0.2,0.1,0.3,0,0.4
		c-0.6-1.8-1-2.7-1.1-2.8c0,0.2,0.2,0.6,0.5,1.3c0.3,0.5,0.4,0.9,0.3,1.3c-0.1-0.2-0.2-0.6-0.5-1.4c-0.2-0.6-0.4-1.1-0.6-1.4
		c0.1,0.3,0.2,0.7,0.4,1.3c0.2,0.6,0.3,1,0.3,1.3c-0.4-0.7-0.5-1.1-0.5-1.1c0.4,1.4,1.4,3.2,2.7,5.1c-0.1-0.4-0.1-0.9-0.1-1.6
		c0-0.7,0-1,0-1S68.8,52.5,68.8,52.2z M68.2,74.2c-0.5,0.6-1.3,1-2.3,1.2c0.2-0.1,0.6-0.3,1.2-0.6C67.6,74.6,68,74.4,68.2,74.2z
		 M66.2,51.8c0.2,0.5,0.3,0.7,0.2,0.7C66.4,52,66.3,51.8,66.2,51.8z M66.5,62.2c0.1,0,0.2,0.1,0.2,0.3c0,0.2,0.1,0.3,0.2,0.3
		c0-0.1,0-0.2,0.1-0.3c0-0.1,0-0.2,0-0.3c-0.1,0-0.2,0-0.3,0C66.6,62.1,66.5,62.1,66.5,62.2z M70.5,46.3c0.1-0.7-0.2-2.1-0.9-4.2
		c-0.3-0.2-0.6-0.5-1-1c-0.4-0.5-0.7-0.8-0.9-0.9c0.4,0.4,0.6,0.8,0.5,1.2c-0.2-0.5-0.4-0.9-0.7-1.1c0.1,0.3,0.4,0.8,0.7,1.6
		c0.3,0.7,0.5,1.2,0.7,1.6c-0.1-0.1-0.3-0.3-0.6-0.7c-0.2-0.3-0.4-0.5-0.5-0.5c0.3,0.2,0.3,0.4,0.1,0.4c-0.7-0.9-1.1-1.4-1-1.4
		c0.4,0.6,0.6,1,0.6,1.3c-0.3-0.7-0.6-1.1-0.8-1.3c0,0.2,0.1,0.4,0.2,0.7c0.2,0.3,0.3,0.5,0.3,0.5c-0.1,0-0.2-0.1-0.3-0.3
		C67.1,42.1,67,42,67,42.1C67.3,43.3,68.5,44.7,70.5,46.3z M68.4,40.1c0.3,0.6,1.8,1.9,4.3,3.8c-0.1-2.9-1.3-5-3.7-6.4
		c0,0.1,0.2,0.3,0.4,0.5c0.2,0.2,0.3,0.3,0.2,0.4c-0.6-0.3-0.8-0.4-0.8-0.5c0.4,0.5,0.5,0.7,0.5,0.7c-0.4-0.1-0.6-0.2-0.5-0.3
		c0.3,0.2,0.4,0.4,0.5,0.6c-0.1-0.1-0.1-0.1,0,0.1c0.6,0.9,1.1,1.6,1.4,2.3c-0.2-0.1-0.5-0.4-0.9-0.9c-0.4-0.4-0.7-0.7-0.9-0.7
		c0.2,0.2,0.6,0.7,1.2,1.3c-0.2-0.2-0.4-0.4-0.7-0.7c-0.4-0.4-0.6-0.6-0.7-0.8c-0.1,0.2,0,0.4,0.2,0.6c0.3,0.2,0.4,0.4,0.4,0.5
		c-0.1-0.1-0.3-0.2-0.5-0.5c-0.2-0.2-0.3-0.3-0.4-0.4c0,0.1,0.1,0.3,0.2,0.4c0.2,0.2,0.3,0.3,0.3,0.4c-0.1,0-0.2-0.1-0.3-0.3
		C68.6,40,68.5,40,68.4,40.1z M70,28.7c0,0,0.1,0.1,0.2,0.2c0.1,0.1,0.2,0.2,0.2,0.3c-1-0.9-1.5-1.4-1.4-1.3c2.9,3,4.4,4.6,4.6,4.8
		c0.7,0.5,1.7,1,3.1,1.6c1.7,0.7,2.8,1.2,3.3,1.4c-0.3-0.6-1-1.7-2.2-3.3c-0.5-0.5-1.2-1-2.2-1.5c-1.3-0.7-2.1-1.2-2.3-1.3
		c-0.9-0.6-1.9-1.5-2.9-2.6c-0.4-0.5-0.7-0.7-1-0.7c0.1,0.1,0.5,0.5,1.2,1.2c0.5,0.5,0.9,0.9,1.1,1.2c-1-0.8-1.4-1.1-1.3-1.1
		c1.7,1.9,3.5,3.5,5.5,4.8c-1.7-0.9-3.4-2.1-5.1-3.7c-0.8-0.8-1.4-1.2-1.6-1.3c0.8,0.8,1.6,1.5,2.2,2.2c-0.2-0.2-0.6-0.5-1.2-1.1
		c-0.5-0.5-0.9-0.8-1.2-1c0.4,0.4,1,1,1.6,1.7C70.2,28.8,70,28.6,70,28.7z M70.2,32.9c0.2,0,0.3,0,0.3,0.1c0,0.1,0,0.1-0.2,0.1
		c0-0.1-0.2-0.4-0.6-0.7c1.1,2.3,3.4,4,7,5.1c-0.2-0.3-0.4-0.9-0.7-1.8c-0.2-0.8-0.5-1.4-0.8-1.7c0.1,0.1-0.4-0.2-1.5-0.9
		c-0.3-0.2-1.5-1.3-3.6-3.4c-0.1-0.1-0.3-0.3-0.5-0.4c0.2,0.1,0.3,0.2,0.5,0.4c0.3,0.3,0.4,0.5,0.4,0.7c-0.2-0.4-0.6-0.8-1.3-1.2
		c0.1,0.1,0.3,0.4,0.6,0.7c0.3,0.3,0.4,0.5,0.4,0.7c-0.2-0.3-0.5-0.6-0.9-0.9c2,2.6,3.6,4.3,4.7,5.2c-0.5-0.3-1-0.7-1.7-1.2
		c-0.9-0.7-1.4-1.2-1.5-1.2c0.7,0.9,1,1.3,1,1.2c-1.2-1.3-1.9-2-1.8-2c0.1,0.3,0.2,0.5,0.5,0.8c0.3,0.4,0.5,0.6,0.6,0.7
		c-0.1,0-0.2-0.2-0.4-0.4C70.3,32.7,70.2,32.7,70.2,32.9z M69.5,20.1c0.3-0.1,0.9,0.1,1.9,0.5c-0.2,0-0.4-0.1-0.9-0.2
		C70,20.2,69.7,20.1,69.5,20.1z M70.7,26.1c0.2,0.2,0.4,0.5,0.8,0.8c0.3,0.4,0.6,0.6,0.7,0.8c-0.3-0.3-0.7-0.7-1.3-1.2
		c-0.5-0.5-1-0.9-1.2-1.2c1.8,2.3,3.8,4,6.1,5c0.7,0.3,1.8,0.6,3.2,0.9c1.6,0.3,2.7,0.6,3.4,0.8c-1.8-2.5-3.9-3.8-6.2-3.9l0.2,0.1
		c0.1,0.1,0.1,0.1,0,0.1c-0.2-0.1-0.5-0.2-1-0.5c-0.4-0.3-0.6-0.4-0.9-0.4l0.3,0.1c0.1,0.1,0.2,0.1,0.1,0.2l-3-2.5
		c-0.1,0-0.2,0-0.3,0c-0.1-0.1-0.2-0.1-0.2,0c0.1,0,0.6,0.5,1.6,1.4c-0.1,0-0.2-0.1-0.4-0.3c-0.2-0.1-0.3-0.2-0.4-0.1
		c1.6,1.4,3.3,2.5,5.2,3.3c-2.5-0.7-4.6-1.9-6.2-3.4c-0.1-0.1-0.1-0.2-0.2-0.3c-0.1-0.2-0.2-0.3-0.2-0.3c-0.2-0.2-0.4-0.3-0.6-0.2
		c1.7,1.5,2.7,2.4,3,2.8c-1.1-1-1.7-1.4-1.7-1.4S71.2,26.5,70.7,26.1z M69.6,67.1c0,0.1,0,0.1,0,0.2c0.1,0.1,0.1,0.1,0.1,0.2
		c0,0,0.2,0.1,0.8,0.2c0,0,0-0.1,0-0.3c0-0.2-0.1-0.3-0.1-0.3H69.6z M69.8,36.5c0.3,0.4,0.5,0.6,0.5,0.7c-0.1,0-0.2-0.1-0.3-0.2
		c-0.1-0.1-0.2-0.2-0.2-0.2c0.9,1.8,2.7,3.2,5.3,4.1c-0.6-2.5-2.3-4.7-5.2-6.6c0.5,0.6,0.9,1,1,1.2c-0.1-0.1-0.3-0.3-0.5-0.6
		c-0.2-0.2-0.4-0.4-0.6-0.5c0,0.2,0.1,0.4,0.3,0.6c0.2,0.3,0.4,0.4,0.4,0.6C70.2,35.3,70,35.2,70,35c0.3,0.4,0.8,1,1.4,1.8
		c0.7,0.8,1.2,1.4,1.4,1.7c-0.9-0.8-1.7-1.4-2.2-1.8c0.5,0.8,0.8,1.1,0.8,0.9c-0.1-0.1-0.6-0.6-1.4-1.5c0.1,0.3,0.2,0.5,0.4,0.8
		c0.3,0.4,0.5,0.6,0.5,0.7c-0.1-0.1-0.3-0.3-0.6-0.7C70.1,36.7,70,36.5,69.8,36.5z M70.7,68.2c-0.5,0.1-0.8,0.1-0.8,0v0.3
		c0,0,0.2,0.1,0.4,0.1c0.2,0.1,0.3,0.1,0.3,0.1c0-0.1,0-0.2,0-0.3C70.6,68.3,70.7,68.2,70.7,68.2z M71.2,27c-0.1,0-0.2,0-0.3-0.1
		c-0.1-0.1-0.2-0.3-0.2-0.4c0.1,0,0.2,0.1,0.2,0.2C71,26.9,71.1,26.9,71.2,27z M74.7,22.1c0,0.1-0.1,0.1-0.3,0
		c-0.4-0.3-0.5-0.4-0.4-0.3c-0.3-0.2-0.8-0.4-1.4-0.8c-0.7-0.4-1.2-0.6-1.4-0.7c-0.1,0-0.1,0-0.1,0c0,0,0.1,0,0.1,0
		C72.5,20.7,73.7,21.4,74.7,22.1z M71.6,78.5c0.6-0.6,1.6-0.9,3-0.8c0.4,0,1,0.1,1.8,0.3c0.8,0.1,1.3,0.2,1.7,0.2
		c-1.1,0.2-2.3,0.1-3.6-0.3c-0.1,0-0.1-0.1,0-0.2c-0.3,0.1-0.6,0.2-1,0.2c-0.4,0.1-0.8,0.1-0.9,0.2c-0.6,0.2-1.1,0.6-1.2,1.2
		C71.2,79,71.3,78.8,71.6,78.5z M76.5,50.9c0.2-3.6-0.6-6-2.5-7.3c0,0,0,0,0,0l0,0c0.1,0.2,0.2,0.3,0.1,0.2c-0.1,0-0.1-0.1-0.2-0.2
		s-0.1-0.1-0.2-0.1c0,0,0.1,0.1,0.2,0.5c-0.1,0-0.1-0.1-0.2-0.2c-0.1-0.1-0.1-0.1-0.2-0.1c0,0.2,0.1,0.3,0.2,0.5
		c0.2,0.2,0.3,0.3,0.3,0.4c-0.1,0-0.1-0.1-0.2-0.2c-0.1-0.1-0.2-0.2-0.3-0.2c1.2,2.8,1.7,4.2,1.7,4.1c-0.2-0.9-0.7-1.7-1.5-2.5
		c0.3,0.3,0.3,0.5,0.2,0.5c-0.9-1.3-1.5-2.1-1.8-2.2c0.8,1,1.2,1.7,1.3,2.1c-0.9-1.3-1.5-2-1.8-2.1c0.3,0.3,0.8,0.9,1.4,1.8
		c-0.2-0.2-0.4-0.4-0.7-0.8c-0.3-0.4-0.5-0.7-0.7-0.8c0.8,2.2,1.2,3.4,1.2,3.4S74,48.8,76.5,50.9z M72.5,65.1c0.7,0,1,0.2,1,0.7
		c-0.2-0.4-0.5-0.5-0.9-0.4c-0.1,0-0.2,0.1-0.3,0.2c-0.1,0.1-0.2,0.2-0.2,0.1c0-0.1,0.1-0.2,0.2-0.3S72.5,65.2,72.5,65.1z
		 M72.2,67.6c0,0.2,0,0.4-0.1,0.4c0.1,0,0.2,0,0.3,0c0.1,0,0.2,0,0.2,0c0-0.3,0-0.4-0.1-0.4C72.5,67.5,72.4,67.6,72.2,67.6z
		 M72.2,67.2c-0.1,0.1,0,0.2,0.1,0.2c0.2,0,0.3,0,0.3-0.1C72.3,67.3,72.1,67.2,72.2,67.2z M72.4,20.2c0.9,0.1,2.5,1,4.8,2.6
		C74.4,21.2,72.8,20.3,72.4,20.2z M72.5,80.1c0-0.3,0.2-0.6,0.6-0.8c0.4-0.1,0.9-0.2,1.4-0.1c0.1,0-0.2,0.1-0.9,0.3
		c0,0.1-0.1,0.3-0.4,0.7c-0.2,0.4-0.4,0.8-0.4,1c-0.1-0.1,0-0.4,0.2-0.8c0.2-0.4,0.1-0.5,0-0.6c0,0-0.1,0-0.2,0.1
		C72.7,80,72.6,80,72.5,80.1z M72.9,70.4c0,0,0.1,0,0.1,0C72.9,70.4,72.9,70.4,72.9,70.4z M73.7,42c-0.3-0.5-0.5-0.9-0.8-1.2
		c0.1,0.5,0.5,1.2,1.3,2.3c0.5,0.6,2.4,2.4,5.7,5.3c-0.2-1.7-0.8-3.3-1.8-4.9c-0.3-0.5-0.8-1.1-1.4-1.9c-0.7-0.9-1.2-1.5-1.4-1.9
		c0,0.1,0.2,0.3,0.4,0.6c0.2,0.2,0.3,0.4,0.2,0.6c0,0-0.2-0.3-0.7-0.9c-0.1,0.1,0,0.2,0.2,0.4c0.2,0.2,0.2,0.3,0.2,0.4
		c-0.1,0-0.1,0-0.1-0.1c0-0.1-0.1-0.1-0.1-0.1c-0.1,0.7,0,1,0.1,0.9c0.2,0.3,0.6,0.9,1.1,1.9c0.4,0.8,0.8,1.4,1.2,1.8
		c-0.4-0.3-0.9-0.8-1.5-1.7c-0.6-0.8-1-1.4-1.4-1.6c0.2,0.2,0.4,0.5,0.7,1c0.3,0.4,0.5,0.8,0.7,1c-0.3-0.3-0.7-0.7-1.2-1.3
		c-0.4-0.6-0.8-1.1-1.1-1.3c0.1,0.3,0.4,0.7,0.7,1.2c0.4,0.5,0.6,0.9,0.7,1.1c-0.1-0.2-0.3-0.4-0.5-0.6c-0.3-0.3-0.4-0.5-0.5-0.7
		c-0.6-0.8-0.9-1.2-1.1-1.2c1.1,1.6,1.6,2.2,1.4,2c-0.8-1-1.2-1.4-1.1-1.3c0,0.1,0,0.1,0.1,0.2C73.8,41.9,73.8,42,73.7,42z M75.5,27
		c-0.2-0.1-0.9-0.5-2.1-1.2c0.6,1.1,1.9,1.8,3.8,2.1c0.6,0.1,1.5,0.2,2.6,0.3c1.5,0.1,2.4,0.1,2.6,0.1c-1-1.1-2.1-2-3.3-2.7
		c-0.1,0-0.1,0.1,0,0.2c0.2,0.1,0.2,0.2,0.1,0.2l-1-0.5l0.3,0.2c0.1,0.1,0.2,0.1,0.1,0.2c-0.5-0.3-0.7-0.4-0.8-0.4
		c0.1,0.1,0.3,0.2,0.7,0.5c-0.1,0-0.3-0.1-0.5-0.2c-0.2-0.2-0.3-0.2-0.4-0.1c0.6,0.4,0.9,0.7,0.9,1c-0.1,0-0.4-0.1-0.9-0.2
		c-0.4-0.1-0.7-0.1-0.9-0.1c0.1,0,0.8,0.3,2.2,1c0,0-0.3,0-0.9-0.1c-0.4-0.1-0.5,0-0.4,0c-1.6-0.7-2.6-1.2-2.9-1.4
		c0.1,0.3,0.4,0.6,0.8,0.8c0.6,0.3,1,0.5,1.1,0.6c-0.3-0.1-0.8-0.3-1.4-0.6c-0.6-0.3-1-0.5-1.2-0.6c1.1,0.6,1.7,1,1.8,1.1
		c-0.6-0.4-1-0.5-1.2-0.5C75.3,26.8,75.5,27,75.5,27z M74,66.7c-0.1-0.1-0.2-0.1-0.4-0.1c0-0.1,0-0.2,0-0.3c0-0.1,0-0.2,0-0.3
		C73.8,66.2,74,66.5,74,66.7z M75.1,65.8c0.6,0.2,0.8,0.5,0.7,1c0.3,0.1,0.4,0.8,0.4,1.9l0.1,0.2c0.2,0,0.4,0.1,0.8,0.3
		s0.7,0.3,0.9,0.4c0.1,0,0.2,0,0.3,0c0.1,0,0.2,0,0.3,0c0.2,0.1,0.3,0.2,0.2,0.4c-0.7-0.2-1.4-0.5-2.1-0.9c-0.1,0.2,0,0.4,0.2,0.8
		c0.2,0.3,0.3,0.5,0.2,0.6c0.1,0.1,0.4,0.2,0.9,0.3c0.4,0.2,0.7,0.4,0.9,0.6c0.3,0.1,0.7,0.4,1.2,1c0.1,0.1,0,0-0.2-0.1
		c-0.2-0.2-0.3-0.3-0.3-0.4c-0.3-0.2-0.7-0.3-1.3-0.4c1.7,1.3,2.6,2,2.5,1.9c0.1-0.1,0-0.3-0.4-0.5c0.2,0,0.3,0,0.5,0.2
		c0.2,0.3,0.3,0.4,0.4,0.4c0,0.2-0.1,0.3-0.3,0.1c0,0.1,0,0.1,0.1,0.2c0.1,0.1,0.1,0.1,0,0.1c0,0.1-0.6-0.5-1.8-1.6
		c0.1,0.2,0.3,0.4,0.7,0.7c0.4,0.3,0.7,0.6,0.7,0.7c-0.4-0.1-1-0.5-1.8-1.2c-0.8-0.7-1.4-1.1-1.9-1.1c0.1,0.3,0.3,0.6,0.6,0.8
		c-0.5-0.2-0.9-0.6-1.1-1.3c-0.3-0.1-0.6,0-0.8,0.3c-0.1,0-0.3-0.1-0.5-0.2C75,71,74.8,71,74.6,71c0,0,0.1-0.1,0.2-0.1
		c0.1,0,0.1-0.1,0-0.2c0.5,0.3,0.7,0.5,0.7,0.5c0.6,0,0.8-0.5,0.7-1.5c-0.2-1.6-0.4-2.4-0.4-2.3c-0.1,0-0.1,0-0.1,0.1
		c0,0.1,0,0.2,0,0.2l0-1c0-0.4-0.1-0.5-0.4-0.5c-0.1,0-0.3,0.1-0.4,0.4s-0.3,0.4-0.5,0.5c0,0.1,0,0.2,0.2,0.3c0.2,0,0.2,0,0.2-0.2
		c0,0,0.1,0.1,0.1,0.3c0,0.2,0.1,0.4,0.1,0.4c0,0.1,0.1,0.1,0.2,0c0.1-0.1,0.2-0.2,0.2-0.1c-0.2,0.4-0.3,0.8-0.1,1.3
		c0.1,0.1,0.1,0,0.2-0.1c0.1-0.2,0.2-0.2,0.3-0.2c-0.1,0.1-0.3,0.5-0.5,1.2c-0.2,0.5-0.4,0.9-0.8,1c0.4-0.6,0.4-1.3,0.1-2.1
		c-0.4-1.2-0.6-1.8-0.6-2c0.3,0,0.5-0.2,0.6-0.4c0.3-0.3,0.4-0.5,0.4-0.5S75,65.9,75.1,65.8z M75.5,54c0.7-1.4,0.8-2.3,0.3-2.8
		c-0.1,0.4-0.1,0.5-0.1,0.5c0-0.4,0-0.7-0.1-0.8c0.1,0.8,0.1,1.3,0,1.5c0-0.1,0-0.3,0-0.6s0-0.4,0-0.6c-0.1-0.4-0.1-0.4-0.1-0.1
		c0,0.6,0,1,0,1.2c0-1-0.1-1.7-0.3-2c0,0.9,0,1.3,0,1.3c0-0.4,0-0.7-0.1-0.9c-0.1,0.3-0.1,0.4-0.1,0.4c0-0.4-0.1-0.7-0.2-0.8
		C75,52.6,75.3,53.8,75.5,54z M74.7,79.3c-0.1,0,0.5,0.1,1.6,0.2C76.3,79.5,75.8,79.4,74.7,79.3z M74.8,37.9
		c1.9,3.3,4.5,6.5,7.7,9.6l-1-4c-0.1-0.2-0.3-0.4-0.6-0.6c-0.4-0.3-0.6-0.5-0.7-0.6c-0.9-1.1-1.9-2.6-3-4.7c0-0.1,0.1,0.2,0.4,1.1
		c-0.3-0.1-0.4-0.1-0.4-0.1c-0.1,0.3-0.1,0.4,0.1,0.4c-0.4-0.5-0.8-0.8-1-0.8c1.7,1.5,2.9,3.3,3.6,5.4c-0.8-1.6-1.7-2.9-2.8-3.7
		c0.7,0.6,1.1,1.2,1.2,1.6c-0.7-1-1.2-1.5-1.5-1.7c0.3,0.3,0.4,0.5,0.5,0.8c-0.1-0.1-0.3-0.3-0.5-0.6c-0.2-0.3-0.4-0.4-0.5-0.4
		c0.4,0.4,0.5,0.6,0.5,0.8c-0.5-0.9-1-1.4-1.3-1.5c0.2,0.3,0.5,0.6,0.8,1.1c-0.2-0.2-0.4-0.4-0.8-0.9c-0.3-0.4-0.4-0.6-0.4-0.6
		S75,38.1,74.8,37.9z M76.8,35.7c1.8,4.2,4.5,7.7,8.3,10.3c-0.2-2.4-1.9-6-4.9-10.8c0.1,1,0.2,1.4,0.3,1.2c-0.1,0-0.2-0.1-0.4-0.3
		c-0.1-0.2-0.3-0.2-0.4-0.2c0.4,0.3,0.6,0.6,0.5,0.9c-0.3-0.5-0.6-0.9-1.1-1.2c0,0.1,0.1,0.2,0.2,0.3c0.1,0.2,0.2,0.3,0.1,0.3
		c-0.3-0.4-0.6-0.7-0.7-0.8c2.3,3.1,3.6,5.4,4,6.6c-0.3-0.8-1-2-2.3-3.6c-1.2-1.5-1.9-2.3-1.9-2.3c1.1,1.5,1.9,2.6,2.3,3.4
		c-0.2-0.2-0.4-0.5-0.7-0.9c-0.4-0.5-0.6-0.8-0.7-1c-0.8-1.1-1.3-1.7-1.4-1.8c1.2,1.6,1.8,2.6,2,2.9c-0.5-0.7-1.3-1.7-2.5-3.2
		c0.2,0.4,0.4,0.8,0.9,1.4c0.4,0.6,0.7,1,0.8,1.2c-0.2-0.2-0.5-0.6-1-1.3c-0.4-0.5-0.8-1-1-1.3c0.1,0.3,0.3,0.6,0.6,1.1
		c0.3,0.5,0.5,0.8,0.6,1c-0.1-0.1-0.4-0.5-0.8-1C77.2,36.2,77,35.9,76.8,35.7z M77.1,56.8c1.2-1.8,1.8-4.6,1.8-8.5
		c-0.1,0.1-0.2,0.1-0.2,0c0-0.1,0-0.2,0-0.2c-0.1,0.5-0.2,0.8-0.1,0.7c0-0.5-0.1-0.8-0.2-1.1c0,0.2,0,0.5,0,1.1c0,0.5,0,0.8-0.1,1.1
		v-1.1c0-0.2,0-0.2,0-0.1c-0.1,0.1-0.1,0.2,0,0.2v0.6c-0.3,1.7-0.5,2.8-0.7,3.3c0.1-0.8,0.2-1.7,0.2-2.9c0-0.3,0-0.3-0.1-0.2v0.5
		c0,0.1,0,0.2,0,0.4c0,0.2,0,0.4-0.1,0.4l-0.1-2.9c0,0.1,0,0.5,0,1.2c0,0.5,0,0.9-0.1,1.2c0.1-0.7,0-1.3,0-2
		c-0.1-0.3-0.1-0.4-0.1-0.1c0,0.5,0,0.8,0,1c0-0.1,0-0.4,0-0.9c0-0.4-0.1-0.6-0.2-0.8c0.1,0.2,0.1,0.6,0.1,1c0,0.4-0.1,0.5-0.2,0
		c0.1,4.9,0.1,7.3,0.1,7.3S76.9,56.4,77.1,56.8z M77.1,79.8c0.1,0,0.5,0,1.2,0c0.7,0,1.2,0,1.5-0.1C79.6,80,78.7,80,77.1,79.8z
		 M77.6,72.4L77.6,72.4L77.6,72.4z M78.1,72.9c-0.4-0.3-0.5-0.4-0.4-0.5c0.4,0.4,0.7,0.8,0.8,1c0-0.1-0.1-0.1-0.2-0.2
		C78.1,73.1,78.1,73,78.1,72.9z M78.2,78.6c0.2,0,0.3,0,0.3,0c-0.1,0-0.2,0-0.1,0.2C78.3,78.8,78.2,78.8,78.2,78.6
		c-0.1,0.1-0.3,0.2-0.5,0.1c0-0.1,0.1-0.1,0.2-0.1C78.1,78.6,78.2,78.6,78.2,78.6z M78.7,78.6c0-0.1,0-0.2,0.2-0.3
		c0.2-0.1,0.3-0.2,0.3-0.4c-0.1,0-0.2,0-0.4,0.1c-0.2,0.1-0.4,0.2-0.6,0.2c0.5-0.4,0.9-0.7,1.1-1c-0.3-1.7-0.5-2.8-0.6-3.2
		c0,0.3,0.1,0.6,0.3,1.2c0.2,0.6,0.3,1,0.4,1.3C79.6,77.4,79.4,78.1,78.7,78.6z M79.4,59.3c0.4-0.5,1.1-2.4,1.9-5.6
		c0.8-3.3,0.9-5.6,0.3-6.8c0.1,0.4,0.1,0.7,0,0.8c-0.1-0.6-0.2-0.9-0.3-0.9c0.2,0.5,0.2,0.9,0.1,1.2c0-0.7-0.1-1.1-0.4-1.3
		c0,1.4,0,2,0,1.9c-0.1-0.9-0.2-1.4-0.3-1.6c0.5,2.5,0.4,4.9-0.4,7.1c0.1-0.9,0.1-2.1-0.2-3.7c0,0.5-0.1,0.8-0.2,1.1
		c0-0.1,0-0.3,0-0.5c0-0.3,0-0.5,0-0.6c0-1-0.1-1.6-0.4-1.7c0.1,0.6,0.2,1.1,0.1,1.4c-0.1-0.1-0.1-0.4-0.1-0.7
		c0-0.4-0.1-0.6-0.1-0.7C79.2,55,79.2,58.5,79.4,59.3z M80.3,70.7c0,0-0.2,0-0.6-0.2c0-0.2,0.1-0.3,0.3-0.1
		C80.2,70.4,80.3,70.5,80.3,70.7z M82.7,31.5c0.4,0.4,0.7,0.8,1,1.3c-1.2-0.9-1.7-1.4-1.5-1.3c0.1,0.2,0.3,0.5,0.6,0.7
		c0.3,0.3,0.5,0.5,0.6,0.7c-0.4-0.1-0.6-0.2-0.5-0.3c0,0,0.1,0,0.2,0.2c0.1,0.1,0.1,0.2,0,0.3c-0.8-0.5-1.2-0.7-1.2-0.8
		c0.6,0.4,0.9,0.7,1,1c-1.1-0.7-1.6-1.1-1.5-1.1c0.6,0.6,1,1,1,1.1l-1.2-0.9c0.2,0.3,0.4,0.7,0.9,1c0.5,0.4,0.8,0.7,1,0.9
		c1.6,1.9,2.6,4.2,3,6.8c-0.3-1.4-0.9-2.8-1.7-4.2c-0.8-1.2-1.7-2.3-2.6-3.1c1.7,2.3,2.6,3.5,2.6,3.6c-0.5-1-1.2-1.8-2-2.5
		c0.6,0.9,1,1.4,1,1.4c-1.3-1.7-2.2-2.7-2.7-3c1.1,1.4,1.7,2.1,1.8,2.3c-0.1-0.2-0.5-0.6-1.1-1.2c-0.6-0.7-1-1.1-1.2-1.1
		c0.9,0.9,1.4,1.6,1.6,1.9c-0.9-1.1-1.5-1.7-1.9-1.9c0.1,0.2,0.3,0.5,0.6,0.9c0.3,0.3,0.5,0.6,0.5,0.7c-0.7-0.7-1.1-1.1-1.1-1.1
		c5.3,7.4,8.1,11.2,8.5,11.5c-0.8-6.8-1.2-10.2-1.2-10.2S85.6,34,82.7,31.5z M81.1,76.6c0.2,0.6,0.2,1.3,0,2
		c-0.3,0.7-0.7,1.1-1.2,1.1C80.7,79.2,81.1,78.1,81.1,76.6z M80.7,24.4c-0.1,0-0.2,0-0.3-0.1s-0.2-0.1-0.3-0.1
		c0.1-0.2,0.2-0.2,0.4-0.1C80.6,24.1,80.7,24.2,80.7,24.4z M80.7,62.2c0.7-1,1.6-2.9,2.6-6c1.5-4.5,2.1-7.8,1.8-9.6
		c0.1,0-0.1-0.1-0.5-0.5c0,0.1,0,0.2,0.1,0.4c0.1,0.2,0,0.3,0,0.4c-0.2-0.6-0.4-1-0.6-1.2c0.3,0.6,0.4,1,0.3,1.2
		c-0.4-0.9-0.6-1.3-0.7-1.3c0,0.1,0.1,0.4,0.3,0.8c0.1,0.3,0.2,0.6,0.1,0.7c-0.1-0.5-0.3-1-0.6-1.3c0.3,1.5,0.4,2.2,0.4,2
		c-0.1-0.7-0.3-1.3-0.6-1.8c0.5,1.5,0.7,3.3,0.5,5.3c-0.2,2-0.7,3.6-1.4,4.7c0.5-1.4,0.8-2.9,0.9-4.5c0-0.2,0-0.4,0-0.6
		c0-0.3,0-0.2,0,0.2c0,0.1-0.1,0.3-0.1,0.7c0,0.3-0.1,0.5-0.1,0.7c0-0.2,0.1-0.7,0.2-1.4c0.1-0.6,0.1-1,0-1.3c0,0.1-0.1,0.4-0.1,0.9
		c0,0.4-0.1,0.7-0.2,0.9c0,0.1,0-0.2,0.1-0.7c0-0.5-0.1-0.6-0.1-0.2c-0.1,0.6-0.2,1-0.2,1.1c0.1-1.8,0.1-2.7,0.1-2.7
		c-0.1,1.2-0.5,3.4-1.2,6.5C80.9,58.1,80.6,60.4,80.7,62.2z M81.5,76.2c0,0.1-0.1,0.1-0.2,0.1c-0.1,0-0.2,0-0.2-0.1
		c0-0.2,0-0.3,0-0.5c0,0,0.1,0.1,0.1,0.3C81.3,76.2,81.4,76.3,81.5,76.2z M81.6,76.3c1.1,0.6,1.4,1.6,1,2.9c-0.1,0-0.1,0-0.1-0.1
		c0-0.1-0.1-0.2-0.1-0.2c-0.3,0.3-0.4,0.7-0.5,1.4c-0.1,0-0.2-0.1-0.1-0.3c-0.1,0.2-0.2,0.5-0.1,1c0.1,0.5,0.1,0.8,0,0.9
		c-0.4-0.6-0.5-1.4-0.1-2.3c0.5-1.5,0.8-2.3,0.9-2.5C81.9,76.5,81.6,76.3,81.6,76.3z M81.2,73.9c0.1-0.1,0.2-0.1,0.4,0
		c0.3,0.3,0.4,0.4,0.5,0.4C81.7,74.2,81.5,74.1,81.2,73.9z M81.5,29.1c1.1,0.4,2.5,1.8,4.3,4C84.1,31.1,82.6,29.8,81.5,29.1z
		 M83.2,74.7c0.6,0.2,1,0.8,1.2,1.8c0.1,1-0.2,1.7-0.8,2.3c0.4-1,0.6-1.5,0.7-1.5c0-1.2-0.8-2.2-2.2-2.8c0.1,0,0.1,0,0.1,0
		c0.1-0.2,0-0.4-0.4-0.7C82,73.7,82.5,74,83.2,74.7C83.3,74.8,83.3,74.7,83.2,74.7z M82.3,29.3c1.6,0.8,3,2.3,4.2,4.5
		C85.5,32.2,84.1,30.6,82.3,29.3z M83.2,67.4c0.4-0.6,1.3-3.3,2.6-7.9c1.1-3.5,1.7-5.7,1.8-6.6c0.5-2.7,0.4-5.1-0.4-7
		c0,0.1,0,0.2,0,0.3c0,0.1,0,0.2,0,0.2c-0.3-1.2-0.6-1.9-0.9-2c0.5,1,0.8,1.9,0.7,2.5c-0.2-1.2-0.5-2.1-1-2.8
		c0.5,1.4,0.7,2.6,0.7,3.6c-0.2-1.4-0.5-2.4-0.8-3.2c0.8,4.1,1.1,7,0.9,8.7c-0.1,0.6-0.7,2.3-1.6,5c0.7-3.1,1-5,0.9-5.6
		c0,0.4,0,0.7-0.1,0.9c0.2-1.5,0.2-2.4,0.1-2.8c0,0.6,0,1-0.1,1.3c0-0.2,0-0.4,0-0.9c0-0.3,0-0.6,0-0.7c0,0.5,0,0.8-0.1,1.1
		c0-2,0-3.2-0.2-3.5c0.1,1.9-0.4,4.4-1.5,7.6c-1.1,3.1-1.5,5.7-1.3,7.5c0,0.2,0.1,0.9,0.1,2.1C83,66.1,83.1,66.8,83.2,67.4z M83,50
		c-0.1-0.9-0.1-1.3,0-1.3C83,49.5,83,50,83,50z M83.1,79.8c0,0,0.1,0.1,0.2,0.4L83,80.3C83.1,80.4,83.1,80.2,83.1,79.8z M83.2,74.7
		L83.2,74.7C83.2,74.7,83.2,74.7,83.2,74.7z M83.3,80.3c0.1,0.1,0.1,0.2,0.2,0.5c0.1,0.3,0.1,0.4,0.1,0.5
		C83.3,80.7,83.2,80.4,83.3,80.3z M92,53.4c0.1-1.2-0.5-3.9-1.6-8c-0.4-1.3-0.6-2-0.7-2.1c0.2,0.9,0.3,1.3,0.3,1.2
		c-0.3-0.9-0.5-1.4-0.7-1.6c0.4,1.8,0.6,2.6,0.6,2.6v-0.1c-0.6-1.6-0.9-2.4-1-2.5c0,0.1,0.2,0.7,0.5,1.7c0.2,0.8,0.3,1.4,0.3,1.9
		c-0.3-1.5-0.6-2.7-1.1-3.5c1,3,1.3,6.7,1.1,11.1c0,0.5-0.9,4.2-2.6,11.1c0.1-0.6,0.4-2.1,1-4.5c0.4-1.8,0.6-3.3,0.5-4.5
		c0,0.6-0.1,1-0.2,1.2c0.4-3.2,0.5-5.2,0.5-6.1c-0.2,2.3-0.3,3.7-0.5,4.2c0-0.2,0.1-0.7,0.2-1.5c0.1-0.6,0-1.1,0-1.4
		c0,0.7-0.1,1.3-0.2,1.7c0-0.2,0-0.7,0.1-1.5c0.1-0.6,0.1-1.1,0-1.4c-0.2,1.3-0.3,1.9-0.2,1.7c0.3-3,0.2-5.1-0.2-6.2
		c0.5,2.9,0,7-1.6,12.4c-0.9,3.2-1.4,5.8-1.5,7.8c-0.1,1,0.4,3.4,1.3,7.2c0.1-1.9,1.2-5.3,3.1-10.2C91,60,91.9,56.4,92,53.4z"/>
</g>
</svg>
