<?xml version="1.0" encoding="utf-8"?>
<!-- Generator: Adobe Illustrator 21.1.0, SVG Export Plug-In . SVG Version: 6.00 Build 0)  -->
<svg version="1.1" id="Layer_1" xmlns="http://www.w3.org/2000/svg" xmlns:xlink="http://www.w3.org/1999/xlink" x="0px" y="0px"
	 viewBox="0 0 300 300" style="enable-background:new 0 0 300 300;" xml:space="preserve">
<style type="text/css">
	.st0{fill:#FFFFFF;}
</style>
<path d="M20.3,51.2c17.9,7,35.3,15.3,53,22.8c-0.2,6.8,4,12.5,5.4,18.9C66.1,86.9,52.1,83.9,40,77C30.2,71.5,22.9,62.1,20.3,51.2z"
	/>
<path d="M225.8,72.8c17.9-6,34.4-15.1,52-21.6c-2.9,10.5-10,19.6-19.3,25.2c-12.4,7.6-26.8,10.7-39.9,16.5
	C221.9,86.6,223.6,79.5,225.8,72.8z"/>
<path d="M150.2,69.9c5.5-1.9,11.5-0.3,16.4,2.6c1.4,4.3,0.2,9.3-1.7,13.4c-2.1,4.3-5.7-2.2-9-0.2c1.3,7.3,1.1,14.9,3.8,21.9
	c1,3,3.7,4.8,6.6,5.8c-0.7,3.7-4.2,5.1-7.6,5.5c1.1,1.3,2.2,2.4,3.4,3.6c-2.5,5.7-6.8,10.2-10.8,14.8c-1.5,2.3-4.4,0.9-5.9-0.7
	c-4.2-4.4-7-10.2-7.4-16.3c-3-0.1-4.9-2.5-6.7-4.4c2.7-6.6,3.4-13.7,4.1-20.7c-1.4-0.4-2.7-0.7-4.1-1
	C132.7,83.4,139.6,73.1,150.2,69.9z"/>
<path d="M75.2,71.3c15,8.7,31.3,14.9,46.8,22.7c5,17.4,13,34.5,26.4,47c14.1-11.9,22.5-29.2,26.5-46.9c15.7-7.4,32.2-13.2,46.8-22.7
	c0.2,13.8-6.9,27.6-18.6,35.1c-2.7,1.8-6.1,2.4-8.6,4.6c5.3,0.1,9-4.5,14.2-5.1c-1.8,10.2-7,20.2-15.7,26.2
	c-4.4,3.2-9.7,4.9-14.9,6.7c5.1,2.5,9.6-2.7,14.6-3.3c-0.2,1.7-0.4,3.5-1.4,5c-5.3,8.9-13.8,15.3-22.6,20.5
	c-5.7,4.2-12.8,6.6-19.9,7.3c-11.6-0.3-22-7.1-30-15.1c-5.2-5.4-10.2-11.1-14.1-17.5c5,0.9,9.5,3.4,14.5,4.2
	c-6.5-3.9-13.7-6.7-19.3-11.9c-6.1-5.6-9.6-13.6-10.6-21.8c5.1,0.5,8.9,4.4,13.8,5.6c-6.5-4.4-13.4-8.4-18.4-14.5
	C78.9,89.9,76,80.6,75.2,71.3z"/>
<path class="st0" d="M155.9,73.9c0,5.8-4.2,11.1-2.8,17c-1.3-0.9-2.2-2.3-1.7-3.9C152.2,82.4,154,78.1,155.9,73.9z"/>
<path d="M220,99c11.6-8.5,26.2-11.1,38.5-18.3c-1.9,9.9-7.7,19.1-16.3,24.5c-10.8,6.9-23.4,10-34.7,15.8
	C208.1,112.2,212.8,104,220,99z"/>
<path d="M38.5,81.9c16.2,3,29.7,13.3,44.9,19c1.5,7.3,6.6,13,8.5,20.1c-13-5.4-26.9-9.3-38.3-17.7C46.5,97.9,41.2,90.3,38.5,81.9z"
	/>
<path d="M62.9,112.8c13.7,3.5,27.7,9.2,36.8,20.6c2.6,3.2,4.6,6.7,6.3,10.4c-11.9-3.3-24.7-6.1-33.9-14.8
	C67.4,124.7,64.4,118.9,62.9,112.8z"/>
<path d="M202.5,125.3c11.2-3.4,21.3-9.8,32.7-12.5c-1.9,7.7-6.6,14.8-13.4,19.1c-8.9,5.9-19.4,8.4-28.8,13.4
	C195.3,138.2,200.3,132.4,202.5,125.3z"/>
<path d="M168.6,162.5c0.9-0.7,1.9-1.4,3.1-1.1c-4.8,14.2-12.9,27.1-22.1,38.8c-12.1-10.1-18.3-25.1-24.5-39.1
	c6.3,3.9,13.4,6.1,20.5,7.5C153.6,169,162.1,167.5,168.6,162.5z"/>
<path d="M107.8,216c5.6-14.6,12.7-28.7,18.8-43.1c3.1,3.8,3.2,9.2,6.8,12.7c-5.4,14.2-10.3,28.6-15.4,42.9
	C113.1,225.7,111.2,220.2,107.8,216z"/>
<path d="M165,187.1c-0.7-5.2,3.7-9,5-13.8c7.2,13.4,12.8,27.5,19.2,41.2c-2.8,4.5-5.4,9.2-8,13.8C175.9,214.6,170.2,200.9,165,187.1
	z"/>
<path d="M161.9,189.3c6.6,13.8,9.2,28.9,15.2,43c-2.8,5.5-6.6,10.8-12.3,13.5c-2.4-14-5.5-27.8-8.3-41.6c-0.3-1.7-0.9-3.4-0.6-5.2
	C157.2,195.3,160.7,193,161.9,189.3z"/>
<path d="M134.4,189c2.5,3.1,4.5,6.6,7.1,9.7c-3.1,15.7-6,31.5-9.3,47.1c-5.5-2.5-8.1-8.3-12.2-12.4
	C124.9,218.7,129.6,203.9,134.4,189z"/>
<path d="M143.4,201.4c1.6,1.3,3.3,2.3,5,3.3c1.8-1,3.6-2.1,5.3-3.3c2.5,15.7,4.3,31.5,8.1,47c-3.8,4-8.1,7.2-12.2,10.8
	c-4.8-2.1-8.9-5.3-13.2-8.1C137.1,234.3,141.7,218,143.4,201.4z"/>
</svg>
