<?xml version="1.0" encoding="utf-8"?>
<!-- Generator: Adobe Illustrator 21.1.0, SVG Export Plug-In . SVG Version: 6.00 Build 0)  -->
<svg version="1.1" id="Layer_1" xmlns="http://www.w3.org/2000/svg" xmlns:xlink="http://www.w3.org/1999/xlink" x="0px" y="0px"
	 viewBox="0 0 36 36" style="enable-background:new 0 0 36 36;" xml:space="preserve">
<g>
	<path d="M5.8,23.6C5.9,23.7,6,23.8,6,23.8c0,0,0,0.1-0.1,0.1C5.8,24,5.7,24,5.7,24.1c-1.5-1.6-2.4-3.2-2.5-4.7v-0.5
		c0-0.8,0.3-1.6,0.8-2.5c0.3-0.5,0.6-1,0.9-1.5c0.2-0.3,0.3-0.4,0.3-0.5c0,0,0-0.1,0-0.2c0-0.1,0-0.2,0-0.2c0.1-0.6,0.6-1,1.5-1.3
		c-0.4-0.2-0.5-0.5-0.4-0.9c0.1-0.4,0.4-0.8,0.9-1.4c0.2-0.2,0.6-0.6,1.3-1c3.1-2.2,6.4-3.4,9.9-3.5h0.9c2.4,0.1,4.7,0.7,6.8,1.7
		c0,0.1-0.1,0.2-0.2,0.4c-1.6-0.8-3.3-1.4-5.1-1.6c-2-0.3-4-0.1-6,0.4c-2.4,0.6-4.6,1.7-6.7,3.3c-0.4,0.3-0.7,0.5-0.9,0.8
		c-0.4,0.5-0.6,0.9-0.6,1.1c0,0.3,0.5,0.4,1.4,0.3c0,0.2,0,0.3,0,0.4c-0.6,0.1-1,0.2-1.3,0.3c-0.7,0.2-1.1,0.6-1.1,1
		c0,0.1,0,0.1,0,0.2c0,0.1,0,0.2,0,0.2c0,0-0.1,0.2-0.4,0.4c0,0-0.1,0.1-0.3,0.4c-0.8,1.1-1.3,2.2-1.4,3.3c-0.1,0.9,0.1,1.7,0.5,2.6
		c0.3,0.7,0.8,1.3,1.3,1.8c-0.2-0.5-0.3-1-0.3-1.4c0-0.6,0.2-1.2,0.6-1.8c0.7-0.9,1.5-1.7,2.4-2.2c0.4-0.2,0.7-0.4,0.8-0.6
		c0.2-0.3,0.3-0.6,0.3-1c0.2,0.2,0.5,0.2,0.7,0.1c0.3-0.1,0.4-0.3,0.4-0.5c0-0.1-0.1-0.2-0.2-0.3c-0.1-0.1-0.2-0.2-0.2-0.3
		c0.1,0,0.4,0,0.7,0.1c0.7,0.2,1.5,0.3,2.5,0.2c1-0.1,1.9-0.2,2.6-0.2c0.7,0,1.2,0,1.3,0.1c-0.1,0.1-0.2,0.1-0.5,0.1
		c-0.1,0-0.2,0-0.3,0s-0.2,0-0.3,0c-2.8,0.3-5.1,0.9-6.8,1.9c-1.2,0.7-2.1,1.4-2.8,2.1c-0.7,0.9-1.1,1.8-0.9,2.7
		c0.1,0.4,0.1,0.8,0.2,1C5.6,23.4,5.7,23.5,5.8,23.6z M15.6,16c-0.1,0.1-0.3,0.2-0.7,0.2c-3.1,0.9-5.9,2.4-8.2,4.5
		c-0.2,0.2-0.4,0.3-0.6,0.3c0-0.2,0-0.4,0.2-0.7c0.1-0.1,0.2-0.3,0.4-0.5c1.6-1.6,4-2.8,7.3-3.7C14.7,16.1,15.2,16,15.6,16z
		 M10.7,14.4c-0.1,0-0.2,0-0.4,0.1s-0.3,0.1-0.4,0.1c0,0-0.3-0.1-0.8-0.4c-0.2-0.1-0.5-0.2-0.9-0.2c-0.4-0.1-0.7-0.1-1.1-0.1
		c0-0.1,0.2-0.2,0.4-0.4c0.1-0.1,0.3-0.2,0.5-0.2c0.1-0.1,0.4-0.1,0.6-0.1C8.8,13,9,13,9.1,13c0.3-0.1,0.6-0.3,0.8-0.7
		c0,0,0.1-0.2,0.3-0.5c0.1-0.2,0.2-0.3,0.3-0.4c0.3-0.3,0.7-0.5,1.1-0.5c0,0-0.2,0.1-0.6,0.3c-0.4,0.2-0.7,0.5-0.7,0.8
		c0.1,0.1,0.2,0.1,0.4,0c0.3-0.1,0.7-0.4,1.3-0.8c0.2-0.1,0.6-0.5,1.1-1c0.4-0.3,0.8-0.6,1.3-0.9C15,9,15.6,8.8,16,8.8
		c0.1,0,0.2,0,0.2,0c-0.1,0.1-0.3,0.2-0.8,0.3c-1,0.3-1.6,0.8-2,1.3c0.1,0,0.2,0,0.6,0c0.2,0,0.7,0,1.5-0.1c0.6,0,1.1-0.1,1.5-0.1
		c0.1,0,0.3,0,0.5-0.1c0.2,0,0.4-0.1,0.5-0.1c0.2,0,0.4,0,0.5,0.1c-0.1,0.1-0.3,0.2-0.7,0.2c-2.8,0.2-4.5,0.5-5.2,0.9
		c0.2,0.4,0.4,0.7,0.4,0.8c0,0.2-0.1,0.4-0.3,0.6c-0.2,0.2-0.4,0.3-0.6,0.3c-0.4,0-0.6-0.1-0.7-0.3c-0.1,0,0,0,0.3-0.1
		c0.1,0,0.2-0.1,0.2-0.2c0-0.2-0.1-0.3-0.3-0.3s-0.3,0.1-0.3,0.3c-0.3,0.1-0.5,0.2-0.6,0.2c0.4,0.7,0.9,1,1.6,1c0,0,0.1,0,0.2-0.1
		c0.1,0,0.1,0,0.2,0c-0.1,0.1-0.3,0.2-0.7,0.3c-0.3,0.1-0.6,0.1-0.7,0.2c0.2,0.2,0.4,0.3,0.8,0.3c0.4,0,1-0.1,1.8-0.5
		c1.9-0.9,3-1.3,3.1-1.4c0.2-0.1,0.5-0.1,0.9-0.2c0.5-0.1,0.8-0.1,1,0c-0.1,0.1-0.2,0.1-0.5,0.1c-0.8,0.1-1.6,0.3-2.5,0.7
		c-0.2,0.1-0.5,0.3-1,0.6c-0.4,0.2-0.8,0.4-1.1,0.5c-0.7,0.3-1.3,0.5-1.8,0.5c-0.4,0-0.8-0.1-1.3-0.3C10.8,14.4,10.7,14.4,10.7,14.4
		z M7.9,14.4c0.6,0.2,1,0.4,1.3,0.8c0.1,0.1,0.1,0.2,0.1,0.4c-0.1-0.1-0.3-0.1-0.5-0.3C8.7,15.1,8.5,15,8.4,15
		c-0.1,0-0.3-0.1-0.5-0.2c-0.3-0.1-0.4-0.2-0.4-0.3c0-0.1,0.1-0.1,0.2-0.1C7.7,14.4,7.8,14.4,7.9,14.4z M29.4,17.6
		c1,0.8,1.6,1.7,2,2.7c0.2,0.6,0.3,1.3,0.1,2c-0.1,0.7-0.4,1.2-0.7,1.6c0.5-2.1-0.3-3.9-2.3-5.4c-1.6-1.2-3.6-1.9-5.9-2.1
		c-2.3-0.2-4.8,0-7.2,0.6c-0.9,0.2-2.8,0.9-5.9,2.1c0,0,0,0,0.1-0.1c1.2-0.8,3.1-1.6,5.6-2.2c0.8-0.2,2-0.5,3.3-0.8
		c1.3-0.2,2.5-0.4,3.6-0.5C25.2,15.4,27.6,16.1,29.4,17.6z M25.7,18.3c1.9,0.9,3.2,2.1,3.9,3.8c0.2,0.5,0.3,1.1,0.3,1.6
		c-0.1,1.2-0.8,2.4-2.2,3.6c0.7-1.1,1-2,0.9-2.9c0-0.9-0.4-1.8-1.1-2.7c-0.4-0.6-1.1-1.2-1.9-1.9c-0.9-0.7-1.7-1.2-2.4-1.4
		c-1.7-0.6-4-0.7-6.9-0.3c-1.1,0.1-2.5,0.4-4.1,0.7c-0.5,0.1-0.8,0.2-0.8,0.2s0,0,0.1,0c0.3-0.1,0.7-0.2,1.3-0.4
		c2.4-0.7,4.6-1.1,6.5-1.2C21.6,17.1,23.8,17.5,25.7,18.3z M19.5,18.8c3.7,0.4,6,1.9,7,4.5c0.4,1.1,0.5,2.2,0.3,3.3
		c-0.3,1.6-1.6,2.9-3.9,3.7c1.4-1.1,2-2.6,1.8-4.6c-0.1-0.8-0.4-1.6-0.8-2.4c-1.2-2.1-3-3.4-5.7-4c-1.5-0.3-3.5-0.5-5.9-0.4
		C15,18.7,17.4,18.6,19.5,18.8z M16.5,24.7c0,1.4-0.3,2.5-0.9,3.3c-0.4,0.4-0.8,0.7-1.2,0.9c-0.6,0.2-1.1,0.1-1.7-0.2
		c1.1,0.2,2-0.2,2.5-1.2c0.4-0.8,0.6-1.9,0.5-3.3c-0.1-2.2-0.9-3.8-2.4-4.6C15.3,20.6,16.4,22.3,16.5,24.7z M13.7,13.1
		c0,0,0.1-0.2,0.2-0.4c0.1-0.2,0.1-0.3,0.1-0.4c0,0.1-0.1-0.3-0.2-1c0.6,0,1.3,0,2.2-0.1c1.1-0.2,1.8-0.3,2.1-0.3
		c0.7,0,1.3,0,1.7,0.2c-1.4-0.1-2.6,0-3.6,0.4c-0.4,0.2-0.8,0.4-1.3,0.7C14.2,12.8,13.8,13,13.7,13.1z M19.5,25.7c0,0.7,0,1.1,0,1.4
		c0,0.1-0.1,0.3-0.2,0.7c-0.7,2-1.7,3.1-3,3.3h-0.6c1.8-0.5,2.8-2.1,3-4.6c0.1-0.5,0.1-0.8,0.1-1c0-0.4-0.2-1-0.4-1.8
		c-0.4-1.4-0.9-2.3-1.7-2.8c-0.1,0-0.2-0.2-0.5-0.3c-0.2-0.1-0.4-0.2-0.5-0.3c-0.2-0.1-0.3-0.2-0.3-0.3C18.1,21,19.5,23,19.5,25.7z
		 M22.8,14.7c-1.7,0-3.4,0.3-5.1,0.8c0.1-0.3,0-0.5-0.3-0.5c0,0-0.3,0-0.9-0.1c-0.3,0-0.4-0.1-0.4-0.2c0-0.1,0.2-0.1,0.5-0.1
		c0.7-0.1,1.8-0.4,3.2-0.9c1.4-0.6,2.7-0.9,3.8-1c0.4,0,0.7,0,0.8,0.2c0,0-0.2,0-0.5,0c-0.3,0-0.8,0-1.5,0.2
		c-0.5,0.1-0.9,0.3-1.3,0.4c-1.1,0.4-1.9,0.8-2.3,1.2c2.7-0.2,4.4-0.3,5-0.3c1.7,0.1,3.2,0.4,4.3,1C26.7,14.9,24.9,14.7,22.8,14.7z
		 M18.9,21.1c2,0.9,3.1,2.4,3.5,4.7c0.2,1.3,0.1,2.5-0.5,3.4c-0.6,0.9-1.4,1.5-2.5,1.7c0.8-0.5,1.4-1.1,1.8-1.9
		c0.4-0.9,0.6-2,0.4-3.2C21.3,23.8,20.4,22.3,18.9,21.1z M30,12c-2.3-1.8-5.7-3.1-10.2-3.9C24.6,8.2,28.1,9.5,30,12z M32,17.9
		c-0.7-1.8-2-3.4-4-4.8c-1.5-1.1-3.5-2.1-5.9-3c0,0,0,0,0,0c2.7,0.5,4.9,1.4,6.4,2.4C30.3,13.9,31.5,15.6,32,17.9z M22.9,30.4
		C22.9,30.4,22.9,30.4,22.9,30.4C22.9,30.4,22.9,30.4,22.9,30.4C22.9,30.4,22.9,30.4,22.9,30.4z"/>
</g>
</svg>
