<?xml version="1.0" encoding="utf-8"?>
<!-- Generator: Adobe Illustrator 21.1.0, SVG Export Plug-In . SVG Version: 6.00 Build 0)  -->
<svg version="1.1" id="Layer_1" xmlns="http://www.w3.org/2000/svg" xmlns:xlink="http://www.w3.org/1999/xlink" x="0px" y="0px"
	 viewBox="0 0 109.5 109.5" style="enable-background:new 0 0 109.5 109.5;" xml:space="preserve">
<g>
	<path d="M85.8,42.7c3.5,2.3,10,2.6,19.6,0.8c-0.4,1.7-1.3,3.2-2.5,4.6c-1.8,2-4.5,3.1-8.2,3.4c-3.5,0.2-6.6-0.3-9.3-1.7
		c1.7,2.5,6.1,4.6,13.3,6.1c-3.1,3.2-6.2,4.7-9.5,4.4c-2.5-0.2-5.6-1.8-9.4-4.8c0.5,1.6,2.5,4.3,6,8.1c-3.3,1.8-7,0.3-11.1-4.2
		c1,3.1,2.2,5.5,3.8,7.2c-1.9,0.4-3.5-0.1-5-1.4c-0.2-0.2-1.3-1.6-3.1-4c0.5,3.1,1.1,5.2,1.8,6.2c-1.5,0-2.8-0.6-3.7-1.6
		c-0.3-0.4-1.1-1.5-2.1-3.3c-0.1,0.5-0.1,1.2-0.1,2.1c0,1.3,0,2,0,2.3c1,0.6,1.2,1.8,0.8,3.7c0.4,0.2,1,0.4,1.6,0.7
		c0.3-1.2,1.2-1.7,2.6-1.4c0.4,0.1,1.1,0.3,1.9,0.6c1,0.3,1.6,0.6,1.9,0.7c1.1,0.3,2.7,0.7,4.8,1.1c-0.5,0.3-1.2,0.6-2.1,0.9
		c-1.2,0.5-2,0.8-2.2,0.9c0.2,0.3,0.6,0.9,1.2,1.5c0.5,0.7,0.9,1.2,1.1,1.5c-4.7-1.2-7.1-1.8-7.1-1.8c-0.2,0.5-0.5,1.3-0.7,2.2
		c-0.3,0-0.8-0.2-1.4-0.6c-0.8-0.4-1.3-0.7-1.6-0.8c-0.2-0.1-0.7-0.3-1.5-0.5c-0.6-0.1-1-0.3-1.3-0.5c-0.8-0.5-1.1-1.4-0.8-2.6
		C63,72.4,62.5,72.7,62,73c1,3.9,2.4,6.8,4.2,8.7c1.4,1.4,3.4,2,6.1,2c2.6,0,4.6-0.6,6.2-1.8c-0.1,0,0,0,0.1-0.3
		c0.1-0.1,0.2-0.1,0.3,0c-1.9,4.2-5.5,6-10.8,5.6c0,0,0.4,0.6,1.2,1.9c-1.5,0-3.2-1-5.2-2.9c0,0.2,0,0.5,0.1,1c0,0.4,0.1,0.7,0.1,1
		c-1.2-0.4-2.5-1.6-3.9-3.5c0.4,3.9,1.1,6.8,2.1,8.6c-0.7,0-1.5-0.4-2.3-1.2c0.2,2.5-0.2,5.3-1.5,8.3c-1.6,3.9-2.4,6.4-2.6,7.5
		c-0.2-1-1.1-3.4-2.7-7.2c-1.2-2.9-1.7-5.7-1.5-8.4c-1.6,0.7-2.4,1.1-2.3,1.1c0.9-1.7,1.6-4.5,2.1-8.3c-1.7,1.9-2.9,3-3.7,3.4
		c0,0.1,0.1-0.6,0.1-2c-2.3,1.9-4,2.8-5,2.9c0-0.1,0.1-0.4,0.4-0.8c0.4-0.5,0.6-0.9,0.7-1.1c-5.5,0.5-9.1-1.3-10.8-5.5
		c-0.1,0,0.2,0.2,1,0.7c1.4,0.8,2.9,1.3,4.5,1.4c3.3,0.2,5.9-0.8,7.8-3c1.4-1.7,2.5-4.2,3.4-7.7c0,0-0.5-0.3-1.5-1
		c0.2,1.2,0,2.1-0.8,2.6c0.1,0-0.8,0.3-2.8,1.2c-2.4,1-3.4,1.5-3.1,1.3c0-0.3-0.1-0.7-0.2-1.1c-0.1-0.5-0.2-0.9-0.3-1.1
		c0.4-0.1-2,0.5-7.1,1.8c0.1-0.4,0.5-0.9,1-1.5c0.7-0.9,1.1-1.4,1.2-1.5c-0.5-0.2-1.2-0.5-2.1-0.9c-1.1-0.4-1.8-0.7-2.1-0.9
		c0.4-0.1,1.2-0.3,2.2-0.6c1.1-0.2,2-0.4,2.6-0.6c0.3-0.1,1.1-0.4,2.4-0.9c0.9-0.3,1.6-0.5,2.1-0.5c1.1,0,1.8,0.5,1.9,1.5
		c0.2,0,0.5-0.1,0.8-0.3c0.3-0.1,0.6-0.2,0.9-0.3c-0.4-2-0.1-3.2,0.8-3.7v-4.5c-1.6,2.2-2.3,3.3-2.3,3.2c-1,1.1-2.2,1.6-3.7,1.7
		c0.6-0.9,1.3-2.9,1.9-6c-0.1,0.1-0.6,0.7-1.5,1.8c-0.6,0.8-1.1,1.4-1.6,1.9c-1.4,1.3-3.1,1.8-5,1.5c1.8-2.3,3-4.7,3.7-7.2
		c-1.9,1.9-3.4,3.2-4.5,3.9c-2.3,1.3-4.4,1.4-6.4,0.3c3.5-3.8,5.5-6.4,5.9-8.1c-4.3,3.6-8.2,5.2-11.6,4.8c-1.9-0.1-4.3-1.6-7.3-4.3
		c0.8-0.3,2.2-0.7,4.2-1.1c1.9-0.4,3.2-0.8,4-1c2.4-1.3,4.2-2.7,5.3-4c-2.8,1.4-6,1.9-9.4,1.7c-3.7-0.3-6.4-1.4-8.3-3.4
		c-1-1.1-1.9-2.7-2.6-4.6c9.5,1.7,16.1,1.5,19.8-0.7c-5.7-1-10-2.7-13-4.9c-3.6-2.8-5.7-6.7-6.2-11.6c5.4,3.9,11.8,6.5,19.1,7.8
		c-4.1-2-8-5.2-11.6-9.6C9.9,18.7,8,11.4,9.1,2.7c5.1,10.8,15.7,22,31.8,33.5c0.4,0.5,0.7,1.3,0.7,2.2c0,1-0.2,1.7-0.9,1.9
		c-1-0.9-1.8-1.3-2.4-1.2c-0.6,0.2-1.1,0.8-1.5,1.8c-0.3,1-0.4,2-0.2,3.1c0.2,2.2,1.3,4.1,3.1,5.7c1.8,1.7,3.7,2.5,5.9,2.6
		c0,0.1,0-0.4,0.1-1.7h4c0-0.4,0.2-1.1,0.4-2c0.2-0.8,0.3-1.4,0.4-1.9l-0.7,0.7c-0.3,0.3-0.6,0.5-1,0.6c0.9-1.1,0.9-2.6-0.1-4.5
		c-1.4-0.3-2.7-0.4-3.8-0.2c0.1-0.9,0.9-1.4,2.3-1.5c-2.1-1.3-3.4-1.4-4-0.3l-0.3-2.1c0.3-0.7,1.7-1,4.1-0.7
		c0.4-0.6,0.5-0.9,0.4-0.8c0.2,0,0.9,0.2,2,0.4c0.9,0.1,1.6,0.2,2.1,0.2c1.7,0.1,2.9-0.3,3.4-1.1c0.5,0.8,0.5,1.6,0,2.4
		c-0.5,0.8-1.2,1.1-2.2,1c1.6,0.5,2.6,0.6,3.2,0.4c-0.3,0.6-1,1.1-2.1,1.5c1,1.3,1.8,2.3,2.2,3.1c0.2-0.2,0.5-0.8,1-1.5
		c0.4-0.7,0.8-1.2,1.2-1.5c-1.3-0.9-2-1.4-2.1-1.5c0.1,0,1.2,0,3.2-0.3c-1,0-1.7-0.3-2.2-1c-0.5-0.7-0.5-1.5-0.1-2.4
		c0.9,1,3.4,1.1,7.5,0.4c0.3,0,0.5,0.3,0.5,0.8c2.5-0.2,3.9,0,4.2,0.7c0.1,0.2,0.1,0.6-0.1,1c-0.2,0.5-0.3,0.9-0.3,1.2
		c-0.6-1-1.9-0.9-4,0.1c1.5,0.4,2.2,1,2.3,1.6c-1.1-0.2-2.4-0.1-3.9,0.2c-0.9,2-0.9,3.5-0.1,4.5c-0.3-0.1-0.9-0.6-1.6-1.4
		c0,0.5,0.1,1.1,0.4,2c0.2,0.8,0.3,1.5,0.3,2.1h4.1v1.7c2.3,0,4.4-1,6.2-2.7c1.8-1.8,2.7-3.8,2.9-6.2c0.1-1.7-0.4-3.1-1.6-4.3
		c-1.3-0.1-2.1,0.2-2.5,1.2c-0.6-0.1-1-0.7-1-1.7c0-0.9,0.2-1.6,0.6-2.1c0,0,0.9-0.6,2.4-1.8c6.4-4.7,11.7-9.1,15.7-13
		c6.6-6.6,11.2-12.9,13.8-19c1.2,8.5-0.7,15.8-5.5,21.8c-3.7,4.5-7.6,7.7-11.6,9.5c6.9-1.1,13.3-3.7,19.1-7.8
		c-0.5,5-2.6,8.9-6.2,11.6c-3,2.3-4.5,3.4-4.5,3.4S91.4,41.8,85.8,42.7z M42.5,29.6c-5.6-0.8-9-1.2-10.2-1.3c0.3-0.3,0.9-0.6,1.5-1
		c0.8-0.4,1.3-0.7,1.6-1c-0.2-0.3-0.6-0.8-1.2-1.3c-0.6-0.5-1.1-0.9-1.2-1.2c1.3,0.1,3.9,0.5,8,1.2c-0.1-1.4-0.1-2.1-0.1-1.9
		c2.4,0.7,3.7,1.1,3.9,1.1c0.4,0.3,0.7,1.1,1,2.3c1.9,0.4,3.8,0.1,5.8-1.1c-0.6-0.2-1-0.4-1.1-0.5c-1-2.3-1.4-3.4-1.3-3.3
		c-0.1-0.1-0.4-0.2-0.8-0.3c-0.3-0.1-0.5-0.2-0.6-0.4c-0.2-0.3-0.3-0.6-0.1-1c0.1-0.3,0.5-0.5,1-0.4c0.1-1,0.6-1.6,1.4-1.8
		c0.1-0.1,0.3-0.4,0.4-0.9c0.1-0.4,0.2-0.7,0.4-0.8c0.1,0,0.6,0.2,1.2,0.7c0.2,0,0.5-0.1,0.8-0.4c0.3-0.2,0.6-0.4,0.9-0.4
		c0.7-0.7,1.2-1.7,1.7-2.8c0.2-0.2,0.6-0.2,1.1,0c0.2,0.9,0.6,1.6,1.1,2.1c0.2,0.3,0.7,0.7,1.3,1c0.1,0,0.3,0.1,0.4,0.3
		c0.1,0.1,0.2,0.2,0.4,0.2c1.4,0,2-0.2,1.7-0.4c0,0.6,0.2,1.1,0.9,1.6c0.6,0.5,1,1,1,1.6c0.5,0,0.8,0.2,1,0.4c0.2,0.3,0.2,0.6,0,1
		c-0.1,0.1-0.3,0.3-0.6,0.4c-0.4,0.1-0.6,0.2-0.7,0.3c-0.3,0.2-0.8,1.3-1.5,3.4c-0.4,0.2-0.8,0.4-1,0.4c1.5,1.1,3.4,1.5,5.8,1.2
		c-0.1-1.2,0.4-2.1,1.6-2.6c0.3-0.1,0.9-0.2,1.7-0.4c0.7-0.2,1.2-0.4,1.5-0.5c0-0.1,0,0.5-0.1,1.9c3.7-0.6,6.3-1,7.9-1.2
		c0,0.1-0.3,0.6-1,1.2c-0.9,0.7-1.3,1.1-1.4,1.2c0,0,1,0.6,3.2,1.9c-1.2,0.2-2.9,0.4-5.1,0.7c-2.4,0.3-4.2,0.5-5.1,0.7
		c-0.3-0.3-0.5-0.8-0.4-1.6c-0.1,0-0.3,0-0.6,0.1c-0.2,0.1-0.4,0.1-0.6,0.1c-0.2,1.8-0.6,2.7-1.3,2.9c-1.9,0.3-4,0-6.2-0.9
		c-1.9-0.8-3.3-1.8-4.3-3.1c-1.1,1.3-2.6,2.3-4.5,3.1c-2.2,1-4.3,1.2-6.1,0.8c-0.7-0.2-1.1-1.1-1.3-2.8c-0.3-0.1-0.7-0.3-1-0.4
		C43,28.9,42.8,29.5,42.5,29.6z M35.4,25c0.1,0.2,0.3,0.5,0.7,0.8c0.4,0.3,0.6,0.6,0.7,0.8c-0.1,0-0.4,0.2-0.8,0.4
		c-0.3,0.2-0.6,0.4-0.8,0.5c4.7,0.7,7.1,1.1,7,1.1C42,28.8,42,28,42.2,26c-0.9-0.1-2-0.3-3.4-0.5C37.1,25.3,36,25.1,35.4,25z
		 M37,75.1c0.3-0.1,1.2-0.4,2.7-0.8c1.1-0.4,2.1-0.7,2.9-0.8c-0.2-1.4-0.5-2.4-0.9-2.9c-0.6,0.1-2.5,0.8-5.8,1.8
		c0.1,0,0.5,0.2,1.1,0.4c0.5,0.1,0.8,0.3,1,0.5c0,0.1-0.3,0.4-0.7,0.9C37.1,74.5,37,74.8,37,75.1z M41.7,25.6c0.3,0,0.4,0,0.3-0.2
		c0-0.2-0.1-0.3-0.3-0.4V25.6z M44.7,25.3c-0.3-0.2-0.8-0.4-1.4-0.5c-0.8-0.2-1.3-0.3-1.5-0.4c0.4,0.5,0.7,1.3,0.7,2.5
		c0.2,0,0.5,0.1,0.9,0.3c0.3,0.1,0.6,0.2,0.9,0.3C44.2,26.8,44.3,26.1,44.7,25.3z M42.2,74.1c0.3,0.6,0.5,0.9,0.4,0.9
		c0-0.1,0-0.2,0.1-0.4c0-0.1,0.1-0.3,0.1-0.4C42.8,74.1,42.6,74.1,42.2,74.1z M45.1,74.6c1.3-0.5,2.1-0.9,2.3-1.1
		c-1.1-0.7-1.7-1.4-1.6-2.1c-0.4,0.1-0.9,0.3-1.5,0.5c-0.6,0.3-1.1,0.5-1.3,0.6c0.3,1.5,0.2,2.5-0.1,3.1c0.2-0.1,0.6-0.2,1.1-0.4
		C44.4,74.8,44.8,74.7,45.1,74.6z M44.9,25.9c-0.2,0.6-0.3,0.8-0.3,0.7c0.1,0.2,0.3,0.4,0.5,0.4C44.9,26.2,44.8,25.8,44.9,25.9z
		 M53.4,25.1c-2.2,2.3-5.2,3.1-8.7,2.1c0.2,1.7,0.5,2.6,0.7,2.9c2.9,0.5,5.4,0,7.6-1.3c2.5-1.6,3.4-2.8,2.5-3.7
		c-0.1,0-0.3,0-0.6,0.1c-0.2,0-0.4,0-0.6-0.1C54,25.2,53.7,25.2,53.4,25.1z M46.2,71.3c2.6-1.2,5.9-1.8,9.8-1.8c4,0,7.2,0.6,9.8,1.8
		c0-0.2,0.1-0.7,0.3-1.6c0.2-0.7,0.2-1.3,0-1.6c-0.2-0.3-1.6-0.7-4.1-1.3c-4-0.9-8.1-0.9-12.3,0.1c-2.4,0.6-3.7,1.1-3.9,1.4
		c-0.1,0.3-0.1,0.8,0.1,1.5C46.2,70.6,46.3,71.1,46.2,71.3z M46.5,72.2c0,0.1,0.3,0.4,0.9,0.7c-0.1-0.7-0.2-1.1-0.2-1.2
		c-0.1-0.1-0.3-0.1-0.4,0.1C46.5,71.9,46.4,72,46.5,72.2z M46.8,51.9c0,0.9,0,3.3,0,7.4c0,3.1,0.1,5.5,0.2,7.2c0.4,0,0.7-0.3,0.8-1
		c0-0.7,0-1.4,0-2.3c-0.1-1.3-0.2-3-0.1-5.2c0.1-2.6,0.1-4.3,0.1-5.1h16.4c0,1.2,0,3.1,0,5.6c0,2.4,0,4.1,0,5.1c0,0.2,0,0.5-0.1,1
		c0,0.4,0,0.8,0,1c0,0.6,0.4,1,1,1c0-1.7,0.1-4.1,0.1-7.1c0-4.1,0-6.5,0-7.5c-0.3,0-1.3,0-2.9,0c-1.2,0-2.1,0-2.8-0.1
		c-0.5,0-2.7,0.1-6.5,0.1c-0.7,0-1.8,0-3.1,0H46.8z M47.8,39.5c0,0.4,0.2,0.7,0.7,0.7c0.5,0,0.7-0.2,0.7-0.7
		C49.4,39.4,48.9,39.4,47.8,39.5z M48.3,59.7c0,2.7,0,4.8,0,6.3c5.2-1.5,10.4-1.5,15.6,0v-6.3c0-3,0-5.2,0-6.5H48.3V59.7z
		 M48.3,20.4c1.3,0.4,2.1,1.3,2.3,2.6c3.6-0.5,7.2-0.5,10.8,0c0-0.1,0.1-0.4,0.3-0.8c0.1-0.3,0.2-0.5,0.3-0.7
		c0.2-0.2,0.5-0.4,0.9-0.6c0.4-0.2,0.8-0.4,1-0.5c-0.1-0.1-0.4-0.1-0.7,0c-0.3,0.1-0.5,0.2-0.5,0.1c0.3-0.7,0.2-1.3-0.4-1.8
		c-0.6-0.5-1.1-0.5-1.5-0.1c0-0.1,0.1-0.2,0.4-0.3c0.2-0.1,0.3-0.2,0.2-0.4c-0.1-0.1-0.3-0.1-0.6,0.1c-0.2,0.2-0.4,0.3-0.4,0.3
		c0-0.7-0.2-1-0.5-0.9c0,0.1,0,0.3,0.1,0.5c0.1,0.2,0.1,0.4,0,0.5c0-0.8-0.5-1.3-1.3-1.6c-0.8-0.3-1.5-0.1-1.9,0.6
		c0-0.3,0.1-0.5,0.4-0.7c0.3-0.2,0.4-0.5,0.4-0.7c-0.3,0-0.5,0.1-0.7,0.4c-0.2,0.3-0.4,0.4-0.5,0.4c0-0.2,0.1-0.5,0.4-0.8
		c0.2-0.3,0.3-0.5,0.2-0.7c0.2,0-0.1,0.3-0.8,0.7c-0.1-0.4-0.3-0.6-0.7-0.7c0,0.2,0.1,0.5,0.3,0.8c0.2,0.3,0.2,0.6,0.1,0.8
		c-0.3-0.7-0.7-1-1.2-0.8c0,0.1,0.2,0.3,0.5,0.6c0.2,0.2,0.4,0.4,0.4,0.7c-0.7-0.8-1.4-0.9-2.3-0.4c-0.2,0.1-0.4,0.4-0.6,0.8
		c-0.1,0.4-0.3,0.6-0.4,0.7c0,0,0.1-0.3,0.2-0.7c0.1-0.2,0-0.3-0.2-0.4c-0.1,0-0.3,0.3-0.4,1c-0.7-0.4-1.1-0.7-1-0.7
		c-0.1,0.1,0,0.3,0.2,0.5c0.3,0.2,0.4,0.3,0.3,0.4c-0.6-0.5-1.1-0.5-1.6,0.1c-0.4,0.5-0.5,1.1-0.2,1.8
		C48.8,20.4,48.4,20.3,48.3,20.4z M56.1,75.9c0.6-0.9,2.7-2.4,6.3-4.5c-1.2-0.4-2.5-0.2-3.9,0.8c-1.1,0.7-2,1.6-2.5,2.5
		c-0.6-1.3-2.2-2.5-4.5-3.7c-0.2,0-0.6,0.1-1,0.2c-0.4,0.1-0.7,0.1-0.9,0.1C53.4,73.6,55.5,75.1,56.1,75.9z M51.1,19.6
		c0.7-0.2,1.1,0.1,1.3,1.2c0.2,1.1-0.1,1.6-0.9,1.5c-0.7,0-1.3-0.6-1.6-1.9c-0.3-1.2,0.1-1.6,1.2-1.4c-0.4,0.4-0.5,0.8-0.1,1.2
		l1.1,0.8c0.1-0.3,0-0.5-0.4-0.7C51.3,20.1,51,20,51,20S51.1,19.9,51.1,19.6z M52.6,23c-0.9,0.1-1.5,0.2-1.8,0.3
		c0,0.3,0.1,0.6,0.4,0.8c0.3-0.1,0.9-0.2,1.5-0.2C52.6,23.4,52.5,23.2,52.6,23z M51.1,24.5c1,0,2.7-0.1,5-0.1c2.4,0,4,0,4.8,0
		c-1.6-0.5-4.3-0.6-8.1-0.3C51.8,24.2,51.2,24.4,51.1,24.5z M51.2,16.9c0,0.7,0.1,1,0.4,1C51.8,17.5,51.7,17.2,51.2,16.9z
		 M52.1,71.1c1.4,0.5,2.7,1.4,4,2.9c0.6-0.9,1.8-1.9,3.7-2.9C56.7,70.5,54.1,70.5,52.1,71.1z M55.3,18.5c0.3,0.1,0.4,0.3,0.4,0.7
		c0,0.5,0,0.8,0.1,0.9c-0.3-0.3-0.8-0.3-1.2-0.1c-0.5,0.1-0.7,0.5-0.7,1c0.1,0.3,0.3,0.5,0.7,0.6c0.3,0.1,0.6,0,0.7-0.3
		c0,0.1-0.2,0.1-0.7,0c-0.4-0.4-0.4-0.7,0.1-1c0.5-0.2,0.8-0.1,1,0.3c-0.1,1-0.5,1.5-1.2,1.5c-0.6,0-1.1-0.3-1.5-1
		c-0.4-0.7-0.4-1.4-0.1-2c0.2,0,0.4,0,0.7,0.1c-0.1,1.2-0.3,1.7-0.4,1.6c0.3-0.5,0.5-1,0.6-1.4c0.1-0.6-0.2-0.9-1-0.8
		c0-0.7,0.3-1.1,1-1.3c0.7-0.2,1.2,0,1.5,0.6c-0.4,0-0.7,0.3-0.7,0.8c-0.1,0.5,0.1,0.8,0.7,0.8c0.1,0,0.2-0.1,0.4-0.4
		c-0.1-0.1-0.2-0.1-0.4-0.1c-0.2,0-0.3,0-0.4-0.1C54.8,18.7,54.9,18.5,55.3,18.5z M53.6,23.7c0-0.4-0.1-0.6-0.4-0.5
		c-0.4,0.1-0.4,0.3-0.1,0.6c0.1,0,0.2,0,0.3,0C53.5,23.7,53.6,23.7,53.6,23.7z M55.4,23.7c-0.1-0.3-0.1-0.6,0-0.9
		c-0.9,0-1.5,0-1.7,0.1c0.1,0.5,0.2,0.8,0.1,0.9C53.7,23.8,54.2,23.8,55.4,23.7z M56.3,23c-0.5-0.2-0.7-0.1-0.7,0.4
		c0.3,0.2,0.5,0.3,0.7,0.1V23z M56,13.9c-0.2,0.9-0.4,1.3-0.4,1.2c0,0,0.1,0,0.1,0.1c0.1,0.1,0.2,0.1,0.3,0.1
		c0.2-0.1,0.3-0.4,0.3-0.7C56.3,14.3,56.2,14.1,56,13.9z M55.8,20.2L55.8,20.2C55.8,20.1,55.8,20.2,55.8,20.2z M56.2,20.1
		C56.3,20.1,56.3,20.1,56.2,20.1C56.3,20.1,56.3,20.1,56.2,20.1z M57,21.6c1.1,0,1.4-0.4,1-1.2c-0.4-0.8-1-0.9-1.7-0.4
		c0.1,0,0.1-0.3,0.1-0.7c0-0.4,0-0.7,0.3-0.8c0.4,0,0.6,0.2,0.6,0.5c-0.1,0.1-0.2,0.1-0.4,0.1c-0.2,0-0.3,0-0.4,0.1
		c0.1,0.3,0.3,0.4,0.5,0.4c0.2,0,0.4-0.1,0.5-0.4c0.3-0.7,0.1-1.1-0.7-1.1c0.2-0.6,0.7-0.9,1.4-0.7c0.7,0.1,1,0.6,1.1,1.3
		c-0.7,0-1.1,0.2-1,0.8c0.1,0.8,0.2,1.3,0.2,1.3l0.4,0.1c0.2-0.2,0.2-0.5,0-0.8c-0.2-0.4-0.3-0.7-0.3-0.9c0,0,0.3-0.1,0.7-0.1
		c0.1,0.6,0.1,1.3-0.2,1.9c-0.3,0.7-0.7,1.1-1.3,1.1c-0.7,0-1.1-0.4-1.2-1.2c-0.1-0.7,0.3-0.9,1.2-0.5c0,0.2,0,0.5-0.3,0.8
		c-0.1,0-0.3,0-0.4-0.1c-0.1-0.1-0.2-0.1-0.3,0c0,0,0-0.1,0-0.1S56.9,21.3,57,21.6z M67.3,27.3c-2.5,0.7-5,0.4-7.3-1
		c-1.5-1-2.6-1.3-3.5-1.1c-0.3,0.9,0.4,2,2,3.1c2.5,1.9,5.3,2.5,8.3,1.8C67.3,29.3,67.4,28.4,67.3,27.3z M56.6,22.9
		c0.1,0.1,0.1,0.3,0.1,0.6c-0.1,0.2-0.1,0.4,0,0.4c-0.1,0,0.3,0,1.5,0c0.1-0.6,0.2-0.9,0.1-0.9C57.9,22.8,57.3,22.8,56.6,22.9z
		 M59.2,23.3c-0.1-0.2-0.2-0.2-0.4-0.1c-0.2,0-0.3,0.2-0.2,0.5c0,0,0.2,0.1,0.5,0.1C59.1,23.3,59.2,23.1,59.2,23.3z M61,24
		c0-0.1,0-0.2,0.1-0.3c0.1-0.1,0.1-0.3,0.1-0.4c-0.1,0-0.7-0.1-1.8-0.3c0,0.1,0,0.4-0.1,0.9c0.2,0,0.5,0,0.8,0.1
		C60.5,24,60.8,24,61,24z M60,22.3c-0.5-0.1-0.6-0.7-0.4-1.7c0.3-0.9,0.7-1.3,1.2-1.1c0.1,0.3,0,0.5-0.4,0.7
		c-0.5,0.2-0.7,0.5-0.7,0.8c0.1,0,0.4-0.2,0.7-0.4c0.3-0.2,0.5-0.4,0.7-0.4c0.3-0.4,0.2-0.9-0.1-1.2l0.8-0.1
		c0.5,0.6,0.5,1.4-0.1,2.3c-0.5,0.9-0.7,1.4-0.7,1.4S60.7,22.5,60,22.3z M60.8,16.9c-0.3,0.5-0.4,0.9-0.4,1c0.3,0.1,0.5,0,0.6-0.4
		C61,17.2,61,17,60.8,16.9z M62.8,39.5c0,0.5,0.2,0.8,0.7,0.7c0.5,0,0.8-0.3,0.8-0.7c-0.2,0-0.5,0-0.8,0
		C63.2,39.5,63,39.5,62.8,39.5z M69.1,72.4c-0.2-0.1-0.7-0.3-1.3-0.6c-0.5-0.2-1-0.4-1.4-0.5c0,0.2,0,0.4-0.1,0.7
		c-0.1,0.3-0.1,0.5-0.1,0.6c-0.8,0.6-1.3,0.9-1.3,1c0,0.1,0.8,0.4,2.2,1c0.2,0,0.6,0.2,1.2,0.5c0.4,0.2,0.8,0.3,1.1,0.4
		C68.8,74.9,68.8,73.9,69.1,72.4z M64.9,71.6c0,1,0,1.5-0.1,1.3c0.4-0.1,0.6-0.3,0.7-0.7C65.6,71.8,65.4,71.6,64.9,71.6z M67.1,25.9
		c0,0.1,0,0.3-0.1,0.6c0,0.2,0,0.4,0,0.5c0.2,0,0.4-0.2,0.4-0.5C67.5,26.2,67.4,26,67.1,25.9z M70.1,24.3c-0.2,0.1-0.7,0.3-1.5,0.4
		c-0.6,0.1-1.1,0.3-1.3,0.6c0.5,0.6,0.6,1.3,0.4,2.1c0.2,0,0.6-0.1,1-0.3s0.7-0.2,0.8-0.3c0.1-1.3,0.4-2.1,0.7-2.3
		C70.2,24.4,70.2,24.3,70.1,24.3z M69.3,74.1c-0.2,0.3-0.1,0.6,0.4,0.8c0,0.2,0-0.1,0.1-0.9C69.6,74,69.4,74,69.3,74.1z M70.3,70.6
		c-0.2,0.3-0.5,1.2-0.9,2.9c0.7,0.1,1.6,0.4,2.9,0.8c1.2,0.4,2.1,0.6,2.9,0.7c0-0.2-0.2-0.5-0.5-0.8c-0.3-0.4-0.6-0.8-0.7-1
		c1.4-0.6,2.1-0.9,2.2-1c-0.6-0.1-1.5-0.4-2.9-0.9C72.1,71,71.1,70.8,70.3,70.6z M76.7,25c-0.5,0-1.7,0.2-3.4,0.6
		c-1.4,0.2-2.5,0.4-3.4,0.4c0.1,1.9,0.1,2.7,0,2.6c0.7-0.2,1.9-0.4,3.5-0.6c1.7-0.2,2.8-0.4,3.5-0.6c0,0-0.6-0.3-1.7-0.9
		c0.1-0.2,0.4-0.5,0.9-0.9C76.5,25.4,76.7,25.1,76.7,25z M70.2,25.6c0.1,0,0.1-0.1,0.1-0.3c0-0.2,0-0.3-0.1-0.3
		C70.1,25.4,70.1,25.6,70.2,25.6z"/>
</g>
</svg>
