<?xml version="1.0" encoding="UTF-8" ?>
<!DOCTYPE svg PUBLIC "-//W3C//DTD SVG 1.1//EN" "http://www.w3.org/Graphics/SVG/1.1/DTD/svg11.dtd">
<svg width="300pt" height="300pt" viewBox="0 0 300 300" version="1.1" xmlns="http://www.w3.org/2000/svg">
<path fill="#ffffff" d=" M 0.00 0.00 L 300.00 0.00 L 300.00 300.00 L 0.00 300.00 L 0.00 0.00 Z" />
<path fill="#000000" d=" M 124.35 58.44 C 131.13 56.83 137.92 54.43 144.99 54.98 C 151.12 55.32 157.21 56.58 163.03 58.52 C 163.09 64.14 170.61 65.85 171.78 71.25 C 170.07 71.32 168.36 71.39 166.66 71.45 C 168.84 76.50 173.80 79.72 175.72 84.87 C 183.97 84.86 192.25 84.77 200.46 83.81 C 201.23 79.30 201.10 74.65 202.23 70.20 C 205.28 63.06 212.91 57.17 221.00 58.78 C 226.73 59.46 230.07 64.52 233.18 68.79 C 243.10 82.36 247.12 99.03 251.03 115.09 C 252.47 120.01 251.71 125.22 253.18 130.13 C 254.58 155.13 250.36 180.01 245.95 204.54 C 246.88 204.73 248.76 205.12 249.70 205.31 C 248.95 208.84 243.79 208.35 243.38 211.98 C 242.80 215.55 242.29 219.20 240.21 222.26 C 240.70 224.24 243.54 224.29 245.12 225.12 C 248.69 225.94 251.69 228.09 255.04 229.48 C 254.77 229.84 254.25 230.57 253.99 230.93 C 248.68 233.03 242.99 233.79 237.50 235.27 C 236.10 243.43 234.53 251.58 233.74 259.84 C 230.39 258.62 227.92 255.77 226.80 252.45 C 225.10 247.61 225.49 242.40 225.61 237.36 C 223.86 240.70 223.50 244.52 222.78 248.17 C 221.33 246.60 220.13 244.69 218.26 243.58 C 174.82 245.27 131.34 246.41 87.89 248.09 C 86.64 250.39 85.69 253.04 83.35 254.50 C 82.39 251.56 82.00 248.45 80.79 245.59 C 80.03 250.34 80.29 255.42 77.86 259.74 C 76.60 262.20 74.30 263.83 71.96 265.18 C 70.78 258.32 70.49 251.27 68.42 244.59 C 67.07 244.60 65.72 244.62 64.37 244.64 C 64.57 243.30 64.73 241.96 64.84 240.62 C 64.07 240.36 62.51 239.84 61.74 239.58 C 64.84 238.50 68.57 238.86 71.36 237.20 L 71.52 236.55 C 69.16 236.77 66.83 237.22 64.49 237.64 C 65.13 235.88 64.60 234.93 62.91 234.78 C 60.57 234.14 58.14 234.63 55.77 234.78 C 56.29 233.34 56.80 231.90 57.27 230.45 C 55.71 230.45 54.15 230.44 52.59 230.41 C 54.15 228.29 56.83 229.56 59.02 229.40 C 68.96 229.19 78.86 228.09 88.79 227.87 C 88.12 228.38 86.79 229.40 86.12 229.91 C 88.04 231.15 90.10 232.54 92.55 231.82 C 92.42 232.13 92.14 232.75 92.01 233.06 C 89.10 233.21 86.23 233.76 83.48 234.72 C 83.51 235.24 83.55 236.27 83.58 236.78 C 79.06 237.32 74.58 238.14 70.09 238.84 C 67.90 238.89 66.73 240.81 65.63 242.42 C 70.55 241.87 75.33 240.53 80.22 239.83 C 81.63 239.21 82.78 240.37 83.92 240.95 L 80.94 241.18 C 81.91 244.28 83.10 247.30 84.62 250.16 C 86.89 247.41 87.60 243.72 87.28 240.24 C 86.36 240.29 84.53 240.39 83.61 240.45 C 83.68 240.08 83.82 239.34 83.89 238.98 C 85.97 238.98 87.43 237.56 88.74 236.14 C 87.56 236.21 85.21 236.35 84.04 236.42 L 84.36 235.16 C 98.61 232.71 112.92 230.44 127.02 227.28 C 115.84 228.78 104.62 230.16 93.59 232.63 C 93.13 231.49 92.84 230.25 93.17 229.02 C 92.26 228.71 90.42 228.09 89.50 227.78 C 100.08 226.56 110.88 227.42 121.33 225.26 C 114.17 225.13 107.04 225.86 99.91 226.16 C 98.59 226.39 97.39 225.79 96.19 225.39 C 99.27 225.42 97.77 221.17 100.33 220.77 C 103.45 220.50 106.58 220.67 109.70 220.75 C 109.54 220.56 109.21 220.18 109.04 219.99 C 108.87 219.24 108.52 217.75 108.35 217.01 C 106.71 216.95 105.24 217.42 103.93 218.40 C 104.97 215.73 102.44 213.71 101.85 211.30 C 101.33 211.88 100.81 212.45 100.28 213.03 C 100.70 214.94 101.07 216.87 101.40 218.81 C 102.47 218.84 104.62 218.90 105.70 218.93 C 103.70 220.74 100.80 220.06 98.36 220.39 C 96.27 221.92 95.52 224.02 96.19 226.53 C 95.27 226.48 93.42 226.37 92.50 226.32 C 92.69 224.86 92.86 223.41 93.02 221.95 L 93.62 223.30 C 93.99 222.82 94.72 221.85 95.09 221.37 C 90.37 221.16 85.62 221.17 80.92 220.61 C 78.35 220.36 75.65 219.97 73.22 221.13 C 71.42 220.47 69.59 219.87 67.84 219.09 C 74.39 218.48 80.88 220.13 87.44 219.62 C 84.65 219.11 81.82 218.83 79.09 218.05 C 83.18 217.16 87.34 218.23 91.44 218.56 C 91.47 218.94 91.55 219.69 91.59 220.07 L 91.87 218.65 C 94.42 218.88 96.97 218.99 99.52 219.04 C 98.66 208.51 95.00 198.46 93.97 187.95 C 94.05 186.42 93.24 185.20 92.13 184.23 C 91.80 192.32 94.66 200.05 95.62 208.01 C 93.96 204.19 93.59 199.82 91.66 196.19 C 91.47 196.36 91.08 196.70 90.89 196.87 C 91.24 202.82 93.51 208.50 94.37 214.40 C 95.50 215.63 96.62 216.86 97.62 218.20 C 95.44 217.01 93.62 214.96 91.00 214.81 C 84.46 213.87 77.77 214.86 71.28 213.34 C 72.26 217.28 76.41 217.08 79.57 217.71 C 75.86 217.96 72.12 218.21 68.42 217.75 C 69.79 217.24 71.18 216.79 72.59 216.40 C 71.36 215.24 70.17 214.04 69.02 212.81 C 69.99 212.55 71.92 212.04 72.89 211.78 C 70.90 204.15 68.60 196.59 66.82 188.91 C 65.42 183.35 65.45 177.48 63.29 172.11 C 62.65 172.60 61.38 173.57 60.74 174.05 C 60.77 177.82 62.92 181.33 63.35 185.12 C 64.69 193.32 67.33 201.21 69.51 209.21 C 67.24 205.16 66.72 200.44 64.91 196.20 C 62.01 189.59 61.60 182.12 58.29 175.68 C 59.06 188.53 64.50 200.50 66.55 213.13 C 62.53 201.37 59.19 189.38 55.75 177.44 C 55.43 177.84 54.78 178.63 54.45 179.02 C 55.82 183.22 56.73 187.54 57.55 191.87 C 59.34 201.83 63.36 211.23 65.00 221.23 C 67.45 221.70 70.34 221.35 72.19 223.35 C 79.04 222.98 85.94 224.61 92.72 223.29 C 92.24 224.52 91.77 225.77 91.33 227.02 C 84.39 223.39 76.31 225.60 68.83 225.00 C 68.83 224.39 68.83 223.18 68.83 222.58 C 64.90 222.48 60.99 222.93 57.07 223.14 C 57.56 224.12 58.04 225.11 58.53 226.10 C 56.71 225.00 54.99 223.67 54.13 221.65 C 57.05 221.37 59.99 221.38 62.92 221.37 C 59.55 210.30 56.31 199.17 53.63 187.91 C 51.36 176.36 49.58 164.71 48.46 153.00 C 45.91 134.91 49.07 116.69 53.09 99.07 C 54.18 92.64 56.40 86.42 59.76 80.83 C 62.86 75.48 65.40 69.25 70.99 65.99 C 74.92 63.71 79.42 61.64 84.06 62.12 C 87.17 62.22 89.04 64.89 91.54 66.31 C 93.96 67.61 95.14 70.28 95.79 72.81 C 96.80 77.30 97.21 81.90 98.17 86.40 C 108.00 86.52 117.83 86.69 127.65 86.54 C 130.91 85.57 132.66 79.16 128.48 78.34 C 121.84 76.84 114.59 76.19 107.98 78.20 C 106.11 75.88 104.13 73.16 104.75 69.98 C 105.08 66.90 108.30 65.56 110.93 64.98 C 114.45 64.30 118.07 64.25 121.59 63.54 C 122.58 61.88 123.13 59.96 124.35 58.44 Z" />
<path fill="#ffffff" d=" M 134.07 57.40 C 142.22 56.68 150.50 57.00 158.44 59.05 C 161.24 62.93 165.43 65.51 168.28 69.36 C 166.46 69.34 164.64 69.34 162.82 69.34 C 166.54 73.54 169.00 78.60 172.31 83.10 C 168.49 81.94 166.91 78.00 163.92 75.73 C 165.29 79.21 167.83 81.97 170.06 84.89 C 171.90 89.00 174.60 92.64 176.45 96.74 C 175.58 96.61 173.84 96.35 172.97 96.22 C 174.83 99.95 177.59 103.13 179.61 106.77 C 178.85 106.79 177.33 106.84 176.58 106.86 C 177.66 110.80 179.04 114.70 179.12 118.84 C 177.59 117.86 176.10 116.83 174.63 115.77 C 172.60 118.08 171.61 121.01 170.20 123.68 C 167.89 121.31 165.73 118.79 163.40 116.44 C 161.85 118.56 160.97 121.04 159.98 123.44 C 157.64 121.79 155.72 119.67 153.62 117.75 C 152.11 119.89 150.57 122.04 148.74 123.93 C 148.06 122.17 147.49 120.38 146.91 118.59 C 144.41 119.82 142.45 121.81 140.25 123.46 C 140.20 121.08 140.26 118.71 140.12 116.33 C 137.76 118.46 135.69 120.92 133.02 122.70 C 132.68 121.24 132.35 119.77 132.02 118.31 C 129.87 119.37 127.81 120.58 125.69 121.69 C 125.43 119.18 125.33 116.67 125.40 114.15 C 123.89 114.42 122.37 114.67 120.86 114.92 C 123.91 107.08 127.74 99.56 130.91 91.78 C 130.39 91.36 129.35 90.52 128.83 90.09 C 130.74 86.02 134.70 80.99 130.99 76.72 C 124.23 76.16 117.43 75.93 110.70 75.10 C 115.67 71.16 122.63 73.50 128.29 74.27 C 128.04 73.10 127.78 71.93 127.51 70.77 C 121.31 73.70 113.35 69.64 108.04 74.80 C 106.23 72.83 105.72 68.76 108.52 67.49 C 113.85 65.48 119.68 65.80 125.19 64.57 C 126.57 65.74 128.01 67.34 130.04 67.01 C 133.42 67.01 135.89 64.47 138.79 63.14 C 138.79 62.95 138.79 62.58 138.79 62.40 C 133.95 62.26 129.08 62.79 124.26 62.14 C 126.45 58.87 130.40 57.85 134.07 57.40 Z" />
<path fill="#ffffff" d=" M 208.96 64.97 C 214.04 59.64 223.45 60.48 228.12 65.91 C 233.88 73.85 239.13 82.36 241.73 91.91 C 242.79 96.19 244.71 100.23 245.21 104.65 C 239.62 103.40 236.40 98.36 234.31 93.45 C 230.66 87.61 228.45 81.05 225.96 74.66 C 229.13 78.13 230.56 82.82 233.74 86.31 C 231.98 82.33 229.55 78.64 228.39 74.41 C 227.61 71.36 225.71 68.83 223.88 66.34 C 222.27 67.75 220.98 69.48 219.69 71.18 C 219.66 70.02 219.60 67.70 219.57 66.55 C 218.24 68.30 217.11 70.18 215.89 72.01 C 215.69 71.24 215.29 69.70 215.09 68.94 C 212.35 71.74 213.17 75.73 212.77 79.25 C 211.25 77.34 211.64 74.93 211.54 72.68 C 211.21 75.50 210.85 78.31 210.08 81.05 C 209.54 80.60 208.47 79.70 207.93 79.25 C 207.56 81.28 209.83 84.68 206.77 85.51 C 206.87 87.21 206.97 88.92 207.06 90.63 C 206.47 90.64 205.31 90.67 204.72 90.68 C 205.16 93.12 205.93 95.47 206.73 97.80 C 206.25 97.37 205.29 96.51 204.81 96.08 C 204.59 98.19 204.60 100.79 201.67 100.23 C 201.65 101.50 201.63 102.78 201.62 104.06 C 197.64 104.55 199.34 109.77 198.33 112.54 C 197.67 110.77 197.19 108.93 196.63 107.12 C 195.81 109.14 195.23 111.24 194.55 113.30 C 194.16 112.22 193.79 111.14 193.46 110.04 C 193.58 112.82 191.70 115.03 190.27 117.22 C 189.87 115.80 189.47 114.38 189.08 112.95 C 187.23 115.37 187.11 118.46 186.39 121.30 C 185.98 118.96 186.10 116.58 186.06 114.22 C 185.10 115.21 184.16 116.22 183.24 117.25 C 179.52 116.52 180.50 112.05 179.19 109.34 C 186.03 108.56 192.32 105.00 196.79 99.81 C 201.51 94.35 202.09 86.81 203.11 79.97 C 203.18 74.49 204.66 68.68 208.96 64.97 Z" />
<path fill="#ffffff" d=" M 132.25 63.27 C 133.64 63.88 133.61 64.49 132.15 65.11 C 130.75 64.51 130.78 63.90 132.25 63.27 Z" />
<path fill="#ffffff" d=" M 65.18 75.24 C 69.06 70.45 73.74 65.49 80.13 64.47 C 86.14 63.88 92.07 68.18 93.88 73.86 C 95.04 76.97 94.34 80.39 95.27 83.56 C 97.00 90.54 97.94 98.40 103.40 103.65 C 108.01 108.39 115.02 109.21 121.30 109.28 C 120.50 111.42 119.53 113.49 118.58 115.57 C 120.60 115.81 122.63 116.02 124.66 116.25 C 124.74 117.73 124.75 119.22 124.68 120.70 C 123.85 120.41 122.19 119.83 121.36 119.54 C 121.41 120.58 121.50 122.66 121.54 123.70 C 120.15 122.06 118.90 120.30 117.50 118.67 C 117.65 120.60 117.82 122.54 118.01 124.47 C 116.29 122.32 114.88 119.93 112.92 117.97 C 112.92 119.22 112.91 121.71 112.90 122.96 C 111.53 121.13 110.33 119.18 108.89 117.40 C 109.11 119.39 109.54 121.35 109.56 123.36 C 107.91 120.95 107.10 118.12 105.78 115.56 C 105.46 117.83 105.32 120.15 104.66 122.36 C 104.29 119.15 104.25 115.78 102.50 112.95 C 102.13 114.72 101.88 116.51 101.33 118.24 C 100.53 115.41 101.12 112.33 99.74 109.65 C 99.39 110.58 98.68 112.43 98.33 113.35 C 97.84 110.96 97.52 108.54 97.42 106.10 C 96.78 107.57 96.05 109.00 95.25 110.39 C 94.88 106.98 95.44 103.55 94.94 100.15 C 93.95 101.69 93.42 103.44 92.80 105.14 C 92.38 103.12 92.37 101.04 92.55 98.99 C 92.93 95.86 91.10 93.05 91.10 89.93 C 90.41 91.44 89.74 92.96 89.01 94.45 C 88.48 90.06 90.69 85.88 89.95 81.50 C 89.03 83.06 88.26 84.71 87.37 86.29 C 87.32 82.83 87.70 79.38 87.49 75.92 C 86.68 77.59 86.02 79.31 85.27 81.01 C 84.90 78.23 84.58 75.44 84.01 72.70 C 83.69 74.16 83.46 75.64 83.18 77.12 C 82.16 74.49 81.05 71.87 78.99 69.87 C 79.25 71.68 79.52 73.49 79.80 75.29 C 78.11 73.42 76.63 71.31 74.47 69.94 C 74.86 70.85 75.64 72.66 76.03 73.57 C 75.23 73.60 73.65 73.65 72.86 73.67 C 74.02 77.39 71.25 80.57 70.13 83.92 C 66.16 92.74 63.46 103.68 53.89 108.16 C 54.03 102.40 55.89 96.90 57.55 91.43 C 59.32 85.72 61.33 79.92 65.18 75.24 Z" />
<path fill="#000000" d=" M 119.26 68.20 C 119.04 66.45 122.05 65.88 123.23 66.77 C 123.37 68.41 120.44 68.59 119.26 68.20 Z" />
<path fill="#ffffff" d=" M 222.92 73.84 C 227.76 81.33 229.93 90.15 234.48 97.80 C 233.91 99.39 233.35 100.98 232.77 102.56 C 228.51 99.74 226.64 94.82 224.36 90.49 C 222.27 85.96 219.43 81.77 218.11 76.91 C 224.29 80.87 224.74 89.14 229.73 94.17 C 228.17 87.14 223.10 81.20 222.92 73.84 Z" />
<path fill="#000000" d=" M 68.02 78.95 C 68.18 77.43 69.58 76.79 70.69 76.05 C 68.82 82.52 66.35 88.86 63.52 94.97 C 64.64 89.53 66.43 84.26 68.02 78.95 Z" />
<path fill="#ffffff" d=" M 69.35 90.51 C 70.86 85.79 72.33 81.00 75.03 76.79 C 74.10 84.29 71.26 91.37 69.94 98.78 C 71.85 95.60 72.97 92.02 74.12 88.52 C 74.55 89.02 74.97 89.52 75.40 90.02 C 73.48 95.71 72.90 102.76 67.50 106.41 C 65.10 107.97 64.00 104.65 63.29 103.01 C 65.67 99.04 67.99 94.97 69.35 90.51 Z" />
<path fill="#000000" d=" M 154.87 79.43 C 158.23 81.59 158.06 87.26 162.64 87.60 C 161.65 88.17 160.50 89.69 159.27 88.69 C 156.97 86.10 156.08 82.60 154.87 79.43 Z" />
<path fill="#ffffff" d=" M 217.58 80.50 C 222.64 87.00 224.06 95.50 228.95 102.12 C 228.69 103.53 228.41 104.93 228.12 106.33 C 226.17 105.76 224.06 105.04 223.11 103.08 C 220.70 98.54 217.09 94.58 215.87 89.48 C 215.44 89.97 215.02 90.47 214.60 90.97 C 217.06 95.68 218.92 100.72 222.02 105.09 C 224.18 108.10 222.77 112.20 220.46 114.70 C 217.71 111.13 215.83 107.01 213.67 103.08 C 212.17 100.07 210.31 97.11 209.88 93.70 C 213.23 97.74 215.86 102.36 219.50 106.21 C 216.84 100.15 214.60 93.93 212.16 87.79 C 212.85 88.06 214.22 88.61 214.91 88.88 C 214.37 87.55 213.29 84.88 212.75 83.54 C 215.02 84.07 215.71 86.33 216.93 87.95 C 219.33 91.39 221.61 94.93 224.13 98.29 C 222.19 92.27 218.17 86.96 217.58 80.50 Z" />
<path fill="#ffffff" d=" M 74.26 88.50 C 75.18 86.05 75.91 83.39 77.74 81.43 C 77.29 83.66 76.57 85.83 76.13 88.06 C 75.66 88.17 74.73 88.39 74.26 88.50 Z" />
<path fill="#ffffff" d=" M 78.37 85.41 C 78.80 85.15 79.67 84.63 80.10 84.37 C 79.35 90.25 77.23 95.81 76.04 101.58 C 78.75 98.31 79.11 93.64 82.49 90.86 C 81.41 95.69 79.08 100.10 77.78 104.86 C 77.12 107.58 75.08 109.58 72.68 110.88 C 71.83 109.95 71.00 109.00 70.19 108.04 C 74.09 100.94 75.81 93.01 78.37 85.41 Z" />
<path fill="#000000" d=" M 151.36 89.76 C 153.53 93.29 153.81 97.50 155.27 101.30 C 155.98 101.35 157.41 101.46 158.12 101.52 C 157.56 102.29 157.00 103.06 156.45 103.83 C 155.03 103.44 153.03 103.37 152.86 101.38 C 151.71 102.72 150.75 104.28 149.28 105.30 C 144.68 102.24 145.87 95.97 145.38 91.25 C 147.24 95.12 146.82 99.94 149.80 103.30 C 150.06 102.85 150.59 101.95 150.85 101.50 C 151.29 101.44 152.17 101.31 152.61 101.25 C 151.71 97.48 151.65 93.60 151.36 89.76 Z" />
<path fill="#000000" d=" M 156.63 89.85 C 160.18 92.44 159.83 97.31 162.01 100.81 C 162.58 100.37 163.71 99.51 164.28 99.08 C 163.90 100.53 163.46 101.97 162.99 103.40 C 157.95 100.82 158.00 94.64 156.63 89.85 Z" />
<path fill="#ffffff" d=" M 80.80 101.09 C 82.43 97.55 83.04 93.40 86.01 90.62 C 84.80 97.56 82.09 104.12 80.46 110.96 C 82.51 108.25 83.56 104.85 86.15 102.54 C 85.31 108.84 82.49 114.69 79.21 120.06 C 77.45 117.85 76.11 115.36 74.88 112.83 C 77.98 109.49 78.71 104.99 80.80 101.09 Z" />
<path fill="#000000" d=" M 163.10 90.52 C 165.36 94.08 167.06 98.00 168.21 102.06 C 165.12 99.02 163.83 94.67 163.10 90.52 Z" />
<path fill="#000000" d=" M 139.26 95.41 C 140.66 98.19 140.66 101.41 141.89 104.26 C 142.61 104.18 144.04 104.01 144.75 103.93 C 144.69 106.25 141.88 107.72 140.35 105.62 C 138.67 102.53 138.83 98.80 139.26 95.41 Z" />
<path fill="#000000" d=" M 170.35 99.03 C 171.58 99.71 171.57 100.43 170.30 101.18 C 169.08 100.50 169.10 99.78 170.35 99.03 Z" />
<path fill="#000000" d=" M 133.67 99.13 C 134.71 101.43 133.45 103.79 133.06 106.09 C 132.42 108.31 132.65 110.63 132.72 112.91 C 132.25 112.65 131.30 112.14 130.82 111.88 C 130.22 107.42 132.38 103.27 133.67 99.13 Z" />
<path fill="#ffffff" d=" M 209.86 99.16 C 212.87 102.86 213.76 107.74 216.60 111.54 C 217.94 113.52 219.73 115.52 219.68 118.07 C 219.57 120.34 218.26 122.30 217.27 124.27 C 215.54 122.74 214.20 120.84 213.24 118.74 C 211.31 114.49 208.10 110.83 206.95 106.23 C 210.83 108.17 212.38 112.40 215.13 115.48 C 214.77 109.58 210.14 105.04 209.86 99.16 Z" />
<path fill="#ffffff" d=" M 235.48 100.29 C 236.59 101.30 237.35 102.59 237.71 104.04 C 241.79 117.40 244.20 131.23 245.61 145.11 C 246.03 138.45 244.56 131.84 244.18 125.21 C 244.96 125.26 246.07 125.06 246.23 126.12 C 247.66 132.45 247.60 138.94 248.49 145.33 C 249.86 143.00 248.73 140.42 248.57 137.94 C 249.01 127.37 246.12 117.08 244.40 106.74 C 246.74 107.40 246.90 110.11 247.42 112.08 C 250.41 131.26 252.00 151.01 248.39 170.21 C 243.63 165.81 243.92 158.93 243.29 153.00 C 242.73 147.75 242.41 142.49 242.22 137.22 L 242.81 137.11 C 242.17 136.91 240.90 136.49 240.26 136.29 C 241.26 144.50 242.03 152.77 241.91 161.05 C 241.98 162.71 241.28 164.24 240.54 165.68 C 236.53 162.33 236.72 156.76 236.58 152.01 C 236.64 147.73 235.78 143.51 234.60 139.41 C 235.29 139.41 235.98 139.49 236.67 139.49 C 236.11 136.05 235.57 132.55 234.81 129.14 C 232.73 129.74 232.69 131.22 234.69 133.59 C 234.25 133.47 233.36 133.22 232.91 133.09 C 231.53 123.91 226.90 115.66 223.81 107.00 C 225.44 107.95 228.00 108.26 228.33 110.50 C 230.13 116.67 232.03 122.84 233.20 129.16 C 235.27 125.65 233.08 121.69 232.58 118.05 C 232.75 118.19 233.10 118.46 233.28 118.59 C 235.83 123.26 236.13 128.55 236.84 133.70 C 238.33 133.69 240.03 133.97 240.40 135.72 C 240.68 135.65 241.26 135.51 241.55 135.44 C 241.61 129.74 239.11 124.48 238.68 118.84 C 238.35 115.42 237.08 112.20 236.17 108.92 C 235.74 108.81 234.87 108.61 234.44 108.51 C 236.13 116.23 238.43 123.81 239.73 131.62 C 239.35 131.64 238.59 131.67 238.21 131.68 C 236.56 122.50 234.23 113.46 232.51 104.30 C 233.40 105.61 233.95 107.05 234.16 108.63 C 234.53 108.04 234.89 107.45 235.25 106.85 C 234.88 104.66 235.08 102.46 235.48 100.29 Z" />
<path fill="#ffffff" d=" M 61.55 105.28 C 61.95 105.03 62.75 104.53 63.15 104.28 C 62.80 108.20 60.33 112.51 62.80 116.16 L 63.95 113.20 C 64.03 116.82 63.47 120.44 63.59 124.06 C 65.72 128.67 64.58 133.82 64.51 138.69 L 65.50 138.36 C 65.60 138.81 65.80 139.71 65.90 140.16 L 66.08 140.93 C 65.74 149.66 64.78 158.36 64.91 167.11 C 64.98 169.88 62.38 171.19 60.09 171.86 C 59.92 155.85 60.19 139.82 61.60 123.87 C 61.83 120.83 63.27 117.49 61.12 114.84 C 60.64 120.59 58.63 126.16 58.82 131.98 C 59.10 144.69 57.99 157.38 58.62 170.08 C 58.73 172.83 56.91 174.97 54.59 176.18 C 51.25 162.07 49.80 147.47 50.38 132.98 C 50.59 126.59 52.03 120.32 52.43 113.95 C 52.35 112.22 53.51 110.86 54.47 109.57 C 54.09 123.10 52.62 136.62 52.61 150.18 C 54.01 139.41 54.33 128.53 55.81 117.77 C 56.32 114.34 56.29 110.64 58.26 107.63 C 57.14 120.87 55.56 134.12 55.65 147.43 C 56.60 144.04 56.57 140.49 56.96 137.02 C 57.63 126.34 59.13 115.71 61.55 105.28 Z" />
<path fill="#ffffff" d=" M 80.85 123.12 C 82.79 116.32 85.62 109.80 89.02 103.60 C 89.66 109.49 85.98 114.53 85.31 120.22 C 87.67 117.29 88.61 113.35 91.82 111.12 C 89.79 117.22 87.37 123.19 85.10 129.21 C 83.46 128.15 82.60 126.23 81.15 125.08 C 79.57 126.94 79.96 129.56 79.68 131.79 C 80.23 130.83 81.32 128.90 81.87 127.94 C 82.08 128.95 82.59 130.01 82.18 131.05 C 80.91 135.95 79.25 140.76 78.47 145.77 C 77.25 152.17 76.50 158.92 73.05 164.59 C 72.94 161.37 73.19 158.15 73.62 154.95 C 73.06 154.45 72.49 153.95 71.93 153.45 C 70.98 158.54 72.99 166.15 66.70 168.35 C 66.32 161.53 67.25 154.73 67.44 147.92 C 68.39 139.78 68.07 131.37 70.83 123.54 C 71.01 130.18 69.36 136.76 70.02 143.39 C 71.41 135.97 72.31 128.46 73.56 121.01 C 73.81 120.61 74.31 119.83 74.56 119.44 C 74.33 127.26 72.71 134.90 71.43 142.59 C 71.73 142.68 72.31 142.87 72.61 142.96 C 74.02 135.25 75.10 127.44 77.21 119.88 C 77.50 120.71 78.08 122.36 78.37 123.19 C 79.20 123.20 80.02 123.17 80.85 123.12 Z" />
<path fill="#000000" d=" M 165.60 104.71 C 167.99 106.81 169.73 109.50 171.20 112.30 C 169.83 112.07 168.00 112.13 167.31 110.65 C 166.34 108.81 166.08 106.71 165.60 104.71 Z" />
<path fill="#000000" d=" M 137.83 115.09 C 134.27 113.00 135.91 108.74 137.16 105.74 C 137.86 108.80 138.20 111.95 137.83 115.09 Z" />
<path fill="#000000" d=" M 157.97 105.53 C 159.44 108.90 162.69 111.31 163.36 115.01 C 159.47 113.57 157.57 109.52 157.97 105.53 Z" />
<path fill="#ffffff" d=" M 241.41 105.20 C 244.12 110.68 244.08 117.01 245.73 122.83 C 245.16 123.54 244.60 124.26 244.04 124.98 C 243.54 118.34 241.95 111.84 241.41 105.20 Z" />
<path fill="#000000" d=" M 144.95 106.63 C 146.09 109.80 146.62 113.15 147.98 116.25 C 143.84 115.08 143.37 110.02 144.95 106.63 Z" />
<path fill="#000000" d=" M 150.89 107.82 C 151.87 110.49 154.67 112.64 154.66 115.49 C 150.74 115.15 150.38 110.89 150.89 107.82 Z" />
<path fill="#ffffff" d=" M 69.60 109.54 C 70.43 114.07 68.83 118.59 68.48 123.10 C 67.56 128.31 67.41 133.81 66.33 138.89 C 65.81 136.58 66.29 134.20 66.45 131.88 C 67.48 124.43 67.90 116.88 69.60 109.54 Z" />
<path fill="#ffffff" d=" M 203.45 116.46 C 202.46 114.53 200.29 112.32 202.19 110.24 C 206.32 114.50 208.34 120.20 211.72 125.00 C 210.86 121.23 208.96 117.77 208.53 113.91 C 211.10 117.30 213.02 121.16 214.80 125.01 C 216.43 128.40 214.83 132.33 211.77 134.23 C 208.43 128.57 206.92 122.05 203.45 116.46 Z" />
<path fill="#ffffff" d=" M 92.79 113.87 C 93.07 119.79 90.69 125.38 90.31 131.23 C 92.72 127.33 92.59 122.26 95.93 118.88 C 94.87 125.39 92.78 131.68 90.79 137.95 C 88.92 136.46 86.78 134.72 87.01 132.04 C 87.02 125.62 89.61 119.36 92.79 113.87 Z" />
<path fill="#ffffff" d=" M 224.13 113.49 C 228.25 119.94 229.69 127.72 231.82 134.99 C 231.30 134.64 230.27 133.95 229.75 133.60 C 229.70 131.23 228.98 128.93 227.89 126.84 C 227.87 127.84 227.82 129.84 227.80 130.84 C 227.53 129.97 226.99 128.24 226.72 127.37 C 226.25 128.94 225.82 130.54 225.14 132.04 C 224.87 130.34 224.61 128.64 224.36 126.93 C 223.94 126.30 223.12 125.03 222.70 124.39 C 224.60 125.29 225.88 124.06 225.74 121.82 C 225.75 122.51 225.77 123.89 225.78 124.58 L 227.71 124.81 C 226.48 121.05 225.17 117.31 224.13 113.49 Z" />
<path fill="#ffffff" d=" M 200.89 115.00 C 204.60 121.07 206.93 127.90 209.41 134.54 C 210.58 137.47 208.57 140.19 206.33 141.87 C 205.29 141.08 204.99 139.71 204.45 138.59 C 201.65 131.28 198.31 124.16 196.05 116.65 C 200.26 121.91 201.81 128.82 206.28 133.93 C 204.56 127.60 202.27 121.41 200.89 115.00 Z" />
<path fill="#ffffff" d=" M 97.98 117.84 C 99.26 124.26 96.04 130.58 96.57 137.06 C 98.54 132.46 99.35 127.33 102.40 123.24 C 102.08 124.44 102.01 125.64 102.17 126.83 C 102.60 126.56 103.46 126.02 103.89 125.75 C 105.30 130.82 103.08 136.15 103.64 141.36 C 105.34 137.26 105.76 132.72 107.83 128.75 C 108.00 135.44 105.51 141.83 105.33 148.52 C 102.84 147.89 100.64 146.53 99.40 144.21 C 100.97 139.25 101.94 134.08 102.29 128.89 L 101.83 128.75 C 101.63 128.94 101.22 129.33 101.02 129.52 C 99.90 134.13 99.05 138.81 97.56 143.33 C 96.03 142.68 94.27 142.11 93.46 140.52 C 92.38 138.38 93.38 135.99 94.04 133.89 C 95.93 128.68 96.05 123.03 97.98 117.84 Z" />
<path fill="#ffffff" d=" M 220.95 118.21 C 222.33 117.44 223.47 119.85 222.68 120.86 C 221.31 121.56 219.99 119.24 220.95 118.21 Z" />
<path fill="#ffffff" d=" M 152.04 122.18 C 152.43 122.38 153.19 122.79 153.57 122.99 C 154.18 125.54 154.52 128.31 156.17 130.44 C 156.22 128.47 156.12 126.50 156.17 124.53 C 158.14 126.64 158.47 129.63 159.74 132.14 C 159.91 129.96 159.81 127.78 159.99 125.60 C 160.74 126.67 161.46 127.77 162.15 128.87 C 162.31 126.71 162.41 124.53 162.68 122.37 C 166.01 126.16 164.08 132.98 160.07 135.52 C 154.27 134.54 152.07 127.34 152.04 122.18 Z" />
<path fill="#ffffff" d=" M 175.36 121.75 C 176.37 122.46 177.37 123.21 178.38 123.95 C 178.43 123.09 178.53 121.35 178.58 120.48 C 180.75 122.86 181.75 126.60 179.61 129.32 C 179.15 128.49 178.22 126.83 177.76 125.99 C 176.23 128.96 174.68 131.91 173.10 134.84 C 168.58 132.96 165.93 128.26 166.04 123.46 C 167.37 125.22 168.16 127.30 169.15 129.25 C 169.64 128.11 170.12 126.97 170.61 125.83 C 170.67 127.73 171.30 129.36 172.51 130.73 C 172.58 128.32 172.44 125.92 172.44 123.51 C 173.37 125.12 174.08 126.84 174.94 128.49 C 175.13 126.24 175.20 123.99 175.36 121.75 Z" />
<path fill="#ffffff" d=" M 184.42 121.66 C 187.54 128.31 190.31 135.16 192.56 142.15 C 192.28 140.25 192.73 138.47 193.80 136.89 C 194.32 141.11 197.17 145.12 196.21 149.45 C 195.35 149.74 193.61 150.31 192.75 150.60 C 190.04 142.57 187.64 134.43 185.57 126.21 C 185.32 126.39 184.83 126.76 184.58 126.94 C 185.27 125.20 184.69 123.41 184.42 121.66 Z" />
<path fill="#000000" d=" M 78.16 123.53 C 79.45 123.66 79.65 124.39 78.77 125.71 C 77.44 125.67 77.24 124.94 78.16 123.53 Z" />
<path fill="#ffffff" d=" M 133.95 129.17 C 135.03 127.19 135.26 124.43 137.60 123.45 C 136.53 127.72 134.38 131.75 131.04 134.67 C 127.71 132.59 125.48 129.00 126.06 124.96 C 126.84 125.90 127.61 126.85 128.38 127.81 C 129.00 126.79 129.65 125.79 130.31 124.81 C 130.56 126.82 130.70 128.85 130.98 130.87 C 131.95 128.99 132.31 126.89 132.95 124.89 C 133.35 126.31 133.64 127.72 133.95 129.17 Z" />
<path fill="#ffffff" d=" M 196.20 123.55 C 198.58 126.97 199.62 131.05 201.10 134.89 C 202.11 137.83 203.48 140.87 202.90 144.05 C 202.18 145.71 200.28 146.25 198.88 147.15 C 196.94 139.52 193.51 132.34 191.95 124.62 C 194.82 129.03 196.46 134.09 199.02 138.67 C 199.42 133.40 196.16 128.78 196.20 123.55 Z" />
<path fill="#ffffff" d=" M 122.23 124.93 C 122.55 125.01 123.19 125.17 123.51 125.25 C 121.53 133.97 121.00 142.97 121.71 151.88 C 120.20 152.07 118.52 152.81 117.14 151.79 C 114.94 150.75 115.19 148.00 115.14 145.98 C 115.26 139.47 115.38 132.80 117.16 126.49 C 117.96 133.09 117.40 139.80 118.57 146.35 C 118.78 139.05 120.34 131.96 122.23 124.93 Z" />
<path fill="#ffffff" d=" M 149.55 124.45 C 151.66 127.03 150.20 130.33 148.80 132.85 C 147.88 134.43 146.09 136.76 144.12 135.14 C 141.08 133.17 138.03 130.01 138.43 126.09 C 139.83 127.49 140.88 129.18 141.99 130.81 C 142.20 129.38 142.40 127.95 142.61 126.52 C 142.93 126.65 143.57 126.91 143.89 127.03 C 144.30 129.05 144.70 131.07 145.28 133.04 C 145.85 130.76 146.05 128.41 146.30 126.08 C 146.94 127.41 147.57 128.74 148.18 130.08 C 148.72 128.22 149.10 126.33 149.55 124.45 Z" />
<path fill="#ffffff" d=" M 218.93 123.25 C 222.39 125.74 223.05 130.25 224.55 133.96 C 227.85 142.82 226.50 152.70 230.60 161.33 C 225.67 159.83 225.09 154.17 224.04 149.93 C 222.59 142.66 220.03 135.62 216.53 129.09 C 216.60 128.44 216.73 127.12 216.80 126.47 C 221.97 129.91 221.16 137.57 224.12 142.64 C 224.01 135.84 220.34 129.80 218.93 123.25 Z" />
<path fill="#000000" d=" M 227.05 125.31 C 230.34 125.45 225.69 128.42 227.05 125.31 Z" />
<path fill="#000000" d=" M 63.26 124.43 C 65.45 127.95 63.70 132.16 63.49 135.96 C 63.27 135.89 62.83 135.75 62.60 135.68 C 62.90 131.93 62.86 128.17 63.26 124.43 Z" />
<path fill="#000000" d=" M 225.17 126.06 C 225.46 126.25 226.03 126.62 226.32 126.80 L 225.82 127.56 L 224.92 127.37 L 224.60 126.48 L 225.17 126.06 Z" />
<path fill="#000000" d=" M 77.02 127.43 C 77.23 127.25 77.63 126.89 77.84 126.70 L 78.51 126.68 C 78.05 130.14 77.00 133.51 76.91 137.02 C 74.54 134.16 76.83 130.64 77.02 127.43 Z" />
<path fill="#ffffff" d=" M 107.13 148.97 C 107.19 141.77 108.20 134.49 110.48 127.65 C 111.05 133.59 110.13 139.55 110.56 145.49 C 112.41 141.06 111.11 135.82 113.86 131.73 C 114.24 138.48 113.44 145.21 113.22 151.95 C 111.01 151.35 108.88 150.48 107.13 148.97 Z" />
<path fill="#ffffff" d=" M 186.70 144.71 C 186.21 139.26 183.89 134.06 184.24 128.54 C 187.60 135.78 187.83 143.95 190.97 151.26 C 189.63 153.02 187.63 153.75 185.49 153.91 C 185.36 150.19 185.01 146.47 184.97 142.75 C 185.40 143.24 186.26 144.22 186.70 144.71 Z" />
<path fill="#ffffff" d=" M 190.53 128.72 C 191.73 130.92 192.53 133.31 193.44 135.63 C 193.01 136.46 192.58 137.28 192.14 138.10 C 191.53 134.99 190.57 131.92 190.53 128.72 Z" />
<path fill="#000000" d=" M 79.25 135.39 C 78.57 134.41 78.78 132.06 80.13 131.86 C 80.68 132.85 80.61 135.23 79.25 135.39 Z" />
<path fill="#ffffff" d=" M 225.74 132.71 C 226.91 132.12 227.44 132.65 227.33 134.31 C 226.13 134.88 225.61 134.34 225.74 132.71 Z" />
<path fill="#ffffff" d=" M 228.14 132.29 C 228.43 132.44 229.01 132.74 229.30 132.89 L 228.91 133.74 L 228.06 133.72 L 227.66 132.86 L 228.14 132.29 Z" />
<path fill="#ffffff" d=" M 215.80 131.71 C 218.47 136.70 219.91 142.25 221.47 147.67 C 221.17 147.86 220.56 148.24 220.25 148.43 C 220.63 148.48 221.38 148.56 221.76 148.60 C 223.01 153.57 227.44 158.58 224.87 163.83 C 220.72 158.94 218.91 152.56 216.21 146.84 L 217.88 144.73 L 214.92 145.76 L 215.39 144.82 C 214.82 143.99 214.27 143.15 213.76 142.29 C 213.41 142.33 212.71 142.40 212.36 142.43 C 213.35 144.10 214.56 145.95 213.31 147.80 C 212.47 144.81 211.19 141.96 210.54 138.92 C 210.97 139.68 211.82 141.20 212.25 141.97 C 212.60 141.24 212.95 140.51 213.29 139.78 C 213.75 140.69 214.66 142.51 215.12 143.43 C 215.77 142.63 216.29 141.74 216.84 140.88 C 217.95 142.68 217.91 146.04 219.83 146.82 C 219.94 141.57 215.41 137.18 215.80 131.71 Z" />
<path fill="#ffffff" d=" M 166.27 133.43 C 167.14 135.40 167.39 137.54 167.62 139.66 C 168.44 138.79 169.28 137.93 170.13 137.09 C 170.04 138.52 169.93 139.95 169.79 141.38 C 168.07 143.09 166.73 145.12 165.23 147.02 C 161.84 145.23 159.77 141.83 159.30 138.08 C 160.32 139.16 161.28 140.28 162.26 141.40 C 162.32 139.56 162.37 137.72 162.57 135.89 C 163.90 137.85 164.24 140.22 164.88 142.45 C 166.24 139.62 165.93 136.46 166.27 133.43 Z" />
<path fill="#ffffff" d=" M 177.25 133.18 C 179.35 135.04 178.75 138.02 179.13 140.50 C 179.76 139.51 180.40 138.53 181.06 137.55 C 182.52 140.79 180.16 143.52 178.27 145.91 C 174.40 144.31 170.89 140.47 172.31 135.99 C 173.20 137.65 173.87 139.41 174.58 141.15 C 174.58 139.95 174.57 137.56 174.57 136.36 C 175.18 137.65 176.41 140.22 177.03 141.51 C 177.87 138.79 177.08 135.96 177.25 133.18 Z" />
<path fill="#ffffff" d=" M 233.60 135.18 C 233.88 134.97 234.44 134.55 234.72 134.34 C 235.55 135.49 235.54 136.52 234.68 137.45 C 234.41 136.88 233.87 135.74 233.60 135.18 Z" />
<path fill="#ffffff" d=" M 139.13 146.02 C 134.83 144.21 132.33 138.59 134.34 134.28 C 134.80 136.11 135.30 137.93 135.84 139.74 L 136.92 136.63 C 137.44 138.02 137.91 139.41 138.36 140.82 L 139.13 140.92 C 139.17 139.91 139.25 137.89 139.29 136.88 C 140.06 137.44 140.83 138.01 141.59 138.59 C 141.81 137.74 142.25 136.03 142.47 135.17 C 144.84 139.09 142.12 143.39 139.13 146.02 Z" />
<path fill="#ffffff" d=" M 149.67 134.85 C 150.95 137.50 151.26 140.48 152.44 143.17 C 153.08 140.28 152.94 137.31 153.23 134.38 C 154.48 136.41 154.43 138.86 154.94 141.12 C 155.44 139.23 155.92 137.34 156.71 135.54 C 158.90 139.82 155.80 143.87 153.05 146.92 C 148.99 145.54 143.90 142.08 145.55 137.10 C 146.80 138.63 147.62 140.45 148.63 142.15 C 148.96 139.71 149.23 137.27 149.67 134.85 Z" />
<path fill="#ffffff" d=" M 229.27 135.52 L 230.00 135.42 C 230.99 136.13 229.77 138.76 228.71 137.46 C 228.85 136.98 229.13 136.01 229.27 135.52 Z" />
<path fill="#ffffff" d=" M 231.23 135.38 C 233.42 134.67 231.93 139.33 230.71 137.17 C 230.84 136.72 231.10 135.83 231.23 135.38 Z" />
<path fill="#000000" d=" M 238.66 143.20 C 238.72 140.12 236.86 136.70 238.96 133.95 C 239.21 137.04 239.19 140.15 238.66 143.20 Z" />
<path fill="#ffffff" d=" M 227.14 136.27 C 230.02 136.55 225.77 139.18 227.14 136.27 Z" />
<path fill="#000000" d=" M 75.16 135.82 C 75.66 137.10 76.68 138.45 75.98 139.91 C 75.21 144.29 74.15 148.67 74.12 153.15 C 73.71 153.23 72.91 153.40 72.50 153.48 C 72.12 147.44 74.59 141.76 75.16 135.82 Z" />
<path fill="#ffffff" d=" M 79.53 146.66 C 80.36 143.29 81.57 140.02 82.28 136.62 C 82.44 138.12 83.09 139.49 83.77 140.81 C 84.03 139.91 84.54 138.11 84.80 137.21 C 85.62 140.93 83.79 144.48 82.86 147.98 C 83.67 147.63 85.28 146.95 86.09 146.60 C 84.90 148.05 83.21 148.81 81.59 149.60 L 82.24 151.22 L 84.24 148.73 C 82.14 155.07 79.37 161.16 77.14 167.45 C 76.45 166.43 74.79 165.39 76.06 164.00 C 78.56 158.54 78.64 152.49 79.53 146.66 Z" />
<path fill="#ffffff" d=" M 130.51 136.40 C 133.76 140.62 129.37 146.80 124.84 148.06 C 123.89 145.25 124.20 142.28 124.48 139.39 C 125.21 141.02 125.88 142.67 126.64 144.28 C 126.96 142.78 127.26 141.28 127.55 139.78 C 128.35 140.34 129.15 140.90 129.94 141.46 C 130.09 139.77 130.28 138.08 130.51 136.40 Z" />
<path fill="#ffffff" d=" M 227.15 138.55 C 227.83 138.57 229.19 138.60 229.87 138.62 C 229.60 139.52 229.06 141.32 228.79 142.22 C 229.58 140.75 230.26 139.23 231.06 137.77 C 231.29 138.60 231.76 140.27 231.99 141.10 L 231.67 138.45 C 232.01 138.57 232.69 138.81 233.03 138.93 C 234.03 146.54 236.10 154.11 235.52 161.85 C 232.98 160.58 231.33 158.16 230.59 155.48 C 229.15 149.90 229.02 144.03 227.15 138.55 Z" />
<path fill="#000000" d=" M 64.24 141.34 C 65.58 141.49 65.77 142.19 64.82 143.43 C 63.50 143.24 63.31 142.55 64.24 141.34 Z" />
<path fill="#000000" d=" M 81.71 141.66 C 82.11 141.63 82.90 141.57 83.29 141.54 C 83.02 142.01 82.47 142.94 82.19 143.41 C 82.07 142.97 81.83 142.10 81.71 141.66 Z" />
<path fill="#ffffff" d=" M 79.88 165.01 C 82.94 157.57 84.99 149.79 88.66 142.61 C 89.03 147.18 86.56 151.24 85.95 155.66 C 86.99 154.24 87.75 152.65 88.60 151.11 C 88.76 151.52 89.08 152.35 89.24 152.77 C 89.42 152.80 89.78 152.87 89.97 152.90 C 90.81 149.86 91.53 146.63 93.68 144.19 C 91.81 150.95 88.99 157.40 86.82 164.07 C 85.44 167.54 85.08 172.37 80.70 173.34 L 79.79 170.83 C 79.39 172.08 78.31 173.38 79.07 174.74 C 82.27 186.85 84.30 199.30 88.34 211.17 C 86.28 200.66 84.29 190.10 82.64 179.50 C 82.31 177.66 82.43 175.79 82.79 173.98 C 85.91 177.90 85.29 183.27 86.73 187.85 C 88.76 196.50 90.50 205.22 92.39 213.90 C 90.17 213.84 87.96 213.78 85.75 213.65 C 83.60 204.30 80.75 195.13 78.48 185.81 C 77.80 182.86 77.07 179.88 77.13 176.83 C 76.69 176.76 75.81 176.61 75.36 176.54 C 76.01 180.74 77.12 184.86 77.66 189.08 C 77.22 188.62 76.33 187.68 75.89 187.21 C 74.80 180.75 72.04 174.47 72.52 167.82 C 72.77 167.23 73.26 166.04 73.50 165.45 C 74.45 169.09 74.88 172.85 75.01 176.61 C 75.51 176.05 76.00 175.49 76.49 174.93 C 76.28 172.87 76.20 170.80 76.37 168.73 C 76.86 169.56 77.84 171.22 78.33 172.05 C 79.37 169.83 79.15 167.31 79.88 165.01 Z" />
<path fill="#ffffff" d=" M 171.38 142.66 C 172.90 146.46 173.72 150.54 175.84 154.09 C 176.12 151.54 176.17 148.97 176.53 146.43 C 177.32 148.02 177.76 149.73 178.34 151.40 C 178.96 149.80 179.51 148.17 180.15 146.57 C 181.58 148.81 183.52 150.85 183.80 153.63 C 182.54 152.87 181.28 152.11 180.02 151.36 C 178.95 153.16 177.94 155.01 176.92 156.84 C 172.03 155.89 168.09 151.35 168.97 146.22 C 170.25 148.18 171.20 150.32 172.34 152.37 C 172.69 149.07 172.07 145.86 171.38 142.66 Z" />
<path fill="#000000" d=" M 71.12 146.43 C 68.94 143.83 74.20 143.96 71.80 146.44 L 71.12 146.43 Z" />
<path fill="#ffffff" d=" M 208.15 144.45 C 211.47 144.70 206.47 147.29 208.15 144.45 Z" />
<path fill="#000000" d=" M 216.34 144.01 C 216.72 144.36 216.72 144.36 216.34 144.01 Z" />
<path fill="#ffffff" d=" M 205.36 145.37 C 205.64 145.33 206.21 145.25 206.49 145.21 C 208.72 150.84 210.18 156.76 212.56 162.33 C 214.17 165.98 217.27 169.71 215.90 173.93 C 215.63 175.20 214.44 177.43 212.89 176.37 C 210.25 173.56 209.36 169.66 207.82 166.23 C 205.50 160.19 202.35 154.39 201.13 147.98 C 204.87 152.80 206.35 158.82 208.90 164.26 C 208.92 161.56 208.50 158.92 207.64 156.34 C 208.60 158.13 210.54 161.70 211.51 163.48 C 211.32 160.08 209.45 157.18 208.63 153.95 C 207.92 150.95 206.66 148.14 205.36 145.37 Z" />
<path fill="#000000" d=" M 81.08 146.31 C 84.35 146.64 79.29 149.27 81.08 146.31 Z" />
<path fill="#ffffff" d=" M 159.38 145.65 C 161.12 148.53 161.04 152.01 162.00 155.17 C 162.97 152.80 163.06 150.22 163.42 147.72 C 164.24 149.44 164.51 151.34 164.87 153.20 C 165.37 151.62 165.84 150.04 166.42 148.49 C 167.65 151.58 166.99 155.51 163.87 157.20 C 161.39 158.89 158.81 156.66 157.18 154.86 C 155.01 152.53 153.11 148.54 156.10 146.02 C 157.02 148.59 157.82 151.22 159.07 153.66 C 159.18 150.99 159.15 148.31 159.38 145.65 Z" />
<path fill="#000000" d=" M 217.23 146.50 L 217.88 146.46 L 217.92 147.11 L 217.27 147.15 L 217.23 146.50 Z" />
<path fill="#ffffff" d=" M 94.82 147.10 C 94.29 150.23 93.80 153.37 93.36 156.52 C 94.01 156.06 95.32 155.14 95.97 154.68 L 96.30 154.84 C 97.48 154.12 97.78 152.58 98.65 151.58 C 97.96 154.65 97.09 157.69 96.79 160.84 C 96.35 159.65 96.04 158.42 95.70 157.21 L 95.32 156.95 C 94.78 158.79 94.45 160.69 93.82 162.50 C 94.65 161.64 95.51 160.81 96.40 160.00 C 95.00 166.39 93.20 172.68 91.62 179.03 C 90.15 179.41 88.68 179.76 87.20 180.09 C 86.48 178.09 85.85 176.06 85.17 174.05 C 88.81 165.21 90.56 155.69 94.82 147.10 Z" />
<path fill="#ffffff" d=" M 208.58 147.46 C 209.72 147.56 210.88 147.72 211.99 147.28 C 212.92 148.82 213.15 150.45 212.67 152.20 L 211.88 148.18 C 211.47 148.87 211.08 149.57 210.70 150.28 C 211.02 151.76 211.71 152.60 212.78 152.80 C 212.91 152.37 213.17 151.51 213.30 151.08 C 213.98 152.04 214.67 152.99 215.39 153.93 C 214.93 151.71 214.23 149.55 213.57 147.39 C 213.94 147.57 214.70 147.94 215.08 148.12 C 216.97 153.56 219.87 158.60 221.73 164.06 C 222.59 166.26 221.82 169.61 219.01 169.77 C 216.57 168.91 216.44 165.99 215.42 163.98 C 213.89 159.18 211.15 154.71 210.45 149.69 C 209.98 149.13 209.05 148.02 208.58 147.46 Z" />
<path fill="#ffffff" d=" M 129.22 147.34 C 130.76 149.04 130.67 151.46 131.32 153.53 C 131.88 151.93 132.35 150.30 132.88 148.70 C 133.60 150.49 134.18 152.33 134.85 154.15 C 135.23 152.43 135.54 150.68 135.89 148.95 C 136.46 150.26 136.97 151.56 137.52 152.89 C 137.76 152.00 138.23 150.24 138.47 149.35 L 139.82 149.54 C 139.57 152.44 138.66 156.77 134.93 156.68 C 130.24 156.85 128.53 151.15 129.22 147.34 Z" />
<path fill="#ffffff" d=" M 141.46 147.47 C 142.69 149.28 143.56 151.30 144.71 153.17 C 145.18 151.43 145.55 149.68 146.11 147.97 C 146.67 150.37 146.94 152.82 147.42 155.23 C 148.52 153.16 148.75 150.80 149.35 148.57 C 149.81 149.70 150.25 150.85 150.65 152.00 C 151.21 151.21 152.34 149.64 152.90 148.85 C 152.84 152.60 152.00 157.62 147.94 159.09 C 145.81 157.60 143.84 155.81 142.45 153.60 C 141.76 151.64 141.73 149.51 141.46 147.47 Z" />
<path fill="#ffffff" d=" M 98.31 161.32 C 99.43 157.08 100.21 152.73 101.80 148.64 C 101.73 151.45 100.92 154.19 100.87 157.00 C 101.11 157.43 101.59 158.30 101.84 158.74 C 102.18 156.52 102.84 154.36 104.02 152.44 C 103.59 156.84 102.00 161.03 101.48 165.42 C 102.35 164.18 103.21 162.94 104.06 161.69 C 103.52 165.18 102.61 168.60 101.51 171.95 C 100.04 176.49 99.66 181.31 98.00 185.81 C 97.26 185.79 95.80 185.75 95.06 185.74 C 93.92 183.46 92.75 180.97 93.56 178.37 C 94.99 173.01 96.33 167.62 97.91 162.30 C 98.17 162.14 98.68 161.82 98.94 161.67 L 99.57 161.79 L 99.50 164.62 C 100.21 162.94 100.83 161.22 101.50 159.53 C 100.89 159.29 100.33 159.35 99.83 159.72 L 99.37 160.23 C 99.10 160.50 98.57 161.04 98.31 161.32 Z" />
<path fill="#ffffff" d=" M 126.15 151.22 C 129.47 151.40 124.67 154.17 126.15 151.22 Z" />
<path fill="#ffffff" d=" M 108.67 151.66 C 108.99 156.52 107.34 161.19 106.92 165.99 C 106.44 165.29 105.96 164.58 105.48 163.87 C 106.60 159.82 107.16 155.61 108.67 151.66 Z" />
<path fill="#ffffff" d=" M 114.23 157.95 C 114.26 155.78 114.75 153.65 115.63 151.66 C 115.95 157.05 113.88 162.65 115.34 167.88 C 116.12 165.16 116.10 162.19 117.57 159.68 C 117.43 163.52 116.40 167.31 116.95 171.18 C 118.37 166.72 118.90 162.00 120.69 157.65 C 120.02 164.71 118.33 171.63 117.64 178.68 C 117.75 178.96 117.99 179.54 118.10 179.83 C 118.31 179.82 118.72 179.82 118.92 179.81 C 119.23 176.85 119.70 173.92 120.09 170.97 C 120.96 172.33 121.72 173.75 122.46 175.19 C 122.76 173.00 123.09 170.81 123.19 168.60 C 123.61 168.65 124.45 168.76 124.86 168.81 C 126.38 164.89 127.39 159.78 131.97 158.30 C 137.59 156.58 145.54 156.57 149.14 162.01 C 151.69 167.77 151.99 174.29 151.71 180.50 C 150.28 178.24 149.55 175.65 148.43 173.24 C 147.60 175.37 146.85 177.53 145.99 179.65 C 143.91 178.48 142.49 176.53 140.99 174.74 C 140.15 176.49 139.52 178.32 138.90 180.15 C 137.24 178.48 135.51 176.88 133.73 175.34 C 132.78 177.22 131.91 179.13 130.96 181.01 C 127.90 178.29 125.80 174.75 124.66 170.84 C 122.23 176.77 125.00 183.49 125.79 189.62 C 122.37 192.98 118.19 195.40 114.71 198.69 C 109.89 203.13 105.21 207.74 100.02 211.76 C 98.85 204.37 96.85 197.14 95.74 189.75 C 95.86 189.28 96.09 188.33 96.20 187.86 C 98.41 192.04 99.11 196.78 100.78 201.17 C 100.71 196.26 98.81 191.54 99.29 186.60 C 100.36 187.81 101.68 189.05 101.78 190.77 C 102.62 195.69 103.31 200.62 104.01 205.56 C 109.29 201.26 114.13 196.41 119.32 191.97 C 117.99 188.51 118.46 184.79 118.33 181.18 L 117.79 180.88 L 117.25 180.92 C 116.71 184.26 116.71 187.65 116.52 191.02 C 114.09 191.86 110.70 190.87 110.16 188.10 C 111.68 178.08 113.88 168.11 114.23 157.95 Z" />
<path fill="#ffffff" d=" M 195.37 151.45 C 198.31 154.83 198.10 159.83 200.48 163.60 C 199.48 163.56 198.49 163.40 197.50 163.38 C 199.00 169.70 201.27 175.79 203.37 181.92 C 203.79 183.94 202.80 186.09 200.98 187.06 C 198.08 187.14 197.65 184.07 196.97 181.93 C 195.21 175.57 192.52 169.47 191.12 163.01 C 190.70 162.89 189.86 162.66 189.45 162.55 C 189.86 165.24 191.54 168.08 190.35 170.82 C 189.86 165.61 187.15 160.86 187.04 155.60 C 187.32 156.43 187.88 158.09 188.16 158.92 C 188.70 157.92 189.23 156.92 189.76 155.92 C 190.87 159.87 192.72 163.63 193.17 167.75 L 195.06 162.83 L 194.19 170.15 L 195.78 165.96 C 196.17 167.89 197.01 169.66 197.89 171.40 C 197.87 165.50 194.43 160.35 194.08 154.51 C 195.44 157.19 196.34 160.07 197.19 162.95 C 197.55 162.20 197.91 161.46 198.26 160.71 C 197.00 157.73 195.93 154.64 195.37 151.45 Z" />
<path fill="#000000" d=" M 88.17 154.18 C 88.48 154.30 89.11 154.53 89.42 154.65 L 89.03 155.47 L 88.10 155.51 L 87.66 154.71 L 88.17 154.18 Z" />
<path fill="#000000" d=" M 213.11 154.20 C 213.41 154.34 214.01 154.63 214.31 154.77 L 213.85 155.55 L 212.92 155.50 L 212.55 154.68 L 213.11 154.20 Z" />
<path fill="#ffffff" d=" M 112.66 154.36 C 112.51 159.86 111.47 165.30 110.76 170.75 C 110.51 170.83 109.99 170.97 109.73 171.04 C 110.48 165.46 110.76 159.71 112.66 154.36 Z" />
<path fill="#ffffff" d=" M 128.30 156.41 C 131.66 154.61 129.31 161.09 127.72 158.01 C 127.86 157.61 128.16 156.81 128.30 156.41 Z" />
<path fill="#ffffff" d=" M 203.81 163.86 C 202.85 161.32 202.01 158.73 201.38 156.08 C 204.30 162.78 207.24 169.50 209.46 176.47 C 210.32 178.71 209.64 181.02 208.51 183.01 C 205.42 183.27 204.98 180.03 204.12 177.81 C 202.51 173.11 200.55 168.52 199.30 163.69 C 200.57 164.84 201.68 166.12 202.65 167.53 C 202.34 166.42 201.73 164.19 201.43 163.08 C 202.02 163.27 203.21 163.67 203.81 163.86 Z" />
<path fill="#000000" d=" M 93.25 156.64 C 96.41 157.15 91.45 159.63 93.25 156.64 Z" />
<path fill="#ffffff" d=" M 153.79 156.65 C 154.19 158.87 154.52 161.11 155.02 163.32 C 155.73 161.71 156.19 160.02 156.81 158.38 C 157.80 158.43 158.44 159.28 159.09 159.93 C 158.40 162.26 156.78 164.14 155.57 166.20 C 153.53 164.86 152.12 162.88 150.98 160.76 C 153.09 160.42 153.20 158.28 153.79 156.65 Z" />
<path fill="#ffffff" d=" M 159.79 162.00 C 163.35 156.33 171.65 155.66 177.16 158.60 C 183.50 162.80 183.34 171.59 182.16 178.25 C 181.13 176.54 180.42 174.67 179.79 172.79 C 178.57 175.49 177.66 178.36 176.06 180.88 C 173.53 178.58 173.11 175.00 170.99 172.41 C 171.35 171.30 171.87 170.25 172.74 169.43 C 172.04 168.56 171.35 167.69 170.66 166.83 C 170.58 165.46 170.48 164.10 170.36 162.74 C 168.62 166.83 166.47 171.20 167.22 175.77 C 168.21 173.41 168.24 170.74 169.61 168.52 C 169.84 170.91 169.48 173.44 170.61 175.66 C 171.37 177.22 169.57 178.40 168.97 179.64 C 167.42 177.47 165.94 175.25 164.39 173.09 C 163.50 175.11 163.17 181.30 159.89 177.68 C 159.38 178.06 158.86 178.44 158.36 178.82 C 158.28 181.38 157.87 183.92 158.00 186.48 C 158.67 185.13 159.25 183.74 159.74 182.30 C 160.08 182.06 160.76 181.57 161.10 181.33 C 160.53 183.99 159.63 186.56 158.43 189.00 C 160.43 190.62 159.81 193.47 160.47 195.68 C 161.22 194.21 161.87 192.69 162.51 191.17 C 162.60 191.66 162.79 192.63 162.88 193.11 C 164.25 193.20 165.61 193.33 166.98 193.49 L 167.61 191.94 C 167.77 193.51 167.92 195.08 168.11 196.66 C 168.76 195.51 169.39 194.36 170.01 193.20 C 170.16 194.11 170.32 195.02 170.47 195.94 L 171.89 195.16 C 170.82 196.93 169.70 198.68 168.44 200.33 C 166.63 198.75 166.28 196.44 165.73 194.27 C 165.47 194.32 164.95 194.44 164.70 194.49 C 163.57 196.45 162.54 198.47 161.04 200.18 C 159.48 196.48 158.98 192.27 156.38 189.08 C 156.30 184.49 155.94 179.72 157.95 175.43 C 157.27 170.92 157.57 166.06 159.79 162.00 Z" />
<path fill="#000000" d=" M 188.68 159.87 C 189.84 159.03 190.39 159.48 190.32 161.21 C 189.28 161.97 188.73 161.52 188.68 159.87 Z" />
<path fill="#ffffff" d=" M 106.89 170.03 C 107.82 166.78 107.77 163.18 109.63 160.27 C 110.18 164.22 107.60 168.58 109.98 172.18 C 110.72 176.72 108.89 181.48 108.64 186.11 C 108.68 188.07 107.23 190.41 104.98 189.81 C 102.16 188.38 100.64 184.99 101.23 181.90 C 102.25 176.15 104.26 170.62 105.14 164.83 C 106.22 166.38 106.86 168.13 106.89 170.03 Z" />
<path fill="#ffffff" d=" M 120.30 169.69 C 121.10 166.56 121.39 163.28 122.59 160.26 C 122.74 163.23 122.34 166.19 122.15 169.16 C 121.54 169.38 120.93 169.56 120.30 169.69 Z" />
<path fill="#000000" d=" M 142.74 160.59 C 143.98 163.10 143.55 165.90 143.19 168.57 L 144.02 168.94 C 144.50 169.03 145.46 169.22 145.93 169.32 C 146.57 167.54 147.15 165.75 147.84 163.99 C 148.59 166.88 147.70 169.74 146.89 172.50 C 146.14 172.81 145.39 173.12 144.64 173.45 C 144.43 172.88 144.00 171.75 143.78 171.19 C 143.53 171.15 143.01 171.08 142.76 171.04 L 142.27 173.27 C 141.84 172.81 140.98 171.89 140.56 171.43 C 140.26 171.76 139.68 172.42 139.39 172.75 L 138.01 171.32 C 137.89 172.37 137.65 174.48 137.53 175.53 C 137.39 174.97 137.10 173.85 136.96 173.29 C 136.34 173.33 135.09 173.41 134.46 173.45 C 134.56 169.59 136.02 165.98 136.97 162.30 C 137.79 163.94 137.53 165.77 137.29 167.52 C 138.20 168.56 139.16 169.55 140.23 170.43 C 141.04 167.14 141.75 163.83 142.74 160.59 Z" />
<path fill="#ffffff" d=" M 228.33 162.73 C 229.23 162.67 230.13 162.64 231.04 162.64 C 231.00 177.32 229.58 192.01 226.32 206.33 C 230.58 195.04 231.55 182.82 232.78 170.91 C 233.28 168.37 231.90 165.51 233.85 163.35 C 234.02 176.01 233.08 188.66 231.39 201.20 C 234.79 188.87 234.47 175.94 236.37 163.40 C 239.12 165.92 237.80 169.72 237.72 172.97 C 236.67 182.88 235.69 192.83 233.64 202.61 C 231.85 202.64 230.06 202.68 228.27 202.78 C 229.76 204.09 231.37 205.23 233.02 206.33 L 231.92 207.26 C 233.05 207.68 234.20 208.06 235.35 208.45 C 234.69 207.47 233.36 205.51 232.69 204.53 C 237.01 205.07 241.36 205.40 245.63 206.32 C 242.37 209.29 238.63 211.79 234.44 213.24 C 235.19 211.36 236.79 210.13 238.14 208.73 C 234.71 209.59 231.15 210.07 227.62 209.57 C 227.48 210.08 227.22 211.09 227.08 211.60 C 228.33 211.37 229.58 211.17 230.85 210.99 C 230.53 213.29 230.02 215.56 229.47 217.82 C 226.80 217.13 224.13 216.44 221.49 215.67 C 221.57 214.92 221.74 213.41 221.82 212.66 C 223.13 212.37 224.47 212.15 225.77 211.78 C 225.83 211.53 225.95 211.02 226.01 210.77 C 223.04 211.08 220.06 211.45 217.17 212.20 C 217.46 213.58 218.42 213.97 220.06 213.37 C 219.97 213.90 219.79 214.97 219.70 215.50 C 217.84 215.31 215.98 215.08 214.12 214.95 C 215.12 216.18 216.16 217.39 217.26 218.55 C 217.31 219.09 217.42 220.18 217.47 220.72 L 219.46 220.05 C 218.81 218.99 218.16 217.94 217.53 216.88 C 222.02 217.14 226.39 218.29 230.60 219.82 C 228.53 221.44 225.93 222.42 223.40 221.21 C 221.02 221.38 218.65 221.46 216.27 221.55 C 218.51 224.23 215.36 225.84 213.05 226.32 L 213.12 226.79 C 214.00 227.62 215.01 228.26 216.15 228.72 C 215.62 231.32 214.76 233.84 213.68 236.27 C 212.02 233.86 211.99 230.96 211.88 228.15 C 210.89 226.38 208.66 226.90 206.99 226.79 C 201.67 226.89 196.35 226.69 191.06 226.15 C 185.97 225.65 180.74 225.91 175.80 224.40 C 180.53 224.49 185.23 225.14 189.96 225.08 C 196.37 225.06 202.70 226.37 209.12 226.15 C 208.51 225.57 207.28 224.41 206.67 223.84 C 208.07 223.00 209.77 221.58 210.79 223.72 C 210.37 224.33 209.53 225.56 209.12 226.17 C 210.01 226.37 211.79 226.77 212.69 226.97 C 210.76 224.56 212.11 222.91 214.32 221.61 C 208.85 221.93 203.37 222.05 197.90 222.13 C 199.46 221.48 201.10 220.96 202.67 220.30 C 200.08 220.20 199.72 218.07 199.84 216.11 C 198.20 214.56 194.59 216.73 192.32 215.88 C 198.23 214.60 204.26 213.91 210.20 212.76 C 210.39 212.45 210.78 211.82 210.98 211.51 C 209.16 211.65 207.37 212.10 205.56 212.37 C 206.18 211.16 206.80 209.96 207.43 208.76 C 199.03 201.92 190.31 195.48 182.04 188.48 C 182.52 185.76 183.11 183.07 183.79 180.40 C 184.15 180.98 184.88 182.15 185.24 182.73 C 185.30 181.32 186.06 180.16 186.84 179.04 C 187.26 181.50 187.95 183.91 188.62 186.32 C 187.94 187.37 187.25 188.41 186.54 189.44 C 190.95 193.51 195.60 197.33 200.45 200.86 C 201.88 195.93 200.37 189.60 204.95 186.06 C 205.55 190.67 203.07 195.28 204.58 199.77 C 205.54 194.55 205.38 188.92 207.86 184.12 C 208.00 191.33 206.21 198.42 206.07 205.61 C 207.89 202.20 207.71 198.18 208.73 194.52 C 209.89 190.22 207.77 184.97 211.41 181.54 C 211.41 187.50 210.61 193.42 210.62 199.38 C 212.89 192.60 213.38 185.36 213.38 178.26 C 214.21 178.08 215.88 177.72 216.72 177.54 C 216.50 188.44 213.65 199.03 212.56 209.84 C 212.33 210.41 211.88 211.54 211.66 212.10 C 212.81 212.17 215.12 212.31 216.27 212.38 C 216.26 211.89 216.24 210.92 216.23 210.44 L 214.26 210.70 C 215.20 197.51 218.70 184.53 218.12 171.23 C 219.56 171.34 221.02 171.45 222.47 171.58 C 222.24 182.27 220.81 192.85 219.49 203.44 C 222.62 195.35 223.10 186.56 224.03 178.02 C 224.64 173.31 222.35 167.45 226.78 164.06 C 226.83 179.31 223.46 194.30 221.34 209.35 C 220.11 209.87 218.15 209.59 217.56 211.02 C 221.19 210.67 225.66 211.25 228.59 208.71 C 226.68 208.83 224.78 208.95 222.87 209.06 C 224.78 199.46 226.78 189.85 227.67 180.08 C 228.59 174.33 227.86 168.50 228.33 162.73 Z" />
<path fill="#000000" d=" M 160.23 171.16 C 162.48 169.10 161.78 165.58 163.74 163.32 C 163.40 167.10 163.16 170.89 163.07 174.69 C 162.57 174.02 161.58 172.70 161.09 172.04 C 160.83 173.25 160.57 174.47 160.31 175.68 C 158.88 174.18 158.39 172.46 160.23 171.16 Z" />
<path fill="#000000" d=" M 176.17 163.92 C 176.70 166.69 178.36 168.92 180.66 170.53 C 178.73 169.75 177.65 170.35 177.42 172.33 C 176.19 173.08 174.99 173.89 173.82 174.73 C 173.86 170.98 175.33 167.51 176.17 163.92 Z" />
<path fill="#000000" d=" M 203.13 164.13 C 206.44 164.34 201.68 167.17 203.13 164.13 Z" />
<path fill="#000000" d=" M 130.89 165.70 C 131.90 168.60 132.36 171.63 132.27 174.70 C 131.76 174.50 130.74 174.11 130.22 173.92 C 130.18 174.64 130.10 176.09 130.06 176.82 C 129.54 175.95 128.09 175.08 128.87 173.88 C 129.79 171.22 130.77 168.55 130.89 165.70 Z" />
<path fill="#000000" d=" M 203.94 166.76 C 207.13 166.59 202.85 170.13 203.94 166.76 Z" />
<path fill="#ffffff" d=" M 235.24 202.74 C 237.41 191.21 238.21 179.48 239.66 167.86 C 240.23 167.75 241.38 167.54 241.95 167.43 C 242.11 178.84 239.72 190.07 238.32 201.34 C 240.00 195.36 241.94 189.39 242.44 183.15 C 243.22 179.09 242.86 174.71 244.78 170.94 C 246.17 181.24 242.45 191.18 241.79 201.37 C 243.07 198.55 243.94 195.52 244.04 192.40 C 244.53 192.95 245.01 193.51 245.50 194.07 C 244.85 197.52 244.59 201.02 243.95 204.47 C 241.02 203.99 238.08 203.59 235.24 202.74 Z" />
<path fill="#ffffff" d=" M 69.04 168.90 C 69.64 169.49 70.24 170.09 70.84 170.69 C 73.15 182.56 76.64 194.18 78.79 206.09 C 78.32 200.72 77.90 195.35 76.14 190.23 C 76.37 189.95 76.84 189.39 77.07 189.11 C 77.29 189.11 77.74 189.11 77.97 189.11 C 79.58 197.22 81.78 205.19 83.89 213.17 C 80.94 213.07 78.00 212.77 75.05 212.58 C 72.78 204.41 70.64 196.21 68.48 188.01 C 67.01 182.00 65.12 175.87 65.57 169.62 C 68.60 171.34 67.55 175.20 68.68 177.98 C 69.81 181.23 70.25 184.68 71.54 187.88 C 73.64 194.23 73.93 201.11 76.45 207.32 C 75.56 200.84 74.67 194.24 72.27 188.13 C 71.35 181.68 69.16 175.46 69.04 168.90 Z" />
<path fill="#000000" d=" M 114.10 173.50 C 113.60 172.42 113.21 168.35 115.26 169.55 C 115.36 170.80 115.24 172.86 114.10 173.50 Z" />
<path fill="#ffffff" d=" M 186.71 168.80 C 186.81 169.40 187.00 170.58 187.09 171.17 C 187.52 170.93 188.38 170.45 188.81 170.21 C 188.58 171.24 188.11 173.30 187.88 174.33 L 190.15 171.55 C 189.98 172.31 189.62 173.85 189.44 174.62 L 191.40 174.44 C 191.00 172.95 191.15 171.44 191.71 170.04 C 192.26 175.65 195.31 180.52 196.68 185.89 C 196.06 187.88 194.47 190.34 192.03 189.79 C 190.59 189.92 190.55 188.00 190.19 187.07 C 189.09 182.66 188.07 178.23 187.04 173.81 C 186.82 173.66 186.39 173.35 186.18 173.19 C 184.94 175.34 187.21 178.15 185.14 180.26 C 184.67 176.64 183.88 173.05 184.00 169.39 C 184.30 170.32 184.92 172.19 185.23 173.13 C 185.82 171.72 186.33 170.28 186.71 168.80 Z" />
<path fill="#ffffff" d=" M 244.35 192.44 C 245.79 185.89 246.68 179.23 247.70 172.61 C 248.23 179.18 245.86 185.59 246.13 192.15 C 245.69 192.23 244.79 192.37 244.35 192.44 Z" />
<path fill="#000000" d=" M 189.14 175.24 C 192.47 175.41 187.54 178.12 189.14 175.24 Z" />
<path fill="#ffffff" d=" M 128.13 194.98 C 126.36 189.80 125.70 184.27 126.39 178.83 C 126.81 180.81 127.12 182.81 127.46 184.81 C 128.10 184.69 129.38 184.46 130.02 184.34 C 129.60 188.06 128.76 191.73 128.62 195.49 C 130.27 195.44 132.18 196.06 133.42 194.61 C 133.75 194.63 134.41 194.68 134.74 194.70 C 135.95 194.47 137.18 194.30 138.41 194.18 C 138.61 193.02 138.83 191.88 139.08 190.74 L 139.63 192.51 C 141.55 192.26 143.49 192.45 145.42 192.43 C 145.69 192.86 146.22 193.72 146.48 194.15 C 146.43 193.51 146.33 192.24 146.29 191.60 C 147.65 191.48 149.01 191.28 150.37 191.03 C 148.60 188.67 146.43 186.46 145.77 183.48 C 146.73 183.00 147.69 182.51 148.66 182.03 C 148.65 182.71 148.63 184.06 148.63 184.74 C 149.35 184.63 150.79 184.42 151.52 184.32 C 152.15 190.82 152.23 197.43 151.59 203.93 C 150.83 205.86 150.90 208.58 148.94 209.71 C 146.46 208.73 145.90 205.98 145.26 203.71 L 144.00 203.89 L 144.10 203.18 C 144.68 203.32 145.84 203.60 146.42 203.73 C 146.88 204.56 147.35 205.39 147.83 206.21 C 147.98 204.33 148.08 202.44 148.37 200.58 C 148.81 202.40 149.01 204.25 149.33 206.10 C 151.28 201.90 152.42 196.58 149.64 192.48 C 148.75 195.02 147.93 197.60 146.74 200.02 C 144.53 198.23 143.46 195.59 142.34 193.07 C 141.48 195.42 140.60 197.77 139.43 199.99 C 137.86 198.96 137.03 196.70 135.21 196.14 C 134.70 197.85 134.34 199.61 133.78 201.32 C 130.85 200.37 128.72 198.01 128.13 194.98 Z" />
<path fill="#ffffff" d=" M 179.88 183.94 C 180.18 182.12 180.01 180.04 181.46 178.65 C 181.74 186.35 179.96 194.15 176.62 201.09 C 175.31 199.06 174.40 196.80 174.10 194.39 C 173.64 193.14 173.26 191.87 172.95 190.58 C 174.41 192.75 175.72 195.03 177.06 197.28 C 177.82 195.49 178.55 193.69 179.21 191.87 C 178.21 188.44 175.95 185.43 175.79 181.78 C 176.30 182.28 177.33 183.29 177.84 183.79 L 178.32 181.86 C 178.71 182.38 179.49 183.42 179.88 183.94 Z" />
<path fill="#ffffff" d=" M 133.68 181.55 C 133.86 181.22 134.22 180.56 134.41 180.23 C 134.77 182.26 135.02 184.38 136.28 186.09 C 135.99 187.63 135.74 189.19 135.32 190.71 C 132.54 191.37 129.41 185.71 132.23 184.65 C 132.71 184.88 133.68 185.36 134.16 185.60 C 134.00 184.24 133.84 182.90 133.68 181.55 Z" />
<path fill="#ffffff" d=" M 141.25 180.71 C 141.73 181.65 142.67 183.51 143.14 184.44 C 143.41 183.52 143.94 181.68 144.21 180.76 C 145.07 184.22 144.52 188.15 141.92 190.76 C 138.97 189.55 137.43 186.41 139.14 183.50 C 139.66 184.11 140.71 185.33 141.23 185.94 C 141.23 184.64 141.25 182.02 141.25 180.71 Z" />
<path fill="#ffffff" d=" M 169.56 180.36 C 170.53 181.76 170.50 183.47 170.71 185.09 C 171.24 184.63 172.30 183.70 172.83 183.24 L 172.74 184.98 C 173.29 184.80 174.40 184.46 174.96 184.28 C 174.34 186.23 173.80 188.23 172.70 189.97 C 168.52 189.60 169.33 183.41 169.56 180.36 Z" />
<path fill="#ffffff" d=" M 87.78 181.70 C 90.00 185.72 90.25 190.43 91.67 194.75 C 90.96 194.71 89.91 194.89 89.84 193.89 C 88.97 189.86 87.98 185.83 87.78 181.70 Z" />
<path fill="#ffffff" d=" M 165.80 184.28 C 166.35 183.36 166.92 182.45 167.51 181.56 C 167.27 184.70 166.50 187.89 163.93 189.97 C 162.30 187.84 161.81 185.24 161.88 182.62 C 162.24 182.97 162.96 183.68 163.33 184.03 C 164.15 184.11 164.98 184.19 165.80 184.28 Z" />
<path fill="#ffffff" d=" M 115.22 207.85 C 118.29 202.78 123.10 198.75 127.32 194.57 C 125.02 199.28 120.67 202.51 117.69 206.75 C 117.14 207.71 116.32 208.08 115.22 207.85 Z" />
<path fill="#ffffff" d=" M 156.13 196.05 C 157.79 195.54 158.32 196.08 157.70 197.68 C 156.06 198.20 155.53 197.66 156.13 196.05 Z" />
<path fill="#ffffff" d=" M 180.59 196.84 C 186.50 200.29 191.95 204.42 197.25 208.72 C 198.98 208.51 200.60 209.05 202.12 209.87 L 201.13 208.19 C 202.75 208.50 204.37 208.74 206.01 208.92 C 204.93 210.44 204.07 212.55 202.00 212.90 C 200.57 213.66 199.55 211.99 198.43 211.40 C 195.91 209.62 193.37 207.88 191.04 205.85 C 187.60 202.80 183.35 200.62 180.59 196.84 Z" />
<path fill="#ffffff" d=" M 141.25 199.43 C 142.60 201.03 142.42 203.12 142.50 205.06 C 145.04 205.60 143.69 208.20 143.31 209.86 C 140.44 209.06 138.63 206.93 138.42 203.91 C 139.05 204.21 140.30 204.79 140.93 205.09 C 140.99 203.19 141.05 201.30 141.25 199.43 Z" />
<path fill="#ffffff" d=" M 156.22 204.04 C 156.26 202.37 155.66 200.24 157.69 199.51 C 158.19 201.21 158.59 202.93 158.98 204.66 C 159.43 204.04 160.33 202.79 160.77 202.17 C 160.75 202.94 160.69 204.49 160.66 205.26 C 161.32 204.87 162.65 204.08 163.31 203.69 C 162.84 206.26 161.47 208.49 159.69 210.36 C 158.48 208.28 158.54 205.28 156.22 204.04 Z" />
<path fill="#ffffff" d=" M 130.18 200.71 C 131.61 202.60 132.39 204.94 134.03 206.67 C 135.42 206.36 136.68 205.66 137.98 205.11 C 137.56 207.16 137.12 209.21 136.57 211.23 C 132.37 209.47 130.54 204.98 130.18 200.71 Z" />
<path fill="#ffffff" d=" M 168.23 203.92 C 169.20 202.98 170.13 202.00 171.11 201.06 C 170.43 204.03 168.59 206.51 167.12 209.13 C 164.72 207.94 164.02 205.46 163.87 202.96 C 164.41 203.46 165.49 204.45 166.02 204.95 C 166.28 204.18 166.78 202.64 167.03 201.87 C 167.33 202.38 167.93 203.41 168.23 203.92 Z" />
<path fill="#ffffff" d=" M 174.05 200.66 C 174.41 202.09 174.79 203.53 174.47 205.04 L 176.34 204.16 C 175.74 206.03 174.76 207.72 173.59 209.28 C 171.84 206.43 172.12 203.34 174.05 200.66 Z" />
<path fill="#ffffff" d=" M 117.43 216.32 C 121.11 211.98 124.62 207.49 128.17 203.04 C 125.65 208.24 121.86 212.67 118.61 217.41 C 117.59 218.49 116.72 220.35 114.94 220.10 C 112.92 220.61 111.53 218.88 110.06 217.84 C 111.15 217.32 112.25 216.81 113.34 216.30 L 114.69 216.96 C 116.09 215.59 117.32 214.05 118.67 212.63 L 117.43 216.32 Z" />
<path fill="#ffffff" d=" M 134.14 203.12 C 135.70 202.63 136.26 203.20 135.85 204.85 C 134.28 205.33 133.71 204.76 134.14 203.12 Z" />
<path fill="#ffffff" d=" M 176.89 203.67 C 182.39 206.38 186.80 210.87 190.92 215.31 C 184.74 213.66 181.65 207.43 176.89 203.67 Z" />
<path fill="#ffffff" d=" M 114.56 205.21 C 114.21 206.29 113.85 207.37 113.41 208.42 C 114.55 208.73 115.30 209.82 114.15 210.67 C 112.06 212.60 110.54 216.54 107.09 215.66 C 104.60 215.35 103.24 212.99 102.58 210.81 C 104.32 210.30 106.07 208.67 107.91 209.80 C 108.50 209.19 109.09 208.58 109.68 207.97 L 109.60 210.80 C 111.23 208.92 112.79 206.96 114.56 205.21 Z" />
<path fill="#000000" d=" M 229.20 207.64 C 230.03 206.35 232.30 207.42 231.74 208.80 C 230.92 209.94 227.94 209.21 229.20 207.64 Z" />
<path fill="#ffffff" d=" M 173.34 210.82 C 176.00 212.27 178.21 214.40 179.78 216.99 C 178.16 217.34 176.53 217.60 174.88 217.79 C 173.72 215.63 172.83 213.31 173.34 210.82 Z" />
<path fill="#ffffff" d=" M 231.14 217.73 C 231.67 214.94 231.09 211.02 234.49 209.93 C 234.10 212.15 233.58 214.34 233.25 216.57 C 235.98 215.50 238.36 213.75 241.06 212.62 C 240.71 215.56 240.14 218.47 239.87 221.42 C 238.85 221.74 237.83 222.04 236.81 222.33 C 237.57 223.74 238.31 225.17 239.04 226.61 C 237.38 226.73 235.73 226.85 234.07 226.95 C 234.63 227.45 235.75 228.44 236.31 228.94 C 236.31 229.19 236.30 229.68 236.30 229.93 L 238.16 230.27 C 236.77 232.30 234.06 234.08 235.48 236.84 C 233.84 243.14 232.93 249.59 231.66 255.97 C 224.37 249.19 226.65 237.99 228.49 229.33 C 230.88 229.35 233.26 229.38 235.65 229.45 C 234.41 225.50 230.25 226.90 227.33 227.68 L 227.62 226.67 L 225.01 226.38 L 225.44 227.69 C 224.55 227.64 223.66 227.58 222.77 227.52 L 224.76 227.15 L 224.72 226.27 C 224.09 226.06 222.82 225.62 222.19 225.41 C 224.46 224.73 227.16 222.03 229.09 224.66 C 230.11 222.69 231.67 221.14 233.60 220.05 C 232.78 219.28 231.95 218.49 231.14 217.73 Z" />
<path fill="#ffffff" d=" M 127.96 220.84 C 129.20 217.67 130.64 214.53 132.73 211.83 C 133.39 214.90 131.54 217.70 131.28 220.72 C 130.45 220.75 128.79 220.81 127.96 220.84 Z" />
<path fill="#ffffff" d=" M 157.74 213.64 C 161.99 211.96 163.96 220.11 160.21 221.32 C 162.08 223.11 161.43 227.47 158.29 227.06 C 158.42 227.48 158.69 228.33 158.83 228.76 L 158.51 228.80 C 158.12 227.94 157.72 227.08 157.32 226.23 L 158.43 225.70 C 158.11 225.39 157.46 224.77 157.14 224.47 C 157.51 224.26 158.26 223.84 158.64 223.63 L 158.86 222.40 C 159.17 220.95 158.53 220.28 156.94 220.38 C 157.64 219.98 159.04 219.16 159.74 218.76 C 159.11 218.67 157.85 218.50 157.22 218.42 C 157.64 218.12 158.47 217.53 158.89 217.23 L 157.31 216.98 C 157.48 215.87 157.63 214.76 157.74 213.64 Z" />
<path fill="#ffffff" d=" M 162.48 213.96 C 163.83 213.40 165.28 213.50 166.68 213.79 C 167.10 217.04 167.48 220.29 167.47 223.57 C 166.73 223.60 165.24 223.67 164.49 223.70 C 165.03 224.11 166.10 224.92 166.63 225.32 C 166.22 226.47 165.83 227.62 165.45 228.78 C 164.31 228.75 163.17 228.73 162.03 228.72 C 162.60 227.69 163.18 226.67 163.77 225.66 C 163.72 225.35 163.60 224.75 163.54 224.45 C 163.57 223.84 163.64 222.61 163.67 222.00 L 165.19 221.96 C 164.79 221.47 163.97 220.50 163.56 220.01 C 164.18 219.92 165.40 219.74 166.01 219.66 C 165.33 219.47 163.95 219.10 163.27 218.92 C 163.59 218.51 164.24 217.69 164.56 217.28 L 163.27 216.42 L 164.45 215.35 L 162.48 213.96 Z" />
<path fill="#000000" d=" M 207.05 213.80 C 210.22 213.56 213.36 213.02 216.52 212.62 C 216.40 212.98 216.16 213.70 216.03 214.06 C 212.31 212.91 212.98 217.23 212.11 219.41 C 213.57 219.80 215.04 220.19 216.51 220.59 C 212.14 220.68 207.78 221.13 203.41 221.23 C 203.89 220.46 204.38 219.70 204.87 218.94 C 204.80 218.32 204.65 217.07 204.58 216.44 C 203.45 216.28 202.33 216.08 201.22 215.84 C 201.14 215.64 200.99 215.24 200.92 215.04 C 202.05 214.86 204.32 214.51 205.46 214.33 C 206.11 216.21 206.11 218.22 206.36 220.18 C 207.87 220.08 209.39 219.98 210.91 219.87 C 210.96 218.17 211.00 216.47 211.04 214.78 C 209.45 214.93 207.87 215.17 206.30 215.43 C 206.49 215.02 206.86 214.21 207.05 213.80 Z" />
<path fill="#ffffff" d=" M 140.79 214.11 C 141.73 214.58 142.67 215.04 143.63 215.51 C 142.55 220.43 144.78 224.97 146.94 229.23 C 145.33 230.25 143.93 229.41 142.61 228.44 C 142.16 227.29 141.72 226.15 141.30 225.00 L 140.02 224.98 C 140.22 224.59 140.60 223.81 140.79 223.42 L 140.17 222.92 C 140.49 220.89 140.23 218.85 139.64 216.90 C 139.93 216.20 140.50 214.80 140.79 214.11 Z" />
<path fill="#ffffff" d=" M 145.07 214.18 C 146.55 215.21 147.96 216.34 149.37 217.47 C 147.58 221.56 153.00 226.24 149.29 229.57 C 149.36 229.07 149.49 228.06 149.55 227.56 C 147.59 226.53 147.06 224.38 146.37 222.48 C 146.04 220.46 146.24 218.41 146.59 216.41 C 146.06 215.68 145.56 214.93 145.07 214.18 Z" />
<path fill="#ffffff" d=" M 168.66 214.76 C 170.13 214.68 171.85 214.54 172.89 215.83 C 172.69 217.85 172.41 219.89 172.61 221.93 C 172.14 222.00 171.21 222.13 170.74 222.20 C 171.21 222.50 172.16 223.11 172.63 223.41 C 172.39 224.53 172.16 225.65 171.92 226.77 L 170.48 226.13 C 170.44 226.76 170.37 228.04 170.34 228.68 L 169.04 228.12 L 170.03 226.49 C 169.53 226.17 168.53 225.53 168.03 225.21 C 168.83 225.17 170.41 225.09 171.20 225.04 C 170.67 224.72 169.59 224.06 169.05 223.74 C 171.01 222.90 169.88 221.90 168.90 220.75 C 169.16 220.76 169.69 220.77 169.95 220.78 C 170.50 219.99 171.61 218.41 172.16 217.61 L 169.30 217.57 C 169.58 217.31 170.14 216.80 170.42 216.55 C 169.98 216.10 169.10 215.21 168.66 214.76 Z" />
<path fill="#ffffff" d=" M 123.96 218.36 C 126.74 219.64 127.52 216.48 129.01 214.90 C 128.27 217.16 127.46 219.39 126.64 221.62 C 121.41 222.04 116.04 222.06 110.86 221.30 C 116.03 219.66 121.90 222.88 127.00 220.27 L 125.43 218.82 C 125.08 219.20 124.38 219.95 124.02 220.33 C 124.01 219.84 123.98 218.85 123.96 218.36 Z" />
<path fill="#ffffff" d=" M 133.45 215.96 C 134.41 216.00 136.35 216.07 137.31 216.10 C 136.42 221.37 138.61 226.23 140.77 230.88 C 139.45 230.15 138.13 229.44 136.81 228.72 C 136.26 226.99 135.75 225.24 135.25 223.49 L 133.87 223.73 C 134.31 223.16 135.20 222.02 135.64 221.45 C 135.44 221.37 135.04 221.21 134.84 221.14 C 134.67 220.46 134.31 219.10 134.14 218.42 C 134.32 218.16 134.68 217.64 134.86 217.38 C 134.51 217.03 133.80 216.32 133.45 215.96 Z" />
<path fill="#ffffff" d=" M 176.74 218.66 C 182.08 217.49 187.83 215.29 193.25 216.78 L 193.95 217.08 C 194.55 217.11 195.76 217.16 196.36 217.19 C 193.55 220.91 188.47 220.49 184.37 221.65 L 184.73 222.49 C 183.14 222.47 181.55 222.46 179.96 222.47 C 178.83 222.06 176.56 221.23 175.42 220.81 C 180.85 220.03 186.35 219.60 191.63 217.99 C 191.71 217.79 191.87 217.39 191.96 217.19 C 186.87 216.64 181.87 218.87 176.74 218.66 Z" />
<path fill="#ffffff" d=" M 150.50 218.81 C 152.24 219.46 154.00 220.09 155.72 220.81 C 157.27 222.67 153.29 223.04 152.89 224.33 C 153.60 224.25 155.01 224.10 155.72 224.02 C 155.25 224.43 154.30 225.24 153.83 225.65 C 152.91 224.45 151.89 223.34 150.88 222.23 C 151.26 222.12 152.04 221.90 152.42 221.79 C 151.94 221.04 150.98 219.55 150.50 218.81 Z" />
<path fill="#ffffff" d=" M 118.19 223.27 C 121.57 223.09 124.95 223.29 128.32 223.44 C 125.04 224.17 121.27 225.05 118.19 223.27 Z" />
<path fill="#ffffff" d=" M 218.26 224.45 C 217.88 222.52 221.00 221.74 222.40 222.47 C 222.46 224.12 219.61 225.02 218.26 224.45 Z" />
<path fill="#ffffff" d=" M 121.36 225.60 C 121.69 224.35 122.46 224.15 123.68 225.00 C 123.36 226.30 122.59 226.50 121.36 225.60 Z" />
<path fill="#ffffff" d=" M 239.84 224.31 C 243.62 225.69 247.30 227.35 250.77 229.40 C 246.78 230.94 242.61 231.94 238.46 232.93 C 238.89 230.49 240.78 229.64 243.16 229.94 C 240.30 229.32 240.02 226.74 239.84 224.31 Z" />
<path fill="#000000" d=" M 52.88 227.51 C 62.93 226.86 73.01 226.68 83.06 225.98 C 85.31 226.12 88.01 225.29 89.79 227.15 C 77.47 226.74 65.18 228.70 52.88 227.51 Z" />
<path fill="#ffffff" d=" M 218.64 228.49 C 221.11 228.60 223.57 228.88 226.03 229.19 C 224.49 234.35 223.37 239.64 221.47 244.70 C 217.87 240.09 218.57 233.96 218.64 228.49 Z" />
<path fill="#ffffff" d=" M 57.50 232.94 C 58.96 229.51 62.99 230.16 66.03 230.01 C 70.36 230.19 74.68 229.26 79.01 229.80 C 76.61 232.16 73.18 231.64 70.13 232.01 C 65.93 232.48 61.73 232.97 57.50 232.94 Z" />
<path fill="#ffffff" d=" M 64.97 234.63 C 69.90 232.20 76.41 234.64 80.54 230.45 C 83.41 229.82 86.37 230.13 88.69 232.11 C 85.39 233.55 81.13 233.33 78.16 234.70 C 79.35 234.87 80.54 235.05 81.73 235.23 C 81.81 235.40 81.98 235.74 82.06 235.91 C 79.06 236.06 76.08 237.26 73.08 236.81 C 73.43 235.48 75.39 236.24 76.14 235.22 C 72.45 234.18 68.15 237.73 64.97 234.63 Z" />
<path fill="#000000" d=" M 61.91 237.04 C 64.96 235.43 62.27 240.24 61.91 237.04 Z" />
<path fill="#ffffff" d=" M 71.12 243.69 C 73.28 242.64 75.62 242.12 77.99 241.86 C 79.67 248.47 78.60 256.23 73.90 261.41 C 72.93 255.51 72.07 249.59 71.12 243.69 Z" />
</svg>
