<?xml version="1.0" encoding="utf-8"?>
<!-- Generator: Adobe Illustrator 21.1.0, SVG Export Plug-In . SVG Version: 6.00 Build 0)  -->
<svg version="1.1" id="Layer_1" xmlns="http://www.w3.org/2000/svg" xmlns:xlink="http://www.w3.org/1999/xlink" x="0px" y="0px"
	 viewBox="0 0 300 300" style="enable-background:new 0 0 300 300;" xml:space="preserve">
<g>
	<path d="M263.7,104.3c14,4.8,20.7,12.8,19.9,24.1c-0.4,5.8-3.3,13.5-8.7,23.1c-0.3,0.6-4.4,7-12.5,19.1c0.8-7.8,1.2-12.7,1.1-14.8
		c-0.5-8.5-3.8-14.4-9.8-17.7c-2.1-1.1-4-1.4-5.7-1c-0.5,0.1-2.3,1.5-5.4,4.3c-8.5,7.5-13.6,12-15.2,13.5c0.4,10.7,5,22.5,13.7,35.5
		c3.6,5.5,5.6,8.9,6.1,10.1c-2.5-0.2-6.8-2.2-12.8-5.9c-9.5-5.9-15.5-9.5-18-10.8c-7.6-3.7-15-5.8-22.2-6.3
		c-8.8-0.6-15.5,0.7-20.3,3.8c-2.4,1.5-4.2,4.1-5.4,7.8c-1.3,3.6-1.8,7.3-1.5,11.2c0.3,4.1,1.4,7.4,3.4,10c2.2,2.9,5.3,4.4,9.4,4.4
		c0.1,0.4-1,1.4-3.1,2.7c-4.8,3.1-9.7,4.7-14.9,4.7c-10.6,0-18.5-4.9-23.8-14.6c-2.6,2.1-6,5.1-10,9.2c-4.8,4.9-7.9,8-9.4,9.2
		c-0.5-3,0-7.1,1.5-12.4c-2.7,1-6.8,2.9-12.4,5.8c-7.9,4.1-11.8,6.2-11.9,6.3c-8.5,2.7-23.7,3.6-45.8,2.5c2-3.4,4.6-7.7,7.7-12.7
		c4.6-7.5,7.2-11.7,7.8-12.6c-3.4,0.2-13-0.4-28.9-2c9.2-15.4,17.4-25.4,24.6-30.1c-14.6,1.6-27.9,0.7-39.9-2.7
		c9.6-14.6,16.4-23.2,20.3-25.8c-12.9-3.7-22.1-7.5-27.5-11.4c0.4-0.2,17.1-7.5,50-21.8c-5.3-6.9-7.8-10-7.6-9.4
		c-0.4-1.1-0.9-6.1-1.3-14.9c1.2,0.5,3,1.4,5.4,2.5c2.5,1.2,4.4,2.2,5.7,2.7c4.7,2,9.1,3,13.1,3c1.9,0,7.8-1,17.6-3
		c1.9-0.4,4.8-1.1,8.7-2c3.8-0.8,6.5-1.4,8.4-1.8c-1.4-4-1.3-8.5,0.4-13.5c11,5.3,20.4,7.9,28.1,7.9c3,0,7.1-0.3,12.1-0.9
		c6.5-0.9,10.6-1.4,12.2-1.4c9-0.7,17.5-0.8,25.5-0.2c5.9,0.4,13.7,1.5,23.4,3.4c10.7,2.1,18.2,3.4,22.4,3.8
		c0.1,0.3,0.2,0.7,0.4,1.3c0.1,0.5,0.1,0.9,0.2,1.1c0.1,0.1,0.1,0.5,0.2,1.1c0.1,0.4,0.1,0.7,0.2,0.9c0.9,1.7,2.2,2.9,4.1,3.6
		c1.5,0.6,5.7,1.2,12.7,1.8c5.4,0.5,8.5,1.7,9.2,3.6C266.2,100.9,265.7,102.8,263.7,104.3z M126.3,143.4c23.1-1,46.5,2.9,70.1,11.6
		c-2.5-6.7-4.9-11.2-7.3-13.5c-2.6-0.1-5.5,0.4-8.5,1.6c-3.9,1.6-6.2,2.5-6.8,2.6c1.8-10,7.2-17.3,16.2-21.9
		c8.3-4.1,19.1-5.6,32.3-4.6c1.2-0.9,2.6-2.7,4.1-5.4c1.4-2.6,2.8-4.4,4.2-5.2c0.6-0.4,1.4-0.7,2.5-1.1c1.3-0.4,2.3-0.8,2.9-1.1
		c-4.1-0.4-7.9,0.5-11.2,2.6c-0.7,4.2-3.8,6.4-9.3,6.5c-4.9,0-9-1.3-12.1-4c0.4,0.1,1.6,0.4,3.4,0.8c1.4,0.3,2.5,0.5,3.3,0.8
		c-1.8-2.9-2.7-5.8-2.6-8.8c-3.9-0.4-13.2,1.3-27.8,5.2c-7.6,2-17.4,1.6-29.4-1.1c6.5,0.7,12.5,0.9,18,0.7c4.9-0.2,12.6-2,23.2-5.3
		c9.5-3,17.3-4.2,23.5-3.7c3.1,0.2,5.6,0.8,7.5,1.9c2.4,1.2,3.5,3,3.1,5.2c1-0.2,1.7-0.7,2.2-1.5c0.5-0.9,0.7-1.8,0.6-2.7
		c2.4,2.2,4.6,2.7,6.7,1.5c-4.6-3.1-9.6-4.8-15.1-4.9c3.4-1.9,7.2-1.9,11.5,0c0.4,0.1,1,0.4,1.8,0.7c0.7,0.2,1.3,0.4,1.7,0.5
		c0.6,0.3,1.8,1,3.6,2.2c1.5,0.9,2.7,1.5,3.8,1.8c3.4,0.8,6.7,0.1,9.9-2c0.9-0.6,1.2-1,1.1-1.3c-4.5,0.5-9-0.2-13.5-2.1
		c-1.5-0.7-3.3-1.6-5.6-2.9c-2.6-1.4-4.4-2.3-5.4-2.7c-3.9-1.8-6.1-2.8-6.5-2.9c-0.1,0-3.5,0.8-9.9,2.4c-7,1.8-12.6,2.5-16.8,2.1
		c2.9,1.6,4.7,2.8,5.3,3.5c-9.4-3.4-22.7-2.6-39.9,2.3c15.2-5.4,23.9-8.3,26.1-8.6c0.7-0.1,4.4-0.1,11-0.2c3.5,0,9.4-1.4,17.8-4.3
		c-23.4-3.7-41.5-4.5-54.5-2.6c-0.8,0.1-3.7,0.7-8.7,1.6c-3.5,0.7-6.3,1.1-8.6,1.2c-7.6,0.4-14.9-1.5-21.8-5.8
		c-0.1-0.5,1.6,2.9,5.1,10.3c-10.1,0.4-18.1,1.1-24,2.3c-15.1,3.1-22.6,4.6-22.5,4.6c-1.7-0.1-6.1-1.2-13.3-3.5
		c3.8,5.4,9.3,8.4,16.7,8.9c3.4,0.2,8.1,0,14.2-0.5c7-0.7,11.5-1,13.6-1c-5.4,1.1-12.4,3-20.7,5.8c-4.4,1.5-10.6,4.1-18.5,7.9
		c-2.6,1.2-16,5.5-40.4,12.7c7.9,1.3,13.8,1.9,17.9,1.9c6.7-0.1,17.6-2.8,32.9-8.1c13.6-4.8,24.7-7.4,33.3-7.8
		c8.5-0.4,17,0.8,25.5,3.4c0.8,0.2,7.9,2.9,21.2,8c-11.9-3.4-24.2-5.4-36.8-5.8c-15-0.4-26.8,1.6-35.4,6c14-3.7,29.9-1.8,47.8,5.6
		c-22.7-4.6-41.4-3.7-55.9,2.9c-6.8,3-20.6,10.4-41.2,22.1c-0.2,0.4-1.1,1-2.5,1.8c-1.5,1-2.6,1.7-3.1,2.2c5.9,0.6,9.9,0.9,11.9,0.9
		c6.3-0.1,13-1.5,20.1-4.3c1.8-0.7,4.6-2,8.6-3.7c3.7-1.7,6.6-2.9,8.7-3.6C97.4,146.7,111.2,144,126.3,143.4z M96.2,162.1
		c15.3-6,40-9.2,74.1-9.7c-34.7-3.7-60.5-2-77.3,4.9c-20.2,8.3-35.6,21.4-46,39.1C62.4,180.4,78.8,169,96.2,162.1z M123.2,164.2
		c9.4-3.4,20.2-6,32.4-7.7c-26.4,0.8-46.2,4.5-59.4,11c-7.9,3.9-15.3,8.3-21.9,13.3c-9,6.7-15,12-18,16.2c15-2,27.6-6.1,37.8-12.3
		c2.9-1.8,6.5-4.3,11-7.7c5.3-4,8.9-6.7,10.8-8c0.7-0.4,1.9-1.2,3.6-2.3C121.2,165.6,122.4,164.8,123.2,164.2z M268.7,152.7
		c6.8-10.5,9.9-19.7,9.3-27.6c-0.7-9.7-7.8-15.5-21.2-17.2c-0.1,0.1,0.4-0.3,1.4-1.2c0.7-0.6,1-1.2,0.9-2c-0.1-0.7-0.6-1.3-1.4-1.8
		c-0.9-0.5-1.8-0.6-2.6-0.2c-0.2,0.1-0.6,0.5-1.1,1.3c-0.7,0.9-1.1,1.4-1.4,1.6c0.6-0.4-3.6,0.7-12.6,3.3c-6,1.8-9.2,3.8-9.5,6.3
		c-0.4,2.7,1.3,4.2,5,4.5c-2.6,1.1-6.3,1.5-11.2,1.3c-28.3-1.2-44.2,5.9-47.5,21.4c0.8-0.3,1.8-0.8,3.1-1.4c1.5-0.7,2.5-1.1,3.1-1.4
		c2.5-1,5-1.5,7.6-1.4c1.5,2.1,3.6,5.4,6.3,10c2.6,4.4,4.7,7.7,6.3,9.8c-0.1-0.1,0.1,0.1,0.4,0.4c0.7,0.8,1.7,1.7,3.1,2.7
		c1.8,1.3,3,2.1,3.4,2.4c4.7,4,9.5,9,14.4,14.9c2.8,3.3,6.5,6.7,11.2,10.1c-3.1-7-9.3-14.9-18.5-23.7c-10.1-9.7-16.7-17.2-19.7-22.6
		c7.1,5,10.7,7.5,11,7.6c-2.4-1.9-4.2-4.7-5.4-8.5c-1.3-4.2-1-7.8,0.7-10.9c1.2-2.2,1.8-3.1,2-2.9c-7.1,0.3-14.2,2.9-21.4,7.8
		c5.5-9.6,19.1-13.2,40.8-10.8c2.4,1.6,5.6,2.5,9.5,2.6c4.3,0.1,6.9-1,8.1-3.5c1.3,1.2,3,2.1,5,2.6c2.3,0.6,4.3,0.4,6-0.7
		c5.4,0.7,9.3,3.8,11.5,9.6C265.8,137.5,267,143.3,268.7,152.7z M177.7,153.9c18.1,7,31.1,13.5,39,19.7
		c-6.6-6.7-11.9-11.2-15.9-13.7C193.9,155.7,186.2,153.7,177.7,153.9z M205.6,141.1c4.9,4.4,9.3,10.5,13.1,18.5
		c-1.1-0.6-2.7-1.8-4.9-3.6c-2.1-1.6-3.6-2.7-4.6-3.2c2.3,2.3,5.3,5.5,9,9.6c4.5,4.9,7.4,8,8.6,9.3c-4.8-12.4-10.4-21.6-16.8-27.6
		c-0.3-0.2-0.6-0.2-0.9,0c0.1-0.4-0.1-0.8-0.6-1.1c-0.1-0.1-0.3-0.1-0.6-0.2c-0.2-0.1-0.4-0.1-0.4-0.2
		C206.2,141.5,205.5,141.1,205.6,141.1z M219.4,107.7c0.1,1.3-0.3,2.2-1,2.5c-0.7,0.3-1.4,0.2-2.2-0.2c-0.8-0.4-1.3-1-1.4-1.6
		c-0.1-0.8,0.3-1.5,1.4-2.2c-0.4,0-0.7-0.1-1.1-0.2c-0.4-0.2-0.7-0.3-0.9-0.3c-1,1.8-1,3.4-0.1,4.8c0.8,1.4,2,2,3.5,1.8
		c1-0.1,1.7-0.6,2.1-1.5c0.1-0.3,0.3-0.7,0.6-1.3c0.1-0.7,0.3-1.1,0.4-1.4c-0.2,0.1-0.4,0-0.7-0.1
		C219.8,107.6,219.6,107.6,219.4,107.7z M254.1,109.9c5.7,0.9,9.6,4.2,11.9,10.1c-2.7-3.6-5.8-5.7-9.3-6.3c-0.3,2.3-1.5,3.1-3.8,2.6
		c-1.4-0.3-3.1-1.1-5-2.4c-0.9,0.2-1.3,1-1.2,2.2c0.1,1,0.4,1.9,0.9,2.7c-0.5-0.1-1.3-0.9-2.4-2.4c-0.9-2.6,0.1-4.3,3-5.1
		c1.6-0.4,2.6-0.7,3-1c0.9-0.5,1.2-1.4,1-2.5c0.3,0.1,0.6,0.4,1,0.9C253.7,109.3,253.9,109.7,254.1,109.9z"/>
</g>
</svg>
