<?xml version="1.0" encoding="utf-8"?>
<!-- Generator: Adobe Illustrator 21.1.0, SVG Export Plug-In . SVG Version: 6.00 Build 0)  -->
<svg version="1.1" id="Layer_1" xmlns="http://www.w3.org/2000/svg" xmlns:xlink="http://www.w3.org/1999/xlink" x="0px" y="0px"
	 viewBox="0 0 300 300" style="enable-background:new 0 0 300 300;" xml:space="preserve">
<style type="text/css">
	.st0{fill:#FFFFFF;}
</style>
<path d="M165.7,37.9c0.4-1.3-0.6-2.3-1-3.5c3.5-1,2.8,3.5,3.6,5.4c9,3.3,17,8.6,25.2,13.4c0.1-3.8,1.3-8.8,5.6-9.8
	c4.4-2.1,9.7,0.8,11.1,5.3c3.2,8.1-1,16.3-1.6,24.4c0.8,4.4,3.3,8.2,4.9,12.3c6.6,14.2,10.5,30,8.7,45.7c-0.9-2.2-1.7-4.5-2.1-6.9
	c-1.6-2.6-3.3-5.5-6.5-6.4c-0.1,13.7,0.4,27.7-3.6,41c-2.1,7.1-5.8,14.4-12.7,17.9c3.1-8,5.1-16.9,2.2-25.2
	c-3.8,8.2-5.5,17.3-10,25.2c-3.9,7.1-9.6,13.7-17.3,16.7c2.3-3.7,4.1-7.7,4.7-11.9c-6.1,4.2-12.9,7-19.9,9.3c-4.7,1.6-9.7,2.4-14,5
	c-3,1.8-5.1,4.9-5.8,8.3c1.9-1.6,3.5-4.6,6.5-4c3.8,0.5,4.6,4.8,5.4,7.8c-0.7,1.2-1.1,2.4-1,3.8c-2-3,0.5-9-4.2-10.4
	c-5-1-7.8,6.5-4.4,9.8c3.4,2.5,6.7-2.9,4.9-5.8c-2.5-2-3.6,1.8-4.3,3.4c0-2.5,1.3-6.6,4.5-4.5c2.9,3.4-1.8,10.8-6.1,7.8
	c-4.7-3.8-2.7-11.7,1.6-15.1c9-5.4,19.6-7.6,28.4-13.5c4.9-3.3,7.9-8.7,8.9-14.4c1.2,1.6,2,3.6,1.7,5.7c-0.5,6.1-2.9,11.7-5,17.3
	c3.7-1.9,6.9-4.8,9.2-8.2c9.8-13.7,14.7-30.4,16.6-47c0-2,0.8-5.4-1.9-6c-4,2.7-4.4,8.1-6.7,12.1c3.4-11.7,3.8-24.1,2.1-36.1
	c1.6,3.4,3.9,6.5,6.3,9.2c-0.7-12.8-4-25.9-11.3-36.6c-4.4-6-10.2-11.2-17.1-14.1l0.1-0.4c11.2,4.2,19.4,13.8,24,24.6
	c5,11.1,7,23.2,7.7,35.3c0.3,11-1.3,22-1.1,33c0.3,5.6-1.8,10.9-2.8,16.3c2.8-1.9,4.5-5,6.1-7.9c4-7.8,5.3-16.6,6.2-25.2
	c0.7-10.5,0.5-21.1-1-31.6c-2.9,2.7-3.8,6.8-5.2,10.4c-0.7-8.8-2.3-17.6-4.9-26.1c2.3,2.5,4.1,5.8,7.7,6.4c-1.4-7-5.2-13.1-8.3-19.5
	c8.9,9.8,13,22.9,14.8,35.8c2.7,2.2,4.4,5.3,6.7,7.9c-0.3-15.2-4-30.6-12.3-43.5c-0.4,0.5-1.3,1.4-1.7,1.9c-3.5-5.3-0.4-11.5,0.9-17
	c1.9-6.2,3.1-13.6-0.9-19.2c-1.1-2-3.4-2.6-5.3-3.5c1.9,2.5,2.4,6,0.8,8.8c-1.6,3.2-5.7,3.8-8.9,3.3c-6.3-1.3-10.5-6.6-16.3-9
	c-3.5-1.6-7.8-1.8-11.3,0c-5,2.4-9.4,6.5-15.3,6.6c-6.2,0.3-12.4,1-18.6,0.9c-1.8,2.3-2.1,5.5-1.3,8.3c0.7,2.3,3.4,3.2,5.6,2.9
	c4.9-0.9,9.2-3.6,14-4.8c3.1-0.9,6.1,0.5,8.8,2c-0.4,2.4-0.8,4.7-1.5,7c-0.4-0.8-0.9-1.6-1.4-2.4c-2.3,2.6-2.7,6.4-6.1,8.1
	c1.1-0.1,3.2-0.2,4.2-0.3c-1.8,2.6-4.8,2.7-7.6,2.7l1.6-1c0-0.2-0.1-0.7-0.1-0.9c-2.8-1.3-5.6-2.5-8.2-4.2c-0.2,0.6-0.5,1.8-0.6,2.4
	c-1.7-1.9-2.9-4.2-3.7-6.7c-4.1,0-6.8-5.4-11.1-3.4c-2.7,2.8-3,7.1-3.7,10.7c-0.9,4.7,0.4,10.2,4.4,13.1c1.9,1.5,4.6,1.4,6.4,3.1
	c-4.5-0.1-9.1-2.5-11-6.7c-1.8-3.6-1.8-7.9-1-11.8c1-3.9-0.9-7.7-3.5-10.4c-6.8,2.5-14,3.4-20.9,5.2c-9.4,2.7-15.9,11.8-17.2,21.2
	c-1.2,7.6-0.7,16.1,3.3,22.8c1.1,2,2.8,3.3,4.8,4.3c-3.4-6.2-1.7-15,4.6-18.7c7.5-4.5,16.6-3.2,24.9-4.1c5.4-0.7,10.9-0.1,16.2-1.5
	l-0.5-1.3c6.4,0.8,13.5-1.6,19.2,2.2c7.8,5.3,10.7,15.3,11,24.3c0.8,13.8-5.6,26.8-13.8,37.4c3.6,1,5.9,4.1,6.6,7.6
	c1.4,7.9,0.4,16.2-3.1,23.5c11.1-5.4,19.7-14.9,26.5-25l1.5-0.6c-5.3,9-12.3,17.2-21.1,22.9c-2,1.2-4,2.7-6.4,3
	c-1.2,0.9-2.6,1.5-4,2c2.5-4.6,4.4-10.6,0.5-15c-4.1,1.3-7.4,4.8-11.2,7c-9.4,5.8-14.2,17.6-12.5,28.3c1.1,4.9,4.4,10.1,9.7,11
	c5.1,0.6,9.9-2.4,12.2-6.8c-1,4.4-5,7.6-9.4,7.9c-3.4,0.3-6.4-1.8-9.5-2.8c-1.1,3.8,2.1,7.2,5.7,7.7c4.1,1.1,8.3-1,11.1-3.9
	c2.3-2.3,3-5.5,4.3-8.3c0.7,7.4-6.2,13.9-13.5,13.2c-4.5,0.3-8.4-2.9-10.2-6.8c-2.2-4.8-2.2-10.1-2.1-15.2
	c-10.9,0.8-20.1,8.9-24,18.8c-3.7,9.3-4.8,20.1-1.1,29.5c1.6,4.1,4.9,8,9.6,8.3c11.1-0.2,16.7-17.6,7-23.5c-6,2.9-6.1,11.3-5.1,17
	c-0.3-0.3-1-1-1.3-1.4c-3.6-0.5-5.2-4.4-5.7-7.6c-0.7-6.2,2.1-13.3,8.1-16c5.2-2.1,11.9,0.2,14.5,5.3c4.5,8.4,4.3,19.6-1.9,27.1
	c-7.4,9.2-23.2,8.2-30.6-0.4c-3.7-3.7-5.3-8.8-7.8-13.3c-0.3,1.7-0.6,3.5-0.9,5.2c-3-6.2-3.4-13.2-4.1-19.9
	c-0.3-3.1,0.1-6.2,0.4-9.3c-0.9,0.5-2.8,1.6-3.8,2.1c0.5-7.5,1.8-15,4.1-22.2c-0.2,4.9-1.7,9.7-1.8,14.6c4.9-5.3,5.9-12.7,9.8-18.7
	c5.9-9.4,14.4-16.7,23.2-23.3c6.9-5.2,13.9-10.5,19.4-17.3c7-8.8,10.2-20.5,8.5-31.6c-0.3-2.8-0.8-5.6-2.7-7.8
	c-0.9,0.8-1.8,1.6-2.7,2.5c-1.7-6.4-5.5-12.9-12.2-15c6.4,3.5,9.5,10.8,9.9,17.9c1.1,12.7-3,26-12,35.1c-5.6,5.9-13.2,9.2-19.2,14.5
	c-9.5,7.1-15.8,17.7-19.6,28.7c0.3-4.7,1.1-9.4,2-14c2.7-2.6,5.7-4.9,8.6-7.3c3.8-3,6.7-6.8,10.2-10c-3.3-0.5-6.3-2.1-8.2-5
	c-3.2-5-4.3-11.4-2.7-17.2c1.8-6,8.9-11.2,15.1-7.9c-0.4,0.6-0.8,1.2-1.2,1.8c-1-2.7-4.4-2.1-6.4-1.1c-5.5,3.2-7.2,10.4-6.5,16.3
	c0.4,5.1,3.7,11.1,9.4,11.3c-0.2-3.1-2.6-4.9-4.9-6.5c10.4,1,21.9-2.8,28.1-11.6c4.3-6.5,6-14.3,6.5-22c0.1-4-1.9-8.2-6.1-9.3
	c0.4,8,0,16.4-4.1,23.5c-3.4,6.7-10.3,12.7-18.2,11.8c-5.1-0.7-7.7-8.1-3.6-11.4c2.5-1.8,4.9,0.4,7.3,0.7c1,3.1-0.1,6-2.9,7.9
	c1.1-1.8,1.8-8.4-2.3-6.9c0.8,2.5,1.5,5,2.2,7.5c5.1-0.3,10-3,13-7.2c7.6-9.4,8.6-22.9,4.4-34c-1.4-3.9-4.8-7.4-9.1-7.6
	c-8.7-1.1-18.2-1.6-26,3c-0.2,3.2,1,6.2,2.3,9.1c-6.8-1.7-10.2-8.8-11.3-15.2c-1-8-0.9-16.7,3.3-23.8c2.7-4.4,6.3-8.8,11.5-10.2
	c6.3-1.9,12.8-3.4,19.3-4.7c1.9-4.7,3.4-11.4,9.5-12c2.1-5.7,7.4-9.7,13.4-10.7c8.4-1.3,16.9-0.7,25.3-2c1.9-0.4,3.8-1.1,5.2-2.5
	c-0.1,0.7-0.4,1.9-0.6,2.6c-11.4,5.2-24.9,0.1-36.2,5.9c-4.7,3.1-8,8.5-8.2,14.1c-0.1,2.5,1.5,4.4,3.2,6c2.2-1.5,4.1-3.4,6.6-4.3
	c0.2-3,1.4-6.4,4.6-7.4c7.7-1.9,16.1,2,23.5-1.5C162.6,48.4,165,43,165.7,37.9z"/>
<path class="st0" d="M196,47.4c1.2-2.1,3.6-3.8,6.1-2.8c1.9,1.1,1,3.4,1.1,5.1C200.5,50.3,197.9,49.3,196,47.4z"/>
<path class="st0" d="M195.2,49.9c2.1-2.5,6.2,1.5,3.6,3.6C196.2,55.5,192.6,52.7,195.2,49.9z"/>
<path class="st0" d="M112.9,62.2c1.6-4.5,3.5-9.2,7.8-11.7c-1.3,3.7-2.9,7.2-4.8,10.5C115.2,61.3,113.7,61.9,112.9,62.2z"/>
<path class="st0" d="M149.1,62.2c0.9-0.4,1.8-0.8,2.8-1.3c0.2,3,0.7,6.8-2.2,8.8c-2,1.7-4.3-0.1-6.1-1.1c1.2,2,3.6,3.6,6.1,2.6
	c3.2-1.6,4-5.5,5.2-8.5c1.8,4.8-2.2,11.9-7.9,10.9c-3.1-0.6-5-3.5-5.1-6.5l1.9,0.9c-1.4-2.1-0.3-3.6,1.7-4.2
	c-0.3,2.1,0.3,4.1,2.8,4.2C150.2,66.5,150.3,64.2,149.1,62.2z"/>
<path d="M107.5,68.8c2.5-2.9,8.2-1.1,7.4,3c-0.8-2.1-2.5-2.9-4.6-2.4c-0.2,0.6-0.6,1.7-0.8,2.3C108.8,70.8,108.1,69.8,107.5,68.8z"
	/>
<path class="st0" d="M92.8,96.6c4.3-2.2,9.4-2.3,14.1-1.8c5.7,0.8,11.8-0.4,17.3,1.9c-3.3,6.5-11.2,5.3-17.2,5.1
	c-5.3-0.5-10.4,1.1-15.7,1.1c-0.2-0.8-0.7-2.3-1-3.1C91.1,98.7,91.5,97.2,92.8,96.6z"/>
<path class="st0" d="M148.1,96.1c4.3-1,8.8,1.6,10.4,5.7c3.5,8.7,3.5,18.6,1.2,27.7c-2.2,8.9-7.8,16.4-12.5,24.1
	c1.9,2.6,3.4,5.9,2.3,9.2c-1.6,4.6-6.1,7.1-10,9.6c-8.4,4.5-16.3,9.8-24.3,14.9C101.6,197.3,92.8,213.9,93,231
	c0.3,8.7,1.4,18,6.8,25.2c3,4.1,9,5.5,13.4,3c4.3-2.5,7.9-7.1,7.8-12.3c0.3-1.9-0.5-4.9,1.9-5.6c1.2-0.8,2.4,0.7,3.3,1.4
	c2.3,10.5-5.7,21.9-16.4,23.4c-7,0.7-14.1-3.8-16.8-10.3c-2.4-5.4-2.7-11.4-2.5-17.2c-3.9,2.1-5.3,6.6-7,10.4
	c-2.8-13.6-3.1-28.1,2.3-41.1c5-12.3,14.3-22.5,25-30.2c9-6.9,18.5-13.7,24.4-23.6c6.6-10.9,8.3-25.1,3.5-37
	c-2.7-7-8.9-12.1-16.1-13.8c5.3-3.8,13.5-4.3,18.3,0.5c8,9.6,8.2,23.1,6.9,35c1.7-5.5,1.4-11.3,1.1-16.9c-0.4-7.3-4.5-13.8-4.5-21.1
	C144.9,98.9,145.7,96.4,148.1,96.1z"/>
<path d="M187.4,124.2c3.3-6.9,2.2-14.8,3-22.3c1.5,15.2,1.2,31.1-4.8,45.4c-0.2,0.2-0.6,0.5-0.8,0.7c0.3,1.5-0.6,2.6-2,3.1
	c0.1,1.5-2.1,1.6-1.4,3.2c-1.3,0.3-1.8,1.6-2.5,2.5c-2.4,3.9-5.3,7.7-9,10.6c1.1-3.1,2.5-6.2,2.7-9.6c-2.4-0.1-5.2,1.2-7.4,0
	c-1.4-3.7-0.3-7.8-2-11.5c-0.7-1.4-2.6-1.1-3.8-1.7c5.1-7.6,7.8-16.7,8.2-25.8c1.1,2.3,2.2,4.6,3.3,6.8c0.9-1.5,1.7-3.1,2.5-4.7
	c1.6,2.8,3.1,6.4,6.6,7.1C183.1,129.2,186.2,126.9,187.4,124.2z"/>
<path d="M106.3,143C106.7,143.4,106.7,143.4,106.3,143z"/>
<path class="st0" d="M101.9,152.4c-1.9-1.2-3.2-3.9-1.1-5.7C102.4,148.2,102.7,150.5,101.9,152.4z"/>
<path d="M183.2,151.4C183.9,152.1,183.9,152.1,183.2,151.4z"/>
<path d="M182.2,153.4C182.9,154.1,182.9,154.1,182.2,153.4z"/>
<path d="M181.2,154.9C181.9,155.6,181.9,155.6,181.2,154.9z"/>
<path d="M180.3,157.3C180.7,157.7,180.7,157.7,180.3,157.3z"/>
<path class="st0" d="M113.5,191.4c2.2-1.4,5.7-3.3,8-0.8c2.1,2.8,0.8,6.5-0.7,9.3c-5.6,4-12.2,6.8-16.7,12.3
	c-2.5,2.4-3.2,6.2-6.2,8.1c-1.7-3.8,0.2-7.9,2-11.3C103.4,202.5,107.4,195.9,113.5,191.4z"/>
<path class="st0" d="M108.8,251.7c-10-5.5-4.5-24.6,7.1-23.5c4.2,0.2,7.4,3.6,9.4,7.1c-4.1-3-10.4-2.4-13.6,1.7
	C107.9,240.8,108.1,246.6,108.8,251.7z"/>
</svg>
