<?xml version="1.0" encoding="utf-8"?>
<!-- Generator: Adobe Illustrator 21.1.0, SVG Export Plug-In . SVG Version: 6.00 Build 0)  -->
<svg version="1.1" id="Layer_1" xmlns="http://www.w3.org/2000/svg" xmlns:xlink="http://www.w3.org/1999/xlink" x="0px" y="0px"
	 viewBox="0 0 300 300" style="enable-background:new 0 0 300 300;" xml:space="preserve">
<style type="text/css">
	.st0{fill:#FFFFFF;}
</style>
<path d="M131.8,42.9c5.8-0.9,11.9-2,17.7-0.6c8.9,2.1,17.3,5.8,25.6,9.4c11.5,4.8,23.4,8.8,34.3,14.9c8.5,4.5,15.2,12.3,18.8,21.1
	c2.4,5.8,2,12.2,1.1,18.3c7.1,3.8,13.4,8.6,19.9,13.3c-0.1,6.9,1.8,13.9,0.1,20.8c-1.1,5.6-3.7,10.8-6.9,15.4
	c-1.3,1.8-2.2,4.1-4.2,5.4c-1.7-3.6-1.8-7.7-3.9-11c-3.8-6.5-12.4-8.4-19.3-7.2c-4.6,1.8-10.3,4.8-10.4,10.4
	c0.2,5.5,4.3,9.7,8.1,13.2c12.1,11.6,19.5,28.5,17.9,45.4c-0.5,5.9-3.4,11.2-7.2,15.7c-0.5-7-2.7-14.1-7.1-19.6
	c0,6.6,0,13.4-2.6,19.6c-1-3.8-1.9-7.6-3-11.3c-1.3,16.8-9.7,32.1-20.7,44.4c4.3-11.5,8.3-24,5.6-36.3
	c-6.8,16.1-19.6,30.9-37.2,34.9c3.8-7.6,7.7-15.3,9.7-23.7c-2,2-4.1,3.9-6.4,5.6c-0.2-0.7-0.5-2-0.7-2.7c0.4,0.2,1.3,0.6,1.8,0.8
	c2.6-3.2,4.9-6.8,7.2-10.2c-0.1,9-3.2,17.5-6.4,25.8c9.3-3.9,16.8-11.2,22.1-19.6c3.8-5.8,6.1-12.4,9.9-18.2
	c5.9,6,4.7,15.1,4.5,22.7c6.4-11,7.2-24.3,6.7-36.7c2.3,2.2,4.3,4.6,6,7.3c-0.2-3.9,0.2-7.7,0.8-11.6c5.5,5.9,9.8,13,12.1,20.8
	c4.6-9.2,2.9-19.8,0.1-29.2c-2-7.2-6.1-13.5-10.4-19.4c-0.2,0.9-0.6,2.7-0.8,3.6l0.7-3c2.6,4.6,4.7,9.4,6.1,14.5
	c-4.1-6.8-8.2-13.7-13.4-19.6c2.3,4.8,3.4,10.1,1.8,15.3c-2.3-5.3-3.8-10.9-6.6-15.9c1.5,6.4,2.7,13,1.7,19.6
	c-0.9,5.1-3.1,9.9-5.3,14.6c-0.2,0-0.6-0.1-0.7-0.1c1.7-4.5,0.6-9.7,1.4-14.5c-0.1-6.2-0.1-12.5-2-18.4c-1.2,6.6-2.2,13.6-6.7,18.8
	c-0.2-7.2,0.4-14.5-0.4-21.7c-7.3,11.7-8.4,25.8-12.4,38.7c-0.4-10.9,0.1-22,3.1-32.6c-3.2,5.4-5.6,11.1-8.9,16.5
	c-1.1-6,0.9-11.9,2.5-17.6c-7.3,9.7-10.7,21.9-12,33.8c-1.6-5.2-1.9-10.7-1.9-16.1c-5.3,9.7-9.4,20-13.7,30.2
	c0.8-19.9,6.1-40.2,18.1-56.4c4.6-6.4,10.4-12.3,17.8-15.3c-6.5-0.4-13.5-0.9-19.1-4.7c-3.6-2.2-3.5-7.9-0.3-10.3
	c4-2.3,8.9-1.9,13.3-1.9c9.2-0.2,19,2.2,27.8-1.9c6.3-2.7,10.5-8.9,12-15.5c-2.2,3-5.4,5.1-8.9,6.3c-9.7,3.4-20.2,5.4-30.5,3.9
	c4.5-0.2,9.3-2.2,10.8-6.8c1.1-2.2-0.2-4.4-0.9-6.5c-1.2,2-2.2,4.6-4.7,5.3c-2.6,1.2-5.3-0.4-7.5-1.6c-2.3-4,0.3-9.2,4.9-9.7
	c-3.2-1-7.1-1.8-9.9,0.6c-2.9,2.8-3,7.1-2.1,10.8c-2-2.8-3.8-5.8-6.3-8.1c-8-5.6-19.4-3.2-26.6-10.4c4.3,0.7,8.6,2.7,13.1,1.8
	c7.3-0.8,14.4-5,21.8-2.9c11,2.8,17.4,13.6,28,17.1c5.3,1.8,12,3,16.8-0.7c0.7-0.5,1.4-0.9,2.2-1.3c0.5-3.4,0.6-6.9,0.2-10.3
	c3.8,2.6,7.4,5.4,11.1,8c0.7-5.6,1.2-11.6-1.1-16.9c-3.7-9.3-11.2-16.9-20.1-21.4c-9.5-4.9-19.7-8.2-29.8-11.9
	c-9.5-3.6-18.8-7.9-28.7-10.3c2.9,2.4,5.4,5.3,7.8,8.3c-2.6-0.4-5.1-0.8-7.7-1.3c1.6,1.7,3.2,3.4,4.7,5.2
	c-8.8-3.2-18.1-5.5-27.5-5.2c-10.4,0.4-20.2,3.7-30.2,6.2c7.1,1.2,14.1,3,20.6,6.2c-13,1.8-26.3,6.3-35.6,16
	c7.2-0.7,14.3-1.7,21.4-2.2c-6.4,2.6-13.2,4.4-19.4,7.4c-6.1,3.1-11,8-16,12.6c5.3-1.6,11-2,16.5-2.2c-3.9,3.1-7.6,6.4-11.3,9.7
	c-6.2,5.5-10.3,12.8-14,20.1c3.8-1.5,7.7-2.7,11.6-3.6c-2.7,3.5-5.7,6.7-8.1,10.4c3.1-0.9,6.2-1.7,9.4-2.2
	c-2.3,4.7-5.8,8.8-7.3,13.8c-1.2,3.6-1.6,7.5-2.4,11.2c3.6-3.1,7.8-5.4,12.4-6.2c-1.8,7.6-6.2,14.5-6.6,22.4
	c-0.1,6.4,0.1,12.8,0.5,19.2c3.2-4.9,7-9.5,12.6-11.8c1.2,8.9,4.2,17.3,7.2,25.7c-0.4,0.5-0.9,1-1.3,1.5c-2.3-7.9-5.7-15.5-7.7-23.6
	c-6.6,4.3-9.3,12-13.5,18.3c0.5-12-2.4-24.2,0.2-36.1c0.7-3.5,2-6.8,3.1-10.1c-6.8,3.6-8.2,11.7-10.9,18.3c0-11.6-0.4-23.8,4.3-34.7
	c-3.9,3.5-7.1,7.6-10.7,11.3c1.6-5.2,3.3-10.4,5.1-15.6c-2.4,1.5-4.7,3-7.1,4.4c2.9-12.6,8.8-24.4,17.3-34.2
	c-4.4,1.6-8.8,2.8-13.3,3.8c4.8-6.8,10.3-13.2,16.3-18.9c-0.3-0.2-0.8-0.5-1.1-0.7c7.1-11.1,17.6-20.2,30.1-24.4
	c-8.5-0.4-17,0.3-25.5,0c18.9-8.6,39.1-16,60.1-15.7l-0.7-1.1c4.1,0,8.2,0.2,12.4,0.3C141.1,45.4,136.4,44.2,131.8,42.9z"/>
<path d="M113.4,75.1c6.3-6.9,15.1-12.1,24.7-12c-6.5,1.4-12.5,4.4-17.8,8.5c4.3,0.1,8.5,0,12.8,0.4C126.6,73.2,120,74.1,113.4,75.1z
	"/>
<path d="M194.7,72.9c5.4,1.2,10.3,4.4,13.9,8.7c1.7,2,2.2,4.6,2,7.2c-8.5-5.6-18-10.1-28.2-11.6c7.2-1.9,14.2,1,20.9,3.6
	C201.7,77,198,75,194.7,72.9z"/>
<path d="M86.5,104.6c10.2-7.6,22.9-12.1,35.7-11.3c4.5,0.3,9,1.2,13.3,2.3c-12.4-1.2-25.2-0.1-36.6,5.2c7.5-0.6,16.4,0,21.2,6.6
	c-9.4-5.8-21.1-4.3-31.4-2.6C88.2,104.8,85.2,106.4,86.5,104.6z"/>
<path class="st0" d="M219.5,100.9c8.1,7.6,19.8,11.3,25.5,21.3c5.8,10.3,2.8,23.1-3.3,32.6c-1,1.4-2.2,4.4-4.2,2.5
	c-0.3-6.1-3.6-12.8-9.7-14.9c-16.8-6.2-35.3-1.9-52.3-7.1c7.5,4.5,16.5,4.3,24.8,5.2c-9.9,1.4-20.5,2.8-30.2-0.6
	c-2.8-0.9-6.6-3.2-5.5-6.7c2.8-3.8,8.1-3,12.2-3.1c10.8-0.2,22.6,1.3,32.1-4.9C217.1,120,219.7,109.9,219.5,100.9z"/>
<path d="M75.2,133.6c11-7.9,20.2-19.7,34.1-22.6c-9.5,3.6-17.6,10.1-24.4,17.6c10.7-3.2,21.4-6.4,32.2-9.5
	c-5.6,3.5-11,7.1-16.7,10.4c3.4-0.8,6.8-1.4,10.3-2c-7.7,7.3-15.4,14.4-22.5,22.2c13.5-5,27.5-8.9,41.9-10.8
	c-13.8,6.1-26.3,15.3-35.4,27.3c5.2-8.7,12.5-16.1,20.7-22c-12.1,3.3-23.9,7.8-35.7,12.1c4.8-8.6,11.3-16,18.6-22.6
	c-3.1,0.5-6.2,0.8-9.3,1.2c2.8-3,6.2-5.4,9.2-8.2C90.5,128.9,83.2,132.6,75.2,133.6z"/>
<path d="M225.8,117.9c2.4-1.3,5.2-0.9,7,1.2c-3,2.7-6.6,4.4-10.2,6.1c1.3-1.2,2.6-2.4,3.8-3.7C226.3,120.6,226,118.8,225.8,117.9z"
	/>
<path d="M109.7,217.2c0.5-11,2.7-22.5,9.4-31.5c-2.1,4.4-4.3,8.7-5.3,13.5c-2.1,7.8-1.8,15.8-1.6,23.8c-2.3-1.4-4.2-3.4-5.7-5.7
	c-2.5,5.7-3.2,11.9-3.9,18.1c-2.3-2.8-4.4-5.7-6.4-8.7c-2.8,4.7-2.2,10.4-0.9,15.4c-6.4-7-11.9-15.9-11.8-25.7
	c1.2,7.1,4.4,13.6,8.9,19.1c-0.1-4.9,0.4-10.4,4.6-13.7c1,2.5,2.2,4.9,3.6,7.2c1.2-5.8,2.7-11.5,5.6-16.6
	C107.3,214,108.5,215.6,109.7,217.2z"/>
<path d="M89.4,206.4c0.7-2.6,1.8-5.1,4.1-6.6c2.3,5.9,4.3,12.1,7.3,17.7c0.8-2.7,1.6-5.4,2.8-7.9c-0.9,3.1-1.9,6.1-2.5,9.3
	c-4-4.6-5.9-10.6-7.8-16.3c-1.1,2.8-2.2,5.7-3.4,8.5c-0.5-1.3-2.2-2.3-1.7-3.8C88.5,207.1,89.1,206.6,89.4,206.4z"/>
</svg>
