<?xml version="1.0" encoding="utf-8"?>
<!-- Generator: Adobe Illustrator 21.1.0, SVG Export Plug-In . SVG Version: 6.00 Build 0)  -->
<svg version="1.1" id="Layer_1" xmlns="http://www.w3.org/2000/svg" xmlns:xlink="http://www.w3.org/1999/xlink" x="0px" y="0px"
	 viewBox="0 0 182.2 182.2" style="enable-background:new 0 0 182.2 182.2;" xml:space="preserve">
<g>
	<path d="M4.7,82.7c0.8-0.7,1.1-1,1-1c0.1,0.3,0,0.5-0.2,0.6C4.9,82.7,4.6,82.8,4.7,82.7z M174.8,87.3c0.2,0,0.2,0.1,0.1,0.3
		c-0.1,0.1-0.1,0.2,0.2,0.2c1.8,6.1,1.2,13.8-1.7,23.3l-0.5,0.3c-0.6,3.1-2.1,7.5-4.6,13c-2.2,5.1-3.5,9.4-4,13.1
		c-0.2,1.8-0.4,2.8-0.5,2.8c0.1,0.1,0.2,0.5,0.2,1.1s-0.1,0.8-0.2,0.8c-0.1,0-0.4-0.7-0.9-2.1c-0.8-2-1.3-3.3-1.4-4l-0.5-0.6
		c-1.1-4.2-1.6-7.9-1.4-11.3c0.1-2,0.1-3.1,0-3.2c-0.5,0.6-1,1.5-1.6,2.6c-0.7,1.7-1.1,2.7-1.3,3c-0.4-0.1-0.6-0.4-0.6-0.8
		c0-0.1,0-0.2,0-0.5c0-0.2,0-0.4,0-0.5c-0.9-5.7-1.2-10.3-0.9-13.8c-0.3-0.1-0.6,0-0.8,0.1c-0.4,0.6-0.9,1.5-1.7,2.7
		c-0.5,1-1,1.9-1.6,2.6c-0.1,0.5,0-3.1,0.3-10.7h-0.5c-1.4,2.1-2.2,3.4-2.2,3.6c-1-2.4-1.3-5.2-1.1-8.3c-0.1-0.4-0.4-0.7-1-0.8
		c-1,2.2-1.9,3.6-2.7,4.1c-0.3-0.8-0.6-1.9-0.9-3.4c-0.4-1.8-0.7-3-0.8-3.5c-0.1,0-0.4,0.4-1.1,1.3c-1-1.4-1.6-2.1-1.8-2.1
		c-0.1,0-0.2,0.3-0.4,0.8c-0.1,0.1-0.2,0.1-0.3-0.1c-0.1-0.2-0.2-0.3-0.4-0.2c0-0.1,0.1-0.2,0.2-0.3c0.2-0.1,0.3-0.1,0.3-0.2
		c0.2-2.5-0.4-5.8-1.9-9.9c-1.2-1.3-2.3-3-3.2-5.1c-0.1,0.1-0.2,0.2-0.1,0.4c0.1,0.1,0.2,0.2,0.3,0.3c0.1-0.1-0.2-0.4-0.8-1.1
		c0,1,0.5,2.6,1.5,4.6c1,2.1,1.5,3.8,1.6,5.2c-1.4-3-2.3-4.7-2.7-5.2c-0.1-0.1,0.3,0.7,1.2,2.6c-0.2-0.1-0.5-0.6-0.9-1.5
		c-0.4-0.8-0.7-1.4-1.1-1.7c0.1,0.3,0.2,0.7,0.5,1.2c0.3,0.5,0.4,0.8,0.4,1.2c-0.1-0.3-0.5-1-1.2-2.2c-0.5-1-0.9-1.7-1.4-2.1
		c0.3,0.6,0.5,1.1,0.8,1.7c0.2,0.6,0.2,0.8,0.1,0.6c-0.1-0.1-0.4-0.6-0.8-1.4c-0.3-0.6-0.7-1.2-1.1-1.6c0.1,0.4,0.4,0.9,0.7,1.6
		c0.4,0.7,0.6,1.2,0.7,1.6c-0.3-0.3-0.6-0.8-1-1.7c-0.4-0.8-0.8-1.3-1.2-1.6c1,2.1,1.5,3.1,1.5,2.7c-0.1-0.3-0.6-0.9-1.3-2
		c1.5,5,3.4,8.5,5.6,10.5c2.3,2.1,3.4,3.1,3.3,2.9c-2.4-1.8-3.9-2.9-4.4-3.2c0.7,4.2,0.5,7.2-0.4,8.9c-0.7-1.4-1-2.1-1.2-2.2
		c-0.3,0.3,0,0.6,0.9,0.9c1.1-4.3,0.2-8.3-2.7-12.1c0.1,0.5,0.2,1.3,0.5,2.5c0.3,1,0.4,1.9,0.4,2.5l-0.4-1.4c-0.1-0.4-0.4-1-0.8-2
		c-0.4-0.8-0.7-1.5-0.8-2c-0.1,0.3,0.1,1,0.4,2c0.4,0.9,0.5,1.4,0.4,1.6c-0.3-0.7-0.6-1.7-1.1-2.9c-0.6-1.6-0.9-2.5-1.1-2.8
		c-0.1,0.3,0,0.7,0.3,1.4c0.3,0.8,0.4,1.3,0.5,1.7c-0.2-0.2-0.4-0.6-0.6-1.2c-0.2-0.6-0.4-1.1-0.5-1.3c-0.1,0.1-0.1,0.4,0.1,0.8
		c0.2,0.5,0.3,0.8,0.2,1.1c-0.7-1.7-1.2-3-1.6-4c-0.1,0.2,0,0.6,0.2,1.1c0.2,0.6,0.3,1,0.3,1.4c-0.1-0.3-0.3-0.7-0.6-1.5
		c-0.3-0.6-0.5-1.1-0.7-1.5c-0.1,0.1,0,0.4,0.2,0.8c0.2,0.5,0.3,0.8,0.3,1c-0.1-0.1-0.3-0.4-0.4-0.8c-0.2-0.4-0.3-0.6-0.4-0.8
		c0.5,3.8,2.4,8.5,6,14.2c0-0.1-0.3-0.5-1-1.2c-0.5-0.5-0.6-0.7-0.4-0.6c-0.8-1-1.3-1.7-1.5-2.1c-0.2,0.1-0.4,0.2-0.5,0.2
		c0,0.1,0,1.2,0.1,3.2c0.1,1.7,0.1,2.9-0.1,3.5c-2.5-4.2-4-6.4-4.3-6.6c-0.9,3.3-1.2,4.8-0.8,4.7c0.3-2.1,0.4-3.6,0.3-4.5
		c0.1,0,0.1,0.4-0.1,1.1c-0.3,0.1-0.4-0.5-0.4-1.9c-0.1,0.3-0.1,0.7,0,1.4c0.1,0.7,0,1.1-0.1,1.4c-0.1-0.2-0.2-0.6-0.2-1.2
		c0-0.7,0-1.1-0.1-1.3c0.1,0,0,0.4-0.2,1.1c-0.1,0.1-0.1-0.2-0.2-0.9c0.1,0,0.1,0.3-0.1,0.9c-0.1,0.1-0.2-0.2-0.2-0.7
		c-0.1-0.7-0.2-1-0.3-1.2c0.3,0,0.3,0.4,0,1.3c-0.1-0.3-0.3-0.7-0.4-1.4c-0.1-0.8-0.1-1.2-0.2-1.4c-0.3,1.8,0.2,4.3,1.7,7.5
		c0,0.1,0.1,0.1,0.3,0c0.1-0.2,0.2-0.2,0.2,0c-0.1,1.9-0.1,2.8-0.2,2.7c0.1-0.1-0.3-0.3-1.2-0.6c0.1,0.3,0.6,0.9,1.5,1.9
		c0.7,0.7,1.1,1.4,1.3,2.1c-0.3,0.1-0.6-0.1-0.9-0.4c-0.5-0.5-0.8-0.7-1-0.7c0.4,0.5,1.3,1.3,2.8,2.2c-0.4-1.2-0.7-2.1-1.1-2.6
		c-0.1-0.1-0.5-0.4-1.1-1c-0.4-0.4-0.5-0.6-0.2-0.7c-0.1-0.1,0.1,0,0.5,0.4c0.4,0.3,0.6,0.5,0.6,0.6c0.6,0.7,1.1,1.8,1.6,3.3
		c0,0.1,0.1,0.1,0.2,0.1c0.1,0,0.1,0.1,0.2,0.2c-0.2,0.3-0.5,0.3-0.9,0c0,0.5,0.3,1.2,0.8,2c0.5,0.7,0.6,1.4,0.5,2
		c-0.3-0.5-0.5-0.9-0.5-1.3c-0.2,0.1-0.2,0.3-0.1,0.6c0.1,0.4,0.2,0.7,0.1,0.8c-0.3-0.1-1-0.6-2.1-1.4c0,0.1,0.9,0.8,2.6,2.3
		c0.1-0.1,0.1-0.3,0-0.7c-0.1-0.3,0.1-0.5,0.4-0.4c0-0.6,1.6,2.3,4.8,8.7c-0.1,0,0.4,0.4,1.4,1.1c-0.1,0.2-0.4,0.2-0.7,0
		c-0.4-0.3-0.7-0.4-1-0.3c-0.3,0.1-0.6,0.3-0.9,0.7c-0.3,0.4-0.5,0.6-0.7,0.7c-0.4-0.8,0-1.6,1.3-2.1c-0.6-0.7-1.5-2-2.8-4.1
		c-1.1-1.8-2.1-3-3-3.8c-0.1,0.1,0,0.4,0.1,0.9c0.1,0.5,0.2,0.9,0.1,1.3c-0.1,0.1-0.5,0-1.1-0.2c-0.1,1.2,0.1,2,0.7,2.4
		c1-1.2,1.5-1.9,1.3-1.9c-0.4,2-0.3,3.1,0.2,3.4c0.5-0.9,0.9-1.4,1.2-1.4c-0.5,1.5-0.4,2.5,0.3,2.9c0.2-0.1,0.4-0.2,0.5-0.5
		c0.1-0.3,0.2-0.5,0.3-0.6c-0.2,2.5,0.3,3.9,1.4,4.4c0.5-0.8,0.8-1.2,1.1-1.2c-0.3,0.7-0.3,1.1-0.1,1.5c0.1,0.1,0.3,0.1,0.4,0
		c0.3-0.1,0.5-0.2,0.7-0.1c-0.4,0.8-0.6,1.3-0.5,1.7c0.1,0.1,0.2,0.1,0.5,0c0.3-0.2,0.5-0.2,0.8-0.1c-0.7,1.4-1,2.3-1,2.5
		c0,0.1,0.1,0.2,0.2,0.1c0.2-0.1,0.3-0.1,0.3-0.2c0.1,0.2-0.1,0.5-0.6,1c-0.4,0.5-0.6,0.9-0.7,1.3c-0.1,1,0.3,1.7,1.1,2.1
		c0.8,0.3,1.5,0,2.1-1c-0.2-3.2-0.5-5.7-1-7.5c-0.1,0-0.2,0.1-0.2,0.3c-0.1,0.2-0.2,0.3-0.4,0.2c0.3-0.7,0.4-1.3,0.3-1.9
		c0.3,0.3,0.5,0.6,0.8,0.8c0.2,0,0.3-0.3,0.3-0.9c0.3,0.6,0.5,0.6,0.6,0c0.1,0.3,0.3,0.8,0.8,1.5c0.5,0.7,0.7,1.3,0.7,1.9
		c-0.1,0.1,0,0.2,0.3,0.2c0.2,0,0.2,0.1,0.1,0.3c0.5,0,0.7-0.1,0.8-0.2c-0.4,1-0.6,1.7-0.6,1.9c1.1-0.1,1.5,0,1.1,0.2
		c-0.8,0.5-1.3,0.9-1.4,1.1v0.8c0,0.3-0.1,0.5-0.3,0.4l-0.1-0.4c-0.1-0.3-0.1-0.5,0.1-0.8c-0.9-0.1-1.4-0.1-1.5-0.2
		c0,1,0.4,1.8,1.2,2.3c-0.1,0-0.2,0.1-0.2,0.4c0,0.3-0.1,0.5-0.2,0.5c0.1,0.1,0.4,0.2,1,0.3c0.6,0,0.7-0.1,0.5-0.3
		c0.1-0.1,0.2-0.1,0.5,0c0.3,0.1,0.5,0.3,0.4,0.5c-1.5,0.3-2.1,0.4-1.8,0.3c-0.6,0.1-1.1-0.2-1.5-0.8c-0.9,0.8-1.8,0.8-2.7,0.1
		c-0.8-0.6-1.3-1.4-1.6-2.5c0-0.3,0.1-0.4,0.3-0.4c0.3-0.1,0.4-0.2,0.5-0.4c-0.1-0.3-0.7-0.5-1.9-0.6c0.7,2.5,0.3,4.1-1,4.8
		c0.1,0.1,0.1,0.3,0.1,0.6c0,0.3,0,0.5,0.1,0.6c0.4,0.8,0.7,1.4,1.1,1.8c-0.1-0.1,0.5,0.2,2,1c0.7,0.4,1,1.1,1,2.1
		c0,0.3-0.1,0.5-0.2,0.6c-0.3,0.5-1.6,1.6-4,3.2c-0.5,0.6-1.2,1.1-2.1,1.7c-1.3,0.7-2.1,1.1-2.5,1.5c-0.2,0-0.4,0-0.5-0.1
		c-0.2-0.1-0.4-0.1-0.5-0.1c0.1,0,0.1,0.2,0,0.5c-4.5,1-6.6,1.6-6.2,1.6c-0.1,1.1-0.5,2.1-1.4,3c-1.5-0.5-2.2-1-2.1-1.7
		c-0.9,0.1-1.6,0.8-2.1,2.1c-0.5,1.6-0.9,2.5-1.3,2.7c-0.5-0.3-0.7-0.6-0.7-0.9c-0.4,0-0.8-0.4-1.3-1.2c-0.5-0.7-1.1-1.1-1.7-1.2
		c-0.5,2.8-0.9,4.4-1.4,4.9c-0.6-0.1-1.3-0.5-2.1-1c-1.1-0.7-1.8-1-2-1.2c0,0.1,0.1,0.1,0.3,0c-0.2,0-0.4-0.2-0.7-0.5
		c-0.3-0.3-0.7-0.5-1-0.6c-0.3,0.5-0.8,1.6-1.6,3.5c-0.6,1.4-1.1,2.4-1.7,3c-0.5-0.1-1-0.6-1.6-1.6c-0.5-1-0.9-1.5-1.2-1.6
		c-0.7-1.4-1.3-2.1-1.9-2.3c-0.7,2.1-1.7,3.7-3.1,5c-2.1-1.4-3.4-3.5-3.6-6.3c-1-0.1-1.8,0.3-2.5,1.1c-0.8,0.8-1.5,1.3-2.1,1.3
		c-0.8-1.6-1.4-2.8-1.7-3.8c-1.2-0.3-1.8-0.4-1.9-0.4c-0.7,0.9-1.5,1.6-2.2,2.1c-0.9-1-1.4-1.9-1.4-2.7c-0.4-0.2-1.4-0.3-3-0.4
		c-1.4-0.1-2.2-0.3-2.4-0.7c-1.7,0.5-4.4-0.4-8.1-2.6c-0.1,0-0.2,0-0.4,0c-0.2-0.1-0.3-0.1-0.4-0.1c-0.1-0.1-0.1-0.2,0-0.3
		c0.1-0.1,0.1-0.2,0-0.2c-0.1-0.1-0.3-0.2-0.7-0.3c-0.3-0.1-0.6-0.2-0.7-0.3c-1.6-1.3-2.9-3.5-4.1-6.6l0.6-0.7
		c0.3-0.4,0.5-0.5,0.5-0.2c0.3-0.1,0.5-0.6,0.7-1.4c0.1-0.7,0.4-1.1,0.8-1.1c-1.7-3.3-2.5-4.9-2.5-5c-0.5,0.1-0.6,0.2-0.4,0.2
		c-0.1,0.1-0.1,0.4,0,0.7c0.1,0.5,0.1,0.8,0,1c-1.6,2.4-2.9,3-3.9,1.7c-0.5,0.2-0.9,0.5-1.3,1c-0.4,0.1-0.8,0-1.3-0.2
		c-0.5-0.3-0.7-0.4-0.9-0.3c0.1,0.1,0.5-0.2,1.1-0.9c0,0.1,0,0.2-0.1,0.3c-0.1,0.1-0.1,0.3-0.1,0.5l0.7-0.2c0.3-0.1,0.5-0.2,0.4-0.5
		c-2.1-2.7-2.9-4.1-2.5-4c0.5,0,0.9,0.1,1.4,0.2c0.1-0.4,0-0.8-0.2-1.2c-0.2-0.5-0.3-0.8-0.3-1c0.5,0.4,0.9,0.2,1.1-0.5
		c0.3-0.7,0.2-1.3-0.2-1.9c0.3,0.1,0.4,0.4,0.5,0.8c0.8-0.8,1.1-1.4,1.1-2c0.1,0.1,0.4,0.2,0.7,0.3c0.2,0.1,0.2,0.3,0.1,0.6
		c0.5,0.1,0.9-0.2,1.2-0.7c0.3-0.7,0.5-1.1,0.5-1.2c1.7-0.4,2.5-0.5,2.3-0.4c-0.2,0.2-0.1,0.5,0.2,1c0.3,0.5,0.4,0.9,0.1,1.3
		c-0.3-1.2-1-1.6-2.1-1.3c-1.2,0.3-1.4,1.2-0.8,2.5c-0.2-0.1-0.3-0.2-0.3-0.5c-1.9,6.1-1.7,8.9,0.6,8.5c0.9-0.2,1.3-0.9,1.2-2.1
		c-0.1-1.1-0.5-1.8-1.3-2.1c-0.1,0.1,0.2,0.2,0.8,0.2c-0.1-1.5-0.4-2.4-1.1-2.6c0.1-0.2,0.3-0.3,0.6-0.2c0.3,0.1,0.5,0.2,0.6,0.3
		c0.1-0.5,0-1-0.3-1.8c-0.2,0,0.1,0.1,0.8,0.3c0.5-0.3,0.5-0.8,0.2-1.8c0.2,0,0.5,0.3,0.9,0.8c-0.1,0.5-0.3,1-0.6,1.4
		c1,0.2,1.6-0.1,2-0.9c0.1-0.1,0.3-0.8,0.6-2.3l0.4,1.3c0.8-0.3,1.2-1.2,1.2-2.9c0.2,0,0.4,0.4,0.5,1.3c0.3,0.1,0.6-0.2,0.8-0.7
		c0.2-0.5,0.2-1.1,0.1-1.7c0.3,0,0.5,0.3,0.5,0.8c0.4-0.2,1-0.8,1.9-2c-0.1-0.1-0.5,0-1,0.2c-0.6,0.3-1.1,0.3-1.5,0.2
		c0.2-1,0.5-1.8,0.8-2.1c-0.5,0.4-1.4,1.2-2.5,2.4c-1.2,1.3-2.1,2.2-2.7,2.6c-0.1-0.5,0.3-1,1.4-1.8c1.2-0.9,2-1.8,2.1-2.5
		c0-0.2-0.1-0.2-0.4-0.1c-0.3,0.1-0.4,0.1-0.5-0.1c0.1-0.5,0.6-1.2,1.3-2.1c0.7-0.9,1-1.6,1-2.1c0-0.1-0.1-0.1-0.3-0.1
		c-0.1,0.1-0.2,0.1-0.3,0.1c1.8-3.5,3.1-5.4,3.9-6c-0.5,0.6-1.1,1.5-1.7,2.6c-0.8,1.4-1.3,2.3-1.7,2.7c2-1,3.5-2,4.5-3
		c-0.3,0.1-0.9,0.5-1.7,1.1c-0.7,0.5-1.3,0.9-1.9,1.1c0.3-1.2,1.8-3.2,4.5-5.9c-0.3,0.1-0.7,0.3-1.2,0.8c-0.5,0.3-0.8,0.5-1,0.5
		c0-1.2,0.5-2.3,1.5-3.3c0.9-0.9,1.9-1.5,2.8-1.8c0.1-0.6,0-1.1-0.4-1.7c-0.5-0.7-0.7-1.1-0.7-1.3h-0.5c0.3-0.2-0.1,0.5-1.1,2.1
		c-0.5-1.2-0.8-2.5-1-3.7c-0.6,0.2-1,0.7-1.3,1.5l-0.9,2.2c-0.9-0.5-1.3-2.6-1.2-6.2c-0.8,1-1.1,1.4-1.1,1.2
		c-0.1-0.3,0.3-1.3,1.2-3.2c0.7-1.3,1.1-2.5,1.4-3.6c-0.1,0.3-0.5,1-1.1,2.2c0,0.1,0.5-1.6,1.6-5.1c-0.7,0.2-1.3,0.9-1.8,2.1
		c-0.1,0.3-0.3,0.9-0.5,1.7s-0.4,1.3-0.5,1.6c-0.1,0.1-0.2,0-0.1-0.3c0.1-0.5,0.2-0.7,0.2-0.8c-0.3,0.5-0.8,1.9-1.7,4.2
		c0.1-2,0.6-4.3,1.6-7.1c-0.1-0.1-0.2-0.1-0.3,0.2c-0.1,0.2-0.1,0.4-0.2,0.6c-0.1,0.1-0.1-0.1,0-0.6c0.1-0.5,0.3-0.8,0.4-1
		c-0.4,0.4-0.8,1.4-1.4,3c-0.5,1.7-1,2.8-1.5,3.3c0-0.4-0.1,1.8-0.3,6.6c-0.2,0.3,0.6-1,2.4-4c0.1,0.4-0.1,1-0.8,1.8
		c-0.7,0.9-1.1,1.7-1.1,2.2c-0.1,0.1-0.3,0.1-0.6,0.1c0.1,0.5,0.1,1.1-0.2,1.8c-0.6-2.1-0.6-4.4,0-6.9c0,0.1-0.3,0-0.8-0.2
		c-0.9,1.5-1.5,2.3-1.8,2.4c2.5-4.2,4.3-8.4,5.2-12.6c-0.2-0.1-0.5,0.3-0.8,1.3c-0.1-0.1-0.1-0.4,0.1-0.7c0.1-0.5,0.2-0.7,0.2-0.9
		c-0.3,0.5-0.7,1.5-1.2,3.1c-0.1-0.3-0.1-0.8,0.2-1.4c0.3-0.7,0.4-1.2,0.4-1.5c-0.7,1.4-1.2,2.7-1.6,4c0.1,0.1,0.2-0.6,0.3-1.9
		c0.1-0.1-0.3,1-1.4,3.2c0-0.4,0.2-1,0.5-1.8c0.3-1,0.5-1.7,0.6-2.1C54.6,86.9,54,88.4,53,91c-0.5,1.4-0.7,1.6-0.4,0.6
		c0-0.1,0.1-0.4,0.4-1c0.2-0.5,0.3-1,0.4-1.4c-0.7,1-1.3,2.7-2.1,5.1c0,0.5,0,0.6-0.1,0.2c-0.1-0.3-0.1-0.5,0.1-0.5
		c0-0.1,0.3-1.7,1-4.8c-3,3.3-4,7.3-2.9,12c0.3-0.4,0.7-0.9,1.3-1.7c0.6-0.8,1-1.3,1.3-1.7c-0.1,0.4-0.5,1.1-1.4,2.1
		c-0.7,0.9-1.1,1.9-1.2,2.8c-1.2-2.3-1.3-5.4-0.2-9.3c-0.5,0-0.8,0.1-1,0.3c-0.3,0.5-0.5,0.8-0.6,0.9c-0.2,0.2-0.8,0.6-2,1.3
		c-0.9,0.5-1.5,0.9-1.7,1.3c-0.2,0-0.3-0.1-0.3-0.4c-0.1-0.2-0.2-0.3-0.5-0.2c-0.3,0.3-0.8,1-1.4,2.1c-0.2-0.1-0.4-0.3-0.6-0.8
		c-0.2-0.3-0.5-0.5-0.9-0.5c-0.9,4.2-1.5,6.5-1.8,6.9c-0.4-0.3-0.9-1-1.5-2c-0.5-0.9-1-1.5-1.5-1.9c-0.1,0.6-0.4,2.1-0.7,4.6
		c-0.2,2-0.5,3.4-0.8,4.2c-0.1,0-0.1-0.1-0.1-0.4c0-0.2-0.1-0.2-0.3-0.1c0-0.8,0.2-2.7,0.6-5.7c0.3-2.3,0.3-4.2,0.2-5.8
		c-0.1-0.4-0.3-2.1-0.8-5.1c-0.4-2.1-0.5-3.9-0.3-5.4c-0.2,0.3-0.3,0.7-0.3,1.3c-0.1,0.7-0.2,1.2-0.4,1.6c0.1,0.2,0.1,0.5,0,0.9
		c0,0.4,0,0.4-0.1,0c-0.1-0.8,0-2,0.3-3.5c-0.7,0.5-0.9,2.2-0.5,5.4c-0.2-0.1-0.3-0.8-0.3-2c0.1-0.1,0,0.9-0.3,3.2
		c-0.2-0.7-0.3-0.3-0.4,1c0,1.2,0,2.1,0.1,2.6c-1.4-4.8-1.6-9.4-0.7-14c-0.1,0.1-0.3,0.8-0.6,2.1c-0.1,0.5-0.1,0.7-0.1,0.7
		c0-1.1,0.1-2.2,0.3-3.4c-0.3,0.1-0.6,1-1,2.7c-0.1-0.3-0.1-0.7,0-1.3c0.1-0.7,0.2-1.2,0.2-1.5c0.1-0.2-0.1,0.6-0.6,2.3l0.1-2.1
		c-0.8,0.9-1,3.4-0.8,7.4c0.1,1.3,0.5,3.2,1.2,5.8c0.8,2.9,1.3,4.9,1.5,5.9c0.5,2.8,1.3,4.8,2.6,6.1c-0.3,0-0.7-0.5-1.2-1.4
		c-0.5-0.8-0.9-1.2-1.3-1.2c0,0.3,0,2.1,0,5.4c0.1,2.5,0.2,4.3,0.3,5.3c-0.2,0.1-0.4,0.1-0.5-0.2c-0.1-0.3-0.1-0.6,0-0.8
		c-0.5-0.4-1-1.1-1.6-2.2c-0.6-1.1-1.2-1.9-1.9-2.3c0.1,2.3,0,5.1-0.4,8.4c-0.5,4-0.7,6.9-0.8,8.5c-0.3-0.4-1-2.4-2.1-6.2
		c0.5,0.7,1,1.8,1.6,3.2c0.6-5.3,0.8-9.6,0.6-12.9c-0.2-2.9-1.1-7-2.8-12.3c-1.6-5.2-2.5-9.5-2.7-12.9c-0.1-1-0.2-1.6-0.5-1.7
		c-0.1,1.4-0.1,3.5,0.2,6.4c0.1,1.4,0.1,1.5-0.2,0.3c-0.1-0.6-0.1-1-0.1-1.4c-0.2,0.5-0.2,1.2-0.1,2.1c0.2,1.2,0.3,1.9,0.2,2.1
		c-0.3-0.9-0.5-2.2-0.4-3.8c0.1-0.1,0.1,1.5,0,4.9c0.3-0.4,0.2-0.8-0.3-1.2c-0.1,2.4,0.5,6,1.8,10.8c0.1,0.3,0.1,0.4,0,0.4
		c-0.1,0-0.2-0.1-0.1-0.4c-2-5.8-3.1-9.8-3.2-12.1c-0.1-2,0.5-6.9,1.9-14.6c-0.7,1.8-1.1,3.5-1.3,5.1c-0.1-2,0.4-4,1.3-6.2
		c-0.4,0.3-0.7,0.9-1,1.8c-0.4,1-0.7,1.7-0.8,2c-0.1,0.2,0-0.2,0.3-1.3c0.3-1,0.5-1.7,0.7-2c-0.5,0.1-1,0.9-1.4,2.5
		c-0.1,0-0.1-0.1-0.2-0.4c-2.3,5.5-1.7,14.2,2.1,26.1c3.1,9.9,4.6,14.9,4.6,14.9c-0.3,0.1-0.6,0.1-0.7-0.1c-0.1-0.2-0.3-0.3-0.6-0.2
		c-0.2,7.9-0.7,13-1.6,15.1c-0.1-0.1-0.3-0.1-0.4-0.1c0.1,1.9-0.7,4-2.1,6.2c-0.2-3.4-0.8-7.2-1.8-11.3c-0.5-0.3-0.7-0.8-0.6-1.8
		c-0.5-0.8-2.5-5.9-6.2-15c0-0.3,0.1-0.6,0.2-0.8c-0.5-0.6-1-1.5-1.4-2.8c-3.3-11.2-3.3-20-0.2-26.3c0.1-1.5,0.4-2.5,0.9-3.1
		c0-0.4,0.1-0.9,0.3-1.7c0.3-0.9,0.5-1.6,0.5-2.1c-0.1-0.1-0.2-0.2-0.5-0.1c-0.2,0.1-0.3,0.1-0.4,0c-0.1,1.1-1.5,2.6-4,4.4
		c2.7-2.5,6.5-8.5,11.5-18.2c4.2-8.2,8.8-13.5,13.7-16c-0.3-0.4-0.7-0.4-1.2-0.1c-0.2,0.1-0.4,0.3-0.6,0.5c-0.3,0.3-0.5,0.4-0.6,0.5
		c-3.5,2.6-5.6,4.5-6.4,5.7c-0.1,0,0.1-0.3,0.5-0.8c1.6-2,4.1-4.1,7.7-6.4c-1-0.1-2.9,1-5.6,3.5c-0.7,0.7-1.4,1.4-2.1,2.3
		c-1.1,1.3-1.7,2-1.9,2.1c1.9-3.1,4.6-5.8,8.2-8.1c-2.8,1.4-5.9,4.4-9.4,8.9c-0.5,0.6-0.5,0.5,0-0.3c0.5-0.6,0.7-0.9,0.7-1
		c0.1-0.1,0.1-0.2,0.2-0.3c2.1-3.1,4.5-5.4,6.9-6.7c-1.8,0.4-4.2,2.7-7.1,7c-0.3,0.4-0.5,0.7-0.7,1c-0.7,1-1.2,1.8-1.6,2.2
		c-0.3,0.4-0.4,0.4-0.2,0c0.1-0.3,0.3-0.6,0.5-0.9c0.7-1.3,1.1-1.9,1.1-1.9c-0.5,0.5-3,4.7-7.5,12.6c-0.1,0.1-0.1,0.1-0.1,0.2
		c0.1-0.2,0.2-0.4,0.3-0.7c2.1-6,5.1-11.4,9-16.1c0.8-0.5,1.6-1.3,2.5-2.4c1.2-1.3,2-2.2,2.4-2.6c-0.5-0.1-0.9,0.2-1.4,1
		c0-0.3,0.4-0.7,1.2-1.3c0.8-0.6,1.2-1.1,1.4-1.6c-0.2-0.1-0.8,0.4-2,1.3c-1,0.7-1.4,1-1.3,0.9c0.4-0.5,1-1,1.8-1.7
		c0.9-0.7,1.5-1.2,1.8-1.6c0.2-0.1-2.2,1.9-7.3,5.8c-3.4,3.2-6.3,8-8.8,14.5c-0.8,2.1-1.9,5-3,8.7c-1.4,4.3-2.3,7.2-2.9,8.8
		c3.8-13,6.1-20.2,6.9-21.9l0.4-0.1c0-0.1,0-0.3-0.1-0.4c-0.1-0.2-0.1-0.4,0-0.6c3.8-6.1,7.2-10.1,10-11.9c0.5-1,1.2-1.6,2.1-1.8
		c0.3-0.6,1.1-1.3,2.4-2.1c1.3-0.8,2.1-1.5,2.4-2c-0.8-0.4-2.1-0.1-3.7,0.9l11.7-7.2c1.8-1.3,3.2-2.2,4-2.8c0.9-0.7,1.6-1.1,2.1-1.2
		c0-0.1,0.5-0.5,1.5-1.1c4-2.1,7.2-3.3,9.7-3.5c0.3,0,0.8,0,1.5,0.1c0.7,0.1,1.1,0.2,1.5,0.1c0.2-0.1,0.5-0.2,0.9-0.4
		s0.7-0.3,0.9-0.4c1-0.3,2.3-0.5,3.9-0.5c1.6,0,2.6,0.2,2.8,0.7c0.9,0.2,1.9,0.7,3,1.5c1.2,0.8,2.1,1.2,2.6,1.4
		c-0.1,0.7-0.1,1,0.2,0.8c0.1,0,0.2,0,0.3-0.1c0.1,0,0.2,0,0.3,0c1.3,1.2,2,2.7,2.1,4.5c0.1,1.8-0.5,3.4-1.6,5l-0.2-0.1h-0.1
		l-0.1,0.4L73,38.2c-0.1,0.1-0.2,0.1-0.3,0.1c-0.1,0-0.2,0.1-0.3,0.2c-0.1,0.1-0.6,0.6-1.5,1.4v0.3l-0.1,0.3
		c-0.1,0.1-0.2,0.1-0.4,0.1c-0.3,0-0.4,0-0.4,0.1c0.1-0.1,0,0.1-0.3,0.6c-0.2,0.4-0.5,0.5-0.8,0.3c-3.4,4.7-5,6.8-4.8,6.4
		c-1.2,3.6-1.3,6.7-0.1,9.3c0.6,1.2,0.9,1.8,0.9,1.7c3.5,1.5,5.2,2.3,5.4,2.3c-0.1,0.1,1.2-1.4,3.7-4.5c-0.1,0.3-0.8,1.3-2.1,2.9
		c-1,1.3-1.5,2.6-1.3,3.8c0.6-1.6,1.6-3.1,3.1-4.4c1.1,0.8,1.8,2.1,2,4.1c0.8-0.8,0.8-1.8,0.2-3.1c-0.1-0.3-0.4-0.8-0.9-1.6
		c-0.5-0.6-0.7-1.1-0.8-1.5c0.5,0,1-0.4,1.7-1.3c0.7-0.8,1.4-1.3,2-1.5c-0.1,0.1-0.7,0.7-1.9,1.8c-0.8,0.8-1.1,1.4-0.7,2
		c0.1-0.6,0.6-1.4,1.7-2.2c0.9-0.7,1.3-1.4,1.1-2c0.1-0.1,0.3-0.1,0.5,0.1c0.3,0.3,0.5,0.4,0.6,0.4c0.1-0.3,0.9-1,2.4-2.3
		c0.1,0.1,0.1,0.2,0.2,0.4c0.1,0.1,0.2,0.2,0.3,0.2c0.7-0.8,1.7-1.5,3.2-2.1c1.7-0.6,3.1-0.8,4.1-0.4c0.1-0.1-0.4-0.1-1.7,0.2
		c0.8,0.5,2,0.5,3.5,0.1c1.5-0.3,2.7-0.2,3.7,0.4c1.8-1.2,3.7-1.4,5.9-0.7c0.1-0.1-0.6-0.1-1.9-0.1c-1.8-0.1-3.2,0.4-4.2,1.5
		c2.9-1.1,4.9-1.1,6.2-0.1c0.3,0,0.5-0.2,0.7-0.5c0.3,0.2,0.3,0.4,0.1,0.6c1.1,0,2,0.1,2.6,0.4c0.1,0.8,0.2,1.2,0.3,1.4
		c1.2-0.3,2.3-0.1,3.4,0.5c1,0.5,1.7,1,2,1.8c0.1-0.1-0.2-0.4-0.9-0.9c-2.4-1.2-3.9-1.4-4.5-0.5c2.3-0.3,3.8,0,4.5,1
		c-0.1,0.1-0.1,0.2-0.2,0.4c0,0.3-0.1,0.4-0.2,0.5c0.5-0.2,0.7,0,0.7,0.5c0.6,0.1,1.5,0.4,2.6,0.9c-0.3,0.5-0.2,0.8,0.1,1.1
		c0.2,0,0.2-0.1,0-0.2c-0.2-0.1-0.2-0.2,0-0.2c0.1-0.1,0.4,0.1,0.7,0.5c0.4,0.4,0.7,0.6,1,0.6c0,0.2,0,0.5-0.1,0.8
		c-0.1,0.4-0.2,0.7-0.2,0.9c0.6,0.1,1.3,0,2.1-0.5c0.9-0.5,1.5-0.8,1.8-0.8c1.6-1.8,2.3-4.5,2.1-8.3c-0.2-3.6-2.6-7.1-7.1-10.5
		c0-0.1,0-0.1,0.1-0.1c0.1,0.1,0.1,0.2,0.1,0.1c0-0.1,0-0.1-0.1-0.1c-2-2.6-3-4-3-4.1l-0.8-0.4c-0.1-0.3-0.2-0.8-0.5-1.5
		c-0.2-0.5-0.3-0.9-0.4-1.2c-0.3-2.1,0.6-4,2.6-5.6c0.5-0.4,1.4-0.9,2.6-1.7c1.1-0.6,1.9-1.2,2.2-1.6c1.2,0,1.8,0,1.6-0.1
		c0.2-0.5,0.9-0.8,2.2-0.8c1.1,0,2,0.1,2.6,0.4l0.2,0.5c0.2,0,0.5-0.1,0.9-0.3c1.3,0.5,1.9,0.8,1.9,0.8c3.1-0.4,8,1,14.6,4.1
		c-0.1,0.3,0,0.4,0.2,0.4s0.2,0.1,0.1,0.4c0.6,0.1,0.8,0.1,0.8,0c1.5,1.4,4.5,3.3,8.9,5.9c-0.3,0.1-1.2-0.2-2.6-0.9
		c-1.1-0.6-2.6-1.6-4.5-2.8c-2.1-1.4-3.6-2.3-4.5-2.9c-3.7-2.1-7.4-3.4-11.1-3.6c-0.7-0.1-1.8-0.1-3.5,0c-1.5,0.1-2.7,0.1-3.7,0
		c0.3-0.3,0.9-0.4,1.9-0.4c1,0.1,1.7,0,2-0.1c-4.5-1.2-8.6,0-12.3,3.5c-2.7,2.5-2.8,5.4-0.4,8.6c0.7,1,1.9,2.2,3.4,3.8
		c1.7,1.6,2.7,2.6,3.1,3.1c2.5,3,3.6,6.3,3.4,10.1c-0.2,4.3-2.5,6.9-6.9,7.7c-0.1,0.1-0.2,0.4-0.4,0.9c-0.2,0.4-0.4,0.7-0.5,0.9
		c2-0.7,3.1-1.2,3.2-1.4c0,0.1-0.4,0.6-1.3,1.4c-0.1-0.2,0.3,0.1,1.3,0.9c2.9-2.3,4.3-3.4,4.1-3.2c-0.5,1.3-1.9,2.4-4,3.2
		c0.3,1,1.1,0.9,2.4-0.3c0.5-0.3,0.9-0.8,1.5-1.5l1.1-1.2c-0.2,0.5-1.4,1.8-3.5,4c1-0.1,2.6-1.4,4.9-4.1l-3.5,4.4
		c1.2-0.3,2.8-2,4.9-5.1c-0.8,2-2,3.6-3.7,5.1c0.7,0.1,1.3-0.1,1.9-0.6c2.8-2.3,4.2-6.5,4.3-12.6c0.1-1.3,0.1-1,0.2,1
		c0.1,2,0.2,3.2,0.1,3.6c-0.5,6.3-3.3,10-8.4,11l-5.7,1.3c7.2,0,11.7-1.2,13.4-3.7c1-1.6,1.7-3.7,2-6.5c0.4-4-0.1-7.8-1.4-11.2
		c-1.2-3.6-3.1-6.2-5.7-7.8c-0.1-0.2-0.2-0.4-0.4-0.6s-0.3-0.4-0.3-0.5c-2.1-0.1-3.5-0.6-4.1-1.5c2.1,0.6,3.8,0.7,5.1,0.5
		c-1.4-0.1-3.5-1.2-6.1-3.2c3.5,2,6.7,3.1,9.9,3.4c-0.4-1-1.2-2-2.4-2.9c-1.6,0-3.6-0.5-6-1.6c4.2,0.5,6.6,0.6,7.3,0.3
		c-0.3-0.3-1.1-0.5-2.4-0.6c-1.1-0.1-1.8-0.4-2.1-0.9c0.1,0,1.6,0.2,4.5,0.6c1.7,0.2,3.6,1.1,5.9,2.7c2.2,1.5,4.2,2.3,5.9,2.4
		c-1.3-0.9-2-1.6-2.1-2.1c0.5,0.3,1.3,0.7,2.6,1.4c1.2,0.6,2.1,1.1,2.7,1.5c0.1-0.3-0.1-0.6-0.4-0.9c-0.5-0.5-0.7-0.8-0.7-1
		c0.8,0.1,2.1,0.7,3.9,1.8c2,1.1,3.5,1.8,4.5,2.1c-2.1-2.7-5.3-5.1-9.8-7c1-0.3,2.1,0,3.3,0.8c2,1.2,3,1.9,3.1,2
		c2.8,1.2,4.2,1.7,4.1,1.7c0.5,0.3,1.4,0.6,2.7,1.1c1.2,0.4,2.1,0.7,2.6,1.1c-0.8-1.5-2.5-2.9-5-4.2c-3.4-1.8-5.4-2.9-6-3.3
		c0.5,0.3,3.4,1.5,8.5,3.7l0.2,0.6c1.5,0.5,3,1.1,4.4,1.8c0.1-0.2,0-0.4-0.4-0.5c-0.5-0.2-0.7-0.4-0.7-0.6c1.6,0.4,2.6,1,2.9,2
		c-0.1,0.2-0.3,0.2-0.6-0.1c-0.2-0.2-0.3-0.4-0.3-0.7c-0.4-0.1-0.7,0-1.1,0.1c-0.4,0.1-0.7,0.2-0.8,0.2c0.3,0.9,0.5,1.4,0.5,1.5
		c0.3,0.3,0.8,0.4,1.5,0.3c0,0.6,0.3,1.1,1,1.5c0.3,0.1,0.5,0,0.6-0.3c0.4,0.4,1.6,1.4,3.7,2.9c-0.1,0.1-0.1,0.1-0.2,0.1
		c-0.1-0.1-0.1,0-0.2,0.1c0.8,0.4,1.6,1,2.5,2c1.2,1.4,2.1,2.2,2.5,2.6c0.1,0.1,0.1,0.2,0,0.3c-0.1,0.1-0.1,0.2-0.1,0.3
		c0.1,0,0.2,0,0.3-0.1c0.1-0.1,0.2-0.1,0.3,0c0.1,0.7,0.8,1.6,2.1,2.7h-0.4c1.4,1.6,3.3,5.5,5.8,11.5c0,0.1,0,0.3-0.1,0.4
		c-0.1,0.1-0.1,0.3-0.1,0.4c0,0.1,0.1,0.1,0.2,0.1c0.1,0,0.1,0,0.1-0.1c0.7,1.5,1.4,3.9,2.1,7.3c0.8,3.3,1.5,5.7,2.1,7.2
		c-0.3-0.2-0.7-0.9-1.2-2.2c-0.4-1-1.5-4.4-3.3-10.1c-1.2-4-2.4-7.2-3.6-9.5c-3.4-6.6-8.1-12-14.3-16c0.3,0.6,0.9,1.2,1.9,2
		c1.1,0.8,1.8,1.4,2.1,1.8c-0.3-0.1-0.9-0.5-1.7-1.2c-0.8-0.6-1.4-1.1-1.9-1.3c0.1,0.1,0.9,1,2.6,2.6c-0.1,0.1-0.4,0-0.7-0.3
		c-0.3-0.3-0.6-0.5-0.7-0.5c0.5,0.7,1.3,1.7,2.5,2.9c1.6,1.6,2.6,2.6,3,3c2.9,3.3,5.6,8.2,8.1,14.7c0.4,1,0.5,1.4,0.3,1.1
		c-0.4-0.6-1.5-2.7-3.3-6.4c-1.3-2.7-2.6-4.7-4-6c0.3,0.6,0.6,1.1,1,1.6c0.4,0.5,0.7,0.9,0.8,1.4c0.3,0.5,0.2,0.5-0.3,0
		c-0.2-0.3-0.5-0.8-0.9-1.7c-0.5-0.8-0.9-1.6-1.4-2.2c-2.4-3.3-4.4-5.5-6.1-6.4c-0.5-0.3-1.1-0.4-1.7-0.3c0-0.1-0.1-0.2-0.4-0.3
		c-0.2-0.1-0.3-0.2-0.4-0.3c0.3-0.1-0.3-0.1-1.7,0c4.6,3.6,7.2,5.8,7.6,6.4c0.1,0.1,0.4,0.4,0.7,0.9c0.3,0.5,0.3,0.5,0,0.2
		c-0.6-0.9-3-2.9-7.1-6.1c-0.1-0.1-0.2-0.2-0.4-0.4s-0.3-0.3-0.4-0.4c-0.3-0.3-0.7-0.4-1-0.1c4.8,2.6,9.4,8.3,14,17
		c4.9,9.5,9.1,15.6,12.6,18.4c-1.4-0.7-3.4-2.5-5.8-5.4c-0.1,0.1-0.2,0.1-0.4,0c0,1,0.4,2.7,1.2,5.1c0.7,2.2,1,3.8,1,4.9
		C174.5,87.4,174.6,87.4,174.8,87.3C174.8,87.4,174.8,87.4,174.8,87.3C174.8,87.4,174.8,87.4,174.8,87.3z M22.1,128.8
		c0.4-5.2-0.7-12.3-3.3-21.4c-2.6-8.9-3.6-16.1-3.1-21.7c0.1-1.4,0.1-2.1,0-2.2c-0.2-0.3-0.4-0.2-0.5,0.3c-0.1,0.5,0,0.7,0.2,0.9
		c0-0.6,0.1-0.9,0.3-1.1c-0.2,1-0.3,4.7-0.4,11.1c-0.1-0.1-0.1-0.5-0.2-1.2c-0.2-1.1-0.3-0.8-0.2,1c0.1,3,0.2,4.4,0.3,4.1
		c0-0.5-0.1-1.7-0.4-3.6c0-0.7,0-1-0.1-0.9c-0.1,0.2-0.1,0.5-0.1,1c0,0.7,0.1,2,0.4,3.8c0.2,1.6,0.3,2.7,0.2,3.3
		c-0.5-4.6-0.8-7.1-0.9-7.7c-0.1-1-0.1-1.5-0.2-1.3c-0.1,1.3,0,3,0.3,5c0.3,2.2,0.4,3.7,0.4,4.5c0-0.1-0.1-0.2-0.2-0.2
		c-0.1,2.3,0.4,5.3,1.3,9.1c1,4.1,1.6,7,1.7,8.7c-3.3-12.8-5-20.9-5.2-24.1c-0.4-7.2,0.4-14.1,2.4-20.7c0.3-0.4-0.4,1.3-2.1,5.2
		c0.1-0.3,0.6-2.1,1.6-5.7c0.3-0.2-0.4,1.4-2.1,4.8c0.1-0.4,0.5-1.9,1.3-4.5c-0.4,0.3-0.7,0.7-1,1.5c-0.3,0.9-0.5,1.5-0.6,1.7
		c0-0.3,0.1-0.7,0.3-1.3c0.2-0.5,0.3-0.9,0.2-1.1c-3,11.7-4.5,18.8-4.4,21.2c0.3,5.9,2.1,13,5.5,21.3c3.6,9,5.7,15.8,6.2,20.5
		c0.1-0.7,0.6-2.4,1.4-5.1C21.7,132.1,22,130.3,22.1,128.8z M14.8,103.6c0-0.1,0-0.3,0-0.7C14.8,103.2,14.8,103.4,14.8,103.6z
		 M15.3,94.8c0,0.2,0,0.4-0.1,0.6C15.2,95.1,15.2,94.9,15.3,94.8z M15.6,80.7c4.2-4.2,9.8-12.3,17-24.1c-1.4,1.6-2.2,2.5-2.6,2.8
		l2.8-3.4c-0.5,0.1-1.2,0.7-2.1,1.7c-0.8,1-1.5,1.6-1.9,1.8c1.4-1.4,2.4-2.7,3.1-3.7c0.1-0.1-1.5,1.6-4.8,5.1c0.5-0.7,1.1-1.6,2-2.6
		c1.1-1.2,1.8-2.1,2.1-2.4c0.1-0.1-1.9,2.1-5.9,6.4c0.1-0.1,0.5-0.6,1.3-1.7c0.7-1,1-1.5,0.8-1.4c-1.8,2.1-3.2,3.9-4,5.2l5.7-7.7
		c-4.2,3.9-7.2,8.6-8.9,14.2c1.2-5.5,3.4-10.1,6.5-13.7c0.2-0.2,0.8-0.7,1.8-1.5c0.8-0.6,1.3-1.2,1.5-1.8c-0.3,0.1-0.8,0.5-1.4,1
		c-0.6,0.5-1,0.8-1.2,0.9c0.8-0.7,1.5-1.5,2.2-2.3c-0.5,0.2-1,0.6-1.8,1.2c-0.7,0.6-1.1,0.9-1.5,1c0.7-0.6,1.4-1.2,2.1-2
		c-0.4,0-0.8,0.3-1.4,0.8c-0.5,0.5-0.8,0.8-1,0.8c0-0.2,0.1-0.4,0.3-0.7c0.2-0.2,0.3-0.3,0.2-0.4c-0.9,0.3-1.3,0.6-1.1,0.7
		c0.1-0.3,0.6-0.7,1.4-1.4c0.7-0.5,1-1,1.1-1.7c-0.5,0.2-1,0.7-1.6,1.4c-0.6,0.8-1,1.2-1.4,1.3c-0.1,0.1,0.6-0.7,2.1-2.4
		c-6.4,5.5-9.6,8.2-9.6,8.2S16.9,67,15.6,80.7z M27.4,148c0,0.1,0.2,0.5,0.6,1c0.4,0.5,0.7,0.9,0.8,1.1c0.6,1.2,0.7,2.5,0.3,3.8
		c-0.4,1.4-1.2,2.4-2.3,3.1c-2.7,1-4.7,1.5-6,1.4c0,0.2-0.4,0.5-1.1,1c-0.8,0.5-1.2,0.9-1.4,1.5c-0.1,0.1-0.1,0.5,0,1
		c0.1,0.5,0,0.8-0.3,1.2c0-0.3,0-0.7,0-1.2c-0.1-0.7-0.1-1.1,0-1.5c-0.2,0.1-0.3,0.8-0.3,2.1c-0.4-0.8-0.3-1.8,0.2-2.7
		c0.5-1,1.1-1.7,2.1-1.9c-0.1,0-0.1-0.2,0-0.5c3.3-1.2,5-3.3,5.1-6.2c0-0.6-0.3-1.3-1-2.2c-0.7-0.8-0.9-1.5-0.9-2.1
		c-0.5-0.5-0.6-1.2-0.3-2.1c0.2-0.7,0.6-1.3,1.1-1.7c-0.7,0.9-0.9,2.1-0.8,3.4c0,0.1,0.2,0.1,0.5,0.1c1.4,6.3,2.2,9.1,2.4,8.3
		c-0.1-0.1-0.2-0.6-0.2-1.4c0-0.7-0.1-1-0.4-1.1c-0.5,1.3-1.9,2.9-4,4.9c0.9,0.1,1.9-0.4,3-1.5c0.2,0.1,0.2,0.2,0.1,0.5
		c-0.3,0.5-0.5,0.7-0.5,0.9c0.1,0,1.3-0.6,3.8-1.9c0.1-0.3,0.2-1,0.4-2c0.2-0.7,0.3-1.3,0.2-1.9c-0.1-0.7-0.5-1.7-1.2-2.8
		c-0.6-1-0.8-2-0.7-2.7c0.3-1.3,0.9-2.1,2.1-2.3c-0.1,0.2-0.3,0.5-0.6,0.8c-0.3,0.4-0.5,0.7-0.6,0.9C27,146.1,27,147,27.4,148z
		 M30.9,108.5c-0.1-2.2-0.7-5.2-1.8-9c-1-3.8-1.6-6.6-1.8-8.5c-0.2-2.3-0.4-3.5-0.5-3.7c-0.1,0.5-0.1,1.4,0,2.6c0.1,1,0.1,1.8,0,2.2
		c-0.5-2.6-0.6-3.8-0.5-3.5c0,0.5,0.1,1.2,0.2,2.1c0.1,0.8,0.1,1.5,0,1.9c-0.4-2.4-0.6-3.7-0.6-4c-0.1,0.8,0,1.9,0.2,3.2
		c0.2,1.3,0.3,2.2,0.2,2.8c-0.8-2.2-1-3.3-0.8-3.3c0.2,2.3,0.8,5.7,1.8,10.2c-2.7-5.5-3.6-10.9-2.6-16.4c0.5-2.9,0.8-4.2,0.9-3.8
		c-0.2,0.5-0.6,1.6-1.2,3.3c-0.1-0.5,0.1-1.2,0.5-2.1c0.3-0.8,0.5-1.5,0.4-1.9c-0.1,0.3-0.3,0.8-0.6,1.4c-0.3,0.7-0.5,1.1-0.6,1.5
		c-0.1-0.4,0.1-0.9,0.4-1.7c0.3-0.6,0.4-1,0.2-1.2C24.5,81,24.3,81.4,24,82c-0.2,0.6-0.4,1-0.6,1.3c0.1-0.7,0.4-1.4,0.7-2.1
		c0.3-0.1-0.1,0.5-1.3,2c-0.1-0.1,0-0.4,0.1-0.7c0.1-0.3,0.1-0.5-0.1-0.6c-0.1,0.4-0.4,0.7-0.8,0.8c-0.3,2-0.5,3.3-0.5,4
		c0.3,3,1.6,7.9,3.9,14.7c2.5,7.2,4.3,11.6,5.5,13.1C31,112.4,31,110.5,30.9,108.5z M22.1,81.7c6.4-6,9.7-9.1,9.9-9.3
		c1.4-1.6,3.7-5.6,7-11.9c-0.5,0.4-1,1.1-1.7,2.1c-0.7,1-1.3,1.8-1.7,2.1l2.5-4.6c-1.4,2.1-2.7,3.9-4.1,5.5c0.2-0.3,0.8-1.2,1.8-2.6
		c0.8-1,1.4-2,1.8-2.7c-0.7,0.8-1.5,1.9-2.5,3.2c-1.3,1.7-2.1,2.8-2.5,3.2c0,0.1,1.1-1.5,3.2-4.6c0.5-0.7,0.7-1.2,0.7-1.4
		c-0.5,0.5-1.4,1.8-2.9,3.9c-1.2,1.7-2.1,3-2.9,3.9c3.3-5.1,4.9-7.5,4.8-7.2c-0.4,0.6-1.9,2.5-4.5,5.8c-1.8,2.3-3.2,4.4-4,6.2
		c1.2-3.5,4-8,8.3-13.4c-0.3,0.1-0.6,0.3-0.9,0.7c-0.3,0.4-0.6,0.6-0.8,0.7c0.6-1,0.8-1.4,0.7-1.2c-0.5,0.3-1.3,1.1-2.2,2.4
		c0.1-1,0.4-1.6,0.9-1.8c-0.2,0.1-0.5,0.3-0.8,0.7c-0.3,0.3-0.6,0.4-0.9,0.3c0-0.3,0.2-0.7,0.5-1.3c0.2-0.5,0.2-0.8,0.1-1.1
		c-0.5,1-1.5,2.7-3,5c-1.3,2.1-2.3,3.8-2.9,5.1c-2.2,4.1-3.3,6.2-3.3,6.2S22.4,77.7,22.1,81.7z M26.6,88.2v-0.9
		c0.1-0.4,0-0.6-0.3-0.6c0,0.1,0,0.4-0.1,0.9c0,0.5,0,0.7,0,0.7S26.3,88.3,26.6,88.2z M27.7,137.2c-0.1,0.1-0.1,0.5-0.2,1
		c-0.1,0.5-0.1,0.9-0.2,1.2c-0.3,1-0.6,1.6-1,1.6c0.1-0.1,0.3-0.7,0.6-1.6C27.2,138.3,27.5,137.6,27.7,137.2z M27.5,45.7
		c1.4-0.5,3.6-0.7,6.6-0.7c2,0.1,4.3-0.3,6.7-1.2c2.5-0.8,4.1-1.7,4.8-2.6c-0.1,0.2,0-0.1,0.3-0.9c-3.4,1.7-4.9,2.5-4.6,2.4
		c-0.4,0.1,0-0.2,1.2-0.8c-0.3,0.1-0.7,0.3-1.4,0.6c-0.6,0.3-1,0.5-1.2,0.5c2.9-1.9,4.3-2.8,4.3-2.7c-2,1.4-3.7,2.2-5,2.4
		c2.3-1.2,3.5-2,3.4-2.4c-3.5,2.1-6.2,3.1-8.1,2.7c1.2-0.2,2.5-0.8,4.1-1.9c-0.3,0-0.9,0.2-2.1,0.6c-0.8,0.3-1.4,0.3-1.8,0
		c0.1-0.3,0.3-0.6,0.8-0.9c0.5-0.4,0.7-0.7,0.9-1c-0.7,0.5-1.2,0.9-1.7,1.1c0.1-0.2,0.4-0.4,0.8-0.7c0.4-0.3,0.7-0.5,0.8-0.7
		l-1.9,1.1c0.1-0.2,0.2-0.4,0.5-0.5c0.3-0.3,0.5-0.5,0.6-0.6c-0.4,0.1-0.8,0.3-1.2,0.6c-0.5,0.4-0.8,0.6-1.2,0.7
		c0.1-0.2,0.2-0.4,0.5-0.5c0.3-0.2,0.4-0.4,0.4-0.5c-2.9,1.3-4.4,2-4.4,2S29,43.2,27.5,45.7z M27.5,84.4C33.9,78,39.1,71.5,43,65.1
		c-0.5,0.3-1,0.9-1.7,1.8c-0.7,1-1.2,1.6-1.6,2c0.1-0.3,0.4-0.7,0.8-1.3c0.4-0.5,0.6-0.9,0.6-1.1c-0.2,0.3-0.6,0.7-1.2,1.5
		c-0.5,0.7-0.9,1.1-1.3,1.5c0.1-0.1,0.3-0.5,0.8-1.1c0.3-0.5,0.5-0.8,0.5-1c-0.2,0.2-0.6,0.7-1.3,1.7c-0.5,0.7-0.8,1.1-1.2,1.5
		c0.1-0.3,0.4-0.6,0.7-1c0.3-0.5,0.6-0.8,0.7-1.1c0.1-0.1-0.9,1.1-3.2,3.6c0.2-0.5,0.7-1.2,1.5-2.1c0.7-0.8,1.1-1.5,1.3-1.9
		c-2.7,3.1-4.7,5.8-6,8.2c2.1-4.6,3.9-7.6,5.4-9.3c1.1-1.2,1.7-1.8,1.7-1.9l-1.9,1.8l0.2-0.8c-0.2-0.1-0.4,0-0.5,0.2
		c-0.1,0.2-0.2,0.2-0.3,0.1c0.7-1.3,0.9-2,0.9-2.1c-3.3,6.2-6.1,10.2-8.6,12c-1.2,2.5-1.8,3.8-1.8,3.8S27.5,81.5,27.5,84.4z
		 M27.8,137.1c0.1-0.6,0.4-0.9,0.8-1C28.1,136.7,27.8,137.1,27.8,137.1z M36.7,45.8c-2.6,0.7-5.5,3.2-8.6,7.5
		c1.2-0.5,3.7-1.1,7.7-2.1c3.2-0.8,5.6-1.6,7.3-2.5c4.2-2.3,7.6-5.4,10.3-9.1c-0.9,1-1.9,2-2.9,2.9c0.7-0.8,0.7-0.9,0.1-0.4
		c-0.9,0.8-1.4,1.3-1.6,1.4c1.5-2,2.2-2.8,2.1-2.5c-2.2,2.1-4,3.5-5.3,4.2c2.4-1.8,4.6-3.8,6.4-5.9l-2.6,2.3
		c-3.8,3.4-7.8,5.5-11.9,6.2c4.4-1.4,7.8-3.6,10.3-6.5c-0.4,0.5-0.9,0.8-1.6,1.2c0.4-0.4,1-0.9,1.8-1.6c0.8-0.7,1.5-1.3,1.9-1.7
		c-0.3,0.1-0.6,0.2-1,0.4c-0.4,0.3-0.6,0.4-0.5,0.4c0.6-0.1,0.8-0.2,0.8-0.3c-2,1.8-4.2,3.4-6.7,4.8c0.1-0.1,0.3-0.3,0.7-0.6
		c0.4-0.2,0.5-0.4,0.4-0.5c-1.3,0.8-2.6,1.6-4,2.1c0.1-0.1,0.2-0.2,0.4-0.3c0.3-0.1,0.4-0.2,0.4-0.4c0.3-0.1,0.4-0.2,0.4-0.2
		S39.5,45.2,36.7,45.8z M28.5,39.4c1.6-0.7,2.7-1.1,3.5-1.2c0.9-1,2.5-1.9,4.8-2.8c2.7-1,4.4-1.8,5.1-2.2c-0.7,0.7-2.7,1.8-5.9,3.4
		c-2.5,1.3-4.1,2.7-4.7,4.1c0.7-0.3,2.1-0.9,4.5-2c1.9-0.8,3.5-1.4,4.7-1.8c3.1-2,5.1-2.9,6.2-2.9c-4.6,2.6-7.9,5-10,7.2
		c1.2-0.2,2.7-0.9,4.7-2.1c1.9-1,3.3-1.6,4.1-1.8c0,0.2-0.2,0.5-0.7,0.9c-0.4,0.3-0.5,0.7-0.4,1c3-1.6,4.7-2.5,5.2-2.6
		c0,0.2-0.7,0.8-2,2c1.6-0.1,3.6-1,5.9-2.5c2.3-1.6,4.2-2.4,5.7-2.6c0.3-0.1,1.1-0.1,2.4-0.2c1-0.1,1.7-0.2,2.1-0.3
		c-0.3,0.5-1,0.7-2.1,0.9c-1.4,0.1-2.3,0.3-2.6,0.4c1.8,1,4.3,0.9,7.5-0.3c-1.9,1.3-3.9,1.8-6.2,1.5c-0.2,0.5-0.6,1.1-1.1,1.7
		c-0.7,0.7-1,1.2-1.2,1.5c4-0.5,7.4-1.8,10.2-3.7c-2.1,1.8-4.1,3-6.2,3.5c-0.3-0.1,1.4-0.2,4.9-0.3c-0.8,0.8-2.1,1.3-4,1.3
		c0-0.1-0.8,0.7-2.4,2.1c-1.5,1.3-2.8,3.5-3.9,6.6c-1.2,3.3-1.7,6.5-1.5,9.5c0.3,4,1,6.9,2.3,8.7c0.4,0.7,2.9,1.8,7.6,3.3
		c0-0.2,0.1-0.3,0.4-0.4c0.2-0.1,0.2-0.3,0.1-0.6c-3.5-0.5-6.1-2.5-7.6-5.9c-1.6-3.2-2-6.9-1-11c-0.4,3.3-0.1,6.3,1,9
		c1,2.7,2.7,4.6,5,5.6c-2.4-3.5-3.6-5.3-3.7-5.5c1.4,2.9,3.1,4.6,5,5.2c-2.1-2.1-3.4-3.6-3.7-4.6c1.9,2.6,3.6,4.1,5.1,4.5
		c-0.3-0.3-0.8-0.9-1.8-1.9c-0.7-0.7-1.3-1.3-1.7-1.9c2.6,2.1,3.9,3.2,4,3.2c0.6-0.7,0.8-1,0.8-0.8c0.2,0,0.4-0.1,0.7-0.3
		c0.3-0.3,0.5-0.4,0.6-0.5c-0.1-0.2-0.4-0.4-0.7-0.7c-0.3-0.3-0.5-0.5-0.6-0.8c1.1,0.7,1.7,1.1,1.9,1.2c-0.1-0.3,0-0.5,0.3-0.8
		c0.3-0.2,0.4-0.5,0.3-0.8c-0.3-0.1-0.8-0.2-1.7-0.3c-3.8-1.8-5.6-4.8-5.4-9.2c0.2-3.3,1.5-6.1,3.8-8.6c0.5-0.4,1.5-1.3,3.2-2.8
		c1.3-1.2,2.3-2.2,2.9-3c1.4-1.8,1.9-3.6,1.6-5.5c-0.3-1.7-1.3-3.2-2.9-4.5c-3.8-3.1-7.4-4-10.7-2.8c2.3,0.4,3.4,0.5,3.2,0.4
		c-3.6-0.1-5.2-0.1-4.9,0c-5-0.5-10.7,1.6-17.1,6.2c-1.5,1-3.7,2.3-6.7,3.9C32,37.2,29.8,38.5,28.5,39.4z M28.5,136.1
		c1.5-1.4,2.7-2.1,3.7-2.1C31.6,134.2,30.4,134.9,28.5,136.1z M46.4,151.1l0.9,0.6c0.4,0.2,0.5,0.5,0.3,0.8c-0.1,0-0.1-0.1-0.1-0.2
		c-0.1,0-0.2,0.1-0.2,0.2c0-0.5,0-0.7-0.1-0.6c-0.2,0.1-0.3,0.2-0.4,0.3c-0.3-0.5-0.5-0.8-0.6-0.8c0,0.3-0.2,0.4-0.5,0.5
		c-0.7-0.7-1.8-0.9-3.3-0.7c-0.3,0.7-2.1,0.9-5.4,0.5c-3.3-0.4-5.2-1-5.9-1.9c-0.1-0.1-0.2-0.2-0.5-0.4l-0.4-0.2
		c-0.4-0.7-0.5-1.7-0.4-3c0.1-1.2,0-2.1-0.3-2.5c-0.3,0.1-0.5,0-0.8-0.1c1-1.4,1.7-2.9,2.1-4.6c0.1,0,0.3,0,0.4-0.1
		c0.1-0.1,0.3-0.1,0.4-0.1c-1.1,1.5-1.5,3.6-1.3,6.4c0.3,2.9,0.6,4.4,1.1,4.6c-0.3-0.1,0.6,0,2.6,0.5c4.6,1,7.4,1.2,8.4,0.8
		c1.8-0.8,3.3-0.9,4.5-0.3c0,0.3,0,0.4,0,0.4S46.8,151.2,46.4,151.1z M47.9,148.5c0.2,0.1,0.6,1.2,1.2,3.1c-0.5-1.3-1.3-2.3-2.2-2.9
		c-1-0.7-1.5-1-1.5-1c-5.3,1.3-9.1,1.1-11.2-0.6c0.1-0.2-0.1-0.5-0.4-0.8l-0.6-0.5c-0.2-0.7,0-1.7,0.5-3c0.5-1.2,1-2.1,1.4-2.4
		c0-0.1,0-0.2-0.1-0.1c0.2-0.3,0.6-0.9,1.1-1.8c0.5-0.8,0.8-1.6,1.2-2.3c-0.7,0.2-1.2,0.6-1.7,1.3c0.3,0.8-0.2,1.3-1.7,1.6
		c0.2,0,0.2,0.2,0,0.6c0-0.3-0.1-0.3-0.3-0.2c-0.3,0.1-0.4,0.2-0.5,0.5c-0.1-0.3-0.1-0.6,0.2-0.9c0.3-0.5,0.4-0.7,0.4-0.8
		c-0.2-0.3-0.4-0.3-0.6-0.1c-0.1,0.4,0.7-0.3,2.4-2c-1.2-0.1-2-0.1-2.3,0.2c0.1,0.5-0.7,0.5-2.1,0c0.4-0.3,3.3-0.8,8.8-1.6
		c0.5-0.3,0.6-0.7,0.4-1.4c-0.3-1-0.5-1.5-0.5-1.6c-0.9,0.6-3,1.2-6.2,1.9c0.2-0.1,1.5-0.5,3.8-1.2c1.7-0.5,2.7-1.3,2.9-2.5
		c0.3,0.2,0.4-0.2,0.4-1.1c0-1.4,0-2.2,0.1-2.4c0-0.3,0.1-0.5,0.4-0.8c0.3-0.3,0.4-0.5,0.5-0.6c0.1-0.1,0.1-0.3,0-0.6
		c-0.1-0.2-0.1-0.4,0-0.5c0.7-0.5,1.2-0.7,1.6-0.8c0.3,0.5,0.6,0.8,0.9,1c-0.3,0-0.3,0.1,0,0.3c0.3,0.3,0.4,0.6,0.3,0.8
		c0.7-0.1,1-0.6,1.1-1.5h0.7c-0.1,0.4-0.1,0.8,0,1.3c-0.2,0.1-0.3,0-0.4-0.1c-0.1-0.1-0.2-0.2-0.3-0.2c-0.3,6.4-0.6,9.4-1.1,8.8
		c0.7,0.1-0.2-1.4-2.5-4.7c0.2,0,0.4,0.1,0.5,0.3c0.1,0.2,0.3,0.3,0.4,0.4c0.5-0.7,0.4-1.7-0.2-2.8c0.3,0,0.5,0.2,0.7,0.5
		c0.2-0.1,0.4-0.3,0.5-0.7c0.1-0.3,0-0.6-0.1-0.7c0.1-0.3,0.2-0.3,0.3-0.1c0.1,0.2,0.2,0.4,0.1,0.6c0.4-0.1,0.6-0.3,0.6-0.7
		c-0.8-0.9-1.3-1.5-1.7-1.9c-0.7,0.1-1.1,0.5-1.1,1.3c0.1,1.4,0.1,2,0.1,2c-0.2-0.1-0.3-0.4-0.3-0.7c0,0.5-0.1,1.2-0.4,2.1
		c-0.4,1.2-0.6,1.9-0.7,2.2c-0.3,1.8,0.2,2.8,1.6,3.2c0.2-0.1,0.4-0.2,0.7-0.4c0.3-0.3,0.6-0.4,0.7-0.5c-0.3,0.3-0.2,0.5,0.3,0.5
		c-0.8,0.6-1.3,0.8-1.3,0.7c-0.2,0-0.4,0-0.6,0c-0.3,0-0.5,0-0.8-0.1c-0.3,0.3-0.5,0.6-0.6,0.8c-1.8,0.5-3,1.2-3.5,2.1
		c-0.7,1-1.5,2.6-2.4,4.9c-0.1,0.2-0.3,0.6-0.6,1.1c-0.3,0.5-0.4,0.8-0.5,1.1c0.5,2.1,1.7,3.4,3.6,3.8c1.1,0.3,2.6,0.2,4.6-0.1
		c2.1-0.4,3.6-0.6,4.4-0.5c0.5,0.1,0.9,0.3,1.2,0.6c0.1,0.1,0.1,0.2,0.1,0.3l-0.1,0.2h0.3C47.8,148.5,47.9,148.5,47.9,148.5z
		 M32.5,60.3c0.8-0.4,3.1-1.3,6.8-2.7c2.7-1.1,4.8-2.2,6.2-3.2c1.7-1.2,3.3-2.8,4.9-4.6c2.1-2.5,3.5-4.3,4.2-5.3
		c-0.2,0.2-1.1,1.2-2.8,2.9c0.5-1,0.7-1.4,0.8-1.3c-0.1,0.3-0.3,0.6-0.8,0.9c-0.4,0.2-0.6,0.3-0.6,0.4c0.1-0.3,0.7-0.9,1.9-2
		c1.1-0.9,1.7-1.6,1.7-2.1c-1,1.2-2.7,2.7-5.1,4.6c0.4-0.4,1.2-1.1,2.4-2.2c1-1,1.7-1.8,2.2-2.5c-7,6-11.5,9.4-13.4,10.2
		c4.2-2.6,7.6-5.6,10.2-8.9c0.3-0.3,0.5-0.5,0.6-0.8c-0.2,0.3-0.4,0.5-0.6,0.8c-1.6,1.4-2.3,2-2.1,1.7c0-0.1,0.1-0.3,0.3-0.5
		c0.8-0.6,1.6-1.3,2.2-2.1c1.4-1.1,2.1-1.9,2.1-2.3c-0.6,0.8-1.3,1.6-2.1,2.3c-1.2,1-2,1.7-2.2,2.1c-1.1,0.8-2.7,1.9-4.7,3.1
		c-2.4,1.5-4,2.5-4.9,3C36.2,54.3,33.8,57.2,32.5,60.3z M32.7,86.5c0.9-1,2.2-2.1,3.9-3.5c2-1.7,3.3-2.8,3.9-3.4
		c3.1-2.8,5.1-5.6,6.2-8.5c-0.3,0.3-0.7,0.7-1,1.2c-0.5,0.7-0.8,1.1-1,1.3c-0.1-0.1,0-0.2,0.2-0.4c0.1-0.1,0.1-0.2,0-0.3
		c-1,1.4-1.8,2.2-2.3,2.4c-0.3,0.3,0.8-1.1,3.2-4.2c-0.7,0.4-1.4,1.3-2.3,2.6c-0.8,1.3-1.5,2.1-2.1,2.3c1.4-1.3,2.3-2.7,2.9-4.3
		c-0.5,0.4-1.2,1.3-2.2,2.8c-0.9,1.3-1.7,2.1-2.3,2.5c1.5-1.6,2.4-3,2.7-4c-3.8,4.5-5.7,6.7-5.5,6.5c0.7-0.7,1.4-1.9,2.2-3.5
		c1-1.8,1.7-3,2.1-3.7c-0.2,0.1-0.3,0-0.4-0.3c0.6-0.7,0.8-1.2,0.6-1.5c-0.1,0.1-0.1,0.2-0.2,0.3c-0.1,0.1-0.2,0.1-0.3,0
		c0.3-1.3,0.6-1.8,0.8-1.6c-0.8,1.1-1.4,1.7-1.6,1.7l1.5-2.2c-0.7,0.9-1.6,2.2-2.8,3.9c-1.4,1.8-2.3,3.1-2.9,3.9
		c-2.1,3.3-3.1,4.9-3.1,4.9S32.9,83.1,32.7,86.5z M33,138.3c0-0.1,0-0.1,0-0.2C33,138.2,33,138.2,33,138.3z M38.4,103.4
		c1.2-5.1,1.3-8.8,0.5-11c0.3-2,0.3-3.7,0-5.1c-0.2,0.7-0.3,0.9-0.2,0.9v-3c-0.1,0.3-0.2,0.9-0.3,1.8c0,0.9-0.1,1.5-0.2,1.8
		c0.1-0.6,0.1-1.4,0-2.1c0-0.9,0-0.9-0.1-0.1c-0.1,0.3-0.2,1-0.2,2.1c0.1,1.1,0,1.9-0.1,2.2c-0.1-0.6-0.2-1.4-0.2-2.5
		c0.1-1.3,0.1-2.1,0-2.3c-0.3,0.4-0.4,1.2-0.3,2.4c0.1,1.3,0,2.2-0.2,2.6v-1.3c0.1-0.3,0.1-0.5,0-0.5c-0.1,0-0.2,0.2-0.1,0.5
		c-0.1,0.7,0,1.6,0.1,2.9c0.1,1.2,0.1,2,0,2.4c-0.7-2.8-1-5.5-1.2-8.1c-0.2,1.2-0.3,1.9-0.3,2c-0.1-0.5-0.1-1.2,0-2.2
		c0.1-0.9,0.1-1.5,0-1.8c-0.1,0.2-0.2,0.6-0.3,1.1c-0.1,0.5-0.1,0.9-0.2,1.1c-0.3-1-0.3-1.5-0.2-1.5c-0.1,0.6-0.3,0.7-0.4,0.3
		C34.5,94.4,35.7,100.3,38.4,103.4z M34.9,140.3L34.9,140.3C34.9,140.3,34.9,140.3,34.9,140.3z M38.6,34.3c-0.5,0.3-0.6,0.3-0.5,0.2
		c0-0.1,0.7-0.6,2-1.6c2.8-2.1,5.3-3.4,7.4-4C48.1,28.8,45.1,30.6,38.6,34.3z M39.8,91.4c5.3-5.1,8.5-9.4,9.4-13
		c-1,1.2-1.9,2.3-2.6,3.2c0.2-0.5,0.7-1.2,1.5-2.1c0.7-0.8,1.1-1.5,1.2-2.1c0.2-0.1-1,1.3-3.5,4.3c0.2-0.5,0.7-1.2,1.4-2.1
		c0.7-0.8,1.1-1.5,1.3-2c-0.3,0.2-1.5,1.7-3.6,4.5c0-0.2,0.1-0.5,0.4-0.8c0.2-0.3,0.2-0.4,0.1-0.5c-1.4,1.9-2.4,3.7-3.2,5.4
		c0.1-0.3,0.2-0.8,0.3-1.4c0.1-0.6,0.2-1,0.3-1.3c0.3-0.8,0.9-1.8,1.7-3.1c0.8-1.2,1.3-2.2,1.5-2.8c-0.7,0.4-1,0.7-1,0.8
		c0.8-1.4,1.1-2,1.1-1.8c-0.1,0-0.3,0.1-0.5,0.4c-0.2,0.2-0.3,0.2-0.4,0.1l0.4-0.5c0.1-0.2,0.1-0.3-0.2-0.3l-1,0.8
		c0.1,0,0.3-0.1,0.4-0.3c0.1-0.2,0-0.3-0.1-0.3c-3.9,3.1-5.9,4.7-5.9,4.7S38.9,84.7,39.8,91.4z M41.9,57.6c-0.5,0.7-1,1.8-1.4,3.3
		c-0.4,1.7-0.8,2.9-1.3,3.6c7.7-3.3,12.4-6.7,14.1-10.4c-0.3,0-0.5,0.2-0.7,0.6c-0.3,0.3-0.5,0.5-0.6,0.4c0.3-0.5,0.4-0.7,0.3-0.7
		c-0.3,0.6-0.5,0.7-0.6,0.5c0.1,0,0.2-0.1,0.3-0.2c0.1-0.2,0-0.3-0.2-0.3l-1.4,1.5c1.6-2.1,2.3-3.3,2.3-3.3
		c-2.1,2.5-3.5,3.9-4.2,4.2c1.6-1.4,2.4-2.3,2.5-2.7c-1.2,1.4-3.3,3.1-6.2,5.1c3-2.6,6.1-6.1,9.2-10.4c-0.2,0.1-0.6,0.4-1.1,1
		c-0.4,0.5-0.7,0.7-0.9,0.7c0.6-0.6,1.4-1.6,2.4-2.7c-0.5,0.1-1,0.4-1.6,1.1c-0.6,0.7-1,1-1.3,1.1l1.6-1.9c-3.8,4-5.6,5.9-5.4,5.7
		c-0.4,0.3-1.5,1-3.3,2.1c-1.4,0.8-2.1,1.2-2.1,1.2S42.4,57.1,41.9,57.6z M41.8,97.8c0.9-1.9,1.4-4.2,1.5-7
		c-0.1,0.1-0.2,0.5-0.4,1.3c-0.1,0.5-0.2,0.4-0.4-0.1c0.1,0.7,0,1.1-0.3,1.4c0.1-0.9,0.2-1.8,0.5-2.7c0.3-0.3,0,1.1-0.9,4.2
		c-0.1-0.5-0.1-1.1,0-2.1c0.1-0.8,0.1-1.3,0-1.7c-0.1,0.4-0.2,1.1-0.3,2.1c-0.1,0.9-0.1,1.6-0.2,2.1c-0.3-2.4-0.3-3.5-0.2-3.2
		c0,0.7-0.1,1.1-0.3,1.4c-0.2-0.8-0.2-1.2-0.1-1.2C39.8,93.9,40.2,95.8,41.8,97.8z M52.9,57.4c-6.1,4.8-9.7,9.4-10.6,13.9
		c5.2-2.2,8.9-5.1,10.9-8.6c-0.2-0.1-0.4,0.1-0.7,0.5c-0.3,0.3-0.5,0.4-0.6,0.3c0.2-0.1,0.5-0.3,0.8-0.8c0.3-0.4,0.3-0.5,0-0.3
		c-0.6,0.8-1.2,1.6-2,2.1c1-1.2,1.8-2.2,2.1-2.9c-0.4,0.2-0.9,0.7-1.6,1.5c-0.6,0.7-1.1,1.2-1.6,1.5c1.2-1.5,1.8-2.1,1.6-1.9
		c-0.5,0.3-1.2,0.9-2.2,1.9c-1,0.8-1.7,1.4-2.2,1.7c2.4-2.5,4.2-4.7,5.4-6.4c0.1-0.1,0.3-0.4,0.5-0.8c-0.1,0.3-0.3,0.5-0.5,0.8
		c-0.1,0.1-0.3,0.2-0.6,0.3c1-1.5,1.6-2.2,1.6-2.1c-0.4,0.1-0.8,0.5-1.3,1.1c-0.5,0.6-0.8,0.9-1.1,0.9
		C50.9,59.7,51.6,58.9,52.9,57.4z M43,33.2c0.7-0.6,1-0.9,1.1-0.9c2.2-1.6,4.3-2.6,6.3-3.2C46.2,31.3,43.8,32.6,43,33.2z M53.3,83.5
		c-0.2,0.2-0.4,0.6-0.7,1.1c-0.3,0.5-0.6,0.8-0.8,1.1c0.2-0.6,0.7-1.6,1.6-2.9c-0.4,0.3-0.8,0.8-1.2,1.6c-0.5,0.9-0.8,1.5-1.1,1.8
		c0.9-2.2,1.4-3.3,1.4-3.2c-0.2,0.3-0.5,0.9-1,1.7c-0.5,0.7-0.8,1.2-1.1,1.6c0.1-0.2,0.3-0.6,0.6-1.3c0.3-0.5,0.5-0.9,0.4-1.2
		c-0.3,0.5-0.7,1.1-1.1,1.9c-0.5,0.9-0.9,1.5-1.1,1.9c0-0.3,0.1-0.6,0.4-1.1c0.3-0.4,0.3-0.7,0.2-0.9c-1,1.8-1.6,2.9-1.9,3.3
		c0.1-0.3,0.5-1.1,1-2.2c0.3-0.8,0.1-0.6-0.5,0.4c0.1-0.1-0.7,1.5-2.1,4.6c0.1-1.4,0.7-3.1,1.7-5.3s1.5-3.7,1.6-4.8
		c-0.1,0.1-0.3,0.2-0.5,0.3c-0.1,0,0,0.1,0.2,0.3c-4.2,5.3-6,10.3-5.3,14.9C48.9,94,52,89.5,53.3,83.5z M49.1,123.6
		c-0.4-0.8-0.9-1.1-1.7-1.1c-0.8,0.1-1.2,0.5-1.4,1.4c-0.3-0.7-0.1-1.2,0.4-1.6c0.6-0.3,1.2-0.4,1.9-0.2
		C48.9,122.9,49.1,123.4,49.1,123.6z M55.6,69.2c-0.7,0.6-1,0.9-0.9,1c0.6-1.1,0.9-1.6,0.9-1.6c-0.9,1-1.5,1.7-1.9,1.9
		c0.8-1.6,1.2-2.3,1.3-2.1c-0.7,1-1.6,1.9-2.6,2.7c0.6-0.6,1.3-1.5,2.1-2.6c-0.6,0.3-1.2,0.9-2,1.7c-0.9,0.9-1.5,1.5-1.9,1.8
		c0.4-0.5,1-1.4,1.9-2.8c0.8-1.2,1.4-2.1,2-2.7c-0.2-0.1-0.3,0-0.4,0.3c-0.1,0.2-0.1,0.2-0.2,0.1c0.3-0.8,0.5-1.2,0.6-1.1
		c-0.7,0.5-1,0.7-1.1,0.7c0.8-0.8,1.2-1.4,1.1-1.7c-0.3,0.5-0.7,0.9-1.4,1.3c0.9-1.2,1.3-1.8,1.3-1.6c-0.2-0.2-0.4-0.1-0.7,0.3
		c-0.3,0.3-0.5,0.4-0.6,0.3c0.2-0.5,0.4-0.8,0.5-0.8c-2.3,2.5-3.8,4.3-4.5,5.4c-1.4,2.3-2.1,4.9-1.9,7.6c-0.3,0.3,1.4-0.9,4.9-3.4
		C54.1,72.2,55.3,70.7,55.6,69.2z M47.6,129.2l1-1.2c-0.1,0.1-0.3,0.3-0.7,0.6c-0.3,0.2-0.5,0.3-0.5,0.3S47.5,129,47.6,129.2z
		 M48.7,127.3c-0.2-0.7-0.2-1.1-0.1-1.1c-0.7,1.1-1,1.6-1,1.4c0.2,0.1,0.4,0,0.6-0.1C48.4,127.3,48.5,127.3,48.7,127.3z M51,29.5
		c0.1,0,0.4-0.2,0.9-0.6c0.3,0,0.6,0,1-0.1c0.4-0.1,0.7-0.2,0.9-0.2C53.2,28.9,52.3,29.2,51,29.5z M51.6,82.2
		c4.4-2.9,6.9-6.1,7.5-9.4c-0.6,1-1,1.5-1.2,1.7l0.7-1.2c0.3-0.5,0.4-0.9,0.1-1.2c-0.7,1.3-1.2,2-1.5,2.1c0.6-1.6,0.9-2.3,1-2.1
		c-1.1,1.8-1.8,2.9-2.1,3.2c0.3-1,0.5-1.5,0.6-1.4c-0.8,1.6-1.6,2.5-2.1,2.7c1.4-2.3,2.3-4.4,2.7-6.4c-0.1,0.3-0.3,0.7-0.6,1.3
		c-0.4,0.6-0.7,1-0.8,1.2c0.1-0.4,0.3-0.9,0.7-1.7c0.3-0.6,0.5-1.1,0.4-1.4c-0.6,1.4-1.8,2.9-3.6,4.3c-1.3,3.8-2,5.8-2,5.8
		S51.5,80.5,51.6,82.2z M128.5,129.4c-0.8,0.9-2.3,1.6-4.6,2.1c-3,0.6-4.8,1-5.4,1.4c0.8-0.6,2.5-1.2,4.9-1.8
		c2.1-0.5,3.6-1.3,4.5-2.4c0.9-1.2,1.2-2.2,0.9-3.1c-0.4-0.9-1.3-1.5-2.8-1.7c-1-0.1-2.6,0.1-5,0.6c-2.1,0.4-3.9,0.4-5.4,0.1
		c-1.8-0.5-3.3-1.2-4.6-2.2c-1.6-1.3-1.5-2.3,0.2-3.1c-1.9,0.6-2.9,1.1-2.9,1.5c-0.1,0.8,0.2,1.4,1.1,2c0.3,0.2,0.7,0.4,1.3,0.7
		c0.5,0.2,0.8,0.4,1,0.5c2.3,1.3,3.3,1.9,2.9,1.9c0.7,0.2,2,0.2,4-0.1c1.6-0.2,2.7,0,3.2,0.5c-0.8-0.1-2-0.1-3.5,0.1
		c-1.6,0.3-2.8,0.4-3.4,0.3c-0.4-0.1-0.9-0.3-1.6-0.6c-0.6-0.3-1.1-0.5-1.5-0.5c0.1,1,0.7,1.7,1.9,2.2c2,0.8,3.1,1.3,3.2,1.4
		c-0.4,0.2-0.9,0.2-1.7,0.1c-0.8-0.2-1.3-0.3-1.5-0.2c0.7,0.3,0.8,0.5,0.5,0.6c-0.3,0.1-0.6,0-0.8-0.3c-0.3-0.3-0.6-0.4-0.8-0.5
		c-0.1,0.4-0.4,0.8-0.9,1.3c-0.5,0.5-0.7,0.9-0.8,1.4c6.6-1.4,10.2-2.2,10.7-2.3c0-0.1-0.2-0.1-0.5-0.1c-0.3,0-0.4-0.1-0.4-0.2
		c1.6-0.5,2.3-0.5,2.1-0.1c-1.6-0.3-2.3-0.4-2.1-0.4c2.1-0.4,3.1-0.4,2.9-0.1c-2.2-0.4-3.2-0.6-2.9-0.5c0.4-0.1,1.1,0,2.1,0.1
		c0.8,0.1,1.4,0.1,1.7-0.1c0.3,0.1-1.3-0.1-4.8-0.6c0.5-0.1,1.6-0.1,3.2,0.1c1.2,0.2,2,0.1,2.2-0.4c-0.7-0.2-1.6-0.3-2.7-0.3
		c-1.4,0.1-2.3,0.1-2.7,0c3.2-0.2,5.1-0.2,5.9,0.1c0.2-0.5,0.2-0.9,0-1.4c-0.3-0.1-0.6-0.2-1.1-0.1c-0.5,0.1-0.8,0-1-0.1
		c1-0.5,2-0.4,2.8,0.1c0.8,0.5,1.2,1.3,1.2,2.2c-0.1,1.2-1.2,2-3.2,2.4c-0.7,0.1-1.6,0.3-2.7,0.5c-1.4,0.1-2.3,0.2-2.6,0.3
		c-4.9,0.8-9.6,2.1-14.3,3.8c-3.1,1.2-5.5,1.8-7.2,1.9c-1.5,0.1-3.6,0-6.4-0.4c-2.6-0.3-4.4-0.3-5.4-0.2c-0.4-0.3-0.7-0.5-0.8-0.5
		c-2.2,0-5.3-0.4-9.3-1.1c-5.3-1-8.6-1.5-9.8-1.7c-6.1-0.8-9.7-1.9-10.8-3.2c-0.6-0.8-0.5-1.8,0.4-2.9c-1.2,1.2-1.8,2.1-1.8,2.6
		c0.1,1.6,1.9,2.7,5.4,3.3c4.9,0.8,7.5,1.3,7.7,1.5h-0.3c5.9,1.4,8.6,1.9,8.1,1.5c-1.6-0.3-4.9-0.8-9.9-1.4c-4-0.5-7-1.1-9.2-1.7
		c0.1,0.3,0.5,1.1,1.2,2.4c0.5,1,0.7,2,0.5,2.7c-1.2-1.6-1.6-2.3-1.2-2.1c-0.8,1.3-0.8,2.8,0.1,4.6c-0.5,0.1-0.9-0.2-1.2-0.8
		c-0.5-1-0.7-1.4-0.6-1.4c-0.4,1.7,0.7,3.7,3.2,6.2c2.9,2.8,7.3,4.4,13.2,4.8c1.7,0.1,4.1,0.6,7.3,1.3c3.2,0.8,5.6,1.2,7.2,1.4
		l13.4-0.6c0.5-0.1,1.4-0.1,2.7-0.1c1.2,0,2.1,0,2.6-0.1c2.3-0.1,4.9-0.7,7.6-1.9c3.8-1.4,6.4-2.2,7.8-2.6c3.6-0.8,6-1.7,7.3-2.5
		c4.9-3.3,6.1-5.4,3.5-6.3c-0.6,2.1-2,3.3-4.1,3.5c1.2-0.7,2.1-1.7,2.6-2.8c0.5-1.4,0.3-2.6-0.8-3.7c-0.1,0.2-0.4,0.4-0.8,0.7
		c-0.4,0.3-0.7,0.6-0.8,0.8c0.4-0.1,0.4,0,0.1,0.3c-0.6,0.4-0.9,0.7-0.9,0.8c0.2,0.1,0.4,0.1,0.7-0.2c0.3-0.2,0.5-0.2,0.6-0.1
		c-0.7,0.3-1.3,0.8-2.1,1.4c0-1.1,0.7-2.4,2.1-3.9c1.3-1.4,2-2.1,2-2.1S128.9,130.9,128.5,129.4z M55.1,124.5c0.1,0.5,0,0.7-0.1,0.9
		c1.6-0.4,4.9-2.1,10-5.1c3.9-2.3,7.6-3.2,11-2.6c0.5-3.1,0.9-5.1,1.3-6.2c-0.5-0.6-1.1-0.8-1.9-0.8c-1.3,2.6-3.2,4-5.7,4.3
		c-1.8,2.1-4.5,3.9-8,5.4c0.2-0.7,0.3-0.9,0.3-0.8c-0.7-0.1-1.4,0.2-2,0.7c-0.7,0.7-1.2,1-1.6,1.1c0,1.2-0.6,1.7-1.7,1.7
		C56.8,123.8,56.2,124.3,55.1,124.5z M56.1,83.9c3.2-4.6,4.9-7.5,5.2-8.6c-1.2,1.9-1.7,2.7-1.5,2.4v-0.4c-0.8,1.2-1.3,1.8-1.3,1.9
		c0.7-1.7,1.1-2.5,1.3-2.3c-0.2,0.1-0.4,0.4-0.7,0.9c-0.2,0.4-0.4,0.7-0.6,0.8l1.3-4c-0.5,1.2-0.9,1.9-1.1,2.1
		c-0.1-0.3-0.1-0.5,0-0.5c-2.3,2.7-3.5,4.1-3.5,4.1S55.5,81.4,56.1,83.9z M56.6,117.6c1.8-1.2,2.9-2.1,3.3-2.9
		c-1,0.8-1.8,1.2-2.1,1.4c-0.1-0.8-0.1-1.2,0.2-1.1c-0.1,0.3-0.4,0.7-0.8,1.3C56.8,116.8,56.6,117.2,56.6,117.6z M62,141.7
		c0.6-0.1,0.9,0,0.9,0.1C62.9,141.9,62.6,141.9,62,141.7c-2.2-0.2-4-1-5.4-2.3C60.2,140.9,62,141.7,62,141.7z M61.6,140.5
		c-1.1,0.2-2.7-0.5-4.7-2c0.4,0.1,1.1,0.4,2.1,1.1C60,140.2,60.9,140.5,61.6,140.5z M57.3,141.1c0.5,0.1,1.3,0.5,2.6,1
		c1.4,0.5,2.2,0.8,2.6,1C60.5,142.8,58.7,142.1,57.3,141.1z M57.7,142.5L57.7,142.5L57.7,142.5z M63.4,144.8
		c-2.7-0.5-4.6-1.2-5.7-2.2c0.3,0.1,1.1,0.4,2.6,1.1C61.8,144.2,62.8,144.6,63.4,144.8z M58.2,128.8c0.3,0.2,1,0.4,2.1,0.7
		c1,0.2,1.6,0.5,2,0.8c-2-0.5-3.2-0.7-3.4-0.7c1.7,0.5,4.8,1.1,9.2,1.8c4.1,0.6,7.1,1.3,9.1,2.1c0.2-0.4,0.5-0.7,1-0.8
		c0.6-0.2,0.9-0.4,1.1-0.6c0.5-0.7,0.4-1.5-0.1-2.3c-0.2-0.3-0.5-0.7-0.9-1.1c-0.5-0.5-0.8-0.7-0.9-0.9c-0.9,1.5-2.3,2.1-4.1,1.9
		c0.5-0.1,1-0.2,1.7-0.5c0.8-0.3,1.3-0.5,1.7-0.6c0.6-2.3,0.8-3.6,0.8-4c-1.4,2.8-5.4,3.4-12,1.9c0.2,0,0.4,0,0.7-0.1
		c0.2-0.1,0.1-0.1-0.2-0.1c-4.9-0.3-7.3-0.5-6.9-0.6c1.2,0.2,1.9,0.4,2.1,0.6c-0.1,0.1-0.4,0.2-0.8,0.2c-0.5-0.1-0.7,0-0.8,0.1
		c0.7,0.1,1.2,0.2,1.4,0.3c-1.5-0.1-2.3,0.1-2.4,0.5c0.8,0.1,1.9,0.3,3.2,0.6c1.4,0.4,2.4,0.6,3,0.7c-1,0.1-2.1-0.1-3.3-0.5
		c-1.4-0.4-2.4-0.6-3.1-0.6c0.4,0.2,1.1,0.4,2.1,0.6c1,0.3,1.7,0.5,2.1,0.8c-0.4,0-1.1-0.2-2.1-0.5c-0.9-0.3-1.6-0.3-2.1-0.2
		c1.6,0.3,3,0.8,4.1,1.5C59.2,129.2,58,129,58.2,128.8z M66,134.3c-3.3,0.2-5.9,0-8-0.7C59.9,133.7,62.6,133.9,66,134.3z
		 M61.2,139.4c-0.6,0.1-1.6-0.3-2.9-1.2c0.3-0.1,0.8,0.1,1.4,0.5C60.3,139.1,60.8,139.3,61.2,139.4z M62,136.5
		c-1,0.3-2.2,0.1-3.7-0.4c0.1,0,0.6,0.1,1.6,0.2C60.7,136.4,61.4,136.4,62,136.5c0.3-0.2,0.6-0.1,0.7,0
		C62.8,136.5,62.6,136.5,62,136.5z M58.5,92.9c-0.1-0.8,0.2-1.7,0.7-2.8c0.6-1.4,0.9-2.3,1-2.7c0.1,0.7-0.1,1.6-0.6,2.7
		C58.9,91.5,58.6,92.4,58.5,92.9z M59.6,85.7c2.3-3.7,3.5-5.7,3.5-5.9c-0.6,1-0.9,1.6-1.1,1.7l0.5-1.2c-0.8,1.2-1.2,1.8-1.3,1.9
		c1-2.4,1.5-3.7,1.5-4c-0.2,0.6-0.5,1.3-1,2.1c-0.6,1.1-0.9,1.8-1.1,2c0.7-2.9,1.1-4.4,1.1-4.3c-0.5,1.2-0.8,2-1.1,2.1
		c0.6-1.4,0.8-2.1,0.6-2.1c-1.8,2.2-2.7,3.3-2.7,3.3S58.9,82.7,59.6,85.7z M58.5,118.9c1.9-0.5,3.2-1.6,3.8-3.3
		c-0.8,1-1.8,1.7-2.7,1.9c0.1-0.5,0.4-1.1,0.9-1.9c0.5-0.7,0.8-1.2,0.8-1.5C60,115.7,59,117.2,58.5,118.9z M59.8,138.3
		c-1.3-0.5-1.5-0.6-0.7-0.4c-0.1-0.1,1.3,0.2,4.3,0.9C62.6,139.1,61.4,139,59.8,138.3z M78.3,120.5c-0.3-1.5-2.1-2.2-5.7-2.1
		c-2.4,0-4.9,0.8-7.4,2.5c-3.2,2-5.4,3.2-6.5,3.6c0.2,0,2.4-0.6,6.5-1.9c-0.1,0.1-0.6,0.4-1.5,0.9c-0.7,0.4-1.1,0.7-1.1,1
		c0.3-0.2,0.9-0.5,1.9-1c0.8-0.4,1.4-0.7,1.7-0.8c-0.3,0.3-0.8,0.7-1.6,1.1c-0.7,0.4-1.2,0.7-1.6,1c0.4-0.1,0.9-0.2,1.6-0.5
		c0.6-0.3,1-0.5,1.3-0.5c-0.1,0.1-0.5,0.3-1,0.5c-0.3,0.2-0.6,0.4-0.8,0.6c0.3,0,0.6-0.1,1-0.4c0.5-0.2,0.8-0.3,1.1-0.3
		c-0.1,0.1-0.2,0.2-0.5,0.3c-0.3,0.1-0.4,0.3-0.5,0.4c0.3,0.1,0.6,0.1,0.9,0c0.3-0.1,0.5-0.2,0.5-0.1c-0.2,0.1-0.3,0.2-0.4,0.5
		c1,0.1,2.1-0.2,3.2-1.1c1.6-1.2,2.4-1.8,2.5-1.9c-0.6,0.1-1.4,0.3-2.3,0.7c-1,0.5-1.8,0.7-2.3,0.8c1.4-1.4,3.8-2.3,7.3-2.5
		c-2.1-0.3-3-0.3-2.7-0.2c2.3-0.7,3.4-0.8,3.2-0.6c-0.6-0.2-1.5-0.2-2.6,0.1c-1.3,0.3-2.1,0.4-2.4,0.4c0.7-0.3,2-0.6,4-1
		c-0.7-0.1-1.6,0-2.7,0.3c-1.5,0.3-2.3,0.5-2.5,0.5c0.3-0.1,0.8-0.3,1.6-0.5c0.7-0.3,1.2-0.5,1.6-0.6c-1.6-0.1-3.1,0.2-4.5,0.9
		c-0.3,0.3-0.8,0.6-1.6,1.1c-0.7,0.5-1.3,0.9-1.7,1.1c2.5-2.1,4.7-3.4,6.6-3.6c1.9-0.3,3.5-0.2,4.7,0.2c1.6,0.5,2,1.4,1,2.8
		c-1.2,1.7-3.7,3.1-7.7,4.2l-1.1,0.1h1.6c2.2,0.7,4.4,0.2,6.4-1.5c2-1.5,3-2.2,3-2.2S78.6,122,78.3,120.5z M61.5,137.4
		c1.7,0.2,2.5,0.3,2.3,0.3c-1.9,0.3-3.5,0.1-5-0.8C59.1,137.1,60,137.2,61.5,137.4z M59.9,100.5c1.8-2.5,2.4-5,1.9-7.5
		c0,0.8-0.2,1.7-0.5,2.8c-0.2-1-0.2-1.5-0.1-1.5c-0.3,1.2-0.4,1.8-0.3,1.8c0-0.8-0.1-1-0.2-0.8c0,0.6-0.1,1-0.3,1.2
		c-0.1-0.7-0.1-1-0.2-0.9c0.1,0.8,0,1.3-0.3,1.7v-1c0-0.5,0-0.7-0.1-0.5c-0.3,0.7-0.3,1.1-0.2,1.1c-0.2-0.9-0.3-1.3-0.2-1.3
		c-0.2,1-0.3,1.5-0.3,1.5S59.4,98.2,59.9,100.5z M65,134.8c0.5,0.1,0.1,0.1-1.2,0.2c-1.4,0-2.8-0.1-4.2-0.3c-0.6-0.1-0.3-0.2,1-0.1
		c1.3,0.1,2.1,0.1,2.5,0.2H65z M62.7,135.8c-0.5,0-1.5-0.1-2.9-0.2c0.2-0.2,0.9-0.2,2.2,0C62.6,135.6,62.8,135.7,62.7,135.8z
		 M64.5,109.3c-1.9,1.6-3.1,3.2-3.6,4.6c2-0.8,3.4-1.8,4.1-2.9c-1.6,1-2.6,1.6-2.9,1.6c0.1-0.5,0.6-1.2,1.5-2
		C64.2,109.9,64.5,109.5,64.5,109.3z M63,118.4h-1.1c0.4-1.2,0.7-1.8,0.8-1.6c-0.5,0.3-1.1,1.1-1.8,2.4c1.1-0.3,1.7-0.4,1.7-0.4
		S62.8,118.7,63,118.4z M61.3,48c-0.1-0.4,0.2-1.7,1-3.8c0,0.3-0.2,0.8-0.5,1.7C61.4,46.7,61.3,47.5,61.3,48z M62.2,46.8
		c-0.1-0.5,0.1-1.5,0.8-3.2c0,0.3-0.1,0.7-0.4,1.5C62.4,45.9,62.2,46.5,62.2,46.8z M62.5,105.9c2-0.3,3.3-0.9,3.7-1.9
		c-2,1-3,1.5-3.1,1.5c0-0.1,0.2-0.4,0.5-0.7c0.2-0.3,0.3-0.5,0.2-0.6c-0.1,0.2-0.4,0.5-0.7,0.9C62.8,105.4,62.7,105.7,62.5,105.9z
		 M62.7,109c1.9-0.3,3.7-1.2,5.4-2.8c-0.3,0.1-1,0.6-2.1,1.3c-0.8,0.5-1.6,0.8-2.3,1c0.8-1.2,1.3-2,1.7-2.3c1.1-1.1,1.7-1.6,1.8-1.6
		C65,106,63.6,107.5,62.7,109z M62.8,59.7c-0.5-0.3,1.2,1,5.1,4C67.5,63.6,65.8,62.2,62.8,59.7z M63.1,100.5c0.5-0.4,0.8-1,0.9-2
		c0-0.8-0.2-1.6-0.6-2.1v1.1c-0.3,0-0.5-0.1-0.6-0.2c0,0.5,0,1,0.1,1.7C63,99.7,63.1,100.3,63.1,100.5z M66.8,92.2
		c-0.2-0.3-0.6-0.6-1.1-1.1c-0.5-0.5-0.9-0.9-1.1-1.2c-0.8-1-1.1-2.1-1.1-3.4c0.1-0.1,0.2-0.2,0.4-0.1c0.2,0.1,0.3,0.1,0.4,0
		l-0.5-0.9c-0.2-0.3-0.5-0.5-0.9-0.4c-0.4,1.8-0.2,3.3,0.7,4.7c0.8,1.2,1.2,1.9,1.2,1.9S65.5,91.9,66.8,92.2z M66,114.4
		c-0.5,0.6-1.3,1-2.2,1.4c0-0.5,0.2-1,0.6-1.8c0.4-0.8,0.6-1.3,0.6-1.5c-1.2,1.3-1.8,2.6-2,4C64.8,115.8,65.8,115.1,66,114.4z
		 M63.1,61.4c0.4,0.6,1,1.2,2,1.8c1.1,0.7,1.8,1.2,2.1,1.5C65,63.8,63.6,62.7,63.1,61.4z M63.4,44.8c0.1-1,1-2.3,2.9-3.8
		c0,0.1-0.5,0.6-1.4,1.6C64.1,43.4,63.6,44.2,63.4,44.8z M63.6,92.5c0.1,1,0.6,1.9,1.4,2.4c0.8,0.6,1.8,0.8,2.7,0.7
		c-0.9-0.1-1.7-0.5-2.2-1c-0.7-0.6-0.8-1.3-0.3-2.1C64.8,92.1,64.3,92.1,63.6,92.5z M64.5,78.8c-0.8,1.7-0.8,3.6-0.1,5.8
		c0.7,2,1.7,3.4,3,4.4c0-0.1-0.6-1.5-1.9-4c-0.8-1.6-1-3.2-0.7-4.7c0.5,0.3,1.1,0.8,2,1.6c0.8,0.8,1.6,1.3,2.1,1.7
		C66.6,80.6,65.1,79,64.5,78.8z M67,74.2c-0.1-0.8-0.7-2.1-1.8-3.8c-0.6,1.1-0.9,2.3-1.1,3.5c-0.2,2.6,0.2,3.9,1.1,4
		c-0.3-0.6-0.5-1.7-0.5-3s0.2-2.3,0.7-2.9c0.2,0.2,0.5,0.6,0.8,1.2C66.5,73.7,66.8,74.1,67,74.2z M65.3,99.1
		c-0.1,0.1-0.2-0.4-0.3-1.7c-0.1-1.2-0.1-1.7,0-1.7C64.2,97.4,64.3,98.5,65.3,99.1z M65.3,126.4C65.1,126.4,65.1,126.4,65.3,126.4
		C65.2,126.4,65.2,126.4,65.3,126.4z M69,106.7c0.1-0.2,0-0.3-0.2-0.3c-1.6,1.7-2.7,3.4-3.3,5.1c1.6-0.1,2.9-0.7,4-1.6
		c1-0.8,1.4-1.4,1.1-1.9c-1.4,1.6-2.7,2.3-4,2.3C66.9,109.1,67.7,107.9,69,106.7z M67.7,114.1c-0.8,1-1.5,2.2-2,3.6
		c1.5-0.3,2.5-1.1,3-2.5c-0.8,1-1.5,1.7-2.1,1.9c0.1-0.5,0.3-1,0.6-1.7C67.6,114.8,67.8,114.4,67.7,114.1z M67.7,103.7
		c0.1-0.5,0.3-1.1,0.8-2c0.4-0.8,0.6-1.5,0.5-1.9c-0.1,0.1-0.4,0.5-0.8,1.2c-0.3,0.5-0.6,0.8-0.9,1c-0.2-0.2-0.5-1.5-1-4
		C65.7,100.4,66.1,102.2,67.7,103.7z M66.2,146.8c5.3-0.4,8.8-0.1,10.5,0.9C74.8,147.2,71.3,146.9,66.2,146.8z M66.3,42.5
		c0.1-0.3,1.3-1.6,3.6-4.1c1.7-1.9,2.4-3.7,2.2-5.6c-0.1-1.5-1.3-3.2-3.5-5.1c2,0.7,3.3,2.2,3.9,4.7c0.6,2.6,0.1,4.8-1.5,6.4
		c-0.5,0.5-1.3,1.1-2.5,1.8C67.5,41.2,66.8,41.9,66.3,42.5z M68.8,135c-0.2,0.1-0.6,0.1-1.1-0.1c-0.7-0.2-1.1-0.3-1.4-0.2
		c0.3-0.2,0.7-0.2,1.2,0C68.2,134.9,68.6,135,68.8,135z M66.6,70.4c0-0.6,0.2-1.4,0.7-2.3c0.3-0.9,0.5-1.6,0.4-2.1
		C66.9,68.3,66.5,69.8,66.6,70.4z M68.8,81.5c-1.4-3.5-1.6-6.3-0.4-8.7c0.8,0.5,2.2,2.1,4.3,4.9V76c-2.3-2.8-3.9-4.3-4.6-4.5
		c-0.8,1.5-1.1,3.3-1,5.3C67.2,78.9,67.8,80.5,68.8,81.5z M92.5,112.3c0.5,0.8,1.6,1.5,3.2,2.2c1.8,0.8,2.9,1.4,3.3,2
		c1.3,1.2,2.3,3,2.9,5.2c0,0.2,0,0.4-0.1,0.5c-0.1,0.1-0.2,0.2-0.2,0.3c2,0.1,3.4-0.7,4.3-2.3c0.8-1.4,1.2-3.1,1-5.2
		c-0.3-2.1-0.9-3.9-2-5.4c-1.1-1.6-2.5-2.5-4.1-2.6c0.5-0.1,1.1,0.1,1.9,0.5c0.7,0.4,1.2,0.5,1.7,0.3c0-0.2-0.1-0.5-0.3-1
		c-0.2-0.4-0.2-0.8-0.1-1.3c1.4,1.4,1.7,2.6,0.9,3.6c-0.3-0.1,0,0.2,1,0.7c0.3-1.4-0.4-3.4-2.1-5.8l0.5-3.2
		c-0.5-3.6-1.5-6.3-3.2-7.9c-0.6-0.6-1.7-1-3.2-1.2c-1.5-0.3-2.5-0.7-3.1-1.5c-0.7-0.8-1-2-1.1-3.3c-0.1-1.4,0.2-2.6,0.8-3.4
		c-0.3,1.1-0.4,1.8-0.1,2.1c0.8-2.1,1.5-3.2,2-3.4c-1.2,2.2-1.8,3.8-1.6,4.9c0.4-1.8,0.7-2.7,1.1-2.7c-0.3,0.5-0.5,1.2-0.6,2.1
		c-0.1,1,0.1,1.7,0.5,2.1c0.1-3.1,1.1-5.3,3-6.6c-1.7,2.3-2.4,4.1-2.2,5.4c0.2-1.5,0.7-2.3,1.5-2.4c-0.9,1.2-1.3,2.5-1.2,4.1
		c0.1-0.1,0.3-0.5,0.6-1.1c0.2-0.5,0.4-0.9,0.6-1.1c-0.2,2.2-0.3,3.3-0.4,3.1c0.2-2,1-3.5,2.5-4.3c-1.2,1.4-1.7,2.5-1.5,3.3
		c0.2-0.5,0.9-1.1,2.2-2c-0.1,0.2-0.3,0.5-0.8,0.8c-0.4,0.3-0.6,0.6-0.7,0.9c2.3-0.9,3.6-1.9,3.8-3c-0.7,0-1.5,0.3-2.3,0.8
		c-1,0.7-1.6,1-1.9,1.1c0.4-0.4,1.2-1,2.3-2c1-0.8,1.7-1.4,1.9-1.8c-0.7,0.2-1.6,0.6-2.7,1.1c-1.2,0.7-2.1,1-2.6,1.2
		c0.3-0.5,1-1.2,2.1-2.1c1-0.8,1.6-1.6,2-2.2c-0.3,0.1-0.8,0.3-1.6,0.8C99.8,82.8,99.3,83,99,83c0.2-0.3,0.7-0.9,1.5-1.9
		c0.6-0.8,1-1.4,1.3-2c-0.6,0.3-1.3,0.8-2.1,1.6c-1,0.8-1.8,1.4-2.1,1.7c0.3-0.5,0.8-1.5,1.8-2.8c0.8-1.1,1.3-2,1.5-2.7
		c-0.7,0.4-1.5,1.1-2.4,2.2c-1,1.1-1.8,1.9-2.4,2.2c0.1-0.4,0.5-1.2,1.4-2.3c0.6-0.9,0.8-1.7,0.8-2.4c-0.8,0.7-1.6,1.8-2.3,3.3
		c-1.1,2-1.8,3.2-2.1,3.6c2.5-6.3,3.7-9.5,3.7-9.7c-2.9,3.7-4.6,7-5.3,10c0.1-1.2,0.6-2.7,1.3-4.7c0.7-1.9,1.1-3.4,1.3-4.6
		c-0.7,0.4-1.3,1.2-2,2.4c-0.8,1.3-1.3,2.1-1.7,2.3c1.2-4.1,1.8-6.4,1.8-7c-1.4,1.8-2.5,3.7-3.5,6c0.7-3.8,0.9-6.5,0.7-8.1
		c-0.6,0.7-1.2,1.8-1.9,3.3c-0.9,2.1-1.5,3.4-1.7,3.7c0.2-3.1,0.3-4.9,0.2-5.4c-0.7,1-1.5,3.7-2.6,8c0.1-2.4-0.1-5.3-0.8-8.8
		c-2.4,3.1-3,7-1.9,11.8c-0.4-0.8-0.7-2.4-0.8-4.8c-0.1-2.3-0.4-3.8-0.9-4.7c-0.1,0.6-0.4,2.9-0.8,7c0-1.2-0.3-2.5-1-3.9
		c-0.8-1.9-1.3-3-1.5-3.4c-0.2,0.5-0.1,3.6,0.3,9.2c-0.2-1.4-1.2-3.6-3-6.7c-0.2,1.8,0.2,4.4,1.1,7.8c-0.2-0.2-0.5-0.8-0.9-1.8
		c-0.3-0.7-0.6-1.2-1-1.5c-0.1,0.3,0.7,2.4,2.2,6.4c-1.6-2.1-2.4-3.4-2.4-3.7c-0.1-0.1-1.1-1-2.9-2.7c0.8,4.8,3.2,8.9,7.1,12.4
		c-2-1.5-3.3-2.5-3.7-3c-0.3-0.3-0.8-1.1-1.7-2.5c-0.7-1.1-1.4-1.8-2.1-2.1c0.7,2,2.5,5,5.4,8.9c-2.3-2.5-4.6-4.8-7-6.9
		c0.7,2.4,2.7,5.5,5.9,9.3c-0.7-0.7-1.8-1.6-3.1-2.6c-1.6-1.2-2.6-2.1-3.2-2.6c0.2,0.8,0.7,2,1.6,3.3c0.8,1.3,1.3,2.3,1.4,3.1
		c-0.3-0.7-0.6-1.2-1.1-1.5c0.5,2,1.1,3.5,1.7,4.4c0.1-0.1,0-0.4-0.3-0.7c-0.1-0.3-0.1-0.4,0-0.5c0.8,2,1.9,3.2,3.4,3.6
		c-1.7-1.3-2.7-2.8-3.1-4.6c1.3,2.7,3.2,4.9,5.8,6.3c-3-3.6-4.4-5.3-4.2-5l3.2,2.9c-2.1-2.7-3.2-4.4-3.4-4.9
		c1.8,2.6,3.3,4.3,4.5,5.1c-1.4-1.4-2.2-2.5-2.4-3.4c0.3,0.3,0.9,1.1,1.9,2.3c0.7,1,1.3,1.8,1.9,2.3c1.6,1.7,3.3,2.7,5.1,3
		c-3.1-1.2-5.6-3.6-7.5-7.2c2.1,3.1,4.5,5.2,7.1,6.5c-4-3.5-6.3-6.2-7-7.9c2.1,3.2,4.4,5.5,7,7c-3.8-3.5-6.1-6.4-7-8.9
		c1.8,3.5,4.1,6,6.9,7.3c-3.5-3.4-5.6-6.2-6.2-8.6c1.2,2.9,3.2,5.5,5.9,7.7c-3-4-4.5-6.3-4.6-6.9c0.3,0.9,1.2,2.2,2.5,4
		c-2.1-4.8-3.1-7.1-3-6.7c1.9,4.7,4,7.7,6.2,8.9c-0.1,0-0.4-0.1-0.7-0.2c-0.3-0.1-0.5-0.2-0.7-0.3c0.6,1.4,2.2,2.8,4.8,4.2
		c-0.9-0.3-1.5-0.5-1.9-0.7c0.1,0.5,0.6,0.9,1.5,1.2c0.8,0.3,1.4,0.1,1.8-0.4l-2.1-2.1c2.5,1.8,4.2,2.6,4.9,2.6
		c0.1,0.1,0,0.2-0.2,0.3c-0.2,0.1-0.3,0.2-0.2,0.3c0.6,0.6,1.5,0.8,2.6,0.7c1.2-0.1,1.7-0.6,1.7-1.5c-0.5,0.7-1.4,0.9-2.6,0.7
		c1.8-0.1,2.5-0.6,2.1-1.4c0.3-0.4,0.3-0.5-0.2-0.4c-0.1,0.3-0.2,0.4-0.4,0.4c0-0.1,0-0.2,0.1-0.3c0.1-0.1,0.2-0.1,0.2-0.2
		c-2.2,0.8-3.1,1.2-2.7,1.2c-1.2,0-2-0.5-2.5-1.4c-0.6-1-0.6-2.1,0-3.2c-0.1-0.3-0.3-0.8-0.6-1.6c-0.3-0.7-0.4-1.1-0.5-1.4
		c0.2,0.1,0.4,0.2,0.5,0.5c0.1,0.3,0.2,0.5,0.3,0.6c0-0.4-0.3-1-0.9-1.8c0.2,0.1,0.4,0.3,0.6,0.6c0.3,0.3,0.5,0.5,0.6,0.6
		c0-0.3-0.2-0.6-0.5-1.1c-0.3-0.4-0.5-0.7-0.4-0.8c0.7,0.8,1.3,1.6,1.9,2.1c-0.1-0.5-0.3-0.9-0.7-1.5c-0.5-0.7-0.7-1-0.7-1.1
		c0.4,0.3,1.1,1.2,2.1,2.7c-0.1-0.3-0.5-1.2-1.4-2.9c-0.1-0.1,0.5,0.9,2,2.9c-0.3-1.8-1.2-3.2-2.7-4.2c1.4,0.1,3,2,4.6,5.5
		c1.6,3.3,3.5,4.6,5.7,3.9c1.6-0.4,1.9-2,0.8-4.9c0.2,0.3,0.4,0.7,0.6,1.3c0.2,0.7,0.4,1.2,0.5,1.4c0.2-0.8,0.3-1.1,0.2-1.1
		c0.2,1,0.1,1.8-0.4,2.4c0.8-0.1,1.2-0.8,1.2-2.1c0-0.3-0.1-0.8-0.2-1.5c-0.1-0.5-0.2-0.9-0.2-1.1c1.2,1.2,1.6,1.8,1.4,1.9
		c-0.4,0.8-0.4,1.3,0,1.5c0.1-0.2,0.2-0.6,0.2-1.3c-0.1-0.7,0-1.1,0.2-1.3c0.1,0.4,0.2,0.9,0.1,1.7c-0.1,0.8-0.2,1.2-0.1,1.4
		c0.3-0.1,0.4-0.4,0.4-1.1c0-0.7,0.1-1.1,0.2-1.3c0.1,0.8,0.1,1.1,0.1,1.1c0.1-0.3,0.1-0.7,0-1.5c-0.1-0.7-0.1-1.1,0-1.3
		c0.5,2.4,0.4,3.9-0.3,4.6c-1-0.1-2.1,0.1-3,0.8c-1,0.7-1.9,1.1-2.6,1.1c-2.5,2.2-4.5,3.2-6,2.8c-0.3-0.1-0.7-0.3-1.2-0.8
		c-0.5-0.4-0.9-0.6-1.2-0.7c-0.3,0-1.2,0-2.7,0c-1.4,0.1-2.6,0.5-3.6,1.3c-1.1,0.8-1.6,1.9-1.4,3c0.1,0.6,0.6,1,1.4,1.4
		c1.6,0.7,2.2,1,1.9,0.8c0.1,0.1,1.8,2.2,5,6.2l0.1-0.6c0.2,0.6,0.3,1.4,0.4,2.4c0.1,1.1,0.3,1.9,0.4,2.4c0.5,0.3,1.1,0.2,1.8-0.1
		c0.3-0.6,0.6-2.4,0.7-5.4c0.1-2,0-3-0.3-3.2c-0.6,5.1-0.8,7.7-0.8,7.5c0.5-3.1,0.4-5.2-0.1-6.3c-0.4,1.1-0.5,1.6-0.2,1.4
		c0.1,0.3-0.1,0.5-0.4,0.7c-0.8-4-2.5-6.2-5.3-6.6c-0.3,0.7-0.5,1-0.5,1c3.3,2.1,5,4.2,5.3,6.2c0.5,3.1,0.7,4.6,0.6,4.6
		c-0.4-0.4-0.7-1.6-0.9-3.5c-0.3-2.5-1.4-4.4-3.2-5.9c-0.3-0.3-0.9-0.6-1.8-0.9c-0.8-0.3-1.3-0.6-1.7-1c-0.9-1-0.7-2,0.5-2.8
		c1.2-0.7,2.4-1,3.8-0.9c1.2,0.1,2.2,0.6,2.8,1.5c0.3,0.2,0.5,0.6,0.8,1.1c0.4,0.7,0.6,1,0.6,1S92.3,112.1,92.5,112.3z M72.7,67.7
		c0.1-1.4-1-2.7-3.2-4c-1.9,3.9-1.9,6.4,0,7.5c-0.5-0.9-0.7-2-0.6-3.3c0-1.4,0.3-2.4,0.9-3C71.2,66,72.2,67,72.7,67.7z M68.2,113.4
		c2.5-0.9,3.9-2,4.3-3.3c-0.5,0.7-1.6,1.5-3.3,2.4c-0.1-0.4,0.1-0.8,0.4-1.4c0.3-0.6,0.4-0.9,0.3-1.1
		C69.5,110.5,69,111.6,68.2,113.4z M71.6,107.2c-1.6-2.7-2.2-4.6-1.9-5.7c-0.1-0.1-0.2-0.2-0.3-0.2c-0.5,2.3,0.3,4.7,2.4,7.1
		c0.5-2.5,0.7-3.8,0.6-4C71.8,106.3,71.5,107.2,71.6,107.2z M69.5,125.3c2-0.3,3.7-1.2,5.2-2.5C74.1,122.9,72.4,123.8,69.5,125.3z
		 M71.6,112.7c-0.3,0.4-0.7,1-1,1.8c1.8-0.4,2.6-1,2.5-2c-0.5,0.6-1.1,1-1.8,1.3c0-0.2,0.1-0.4,0.2-0.7
		C71.7,112.9,71.7,112.7,71.6,112.7z M74.2,66.1c-0.8,1-1.3,2.2-1.7,3.8c-0.3,1.8-0.2,3.3,0.4,4.5c0.3-0.3,0.4-1.4,0.3-3.3
		c0-1.6,0.4-2.5,1.1-2.7c0.6-0.1,1.4,0.5,2.3,1.8c-0.2-0.3,0.5,1.1,2.1,4.1c0.5-1.6,0.1-3.2-1.2-4.7c-0.3-0.3-0.8-0.9-1.8-1.8
		C75.1,67.2,74.6,66.6,74.2,66.1z M72.8,128.2c0.7-0.4,1.8-0.8,3.1-1.4C75.3,127.4,74.2,127.9,72.8,128.2z M73.5,104.8
		c-0.5,2.9,1.1,4.9,4.7,6.1C75.2,108.2,73.7,106.2,73.5,104.8z M74.6,151.4c0.1-0.1,0.2-0.3,0.5-0.5c0.3-0.3,0.4-0.5,0.5-0.6
		c-1.2,0.3-1.8,0.3-1.8,0.2c0.1,0.1,0.3,0.2,0.4,0.5C74.4,151.2,74.5,151.3,74.6,151.4z M74.6,131.5c-0.6,0.1-0.7,0-0.3-0.2
		c0.1-0.1,0.5-0.2,1.2-0.5c0.7-0.2,1.3-0.5,1.8-0.8C77.1,130.7,76.3,131.1,74.6,131.5z M76,127.6c0.2,0.3-0.1,0.5-0.8,0.8
		c-0.7,0.3-1,0.4-1,0.2c0.2-0.1,0.5-0.2,0.9-0.5C75.5,127.8,75.8,127.6,76,127.6z M76.7,129.4c-0.3,0.5-1,0.7-2.1,0.9
		C75.1,129.9,75.8,129.6,76.7,129.4z M77.5,130.5c-0.1,0.7-1.1,1.1-2.9,1.4c0.3-0.1,0.7-0.4,1.5-0.7
		C76.7,130.9,77.1,130.7,77.5,130.5z M75.4,132.2c0.3-0.3,0.9-0.6,1.7-0.7c0.1,0.1,0,0.2-0.3,0.3c-0.1,0.1-0.1,0.1,0.2,0.1
		c0,0.2-0.1,0.3-0.4,0.4c-0.3,0.1-0.5,0.2-0.6,0.3C76,132.2,75.8,132,75.4,132.2z M76.5,65.4c-0.1,1.3,0.1,2,0.5,2.1
		c0-2.4,1-4.8,2.9-7.2c1,1,1.6,2.4,2,4.2c1.1-1.7,0.5-3.8-1.9-6.4C77.8,60.2,76.6,62.7,76.5,65.4z M81.3,52.6
		c-3.1,2.7-4.5,5.4-4.3,8.2c1.8-3.9,3.2-6.1,4-6.4c0.5,1.3,0.7,2,0.8,2.1c0.1-0.2,0.2-0.5,0.4-0.8c0.1-0.3,0.2-0.6,0.3-0.8
		C81.5,53.3,81.1,52.5,81.3,52.6z M78.6,88.7c-0.8-0.2-1.2-1.3-1.2-3.3C78.2,87.5,78.6,88.6,78.6,88.7z M78.3,89.5l1.1,2
		c-1-1-1.6-2.1-1.9-3.2c0-0.1,0-0.2,0-0.2S77.8,88.5,78.3,89.5z M80.2,94.4c-1.3-0.4-2.1-1.6-2.3-3.6C78.4,92.1,79.2,93.3,80.2,94.4
		z M80.2,130.7c0,1-0.6,2.1-1.7,3c0.2-0.1,0.4,0,0.7,0.1c0.3,0.1,0.5,0.1,0.7,0.1c1.8-6.6,2.8-12,3.2-16.2c-1.6,5.2-2.3,7.6-2.1,7.2
		c0.1-0.8,0.4-2.1,0.9-4c0.4-1.8,0.6-3.1,0.6-3.9c0.3-0.4-0.6,2.1-2.4,7.5c0.5-2.6,1-5.1,1.8-7.5c-0.7,0.4-1.1,1.3-1.5,2.7
		c-0.4,1.8-0.7,2.8-0.9,3.2c-0.1-0.8,0.1-1.7,0.4-2.8c0.3-1.2,0.5-2.1,0.5-2.4c0.1-0.1-0.2,1-0.9,3.4c-1,3.5-1.5,5.4-1.4,6
		c0.1,0.3,0.5,0.8,1.2,1.6C79.9,129.3,80.2,130,80.2,130.7z M78.6,116c-0.4,0.8-0.6,1.6-0.6,2.3c0.2-0.3,0.4-0.7,0.6-1.3
		S78.8,116.2,78.6,116z M81.1,97.2c-1.9-0.7-2.9-2-2.9-3.9C78.5,94.1,79.5,95.4,81.1,97.2z M78.6,107.2c0.1,0.3,0.1,1.1-0.1,2.3
		c-0.2,1.2-0.1,1.9,0.3,2.1c0.2-0.7,0.3-2.1,0.3-4.5H78.6z M79.7,97.5c0.3,0.3,0.8,0.8,1.6,1.4c0.8,0.7,1.5,1.2,1.9,1.6
		c-1.8-0.5-3.1-1.7-3.9-3.4C79.2,96.9,79.3,97,79.7,97.5z M81.6,89c-0.7-0.3-1.4-2-2.1-5.1l0.9,2.5C80.8,87.6,81.2,88.5,81.6,89z
		 M87.7,67.8c-1-2.5-1.9-3.9-2.7-4.4c-0.9-0.5-1.9-0.1-2.9,1.2c-0.8,1.1-1.5,2.3-1.9,3.5c-0.1,0.4-0.2,1-0.3,1.9
		c-0.1,0.8-0.2,1.4-0.3,1.9c0.2,0.1,0.3,0.3,0.4,0.7c0.1,0.5,0.2,0.7,0.3,0.9c0.8-5.5,2.1-8.2,4-8c1.1,0.1,1.9,1.1,2.2,2.8
		c0.1,0.5,0.3,1.2,0.5,2.3c0.1,1,0.3,1.8,0.4,2.2C88.4,71.4,88.5,69.8,87.7,67.8z M80.8,153.5c0.1-0.1,0.5-0.4,1-0.7
		c0.5-0.3,0.7-0.6,0.9-0.9c-1-0.5-2-0.7-3-0.6C79.9,152.2,80.3,152.9,80.8,153.5z M81.9,91.9c-0.7-0.2-1.3-1.2-1.9-3
		C80.8,90.1,81.4,91.1,81.9,91.9z M83.7,120.3c-1.2,7.2-2.1,11.7-2.9,13.7c0.6,0,1.4,0,2.3,0.1c1,0.1,1.7,0.1,2.2,0.1
		c0.1-0.7,0.5-3.1,1.3-7.2c0.5-2.9,0.7-5.3,0.5-7c0-0.2-0.4,2-1.3,6.4c0-1,0.1-2.3,0.3-4.1c0.3-1.7,0.4-2.9,0.3-3.6
		c-0.2,0.7-0.4,2.1-0.7,4.2c-0.3,1.9-0.6,3.3-1,4.1c0.6-2.6,0.9-5.5,1-8.8c-0.3,0.8-0.6,2.1-0.9,3.6c-0.3,2-0.6,3.2-0.7,3.6
		c0.3-3.6,0.6-5.9,0.9-7c0.2-0.3-0.3,1.9-1.6,6.7c0-0.6,0-1.4,0.1-2.5C83.7,121.6,83.8,120.9,83.7,120.3z M84.3,92.4
		c-0.8-1.1-1.8-3.1-2.9-5.9C82.5,88.4,83.5,90.4,84.3,92.4z M86.9,58.7c1.5-1.1,1.2-3.4-0.9-6.8c-2,2.8-2.9,4-2.6,3.5
		c-1.2,2-1.5,3.5-1,4.4c0.7-3.1,1.8-5.2,3.3-6.2C86.4,54.9,86.7,56.6,86.9,58.7z M85,113.3c-1,0.1-1.7-0.4-2.2-1.5
		c-0.6-1.1-0.4-2,0.7-2.5c-0.7,0.5-0.9,1.3-0.5,2.2C83.4,112.5,84.1,113,85,113.3z M87.4,50.4c-2.7,0.5-4.3,1.4-4.8,2.6
		C84.7,51.7,86.3,50.8,87.4,50.4z M84.5,90.7c-0.6-0.5-1-1.2-1.3-2.1C84,89.8,84.4,90.5,84.5,90.7z M85.4,89.5
		c-0.8-0.8-1.2-2.1-1.4-4c0-0.3,0-0.6,0.1-1c0-0.4,0-0.3,0.1,0.4c0.7,2.6,1.1,4.1,1.4,4.6C85.6,89.5,85.5,89.6,85.4,89.5
		C85.4,89.6,85.4,89.5,85.4,89.5z M85,99.6c0.1,0.1,0.3,0.2,0.5,0.4c0.1,0.3,0.3,0.4,0.4,0.5c-0.2,0.2-0.4,0.2-0.6-0.1
		C85.1,100.2,85,99.9,85,99.6z M86.5,102.6c-0.5-0.2-0.9-0.8-1.5-1.9C85.4,100.9,85.9,101.5,86.5,102.6z M87.2,91
		c-1.3-0.8-2-2.8-2.1-5.9C85.8,88.1,86.5,90.1,87.2,91z M85.3,102.3c0.1,0,0.4,0.2,0.8,0.7c0.4,0.5,0.7,0.7,1.1,0.8
		C86.5,104,85.9,103.5,85.3,102.3z M85.3,136.2c7.5,1,13.3,0.9,17.5-0.3C98.9,137.5,93,137.6,85.3,136.2z M85.8,82.7
		c-0.1,0.1,0,0.7,0.3,2c0.2,1.2,0.7,2.6,1.4,4.2c-0.5-0.5-0.9-1.3-1.4-2.5C85.6,84.9,85.5,83.7,85.8,82.7z M88.3,157.3
		c1.2-0.7,2.1-2.1,2.6-4.3c-1.4-0.5-3.1-0.6-5.1-0.2C86.1,154.6,86.9,156.1,88.3,157.3z M91.7,63.2c0.5-1,0.4-2.1-0.2-3.5
		c-0.5-1.2-1.1-2.2-2-2.9h-0.3c-0.2,0.4-0.6,0.9-1.2,1.6c-0.7,0.8-1.1,1.4-1.3,1.7c-1,1.4-1.2,2.6-0.7,3.8c0.8-2.5,2-4.4,3.4-5.5
		C89.6,58.4,90.4,60,91.7,63.2z M91.4,134.5c0.1,0.3,0.1-3,0.1-9.9c-0.3,0.2-0.4,0.8-0.3,1.8c0,0.9-0.2,1.5-0.5,1.7
		c-0.4-2.5-0.4-3.7-0.1-3.4c-0.1,2.5-0.3,4.1-0.6,4.6c0.3-2.3,0.3-3.8,0-4.7c-0.1,1.4-0.4,2.8-0.8,4.3c0.1-3.3,0.1-4.8,0.1-4.8
		c-0.1,1-0.4,2.8-0.9,5.4c0.1-0.9,0.2-2.3,0.4-4.1c0.2-1.7,0.3-3,0.4-4c-0.3,0.6-0.6,1.5-0.8,2.8c-0.2,1.6-0.4,2.7-0.5,3.1
		c0-1.2,0.2-3.1,0.5-5.7c-0.4,0.8-0.8,2.8-1.3,6c-0.5,3.3-0.7,5.5-0.8,6.6c0.6,0,1.4,0,2.5,0.1C90,134.4,90.8,134.5,91.4,134.5z
		 M88.3,88.9c-0.5-0.4-0.7-1.3-0.9-2.8C87.7,86.6,88,87.5,88.3,88.9z M94.5,51.1c-1.1-0.6-2.4-0.6-4,0c-1.5,0.7-2.3,1.5-2.4,2.4
		C90.5,51.6,92.6,50.8,94.5,51.1z M90.1,89.3c-1-0.6-1.6-2.5-1.8-5.5C89.6,87.8,90.2,89.6,90.1,89.3z M102.8,149.1
		c-8.1,0.8-12.9,1-14.3,0.8c1.8,0,4.2-0.1,7.2-0.3C99,149.3,101.4,149.1,102.8,149.1z M92.8,104.2c-0.8,0.6-1.6,0.6-2.4,0
		c-0.9-0.6-1-1.2-0.3-2c-0.1,0.5,0.1,0.7,0.4,0.7h0.5c0.3-0.3,0.3-0.7-0.1-1c-0.5-0.5-0.8-0.8-0.8-1c-0.9,0.4-1.4,0.9-1.5,1.7
		c-0.1,0.7,0.2,1.4,0.7,2c0.6,0.7,1.2,1,1.8,1C91.8,105.6,92.4,105.1,92.8,104.2z M93.1,64.6c1.3,1.1,1.9,3,1.7,5.7l-0.1,2.6
		c0.7-0.8,1-2.7,0.8-5.7c-0.1-1-0.4-2.1-0.7-3c-0.5-1.3-0.9-1.8-1.5-1.5c-2.8,1.6-4.2,4-4.3,7.2c0.3-0.3,0.9-1.3,1.9-2.8
		c0.7-1.2,1.1-1.9,1.1-1.9S92.3,65,93.1,64.6z M89.9,113.4c0.1,0.1,0.3,0,0.5-0.3c0.2-0.3,0.3-0.3,0.4-0.1c-0.2,0.1-0.4,0.3-0.5,0.6
		c-0.1,0.3-0.1,0.5,0.2,0.6c0-0.3,0.3-0.7,0.8-1.2c-0.7-0.3-1-0.5-0.9-0.5C90.2,112.6,90.1,112.9,89.9,113.4z M91.1,89.5
		c-0.4-0.1-0.7-0.7-0.8-1.7C90.7,88.1,90.9,88.7,91.1,89.5z M91.1,116.2c0.3-0.5,0.4-0.6,0.4-0.5l-0.3,1.4c0,0.2,0.2-0.2,0.6-1.1
		c-0.1-0.3-0.2-0.7-0.3-1.2c0-0.8,0-1.3-0.1-1.6c-0.3,0-0.5,0.2-0.7,0.6c-0.2,0.3-0.2,0.6-0.1,0.8c0.3-0.7,0.5-0.8,0.6-0.6
		c-0.5,0.5-0.6,0.9-0.3,1.2c-0.1-0.1,0-0.3,0.2-0.4c0.1-0.2,0.2-0.2,0.3,0C90.8,115.4,90.7,115.8,91.1,116.2z M95.8,52
		c-0.1,0.1-0.7,0.4-1.8,1.1c-0.8,0.5-1.5,1-2,1.4c-1.4,1.2-1.7,2.5-0.9,3.7c1.1-2.6,2.4-4.1,4-4.5c1.3,1.4,1.5,3.4,0.6,6.2
		C97.5,59,97.5,56.4,95.8,52z M91.7,91.1c0.1-0.1,0.5,0,1.1,0.4c0.5,0.4,0.9,0.8,1.1,1.2c-0.3,0-0.6-0.2-1-0.6
		C92.4,91.6,92,91.3,91.7,91.1z M93.9,121.4c-0.3,0.7-0.4,1.6-0.4,2.8c0,1.4-0.1,2.4-0.2,3c0-1.8-0.1-3.3-0.4-4.3
		c-0.7,1.9-0.9,5.8-0.7,11.7c2.5,0.2,4.4,0.3,5.7,0.3c-0.8-9.6-1.2-14.5-1.3-14.6c-0.1,0.5-0.2,2.7-0.3,6.4
		c-0.1-0.6-0.3-1.7-0.4-3.3c-0.1-1.5-0.2-2.6-0.4-3.2c0,0.3,0,1.4,0,3.2c0.1,1.5,0,2.6-0.1,3.3c0-0.8-0.1-1.9-0.2-3.1
		c-0.2-1.7-0.3-2.7-0.3-3c-0.4,0.6-0.6,1.7-0.5,3.3c0.1,1.9,0,3.1-0.1,3.6C94.4,127.1,94.2,125.1,93.9,121.4z M96,158.3
		c1.5-1.6,2.3-3.7,2.4-6.3c-2.5,0-4.4,0.2-5.7,0.7c0.3,0.7,0.8,1.7,1.6,2.8C95.2,156.6,95.8,157.5,96,158.3z M92.9,85.4
		c0.1,0.3,0.3,1.6,0.5,3.8C92.9,88.3,92.8,87.1,92.9,85.4z M93.6,91.4c1.1,0.4,1.7,1.4,1.7,3.1c-0.1-0.2-0.4-0.7-0.7-1.7
		C94.2,92.2,93.9,91.7,93.6,91.4z M93.7,110.2c0.7,1.1,1.3,1.7,1.8,1.8c-0.5,0.2-0.9,0.1-1.3-0.3C93.9,111.3,93.7,110.8,93.7,110.2z
		 M100.3,108c-0.3,0.1-0.7,0.6-1.3,1.3c-0.8,0.9-1.3,1.5-1.6,1.8c-1.4,1.3-2.5,1-3.5-1c0.9,1.4,2,1.6,3.3,0.5
		c0.3-0.3,0.8-0.8,1.6-1.7c0.7-0.7,1.1-1.1,1.5-1.3h1.4c0.3,0.1,0.2,0.2-0.3,0.3C100.7,108,100.3,108,100.3,108z M98.8,148.8
		c-0.3,0.2-1.8,0.3-4.3,0.3C95.9,148.6,97.3,148.5,98.8,148.8z M99.8,58.1c-2.5,1.2-4.1,3-4.9,5.4c2.3-2.3,3.7-3.5,4.1-3.7
		c0.3,0.5,0.3,2.5,0.2,5.9C100,64.2,100.2,61.7,99.8,58.1z M95,92.7c0.4,0.2,0.7,0.7,0.9,1.6c0.3,0.9,0.3,1.7,0.1,2.4
		C95.5,94.2,95.2,92.8,95,92.7z M96.8,109.6c-0.3,0.5-0.5,0.7-0.8,0.7c-0.2-0.1-0.3-0.4-0.4-0.8c-0.1-1.3,0.4-1.9,1.6-1.8
		c-0.1,0.3-0.3,0.4-0.7,0.5C96.4,109.4,96.5,109.9,96.8,109.6z M98.8,76.9c1.3-1,2.2-2.7,2.6-4.9c0.5-2.3,0.4-4.5-0.5-6.3
		c-0.3,0.2-0.7,0.5-1.5,0.8c-0.7,0.3-1.2,0.6-1.6,0.8c-1.1,0.7-1.7,1.5-1.9,2.6c2.5-1.8,4-2.8,4.5-2.9c0.5,1.6,0.4,3.4-0.2,5.5
		c-0.2,0.6-0.5,1.4-0.9,2.4C99.1,75.8,98.9,76.5,98.8,76.9z M96.3,94.3c0.1,0.3,0.2,1.3,0.3,3.2C96.5,97.4,96.4,96.3,96.3,94.3z
		 M96.9,98.9c-0.1-0.3-0.2-0.8-0.1-1.5c0.1-0.8,0.2-1.2,0.1-1.3C97.3,97,97.3,97.9,96.9,98.9z M97.4,98.3c0.2,0.1,0.2,0.6,0,1.5
		C97.5,99.8,97.5,99.3,97.4,98.3z M104,52.3c-1-0.6-2.3-0.6-3.9,0c-1.5,0.6-2.3,1.3-2.5,2.1c2.2-1.5,4.1-2.1,5.7-1.9
		c0,0.6-0.1,1.3-0.4,2.1c-0.3,0.8-0.4,1.3-0.4,1.6C103.5,55.5,104,54.2,104,52.3z M97.9,122.7c0.5,8.1,0.8,12.2,0.8,12.3
		c1.2-0.1,3-0.6,5.4-1.4c-0.3-1-0.7-2.4-1-4.3c-0.3-2-0.6-3.5-0.9-4.4c-0.1,0.3-0.1,0.6,0,1c0.1,0.4,0.1,0.7,0,0.8
		c-0.6-2.5-0.9-3.8-1-3.9c0.1,0.4,0.2,1.4,0.5,2.9c0.2,1.2,0.3,2.1,0.2,2.6c-0.2-0.6-0.5-1.9-0.8-3.8c-0.3-1.6-0.6-2.7-1-3.5
		c0,0.7,0.1,2,0.4,3.9c0.3,1.9,0.5,3.2,0.4,4c-1-5-1.7-7.7-1.9-8.1c0,0.8,0.1,2.1,0.4,3.8c0.2,1.5,0.2,2.7,0.1,3.5
		c-0.1-1.4-0.6-3.5-1.3-6.5c0.4,3.1,0.6,5.2,0.5,6.4c-0.1-0.5-0.3-1.4-0.4-2.7C98.3,124.1,98.1,123.2,97.9,122.7z M99,95.1
		c1,0.3,1.4,1.1,1.3,2.6c-0.2-0.2-0.4-0.7-0.6-1.4C99.5,95.8,99.3,95.4,99,95.1z M99.8,108.8c-0.1-0.3,0.3-0.6,1.2-0.7
		c0.8-0.1,1.4,0,1.8,0.3C100.9,108.6,99.9,108.7,99.8,108.8z M102.2,88.4c-1.6,0.9-2.3,1.3-2.1,1.1c0.2,0,0.6-0.1,1.2-0.4
		C101.8,88.8,102.1,88.5,102.2,88.4z M107.1,70.9c-1.4-0.1-2.6,0.2-3.8,1c-1.2,0.7-1.8,1.7-1.9,2.8c1.2-1.5,2.7-2.4,4.5-2.7
		c0.1,2.3-0.6,4.3-2.1,6.2c-0.5,0.6-1.1,1.3-2,2.1c-0.9,0.9-1.5,1.6-1.9,2C104.6,79.8,106.9,76.1,107.1,70.9z M104.9,55.7
		c-2.6,0.8-4.1,2.1-4.6,3.8c2.2-2,4.4-3,6.6-2.9c-0.1,0.9-0.6,2.1-1.3,3.4c-0.7,1.4-1.1,2.3-1.3,2.9c1.4-0.8,2.6-3.3,3.7-7.2
		C107.2,55.4,106.1,55.4,104.9,55.7z M104.8,154.8c0.1-0.4,0.3-0.9,0.4-1.7c0.1-0.8,0.2-1.3,0.3-1.6c-1.3-0.5-2.9-0.5-4.9,0.1
		C100.8,152.2,102.2,153.2,104.8,154.8z M100.8,50.3c0.5,0.1,0.7,0.3,0.8,0.6C101.1,50.8,100.8,50.6,100.8,50.3z M105.9,68.6
		c0.5-0.7,0.9-1.7,1.2-2.9c0.2-1.4,0-2.5-0.5-3.3c-2.9,2.3-4.5,3.8-4.7,4.7c0.3-0.1,0.9-0.6,2-1.6c0.8-0.6,1.5-1.1,2.1-1.4
		c0.3,0.6,0.4,1.4,0.2,2.4C105.9,67.8,105.8,68.5,105.9,68.6z M102.8,123.8c0.2,0.7,0.5,2.3,1,4.9c0.4,2,0.8,3.5,1.2,4.6
		c0.1-0.1,1.2-0.5,3.2-1.2c-0.3-1.7-0.9-4.2-2-7.4c-0.4-1.2-0.7-1.9-1-2c0.6,1.4,0.8,2.5,0.8,3.2c-0.1-0.3-0.3-0.9-0.5-1.7
		s-0.4-1.3-0.6-1.6c0,0.3,0.1,0.9,0.4,2c0.3,1,0.5,1.7,0.4,2.1c-0.9-2.3-1.4-3.6-1.6-3.7c0,0.6,0.2,1.4,0.5,2.5
		c0.3,1,0.5,1.8,0.5,2.2c-0.2-0.8-0.6-1.9-1.3-3.4c-0.3-0.6-0.4-0.7-0.3-0.5c0.1,0.5,0.3,1.3,0.6,2.6c0.3,1,0.4,1.9,0.3,2.4
		C103.4,125.7,102.9,124,102.8,123.8z M103,118.1c0.1,0.2,0.3,0.6,0.4,1.1c0.1,0.7,0.1,1,0.2,1.2c0.3-0.4,0.3-1,0-1.8
		c-0.3-0.8-0.4-1.4-0.3-1.6c0.3,2.1,0.5,3.1,0.6,2.9c0.5,0.1,0.5-0.6,0.2-2.1c-0.1-0.6-0.2-0.9-0.3-1.1c0.5,1,0.7,1.8,0.7,2.4
		c0,0.1-0.1-0.9-0.4-3c0.3,0.3,0.4,0.7,0.4,1.1c0.1-0.3,0.1-0.6,0-1.1c-0.3-0.6-0.4-0.9-0.4-1.1c0.1,0.1,0.5,1,1.1,2.7
		c0.3-1.2-0.2-2.6-1.3-4.3c0.3,0.1,0.8,0.9,1.4,2.6c0.3-0.5,0.3-1.1,0-1.8l-0.8-1.7c0.6,0.8,0.9,1.4,1,1.7c0.1-0.3,0.1-0.7-0.2-1.2
		c-0.3-0.7-0.4-1.1-0.4-1.3c0.3,0.5,0.5,0.8,0.4,1c-0.1,0.3-0.3-0.5-0.6-2.3c1.2,1.5,1.8,3.5,1.6,6.2c-0.2,2.7-1.2,4.3-3.1,4.8
		c0.1-0.3,0.2-0.5,0.2-0.5S103.1,120.1,103,118.1z M104.8,135.4c-0.5,0.3-1.1,0.5-1.9,0.5C103,135.8,103.6,135.6,104.8,135.4z
		 M104.1,88.4c0.7-0.1,2-0.4,4-1.1c0.2-0.4,0.7-0.9,1.4-1.7c0.8-0.8,1.3-1.5,1.6-1.9c-1.4-0.6-2.2-1-2.3-1c-1-0.3-1.7-0.2-2.1,0.5
		c0.3-0.1,0.5,0,0.4,0.1c0,0.1,0,0.2,0.1,0.2c0.3-0.1,1.3,0.1,2.8,0.7c-1.4,1.8-3.6,3-6.6,3.5l0.6,0.1
		C104.1,88,104.2,88.1,104.1,88.4z M104,83c3.1-0.5,5.4-2.3,6.8-5.6c-3.1-0.3-4.7-0.1-5,0.8c1.8-0.5,3.1-0.6,3.8-0.3
		C109.4,78.7,107.5,80.4,104,83z M104.1,96.4c0.5,1,1.7,1.6,3.4,1.8c0.6,0.1,1.4,0.1,2.4,0c1.3-0.1,2.1-0.1,2.3-0.1
		c-0.1-1.1-0.7-2.2-1.6-3.2c-0.9-1-1.9-1.7-2.9-1.9c1.3,0.7,2.4,2,3.4,3.9C108.4,97.4,106,97.3,104.1,96.4z M104.6,91.9
		c1.4,0.6,3.7,0.2,6.7-1.2c-1.8-1.9-3.2-2.6-4.3-2.1c0.3,0.3,0.7,0.6,1.4,0.9c0.8,0.4,1.4,0.7,1.6,0.8
		C109.3,91.2,107.5,91.7,104.6,91.9z M109.9,99.3c0.3,0.5,0.6,1.3,0.9,2.5c-0.3,0-0.9,0-1.7,0.1c-0.7,0-1.2,0-1.6-0.1
		c-1.3-0.2-1.9-0.3-1.9-0.4c0.3,0.7,1.1,1.2,2.4,1.4c1.2,0.1,2.4,0,3.4-0.3c-0.1-0.1-0.3-0.8-0.6-2.1
		C110.7,99.7,110.3,99.3,109.9,99.3z M109.9,71.2c1-0.8,1.5-2.5,1.5-5.1c-2.8,0.3-4.4,1.3-4.8,3c1.1-1,2.4-1.7,3.9-1.9
		c0.3,0.6,0.2,1.4-0.2,2.3C109.9,70.6,109.8,71.1,109.9,71.2z M106.6,122.7c1.8,6.5,2.6,9.5,2.5,9.1c0.1,0,0.3,0,0.5-0.1
		c0.2-0.1,0.4-0.1,0.6-0.1c-0.1-0.8,0.2-1.5,0.9-2.1c0.8-0.8,1.3-1.3,1.4-1.6c-0.7-0.4-1.3-1.6-1.9-3.5c-0.3-0.1-0.7-0.5-1.4-1
		c-0.6-0.5-1-0.8-1.2-0.9c0.7,1,0.9,1.9,0.9,2.6c-0.9-2-1.6-3.3-2.1-3.8c0.1,0.5,0.4,1.3,0.9,2.4c0.5,1,0.7,1.7,0.7,2.2
		C108.2,125.8,107.6,124.7,106.6,122.7z M106.8,107.6c0.8,1.1,1.9,1.4,3.4,0.9c-2.1-3.5-3-5.1-2.5-4.9c0.1,0.4,0.3,1,0.8,2
		c0.5,1,0.7,1.8,0.8,2.3C108.5,108,107.7,107.9,106.8,107.6z M109.4,76.6c2-1.2,2.8-3,2.6-5.4c0.1-0.1-0.9,0.3-2.9,1
		c-1.2,0.4-1.9,1-2.1,2c2.1-0.9,3.4-1.4,4-1.6C111,73.7,110.4,75,109.4,76.6z M107.5,121.3v-0.7c0-0.3-0.1-0.4-0.3-0.3
		c-0.1,0.5-0.1,0.8-0.1,0.8S107.3,121.2,107.5,121.3z M113.4,59.2c-3.6,0-5.6,0.6-6.2,1.7c1.6-0.6,3.3-0.9,5.1-0.9
		c-0.1,0.8-0.1,1.2-0.2,1.3C112.8,61.3,113.3,60.6,113.4,59.2z M109.7,153c0.7-1.6,1.1-2.4,1.1-2.4c-0.3,0.1-0.8,0.1-1.6,0.2
		c-0.7,0.1-1.1,0.2-1.4,0.4c0.3,0.1,0.6,0.4,1,0.9C109.1,152.4,109.4,152.8,109.7,153z M126.1,119.2c-0.1-0.4-0.4-0.8-1-1.4
		c-0.6-0.5-0.9-0.9-1-1.5c-2-0.2-3.7-1.3-5.4-3.2c-0.1,0.2,0,0.5,0.2,0.8c0.1,0.3,0.1,0.5-0.1,0.6c-5.1-3.1-7.8-4.9-8.1-5.4
		c-0.3,0.1-1.1,0.3-2.4,0.4c0.2,1,0.7,2.5,1.5,4.3c0.7,1.8,1.2,3.3,1.5,4.4c3.3-0.8,6.5-0.7,9.9,0.3c2.9,0.9,5.4,2.3,7.3,4.3
		c-0.1-0.8-0.2-1.4-0.2-1.7c-0.5-0.1-1-0.7-1.4-1.9C126.6,119.3,126.3,119.3,126.1,119.2z M111.5,57.5c-0.7-0.5-1.6-0.7-2.9-0.8
		C108.9,56.9,109.9,57.2,111.5,57.5z M109.2,66.1c1.8-1.6,2.9-3,3.4-4.3c-0.1,0-0.2,0-0.3-0.1c-0.1-0.1-0.2-0.1-0.3-0.1
		c-0.1,0.8-0.6,1.6-1.4,2.5C109.8,65.2,109.3,65.8,109.2,66.1z M109.9,106.2c0.1,0.7,0.7,1,1.8,1.2c0.2,0.1,0.7,0.1,1.4,0.1
		c0.5,0.1,0.9,0.1,1.3,0.2c-0.6-2.6-1.2-4-2-4.2c0,0.2,0.2,0.7,0.6,1.6c0.4,0.8,0.6,1.5,0.5,2.1c-0.7,0.1-1.4,0-2.1-0.4
		C110.5,106.4,110,106.2,109.9,106.2z M114.5,27.4c-2.5,3.5-3.7,5.1-3.6,4.7c-0.5,2,0.2,3.9,2,5.9c0.3,0.4,1.1,1.2,2.2,2.4
		c1,0.9,1.6,1.7,2,2.2c-0.4-0.3-1-0.8-2-1.5c-1-0.6-1.8-1.2-2.1-1.6c-1.7-1.4-2.6-3.1-2.7-5C109.9,32.1,111.4,29.7,114.5,27.4z
		 M113.7,80.6c0.1,0-0.6-0.4-1.9-1.3c-0.8-0.5-1.3-0.5-1.7,0.2c1,0,2,0.4,2.7,1.1c-0.6,0.8-1.5,1.4-2.6,2c0.3,0.2,0.7,0.3,1.2,0.3
		c0.5-0.1,0.7-0.2,0.6-0.3c-0.1,0.1-0.1,0.2-0.2,0.1c-0.1-0.1-0.1-0.1-0.2-0.2C112.1,82.2,112.8,81.6,113.7,80.6z M110.3,88.9
		c0.9,0.4,1.7,0.1,2.4-0.8c0.3-0.3,0.6-0.6,0.9-1.2c0.4-0.6,0.6-1,0.7-1.2c-0.2-0.1-0.5-0.2-0.9-0.5c-0.4-0.3-0.7-0.5-0.9-0.6
		c-0.7-0.4-1.2-0.4-1.7-0.1c0.2,0.1,0.2,0.2,0,0.3c-0.3,0.1-0.4,0.3-0.3,0.5c1.4-0.1,2.3,0.2,2.8,0.9
		C112.8,87.2,111.7,88.1,110.3,88.9z M113.7,109.1c0.6,1.2,0.8,1.9,0.8,2.1c-0.6-0.2-1.2-0.7-1.9-1.4c-0.8-0.7-1.4-1.2-1.8-1.4
		c0.7,1.5,2.2,2.6,4.7,3.3c-0.3-0.1-0.7-0.6-1-1.5C114.2,109.6,114,109.2,113.7,109.1z M111.5,94c1.5,0.5,2.6,0.1,3.2-1.1
		c-1.5-1.8-2.6-2.3-3.4-1.6c1.5,0.3,2.4,0.7,2.6,1.4c-0.3,0.3-0.7,0.5-1.2,0.7C112.2,93.6,111.7,93.8,111.5,94z M116.7,101.3
		c-1.2-3.4-2.7-5.4-4.7-6c-0.1-0.1,0.7,0.7,2.3,2.3c0.9,0.9,1.4,1.9,1.6,3c-1.8,0.2-3.1,0.2-4.1,0
		C112,101.6,113.6,101.8,116.7,101.3z M126.6,123.2c-0.5-0.2-1.6-0.4-3.4-0.6c-1.5-0.2-2.5-0.5-3-1c3,0.5,5,0.6,6,0.5
		c-4.1-3.3-8.6-4.3-13.5-3.2c-0.4-0.1-0.5-0.1-0.4,0c0.1,0.1,0.2,0.2,0.5,0.1c0.3,0.1,1.5,0.1,3.4,0.1c1.4,0.1,2.3,0.2,2.9,0.5
		c-2.3,0.1-3.7,0.2-4.2,0.5c1.4,0.2,2.1,0.4,2.3,0.5c0.3-0.1-0.4-0.1-1.9-0.2c-0.8-0.1-1.3,0.2-1.4,0.7c1.4,0.2,2,0.2,1.9,0.1
		c-0.1,0-0.4,0-0.7,0c-0.3,0-0.6,0-0.7,0c-0.5,0.1-0.8,0.3-0.8,0.6c0,0.1,0.3,0.1,0.9,0c0.6-0.1,0.9,0,1.1,0.2
		c-0.1,0.1-0.5,0.1-1.1,0.2c-0.5,0-0.7,0.1-0.9,0.3c0.1,0.2,0.4,0.3,0.9,0.3c0.7-0.1,1,0,1.1,0.1c-0.3,0.1-0.5,0.2-0.4,0.4
		c2.5,0.6,4.9,0.5,7-0.2c-1-0.1-1.7-0.2-2.1-0.5c0.3,0.1,1.3,0.2,3,0.5c1.2,0.1,2.2,0.2,3.1,0.2
		C126.4,123.1,126.5,123.1,126.6,123.2z M116.4,127.1c-0.7,0.2-2-0.2-4.1-1.1C114.2,126.7,115.6,127,116.4,127.1z M113.4,108.5
		c2.8,2.3,4.7,3.6,5.7,4c-0.9-1.4-1.4-2.1-1.6-2.1c0.1,0,0.2,0.1,0.3,0.4c0.1,0.2,0,0.3-0.1,0.4c-0.7-0.1-1.5-0.5-2.3-1.4
		C114.5,109,113.9,108.6,113.4,108.5z M115.9,87.9c0.1,0.1-0.3-0.1-1.2-0.6c-0.5-0.2-0.8,0-1,0.5c1,0.4,1.6,0.7,1.6,0.9
		c-0.1,0.3-0.4,0.7-0.9,1.2c-0.4,0.5-0.7,0.8-0.8,1.2C114.7,91.1,115.4,90.1,115.9,87.9z M113.7,127.3c0.2,0,0.6,0.1,1.3,0.2
		c0.7,0.2,1.3,0.3,1.7,0.3C115.9,128.1,114.9,127.9,113.7,127.3z M115.3,150c0-0.2,0.1-0.4,0.2-0.6c0.1-0.3,0.2-0.5,0.2-0.7
		c-0.8,0.1-1.5,0.3-1.9,0.7c0.1,0,0.4,0.1,0.7,0.3C114.7,149.9,114.9,150,115.3,150z M114,132.9c0.1-0.3,0.7-0.5,1.7-0.4
		C115.3,132.7,114.8,132.9,114,132.9z M114.9,102.4c0.1,0.4,0.4,0.8,0.9,1.4c0.5,0.5,0.7,1,0.9,1.4c-1-0.1-1.8-0.3-2.3-0.4
		c0.8,1,2,1.4,3.5,1.4C116.4,103.8,115.5,102.6,114.9,102.4z M114.9,107c0.8,2,2.2,3.1,4.3,3.1c-0.1-0.2-0.4-0.8-0.7-1.9
		c-0.3-0.8-0.6-1.2-1.1-1.4c0.5,1.8,0.7,2.6,0.7,2.4C116.1,108,115.1,107.2,114.9,107z M116.7,91.4c0.6,0.5,0.9,1,1,1.6
		c-0.3,0.2-0.7,0.3-1.4,0.2c-0.6,0-0.9,0.1-1.1,0.3c0.5,0.3,1.5,0.3,3,0.1C117.8,92.2,117.3,91.5,116.7,91.4z M115.4,63.8
		c0.3-0.5,1-1.2,2.1-2c1.4-1.1,2.3-1.8,2.5-2.1C119.4,60.6,117.8,62,115.4,63.8z M127.4,141.8c-2,1.8-6,3.2-12,4
		C123.3,143.2,127.3,141.9,127.4,141.8z M115.6,84.1c-0.1,2.6,0.9,4.5,2.9,5.6c0.4-1.9-0.2-3.5-1.7-5c0.6,1.2,0.8,2.1,0.8,2.6
		c-0.3-0.4-0.6-1-0.8-2c-0.3-1-0.6-1.7-0.8-2.1c-0.2,0.2-0.2,0.6,0,1.1c0.3,0.5,0.3,0.8,0.2,1C116.1,84.6,115.8,84.2,115.6,84.1z
		 M115.6,40.2c1.8,1,3.2,2.5,4.2,4.5C117.2,41.8,115.8,40.3,115.6,40.2z M116.4,94.8c1.1,1.5,1.7,2.3,1.7,2.4
		c-0.3,0.1-0.7,0.1-1.3,0c-0.6-0.1-1-0.1-1.2,0c0.3,0.5,1.5,0.8,3.4,0.8C118.4,95.9,117.5,94.8,116.4,94.8z M116.6,78.8
		c-0.2,1.6,0.2,3.3,1.3,5.1c0.3,0.5,0.7,1.3,1.4,2.2c0.7,0.9,1.1,1.6,1.4,2.1c0-3.8-0.7-6.4-2.1-7.8c0,1.4,0,2.1-0.1,2.1
		c-0.7-2-1.1-3.7-1.5-5.2c-0.2,0.5-0.2,1.2,0,2.1c0.3,1,0.4,1.6,0.4,1.9C116.9,79.7,116.6,78.9,116.6,78.8z M117.2,100.8
		c1.1,1.3,2.5,2.2,4.3,2.6c-0.7-2.3-1.7-3.9-3.2-4.6c1.2,1.5,1.9,2.7,1.9,3.5c-0.5-0.1-1-0.3-1.7-0.8
		C117.8,101.1,117.4,100.9,117.2,100.8z M124.6,141.2c-0.9,1-3.4,1.5-7.4,1.7c0.6-0.2,1.9-0.4,3.8-0.7
		C122.8,142,124,141.7,124.6,141.2z M117.5,133.9c-0.1-0.1,0.5-0.2,1.7-0.5c2.9-0.7,4.9-1.3,6.1-2
		C123.5,132.9,120.9,133.7,117.5,133.9z M118.5,81.4c-0.5-2.3-0.6-3.4-0.5-3.2C118.1,79.7,118.2,80.7,118.5,81.4z M119.7,104.4
		c0.6,0.5,0.9,1.1,1.1,1.7c-0.4,0-0.9-0.2-1.6-0.5c-0.6-0.3-1-0.5-1.2-0.5c1.2,1,2.4,1.7,3.8,1.9
		C121.5,105.5,120.8,104.6,119.7,104.4z M118.6,134.5c-0.3-0.1-0.3-0.1,0-0.2c0.4,0,0.7,0,1,0c3.5-0.7,5.8-1.6,7-2.7
		c0.1,0.1-0.2,0.4-0.8,0.8C123.5,133.9,121.1,134.6,118.6,134.5z M124.6,109.8c-0.7-0.2-1.7-0.8-2.9-2c-1.2-0.9-2.1-1.4-2.9-1.5
		c2,1.8,3,3.3,3,4.6c-0.4-0.1-0.8-0.3-1.3-0.7c-0.5-0.5-0.9-0.7-1.2-0.8c0.4,0.9,1.7,1.8,3.8,2.7c-0.1-0.7-0.6-1.5-1.4-2.5
		c-0.7-1-1.1-1.7-1.2-2.2c0.3,0.1,1,0.8,2.1,2c0.8,0.8,1.7,1.2,2.7,1.3c-0.2-2.1-0.9-3.3-2.1-3.7
		C124.3,107.9,124.8,108.8,124.6,109.8z M121.7,143.7c-0.4,0.1-0.9,0.2-1.5,0.3c-0.6,0.1-1.1,0.2-1.5,0.2c3.8-1.2,6.5-2.2,8.3-3.2
		c0.1,0.1-0.1,0.3-0.6,0.6c-0.5,0.3-1,0.4-1.5,0.5c-0.3,0.3-0.9,0.6-1.7,0.9C122.5,143.3,122,143.5,121.7,143.7z M119.4,42.5
		c1.1,0.8,1.7,2.3,1.7,4.4c-0.1-0.3-0.4-1.1-0.8-2.2C120,43.7,119.7,43,119.4,42.5z M120.4,111.5c0,0.2,0.1,0.4,0.4,0.7
		c0.2,0.2,0.3,0.4,0.2,0.7c-0.2,0-0.5-0.1-0.8-0.4c-0.3-0.2-0.5-0.3-0.6-0.2c0.7,0.8,1.3,1.2,1.9,1.2
		C121.6,112.4,121.2,111.8,120.4,111.5z M119.8,79.9c0.2,0.4,1.4,2.3,3.5,5.8c1-3.1,0.4-5.7-1.7-7.7c0,0.3,0.1,0.6,0.3,1.1
		c0.1,0.5,0.2,0.7,0.1,0.9c-0.7-1.2-0.9-1.8-0.9-1.8c0.1,0.4,0.3,1.1,0.6,2.1c0.3,0.9,0.4,1.6,0.5,2c-0.9-2-1.6-3.3-2.1-4
		c0.1,0.5,0.3,1.2,0.8,2.1c0.5,0.9,0.7,1.5,0.8,1.9c-1.1-1.2-1.5-1.8-1.3-1.9c0.2,0.9,0.4,1.3,0.5,1.3C120.4,80.6,120,80,119.8,79.9
		z M122.8,102.4c-0.7-1.6-1.7-3-2.9-4.3c0,0.3,0,0.5,0.1,0.6c0.5,0.4,0.9,1,1.5,1.9C122,101.4,122.5,102,122.8,102.4z M122,113.9
		c0.5,0.5,0.6,0.8,0.1,1c-0.2-0.1-0.6-0.3-1.2-0.7c-0.5-0.3-0.9-0.5-1.1-0.4c1.8,1.1,2.9,1.7,3.2,1.8
		C122.9,114.4,122.5,113.8,122,113.9z M124,137.7c-0.7,1.1-2,1.7-4,1.7c0.3-0.1,1-0.3,2.1-0.7C122.9,138.4,123.6,138,124,137.7z
		 M127.4,137.2c-1.6,1.8-3.9,2.9-7.1,3.2C124.3,139,126.7,137.9,127.4,137.2z M126,133.1c-1.6,1.3-3.4,2-5.4,2
		c0.5-0.2,1.4-0.5,2.7-0.9C124.5,133.8,125.4,133.5,126,133.1z M120.7,44.2c0.2,0.2,0.4,0.6,0.6,1.1c0.2,0.5,0.4,0.9,0.5,1.1
		c0,0.3,0,0.6,0.1,0.9c0.1,0.3,0.1,0.6,0.1,0.8c-0.1-0.3-0.3-1-0.6-2C121.2,45.2,120.9,44.6,120.7,44.2z M125.3,134.3
		c-0.7,1.2-2.2,2-4.6,2.1c0.3-0.1,1.1-0.4,2.4-0.9C124.1,135.2,124.9,134.8,125.3,134.3z M124,136.2c0,0.1-0.3,0.4-0.9,0.7
		c-0.7,0.3-1.3,0.5-1.9,0.4C121.1,137.4,122,137,124,136.2z M123.7,136.9c0.3-0.1,0.1,0.1-0.6,0.5c-0.7,0.4-1.2,0.6-1.6,0.6
		C121.5,138.1,122.2,137.8,123.7,136.9z M125.2,114.4c-0.1-1-0.7-2.1-1.7-3.2c0,0.3,0.2,0.7,0.5,1.4c0.3,0.5,0.4,0.9,0.2,1.3
		c-0.4-0.1-1.2-0.7-2.5-1.8C122.1,113,123.3,113.8,125.2,114.4z M127.2,83.8c0.3-2.1-0.1-4-1.2-5.6c-2-2.8-3-4-2.8-3.7
		c0.1,0.6,0.6,1.9,1.5,4c-0.3-0.1-0.5-0.4-0.8-0.9c-0.3-0.5-0.5-0.8-0.7-1c0.1,0.3,0.3,0.7,0.7,1.3c0.3,0.5,0.5,0.9,0.4,1.1
		c-0.3-0.6-0.7-1.2-1.2-1.8c-0.7-0.8-1.1-1.3-1.3-1.7C122.8,78.2,124.6,81,127.2,83.8z M127.9,94.1c-0.2-0.7-0.6-1.7-1.3-2.8
		c-0.7-1.2-1.1-2.1-1.3-2.6c0,0.7,0.2,1.8,0.6,3.3c0.3,1.6,0.5,2.8,0.5,3.4l-1.7-4.2c0,0.2,0.1,0.5,0.3,1c0.1,0.4,0.1,0.7,0,0.8
		c-1.3-3.6-2.1-5.5-2.2-5.8c0.1,0.4,0.4,1.3,1,2.7c0.5,1,0.7,1.9,0.7,2.6c-0.1-0.3-0.5-1.3-1.1-2.9c-0.4-1.2-0.8-2.2-1.3-2.8
		c0.1,0.5,0.4,1.4,0.9,2.7c0.5,1.2,0.7,2.1,0.7,2.6c-0.7-1.5-1.1-2.2-1.1-2.1c0.9,2.9,2.8,6.4,5.6,10.4c-0.2-0.8-0.3-1.9-0.2-3.3
		c0.1-1.4,0.1-2.1,0.1-2.1S128,94.7,127.9,94.1z M126.8,138.8c-1,1.2-2.6,2-4.7,2.3c0.4-0.3,1.2-0.7,2.4-1.2
		C125.5,139.6,126.3,139.2,126.8,138.8z M122.6,93.2c0.4,1,0.6,1.4,0.5,1.4C122.9,93.7,122.8,93.3,122.6,93.2z M123.2,114.4
		c0.2,0.1,0.3,0.3,0.4,0.7c0.1,0.4,0.2,0.6,0.4,0.7c0-0.2,0.1-0.4,0.2-0.6c0.1-0.3,0.1-0.5,0.1-0.7c-0.1,0.1-0.3,0-0.6-0.1
		C123.5,114.3,123.3,114.3,123.2,114.4z M131.4,82.2c0.3-1.5-0.3-4.3-1.8-8.5c-0.6-0.3-1.3-1-2.1-2c-0.8-1-1.4-1.7-1.8-1.9
		c0.8,0.8,1.2,1.7,1.1,2.4c-0.4-1-0.8-1.8-1.4-2.1c0.3,0.5,0.7,1.6,1.5,3.2c0.5,1.4,1,2.4,1.5,3.2c-0.3-0.2-0.7-0.6-1.2-1.4
		c-0.5-0.6-0.8-1-1-1.1c0.5,0.5,0.6,0.7,0.3,0.8c-1.5-1.9-2.1-2.8-2-2.8c0.8,1.2,1.2,2.1,1.2,2.6c-0.7-1.4-1.2-2.3-1.7-2.6
		c0,0.5,0.1,0.9,0.4,1.4c0.4,0.6,0.6,0.9,0.7,1.1c-0.1,0-0.3-0.2-0.6-0.7c-0.2-0.3-0.4-0.5-0.5-0.4
		C124.9,75.9,127.3,78.8,131.4,82.2z M127.2,69.4c0.7,1.3,3.6,3.9,8.8,7.7c-0.2-5.9-2.7-10.2-7.4-13c0.1,0.3,0.3,0.6,0.8,1
		c0.4,0.3,0.6,0.6,0.5,0.8c-1.2-0.5-1.7-0.8-1.6-1c0.7,1,1.1,1.5,1.1,1.4c-0.8-0.3-1.2-0.5-1.1-0.6c0.5,0.4,0.9,0.8,1.1,1.3
		c-0.3-0.3-0.3-0.2,0,0.3c1.2,1.8,2.1,3.3,2.9,4.6c-0.3-0.2-0.9-0.8-1.9-1.8c-0.7-0.8-1.3-1.3-1.9-1.5c0.5,0.5,1.2,1.4,2.3,2.7
		c-0.4-0.3-0.9-0.8-1.5-1.5c-0.7-0.8-1.2-1.3-1.5-1.6c-0.1,0.3,0,0.7,0.5,1.2c0.5,0.5,0.8,0.8,0.8,1c-0.3-0.1-0.6-0.5-1-1
		c-0.3-0.4-0.6-0.7-0.9-0.9c0.1,0.3,0.2,0.6,0.5,0.9c0.3,0.4,0.5,0.7,0.6,0.8c-0.2,0-0.4-0.2-0.7-0.6
		C127.6,69.3,127.4,69.2,127.2,69.4z M130.3,46.3c0,0.1,0.1,0.2,0.4,0.5c0.3,0.2,0.4,0.4,0.4,0.6c-2-1.9-3-2.8-2.9-2.7
		c5.8,6.1,8.9,9.3,9.4,9.7c1.4,1,3.5,2.1,6.2,3.2c3.4,1.4,5.6,2.3,6.7,2.9c-0.5-1.2-2-3.5-4.4-6.6c-1-1-2.4-2-4.4-3
		c-2.7-1.5-4.2-2.4-4.7-2.6c-1.8-1.2-3.8-3-5.9-5.3c-0.8-1-1.5-1.5-2-1.5c0.2,0.2,1,1,2.4,2.3c1,1,1.8,1.8,2.1,2.3
		c-2-1.6-2.9-2.3-2.7-2.2c3.5,3.8,7.2,7.1,11.1,9.8c-3.4-1.8-6.9-4.3-10.4-7.6c-1.7-1.6-2.8-2.5-3.2-2.6c1.7,1.6,3.2,3.1,4.5,4.5
		c-0.4-0.3-1.2-1.1-2.4-2.2c-1-1-1.9-1.6-2.4-2c0.9,0.9,2,2.1,3.3,3.5C130.7,46.4,130.3,46.1,130.3,46.3z M130.7,54.9
		c0.4,0,0.6,0.1,0.7,0.2c0.1,0.1-0.1,0.2-0.5,0.3c-0.1-0.3-0.5-0.7-1.3-1.4c2.3,4.6,7,8.1,14.2,10.4c-0.4-0.6-0.8-1.8-1.4-3.7
		c-0.5-1.7-1-2.9-1.7-3.5c0.1,0.1-0.9-0.5-3.1-1.8c-0.5-0.3-3-2.6-7.3-6.8c-0.3-0.3-0.6-0.5-1-0.8c0.3,0.2,0.7,0.5,1,0.8
		c0.5,0.6,0.8,1,0.8,1.4c-0.4-0.7-1.3-1.5-2.6-2.4c0.1,0.3,0.6,0.7,1.3,1.5c0.6,0.5,0.9,1,0.9,1.4c-0.3-0.6-0.9-1.2-1.9-1.8
		c4,5.2,7.2,8.7,9.6,10.5c-1-0.5-2.1-1.4-3.4-2.5c-1.8-1.5-2.9-2.3-3.1-2.5c1.4,1.8,2.1,2.6,2.1,2.4c-2.5-2.7-3.8-4.1-3.7-4
		c0.1,0.5,0.5,1.1,1,1.7c0.7,0.7,1,1.2,1.2,1.5c-0.1-0.1-0.4-0.4-0.9-0.9C131,54.5,130.8,54.5,130.7,54.9z M129.2,28.8
		c0.5-0.1,1.8,0.2,3.8,1.1c-0.3-0.1-0.9-0.2-1.8-0.5C130.4,29.1,129.7,28.9,129.2,28.8z M131.7,41c0.3,0.4,0.8,0.9,1.6,1.7
		c0.7,0.7,1.1,1.3,1.5,1.7c-0.6-0.6-1.5-1.4-2.6-2.3c-1.1-1-2-1.8-2.5-2.3c3.6,4.7,7.8,8.1,12.4,10.2c1.4,0.7,3.6,1.2,6.4,1.8
		c3.2,0.6,5.5,1.1,6.8,1.7c-3.7-5.1-7.9-7.8-12.6-8l0.5,0.2c0.2,0.1,0.2,0.2,0.1,0.3c-0.4-0.1-1-0.5-2-1c-0.7-0.5-1.3-0.8-1.8-0.8
		l0.6,0.3c0.3,0.1,0.3,0.3,0.2,0.4l-6.2-5c-0.2,0.1-0.4,0-0.6-0.1c-0.2-0.1-0.4-0.1-0.5,0c0.1,0.1,1.2,1,3.2,2.9
		c-0.1-0.1-0.4-0.3-0.8-0.7c-0.3-0.3-0.6-0.4-0.8-0.3c3.3,2.9,6.8,5.1,10.6,6.6c-5.1-1.5-9.3-3.8-12.6-6.9c-0.1-0.1-0.3-0.3-0.5-0.6
		c-0.3-0.3-0.4-0.5-0.5-0.6c-0.4-0.5-0.8-0.6-1.2-0.5c3.4,3,5.4,4.9,6.2,5.7c-2.3-2-3.4-2.9-3.4-2.9S132.8,41.9,131.7,41z
		 M129.5,124.3c0,0.1,0,0.3,0.1,0.5c0.1,0.1,0.2,0.3,0.2,0.5c-0.1,0,0.5,0.1,1.7,0.4c-0.1-0.1-0.1-0.3-0.1-0.7
		c-0.1-0.3-0.1-0.6-0.2-0.7H129.5z M130,62.1c0.6,0.7,0.9,1.2,1.1,1.4c-0.2-0.1-0.4-0.2-0.6-0.5c-0.2-0.2-0.4-0.3-0.5-0.4
		c1.8,3.6,5.4,6.4,10.8,8.4c-1.2-5.1-4.8-9.6-10.5-13.5c1.1,1.3,1.8,2.1,2,2.4c-0.2-0.1-0.6-0.5-1.1-1.2c-0.5-0.5-0.8-0.8-1.2-1
		c0.1,0.4,0.3,0.8,0.7,1.2c0.5,0.5,0.7,0.9,0.8,1.2c-0.7-0.4-1-0.7-1.2-1.1c0.6,0.8,1.6,2,2.9,3.7c1.4,1.6,2.3,2.8,2.9,3.4
		c-1.9-1.7-3.4-2.9-4.5-3.6c1,1.6,1.6,2.2,1.6,1.9c-0.2-0.1-1.2-1.2-2.9-3.1c0.1,0.5,0.4,1.1,0.9,1.7c0.6,0.7,0.9,1.2,1.1,1.5
		c-0.3-0.2-0.7-0.6-1.2-1.4C130.6,62.5,130.3,62.2,130,62.1z M131.7,126.5c-1,0.1-1.6,0.1-1.7,0v0.6c0.1,0.1,0.3,0.1,0.8,0.2
		c0.3,0.1,0.6,0.2,0.7,0.3c0-0.2,0-0.4,0.1-0.6C131.6,126.8,131.7,126.6,131.7,126.5z M132.7,42.8c-0.1,0.1-0.3,0-0.6-0.3
		c-0.3-0.3-0.4-0.5-0.5-0.8c0.2,0.1,0.4,0.2,0.5,0.5C132.3,42.5,132.5,42.7,132.7,42.8z M140,32.9c-0.1,0.2-0.3,0.2-0.6-0.1
		c-0.8-0.6-1-0.8-0.8-0.7c-0.7-0.4-1.6-0.9-2.9-1.6c-1.5-0.7-2.5-1.2-2.9-1.5c-0.2,0-0.3,0-0.3-0.1c0.1-0.1,0.2-0.1,0.3-0.1
		C135.5,30.1,137.9,31.4,140,32.9z M133.6,147.4c1.3-1.3,3.3-1.9,6.1-1.7c0.8,0.1,2,0.3,3.6,0.6c1.6,0.3,2.7,0.4,3.4,0.5
		c-2.2,0.4-4.6,0.2-7.2-0.6c-0.1-0.1-0.2-0.2-0.1-0.4c-0.5,0.2-1.2,0.4-2,0.5c-0.9,0.1-1.5,0.3-1.9,0.4c-1.3,0.4-2.1,1.2-2.5,2.3
		C132.8,148.6,133,148,133.6,147.4z M143.5,91.4c0.4-7.4-1.3-12.3-5-14.7c0-0.1,0-0.1-0.1-0.1l0.1,0.1c0.3,0.4,0.3,0.5,0.2,0.4
		c-0.1-0.1-0.3-0.2-0.4-0.4c-0.1-0.2-0.3-0.3-0.5-0.3c0-0.1,0.2,0.3,0.5,1c-0.1-0.1-0.3-0.2-0.5-0.4c-0.1-0.2-0.3-0.3-0.5-0.3
		c0.1,0.3,0.2,0.7,0.5,1c0.3,0.4,0.5,0.7,0.6,0.9c-0.1-0.1-0.3-0.2-0.5-0.4c-0.3-0.3-0.5-0.4-0.6-0.5c2.3,5.7,3.5,8.5,3.5,8.4
		c-0.5-1.8-1.5-3.4-3-5c0.5,0.6,0.7,0.9,0.5,1.1c-1.8-2.7-3.1-4.2-3.7-4.4c1.6,2,2.5,3.4,2.7,4.2c-1.8-2.6-3.1-4-3.7-4.2
		c0.7,0.7,1.6,1.9,2.8,3.7c-0.3-0.3-0.8-0.8-1.4-1.6c-0.6-0.8-1.1-1.3-1.5-1.7c1.6,4.6,2.4,6.8,2.4,6.8S138.5,87.2,143.5,91.4z
		 M135.5,120.3c1.4,0,2.1,0.5,2.1,1.4c-0.3-0.8-0.9-1.1-1.9-0.9c-0.3,0.1-0.5,0.2-0.6,0.5c-0.2,0.3-0.4,0.4-0.5,0.3
		c0-0.1,0.1-0.3,0.4-0.6C135.2,120.8,135.4,120.5,135.5,120.3z M134.9,125.3c0,0.5-0.1,0.7-0.2,0.9c0.2,0.1,0.4,0,0.6-0.1
		c0.2-0.1,0.4-0.1,0.5-0.1c0-0.6-0.1-0.9-0.3-0.9C135.5,125.2,135.3,125.3,134.9,125.3z M134.9,124.5c-0.1,0.3-0.1,0.4,0.2,0.5
		c0.3,0.1,0.5,0,0.6-0.2C135,124.6,134.7,124.5,134.9,124.5z M135.2,28.9c1.8,0.3,5,2.1,9.7,5.4C139.2,31,136,29.2,135.2,28.9z
		 M135.5,150.8c-0.1-0.7,0.4-1.2,1.3-1.6c0.8-0.3,1.8-0.4,2.9-0.3c0.1-0.1-0.5,0.1-1.8,0.6c0,0.1-0.3,0.6-0.8,1.4
		c-0.5,0.8-0.7,1.5-0.9,2.1c-0.2-0.3-0.1-0.8,0.4-1.7c0.3-0.7,0.3-1.1-0.1-1.2c-0.1-0.1-0.2,0-0.5,0.2
		C135.7,150.5,135.5,150.6,135.5,150.8z M136.2,131c0.1,0,0.2,0,0.3,0.1C136.3,131.1,136.2,131,136.2,131z M137.9,73.4
		c-0.5-1.1-1.1-1.9-1.7-2.3c0.1,1,1,2.5,2.7,4.6c1,1.3,4.9,4.9,11.5,10.8c-0.3-3.5-1.5-6.8-3.6-10c-0.7-1-1.6-2.3-2.8-3.9
		c-1.4-1.8-2.4-3.1-2.9-3.8c0.1,0.2,0.3,0.6,0.8,1.3c0.4,0.5,0.6,0.8,0.5,1.2c0,0.1-0.5-0.6-1.4-1.9c-0.1,0.1,0,0.4,0.4,0.9
		c0.3,0.4,0.5,0.7,0.4,0.8c-0.1,0-0.2-0.1-0.2-0.2c-0.1-0.2-0.2-0.3-0.3-0.2c-0.1,1.4,0,2,0.3,1.8c0.5,0.7,1.2,1.9,2.1,3.8
		c0.9,1.6,1.7,2.8,2.3,3.6c-0.8-0.6-1.9-1.7-3-3.4c-1.2-1.7-2.1-2.8-2.8-3.2c0.4,0.4,0.9,1,1.5,2c0.6,0.9,1.1,1.6,1.5,2
		c-0.7-0.5-1.4-1.4-2.3-2.7c-0.9-1.3-1.7-2.2-2.2-2.6c0.3,0.6,0.7,1.4,1.5,2.4c0.8,1,1.3,1.8,1.5,2.1c-0.2-0.3-0.6-0.7-1.1-1.3
		c-0.5-0.6-0.9-1.1-1.1-1.4c-1.2-1.6-1.9-2.4-2.1-2.4c2.2,3.2,3.2,4.5,2.8,4c-1.6-2-2.4-2.8-2.2-2.6c-0.1,0.1,0,0.3,0.2,0.5
		C138.1,73.2,138.1,73.3,137.9,73.4z M141.5,42.8c-0.3-0.1-1.8-0.9-4.3-2.4c1.2,2.2,3.8,3.6,7.8,4.3c1.3,0.3,3.1,0.5,5.4,0.6
		c3,0.1,4.8,0.2,5.4,0.3c-2-2.3-4.2-4.1-6.6-5.6c-0.3,0.1-0.3,0.2,0,0.5c0.4,0.3,0.5,0.4,0.3,0.5l-2-1.1l0.6,0.4
		c0.3,0.1,0.3,0.3,0.2,0.4c-1-0.6-1.5-0.8-1.6-0.8c0.2,0.1,0.7,0.5,1.4,1.1c-0.2,0-0.5-0.2-1-0.5c-0.3-0.3-0.6-0.4-0.9-0.3
		c1.3,0.7,1.9,1.4,1.9,2c-0.3,0-0.9-0.2-1.9-0.5c-0.8-0.2-1.5-0.3-1.9-0.2c0.1,0,1.6,0.7,4.5,2c-0.1,0-0.7-0.1-1.8-0.3
		c-0.8-0.1-1.1-0.1-0.9,0.1c-3.3-1.4-5.3-2.4-6-2.8c0.2,0.7,0.7,1.2,1.7,1.6c1.2,0.6,2,1,2.1,1.2c-0.7-0.2-1.6-0.6-2.8-1.3
		c-1.2-0.6-2-1-2.5-1.2c2.3,1.2,3.5,2,3.7,2.2c-1.3-0.7-2.1-1.1-2.3-1.1C141,42.5,141.5,42.8,141.5,42.8z M138.4,123.5
		c-0.2-0.2-0.5-0.3-0.8-0.2c0.1-0.2,0-0.4-0.1-0.7c-0.1-0.3-0.1-0.5,0-0.7C138.1,122.5,138.4,123,138.4,123.5z M140.7,121.7
		c1.2,0.4,1.6,1.1,1.4,2.1c0.5,0.3,0.8,1.5,0.9,3.8l0.3,0.5c0.3,0.1,0.9,0.3,1.7,0.7s1.4,0.7,1.8,0.9c0.1,0,0.3,0,0.6,0.1
		c0.3,0,0.5,0,0.6,0.1c0.5,0.1,0.6,0.4,0.4,0.9c-1.4-0.5-2.8-1-4.2-1.8c-0.2,0.3-0.1,0.9,0.4,1.7c0.5,0.7,0.6,1,0.4,1.2
		c0.3,0.2,0.9,0.4,1.9,0.7c0.8,0.3,1.5,0.7,1.9,1.2c0.6,0.1,1.4,0.8,2.4,2c0.1,0.1,0,0-0.4-0.3c-0.4-0.3-0.6-0.6-0.7-0.8
		c-0.6-0.3-1.5-0.6-2.7-0.9c3.5,2.7,5.2,4,5.1,3.8c0.2-0.3-0.1-0.6-0.8-1.1c0.3-0.1,0.7,0.1,1,0.5c0.4,0.5,0.7,0.8,0.9,0.9
		c-0.1,0.5-0.3,0.5-0.7,0.2c-0.1,0.1,0,0.3,0.3,0.5c0.2,0.1,0.2,0.2-0.1,0.2c0.1,0.1-1.2-0.9-3.7-3.2c0.1,0.3,0.6,0.8,1.5,1.4
		c0.8,0.7,1.3,1.1,1.5,1.5c-0.8-0.2-2.1-1-3.7-2.5c-1.6-1.4-2.8-2.2-3.8-2.2c0.2,0.6,0.6,1.1,1.2,1.7c-1-0.4-1.8-1.3-2.2-2.7
		c-0.6-0.1-1.1,0.1-1.7,0.6c-0.2,0-0.5-0.2-1-0.5c-0.3-0.2-0.7-0.3-1.1-0.3c0-0.1,0.1-0.1,0.4-0.2c0.1,0,0.2-0.1,0.1-0.4
		c1,0.7,1.5,1,1.4,1c1.2,0,1.7-1,1.4-3c-0.5-3.3-0.7-4.8-0.8-4.6c-0.1,0-0.2,0.1-0.3,0.3c0,0.2,0,0.3-0.1,0.4l-0.1-2.1
		c0-0.7-0.3-1.1-0.9-1.1c-0.3,0-0.6,0.3-0.9,0.8c-0.3,0.5-0.7,0.8-1,1c-0.1,0.3,0.1,0.5,0.4,0.6c0.3,0.1,0.5-0.1,0.4-0.5
		c0.1-0.1,0.1,0.1,0.2,0.6c0.1,0.5,0.2,0.7,0.3,0.8c0.1,0.2,0.2,0.2,0.4-0.1c0.2-0.3,0.3-0.3,0.4-0.2c-0.5,0.8-0.5,1.7-0.2,2.6
		c0.1,0.1,0.3,0.1,0.5-0.2c0.2-0.3,0.4-0.5,0.6-0.4c-0.2,0.2-0.5,1-1,2.5c-0.4,1.1-0.9,1.8-1.6,2.1c0.8-1.2,0.9-2.6,0.3-4.2
		c-0.8-2.3-1.3-3.7-1.3-4.1c0.5-0.1,0.9-0.4,1.3-0.9c0.5-0.7,0.8-1,0.8-1S140.6,121.8,140.7,121.7z M141.5,97.8
		c1.4-2.8,1.6-4.7,0.6-5.7c-0.2,0.7-0.3,1.1-0.2,1.1c0.1-0.8,0-1.4-0.3-1.6c0.2,1.7,0.2,2.7,0,3.1c-0.1-0.3-0.1-0.7-0.1-1.2
		c0-0.5,0-0.9,0-1.2c-0.2-0.8-0.3-0.9-0.3-0.2c0.1,1.3,0,2.1-0.1,2.3c-0.1-2-0.3-3.4-0.7-4c0.1,1.8,0.1,2.7,0.1,2.6
		c0.1-0.8,0-1.4-0.3-1.8c-0.2,0.5-0.3,0.8-0.2,0.8c0-0.8-0.1-1.3-0.4-1.7C140.5,94.9,141.1,97.3,141.5,97.8z M140,149.1
		c-0.1,0.1,0.9,0.2,3.2,0.5C143.2,149.5,142.1,149.4,140,149.1z M140.1,65.1c3.9,6.6,9.1,13.2,15.7,19.5l-2.1-8.2
		c-0.2-0.3-0.6-0.7-1.2-1.3c-0.7-0.6-1.2-1.1-1.4-1.3c-1.8-2.1-3.9-5.3-6.2-9.6c0-0.3,0.3,0.5,0.9,2.1c-0.7-0.1-0.9-0.2-0.8-0.3
		c-0.2,0.6-0.1,0.8,0.2,0.8c-0.8-1.1-1.5-1.6-2.1-1.6c3.5,3.1,5.9,6.8,7.2,11c-1.6-3.3-3.5-5.9-5.7-7.6c1.4,1.3,2.2,2.4,2.4,3.2
		c-1.4-2-2.4-3.1-3-3.4c0.5,0.6,0.9,1.1,1.1,1.6c-0.2-0.1-0.5-0.6-1-1.3c-0.4-0.6-0.7-0.9-1.1-0.9c0.8,0.7,1.1,1.2,1,1.6
		c-1.1-1.8-2-2.8-2.6-3.1c0.5,0.5,1,1.2,1.6,2.1c-0.3-0.3-0.8-0.9-1.6-1.8c-0.6-0.8-0.9-1.3-0.9-1.3S140.5,65.4,140.1,65.1z
		 M144.1,60.5c3.6,8.6,9.2,15.6,16.9,21c-0.5-4.9-3.8-12.3-10-22c0.3,2,0.5,2.8,0.6,2.4c-0.2,0-0.5-0.2-0.9-0.7
		c-0.3-0.3-0.5-0.5-0.8-0.4c0.9,0.6,1.3,1.2,1.1,1.8c-0.6-1-1.3-1.8-2.1-2.4c0,0.1,0.1,0.4,0.4,0.7c0.3,0.3,0.3,0.6,0.2,0.7
		c-0.7-0.9-1.1-1.4-1.5-1.6c4.7,6.4,7.4,10.9,8.1,13.5c-0.5-1.6-2.1-4-4.6-7.2c-2.5-3.1-3.8-4.6-3.9-4.7c2.2,3,3.8,5.3,4.7,6.8
		c-0.3-0.5-0.8-1.1-1.5-1.9c-0.7-1-1.2-1.6-1.5-2c-1.7-2.3-2.7-3.5-2.9-3.7c2.4,3.3,3.7,5.3,4,5.9c-1-1.4-2.6-3.5-5-6.4
		c0.3,0.7,0.9,1.7,1.8,2.8c0.9,1.2,1.5,2.1,1.7,2.5c-0.3-0.4-1-1.3-2.1-2.7c-0.8-1.1-1.5-2-2.1-2.6c0.2,0.5,0.6,1.3,1.3,2.2
		c0.6,1,1,1.7,1.2,2.1c-0.2-0.3-0.7-0.9-1.6-2.1C145,61.6,144.5,60.9,144.1,60.5z M144.8,103.4c2.5-3.6,3.7-9.4,3.7-17.2
		c-0.3,0.2-0.4,0.2-0.5-0.1c0-0.3,0-0.4-0.1-0.5c-0.3,1.1-0.3,1.6-0.2,1.5c0-1-0.2-1.7-0.5-2.1c0,0.3,0,1.1,0.1,2.2
		c0.1,1,0,1.7-0.2,2.2v-2.1c0-0.3,0-0.4-0.1-0.2c-0.1,0.2-0.2,0.4-0.1,0.5v1.3c-0.5,3.4-1,5.6-1.4,6.7c0.3-1.6,0.4-3.5,0.5-6
		c0-0.5-0.1-0.6-0.2-0.4v1c-0.1,0.1-0.1,0.4-0.1,0.9c0,0.5-0.1,0.7-0.2,0.8l-0.3-6c0,0.3,0,1.1,0,2.5c0,1-0.1,1.8-0.2,2.3
		c0.1-1.4,0.1-2.7-0.1-4.1c-0.1-0.6-0.2-0.7-0.2-0.2c0,1,0,1.7-0.1,2.1c-0.1-0.2-0.1-0.8-0.1-1.9c-0.1-0.8-0.2-1.3-0.4-1.6
		c0.1,0.5,0.2,1.1,0.2,2.1c0,0.9-0.1,0.9-0.4,0.1c0.1,9.9,0.2,14.8,0.2,14.8S144.5,102.6,144.8,103.4z M144.8,150.1
		c0.2,0,1,0,2.3,0.1c1.4,0.1,2.4,0,3.1-0.2C149.8,150.5,147.9,150.6,144.8,150.1z M145.8,135.1L145.8,135.1L145.8,135.1z
		 M146.7,136.1c-0.7-0.5-1-0.8-0.9-1c0.9,0.8,1.5,1.5,1.7,2.1c-0.1-0.1-0.2-0.3-0.5-0.5C146.8,136.5,146.7,136.3,146.7,136.1z
		 M146.9,147.6c0.4-0.1,0.6,0,0.6,0.1c-0.3-0.1-0.4,0.1-0.3,0.5C147.1,148.2,147.1,148,146.9,147.6c-0.2,0.3-0.5,0.4-1,0.3
		c0-0.1,0.2-0.2,0.5-0.2C146.7,147.7,146.9,147.7,146.9,147.6z M148.1,147.6c-0.1-0.2,0.1-0.4,0.4-0.6c0.4-0.2,0.6-0.5,0.6-0.8
		c-0.2-0.1-0.5,0-0.9,0.2c-0.4,0.3-0.8,0.4-1.2,0.4c1.1-0.8,1.8-1.5,2.1-2.1c-0.7-3.5-1-5.6-1.2-6.5c0.1,0.5,0.3,1.3,0.7,2.3
		c0.4,1.2,0.7,2.1,0.8,2.6C149.9,145.2,149.4,146.7,148.1,147.6z M149.3,108.5c0.9-1,2.2-4.8,3.8-11.3c1.7-6.7,1.9-11.3,0.6-13.9
		c0.3,0.9,0.3,1.5,0,1.7c-0.3-1.2-0.5-1.8-0.6-1.8c0.3,1,0.4,1.9,0.2,2.4c0-1.4-0.3-2.2-0.8-2.6c0,2.8,0,4.1,0.1,3.8
		c-0.1-1.8-0.3-2.8-0.6-3.2c1,5.1,0.7,9.9-0.8,14.4c0.3-1.8,0.1-4.3-0.4-7.4c0,1-0.1,1.7-0.4,2.1c-0.1-0.3,0-0.6,0.1-1
		c0.1-0.6,0.1-1,0.1-1.2c0-2-0.3-3.2-0.8-3.4c0.3,1.3,0.4,2.2,0.3,2.8c-0.2-0.3-0.3-0.7-0.3-1.5c-0.1-0.7-0.2-1.2-0.3-1.4
		C149,99.8,149,106.9,149.3,108.5z M151.2,131.6c-0.1,0.1-0.5-0.1-1.3-0.5c0.1-0.5,0.3-0.6,0.7-0.3C151,131,151.2,131.2,151.2,131.6
		z M156.1,52c0.8,0.8,1.4,1.7,2,2.6c-2.3-1.9-3.4-2.8-3-2.7c0.2,0.5,0.6,0.9,1.2,1.5c0.7,0.6,1.1,1,1.3,1.4
		c-0.8-0.3-1.1-0.5-1.1-0.6c0-0.1,0.2,0.1,0.5,0.5c0.1,0.2,0.1,0.4,0,0.6c-1.6-1-2.3-1.5-2.3-1.6c1.2,0.7,1.9,1.4,2.1,2.1
		c-2.1-1.4-3.2-2.1-3.1-2.1c1.3,1.2,2,2,2.1,2.1l-2.3-1.9c0.3,0.7,0.9,1.3,1.8,2.1c1,0.9,1.7,1.5,2,1.8c3.3,3.9,5.3,8.5,6.2,13.9
		c-0.6-2.9-1.8-5.7-3.5-8.5c-1.7-2.5-3.5-4.6-5.4-6.2c3.5,4.6,5.2,7.1,5.4,7.3c-1.1-2-2.4-3.7-4-5c1.3,1.8,2,2.8,2,2.8
		c-2.7-3.5-4.5-5.5-5.5-6.1c2.3,2.8,3.5,4.4,3.6,4.7c-0.3-0.5-1-1.3-2.1-2.5c-1.3-1.4-2.1-2.1-2.4-2.1c1.8,1.9,2.9,3.2,3.2,3.9
		c-1.8-2.1-3.1-3.5-3.8-3.9c0.1,0.5,0.5,1,1.2,1.8c0.7,0.7,1,1.1,1.1,1.5c-1.4-1.4-2.2-2.1-2.2-2.1c10.8,15,16.5,22.9,17.2,23.4
		c-1.6-13.8-2.4-20.7-2.4-20.7S162.1,57.1,156.1,52z M152.9,143.7c0.5,1.3,0.4,2.7-0.1,4.1c-0.6,1.4-1.4,2.2-2.3,2.2
		C152.2,148.9,153,146.7,152.9,143.7z M152,37.5c-0.3,0.1-0.5,0-0.7-0.2s-0.4-0.3-0.6-0.2c0.1-0.3,0.4-0.4,0.8-0.3
		C151.9,37,152,37.2,152,37.5z M152.1,114.4c1.4-2,3.2-6,5.3-12.1c3.1-9.2,4.3-15.8,3.6-19.5c0.1,0.1-0.2-0.3-1.1-1.1
		c0,0.1,0.1,0.4,0.3,0.8c0.1,0.3,0.1,0.6-0.1,0.8c-0.3-1.3-0.7-2.1-1.3-2.3c0.5,1.3,0.7,2.1,0.7,2.4c-0.8-1.8-1.3-2.7-1.5-2.7
		c0.1,0.2,0.3,0.7,0.6,1.6c0.3,0.7,0.3,1.1,0.2,1.5c-0.2-1-0.6-2-1.2-2.7c0.5,3.1,0.8,4.5,0.9,4.1c-0.1-1.4-0.5-2.6-1.2-3.6
		c1.1,3.1,1.5,6.7,1.1,10.8c-0.4,4.1-1.4,7.3-2.9,9.6c1-2.9,1.7-6,1.9-9.1c0-0.3,0-0.7-0.1-1.3c0-0.5,0-0.4-0.1,0.4
		c-0.1,0.2-0.2,0.7-0.3,1.4c-0.1,0.7-0.2,1.1-0.3,1.4c0-0.5,0.1-1.4,0.4-2.9c0.2-1.2,0.2-2.1,0-2.7c-0.1,0.3-0.1,0.9-0.2,1.9
		c-0.1,0.8-0.2,1.4-0.4,1.8c0,0.1,0.1-0.4,0.2-1.5c-0.1-1-0.1-1.2-0.2-0.4c-0.2,1.3-0.4,2.1-0.5,2.2c0.1-3.6,0.2-5.5,0.2-5.6
		c-0.2,2.4-1,6.8-2.4,13.3C152.5,106,151.9,110.6,152.1,114.4z M153.7,142.9c0,0.2-0.1,0.3-0.4,0.2c-0.3,0-0.4-0.1-0.5-0.2
		c0.1-0.3,0.1-0.7,0-1.1c0.1,0,0.2,0.2,0.3,0.6C153.3,142.8,153.5,143,153.7,142.9z M153.9,143.1c2.1,1.2,2.8,3.2,2,6
		c-0.2,0.1-0.3,0-0.3-0.3c-0.1-0.3-0.2-0.4-0.3-0.4c-0.5,0.5-0.9,1.5-1.1,2.8c-0.3,0-0.4-0.2-0.3-0.6c-0.3,0.5-0.4,1.1-0.3,2
		c0.1,1,0.2,1.6,0.1,1.8c-0.8-1.2-0.9-2.8-0.3-4.7c1.1-3.1,1.7-4.7,1.8-5C154.4,143.5,154,143,153.9,143.1z M153.1,138.2
		c0.2-0.3,0.5-0.2,0.8,0.1c0.6,0.5,0.9,0.8,1,0.8C154.2,138.8,153.6,138.5,153.1,138.2z M153.7,47.1c2.3,0.9,5.2,3.6,8.7,8.1
		C158.9,51.2,156,48.5,153.7,47.1z M157.3,139.8c1.3,0.5,2.1,1.7,2.3,3.6c0.2,2-0.3,3.5-1.6,4.6c0.7-2,1.2-3,1.5-3
		c-0.1-2.5-1.6-4.4-4.5-5.8c0.1,0,0.2,0,0.3,0.1c0.3-0.4,0-0.8-0.9-1.4C154.8,137.7,155.7,138.4,157.3,139.8
		C157.3,139.9,157.3,139.8,157.3,139.8z M155.3,47.6c3.3,1.6,6.1,4.6,8.6,9.2C161.8,53.3,158.9,50.3,155.3,47.6z M157.2,124.9
		c0.8-1.3,2.6-6.7,5.4-16.1c2.1-7.1,3.4-11.6,3.7-13.5c1-5.5,0.8-10.3-0.8-14.3c-0.1,0.1,0,0.3,0.1,0.6c0.1,0.2,0,0.4-0.1,0.5
		c-0.6-2.5-1.2-3.9-1.9-4c1.1,2.1,1.6,3.8,1.4,5.2c-0.4-2.4-1-4.3-2-5.7c1,2.9,1.4,5.3,1.4,7.3c-0.5-2.8-1-4.9-1.6-6.4
		c1.7,8.3,2.3,14.1,1.8,17.6c-0.3,1.2-1.4,4.6-3.3,10.1c1.4-6.2,2-10.1,1.9-11.4c0.1,0.8,0,1.4-0.3,1.8c0.4-3,0.5-4.9,0.2-5.7
		c0,1.2-0.1,2.1-0.3,2.6c-0.1-0.3,0-0.9,0.1-1.8c0.1-0.6,0-1.1-0.1-1.5c0,1-0.1,1.7-0.3,2.1c0.1-4.1-0.1-6.4-0.4-7
		c0.3,3.8-0.7,9-3,15.5c-2.1,6.4-3,11.5-2.6,15.3c0.1,0.4,0.2,1.8,0.3,4.3C156.8,122.3,157,123.8,157.2,124.9z M156.7,89.5
		c-0.2-1.8-0.2-2.6-0.1-2.6C156.8,88.6,156.8,89.5,156.7,89.5z M157,150c0.1,0,0.2,0.3,0.4,0.8l-0.7,0.4
		C156.9,151.4,157,151,157,150z M157.3,139.8L157.3,139.8C157.2,139.7,157.2,139.7,157.3,139.8z M157.3,151.1c0.1,0.1,0.3,0.5,0.4,1
		c0.1,0.5,0.2,0.8,0.3,1C157.4,152,157.2,151.4,157.3,151.1z M175.1,96.5c0.1-2.5-0.9-7.9-3.2-16.2c-0.7-2.7-1.2-4.1-1.4-4.3
		c0.4,1.8,0.6,2.6,0.6,2.5c-0.6-1.8-1-2.9-1.4-3.2c0.8,3.6,1.2,5.3,1.3,5.3v-0.3c-1.2-3.2-1.9-4.9-2.1-5.1c0.1,0.3,0.4,1.4,1,3.5
		c0.5,1.6,0.7,2.8,0.6,3.8c-0.5-3.1-1.2-5.4-2.1-7c2,6.1,2.7,13.6,2.2,22.6c0,1.1-1.8,8.6-5.4,22.6c0.2-1.2,0.9-4.3,2.1-9.2
		c0.8-3.6,1.2-6.7,1.1-9.2c-0.1,1.2-0.2,2-0.5,2.4c0.8-6.4,1.1-10.5,1-12.3c-0.3,4.8-0.7,7.6-1,8.6c0-0.4,0.1-1.4,0.4-3
		c0.1-1.2,0.1-2.2-0.1-2.9c0,1.4-0.1,2.6-0.4,3.5c0-0.4,0.1-1.4,0.2-3c0.2-1.2,0.2-2.2,0.1-2.8c-0.5,2.7-0.6,3.8-0.5,3.5
		c0.5-6.1,0.4-10.3-0.5-12.7c1,5.8,0,14.2-3.2,25.2c-1.8,6.4-2.8,11.7-3,15.8c-0.1,2,0.7,6.9,2.6,14.6c0.3-3.8,2.3-10.7,6.2-20.7
		C173.1,109.9,174.9,102.6,175.1,96.5z"/>
</g>
</svg>
