<?xml version="1.0" encoding="utf-8"?>
<!-- Generator: Adobe Illustrator 21.1.0, SVG Export Plug-In . SVG Version: 6.00 Build 0)  -->
<svg version="1.1" id="Layer_1" xmlns="http://www.w3.org/2000/svg" xmlns:xlink="http://www.w3.org/1999/xlink" x="0px" y="0px"
	 viewBox="0 0 300 300" style="enable-background:new 0 0 300 300;" xml:space="preserve">
<g>
	<path d="M255.3,92.2c0,5.2-1.9,10.3-5.7,15.2c-3.8,4.9-8.3,7.3-13.5,7.3c-3.6,0-7.1-1.4-10.5-4.2l-6.9,19.2
		c-2.4-6.2-5.1-12.7-8.1-19.5c-0.4,0.4-2.1,1.4-5.1,3c-3,1.6-4.8,2.4-5.4,2.4c-2.4,0-5-1-7.6-3c-2.7-2-4.1-4.1-4.1-6.3v-4.8
		c2.6,0.8,5,1.2,7.2,1.2c6,0,9-3.8,9-11.4c0-9.2-3.6-13.8-10.8-13.8c-7.8,0-11.7,5.3-11.7,15.9v55.8c0.8,2,1.3,3,1.5,3
		c0.8,1,2.7,1.5,5.7,1.5c6.8,0,10.2-3,10.2-9c0-3.2-2.2-6.3-6.6-9.3c4.4-2.8,7.8-4.2,10.2-4.2c8,0,12,4.6,12,13.8
		c0,0.2-0.2,2.5-0.6,6.9c-0.4,0.4,5.7,3,18.3,7.8c-4.4,2.2-10.8,5.3-19.2,9.3c1.8,2.8,2.7,5.3,2.7,7.5c0,4.2-1.4,7.8-4.2,10.8
		c-2.8,3-6.3,4.5-10.5,4.5c-2.8,0-5.5-1.6-8.1-4.8c4.8-2.8,7.2-6.1,7.2-9.9c0-6.4-3.8-9.6-11.4-9.6c-1.4,0-2.8,1-4.3,3
		c-1.5,2-2.2,3.8-2.2,5.4v47.4h6c9,0,17.2-2.5,24.6-7.5c8.4-5.8,12.6-12.8,12.6-21c0-1.2-0.7-3.3-2.1-6.4c-1.4-3.1-2.6-5-3.6-5.9v-3
		c2.8,0.6,5.1,2.5,6.9,5.9c1.8,3.3,2.7,6.7,2.7,10c0,9.2-4,16.9-12.2,23.1c-8.1,6.2-16.9,9.3-26.2,9.3c-4.4,0-7.3,0.1-8.7,0.3V244
		c0,4,1.5,7.3,4.5,9.9c3,2.6,6.6,3.9,10.8,3.9c5,0,8.8-2.2,11.4-6.6c0.8,1,1.2,2.2,1.2,3.6c0,3.2-2,6.1-6,8.6
		c-4,2.5-7.7,3.8-11.1,3.8c-8.2,0-14.9-3.3-20.1-9.9c-3,2.2-6,7.1-9,14.7c-2.6-10-5.6-15.1-9-15.3c-11.6,10.2-22.8,15.3-33.6,15.3
		c-11,0-20.5-2.8-28.5-8.4c-8.8-6.4-13.2-14.9-13.2-25.5c0-14.2,6.9-23.2,20.7-27c-11.8-3.4-17.7-9.3-17.7-17.7
		c0-1.4,0.5-4.1,1.5-8.1c-9.6-5.8-17.2-15.2-22.8-28.2c-5-11.6-7.5-23.6-7.5-36c0-28.6,11.1-51.1,33.3-67.3
		c19.8-14.6,44.5-21.9,74.1-21.9c22,0,42,4.5,60,13.5C244.1,56.3,255.3,72,255.3,92.2z M251.1,91.3c0-6.2-1.7-11.7-5.1-16.5
		c-16-23-41.8-34.5-77.4-34.5c-30.4,0-55,5.4-73.8,16.2c-23.6,13.6-35.4,34.7-35.4,63.3c0,22.8,6.3,41.1,18.9,54.9v-2.4
		c0-7.8,3.2-15.2,9.5-22.2c6.3-7,13.2-10.5,20.8-10.5c1.6,0,2.8,0.1,3.6,0.3c-0.2-3.8-0.3-12.2-0.3-25.2c0-2.6-0.1-4.9-0.3-6.9v-7.2
		c0-12.4,5.4-18.6,16.2-18.6c3.2,0,6.3,1.3,9.5,3.9c3.1,2.6,4.6,5.4,4.6,8.4v76.2c6,2.4,9,5.9,9,10.5c0,8.4-3,12.6-9,12.6v21.3
		c2.4,1.2,6.2,2.4,11.4,3.6c-0.2-20.2-0.2-60.8,0-121.8c0-6.8-2.9-12.5-8.7-17.1c-5.8-4.6-12.2-6.9-19.2-6.9
		c-7.6,0-14.2,2.3-19.9,6.9c-5.7,4.6-8.6,10.5-8.6,17.7c0,4.4,2.6,9.8,7.8,16.2c-1,1.6-2,2.5-3,2.7C95.9,111,93,104.9,93,97.9
		c0-10.2,3.5-18.6,10.6-25.2c7.1-6.6,15.8-9.9,26-9.9c9.6,0,18.7,4.1,27.3,12.3c2.4-3.2,5.3-10.4,8.7-21.6l2.7,8.1
		c1.8,5.2,4.2,9.7,7.2,13.5c4.2-7,12.4-10.5,24.6-10.5c6.2,0,12.8,2.6,19.7,7.8c6.9,5.2,11,10.8,12.5,16.8
		c2.2,8.6,6.1,12.9,11.7,12.9C248.7,102.1,251.1,98.5,251.1,91.3z M112.8,169.3v-4.8h-8.4c-4.2,0-8.8,1.2-13.9,3.5
		c-5.1,2.3-8.6,5-10.4,8c1.2,1.2,3.3,2.8,6.3,4.8C91,173.1,99.8,169.3,112.8,169.3z M153,222.7c-2.8-1-6.5-2.2-11.1-3.6
		c-0.4,9-2,16.8-4.8,23.4c-3.8,9-9.5,13.5-17.1,13.5c-8,0-13.4-1.8-16.2-5.4c6-2.8,9-6.8,9-12v-23.7c-2.8-0.4-4.4-0.6-4.8-0.6
		c-6.6,0-12.3,2.2-17,6.8c-4.7,4.5-7,10-7,16.4c0,8,4,14.7,12,20.1c7.2,4.6,15,6.9,23.4,6.9c9.6,0,17.6-3.6,24.2-10.8
		c6.5-7.2,9.7-15.6,9.7-25.2C153.3,225.4,153.2,223.5,153,222.7z M112.8,192.4c-10.8-0.2-18.8-1.9-24-5.1c-0.8,2.6-1.3,3.9-1.5,3.9
		c0,6.4,4.9,11.8,14.7,16.2v1.8l-0.6,0.9h11.4V192.4z M113.1,178.6c0-1.8-0.1-3-0.3-3.6l-0.6-1.5c-4.2,0-8.6,0.9-13.2,2.7
		c-4.6,1.8-7.7,4-9.3,6.6c9,3.6,14.9,5.4,17.7,5.4h5.4c0-1.2,0.1-2.2,0.3-3V178.6z M141.9,174.7v15.9c3.2-0.2,4.8-2.5,4.8-6.9
		C146.7,178.5,145.1,175.5,141.9,174.7z"/>
</g>
</svg>
