<?xml version="1.0" encoding="utf-8"?>
<!-- Generator: Adobe Illustrator 21.1.0, SVG Export Plug-In . SVG Version: 6.00 Build 0)  -->
<svg version="1.1" id="Layer_1" xmlns="http://www.w3.org/2000/svg" xmlns:xlink="http://www.w3.org/1999/xlink" x="0px" y="0px"
	 viewBox="0 0 825 825" style="enable-background:new 0 0 825 825;" xml:space="preserve">
<style type="text/css">
	.st0{fill:#FFFFFF;}
</style>
<path d="M234.3,108.2c16-5.6,33.8-3.8,49.6,1.9c14.9,6.1,24.3,20.6,30.2,34.9c3.3,7.8,5.6,16.1,7.7,24.3
	c6.4,5.3,12.9,10.4,19.5,15.5c30.1-0.1,58.8,11.2,88.7,13.1c5.4,0.2,10.9,0.6,16-1c4.9-1.4,9.8-3.6,15-3c6.6,0.9,12.1,5.1,18.7,6
	c2.4-14.5,8.8-28.5,19.4-38.9c11.3-11.1,25.8-18.5,40.8-23.5c13.1-4.3,27.2-6.3,40.8-3.4c18.3,4,34.4,16.6,43.1,33.2
	c9.8,18.6,12.8,39.9,14.3,60.6c9.9,4.6,21.5,4.3,30.9,10.3c0.3,4.6,0.1,9.2,0.2,13.8c-5.2,3.5-11.7,3.7-17.7,2.7
	c-6-0.6-12.1-1.4-18.2-1.5c-7.5,17.7-16.9,34.9-30.6,48.6c-11,11-25.6,18.9-41.2,20c-14.7,1-29.8-1.5-42.8-8.5
	c-18.2-9.8-31.4-27.5-38.1-46.9c-3.9-10.5-5.4-21.6-6.9-32.7c-9.9,23-10.9,48.7-20,72c-3.9,9.6-9.5,18.5-12.6,28.5
	c-2.4,13.5-4.1,27.1-6.4,40.5c-2.4,11.9-11.9,21.1-13,33.4c-0.7,5,0.2,10.1,1,15.1c4,19.3,12.8,37.1,21.7,54.5
	c8.1,15.5,20,28.8,27.3,44.7c5.5,12.3,8.2,26.5,4.5,39.6c-6,15.3-21.4,23.6-30.1,37c-3.6,5.3-1.7,12.1,0.6,17.5
	c3.8,9.3,11.2,16.3,15.8,25.1c4.6,8.9,9,17.9,12.8,27.2c1.7,4.5,3.9,9.2,2.7,14.1c-1.9,9.5-8.8,16.9-15.9,23
	c-8.1,7-18.4,11.1-29,12.1c-5,0.3-10.5-1.3-13.4-5.5c-3.4-4.7-3.6-11.1-1.4-16.3c3.1-7.6,7.6-14.6,10.9-22.1
	c-15.5-24.6-35.5-45.9-53.6-68.5c-7.2-8.4-13-18.7-23.4-23.6c-3.7-2-8-2.3-12.2-2c6.6,10.9,16.7,19.6,21.9,31.3
	c2.7,6.1,3.8,12.9,3.4,19.5c-4,3.7-8.7,6.6-13.7,8.6c-12.8,5.2-26.7,6.6-40.4,7.5c-10.5,0.2-21.2-0.1-31.1-3.9
	c-5.6-2.2-10.8-5.8-13.8-11.1c1.9-2.7,4.2-5.2,7-6.9c8.4-5.4,18.7-5.6,27.8-9.4c-2.3-6.9-7-12.6-11.6-18.1
	c-9.1-10.5-19.4-20-29.6-29.4c-9.4-9.6-18.2-20.7-20.6-34.2c-1.6-9.7,0.2-21.2,8.6-27.3c10.3-7.6,23.5-8.9,35.8-10.5
	c11.1-1.1,22.3-1.7,33.5-2.8c-6.3-21.7-8.9-44.2-15.6-65.7c-4.1-9-9.6-17.2-14-26c-2.8-5.8-4.1-12.3-3.4-18.6
	c-7.5-7.3-13.6-17.2-13.2-28c-0.5-7.8,4.3-14.5,9.5-19.7c5.9-5.5,12.3-10.7,16.1-18c2.2-3.9,1.8-8.6,1.1-12.9
	c-1.9-9.9-6-19.3-7.4-29.3c0.2-10.7,1.6-21.4,0.2-32c-11.9,2.4-23.9,5.1-36.1,5.6c-17.8,1.9-36.1-5.5-47.7-19.1
	c-12-14.1-17.3-33.2-16.7-51.5c0.6-13.1,3.6-26.2,9.3-38C206.2,125.4,218.8,113.5,234.3,108.2z"/>
<path class="st0" d="M334,197.1c1.5-0.8,2.9-2.4,4.8-1.7c20.3,3.3,40.5,6.6,60.7,10.3c13.9,2.6,27.9,5,41.6,9.1
	c4.2,10.6,1.8,22.4-1.5,32.9c-2.5,8-6.1,15.7-9.6,23.3c-6.4,14.9-10,30.8-16.3,45.7c-3.5,6.9-9.1,12.3-13.6,18.4
	c-6.6,8.8-11.5,18.9-19.5,26.5c-2.6,2.4-6,4.3-9.6,4.3c-6.4,0.3-11.9-3.9-16.5-7.9c2.4-7.7-0.9-15.7-6.1-21.4
	c-6.1-6.6-12.6-13-17.3-20.7c-3.8-5.9-2.4-13.3-2.1-19.9c1.3-12.7-2.5-25.2-5.8-37.3c-3.7-13.5-9.3-26.7-10.7-40.8
	c-0.5-4.4,0.8-9.3,4.2-12.3C321.6,201.3,328.5,200.6,334,197.1z"/>
</svg>
