<?xml version="1.0" encoding="utf-8"?>
<!-- Generator: Adobe Illustrator 21.1.0, SVG Export Plug-In . SVG Version: 6.00 Build 0)  -->
<svg version="1.1" id="Layer_1" xmlns="http://www.w3.org/2000/svg" xmlns:xlink="http://www.w3.org/1999/xlink" x="0px" y="0px"
	 viewBox="0 0 825 825" style="enable-background:new 0 0 825 825;" xml:space="preserve">
<path d="M457.7,110.7c12-4.5,26-4,37.3,2.3c7.1,4.1,13.6,9,20.1,13.8c5.9,4.4,12.5,7.5,18.9,10.9c5.8,3.1,12.2,5.5,17.1,10
	c6.9,6.4,11,15,14.7,23.4c2.2,5,4.3,10.1,5.2,15.5c-5.5,4.3-10,9.6-15,14.3c-8.1,8-12.4,18.8-19.3,27.7c-7,9.3-18.2,14.1-29.1,17.1
	c-7.4,1.9-15,2.7-22.6,2.8c1.3,15.5-4.9,30.4-13.1,43.2c-5.8,8.6-11.8,17.1-16.8,26.2c-2.4,4.5-5,9.1-5.5,14.2
	c-1.9,13.7-2.4,27.7,0.1,41.3c0.5,4.3,4.9,6.4,7,9.8c6,8.7,4.4,20.2,9.7,29.2c8.6,15.2,21.6,27,32.7,40.3
	c4.9,5.9,10.3,11.6,13.2,18.8c6.5,15.3,11.6,31.1,17.2,46.8c3.7,8.3,8.6,16.1,13,24c3.7,6.7,8.1,13,10.8,20.2
	c7.8,19.5,9.7,40.6,13.1,61.1c2,12.5,3.9,25.1,6.4,37.6c1.8,9.3,7.8,17.2,9.6,26.5c0.6,2,0.4,4.3,1.8,6c7.2,8.3,9.9,19.4,11,30.1
	c0.6,7.4,0.2,15-2,22.1c-4,1.7-8.5,2.8-12.8,1.6c-8.5-2-14.7-9.2-18.2-16.9c-3.4-7.4-2.3-15.8-4.5-23.5c-2.2-7.3-6.7-13.7-11.3-19.7
	c-2.1-3-4.5-6-5.3-9.7c0.5-5.7,4-10.5,4.9-16c1.1-12.8-4.6-24.8-9.8-36.1c-4.2-8.2-8.3-16.7-14.2-23.8c-3.9-5.2-9-9.5-11.7-15.4
	c-3-8.3-2.1-17.6-6.4-25.5c-5.7-10.5-14.7-18.7-23.8-26.2c-12.5-10.5-28.3-16.1-41.6-25.4c-10-9.4-14.1-24.3-26.5-31.3
	c-10.2,29.1-26.6,55.5-38.8,83.7c-2.3,5.8-5,11.6-5.8,17.9c1.3,12.7,9.1,23.2,14,34.7c3.1,7,5.6,14.4,6.2,22.1
	c5.2,37.5,24.4,70.9,34.1,107.1c-24.4,7-51.2,9.3-75.6,0.7c5.2-9.1,16.2-11.8,24.8-16.5c5.6-3,12-7.8,11.5-14.9
	c-1.3-11.9-8.6-21.9-15.2-31.4c-7.4-9.8-13.6-20.5-20-31c-5.6-9.6-11.5-19.2-15.5-29.6c-3.9-10.3-3.5-21.8-8-31.9
	c-2-4.7-4.3-9.2-5.9-14.1c-1.9-5.4-1.2-11.2,0.1-16.7c1.5-5.9,1-12,0.3-17.9c-1.4-11.8-4.3-23.5-4.5-35.5c0.3-9.6,3.2-18.9,6.2-28
	c5.1-15.7,11.8-30.9,17.4-46.4c4.4-11.8,8.4-23.8,12.5-35.7c-14.4-19.5-14.7-45-25.5-66.2c-3.5-6.3-10.6-9.5-14.7-15.3
	c-10.2-14.5-15.2-31.8-19-48.9c-11.6-6.5-25.4-4-37.9-7.3c-9.3-1.8-15.8-9.3-22-15.9c-10-10.8-22.8-18.5-32.6-29.3
	c-3.1-3-2.5-7.6-1.8-11.4c2-8.7,6.2-16.7,10.9-24.2c6.1-9.8,16.1-16.1,25.1-22.9c8.8-6.4,17.2-13.5,26-20c3.6-2.6,6.9-5.8,11.4-6.8
	c10.2-2.6,21.1-2.3,31.3,0.3c3.5,1.3,8.4,2.8,8.8,7.1c1.3,9.5-2,18.9-5.6,27.5c-9-2.4-16.8-8.5-26.3-8.9
	c-9.6,0.4-15.9,9.2-18.7,17.5c-2.5,9-5,17.9-7.6,26.8c12.5-1,26.4,0.7,35.7,9.9c12.6-4.1,26.2-0.1,37.2,6.6
	c6.6,4.2,13.5,8.6,21.4,9.6c6.1,1.1,12.7-0.5,17.7-4.2c1.1-13.8-7.8-25.6-9.9-38.8c-1-4.3,1.9-8,3.4-11.8c2.9-6.9,2.1-14.5,2.4-21.8
	c0.1-5.1,3.5-9.6,7.6-12.3c5.5-3.8,12.4-4.7,19-4.4c9.5-0.3,20,2.6,25.8,10.6c4.6,7.1,2.6,16,5.4,23.6c1.8,4.4,5.7,8,5.8,12.9
	c-1.4,9.9-8.2,18.1-10.3,27.8c-0.9,4-0.9,8.3,0.4,12.3c11.6,0.4,20.6-8,29.6-14.1c5.3-3.5,11-6.7,17.3-8c5.5-1,11,2.1,16.5,0.8
	c7.5-3,10.7-12,18.6-14.4c7.1-1.6,14.1,1.6,21.3,1.5c-4.6-18.3-15.9-34.4-29.5-47.1c-9.3,3.3-18.8,6.4-28.1,9.9
	c-9.7-4.5-14.2-17.2-9.4-26.7C451.3,115.2,454.2,112.3,457.7,110.7z"/>
</svg>
