<?xml version="1.0" encoding="utf-8"?>
<!-- Generator: Adobe Illustrator 21.1.0, SVG Export Plug-In . SVG Version: 6.00 Build 0)  -->
<svg version="1.1" id="Layer_1" xmlns="http://www.w3.org/2000/svg" xmlns:xlink="http://www.w3.org/1999/xlink" x="0px" y="0px"
	 viewBox="0 0 825 825" style="enable-background:new 0 0 825 825;" xml:space="preserve">
<style type="text/css">
	.st0{fill:#FFFFFF;}
</style>
<path d="M144,130c7.9-5.9,18-10.5,28-8.1c7,1.7,12.2,7.3,16,13.2c-7.4,6.3-14.9,12.5-22.4,18.6c-7.8,6.6-15.1,14.2-19.8,23.4
	c-8.8-1.1-12.9-9.7-17.8-15.8C128.5,149.2,134.1,137.2,144,130z"/>
<path d="M224.7,133.4c17.2-4.5,35.6-4,52.5,1.5c-28.5,9.8-55.4,24.3-78.4,43.8c-29.8,25.2-52.1,58.8-66,95.2
	c-3.2-11.1-3.8-22.7-2.9-34.2c2.8-24.2,13.6-47.1,29.5-65.4C176.3,154.6,199.2,139.6,224.7,133.4z"/>
<path d="M238.2,163.2c15.6-9.3,32.8-16.7,50.9-19.2c14.3-1.6,29.2-0.6,42.6,5.1c8.3,4,14.8,10.8,20.5,17.9
	c6.4,7.6,13.1,15.2,21.4,20.8c-19.1-7.5-40.5-6.2-60-0.9c-33.7,9.2-63.8,29.1-88.2,53.8c-20.4,20.9-36.6,46.7-43.1,75.4
	c-4.3,18.8-3.4,38.8,3,57.1c-15.6-5.4-30.4-15.5-38-30.6c-7-13.2-7.6-28.7-6.4-43.3c3-26.3,15.3-50.5,30.3-71.9
	C188.8,201.6,211.4,179.1,238.2,163.2z"/>
<path d="M295.9,206.9c18.7-9.9,40.1-16.1,61.3-13.4c13.5,1.3,28,4.7,37.6,14.9c10.1,11.6,11.9,27.9,10.3,42.6
	c-3,23.8-12.9,46.1-23.6,67.3c-5.4-1.5-10-5-14.1-8.8c-11.1-9.9-18.4-23.4-29.9-32.8c-5.7-4.8-12.8-8.7-20.4-8.6
	c-14.1,0.1-27,8.5-35.4,19.4c-6.8,8.9-11.6,20.3-9.3,31.6c1.6,8.1,7.2,14.9,14.1,19.1c-4.7-7.1-4.6-16.4-1.2-24
	c3.9-9,9.8-17.7,18-23.2c6.6-4.3,15.6-6.2,22.8-2.1c9.2,5,17.1,12.1,24.8,19.1c15.3,14,28.9,29.7,43,44.9
	c14.3,15.8,29.7,30.4,44.4,45.7c17.3,17.9,34.7,35.8,50.4,55.2c-17.2,8-31.2,22.3-39.2,39.6c-44.5-35.6-80.5-80.1-122.9-118
	C309,392,286.9,404,263,407.2c-15.5,2-31.8,1.6-46.4-4.6c-12.2-5-22.4-15.3-26.2-28.1c-4.7-15.7-2.7-32.6,1.8-48.2
	c8.6-27.7,26.3-51.4,45.6-72.5C254.7,235.4,273.7,218.6,295.9,206.9z"/>
<path d="M542.9,437c19.8-8.4,42.1-12.9,63.3-7.4c6.7,1.5,12.3,5.5,17.7,9.5c8,6.3,15.5,13.3,21.9,21.2c2.7,3.5,5.6,7.5,5.3,12.1
	c-17.3-6.5-36.6-6.1-54.3-1.3c-34.5,9.2-65.2,30.1-89.1,56.4c-14.5,16-26.8,34.1-35.1,54c-6.3,15-10,31.2-10.3,47.4
	c0.1,10.9,2,21.6,5.4,32c-9.5-11.3-22-19.8-31.6-31c-6.6-8-11-17.9-12.3-28.2c-1.6-16.4,0.6-33.2,6.3-48.7c7.1-20,19-38.1,32.8-54.2
	C485.2,473.4,511.5,450.4,542.9,437z"/>
<path d="M593,485c19-8.1,40.4-11.5,60.7-6.9c7.2,2,13.6,6.2,19.7,10.6c5.5,4.4,11.1,9.5,12.9,16.5c3.6,12.8-2.3,26,0.9,38.9
	c2,11,14.1,16.7,15.9,27.7c1.3,11.7-2.1,23.3-6.3,34c-3.7,9.2-8.3,17.9-13.3,26.4c-2.4,3,0.3,6.8,2,9.5c4.5,7.2,13.3,10,17.8,17.1
	c2.3,3.3,3.2,7.5,2.4,11.5c-1.1,8.1-6.1,15-11.5,20.8c-5.4,5.5-11.5,10.8-19,13.2c-7.7,2.4-16.5-0.9-21.5-7.1
	c-4.8-5.8-9.5-12-16.1-15.8c-14.4,11.9-32.6,18.1-51,20.3c-14,1.7-29.1-0.7-40.4-9.6c-14.5,2.1-29.8,2.8-43.7-2.5
	c-11.6-4.3-21.4-13.4-25.8-25c-5.4-13.9-4.6-29.4-1.9-43.8c4.4-22.6,15.5-43.5,29.2-61.8c10-13.4,21.8-25.4,34-36.8
	C554.4,507.2,572.5,493.8,593,485z"/>
<path class="st0" d="M606.5,519.4c8.8-3.2,18.1-5.6,27.5-5.4c4.4,0,8.8-0.2,13,1.2c7.8,2.5,14.7,7,21.4,11.5c2.2,1.5,4.6,3,6.1,5.2
	c-4.8-1.9-9.2-4.8-13.7-7.2c-13.1-0.9-26.2,1-38.5,5.3c-18.5,6.2-35.3,16.6-50.1,29.2c-14.1,12.4-26.7,26.8-35.5,43.4
	c-7,13.3-11.7,28.2-11.3,43.4c-0.1,10.1,2.5,20,6.7,29.1c-10.9-11-17.5-26.5-17.1-42c-0.5-17.5,6-34.5,15-49.2
	C547.9,555,574.7,531.5,606.5,519.4z"/>
<path class="st0" d="M596.2,606.2c7-9.2,16.9-17.1,28.6-18.9c7.6-1.1,15.2,2.2,20.5,7.7c-11-0.5-22.2,2.6-31.1,9.2
	c-8,5.5-15.3,13.4-17,23.3c-0.8,4.9-0.2,9.9,0.9,14.8c-4.9-2.2-8.9-6.7-9.7-12.2C587.1,621.4,591.1,613,596.2,606.2z"/>
</svg>
