<?xml version="1.0" encoding="utf-8"?>
<!-- Generator: Adobe Illustrator 21.1.0, SVG Export Plug-In . SVG Version: 6.00 Build 0)  -->
<svg version="1.1" id="Layer_1" xmlns="http://www.w3.org/2000/svg" xmlns:xlink="http://www.w3.org/1999/xlink" x="0px" y="0px"
	 viewBox="0 0 182.2 182.2" style="enable-background:new 0 0 182.2 182.2;" xml:space="preserve">
<g>
	<path d="M92.7,13.2h0.7c0,4.8,4.3,14.4,12.9,28.9C109.4,48.3,111,54,111,59c0,1.4-0.3,3.9-1,7.5c4.4-4.8,9.1-7.1,14.1-7.1v0.3
		c-4.5,3.2-6.7,8.1-6.7,14.5v12.4c0,5.6-1.9,12-5.7,19.3v0.2h0.3c6.1-9.6,13.8-14.4,23.1-14.4c9.2,0,15.6,4.7,19.2,14.2l0.7,4.4
		c0,8.4-3.8,14.5-11.5,18.3c-0.8,0.4-1.7,0.7-2.6,0.7h-1.2c-2,0-3-0.9-3-2.6c1.9-2.9,3-5.3,3.2-7c-1.5-6.8-5.9-10.2-13.4-10.2h-0.3
		c-5.9,0-10,3-12.5,8.9h0.3c2.1,1.2,3.2,2.9,3.2,4.8v1.3c0,2.6-1.7,4.9-5.1,6.7v0.3c1.4,4.5,4,6.7,7.9,6.7c1.5,0,3.4-1.2,5.5-3.5
		c0.1-0.7,1-1,2.5-1c1.8,0,2.6,0.9,2.6,2.6c0,4.5-3.2,7.1-9.7,8h-1.2c-6.5,0-11-3.6-13.5-10.7v-0.2h-1.3c-0.4,0-0.7,0.2-0.7,0.5
		c0,5.9,3.1,11.3,9.3,16.4c-0.7,5.9-3.9,11.5-9.6,17c-3.7,2.3-7.3,3.5-10.7,3.5h-1c-7,0-12.8-4.3-17.2-12.9c-1.7-4-2.5-6.7-2.5-8
		c6.2-4.3,9.2-9.8,9.2-16.4l-0.7-0.2h-1.2c0,3.4-2.8,6.7-8.3,9.9c-2,0.7-3.3,1-3.8,1h-2.6c-5.3,0-8.5-2.6-9.6-7.7v-0.3
		c0-1.8,0.8-2.6,2.5-2.6c1.8,0,3.5,1.2,5.2,3.6c1.7,0.6,2.7,0.9,3.2,0.9c3.7,0,6.2-2.2,7.7-6.7v-0.3c-3.7-2-5.5-4.5-5.5-7.4
		c0-2.3,1.3-4.2,4-5.5v-0.7c-2.9-5.5-7-8.2-12.5-8.2h-0.3c-6.5,0-10.9,2.7-13.2,8.2v2.6c0,1,1,3.3,2.9,6.7v0.3c-0.5,1.3-1.5,2-2.9,2
		h-1.3c-4,0-8.1-3.3-12.1-10c-0.9-2.1-1.5-5-2-8.7c0-8.9,5.2-15.1,15.7-18.6c1.8-0.2,3.3-0.3,4.5-0.3c8.9,0,16.5,4.8,22.7,14.4h0.3
		v-0.2c-3.9-7.3-5.8-13.8-5.8-19.7V73.2c0-5.6-2.2-10.1-6.7-13.5v-0.3c5.2,0,9.9,2.4,14.2,7.1c-0.7-3.7-1-6.6-1-8.7
		c0-6.7,4.7-17.5,14.1-32.4C91.5,19.6,92.7,15.5,92.7,13.2z M36,114.2v0.3c0,3.2,2.2,5.3,6.7,6.2h0.7c1.1,0,1.6-0.2,1.6-0.7
		c0-0.9,0.2-2.2,0.6-3.8c-0.4,0.2-1.4,0.4-3.2,0.7C40.4,116.8,38.3,115.9,36,114.2z M38.2,106.1c-0.8,1.7-1.2,3-1.2,3.8
		c1.7,3.7,3.9,5.5,6.7,5.5H44c1.5,0,2.5-0.5,2.9-1.6v-0.2c-3.4,0-6.2-2.5-8.3-7.5H38.2z M41.7,122.2c-0.5-0.2-1.6-0.4-3.2-0.5v0.2
		c1.5,2,3.2,3,5.2,3h1.9l0.7-0.3c-0.7-2.1-1.1-3.2-1.2-3.2C44.2,121.7,43.1,122,41.7,122.2z M41.7,103.9v1.3c0,4.2,1.8,6.6,5.5,7.4
		h0.3c1.5-0.9,2.2-1.5,2.2-2c-3.2-1.9-4.7-4.8-4.7-8.7v-0.5l0.2-0.7H45C42.8,101.5,41.7,102.6,41.7,103.9z M43.3,126.4v0.3
		c1.4,0.7,2.5,1,3.2,1l0.7-1V126c0-0.4-0.2-0.5-0.7-0.5C44.8,126.1,43.8,126.4,43.3,126.4z M47.5,104.3c0,2.1,1,4,2.9,5.7
		c2.3-0.8,3.7-1.2,4.2-1.2v-0.3c-1.3-1.8-2.1-3.7-2.2-5.8c0.2-1.6,0.5-2.9,0.9-3.8H52C49.4,98.8,47.9,100.6,47.5,104.3z M54.5,103.9
		v0.7c0,0.7,0.3,1.8,1,3.5h1.9c0.5,0,0.9-0.1,1.3-0.3h1c-0.4-0.7-0.8-1.8-1-3.2c0-1.3,0.7-2.9,2-4.8c-0.7,0-1.5-0.2-2.6-0.7
		C56.3,99.1,55.1,100.7,54.5,103.9z M60.4,106.1c0,1.8,1.4,2.6,4.2,2.6l-0.3-0.7v-0.7c0-2.3,0.8-3.8,2.5-4.5v-0.7
		c-0.5,0-1.2-0.3-2-0.9h-0.5C62.2,101.4,61,103,60.4,106.1z M65.4,108.1v1.3c0.7,0,1.9,0.6,3.5,1.9h0.3l-0.3-0.7
		c0.7-2.1,1.8-3.2,3.3-3.2c-0.4-0.7-1.4-1.7-3-2.9h-0.3C66.6,105,65.4,106.1,65.4,108.1z M69.9,112c0,0.3,0.7,0.9,2,1.9
		c0-1.5,1.1-2.2,3.2-2.2v-0.3c-0.5-1.2-1.5-1.9-2.9-1.9C70.7,109.8,69.9,110.6,69.9,112z M70.3,65.2v0.7c1.5,3,2.3,6.4,2.3,10.2v5.5
		c2.3-2.3,4.4-3.5,6.4-3.5h1v-0.3C78.6,73.5,75.4,69.3,70.3,65.2z M72.6,88.2v3.5h0.2c2.3-5.3,5.4-8,9.3-8c-0.9-3-1.5-4.5-1.9-4.5
		h-0.3c-2.2,0-4.6,1.9-7.1,5.8L72.6,88.2z M72.6,114.5v0.7c1,1.6,1.5,2.7,1.5,3.2c1-1,2.1-1.5,3.2-1.5c0-2.3-1.1-3.5-3.2-3.5
		C73.2,113.6,72.6,114,72.6,114.5z M74.8,119.3l0.3,2.3c0.8-0.7,1.5-1,2.2-1h1v-0.3c0-1.3-0.6-2-1.9-2h-0.3
		C75.2,118.8,74.8,119.1,74.8,119.3z M92.3,29.6c0,2.5-3.4,9.9-10.2,22.1c-2.1,4.2-3.2,8.6-3.2,13.2c0,2.6,1.8,10,5.5,22.1
		c1.2,7.8,1.9,12.6,1.9,14.5h-0.7v-0.3c0-2.3-1-7.6-2.9-15.7h-0.3c-3,0-5.5,2.5-7.4,7.4v3.5c0,3.7,3.1,13,9.3,27.9v1
		c1.8,0.2,4.4,0.3,7.9,0.3c0.2-1.5,0.3-2.7,0.3-3.6V121h0.7v0.3c0.2,2.6,0.3,4.1,0.3,4.4H94c5.3,0,8-0.5,8-1.5l7.7-21.5
		c0.7-2.2,1.1-4.7,1.3-7.4c0-4.8-2.3-8.1-6.8-9.9h-0.9c-2,8.1-3,13.5-3,16.4h-0.5c0-5.6,2.3-16.8,7-33.7v-3.8
		c0-5.1-4-14.5-11.9-28.2C93.5,31.7,92.6,29.6,92.3,29.6z M84.7,134c0,4-1.8,8.5-5.4,13.5c-0.8,1-2,2.1-3.5,3.2
		c0,4.1,2.6,8.3,7.7,12.5c3.1,1.9,6.2,2.9,9.2,2.9c8.1,0,13.7-4,17-11.9l1-3.5c-3.7-2.6-6.4-6.3-8-11.2c-0.7-2.9-1-4.7-1-5.5
		l-3.8,0.3h-2.2c2,7.4,5.3,12.9,9.9,16.4c0.4,0,0.9,0.3,1.6,1c-3.1,6.6-7.5,9.9-13.2,9.9h-1c-6,0-10.4-3.4-13.1-10.2
		c1.6,0,4-2.1,7-6.4c2.6-5,3.8-8.5,3.8-10.7h-2.9L84.7,134z M76.6,121.8l-0.2,0.7c0.2,0,1.1,0.3,2.5,1v-0.3
		C78.9,122.6,78.2,122.1,76.6,121.8z M92.7,38.6h0.7c0,2.2,3,8.9,9,20.1c0.9,2.7,1.3,5,1.3,6.8v1.9c0,4.1-2.5,14.4-7.5,30.8
		c-1.9,9-2.9,15.6-2.9,19.9h-0.7v-0.3c0-7.5-3.2-22-9.6-43.3c-0.7-2.5-1-5.2-1-8.2c0-4.5,3-11.9,9-22.2
		C92.2,41.1,92.7,39.3,92.7,38.6z M86,103.3h0.7v1H86V103.3z M105.5,78.9c-0.9,2.3-1.3,3.9-1.3,4.8c2.9,0,5.9,2.3,9,7v1h0.3v-3.8
		c0-4.2-2.2-7.1-6.7-8.7C106.3,79.2,105.9,79.1,105.5,78.9z M106.2,78c3.1,0,5.7,1.3,7.7,3.8v-7.5c0-2.5,0.7-5.6,2.2-9.2
		C111.9,67.8,108.6,72.1,106.2,78z M107.2,123.2v0.3c1.4-0.7,2.2-1,2.5-1c0-0.4-0.2-0.7-0.7-0.7
		C107.8,122.3,107.2,122.7,107.2,123.2z M107.8,120.3v0.3h0.9c0.7,0,1.5,0.3,2.3,1l0.3-2c-0.2-0.9-0.8-1.3-1.6-1.3
		C108.5,118.3,107.8,119,107.8,120.3z M109,116.8c0.8,0,1.8,0.5,3,1.5c1-2.1,1.5-3.4,1.5-3.8c-0.4-0.8-1.1-1.2-1.9-1.2
		C109.9,113.3,109,114.5,109,116.8z M111,111.3v0.3c2.1,0,3.2,0.7,3.2,2.2c1.2-0.8,1.9-1.5,1.9-2.2c-0.4-1.5-1.3-2.2-2.9-2.2
		C112.4,109.4,111.7,110.1,111,111.3z M113.9,107.5c1.7,0,2.7,1.3,3.2,3.8c1.7-1.2,2.9-1.9,3.5-1.9v-1.3c0-2.1-1.3-3.3-3.8-3.5
		C115.6,105.3,114.6,106.2,113.9,107.5z M119.4,102.3c1.7,1.7,2.5,3.5,2.5,5.5c-0.2,0.4-0.3,0.8-0.3,1c2.6-0.4,3.8-0.8,3.8-1.3
		l0.3-1.5c-0.7-3-1.9-4.5-3.8-4.5C121.6,101.4,120.8,101.7,119.4,102.3z M125.4,99.8c1.2,1.5,1.8,3.1,2,4.8c0,0.5-0.3,1.7-1,3.5h0.3
		c0.4,0,0.7-0.1,0.7-0.3l1.5,0.3h1.3c0.6,0,1-1.1,1.3-3.2v-1c-0.7-3.2-1.9-4.8-3.6-4.8C126.8,99.5,126,99.8,125.4,99.8z M132.8,98.8
		c0.4,1,0.8,2.1,1,3.5c0,2-0.7,4-2.2,6.2c0.1,0,1.5,0.6,4.1,1.9c2-2.3,3-4.3,3-6c-0.5-3.7-1.8-5.5-3.8-5.5H132.8z M140.8,100.8
		l0.3,0.7v0.5c0,3.7-1.6,6.7-4.8,9c1.1,0.5,1.6,1.1,1.6,1.6h1c3.6-0.7,5.4-3.2,5.4-7.4v-1.3C144.3,102.3,143.1,101.3,140.8,100.8z
		 M139.3,125.5l-0.3,0.5v0.7c0,0.7,0.4,1,1.2,1c0.3,0,1.2-0.3,2.6-1v-0.3L139.3,125.5z M147.5,106.1c-2,5-4.7,7.5-8.2,7.5v0.2
		c0.4,1.1,1.3,1.6,2.9,1.6h0.3c2.9,0,5.2-1.9,6.7-5.7v-0.3c0-0.2-0.4-1.3-1.3-3.3H147.5z M140.8,121.6c0,0.4-0.3,1.5-1,3.2h2.6
		c2,0,3.7-1,5.1-3v-0.2l-0.6,0.2h-3.3C142.4,121.7,141.5,121.6,140.8,121.6z M143.4,116.8c-1.6-0.2-2.6-0.4-3-0.7
		c0.4,2.8,0.8,4.2,1,4.2c0.4,0.2,0.8,0.3,1.3,0.3c4.7-0.5,7-2.3,7-5.5l0.3-0.7h-0.3C147.4,116,145.3,116.8,143.4,116.8z"/>
</g>
</svg>
