<?xml version="1.0" encoding="utf-8"?>
<!-- Generator: Adobe Illustrator 21.1.0, SVG Export Plug-In . SVG Version: 6.00 Build 0)  -->
<svg version="1.1" id="Layer_1" xmlns="http://www.w3.org/2000/svg" xmlns:xlink="http://www.w3.org/1999/xlink" x="0px" y="0px"
	 viewBox="0 0 825 825" style="enable-background:new 0 0 825 825;" xml:space="preserve">
<path d="M400.7,102.7c3.3-3.4,6.5-7,10-10.2c20.9,20.5,41.2,42,57.2,66.7c10.4,16.4,19.5,34.9,19.3,54.8c-1.7,17.7-6.5,34.9-10.9,52
	c-12.6,46.8-27.2,93.1-41.8,139.4c-6,25.1-9.8,50.7-11.9,76.4c3.1,0,6.2,0,9.3,0c2.7-3.4,3.7-7.8,4.9-11.9
	c4.3-16.3,6.3-33.1,9.2-49.7c13.9-36.8,32.9-72.3,60.1-101.1c22.9-24.4,52.5-42.8,85.1-50.8c21.4-5.3,43.8-7.1,65.8-4.7
	c20.7,2.3,41.1,10.5,56.3,25c20.2,19.3,30.3,46.6,35.2,73.6c0.9,6.4,3,13,1.4,19.5c-3.5,18.3-8.9,36.5-18.5,52.7
	c-7.7,13.1-18.5,24.7-31.7,32.4c-10.5,6.2-22.3,9.8-34.3,11.4c-7.8,1-15.9,1.7-23.7,0.4c-7.7-0.8-15.3-1.6-23-2.5c0-2.8,0-5.5,0-8.3
	c9.9-0.4,17.8-7.5,22.7-15.5c7.9-13,12-27.9,15.2-42.6c0.8-12.8-3.5-26.3-12.7-35.5c-10.5-10.5-25.4-15.1-39.8-17.2
	c-7-1.4-14.1-0.6-21.1,0.2c-20.9,2.4-41,11.2-57,24.7c-11.9,9.8-21.8,22-30.1,34.9c-12.8,20.1-22,42.3-29.2,65c5.7,0.1,11.4,0,17,0
	c-1.1-3.1-3.1-6.3-1.9-9.7c1.6-4.2,3.8-8.2,7.1-11.4c3.4-3.3,8.7-2.3,12.9-1.9c11.6,7.9,19.5,19.9,26.1,32.1
	c-4.5,9.1-9.4,18.1-16.1,25.7c-4.1,4.6-9.3,8.7-15.6,9.3c-5.5-1.2-10.7-4.8-13-10.1c-1.3-2.8-1.6-6-1.9-9.1c1.1-1.3,2.2-2.7,3.2-4.1
	c-5.5-0.3-11-0.1-16.5-0.1c-2.5-0.1-5.2,0.7-6.6,2.9c-1.1,2.3-0.7,5-0.8,7.5c0.2,18.1-0.7,36.3,1.2,54.4
	c2.1,19.3,7.6,38.8,19.2,54.6c9.9,13.7,24.3,24,40.2,29.7c5.5,0.6,11.2,0.4,16.8,0.1c12.8-2.5,25.9-6.4,36.5-14.2
	c7.1-5.2,12.6-12.9,14.2-21.6c2.2-11,0-22.5-3.8-32.9c-3.7-9.9-11.2-18.9-21.4-22.4c-6.2-2-13.1-3.6-19.4-1.3
	c-9.1,2.7-18.2,7-24.2,14.6c-5.8,7.4-7.8,17.6-5.5,26.6c1.7,6.9,7,12.5,13.1,16c4.7,0.3,9.4,0.3,14.1,0c4.6-1.3,4-7.5,3.6-11.2
	c-3.8-5.1-7.9-10-11.7-15.1c1.9-4.1,3.5-8.9,7.6-11.3c7-0.5,14.7-0.8,20.7,3.2c5.4,3.7,7.3,10.6,7.1,16.8c-1,8-3.6,16.1-8.6,22.5
	c-5.3,6.7-14,10.2-22.4,10c-5.1-0.2-10.4,0.6-15.3-1c-6.6-1.9-12-6.7-15.6-12.5c-4-6.4-6.6-13.7-8.2-21c-0.9-10-0.3-20.8,5.8-29.3
	c8.7-12.2,23.3-18,37.3-21.8c4.2-0.8,8.5-2.8,12.9-1.6c14.4,2.9,29.4,8.2,39.2,19.7c7.4,8.5,10.2,19.9,10,31
	c-0.2,10.8,1,21.9-2.6,32.2c-3.7,11.2-12,20.2-21.8,26.4c-13.5,8.5-29.1,12.8-44.7,15.7c-16.8,1.4-34.4-2.2-48.4-11.9
	c-16.4-11-27.4-28-35.4-45.7c-8.1-18.5-13.7-38.1-17.1-58c0.1-12.1-1.1-24.1-2.9-36c2-4.8,3.2-9.9,2.8-15.2c-3.8,0-7.6,0-11.4,0
	c0.1,31.8,1.6,63.8,7.9,95.1c3.9,18.9,9.8,37.8,20.8,53.9c2,11.4-3.5,22.2-8.6,32.1c-9.4,17.6-20.7,34.2-32.3,50.4
	c-12.2-17.7-24.3-35.6-33.6-55.1c-3.4-7.6-6.9-15.5-7.1-23.9c3.6-6.5,7.7-12.8,10.4-19.8c8.6-20.8,12.6-43.2,15.2-65.5
	c2.4-22.3,3.4-44.8,3.3-67.2c-2.8,0-5.6,0-8.5,0c0.2,22.5-1.1,45-5.3,67.1c-4.2,21.6-11.1,43.2-24,61.2c-9.2,13.2-22,23.9-36.7,30.3
	c-6.2,2.9-12.9,4.4-19.4,6.8c-5.8,1.5-12,1.4-18,1.3c-18.8-3.1-38.2-8.8-52.4-22c-11.2-10.2-17-25.4-17-40.4
	c0.2-8.6-0.7-17.4,1.7-25.8c2.7-11.2,10.2-21,20.1-26.9c9.1-5.5,19.6-8.4,30-10.1c4.9-1.2,9.5,1.2,14.1,2.4c12.7,4.1,26,9.7,34,20.9
	c6.3,8.6,5.9,19.8,5.2,29.9c-0.4,8.6-2.2,17.7-7.8,24.6c-5.5,6.7-14.4,9.7-22.9,9.5c-6.2-0.2-12.7,0.8-18.4-2
	c-8.2-3.4-13.6-11.1-16.9-19.1c-1.8-4.6-3.5-9.3-4.1-14.2c1.7-6.5,6.1-12.1,11.7-15.8c3.7-2.8,8.5-1.2,12.8-1.6
	c4.2-0.7,7.1,3,9.2,6.1c1.1,1.7,2.5,3.8,1.4,5.8c-3.6,4.8-7.7,9.2-11.2,14c-1,2.4-0.8,5.8,1.4,7.6c2.8,2.5,6.1,5,10.1,4.5
	c2.5-0.2,5.4,0.6,7.6-1.1c6.1-3.6,10.7-9.7,11.9-16.8c1-8.1,0.8-17.2-4.3-24c-6.8-9.5-18.5-13.8-29.5-16.4
	c-11.2-0.7-23.3,2.9-30.9,11.6c-6.4,7.3-9.1,17-10.3,26.4c-1,10.1-1.5,21,4.1,29.9c7.9,13,22.7,19.2,36.7,23.2
	c7.8,2.5,16.2,3.3,24.3,2.2c15.2-4.5,29.6-12.8,39.9-25c11.2-12.9,17.5-29.4,20.5-46.1c2-11.4,2.8-23,2.6-34.6c0-14.5,0-28.9,0-43.4
	c-7.7,0-15.3-0.1-23,0c1.3,3.6,3,7.3,2.2,11.2c-2.3,6.2-8.5,9.5-14.1,12.1c-7-0.7-12.6-5.7-17.1-10.7c-6.3-7.2-10.9-15.7-15.2-24.2
	c4.7-8.7,10-17.3,17.2-24.2c5.2-4.6,11.9-8.9,19.1-7.9c4.5,2,7.3,6.5,9.8,10.5c1.5,4.1,0,8.6-1.9,12.4c5.8,0.1,11.6,0.1,17.3,0
	c-1.2-9.6-4.8-18.8-8.1-27.9c-11.3-29.8-30.8-56.4-55.7-76.3c-1.8-1.3-3.9-2.1-5.9-3c-16.4-7.1-33.1-13.7-50.7-16.9
	c-6.2-0.9-12.6-2.3-18.7-0.5c-13.2,3.1-26.8,7.5-37.1,16.8c-7.3,6.5-11.5,16.2-11.5,26c0.1,13.1-1.3,26.9,4.5,39.1
	c5.9,13.4,18.3,22.5,31.1,28.8c0,2.8,0,5.5-0.1,8.3c-9.6,1.1-19.3,2.1-29,3.1c-20.7,0.5-42.1-4.8-58.9-17.4
	c-19.1-14.2-30.7-36.3-37.4-58.7c-1.6-6.3-4.2-12.5-3.9-19.1c0-7,0-14.1,0-21.1c-0.2-6.3,2.1-12.3,3.7-18.4
	c6.9-23.9,19.3-47.4,39.6-62.5c18.4-14.1,42-19.6,64.9-19.4c31.7-0.2,63.8,6.2,91.7,21.6c26.5,14.4,48.2,36.4,64.5,61.5
	c26.4,40.9,40.2,88.5,49.1,136c3.9,0,7.7,0,11.6,0c-0.5-23.1-5.4-45.9-10.4-68.4c-13.1-56.1-30.6-111-48.3-165.8
	c-2.1-10.8-4.1-21.7-5.4-32.6c-1.9-15.9,5.2-31,12.7-44.5C362,145.5,381.1,123.7,400.7,102.7z"/>
</svg>
