<?xml version="1.0" encoding="utf-8"?>
<!-- Generator: Adobe Illustrator 21.1.0, SVG Export Plug-In . SVG Version: 6.00 Build 0)  -->
<svg version="1.1" id="Layer_1" xmlns="http://www.w3.org/2000/svg" xmlns:xlink="http://www.w3.org/1999/xlink" x="0px" y="0px"
	 viewBox="0 0 825 825" style="enable-background:new 0 0 825 825;" xml:space="preserve">
<style type="text/css">
	.st0{fill:#FFFFFF;}
</style>
<path d="M410.9,91.2c0.6-0.1,1.8-0.2,2.4-0.3c0.4,11.9,4.6,23.2,8.9,34.2c12,29.4,27.9,56.9,43.8,84.3c9.9,19.2,17.7,40,19.3,61.7
	c1,12.4-1.7,24.7-3.7,36.9c14.9-16.1,35.3-29.5,58-28.6c-3.5,3.9-8.1,6.6-11.4,10.7c-11.5,12.7-16.4,30.1-16.7,46.9
	c0,17.4,0,34.7,0,52.1c0.1,21.9-6.5,43.3-15.2,63.2c-2.4,6.3-6.2,11.9-8.3,18.4c2.6-1.7,3.8-4.6,5.6-7c12-17.4,27.4-33.1,46.5-42.4
	c14.2-7.1,30.2-10.3,46-9.7c17,0,34.2,5.3,47.4,16.2c13.1,10.5,22,25.4,28.1,40.9c1.2,5.8,1.9,11.7,2.8,17.6
	c0.6,18-4.3,36.5-15.4,50.9c-8.6,11.3-20.5,19.8-33.3,25.7c-5.2,2.4-11,1.9-16.5,1.6c-4.6-0.1-8.9-3.6-9.3-8.3
	c-0.7-2.3,1.1-4.2,2.2-6c4.7-7.7,9.3-15.9,10.7-24.9C600,512,593.3,499.3,582,492c-13-8.3-29.2-9.8-44.2-8
	c-14.7,1.7-27.9,10.8-35.6,23.2c-2.5,3.8-4.5,7.8-6.3,12c7.2,3.2,13.3,9.9,14,18c0.3,5.9,0.6,12.1-2.1,17.5
	c-3.6,8.1-11.2,13.3-18.7,17.6c3,10.6,9.1,21.4,19.6,25.9c6.3,2.4,13.7,3.9,20,0.6c6.6-3.4,12.1-8.7,16.5-14.5
	c3.8-2.6,8.8-1.9,13.1-1.5c5.5,1,7.3,7.5,6.7,12.3c-0.3,9.2-5.6,17.8-13.5,22.5c-13.3,7.9-29.8,10-44.8,6.7
	c-10.6-2.3-20.3-8.3-27.3-16.7c-6.4-7.7-11-16.8-14.1-26.3c-2.5,0-5.1,0.1-7.6,0.5c-0.7,13.4,3.5,26.7,10.4,38.1
	c7.1,11.8,16.9,21.8,27.5,30.4c-3.2,26.5-18.9,49.6-37.4,68c-2.4,2.4-5.6,3.9-8.5,5.5c-11.8,6.4-25.2,10.7-38.7,10.2
	c-14.1,0.5-28.3-3.9-39.8-12.3c-14-10.1-24.3-24.6-32.1-39.8c-4.4-10.6-9.1-21.4-10.6-32.9c12.5-8.9,23.8-20.1,30.4-34.1
	c5.1-10.2,7.1-21.6,7.4-32.9c-2.5-0.5-5-0.7-7.6-0.7c-0.1,10.3-6.2,19.2-13.6,25.9c-6.2,5.6-13.1,10.5-20.5,14.4
	c-6,2.1-12.2,4.4-18.6,4c-9.1,0-18.6,0.5-27.1-3.5c-10.9-4.7-17.7-15.9-19.5-27.4c-0.6-4.3,0.3-9.6,4.8-11.5c5.5-2.1,12-0.6,16.5,3
	c4.1,2.8,6.9,7.1,10.2,10.8c3.9,1.6,8,2.8,12.2,3.6c7.5,0.2,15.2-2.5,20.5-7.9c5.7-5.5,9.3-12.9,11.5-20.4
	c-7.6-4.5-15.3-9.9-19.5-17.9c-4.1-7.6-4.4-17.7,0.8-25c3.1-4.5,7.8-7.5,12.5-10.1c-0.7-4.8-4-8.7-6.6-12.6
	c-8.5-12.2-21.9-21.3-36.9-22.8c-13.5-1.5-27.9,0-40,6.5c-10.5,5.7-18.5,15.6-22.6,26.7c-0.1,5.7-0.8,11.6,1.4,17
	c2.6,6.8,6,13.2,9.4,19.6c1.8,2.9-0.8,6-2.9,8c-3.7,3.4-9.1,2.7-13.7,2.7c-12.1,0-22.5-7.5-30.5-15.8c-7.1-7.5-13.1-15.8-18.3-24.7
	c-4-9.1-5.8-19.1-7.4-28.9c-2-10.4-0.2-21.2,2.9-31.2c5.3-16.8,18.1-30.3,33-39c6.9-4.2,14.2-7.4,21.7-10.2
	c7.5-3.1,15.7-2.9,23.6-3.1c20.4-0.6,40.6,6.5,56.9,18.7c13.8,10.1,25,23.3,34.5,37.4c0.8,1.2,1.9,2.2,3.1,3
	c-1.9-5.2-4.9-10-7.2-15.1c-8.8-19-15.6-39.4-16.7-60.5c-0.2-20.5,0.1-41.1-0.1-61.6c-0.4-16.7-6.8-33.4-18.8-45.2
	c-2.8-3.3-6.9-5.5-9.3-9.2c15.9,0,31.5,5.7,44,15.5c5.3,3.9,9.8,8.7,14.5,13.4c-2.1-11.2-3.7-22.6-4.1-34
	c0.1-13.4,3.7-26.4,8.1-38.9c10.8-29.4,26.4-56.8,42.6-83.5c2.8-4.9,6.4-9.3,8.3-14.7C403.5,122.1,409.2,107,410.9,91.2z"/>
<path class="st0" d="M409.6,157.8c4.6,8.5,7.1,17.9,10.8,26.8c11.8,20.6,23.2,41.4,32.9,63.1c7,16.4,14.3,33.3,15.1,51.3
	c-0.1,5.3,0.4,10.6-0.2,15.9c-6.2,22.8-12.3,45.5-17.6,68.5c-5,22.6-10.3,45.3-11,68.5c0.6,0,1.8,0,2.4,0
	c0.2-11.4,2.5-22.6,4.6-33.7c2.3-11.1,4.7-22.2,7.6-33.1c4.2-0.1,8,2,11.5,4.1c7.9,4.6,14.4,11.9,17.2,20.7c1.7,4.8,2.3,10,2.4,15.1
	c-0.9,10.6-2.5,21.3-5.8,31.5c-10.4,29.3-20.9,58.5-31.3,87.8c-1.8,2.9-5.8,3.2-8.9,3.9c-8.2,1.2-16.5,1.5-24.7,1.5
	c-0.3-6.4-1.1-12.8-1.4-19.2c-0.7,0-2,0-2.6,0c0.2,6.1-0.8,12.2-1.3,18.3c-10.7,0.2-21.3-0.4-32-1.2c-0.2-1.9-0.2-3.9-1-5.8
	c-11.5-27.8-22.9-55.6-31.7-84.4c-2.9-10.2-6-20.6-5.7-31.3c0.2-3.9-0.5-7.8,0.4-11.6c3.4-8.8,8-17.6,15.3-23.7
	c4.3-3.7,9.9-5.6,15.6-5.4c4.2,18.6,8.6,37.2,11.1,56.2c0.4,3,0.5,6.1,0.5,9.1c0.7,0,2.1,0,2.8,0.1c-1.2-19.7-4.6-39.2-7.6-58.6
	c-5.9-20.5-12.2-40.9-17.2-61.7c-2.3-9.3-4.6-18.8-5.2-28.4c0-18.8,4.6-37.5,13.2-54.2c11.7-21.2,23.4-42.5,33.4-64.7
	C404.7,174.9,408.2,166.6,409.6,157.8z"/>
<path d="M410.9,194.4c0.5,0.1,1.6,0.4,2.1,0.5c1.7,8.8,5.2,17.2,8.8,25.4c8.4,18.9,18.1,37.2,27.7,55.4c7.2,18.1,7.2,38.2,3.3,57
	c-7.1,35.5-17.8,70.2-28,105c-4.4,20.3-8.1,40.8-10.5,61.4c-0.5,6.4-1.3,12.7-1.1,19.1c-0.7,0-2,0-2.7,0
	c-0.4-20.8-4.2-41.3-8.4-61.6c-8.4-39.2-19.3-77.7-30.7-116.1c-3.2-12.2-4.4-24.9-3.9-37.5c0.9-9.9,4-19.4,7.5-28.7
	c7-17.9,15.9-35,25.5-51.6C406.2,214.2,408.6,204.1,410.9,194.4z"/>
<path class="st0" d="M319.1,303.2c11,8.1,20.5,18.1,28.5,29.2c4.9,7,9,14.7,11.4,22.9c-3.9,0.2-7.8-0.2-11.5,1.2
	c-7.3,2.5-13.4,7.6-18.8,13.1c-0.3-11.2,0.4-22.3-0.5-33.4c-1-9.3-3.3-18.5-7.2-27C320.1,307.2,319.3,305.3,319.1,303.2z"/>
<path class="st0" d="M465.8,355.3c8.2-20.4,21-40.1,39.9-52c-4.5,12.1-8.6,24.7-8.8,37.8c0,9.8,0,19.6,0,29.4
	C489.4,361,477.9,355,465.8,355.3z"/>
<path class="st0" d="M462.8,359.2c9.6,1.5,18.7,6.4,25.1,13.8c5.6,6.5,7.9,15.4,7.7,23.9c-0.1,4.9,0.2,9.9-0.2,14.9
	c-1.5-1.8-0.7-4.3-2.1-6.1c-6-8.8-12.8-17.4-22-23.1c-4.2-2.6-9-4-13.9-4.2C458.3,371.8,460.5,365.5,462.8,359.2z"/>
<path class="st0" d="M335.2,376.2c6.3-7.8,14.4-16.5,25.3-16c3.5,5.6,5.1,12.1,7.1,18.4c-10.5-0.2-20.2,5.4-26.7,13.4
	c-5.1,6-8.5,13.2-12,20.2c-0.8-8.9,0.1-17.9,0.6-26.8C330.4,381.7,333.2,379.1,335.2,376.2z"/>
<path class="st0" d="M235.6,442.6c4.1-3,9.3-2.6,14.1-2.6c-1.6,5.2-3,10.5-3.3,16c0.3,8.9,4.2,17.1,9.3,24.2
	c-6,1.3-11.8,3.3-17.5,5.2c-6.5-6.1-11.8-14.3-11.5-23.5C227.5,454.9,229.3,446.9,235.6,442.6z"/>
<path class="st0" d="M574.1,440c4.9,0.3,10.5-1.1,14.8,2.1c4.9,3.8,6.8,10,8,15.8c2.9,10.9-4.7,20.9-11.2,28.9
	c-5.5-2.5-10.9-5.3-16.5-7.6c5.9-8.7,10.8-19.6,7.9-30.3C576.3,445.9,575.3,442.9,574.1,440z"/>
<path class="st0" d="M263.4,443.4c1.9-1.5,4.5-2.6,7-1.7c3.2,1,6.4,1.9,9.7,2.6c-3.3,4.8-6.4,10-7.5,15.7
	c-0.9,5.7,1.1,11.4,3.4,16.5c-5.6,0.8-11.1,1.9-16.8,1.3c-2.1-6.1-5.2-12.6-3.5-19.2C257.1,453.1,258.8,447.1,263.4,443.4z"/>
<path class="st0" d="M544.2,444.2c3.7-0.6,7.2-2.1,10.8-2.9c6.3,0.3,9.9,6.5,11.8,11.8c3.3,7.9,2.8,17.5-2,24.7
	c-5.6,0.7-11.2-1.8-16.7,0.3c1.3-4.7,3.3-9.3,3.9-14.1C551.7,456.8,548.7,449.8,544.2,444.2z"/>
<path class="st0" d="M203.3,458.2c1.9-5.9,8.2-8.4,13.6-10.5c-1.6,11,0.8,22.8,7.9,31.4c3,3.9,7.1,6.7,11,9.6
	c-2.6,3.3-6.2,5.7-9.8,7.8c-6.9-1.4-13.9-4.6-18-10.6C202.5,477.9,202.5,467.6,203.3,458.2z"/>
<path class="st0" d="M607.2,447.9c4.3,1.6,9.2,2.9,11.9,6.9c2.4,3.2,1.6,7.5,1.8,11.2c0.2,7.3-1.2,15.1-5.8,21
	c-4.6,5.9-12,9.1-19.3,9.6c-1.4-3.2-4.2-5.4-7.1-7.3c8.4-6.1,15.3-14.7,17.9-24.9C607.8,459.1,608.8,453.3,607.2,447.9z"/>
<path class="st0" d="M282,460c2.2-5.7,7.8-9.9,14-9.4c3,1.4,5.7,3.4,9,4.1c0,0.5-0.1,1.5-0.2,2c-8.9,4.1-12.1,15.3-9.2,24.2
	c-5-0.6-11-0.7-14.6-4.8C277.2,471.3,280,464.9,282,460z"/>
<path class="st0" d="M519.6,454.2c4.5-1.6,9.2-4.8,14-2.9c6.3,2.2,9.3,9,11,14.9c1.2,3.4-0.4,6.9-1.1,10.3
	c-4.7,2.5-10.1,3.1-15.3,4.1C532.2,471.1,526,461.1,519.6,454.2z"/>
<path d="M383.4,458.4c0.7,0,2,0,2.7,0c0,1.3,0,2.6,0,4c-0.6,0-2,0-2.6,0.1C383.4,461.1,383.4,459.7,383.4,458.4z"/>
<path class="st0" d="M301.5,470.5c2.8-4.6,8.4-6.2,13.4-7.1c4.4,3.5,9,7,12.3,11.7c-6.4,0.2-10.9,5.6-12.8,11.3
	c-0.9,1.6,0.1,3.3,0.3,5c-4.7-3.3-9.4-7.1-15.2-8.3C299.6,478.8,299.1,474.2,301.5,470.5z"/>
<path class="st0" d="M497.1,475.1c3-4.6,6.7-9.2,11.9-11.4c4.9,0.4,10.1,2.1,13.1,6.3c2.5,3.8,2.3,8.7,2.4,13.1
	c-5.4,1.2-10,4.6-14.4,7.7c-1.1-4.6-2.3-9.6-5.9-12.9C502.3,476,499.6,475.5,497.1,475.1z"/>
<path class="st0" d="M183.6,485c0.8-5.5,2.4-11,5.7-15.6c4.6,9.2,9.4,19,17.9,25.3c4.9,3.8,10.9,5.5,17,5.9c-1.3,3.1-3.6,5.9-7,6.7
	c-6.7,1.4-14.2,0.5-19.9-3.7C191.1,499,186.4,492.2,183.6,485z"/>
<path class="st0" d="M634.5,469.4c2.8,4.5,4.8,9.5,6.2,14.5c-2.5,7.5-6.9,14.7-13.3,19.5c-5.8,4.4-13.7,5.4-20.7,3.8
	c-3.3-0.8-5.3-3.7-6.7-6.6c7.5-0.3,14.9-3.1,20.2-8.4C626.9,486,630.7,477.5,634.5,469.4z"/>
<path class="st0" d="M318,493.8c-0.6-7.3,8.4-12.7,14.7-9.4c3.4,1.3,5.6,4.5,6.6,7.8c-3.6,0.3-7.5,0.3-10.5,2.6
	c-2.1,1.4-2.5,4-3.3,6.2C322.9,498.7,319.7,496.8,318,493.8z"/>
<path class="st0" d="M491.8,483.9c6.1-2.3,13.6,2.5,14,9c-0.8,3.8-4.4,5.8-7.1,8.1c-0.7-2.1-1.1-4.5-2.9-6c-3-2.6-7.2-2.6-10.9-2.9
	C486.3,488.8,488.5,485.5,491.8,483.9z"/>
<path class="st0" d="M328.6,505.9c-0.6-3.5,2.9-5.6,5.7-6.6c3.2-0.7,6.6,0.4,9.2,2.2c3.5,2.8,4.3,7.5,4.5,11.6
	c-4.9,0.2-9.3,2.7-12.8,6C333.7,514.4,330.7,510.3,328.6,505.9z"/>
<path class="st0" d="M477.7,508.5c0.5-4.8,4.2-9.5,9.4-9.4c3.8-0.7,6.8,2,8.8,4.9c-1.6,5.4-4,10.4-6.4,15.4c-3.2-2.7-6.8-5.1-11-6.1
	C476.3,512.7,477.6,510,477.7,508.5z"/>
<path class="st0" d="M179.5,502.8c7.4,5,15.4,10,24.5,10.6c4.9,0,9.7-1.2,14.4-2.3c-1.1,4.9-1.9,9.8-2.1,14.8c0.3,2-1.9,2.8-3.5,3
	c-8.4,0.9-16.9-2.2-23.9-6.7C182.6,517.8,179.3,510.3,179.5,502.8z"/>
<path class="st0" d="M619,513.3c9.3-0.5,17.5-5.3,25.4-9.7c-1.5,4.8-1.2,10.2-4.5,14.3c-5.1,6.9-14,9.3-22.1,10.7
	c-3,0.3-6.7,0.8-9-1.5c-2.1-5.1-2.4-10.7-3.6-16.1C609.8,512.1,614.3,513.3,619,513.3z"/>
<path class="st0" d="M337.6,523c2.6-2,5.7-4.5,9.3-3.1c4.1,0.7,5.2,5.2,5.2,8.8c-4.7-0.3-9.4,1-13,4.1
	C338.4,529.5,338.1,526.3,337.6,523z"/>
<path class="st0" d="M475,521c3.2-2.2,8.4-2,10.7,1.5c2,3.1-0.2,6.8-0.3,10.2c-3.8-2.9-8.5-4.3-13.2-4.1
	C472.5,526,472.6,522.8,475,521z"/>
<path class="st0" d="M203.2,535.1c4.6-0.3,9.1-2,13.5-3.3c1.8,4.2,3.3,8.6,4.5,13.1c-4.2,1.5-8.7,0.8-13,0.8
	c-7.8-0.8-14.4-6.3-18.6-12.6C194.2,533.2,198.7,534.2,203.2,535.1z"/>
<path class="st0" d="M606.8,533.1c9.1,0.3,18.3,1.8,27.4,0.4c-3.9,6.1-9.9,11.2-17.3,12.2c-4.7,0.3-9.4,0.1-14.1,0.1
	C604.3,541.6,605.9,537.5,606.8,533.1z"/>
<path class="st0" d="M344.2,536.2c0.6-3.5,4.3-1.5,6.4-0.8c2.4,0.7,3.9,2.7,4.5,5.1C351.4,539.2,347.9,537.6,344.2,536.2z"/>
<path class="st0" d="M469.1,540.4c1.2-3.9,5.1-5.8,8.8-6.5c1,0.4,2.2,1,2,2.3C476.3,537.6,472.8,539.2,469.1,540.4z"/>
<path class="st0" d="M208.8,552.9c5.4-1,10.5-4,16-3.9c1.6,3.4-0.6,6.2-2.5,8.8C217.6,556.9,212.9,555.5,208.8,552.9z"/>
<path class="st0" d="M599.9,548.8c5.3,1.1,10.6,2.2,15.6,4.1c-4.1,2-8.4,4.8-13.1,4.6C598.1,556.9,598.8,551.8,599.9,548.8z"/>
<path class="st0" d="M378.1,583.6c8.3,1.1,16.6,1.6,24.9,1.5c-1,13-7,24.9-12.4,36.5c-3.2,7.6-8.6,13.9-13.9,20
	c-5,5.4-10.5,11.4-18.1,12.9c5.5,13.2,13.4,26.3,25.8,34c8.8,5.5,19.3,7.8,29.6,7.5c11.4,0.4,23.1-2.8,32.3-9.7
	c10.6-7.7,17.9-19,23.5-30.7c-3-3.1-7.4-4-10.4-7c-19.1-16.2-30.3-39.8-36.6-63.7c8.2,0.3,16.4-0.6,24.5-1.4
	c0.5,7.5,2.3,14.8,4,22.1c5.6,18.3,16.7,35.2,32.7,46c-1.4,5-2.6,10-4.3,14.9c-5.6,13.3-13.9,25.9-25.6,34.5
	c-10.6,7.9-23.8,12.2-37,12.9c-15.6,1.6-31.4-3.2-44.4-11.7c-10.8-8.9-20.8-19.3-26.8-32.2c-2.7-5.7-3.9-12-4.4-18.2
	c6.1-4.6,12.3-9.5,16.5-16C368.5,620.4,377.5,602.8,378.1,583.6z"/>
</svg>
