<?xml version="1.0" encoding="utf-8"?>
<!-- Generator: Adobe Illustrator 21.1.0, SVG Export Plug-In . SVG Version: 6.00 Build 0)  -->
<svg version="1.1" id="Layer_1" xmlns="http://www.w3.org/2000/svg" xmlns:xlink="http://www.w3.org/1999/xlink" x="0px" y="0px"
	 viewBox="0 0 182.2 182.2" style="enable-background:new 0 0 182.2 182.2;" xml:space="preserve">
<g>
	<path d="M91.7,13.4h0.7c4.5,21.2,11.9,39.5,22,55c0.2,0,1.4,1.5,3.4,4.4v0.7c-9.4,14.2-14.1,25.4-14.2,33.5v0.7h0.3
		c0-7.5,3.5-15.1,10.4-22.6c4.8-3.4,9.7-5.1,14.9-5.1h2c8.1,0,13.5,4,16.3,12.1c0,0.9,0.1,1.9,0.3,3.1c0,8.9-5.4,14.9-16.3,18.2h-1
		l1.6-5.7c-1-4.8-3.3-7.1-7-7.1h-1.8c-4.5,0-7.7,3.3-9.4,9.9v0.3c2.5,0.4,3.7,1.6,3.7,3.6v2.1c-0.6,1.3-1.5,2-2.6,2h-1.8
		c0,2.6,1.8,4.9,5.4,7.1c1.1,0.7,2.6,1,4.4,1c3.4,0,6.8-1.7,10.2-5.1h0.3c-1.2,9.7-6,14.5-14.6,14.5c-7.2,0-12.1-4.4-14.8-13.2
		c-0.4-2.2-0.7-4.2-0.7-6v-1.3h-0.7c0,1.2-0.1,2.8-0.3,4.7c0,8.6,2.3,16.5,7,23.6c-7.3,4-12.7,11.5-16.2,22.3
		c-0.4,2.4-0.7,4-0.7,4.7h-0.8c-0.4-5.9-3.5-12.6-9.1-20.3c-3.2-3.1-5.9-5.2-8-6v-0.7c4.5-6.2,6.7-13.9,6.7-23.3v-5.1H81v0.3
		c0,9.5-3.5,16.1-10.4,19.9c-3,0.7-4.9,1-5.8,1c-7.5,0-12.2-5.1-13.8-15.2h0.3c3.2,3.4,6.8,5.1,10.9,5.1c4.1,0,7-2.3,8.8-7
		c0-0.3,0.1-0.7,0.3-1.1c-2.2,0-3.7-0.7-4.4-2v-3.1c0.4-1.2,1.8-2.2,4.1-3c-2.7-6.1-6.2-9.1-10.5-9.1h-1c-4.7,0.7-7,2.8-7,6.4
		c0,1.7,0.7,3.5,2,5.4l-0.7,0.3c-6.7-1.7-11.4-4.5-14.2-8.5c-2.1-2.7-3.1-5.9-3.1-9.4v-1.3c0-6.4,4.1-11.2,12.2-14.2
		c2.3-0.4,4.1-0.7,5.4-0.7c9.8,0,17.5,4.9,23,14.8c2.5,5.6,3.7,10.1,3.7,13.5H81V107c0-8.6-4.7-19.9-14.2-33.8v-0.3
		C78.9,56.7,87.2,36.9,91.7,13.4z M38.3,95.5c0,7.6,4.5,13.1,13.5,16.6v-0.3c-1.1-2.1-1.6-3.8-1.6-5.1v-1.4c0-4.5,3.3-7.1,9.8-8h0.3
		c6,0,10.3,3.6,12.9,10.8c0.2,0.4,0.3,0.8,0.3,1.3c1.4-0.1,2.1-0.4,2.1-0.7c0-3.4-2.3-7.2-6.8-11.4c-3-1.8-6-2.9-9.1-3.1
		c-7.4,0.8-11.1,4.2-11.1,10.1v0.7c0,1.3,0.2,2.7,0.7,4.1l-0.7,0.3c-5-4-7.5-8.6-7.5-13.8c0-6.7,5.1-10.7,15.2-11.8
		c7.6,0,13.7,4.5,18.2,13.5c2.3,4.7,3.4,8.4,3.4,11.1l1.4-0.7c-3.4-17.4-11.6-26-24.7-26c-7.3,0-12.5,3.3-15.5,9.8
		C38.6,93,38.3,94.4,38.3,95.5z M43.5,99.5c0.6,1.8,1.5,2.7,2.6,2.7c0.8,0,2.2-1.9,4.1-5.8c2.1-1.8,4.1-2.6,6-2.6v-0.7l-4-0.3h-0.4
		C46.3,93.5,43.5,95.8,43.5,99.5z M53.3,90.1c0,1.5,3.4,2.6,10.1,3.4c0,0.2,1.7,1,5.1,2.3c-4.2-5.6-8.3-8.5-12.2-8.5
		C54.3,87.5,53.3,88.4,53.3,90.1z M64.4,132.7c-0.5,0-2.1-0.4-4.7-1.1v-0.7l2.4,0.3h0.7c7.1,0,11.6-4.9,13.5-14.8
		c-1.3,0-2.2,1.9-2.7,5.7c-2.9,4.8-6.4,7.1-10.8,7.1c-3.2,0-6.3-1.2-9.1-3.7h-0.3c2.1,6.1,5.8,9.1,11.1,9.1
		c5.9,0,10.3-3.5,13.2-10.4c1.2-2.9,1.8-5.7,1.8-8.5h-0.4c-0.3,0-1,2.3-2,7C73.9,129.4,69.7,132.7,64.4,132.7z M67.8,91.1l-0.7,1.4
		c0,0.4,2.1,3.2,6.4,8.3c1.2,1.8,1.8,3,1.8,3.7h0.3v-0.3C73.8,95.5,71.2,91.1,67.8,91.1z M68.8,114.8c0.1,1.3,0.5,2,1,2h1.1
		c7.7-2.3,15.1-3.4,22.3-3.4c6.7,0,13.6,1.2,20.5,3.7c1,0,1.8-0.7,2.4-2c0-3.5-7.9-5.8-23.7-6.8C76.6,109.3,68.8,111.4,68.8,114.8z
		 M92.8,109.6c6.9,0,14.1,1.4,21.5,4.1v0.7c0,0.5-0.2,0.8-0.7,0.8h-0.3c-7.4-2-14.2-3.1-20.5-3.1c-6.4,0-13.9,1-22.3,3.1l-0.3-0.8
		V114c2.1-1.5,7-2.7,14.8-3.6L92.8,109.6z M92.1,26.2C88.3,44,81.1,59.6,70.5,73.1C77.5,85.2,81,93,81,96.4c0.4,0,1.1,3.6,2.3,10.9
		H84V107c0-8.2-3.7-19.4-11.2-33.5c8.5-9.9,14.9-24.4,19.2-43.5h0.8c2.9,16,9.2,30.7,18.9,43.8c-5.5,10.1-8.6,18.8-9.4,26
		c-0.4,0.6-0.8,3.1-1.4,7.5h1.1V107c0-8.7,4-19.9,12.1-33.5v-0.3c-6.3-8.3-11.5-17.7-15.5-28.3c-2.9-8.1-5-14.2-6.2-18.6H92.1z
		 M75.6,73.1c0,1.2,3.1,6.4,9.4,15.6c3.8,8.3,5.7,13.6,5.7,15.8h0.3v-1c-1.5-10.3-3.7-18.2-6.7-23.6c-2.9-5.6-5.3-8.5-7.1-8.5h-0.3
		C76.5,71.6,76,72.1,75.6,73.1z M78.2,72.5c0.7,0,1.5,0.8,2.4,2.4c-0.2,0-0.3,0.1-0.3,0.3l-0.7-0.3h-0.8c0,1.5,0.7,3.3,2.1,5.4v0.7
		c-2.4-2.6-3.8-4.8-4.1-6.7v-0.8C76.9,73,77.3,72.6,78.2,72.5z M84,115.4v2.6c0,9.2-1.6,17.7-4.7,25.7c5.7,4.5,9.2,8.8,10.4,12.9
		c0.4,0,1.2,2,2.6,6h0.4c1.8-7.4,5.4-13.4,10.8-17.9l2-1c-3.2-7.3-4.7-15.3-4.7-24v-4.7h-0.7c-0.2,2.8-0.3,4.5-0.3,5.1
		c0,8.5,1.4,16.1,4.1,23c-5.1,3.2-8.8,8.5-11.1,16.2h-0.8c-2-6.7-5.5-11.8-10.4-15.5l-0.3-0.7c2.5-7.1,3.7-14.1,3.7-21v-7.4h-0.3
		C84.3,114.8,84,115,84,115.4z M80,66.1v0.3c0,1.1,2.6,7.2,7.7,18.2c1.5,3.4,2.7,8.3,3.7,14.5h0.3c0-9.2-2.7-20.6-8-34.2l-1.4-1
		h-0.3C80.6,64,80,64.7,80,66.1z M81.6,65h0.7c0.7,0.4,1.4,1.3,2.1,2.7c-0.2,0-0.3,0.1-0.3,0.3l-0.8-0.3h-0.7v0.3
		c0,1.6,0.5,3.5,1.4,5.7h-0.8c-1.5-3.3-2.3-5.4-2.3-6.4v-1.6C81,65.3,81.3,65,81.6,65z M82.3,94.1c3.8,7.7,5.7,12,5.7,12.9l2.4-0.3
		c-1.8-9.4-4.1-14.2-6.7-14.2h-0.4C82.9,92.5,82.6,93,82.3,94.1z M83.7,92.8h0.7c0.4,0,1,0.8,2,2.3h-1.6c0,0.2-0.1,0.3-0.3,0.3
		c0.4,1,0.7,2.1,0.7,3.1c-0.6,0-1.3-1.4-2.1-4.1v-1C83,93,83.3,92.8,83.7,92.8z M83.7,60v0.8c0,0.7,0.3,1.9,1,3.6H85V64
		c-0.4-0.8-0.7-1.7-0.7-2.6V60c0-0.3,0.3-0.6,1-1c1.1,0.6,1.6,1.5,1.6,2.7h-0.3L86,61.4c-0.2,0.4-0.3,0.8-0.3,1
		c0,0.9,0.2,2.2,0.7,4.1h-0.7c3.8,10.9,5.7,18,5.7,21.3h0.3v-0.4C90.2,67.8,88,58,85,58C84.1,58.2,83.7,58.9,83.7,60z M85,64.7V65
		c0.2,0.4,0.3,0.8,0.3,1.1h0.3v-0.3c-0.2-0.4-0.3-0.8-0.3-1.1H85z M85,98.5h0.3v0.7H85V98.5z M89.8,114.3v1.8
		c0,3.1-1.4,8.8-4.1,17.2c-0.2,0.2-0.4,1.7-0.7,4.4c0,2.7,2.2,7.5,6.7,14.5l0.3,1.3c5-7.9,7.5-13.3,7.5-16.2v-0.8
		c0-1.2-1.4-6.5-4.1-15.8c-0.4-1-0.7-2.5-0.7-4.4v-2.1H89.8z M85.4,99.2h0.3v0.7h-0.3V99.2z M92.1,119.2h0.8
		c0.2,10.3,0.3,18.2,0.3,23.6v2.3c2.7-2.3,4.1-5.2,4.1-8.8v-2.6h0.7c0.2,2.8,0.3,4.4,0.3,4.7c0,3.3-1.9,7.1-5.8,11.4
		c-4-4.2-6-8.3-6-12.4v-3.1H87v0.3c0,4.5,1.5,7.9,4.4,10.4h0.3l-0.3-0.7C91.4,139.8,91.6,131.3,92.1,119.2z M92.1,39.8
		C89.3,47.9,88,52.8,88,54.6c2.7,10.5,4.1,17.9,4.1,22v1c0.1,0.4,0.3,0.7,0.8,0.7v-0.3c0-3.2,1.3-10.8,4-22.6v-0.3
		c0-2.2-1.5-7.3-4.4-15.2H92.1z M92.1,44.5h0.8c2,4.9,3,8.4,3,10.4c-0.4,3.6-0.7,5.5-0.7,5.8h-0.7v-0.4c0-0.9,0.1-1.8,0.3-2.6
		c-0.4-4.3-1-6.5-1.6-6.5v1.4c0,1.1-0.1,2.8-0.3,5.1h-0.8l-0.7-6.2h-0.3c-0.4,2.1-0.7,3.5-0.7,4.4V58l0.3,3.4h-0.7
		c-0.7-3.6-1-6.1-1-7.5C89.1,52.7,90.1,49.5,92.1,44.5z M93.2,85.3v2h0.3c0-3.9,2.6-12.9,7.7-27V60c-0.3-1.1-0.6-1.6-1-1.6h-1
		C96.4,59.6,94.4,68.6,93.2,85.3z M93.2,97.5v1.3h0.3c0-5.2,3.7-15.7,11.1-31.4V65c0-0.3-0.3-0.6-1-1h-0.3c-2.1,0-4,3.6-5.7,10.9
		C94.6,83.8,93.2,91.4,93.2,97.5z M93.5,104.2v0.3h0.3c0.5-5.7,5.5-15.6,14.8-29.7l0.3-2.1c-0.3-0.9-0.6-1.3-1-1.3h-1.3
		c-3.2,2.6-6.1,7.2-8.8,13.8C96.3,90,94.8,96.3,93.5,104.2z M94.1,106.7l2.3,0.3c1.1-2.8,2.5-5.5,4.1-8.1v-0.3h-0.3l-0.7,1.6h-0.7
		v-0.3c0.9-1.3,1.3-2.7,1.3-4.1c0-0.4-0.2-0.7-0.7-0.7h-1c0.4-1.3,1.3-2,2.6-2c0.5,0.1,0.8,0.3,0.8,0.7v1l-0.8,2.4v0.3h0.3
		c0.5-2,0.9-3.1,1.1-3.1c-0.3-1.1-0.7-1.6-1.1-1.6h-1.3C98.4,92.8,96.4,97.4,94.1,106.7z M98.9,59.3h0.7c0.4,0,0.7,0.5,1,1.4
		c-0.7,3.6-1.3,5.4-2,5.4v-0.3c0.2-1.9,0.4-3,0.7-3.4c-0.2-0.7-0.4-1-0.7-1h-1C98.1,60,98.5,59.3,98.9,59.3z M102.6,65h0.3
		c0.5,0,0.8,0.6,1,1.8c0,2.2-1,4.4-3.1,6.7v-0.7c0.4-0.7,0.9-2.2,1.4-4.7c-1.2-0.2-1.8-0.4-1.8-0.7C100.9,66.4,101.6,65.6,102.6,65z
		 M106.3,72.5h0.7c0.4,0.1,0.7,0.3,0.7,0.7v1.4c0,1.4-1.2,3.4-3.7,6V80c1.1-1.9,1.6-3.3,1.6-4.1v-1h-1.3v-0.3
		C104.3,74.2,104.9,73.5,106.3,72.5z M105.2,108c0.5,0,1,0.1,1.4,0.3c3.3-16.4,10.7-24.6,22.3-24.6c6.9,0,11.6,3.1,14.2,9.4
		c0.2,0.9,0.3,1.8,0.3,2.6c0,5.3-2.6,9.8-7.8,13.5c0-0.2-0.1-0.3-0.3-0.3c0.4-1,0.7-2.5,0.7-4.7c-0.7-6.5-4-9.8-9.8-9.8h-2.4
		c-7,0-11.9,4.5-14.8,13.5c0,0.7,0.1,1,0.3,1l1.8,0.3c2.1-7.8,6.3-11.8,12.7-12.1h0.8c6.5,0.7,9.8,3.8,9.8,9.1c0,1.1-0.6,3-1.8,5.7
		c9-3.4,13.5-8.9,13.5-16.6c0-6.4-4-10.9-12.1-13.5c-0.1,0-1.6-0.1-4.4-0.3C116.7,81.6,108.6,90.4,105.2,108z M105.2,115.8v1.3
		c0,7.8,3.4,13.4,10.2,16.6c1,0.4,2.4,0.7,4.4,0.7h0.3c5.6,0,9.4-3,11.4-9.1c-3.2,2.7-6.3,4.1-9.4,4.1c-5.6,0-9.4-2.9-11.4-8.8
		c-0.4-2.5-0.9-3.7-1.4-3.7c-0.2,0-0.5-0.1-1-0.3v0.3c1.5,9.7,6,14.5,13.5,14.5h1.3l1.8-0.3v0.7l-5.1,1.1c-6,0-10.3-4.1-12.9-12.2
		c-0.4-3.1-0.9-4.7-1.4-4.7H105.2z M109,104.2v0.3h0.3c0.1-1.8,2.7-5.5,7.8-11.1c0.2-0.4,0.3-0.8,0.3-1c-0.2-1-0.7-1.4-1.3-1.4
		c-1.8,0-3.9,2.8-6.2,8.5C109.3,102.4,109,103.9,109,104.2z M116.1,95.8h0.3c2.1-1.6,6.7-3,13.8-4.1c0.7-0.6,1-1.2,1-2h0.3
		c-0.7-1.6-1.6-2.4-3-2.4C124.5,87.3,120.3,90.1,116.1,95.8z M127.9,93.8c4.2,0,7.3,2.7,9.4,8.1l1.4,0.3c1.5-0.7,2.3-1.7,2.3-3.1
		c0-3.4-2.8-5.6-8.5-6.4h-0.3C129.3,92.8,127.9,93.1,127.9,93.8z"/>
</g>
</svg>
