<?xml version="1.0" encoding="utf-8"?>
<!-- Generator: Adobe Illustrator 21.1.0, SVG Export Plug-In . SVG Version: 6.00 Build 0)  -->
<svg version="1.1" id="Layer_1" xmlns="http://www.w3.org/2000/svg" xmlns:xlink="http://www.w3.org/1999/xlink" x="0px" y="0px"
	 viewBox="0 0 825 825" style="enable-background:new 0 0 825 825;" xml:space="preserve">
<path d="M411.2,90.9c0.6,0.1,1.7,0.2,2.2,0.3c1.4,6.4,4.1,12.5,7,18.4c10.5,21.2,23.2,41.2,35.8,61.1c13.3,20.9,27.4,41.3,41.2,61.8
	c7.5,16.5,11.1,34.6,13.5,52.5c0.2,6.7-1.2,13.3-2.3,19.8c-4.3,21.9-10.6,43.4-17,64.7c-8.5,28.1-17.9,56-27.1,83.8
	c-4,24.2-7.4,48.6-11.3,72.9c1.5,0.7,2.9,1.3,4.4,2c8.5-43.4,19.3-86.5,36.1-127.4c8.1-19.7,17.6-38.9,29.2-56.8
	c9-13.7,19-26.8,31.1-37.9c15.7-14.5,33.5-27.3,53.8-34.4c18.7-6.8,39.3-7.7,58.6-3c14.2,3.4,27.5,10.7,38,21
	c12.2,11.6,20.9,26.4,27.2,42c5.5,18.7,6.3,38.8,1.9,57.7c-4.3,18.6-13.7,35.8-25.6,50.6c-20.5,25.3-47.4,44.4-75.3,60.7
	c-12.6,6.8-24.2,15.5-34.3,25.8c-10.6,10.9-18.9,24.8-20.7,40.2c-1.2,6.4,1,12.7,3.5,18.5c3.9,8.9,11.5,16.2,21,19
	c8.3,2.8,17.2,1.8,25.8,1.9c-0.1-1.5,0-3-0.2-4.5c-3.7-5.8-9.2-10.2-13.2-15.7c-0.2-7.5,0-15.5,3.8-22.3c3.2-5.7,10.1-9,16.5-8.2
	c5.2,3.4,9.7,8,12.5,13.6c2.7,5.3,2.9,11.3,2.7,17.1c-5.8,5.2-10.7,12-11,20c7.4-4.8,14.3-10.3,21.6-15.2
	c10.7-1.2,20.8,5.9,26.3,14.7c0.9,2.4,0.4,5.1,0.3,7.6c-4.7,7.3-12.2,13.3-21.1,14.6c-1.9,0.1-3.9,1-5.7,0c-7.8-5-15-11.1-23.5-14.8
	c0.2,1.8-0.5,4,1.1,5.2c5.3,5.8,10.8,12.3,11.8,20.4c0.2,7.2-3.2,14.2-8.4,19.2c-3.2,3-6.5,7.2-11.4,5.8
	c-6.2-2.4-11.3-7.5-13.6-13.8c-2-5.2-2.2-10.8-2-16.3c-0.1-1.3,0.8-2.3,1.5-3.2c3.6-4.7,8-8.8,11.8-13.3c0.1-1.3,0.2-2.6,0.3-3.9
	c-11.3-0.5-22.7,0.8-33.8-1.8c-10.6-2.2-21.1-7.6-27.1-17c-7.4-11.4-8.6-25.7-7-38.9c2.7-17.8,8.3-35.1,14-52.1
	c10.8-31.4,23.3-62.2,36.1-92.9c2.4-9.5,2.8-19.4,2.6-29.1c-0.2-7.1-3.3-14.4-9.6-18.1c-8.3-5-18.6-4.6-28-4.5
	c-12.4,0.2-24,6.4-32.7,15c-12.5,11.8-21.3,26.8-29,42c-16.7,34.2-27.8,70.9-37.4,107.7c-0.1,1.7-1.2,4.2,0.2,5.6
	c4.3,0.2,8.5-0.1,12.8,0.1c2.2,0,4.5,2,4.2,4.3c0,6.3-3.3,11.8-6.3,17.1c0.2,3.2,4.4,5.3,4.1,8.9c-0.1,4.7-1.8,9.2-4.1,13.2
	c5.6,4.1,5.2,11.7,6.4,17.9c-5.7,4.4-13.1,1.8-19.7,2.6c6.2,17.5,16.4,34.2,31.6,45.2c12.9,9.5,28.9,13.9,44.8,14.1
	c9.4,0.5,18.9-1.5,27.3-5.6c4.6-2.2,8.2-6.4,8.6-11.6c1.5-0.1,2.9-0.1,4.4-0.1c0.4,8.3-1,17.5-7.5,23.2c-10,8.7-24.1,9.9-36.8,9.8
	c-19.7,0.5-39.9-4.9-55.5-17.2c-15.3-11.8-25.5-29-32.1-47c-1.1-3.1-0.5-8.4-5-8.7c-1.1,14.6,4.1,28.9,11.4,41.4
	c11.5,19.6,27.6,35.9,44.1,51.4c-7.4,3.9-15.7,4.8-23.9,4.4c-11.2,0.7-20.7-6.5-29.3-12.8c-0.7,5.5-3.6,10.3-6.8,14.7
	c-8.7,12.1-19.6,22.4-30.1,32.9c-1.5,3.2-4.2,5.6-7.3,7.3c-2.4-5.1-6.5-9.2-10.2-13.3c-8-8.7-16.7-16.6-25.3-24.7
	c-4.8-4.2-6.3-10.9-6.4-17c-8.4,7.4-19,13.4-30.5,12.9c-7.7,0.4-15.3-1.4-22.9-2.4c0.3-1.1,0.3-2.5,1.3-3.3
	c13.7-12.7,26.9-26.1,37.2-41.8c8.9-13.4,15.8-28.6,17-44.8c0.1-2.7,0.7-5.4-0.5-7.9c-2.5,1.9-1.4,5.3-2,8
	c-2.2,16-12.3,29.6-24.1,40c-9.4,8.2-19.9,15.4-31.1,21.1c-15.9,5.1-32.9,8.1-49.6,5.9c-6.9-1.1-13.9-3.4-19.4-8
	c-7-5.8-10.7-15.2-10.2-24.3c1.4,0,2.9-0.1,4.3-0.1c1.5,5.8,5,11.2,10.4,13.8c7.5,3.9,16.2,3.7,24.4,3.6c15.7,0,31.6-4.3,44.6-13.3
	c12.7-8.7,22.1-21.4,29-35c1.4-2.9,3.1-5.7,3.5-8.9c-5.9-0.8-12.1-1.5-17.4-4.3c-2.6-1.1-1.8-4.1-1.3-6.2c1-4.9,3.6-9.1,6-13.4
	c-0.8-2.7-3-4.6-4.2-7.1c-0.3-2.1-0.3-4.3,0-6.5c1.2-2.3,2.8-4.4,4.3-6.5c-3.7-6-6.5-12.7-6.8-19.8c5.1-3.8,11.6-1.9,17.4-2.3
	c-2.9-18.8-7.8-37.3-13.4-55.5c-10.7-33.6-26.2-66.1-47.8-94.1c-7.7-7.1-16.3-13.4-25.7-18.2c-5.3-2.5-11.1-4.9-17.1-4.5
	c-8.6,2-17.2,4.5-24.8,9c-4.1,2.5-8,6.5-8,11.6c0,8.1-0.6,16.4,1.5,24.3c5,20.2,12.6,39.6,20,59c7,17.9,14.2,35.6,21.7,53.3
	c1.6,3.9,3.5,7.6,4.3,11.8c3.4,16,6.9,32.3,5.4,48.8c-1,9.9-4.9,20-12.5,26.7c-6.6,5.8-15.1,9-23.6,10.5c-10.6,2-21.4,0.8-32.2,1.3
	c0.1,1.3,0.2,2.6,0.4,3.9c4,5,8.8,9.4,12.4,14.7c0.9,2.7,0.4,5.7,0.2,8.5c-1.2,7.3-2.8,15.4-8.6,20.5c-2.9,2.2-7.3,4.2-10.6,1.9
	c-6.1-3.4-11.8-8.1-14.3-14.7c-1.4-3.7-2.3-8-0.8-11.8c3.1-8.2,8.2-15.4,12.4-23c-6.9,3-13,7.7-19.2,12c-2.3,1.4-4.4,4-7.4,3.2
	c-9-0.6-17.1-5.7-22.2-13c-2.3-2.4-1.4-5.9-1.4-8.9c5.1-9.4,15.4-16.3,26.3-15.7c7.4,5.4,14.7,12,24.1,13.5
	c-2.5-7.1-8.8-12-13.2-18.1c-1.2-12.2,4.9-25.5,16.2-31c5.4,0.1,11.1,2.2,14.3,6.8c4.8,7,5.2,16,4.7,24.2
	c-3.7,4.9-8.4,9.1-11.9,14.2c-1.4,1.6-0.8,3.8-1,5.7c12.9,0.5,26.7-0.5,37.6-8.1c8.4-5.7,12.4-15.8,13-25.6
	c1.1-11.7-4.1-22.8-10.8-32c-10.2-14-23.6-25.3-37.3-35.7c-14.1-10.5-28.9-20-44.1-28.9c-3.3-2-6.8-3.7-9.7-6.2
	c-19.6-16.3-37.3-35.9-47.6-59.5c-10.2-22.8-11.7-48.8-6.8-73c3.5-17.1,12.2-33.3,25.5-44.8c16.7-14.6,38.5-21.7,60-25.2
	c9.5-1.9,19.3-0.5,28.8,1.2c23.8,4.7,45.2,18,62.3,35c22,21.7,38.3,48.5,51.8,76.2c15.5,32,27.3,65.6,37.3,99.7
	c5.2,16.2,6.8,33.2,10.2,49.9c0.5,0,1.6,0.1,2.2,0.1c1-25.2-4.2-50.1-10.1-74.4c-9.2-37.4-21.1-74.1-33.4-110.6
	c-6.7-18.2-10.3-37.4-12.2-56.7c0.2-17,5.2-33.5,12.1-48.9c11.2-25,27-47.6,44-69c4.9-5.6,8.7-12.1,12.6-18.4
	C394,131.7,403.4,111.6,411.2,90.9z"/>
</svg>
