<?xml version="1.0" encoding="utf-8"?>
<!-- Generator: Adobe Illustrator 21.1.0, SVG Export Plug-In . SVG Version: 6.00 Build 0)  -->
<svg version="1.1" id="Layer_1" xmlns="http://www.w3.org/2000/svg" xmlns:xlink="http://www.w3.org/1999/xlink" x="0px" y="0px"
	 viewBox="0 0 825 825" style="enable-background:new 0 0 825 825;" xml:space="preserve">
<path d="M402,96.9c5-2.7,11.3-4.3,16.7-1.8c6.9,2.4,14.1,6.7,16.5,14.1c1.8,6.3,1.7,13.5-1.5,19.3c-2.2,4-5.2,7.4-8.1,10.8
	c21.7,36.5,43,73.4,60.5,112.1c5.4,11.2,6.7,23.9,7.9,36.1c-0.4,9.5-2.8,18.8-5.6,27.8c-9.1,27.8-21.6,54.3-34.4,80.5
	c-5.4,11.2-11.6,22-16,33.7c-7.6,19.2-14.7,38.9-16.6,59.6c-0.3,18.6,0,37.2-0.1,55.9c-0.1,1.8-1,4.2-3.1,4.2c-4.3,0.2-8.7,0.1-13,0
	c-1.4,0.1-2.2-1.2-3.3-1.8c0-19.1,0-38.2,0-57.4c0.6-0.3,1.7-0.9,2.2-1.2c-1.5-12.6-6.1-24.6-10.3-36.5
	c-18-47.9-39.6-94.3-60.8-140.9c-0.3-7.2-0.6-14.4-1.7-21.6c-0.9-5.9,0.4-11.9,1.4-17.7c3.4-16.1,10.1-31.3,17.2-46.1
	c13.5-27,29.8-52.6,46.6-77.6c1.2-4,2.6-8,5-11.5c-6-4.8-11.2-11.9-10.5-19.9C391.9,109.3,394.9,101,402,96.9z"/>
<path d="M244.5,365.3c6.1-1.1,12.2-2.4,18.4-2.9c13.5-0.2,27.1-0.1,40.3,3.1c19.2,4.4,37,14.7,50.2,29.4
	c14.2,15.5,23.7,34.8,30.3,54.6c9.5,31.8,13.1,65,15.8,98c-5.3,3-11.6,1.3-17.4,1.8c-3.5-6-5.7-12.6-8.3-19
	c-4.8-12.4-9.3-24.8-13.8-37.3c-1.5-5.2-5.4-9.1-8.7-13.2c-10.1-11.9-24.2-20.8-39.9-22.4c-7.2-1-14.3,0.7-21.1,2.8
	c-6.5,2.3-13.3,6.1-16.1,12.9c-2.2,5.6-2,12-0.6,17.9c2.6,8.5,9.5,14.8,16.6,19.8c2.7-2.1,5.5-4.1,8.2-6.2c3.6,0.2,8.3-1.2,10.6,2.5
	c3,2.9,2.2,7.3,2.2,11.1c0.4,3.9-3.4,6.4-6.5,7.9c-3.8-0.1-8.1,0.9-11.5-1c-3-3.1-2.9-7.8-3.3-11.9c-1.8,0.8-3.5,2.2-5.6,2.1
	c-13.8,0-27.7,0.5-41.3-1.7c-19.3-2.8-38.4-10.9-52-25.3c-11.5-12-18.8-27.5-22.9-43.5c-1.2-4.1-0.5-8.4-0.3-12.6
	c1.3-16.1,8.8-31.7,21.1-42.2C204.4,376.2,224.6,369.5,244.5,365.3z"/>
<path d="M540.5,363.1c19.3-1.6,39.1-0.7,57.5,5.9c18.1,6.2,34,18.5,44.9,34.2c6.7,9.8,13,20.6,14.2,32.7
	c1.3,16.9-4.2,34.6-16.2,46.9c-13.5,14.3-32.2,22.2-50.8,27.3c-11.4,3.1-23.1,5.4-34.9,6.7c-7.5-0.5-15-1.2-22.4-1.9
	c-0.1,4.3-0.9,9.6-5.3,11.5c-5.1,2.8-10.5-0.9-14.3-4.1c-2.7-2.5-2.2-6.4-2-9.6c0.5-3.5,3.9-5.5,6.5-7.4c1.8-1.7,4.4-1,6.7-1.2
	c2.8,1.9,5.5,4.2,8.4,6.1c3.2,1.1,6.4-1,8.3-3.4c4.3-5.2,6.6-11.6,8.9-17.9c0.8-2.7,2.3-5.4,2-8.2c-0.4-5.5-3.8-10.4-8.3-13.4
	c-7.1-4.8-15.7-6.6-24-7.7c-13-2.3-26.6,2-36.8,10c-11.1,8.9-18.7,21.3-24.5,34.1c-6.2,13.9-10.3,28.6-13.6,43.4
	c-4.5,2.5-9.7,1.7-14.7,1.8c-2.5,0.3-4.8-0.9-7-1.9c2.5-20.2,4.9-40.5,8.6-60.5c3.2-17.1,6.8-34.1,12.7-50.4
	c3.3-9.1,7.4-18,13.7-25.4c8.6-12.5,19.5-23.5,32.5-31.5C505.4,370,522.9,364.9,540.5,363.1z"/>
<path d="M368.5,552.3c5.5-0.8,11.6-2,16.5,1.4c0.4-0.6,1.1-1.7,1.5-2.2c5.5,0.5,10.9,1.8,16.4,2.2c17,0,34,0,51.1,0
	c6.8-0.1,13.4,4.2,16.3,10.3c0.2,3.6,0.3,7.3-0.1,10.9c-1.9,2.8-5.2,4.2-8.3,5.1c-7.7,2.3-15.8,3-23.7,3.6c-0.1-0.7-0.3-2-0.4-2.7
	c-0.5,0.7-1.5,2-2,2.6c-2.7-0.7-5.4-1.5-8.1-2.1c-4.4-0.8-8.2,3-12.6,1.7c-15.6-2.8-31.4-1.5-47.1-1.8c-6.6,0-12.7-4.4-15.4-10.4
	c-0.4-3.6-0.1-7.4,1.9-10.5C357.3,555.5,363.2,553.4,368.5,552.3z"/>
<path d="M382.2,588c3.7-2.6,9.4-3.5,12.9,0c0.6,19.5,0.1,39.5-5.8,58.4c-4.1,13.2-11.7,25.8-23.4,33.6c-8.1,5.8-18.1,8.5-27.9,9.1
	c-8.8-0.4-17.8,1-26.3-1.5c-11.4-2.8-23.1-7.2-31.5-15.7c-6.8-7-10.4-16.9-9.8-26.6c2.1-12.1,8.1-24,18.2-31.4
	c8.6-6.5,19.3-9.4,29.9-10.5c5.6-1,11.5,0.4,16.9-1.6c3.1-1.1,5.6-3.2,8.1-5.2c4.2,0.8,9.5,0.9,12.4,4.6c0.8,2.9,0.3,6,0.4,9
	c0.5,3.9-3.3,6.5-6.4,8c-3.3,0.2-6.6,0.3-9.9-0.1c-3.9-2-4.4-6.9-5.5-10.7c-5.8,2.9-6.3,10.1-6.1,15.8c-0.4,3.2,2.6,5,4.9,6.5
	c2.6,1.5,5.2,3.7,8.4,3.3c5.9-0.1,11.9,0.1,17.9-0.1c5.5-0.9,9-5.8,11.6-10.3C377.1,611.8,379.8,599.8,382.2,588z"/>
<path d="M404.1,585.8c5.3,0.4,11-1.1,16,1.1c0.5,2,1,4,0.9,6c0,15,0,30.1,0,45.1c-0.3,4.3,2.5,7.9,4.4,11.5
	c11.1,18.8,23.8,36.6,36.2,54.5c-15.7,9.9-31.3,20-47,30c-2.9-0.2-6.1,0.7-8.7-1c-12.2-7.4-24.5-14.7-36.2-23
	c-3.3-2.4-6.7-4.9-9.3-8.1c13.3-18.9,26.4-37.8,39.7-56.7c0.6-1,1.5-2,1.4-3.2c0.1-17.3-0.1-34.7,0-52
	C401.5,588.2,403.1,587.1,404.1,585.8z"/>
<path d="M427.7,589.9c-0.1-1.6,0.7-3.5,2.4-3.9c2.9-0.3,5.9-0.1,8.8-0.1c5.4,12.3,8.1,25.5,12,38.3c5.6,5.8,13.5,9.1,21.3,10.8
	c5.6-0.3,11.3-1.8,16.1-4.8c4.9-2.9,7.9-8.6,7.7-14.3c-2.9-2.8-5.6-5.6-8.4-8.4c-0.1,3.7-0.3,9.2-4.7,10.5c-3.2,0.4-6.6,0.2-9.8,0.2
	c-3.7,0.2-5.6-3.7-6.9-6.6c-0.2-3.1,0-6.3-0.1-9.4c2.7-4.6,8.1-5.9,13.1-5.6c4.9,3.1,10.6,4.6,16.2,6.3c11.1,3.1,22.3,5.7,33.6,8
	c2.5,0.5,4.2,2.6,6,4.2c7.1,6.9,14.6,14.7,16.8,24.8c1.2,10.5,0.6,22.4-6.9,30.7c-10.7,11.9-27,16.2-42.2,19.1
	c-11.5,2.7-23.7,0.9-34.6-3.3c-14.2-5.6-24.8-17.9-30.6-31.8C428.8,634.2,427.2,611.8,427.7,589.9z"/>
</svg>
