<?xml version="1.0" encoding="utf-8"?>
<!-- Generator: Adobe Illustrator 21.1.0, SVG Export Plug-In . SVG Version: 6.00 Build 0)  -->
<svg version="1.1" id="Layer_1" xmlns="http://www.w3.org/2000/svg" xmlns:xlink="http://www.w3.org/1999/xlink" x="0px" y="0px"
	 viewBox="0 0 182.2 182.2" style="enable-background:new 0 0 182.2 182.2;" xml:space="preserve">
<g>
	<path d="M92.1,12.9H93c0.8,6.2,6.5,15.9,17.1,29.1c4.6,6.2,6.9,12.6,6.9,19.3h-0.6c0,0.3,0.2,0.4,0.6,0.4c0,8.2-5.2,18.2-15.7,30
		c-3.4,6.7-5.1,13.6-5.1,20.8v5.5H98v-1.3c0-17.1,7.4-29.7,22.2-37.9c4-1.8,7.8-2.7,11.5-2.7h4.2c10,0,17,5.2,20.8,15.7
		c0.6,1.7,0.9,3.8,0.9,6.5c-1.4,12.9-6.9,19.3-16.6,19.3h-2.7c-8.9-1.5-13.4-5.2-13.4-11.1v-3.2h0.4c1.5,2.8,3.6,4.2,6,4.2
		c2.1-1,3.2-2.3,3.2-4.2c0-3.4-2.6-5.6-7.8-6.5H123c-8.3,0-14.4,5.4-18,16.2c-0.3,2.1-0.4,3.8-0.4,5.1v1.4c5.3,1.5,7.9,3.1,7.9,4.6
		v0.9c0,3-1.2,5.2-3.7,6.5c-0.4-0.3-1.2-0.4-2.3-0.4c3.1,6.4,6.7,9.7,10.7,9.7h0.9c2.5,0,3.9-1.5,4.2-4.6c0-0.4-0.6-2-1.9-5.1h0.4
		c5.3,2.1,7.9,5.3,7.9,9.7v1.9c0,6.5-4.2,10.4-12.5,11.5c-8.1,0-14-8.3-17.5-24.9h-2.9v0.4c0,12.9,2.9,21.1,8.8,24.5
		c0.7,0.1,1,0.4,1,0.9c-7.5,9.4-12,14.7-13.4,15.7c-8.3-10.1-12.5-15.5-12.5-16.1V154c6.5-3.2,9.8-11.5,9.8-24.9h-2.9
		C83,145.7,77.1,154,69,154c-5.9,0-10.1-3.1-12.4-9.2v-4.2c1.1-6.2,3.8-9.2,8.2-9.2c-1.2,2.3-1.9,4-1.9,5.1c0.4,2.8,1.8,4.2,4.2,4.2
		H68c4.2,0,7.8-3.4,10.7-10.1h-0.4l-1.9,0.9c-1.4,0-2.6-1.8-3.7-5.5V124c0-1.5,2.6-3.1,7.9-4.6V118c0-10.9-5.5-18-16.6-21.2h-5.6
		c-5.2,0.9-7.8,3-7.8,6.5c0.4,2.8,1.8,4.2,4.2,4.2c1.6,0,3.3-1.4,5.1-4.2h0.4v3.2c0,5.7-4.3,9.4-12.9,11.1h-4.2
		c-6.7,0-11.6-4.3-14.8-12.9c-0.6-2.9-0.9-5.3-0.9-7.5c0-9.6,5.2-16.3,15.7-20.2c1.4-0.7,3.4-1,5.9-1h4.2c11.9,0,21.9,7.4,30,22.2
		c2.5,5.3,3.7,11.9,3.7,19.8h1.8v-5.5c0-11.6-4.3-21.8-12.9-30.4c-5.3-8-7.9-14.6-7.9-19.9h0.5L68,61.3c0-9.2,5.6-19.8,16.7-31.9
		C89.6,20.8,92.1,15.3,92.1,12.9z M39.9,95.5c0,4.4,2,7.8,6,10.1h0.4c-1.5-1.7-2.3-3.5-2.3-5.5v-3.3c0-6.7,4.9-10.5,14.8-11.5h1.3
		c3,0,6.2,0.9,9.7,2.7v-0.4c-5-3.7-9.7-5.5-14.3-5.5h-4.2C43.7,83.3,39.9,87.8,39.9,95.5z M60.2,136.9v3.7c0.9,3.4,3.3,5.1,7.4,5.1
		c4.1,0,7.8-2.7,11.1-8.2v-0.5h-0.4c0,2.9-3.4,5.2-10.2,6.9h-0.4c-4.6,0-6.9-2.3-6.9-6.9H60.2z M75.9,124.9v1c0,0.4,0.4,0.9,1.3,1.3
		c3.2-0.9,6.5-1.3,9.8-1.3h10.1c3.5,0,7.2,0.4,11.1,1.3c0.6-1,0.9-1.9,0.9-2.7c-3.3-2.1-8.8-3.2-16.6-3.2h-0.4
		C82.1,121.6,76.7,122.8,75.9,124.9z M93,26.7V118h0.4c0-17.9,3.1-29.4,9.2-34.6c6.2-8.6,9.2-15.5,9.2-20.8v-2.7
		c0-7.5-5.1-16.4-15.2-26.7c-2.2-3.9-3.3-6-3.3-6.5H93z M93,129.1v36.5h0.4c0.6-1.1,3.1-4.7,7.5-10.7c-5-2-7.5-9.1-7.5-21.2v-4.6H93
		z M124.8,137.4c0,4.2-2.3,6.4-6.9,6.4c-4.1,0-7.3-2-9.7-5.9h-0.4v0.4c2.9,5.6,6.2,8.3,10.1,8.3c5.2,0,7.8-2.3,7.8-6.9l-0.4-2.3
		H124.8z M123,82.1v0.4l3.3-0.4h2.7c11.4,1.6,17,6.8,17,15.7v3.6c0,5.6-3.2,8.7-9.7,9.2c0,0.8,1.8,1.4,5.5,1.9
		c6.4,0,10.1-4.6,11.1-13.8c0-11.1-6.6-17.2-19.8-18.5h-1.9C129.3,80.2,126.5,80.8,123,82.1z"/>
</g>
</svg>
