<?xml version="1.0" encoding="utf-8"?>
<!-- Generator: Adobe Illustrator 21.1.0, SVG Export Plug-In . SVG Version: 6.00 Build 0)  -->
<svg version="1.1" id="Layer_1" xmlns="http://www.w3.org/2000/svg" xmlns:xlink="http://www.w3.org/1999/xlink" x="0px" y="0px"
	 viewBox="0 0 182.2 182.2" style="enable-background:new 0 0 182.2 182.2;" xml:space="preserve">
<g>
	<path d="M87.5,10c2.8,0.7,4.2,2.9,4.2,6.7C80.9,30.7,75.5,42.2,75.5,51v0.5c0,7.5,3.6,22.3,10.9,44.6c1.4,6.6,2.1,10.9,2.1,13h1.1
		c0-6.1-3.8-22.7-11.4-49.8c0-1.8-0.2-4.4-0.5-7.8c0-10,5-21,15.1-33.2c10,11.8,15.1,22.3,15.1,31.6v2.1c0,6.4-3.3,20.9-9.9,43.6
		c-1,5.2-1.5,9.2-1.5,11.9v1.5h0.5c0-4.6,4.1-20.9,12.4-48.8c0.4-3.5,0.5-6.3,0.5-8.2c0-10-5.2-21.5-15.6-34.3l-0.5-2.1
		c0-2.3,1.1-4,3.2-5.2h3.1c0.6,0,1.3,0.7,2.1,2.1v2.1c0,0.4-0.5,1-1.5,1.5c-1.8,0-2.9-0.5-3.1-1.5c0-0.9,0.7-1.4,2-1.6v-0.4h-2
		c-1.4,0.5-2.1,1.7-2.1,3.6v1c11.1,13.2,16.6,24.4,16.6,33.7v1.5c0,6.9-3.6,22.1-10.9,45.7l-1.6,10.9h0.5c0.6,0,2-4.5,4.2-13.4
		c8.6-22.6,18.7-37,30.1-43.2c3.6-1.3,6-2,7.2-2h3.1c4.5,0,8.7,3.1,12.5,9.3c0.7,3.1,1,5.3,1,6.7v4.7c0,5.8-3.1,18.4-9.3,37.8
		c0.9,2.7,1.9,4.3,3.2,4.7c0.7-0.4,1.2-0.5,1.5-0.5v0.5c-1.1,2.1-2.3,3.1-3.6,3.1c-2.9,0-5.1-1.5-6.8-4.6c-1.4,0.7-2.6,1-3.6,1
		c-3.4-0.8-5.2-2.5-5.2-5.2v-1.5c0-1.2,0.5-2.4,1.5-3.6v-0.5h-0.5c-4.9,0-8.7,2.9-11.4,8.8c2.8,2,4.2,4.1,4.2,6.3v2.1
		c0,1.7-1.4,3.9-4.2,6.7c3.7,7,7.4,10.4,11,10.4h1v-0.5c-0.7-1.1-1-2.1-1-3.1v-1.5c0.5-3.1,2-4.7,4.6-4.7l3.2,0.5
		c0-2.2,2.2-3.6,6.7-4.2c1.1,0,2.3,1.2,3.6,3.6c-0.4,0-0.5,0.2-0.5,0.5l-1-0.5h-0.5c-2.3,0-4,6-5.2,18.1c-2.8,4-4.9,7.9-6.3,12
		c-6.3,7.6-13.2,11.4-20.8,11.4c-8.3,0-14.1-4.8-17.6-14.5h-0.5c-1,3.4-3.6,7.2-7.8,11.4h-0.5c-4-4-6.4-7.7-7.2-11h-1
		c-3.2,9.4-8.9,14.1-17.1,14.1c-10.3,0-17.9-5.3-22.9-16c-4.2-6.9-6.3-14-6.3-21.3c-1.3-2.8-2.5-4.2-3.6-4.2h-1.5
		c0.7-2.4,2.2-3.6,4.6-3.6c3.8,1,5.7,2.4,5.7,4.2l3.2-0.5c3.1,1.1,4.6,2.8,4.6,5.2v1.1c0,1.2-0.5,2.4-1.5,3.6h1.5
		c3.7,0,7.4-3.5,11-10.4c-3.5-1.8-5.3-4-5.3-6.7v-2.1c0-2.7,1.8-4.9,5.3-6.7c-3.3-5.6-7.1-8.3-11.4-8.3H49c1.4,1.8,2.1,3.4,2.1,4.6
		v2.1c-1.4,2.8-3.5,4.2-6.3,4.2l-2.5-1c0,1.7-2.1,3.2-6.3,4.6c-2.8-0.5-4.2-1.7-4.2-3.6h0.5l1,0.5c1.5-1.7,2.5-3.3,3.2-4.7
		c-6.6-19.7-9.9-33.4-9.9-41c0-10,4.8-15.9,14.5-17.6h1.1c13.8,0,26.6,14.9,38.3,44.6c1.8,4.8,3,9.4,3.6,14h1.6
		c0-4.5-3.7-19.4-11-44.6c-1-3.8-1.5-8.1-1.5-13c0-9.5,5.5-20.9,16.6-34.3v-2.5c0-0.6-0.7-1.3-2-2.1h-1.6l1.6,2.1
		c0,0.4-0.5,1-1.6,1.5h-1.5c-0.5,0-1-0.5-1.5-1.5v-2.1C83.3,11.8,84.7,10.9,87.5,10z M30.9,75.3c0,4,2,13.2,6.2,27.6h0.5
		c0-9.1,3.3-15,9.9-17.7h2.6c7.5,0,13.4,7.9,17.6,23.8h13c-3.8-16.6-10.9-30.5-21.2-42c-5.6-5.2-10.8-7.8-15.6-7.8
		c-7.4,0-11.7,5.2-13,15.6V75.3z M66.2,127.8c-3.4,17-9.1,25.5-17.1,25.5c4.5,5.2,9,7.8,13.5,7.8c6.4-4.5,11.5-13.2,15.1-25.9
		c0-0.5,0.2-3,0.5-7.4H66.2z M68.8,43.2h2.5c0.5,0,1,0.5,1.5,1.6v1.5c0,0.7-0.3,1-1,1h-1c-0.7,0-1.1-0.3-1.1-1v-1.1h1.1l1,0.5v-1
		l-2.6-0.5c-0.4,0-1.1,0.8-2,2.5c0,1.7,1.4,4.8,4.1,9.3c0,0.4,0.2,1,0.5,1.6c0,1.7-0.9,3-2.6,4.1h-0.4c-3.8,0-5.7-4-5.7-11.9
		c-1.2-1.4-2.5-2.1-3.6-2.1h-1.6l-0.4,2.6l1.5-1.1h1v1.1c0,0.4-0.5,1-1.5,1.5h-0.5c-0.4,0-1-0.5-1.5-1.5v-2.1c0.1-0.7,1-1.4,2.6-2.1
		c3.4,0,5.7,2.9,6.7,8.8l1.6,1c0.7,0,1-0.3,1-1v-0.5c-1.4-4.1-2.1-6.7-2.1-7.8h-0.5c0,1.1-0.3,1.6-1,1.6h-0.6
		c-0.5,0-1.2-0.7-2.1-2.1v-0.5c0-0.5,0.5-1,1.5-1.5h1.1c1,0,1.5,0.7,1.5,2.1h0.5C66.7,44.8,67.4,43.7,68.8,43.2z M65.2,161v0.5h1
		V161H65.2z M66.2,160.5h2.1c0-0.7-0.3-1-1-1C66.5,159.6,66.2,159.9,66.2,160.5z M68.2,157.4l0.5,1l-0.5,1.1l1.5,1l1.1-1.5
		c-0.4,0-0.5-0.2-0.5-0.5c0.4,0,0.5-0.1,0.5-0.4l-1.6-1.1L68.2,157.4z M70.9,62.9c1.3,0.5,2,1,2,1.5v1.1c0,0.4-0.5,1-1.5,1.5h-1
		c-0.5,0-1-0.5-1.5-1.5v-1.1C68.8,63.6,69.5,63.1,70.9,62.9z M70.3,155.3h2.1c0-0.7-0.4-1.1-1.1-1.1
		C70.7,154.4,70.3,154.7,70.3,155.3z M70.3,156.3c0,0.5,0.5,1.1,1.5,1.6h0.5c0-0.4,0.1-1,0.4-1.6H70.3z M72.4,68.1h0.4
		c0.7,0.1,1.1,0.5,1.1,1.1v0.4c0,0.7-0.4,1.1-1.1,1.1h-1c-0.7,0-1-0.4-1-1.1C70.9,69.2,71.4,68.7,72.4,68.1z M71.9,153.2
		c0,0.5,0.5,1,1.5,1.5c0.7,0,1.1-0.3,1.1-1v-0.5H71.9z M72.4,152.3h2.1c0-0.7-0.4-1.1-1.1-1.1C72.7,151.3,72.4,151.7,72.4,152.3z
		 M74,71.7c0.7,0.1,1,0.5,1,1.1c0,0.7-0.3,1-1,1c-0.7,0-1.1-0.3-1.1-1C73,72.1,73.4,71.7,74,71.7z M82.7,127.8
		c0,11.9-3.3,22.5-9.9,31.8h0.6c6.6-5.6,9.9-14,9.9-24.9v-6.8H82.7z M74,149.1l0.5,1.1c-0.4,0-0.5,0.1-0.5,0.4l1.5,1.1
		c0.1-0.7,0.5-1.1,1.1-1.1l-0.5-1v-1.1c1,0,1.5-0.3,1.5-1H77C75,147.7,74,148.3,74,149.1z M77,143.9v1.5l-1-0.5l-0.6,1.1v0.5H77
		c0.5,0,1-0.5,1.5-1.6v-1H77z M76.6,143.4h1.5c0-0.5,0.5-1.2,1.5-2.1h-1.5C77.6,141.3,77.1,142,76.6,143.4z M78.6,138.2
		c0,0.7-0.3,1-1,1v1.1l2.6-0.5v-1.5H78.6z M79.7,129.8v1.1c0,0.4,0.2,0.5,0.5,0.5l-0.5,1l0.5,1c-0.7,0-1.1,0.2-1.1,0.5
		c0.4,0.7,0.5,1.2,0.5,1.5c-0.4,0-0.5,0.2-0.5,0.5c0.4,0,0.5,0.2,0.5,0.5c-1,0-1.5,0.3-1.5,1h1.5c0-0.7,0.3-1,1-1v-1.1l-0.4-1
		c0.3,0,0.4-0.2,0.4-0.5c-0.3,0-0.4-0.2-0.4-0.5h1v-2h-1l0.4-1.1v-0.5H79.7z M79.1,51.5c0,5.5,3.6,20.9,10.9,46.1
		c0.7,6.9,1.1,10.7,1.1,11.4h3.1c0-5.5,3.8-21.9,11.4-49.2c0.4-3.5,0.5-6.1,0.5-7.8v-1.5c0-7.9-4.3-18-13-30.2
		C83.8,31.7,79.1,42.1,79.1,51.5z M79.7,128.3c0.1,0.7,0.4,1.1,1,1.1h0.5c0-0.4,0.2-0.9,0.6-1.6h-0.6
		C80.6,128.1,80,128.3,79.7,128.3z M88,42.7c1.5,0,3.2,0.8,5.2,2.5c0.7-1.7,2.5-2.5,5.2-2.5c3.5,0,5.8,2.4,6.7,7.3v2.5
		c0,3.4-2.9,7.4-8.8,12l-2.1,3.1v5.7h0.5c0-1.7,1.2-2.5,3.6-2.5h1c0.6,0,1.3,0.7,2.1,2.1v1c0,0.5-0.5,1-1.5,1.5h-1
		c-0.7,0-1.1-0.3-1.1-1v-0.5c0.1-0.7,0.5-1,1.1-1l1.5,1v-0.5c0-0.4-0.5-1-1.5-1.5c-2.4,0-3.6,1.4-3.6,4.2c0.7,4.7,1,7.6,1,8.8
		c-0.4,1.5-1.3,2.5-2.6,3.2h-1c-2.4,0-3.6-1.2-3.6-3.6v-0.5c0-2.4,0.5-5.2,1.5-8.3c-0.9-2.7-2.3-4.1-4.2-4.1l-1.5,2h0.5
		c0.7-0.3,1.2-0.4,1.5-0.4l0.6,1c0,0.7-0.4,1.1-1.1,1.1h-1c-0.9,0-1.4-0.7-1.5-2.1c0.4-1.8,1.6-2.6,3.6-2.6H88c2,1,3.1,2.2,3.1,3.6
		h0.5l-0.5-2.5l0.5-2.6c0-1.5-3.5-5.5-10.4-12c-0.7-2.4-1-4.5-1-6.2C81.1,45.3,83.7,42.7,88,42.7z M82.3,51.5c0,2.9,3.1,7,9.3,12.4
		c0,0.5,0.5,1.1,1.5,1.6c0-1.4,2.9-4.5,8.8-9.4c0.7-2.2,1.1-3.7,1.1-4.6c-0.4-4.5-2.2-6.7-5.3-6.7c-2.1,0.7-3.1,1.3-3.1,2v1.1l1-0.5
		h1.6c0.4,0,1,0.5,1.5,1.5V50c0,0.7-1.2,1.4-3.6,2.1c0,2.5-0.9,4.2-2.6,5.2c-0.7,0-1.7-1.9-3.1-5.7c-1.5,0-2.6-0.7-3.2-2.1v-0.5
		c0-0.4,0.5-1,1.6-1.5h0.4l2.6,0.5v-0.5c-0.6-1.7-1.8-2.5-3.6-2.5C84.9,44.8,83.2,47,82.3,51.5z M84.8,151.7c0,2.3,2.6,6.4,7.8,12.4
		c4.1-5.3,6.7-9.6,7.8-13l-1.1-0.5c0,1.5-2.2,4.2-6.7,8.3c-4.5-4.1-6.7-6.9-6.7-8.3C85.2,150.8,84.8,151.1,84.8,151.7z M92.6,23.5
		c1.4,0,2.6,2.2,3.6,6.7c-0.7,0.1-1,0.5-1,1.1c2.7,0,4.1,0.5,4.1,1.5v1.5c0,0.7-0.3,1.1-1,1.1c-0.7,0-1-0.4-1-1.1l1-1.5l-1-0.5
		c-2.1,1-3.2,1.6-3.2,2.1h1.5v1.5c-1,0-1.5,0.2-1.5,0.5c0.7,1.1,1.1,2.1,1.1,3.1v1.1c-1.2,2.1-2.1,3.1-2.6,3.1
		c-0.8,0-1.7-1.5-2.6-4.6c0.7-1.2,1.1-2.2,1.1-3.2c-1,0-1.5-0.3-1.5-1c0.7-0.4,1.2-0.5,1.5-0.5v-1c-1.3,0-2.3-0.4-3.1-1.1
		c-0.7,0.1-1.1,0.5-1.1,1.1c1,0,1.5,0.3,1.5,1c0,0.7-0.3,1.1-1,1.1h-0.6c-0.7,0-1-0.4-1-1.1v-1.5c0-1,1.4-1.5,4.1-1.5l-0.4-2.6
		C89.7,27,90.7,25.3,92.6,23.5z M86.4,14.2v1h0.5v-1H86.4z M93.6,73.8c0,1-0.3,1.5-1,1.5h-0.5v-1h-0.4L91.1,79
		c0.4,2.1,0.9,3.2,1.5,3.2c1,0,1.5-1.6,1.5-4.7l-0.5-2.1l0.5-1v-0.5H93.6z M92.1,90h1.5c0.7,0.1,1.1,0.4,1.1,1v1.5
		c0,0.7-0.4,1.1-1.1,1.1h-1.5c-0.7,0-1-0.4-1-1.1v-1.5C91.2,90.3,91.5,90,92.1,90z M92.6,95.1h0.6c0.7,0.1,1,0.4,1,1v0.5
		c0,0.7-0.3,1-1,1h-0.6c-0.7,0-1-0.3-1-1v-0.5C91.7,95.5,92,95.1,92.6,95.1z M93.2,99.3c0.7,0.1,1,0.4,1,1c0,0.7-0.3,1.1-1,1.1
		c-0.7,0-1.1-0.4-1.1-1.1C92.2,99.6,92.6,99.3,93.2,99.3z M93.2,102.9c0.7,0.1,1,0.4,1,1c0,0.7-0.3,1.1-1,1.1
		c-0.7,0-1.1-0.4-1.1-1.1C92.2,103.3,92.6,102.9,93.2,102.9z M102,127.8v7.4c0,10.8,3.3,18.9,9.9,24.4h0.5
		c-6.6-8.6-9.9-19.2-9.9-31.8H102z M104.1,127.8v1.6c0.7,0,1-0.4,1-1.1L104.1,127.8z M104.1,130.9h0.6l-0.6,1v1.5
		c0.5,0,1-0.5,1.5-1.5H105l0.5-1v-1.1H105C104.4,130,104.1,130.4,104.1,130.9z M104.1,135.1c0.4,0.7,0.6,1.2,0.6,1.5
		c0.7,0,1-0.4,1-1.1l-1-0.4H104.1z M104.6,109.1h13c4-15.9,9.8-23.8,17.6-23.8h1.1c6.1,0,9.9,5.7,11.4,17.1h0.5
		c3.8-12.5,5.7-21.1,5.7-25.9v-2.1c0-8.4-3.8-13.4-11.4-15.1h-1.6c-12.2,0-23.5,13.8-34.2,41.5L104.6,109.1z M104.6,134.6h1.5v-1.1
		h-0.5C104.9,133.6,104.6,134,104.6,134.6z M105,138.2v1.5c0.4,0,0.9,0.2,1.6,0.5h1v-0.5h-1.5l0.5-1l-1.1-0.5H105z M105.6,136.7v1
		h1.1v-1H105.6z M105.6,141.3v1.1h0.5c0.7,0,1-0.4,1-1.1H105.6z M106.7,143.4h0.4l-0.4,1.1v1.5l2-1.5c-0.3-0.6-0.4-1.5-0.4-2.6
		C107.7,141.8,107.2,142.3,106.7,143.4z M107.1,127.8v1.1c0,11.2,5,21.9,15.1,32.2h0.5c4.4,0,8.9-2.6,13.5-7.8
		c-7.9,0-13.8-8.5-17.7-25.5H107.1z M107.7,147.5v1h0.5c0.7,0,1-0.3,1-1H107.7z M108.2,146v0.5h1.5c-0.4-0.7-0.5-1.3-0.5-1.6
		C108.6,145,108.2,145.4,108.2,146z M109.2,148.5v0.5l0.5,1.1h-1.1c0.4,1.4,1.4,2.1,3.2,2.1h1c0-0.7-0.7-1.1-2.1-1.1l0.5-1
		c-0.4,0-0.5-0.2-0.5-0.5h0.5c-0.4-0.7-0.5-1.2-0.5-1.5C110.1,148.4,109.6,148.5,109.2,148.5z M111.3,71.7c0.7,0.1,1.1,0.5,1.1,1.1
		c0,0.7-0.4,1-1.1,1c-0.7,0-1-0.3-1-1C110.4,72.1,110.7,71.7,111.3,71.7z M110.3,153.2l1,1.5c0.7-0.4,1.2-0.5,1.5-0.5v-1H110.3z
		 M112.4,68.1h0.4c0.7,0.1,1.1,0.5,1.1,1.1v0.4c0,0.7-0.4,1.1-1.1,1.1h-0.4c-0.7,0-1.1-0.4-1.1-1.1v-0.4
		C111.5,68.5,111.8,68.1,112.4,68.1z M113.9,43.2h2.5c1.4,0.6,2.1,1.6,2.1,3.2h0.6c0.1-1.4,0.7-2.1,1.5-2.1h1.1c0.7,0,1,1,1,3.1
		c0.6,0,1.6-0.3,3.1-1c2.1,0.8,3.2,1.5,3.2,2.1v2.1c0,0.4-0.5,1-1.5,1.5h-0.6c-0.5,0-1-0.5-1.5-1.5V50c0.1-0.7,0.4-1.1,1-1.1
		c0,0.5,0.5,1.1,1.5,1.6v-1.1c0-0.5-0.5-1-1.5-1.5h-2.1c-1.2,0-2.6,4.1-4.2,12.4c-1.2,1-2.5,1.5-3.6,1.5H116
		c-1.8-0.9-2.6-2.2-2.6-4.1l4.7-10.4c-0.6-2-1.8-3.1-3.7-3.1c-0.7,0.1-1,0.4-1,1v0.5l1-0.5c0.7,0.1,1.1,0.5,1.1,1.1
		c0,0.7-0.4,1-1.1,1h-1c-0.7,0-1-0.3-1-1v-1.5C112.4,44.3,112.9,43.7,113.9,43.2z M113.9,62.9h0.4c0.6,0,1.3,0.7,2.1,2.1
		c-0.5,1.4-1,2.1-1.5,2.1h-1c-0.5,0-1-0.5-1.5-1.5v-1.1C112.4,64,112.9,63.4,113.9,62.9z M112.4,156.3c0,0.5,0.5,1.1,1.5,1.6l1-1.6
		v-0.4C114.3,156.2,113.5,156.3,112.4,156.3z M112.8,155.3h2.1c0-0.7-0.3-1.1-1-1.1C113.2,154.4,112.8,154.7,112.8,155.3z
		 M114.4,159v1c0.4,0,0.9,0.2,1.6,0.5l1-1.5H114.4z M114.9,158c0.4,0,0.9,0.1,1.5,0.4l0.5-1l-1-0.5C115.3,157,114.9,157.4,114.9,158
		z M119.1,47.3c-1.4,4.5-2.1,7.1-2.1,7.8c0.1,0.7,0.5,1,1.1,1c0.9,0,2.2-2.7,4.1-8.2h-0.4c-0.7,0.4-1.3,0.5-1.6,0.5
		C120.1,47.7,119.8,47.3,119.1,47.3z M117,160.5h2.1c0-0.7-0.3-1-1-1C117.4,159.6,117,159.9,117,160.5z M118.6,161v0.5h1.5V161
		H118.6z"/>
</g>
</svg>
