<?xml version="1.0" encoding="utf-8"?>
<!-- Generator: Adobe Illustrator 21.1.0, SVG Export Plug-In . SVG Version: 6.00 Build 0)  -->
<svg version="1.1" id="Layer_1" xmlns="http://www.w3.org/2000/svg" xmlns:xlink="http://www.w3.org/1999/xlink" x="0px" y="0px"
	 viewBox="0 0 825 825" style="enable-background:new 0 0 825 825;" xml:space="preserve">
<path d="M412,91.6c1.5,0,3,0,4.4,0c6.2,25,16.3,48.8,26.8,72.3c10.9,24,22.7,47.6,35,71c2,4,4.5,7.8,6.1,12
	c4.9,18.3,9.1,37,8.3,56.1c1,16.1-4.2,31.5-8.8,46.7c-13.2,40.5-29.3,80.1-45.5,119.5c-9.6,29.4-16.8,59.9-17.3,90.9
	c-0.4,3.5,1.6,6.6,2.4,10c19.5-0.1,39.1,0,58.6,0c0,7,0,14.1,0,21.1c0,2-0.1,4.1-1,5.9c-1.2,1.5-3.2,1.2-4.9,1.4
	c-17.6,0-35.2,0-52.8,0c-2,23-2.5,46.1-2.2,69.1c6.3,0.1,12.4,3.2,16.3,8.2c5,6.5,7.9,14.4,9.5,22.3c-1.1,8.6-4,17.3-9.6,24.1
	c-7.4,9.2-20.6,13-31.9,9.5c-9-2.2-18.4-6.4-23.2-14.8c-4-6.9-2.4-15.2-2.7-22.8c1-6.7,3.8-13.3,7.9-18.7c3.8-5,9.9-7.7,16.1-7.9
	c-0.1-23,0.1-46.1-0.1-69.1c-18.1,0-36.2,0.1-54.4,0c-2,0.2-4.2-1.2-4.1-3.4c-0.1-7-0.1-14,0-20.9c-0.3-2.3,1.9-4.3,4.1-4
	c18.1,0,36.3,0,54.4,0c-0.1-12.6,0.1-25.3-0.1-38c-1.4-20.5-7.6-40.3-13.7-59.9c-1.7-5.9-5.1-11.2-6.8-17.1
	c-9.4-22.9-18.5-45.8-26.9-69.1c-6.5-18.3-12.7-36.8-17.5-55.7c-2.9-12.5-5.8-25.3-4.7-38.2c1.4-13.2,5.4-26,9.7-38.5
	c16-44.1,37.9-85.7,59.7-127.1C407,115.1,410.7,103.6,412,91.6z"/>
<path d="M192.9,410.9c18.3-16.3,42.7-23.3,66.3-27.9c17.3-0.3,35.1-1.1,52,3.7c18.3,4.8,34.8,15.8,46.8,30.4
	c12.8,15,20.5,33.4,27.6,51.6c2.3,6.6,3.8,13.4,5.4,20.2c5.4,24.4,8.3,49.3,10.2,74.2c-3.6,3.9-9.4,2.4-14.1,2.6
	c-3,0.3-4.2-3.1-5.5-5.2c-8.3-17.1-13.4-35.6-19.5-53.6c-8.5-13.1-21.4-23.9-36.7-28c-12.2-3.3-25.8-3.5-37.4,2.1
	c-5.4,2.5-9.5,7.5-10.5,13.4c-0.6,5-0.8,10.2,1.3,14.9c2.9,6.7,7.6,12.3,12.3,17.7c1.1,1,1.2,2.4,1.5,3.8c-4.8,0.7-9.6,2.5-14.5,2.3
	c-18.1-0.6-36.5-2.6-53.5-9.5c-13.5-5.3-25.8-13.9-34.7-25.5c-9.2-11.9-14.6-26.4-17-41.2C172.4,439.6,179.8,422.3,192.9,410.9z"/>
<path d="M543.3,383.2c9.2-1.1,18.3,0.6,27.3,1.9c20.4,3.5,41.3,9.4,57.9,22.2c11.8,8.9,20.3,22.2,23.3,36.7
	c3,14.9,2.6,31.2-5.1,44.6c-7.6,13.5-20.7,22.9-34.5,29.6c-14.5,6.8-30,11.4-45.7,14.5c-10.2,0.3-20.5,0.1-30.7,0.1
	c-2.6,0.4-3.8-2-4.6-4.1c7.2-5.6,15.1-11.8,17.2-21.1c0.7-7.3,0.8-15.9-5-21.4c-8.2-7.5-20.1-7.6-30.6-7.6
	c-12.3,0.1-24.6,4.2-34,12.2c-11.3,9.5-18.5,22.9-23.3,36.6c-2.8,10.3-4.9,21-9.3,30.8c-1.3,2.6-2.5,5.4-5,7
	c-4.3,0.5-8.8,0.2-13.1,0.1c-2.3,0-3.6-2.4-3.4-4.4c2.3-21.8,4.9-43.7,9.1-65.2c2.6-12.5,5.5-25.1,11.2-36.6
	c3.4-9.2,7.4-18.2,12.5-26.6c8.7-14.5,20.9-27,35.6-35.4C508.5,388.5,525.9,384.3,543.3,383.2z"/>
<path d="M386,602.6c3.4,0.3,7.9-1.1,10.4,2c0.5,3.1,0.2,6.2,0.2,9.3c-0.1,10.9,0.6,21.8-1.3,32.6c-2.1,13.8-7.1,27.6-16.7,38
	c-6.4,7-14.6,12.4-23.5,15.6c-11,3.4-22.6,2.3-33.9,2.4c-12.3-2-24.8-6-34.5-14.2c-13.7-11.6-15.4-33.7-5.5-48.2
	c7-9.8,18.5-15.1,29.8-18.3c8.1-2.2,16.5-3.5,24.9-4.2c0.7,1.3,1.5,2.6,2.2,3.9c-5.7,2.9-6.5,9.7-6.1,15.5c-0.7,4.9,3.7,8.5,8,9.8
	c8.1,2.3,17.4,2.2,24.8-2.1c6.7-3.9,11.2-10.7,14.3-17.6C382.6,619.3,384.5,611,386,602.6z"/>
<path d="M429.4,608.1c-0.2-2.3,1-5.2,3.7-5.3c2.5,0,6.1-1.1,7.3,1.8c5.4,10.3,7.5,21.9,11.2,32.8c4.1,5.6,10.2,10.3,17.3,10.9
	c5.5,0.3,11,0.2,16.4-1.1c4-1,7.8-3.6,9.3-7.6c0.9-6.6-2.7-12.7-6.6-17.7c4.8-3.2,10.6-1.9,16-2c13.5,2.2,27.4,6.9,36.9,17.1
	c7.8,8.1,10.8,19.9,10.1,31c-0.6,8.1-5.4,15.5-11.8,20.4c-9.6,7.4-21.4,11.1-32.9,14.2c-5.5,2.3-11.6,2.9-17.5,2.1
	c-15.1-0.6-30.7-6-41.1-17.4c-10.9-12-15.6-28.1-17.4-43.9C429,631.6,429.5,619.8,429.4,608.1z"/>
</svg>
