<?xml version="1.0" encoding="utf-8"?>
<!-- Generator: Adobe Illustrator 21.1.0, SVG Export Plug-In . SVG Version: 6.00 Build 0)  -->
<svg version="1.1" id="Layer_1" xmlns="http://www.w3.org/2000/svg" xmlns:xlink="http://www.w3.org/1999/xlink" x="0px" y="0px"
	 viewBox="0 0 825 825" style="enable-background:new 0 0 825 825;" xml:space="preserve">
<style type="text/css">
	.st0{fill:#FFFFFF;}
</style>
<path d="M160.4,79.8c19.4,26.6,44,49.5,72,66.9c46,28.9,100.4,44.1,154.7,43.2c26,0.7,51.2-6.6,76-13.2c22.4-5.8,44.2-13.6,67-17.9
	c22-4.2,44.7-5.9,66.9-2.1c4.8,17.6,14.2,33.5,23.3,49.1c8.9,15.1,19.5,29.4,26.2,45.8c7.5,17.2,11.5,35.9,11.5,54.7
	c-8.3,0.5-14.4-6.2-19.3-12c-8.9-11-19.2-20.8-29.2-30.6c-11.8-11.5-23.5-23.1-35.5-34.4c-11.6-10.1-24.2-19.2-38-26.1
	c-13.3-6.5-28.4-10.9-43.4-8.5c-20.7,3.9-38.2,16.8-54.4,29.6c-14.7,11.5-27.8,25-42.9,36.1c-18.6,14.6-38,28.2-59,39.1
	c-25.8,13.3-55.4,20.5-84.4,16.7c-12.2-1.5-24.1-4.9-35.4-9.7c-13.9-6-26.7-14.3-39-23.1c-12.4-9.1-24.9-18.3-35.6-29.4
	c-14.7-14.2-21.5-34.7-23.8-54.5c-2.3-23.3,1.8-46.8,9.1-68.9C133.9,111.2,144.7,93,160.4,79.8z"/>
<path d="M478,213.8c14.4-7,31.4-7.3,46.5-2.4c10.5,3.2,20.3,8.5,29.4,14.6c5.9,4.1,11.8,8.2,16.6,13.6c14,13.4,27.3,27.4,41.3,40.8
	c6.4,6.1,12.2,13.1,19.4,18.4c4.5,3.6,8.8,7.4,13.2,11c4.7,3.9,9.6,7.8,13.2,12.8c4,5.2,3.4,12.5,1.5,18.4
	c-3.9,10.9-13,18.8-22.1,25.2c-18.2,12.5-39.1,21.2-61,23.9c-23.3,3-47.1,1.5-70.2-2.5c-17-2.8-33.7-7.5-50.5-11.4
	c-24.2-5.9-48.4-12-72.7-17.5c-23.6-4.5-47.7-3.7-71.6-3.2c-16.3,0.7-32.6,0.9-48.8,0.7c-26.2-0.8-52.4-8.9-73.6-24.5
	c-25.2-18.3-43-45.1-55.6-73.3c3,0.1,6.4-0.2,8.9,1.9c5.3,3.8,7.6,10.3,12.6,14.4c22.6,20.8,48.4,39.2,77.9,48.9
	c23.7,7.9,49.9,8.7,73.8,1.4c22.9-6.9,43.7-19.3,63.2-32.9c20.7-14.4,39.4-31.4,59.6-46.4C444.5,234,460.3,222.3,478,213.8z"/>
<path class="st0" d="M560.5,314.3c4.9-4,11.7-5.9,17.9-4c5.6,1.8,10.4,5.8,13.7,10.6c2.3,11.4-1,24.3-10,31.9
	c-7.8,1.4-16.4,1.7-23.5-2.2c-6.3-3.4-9.4-11.1-8-17.9C551.8,325.8,555,318.9,560.5,314.3z"/>
<path d="M201,358c17.6,4.5,35.1,9.3,53,12.7c0,31.4,0,62.9,0,94.3c0.2,21-0.6,42,1,62.9c0.7,15.2,1.8,30.4,0.8,45.6
	c-1,11.5-2.6,23.9-10.3,33.1c-9.5,11.1-29.5,9.5-37.1-3c-9-14.3-8.6-31.9-9.3-48.1c0.4-12.2,0.4-24.4,1.2-36.6
	c1-21.6,0.5-43.3,0.6-64.9C201,422,201,390,201,358z"/>
<path d="M278.9,372.9c14.7-4,29.9-5.1,45.1-4.9c43.9,1.5,86.5,13.4,129,23.7c5.1,1.2,10.2,2.5,15.4,3.5c3.5,19.4,2.9,39.2,2.6,58.8
	c-0.8,13.6-1.2,27.3-2.6,40.8c8.5,0,16.9-0.1,25.4,0c-3.5,4.8-9.3,7.2-12.6,12.1c1.3,5.3,3.2,10.9,8,13.9c1.1,0,2.3-0.1,3.5-0.1
	c0.4,0.3,1.1,1,1.4,1.3c-6.9-2.2-13.8,1.3-20.6,2.6c0.3,4.9,1.8,10.1,6.1,12.9c6.3,4.1,14.3,4.3,21.5,3.1c6.3-1,12.5-4.8,14.7-10.9
	c0.7-1.9-0.7-3.8-2.5-4.4c-4.8-1.9-10-0.6-14.9-0.7c4.6-2.4,7.3-7.4,7.5-12.5c0.1-4,0.5-8.5-2.3-11.7c-1.8-2.4-4.9-2.8-7.6-3.5
	c6.4-6,15.3,0.5,22.8-1.6c0-30.1,0-60.3,0-90.4c21.1,1.5,42.4,0.8,63.3-2.3c18.7-3,37.6-8.5,53-19.9c-0.3,22.7,6.7,44.8,15.8,65.4
	c7.6,17.5,17.8,33.5,26.7,50.3c8.4,15.7,16.4,31.7,22.5,48.4c3.1,8.4,5.5,17.2,6.1,26.2c2.5,22.5-0.1,45.7-8.7,66.7
	c-12.3,30.4-36.5,54.6-63.6,72.2c-34.7,22.4-76,32.9-116.9,34.7c-37.5,2-75.6-4.7-109.9-20.1c-32.4-14.7-63.7-35.4-82.9-66.1
	c-9.4-15-15.5-32-17.6-49.5c-0.2-7.2-0.6-14.4-0.2-21.7c0.1-35,1.6-70,2.4-105c1.1-20.2,0.3-40.7-3.8-60.6
	C301.3,404.8,293.5,386,278.9,372.9z"/>
<path class="st0" d="M221.5,483.3c3.9-3.3,10.4-3.5,14.1,0.1c2.5,2.7,4.3,7.1,2.1,10.5c-2.8,4.7-8.9,5.2-13.8,5.6
	c-1.4-2.1-3.3-4-5.6-5.1C218.2,490.5,218.4,486,221.5,483.3z"/>
<path class="st0" d="M521.4,497.2c13,2.5,24.2,11.3,30.6,22.8c8.8,15.7,11.1,34.1,12.1,51.8c1.1,11.6,0.5,23.4,1.3,35
	c0.1,15.5-0.3,31.1,1.3,46.6c-47.9,0-95.7,0-143.6,0c1.4-14.8,1.2-29.6,1.2-44.4c0.6-17,0.6-34,2.1-50.9c1.9-15.4,5.4-31.2,14.5-44
	c5.3-7.8,13.2-13.7,22.2-16.8c3.6,4.9,6.9,10.6,6.7,16.9c0.1,4.7-2.2,9.1-5.4,12.4c-6.1,6.2-12.8,11.8-18.6,18.3
	c-3.5,3.8-7.7,7.4-8.8,12.6c-4.6,14.8-1.3,30.3-1.2,45.4c0.1,5.5,0.1,10.9-0.2,16.3c38.6,0,77.2,0,115.8,0c3.9-18,5.1-37,0.6-55
	c-2.5-9.8-6.1-19.7-13.3-27c-5.2-5.5-12.3-8.9-19.7-10.2C521.6,517.2,521.1,507.1,521.4,497.2z"/>
<path class="st0" d="M224.1,527c3-1.1,6.3-0.6,9.3-0.1c-0.3,2.6,1.1,4.6,3.3,5.9c-0.3,3.9-1.3,8.7-5.5,10.3c-4,1.5-10.3,2.8-12.5-2
	C214.9,536.2,218.6,528.7,224.1,527z"/>
<path class="st0" d="M216.6,580.8c1-5.9,8-10.3,13.7-8.4c2.7,1.3,4.9,3.7,5.9,6.5c0.2,3.3-1.4,7.1-4.4,8.8
	c-3.1,1.8-6.8,1.7-10.3,1.8C218.9,587.4,216.2,584.5,216.6,580.8z"/>
</svg>
