<?xml version="1.0" encoding="utf-8"?>
<!-- Generator: Adobe Illustrator 21.1.0, SVG Export Plug-In . SVG Version: 6.00 Build 0)  -->
<svg version="1.1" id="Layer_1" xmlns="http://www.w3.org/2000/svg" xmlns:xlink="http://www.w3.org/1999/xlink" x="0px" y="0px"
	 viewBox="0 0 825 825" style="enable-background:new 0 0 825 825;" xml:space="preserve">
<style type="text/css">
	.st0{fill:#FFFFFF;}
</style>
<path d="M378.6,112.8c4.1-2.6,7.2-6.8,12.2-8c0.9,4.1-0.5,8.2-1.4,12.2c6.2-2.7,8.6-10.5,15.5-11.9c2.8,4.3,1.8,9.7,1.4,14.5
	c19,1.9,36.1,12.1,50.1,24.7c-8.2-3.9-16.4-7.9-24.5-11.9c17.3,12.4,33.2,27.2,44.7,45.3c6.6,10.5,11.7,22.1,14.6,34.2
	c-8.8-14.9-21.3-30.5-39.5-33.3c10.8,10.7,21.1,22.3,27.8,36.1c3.8,7.3,6.3,15.2,7.9,23.2c-4.5-10.8-9.9-21.9-19.4-29.2
	c8.8,25.9,17.9,51.7,26,77.8c-1.2-1.5-2.4-3.2-3.2-5c-3.4-7.7-5.6-15.9-8.4-23.9c-2.5,8-2,17.3,2.9,24.3c2,3.3,5.1,5.6,7.9,8.1
	c-2.5-1.6-4.8-3.6-7.4-4.9c2.3,5.3,6,10.5,5.6,16.6c-1.7-7.5-5.4-14.4-10.3-20.3c0.2,5.1,0.4,10.2,0.9,15.3
	c0.5,7.7-0.3,15.8,3.4,22.9c6.5,12.8,18.4,21.8,29.8,30.1c-17.1-3.6-30-16.4-41.7-28.6c-1.6,4.6,2.8,7.2,5.4,10
	c5.9,7,12.1,13.9,17.7,21.2c4.5,5.8,7.7,13.1,6.8,20.6c-0.3,4.6-3,8.5-5.7,12c1.6-4.9,1.5-10.8-2.1-14.8
	c-5.8-6.6-14.6-9.1-22.6-11.9c-9.2-3.4-18.9-6.7-26.4-13.2c7.3,15.6,20.3,28.9,37,34.1c-12.2-0.5-24.6-3.8-34.2-11.7
	c-13-10.8-19.5-27.5-22-43.9c-3.4,11.3-1,23.9,4.7,34c2.4,4.7,6.2,8.5,9.7,12.5c12.7,13.9,26.7,26.8,38.2,41.7
	c8.6,11.1,16.6,23,20.6,36.7c8.9,3.7,16,10.3,23,16.8c6,6.1,13,11.7,21.3,14.3c3.6,1.3,7.5,1.6,11.3,2.2c-2.8,0.6-5.6,1.2-8.4,1.8
	c4.7,1,9.2,2.7,13.6,4.6c-5.7-2.5-12-1.7-18-2.6c9,4.3,18.5,9.3,23.6,18.3c4.5,7.6,3.8,16.9,1.4,25c0.9-6.3,1.2-12.9-1.8-18.7
	c-3.4-7.7-10.5-13.2-18.2-16.2c11.6,16.3,18.3,36.1,18.7,56.1c0.3,10-1.3,19.9-1.8,29.8c-0.4,15.4,2.4,31.5,11.1,44.5
	c5.9,9,14.5,15.8,24,20.7c-14.6-3.9-28.6-11.6-37.9-23.7c-10.2-13.1-14-30.1-14.3-46.4c-4.2,17.2,2.4,35.2,12.9,48.8
	c6.7,8.3,13.7,16.2,20.7,24.2c5.2,5.1,7.8,12.7,7.2,19.9c-0.4,4.6-2.7,8.6-4.8,12.6c0.9-4.7,1.2-10-2.1-13.8
	c-5.6-6.9-14.5-9.6-22.6-12.2c-9.4-3.5-19.5-6.6-27-13.6c4.1,11.8,12.5,22.3,23.9,27.7c3.9,2,8.1,3.2,12.4,4.3
	c-15-0.2-30.3-5-41.4-15.4c-14-13.1-21.5-31.9-23.8-50.7c-1.9-13.6-0.5-27.4,1.7-40.9c-5.6,4.6-6.9,12.2-7.5,19
	c-1.2,8.6-0.4,17.4,2.7,25.5c-10.4-13-13.4-30.3-12.9-46.5c-0.7-24.3,9.8-47,12.1-70.9c0.4-5.4,1.2-10.8,0.5-16.2
	c-8.2,26.2-30.5,44.5-41.1,69.5c-3.2,7.1-2.6,15.3,0,22.5c2.6,7,5.7,13.9,7.3,21.2c1.2,5.8-1.3,11.5-4,16.4
	c-0.1,13.6-7.7,25.4-12.4,37.7c-3,8-5.6,16.5-4.8,25.2c0.8,6.6,3.5,13.2,1.5,19.8c-2.1,7.2-3.6,14.8-7.4,21.3
	c-6.9,0.1-13.8,0.9-20.7,1.4c-1.1,2.1-1.5,4.5-2.5,6.7c-9.6,0.3-19.4,1.2-29-0.3c1.6-7.4,6-13.7,9.9-20
	c10.5-15.9,20.6-32.2,27.6-50.1c3.5-9.3,6.5-19.1,6.2-29.1c-0.1-6.8,0.2-13.6-0.9-20.3c-0.9-5.5-4.8-9.6-8.2-13.8
	c-4.3-5.4-9.2-10.3-12.6-16.3c-9.2-15.4-17.3-31.6-23.7-48.4c-3.1-8.8-6.1-17.9-5.7-27.3c1.4-10.3,7.7-19.3,8-29.8
	c-0.1-1.6,0.3-3.5-0.8-4.9c-11.7-13.7-25.1-25.9-36.4-39.9c-22-27.7-37.4-60-50-92.9c-5.8-4.2-12.1-7.8-17.4-12.6
	c-2.6-2.1-5.5-4.5-9-4.4c-5.8,0.9-8.5,7.2-9.1,12.4c-0.6,8.8-0.3,18.2,4.2,26c1,2.1,4.2,3.5,3,6.2c-2.2,0.8-4.6,1.2-6.9,1.9
	c3.7,2.2,8.1,1.9,12.2,2.4c3.7,1.9,6,5.7,6.4,9.8c0.7,8.9-2.7,18-8.8,24.5c-7.8-5.4-13.6-13-18.1-21.2c-2,0.3-4,0.7-6,0.9
	c-4.8-7.3-8.5-15.2-12.5-22.9c-3.4-6.9-7.5-13.4-11.4-20c-0.6-1.2-1.7-2.5-1.2-4c3.1-15.1,10.3-29,12.9-44.2
	c1.4-6.6,2.6-13.3,3.7-20c5.9-0.6,10.3-4.9,15.5-7.2c3.1-1.6,6.3,0.3,8.9,1.8c11,6.5,21,14.6,31.2,22.2c2.8-7.7,3.4-16.2,7.3-23.4
	c5.9-2.6,11.1-6.2,16.7-9.4c7.9-5,16.4-9.3,22.8-16.2c13.1-13.5,20.1-31.6,24.5-49.6c-12.3-0.4-25.1-1.7-37.1,2.2
	c-4.9,1.3-7.9,5.8-12.6,7.4c-4.2,0.8-8.7,0.9-12.6-1.1c-5.3-2.7-8.5-8.4-9.2-14.1c-0.6-4.3,1.1-8.5,3.1-12.2
	c10.3-5.1,19.6-12,29.3-18.1c10.3-7.2,20.3-14.8,30.4-22.1c-5.2,1.4-9.7,4.1-13.4,8c0.4-2.9,3.4-4.2,5.2-6.2
	c-7.5,3.1-15.9,4.9-23.8,2.2c9.1,0.9,18.3-1.2,26.4-5.5c-9.5,0.9-19,2.5-28.5,3.6c-1.4-3.6-2.9-7.2-4.3-10.8
	c6.3,1,12.6,1.6,18.9,2.6c1.3,0.2,2.7,0.6,4,0.1c6.2-1.7,12.2-3.8,18.4-5.2C369.1,108,374.7,109.1,378.6,112.8z"/>
<path class="st0" d="M461.7,280.4c1.3,4.1,0.9,8.4,1.9,12.6c1.7,10,6.6,19.2,8.6,29.1C461.5,311.2,459.5,294.8,461.7,280.4z"/>
<path class="st0" d="M247.8,326.8c-3.6-7.2-1.3-15.6,1.8-22.6c1.6,10.3,1.9,21-0.1,31.2c-2.1-3.1-3.8-6.4-5.5-9.7
	C245,326,246.9,326.5,247.8,326.8z"/>
</svg>
