<?xml version="1.0" encoding="utf-8"?>
<!-- Generator: Adobe Illustrator 21.1.0, SVG Export Plug-In . SVG Version: 6.00 Build 0)  -->
<svg version="1.1" id="Layer_1" xmlns="http://www.w3.org/2000/svg" xmlns:xlink="http://www.w3.org/1999/xlink" x="0px" y="0px"
	 viewBox="0 0 825 825" style="enable-background:new 0 0 825 825;" xml:space="preserve">
<style type="text/css">
	.st0{fill:#FFFFFF;}
</style>
<path d="M315.1,106c2.3-6.5,7.7-11.3,13.8-14.2c2.4,4.5,2.6,10.2,6.5,13.8c2.3,2.2,5.5,0.7,8.1-0.1c11.2-3.6,21.6-9.6,33.2-11.8
	c24.6-5,51.4,3.7,68.4,22.2c2,2.8,5.6,2.7,8.6,3.2c18.1,2.4,36.4,1.9,54.4,4.8c-1.8,5.9-8.1,8.7-11.5,13.6
	c7.1,1.1,14.4,1.1,21.5,2.2c-3,5.6-9.5,8-13.7,12.6c17.7,6.9,34.9,15.6,49.3,28c14.2,12,25.4,27.7,31.8,45.3
	c3.6,9.7,5.7,20,6.8,30.3c1.7,24,3.1,47.9,3.9,71.9c0,6.8,0.6,13.7-0.8,20.4c-6.3-3-12.8-5.6-18.9-9c-0.7,10.1-2.5,20.2-3.5,30.3
	c-1.4,13.3-3.3,27.5,2.4,40.2c2.1,5.1,6,9,10.1,12.6c-5.2,0.3-9.7-2.9-14.8-3.6c4.5,13.4,4.3,27.9,0.8,41.5
	c-2.5,11.2-7.8,21.6-11.5,32.4c-3.3,9.6-6,19.4-7.3,29.4c-0.7,5.8-0.2,11.6-0.2,17.4c-4.8-3-6.7-8.7-11.2-12c0.2,18.9-4,37.6-3,56.6
	c0.6,7.3,3.4,14.8,9.2,19.6c3.8,3.3,8.7,4.9,13.5,5.9c-9.3,6.4-20.3,11.6-31.9,10.3c-12.8-1.5-23.4-10-31.1-19.8
	c-9.5-12.2-13-28-12.8-43.2c0.4-9.4,1.7-18.7,4.2-27.8c2-6.9,6.3-13.1,7.4-20.3c-0.5-5.4-4-9.8-6.2-14.6
	c-4.2-14.4-0.6-31.1,10.1-41.9c10.3-10.3,20.7-20.6,31.3-30.6c-3.1-13.6-6.1-27.2-9.1-40.8c-3.2-13.9-3.9-29.5,2.8-42.5
	c0.8-2,2.8-3.8,1.9-6.1c-3.6-17,4.2-33.6,3.5-50.6c0-3.5-0.2-7.4-2.5-10.2c-4.8-6.5-11.3-11.7-15-19c-8-15.1-13.8-31.2-20.1-47
	c-4.2-9.8-9.2-19.5-16.6-27.3c-5.2-5.6-12.4-8.8-19.5-11.5c-8.1-2.9-16.2-5.7-24.1-9.2c-2.6,5.5-5.9,11.1-11.4,14.1
	c-6,3.5-13.5,3.2-20,1.5c8.9-4.3,17.7-10,22.6-18.9c2.9-4.9,3.9-10.6,3.9-16.2c3.5,8.5,11.3,14.4,20,16.6
	c16.1,4.2,34.8,2.7,48.3-7.9c-22-4.3-44.4-9-64.6-19c2.5-1.5,5.3-2.1,8.2-2.3c-7.8-9.9-17.8-18.7-30.2-22.1
	c-7.6-1.8-15.9-2.9-23.4,0.1c-11.2,4-22.4,8.3-33.5,12.6c-6.2,2.3-13.4,3.5-19.6,0.7c-3.6-1.5-6.2-4.5-8.7-7.3
	c-2.3,7.4-2.4,16.2,2.4,22.7c6.5,9.5,18.2,13.4,29.2,14.7c-52.5,32.3-108.1,60-166.4,80c-3.5,0.9-3.8,5.2-4.1,8.2
	c0.2,8,1.7,16,0.8,24c-1.3,5.4-3.7,10.6-4.8,16.1c0,2.2,1.2,4.7,3.4,5.5c13.7-0.9,27.4-6.7,41.2-2.8c-11.7,2.6-24.2,4.2-34.3,11.2
	c1.8,3.2,4.9,5.1,7.6,7.5c7.3-3.2,15-5.3,22.6-7.3c26.6-6.8,53.7-11.9,80.7-17.1c-4.5-13.4-11.9-26-13.8-40.2c0-1.2-0.8-3.2,0.9-3.7
	c15.1-6.8,29.5-15.2,45.1-20.9c-12.4,8.7-24.6,17.8-37.1,26.3c4.9,19.1,14.8,37.8,31.4,49.1c13.5,9.4,31,11.5,46.9,8.5
	c14.8-2.5,28.1-10.7,38-21.9c11.7-12.9,19.4-29,25.2-45.2c-0.1,16.3-7.7,31.4-17.2,44.2c-6.9,9.1-14.9,17.4-23.3,25.2
	c0.4,7,1.9,14,0.8,21c-1,15.7-7.8,30.6-17.6,42.7c-10.6,12.9-24.1,23.2-38.5,31.6c-7.9,4-16,7.6-23.1,12.9
	c-5.6,4.1-9.5,10.6-10.1,17.6c-2,16.9,5.6,33.1,15,46.6c11.2,15.5,22.6,30.9,33.9,46.3c-11.1,0.3-21.2,5.3-30.6,10.8
	c-0.9,9-2.3,18.5,1.6,27c1.6,3.8,5.4,5.5,8.7,7.4c-4.8-0.7-9.3-2.5-13.5-4.8c-22,17.1-45.2,32.8-67.2,50c-5.6,4.8-7.6,12.5-7.7,19.6
	c0.3,5.4,0.9,11.4,5,15.4c2.4,2.6,6,3.2,9.2,4.4c-3.2,0.8-6.4,0.3-9.6,0.1c-1.6,5.3-3.2,10.6-4.7,15.9c17.5,9.1,37.3,12.6,56.6,15.7
	c26.8,4,53.9,5.9,80.9,7.2c38.8,1.7,77.8,1,116.3-4.3c22.6-3.3,45-8.2,66.3-16.5c-0.3-5.6-2.3-10.8-4.2-16
	c-3.7,0.8-7.4,1.6-11.1,2.1c5-2.2,9.9-5.4,12.4-10.5c4-7.6,2.3-17-2.2-24c-4.7-5.3-9.6-10.5-14-16c-3.9-5.6-6.4-13.3-3.7-19.8
	c7.8,5.5,16,10.9,22.2,18.3c7.8,8.8,13.1,20.1,13.1,31.9c0.1,4.8-1.3,9.4-2.5,14c4.6,14.1,6.1,29.1,4.6,43.9
	c-1,8.1-4,16.3-10.6,21.5c-11.8,9.7-27,14-41.6,17.6c-36,8.1-73.1,9.7-109.8,11c-40.8,0.8-81.7-0.8-121.9-8
	c-13.4-2.5-26.8-5.4-39.4-10.8c-8.9-4-18.3-9.4-22.5-18.6c-6.4-14.6-6.3-31.3-1.8-46.4c0.8-3.1,2.2-6.1,3-9.2
	c-1.1-6.9-1.9-14-0.5-21c1.5-10.1,6.3-19.6,13.1-27.2c5.2-6.2,11.8-10.9,18.1-15.9c14.3-11.2,28.5-22.5,42.8-33.6
	c-0.2-9.9-1.1-20.5,4-29.5c2.6-4.8,7.5-7.8,12.6-9.4c-8.2-19.1-20.8-36-29-55.1c-4.1-9.5-6.9-20-5.9-30.4c1-11.9,8.2-22.8,18-29.4
	c12.4-8.7,27-13.3,39.9-21.1c7.8-4.6,14.3-10.9,20.5-17.4c6.9-7.6,12.6-16.7,14.1-27c1.4-8-0.8-16.1-4.2-23.2
	c-14.7,2.9-30,4.9-44.8,1.1c-6.4-1.5-12.4-4.4-17.6-8.3c-16.6,5.8-33.9,10.2-51.5,10.7c-5.9,0.3-11.8-1.8-17.6,0.1
	c-4.5,2.7-7.3,7.4-10.8,11.2c-4.7,5.2-13,6.2-19.1,2.9c-5.2-2.6-9.1-7.1-14.1-9.9c-5.2-3.3-12.4-0.5-17-5c-5.1-4.7-9-10.4-12.9-16
	c-3.1-5-6.6-10.4-5.9-16.5c0.6-6.1,5.5-10.8,5.8-16.9c0.1-6.7-0.1-13.4,0-20.1c0.1-6.7,4-13.7,10.5-16.2
	c16.7-7.3,33.7-13.7,50.5-20.4c32.3-13,63.7-28.3,93.8-45.7c-7.2-2.4-13.6-7.3-16.7-14.4C312.3,127.6,311.4,116.1,315.1,106z"/>
<path d="M365,137.6c19.2-0.1,35.2-15,54.6-13.8c-7.8,3.7-15.9,6.7-23.9,10c-8.3,3.2-16.6,7.6-25.8,7.5c-6.4,0.2-12.5-2.4-17.4-6.3
	C356.6,136.3,360.7,137.6,365,137.6z"/>
<path class="st0" d="M458.8,127.6c10.3-0.3,20.5,1.9,30.7,2.7c-2.8,3.8-7.8,4.6-12.1,3.4C471,132.1,464.9,129.7,458.8,127.6z"/>
<path class="st0" d="M475.7,164.9c10.4-5.3,22.6-4.4,33.4-0.8c16.7,5.8,32.4,15.4,43.7,29.1c19,22.6,29.4,52.2,28.8,81.7
	c-0.3,12.7-4,24.9-5.5,37.4c-0.5,4.8-0.2,9.7-0.2,14.5c-4.8-4.7-8.4-10.4-11.5-16.3c-1.8,10.5,3.2,20.4,4.2,30.7
	c-0.8,15.2-6.2,29.7-7.5,44.8c-0.5,5.9,1,11.6,2.4,17.3c-3.7-1.2-5.4-4.9-8.9-6.5c1.7,10.8,7.5,20.5,8.8,31.4
	c1.4,13.2-1.8,26.4-5.6,39c-5.3,15.7-10.7,31.4-15.4,47.3c-4.1-6.4-7.2-13.4-9.8-20.6c-1,9-0.8,18.1-0.9,27.2
	c0.4,20.5-6,40.5-5.1,61c0.4,10,4.2,20.2,12,26.8c-9.9-0.1-20.2-3.1-27.2-10.4c-9.1-9.6-12.6-23.1-14.1-36
	c-1.5-14.6,1.2-29.3,6-43.2c2.5,1,5.2,1,7.9,0.7c-2.9-10.9-6.2-21.8-8.2-33c-0.5-3.2-1.2-6.5-0.8-9.7c0.9-3.9,3.2-7.2,5.5-10.4
	c6.4-8.5,14.1-15.9,21.4-23.6c8.1-8.9,14.1-20.6,12.6-32.9c1.6,0.5,3.3,1.1,4.9,1.7c-6.8-14.6-12.9-30-14.9-46.1
	c-0.7-5.8-0.5-11.6,1-17.2c2.6,2,4.6,4.6,7.1,6.7c-5.8-26.3-1.7-53.4,1.8-79.7c3.1,1.1,6.1,2.3,9.3,3.2c-9.2-12.6-22.3-22.2-29.9-36
	c-5.2-12.2-10.3-24.3-15.5-36.5C499.3,190.5,491.2,173.8,475.7,164.9z"/>
<path d="M351.1,166c4.4-0.1,8.8,0.6,12.9,2.1c8.3,2.6,15.4,8.2,24,9.8c3.5,0.9,7.1,0.8,10.7,0.4c-1.8,7.6-7.1,14.2-14.3,17.2
	c-14.9,6.3-33.7,5.5-46.3-5.4c9.1,3.1,18.3,6.2,28,6.7c5.6,0.2,11.7-0.7,16.2-4.4c2.2-1.8,3.5-4.4,4.8-6.9
	c-9.5-7.5-19.9-14.2-31.6-17.8C353.9,167.1,352.5,166.6,351.1,166z"/>
<path d="M340,171.5c12.1-0.9,22.9,5.6,34.6,7.5c-3.9,1.9-8.1,3.3-11.8,5.8c-3.6,2.8-8.8,2.1-12.6,0.1c-3.1-1.8-6.4-3-9.6-4.6
	c1.3-0.6,2.7-1.2,4.1-1.7C342.9,176.4,341.2,174,340,171.5z"/>
<path d="M453.8,180.9c27.6,13.3,44.1,43.2,47.4,72.9c1.5,19.5-0.7,39.1-3,58.4c-8,64.9-23.8,128.5-30.1,193.6
	c-1.9,17.8-2.7,35.7-1.6,53.5c-3.1-8.1-4.7-16.8-5.6-25.4c-0.6-10.3-0.9-20.8,0.8-31.1c5.9-42.7,12-85.3,18.1-128
	c4.7-34.8,9.4-69.7,11.7-104.8c0.7-12.6,1.1-25.6-2.6-37.9C483.3,211.7,469.5,194.7,453.8,180.9z"/>
<path d="M421,239c5.1-8.4,8.1-17.8,10.3-27.4c0.7,15.2-3.3,30.8-12.9,42.8c-10.7,13.3-25.9,23.1-42.5,27.4
	c-16.8,4.4-34.8,0.3-49.4-8.8c10.9,2.9,22.1,5.3,33.5,4.2C385,275.5,408.2,260.3,421,239z"/>
<path d="M221.7,237.8c4.3-6.2,9.6-12,16.5-15.3c-7.6,8.5-12.8,18.9-20.3,27.4c-3.8,4.2-8.4,7.5-13.7,9.4
	C211,252.9,216.4,245.3,221.7,237.8z"/>
<path d="M407.4,340.4c17.6-37.7,30.5-77.5,41.5-117.6c-6.1,39.2-15.9,78.1-31.4,114.6c-14.2,33.1-34.2,64.8-62.8,87.3
	c-3.7,2.8-7.3,5.8-11.5,7.9c1.9-2.9,4.3-5.3,6.8-7.6C375.2,401.5,392.8,371.3,407.4,340.4z"/>
<path d="M195,228c4.4-2.2,9.8-1.4,14,1c2.9,1.7,4.6,5.4,3.8,8.8c-1.4,6.7-5.2,13.2-11,16.9c-3.4,2.2-7.5,2.7-11.5,2.6
	c-2.8-6.5-4-14.1-1.7-20.9C189.8,233.1,191.6,229.6,195,228z"/>
<path d="M562.2,228.1c7.4,6.6,9.5,16.9,10.6,26.3c1.4,14,1.2,28.5-3.1,42.1c-0.1-16.7-0.3-33.4-2.4-50
	C566.4,240.1,565,233.8,562.2,228.1z"/>
<path class="st0" d="M195.5,230.5c3.2-1.9,7.4-0.3,9.9,2.2c2.1,6.8-5.2,16.5-12.5,12.4C187.6,241.3,190.6,233.2,195.5,230.5z"/>
<path class="st0" d="M256.2,287.5c17.9-2.1,36-3.8,53.7-7.7c2.4,2.3,4.3,5,5.9,7.9c-24.1,5.5-49.1,7.4-73.7,5
	c-1,7.1-6,13.8-13.1,15.5c-3.4,0.9-6.6-0.8-9.5-2.2c3.9-2.9,7.9-5.5,11.5-8.7c-3.8-2-8.1-1.2-12.2-0.6
	C230.6,291.4,243.5,289.3,256.2,287.5z"/>
<path class="st0" d="M250.2,667.9c40.6,13.3,83.4,18.2,125.9,20c38.6,1.1,77.4,0.7,115.8-3.6c26.6-2.9,52.9-7.8,78.5-15.5
	c-0.7,6.8-0.1,13.9-2.2,20.4c-6.3,8.2-16.1,12.7-25.6,16.2c-21.7,7.4-44.8,9.2-67.5,11.3c-45.4,3.7-91.2,3.8-136.6-0.4
	c-21-2-42.3-4.1-62.2-11.5c-9.1-3.6-18.6-8.2-24.6-16.2C251.7,681.6,250.9,674.7,250.2,667.9z"/>
</svg>
