<?xml version="1.0" encoding="utf-8"?>
<!-- Generator: Adobe Illustrator 21.1.0, SVG Export Plug-In . SVG Version: 6.00 Build 0)  -->
<svg version="1.1" id="Layer_1" xmlns="http://www.w3.org/2000/svg" xmlns:xlink="http://www.w3.org/1999/xlink" x="0px" y="0px"
	 viewBox="0 0 825 825" style="enable-background:new 0 0 825 825;" xml:space="preserve">
<style type="text/css">
	.st0{fill:#FFFFFF;}
</style>
<path d="M551,167.3c-5-6.8-7.2-15.9-3.9-24c1,6.6,3.6,14.4,10.8,16.5c0.2-4.6-0.4-10.5,4.2-13.3c-0.1,2-0.4,4.1-0.7,6.1
	c9.5-4.8,20.3-5.4,30.6-7.1c5.2-0.9,10.5-1.4,15.7-0.9c9.7,1.1,19.6-0.2,29.3,0.8c15.3,0.8,31,3.2,44.8,10.4
	c4.3-3.2,7.2-8.6,12.8-9.6c3.2,6.7,2.5,14.2,4.1,21.3c7.7-0.3,14.5,4.6,18.6,10.8c4.1-3.5,8.2-7,12.3-10.6
	c4.3-3.7,6.5-9.5,11.8-12.1c2.3,11.2,1.1,23.1-3.1,33.8c-1.6,4.1-4.6,7.5-8,10.2c10.7,0.6,19.1-8.2,29.8-7.6
	c-3.2,1.6-6.6,3.1-9.9,4.6c-0.4,0.8-0.8,1.6-1.2,2.4c3-0.6,6.1-1.2,9.1-1.3c-7.2,3.1-10.1,11.1-17,14.6c-1.2,0.6-2.5,1.2-3.8,1.8
	c2.2,0.5,4.5,0.9,6.7,1.4c-5.7,3.2-12.8,3.4-18.5,0.2c0.9,8.9,7.2,15.8,10.3,24c-5.3,7-7.3,15.8-8.8,24.3c-2.8,17.3-3.1,34.8-3,52.3
	c2.2,2.3,5.5,4.7,4.8,8.3c-0.8,3.7-2.5,7.1-3.2,10.8c-1.1,4.6-5,7.8-8.4,10.9c-3.9,3-7.8,6.3-12.5,7.9c-3.9,1.4-7.9-0.6-11.6-1.8
	c-5.4,2.3-11.7-0.9-15.1-5.3c-4.2-5.6-2.4-13.1,0.1-19.1c-2-1.5-4.5-2.6-5.7-4.9c0-3.1,0.7-6.4-0.3-9.4c-1.2-5.2-5.1-9-7.3-13.7
	c-1.6-3.1-2.4-6.4-3-9.8c-13-7-18-22-21.4-35.4c-1.6,1.6-3.7,2.9-4.2,5.2c-1.4,4.2,0.4,8.5,0.5,12.8c1.2,8.6-2,17-1.9,25.6
	c0.2,6.7,5.3,11.8,6.9,18.2c1.7,6.7,2.7,13.9,0.7,20.7c-0.6,3.2-2.1,6.8-0.2,9.9c2.9,5.4,7.3,9.9,9.3,15.8c2.2,5.7,2.7,12,5.5,17.4
	c4.8,8.1,14.8,10.3,21.3,16.7c1.6,7.8,0.6,16.1-3.2,23.1c-4,7.3-10.2,13.2-14.8,20.1c-3.8,5.6-6.5,11.9-8.7,18.3
	c-2.4,8-3.9,16.3-7.6,23.8c-3.5,1.5-7.4,2-10.6,4c-6.4,3.6-12.3,8.5-16.1,14.9c-1.5,3.1-1.8,6.7-3.2,9.9c-1.4,2.4-4.1,3.4-6.3,4.7
	c-6.8,3.4-13.4,7.6-20.9,9.2c-4.6,1-10.2-0.8-12.1-5.4c-2.5-6-1.3-12.6,0-18.7c1.9-8.4,6.2-17.3,14.7-20.7c6.8-2.6,15.5-4.2,21.6,1
	c2.9-2.2,5.3-5,7.9-7.6c-0.8-1.5-1.6-3-2.4-4.5c3.3-3.1,5.4-7.2,8.3-10.6c2.2-2.9,6.4-2.5,8.9-5c7.3-6.5,11.9-15.7,13.3-25.2
	c0.7-4.4-1.2-8.6-1.5-13c-11.5,5.3-19,15.9-26,26c-2.4,3.7-5.8,7-6.4,11.6c-0.9,5-1.4,10.3-4.6,14.5c-4.9,7.3-14.2,10.1-22.6,9.7
	c-6.5-1.1-13-3.2-19.7-3.3c-7.3-0.4-14.6-0.4-21.9-0.7c-5.3-0.8-11.8-2.3-14.1-7.7c-2-5.4,1.3-10.6,4.5-14.7
	c4.5-5.5,9-11.2,15.2-14.8c11.5-5.6,27.2,4.8,25.8,17.7c1.5,0,3.1,0,4.6,0c1.9-2.3,3.1-5.1,4.9-7.5c1.6-2,4.3-1.9,6.5-2.6
	c5.1-1,8.2-5.6,11.1-9.6c3.9-6.1,7.7-12.3,9.7-19.3c0.8-2.6,0.5-5.2-0.1-7.8c-25.3,3-49.3,13.2-70.4,27.3
	c-6.7,4.9-12.3,11-18.8,16.1c-25.2,19.3-54.7,33.5-86.3,38.4c-7.3,11-16.3,20.8-26.7,28.8c-1,0.8-2.1,1.6-2.6,2.8
	c-6.4,13.4-13.5,26.8-23.9,37.5c-13.7,6.1-27.7,11.9-40.9,19.2c-13.7,7.1-26.1,16.4-38.9,25c-3.7,2.4-5.3,6.7-7.8,10.2
	c-7.6,12.4-17.4,24.6-18,39.7c-6.5,10.3-18.2,15.2-26.7,23.5c-3.6,3.1-2.9,8.5-5.8,12.1c-7.1,11-20.7,13.8-32.2,18
	c-3.4-3.2-6.8-6.8-7.9-11.5c-2-8.3,0.9-16.9,5.2-24c3.3-5.5,9-9.7,15.6-10c3.1-0.2,6,1,8.9,1.9c2.8,0.1,5.5-1.8,6.6-4.3
	c1.9-4.7,1.7-9.9,3-14.7c8.8-7.9,20.1-13.1,27.6-22.5c4.2-5.2,7-11.5,8.7-18c1.2-4.5,0.1-9.3,1.3-13.8c1.9-8.7,3.4-18,8.9-25.1
	c6.6-7.2,17.8-2.4,25.5-7.3c6.2-6,10.2-13.8,16.5-19.7c3.1-2.9,4.6-7,5.7-11c1.7-6.7,2.5-13.5,4.1-20.2c-6.2,1.6-11.8,5-16.3,9.5
	c-7.2,7.2-13.4,15.5-21.6,21.7c-7.8,4.8-16.8,7.4-24.6,12.4c-5.3,3.4-10.7,6.5-15.9,10c-4.7,8.5-9.1,18-17.4,23.7
	c-4.6,2.1-8.8,5-11.7,9.2c-9.6,13.2-15.2,28.6-21.3,43.6c-2.1,4.7-4.1,9.7-7.6,13.6c-1.7,2.1-4.6,2.3-7,3c-4.1,0.9-7.2,3.8-10.1,6.7
	c-5.2,5.2-8.5,11.8-11.9,18.2c-8.1,6.9-15.8,14.5-25.1,19.8c-3.9,2.3-8.6-0.6-10.8-4c-3.8-6.1-4.5-13.5-4.3-20.5
	c0.1-6.7,2.6-13.3,7.2-18.2c4.1-4.6,10-8.6,16.4-8c2.9,0.4,5.8,1.3,8.7,1.8c4.3-3.8,8.8-7.4,13.2-11c-0.4-3.7-0.8-7.8,1.3-11.1
	c3.4-5.9,9.4-9.7,15.3-12.9c5.7-8.7,11.2-17.4,16.3-26.5c2.5-4.3,3.5-9.3,5-14c2.8-9.8,6-19.5,7.7-29.6
	c12.4-2.9,22.2-11.8,31.3-20.3c0.3-15.7,1.4-31.4,3-47.1c2.2-19,5.6-38.1,12.9-55.9c-7.1,0.4-11.9,6.8-13.1,13.4
	c-2.1,14-1.9,28.3-4.1,42.3c-2.4,16.4-6.6,32.9-15.6,47c-5.2,8.2-12.7,15.1-21.6,19.2c6.8-12.9,14-26,16.6-40.5
	c-5.1,9-11,17.8-19.7,23.7c-14.6,10.4-33.4,12.1-50.7,10.5c16.1-4.5,33.4-11.1,42.8-25.9c-14,7.9-29.1,13.7-44.5,18.7
	c-13.6,4.3-27.1,10-38.4,19.1c-1.8,1.5-3.8,2.9-6,3.8c4.1-11.6,12.3-22.2,23.7-27.3c-11.2,3.8-21.8,9-32.7,13.4
	c-16.6,6.4-34.6,10.1-52.4,7.8c-9.3-1-18.2-3.9-26.8-7.6c15.2-1.8,31.6-2.3,45-10.7c-7.7,0.7-15.6,1.3-23-1.2
	c-5.8-1.7-10.8-5-15.5-8.6c7.6,3,16.1,5,24.2,2.7c8.1-2,14.8-7.6,20-13.9c7.1-8.8,15-17.1,24.3-23.6c12.2-8.6,26.4-14.1,40.8-17.5
	c3.4-0.8,6.9-1.2,10.3-2.3c-21.4-1.1-43.1,3.5-61.9,14c12-14,30.8-19.3,48.1-23.2c-9.5-1.4-19-2.9-27.9-6.7
	c28.5-3.3,54.3-17.7,76-35.9c11.8-10.2,23.7-20.2,35-30.8c23.1-17,55.9-17.6,80.5-3.4c7.8-8.6,17.7-15.1,28.3-19.7
	c10.7-3.5,21.6-6.1,32.5-9c20.4-4.7,38.3-16.4,54.8-28.9c13.4-10.8,26.6-24,30.7-41.3c2.2-8.4,4-17,7.8-24.8
	c-3.5,2.9-7.3,6.1-12.2,5.9c2-3.1,4.7-5.8,6-9.2c-5.8,3-12.7,4.3-18.8,1.4c4-2.6,9.5-1.9,12.9-5.4c7.3-9.5,1.6-23.7,10.3-32.5
	c-4.8,1.5-11.5,2-14-3.5c7.1,1.8,10.7-6,17.2-6.9c-6.1-7.2-17.6-2.3-23.8-9.2c10.9,1.9,20.9-4.2,31.5-5.3c12.9,0.3,25,9.4,38,5.1
	c-3.5-3.9-8.9-4.7-13.8-5.2c2.5-1.8,5.5-2.6,8.5-2.9c1.4,0.2,2.8,0.3,4.2,0.5c-3.9-3.1-7.8-6.2-11.7-9.3c6.2,0,12.3,1.7,18.5,1.7
	c-9.1-5-18.7-11.1-22.5-21.4c1.9,3.2,4.4,6.1,8.1,7.3c8.2,2.8,17,3,25.5,4.5c-3.3-3.4-9-5.8-7.9-11.5c2.1,2.4,4.4,4.7,7.5,5.7
	C534.8,164.4,543.4,164,551,167.3z"/>
<path class="st0" d="M597.4,149.5c4.8-1.7,9.8-0.4,14.7-0.1c5.6,1,11.3,1,17,0.9c-19.5,4.6-39.1,9.7-57.4,18.3
	c-6.1,2.8-11.7,6.6-17.1,10.6c2.5-3.5,5.2-6.9,8.5-9.5c-2.2-1.4-4.2-2.9-6.3-4.5c6.3,1.7,13,0.7,18.6-2.6
	C582.8,158.2,589.2,152.3,597.4,149.5z"/>
<path class="st0" d="M557.4,185.4c24.3-17.9,54.2-28.3,84.5-27.7c4.8,0.3,9.9,1,13.6,4.5c-7.2,1.2-15-0.9-21.9,2.2
	c-2.5,1-3.8,3.3-5.1,5.5c8.5-1,17-1,25.5-0.9c5.4,0.1,10.9,1,16.1,2.8c2.3-3.1,4.4-6.4,7.4-8.9c-1.9,9.3-7.7,17.1-10.7,26.1
	c-1.6,4.9-1.4,10.3-0.4,15.3c8.6-5.3,2.1-18.1,10.1-24.1c2.7,4.9,3.3,10.6,5.3,15.7c3.9-0.5,7.1-3,10.2-5.2c0.2,5.3,0,10.9,2.4,15.8
	c1.1,3.1,3.3,6.2,2.6,9.7c-0.2,1.9-1.8,3.3-2.9,4.8c2.1,1.1,4.6,2.1,5.5,4.5c2.5,5.7-0.8,11.7-0.2,17.6c-0.2,3.6,1.6,6.8,4,9.4
	c-1.8-0.1-3.6-0.3-5.3-0.6c6,6.1,8.5,14.7,10.2,22.9c1.7,11.4,2.6,22.9,4.7,34.3c-1.8-0.5-3.7-1-5.6-1.5c1.7,5.7,3.5,11.4,6.6,16.5
	c-2.5,5.2-4.9,10.5-7.5,15.6c-2,3.7-5.1,7.3-9.4,8.2c-3.2,0.2-6.4,0.1-9.6,0.1c-1.1-8.3-0.8-17.1-4.3-24.9c-1.2-3-3.9-4.8-6.5-6.3
	c1.8-3.1,4.9-4.9,8.5-4.8c0.1-4.4-0.1-8.9-1.4-13.1c-1,3.6-0.4,8.3-4.2,10.4c-0.7-9.5,0.2-19.1-1.1-28.5c-4.4-1.6-8.3,1.1-12.4,2.2
	c-5.1,1.3-10.2-1.8-12.7-6.1c-4.3-7-5.2-15.4-5.9-23.4c-0.3-10.4-0.5-21.3,3.8-31.1c1.6-3.8,4.5-6.9,8-9c-2.5-3.8-3.5-8.4-3.1-13
	c-6.6-5.8-15.9-6.4-24.1-4.6c-8.9,1.8-18.4,5.5-23,13.8c4.9-0.9,10-3.5,15-1.4c-5.4,2.4-11,4.5-15.8,8.2
	c-14.2,10.7-22.1,27.5-26.8,44.2c-1.6,4.6-2,9.6-3.7,14.2c-7.3,3.7-16.4,3.2-22.8,8.9c6.7,8.7,10.6,19.4,10.7,30.4
	c0.3,6.9-0.8,13.8-2.2,20.5c-5.8,7.1-12.9,13.2-19.3,19.8c6.3-2.1,10.9-7.2,16.2-10.9c4.4-3,10.9-3.4,15.1,0.2
	c7.6,6.2,11.5,15.8,18.8,22.2c8.6,8,19.9,13.1,31.6,14.4c4,0.5,9-1.7,12.2,1.8c5.9,5.5,9.3,14,7.5,22.1c-0.7,2-1.4,4.1-3.1,5.4
	c-4.4,3.5-8.6,7.3-13.5,10.1c-1.7-1.2-3.4-2.4-5.1-3.6c-5.4,9-10,18.4-15.9,27.1c-2.1,3.2-5.2,5.5-7.6,8.4c-3.1,3.6-1,9.7-5.2,12.7
	c-4.9,3.9-11.6,2.6-17.1,1.1c2.8-5.2,8.2-8.6,9.8-14.4c5.9-0.5,11.8-2.7,16.1-6.9c3.2-2.9,5.3-6.7,7.3-10.5c-2.7,2-5.5,3.7-8.4,5.4
	c4.5-8.8,10.2-17,15.3-25.5c-1.5-5.1-2.9-10.2-3.7-15.4c-9.1-0.3-18.2,1.1-26.9,3.4c-11.5,3.2-22.9,7.4-34.9,8.4
	c-7-3.9-12.6-9.9-17.8-16c0,4.1,0.6,8.2,1,12.3c-7.6-0.3-15.1-3.6-20.1-9.4c-7.7-8.8-10.9-20.4-13.1-31.7
	c-3.7-18.5-7.9-36.9-10.8-55.6c-1.7,2.4-2.9,5.1-3.9,7.9c-9.6-7.9-16-19.2-18.7-31.3c-6.5,6.9-9.5,16.1-15.1,23.6
	c10.1,4.7,20.4,10.5,26.6,20.1c4.3,6.5,3.5,14.7,2.7,22.1c-1.4,11.4-4.8,23-2.5,34.5c0.5,3.8,6.4,6.9,3.1,10.8
	c-12.9,16.1-30.6,28.7-50.5,34.6c-10.5,3.1-21.6,5.2-32.5,3.4c-15.8-2.1-29.9-11.6-39.8-23.9c-5.2-6.5-8.6-14.7-8.7-23.1
	c0.2-8.4,3.6-16.3,7.9-23.4c-10,3.2-18.3,11.5-20.9,21.7c-1.9,6.9-0.1,14.3,3.5,20.4c-3.6,10.4-6.6,20.9-10.2,31.3
	c-5-5.7-5.6-13.7-5.5-21c0-6.2,1-12.4,1.9-18.6c-7.5,5.4-10,14.9-11.1,23.6c-1.6,16.4-0.8,33.1-3.8,49.3c-1.9,8.2-7,15.1-12,21.7
	c-6.8,8.2-13.9,16.5-23.2,22c-2.7,1.7-5.9,2.2-9,2.8c1.2-9,2.7-18.1,4.7-27c0.9,2.4,1.5,4.9,2.3,7.4c2.7-3.5,3.4-7.9,3.3-12.2
	c0.7-13.5-5.6-26.4-4.5-40c1.1-16.1,9.7-30.5,19.2-43.1c9.6-12.2,19.6-24.3,31.6-34.3c3.4-2.6,6.7-5.6,11-6.7
	c12-3.4,24.1-6,36.3-8.8c6.3-1.7,12.1-4.8,18.1-7.5c19.4-9.2,38.6-19.6,54.1-34.6c5.5-5.6,10.6-11.7,14.2-18.7c2.5-4.8,4-10,6.2-15
	c3.7-8.8,8.2-17.3,14-24.9c4.9-6.5,9.5-13.2,14.8-19.3c8-7.3,21.2-6,27.8-15.2C532.7,205.4,544.6,194.8,557.4,185.4z"/>
<path class="st0" d="M719.5,181.6c2.5-4.8,7.3-7.6,11.5-10.8c-2.6,5.1-5.1,10.2-7.6,15.3C722.1,184.6,720.8,183.1,719.5,181.6z"/>
<path class="st0" d="M694.6,187.7c1.5-4.5,2.8-9.1,4.3-13.6c4.6-0.2,9.4,1.1,12.4,4.8c-2.6-0.2-5.1-0.5-7.7-0.7
	c6.2,4.7,13.1,9.1,17.1,16.1c-3.7-2.4-7.6-4.4-11.7-6c3.4,3.9,5.8,8.5,9,12.7c3.1,3.9,8,5.6,12.9,6c-5.5,3.3-12.2,1.4-17.2-1.9
	c1.7,3.3,4.5,5.9,7.5,8c-3.5-0.4-7.4-1.3-9.5-4.5c-2.8-4.6-4.2-9.9-6.2-14.8c-0.5,3.8-1,7.6-1.8,11.3
	C700.3,199.4,697.5,193.5,694.6,187.7z"/>
<path class="st0" d="M513.4,197.6c9.4-5.6,18.8-12.8,30.2-13.4c-10.5,9.3-20.8,19-29.3,30.2c-3.6,5.7-10.9,6-16.5,8.4
	c-8.6,3.8-15.4,11-20.1,19c-3.7,6.1-7.3,12.6-13.4,16.7c3.4-7,7.3-13.7,10.9-20.6c-3.3,1.5-6.6,3.2-10.3,3.1c3.3-4,6.9-7.8,9.9-12.1
	c2.9-4.4,7-7.6,11.5-10.1c-4,0.1-7.5,2-10.6,4.4c1.1-5.1,5.6-8,10.2-9.6c-6.3-2.8-10.8-8.3-13.3-14.6c6.4,3.4,13.6,6,21,5.3
	c-1.8-1.6-3.8-3-5.4-4.8C496.6,201.9,505.8,202,513.4,197.6z"/>
<path d="M684.8,206.3c0.3,0.2,1,0.7,1.3,0.9c1.4,4-0.9,7.5-2.5,11c3.1-0.6,7-4.2,9.8-1c-0.2,0.5-0.5,1.4-0.6,1.9
	c-3.8,0.6-7.5,1.4-11,2.7c0.1-2.8,0.8-5.6,2.1-8.1C685.4,211.5,684.8,208.8,684.8,206.3z"/>
<path class="st0" d="M628.1,214.7c6.5-5.5,15.5-5.6,23.6-5.5c-1.9,2.6-3.8,5.2-5.2,8.1C640.5,215.6,634.4,214.3,628.1,214.7z"/>
<path d="M671.7,225.8c-1-5.8,4.9-9.5,5.9-14.9c-1.4,4.6-1.7,9.4-1.5,14.2c1.4,2.1,4.1,2.7,6.4,3.3c4.4,0.8,8.8,1.2,13.2,1.3
	c-5.1,4.2-3.4,11.3-2.4,16.9c-6.6-1.1-15.2-3.1-16.5-11c-0.8,3.3,0.1,6.5,1,9.6c-1.5-1.1-2.9-2.3-4.4-3.4c0.8,13,4.6,25.5,7.3,38.2
	c-7.7-3.2-10.4-11.8-11.3-19.4c-1.5-10.7-1.5-22.8,5.6-31.6C674,227.9,672.8,226.9,671.7,225.8z"/>
<path class="st0" d="M618.5,228.6c3.1-3.4,7.6-5.9,12.3-5.2c-4.2,3.9-9.3,7.1-12.6,11.9c-0.8,1.1-1.3,2.5-1.4,3.9
	c-0.9,7.3,1.1,14.6,0.2,21.9c0,21-10.2,40.3-11.5,61.2c-4.7-3.2-7.3-8.8-8.1-14.3c2.8-9.7,5.3-19.5,7.8-29.2
	c3.1-11.4,4.4-23.2,6.6-34.8C612.7,238.4,614.5,232.7,618.5,228.6z"/>
<path d="M683.3,226.8c3.3-1.5,6.7-3.5,10.5-2.9c1.4,0.6,2,2.1,2.9,3.2C692.2,227.3,687.8,227.2,683.3,226.8z"/>
<path class="st0" d="M714.1,223.2c3.1,4.1,4.8,9,6.7,13.7c-1.2,3.7-2.8,7.3-3.7,11.1C715.9,239.8,714.3,231.5,714.1,223.2z"/>
<path class="st0" d="M679,234.6c2.3-3.2,6.3-2.6,9.4-1.1C685.3,233.9,682.2,234.3,679,234.6z"/>
<path d="M548,244.9c11.4-2.1,23.7-4.3,32.5-12.5c0.6,0.2,1.9,0.5,2.5,0.7c-0.6,8.3-1.9,16.9-6.9,23.9c-3.6,5.6-9.2,9.5-14.9,12.5
	C558.1,260.7,552.9,252.8,548,244.9z"/>
<path class="st0" d="M681,237c1.2-0.4,2.5-0.7,3.8-1c0.1,1,0,2-0.1,3C683.5,238.4,682.2,237.7,681,237z"/>
<path class="st0" d="M690,236.3c0.3,1.8,0.2,3.6,0,5.4c-0.4-0.5-1.1-1.4-1.5-1.9C688.9,238.5,689.4,237.4,690,236.3z"/>
<path d="M503.4,239.4c5.2,0,10.7-0.7,15.5,1.7c6.9,2.9,11.2,9.5,14,16.2c4.8,11.1,8.9,22.6,15.1,33c-4.9,0-9.7-1.8-13-5.4
	c-7-6.8-9.4-16.5-12.8-25.3c-2.3-5.8-4.6-12.2-9.6-16.3C510,241.1,506.6,240.3,503.4,239.4z"/>
<path d="M680.2,246.4c2.7-0.1,5.8,0.3,7.1,3C684.8,248.9,682.3,247.9,680.2,246.4z"/>
<path d="M683.1,259c3.1,0.6,6.3,2.2,7.7,5.2c2,4.5,2.3,9.6,3.1,14.4C689.4,272.6,686.3,265.7,683.1,259z"/>
<path d="M701.3,292.2c2.7,2.1,4.3,5.4,4.1,8.8c0.3,5.4-0.7,10.8-2.1,16.1c-5.6,2.3-9.9,6.9-12.5,12.4c-1-3.1-2-6.8-0.2-9.8
	c2.2-4.5,7.4-7.1,8-12.3C699.3,302.2,699.5,297,701.3,292.2z"/>
<path d="M693.7,338.5c-2.6-6.5,2.6-13.8,9.1-15.1c2.7-0.6,4.8,1.4,6.6,3c-1.8,1.5-3.7,3-5.6,4.4c1,2.4,1.8,4.9,1.8,7.6
	C701.8,339.7,697.7,339.7,693.7,338.5z"/>
<path d="M530.5,367.8c0.8-6.5,1.6-12.9,2.4-19.4c1.3,7.3,2.3,14.7,5,21.6c-2.8,6.4-5.4,12.9-8.7,19c-1.3-2.2-2.8-4.5-2.4-7.2
	C527.3,377,529.6,372.6,530.5,367.8z"/>
<path d="M555.7,354.9c6,1.2,7.2,8.4,12.1,11.2c10.8,5.8,24.7,3.3,34.5,11.4c-8.1-1.2-16.3-1.3-24.5-1.5c-5.8-0.5-12.5-1.6-16.4-6.5
	C559.5,364.7,557.7,359.8,555.7,354.9z"/>
<path class="st0" d="M240.7,381.9c14-7.3,30.3-11.4,46.1-8.4c4.6,0.9,9.3,3.5,10.5,8.3c-19.4-3-39.3,1.9-56.6,10.9
	c-14.3,7.6-27.6,17.9-36.5,31.6c7.6-5.8,16.7-9,25.5-12.5c-7.2,8.4-12,19-12.3,30.1c-0.3,5.9,0.4,11.8,1.7,17.6
	c2.3-8.4,4.4-17,8.9-24.6c1.9-3.1,4.6-5.7,7.9-7.3c-0.6,4.3-1.8,8.5-2.5,12.8c-2.9,14.3-4.6,29-10.4,42.5
	c-3.2,7.2-7.8,14.1-14.5,18.5c-4.1,2.8-8.8,4.4-13.5,5.6c4.3-5.1,9.9-8.8,14.3-13.8c5.6-6.8,7.5-16.1,6.6-24.8
	c-12.9,11.8-23.1,27.2-39.2,35.2c-8.8,4.6-18.8,5.7-28.6,5.2c9.3-2.8,14.2-12.1,22.9-15.9c-11.5,1.6-21.7,7.6-31.3,13.8
	c-9.9,6.3-21.4,10.5-33.2,10c4.3-1.4,8.8-2.4,12.7-4.6c8.8-4.5,15-12.4,22.9-18.2c3.9-3.2,8.3-5.5,12.8-7.7c-8.6,2.2-16.7,6-25,9.3
	c8.5-11.2,21.5-17.6,33.6-24c13.5-6.2,27.6-13.1,36.5-25.6c2.7-3.6,4.4-7.8,5.8-12.1c-6.5,6.4-16,8.1-24.8,8.6
	c-6.9,0.3-14.1-0.7-20.4-3.7c11.3-0.1,25.1-0.2,32.5-10.4c-6.7,1.8-13.5,3.9-20.5,3.2c11.7-3,21-11.2,29.3-19.7
	C213.2,400.1,226.1,389.5,240.7,381.9z"/>
<path d="M546.8,374.9c2.1-0.5,4.5-1.6,6.6-0.5c5.1,2.3,7.7,7.8,12.3,10.8c10.1,3.1,20.3-2.6,30.5-1.1c-9.3,6.3-21.1,6.2-31.9,6.1
	C558.5,385.1,552.3,380.4,546.8,374.9z"/>
<path d="M627.9,409.5c-6.2-5-6.1-13.8-4.9-20.9c1.2,3,3.4,5.3,5.3,7.8C626.5,400.6,626.1,405.2,627.9,409.5z"/>
<path class="st0" d="M654.4,395.5c3.2,6.4,3.4,13.8,4.2,20.9C653.1,411,651.9,402.4,654.4,395.5z"/>
<path class="st0" d="M341.5,453.3c1.8-9.6,3.2-19.4,6.7-28.5c0.6,11-1,24,7.3,32.6c-9.8,7.3-12.4,20.5-22.1,27.9
	C338.4,475.3,339.9,464.2,341.5,453.3z"/>
<path class="st0" d="M379.6,533.6c1.9-1,3.2-3.6,5.5-3.3c-1.4,3.3-4.1,5.8-6.3,8.5c-9,10.2-21.3,19-35.5,18.9
	C351,544.1,368,542.5,379.6,533.6z"/>
<path class="st0" d="M230.8,553.1c3.5-2.3,7.7-3.5,11.2-6c0.2,5.1-1.5,10.1-4.8,13.9c-4.3,5.2-8.9,10.4-10.9,16.9
	C225.6,569.5,227.1,560.9,230.8,553.1z"/>
<path class="st0" d="M300.1,564.7c3.2-0.2,6.4-0.5,9.6-0.7c-3.2,7.4-12.2,8.8-17.7,14.1C293.4,572.9,295.6,567.8,300.1,564.7z"/>
</svg>
