<?xml version="1.0" encoding="utf-8"?>
<!-- Generator: Adobe Illustrator 21.1.0, SVG Export Plug-In . SVG Version: 6.00 Build 0)  -->
<svg version="1.1" id="Layer_1" xmlns="http://www.w3.org/2000/svg" xmlns:xlink="http://www.w3.org/1999/xlink" x="0px" y="0px"
	 viewBox="0 0 825 825" style="enable-background:new 0 0 825 825;" xml:space="preserve">
<style type="text/css">
	.st0{fill:#FFFFFF;}
</style>
<path d="M408.8,109.3c4.4-0.5,8.9-0.4,13.3,0c44.1,0.5,88.4,9.9,128.2,29.3c34.6,16.6,65.5,40.4,91.6,68.4
	c26.8,28.8,47.6,62.9,61.4,99.7c29.7,76.8,25.8,165.4-8.8,239.9c-15.7,34.6-37.9,66.4-65.7,92.3c-29.2,27.4-64.2,48.2-101.4,62.7
	c-35.7,14-74.2,20.3-112.5,20.5c-38.8-0.1-77.7-7.3-113.6-22.3c-34.9-14.5-67.2-35.5-94.7-61.4c-25.5-24.4-47.1-53.2-62.9-84.8
	c7.7,9.5,15.2,19.2,23.6,28.1c27.3,30,60.2,55.1,97.4,71.5c39.2,17.9,82.1,27.7,125.2,27.8c44.7,0.1,89.6-8.5,130.5-26.6
	c34.7-15.5,66.6-37.5,93.1-64.8c27.4-27.9,48.4-61.9,61.2-98.8c14.5-40.3,20.1-84.1,13.7-126.6c-6.3-41.7-23.2-81.6-47.6-116
	c-21.8-30.5-49.7-56.5-81-77c-38.2-25-82.4-40.2-127.7-45.1c-40.3-4.8-81.6-2.7-120.8,8.2c-19.2,5.2-37.8,12.7-55.5,21.7
	C300.7,125.7,354.8,109.9,408.8,109.3z"/>
<path d="M304.5,197.6c7.2,3.5,13.6,8.4,20.7,12.2c23.2,12.9,48.3,22.6,74.2,28.6c29.6,6.3,59.7,9.7,89.8,12.7
	c-2.6,13.5-3.6,27.9,0.6,41.2c1.7,5.5,5,10.3,8.4,14.9c-5-2.5-9.2-6.3-13.3-10.1c-9.3-8.8-17.5-18.6-25.9-28.3
	c-43.6,19.5-85.8,43-122.9,73.4c-32.4,26.6-60.7,59.1-78.6,97.2c-18.4,39.1-27.3,83.6-19.7,126.6c32.9-9,67.1-16.1,101.4-13
	c-9.9-17.9-19-36.5-24.1-56.4c-4.8-18-4.5-37.1-1.3-55.4c4.5-24.9,16-48,31-68.3c27.3-37.3,67.5-63.7,110.8-79
	c-2.8,3.8-6.7,6.5-10,9.8c-14.2,13.8-26.2,30.4-32.7,49.2c-7,19.9-7.5,41.7-2.9,62.2c8.2-41.3,32.9-77.3,62.9-106
	c-9.6,17.4-20.3,34.2-28.6,52.3c-5.6,12.2-11.2,24.6-13.8,37.8c-0.8,5.9-1.4,12.7,2.5,17.6c3.3,4,9,4.4,13.9,3.8
	c18.6-2.6,36.3-9.9,55-11.9c7.2-0.5,15.1-1,21.6,2.7c2.6,1.4,4.5,3.6,6,6.1c-9.8-4.3-21.2-4.2-30.9,0.2c-2.5,1.3-5.3,2.8-6.7,5.4
	c6.4,20.6,13.8,41,20.2,61.6c8.7,0,17.7,2,24.6,7.5c6.5,5.3,11.4,12.6,13.3,20.8c3.7,13.7,6.7,27.5,10.4,41.1
	c3.1-14.7,11.6-28.2,24.2-36.5c2.5-1.1,0.6-3.7,0.1-5.5c-13.9-35.4-20.9-73.1-22.8-110.9c-8.9-3.6-16.3-9.9-23.6-15.9
	c4.5,31.6,9.1,63.1,13.4,94.7c-12-43.6-23.2-87.4-34.8-131.2c2.8,4.2,5.4,8.7,8.2,13c1,1.8,3.1,2.3,4.8,3.2c9,4,19.4,4.4,28.7,1.4
	c-8.3-25.1-16.7-50.3-24.8-75.5c-8.6,3.9-16.5,9.2-24.6,14.1c-9.9-8.2-12-22.2-9.8-34.2c2.3-14.4,7.5-30.1,20.5-38.2
	c-0.3,12.9,1.2,26.7,8.9,37.5c4.1,6.1,10.4,10.4,17.1,13.1c11,36.4,23.3,72.4,34.7,108.7c-2.8,4.4-7.2,7.6-9.8,12.1
	c0.5,21.1,4.7,41.9,8.8,62.5c2.2,9.7,4.2,19.6,8,28.8c2.8,6.9,10.2,10.2,13.6,16.7c-6,11.4-16.2,20.1-20.6,32.4
	c-2.2,5.9-2.8,12.3-2.2,18.6c-5.4,4.9-13.4,5.5-20.3,4.5c-4.7-0.6-9.8-2-12.7-5.9c-3.2-4.6-2.3-10.4-2.7-15.6
	c-5.2-0.1-10.5,0-15.7,0c-1.1-16.4-2-32.9-4.2-49.1c-4.7,0.4-10.1,1.9-12.3,6.6c-2.9,6.4-0.2,13.4,1.6,19.6
	c2.5,9.2,5.5,18.3,7.1,27.8c-7.8,0.8-15.5-1.5-22.6-4.3c-4.8-2-9.7-4-13.4-7.6c-3.8-3.4-3.9-9.1-3.2-13.8c1.7-6.4,5.5-11.9,7.9-18
	c-12.4-19.3-26.9-37.2-39.8-56.3c-8.9,2.4-19,4.2-27.4-0.8c13.1,35.7,34.4,67.5,52.8,100.5c11.1,19.8,22.5,39.9,28,62.1
	c3.5,14.1,4.6,29.3-0.4,43.2c-33,4.3-66.3,6-99.5,3.8c-45.4-3-90.5-13.8-131.5-33.7c-14.9-7-28.8-15.7-43-24
	c-22-13-44.1-25.9-66.1-38.9c-2.8-2.1-7.2-3-8.7-6.4c-13.3-37-26.7-74-39.9-111.1c15.2-1.3,30.1-5,44.6-9.6
	c9.6-3.1,19.2-6.5,27.7-11.9c-6.8-2.3-14-3.2-21.1-4.4c-16.8-2.4-33.7-5-50-10.1C102.3,406.1,91,401.7,82,394
	c24.2-1.6,48.4-4.1,72.2-8.9c57.6-11.3,113.5-34.6,159.4-71.5c-8.4-1-16.9-0.8-25.3,0.1c-38.3,5.1-74.5,19.4-109.7,34.8
	c7.1-10,16.4-18.3,25.7-26.2c30.4-25.6,65.7-45.4,103.5-57.6c11.8-4,24-7,36.1-9.7c-8.3-7.7-17.1-14.9-24.2-23.7
	C312,221.6,305.8,210.1,304.5,197.6z"/>
<path class="st0" d="M330.8,283.2c27.2-12.4,57.5-18.5,87.5-16.7c-11.9,7.5-25.2,12.5-37.5,19.3c-1.2,0.6-2.4,1.3-3.8,1
	C361.8,284.1,346.2,283.8,330.8,283.2z"/>
<path d="M537.1,267c11.5,0.2,23.2,0.9,34.5,3.1c9.4,2,19.3,6.3,24,15.2c3.8,6.6,2.9,14.6,2.8,21.9c-0.4,14.6-4.3,29.4-1.4,44
	c1.1,6,4.4,12,10.1,14.5c4.6,2.2,9.7,1,14.5,0.6c-8.6,4.4-19.1,2.8-27.4-1.5c-10.5-5.8-18.4-15.2-24.9-25.1
	c-6.1-9.4-11.4-19.5-13.4-30.7c-1.2-7.4-0.7-15.1,2.7-21.9C551.9,279.9,544.3,273.7,537.1,267z"/>
<path class="st0" d="M377,354c11.8-12.4,24.9-23.4,38.9-33.2c-13.3,18.3-22.5,39.8-25,62.3c-3.9,32.3,4,64.7,15.4,94.7
	c15.9,34.5,32.6,68.7,48.9,103.1c4.3,9.6,8.3,19.6,9.3,30.2c0.5,5.1-0.6,10.3-3.7,14.4c-10.7-8.6-19-19.8-29.8-28.4
	c-22.4-24.2-43.8-49.8-60.6-78.4c-10.6-18.1-19.4-37.4-23.8-57.9c-4.5-19.8-4.4-40.9,1.9-60.3C354,382.9,364.3,367.2,377,354z"/>
<path class="st0" d="M178.9,397.5c38.1-5,74.2-19.5,108.3-36.5c-11.2,14.3-23.1,28-33.4,43c-0.7,1.5-2.6,0.7-3.9,0.8
	C226.3,402.4,202.5,400.5,178.9,397.5z"/>
<path class="st0" d="M463.1,444.7c4.7-2.9,9.1-6.1,13.7-9.2c9.5,17,18.9,34.1,28.2,51.2c-3.2,4.6-3.6,10.3-5.6,15.4
	C486.9,483.4,475.2,463.9,463.1,444.7z"/>
<path class="st0" d="M146.7,464.5c30.8-2.2,60.1-13.1,87.9-25.9c-11.6,16.9-21.4,35.2-27,54.9c-4.7,15.6-6.5,31.9-6.6,48.1
	c-13.7-14.8-25.1-31.5-36.2-48.2C158.5,483.9,152.3,474.3,146.7,464.5z"/>
<path class="st0" d="M531.5,501c3.9,3.8,5.7,9.1,7,14.2c2,7.8,2.9,15.8,3.4,23.8c-2.5,0-5.1,0-7.6-0.1
	C533.4,526.3,532,513.7,531.5,501z"/>
<path class="st0" d="M258.4,591.2c16.7-5.1,34.2-7.2,51.6-8.1c14.3-1.1,28.7-0.3,42.8,2.4c16.4,3.3,32.4,9.7,45.3,20.5
	c10,8.4,17.8,19.5,22.1,31.8c-44-5.2-87.6-14.7-128.8-31.2C280.1,602,269,597.1,258.4,591.2z"/>
</svg>
