<?xml version="1.0" encoding="utf-8"?>
<!-- Generator: Adobe Illustrator 21.1.0, SVG Export Plug-In . SVG Version: 6.00 Build 0)  -->
<svg version="1.1" id="Layer_1" xmlns="http://www.w3.org/2000/svg" xmlns:xlink="http://www.w3.org/1999/xlink" x="0px" y="0px"
	 viewBox="0 0 825 825" style="enable-background:new 0 0 825 825;" xml:space="preserve">
<style type="text/css">
	.st0{fill:#FFFFFF;}
	.st1{fill:#A3A3A3;}
	.st2{fill:#A4A4A4;}
	.st3{fill:#090909;}
	.st4{fill:#7C7C7C;}
	.st5{fill:#5A5A5A;}
	.st6{fill:#3D3D3D;}
	.st7{fill:#A2A2A2;}
	.st8{fill:#5F5F5F;}
	.st9{fill:#333333;}
	.st10{fill:#9F9F9F;}
	.st11{fill:#8E8E8E;}
	.st12{fill:#C6C6C6;}
</style>
<path d="M442.8,83.5c3.8,1.7,4.1,6.2,5.2,9.6C446.6,89.8,444.6,86.7,442.8,83.5z"/>
<path d="M579.8,90.2c2.4,2.3,5,4.4,7.8,6.2c-0.6,0.4-1.2,0.8-1.8,1.2C583.8,95.2,581.8,92.7,579.8,90.2z"/>
<path d="M465.5,102.6c1-0.1,1.9-0.2,2.9-0.3c0,1.3,0,2.6,0,4c-0.8-0.1-1.6-0.2-2.4-0.2C465.8,104.9,465.7,103.7,465.5,102.6z"/>
<path d="M532.9,108.4c1,0,2,0.1,3.1,0.1c0.3,1.7,0.4,3.4,0.5,5.1c-1.8-0.1-3.2-1-4.2-2.5C532.4,110.4,532.7,109.1,532.9,108.4z"/>
<path d="M478.9,113.8c1.3,3.2,1.4,6.6,1.7,10C479.1,120.7,478.9,117.2,478.9,113.8z"/>
<path d="M462.6,118.2c2.8-1,2.3,3.9,2.3,5.8C463.4,122.4,462.7,120.3,462.6,118.2z"/>
<path d="M459.9,128.9c1.2,1.4,2.3,2.9,3.3,4.5c-0.9-0.3-1.8-0.6-2.6-0.9C460.3,131.2,460.1,130.1,459.9,128.9z"/>
<path d="M529.8,131.9c3-0.6,6,0.2,8.7,1.5C535.4,134.4,532.1,134.3,529.8,131.9z"/>
<path d="M541.5,142.3c8.2-5,17.3-8.6,26.9-9.4c0.2,1.1,0.3,2.1,0.5,3.2c0.6-0.6,1.8-1.7,2.4-2.2c-0.7-0.1-2-0.3-2.7-0.4
	c1.5-0.2,2.9-0.3,4.4-0.5c1.2,1.7,2.4,3.5,3.4,5.4c1.1,0.4,2.3,0.9,3.4,1.3c-1.6,0.7-3,1.5-2.2,3.3c1,0.6,2,1.1,2.9,1.8
	c-0.3,1.7,0.4,3.3,0.9,4.9c1.4,0.4,3,1.6,4.5,0.5c4.6-1.5,1.8-11.9-3-7.7c-1.3-1.2-2.6-2.5-3.7-3.9c7.4,0.2,14.2,3.3,20.9,6.3
	c1.4-0.8,2.7-1.6,4.1-2.4c0.6,1.5,1.1,3,1.5,4.5c10.7,1,21.2,4,32,4.1c3.3-5.1,6.5-10.7,12.1-13.7c0.1,6.7-2.7,13.1-2.2,19.8
	c5.3-2.4,7.4-8,8.7-13.3c0.4,1.5,0.7,2.9,1.1,4.4c1.6,0.4,3.2,0.8,4.8,1.2c-1.4,0.2-2.9,0.4-4.3,0.5c1,8.6-2.9,16.6-4.4,24.9
	c-1.4,7.4,5,12.7,6.6,19.5c1.5-1.3,3.3-2.5,5.3-2.9c1.4,3.3,1.5,7.1-0.7,10.1c7.7,7.2,9.8,20.7,2.4,28.8
	c6.8,19.2,13.2,38.8,22.7,56.9c1.2,0.5,2.4,0.9,3.6,1.4c0.6,3,2.2,5.8,3.9,8.3c-0.8,4.5-1.3,9-2.4,13.5c-6.9,2.9-7.6,11.4-7.2,17.9
	c-5.5,2.7-11.7,1.3-17.4,0.6c3.5,1.4,6.6,3.6,9,6.5c3-1.1,7-1.6,9.3,1.2c2.5,2.6,1.1,6.4-0.6,9c-3.3-2.2-6.4-4.8-9.8-6.9
	c-1.9-0.6-3.9-0.2-5.8-0.3c-13.8-11.5-32.6-13-48-21.5c-1.3,2.8-3.8,4.7-6.8,5c-2.1-0.4-4.8-2-5.7,1c-0.2-0.5-0.7-1.5-0.9-2
	c-1.5,1.5-3,3-4.5,4.6c0-2.1-0.2-4.2-2.7-4.7c0,3.6,0.5,7.1,1.2,10.6c-1.2,0.8-2.5,1.5-3.8,2.2c-1.9-2.1-3.6-4.4-5.5-6.6
	c0.9,5,3.4,9.5,5.3,14.2c1.4,3.2,1.7,6.7,2.5,10.1c-0.9-0.8-1.7-1.5-2.6-2.2l0.2-1.9c-2.9,1.8-4.5,7.8-0.6,9.4
	c3,0.5,2.5-3.5,3.6-5.4c0.7,4.7,4,8.5,8,10.8c-2.2,0.1-4.4,0-6.5-0.5c0.4,2,0.8,4,1.2,6c-1.9,0.6-4.4,1.1-5,3.3
	c-1,5.2,1.7,10.3,5,14.1c0.4-0.2,1.2-0.7,1.6-0.9c0.5,0.8,0.9,1.5,1.4,2.3c4.6-1.8,7.2,4.7,6,8.4c2,2.8,3.8,5.9,6.8,7.8
	c7.2,0.2,10.6-9.4,18.1-8.7c1.8,0.3,3.2-1.2,4.7-2c4.3,3.9,7.5,8.9,12.1,12.6c1.3-1,2.6-2.2,4.3-2.7c1.1,4.6,1.9,10.6,7.2,12.1
	c-0.6,2.9-1.1,5.7-1.7,8.6c-3.3,5-6.2,11-4.2,17.1c-1.6,7-1.6,14.2-1,21.3c0.9,8.7,1.2,17.4,1.2,26.1c-4.9,4.1-10.4,7.5-16.1,10.4
	c-0.3-0.5-0.9-1.5-1.3-2c-1.8,4.5-3.5,9-5.2,13.5c4.3,6.6,11,11.1,15,17.9c5,7.7,8.1,16.4,12.6,24.3c3.9,7.4,11.1,12.4,16,19.1
	c1.2,1.3,0.7,3.1,0.6,4.6c6,9.5,11.9,19,18.4,28.1c-10.7,3.8-22.7,4.2-33.6,0.9c-5.4-1.6-9.9-5.5-12.3-10.6c-2.5-0.3-4.9-0.6-7.4-1
	c-10.9-17.4-12.2-38.8-22.2-56.7c-1.6-2.5-2.9-5.3-5.2-7.4c-2.4,3.8-5.7,7-9.9,8.7c-1.8-9.2-4.3-18.3-4.4-27.8
	c-3.7-5.6-10.5-8.8-13.1-15.2c-0.4-3.3-0.7-6.6-2.8-9.3c-0.6,4,1.7,7.4,2.8,11.1c-3.6-2.3-6.4-6-10.8-7.1c-0.4,0.8-1.2,2.3-1.5,3.1
	c-2.5-1.8-3.8-4.8-4.7-7.7c-0.5-0.1-1.5-0.4-2-0.5c-1.2-1.6-2.5-3-4.5-3.5c0.2-0.6,0.7-1.8,0.9-2.4c-1.9,1.6-4.2,1.3-5.8-0.6
	c-0.3,1.1-0.6,2.2-0.9,3.3c-2-0.6-4.1-1.1-6.2-1.5c-0.1-1.4-0.1-2.7-0.2-4.1c-1.5-0.8-3-1.5-4.5-2.2c-0.6,0.3-1.3,0.6-1.9,0.9
	c5.4,5.1,8.1,12.2,13.2,17.5l0.8-2.7c2.6,2.7,2.6,7.7-0.2,10.2c-3.4-0.4-3.3-5.3-1.2-7.3c-5.2-6-11.6-11.6-13.9-19.5
	c-1.9-0.2-3.8-0.5-5.7-0.7c1,1.8,2.7,3,4.9,2.6c-0.5,0.3-1.4,0.9-1.8,1.1c3,3.9,4.4,8.8,7.5,12.7c-0.3,0.1-0.8,0.4-1,0.6
	c2.8,3,0.2,8.3-4,7.5c0.4-1.3,0.8-2.7,1.3-4c-2.9-1.6-5.3-4.1-8.3-5.6c-1,4.2-1.1,8.7,0,12.9c-1.6,7.8,1,15.8-0.7,23.6
	c1.8,0.1,5.4-1.5,5.3,1.6c1,3.2-1.9,7.5-5.4,6.4c-1.9-1.2-1.4-3.5-1.4-5.4c-1.2-0.3-2.3-0.6-3.4-0.9c-1.3-4-0.1-8.8-2.7-12.3
	c2.3-4.1,3-8.9,4.1-13.4l1.3,0.4c0-3.1-0.3-6.2-0.5-9.4c-0.4-0.4-1.3-1.2-1.7-1.5c-0.6,2.1-1,4.3-1.3,6.4c-0.1-2.5-0.2-5-0.4-7.4
	l0.7,1.4c0.8-0.4,1.5-0.7,2.3-1.1c-0.3-1-0.8-3.1-1.1-4.1l2.2,0.7l0-1.3c-0.3,0.1-1,0.3-1.3,0.4c0.7-4.1-3-7.7-6.8-8.4
	c-1.8,0.1-3.3,1.2-4.9,2.1c-0.2,1.9-0.4,3.9-0.6,5.8c0.5,0.1,1.4,0.4,1.8,0.5c-0.2-1.2-0.4-2.4-0.6-3.6c2.2,1.5,4.4,3.1,6.4,4.9
	c-1,3-2.2,6-3.7,8.9c-1.4-1.7-2.7-3.4-4.1-5c-0.1,1.5-0.2,3.1-0.3,4.6c0.9,0,2.7,0,3.6,0c0.1,2.8-1.9,2.9-4.1,2.5
	c-1.3,4.2-0.8,10.4-6,11.9c-0.3-5.3,1.7-10.2,3-15.2c0.6-1.6-1-2.8-1.5-4.1c0.8-0.1,2.3-0.4,3.1-0.6c-0.2-1.3-0.5-2.6-0.7-3.9
	c0.3,0.4,1,1.2,1.4,1.6c0.3-2.3,0.6-4.6,0.7-7c-4.9-0.6-7.3,4.4-9.8,7.8c-5.9,6.7-7.9,15.8-12.9,23c-0.4-0.4-1.3-1.2-1.7-1.6
	c-2.1,3-3.7,6.3-6.2,9c-7.2,8-13.4,17-18.1,26.6c-2.5,0.4-3.9,2.3-4.1,4.7c2.8-0.6,4-3.2,5.9-5.1c1,1.7,0.6,3.5-2,2.8
	c0.1,0.9,0.3,1.8,0.4,2.7l-0.5-1.6c-2.8,2.4-5.3,6.9-9.5,6.5c-3.3-0.3-1.4-4.3-0.9-6.3c2.5-4.1,7.1-6.2,10.5-9.4
	c0-0.7-0.1-1.9-0.1-2.6c4.6-2.1,5.3-8,10-9.9c5.6-16.8,19-29.2,28.7-43.6c-2.6,0.5-5.2,1.1-7.8,1.8c0.8,1.6,1.5,3.2,2.1,4.9
	c-2.4,0.2-4.9,0-7.3-0.2c-0.1-1.7-0.2-3.4-0.1-5c-0.4,0.6-0.9,1.2-1.3,1.8c-1.7-1.1-3.7-1.4-5.7-1.6c-8.5-0.8-17.1-1.6-25.5-3.1
	c1,2.4,2.7,5,1.4,7.7c-0.2,2-2.7,1.4-4,1.7c-0.2-1.8-0.3-3.6-0.4-5.5c-2.9,3.9-6.3,7.5-9.4,11.3c1.4,1.7,2.8,3.4,4.2,5.1
	c-0.8,1-1.6,2-2.4,3c-1.3-1.7-2.7-3.4-4-5.1c-1.6,2.7-2.3,6-4.7,8.1c-1.5,5.5-5.6,9.7-10,13c-0.6,3.5-1.5,7.1-3.2,10.3
	c-3.9,0.3-6.8-3.2-6.6-6.9c2-3.5,5.9-4.9,8.6-7.7c1.8-1.7,1.3-4.5,2.9-6.3c6-7.4,11-15.5,16.6-23.2c-1.9-0.6-1.7-2.7-2.1-4.2
	c-1.6-0.9-3.2-1.9-4.7-2.8c0.3-0.4,0.8-1.3,1-1.7c-3.5-1-7.1-1.6-10.7-2c-0.1,0.7-0.4,2.1-0.5,2.8c-1.1-1-2.1-2-3.1-3
	c-4.9,7-4.4,16-8.2,23.5c-1.2-8.2,4.8-15.1,5.5-23.2c-6.6-2.7-13.9-1.7-20.8-2.9c0.2,0.5,0.7,1.5,1,2c-1.9,1.3-3.7,2.8-4.9,4.7
	c1.5,6.5,9.1,7.7,13.4,11.8c-4.7-2.5-10.6-3.1-14-7.6c-0.4-0.2-1.1-0.5-1.5-0.7c-1.4-0.9-2.7-1.8-4.1-2.7
	c-3.4,6.9-6.8,14.2-13.4,18.6c0.2,0.3,0.5,1,0.7,1.4c2.9,0.8,5.9-2.2,8.8-0.4c-0.3,1.7-0.7,3.3-1,5c-2.2-0.6-4.6-1.3-6-3.3
	c-0.7,0-2-0.1-2.6-0.2c0.3,3,0.6,6.2-0.8,9c0,1.4,0,2.9,0,4.3c-0.2-0.8-0.5-2.5-0.6-3.4c-1.6,1.1-3.3,2.1-5,3.1
	c-1.1-2.9-2.3-5.8-3.2-8.8c-1.2,2.1-2.7,5-5.7,4.2c-5.3-0.6-6.5-8.8-1.2-10.5c-1.7-1.7-3.5-3.3-5.2-4.9c-0.3,0.8-1,2.5-1.3,3.3
	c0.5-0.1,1.6-0.2,2.1-0.2c-0.2,1.4-0.4,2.9-0.6,4.3c-0.5-1.5-1-2.9-1.6-4.3c-0.5,3.3-2.6,6.2-2.8,9.5c3.6,11.2,6.9,22.7,13.4,32.6
	c-0.8-0.4-2.5-1.2-3.3-1.6c3.4,6.3,4.8,13.9,2.2,20.7c-2.4-1.4-3.7-4-5.1-6.3c-1.7,1.7-3.3,3.5-5,5.1c0.8,4.4-1.4,8.6-3.5,12.3
	c-3.4,0.1-6.5-3-6.1-6.5c0.3-2.1,2.4-3,4-4.1c0.8,1.5,1.6,3,2.5,4.4c0.2-1.5,0.3-3,0.5-4.5c3.1-1.7,4.1-5.5,6.5-7.9
	c-1.5-1.6-4-3.6-2.6-6.1c1.3,0.2,2.6,0.6,3.9,1c0.4-3.5,0.2-7.1-1.2-10.4c-0.8-2.2-3.2-3.1-4.9-4.6c1.5,0.2,3,0.4,4.5,0.7
	c-1.1-1.4-2.1-2.6-3.2-4c-0.3-1.9-0.8-3.8-1.3-5.7c-1.6,2.9-3.1,5.9-4.9,8.7c-0.5-0.8-0.2-2.5-1.4-2.5c-1.6,2.8-0.1,6,0.4,8.9
	l-1.7-1.3c0.1,1.2,0.4,3.7,0.5,4.9c1.9-1.1,4-2.1,6.2-2.3c-0.3,1.8-0.6,3.6-1.1,5.4c-1.7,0.3-3.5,0.4-5.1,0.7
	c1.5,1.4,3.5,0.5,5.3,0.7c-1,1.4-2.2,2.5-3.6,3.5c0,1.9,0,3.8,0.1,5.7c1.1-0.3,2.3-0.5,3.5-0.8c-2.6,2.4-4.7,5.4-6.8,8.2
	c-0.4-0.6-1.3-1.7-1.8-2.2c0.2-0.4,0.7-1.1,0.9-1.5c-0.6-0.3-1.8-0.9-2.3-1.1c3.8-3.6,4.8-9.7,2.3-14.3c-0.7,4.4-1.8,8.8-2.6,13.2
	c-5.2,2.7-5.9,10.8-2.2,15c-2.1,4.1-4.4,8.4-4.8,13.2c-1.6,10-4.2,20-3.1,30.2c1.4,5.3,3.2,11.7,8.8,13.9c1.8-1.5,3.1-4,5.7-3.8
	c-1.6,1.7-3.5,3.1-5.4,4.6c2.9,4.3,7,7.7,10.5,11.5c2.8,3.2,3.7,7.4,4.2,11.5c7.3,3.1,14,8.2,17.9,15.2c2.6,4.4,4,9.5,4.8,14.6
	c-9.4-1.2-18.7-2.7-28.2-3.3c0.3,0.8,1,2.3,1.3,3.1c-2.9-0.7-5.9-0.9-8.9-1c-2-7.8-9.9-11.2-14.4-17.3c-1.5,1.1-4.9,2.1-4.1-1
	c0.6-0.4,1.9-1.2,2.5-1.6c-5.1-11-8.2-22.8-11.5-34.5c-1.9,1.3-3.8,2.6-5.9,3.6c0.2-3.5,1.7-6.7,2.9-9.9c-0.8-0.6-1.7-1.1-2.6-1.6
	c-0.4-1.2-0.7-2.4-1.1-3.6c-0.4-0.1-1.1-0.3-1.4-0.5c0.3-3.4-2.9-5-5-7.1c-2.2,0.9-4.4,1.8-6.5,2.8c0.7-2.9,1.6-5.7,2.4-8.6
	c-1.8,1.2-3.9,1.9-6.1,2c-3.2,7.7-3,16.7-8.2,23.5c0.8,1.5,1.5,3.1,2.2,4.7c-2.5,2.2-3.9,5.5-6.5,7.5c-1.1-0.2-2.2-0.4-3.3-0.7
	c0.9-3,1.9-5.9,3.2-8.8c-0.8,0.2-2.3,0.6-3.1,0.8c-0.9-2.9,2-2.5,3.9-2.8c4.3-11.2,9.6-22.2,11.8-34.1l-0.5-0.5
	c-1-0.5-2.1-0.8-3.1-1.2c-1.1,0.5-2.2,1-3.3,1.5c0.1-1.8,0.3-3.6,0.5-5.4c1.1,0.9,2.4,4.5,4.2,2.4c0.5-1.6,1.8-2.4,3.5-2.1
	c0-0.5,0.1-1.6,0.1-2.2c-1-0.4-2.1-0.7-3.1-1.1c0.8-1.8,2.3-3.2,3.5-4.7c0.3,0.7,0.8,2.1,1.1,2.8c2.3-5.6,4.3-11.4,6.4-17.2
	c-1.1-1-2.3-1.9-3.4-2.8c0.4-2.4,1-4.7,1.6-7c-1.4-1.5-1.8-2.9,0.4-3.7c-0.7-1-1.4-1.9-2.1-2.8c1.4-1.1,2.5-2.4,2.9-4.2
	c-2.6,1.4-6,1.5-7.5,4.4c-0.3-1.1-0.5-2.3-0.8-3.4c1.5-2.4,2.6-5,3.8-7.5c-2.9,0.4-4.5,2.8-6.2,4.9c-0.2-0.9-0.5-2.8-0.7-3.7
	c-1.2,3-1.6,6.2-2.5,9.3c-0.9-3.5,0.9-8.1-2.7-10.3c0.3,1.5,0.6,3,0.9,4.5c-5.7,3.6-5.9,11.2-10.9,15.5c0.1-2.5,1.7-4.3,3.1-6.1
	c1.4-1.5,1.1-3.7,1.3-5.6c0.9-0.2,1.8-0.4,2.7-0.6c-0.1-2.2,0.4-4.4,1-6.6l-1,0.8c-0.6-1.2-1.3-2.3-2-3.4c-5,4.2-8.7,9.7-12.6,14.9
	c4.5-0.3,0.9,5.8-1.9,3.7c-2.1,3.8-4.2,7.5-6.3,11.3c-0.5,1.2-1.7,1.8-2.7,2.4c-0.1,2,0.2,4.1-0.9,5.9c-1,2-3.3,2.4-5.2,3.2
	c-6.2,8.4-9.6,18.5-16.4,26.5l-0.5-2.4c-1.2,2.8-2.5,5.9-6.1,5.7c0.7-6.6,4.4-12.3,7.9-17.8c-0.3-2.6-0.2-5.6,1.9-7.6
	c2.8-2.3,5.9-4.2,8-7.2c-0.2-0.7-0.7-2.1-1-2.9c-3.3,2.7-5.3,7.2-10,7.9c-0.1-2.4,0-4.9,0.1-7.3c-3.2,2.6-3.6,7.5-7.6,9.2
	c-0.2,3.1-2.4,5.4-3.4,8.2c-0.1-0.5-0.3-1.5-0.5-2c-6.7,6.1-10.9,14.3-15.4,22c1.6,1,4.9,1.2,4.5,3.9c-1.8-0.6-3.3-1.6-4.6-3
	c-3.8,9.3-8.4,18.2-11.4,27.8c-0.6,2.7-2,5.6-0.6,8.2c-2.9,4.6-3.4,10.4-1.5,15.5c1.9,4.8,4.1,9.4,6.1,14.1c1.5,0,3.1,0,4.4,1
	c-2.2,6-3.1,12.4-4.8,18.5c0.1-1.2,0.2-2.3,0.4-3.5c-11.3-0.3-22.6-1-33.7-2.9c-4.3-0.7-8.5-1.8-12.5-3.5c0.6-1.7,1.3-3.4,1.9-5.1
	c-2.4-8.2,1.4-16.2,5.1-23.3c0.9-6.4-0.7-13,0.2-19.4c6.6-9.2,14.9-16.9,21.7-25.9c5.9-7.9,9.8-17.2,11.1-27c-1.3,1-2.6,2.1-3.9,3.2
	c5.6-7.5,8.2-16.7,9.1-25.9c-1.8,1.1-3.6,2.9-5.8,1.6c2.3-3.8,5.9-6.7,8.5-10.3c0.4,0.7,1.2,2.1,1.6,2.9c-1.1,1.7-3,3.2-2.6,5.5
	c3,0.6,3.7-3.1,3-5.3c1.5,1.1,3.2,1.2,5,0.3c0.4-1.4,1.3-2.7,1-4.1c-1.2-2.1-2.8-3.9-4.3-5.8c-0.7,1.4-1.4,2.9-2.1,4.3
	c-0.9-0.8-1.7-1.7-2.6-2.6c-1.2,1.2-2.6,2-4.2,2.6c0.9-3.3,2.2-6.7,4.9-8.8c0.8-2.3,1.4-4.8,3.4-6.4c3-2.5,6.7-3.9,9.7-6.3
	c2-3.2,2.7-6.9,3.8-10.5c-4.4,1.6-8.9,3.5-12.1,7.1c-2.6,2.5-3,6.3-4.7,9.3c-3.9,6.8-10.3,12.5-11.6,20.6c-1.7,1.6-3.8,2.3-6,1.5
	c0.5-1.5,0.7-3.2,1.8-4.4c0.8-1.3,2.5-0.2,3.6-0.3c3-4.5,5.2-9.6,8-14.2c-1.5,1.3-3,2.8-4.5,4.1c-1.2,2.7-5.4,2-5.1-1.1
	c2.4-3,4.6-6,6.2-9.5c-0.3-0.2-0.8-0.6-1.1-0.8c-3.6,2.6-7.7,4.5-10.6,8c-0.4,0-1.3,0-1.8,0c0.4,1.9-0.4,3-2.2,3
	c0-0.8,0-1.6,0.1-2.4c3.2-1.3,5.6-3.9,7.9-6.4c-5.4,1.7-10,5.6-15.7,6.3c1,3.3-1,8-5.1,6.6c0-1.8,0-3.6,0.1-5.4
	c-1.6,0-3.2-0.1-4.7-0.2c0.5-3.2,2.4-8,6.6-6.8c0.1-0.6,0.4-1.9,0.5-2.5c0.7,0.2,2.1,0.7,2.8,1c-0.8,1.2-1.8,2.2-3,3.1
	c-0.2,1.4-0.4,2.7-0.6,4.1c3.1-3.8,6.4-7.6,10.9-9.9c-0.2-2.2,0.3-4.6-1.6-6.2c2-0.7,4-1.4,6-2.1c-1.1,0.7-2.2,1.4-3.3,2.1
	c0.3,1.7,0.5,3.4,0.5,5.1c5,3.5,11.6,1.7,15.6-2.5c1.1,0.3,2,0.1,2.7-0.6c3.7-3.7,6.8-8.5,6.9-13.9c-2.6,0-5.1,0.6-7.6,1.4
	c1,0.6,2,1.2,3,1.7c-0.7,2-1.2,4.6-3.4,5.5c-1.5,1-3.2-0.3-4.7-0.6c1-2.2,2-4.4,2.8-6.7c-2.5,1.2-2.9,4.2-4.2,6.3
	c-0.1-1.1-0.3-3.3-0.4-4.4c-2.5-0.1-5.1-0.2-7.7-0.2c0.6-1.5,0.8-3.4,2.4-4.3c3.5-0.9,8.2,1.5,10.4-2.2c0.2,1.3,1.1,2.2,2.1,3
	c2.6-0.9,5.2-1.7,7.8-2.4c-7.5-5.1-13.5-14.6-23.8-13.7c0.7-0.4,2.2-1,2.9-1.4c-5-4.6-10.2-9.2-16.6-11.8c-3.3-1-5-4.5-8.3-5.8
	c1,1.7,2.1,3.3,3.3,5c-0.6,0-1.8,0-2.4,0c-1.4,3.1-2.8,6.2-4.6,9.1c-0.7,0-2.1,0.1-2.8,0.1c0.3-1.8,0.7-3.6,1.1-5.3
	c-1.8,0.5-3.6,1-5.3,1.4c3.5-2.6,7.2-4.7,11.2-6.2c-1.3-2.1-2.7-4.2-3.8-6.4c0.3-1.6,1-3.1,1.6-4.5c3.8-0.1,6.8,2.4,8.4,5.7l1.9-0.7
	c4.9,6.1,11.6,10.3,18.2,14.3c-0.9-1.3-2-2.5-3.1-3.7c0.2-1.5,0.4-3.1,0.6-4.6c1.9-1,4.6-1.8,6.2,0.2c2.1,1.9,2,4.7,1.2,7.1
	c-1.4,0.3-2.8,0.6-4.2,0.9c7.2,6.8,14.9,13.3,23.9,17.5c-1.4-5-2.6-10.7-7.2-13.8c-0.1,1-0.3,3.1-0.4,4.1c-2.2-1.1-4.6-2.4-6.8-0.4
	c-1.1-4.3,1.7-8.5,5.2-10.9c0.1-2.5,0.5-5,1.1-7.5c1.2,1.8,2.5,3.7,3.9,5.4c1.6-1.9,2.8-4.1,4.1-6.1c-0.8-4.2,2.3-10.4,7.2-9.1
	c-1.5-0.8-2.9-1.7-4.3-2.6c0.3-0.9,0.8-2.6,1.1-3.5c-1.6,1.4-3.3,2.7-5.1,4c0.9-3.1,1.1-6.4,2.1-9.5c-2.8-1.4-5.3,0.3-7,2.5
	c-1.7-0.8-3.4-1.5-5-2.3c1-1.5,2-3.1,3-4.6c-2-2.2-3.9-4.3-5.9-6.5c-1.9,1.5-3.6,3-5.4,4.6c1-1.9,2.2-3.8,3.3-5.6
	c-3.1-3-7.8-2.6-11.1-5.2c-1.5,1-3,1.9-4.6,2.8c2-1.4,3.8-3,4.9-5.2c-2.2-0.3-4.3-0.6-6.5-0.9c-0.4,1.4-0.4,3.1-1.6,4
	c-2.1,0.2-4.3,0-6.4,0c0.2-2.8-0.1-7.3,3.4-8.2c0.6,0.2,1.9,0.7,2.6,0.9c1.7-2.3,3.6-4.5,5.7-6.5c1.3,2.4,2.5,4.9,3.7,7.4
	c2.1,0.1,4.3,0.2,6.4,0.1c4.4,2.8,8.3,6.1,12.1,9.7c0.8-0.4,2.3-1.3,3.1-1.7c-1.3-3.5,1.9-6.2,4.7-7.5c-1.5,1.6-3.1,3.1-4.4,4.8
	c0.1,2.2,0.5,4.5-0.5,6.6c0.4,0.5,1.2,1.6,1.6,2.2c1.8-0.2,3.6-0.5,5.3-0.8c-2.6,1.3-2,3.2-0.7,5c0.5-1.3,0.3-3.1,1.4-4
	c0.8-0.1,2.5-0.2,3.3-0.2c0.4,0.9,0.9,1.9,1.4,2.9c0.7-1.1,1.4-2.2,2.1-3.3c0.5,1.4,0.9,2.7,1.5,4.1c0.2-0.7,0.6-2.2,0.8-2.9
	c-0.4-1-0.9-2.1-1.2-3.1l-1.7,0.1c1.6-2.9,3.5-5.6,5.1-8.5c1.2,1.2,2.4,2.5,3.5,3.9c-1.3,1.6-2.7,3.1-4.2,4.6
	c0.5,0.9,0.9,1.9,1.4,2.9c2.2-2.8,3.7-6.2,6.1-8.9c-1.3-0.3-2.6-0.6-4-0.5c-0.1-3,1.3-6.1,4.6-6.5c-0.2,1.2-0.6,3.6-0.8,4.8
	c0.6,0.5,1.1,0.9,1.7,1.4c-0.2-4.4,2.1-8.1,4.2-11.8c-2.5,1.7-4.8,3.7-7.4,5.4c2.6-3.9,7.9-5.3,9.3-10.1c-4.2,1.6-6.8,5.5-10.5,7.7
	c-0.9-2.7,0-5.2,1.2-7.6c1.7,0.2,3.4,0.4,5.1,0.8c-0.4-1.7-0.8-3.3-1.1-5c0.6,1.5,1.2,3,1.8,4.5c2.9-1.8,3-5.4,3.2-8.4
	c-2.9-1.8-6-3.3-8.7-5.5c-2.5-2.2-1.9-5.7-1.5-8.6c4.4-0.4,7.5,3,10.6,5.6c0.1-1.2,0.3-2.3,0.4-3.5c0.9-0.1,3,1.4,2.9-0.2
	c0.8-1.8-1.5-2.1-2.6-2.6c1.9-10.6,1.8-21.5,1.1-32.3c-0.8,0.2-2.5,0.6-3.3,0.8c1.5-2.3,4-4.4,3.6-7.4c1.1-0.7,2.1-1.3,3.1-2.2
	c0.3-2-1.6-3.1-2.8-4.3c0.5-5.1,1-10.2,2.3-15.2c1.4-0.4,2.8-0.8,4.2-1.2l-2.2-0.3c0.5-4.6,3.4-8.4,6.5-11.6c-7.8-7-19-7.2-28.8-6.3
	c-0.1,1.3-0.2,2.6-0.2,3.9c-0.1-0.8-0.3-2.3-0.4-3.1c-4.2,0.2-7.4,3.6-11.1,5.3c0.8,4.3-1.1,9.5-6.1,9.8c-2.2,4.3-3.4,8.9-4.4,13.5
	c-3.3,5.8-6.9,11.6-11.2,16.8c-1.7,2.8-1.3,6.3-1.6,9.5c-0.8-1.2-1.6-2.5-2.4-3.7c0.4-5,4.3-8.7,5.2-13.5c3.8-0.2,4.3-7.3,1.2-8.7
	c-13,1-24.7,9.2-31.6,20.1c1.9,2.5-1.1,4-2.2,6c-1.4,2.1-1,4.9-1.3,7.3c1-0.9,2.2-1.7,3.3-0.5c-0.1,1.5-1.5,2.5-2.3,3.6
	c1.3,2,2.8,4.3,5.2,5.1c1.9,0.5,4,0.4,5.9,0.5c-2.1,2.6-4.1,5.3-7.1,6.9c0.1-2,1-3.7,2.2-5.2c-2.7,0.4-5.6-0.2-7.7-2
	c-2.6-2.6-3.3-6.3-4-9.8c-2.6,6.9-5.3,13.9-9.4,20c-2.7,3.9-6.9,7.5-11.9,7.2c-2.4,0.1-4.7-0.9-7-1.5c3,0.2,6.7,0.9,8.9-1.9
	c2.7-3.4,4.6-10,0.1-12.7c-5-2.7-9.9,1.3-14.3,3.4c-3.4,2.2-7.8,2.5-11.6,1c-1.1,1.4-2.1,2.9-3.4,4.1c-1,1.3-2.3-0.3-3-1.1
	c-1.1-1.6-1.1-3.6-1.4-5.4c-3.7-2.2-7.2-4.6-10.8-7c5.2,1.1,10.1,3,15.3,4.1c-0.3-1.5-0.6-2.9-0.9-4.3c1,0,2.9,0,3.8,0
	c-0.1,1.4-0.2,2.8-0.4,4.1c6.5,0.3,12.9-0.4,19.1-2.5c-0.8-1.9-1.6-3.8-2.3-5.7c0.3,0.4,1,1.3,1.3,1.7c0.3-0.4,1-1.3,1.3-1.7
	c0.8,0.9,1.6,1.8,2.4,2.7c1.1-2.2,2.1-4.5,3.1-6.8c-5.2,0.5-10.4,2.1-15.6,0.8c0.2,1,0.5,2.9,0.6,3.9c-1.8,0.4-2.8-0.7-3.5-2
	c0.3-0.5,1-1.6,1.3-2.1c-3.1-1.4-6.2-2.6-9.1-4.4c-0.8,0.9-1.6,1.8-2.4,2.6c-0.7-0.4-2.2-1.3-3-1.7c0.4-1.5,0.9-3,1.5-4.4
	c-6.5-8.4-11.2-19-9.7-29.8c2.1,10.9,8.1,21.8,18.3,26.9c6.2,3.2,13.2-0.2,17.9-4.6c-4.2-0.2-8.3-2.3-10.3-6.1
	c-3.2-5.7-4.8-12.7-3.1-19c0.9-3.3,3.7-5.5,6.6-6.9c-0.9,2.4-2.3,4.7-2.9,7.2c-0.2,5.1,0.2,11.2,4.4,14.7c4.2,0.4,8.5-1.4,11.7-4
	c8.2-7.1,10.2-18.3,16.3-26.9c-2.2-2.1-4.2-4.7-4.3-7.9c-0.4-7,2.2-15,9-18.2c-2.9,4.4-7.9,10.4-3.7,15.5
	c8.7-2.1,15.6-8.2,23.4-12.4c0-1.6-0.1-3.2,0-4.9c0.3,1.5,0.4,3,0.5,4.5c1.2-0.8,2.5-1.5,3.7-2.3c-0.1-1.4-0.2-2.8-0.2-4.1
	c0.5,1.4,0.9,2.7,1.4,4.1c2.2-1,4.1-2.4,5.8-4c0.4-1.4,0.8-2.9,1.2-4.2c0.7,1.3,1.3,2.6,1.9,4c9.3-4,19.2-6.5,29.2-8
	c1.9-4.1-0.1-8.4-2.1-12c-1.3-2,0.5-4.3,0.9-6.3c1.8,0.2,3.6,0.3,5.4,0.6c1.2,1.6,2.1,3.4,3.2,5c-0.8,1.3-1.7,2.6-2.7,3.9
	c1.3,1.9,4.4,3.3,2.7,6c9.2,2.5,18.6,3.8,28,5.4c-4.6-5.9-11.2-9.9-15.7-16c-2.9-4-3.8-9-4.3-13.8c1.5,4.5,3.1,9.2,6.4,12.8
	c6.2,7.3,16.3,8.7,23.5,14.5c0.8,2.4,1.1,5,2.1,7.3c1.1-1.3,0.5-3.3,1-4.9c0.9,1.3,1.7,2.7,2.4,4.2c5-0.8,8.6,3.2,11.5,6.7
	c0.5-0.3,1.4-1,1.9-1.3c0.1,0.7,0.3,2.2,0.5,2.9c6.8-3.3,13.7-6.5,21-8.6c3.1-0.9,6.6-0.8,9.4-2.6c8-2.3,16.6-2.2,24.8-1.3
	c-1.4-2.8-1.6-6.5,1.2-8.5c4.7,0,5.9,8,2.3,10.4c4.2,2.5,9.2,4.3,12.2,8.4c-0.9,2.3-0.4,4.5,1.9,5.6c0.2-1,0.6-2.9,0.8-3.8
	c2.6,1.4,5.2,2.8,7.7,4.5c1.5-2.1,3-4.1,4.7-5.9c9.6,0.3,15.6-8.5,24-11.8c-0.8-6.5-1-13-2.3-19.4c-0.5-1.8-0.8-3.9-2.2-5.2
	c0.4,1,0.8,2.1,1.3,3.1c-1,0.8-2.1,1.5-3.1,2.3c-0.5-2.3-1.1-4.6-1.6-7c0.7-1.4,1.5-2.8,2.2-4.3c-1.8,1.5-3.5,3-5.3,4.5
	c0.1-2.7,0.5-5.3,1.1-7.9c1.8-0.4,3.8-0.8,5.3,0.6c0.7-0.7,1.5-1.4,2.2-2.1c-0.3-1.4-0.6-2.8-0.9-4.2c1-1.1,1.9-2.1,2.9-3.2
	c0.2,3.5,0.6,7.1,2.7,10c1.4-0.3,2.9-0.7,4.3-1c-0.7-3.2-2-6.2-2.9-9.3c0.6,0.1,1.9,0.3,2.5,0.4c0.1-0.6,0.5-1.7,0.6-2.2
	c1.1,1.2,2.2,2.4,3.3,3.6c-0.1,2.3-0.5,4.6-1.1,6.8c2.3,1.9,5.2,1.6,7.7,0.2c-1.3-3.3-3.6-6-6.3-8.2c0.4-0.5,1.2-1.4,1.6-1.8
	l-2.4-0.4c2.5-1.3,4.9-2.7,7.1-4.5c1.7,1.6,2.9,4.2,0.4,5.7c1.3,2.5,2.4,5,3.6,7.5c4.5-0.6,10.4,0.5,13-4.3c1.4,0.5,2.7,2.1,4.3,1
	c0.2-2-0.1-4-2.6-3.9c0.3-1.5,0.7-3,1.1-4.5c-5.9,2.4-10.3,7.2-16.2,9.5c3.2-2.9,7-5,10.4-7.7c-1.9,0.2-3.7,0.5-5.5-0.1
	c4.9-0.6,9.8-2.1,13.3-5.8c-0.4-0.7-1.3-2.1-1.7-2.8c-2.1,0.2-4.3,0.6-6.4,0.8c0.3-2.5,3.1-1.8,4.9-2.1c-0.6-0.4-1.7-1.2-2.3-1.6
	c3.2-1.2,6.7-1.7,9.9-3c0.1-0.7,0.2-2.2,0.3-2.9c3.3-0.1,6.7,0.6,10-0.1c-2.4-1.6-4.7-3.2-7.1-4.8c0.1-0.4,0.3-1.1,0.4-1.4
	c2.4-0.1,4.8,0.3,7.2-0.1c1.6-0.6,1.2-2.2,1-3.5c-2.2,0.2-4.4,0.5-6.6,0.8c2.2-3.2,6.3-1,9.3-2.3c3.3-1.7,2.7-5.9,2.9-9
	c1.9,1.1,3.7,2.5,4.2,4.9c0.7-1.6,1.5-3.3,2.3-4.9c1.4,0.4,2.8,0.7,4.1,1.1c-0.2-2.9-0.6-5.7-1.4-8.5c-3.8,0.5-8.3,0.2-11.2,3.1
	c-6,1.2-9.2,6.9-13.8,10.4c1,1.3,2.2,2.4,3.5,3.4c-1.2,1.3-2.4,2.6-3.3,4.1c-3,0-6,0.3-9,0.4c1.2-0.4,2.4-0.8,3.6-1.2
	c-0.1-0.6-0.4-1.8-0.5-2.4c-4.5,2.2-9.2,4-14.1,5.2c-0.6-1.9-1.2-3.9-1.8-5.8c0.8,0.9,1.6,1.7,2.4,2.6c5.3-4.3,11.5-7.9,15.2-13.8
	c-2-4.1-1.8-10.5-6.9-12.2c-0.7-1.9-1.1-4-2.8-5.2c0-0.5-0.2-1.4-0.2-1.9c1.2,0.9,2.3,1.9,3.4,3c1.5-1,2.8-2.3,4.5-2.9
	c2,0.4,3.7,1.6,5.4,2.6c-0.5,3.8-0.8,7.7-0.2,11.6c7.9-8.3,18.2-16,30.4-15.3c-6.1-2.2-12.5-3.8-19-4.2c-1-4.5-2-8.9-2.9-13.4
	c2.4,5.9,6.6,12.6,13.9,12.2c1.7-2.7,4.2-4.7,7.3-5.6c0.7,1.8,0.6,3.7,0.2,5.6c0.6,0,1.8-0.1,2.4-0.2c-0.4-3.2-1.1-6.3-1.3-9.5
	c-0.5,0.1-1.6,0.4-2.1,0.5c0.6-1.3,1.1-2.6,1.7-3.9c1.3,4.3,2,8.8,3,13.2c3-0.9,5.8-2.3,8.7-3.4c0,0.9,0.1,2.6,0.1,3.5
	c2.1,1.1,4.2,3,6.7,1.7c-0.7-1.9-1.5-3.7-2.2-5.6c-1.5,0.1-3,0.2-4.4,0.3c0.3-0.6,0.9-1.8,1.2-2.4c-5.2-3.6-10.4-7.3-15.5-11.1
	c-1.4-0.9-2.7-2-4.4-2.2c0.9-0.5,1.8-1,2.7-1.6c0.2-0.9,0.4-1.8,0.6-2.7c-0.6-0.1-1.8-0.4-2.5-0.6c-0.4,1.3-0.8,2.6-1,3.9
	c-8.5-6.3-19.7-8.2-29.9-5.8c1,2.2,1.6,4.5,1.5,6.9c-3.6,0.5-6.1-2.5-9-4.1c6.9-5.9,16.2-8.4,25.2-8c5,0.2,9.7,2.2,13.6,5.2
	c0.2-1.5,0.4-3,0.6-4.5c2-0.1,4.6-0.5,5.7,1.6c1,2.4,1.6,4.9,2.4,7.4c10,1.8,21.9,3.1,30.1-4.2c-1-0.8-2-1.5-3-2.2
	C520.8,146.8,531.2,144.6,541.5,142.3z"/>
<path d="M449.9,138.5c1.2,0.1,2.4,0.3,3.6,0.5c-0.5,1.1-1.3,1.8-2.3,2.2C450.7,140.3,450.3,139.4,449.9,138.5z"/>
<path class="st0" d="M565.1,143.8c0.3-2.5,1.7-4.5,4-5.6c0.8,1.8,1.1,3.8-0.3,5.4C567.5,143.7,566.3,143.8,565.1,143.8z"/>
<path d="M517.2,141.7c2.3-2.7,6-2.8,8.9-1.1c-1,0.9-1.9,2-3.1,2.6C520.8,144,518.9,142.4,517.2,141.7z"/>
<path d="M405.1,151.4c0.9-3.3,2.1-6.5,3.5-9.7C408.6,145.2,409,149.9,405.1,151.4z"/>
<path d="M497.9,142.1c4.5,2.2,8.1,5.9,12.9,7.5c-0.2,1-0.7,2.9-0.9,3.9c-2.2-0.4-4.3-1.3-5.5-3.4C499.8,151.2,497,146.1,497.9,142.1
	z"/>
<path class="st0" d="M531.4,146.5c2.2-1.1,5.2-0.2,5.4,2.6c0,2.7,1.3,6.5-1.6,8.1c-1.5,1.5-4.3,2.3-5.7,0.2
	C526.2,154.3,527.1,148.2,531.4,146.5z"/>
<path class="st1" d="M436.2,147.6c1.3,0.2,1.6,0.9,0.7,2.1C435.5,149.5,435.2,148.8,436.2,147.6z"/>
<path class="st0" d="M515.7,153.4c-1.5-0.1-1.2-2.5,0.2-2.5C517.5,150.9,516.9,153.4,515.7,153.4z"/>
<path class="st0" d="M518,149.9c0.5,0.9,1.1,1.9,1.7,2.8c0.1-0.3,0.4-0.8,0.5-1.1c2.2-0.3,4.3-0.5,6.5-0.7c0.2,2,0.2,4.1-0.7,6
	c-2.1-0.8-4.2-1.7-6.2-2.7c-0.5-0.1-1.6-0.3-2.2-0.5C517.7,152.8,517.9,150.9,518,149.9z"/>
<path d="M303.8,168.9c-0.4-3.9,0.1-7.9,1.2-11.7C308.6,160.3,307,166.2,303.8,168.9z"/>
<path d="M411,157.8c2.7,2.7,1.9,7.7-0.9,10.1C409.1,164.4,410.1,161,411,157.8z"/>
<path class="st0" d="M506.8,165.3c0.3-2-0.1-4.9,2.1-5.9c1.2-0.1,2.5-0.2,3.7-0.2c0.2,2.6-0.2,5.5-2.6,6.9
	C509,165.9,507.9,165.6,506.8,165.3z"/>
<path d="M670.8,163.9c0.2-2.4,1.7-4.5,4-5.3C673.6,160.5,672.4,162.4,670.8,163.9z"/>
<path class="st0" d="M516.3,165.6c1.7-0.4,3.3-1.4,5.1-1.1c1.6,3-2.9,4.2-5,4.8C516.4,168,516.4,166.8,516.3,165.6z"/>
<path d="M418.9,165.9c5.7,4.7,10.9,10.1,15.1,16.2c0.8,1.2,1.9,2.1,3,3c-0.2,0.4-0.5,1.2-0.7,1.6C430,180.2,424.9,172.6,418.9,165.9
	z"/>
<path d="M325.4,186.6c-0.8-6.6-0.8-13.2-0.4-19.8c1.1,3,3.2,5.5,4.9,8.2c-0.7-0.1-2.1-0.3-2.8-0.4
	C326.1,178.5,326.7,182.7,325.4,186.6z"/>
<path d="M429,166.6c1.7,2.5,2.5,5.5,2.4,8.6C430.3,172.5,429.4,169.6,429,166.6z"/>
<path class="st0" d="M535.9,171.4c1.2-0.1,2.3-0.2,3.5-0.3c-0.1,1.3-0.1,2.5-0.2,3.8C537.2,174.8,536.3,173.2,535.9,171.4z"/>
<path class="st0" d="M525.7,177.3c0.8-0.1,2.4-0.2,3.2-0.3l-0.9,1.9c0.7,0,2.1-0.1,2.8-0.1l-0.8,1.5c0.8,0.4,1.6,0.8,2.5,1.1
	c1,1.7,2.3,3,3.8,4.1c-0.6,1.7-1.9,2.8-3.3,3.8c-1.7-2.7-2.3-5.9-4.2-8.4C527.8,179.6,526.7,178.5,525.7,177.3z"/>
<path d="M287.8,179.1c0.7-1.3,2.7-2.1,3.9-1.2C292.4,179.8,288.2,180.8,287.8,179.1z"/>
<path class="st0" d="M600.8,181.7c0.2,3.4,0.1,7.5-3,9.7C598.3,188,599.5,184.8,600.8,181.7z"/>
<path class="st0" d="M468.5,186.3c0.4,0.6,0.8,1.2,1.2,1.8c-0.9,1.2-1.7,2.4-2.7,3.5C467.5,189.8,468,188.1,468.5,186.3z"/>
<path class="st0" d="M629.9,189.4c-0.8-0.9,0.1-3.1,1.4-2.5C632,187.8,631.2,190,629.9,189.4z"/>
<path d="M340.2,188.6c1.6,2.3,2.6,4.9,2.8,7.7C341.6,193.9,340.7,191.3,340.2,188.6z"/>
<path class="st0" d="M533.3,190.6c3-2.7,8.8-1.2,8.5,3.4c1.6,5.1-7.1,7.6-9,3.1C532.1,195,531.8,192.3,533.3,190.6z"/>
<path class="st0" d="M629.9,194.3c1-1.9,2.3-4.7,5.1-3.7c3.2,0.6,4.3,3.9,4,6.8C636,196.3,632.9,195.3,629.9,194.3z"/>
<path class="st0" d="M453.8,201.2c2.4-2.8,5.1-5.4,8.3-7.4C459.9,196.7,457.1,199.3,453.8,201.2z"/>
<path d="M470,197.9c2.9,0.7,4.4,3.4,5.8,5.8C473.7,201.8,471.7,200,470,197.9z"/>
<path d="M321.8,198.6c1.4,2.1,2.5,4.3,3.5,6.6C323.7,203.4,322.3,201.1,321.8,198.6z"/>
<path class="st0" d="M478.7,199.5c1.5,0.2,3,0.5,4.5,0.7c0.7,1.3,1.4,2.7,2,4.1C482.5,203.6,480.5,201.4,478.7,199.5z"/>
<path class="st0" d="M603.7,199.2c2.4,3.3,0.7,7.4-1.6,10.3C601.9,206,601.9,202.4,603.7,199.2z"/>
<path class="st2" d="M313.5,204.4c2.3-0.8,1.7,4.5-0.2,4C312.5,207.3,312.6,205.6,313.5,204.4z"/>
<path d="M288,205.9c1.4-0.2,2.9-0.4,4.3-0.5c-1.3,1.9-3.4,2.8-5.6,3.1C287,207.8,287.7,206.5,288,205.9z"/>
<path d="M388.4,207c-4.1,1.9-9,1.5-12.6-1.3C379.9,206.9,384.2,206.4,388.4,207z"/>
<path d="M428.4,205.5c0.9,0.1,1.8,0.2,2.7,0.3c0,2.4,0.1,4.9,0.1,7.3C427.7,212.3,428.9,208.1,428.4,205.5z"/>
<path d="M405.6,212.9c-3.4-2.6,1.5-6.4,4.4-6.3c1.6,3.5,4.2,6.4,6.2,9.6c-1.4,0.5-2.8,1-4.2,1.3c-1.5-1-2.6-2.5-3.6-4c-1,0-2,0-3,0
	L405.6,212.9z"/>
<path d="M696.5,215.4c1.6-4.5,6.2-6.3,10-8.5C704.2,210.8,700.6,213.8,696.5,215.4z"/>
<path d="M278.1,211c-1-1.8,2.2-4.1,3.6-2.5c1.3,0.7,0.2,2.6,0.5,3.8C280.6,212.3,278.1,213.4,278.1,211z"/>
<path d="M269.4,214.7c0-2-0.4-4.4,1.7-5.6c2.8-0.4,2.7,3.3,1.9,5C271.9,214.6,270.6,214.5,269.4,214.7z"/>
<path class="st0" d="M622.4,208.7c1.2,2.4,2.1,5,2.6,7.7C623.1,214.3,622.7,211.4,622.4,208.7z"/>
<path d="M711.3,214c-0.2-2.2,0.1-4.7,2.8-4.9c0.7,1.7,1.4,3.5,2.2,5.2C714.6,214.2,713,214.1,711.3,214z"/>
<path d="M296,211c3.3,2.5,7,4.5,10.6,6.6c-0.3,2.5-0.4,4.9-0.6,7.4c1.2-1.3,2.6-2.6,4-3.7c3.8,2.3,5.5,7.8,3.2,11.7
	c-1.6,2.3-4.9,0.8-5.9-1.3c-2.7-4.8-4.2-10.3-4.1-15.8c-1.9,1.7-3.8,3.3-5.8,4.8C294.8,218.1,294.7,214.4,296,211z"/>
<path d="M326.4,221.9c-2.3-2.8-4.2-8.5,0.7-9.7c0.6,1.4,1.2,2.8,1.8,4.2C328.1,218.2,327.3,220,326.4,221.9z"/>
<path d="M314.9,213.8c1.1,0.3,2.1,0.7,3.2,1.2c0.6,2.1-1.3,3-2.6,4.1C314.9,217.4,314.6,215.6,314.9,213.8z"/>
<path d="M347.8,215c0.3,0.3,0.8,0.9,1.1,1.1c0.1,0.7,0.3,1.4,0.5,2.1c-0.5,0-1.5,0-2,0C347.5,217.1,347.7,216.1,347.8,215z"/>
<path class="st0" d="M669.4,218.6c-2-0.3-1.2-4.1,0.7-3.2C670.8,216.3,670.8,218.4,669.4,218.6z"/>
<path d="M418.7,216.7c3.7-0.9,9.2-2.3,10.8,2.4c-3.1-0.1-6.3-0.4-9.3,0.6C419.7,218.7,419.2,217.7,418.7,216.7z"/>
<path d="M424.3,219.6c4.7-0.6,4,4.9,4.8,7.8C425.4,226.6,423.9,223.1,424.3,219.6z"/>
<path d="M432.3,222.9c0.6-2.7,4-4.2,6.3-2.4c2.8,1.2,3.1,4.4,2.9,7.1c-1.8,0.4-3.6,0.4-5.4,0.1c0,0.7-0.1,2-0.1,2.7
	C434.7,227.9,433.3,225.5,432.3,222.9z"/>
<path d="M287.1,222.8c4,6,7.8,12.2,11.2,18.6C293,236.3,290.7,229,287.1,222.8z"/>
<path d="M242.6,224.2c0.7,1.1,1.3,2.2,2,3.3c-0.6,0.9-1.2,1.8-1.9,2.7c-1.1-0.8-2.5-1.5-2.4-3.1C241,226.1,241.8,225.2,242.6,224.2z
	"/>
<path class="st0" d="M630.9,224.8c0.9,1.1,1.7,2.3,2.5,3.6c1.5-1.6,3.2-3.6,5.6-3.2c2.7,0,4.5,2.1,5.5,4.3c-0.6,1.6-1.2,3.2-1.7,4.9
	c-1.9-0.3-3.8-0.4-5.6-0.5c1.7,3.6,5.7,5.5,6.9,9.2c-4.6-1.7-5.8-6.9-8.9-10.1c-0.8-0.2-2.5-0.5-3.4-0.7c0.6-0.3,1.8-0.9,2.4-1.2
	C633.1,228.9,631.5,227,630.9,224.8z"/>
<path d="M243.8,231.2c1.1-1.7,0.6-4.4,2.2-5.5c4.8-1.4,6.8,6.2,3.6,8.7C247.1,235.9,243.9,234.1,243.8,231.2z"/>
<path d="M429.9,227.1c0.4-0.3,1.1-1,1.5-1.4c0,2,0.2,4,0.6,6c0.5-0.7,1.6-2.2,2.2-2.9c0.7,1.7,1.1,3.5,1.9,5.2
	c-1.1,1.8-2.6,3.3-4.9,3.4c-0.5-0.9-0.9-1.8-1.3-2.7c-2.5,1.1-5,2-7.7,2.5c2.3-3.1,7.4-2.3,8.4-6.6C430.3,229.6,430,228,429.9,227.1
	z"/>
<path d="M337,226.9c1.9,1.6,3.6,3.6,4.2,6.1c0.9-1.7,1.7-3.5,2.6-5.2c0.6,0.2,1.7,0.5,2.3,0.6c0,1.6-0.1,3.1-0.1,4.7
	c-1.5,0.1-3,0.1-4.5,0.3c0.6,1.6,1,3.2,1.4,4.9C340.6,234.7,339,230.7,337,226.9z"/>
<path d="M230.4,228.5c1-0.1,2-0.1,3-0.1c-0.1,1-0.1,2-0.2,3c-0.9,0.1-1.9,0.2-2.8,0.3C230.4,230.6,230.4,229.5,230.4,228.5z"/>
<path class="st3" d="M313.5,233c0.7-1.6,2.1-2.6,3.4-3.6c0.9,3.6,1.6,7.2,3,10.7c-1-0.3-3.1-0.9-4.2-1.2
	C316.4,236.4,315,234.7,313.5,233z"/>
<path d="M177.5,230.7c0.9,2.3,1.4,4.7,2,7c-0.2,0-0.7,0-0.9,0C178.1,235.4,177.6,233.1,177.5,230.7z"/>
<path class="st0" d="M515,232.4c1.2-0.3,2.4-0.6,3.7-0.8c0,0.9,0,2.8,0,3.8c1.6-1.8,3.4-4.4,6.2-3.1c3,2.7,2.6,8.9-1.9,9.6
	c-3.9,1-4.1-4.4-3.8-6.9c-0.9,1.3-2.1,2.1-3.7,2.1C515.3,235.5,515.1,233.9,515,232.4z"/>
<path class="st0" d="M549,237.1c-0.5-2.2-0.5-5.1,2-6C554.3,232.6,552.4,237.6,549,237.1z"/>
<path d="M209.8,241.2c-0.7-2.6-1.8-5.9,0-8.3c2.4-0.1,4.6,0.9,6.6,2.2C215.2,238,212.5,239.8,209.8,241.2z"/>
<path d="M412.4,234.9c2.5,1,4.4,3.1,4,6C414,239.8,412.6,237.6,412.4,234.9z"/>
<path d="M266.4,236.5c2.9-1,6.7,1,6,4.4c0.2,3.8-4.5,4.4-7.1,3.1C262.6,242.3,263.1,237.2,266.4,236.5z"/>
<path d="M154.8,236.7c2,0.6,4.7,1.6,4.2,4.2c0.7,2.4-1.8,4-3.8,2.6C152.1,242.5,153.4,238.7,154.8,236.7z"/>
<path d="M350.8,240.9c2.6-1.1,4.9-2.7,7.6-3.7c-2.2,2.5-6.1,2.6-7.9,5.6C350.5,242.3,350.7,241.4,350.8,240.9z"/>
<path class="st0" d="M504.3,240.5c0.5-1.1-0.4-4.1,1.6-3.5c2.6-0.1,1.3,3.5,0.2,4.6C505.6,241.3,504.8,240.8,504.3,240.5z"/>
<path class="st0" d="M655.3,237.2c1.2-0.4,2.6,1.3,1.9,2.4C656,240.1,654.7,238.2,655.3,237.2z"/>
<path d="M344.8,242.5c0.3-2.1,0.4-5.5,3.4-4.6C348.5,240.2,346.6,241.6,344.8,242.5z"/>
<path d="M109,242.8c0.3-1.3,0.7-2.5,1.1-3.8c1.3,0.6,1.9,2,2.6,3.2C111.4,242.4,110.2,242.6,109,242.8z"/>
<path d="M320.5,240.2c0.6-1.2,1.4-1.4,2.4-0.9C324.9,241.9,319.9,243.5,320.5,240.2z"/>
<path class="st4" d="M618.1,239.3c1.4-0.1,2.1,2.4,1.6,3.5C618.2,243,617.4,240.5,618.1,239.3z"/>
<path d="M676.9,249.3c-2.3-3.5-1.4-10.5,3.7-10.7c1.1,2.9,2.6,5.8,5.5,7.3c3.8,1.9,7.8,3.6,11,6.6c-0.8,0.3-1.6,0.7-2.4,1.1
	c-3.7-2.9-7.7-5.5-11.6-8.2C681.8,247.7,680,250.4,676.9,249.3z"/>
<path class="st0" d="M486.6,244.1c2.7-0.6,4.7-3,7.5-3.3c-2.3,1.7-4.9,3.2-6.2,5.9c-0.9-0.1-1.9-0.3-2.8-0.4
	C485.6,245.6,485.5,244.2,486.6,244.1z"/>
<path class="st0" d="M455.1,242c-0.1,3.1-2.5,5.2-5.3,6.2C451.1,245.8,453,243.8,455.1,242z"/>
<path d="M393.5,243.5c0.5,0,1.6,0,2.1,0.1c-0.1,0.9-0.3,1.8-0.4,2.6c-0.5,0.2-1.4,0.5-1.9,0.6C393.4,245.7,393.5,244.6,393.5,243.5z
	"/>
<path class="st5" d="M609.2,243.3c1.6,0.1,0.7,2.5-0.5,2.6C607.1,245.7,607.9,243.3,609.2,243.3z"/>
<path d="M346.2,256.7c0.9-4,2.1-7.9,3.3-11.8C348.4,248.8,348.2,253.1,346.2,256.7z"/>
<path d="M91.7,249.6c0.2-1.2,0.5-2.4,0.8-3.6c0.7,0.9,1.4,1.7,2.1,2.6C93.7,248.9,92.7,249.2,91.7,249.6z"/>
<path d="M148.3,249.4c0.7-1,1.4-1.9,2-2.9c1,1.2,1.9,2.4,2.9,3.5c1,0.2,2,0.3,3,0.4c-1.7-2.2,1.2-2.3,2.2-3.1c0.1,2,0.1,4,0.1,6
	c-0.7-0.1-2.1-0.3-2.8-0.4l1.1-1.1c-1.8,0-3.5,0-5.3,0.1c0,0.5-0.1,1.4-0.1,1.9C150.4,252.2,149.4,250.8,148.3,249.4z"/>
<path d="M356.8,249.2c0.1-2,1.4-3.2,3.3-3.6c0.1,1.3,0.3,2.7,0.4,4C359.2,249.5,358,249.4,356.8,249.2z"/>
<path d="M364,246.4c2.7-0.5,5.4-0.5,8,0c-3,2.2-6.2,3.9-9.3,6C363.2,250.4,363.7,248.4,364,246.4z"/>
<path class="st0" d="M622.2,247.4c0.7,0.4,1.5,0.9,2.2,1.3c-0.4,2.2-0.4,4.4-0.1,6.6C620,255,621.1,250.2,622.2,247.4z"/>
<path d="M275.4,250.1c2.1-1.4,4.9-2,7.1-0.6c2.9,1.7,3.4,6.3,0.8,8.5c-1.6,1.6-4,1.2-6,0.9C274.4,256.9,274.9,253.1,275.4,250.1z"/>
<path class="st0" d="M567.5,249.6c4,0,8.1-0.9,11.9,0.8C575.5,251.1,571.2,251.6,567.5,249.6z"/>
<path d="M176.9,250.8c0.7,0,1.5,0,2.2,0c0.1,1.2,0.2,2.3,0.3,3.5c-1.1,0-2.1,0-3.2,0C176.5,253.2,176.7,252,176.9,250.8z"/>
<path d="M188.2,260.2c-0.6-2.9-1.5-5.8-0.7-8.8C188.1,254.4,188.2,257.3,188.2,260.2z"/>
<path d="M286.2,259c0-2.8,1.8-4.9,4.6-5C290.1,256.4,289,258.8,286.2,259z"/>
<path class="st0" d="M409,261.5c5.6-3.9,12.2-8.6,19.5-6.6c-2,3.5-6.3,4.1-9.4,6.2c0.8,1,1.6,1.9,2.5,2.8c-0.9,0-2.6,0.1-3.5,0.2
	c0.5,1,1,2,1.5,2.9c-0.9-0.5-1.8-1-2.8-1.6c-1.2,1-2.4,2-3.5,3C411.8,266.2,410.3,263.9,409,261.5z"/>
<path class="st0" d="M600.8,258c1.4-1.6,2.8-3.6,5.2-3.7c1.3,1.3,1.8,3.1,2.4,4.8c-1.5,0.7-2.9,1.5-4.3,2.3
	C602.9,260.3,601.9,259.2,600.8,258z"/>
<path d="M264.3,265.5c2.4-3.5,5.4-6.7,8.3-9.7C271.7,260.3,268.5,263.8,264.3,265.5z"/>
<path class="st0" d="M436.3,259.9c2.9-1.6,5.7-3.4,9-4.1c0.6,1.4,1.3,2.8,2,4.2c-0.3,0.7-0.8,2.2-1.1,2.9c-2-1.4-3.9-3-5.9-4.4
	c1,2.3,3.2,4.2,2.4,7C440.6,263.7,438.6,261.5,436.3,259.9z"/>
<path d="M99.6,257.2c1.2,0.4,2.4,0.9,3.6,1.3c-1.2,0.5-2.3,1-3.5,1.5C99.7,259.3,99.6,257.9,99.6,257.2z"/>
<path d="M137.3,259.1c0.9-0.8,1.8-1.4,2.8-2c-0.6,1.5-1.3,3-2,4.5C137.8,260.7,137.5,259.9,137.3,259.1z"/>
<path d="M381.6,258.2c1.4,0.7,2.7,1.7,3.5,3.1c-0.8,0.2-2.4,0.7-3.2,0.9C381.8,260.8,381.7,259.5,381.6,258.2z"/>
<path d="M92.6,259.5c0.9,0.1,1.8,0.3,2.7,0.5c-0.5,1.7-0.3,4.4-2.8,3.9C92,262.4,92.2,261,92.6,259.5z"/>
<path class="st0" d="M612.3,259.6c5.9-0.6,12.1-0.8,17.9,0.8c-5.1,0.7-10.4,0.7-15.5-0.5c-2.3,5.7,1.3,11.4,2.8,16.8
	c-3.9-0.7-7.5-2.4-11.3-3.4c2-4.5,4.5-8.7,7-12.9C613,260.2,612.5,259.8,612.3,259.6z"/>
<path d="M279.4,262.6c1.2-1.1,2.7-1.9,4.3-2.4c0.5,2.4,1.2,4.7,1.9,7.1c1.8,1.6,1.9,4.1,2.7,6.2c-0.7-0.2-2-0.5-2.6-0.7
	c0.2-0.4,0.7-1.3,0.9-1.7c-0.5-0.1-1.5-0.2-2.1-0.3c0.2-0.6,0.5-2,0.6-2.6c-0.5,0-1.6,0-2.1,0C281.8,266.5,280.5,264.6,279.4,262.6z
	"/>
<path class="st0" d="M422.8,262.6c2.5-0.2,5.1-0.6,7.6-1.3c0.4,0.5,1.2,1.4,1.6,1.9c0.1,1.3,0.2,2.5,0.3,3.8
	c-0.6-0.5-1.8-1.4-2.4-1.8c-0.3,1.5-0.8,3.1-1.6,4.4C426.5,267.2,424.5,265,422.8,262.6z"/>
<path d="M134.3,262.2c1.3-1.1,2.8-0.1,3.4,1.2c1.6,2.4,0.3,5.3,0.2,8c-2.2,0-4.4,0-6.3-1C131.6,267.5,131.5,263.9,134.3,262.2z"/>
<path d="M375.6,262.7c1.2,0.1,2.4,0.1,3.5,0.3c-0.1,1.4-0.5,2.8-0.8,4.1C377,266,375.8,264.6,375.6,262.7z"/>
<path d="M205.5,272.6c-3.2-3.3-0.2-7.6,2.3-10.2C208.4,266,207.1,269.5,205.5,272.6z"/>
<path d="M389.4,262.6c1.8,3.5,3.6,7.1,5.3,10.7c0.7-0.4,2.1-1.1,2.8-1.4c0.1,1.9-0.5,3.8-1.1,5.6c-2.2-0.4-4.7-0.3-6.4-2.1l0.2,3.5
	c-0.1-0.6-0.2-1.8-0.3-2.3c-0.7,0.4-2.2,1.1-2.9,1.5c1.1-1.5,2.3-3,3.5-4.4c0.4,1.1,0.8,2.2,1.5,3.1c0.8-0.6,2.4-2,3.3-2.6
	c-0.7-0.4-2.1-1.1-2.9-1.5c-0.4-1.7-1.4-2.9-2.9-3.6C389.4,266.8,389.4,264.7,389.4,262.6z"/>
<path class="st0" d="M405.6,263.4c0.5,0,1.6-0.1,2.1-0.1c1,2.2,2.4,4.7,1.3,7.2C406.8,268.8,406,266.1,405.6,263.4z"/>
<path class="st0" d="M616.9,262.8c1.3,0.4,2.6,0.8,3.9,1.2c0.2,1.9,0.4,3.8,0.8,5.7c-1.2,0-2.4,0-3.6,0.1
	C617.2,267.6,616.5,265.2,616.9,262.8z"/>
<path class="st0" d="M624.7,267c2.1-2.7,5.5-5.3,9-3.3c0.2,2.7,0.4,5.3,0.8,8C630.8,271.1,626.7,270.6,624.7,267z"/>
<path d="M346.2,267.1c1.2-1,2.4-2,3.6-3c-0.4,2.2-1.1,4.4-1.8,6.6c-0.3-0.1-0.9-0.4-1.2-0.6C346.7,269.1,346.4,268.1,346.2,267.1z"
	/>
<path d="M258.5,273.9c-2.1-3.5,1.7-6.1,3.2-8.9C260.2,267.8,259.6,270.9,258.5,273.9z"/>
<path class="st0" d="M433.5,271.2c-0.1-2.5-0.5-4.9-1.3-7.3c2.2,2.1,5.3,2.4,8.2,2.9C438.5,268.8,436.1,270.2,433.5,271.2z"/>
<path d="M350.6,268.3c0.9-0.8,1.8-1.6,2.8-2.4c0.1,1.2,0.2,2.3,0.3,3.5C352.7,269.1,351.6,268.7,350.6,268.3z"/>
<path d="M170.6,266.4c2.3,0.1,5.4,0.1,6.4,2.7c0.3,1.5,1.3,3.5,0.1,4.8c-1.2,2.1-4.3,1.2-5.5-0.6
	C169.9,271.4,170.5,268.7,170.6,266.4z"/>
<path d="M212.3,270.5c-0.1-1.9,0.9-3.5,2.9-4C215.4,268.4,215.2,272.9,212.3,270.5z"/>
<path d="M329.5,267c1.6,0.6,3.2,1.1,4.8,1.7c0.1,2.4,1.3,5.1-0.9,6.9C331.9,272.8,330.8,269.8,329.5,267z"/>
<path d="M324,272.5c0.7-1.8,1.5-3.5,2.5-5.2c1.3,1.6,0.7,3.4,0,5.1C325.8,272.5,324.6,272.5,324,272.5z"/>
<path d="M96.5,269.9c1.2,0,2.4,0,3.6,0c0.1,1,0.2,2,0.4,3C98.6,272.7,96.9,272,96.5,269.9z"/>
<path d="M105.9,270.6c1.7-0.1,3.4-0.1,5.1-0.1c0.2,1.8,0.4,3.5,0.6,5.3C109.5,274.2,107.5,272.6,105.9,270.6z"/>
<path class="st0" d="M426.5,269.9c1.1-0.1,2.3-0.1,3.5-0.2c0,1.3-0.1,2.7,0,4c-0.9,1.5-1.8,3-2.7,4.5
	C425,275.8,425.8,272.7,426.5,269.9z"/>
<path d="M366.4,270.7c2.6,1.4,5.1,3.1,6.9,5.5C370.6,275,368.3,273,366.4,270.7z"/>
<path d="M686.7,271.2c1.2,0.1,2.3,0.4,3.5,0.4c0.1,2,0.3,4,0.5,6l-1.8-0.1c0.7,1.6,1.3,3.2,1.9,4.8c-1.1-1.1-2.2-2.3-3.2-3.5
	C689.3,276.5,686.9,273.8,686.7,271.2z"/>
<path d="M182,271.6c0.5,2.1,0,4.4-2.4,5C180.3,274.8,181.1,273.2,182,271.6z"/>
<path d="M338.1,274.1c-0.6-1.8,1.5-1.1,2.3-1.4c0,1.4-0.1,2.8-0.1,4.2C339.5,276,337.7,275.5,338.1,274.1z"/>
<path d="M274.6,273.7c1-0.1,2-0.3,3-0.4c0,1.4,0.1,2.8,0.1,4.2c-1-0.2-1.9-0.4-2.8-0.5C274.7,275.8,274.6,274.8,274.6,273.7z"/>
<path d="M187.1,275.9c-1.3-1.6,2.2-0.7,2.7-1.2C189.5,276,187.9,278.5,187.1,275.9z"/>
<path class="st0" d="M579.6,276c0.3-1.2,2-1.9,3.1-1.5C583.3,275.9,580.2,277.7,579.6,276z"/>
<path d="M287.8,275.3c2.4-0.4,3.1,1.4,3.5,3.4c-1.1-0.2-2.2-0.4-3.4-0.6C287.9,277.2,287.8,276.3,287.8,275.3z"/>
<path d="M107.7,275.8c0.7,2.5,0.5,5.4-1.8,6.9C106.2,280.4,106.8,278,107.7,275.8z"/>
<path d="M165.1,278c0.8-0.7,1.6-1.3,2.5-1.9c0.3,1.1,0.5,2.1,0.8,3.2C167.6,279,165.9,278.4,165.1,278z"/>
<path d="M356.5,282.3c0.6-3.6,2.9-7.1,7.1-6.7c-0.4,2.5-0.8,5.8-3.5,6.8C359.2,282.4,357.4,282.3,356.5,282.3z"/>
<path d="M374.6,277.1c4.3-0.8,8.6,0.2,12.6,1.7c-0.9,2.6-1.8,5.1-3,7.6c-0.4-2.5-0.6-4.9-0.7-7.4
	C380.6,277.9,377.6,277.5,374.6,277.1z"/>
<path class="st0" d="M604.5,276c5.8,1.6,11.8,2.3,17.3,4.5c-1.8,0-3.3,0.6-4.5,1.7c1.5-0.2,3.1-0.6,4.6-1c1.3,2.5,2.9,4.8,4.6,7
	c6.1,0,10.2,5.2,13.4,9.8c4.8,7.6,13,11.9,20.6,16.2c-1.2,3.9-4.8,6.6-5,10.8c-8.8-4-17-10-26.8-10.9c0.3-0.8,0.7-1.6,1.1-2.4
	c-2.4-0.5-4.5-1.4-4.7-4.1c-0.6,0.9-1.2,1.7-1.8,2.6l-0.5-2.4c-2.5,0-4.8-0.9-7.1-1.7c0.9-3.6-1.8-6.4-3.1-9.5
	c-2.7-0.5-4.2-2.5-4.8-5c-2.9,1.5-5.8,2.8-8.6,4.2c0.7-3,1.1-6.1,1.8-9.1c3.6,1.3,6.7,4.6,10.9,3.3c-3.3-2-6.8-3.7-10.2-5.6
	C602.7,281.6,603.7,278.8,604.5,276z"/>
<path d="M86.8,277.1c1,0.4,2,0.7,3,1.2c-1,0.5-2,0.9-3,1.3C86.7,279,86.7,277.7,86.8,277.1z"/>
<path d="M326.2,285.8c-0.8-4.4,3-6.8,5.7-9.4c0.3,1.7,1.9,3.8-0.5,4.7c0.3,0.2,0.9,0.7,1.2,0.9C330.5,283.4,328.7,285.1,326.2,285.8
	z"/>
<path class="st0" d="M431.6,279c0.8-0.6,1.6-1.2,2.5-1.9c0.2,0.7,0.3,1.4,0.5,2.1c-0.5,0.3-1.5,0.9-2,1.2
	C432.3,280.1,431.8,279.4,431.6,279z"/>
<path d="M141.2,280.1c1.4,1.5,2.7,3.1,3.7,4.8C143.5,283.5,142.2,281.9,141.2,280.1z"/>
<path d="M387.8,280.1c2.9,1.4,5.3,4.4,4.8,7.8c0.1,1.9-1.9,2.8-3.6,2.6C385.2,288.5,386.1,283.3,387.8,280.1z"/>
<path d="M192.4,281.6c0.4,1.4,0.8,2.9,1.2,4.3c4.1,0.1,8.3,0.4,12.3,1.5c2.8-0.9,3.3-4.4,5.9-5.5c-1.4,2.9-4.2,4.9-5.5,8
	c-3.8-1-7.7-1.8-11.5-2.8c-0.9,1.3-2,2.5-3.2,3.5c-0.2-1.3-0.5-2.6-0.7-3.9c-3.7,0.8-7.1-1.4-10.4-2.6c3.9,0.1,7.7,0.8,11.6,1.5
	C192.2,284.7,192.4,282.7,192.4,281.6z"/>
<path d="M611.1,282.8c1.1,0,2.2,0.1,3.3,0.2c-1.6,0.7-3.3,1.1-5,1.5C609.9,284,610.5,283.4,611.1,282.8z"/>
<path d="M291.7,286c-1.5-1.9,1.6-2.6,2.7-3.2c1.3,0.3,2.6,0.7,3.9,1.2c-1,2-3,2.8-5.1,3c0.6,0.9,1.2,1.9,1.8,2.7l-1,2
	c0.6,0,1.8-0.1,2.3-0.2c-0.1,1.3-0.1,2.5-0.2,3.8c-1.1-1.2-2-2.5-2.4-4.1c-0.5-0.1-1.5-0.4-2.1-0.5
	C292.9,289.3,292.9,287.6,291.7,286z"/>
<path class="st0" d="M540.5,286c2.2-1.9,4.8-3.5,7.8-2.8C546.3,285.4,543.4,286,540.5,286z"/>
<path d="M94.9,284.9c1.9-1.2,4.4-2,6.1,0c2,1.2,0.4,3.6,0.1,5.3c-2.2,1-4.4,0.4-6.3-0.9C94.8,287.9,94.8,286.4,94.9,284.9z"/>
<path d="M365.6,286.7c0.8-0.8,1.7-1.6,2.5-2.4c1.8,1.4,2.4,3.5,2.8,5.7c-1.8,1.2-3.5,2.6-5,4.2C366,291.6,365.9,289.1,365.6,286.7z"
	/>
<path class="st0" d="M413,296.5c-1.3-4.1,0.1-8.5,2.6-11.8C416.2,288.8,416,293.4,413,296.5z"/>
<path class="st0" d="M483.4,286.4c0.7-0.6,1.6-1,2.5-1.1c2.1,0.5,1.2,3.1,1.6,4.6c-1.1,0.3-2.3,2.2-3.3,0.8
	C483.2,289.7,481.6,287.4,483.4,286.4z"/>
<path d="M718.2,285.1c1.6,0.8,2.6,2.2,3.4,3.8c-0.3,0.4-0.8,1.3-1.1,1.8C719.7,288.9,718.9,287,718.2,285.1z"/>
<path class="st0" d="M585.2,287.2c0.6,0.6,1.2,1.2,1.8,1.8c-0.6,1.4-2,2.1-3.1,2.9C584.2,290.3,584.7,288.8,585.2,287.2z"/>
<path d="M299.5,293.2c0-2.5,0.5-5.7,3.6-5.8c4.7-0.4,3.3,6.6-0.1,7.4C301.5,295.7,300.6,293.7,299.5,293.2z"/>
<path class="st0" d="M434.3,294.2c2.3-2.6,5-4.9,8.3-6c-0.1,0.5-0.3,1.6-0.4,2.2c1.4,0.4,2.8,0.9,4.2,1.3c-0.4,1.5-0.7,3-1,4.5
	c-0.1-1.1-0.4-3.3-0.6-4.4c-0.6,1.2-1.2,2.5-1.7,3.8c-1.1-0.4-2.2-0.7-3.3-1c-1.7,2.8-2.7,6.4-5.9,7.8c0.2,0.3,0.7,0.8,0.9,1.1
	c-2.1-0.1-4.2-0.1-6.2,0.9l0.4,2c1.5-0.1,3-0.3,4.5-0.4c0.5,1.1,1,2.2,1.5,3.3c-3.3,0.5-6.5,1.3-9.9,1.6c-0.1-2-0.8-3.8-1.6-5.5
	c-0.3,1.8-0.5,3.5-0.6,5.3c-0.7-0.1-2-0.2-2.7-0.3c-1.6,1.6-3.1,3.4-4.8,4.9c-3.3-0.3-2.1-4.1,0-5.2c2-1.2,3.3-3.1,3.8-5.3
	c5.4-1.6,10.9-3.2,16.4-4.1C435.1,298.6,434.8,296.4,434.3,294.2z"/>
<path class="st0" d="M242,289.1c3.4,1,7.1,1.9,9.2,4.9C247.9,292.9,244.7,291.2,242,289.1z"/>
<path d="M284,289.6c1.1-1.3,3.4,0.5,1.9,1.7C284.7,293,282.3,290.9,284,289.6z"/>
<path d="M372.8,293c0.6-1.9,0.3-5.3,3.3-4.2c0.5,2.1,0.7,4.2,1,6.3C375.7,294.5,374.2,293.8,372.8,293z"/>
<path class="st0" d="M405.1,292c0.5-0.4,1.5-1.3,2-1.7c0,4.3,3.4,6.7,5.9,9.6c-1.2-0.4-3.5-1.1-4.6-1.5c-0.4,2.7-0.8,5.5-1.3,8.2
	c0.6,0,1.8,0,2.4,0l-2.3,0.9c1.3,1.6,2.8,2.3,4.7,0.9c0.2,0.4,0.7,1.2,0.9,1.6c-1.5,1.1-2.9,2.3-4.2,3.5c-0.3-0.6-1-1.9-1.4-2.5
	c-5.6-0.1-11.2,1.2-16.7-0.5c2.4-4.2,8-3.8,11-7.3c-2.5,0.1-4.6,1.5-6.5,2.8c-0.4-2.3,0.6-4.4,1.5-6.4c3.7,0.8,7.3,1.9,11,2.6
	c-2.1-3.1-6.6-1.5-8.9-4.2C400.1,295.6,402.1,293,405.1,292z"/>
<path class="st0" d="M553,292.7c2.5-1.7,5.6-1.7,8.5-1.5C559.8,294.4,555.6,294.8,553,292.7z"/>
<path d="M387.6,293c1.1-1.2,3.9-0.5,5.2,0.4C392.1,295.3,388.7,294.1,387.6,293z"/>
<path d="M89.4,295c0.8-1.4,2.4-1.6,3.7-2.3c0,1.3,0.1,2.6,0.1,3.9C91.8,296.3,90.1,296.4,89.4,295z"/>
<path d="M99.9,293.6c2.2,1.3,3.9,3.2,6.4,3.8c0,0.8,0,1.6,0,2.4C103.5,298.7,100,297.3,99.9,293.6z"/>
<path class="st0" d="M279.3,294.2c2.1,0.5,5.3,0.2,6.2,2.5c-1.2,4-7.3,4.6-9.1,0.8C277.3,296.4,278.3,295.3,279.3,294.2z"/>
<path class="st0" d="M357,295.5c0.8-0.2,2.4-0.5,3.3-0.7c-0.1,1.2,0.8,3.2-1.2,3.3C358.3,297.3,357.6,296.4,357,295.5z"/>
<path d="M144.3,298c0.9-0.2,1.9-0.3,2.8-0.5c-0.7,4.8-0.8,9.7-1.1,14.6C145.7,307.4,145.4,302.6,144.3,298z"/>
<path class="st0" d="M336.9,298c1.2-0.5,2.6-0.2,3.9-0.1C339.9,299.7,337.4,300.5,336.9,298z"/>
<path d="M700.3,300.1c-1.6,2.8-4.1-2.2-1.4-2.7C700,297.9,700.5,298.8,700.3,300.1z"/>
<path d="M90.9,298.1c0.9-0.1,2.6-0.3,3.4-0.4c0.3,1.2,0.6,2.3,0.9,3.5c-1.4,0-2.7,0-4.1-0.1C91.1,300.3,91,298.8,90.9,298.1z"/>
<path d="M142.5,303.5c-1.6-1-4.7-4.6-1.1-4.8C141.8,300.3,142.2,301.9,142.5,303.5z"/>
<path class="st0" d="M359.2,300.5c1-0.4,1.9-0.8,2.9-1.1c0.4,0.2,1.3,0.6,1.7,0.8c0.2,0.5,0.8,1.5,1,1.9c-1.2,1-2.6,1.6-4.1,2.1
	C360.1,303,359.7,301.8,359.2,300.5z"/>
<path d="M730.6,300.4c1-1.3,2.5,0,3.7,0.3c-0.7,2-0.5,5.3-3.2,5.6C728.7,305.7,728.9,301.8,730.6,300.4z"/>
<path d="M127.5,300.7c1.2,0,2.4,0.1,3.6,0.1c-0.6,1.6-1.8,2.7-3.4,3.4C127.7,303,127.6,301.9,127.5,300.7z"/>
<path d="M711.5,302.8c1.1-1.3,2.6-2,4.3-2.3c-0.2,1.3-0.3,2.7-0.5,4c0.7,1.2,1.3,2.4,1.8,3.6c-1.1-1-2-2.2-2.8-3.5
	C713.3,304.1,712.4,303.4,711.5,302.8z"/>
<path class="st0" d="M410.4,302.3c3.2-0.6,6.5,0.2,9.7,0.4c-2.2,2.2-4.4,4.3-6.8,6.3C411,307.6,411,304.7,410.4,302.3z"/>
<path d="M703.5,302.4c2.6,0.8,3,3.6,4.3,5.7C706.3,306.2,704.8,304.5,703.5,302.4z"/>
<path d="M403.3,304.1c0.5,0.2,1.5,0.5,2.1,0.7C405.7,307.6,401.2,306.2,403.3,304.1z"/>
<path d="M93.8,306.6c0.8,0.2,1.5,0.5,2.3,0.8c-0.2,1.5-0.6,3-1.6,4.2c-0.4-0.6-1.2-1.8-1.6-2.4C93.2,308.4,93.6,307.2,93.8,306.6z"
	/>
<path d="M138.6,309.7c0.8-1.2,1.5-2.4,2.2-3.6c0.3,1,0.6,2.1,1,3.2C140.7,309.4,139.6,309.6,138.6,309.7z"/>
<path class="st0" d="M359.9,308.1c0.5-1.4,2.4-1.3,3.5-0.7c0.9,1.6,0.2,3.5,0.2,5.2C362.3,311.2,360.9,309.8,359.9,308.1z"/>
<path class="st0" d="M596.3,315.4c0-2.6,0.5-5.2,1.7-7.5c0.8,3,3.6,4.6,4.8,7.4C600.7,315.4,598.5,315.4,596.3,315.4z"/>
<path d="M119.8,309.7c0.9,1.1,1.5,2.4,1.9,3.8c2.6-2.3,4.2,0.9,4.1,3.2C122,318.8,118.2,313.2,119.8,309.7z"/>
<path class="st0" d="M293.5,310.3c2.8,0.2,5.4,0.9,8.1,1.6C298.9,313.1,295.2,313.2,293.5,310.3z"/>
<path class="st0" d="M367.5,310.9c2.7-0.8,5.6-1.1,8.4-1.6c0.2,0.8,0.5,2.3,0.6,3c2-0.7,4-1.3,6.1-0.8c0.6,1.8-0.9,3.3-2.6,3.6
	c-1.9,0.9-3.5-2.1-5.3-0.4C371.7,316.8,368.7,313.5,367.5,310.9z"/>
<path d="M127.2,312.9c0.7-0.2,2.1-0.6,2.8-0.8c0.4,1.2,0.5,2.4,0.7,3.7C129.4,315,128.2,314,127.2,312.9z"/>
<path class="st0" d="M306.6,313c1.6-0.5,3.4-1.4,5-0.4c1.4,0.8,0.8,2.7,1.1,4.1c-2.4-0.1-4.8-0.5-7.2-0.9
	C305.9,314.9,306.3,313.9,306.6,313z"/>
<path class="st0" d="M608.5,317.3c1-2.5,3.2-4.2,5.7-5c0.4,0.9,0.9,1.8,1.3,2.8C613.2,315.8,611,317,608.5,317.3z"/>
<path d="M94.3,313.2c0.4-0.1,1.3-0.2,1.8-0.3c0.7,2,0.7,4.2,0.6,6.3c0.8,2.6,1.5,5.2,2.2,7.9c-1.3,0.6-2.7,1.2-4.1,1.8
	c-0.9-3.1-1.3-6.5,0.4-9.4C94.2,317.6,94.6,315.3,94.3,313.2z"/>
<path d="M139.1,315.2c0.6,0.1,1.9,0.2,2.6,0.3c0.2,1,0.3,2,0.4,3c-0.8,0-2.4,0-3.2,0C139,317.5,139.1,316.4,139.1,315.2z"/>
<path class="st0" d="M324.2,315.2c1-1.4,3.6,0.1,2.4,1.6C325.6,318.2,322.9,316.7,324.2,315.2z"/>
<path d="M716.1,315.2c1.7,0.4,3.7,0.4,5.1,1.6c1.1,1.2,1.1,2.9,1.4,4.5c-1-1-2-1.9-3-2.9c-0.7,0.5-1.3,1-2,1.5
	C717.1,318.3,716.6,316.7,716.1,315.2z"/>
<path d="M146.4,318.6c1.2-1.1,2.5-2.2,3.8-3.2c0.2,1,0.4,2,0.6,3C149.4,318.5,147.9,318.5,146.4,318.6z"/>
<path class="st0" d="M590.7,318.4c-2.2-3,4.1-2.7,2.1,0.1C592.3,318.4,591.2,318.4,590.7,318.4z"/>
<path class="st0" d="M558.2,318.4c1.2-0.7,3.1,1,2.4,2.3C559.4,321.3,557.6,319.7,558.2,318.4z"/>
<path d="M713.2,321.7c-1-1.4-2.5-2.8-0.8-4.3c0.6,0.5,1.8,1.4,2.3,1.9C714.2,320,713.7,320.9,713.2,321.7z"/>
<path d="M133.1,319.3c1.7-0.6,3.2,3.4,1.4,3.9C133.2,322.6,132.3,320.6,133.1,319.3z"/>
<path class="st0" d="M290.5,321.1c1.5-1.7,3.4,0.9,1.9,2.2C291.1,324.9,289.2,322.3,290.5,321.1z"/>
<path d="M144.5,327.5c0.1-2.2-0.3-5.6,2.9-5.2C148.1,324.8,146.9,326.6,144.5,327.5z"/>
<path class="st0" d="M273.6,322.6c2.5-0.8,6-0.3,6.4,2.9c0.8-0.5,1.7-0.9,2.5-1.4c0.5,0.8,1,1.7,1.4,2.5c-1.5,0.1-3,0.1-4.4,0
	C277.1,329.7,270.9,326.3,273.6,322.6z"/>
<path d="M104.8,329c0.5-2,0.8-5.6,3.6-5.2c2.8,0.4,1,3.9,0.9,5.7C107.8,329.4,106.3,329.2,104.8,329z"/>
<path d="M701.7,325.7c0.6-0.5,1.1-1,1.7-1.5c0,1.5,0,3,0,4.5c-0.4-0.3-1.3-0.9-1.8-1.2C701.6,327,701.6,326.1,701.7,325.7z"/>
<path d="M125.2,324.9c1.2,2.2,2.4,4.4,3.5,6.7c-1.5,1.4-3.2,1.6-4.8,0.4C125.8,330,126.2,327.5,125.2,324.9z"/>
<path d="M635.9,326.1c0.7-2.3,3.2-1.1,4.9-1.3c-0.2,2.1-0.6,4.2-1,6.3c-1.6-0.3-4,0-4.4-2.1C635.5,328.3,635.8,326.9,635.9,326.1z"
	/>
<path class="st0" d="M542.1,327.3c2.8-1.4,4.2,2.5,3.8,4.7c-0.3,1.4,0.2,4.3-1.8,4.4C539,337.4,539,329.3,542.1,327.3z"/>
<path class="st0" d="M577.9,335.8c-1.3-3.1-1.2-6.5,0.5-9.4c4.2,1.2,5.6,6.1,4.7,10C581.3,336.1,579.6,336,577.9,335.8z"/>
<path d="M643.2,326.8c1.8,0.3,3.6,1,4.9,2.4c-1.4,0.3-2.7,0.6-4.1,0.8C643.7,328.9,643.4,327.8,643.2,326.8z"/>
<path d="M154.2,333.6c-1.1-1.9-0.6-4.1,0-6C154.4,329.5,154.4,331.5,154.2,333.6z"/>
<path d="M99.2,329.1c3.1-1.3,5.2,2.1,4.7,4.8c-0.2,2.6-0.5,6.4-3.8,6.9c-2.8,0.1-5.8-1.9-5.6-5C93.9,332.8,96,329.7,99.2,329.1z"/>
<path class="st0" d="M272.4,332c-0.2-2.6,2.9-2.9,4.7-3.5c0.8,1.2,2.5,2.4,1.7,4.1C277.9,335.7,272.5,335.5,272.4,332z"/>
<path d="M712.5,331.1c0.4-1.7,1.7-2.8,3.5-2.2c0.4,1.1,0.6,2.3,0.8,3.4C715.4,331.9,714,331.5,712.5,331.1z"/>
<path d="M701.9,330.9c1.7,1.4,2.8,3.4,3,5.6C703.4,335,702.5,333,701.9,330.9z"/>
<path d="M641.4,336.2c1.5-1.4,2.9-2.8,4.3-4.3c0,1.6-0.2,3.2,0.2,4.7c-0.2,0.5-0.5,1.1-0.7,1.6c-1,0.1-2.1,0.3-3.1,0.4
	C641.8,337.9,641.6,337,641.4,336.2z"/>
<path d="M621.6,333.2c1,1.6,1.9,3.2,2.8,4.9c-1.1-0.8-2.2-1.6-3.3-2.4C621.2,335.1,621.4,333.8,621.6,333.2z"/>
<path d="M140,336.1c0.5,0,1.6,0,2.1,0c0.9,0.9,0.2,3-1.2,2.8C139.7,338.2,139.4,337.3,140,336.1z"/>
<path d="M616.1,341.8c-1.1-1.9-1.2-4-1.4-6.1c1.9-0.1,3.6,0.5,5.2,1.5C619.7,339.2,619.1,343.1,616.1,341.8z"/>
<path d="M697.8,337.1c0.7-1.2,2.4-1.2,3.5-0.8c0.2,0.9-0.9,1.8-1.6,2.4C698.5,338.9,697.9,338.3,697.8,337.1z"/>
<path d="M220,341.6c-0.3-1.9,0-3.8,0.8-5.5c2,2.8,5.2,7.6,2.1,10.6C222.6,344.6,221.8,342.7,220,341.6z"/>
<path class="st0" d="M497.7,348.3c0.9-3.6,1.9-7.2,3.3-10.6C500.7,341.4,499.2,344.9,497.7,348.3z"/>
<path class="st6" d="M573.3,338.3C573.8,338.8,573.8,338.8,573.3,338.3z"/>
<path class="st0" d="M580.3,339c1-0.9,3.4,0.3,3.2,1.6C582.5,341.2,580,340.5,580.3,339z"/>
<path class="st0" d="M553.2,341.7c0.8-0.8,1.5-1.7,2.7-1.8c0.4,1.1,0.7,2.2,1,3.3c-0.7,0.2-2,0.6-2.6,0.8
	C554,343.5,553.5,342.3,553.2,341.7z"/>
<path d="M610.2,340.1c1.4,0.5,4-0.1,4,2.1C612.5,342.5,611.2,341.4,610.2,340.1z"/>
<path d="M116.5,341.8c2.4,1.5,2.3,4.7,2.8,7.1C117.3,347.1,116,344.6,116.5,341.8z"/>
<path class="st0" d="M487,346.1c0.2-1.3-0.5-4.6,1.9-4c1.7,0,0.5,2.4,0.9,3.4C489.1,345.7,487.7,346,487,346.1z"/>
<path d="M222.5,350.8c-0.3-2,1.1-3,2.7-3.6C225.2,349,224.3,350.4,222.5,350.8z"/>
<path d="M616.8,352.9c0.7-3.4,3.5-5.6,6.9-6.2c0.9,2.8,1,5.6,0.4,8.5C621.5,354.9,619,354.1,616.8,352.9z"/>
<path d="M610.5,348.9c0.7-0.4,2.2-1.1,2.9-1.4c-0.6,2.7-1.1,5.4-1.8,8C610.6,353.5,610.4,351.2,610.5,348.9z"/>
<path class="st7" d="M702,350.6c0.8-0.9,3.1,0,2.4,1.3C703.6,352.8,701.3,351.9,702,350.6z"/>
<path class="st0" d="M593.2,351.3c1.2,0,2.5,0.1,3.8,0.1c-0.8,1-1.6,2-2.3,3C594.1,353.4,593.6,352.3,593.2,351.3z"/>
<path d="M197.4,352.7c1.4-0.9,3-2.1,4.6-0.8c0.9,1.4,1,3.1,1.4,4.7c-1.7,0.3-4.3,1.5-5.3-0.7C197.9,355.1,197.6,353.5,197.4,352.7z"
	/>
<path class="st0" d="M507,352.2c1.4,0,2.8,0,4.3,0c-0.5,1.4-1,2.7-1.4,4.1c0.3,0.5,0.9,1.5,1.2,1.9c-1.2-0.1-3.5-0.4-4.6-0.6
	c0,1.9,0.8,3.8,0,5.6c-1,0.9-2.2,1.5-3.3,2.1c-1.6-2.1-1.8-4.4-0.4-6.6c1.2-0.5,2.3-1,3.5-1.5c-2-0.9-4-1.8-5.6-3.3
	c1.9,0.3,3.8,0.8,5.7,1.2C506.4,354.1,506.7,353.1,507,352.2z"/>
<path d="M677.7,352.5c3.9,0.4,8,1.1,11.2,3.6C684.8,357,680.4,355.9,677.7,352.5z"/>
<path d="M691.8,357.5c0.5-1.7-0.3-7.2,2.7-5.1C694.6,354.5,694.3,357,691.8,357.5z"/>
<path d="M222.3,357.2c0.9-2.4,3.3-3.2,5.3-4.5c-0.1,1-0.3,2.1-0.5,3.1C225.5,356.5,223.9,356.8,222.3,357.2z"/>
<path class="st0" d="M473,353.2c2.1,1.7,2.7,4.4,2.3,6.9C473.1,358.6,472,355.9,473,353.2z"/>
<path class="st0" d="M279.3,356.5c1.5-0.3,3-0.7,4.4-1c0.1,0.6,0.2,1.9,0.3,2.5c1.8-0.5,3.7-0.8,5.6-1.1c-1.7,0.9-3.4,1.7-5.2,2.5
	c0.1,0.3,0.4,0.8,0.5,1.1c-1.5-0.5-3.1-1-4.7-1.4C279.9,358.3,279.6,357.4,279.3,356.5z"/>
<path class="st0" d="M292.4,357.3c3.9-1.9,8.4-2.8,12.5-0.7C300.8,357.5,296.6,357.5,292.4,357.3z"/>
<path d="M617.1,354.2c2,1,2.3,3.3,2.9,5.2C617.4,359,617.6,356.2,617.1,354.2z"/>
<path d="M650.4,355.6c1.6-1.9,4.3-0.8,6.1,0.1c-0.4,2.2-0.8,4.3-1.3,6.5c-1.6,0.2-3.4,1.4-4.8,0.3
	C647.8,361.2,648.7,357.4,650.4,355.6z"/>
<path d="M229.4,357.3c1.1-1,2.8-0.9,4.2-1.2c-0.3,1.5-0.4,3-1.2,4.3c-1,1.6-3.1,1.3-4.7,1.8C228.2,360.6,228.4,358.8,229.4,357.3z"
	/>
<path class="st0" d="M496.1,362.4c-3.6,0.6-4.1-5.7-0.4-5.1C496.1,358.9,496,360.6,496.1,362.4z"/>
<path class="st0" d="M518.3,357.1c1.4,0.8-0.8,6-2.2,3.5C516.1,359.1,517,357.8,518.3,357.1z"/>
<path d="M695.7,360.4c-0.2-1.1,0.5-2.1,0.7-3.2c1.3,1.5,2.4,3.2,3.4,5C698.5,361.7,696.4,362,695.7,360.4z"/>
<path class="st0" d="M557.9,372.6c6.7-4.2,13-9,20-12.7c-4.2,5.5-11.8,6.4-16.6,11.3c0.4,0.4,1.2,1.3,1.6,1.7
	c-0.5,0.2-1.4,0.7-1.9,1C559.9,373.5,558.9,373.1,557.9,372.6z"/>
<path d="M209.1,363.2c1.1-1.7,3.2-2,5-2.5c2.9,4.5-0.6,11.5-6.1,11C207.7,368.9,206.9,365.5,209.1,363.2z"/>
<path class="st0" d="M272.4,362.9c1.3-1.6,3.4-1.8,5.4-1.8C276.6,363,274.4,363,272.4,362.9z"/>
<path class="st0" d="M470,361.1c0.7,0.1,2.1,0.3,2.8,0.4c0.6,2.2-0.7,3.5-2.7,4.1C470.1,364.1,470,362.6,470,361.1z"/>
<path class="st0" d="M407.1,367c-1.9-1.1-0.5-3.6-0.5-5.3c1.4,0.6,4.2,0.1,4.1,2.4C411.3,365.9,408.8,368.7,407.1,367z"/>
<path class="st0" d="M521.4,362.3c2,0.3,0.2,4-1.4,3.3C519.2,364.4,520.2,362.7,521.4,362.3z"/>
<path d="M214.9,368c0.7-1.9,1.5-3.8,2.3-5.6c1.2,0.8,2.4,1.5,3.6,2.2l-0.8,1.8c0.7-0.4,2.1-1.1,2.9-1.4c-0.3,0.9-0.6,1.8-0.8,2.7
	C219.6,367.3,217.3,367.7,214.9,368z"/>
<path class="st0" d="M523,367.5c0.6-2,1.1-5.3,4-4.5c3.7,0.6,0,4.8-0.5,6.9C525.3,369.1,524.2,368.3,523,367.5z"/>
<path d="M688.7,365.6c0.4-1,0.8-1.9,1.2-2.9c0.6,0.2,1.7,0.5,2.3,0.7c0,0.5-0.1,1.5-0.1,2c-0.3,0.3-0.9,0.9-1.2,1.2
	C690.2,366.2,689.4,365.9,688.7,365.6z"/>
<path class="st0" d="M328,364.4c0.9-1.5,3.6-0.2,2.5,1.4C329.6,367.2,326.8,366,328,364.4z"/>
<path d="M611.6,365c1.7,0,3.4,0.1,5,0.2c-0.9,0.9-1.5,2.2-2.9,2.4C612.2,368.1,612,365.9,611.6,365z"/>
<path d="M224.9,366.8c0.5-0.1,1.6-0.3,2.1-0.4c-0.7,1.8-1.4,3.7-2.2,5.5C224.8,370.2,224.8,368.5,224.9,366.8z"/>
<path d="M230.2,370.9c0-2.2,1-4.1,3.2-4.8C232.8,368,231.6,369.6,230.2,370.9z"/>
<path d="M234,370c-0.8-1.2-0.4-3.4,1-3.9C236.8,366.5,235.8,370.8,234,370z"/>
<path d="M616.3,367.9c1.2-0.6,2.5-1.2,3.7-1.9c0,0.4,0,1.3,0.1,1.7c7.3-1.3,16.5,3,16.6,11.3c-2.3,0.5-4.7,1.4-7,0.4
	c0.4,1.5,0.4,2.9-0.1,4.3c-1.1-0.2-2.1-0.6-3.2-1c0.5-1.3,0.7-3,2.3-3.6c-4.8-2.1-8-6.3-12.4-9l3.4-0.7
	C618.5,368.9,617.4,368.4,616.3,367.9z"/>
<path class="st0" d="M273.5,369.9c1.8-1.6,4.2-2.1,6.5-1.6c2.7,1,2.7,5.5,0.1,6.6c-2,0.4-3.9-0.4-5.7-1.1
	C274,372.5,273.6,371.2,273.5,369.9z"/>
<path class="st0" d="M519.8,369.1c0.9-0.3,1.9-0.6,2.9-1c-0.3,1.6-0.7,3.2-1.1,4.8C520.9,371.7,520.3,370.4,519.8,369.1z"/>
<path class="st0" d="M281.9,368.4c3.4,1,7.8-0.5,10.2,2.9c-2.9,0.4-5.9,0.4-8.8,0.4C282.9,370.8,282.2,369.2,281.9,368.4z"/>
<path d="M613.1,370.2c0.8,0.3,1.7,0.7,2.5,1c-0.9,1.1-1.7,2.1-2.6,3.2C613,373,613,371.6,613.1,370.2z"/>
<path d="M181.3,375.9c-1.3-2.8,0.9-4.8,3.5-4.9C184.4,373.2,183.3,375,181.3,375.9z"/>
<path d="M231.9,380.6c-0.1-2.6-0.4-5.8,2.2-7.3c0.8-0.2,2.4-0.6,3.2-0.8C236.6,375.9,235.4,379.4,231.9,380.6z"/>
<path class="st0" d="M589,376.8c0.1-1.2,0.3-2.3,0.4-3.5c1.5,0.8,3.1,1.6,4.6,2.4c-0.1,0.6-0.4,1.8-0.5,2.3
	C592,377.6,590.5,377.2,589,376.8z"/>
<path d="M606.4,375.3c0.4,0.5,0.8,1,1.3,1.6c-0.9,1-1.8,1.9-2.7,2.8c-0.2-1-0.4-1.9-0.5-2.9C605,376.4,606,375.6,606.4,375.3z"/>
<path class="st0" d="M529.4,376.6c4.9-2,8.4,6.6,3.6,9.1C528.1,386.5,525.7,379.3,529.4,376.6z"/>
<path d="M223.7,382.6c1-3,3.4-5.4,6.7-5.8c-1,0.9-2,1.8-3,2.7c-0.1,0.4-0.2,1.2-0.3,1.6C225.9,381.6,224.8,382.1,223.7,382.6z"/>
<path d="M247.5,377.3c0.7-0.1,2.2-0.5,2.9-0.6c-0.4,1.2-1,2.4-1.7,3.4C248.3,379.2,247.9,378.2,247.5,377.3z"/>
<path class="st0" d="M551,381.7c1.1-2.1,2.4-4.4,5-4.5C555.2,379.5,553.3,381.1,551,381.7z"/>
<path d="M240.1,382.5c0.8-1.6,1.7-3.1,2.8-4.4c0,1.4-0.1,2.8-0.2,4.2C242,382.3,240.7,382.4,240.1,382.5z"/>
<path d="M615.1,379c1-1.1,1.9,0.5,2.8,0.9c-0.4,1.2-0.7,2.4-1.3,3.5c-1,0-2,0-3,0C614,381.9,613.4,379.8,615.1,379z"/>
<path class="st0" d="M145.2,390.1c2.7-3.5,5.1-7.2,7.9-10.6c2,3.6,2.1,7.7,2.4,11.7c-1.9,1.4-3.7,3-5.4,4.6
	C148.5,393.9,146.9,392,145.2,390.1z"/>
<path class="st0" d="M332.2,380.1c1.5-1.2,3,1.5,1.6,2.4C332.3,383.7,330.8,381,332.2,380.1z"/>
<path class="st0" d="M601.2,381.4c1.3,1.6,2.4,3.3,2.8,5.4c1.2,0.6,2.4,1.3,3.7,1.9c0,2.1,0,4.3,0,6.4c-2.5-1.6-5.3-3.3-6.7-6.1
	C599.5,386.6,600.3,383.8,601.2,381.4z"/>
<path d="M186.7,382.2c2,0.1,4,0.5,5.9,1.3c-0.4,2.7-0.6,6-3.4,7.4C185.3,390,186.5,385.1,186.7,382.2z"/>
<path d="M245.1,387.7c0.6-2.2,1.8-4.1,3.9-5.1C248,384.5,246.7,386.2,245.1,387.7z"/>
<path class="st0" d="M515.7,386.3c2.1,0.5,4,1.3,4.8,3.5c-1.7,0.2-3.3,0.3-4.9,0.4C515.6,388.9,515.6,387.6,515.7,386.3z"/>
<path d="M217.3,387.8c0.9,0.5,1.8,1,2.8,1.6c-0.8,0.5-1.7,0.9-2.5,1.4C217.5,390,217.4,388.5,217.3,387.8z"/>
<path d="M232.1,393.1c1.4-1.9,3.2-3.4,5-4.9c-0.2,1.4-0.3,2.8-0.5,4.1C235.1,392.6,233.6,392.9,232.1,393.1z"/>
<path class="st0" d="M546.9,393.7c-0.8-2.2-0.6-4.5,1.1-6.3c1.3,1.7,2.1,3.8,1.9,6C549.1,393.5,547.6,393.7,546.9,393.7z"/>
<path d="M648.8,389.7c1.7,0.3,3.2-0.3,4.6-1.4c-1.5,1.9-3,3.8-4.5,5.6C648.8,392.5,648.8,391.1,648.8,389.7z"/>
<path class="st0" d="M579.7,390c1.3,2.6,0.9,6-2.3,6.9C577.9,394.6,578.6,392.2,579.7,390z"/>
<path class="st0" d="M529.1,392.7c1.3-0.5,2.6-1,3.9-1.4c-0.1,0.7-0.2,2.1-0.2,2.8C531.3,395.1,530.2,393.5,529.1,392.7z"/>
<path class="st0" d="M598.2,390.9c2.4,2.6,4.3,5.8,7,8.2c0.6-0.2,1.9-0.7,2.5-0.9c-1,1.5-1.8,3.2-2.5,4.8c-0.7,0-2.1,0-2.8,0
	c-0.9-3.4-2.5-6.5-4.5-9.3C598,393,598.1,391.6,598.2,390.9z"/>
<path d="M734.8,396.3c0.1-1.8-0.3-4.5,2.2-4.5C738.2,393.8,737.6,396.6,734.8,396.3z"/>
<path class="st8" d="M288.5,393.5c1.6,1.1-1.5,4.1-3,3.5C285.2,395.4,287.1,394,288.5,393.5z"/>
<path d="M655.1,393c1.6,0.8,2.5,2.2,2.5,4C656,396.1,655.1,394.8,655.1,393z"/>
<path class="st0" d="M274.1,394.2c0.9-1.5,3.6,0,2.3,1.5C275.5,397.2,272.8,395.7,274.1,394.2z"/>
<path class="st0" d="M587.7,399.5c-1.5-2.5,1.4-3.8,3-5.2c0.6,1.8,1.4,3.6,1.5,5.6C590.9,401.1,588.2,401.7,587.7,399.5z"/>
<path d="M166.3,395.5c0.6,0.1,1.8,0.2,2.4,0.3c-1.8,2.7-3.9,5.2-6,7.7C162.8,400.4,164.1,397.6,166.3,395.5z"/>
<path d="M226.8,394.5c0.6,0.4,1.9,1.1,2.5,1.5c-0.2,0.9-0.6,1.8-0.9,2.7C226.8,397.9,227.2,395.9,226.8,394.5z"/>
<path d="M248.6,397.9c0.5-0.1,1.5-0.2,2-0.3c-0.8,1.5-1.5,2.9-2.3,4.4C248.4,400.6,248.5,399.3,248.6,397.9z"/>
<path class="st0" d="M258.3,397.4c0.7,0.3,1.5,0.7,2.2,1.1c0,0.5-0.1,1.5-0.1,2c-0.7-0.2-1.4-0.5-2.1-0.7
	C258.2,399.1,258.2,397.9,258.3,397.4z"/>
<path class="st0" d="M525.3,397.1c1.9-0.5,2.7,2.6,0.8,3.1C524.3,400.6,523.5,397.5,525.3,397.1z"/>
<path d="M668.9,399.2c0.4,0.2,1.3,0.6,1.7,0.8c-1.5,2.5-2.8,5.7-6,6.5C666.2,404.1,667.7,401.8,668.9,399.2z"/>
<path class="st0" d="M507.8,403.5c1.1,0.1,2.2,0.2,3.3,0.3c-0.1,0.9-0.4,2.8-0.6,3.7C509.1,406.5,508.5,405,507.8,403.5z"/>
<path class="st0" d="M564.3,405.6c-0.7-1.4,2.4-3.2,3-1.5C567.1,405.4,565.4,406,564.3,405.6z"/>
<path class="st0" d="M541.1,405.1c0.9-0.3,1.8-0.6,2.8-0.9c0,1.2,0.1,2.4,0.1,3.5c-0.7,0-2.1,0-2.8,0.1
	C541.1,407.2,541.1,405.8,541.1,405.1z"/>
<path class="st0" d="M606,404.6c1.9-0.3,3.8-0.4,5.7-0.1C609.8,406.1,607.5,406.8,606,404.6z"/>
<path d="M728.3,404.2c2.8-0.2,2.5,3,1.8,4.8c-0.4,1.7-2.4,1-3.6,0.9C726.4,407.8,725.9,405.1,728.3,404.2z"/>
<path class="st0" d="M266.5,410.6c0.1-2.2,0.3-4.4,1.3-6.4c0.2,2.6,0,5.2-0.1,7.8C267.3,411.6,266.8,410.9,266.5,410.6z"/>
<path class="st0" d="M435.4,404.7c2,0.8,3.6,4.3,1,5.3C434.5,408.8,435.1,406.5,435.4,404.7z"/>
<path d="M740.5,409.5c-2.6,0.2-4.2-4.3-1.5-5c2.2-0.6,2.2,2.1,2.6,3.5c0.1-0.6,0.4-1.9,0.5-2.5c1.4,0.6,3,1.1,4.3,2
	c1.4,1.9,1.4,4.4,1.7,6.6c-2.3,0.3-4.6,0.8-7,0.8C740.6,413.1,740.5,411.3,740.5,409.5z"/>
<path class="st0" d="M575.1,410.6c1.7-1.9,3.8-3.3,6-4.4c0.6,1.8,1.3,3.7,2,5.5c-1.7,0.3-3.3,0.7-4.9,1c0.2,1.8,0.3,3.6,0.5,5.4
	c1.5-1.8,3-3.6,4.4-5.4c2.2,1.5,3.9,3.7,4.4,6.4c-0.6,1.9-1.1,3.9-1.8,5.7c-2.6-1.5-5.5-3-7.1-5.7c-0.5-1.9-0.6-3.9-0.9-5.8
	C576.9,412.4,576,411.5,575.1,410.6z"/>
<path class="st0" d="M517.6,410.8c0.6-1.6,1.7-2.8,3.1-3.8c0,1.2,0,2.4,0,3.6C519.9,410.7,518.4,410.8,517.6,410.8z"/>
<path d="M184.6,413.8c0.3-1.6,0.7-3.2,1.3-4.7c0.9,1.2,1.8,2.4,2.6,3.7C187.1,413.1,185.9,413.5,184.6,413.8z"/>
<path d="M233.5,413.9c2.6-1.5,5.3-2.9,8-4.2c0.2,3.1-1.2,5.9-3,8.3c1.8,0,3.6,0.1,5.4,0.2c-2.9,4.5-8.9-1.6-11.4,2.8
	c0.5-1.8-0.8-2.7-2.2-3.3c1.3-0.3,2.5-0.6,3.8-0.9C233.8,415.9,233.6,414.6,233.5,413.9z"/>
<path class="st0" d="M524.6,409.8c1.5,1,2.9,2.2,4.3,3.3c-0.7,0.4-1.4,0.8-2.2,1.1C525.9,412.8,525.3,411.2,524.6,409.8z"/>
<path class="st0" d="M293.9,413.3c-0.6-1.2-0.2-2.1,1.1-2.6C298.1,410.1,296.1,415,293.9,413.3z"/>
<path d="M692.2,411c1.9-0.3,3.9,0.2,5.6,1.2c2.1,2.2,1.6,5.6,0.8,8.3c-0.8,2.2-3.7,2-5.5,1.6C688.7,420.5,688.5,413.4,692.2,411z"/>
<path d="M673.5,411.6c1.1,1.6,2,3.4,2.8,5.2c-0.9,0.3-1.8,0.6-2.7,0.9C673.4,415.7,673.4,413.7,673.5,411.6z"/>
<path d="M188.6,413.5c1.1,0.2,2.4,0,2.8,1.3c-0.4,1-1.1,1.9-1.9,2.7C189.2,416.2,188.9,414.9,188.6,413.5z"/>
<path d="M216.9,416.7c1.7-1.7,3.9-2.9,6.3-3.3C221.4,414.9,219.2,416,216.9,416.7z"/>
<path class="st0" d="M557.3,421.4c1.4-2.9,1.7-6.3,3.7-8.9c0.6,6.4-6.3,11.3-3.4,17.7c-0.5-0.5-1.6-1.4-2.1-1.9
	c-0.7,1.7-1.3,3.5-2.2,5.2c0.2-1.2,0.5-2.3,0.8-3.5c-1.6-1.1-3.3-2-4.8-3.2c-0.4-3.2,0.1-6.5,0.9-9.6c1.5,0,2.9,0,4.4,0
	C555.5,418.5,556.3,419.9,557.3,421.4z"/>
<path class="st0" d="M265.4,413.4c1.4,1.8,1.7,4,1.8,6.2C264.4,418.6,265,415.6,265.4,413.4z"/>
<path d="M677.9,414.7c1.4,0.3,2.8,0.6,4.2,1.1c0,0.8,0.1,2.3,0.1,3.1c-1.1-0.7-2.2-1.4-3.2-2.2l-0.9,2.1
	C677.9,417.3,677.9,416,677.9,414.7z"/>
<path d="M682.8,415.9c2.2-0.3,5.1-1.3,6.5,1.1c0.2,1.5-0.5,2.9-0.8,4.4c-1.9-0.8-3.9-1.6-5.8-2.4
	C682.8,418.2,682.8,416.7,682.8,415.9z"/>
<path d="M190,421.8c-0.6-1.5,0.6-3.5,2-4.2C193.5,418.4,191.6,422.1,190,421.8z"/>
<path class="st9" d="M506.2,418.5c1.4-0.5,1.9-0.1,1.6,1.4C506.4,420.4,505.9,419.9,506.2,418.5z"/>
<path d="M209.4,420.3c2.4-0.7,4.9-0.9,7.2,0c4.6-0.7,9.3-0.1,13.9-0.9c-3.1,2.2-7.1,0.5-10.5,1.5C216.5,421,212.4,422.5,209.4,420.3
	z"/>
<path class="st0" d="M434.7,419.4c2.5,1,2.4,3.5,2.3,5.8c-0.7-0.2-2.2-0.7-2.9-0.9c1.4,2.2,1.9,5,0.7,7.3c-2.1,2.4-6.6,1.6-7.3-1.7
	c-0.3-2.7,0.6-7.1,4.1-6.9C433.5,423,433.8,420.7,434.7,419.4z"/>
<path class="st0" d="M517.8,418.7c2.3,0,2.8,2,2.8,3.9c-0.4,0.3-1.3,0.8-1.7,1.1C518.3,422,518,420.3,517.8,418.7z"/>
<path d="M181.4,421c1.4,0.8,2.7,1.6,4.2,2.3c0.1,1.6,0.2,3.1,0.3,4.7C184.9,425.4,183.2,423.1,181.4,421z"/>
<path d="M113.5,427.8c-0.2-2.5-0.6-5.7,2.6-6.4C116.8,423.9,116.7,427,113.5,427.8z"/>
<path class="st0" d="M565.5,424c-0.8-1.8,3.3-3.3,3.7-1.2C568.6,424,566.6,424.8,565.5,424z"/>
<path d="M120.9,430.3c2.6-3.6,6.7-5.5,10.8-6.8c0,0.3,0.1,1,0.2,1.4C128,426.3,124.7,428.8,120.9,430.3z"/>
<path d="M669.8,429.1c0.2-2.2-0.2-5.2,2.2-6.3c3-0.1,6,3,3.6,5.8C674.6,431.1,671.6,429.6,669.8,429.1z"/>
<path d="M176.9,425.4c3.1-0.4,6.1,1.7,7,4.6c0.4,2-1.2,3.7-2,5.5c-1.9-1.3-4.2-2-5.8-3.7C175.6,429.7,176.5,427.5,176.9,425.4z"/>
<path d="M213.1,427.6c1.3-1.6,3.5,0.6,2.2,2C213.9,430.8,211.2,429.1,213.1,427.6z"/>
<path class="st0" d="M525.4,426.8c2.9,0.9,2.2,3.9,2.1,6.3C526.7,431,526,428.9,525.4,426.8z"/>
<path d="M679,429.7c1.9-0.8,3.8-1.4,5.9-1.2c-0.9,2.6-3.3,4-5.7,5C679,432.5,679,430.7,679,429.7z"/>
<path class="st0" d="M585.1,431.3c1.5-0.8,3-1.7,4.5-2.5c0,1.7,0,3.4,0.1,5.1c-1.5,0.7-2.9,1.4-4.4,2.2
	C585.2,434.5,585.2,432.9,585.1,431.3z"/>
<path class="st0" d="M614,438.3c8.7-3.4,17.1-7.6,26.2-9.4c1.8,6.2-1,12.1-2.1,18.1c-0.7,3,0.6,5.9,1.5,8.6
	c-2.4,1.5-5.3,2.5-7.7,0.6c1.1-2.6,3.5-5,2.1-7.9c-1.2,1.8-2.3,3.7-3.7,5.3c0.1-1,0.3-3,0.4-3.9c-2.1-0.9-4.2-1.8-6.3-2.5
	c-0.5,3.7,0.7,7.3,0.4,11c-1.8-1.4-1.9-3.6-1.6-5.7c-2.4-0.9-4.8-1.7-7.3-2C613.8,446.7,613.9,442.4,614,438.3z"/>
<path class="st0" d="M507.9,430.6c3.8-2,6.1,2.2,7,5.4c-1.3,0.5-2.6,2.3-4.1,1.2C507.8,436.5,507.9,433.1,507.9,430.6z"/>
<path class="st0" d="M572.8,433.1c1.8-0.6,3.4-1.6,4.9-2.7c0.1,1,0.2,2,0.4,3c-1.6,1.3-2.7,3-3.9,4.7
	C573.6,436.4,573.1,434.8,572.8,433.1z"/>
<path d="M221.7,447c1.8-5.4,3-12.4,9.1-14.7c-0.5,1.4-1.1,2.7-1.8,4.1c0.5,1.8,1,3.6,1.4,5.4c-1.3-0.5-2.6-1-3.9-1.6
	c-0.4,0.6-0.9,1.2-1.3,1.8c0.7,1.7,0.8,3.4,0.8,5.2c1.4-1.1,2.8-2.2,4.2-3.2c-1.1,1.2-2.2,2.3-3.4,3.5c-1.4,0-2.9-0.3-4.1,0.8
	C222.4,447.8,222,447.4,221.7,447z"/>
<path class="st0" d="M500.2,432.9c1.7,0.2,3.3,0.8,4.1,2.4c-0.8,0.1-2.4,0.4-3.3,0.6C500.8,434.9,500.5,433.9,500.2,432.9z"/>
<path class="st0" d="M520.3,434.5c2.6-3,2.9,3.3,0,1.5C520.3,435.6,520.3,434.9,520.3,434.5z"/>
<path d="M698.2,435c1-0.1,1.9-0.2,2.9-0.1c0.2,1.3,0.3,2.6,0.4,4C699.4,438.4,698,437.2,698.2,435z"/>
<path class="st0" d="M554.8,434.7c0.7,7.8-6,14.5-4.2,22.4c-0.2,2.8-2.4,5.2-3.6,7.7C548.1,454.5,551.5,444.5,554.8,434.7z"/>
<path d="M685.8,435.5c1.9,0.1,2.6,1.5,2.9,3.2c-0.5,0-1.7,0-2.2,0C686.4,437.8,686,436.2,685.8,435.5z"/>
<path class="st0" d="M499.3,437c2.3,0.1,3.5,1.6,4,3.8c-0.9,0.1-2.5,0.2-3.4,0.3C499.6,439.7,499.4,438.4,499.3,437z"/>
<path d="M165.4,440c0.6-1.6,2-2.1,3.6-2.1c-0.6,1.3-1.3,2.6-2,3.8C166.5,441.3,165.8,440.4,165.4,440z"/>
<path d="M231,443.2c1.5-1.9,3.1-3.7,4.9-5.3C234.4,439.8,232.8,441.6,231,443.2z"/>
<path class="st0" d="M242.7,444.8c2.1-1.8,3.7-4,5.6-6c-1.2,4.1-3.6,7.6-5.2,11.6c-0.9,0.8-1.8,1.7-2.7,2.5
	c-0.6-0.2-1.9-0.7-2.5-0.9C239.4,449.5,240.9,447.1,242.7,444.8z"/>
<path class="st0" d="M488.4,444c-1.1-2.3-0.4-6,2.8-5.8c2.9,1.9,2.3,5.9,1.1,8.6C491,446,488.8,445.8,488.4,444z"/>
<path class="st0" d="M528,442.1c0.5-1.6,0.7-4.1,3-2.8C531.2,441.3,529.7,441.9,528,442.1z"/>
<path d="M690.3,442.8c-1.2-0.4-1.8-1.2-1.6-2.5c0.6-0.1,1.8-0.4,2.4-0.6c0,0.6,0.1,1.7,0.1,2.2c1,0.6,1.7,1.5,2.2,2.5
	c2.7,0.1,3.6,3.2,5.3,4.9c-0.9,1.4-2.3,2.3-3.9,2.9C693.6,449,691.9,445.9,690.3,442.8z"/>
<path class="st0" d="M243.9,451c2.5-3.4,4.4-7.3,7.7-10c-1.2,4.4-2.6,8.6-4.2,12.9c-0.7-0.4-2-1.3-2.6-1.8c0.6-0.5,1.8-1.4,2.4-1.9
	C246.3,450.4,244.7,450.8,243.9,451z"/>
<path class="st0" d="M508.6,440.5c2.5,2,2.7,5.6,4.2,8.3c-0.4,0.2-1.3,0.5-1.8,0.6C509.6,446.6,508.9,443.6,508.6,440.5z"/>
<path class="st0" d="M555.8,441.4c0.4-0.1,1.1-0.4,1.5-0.5c0.4,0.9,1.2,2.7,1.6,3.6C557.6,443.9,556.7,442.5,555.8,441.4z"/>
<path class="st0" d="M569.1,441.3c0.7-0.1,2-0.2,2.7-0.3c-0.1,1.4-0.1,2.7-0.2,4.1c0.3,0.5,1,1.4,1.3,1.8c-0.7,0-2-0.1-2.7-0.2
	C569.2,445.1,569,443.2,569.1,441.3z"/>
<path d="M159.9,449.7c2.3-1.9,4-4.6,6.8-5.8c2.9,4.5,0.7,10.4-4.1,12.4c-0.4-4-6.7-4.6-4.8-9C158.2,447.9,159.3,449.1,159.9,449.7z"
	/>
<path class="st0" d="M598.5,452.3c2.5-3.1,5-6.2,7.5-9.3c1,3.6,2.2,7.3,4.5,10.4c-0.3,2.8,0.8,5.6,3.7,6.4c0.6,3.8,0.6,7.7,1.1,11.6
	c-1.3-0.6-2.8-0.6-3.9-1.6c-2.5-5.4-6.7-9.8-10.1-14.6c1.9-0.6,3.8-1.1,5.6-2C604.2,452.8,601.3,453.1,598.5,452.3z"/>
<path class="st0" d="M655,445.3c1.4,0.9,1.3,3.6,1.6,5.3c-0.5,1.6-1.6-1.2-1.7-1.7C654.5,447.6,654.5,446.5,655,445.3z"/>
<path class="st0" d="M497.9,446.2c0.5,0.4,1.4,1.1,1.8,1.5c-0.5,1.3-1.2,2.4-2.3,3.2C496.3,449.3,496.5,447.6,497.9,446.2z"/>
<path class="st0" d="M576,446.4c0.5,0.3,1.7,0.9,2.2,1.2c-0.8,1.9-2,3.6-3.8,4.8C574.1,450.1,574.6,448.1,576,446.4z"/>
<path class="st0" d="M483.1,447.5c1,0.5,2,0.9,3.1,1.4c-0.5,2.2-1.1,4.5-2,6.6C482.2,453.2,482.1,450.2,483.1,447.5z"/>
<path class="st0" d="M523.8,449.1c1.9-1,4.3-0.7,4.3,1.9C526.7,450.4,525.2,449.8,523.8,449.1z"/>
<path class="st0" d="M268.1,450.7c2.6,1.3,5,3.1,7.4,4.6c-0.1,1.3-0.2,2.6-0.3,3.8C272.3,456.8,270.5,453.4,268.1,450.7z"/>
<path class="st0" d="M226.7,453.3c1.5-0.5,3-1,4.5-1.4c-0.6,1.2-1.2,2.4-1.8,3.6C228.5,454.7,227.6,454,226.7,453.3z"/>
<path class="st10" d="M495.1,452.2c1.6-0.4,2.2,0.1,1.8,1.8C495.2,454.5,494.6,453.9,495.1,452.2z"/>
<path d="M699.2,452c5.4,0.5,6.5,8,2.7,11.1c-4,0.2-8.1-3.8-7.1-7.9C695.8,453.6,697.3,452.4,699.2,452z"/>
<path class="st0" d="M475.3,454.6c0.8-0.2,2.4-0.7,3.2-0.9c-0.2,1.6-1.2,2.7-2.8,3.2C475.5,456.3,475.4,455.2,475.3,454.6z"/>
<path class="st0" d="M471.1,456.6c0.3-0.4,1-1.3,1.3-1.8c1.4,0.3,1.1,1.9,1.4,3c-0.7-0.1-2.1-0.4-2.9-0.6c0,0.4,0.1,1.1,0.1,1.5
	c-0.8,0.1-1.5,0.5-2.1,1.1c-1.7,1.8-4.3,2.4-6.5,3.4c-0.2-1.8-0.1-3.7,0.1-5.5c1.1,0,3.3-0.1,4.4-0.2l0.5,0.3
	c1.3,0.3,1.9-0.9,2.6-1.7L471.1,456.6z"/>
<path class="st0" d="M494,455.3c1.3-0.9,2.7,1.5,1.6,2.4C494.2,458.7,493,456.2,494,455.3z"/>
<path class="st0" d="M455.2,456.3c2.4-1.7,5.7-0.1,6,2.7c1.4,3.8-2,8.6-6.1,7.8C450.6,465.2,451.4,458.1,455.2,456.3z"/>
<path class="st0" d="M246.4,459.5c0.9-1.6,2.8-1.6,4.4-2.1c-0.4,2.4-1.1,4.8-3.5,5.9C246.9,462.1,246.3,460.8,246.4,459.5z"/>
<path class="st0" d="M656.3,462.6c0.2-2.1,0.8-4.1,1.5-6C657.8,458.6,658.3,461.2,656.3,462.6z"/>
<path d="M185,458.3c-0.7,1.1-1.3,2.1-1.9,3.2c4.1,0.5,8.2,1.1,12.4,1c-1,0.1-3,0.3-4,0.4c0.1,0.4,0.4,1.3,0.5,1.8
	c-0.9-2.9-4.5-2.2-6.9-2.6c-2.9-0.4-5.1,1.6-7.4,3C179.1,461.9,182.2,460.1,185,458.3z"/>
<path d="M203.7,465c1.5-2.4,3.2-4.7,5.1-6.8c-1.3,2.3-2.6,4.8-2.7,7.5C205.3,465.5,204.5,465.2,203.7,465z"/>
<path class="st0" d="M488.5,464.2c0.4-2.7,2.2-4.8,3.7-6.9c0.5,0.4,1.5,1.1,1.9,1.5c-0.6,2.5-1.2,4.9-1.7,7.4
	C491.2,465.5,489.9,464.9,488.5,464.2z"/>
<path d="M158.5,458.7c0.5,1.7,1.1,3.4,1.7,5.1c-1.2,0.5-2.5,1.1-3.7,1.6C157.2,463.2,159.2,461.2,158.5,458.7z"/>
<path class="st0" d="M420.2,462.8c0.4-1.3-0.2-3.5,1.6-3.8c1,0.6,1.9,1.3,2.8,2c-0.5,1.1-1.1,2.2-1.6,3.4
	C422,463.8,421.1,463.3,420.2,462.8z"/>
<path d="M142.9,463.2c1.2-1.6,2.4-3.5,4.7-3.6c-0.6,1.9-1.5,3.6-2.5,5.4c-0.4,0.1-1.1,0.3-1.5,0.4
	C143.4,464.8,143,463.7,142.9,463.2z"/>
<path d="M164.5,459.6c1.1,1.8,1.6,3.8,1.9,5.8C165.5,463.6,164.8,461.7,164.5,459.6z"/>
<path class="st0" d="M616.1,460.2c1,0.6,2.1,1.3,3.1,2c-0.9,0.4-1.8,0.8-2.7,1.3C616.4,462.4,616.2,461.3,616.1,460.2z"/>
<path d="M197,462.7c1.7,0.9,3.1,2.2,4.4,3.5C199.2,466.2,197,465.2,197,462.7z"/>
<path class="st0" d="M375.2,464.2c0.4-0.2,1.1-0.5,1.5-0.7c0.1,0.4,0.4,1.1,0.5,1.5c-0.1,1.5-0.1,3,0.1,4.5
	c-2.2,2.6-2.5,7.6,1.3,8.9c-1.3,1.9-0.5,4,0.1,6.1c2.1-4.1,3.3-8.8,1.7-13.3c2.3-2,4.7-3.8,7.2-5.5c0.1,0.8,0.2,2.2,0.2,3
	c1.7-0.5,3.4-1,5-1.6c0.6,1.8,1.1,3.5,1.6,5.3c2.5-1.5,4.9-3.3,7.7-4.2c0.4,1.7,0.9,3.5,1.3,5.2c-6-0.6-12.9,0.4-16.4,5.9
	c-1-0.3-2.2-2.1-3-0.5c-0.1,0.8-0.4,2.3-0.5,3.1c0.6,0.2,1.8,0.5,2.4,0.7c-0.1,1.1-0.3,3.3-0.3,4.4c-1-1.3-1.9-2.7-2.8-4.1
	c-2.8,1.1-2.8,3.8-2.2,6.3c1.1-0.4,2.3-0.8,3.4-1.1c-0.6,1.2-1.2,2.4-1.7,3.6c-0.9-0.9-1.7-1.8-2.5-2.6c-1.3,1.8-2.6,3.6-3.8,5.4
	c-1.7-1.2-3.4-2.5-5-3.8C373.8,482.2,375.4,473.2,375.2,464.2z"/>
<path class="st0" d="M591.2,464.4c0.5,0.2,1.4,0.7,1.8,0.9c-0.1,0.6-0.3,1.9-0.4,2.6c-0.8,0.3-1.6,0.6-2.4,0.9c-0.3-1-0.6-2-0.9-3
	C589.9,465.4,590.8,464.8,591.2,464.4z"/>
<path d="M217,465c0.6,0.3,1.7,0.8,2.3,1c-0.7,2-1.5,3.9-2.4,5.8C215.9,469.6,216.3,467.3,217,465z"/>
<path d="M167,468.3c0.5-1.2,1.3-2.2,2.6-2.6c-0.1,0.6-0.3,1.9-0.5,2.5C168.6,468.2,167.5,468.2,167,468.3z"/>
<path class="st0" d="M484.7,469.5c1.4-2.7,5.2-2.9,7.7-1.8c3.5,2.4,2.9,9.3-1.4,10.4c-2,1-3.9-0.5-5.8-1.2
	C484.7,474.5,483.5,471.9,484.7,469.5z"/>
<path d="M179.4,472.1c0.4-1,0.8-2,1.4-2.8c1.8,0,2.1,1.9,2.9,3.2C182.3,472.3,180.9,472.2,179.4,472.1z"/>
<path d="M186.5,475.6c2-2.7,4.6-5.1,7.5-6.9C191.5,471,189.2,473.5,186.5,475.6z"/>
<path d="M386.8,473.1c-0.1-1.2-0.9-3.2,0.7-3.8c1.7,0.9,2,2.8,2.3,4.5C388.8,473.6,387.8,473.4,386.8,473.1z"/>
<path class="st0" d="M470.8,469.3c0.8,0.1,2.4,0.2,3.2,0.3c-0.1,1.9-1.1,3.3-3.1,3.3C470.8,471.7,470.8,470.5,470.8,469.3z"/>
<path class="st0" d="M408.5,470c0.7,0,2.2,0,2.9,0c-1.6,2.7-2.9,5.6-4.3,8.4c-2-1.1-2.2-3.4-2.7-5.4
	C406.2,472.7,408.3,472.3,408.5,470z"/>
<path d="M209,472.5c1.9,0.4,3.7,1.1,5.3,2.1C212.2,474.8,210,474.6,209,472.5z"/>
<path d="M147.5,477.6c0.4-1.3,0.8-2.6,1.2-3.9c0.3,1.6,0.5,3.3,0.8,5C148.8,478.3,148.1,478,147.5,477.6z"/>
<path class="st0" d="M231.7,478.7c0.7-1.7,1.5-3.4,2.4-5c0.1,1,0.3,3.1,0.4,4.1c1.7-0.7,3.3-1.3,5-1.9c0.3,2.1,0.5,4.2,0.8,6.4
	c-1.3-0.6-2.5-1.3-3.7-2c0.7-0.3,2.2-0.8,2.9-1C236.9,479,234.3,478.8,231.7,478.7z"/>
<path d="M219,474.9c1.2,0.6,2.3,1.3,3.4,2c-0.4,0.6-0.9,1.2-1.3,1.8C219.9,477.6,219.2,476.4,219,474.9z"/>
<path d="M185.3,476.2C185.7,476.9,185.7,476.9,185.3,476.2z"/>
<path class="st0" d="M397.7,475.9c3.5,1.4,3.9,5.2,3.8,8.5c-1.2,0.1-2.4,0.1-3.5,0.2c-0.4-1-0.8-2.1-1.2-3.1
	c0.6-0.2,1.9-0.5,2.5-0.6C398.8,479.2,398.1,477.5,397.7,475.9z"/>
<path class="st0" d="M455.7,476c2.7,0.3,5.6,0.1,8,1.6c0.2,1.6-1.3,2.8-1.9,4.1c-0.2-0.7-0.8-2.1-1-2.9c-0.8,0.4-2.5,1.1-3.3,1.5
	C456.6,479,456.1,477.5,455.7,476z"/>
<path class="st0" d="M622.2,480.5c0.9-1.9,0.8-5.3,3.7-5.2c2.7,0.6,4.2,3.2,4.2,5.8C628.1,483.9,624.1,482.9,622.2,480.5z"/>
<path class="st0" d="M225,480.4c2.1-0.9,4.3-0.7,6.4,0c-0.4,0.7-1.3,2.1-1.7,2.7l1.8-0.3c-0.1,0.6-0.2,1.7-0.3,2.3
	c-1.2-0.5-2.3-1.1-3.4-1.6c-0.4,0.6-0.8,1.1-1.2,1.7c0.2,1.5,0.4,3.1,0.4,4.7c-1.7-0.8-3.3-1.5-5-2.3c0.5-1.3,1-2.5,1.5-3.8
	c1.2-0.4,2.3-0.9,3.4-1.4C226.4,481.8,225.5,480.9,225,480.4z"/>
<path d="M565.6,481.7c0.5-0.4,1.6-1.3,2.1-1.7c-0.4,2.6-0.8,5.3-1.2,7.9c-0.6-1.2-1.3-2.5-1.9-3.7
	C564.8,483.5,565.3,482.3,565.6,481.7z"/>
<path class="st0" d="M388.9,483.7c2.6,2.6,6,4.1,9.6,4c-2.8,2.2-6.1,3.5-9.7,3.5C388,488.7,388.5,486.2,388.9,483.7z"/>
<path d="M519,483.2c0.6,0.8,1.2,1.6,1.9,2.5c-2,1.9-2.3,4.7-3.9,6.8c-0.1-1.1-0.1-2.2-0.1-3.4C518.8,487.7,518.9,485.4,519,483.2z"
	/>
<path class="st0" d="M582.1,487c-0.6-1.3,1.7-2,2.6-1.4C585.1,486.8,583,487.9,582.1,487z"/>
<path d="M375.5,489.8c-0.6-1.1,0.2-2.9,1.5-3C379,487.4,377.2,490.8,375.5,489.8z"/>
<path class="st0" d="M643.1,488.3c0.9-0.2,2.2-1.6,3.1-0.4c1.4,0.9-0.7,2.6-0.6,3.7C644.7,490.5,643.8,489.4,643.1,488.3z"/>
<path d="M173.5,492.1c0.8-1.5,1.4-3.7,3.5-4c2.4-0.2,4.4,1.4,6.2,2.7C180.1,491.8,176.8,492.1,173.5,492.1z"/>
<path class="st0" d="M628.2,488.7c3.2,2.1,4.3,6.1,4.5,9.7C629.5,496.3,629.2,492.1,628.2,488.7z"/>
<path class="st0" d="M219.4,490c1.4,0.5,2.8,1.1,4.2,1.8c-0.7,1.1-1.4,2.1-2.2,3.2C220,493.6,219.4,491.8,219.4,490z"/>
<path d="M498.5,492.3c1.2,1,2.3,1.9,3.4,3c-1.2,0.1-2.4,0.1-3.5,0.2C498.4,494.4,498.4,493.3,498.5,492.3z"/>
<path class="st11" d="M683.2,493.9c1.1-0.7,2.2-1.3,3.3-1.8c-0.8,3.4-1.5,6.8-2,10.3c0.9,0,2.7,0.1,3.7,0.2
	c-2.5,0.5-5.3-0.2-6.1-2.9C684.6,499,684.3,495.8,683.2,493.9z"/>
<path d="M678.3,493.3c1.7-0.7,3.5-1.1,4.1,1.2c-0.7,1.3-1.6,4-3.7,2.8C678.4,496,678.4,494.6,678.3,493.3z"/>
<path d="M684.5,502.4c0.5-3.5,1.2-6.9,2-10.3c3.6,2.4,3,7,1.6,10.5C687.3,502.6,685.4,502.5,684.5,502.4z"/>
<path d="M711.2,492.8c1.1,0.3,2.2,0.7,3.3,1c-0.5,1.5,0,4.1-2.2,4.3c-1.6,0.5-2-1.6-2.5-2.7C710.2,494.8,710.9,493.5,711.2,492.8z"
	/>
<path d="M159.6,494c3-0.8,3.9,1.9,3.6,4.4c2.1,0.2,4.1,1,5.9,2c-3-0.1-6.1-0.5-9.1-0.7c0.1-0.2,0.4-0.7,0.6-0.9
	C160,497.3,159.8,495.6,159.6,494z"/>
<path d="M177.2,494.7c1.5-1,3.4,1.2,1.8,2.4C177.4,498.8,175.7,495.9,177.2,494.7z"/>
<path class="st0" d="M380.8,494.3c0.4,0.2,1.1,0.5,1.4,0.7c0.9-0.2,1.8-0.3,2.7-0.5c0.1,1.7-0.5,3.1-1.7,4.2l3.3-0.7l-2.2,1
	c1.8,1.8,4,3.6,3.5,6.5c1-1.7,2-3.4,3-5.1c0.3,0.2,0.8,0.6,1.1,0.8c0.4,2.2-0.1,4.4-0.3,6.6c-3.7-0.6-7.6-2.9-7-7.2
	c-0.5,0-1.4,0-1.9,0c-1.2-1.1-2.5-2.2-3.8-3.3C379.6,496.3,380.2,495.3,380.8,494.3z"/>
<path d="M683.2,493.9c1,1.8,1.4,5-1.1,5.8C681.7,497.8,682.7,495.8,683.2,493.9z"/>
<path d="M571.7,495.3c2.2,0.2,4.4,1,5.1,3.4C574.4,498.8,572.8,497.2,571.7,495.3z"/>
<path d="M401.9,501.2c0.9-2.5,2.1-5.8,5.2-5.9c2.8,1,2,4.7,1,6.8c-0.9,2.1-3.2,2.4-5.1,3.1C402.6,503.8,402.3,502.5,401.9,501.2z"/>
<path d="M472.8,497.3c0.9-0.1,2.6-0.4,3.5-0.6c0,1.9-1.2,3.1-2.7,4C473.3,499.6,473.1,498.4,472.8,497.3z"/>
<path d="M668.8,497.5c1.9-0.4,2,2.6,2.8,3.7c-1.3,0.2-2.5,0.3-3.8,0.5C668,500.3,668.1,498.8,668.8,497.5z"/>
<path d="M581.9,501.8c2.3-1.1,4.2-2.7,6.4-3.9C587.1,500.4,584.5,501.7,581.9,501.8z"/>
<path class="st0" d="M237.7,500.6c0.5-0.4,1.6-1.2,2.1-1.6c1.8,1.1,3.7,2.3,5.4,3.7C242.7,502.2,240.1,501.7,237.7,500.6z"/>
<path d="M422.8,503.6c1.1-1.8,2.2-3.5,3.6-5c-0.2,1-0.4,1.9-0.5,2.9C424.8,502.2,423.8,502.9,422.8,503.6z"/>
<path d="M191,500c2.2-0.1,4.4-0.2,6.7-0.3c-1.2,3.3-4.1,5.8-4.6,9.4C191.9,506.1,191.5,503.1,191,500z"/>
<path d="M546.8,510.4c-0.4-2.5-1-5-1.6-7.5c1.2,2.3,2.6,4.5,4.2,6.7C548.5,509.8,547.7,510.1,546.8,510.4z"/>
<path d="M576.2,508.3c0.6-1.9,1.4-3.7,2.4-5.4C578.6,505,577.8,506.9,576.2,508.3z"/>
<path d="M649.8,504.9c1.8-0.5,3.6-1.1,5.5-1.6c-1.1,1.9-2.6,3.6-4.5,4.7C650.5,507.2,650,505.7,649.8,504.9z"/>
<path d="M206.2,506.4c-0.8-2.4,4.1-2.8,3.7-0.4C208.9,506.7,207.2,507,206.2,506.4z"/>
<path class="st0" d="M290,506.5c1.1-0.5,2.1-0.9,3.2-1.4c0.6,1.9,0.8,3.8,0.5,5.7C291.6,510.3,290.2,508.8,290,506.5z"/>
<path class="st0" d="M611.5,504.5c1.2,0.8,2.2,1.9,2.8,3.2c-1.3,0-2.7,0-4,0C610.8,506.6,611.2,505.6,611.5,504.5z"/>
<path d="M154.4,506.8c1-0.2,2.1-0.4,3.1-0.5c1.5,2.8,3.1,5.6,4.7,8.3c1.8-1.8,3.6-3.9,6.3-4.3c0.3,4.4-1.9,8.7-6.2,10.2
	c-0.4-2-0.1-4.4-1.8-5.9C158.1,512.3,155.4,510.1,154.4,506.8z"/>
<path class="st0" d="M246.8,506c3.6,1,6.3,3.6,8.2,6.7C252,510.7,249.2,508.5,246.8,506z"/>
<path d="M569.1,512.4c-1.6-1.8-2.3-4.2-3.1-6.5C567.1,508.1,568.4,510.1,569.1,512.4z"/>
<path d="M181.2,514c1.4-2.9,3.7-5,6.2-6.9C186.8,510.4,184.4,513.1,181.2,514z"/>
<path d="M504.4,513.2c0.1-2.6,0.9-4.9,2.4-7c3,1.6,4.9,4.4,4.6,7.9C509.1,514,506.7,513.8,504.4,513.2z"/>
<path d="M597.3,509.8c1.4-2,3.2-3.7,5.7-2.1C601.5,509.4,599.5,510.5,597.3,509.8z"/>
<path d="M453,507.7c0.3,0.4,1,1.2,1.3,1.6c0.7,0,2,0.1,2.7,0.1c-0.8,0.7-1.7,1.4-2.6,2.1C453.9,510.2,453.5,509,453,507.7z"/>
<path d="M528.9,515.1c-0.2-2.7,0.1-5.5,1.6-7.8c-0.1,1.2-0.2,3.6-0.3,4.8c1.2-1,2.5-1.9,3.7-2.8c0,1.4,0,2.8,0.1,4.2
	c-1.1-0.3-2.2-0.7-3.3-1c-0.1,0.9-0.4,2.6-0.6,3.4C529.9,515.8,529.3,515.3,528.9,515.1z"/>
<path class="st0" d="M234.5,509.8c0.3,1.2,1.5,2.6,0.3,3.8c-0.9,0.7-1.9,1.3-3,1.8C232.5,513.4,233.4,511.6,234.5,509.8z"/>
<path class="st0" d="M343.6,510.3c2.9-0.3,5.9,0.1,8.8,0.7C349.8,512.7,345.2,514,343.6,510.3z"/>
<path d="M169.9,519.2c1.4-3.3,3.5-6.4,6.7-8.1C174.9,514.2,172.6,517,169.9,519.2z"/>
<path class="st0" d="M218.6,522.6c1.2-4.3,2.1-11.2,8.1-10.8c0.5,1.7,0.9,3.4,1.4,5.2C225.3,519.5,221.9,520.9,218.6,522.6z"/>
<path class="st0" d="M361.1,525c0.8-4.1,1.8-8.1,3.1-12.1c1.9,3,1.9,6.6,1.1,10c-1.5,0.8-2.3,2.1-2.4,3.9
	C362.3,526.2,361.7,525.6,361.1,525z"/>
<path class="st0" d="M296.2,516.7c0.1-0.4,0.2-1.2,0.3-1.6c1.7,1.6,3.1,3.4,3,5.8C298.3,519.6,297.2,518.2,296.2,516.7z"/>
<path d="M378,515.7c2-0.1,3.9,0.7,5.5,2C381.6,517.2,379.8,516.5,378,515.7z"/>
<path d="M393.5,515c1.1,0.5,2.1,1.1,3.2,1.6c-0.2,2.4-1.5,4.2-4.1,4.4C392.9,519,393.2,517,393.5,515z"/>
<path d="M465.9,516.9c0.8-1.3,1.5-1.3,2.1-0.2c0.2,1-1.1,4.1-2.1,2C465.9,518.2,465.9,517.3,465.9,516.9z"/>
<path d="M474.3,515.4c3.6,3.7,3.8,9,4.5,13.8c-1.5-2.8-2.1-6-3.3-8.9c-0.7,0.1-2,0.2-2.7,0.3c0.6-0.2,1.7-0.7,2.2-0.9
	C474.8,518.6,474.5,516.5,474.3,515.4z"/>
<path d="M582.3,517c1.7-1,5.1-0.6,4.9,1.9c0.6,2.9-1.2,5.9-4.2,6.3C578.6,525.2,579.2,518.7,582.3,517z"/>
<path class="st0" d="M235.3,518c2.4-1,0.6,4.1-1,3.8C233.8,520.5,234.5,518.9,235.3,518z"/>
<path d="M377,518.9c0.7,0.1,2,0.3,2.6,0.3c-0.5,1.1-1.1,2.3-1.6,3.4c-0.8-0.4-1.5-0.8-2.2-1.1C376.1,520.9,376.7,519.5,377,518.9z"
	/>
<path d="M524.7,522.7c0-1.3,0-2.5,0.1-3.8c0.8,0.1,2.4,0.3,3.2,0.4C527.7,521.1,526.8,522.7,524.7,522.7z"/>
<path d="M510,519.6c3.4,2.2,5.5,6.4,3.6,10.3C511.3,527,510.5,523.2,510,519.6z"/>
<path d="M186.8,521.1c0.2,1,0.5,2,0.6,3c-0.6,0.4-1.7,1-2.3,1.4C185.6,524,186.1,522.5,186.8,521.1z"/>
<path class="st0" d="M331,524.3c2.2-2.7,5.6-4.1,8.8-2.1c-1.1,1.4-1.9,3.3-3.8,3.6C334.1,525.9,332.6,524.9,331,524.3z"/>
<path class="st0" d="M623.2,522.2c1.9-2.5,6.2-0.9,7,1.9c1.2,1.9-0.3,3.8-0.9,5.5c-1.6,0.2-3.1,0.5-4.7,0.8
	C623.8,527.9,621,524.8,623.2,522.2z"/>
<path class="st0" d="M272,541.3c2.9-7.1,7.7-13.1,11.9-19.4C281,528.9,277.3,535.8,272,541.3z"/>
<path d="M471.4,522.4c1.3-0.9,2.8,1.3,1.7,2.4C471.8,525.6,470.3,523.4,471.4,522.4z"/>
<path d="M536.8,528.6c-2.8,0.5-4.5-3-2-4.5c0.6-0.1,1.8-0.3,2.5-0.5c-0.2,1.3-0.4,2.7-0.6,4c1.9,0,3.7,0.5,5.1,1.8
	c-0.6,2.4-1.2,4.7-2,7c-1.8-0.2-3.5-0.6-5.2-1.2C534.6,533,533.5,529.4,536.8,528.6z"/>
<path d="M564.3,524c1.8,0.5,0.8,4.9-0.9,4.7C563,527.2,563.2,525.1,564.3,524z"/>
<path d="M420.5,524.9c2.2,0.3,4.2,1.2,5.1,3.3c-1.2,0-2.4,0-3.5-0.2C421.4,527,420.9,526,420.5,524.9z"/>
<path d="M417.1,526.9c0.8,1,1.6,1.9,2.5,2.9c-1.1,0.6-2.2,1.2-3.3,1.8C416.5,530,416.8,528.5,417.1,526.9z"/>
<path d="M592.8,530.9c0.8,0,1.7-0.1,2.5-0.1c0,2,0,4,0,6c-1-0.3-1.9-0.6-2.8-1C592.3,534.1,592.6,532.5,592.8,530.9z"/>
<path d="M562.4,533.7c0.1-0.4,0.2-1.2,0.3-1.6c0.1,1.8,0.2,3.5,0.4,5.3c-2.1-0.2-3.3-1.6-3.2-3.7
	C560.4,533.8,561.7,533.7,562.4,533.7z"/>
<path d="M413.3,541.8c2.9-1.7,4-5,5-8c0.3,2.2,0.7,4.4,1.1,6.6c1-0.6,2.9-1.7,3.8-2.3c-1.2,1.9-2.9,3.5-4.6,5.1
	C416.9,542.6,415.1,542.1,413.3,541.8z"/>
<path d="M468.8,534.5c0.4-0.1,1.1-0.3,1.5-0.4c0.2,2.2,0.6,4.4,0.8,6.5c-0.8-1.1-1.6-2.1-2.4-3.2
	C468.8,536.5,468.8,535.5,468.8,534.5z"/>
<path class="st0" d="M231.3,535.1c1.5,0.9,2.6,2.2,3,4C231.6,539.5,231.6,537,231.3,535.1z"/>
<path class="st0" d="M318.2,535c1.5,0,2.9,0,4.4,0c-1.7,2.3-3.1,4.8-5,6.9C317.8,539.6,318,537.3,318.2,535z"/>
<path d="M493.1,536.1c1-0.3,2.1-0.5,3.2-0.8c-0.1,0.9-0.1,1.9-0.2,2.9c-1,0.1-2,0.2-2.9,0.4C493.1,537.9,493.1,536.7,493.1,536.1z"
	/>
<path d="M509.4,537.7c3.5,1.4,4,5.3,5.2,8.4C510.9,545,509.6,541.2,509.4,537.7z"/>
<path d="M127.8,540.1c0.6-0.2,1.8-0.5,2.5-0.6c-0.5,2-1,4.1-3,5.1C127.4,543.1,127.6,541.6,127.8,540.1z"/>
<path d="M131.7,546.3c2-4.2,6.6-5.5,10.5-7.2C138.7,541.4,135.3,544.1,131.7,546.3z"/>
<path class="st0" d="M269,544.7c-0.6-1.2,1.2-3.6,2.5-2.7C272.3,543.4,270.4,545.3,269,544.7z"/>
<path d="M422.6,545.5c1.1-0.5,2.1-0.9,3.2-1.3c-0.3,2.9-0.6,5.9-1.6,8.7C423.8,550.5,423.2,548,422.6,545.5z"/>
<path d="M580.6,553.7c0-3.6,0.7-7.2,2.5-10.4C584.5,546.8,584.5,552,580.6,553.7z"/>
<path class="st0" d="M234.2,545.1c2.3,0.3,2.6,2.4,2.2,4.4C235.4,548.2,234.7,546.7,234.2,545.1z"/>
<path d="M396.6,547.8c0.8-0.8,1.6-1.7,2.4-2.5c-0.2,2,0.8,3.8,1.7,5.6C399.4,549.8,398,548.8,396.6,547.8z"/>
<path d="M432.8,546.1c1-0.1,2-0.2,3.1-0.3c0.1,0.3,0.4,0.8,0.5,1.1c-1.3,0.6-2.6,1.2-3.8,1.7C432.6,547.8,432.7,546.9,432.8,546.1z"
	/>
<path class="st0" d="M275.2,552.1c1.5-2.1,2.9-4.4,4.6-6.4c-2.7,9.2-7.2,18.9-16.1,23.6C266.5,562.9,271.3,557.8,275.2,552.1z"/>
<path class="st0" d="M314.5,556c0.5-2.8,0.9-5.7,2-8.3c0.9,1.9,1.7,3.8,2.6,5.7c-0.9,0.2-1.8,0.4-2.8,0.6
	C315.7,554.6,315.1,555.3,314.5,556z"/>
<path d="M438.9,551.5c-0.2-1.3-0.4-2.7-0.5-4c1.6,0.3,2.8,1.2,3.2,2.8C440.7,550.6,439.8,551,438.9,551.5z"/>
<path d="M383.5,554.2c0.7-2.2,1.3-4.7,3.6-5.7c1.5-0.1,3-0.1,4.6,0.1c-0.6,1.4-0.7,3.1-1.7,4.3C388.2,554.6,385.6,554,383.5,554.2z"
	/>
<path class="st0" d="M264,555.6c2.1-1.8,4.2-3.8,6.5-5.4c0.2,1.1,0.4,2.2,0.6,3.3c-2.2,2.4-4.3,4.9-6.4,7.4
	C264.4,559.1,264.2,557.3,264,555.6z"/>
<path d="M506.2,559.4c-0.6-3.1-3.5-8,0.6-9.8c2.1,0.5,3.8,1.9,5.6,3c-0.6,2.2-1.1,4.5-1.5,6.8c-7.8,0.2-9.4,9.5-15.5,12.8
	c0.1-1,0.3-3.1,0.4-4.1C498.7,564.5,502.5,562,506.2,559.4z"/>
<path d="M545.4,555c-0.2-2,0.6-5.8,3.4-4.9c4.4,1.1,5.4,6.7,2.5,9.9C549,559,545.4,558.2,545.4,555z"/>
<path class="st0" d="M324.5,555.5c3.8-2.8,8.7-3,13.1-4.1c-1.5,1.6-3.1,3.1-4.7,4.6c0.3-0.8,0.9-2.5,1.2-3.3
	C330.9,553.5,327.8,554.7,324.5,555.5z"/>
<path d="M476.6,551.6c3.3-0.5,6.5,0.5,9.5,1.6l-1.6,0.8c0.7,1.5,0.6,2.6-1.3,2.5c-2.2-0.3-3.1-2.8-3.8-4.6c-0.5,0.3-1.7,1-2.2,1.3
	C477,552.8,476.7,552,476.6,551.6z"/>
<path d="M574.6,555.4c0.2-1.5,0.4-3,0.8-4.5c0.4,1.5,0.8,3.1,1.1,4.7C576,555.6,575.1,555.5,574.6,555.4z"/>
<path d="M157.7,561.5c0.2-4.1,2.1-8.6,6.7-9.2c-0.3,2.4-0.2,5.3-2.1,7.1C161.2,560.8,159.3,560.9,157.7,561.5z"/>
<path d="M204.6,554.7c2-1.9,4.8-2,7.3-1.2C209.6,554.3,207.1,554.5,204.6,554.7z"/>
<path d="M460.4,554.2c1.5-1.1,2.6,1.8,1.5,2.8C460.3,558.1,459.4,555.2,460.4,554.2z"/>
<path d="M575.2,556.5c2.6,2.2,1.7,5.8,1.4,8.9C576,562.5,575.5,559.5,575.2,556.5z"/>
<path d="M290,562.5c1.3-1.6,3.7-4,5.5-1.5C293.8,561.6,291.9,562.2,290,562.5z"/>
<path d="M373.4,562.2c0.7-4.1,5.1-3.2,8.2-3.7c0.2,3.3-0.9,6.5-3.4,8.8c-0.7-0.3-2.1-0.9-2.7-1.2c0.2-1.3,0.4-2.5,0.6-3.8
	C375.4,562.3,374,562.3,373.4,562.2z"/>
<path d="M431.4,558.4c1.2,1.2,2,2.6,2.5,4.1c-1,0.4-2,0.8-3,1.1C431.1,561.9,431.2,560.2,431.4,558.4z"/>
<path d="M298,565.6c-0.2-3,1.8-5.6,4.9-5.4C301.7,562.4,300,564.2,298,565.6z"/>
<path d="M451.2,561.8c1.4-0.7,2.8-1.2,4.2-1.8c0.3,0.5,0.8,1.4,1,1.9C454.7,562,452.9,562.2,451.2,561.8z"/>
<path d="M275,564.2c-1.2-1.1,0.4-3.6,1.9-2.8C277.9,562.5,276.4,564.9,275,564.2z"/>
<path d="M168,567.7c1.9-2,3.9-3.9,5.9-5.9c0,0.8,0,2.5,0,3.4C171.9,566,169.9,566.9,168,567.7z"/>
<path class="st0" d="M227.4,561.7c0.8,0.9,1.6,1.8,2.3,2.8c-0.7,0.1-2,0.4-2.7,0.5C227.1,564.1,227.3,562.5,227.4,561.7z"/>
<path d="M439.3,563.4c0.9-0.5,1.8-1.1,2.8-1.6c-0.1,1.2,0.5,2.7-0.6,3.6C440.7,564.8,440,564.1,439.3,563.4z"/>
<path d="M174.8,564.6c2.1-0.8,4.3-1.2,6.5-1.3C179.2,564.1,177,564.6,174.8,564.6z"/>
<path d="M198.8,562.8c0.8,2.5-1,4.6-2.5,6.4C196.8,567,197.6,564.8,198.8,562.8z"/>
<path d="M588.8,562.7c0.4,3.6-3.4,5.8-4,9.2c-1.3-0.2-2.5-0.4-3.8-0.6c0.4-2,1.1-4,3.2-4.6l0.1,2.7
	C586.7,567.8,587.6,565.1,588.8,562.7z"/>
<path class="st0" d="M257.9,566.6c0.7-1,1.6-1.4,2.7-1.1c0.4,1.2-0.8,2.6-1.9,2.8C258.5,567.9,258.1,567.1,257.9,566.6z"/>
<path d="M202.9,567.9c1.3-1.6,3.5-1.7,5.3-2.2c0.4,2.7,0.3,5.6-1.8,7.6c-1.2,1.9-3.7,1-5.5,0.8C201.4,572,201.4,569.6,202.9,567.9z"
	/>
<path d="M390.3,566.2c1.5-1.2,3.5-0.5,5.3-0.5c-0.2,2.2-0.4,5.1-2.9,5.9c-1.5,0.9-3.1-0.1-4.6-0.4
	C388.6,569.4,388.6,567.3,390.3,566.2z"/>
<path class="st0" d="M248.7,571c1.5-1.3,2.8-3.1,4.7-3.9c0.4,2.4-1.3,4.1-3,5.6C250.1,572.2,249.2,571.4,248.7,571z"/>
<path d="M289.5,575.2c-0.4-3.2,0.7-6.4,2.5-9C296.1,568.4,294.3,576.1,289.5,575.2z"/>
<path class="st0" d="M246.5,568.4c1.6-1.5,2.5,1.2,1,2C245.9,571.9,245,569.1,246.5,568.4z"/>
<path d="M280.8,570.6c0.9-1,1.9-2,3-3c-1.3,5.8-2.9,11.6-4.6,17.3c-1.2,4.1-3.7,8-7.8,9.6c0.6-8.1,2.5-16.7,8.3-22.7
	c-1-0.6-2-1.2-3-1.8c0.7-0.4,2.2-1.1,2.9-1.5C279.9,569.2,280.3,569.9,280.8,570.6z"/>
<path d="M436.4,575.2c1.5-2.6,3-5.1,4.7-7.6C444.3,570.6,440.4,576.3,436.4,575.2z"/>
<path class="st0" d="M315.7,572.8c-0.8-1,0.1-4.7,1.5-2.9C317.6,571,317.1,572.9,315.7,572.8z"/>
<path d="M448,571.3c2.1-0.8,4.2-1.8,6.3-2.7c-0.1,2-0.4,4-1.1,6C451.9,572.9,450.2,571.6,448,571.3z"/>
<path d="M270.5,573.2c1.1-0.6,2.1-1.1,3.2-1.6c-0.3,1.5,0.5,4.4-1.8,4.8C270.2,576.1,270.8,574.3,270.5,573.2z"/>
<path class="st0" d="M218.4,574.5c2.2-0.8,0.8,2.5,0.4,3.5C217.9,577.2,216.2,574.8,218.4,574.5z"/>
<path d="M362,578.7c1-1.5,2.2-2.8,4-3.2c0,1.2,0.1,2.4,0.1,3.6C364.8,579,363.4,578.9,362,578.7z"/>
<path d="M180.2,578.9c1.2-0.5,2.4-0.4,3.5,0.4c1.1,3.1-1.1,7.3-4.8,6.8C176.9,583.8,178.4,580.7,180.2,578.9z"/>
<path class="st0" d="M338.4,586.3c-1.9-3,2.1-9.4,5.2-5.9c2.7,2,0.7,5.4,0,7.8c-1-0.2-3.1-0.5-4.1-0.7c0.1,1.1,0.2,2.2,0.3,3.3
	c-0.8,0.1-2.3,0.3-3.1,0.4c-0.4-1.1-0.7-2.2-1-3.3C336.7,587.3,337.6,586.8,338.4,586.3z"/>
<path d="M152.2,587.7c2.6-2.1,5.4-3.9,8.4-5.4C159.6,586,155.6,587,152.2,587.7z"/>
<path d="M458.5,584.3c2-0.4,4-0.5,6-0.5C463.6,586.4,459.6,587.4,458.5,584.3z"/>
<path class="st0" d="M234.3,587c-0.4-1.5,1.7-3.4,3.2-2.7C237.9,585.8,235.6,587.3,234.3,587z"/>
<path d="M270,586.1c1.8-1.5,2.4,1.8,0.9,2.5C269.1,590,268.6,586.9,270,586.1z"/>
<path d="M159.1,589.2c1.9-1.9,4.8-2.3,7-0.8C164.4,589.7,159.8,592.8,159.1,589.2z"/>
<path d="M524.6,607.3c0.7-7-2.7-13.9-1.3-20.9C525.9,593,525.8,600.4,524.6,607.3z"/>
<path d="M443.4,589.4c1.6,0.3,3.4,0.2,4.6,1.5c0.1,1.4,0.1,2.7,0.1,4.1c-1.3-0.4-2.7-0.8-4-1.4C443.4,592.4,443.6,590.8,443.4,589.4
	z"/>
<path d="M200.2,591.8c-0.3-1.4,0.2-1.9,1.6-1.5C202,591.7,201.5,592.2,200.2,591.8z"/>
<path class="st0" d="M307.3,591.8c0.4-0.1,1.3-0.3,1.7-0.5c-0.3,0.4-0.9,1.1-1.2,1.5c0.8,1.9,1,3.9,1.4,5.9c-0.7,0.2-2,0.5-2.6,0.7
	C306.9,596.9,307.5,594.4,307.3,591.8z"/>
<path d="M147.6,593.7c0.7,0.1,1.4,0.2,2.1,0.4c-0.4,1-0.8,2.1-1.2,3.1c1.3,0.1,2.6,0.2,3.9,0.3c0,0.5,0,1.5,0,2c-2-0.2-4-0.3-6-0.5
	C146.8,597.2,147,595.4,147.6,593.7z"/>
<path d="M186.9,592.9c1.8-0.7,2.1,2.7,1.5,3.8C186.6,597.3,186,594,186.9,592.9z"/>
<path d="M197.2,594.8c-0.3-1.3,0.2-1.9,1.6-1.5C199.1,594.5,198.6,595.1,197.2,594.8z"/>
<path d="M169.4,598.8c0.1-2.4,2-3.6,4.1-4.3C173.4,597,171.9,598.7,169.4,598.8z"/>
<path d="M354.4,600c1.7-2.5,4.1-4.3,6.9-5.4c1.6,3.7-1.4,6.8-3.3,9.7c-2.5,4.8-3.1,11.1-7.8,14.6c1.5-5.2,4.1-10.1,7.3-14.5
	C356.5,602.9,355.4,601.5,354.4,600z"/>
<path class="st0" d="M335.8,601.9c1-0.6,2-0.9,3.2-1c-0.3,1.5-0.7,3-1.1,4.5C337.1,604.3,335.8,603.4,335.8,601.9z"/>
<path d="M187.5,602.3c0.8,0.5,3.3,0,2.7,1.5c0.2,2-2,2.2-3.3,2.7C187,605.1,187.2,603.7,187.5,602.3z"/>
<path d="M281.8,609.5c-1.1-3.2-0.5-8.4,3.9-7.9c0.3,0.7,1,2.2,1.3,2.9C286.1,607,284.8,609.4,281.8,609.5z"/>
<path d="M389,606c0.5-2.7,2.5-3.7,5.1-2.9c-0.5,1.1-0.9,2.2-1.5,3.2C391.4,606.9,390.1,606.2,389,606z"/>
<path d="M517.8,609.1c0-1.5,0.2-3.1,0.6-4.6c0.7,0.4,2,1.1,2.6,1.5c0.2,0.8,0.3,1.7,0.5,2.5C520.2,608.7,519,608.9,517.8,609.1z"/>
<path d="M243.6,608.3c1,0.3,1.9,0.7,2.9,1c-0.4,0.5-1.3,1.6-1.8,2.1c-0.4-0.2-1-0.6-1.4-0.8C243.4,610.1,243.5,608.9,243.6,608.3z"
	/>
<path d="M376.5,608c1.9,1.1,3.1,2.8,3,5.1C377.5,612.1,376.3,610.4,376.5,608z"/>
<path d="M305.3,609.3c3.6-2.1,1.4,5-0.7,1.7C304.8,610.6,305.2,609.7,305.3,609.3z"/>
<path d="M308.7,612.4c0-1.7,1.8-1.9,3-2.2C310.9,611.3,310.3,614.2,308.7,612.4z"/>
<path d="M254.5,610.6c0.6,0.7,1.9,1.3,1.7,2.4c0.3,1.4-1.7,1-2.4,1.5C254,613.5,254.3,611.6,254.5,610.6z"/>
<path d="M260.7,612.1c0.1-1.7,3-1.7,3.2-0.1C264,613.8,261.1,613.5,260.7,612.1z"/>
<path d="M361.7,622.6c-0.4-3.1,2.3-4.9,4.8-6C366.2,619.3,363.6,620.8,361.7,622.6z"/>
<path d="M376.1,622.8c1-0.3,2.1-0.5,3.1-0.6c-0.4,1.9-1.4,3.6-3.2,4.5C376,625.7,376,623.7,376.1,622.8z"/>
<path d="M247.9,629.3c-0.5-2.9,1.9-6.3,5.1-5.4c2,0.9,0.3,2.8,0.1,4.3C251.4,628.7,249.6,629,247.9,629.3z"/>
<path class="st0" d="M335,631c-0.1-2.8,0.6-6.7,4-7.2c1.1,2.6,1.9,5.3,1.9,8.2C339,632.5,336,633.4,335,631z"/>
<path d="M285,630.1c0.6,3.6-0.9,7.1-2.4,10.3c0.1-2.3,1-4.9-2.1-5.5C281.9,633.3,283.5,631.7,285,630.1z"/>
<path d="M242.1,633.8c1-1.2,2.2-2,3.6-2.6C245.1,633,244.4,634.9,242.1,633.8z"/>
<path d="M250.9,631.7c1.5,0.2,3.1,0.4,4.6,0.7c-0.3,1.2-0.6,2.5-0.9,3.7c-1.1-0.5-2.1-1-3.2-1.6C251.2,633.8,251,632.4,250.9,631.7z
	"/>
<path d="M276.4,633.9c1.4-0.5,2.7-0.9,4.1-1.2c-0.8,1.1-1.7,2.1-2.6,3.1C277.4,635.2,276.9,634.5,276.4,633.9z"/>
<path d="M227.9,640.1c-1.6-2-0.9-4.5,0.9-6.1c0.6,0.6,1.3,1.2,1.9,1.8C229.7,637.2,228.8,638.7,227.9,640.1z"/>
<path d="M243.1,635.5c0.7,0,2.1,0,2.8,0.1c-0.4,1.9-1.6,3-3.4,3.2C242.7,637.6,242.9,636.5,243.1,635.5z"/>
<path class="st0" d="M356.8,639.7c2.8,1.4,5.5,3.3,6.9,6.2C360,646.1,357.5,643.2,356.8,639.7z"/>
<path d="M247.8,642.9c0.9-0.2,1.9-0.4,2.9-0.6c-0.1,0.7-0.2,2.1-0.2,2.8C249.1,644.8,247.8,644.5,247.8,642.9z"/>
<path d="M323.9,641.7c5.7,2.2,7,9,11,13C330.2,651.4,327.2,646.3,323.9,641.7z"/>
<path d="M234.5,648.8c-0.9-2.4-0.2-5.5,2.6-6.1c2.3,0.3,2.4,2.7,1.4,4.3C237.9,648.7,235.8,648.3,234.5,648.8z"/>
<path d="M241.7,646.4c0.5-1.5,0.9-3.2,2.5-4C245,644.5,243.8,645.9,241.7,646.4z"/>
<path d="M275.3,647.7c-0.1-1.9,0.7-3.4,2.6-3.9C278.2,645.8,277.5,647.4,275.3,647.7z"/>
<path d="M280.8,646.8c0.9-1.7,2.4-2.6,4.3-2.5C284.2,645.9,282.7,646.8,280.8,646.8z"/>
<path d="M299.6,648.8c0.1-3,3.2-2.1,5-1.4c1.9-0.3,3.8-0.5,5.7-0.4c-0.2,0.7-0.8,2.1-1,2.8c0.6,0.6,1.1,1.2,1.7,1.9
	c2-1,4.1-1.8,6.2-2.5c-0.3,2.3,0.6,5-1.1,6.9c-1.1,1.5-3.2,1.6-4.8,2.2c-0.6-1.8-1.1-3.5-1.7-5.3c-1.3,2-2.6,2-3.7,0
	c-0.5,1.7-0.9,3.5-1.7,5.1c-1-2.2,0.8-3.9,1.9-5.6c-0.8-1.5-3.4-2.8-1.5-4.8c-0.5,0.2-1.4,0.7-1.9,1l-0.4-1.7
	C301.7,647.5,300.3,648.3,299.6,648.8z"/>
<path d="M379,652.1c2.5-1.7,4.9-3.5,7.5-5C384.3,649.1,381.7,650.7,379,652.1z"/>
<path d="M170,651.7c-0.7-1.1-1.9-2.2-1.2-3.6c0.7-0.1,2.1-0.3,2.9-0.4c-0.1,0.7-0.2,2.2-0.3,2.9C171.1,650.9,170.4,651.4,170,651.7z
	"/>
<path d="M277.3,654c0.8-1.9,1.8-3.6,3.2-5.1C280.2,651,279.4,653.1,277.3,654z"/>
<path d="M241.7,653.5c-1-1.9-0.5-2.9,1.5-3.1c-0.4,2.8-0.7,5.7-0.7,8.6c-1.3,0.6-2.6,1.2-3.9,1.7c0.3-2,0.7-4,1.1-5.9
	C240.3,654.5,241.2,653.8,241.7,653.5z"/>
<path d="M323.8,655.6c0.9-2,2.3-3.7,4.2-5C327.1,652.7,326.2,655,323.8,655.6z"/>
<path d="M231.3,653.7c1.1-0.1,2.1-0.2,3.2-0.3c-0.2,2-0.6,3.9-1.1,5.8C232.1,657.7,231.6,655.7,231.3,653.7z"/>
<path d="M283.5,653.3c0.6,0.6,1.3,1.2,1.9,1.8c-1.6,1.8-2.8,4.5-5.5,4.5c0.3-1.2,0.6-2.4,0.9-3.6c0.9,0.1,2.7,0.3,3.6,0.4
	C284,655.3,283.7,654.3,283.5,653.3z"/>
<path d="M155.8,658c0-1.9,2-2.7,3.4-3.5c0.8,2.5-0.7,4.6-2.3,6.4C156.4,659.9,156,659,155.8,658z"/>
<path d="M162.5,660.3c1.3-0.4,2.5-0.8,3.8-1.2c-0.5,1.2-0.7,2.7-2.1,3.2C163.8,661.8,163,660.8,162.5,660.3z"/>
<path d="M294.7,666.2c0.6-2.5,1.6-4.9,2.5-7.3c0.8,2.1,1.5,4.1,2.3,6.2C298,665.7,296.5,666.7,294.7,666.2z"/>
<path d="M303,666.3c2.3-2.3,3.3-5.8,6-7.6C307.9,661.8,305.3,664,303,666.3z"/>
<path d="M242.5,659.7c1.2,1,3.8,2.3,2.6,4.3c-1.2,2.9-3.9,6.8-7.6,5.8C235.8,665.6,238.9,661.5,242.5,659.7z"/>
<path d="M226.8,665.2c-0.2-1.8,0.6-3.4,2.6-3.7C228.6,662.7,228.9,665.3,226.8,665.2z"/>
<path class="st12" d="M343.9,662.2c0.6,0,1.8,0,2.4,0c-0.3,1.2-1.1,1.4-2.4,0.6L343.9,662.2z"/>
<path class="st0" d="M368.7,663.4c1-0.3,2.1-0.7,3.2-1c0.8,0.6,1.6,1.3,2.3,2c-0.5,0.5-1.6,1.4-2.1,1.8
	C370.9,665.2,369.8,664.3,368.7,663.4z"/>
<path d="M327.7,666.8c0.8-2.2,3.1-2.5,5.1-2.5C331.3,665.4,329.6,666.2,327.7,666.8z"/>
<path class="st0" d="M361.4,665.3c0.8,0.3,1.5,0.6,2.3,0.9c-0.7,0.9-1.4,1.9-2.1,2.8C361.5,667.8,361.4,666.5,361.4,665.3z"/>
<path d="M132.7,668.2c-0.6-2.1,1-2.5,2.9-2.4C135,667.3,134.7,669.5,132.7,668.2z"/>
<path d="M141.4,667.3c0.8-1.5,3.8-0.4,2.3,1.2C142.9,670.1,140.1,669,141.4,667.3z"/>
<path d="M313,667.9c1.1-0.2,2.2-0.3,3.3-0.4c-0.1,1.4-0.2,2.8-0.2,4.2c-1.3-0.1-2.5-0.2-3.8-0.3C312.5,670.2,312.7,669.1,313,667.9z
	"/>
<path d="M295.3,670.1c2.4,1,4.5,2.8,5.1,5.4C298.2,674.2,295.9,672.7,295.3,670.1z"/>
<path d="M222,671c1,3-0.4,6-3.3,7.2c-0.4-0.3-1.3-1-1.8-1.3C218.4,674.8,220.2,672.9,222,671z"/>
<path d="M141.2,674.4c3.3-2.1,2.8,4.4-0.2,2.3C141,676,139.8,674.5,141.2,674.4z"/>
<path class="st0" d="M359.2,674.4c1.4-0.1,1.7,2.4,0.2,2.3C358,676.8,357.7,674.4,359.2,674.4z"/>
<path d="M225.5,678.4c0.3-2,1.2-4,3.7-3.4C228.5,676.7,227.4,678.1,225.5,678.4z"/>
<path d="M147.1,677.6c1,0,1.9,0.1,2.9,0.2c-0.2,1.5-0.4,2.9-0.6,4.4C148.7,680.7,147.9,679.2,147.1,677.6z"/>
<path d="M108.9,681.8c1.1-0.2,3.7-1.8,3.5,0.4c0.3,2.2-1.9,2.8-3.6,3.2C108.9,684.5,108.9,682.7,108.9,681.8z"/>
<path d="M132.3,683.4c1.8-0.1,3.5,0.3,5.2,0.6c0,2.1-1,4.4-3.4,4.2C131.4,688.9,129.7,684.5,132.3,683.4z"/>
<path d="M125.5,684c0.7,0.8,1.4,1.6,2.1,2.4c-1.2,0.4-2.3,0.9-3.5,1.3C124.6,686.4,125.1,685.2,125.5,684z"/>
<path d="M290.5,691.4c3.1-1.4,2.6-5.4,4.4-8c0,2.8-0.8,5.6-2.8,7.6c0.2,2.1,0.4,4.2,0.5,6.4C291.3,695.6,290.5,693.6,290.5,691.4z"
	/>
<path d="M236.4,691.2c-0.1-3,2.3-4.6,4.8-5.6c0.8,1.1,2.4,1.9,2.1,3.5C241.4,690.8,238.7,690.7,236.4,691.2z"/>
<path d="M122.7,692.5c0.4-1.7,1.5-2.7,3.2-2.9c0.3,1,0.5,2,0.8,3C125.3,692.6,124,692.5,122.7,692.5z"/>
<path d="M255.9,689.8c1.1,0,2.3-0.1,3.4,0c-0.7,1-1.5,2.1-2.2,3.1C256.8,691.8,256.4,690.8,255.9,689.8z"/>
<path d="M131.9,689.8c1,1.3,1.9,2.6,3,3.8c-0.1,0.6-0.3,1.8-0.4,2.4c-0.9-0.6-1.8-1.2-2.7-1.8C131.8,692.7,131.9,691.3,131.9,689.8z
	"/>
<path d="M264.2,693c1-1.1,2.3-1.9,3.6-2.6c0.1,0.6,0.2,1.9,0.3,2.5c1.4,0.2,2.8,0.4,4.2,0.6c0,3.4-2.8,6.5-6.3,5.5
	c-1.8-0.8-0.5-2.7-0.3-4.1C265.3,694.4,264.6,693.4,264.2,693z"/>
<path d="M309.4,699.3c0.7-2.7,1.5-5.3,2.9-7.8c-1,2.9-1.2,6-1.4,9C310.4,700.2,309.9,699.8,309.4,699.3z"/>
<path d="M111.8,696.8c0.4-2.1,2.7-5.8,4.9-3.2c1.6,2.3-0.2,4.5-2.8,4.9C113.4,698.1,112.3,697.2,111.8,696.8z"/>
<path d="M242.8,699.3c-0.6-2.6,1.1-5.8,4-4.4C246.8,697.4,245.4,699.2,242.8,699.3z"/>
<path d="M194.6,696.3c1.4-2.1,5.7-1.2,5,1.6c0.3,2.9-2.7,3.7-4.9,3.9C193.9,700.1,193.1,698,194.6,696.3z"/>
<path d="M116.7,703.5c2.1-2.9,4.8-5.3,8.3-6.4c-1.5,1-3,1.9-4.5,2.9c-1.6,3.5-3.5,6.8-4.2,10.6c-1.1-0.1-3.3-0.3-4.4-0.4
	c1.2-2.7,3.4-4.6,6.1-5.7L116.7,703.5z"/>
<path d="M251.9,699.5c0.7,0.4,3-0.3,2.1,1.3c0.3,1.5-1.6,1.5-2.5,2.2C251.7,701.8,251.8,700.7,251.9,699.5z"/>
<path d="M108.2,699.5c2.5,1.7,1.9,6-1.4,6.2C107,703.6,107.4,701.5,108.2,699.5z"/>
<path d="M185.6,704.6c1,0.2,2.1,0.5,3.1,0.7c-0.9,1.1-1.8,2.2-2.9,3.2C184,707.7,185.2,706,185.6,704.6z"/>
<path d="M218,708.5c2.1-1.7,4.2-3.5,6.4-5.1c-0.2,3.1-2.9,4.5-5.1,6.1C218.9,709.3,218.3,708.8,218,708.5z"/>
<path d="M312.3,712.1c0.3-3.1,1.4-6.2,3.8-8.3C316.3,707.1,314.2,709.7,312.3,712.1z"/>
<path d="M102.4,705.8c2,0.5-1.6,3.8-2.8,1.9C98.8,706,101.5,706.3,102.4,705.8z"/>
<path d="M242.8,707.4c0.8-0.6,1.6-1.3,2.4-1.9c0,1.2-0.1,2.4-0.1,3.6c-0.8,0.5-1.6,1-2.4,1.5c-0.1,3.3-0.5,6.7-1.2,9.9
	c-7.1,1.7-9.5,9.9-16.1,12.5c1.9-4.9,6.7-7.6,10.7-10.6c-0.4-0.9-1.1-2.6-1.4-3.5C237.9,715.4,243.3,712.7,242.8,707.4z"/>
<path d="M275.4,706.4c1.8-1.1,4.3-1.1,6.2-0.1c1.6,2.5-0.7,6-3.6,5.1C275.5,711.9,273.9,708.2,275.4,706.4z"/>
<path d="M157.4,715.2c1.8-3.1,3.5-6.4,6.5-8.5C162.2,709.8,159.9,712.6,157.4,715.2z"/>
<path d="M224.6,710.2c-0.3-1.4,2.2-2.6,2.7-1C227.6,710.5,225.1,711.9,224.6,710.2z"/>
<path d="M87.8,712.1c2.1-0.4,4.1-0.9,6.2-1.4c-1.1,2.9-3.8,4.4-6.8,4.8C87.4,714.6,87.7,712.9,87.8,712.1z"/>
<path d="M81.4,712.5c1.9-1.9,5.9-0.5,5.2,2.5c-0.7,2.9-4.7,5.4-7.4,4C76.1,717.4,79.4,713.6,81.4,712.5z"/>
<path d="M110.6,712.6c2.1-1.6,4.8-1,6.8,0.6c-0.4,1.5-0.6,3.3-1.6,4.6c-2.1,2.1-5.3,1.3-7.9,1.4C108,716.7,108,713.7,110.6,712.6z"
	/>
<path d="M203.6,711.8c2.7-0.1-1.4,3.9-2.6,3.9C200.5,714.1,202.4,712.6,203.6,711.8z"/>
<path d="M95.5,719.5c-0.5-1.6,0.9-2.6,1.9-3.6C97,717.2,98.2,720,95.5,719.5z"/>
<path d="M149.3,716.1c0.6,0,1.9,0,2.5,0c-0.2,0.5-0.5,1.5-0.7,2.1c-0.4,0.2-1.3,0.6-1.8,0.8C149.4,718.2,149.3,716.8,149.3,716.1z"
	/>
<path d="M210.6,720.2c2.1-2.1,4.5-3.9,7.4-4.5C216,718,213.3,719.3,210.6,720.2z"/>
<path d="M155.3,721.9c-0.4-1.6-0.7-3.2-1-4.7c1.5,0.9,3,1.8,4.4,2.8C157.6,720.7,156.5,721.3,155.3,721.9z"/>
<path d="M148.8,727.1c0.1-2.6,1-5.9,4.3-4.8c-0.8,0.8-1.7,1.5-2.6,2.2C150,725.4,149.4,726.2,148.8,727.1z"/>
<path d="M207.5,724.7c1.1-0.8,2.3-1.5,3.5-2.2c1.9,0.3,3.8,0.1,5.7,0c-0.4,2.9-4.2,4.3-5.8,1.5C209.7,724.3,208.6,724.5,207.5,724.7
	z"/>
<path d="M251.8,735.8c1.3,3.6,1.5,7.4,1.5,11.2C251.9,743.4,250.9,739.6,251.8,735.8z"/>
<path d="M162.3,742.8c0.5-1.2,1-2.4,1.6-3.7c0.7,1,1.3,2,1.9,3C164.6,742.3,163.5,742.6,162.3,742.8z"/>
<path d="M178.4,744.6c2.3-1.2,4.5-2.5,6.8-3.7c0,1.2,0,2.5,0,3.7C182.8,744.4,180.6,744.4,178.4,744.6z"/>
<path d="M167.6,748.8c2.2-1.9,3.5-4.7,6.5-5.4c-0.8,2.2-2,4.3-4.1,5.5C169.2,748.8,168.4,748.8,167.6,748.8z"/>
<path d="M103.4,747.9c-0.4-1.6-0.8-3.9,1.4-4.1c1.9-0.8,2.9,1.7,1.9,3C105.8,747.3,104.6,747.6,103.4,747.9z"/>
</svg>
