<?xml version="1.0" encoding="utf-8"?>
<!-- Generator: Adobe Illustrator 21.1.0, SVG Export Plug-In . SVG Version: 6.00 Build 0)  -->
<svg version="1.1" id="Layer_1" xmlns="http://www.w3.org/2000/svg" xmlns:xlink="http://www.w3.org/1999/xlink" x="0px" y="0px"
	 viewBox="0 0 825 825" style="enable-background:new 0 0 825 825;" xml:space="preserve">
<style type="text/css">
	.st0{fill:#FFFFFF;}
</style>
<path d="M326.3,78.8c9,27.1,30.9,47.3,53.6,63.3c22.6,15,45.8,29.6,65.4,48.5c5.4,5.1,10.2,10.8,14.3,16.9
	c-6.6,0.9-13.1,2.6-19.4,4.5c-6.2-10.3-15.4-18.2-24.3-26c-12.9-10.9-26.4-21-40.2-30.8c-11.8-8.3-22.8-18-31.4-29.6
	C334.1,112.1,327.6,95.7,326.3,78.8z"/>
<path d="M322.1,106.6c7.5,24.2,27,42.1,47.3,55.9c17.1,11,34.4,21.9,50.3,34.7c5.9,4.9,11.8,9.9,16.4,16c-3.5,4.2-7.1,8.5-12.1,11.1
	c-5-7.6-11.8-13.8-18.6-19.7c-13.7-11.5-28.5-21.7-43.3-31.8c-15.3-10.6-28.9-24.9-35.4-42.6C323.8,122.7,322.5,114.7,322.1,106.6z"
	/>
<path d="M147.7,107.3c5.2,2.4,9.2,6.7,13.5,10.5c23.3,21.2,50.9,37.7,80.5,48.5c27.4,9.8,56.1,15.5,83.8,24.4
	c14.9,4.8,30.4,9.3,42.9,19c16.6,12.4,27.4,30.9,33.9,50.2c5.4,15.6,7.5,32,10.7,48.2c2.8,14.4,5.3,28.8,8.8,43
	c3.9,12.6,10.7,24.8,21.3,32.8c6.4,4.7,13.9,7.5,21.7,8.6c-0.1-6.4-1.5-12.6-2.7-18.8c-4.9-23.5-11.9-46.6-13.6-70.7
	c-1.1-11.9-1.2-24,0-35.9c1.1-14.1,4.3-28.8,13.2-40.3c4-5.3,9.6-9.1,15.6-12c-1.7-2.6-4-4.7-5.9-7.1c1.9-0.8,3.6-2.2,5.5-3
	c5.8-0.2,11.6,0.5,17.5-0.1c-5.7-4.8-13.7-5-20.6-6.7c10.8-3.3,22.8-2.5,33,2.3c3.7,1.6,6,5.2,6.7,9.1c23.2,9.8,41.5,27.7,62.5,41.2
	c-0.6,5.4-0.3,11-2.3,16.1c-1.9,4.5-7,6.9-11.7,6.6c-8.1-0.2-14.1-7.2-22.1-7.8c-8.9-0.3-17.9,0-26.8-0.8
	c5.1,17.1,14.6,33.4,29.2,44.1c7.1,5.5,16,8.2,22.7,14.2c7.2,5.9,12.2,14.7,12.8,24.1c11-6.9,20.9-15.5,32.3-21.8
	c5.8,2.9,12.3,4.3,17.8,7.8c1.6,10.8,3.1,21.7,7.1,31.9c2.5,7.6,5.7,15.1,7.4,22.9c-6.5,13-13,26.2-20.7,38.6
	c-1.1,2.7-4.4,2.2-6.4,3.7c-6.9,4.3-9,13.5-16.7,16.8c-4.1-5.7-8.3-11.9-8.6-19.1c0.1-3.3,1-7.3,4.4-8.8c4.2-1.8,8.8-2.4,13-4
	c-2.1-1.3-4.6-1.4-6.9-1.8c7.3-7.3,8.3-18.4,6.9-28.1c-0.8-5.2-4.1-10-9-12.1c-5.6,5.6-12.3,9.9-19.1,13.9c-1.6,1-3.6,1.8-4,3.9
	c-14.8,44-43.5,81.8-76,114.3c-1.4,10.8,6.5,19.9,6.4,30.6c0,14.3-4.6,28.2-10.3,41.3c-8,17.7-18.7,34.1-30.3,49.7
	c-1.6,2.4-4.1,4.5-4.1,7.6c-2.4,22.3,1.3,45.6,12.3,65.4c8.6,15.1,18,29.7,25.9,45.1c-7.9-0.2-16,2.5-23.6-0.4
	c-2.5-0.8-3.5-3.4-4.4-5.6c-5.5,0.1-11,0.2-16.3-0.9c0.9-8.2-3.3-16-9.1-21.5c2.3-7.7,2.8-15.9,1.4-23.8c-1.4-9.5-5.7-18.2-8.7-27.2
	c-2.6-7.6-5-15.5-5.6-23.6c1.8-1.1,3.4-2.6,3.5-4.9c2.2-12.6,1.8-25.5,1.7-38.2c-5.1-10.4-9-21.4-13.5-32c-2,14.9-3.3,29.9-4.9,44.8
	c-1.5,17.6-3.8,35.3-2.3,53.1c1,19.6,5.1,40.1,17.7,55.7c-15.7-7.6-28.5-20.7-36.1-36.4c-8.8-17.3-11.5-36.8-13-55.9
	c-5,11.3-3.4,24.1-0.8,35.8c1.2,5.2,3.3,10.1,5.8,14.8c-6-2.5-10.2-7.9-13.2-13.5c-6.5-12.4-10.2-26.8-7.9-40.8
	c3.8-29,17.9-55.1,24.9-83.2c2.1-8.4,2.7-17.2,0.2-25.6c1.2-5.9,2-12,0-17.8c0.9,0.4,2.8,1.2,3.7,1.6c4.1-16.5,14-30.9,25-43.5
	c14.1-15.6,29.6-30.6,38.8-49.8c-10.9,0.6-22.2-1.7-31.1-8.3c-10.5-7.8-17.5-19.6-21.3-31.9c-5.3-17.5-8.9-35.5-12.6-53.4
	c-4.2-21.8-9.1-44-20.4-63.4c-4.6-8.1-11.1-15.1-19-20.1c-14.5-9.4-30.7-15.5-47-20.9c-23.5-7.3-47.1-13.8-70.4-21.6
	c-23-9.2-45-21.9-63.1-39C165.1,136.2,154.6,122.6,147.7,107.3z"/>
<path d="M313.7,141.2c12,18.1,30.4,30.4,48.7,41.4c17.7,10.1,35.7,20.3,49.9,35.1c3.4,3.4,6.2,7.4,8.8,11.4
	c-3.2,7.6-8.6,14.2-11.1,22.2c-3.9-9.2-7.8-18.5-13.2-27c-2.4-3.5-4.9-7.2-8.5-9.5c-11.2-7.8-22.5-15.5-33.8-23.2
	c-8.1-5.5-16.4-10.7-23.3-17.8C322.3,165,315.7,153.7,313.7,141.2z"/>
<path d="M155.1,153.9c15,19.8,37.3,32.4,59.9,42c20.6,8.9,42.5,14.4,63.9,20.9c12.2,3.7,24.4,7.4,36.5,11.6
	c12.3,4.1,23.9,10.1,34.5,17.6c10.4,7.4,19.6,16.8,25.4,28.3c-13.7-12.6-30.9-20.8-48.6-26.2c-20.5-6.4-41.8-9.4-62.7-14
	c-19.3-4.3-38.6-9.5-55.9-19.3c-20.6-11.3-37.8-28.8-48.1-49.9C158.3,161.4,156.7,157.6,155.1,153.9z"/>
<path d="M437.6,227.6c8.4-9,20.6-14.2,32.9-14.2c-2,4.1-7.1,4.8-9.9,8.2c-11.9,12.5-16.4,30-18,46.7c-1.8,23.2,0.4,46.5,5.1,69.2
	c2.3,10.5,5.2,20.8,9.1,30.8c1.4,3.6,3.1,7.1,4.1,10.8c-5-1.7-7.8-6.4-10.5-10.6c-8.6-14.6-12.9-31.2-16.5-47.7
	c-2.4-11.1-3.7-22.3-5.6-33.5c-1.2,8.6-1.8,17.3-2.9,25.9c-0.1,1.4-0.4,2.9,0,4.3c4.1,14.6,8.4,29.2,12.5,43.9
	c-12.6-14.8-19-34.2-20.3-53.4c-0.9-14.9,0.1-29.9,3.1-44.5C423.6,250.6,428.4,237.5,437.6,227.6z"/>
<path d="M185.9,229.7c5.4,3.8,10.6,8,16.8,10.5c15.9,6.6,32.8,10.4,49.5,14.4c28.1,6.7,57.3,9.8,84.1,21
	c12.8,5.3,25.7,12.5,33.6,24.2c-10.7-4.5-22-7-33.3-9.4c-18.1-3.6-36.3-6.3-54.6-8.9c-15.6-1.9-31.1-4.7-46.1-9.5
	c-9.8-3.2-19.4-7.2-27.9-13.2c-4-2.9-8-6-10.6-10.3C193.6,242.3,189.8,236,185.9,229.7z"/>
<path d="M220.7,295.4c12,6.6,25.8,8.6,39.2,10.4c27.1,3.8,54.9,2.2,81.7,8.5c11,2.7,22.8,6.1,30.6,14.8c-22.4-1.7-44.9-0.7-67.3-1
	c-16.3,0.3-32.8-0.3-48.5-4.6c-7.5-2.1-14.9-5.1-20.9-10.1C229.7,308.2,225,301.9,220.7,295.4z"/>
<path d="M254.1,345.6c10.1,4.2,21.2,5,32,5.6c25.5,2,51.2-3,76.5,1.5c8.6,1.5,17.5,4.3,23.6,11c-14.8-0.2-29.5,1.1-44.2,2.6
	c-19.7,1.6-39.9,4.2-59.4-0.5C271,363,259.8,356.3,254.1,345.6z"/>
<path class="st0" d="M622.4,398.4c-1-9.3-1.5-18.7-1.9-28.1c4.2,5,5.2,12.2,3.4,18.4c0.8,0.7,1.7,1.5,2.5,2.2
	C625.2,393.5,624,396.1,622.4,398.4z"/>
<path d="M355.3,387.4c11.3-2.9,23-4.7,34.7-3.6c7.3,0.7,14.4,3.2,20.2,7.6c-21.2,3.8-42.2,8.5-63.3,12.8c-12.1,2-25.2,2.6-36.8-2.3
	c-5.3-2.2-10-5.7-13.8-10c5.7,1.8,11.7,2.8,17.6,2.6C328,394.1,341.8,390.9,355.3,387.4z"/>
<path d="M391.3,412.3c13.8-5.9,29.5-8.9,44.3-5c-10.1,4.7-20.6,8.4-30.9,12.5c-12.2,4.5-24.4,10.5-37.7,10.8
	c-9.1,0.4-18.3-1.6-26.3-5.9C358.4,426,375.4,419.2,391.3,412.3z"/>
</svg>
