<?xml version="1.0" encoding="utf-8"?>
<!-- Generator: Adobe Illustrator 21.1.0, SVG Export Plug-In . SVG Version: 6.00 Build 0)  -->
<svg version="1.1" id="Layer_1" xmlns="http://www.w3.org/2000/svg" xmlns:xlink="http://www.w3.org/1999/xlink" x="0px" y="0px"
	 viewBox="0 0 825 825" style="enable-background:new 0 0 825 825;" xml:space="preserve">
<style type="text/css">
	.st0{fill:#FFFFFF;}
	.st1{fill:#444444;}
</style>
<path d="M439.2,64c-2.8,36.3,3,73.7,19.6,106.2c14.9,29.4,37.8,54.2,64,74c4.5,3.3,8.8,7.2,14.2,9c0.1-1,0.3-3,0.4-4
	c-0.6,0.1-1.9,0.3-2.6,0.4c0.3-1.2,0.7-2.4,0.5-3.6c-0.9-10.6-2-21.4-6.3-31.1c-1.8-4-4.5-7.5-7.8-10.3c5.1,12.1,9.5,24.9,8.4,38.2
	c-3.9-8.4-9.8-15.5-15.5-22.7c-9.9-12.5-21.8-23.5-29.6-37.6c-5.3-9.2-9-19.8-7.6-30.5c0.6-5,2.6-9.7,5.2-14.1
	c1.1,8.6,4.7,16.7,8.9,24.2c5.3,9.3,11.6,18.1,18.4,26.4c1.2,1.4,2,3.2,2.8,4.8c11.8,1.1,23.2,6.5,31,15.5
	c9.1,10.5,15.7,24,15.5,38.1c-0.2,15.2-7.7,29.6-18.6,40c-12.7,11.9-28.3,20.1-44.2,26.8c-10.5,4.3-21.2,8.1-32.1,11.2
	c15.2-2.7,29.9-8,43.9-14.5c15.6-7.4,30-17.5,41.5-30.5c1.9-0.2,3.7-0.4,5.6-0.7c-1-1-2-2.1-3-3.1c4.4-5,6.6-11.3,8.5-17.5
	c1.1,3.5,1.2,7.3,1.3,11c6.3-5.9,9.7-14.3,16.3-19.9c5.1-4.7,12.1-6.2,18.8-6.5c-4.7,1.1-9.3,3-12.5,6.8c-6.1,7-6.4,17.6-3.2,26
	c2.5,6.6,9.7,9.6,16.3,9.9c-13.4-3.6-20.1-21.7-11.9-33c7.5-2.1,15.3-4.8,20.4-11c-2.3,9.1-5.6,17.9-10.9,25.7
	c17.1-3.7,34.2-9.8,47.9-20.9c5.8-4.6,10.6-10.3,14.8-16.4c-1.7,18.3-16,31.9-30.3,41.7c-0.6-3.5-1.3-6.9-2.2-10.3
	c-0.8,8.4-1.3,17.3-5.8,24.7c-3.6,6.7-10.4,11-17.8,12.5c12.4,8.2,20.7,22.2,21.7,37.1c1.2,10.4-2.6,20.5-7.1,29.7
	c-2.4,5-5.1,9.9-8.1,14.6c1.3-0.7,2.7-1.3,4-2c0.5,12.7,0.1,25.5,0.7,38.2c0.5,8.4,2.3,16.9,6.6,24.2c6.5,9.4,9.6,20.8,10.2,32.1
	c0.4,7.4-0.9,14.9-3.9,21.8c-3.9-8.5-6.3-17.5-9.7-26.2c-3.5,0.2-7,0.8-10.5,1.6c5.5,7.3,11.3,14.5,15.9,22.5
	c3,4.5,0.6,10.1-1.3,14.5c-5.7,10.5-15.3,19.4-27.1,22.3c-0.2-7.9-0.7-16.1-4.2-23.4c-1.7-3.7-4.9-6.4-8.8-7.6
	c-1.4,10.6-0.4,21.3-1.1,32c-12.9-5.9-25.4-14.8-31.2-28.2c-5.2-11-3.5-23.5-2.5-35.2c0-1.9,0.8-4-0.5-5.6c-2.5-3.6-7-4.7-10.9-6.1
	c-8.5-32.9-29-61.9-55.5-82.9c-8.6-6.9-17.8-13.2-27.4-18.7c-0.1-0.6-0.4-1.7-0.5-2.3c-1.3,0.2-2.6,0.4-3.8,0.6
	c15.3,10.4,30.3,21.6,43.6,34.5c11.3,10.9,21,23.6,28.2,37.6c8.6,16.8,13.4,35.5,15,54.3c-2.7-8-5.1-16.1-8-24
	c-11.7-1.5-23.6-5.5-32.1-13.9c-6.3-6.2-10.2-14.5-12.4-23c-3.2,14.1,0.8,28.7,7.1,41.4c6.6,13.9,16.6,25.8,26.2,37.7
	c8.5,10.3,17.2,20.3,25.6,30.6c8.8,10.5,17.3,21.8,21.7,34.9c1.8,5.3,2.3,10.9,2,16.5c-5.4-1.1-10.9-1.6-16.4-0.9
	c-21,2.4-40.8,10.3-60.2,18.4c-21.9,9.8-43.8,20-67.1,26c-14.4,3.7-30,5.6-44.3,0.5c-12.9-4.5-23.2-14.9-28.8-27.2
	c-8.4-18.2-13.1-37.7-18.5-56.8c-5.1-17.6-10.9-35.1-19.5-51.3c-3.7-6.5-7.8-13-13.8-17.5c-0.4-15.6,1.8-31.1,4.2-46.5
	c0.5-5.4,4.6-9.2,8-13c14.6-14.1,30.6-27,48.9-36.1c11.7-5.9,24.3-10.3,37.1-12.9c-20.4,2.9-39.9,10.8-57.1,21.9
	c-18.9,12.3-34.9,28.7-47.8,47.1c-7.6,11.1-14.9,22.6-19.7,35.2c-6.4,18.5-8,38.1-14.3,56.6c-3.9,11.7-9.1,23-16.4,33
	c-10.3,13.8-20.9,27.2-30.4,41.6c-10.8,18.8-13.9,41.2-12.1,62.5c-7.1-15.2-9.4-32.4-6.8-48.9c4.1-26.1,15.9-51.1,34.2-70.2
	c-14.3,2.7-28.5,8.5-38.5,19.4c-9.3,10-13.9,23.4-15.5,36.8c-0.8-11.5,0-23.3,4.2-34.2c5.6-15.3,17.1-27.2,28.2-38.7
	c13.1-12.9,27.6-25.4,35.6-42.4c7.3-15.4,7.4-33,4.5-49.5c9.6-2.7,18.4-7.7,26.4-13.7c8.9-6.8,16.4-15,24.3-22.8
	c6.2-6.1,12.2-12.5,18.3-18.8c-11.8,16.2-21.5,34-28.7,52.7c4.1-4.8,7.4-10.1,11.1-15.2c4.2-5.7,10-10.1,13.6-16.3
	c2.8-4.7,3.3-10.3,5.3-15.4c8.2-21.1,19.4-41.1,33.7-58.7c15.1-18.9,34.2-34.9,56.4-44.7c18.2-8.4,38.1-12.4,58-14.3
	c-3.1-2.3-7-2.4-10.7-1.9c-42.3,5.6-80.7,29.2-108.7,60.9c-8.7,10.3-15.2,22.1-22.6,33.3c-20.6,30.5-48.2,56.3-80.1,74.8
	c-10.5,6.3-20.8,12.9-29.9,21.1c-6.5,6.1-13,12.8-15.6,21.5c-1.5,5.6-2.8,11.3-4,17c-2,8.2-6.2,15.6-10.3,22.8
	c-7.3,12.4-15.5,24.2-24,35.8c-10.6,14.6-19.3,31.5-19.5,49.9c-2.7-11.9-0.1-24.1,3.9-35.3c7.2-20,18.9-38,28-57.1
	c2.3-4.9,4.2-10.1,4.5-15.6c-7.8,8.9-19,13.4-29.9,17.3c-7.4,2.5-14.9,4.9-22.5,6.6c11.1-8.2,21.8-16.8,31.8-26.3
	c8.6-8.6,14.2-19.7,23.1-28c7.8-8,15.6-16,22.8-24.5c-12.6-0.1-24.9,4.8-34.4,12.9c-6.3,5.5-12.5,11.1-18.8,16.7
	c3-17.3,11.6-33.8,24.8-45.4c9.3-8.3,20.2-14.7,31.7-19.5c16.5-7.1,32.9-14.5,48.6-23.4c9.8-5.9,20-11.9,27.2-21
	c-24.6,16.5-53.6,24.8-82.2,31.1c26.4-13.8,51.7-30.2,73.4-50.7c3.1-3,6.3-6,9-9.3c-3.1,2-5.7,4.6-8.7,6.8
	c-10.3,7.6-22.1,13.1-34.4,16.8c-15.5,4.6-31,9.1-46.3,14.4c-16.6,5.8-31.5,18.9-35.8,36.5c0.7-16.6,10.3-32,23.6-41.6
	c14-9.9,29.9-16.5,45.2-24c15.7-8.1,31.3-16.6,45.3-27.5c7.5-5.9,14.7-12.4,20.2-20.3c-14.1,5.3-27.1,13.1-41.3,18.2
	c-14.4,5.7-30.1,8.2-45.6,6.8c31.4-9.2,55.3-33.8,86-44.5c43.3-15.9,90.6-15.7,135.8-10.2c-0.8-3.8-3.1-7.3-6.8-9
	c-7.7-3.5-16.4-3.4-24.6-2.6c-24.4,2.1-48.4,8.5-73,8.4c-7.4-0.4-15.3-1.2-21.5-5.7c-5.6-3.9-7.7-11.7-5.8-18.1
	c1.5-5.6,5.8-10.1,10.6-13.1c7-3.9,14.6-6.7,22-9.9c-7.3,4.1-12.8,11-15.9,18.7c-1.3,2.9-1.2,6.9,1.6,9c3.5,2.3,7.9,2.9,12,2.6
	c15.8-1.1,31.5-2.8,47.2-4.9c-5.7-3.8-11.6-7.5-16.1-12.7c-3.2-3.3-3.1-8.5-1.7-12.6c2.6-7.4,8.2-13.1,13.4-18.7
	c-1.1,6.1-3,12-3.6,18.1c2.2,5.7,8.9,7.4,14.4,8.4c10.1,1.4,20.3,0.5,30.4,0.1c8.4-0.8,16.8-0.5,25.2-0.5c-1.4-3.2-3-6.3-4.3-9.5
	c-8.5-2-17.3-4.5-23.9-10.4c-3.5-3.1-5.4-7.4-6.4-11.9c6.7,7.2,16.6,9.6,26,10.7c-0.9-5.7-3.6-11-4-16.8c-12-2.1-24.4-4.5-34.5-11.6
	c-3.5-2.3-5.9-5.9-7.8-9.5c10.8,9.4,26.1,9.1,39.6,9.5c-3.2-21.7-2.4-44,2.8-65.4c-1.2,24.5,0.7,49.4,7.6,73
	c7.2,25.3,20,48.8,36.9,68.9c15.5,18.3,33.8,34.2,54.1,47c-3.5-4-8-6.7-12.1-9.9c-6.4-4.8-12.4-10.2-17.6-16.4
	c2.6,0.2,5.2,0.4,7.8,0.7c-2.4-4.5-7.8-3.7-12-4.5c-2.8-1.8-5-4.5-7.3-6.8c-10.1-11.4-19.5-23.4-27.3-36.5c1.8,0.1,3.5,0.3,5.3,0.4
	c-1.2-2.2-2-4.5-3.3-6.6c-1.6-1.9-4.4-2.1-6.7-2c-2-3.9-3.9-7.9-6-11.8c0.8-1.6,2.5-3.2,1.5-5.2c-1-4.1-4.2-7-7.2-9.7
	c-1.6-4.4-2.7-8.9-3.9-13.4c1.6,0.3,3.2,0.7,4.8,1.2c-8.4-28.2-9.3-58.7-1.4-87.2c-0.8,19.2-0.3,38.7,3.5,57.6
	c5.3,27.9,17.1,54.7,34.7,77.1c17,21.9,38.1,40.3,60.3,56.7c1.2-1.7,2.4-3.3,3.6-5c-8.3-2.8-15.3-8.1-22-13.5
	c-7.5-6.1-14.7-12.6-21.6-19.4c1-4.7-2-8.8-4.6-12.3c-4.3-5.5-9.4-11.5-16.7-12.5c-5.3-9.3-10.9-18.4-15.6-27.9
	c3.2,3.1,6,6.6,8.9,10c-2.4-5-5.4-9.7-7.7-14.7c-13.9-28.1-20.2-60.2-16.1-91.3C435.4,79.9,437.1,71.9,439.2,64z"/>
<path d="M482.3,200c8.6,3,16,8.8,21.9,15.7c6.9,8.4,12.8,17.6,19.8,25.9C507.7,230.4,494.8,215.2,482.3,200z"/>
<path d="M631,296.8c11.8,0.2,24.9-2.1,33.3-11.1c-0.6,8.4-7.4,14.3-13.9,18.6c-7.6,5.1-16.8,6.5-25.5,8.5c-2.2,0.3-4.6,1.1-6.7,0
	c-5.4-3.7-7-11.1-13.3-13.8C613.1,295.1,622.3,297.2,631,296.8z"/>
<path class="st0" d="M534.1,343.9c4.3-15,18.9-25.9,34.3-26.9c-10.1,2.4-20.1,7.2-26.2,15.9c-6.2,8.6-7.4,19.8-6.1,30
	c1.1,6.8,4,13.3,8.6,18.4c2.8,3.4,6.6,5.8,9.9,8.7c-10.2-2.5-16.5-11.9-20-21.2C531.4,361,531.9,352.1,534.1,343.9z"/>
<path d="M621.8,319.6c14.2,2.1,23.5,14.5,30.5,26c-7.8-3.9-16.7-7.5-25.6-5.3C626.5,333.2,624.4,326.3,621.8,319.6z"/>
<path class="st1" d="M275.2,327.8c-0.4-1.4,0.1-1.9,1.5-1.5C277.1,327.6,276.6,328.1,275.2,327.8z"/>
<path class="st0" d="M489.4,340.8c9.5-5,19.3-9.5,29.3-13.4c-7.8,5.8-17.2,8.7-25.9,13c10.3,8.3,20.8,16.5,30.3,25.8
	C511.7,357.9,500.6,349.2,489.4,340.8z"/>
<path class="st0" d="M565.3,333.5c7.9,4.9,16.8,9.1,22.1,17c3.2,4.9,4.6,10.9,4.3,16.8c-7-1.5-13.2-5.9-17.3-11.7
	C569.6,349.1,567.1,341.3,565.3,333.5z"/>
<path class="st0" d="M608.1,341.4c2.8,1.4,3.4,4.6,4.2,7.4c1.2,5,1,10.2-0.7,15.1C610.3,356.4,608.7,349,608.1,341.4z"/>
<path class="st0" d="M468.5,346.8c2-0.6,3.9-1.2,5.9-1.8c-0.6,0.4-1.6,1.2-2.2,1.6c17.9,12.1,34.5,26.3,48.4,42.9
	c18.8,22.3,31.4,50,34.1,79.1c-5.6-19.2-11.5-38.5-20.9-56.3c-7.9-15.3-19.3-28.4-31.8-40.2C491.8,362.5,480.4,354.2,468.5,346.8z"
	/>
<path class="st0" d="M417.7,362.8c3.2-1.5,6.5-2.8,10-3.7c-13.6,6.6-26.5,14.7-37.5,25.1c-10.1,9.4-18.9,20.1-26.4,31.6
	c-1.7,2.6-3.2,5.2-5.1,7.6c3.6-11.7,10.9-21.8,19.1-30.8C389.1,380.4,402.7,370.1,417.7,362.8z"/>
<path class="st0" d="M537.8,383.7c7.4,4,12.3,11,16.4,18.1c10,18.3,17.4,38.5,18.2,59.5c-6.4-20.9-13-42-23.5-61.3
	C545.8,394.2,541.9,388.8,537.8,383.7z"/>
<path class="st0" d="M460.9,416c0.9-4.7,2.9-9.1,4.7-13.5c-1.1,9.9-2.7,19.7-3.8,29.6c-0.2,17.9,5.2,35.5,13.7,51.2
	c7.4,14.1,18,26,27.8,38.5c8.2,10.5,16.4,21,24,32c2.5,3.8,5.3,7.5,6.9,11.8c-2.8-3.5-4.6-7.7-7.1-11.4
	c-10.4-15.4-23.2-28.9-34.8-43.4c-12.7-15-23.4-32.1-28.5-51.2C459.8,445.3,459.4,430.5,460.9,416z"/>
<path d="M285.5,439.5c1.6-2.8,3-5.7,5.1-8.1c0.1,3.9-1.2,7.6-1.8,11.4c-2,10.9-3.3,22.1-2.5,33.2c1.9,18.9,11.5,35.7,15.7,54
	c2,8.5,0.5,17.2-1.1,25.7c-2.3,10-4.4,20-4.5,30.3c0.7,10.9,2.4,22.2,7.9,31.8c3,5.4,7.7,9.9,13.2,12.8c-5.5-6.3-8.2-14.5-9.5-22.6
	c-3.5-22.5,0.6-45.1,0.2-67.6c-0.5-11.3-0.6-22.9-4.8-33.5c-1.6-4.4-4.9-7.8-7.2-11.8c11,2.3,18.1,12.4,20.9,22.6
	c5,21.1,6.8,43,13.5,63.8c4.2,13,9.9,26.3,20.2,35.7c13.4,13,32.8,17.8,51,17.1c17.7-1.7,34.5-8.1,51.1-14.2
	c22.4-8.6,44.2-18.7,66.9-26.6c7.9-2.7,15.8-5.5,24.1-6.6c18.3-1.7,36,6.1,50.9,16.2c12.5,8.7,24,18.7,36,28
	c10.3,6.7,23.2,8.9,35.3,6.5c-4.7,6.5-13.6,7.9-21.1,7.4c-13.7-1.1-24.7-9.9-35.7-17.1c-15.5-11.1-33-20.5-52.2-22.7
	c-11.6-1.4-23.2,1.8-33.2,7.6c-14.9,8.4-27.5,20.3-39,32.9c12.4-1.2,24.7-2.9,37-4.6c11-1.4,21.9-3.4,33-3.3
	c19.4-0.1,39.1,5,55.2,16.1c15.3,10.3,26.9,25.3,35.8,41.3c-16.6-10.1-34.4-19-53.5-23.5c-9.5-2.2-19.3-3.2-28.9-2
	c-15.3,2.1-29.9,7.2-44.2,12.8c-10.3,3.8-20.6,7.8-31.4,9.7c-6.8,1.2-13.5-0.9-19.8-2.9c-19.8-6.7-38.5-16.3-58-23.7
	c-19.9-7.3-41.5-11.7-62.6-8.3c3.2,5.6,8.7,9.3,14.5,11.7c18.4,7.9,38.8,6.1,57.9,11.2c9.4,2.6,19.8,5.9,25.4,14.4
	c5.7,9.8,6.1,21.5,6.8,32.6c-3.5-4.9-6.8-10-11-14.4c-3.6-3.9-9.1-4.9-14.1-5.9c-16.5-2.7-33.3-2.3-49.9-2.5
	c-19.4-0.5-39.4-6.1-54.2-19.3c-6-5.5-11.8-11.7-14.9-19.4c-2.2-5.2-4.9-10.3-8.1-14.9c-2.4-3.6-6.7-5.3-9.1-8.9
	c-4-5.7-6-12.5-7.8-19.1c-2.6-10.6-4.7-21.4-7.6-31.9c-3.8-11.5-7.6-23-11-34.6c-2.7-8.9-5.6-18.2-4.1-27.6
	C261.5,497.6,270.5,466.9,285.5,439.5z"/>
<path d="M203.1,467.9c7.1-13.8,19.2-25.7,34.5-29.5c-7.5,6.6-11.8,16-14.8,25.4c-2.9,9.2-5.6,18.4-8.6,27.5
	c-6.7,17.5-21.5,30.4-37.5,39.3C188.4,510.8,192.4,487.9,203.1,467.9z"/>
<path d="M244.4,550.4c5,2.1,8.4,6.6,11.3,10.9c6,9,9.4,19.5,12.1,29.9c5.6,21.6,5.5,44.3,11.2,65.9c4.2,16.3,10.2,33.2,23,44.9
	c13.8,12.3,31.7,18.9,49.5,23.2c10.5,2.7,21.3,4,32,5.6c-4.2,1.6-8.6,1.1-13,1.8c-19.5,1.5-39.3-1.5-57.6-8.5
	c-17.6-6.8-33.5-18.4-44.5-33.8c-16.8-22.9-23.5-51.5-25.9-79.4c-7.7,4.9-10.7,14.3-11.4,23c-1.6,13.1,0.9,26.2,2.4,39.2
	c-10.8-11.4-17.1-26.8-18.3-42.3c-1.7-15.6,3.5-31.1,11.5-44.3C233.3,574.9,240.2,563.2,244.4,550.4z"/>
<path class="st0" d="M407.7,594.4c27.2-11.8,53.1-26.2,79.2-40.2c-17.4,11.3-35.4,21.5-54,30.6C424.8,588.6,416.5,592.1,407.7,594.4
	z"/>
<path class="st0" d="M484.8,582.4c13.8-5.6,27.4-11.4,41.6-15.9c-5.3,3-11.3,4.2-16.8,6.7c-2.2,0.7-4.2,2-6.5,2.4
	c-1.6,0.7-3.2,1.7-4.9,2c-6.1,2.3-11.9,5.3-18.1,7.1c-19.6,8.3-39.2,17.2-60,22.2c-12.8,3.2-26,4.8-39.1,3.4
	c13.8-0.3,27.7-1.5,41.2-4.9C443.9,600.4,464.1,590.6,484.8,582.4z"/>
</svg>
