<?xml version="1.0" encoding="utf-8"?>
<!-- Generator: Adobe Illustrator 21.1.0, SVG Export Plug-In . SVG Version: 6.00 Build 0)  -->
<svg version="1.1" id="Layer_1" xmlns="http://www.w3.org/2000/svg" xmlns:xlink="http://www.w3.org/1999/xlink" x="0px" y="0px"
	 viewBox="0 0 825 825" style="enable-background:new 0 0 825 825;" xml:space="preserve">
<style type="text/css">
	.st0{fill:#FFFFFF;}
</style>
<path d="M563.1,95.7c9,1.9,14.5,9.9,18,17.9c-0.1-3.5-0.7-7-0.8-10.5c1.8,3.4,2.9,7.2,4.5,10.8c1.7-4.8,3.1-9.8,5.7-14.2
	c3.4,3.6,5.6,8,8.1,12.2c2.1-3.2,3.6-6.9,6.5-9.5c3.7,8.7-1.2,18,0.7,26.9c14.7,12.9,28,27.4,42,41.1c6.9,7.4,14,14.6,21.2,21.7
	c5.9,6.1,12.3,12,16.1,19.7c-1,3.6-3.6,6.1-5.8,9c-3.1,3.8-1.1,10.4-6.3,12.7c-6.6,3-14.1,0-21-0.4c-5.5-3.1-7.1-10.5-13.1-12.9
	c-7-2.6-14.6-2.8-22-3.3c-10.5-0.3-21.6,0.2-31.2-4.8c-6.1,19.1-10,39-9.8,59.1c-0.1,11.9,1.5,23.7,4,35.2c2.8,15.9,6.1,31.9,6,48.1
	c14-2.1,27.4-10.8,41.9-7.5c7.1,1.8,15,5.4,17.7,12.7c2.4,7.6,1.6,15.8,1,23.6c-1.2,15,0.8,30,1.7,45c0.1,2.5,0.5,5,1,7.5
	c-11.8,10.4-22.8,21.9-35.1,31.8c1,6.2,0.2,13-3.8,18c-5.3,6.6-13.4,9.9-20,15.1c-6.7,5.3-13.3,10.7-19.1,16.9
	c-3.4,3.6-6.6,7.3-10.1,10.9c-4.2,4.9-11.2,2-16.7,3.3c-10.3,2.5-19,9.6-29.7,10.8c-5.9,0.8-12-0.3-17.3-3c1.6-9,4.5-18.9,12.5-24.4
	c4.7-2.8,10.7-5.2,16.2-3.1c2.8,1.2,5.3,3.1,8.1,4.4c6.6-6.3,13.5-12.5,22-16.3c9.4-4.2,18-10.3,25.7-17.2c2.9-2.8,6.1-5.7,6.7-9.9
	c-1.8-4.8-7.3-6.2-11.7-7.7c-8.7-3-18-3.6-26.7-6.5c-11.4-3.6-23.1-6.4-34.1-11.1c-16.7,7.2-32.3,16.7-48.7,24.6
	c-33.9,16.7-70.9,28.9-109.1,28.7c4.8,6.6,6.6,14.9,6.1,22.9c-0.4,12.5-5.2,24.2-9.4,35.8c-7.7,20.2-15.4,40.3-23.1,60.4
	c-3.9,9.3-3.4,20.4,1.4,29.4c2.7,5.5,7.1,10.1,11.6,14.2c6.9,6.2,14.1,11.9,21.5,17.5c6.5,4.7,13.2,9.5,20.8,12.2
	c8.5,2.9,17,5.6,25.5,8.4c3.3,1.2,7.1,1.7,9.6,4.3c6.2,5.9,10.3,13.7,13.4,21.6c-5.6,0.5-11.3,0.3-16.9,0.5
	c-5.9-0.2-11.9,0.4-17.7-1.1c-8.3-4.5-13.8-14.1-23.8-15.3c-6.6-0.5-12-4.5-17.2-8C344,692,328.6,678.9,313,666.3
	c-6.9-5.8-14.2-11.4-20.5-17.8c-1.6-1.8-3.7-3.8-3.6-6.4c-1-11.7,7.5-21.2,9-32.5c-6.9,10.8-12.4,23.2-12.4,36.3
	c0.3,11.4,7.1,21.2,14.8,28.9c10.1,10.2,22.3,18.1,34.7,25.2c13.4,7.6,29.5,9.7,41.6,19.5c5.1,4,8.7,9.6,10.2,15.8
	c-12.4,2.4-25.5,4.4-37.9,0.9c-4.9-1.2-7.5-6-11.4-8.7c-9.5-7.1-22.6-5.9-32.1-12.9c-12.7-10.6-19.6-26.2-31.7-37.3
	c-7.8-7.6-17.1-13.4-25.2-20.5c-5.8-4.8-8.1-13.3-5.3-20.3c3.7-10.4,8.2-20.5,12.3-30.8c2.7-6.9,4.7-14.1,5.3-21.5
	c0.2-4.6,0.5-9.6-2.2-13.7c-8-12.5-20.5-21-29.9-32.3c-13-15-22.4-33.5-25.1-53.3c-1.1-6.2-0.9-12.5-1.1-18.7
	c-4.2,0.9-8,3.3-12.4,3.3c-5.6-1-10.6-4.1-16.2-5c-5.9-0.8-12,2.9-14,8.5c-3.5,8.4-0.7,17.7,1.1,26.2c5.8,25.3,11.7,50.7,19.3,75.5
	c2.5,7.9,5,15.9,8.5,23.4c0.2-11-2.6-21.9-5.9-32.3c15.6,6.6,22.3,26.1,17.9,41.8c-1.1,2-3.7,2.8-5.4,1.2c-3-2.6-4.7-6.4-6.4-9.9
	c-0.1,10.6-2.8,21.1-8.2,30.2c1-22.6-5.3-45.7-18.6-64.1c-10.3-13.6-21.9-26.1-33.5-38.6c3.4,10.5,4.9,22,1.9,32.8
	c-1.8,7.2-5.9,14.5-13.1,17.3c-5,2.2-10.5,1.7-15.8,1.5c7.3-1.3,15.2-4.6,18.6-11.7c4.6-9.6,1.8-20.6-1.5-30.1
	c-7.4-21.6-18.7-41.6-29.1-61.8c-5.5-11.4-9.6-25.8-2.8-37.6c7.4-11.3,20.5-17.4,33.3-20.3c13.9-3.4,28.6-2.1,42.2,1.7
	c15.9,4.4,30.8,12,44.9,20.6c14.8-15.2,25.6-34,41.7-48c7.5-5.8,16.5-9.2,25.1-13c25.1-10.4,51.3-17.8,76-28.9
	c27.4-12.2,54.6-26.6,75.4-48.6c-7.2-1.9-14.4-4.2-20.9-7.9c-16-8.9-27.8-24.2-34.2-41.1c6.1,2.8,10.6,8,16.7,10.7
	c8,4.3,17.8,5.2,26.3,1.7c-13.7-2.6-28.3-7.5-37-19.2c-5.9-7.3-7.8-16.8-8.8-25.9c1.7,8,7.8,14.5,15.3,17.4
	c7.4,2.8,15.8,5.2,23.5,2.2c4.6-1.6,7.6-5.7,9.9-9.8c-9.6-2-18.5-8.7-21.5-18.4c-1.8-4.9-0.8-10.2,0.7-15
	c-4.7-7.9-7.4-17.7-4.5-26.7c0.7,5.2,2,10.5,4.6,15.1c3.9,7.3,10.1,13,16.6,17.8c-4.4-9.4-5.3-20-6.8-30.2
	c-0.8-4.3-2.2-8.9-5.6-11.9c-3.1-2.7-7.3-2.6-11.1-2.9c5.9-0.8,12.1-1.3,17.8,1.1c11.2,3.9,18.3,14.2,29.2,18.7
	c6.8,3.2,14.7,3.7,21.9,1.6c-11.6-1.7-24.1-3.9-33-12.2c-5.8-5.1-8.1-13-8.1-20.5c2.5,2.3,4.9,5.5,8.5,5.8c3.3,0.3,6-2,8.5-3.8
	c0.2-9.1,4.1-18.5,12.1-23.4c11.3-7.1,25.3-7.6,38.3-7c12.4,0.6,24.4,5.3,34.1,12.9c-2.9-4.9-7.2-8.7-12.1-11.4
	c-9.8-5.4-20.9-7.9-31.8-9.9c9-2.6,18.5-3.8,27.9-3.5c10.3-0.3,20.7,1.2,30.2,5.2c-4-3.4-8.9-5.5-13.9-6.8c-11.5-3-23.5-3-35.3-3
	c16.1-6.4,33.8-2.3,49.9,1.6c2.7,1.2,5.6,0.1,8.4,0.7l-1.2,0.9c10.7,3,20.8,8,31.4,11.4c-6.2-5.4-13.3-10.4-21.4-12.2
	c-3.5-0.9-7.2,0.7-10.5-1.2c6-1.7,12.5-2.2,18.5-0.3c9,2.6,16.4,8.8,22.3,15.9C576.2,108.6,571.1,100.6,563.1,95.7z"/>
<path class="st0" d="M449.6,131.9c7.7-2.8,16.7-2.9,23.7,1.8c-10.1-3.8-21.4-1.2-30.4,4.1c-3,1.7-5.2,4.5-7.6,6.9
	C436.8,137.9,443.3,133.8,449.6,131.9z"/>
<path class="st0" d="M398.1,198.8c5,5.9,9.9,11.9,16.3,16.2c-4.3-0.4-8.5-1.8-11.4-5C400,207,398.9,202.8,398.1,198.8z"/>
<path class="st0" d="M618.8,373.8c1.5-1.5,4.3-1,5.3,1c3.3,5.8,4.2,12.7,3.6,19.3c-1.2,12.9-3.1,25.7-5.2,38.5
	c-7.2-0.1-14.9-0.3-21.2,3.6c-3,1.8-4.7,4.8-5.9,7.9c-12.2-7.9-23-17.6-33.6-27.5C580.8,402.4,599.9,388.3,618.8,373.8z"/>
</svg>
