<?xml version="1.0" encoding="utf-8"?>
<!-- Generator: Adobe Illustrator 21.1.0, SVG Export Plug-In . SVG Version: 6.00 Build 0)  -->
<svg version="1.1" id="Layer_1" xmlns="http://www.w3.org/2000/svg" xmlns:xlink="http://www.w3.org/1999/xlink" x="0px" y="0px"
	 viewBox="0 0 825 825" style="enable-background:new 0 0 825 825;" xml:space="preserve">
<style type="text/css">
	.st0{fill:#FFFFFF;}
</style>
<path d="M288.2,103.6c3.9-12.8,7.1-26.2,14.5-37.6c1.3,1.6,3.1,3.1,3.4,5.2c0.5,4.1-0.8,8.3,0.5,12.4c3.3,11.3,10.3,21.1,17.6,30.3
	c11.6,14.2,24.1,27.7,34.9,42.5c19.8-5.2,40.4,0.9,58.5,9.3c-2.8-10.7-4.1-21.9-1.9-32.8c2.6-15,10.4-28.4,14.4-42.9
	c2.6-8.1,3.1-16.9,7.2-24.5c5.3,4,7.6,10.6,9.8,16.6c4.5,15.2,5.2,31.2,9.7,46.4c7,25.5,18.3,49.8,22.4,76
	c15.6,7.2,31.3,13.9,47,20.8c7.6-3.4,16.2-1.4,23.5,1.8c9.7,3.8,17.8,10.4,27,15.1c7.9,4.6,16.1,8.9,22.6,15.4
	c9.6,9.4,18.1,20,29.1,27.9c5.6,4.2,11.3,8.2,17.5,11.4c5.3,2.9,10.9,5.5,15.3,9.8c6.6,6.4,12.1,14,19.5,19.5
	c5.8,4.2,13,5.8,18.4,10.5c5.2,4.4,10.4,9.6,12,16.5c2,9.8-1.5,19.6-5.8,28.4c-2.1-0.5-4.2-1.1-6.2-1.7c-2.8,6.9-5.5,13.9-8.5,20.7
	c-2.1,5-6,8.9-10.8,11.4c-3.1,8.4-2.8,17.8-7.3,25.7c1.2,2.6,2.3,5.3,2.4,8.2c-0.2,3-1.4,5.8-2.8,8.4c-3.2-2.6-6.4-5.1-9.6-7.6
	c-5.1,3.4-11.7,3.5-17.1,0.8c-8.3-3.8-17.3-5.9-25.9-8.9c-6.3-4.2-9.8-13.3-18.5-12.8c-3.3-4.8-4.1-12-9.9-14.5
	c-2.5,0.7-4.4,2.6-6.6,3.9c-7.8-20.5-14.6-41.5-17.8-63.2c-1.7-10.6-1.8-21.3-2.1-32c-0.5-9.3-0.9-18.7-0.9-28c0.2-5.7-1-11.4-2-17
	c-1.8-8.5-4.7-16.9-9.7-23.9c-1.1-1.6-2.6-2.7-4.3-3.5c-11.1-5.7-22.4-11-33.7-16.3c-8.8-3.6-15-11.9-24.6-14
	c11.6,26.4,23.1,53.7,26,82.7c-0.2,18.5-3.1,36.8-3.8,55.2c2.7,3.9,4.2,8.5,5.6,13c3.9,13.4,6.5,27.1,9,40.9
	c1.4,9,3.4,18.1,2.9,27.2c-4.9,1.1-8.7-2.3-12.8-4.1c-3.2,22-7.3,43.9-11.2,65.8c-2,10-3.3,20.1-5.4,30.1c-1.4,8-3.2,16.1-3.2,24.2
	c9.3-9.4,12.1-23,18.6-34.2c3.9,8,2.8,17.3,1.2,25.7c-2.8,14.2-9.5,27.4-11.5,41.8c-2,18.9,2.1,37.6,4.9,56.2
	c1.6,8.6,2.5,17.5,5.9,25.6c3.6,7.7,2.9,16.4,4.6,24.6c2.5,13.8,5.4,27.5,7.9,41.2c-7.7-1.7-12.5-8.6-14.6-15.8
	c-4.8-16.3-13-31.4-18.4-47.5c-3.8-10.7-7.1-21.6-10.8-32.4c-6.1-16.9-13.6-33.4-21.5-49.6c-4.6-8.7-9.1-17.7-16.2-24.6
	c-2.5-2.4-5.9-4.7-9.5-3.8c-7.7,1.3-15.1,4.2-23,4.3c-13.6,0.2-27.1-1.7-40.2-5.6c-1.1,1.5-2.1,3.1-3,4.7c-10.5,3-20.6,8.7-31.9,8
	c-4-0.2-7.6-2-10.6-4.4c-7.1,3.3-14.9,4.9-22.5,6.5c-11,2.4-22.4,3.2-32.6,8.1c-5.4,2.5-10.7,6.3-12.8,12.1
	c-3.7,9.3-3.9,19.9-9.2,28.6c-4.2,6.5-11.1,10.7-18.3,13.1c-9.1,3.2-19.5,3.5-28.5-0.2c-8.9-3.2-18.8-5.4-25.5-12.5
	c-9.3,2.2-19.6,0-26.7-6.5c-6.5-6.3-11.6-13.9-17.2-21c-4.2-4.5-9.8-7.5-13.5-12.5c-2.9-4.5-4.1-10-5.1-15.2
	c-3-18.8-0.8-37.9,0.7-56.8c0.5-3.1,0.4-6.2,1.2-9.2c2.4-4.7,7-7.5,10.7-11c9.6-8.1,17.1-18.3,24.6-28.3
	c10.8-14.9,20.4-30.6,28.9-46.9c1-3.8,0.1-7.8-0.2-11.7c-1.5-8.7,0.9-17.4,3.5-25.6c2.7-7.6,7.3-16,15.7-18.3
	c3.9-1.3,9.1-1.5,11.2-5.7c3.1-5.8,3.5-12.6,6.3-18.6c-1.4-3.6-2-7.5-3.1-11.2c-1.7-4.1-5.5-6.9-7.3-11c-0.6-6.9,0.2-13.9,1.3-20.7
	c0.8-3.6,1.4-7.5,3.9-10.2c3.7-3.1,8.7-4.4,12.2-7.8c11.6-11.4,18.5-26.7,29.9-38.2c6.8-5.9,13.5-11.9,20.5-17.5
	c2-1.9,2.2-4.9,3-7.3c1.4-6.2,6-11.1,10.8-14.9c4.3-3.4,8.4-7.2,12.2-11.3c-3.6-19.6-17.6-35.8-19-55.9
	C282.5,120.2,286,111.9,288.2,103.6z"/>
<path class="st0" d="M330.4,134.5c4.1,1.6,6.3,5.8,7.5,9.8c1.7,5.5,3.3,11.1,5.9,16.3c-4.7,2.5-9.7,4.3-14.3,6.9
	C329.9,156.5,331.5,145.5,330.4,134.5z"/>
<path class="st0" d="M453.5,174.3c1.1-4.6,1.4-9.3,2.8-13.9c4.9,10.7,11.9,20.8,13.2,32.8c1.6,10.4-4.2,19.7-7.5,29.2
	c-1.3,4.5-2.6,10,0.4,14.1c2.4,3.6,8.6,3.6,10.9-0.1c1.7-2.6,3.1-5.4,5.1-7.7c3.3,7.8,5.2,16.1,7.3,24.3
	c4.4,18.8,8.1,37.8,12.2,56.8c-1.8,3.2-3.5,6.4-5.1,9.6c-5.5,1.5-11.3,4.5-13.5,10.1c-3.2,7.7,1.3,16.2-1.8,24
	c-12.7,11.2-26,21.6-40,31.1c-25.2,17.3-51,33.5-76.8,49.9c-3.6-2.2-7.8-1.8-11.8-1.6c-1.3-5.4-6.8-9.1-12.3-7.5
	c-12.7-17.6-26.5-34.8-43.4-48.5c-7.8-6.4-16.3-11.9-25.5-16.1c12.5-15.6,24.8-31.3,38.4-45.9c-7.6,3.2-13.6,9-19.4,14.6
	c-9,9.3-17.5,19.2-27.9,27.1c-12-4.7-25.2-4.2-37.8-4.7c2.7-13.4,9.3-25.6,12.7-38.8c-6.2,1.4-5.4,9.1-10.2,12.3
	c-3.1-4.4-6.5-8.6-9.3-13.1c-1.2-9.2,5.5-17.1,5.4-26.2c6.4-2.6,11.9-6.9,16.5-12c9.3-9.4,14.3-22.4,24.7-30.7
	c-8.1,15.2-13.2,31.8-16.8,48.5c-2.6,11.5-5.8,22.9-7.7,34.6c5.3-1.4,8.9-5.8,12.6-9.5c5.5-6.2,10.2-13,15.7-19.1
	c3.5,0,7.4-0.5,10-3.3c2.7-2.9,4.2-6.6,6.6-9.8c-0.5,2.3-1.1,4.6-1.5,7c7.4-1.2,13.6-6.1,18.8-11.2c7.4-7.7,13.8-16.2,22-23.1
	c9.3-6.1,20.1-9.9,28.5-17.3c7.4-6.3,14.8-12.5,22.2-18.8c8.6-7.5,17.6-14.8,27.6-20.5c4.6-2.7,9.7-4.3,14.7-6.3
	c4.4-1.8,7-6.3,11.6-7.8c7.4,9.8,8.7,24.1,19.8,30.9c3.7-2.4,2.1-7.1,2.5-10.8C448.2,195.7,451.5,185.1,453.5,174.3z"/>
<path class="st0" d="M335.6,185.9c11.3-5.3,23.5-8.8,35.9-10c-6.4,4.4-12.6,9.5-16.9,16c0.6,2.9,3.9,2.9,6.2,2.7
	c7.8-0.9,14.8-4.7,22.3-6.8c-2.5,2-5.6,4-5.7,7.6c-20.8,12.1-36.1,32-58.2,42.1c3.2-5.1,8.6-8.2,12.9-12.2c1.2-1.3,3-2.4,3-4.4
	c-1.4-0.1-2.7-0.1-4.1-0.1c4.5-7.5,11.7-13,15.5-21c-23.9,8.7-47.2,20.8-64.8,39.6C294,216.8,312.2,196.8,335.6,185.9z"/>
<path d="M424.6,199.6c2.8,11.9,10.8,21.6,18.9,30.4c-6.4,1.3-13.3-0.8-17-6.3C420.7,217,419.9,207,424.6,199.6z"/>
<path d="M424.9,228.1c8,5.9,18.5,7.6,25.6,14.8c-2.2,3.1-6.2,4.7-9.8,3.3C432.9,243.3,426.9,236.1,424.9,228.1z"/>
<path d="M408.2,247.4c0.8-4.8,4.1-8.5,6.8-12.3c2.1,7,3.8,14.4,8.6,20.1c5.6,7.7,13.8,13.2,18.4,21.7c3.6,6.6,4.8,14.9,2,22
	c-2.9,7.1-9.9,11.2-16.7,13.8c2.9-5.7,6.8-10.9,10.3-16.2c2-2.6,0.7-6-0.3-8.7c-5-11.4-15.6-18.5-23.9-27.2
	C410.3,257,407,252.4,408.2,247.4z"/>
<path d="M348.9,255.8c1.1-3.6,3.2-6.9,4.8-10.3c-0.6,4.1-0.4,8.5,1.6,12.3c3.6,6.8,9.3,12.7,10.8,20.5c1.6,7.8,2.5,16.5-1,23.9
	c-2.6,5.7-8.1,9.4-13.8,11.5c2.2-4.1,6.6-7.2,6.7-12.2c0.8-6-2.5-11.3-4.6-16.6c-1.2-3.1-2.9-6-4.2-9.1
	C347.2,269.3,347,262.2,348.9,255.8z"/>
<path d="M459.7,275.8c3.7,1,7.8,3.1,8.6,7.3c0.8,5.1,0,10.8-3,15.1c-2.1,3.1-6,4.1-9.5,4.7c2.6-5.3,5.9-10.3,7.9-15.9
	C464.4,282.9,459.5,280.2,459.7,275.8z"/>
<path d="M393.8,297.2c2.7-3.4,6.9-5.6,11.2-5.3c8.7,0.6,17.8,5.8,20.1,14.7C416.8,298.7,404.9,296.5,393.8,297.2z"/>
<path class="st0" d="M586.5,297.6c3.9,7.6,4.9,16.2,5.8,24.6c1.5,15,1.7,30.2,1.5,45.3C587.1,344.9,583.5,321,586.5,297.6z"/>
<path d="M394,302.9c4.1-4.1,10.6-3.6,15.6-1.4c3.7,1.7,7.4,3.8,10.4,6.6c4,3.8,3.2,10.7-0.4,14.5c-7.9,7.8-21.5,11.1-31.2,4.8
	c-2.4,0.2-4.8,0.5-7.1,0.9C384.5,319.4,387,309.6,394,302.9z"/>
<path class="st0" d="M395.2,315c-0.7-4.5,6.2-9.8,9.2-5.1c0,1.9-0.3,3.8-0.4,5.8c-2,0.4-4,0.9-6,1.3
	C397,316.3,396.1,315.6,395.2,315z"/>
<path class="st0" d="M604.3,322.5c6.2,2.7,6,10.7,11,14.5c3.2,1.6,6.3-1.2,8.8-2.9c2.9-2.6,6.7-4.4,10.7-3.3
	c-0.2,9.5-1.1,18.9-1.1,28.4c-0.4,7.1,0.1,14.2-1.2,21.2c-1.3-7.4-2-14.9-2.4-22.4c-0.5-6-1.8-12.3-6.1-16.7c-2.7,1.6-5.8,3-9,1.9
	c-2.1,2.3-2.8,5.3-2.8,8.4c-1.2-0.8-2.3-1.6-3.4-2.5c-0.4,0.2-1.2,0.7-1.7,0.9c-0.6,1.4-1.2,2.8-1.8,4.2
	C604.5,343.6,603.6,333.1,604.3,322.5z"/>
<path class="st0" d="M483.9,341.1c0-6.2,3.1-12.2,8.6-15.3c3.2,8,8.2,15.1,14.5,20.9c-1.9,2.3-4.1,4.5-6.5,6.4
	c-3.2-2.3-5.7-5.4-8.3-8.3C490,342.4,486.9,341.6,483.9,341.1z"/>
<path d="M413.8,330.6c2.7-0.8,4.7-2.8,6.8-4.6c-0.5,2.6-1.9,5-4.3,6.3c-7.4,4.4-16.3,7.6-25,5.5c-4-1.2-8.2-2.1-12.4-2.5
	c1.6-1,3.1-2.2,5-2.6C393.8,330.3,404.1,333.8,413.8,330.6z"/>
<path d="M422.2,349.2c1.6-1.7,3-4,5.7-4c-0.7,4.7-3.9,8.4-6.5,12.1c-16.8,22-36.7,41.4-57.8,59.3c-3.9,3.5-8.7,6.5-14.2,5.8
	c1-4.4,2.5-9,6-12c14.6-13.4,29.6-26.3,44.1-39.9C407,363.4,415.1,356.8,422.2,349.2z"/>
<path class="st0" d="M683.5,353.5c2.4,3.4,0.2,7.6,1.3,11.4c1.4-1.1,2.9-2.1,4.4-3.1c-1.2,5.3-2.3,10.7-4,15.9
	c-2-1.7-1.5-4.3-1.5-6.6c-2.3,10.9-7.4,20.9-11.3,31.3c-2.1-13.5-2.5-27.2-5.1-40.6c1-1.9,1.7-3.9,2.4-5.9c0.8-0.1,2.3-0.3,3-0.4
	c-0.5,2.1-1.1,4.2-1.8,6.3c1.1,1.9,2.7,3.5,4.7,4.5c1.8-1,3.7-2,5-3.7C682.8,360.1,682.8,356.6,683.5,353.5z"/>
<path class="st0" d="M465,397c11.5-10.7,21.7-22.8,33.2-33.4c8.5,20,8.1,42.2,7.6,63.5c-0.9,20-3.8,40.1-10.8,59
	c-7,19-18.9,36.2-34,49.7c-15.3,13.5-35.6,21.1-56,20.8c-9.5,0-19.8,0.1-27.9-5.4c4-23.1,0.1-47.2-8.9-68.7
	c3.1-3.5,4.1-8.2,3.1-12.8c1.7-1.5,4.3-2.5,4.5-5c-0.5-2.6-1.8-5-2.6-7.5c19-10.7,37.9-21.8,56.1-33.8
	C441.7,415.2,453.9,406.8,465,397z"/>
<path class="st0" d="M159.7,470.6c22.4-27.7,34.1-62.1,53-92c9.3,0.2,18.8,0.1,27.9,2.1c-8.8,12.4-19,23.6-28.8,35.2
	c-11,12.4-20.5,26.7-24.4,43c20.9-24.1,41.3-48.5,60.7-73.8c20.1,12.2,39.9,25.5,55.9,42.9c4.6,5.1,8.8,10.6,12.3,16.5
	c-2,1.3-4,2.4-6,3.6c4.2,14.8,9.5,29.4,14.5,43.9c3.4,0.5,6.9,0.5,10.3-0.2c13,16.8,14.8,39.5,11.6,59.8
	c-12.8,3.5-25.6,6.9-38.5,10.3c-15,3.8-30.3,8-42.9,17.4c-3.3,2.7-7.1,5.3-8.9,9.2c-4,7.9-7.4,16-11,24c-3.5,9-12.3,17.4-22.6,15.9
	c-7.2-1.5-14.6-2.5-21.9-3.8c13.1-3.2,24.2-11.6,33.6-21c9.7-10,18.9-20.4,28.9-30.1c2.4-2.2,5.5-3.4,8.2-5.1
	c-6.8-2.3-13.4,1.8-18.9,5.4c-13.9,9.5-21,25.7-34,36.1c-9.4,7.6-22.7,8.8-33.9,5.1c-6.1-2.3-11.4,4.2-17.5,2.5
	c-6.1-1.6-11.4-5.5-15.2-10.3c-9.2-11.3-14.9-25.2-25.4-35.4c-1.1-17.5-2.5-35.1-2.7-52.7c0.2-6-0.1-12.3,2.3-18
	C138.6,492.2,150.4,482.5,159.7,470.6z"/>
<path class="st0" d="M328.6,450.8c4.8-3.6,10.8-4.7,16.6-5.7c2.6,4.6,6.2,8.5,8.6,13.2c1.4,2.6,1.4,6.4-1.2,8.3
	c-5.8,4.4-13.7,4-19.6,8.1c-3.5-3.4-7.4-6.9-8.7-11.8C322.9,458.4,324.9,453.4,328.6,450.8z"/>
<path d="M183.1,486.2c6-5,14.2-6.5,21.8-6.4c5.1-0.2,10,1.1,14.7,3.1c-11.1,0.4-22.9,1.3-32.7,7c-3.4,1.7-4.7,5.4-7,8.2
	C179.1,493.9,179.7,489.1,183.1,486.2z"/>
<path d="M239.9,479.1c8.5,14.4,13.1,31.1,13.2,47.9c-0.1,11.4-4,24.2-14.7,30c0.8-7.9,5.9-14.5,7.1-22.3c1.4-10-0.4-20-2.4-29.7
	C241.7,496.4,240.4,487.8,239.9,479.1z"/>
<path d="M194.9,501.7c8.2-2.1,17.7-0.8,24.2,5.1c8.1,7.3,11.9,18.2,13.6,28.7c2.1,12.7-2.4,26.4-12.1,34.9c-2.5,2.3-6.3,2.6-9.4,1.6
	c-1.7-0.6-1.9-2.6-1.6-4.1c1.2-2.7,3.9-4.8,4.1-7.8c-1.3-6.4-7.9-10.6-14.2-10.3c0.4,5.5-2.2,10.5-3.4,15.8
	c-4.4-2.7-8.2-6.6-9.5-11.7c-1.7-7-1.3-14.8,2.1-21.3c3.2-6.1,9.1-10,13.7-15c-1.6-4.1-5.8-5.7-9.2-7.9
	C190.1,508,190.9,501.6,194.9,501.7z"/>
</svg>
