<?xml version="1.0" encoding="utf-8"?>
<!-- Generator: Adobe Illustrator 21.1.0, SVG Export Plug-In . SVG Version: 6.00 Build 0)  -->
<svg version="1.1" id="Layer_1" xmlns="http://www.w3.org/2000/svg" xmlns:xlink="http://www.w3.org/1999/xlink" x="0px" y="0px"
	 viewBox="0 0 825 825" style="enable-background:new 0 0 825 825;" xml:space="preserve">
<style type="text/css">
	.st0{fill:#FFFFFF;}
</style>
<path d="M516,105.2c12.8,3.6,22.7,13.7,28.9,25.1c4.2,7.3,7.7,16,5.3,24.4c-1.9,6.9-7.5,12-13.5,15.5c9.7,14.3,11.8,31.9,17.2,47.9
	c2.1,6.1,5.1,12,9.2,17c-7.8-1.4-12.8-8.3-16.5-14.8c-6.4-12.4-11.4-25.4-18.1-37.6c-16.1,5.3-30.8,13.9-45.3,22.5
	c-18.7,11.4-36.8,23.8-54.5,36.6c-19.5,13.8-37.9,29-58.1,41.8c-36.6,23.5-77.9,41.2-121.5,44.9c33.1-14.5,66.2-29.2,98.8-44.6
	c15.9-7.8,32.1-15.1,47.1-24.7c27.6-21.6,55.2-43.3,84-63.2c14.9-10.1,29.9-20.4,46.4-27.6c0.4-13.2,0.3-26.5-1.7-39.6
	C522.3,120.6,520.2,112.4,516,105.2z"/>
<path d="M460.3,127.9c11.2-3.2,23,0.3,32.8,5.9c8,4.4,15.2,11,18.5,19.7c1.5,3.7,2.2,7.7,2.7,11.6c-16.8,8.5-32.6,18.9-49.1,27.9
	c-1.8-7-4.8-13.9-9.5-19.5c-6.7-8.3-16.8-13.6-27.2-15.6c12.2-2.7,25.3-1.6,36.6,3.9c7.7,3.8,14.6,9.1,20.5,15.3
	c1-11.5,0.6-23.9-5.5-34.1C475.8,135.6,468.3,130.5,460.3,127.9z"/>
<path d="M259,182.3c2-6.8,5.2-13.1,7.1-19.9l1-0.8c0,1.8,0.1,3.6-0.5,5.3c-7.1,21.6-8,44.6-7.3,67.1c1.1,24.2,4.6,48.5,12.8,71.3
	c-8.3,0.8-15.9,4.3-24.1,5.8c-2.1-15.6-3.5-31.3-3.2-47.1C245.3,236.2,250.1,208.6,259,182.3z"/>
<path d="M544.5,168.7c2.3-3.7,6.2-6.8,10.8-6.6c3,0.4,5.9,1.5,8.3,3.4c14.3,13.7,29,27,43.3,40.7c18.2,17.8,36.6,35.5,52.9,55.2
	c6.5,7.6,11.8,16.2,17.8,24.1c23.1,31.2,49.3,59.9,75.7,88.2c6.1,7.1,13,13.6,17.8,21.7c-1,6-5.4,10.4-8.8,15.1
	c-2.8,6,0.3,12.5,1.8,18.4c1.8,5.8-1.7,11.7-6.1,15.2c-4.3,3.2-9.5,6.1-15,5.4c-2.7-0.2-4.5-2.5-6.3-4.3
	c-5.5-6.5-9.4-14.3-15.3-20.5c-10.5-9.8-24.3-14.9-35-24.6c-0.3,0.1-0.8,0.4-1,0.5c13.7,13,30.4,22.9,41.9,38.2
	c2.2,2.8,3.9,5.8,5.4,9c-3.4,4.7-7.1,9.9-12.9,11.6c-5.2,1.4-10.7-1-14.3-4.7c-10-9.7-15.7-22.7-25.7-32.4
	c-4.2,0.1-8.3-0.7-12.3-1.3c-27.1-4.9-53.9-11.1-80.8-16.9c45.5-12.6,88.8-36.5,119.7-72.7c-33.9,27-73.2,48.7-116.2,56.2
	c-11.5,1.7-23.3,3.9-34.9,1.8c-16.5-2.7-31.4-12.4-41.9-25.3c-9.7-11.9-14.5-27.5-13.2-42.8c2.6-15.2,13-27.1,20.1-40.3
	c4.3-8.6,6.8-18.5,5.2-28.2c-1.3-6.4-5.8-11.5-9.5-16.6c-1.4-1.8-1.9-4-2-6.2c8.6,3.5,17.1,7.2,24.6,12.8c3.2,2.6,6.5,5.6,7.7,9.7
	c3.2,9.7,3.8,19.9,4.8,30c1.1,11.8,2.1,23.7,5.1,35.2c2,8,7.6,15.2,15.1,18.7c9.7,4.5,21.6,3.9,30.7-1.7c12.5-7.9,17.7-25.7,11-39
	c-7.6-15.8-19.2-29.2-30.2-42.8C569.5,224.9,557.2,196.6,544.5,168.7z"/>
<path d="M349.2,182.7c18.4-9.4,40.1-12.7,60.3-7.4c17.1,4,32.7,14.7,41.5,30c-7.8,4-14.4,9.8-20.4,16c-11-10.3-21.8-21.1-34.7-29.1
	C382.1,183.4,365.2,180.3,349.2,182.7z"/>
<path d="M368,215.9c17.6-4.5,35.5,2.6,49.9,12.5c-1.2,8-10,10.2-14.5,15.9C395.3,231.3,383.7,218.7,368,215.9z"/>
<path d="M327.3,238.7c9.9-6,21.4-8.8,32.9-8.7c9.8,0.5,20.2,2.4,28.1,8.7c3.8,2.8,6.5,6.6,8.8,10.6c-15.9,8.7-31.1,18.7-47.5,26.6
	c-15.2-7.3-32.5-11.2-49.4-9c15.4-7.5,32.4-13,49.8-12.3c6.9,0,13.7,1.4,20.3,3.1c-4.5-7-10.9-12.9-18.7-16
	C343.9,238.6,335.4,237.8,327.3,238.7z"/>
<path d="M56.3,231.3c16.8,24.4,36.3,47.3,59.9,65.6c28.2,22.3,62.2,37.2,97.9,42.1c27.9,4.2,56.7,2.1,83.7-6.1
	c9.9-3,19.7-6.6,28.9-11.5c21.7-11.6,43.2-23.8,64.8-35.6c-19.1,16-37,33.5-52.6,53c-13.4,16.6-24.6,35-32.5,54.7
	c-13.2,32.2-18.6,67.2-18.3,101.8c-7.3-21.2-17.6-41.6-20.7-64.1c-1.6-11.5-1.3-23.3,1.6-34.6c-28.7-0.5-57.5-6.1-83.9-17.6
	c-28.7-12.5-53.6-32.6-73.5-56.6C88.8,294.9,71.5,263.4,56.3,231.3z"/>
<path d="M362,332.8c30.5-30,61.5-59.5,92.4-89.1c-25.7,32.7-47.9,68.4-63.4,107.1c-20,49.1-28.8,102.8-25.2,155.7
	c2.8,23.7,6.1,47.4,11.4,70.7c7.7,36.6-2.6,74.6-20.1,106.8c-7.1,13-16.2,25.2-28,34.3c5.7-15.8,8.3-32.6,8-49.3
	c0.5-25.6-5-50.8-11.9-75.3c-9.4-34.6-22.5-68.7-24.9-104.8c-1.1-17.1-0.3-34.4,3.2-51.3c5.9-29.7,19.4-57.5,37.4-81.7
	C346.8,347.2,354.7,340.3,362,332.8z"/>
<path class="st0" d="M607.8,261.6c3.5-2,7.6-3,11.5-1.8c9.3,2.4,17.8,8.9,21.7,17.8c-7.1,0.8-14.7,0.2-21-3.6
	C615,271,610.9,266.5,607.8,261.6z"/>
<path d="M458.8,333.7c8.5-26.1,27.2-48.7,51.1-62.1c-12.2,9.4-20.2,23.7-22.1,38.9c-2.1,16.8,0,34.2,7.1,49.7
	c5.4,11.8,14.6,21.5,25.8,28c-11.9,11.4-20.7,25.4-29.4,39.3c-10.7,17.5-20.4,35.7-29.7,54c-10.8,21.9-22.6,43.3-37.3,62.8
	c-10.3,13.4-22.1,26-36.6,35c-3.6-25.6-6-51.4-6.4-77.2c-0.9-8,0.1-16.1,0.1-24.2c0.8-22.7,3.5-45.5,10.1-67.4
	c4.7-15.1,11.3-30,21.4-42.3c-0.7,12.1-6.1,23.2-8.4,35c-2.9,15.4-4,31.2-3,46.9c1,10.4,1.5,21.4,6.7,30.8c2.1,4,7.3,7.2,11.7,4.8
	c3.9-2.7,5.3-7.5,6.6-11.8c2.8-10.7,3.5-21.8,5.7-32.5c2.6-11.2,5.2-22.6,9.8-33.3c4.1-9.2,12-16.5,21.4-19.9
	C454.9,371.5,453.1,351.5,458.8,333.7z"/>
<path d="M281.1,275.6c8-4.3,17.5-3.2,25.8-0.3c6.6,2.2,12.9,5.5,19,9.1c-3.2,3-7.1,6-11.8,5.8c-5.7,0.3-10.3-3.5-14.9-6.2
	C293.4,280.7,287.6,277,281.1,275.6z"/>
<path class="st0" d="M741.5,393.4c5.9-3.6,13.4-2.3,19.7-0.2c-0.2,2.8-1,5.7-3.3,7.4c-5.2,4.2-13.2,4.5-18.9,1
	C739,398.8,738.6,395.1,741.5,393.4z"/>
</svg>
