<?xml version="1.0" encoding="utf-8"?>
<!-- Generator: Adobe Illustrator 21.1.0, SVG Export Plug-In . SVG Version: 6.00 Build 0)  -->
<svg version="1.1" id="Layer_1" xmlns="http://www.w3.org/2000/svg" xmlns:xlink="http://www.w3.org/1999/xlink" x="0px" y="0px"
	 viewBox="0 0 825 825" style="enable-background:new 0 0 825 825;" xml:space="preserve">
<style type="text/css">
	.st0{fill:#FFFFFF;}
</style>
<path d="M279.6,90.9c28.6,2.9,57.6,8.4,83.2,22.2c16.5,8.8,31.1,21.7,40.7,37.9c9.2-5,14-15.1,16.8-24.8c2.7-7.5,4.9-15.2,8-22.6
	c46,4.1,91.2,19,130.2,43.9c30.5,19.2,57.4,44.2,78.4,73.5c24.6,34.3,42.8,73.4,51.7,114.7c5.9,27.1,7.8,55.1,6.2,82.8
	c-2.2,37.2-10.5,73.9-22.8,109c-77.9,3.5-156.5,19.5-226.2,55.5c-33.4,17.2-64.6,39-92.1,64.6c-27.2,25.2-50.7,54.2-70.8,85.4
	c-14.6-39.1-19.2-81.5-15.3-122.9c3.7-37.6,13.7-74.4,28.1-109.2c14.3-34.2,34.2-66.2,59.5-93.4c-16,6.7-33.8,7.5-50.9,5.9
	c-18.7-0.4-39.2-0.4-55.2,10.7c-16,10.1-27,26.4-43.7,35.5c-7.9,3.5-17,2.1-25.1,0c-13.2-4-24.3-12.6-34.1-21.9
	c-10.4-10.2-19.4-21.8-27.8-33.8c19.9-29.1,34.8-61.2,51-92.4c11.3-21.8,22.4-43.9,37.7-63.3c16.8-21.9,37.7-41.2,62.6-53.7
	c10.3-5.3,21.3-9.1,32.5-12C304.9,150.7,297.7,117.7,279.6,90.9z"/>
<path class="st0" d="M237.5,273.5c16-16.9,35.1-30.7,54.9-42.7c-11.9,22.8-27.1,44.1-34.7,68.9c-12.6-0.1-25.2,0.1-37.9-0.1
	C224.1,289.8,230.4,281.2,237.5,273.5z"/>
</svg>
