<?xml version="1.0" encoding="utf-8"?>
<!-- Generator: Adobe Illustrator 21.1.0, SVG Export Plug-In . SVG Version: 6.00 Build 0)  -->
<svg version="1.1" id="Layer_1" xmlns="http://www.w3.org/2000/svg" xmlns:xlink="http://www.w3.org/1999/xlink" x="0px" y="0px"
	 viewBox="0 0 825 825" style="enable-background:new 0 0 825 825;" xml:space="preserve">
<style type="text/css">
	.st0{fill:#FFFFFF;}
</style>
<path d="M607.3,150.1c4.8-3.1,10.7-1.2,15.2,1.5c4,2.4,8.8,2.8,13.4,2.1c0,0.7,0.1,2.1,0.2,2.9c1.9-1,3.7-2.1,5.8-2.7
	c2.4,1.2,3.7,3.8,5.9,5.3c5.1,1.4,11,0.6,15.7,3.5c7.8,4.7,16.2,8.2,24,12.8c3.7-1,7.2-4.7,11.2-3c2.7,3.3-0.7,8.2,2.5,11.2
	c3.5,3.6,9,3.7,12.7,7.1c3.7-1.6,7.9-2.1,11.7-3.6c3.7-1.5,5.1-5.7,8.6-7.4c3.5-1.2,8.1-0.3,9.8,3.3c0.7,3.6-3.4,4.3-6,4.2
	c-3.7,8.3-10.3,15.3-19,18.2c4.8,6.6,5.1,16.2-0.2,22.6c-1.3-2.8-1.2-6-2.4-8.8c-1.2,5.2,1.6,10.2,0.5,15.3
	c-3.3-2.1-2.9-6.2-3.9-9.6c-1.4,10-2.5,20.3-1.4,30.4c-3,2.9-8,4.7-8.3,9.5c-1.5,11.1-4,22.1-5.7,33.2c-0.8,14.8-4.3,29.4-8.6,43.6
	c-1.5,4.9-4,10.3-9,12.4c-3.1,1.5-6.6,1-9.9,0.8c-3.6,3.9-9.2,6.6-14.5,4.8c-5.1-1.9-9.7-4.8-14.2-7.7c-1.3-8.3-1.8-16.7-3.8-24.9
	c0.7-1.4,1.6-2.8,2.1-4.2c-2.8-12-6.3-23.8-8.4-36c-0.7-3.4,0.8-7.4-1.6-10.4c-1.7-2.4-2.9-5.2-3.1-8.1c-2.6,3.4-5,7-7.2,10.7
	c-1.1,11.9-0.9,24-1.7,35.9c-0.5,7.8-0.2,15.5-1,23.3c1.2,5,2.7,9.9,3.7,14.9c1.9,13,1.6,26.4,5.2,39.1c-2.4,2.4-5,4.6-6.9,7.4
	c7.6,4.8,16.7,5,25.1,7.5c4.2,1.2,7.7,4.3,12.1,5c7.5,2,15.8,0.6,22.9,4.2c8.1,3.4,14,10.3,18.4,17.6c4.7,7.6,9.2,15.3,14.1,22.7
	c5.2,7,12.2,12.6,17.6,19.5c5,7.3,7.8,15.8,11.3,23.9c2.7,5.4,6,10.5,9,15.7c2.5,4.5,3.2,9.7,2.9,14.7c-1.5,1.1-3.2,2.2-4.5,3.5
	c-0.3,3.7-1.1,7.3-1.5,11c0.7,3,2.4,5.8,2.1,9c-0.4,2.3-3.4,3-5.4,2.4c-3.2-1-6-2.8-8.7-4.5c-3.8-2.4-5.6-7.1-9.9-8.9
	c-4.4-1.8-9.1-2.7-13.3-4.9c-1.7-2.9-3.2-5.8-4.8-8.7c-1.3,0.8-3.4,1.1-3.8,2.8c-1.1,3.2-1.3,6.6-2.7,9.6c-1.9-2.2-2-5.2-3.1-7.7
	c-1.9,1.2-2.9,4.2-5.4,4.1c-1.8-3-2.9-6.6-2.2-10.1c0.8-4.4,3.7-8,6.3-11.5c-4.3-0.4-8.7-1.1-13-1.4c-1.8,3.7-2.9,7.7-4.2,11.6
	c-4.3-5.7-0.1-13.7,5.5-16.6c-2.5,0.1-5.1,0.1-7.6,0c1.3-5.9,5.4-10.6,8.2-15.8c-1.8-0.5-3.6-0.5-5.5,0.1l-0.6,0.9
	c0.8-3.3,5.3-2.2,7.8-2.9c-0.3-1.6-0.8-3.1-1.2-4.6c-5.3,1-8.8,6.1-14.3,6.3c-0.1-0.5-0.3-1.5-0.4-2c2.6-1.8,6-2.1,8.6-4.1
	c-4.2-2-8.8,0.6-13.2-0.8c1-2.2,2.7-4.4,5.4-4.1c4.5,0.5,8.9,2,13.5,1.9c-1.6-3.6-4.5-6.6-8.2-8.1c-5.1-2.1-10.3-3.6-15.4-5.7
	c0.4,4.3,0.5,8.7,0.2,13.1c-1.3,2.7-3.1,5.2-3.3,8.2c-1.8,14.3,1.4,28.7-1,43c-0.7,2.4-0.8,5.4-3.2,6.8c-6.1,4.6-12,9.4-18,14.1
	c-6.3,4.8-10.3,12.1-17.1,16.2c-3-0.3-6-0.9-8.9-0.1c-6.2,1.4-10.2,6.9-16.2,8.9c-2.2-5.9-2.4-12.2-3.2-18.4c-0.7-7.7-1-15.4-0.2-23
	c2.5-0.4,5.2-0.5,7.4-2c-1-6.6-9.3-5-14-7c2.2-4.6,8.5-5,10.2-9.9c-3.2-0.6-6.2,0.7-9.2,1.9c4.4-2.3,8.4-5.4,12.3-8.5
	c2.8-2.3,3.6-6.4,6.8-8.2c3.3-1.3,7.3-1.4,9.8-4.2c-2.8-4.9-9.6-4.6-12.4-9.4c4.2-1.9,8.3,0.7,11.4,3.3c5.5-2.8,10.8,2.7,16.5,1.6
	c-3.1-3.4-9.3-1.4-11-6.3c2.6-0.9,5.1,0.2,7.5,1.1c3.1,1.2,6.8-1.1,7.1-4.4c0.6-5.4-1.7-10.5-4.3-15c-3.7-6.5-11.3-9.1-18.3-10.4
	c-6.1-1.4-12.4,0.2-18.6-0.7c-12.5-3.2-24.8-7.1-37.4-10c-13.7,1.9-27.1,5.2-40.7,7.7c-23.7,5.6-47.4,11.4-71.3,16.6
	c-10.6,2.2-21.2,4.6-31.9,5.9c-10.3,0.7-20.6-0.5-30.9-1.1c-11.7-1.2-23.4-1.3-35.2-0.8c-7.6,0.2-13.4,6.3-17.6,12
	c-3.3,5-6.8,11.5-3.9,17.5c2.9,6.8,3.1,14.3,5.1,21.3c4.8,11.8,5.3,24.8,9.8,36.7c1.4,4.3,3.4,8.5,4.8,12.9
	c2.3,7.5,6.2,14.3,10.1,21c6.9,11.4,13.4,23.6,24.2,31.8c10.2,7.8,18.2,18,27.9,26.2c7,1.7,13.9,4.1,20,7.9c2.6,1.6,4.9,4.1,4.9,7.3
	c0.5,7.4-0.7,15-3.4,21.9c-1.1,3.4-4.9,4.4-8.1,5.1c-11.2,2-22.9,1.3-33.7-1.9c-3.4-1.3-7.1-2.5-9.7-5.1c-0.5-4.4,0.9-8.7,1.2-13
	c-0.1-4-3.9-6.3-7.2-7.8c-3.5-1.8-7.5-2-11.2-3c-2.1-5.1-4-10.4-6.3-15.4c-3.8-7.3-8.7-14-12.7-21.2c-5.8-10.2-12.4-20-20.7-28.2
	c-6.1-6.2-13.4-11.4-18.3-18.6c-1.8-10.5-2.1-21.3-6-31.4c-5-14-11-29.3-24.2-37.4c-2.9,2.5-6,4.8-9.1,7.1c-9.3,7-14.5,18.1-24,24.9
	c-7.5,4.2-14.1,10-19.2,16.9c-5.1,7-2.9,16.2-0.4,23.7c3.7,10.6,10,19.9,15.4,29.7c4.7,7.9,9.2,15.9,14.6,23.3
	c7.6,8.1,18.3,12.5,25.7,20.9c-0.7,8.8-0.9,17.8-3.1,26.4c-0.9,4.1-4.4,7.1-8.3,8.2c-5.9,1.8-12.1,0.1-17.7-1.9
	c-6.2-2.4-12.3-5.8-16.3-11.3c-0.5-4.6,4-7.7,5.6-11.7c-7.2,2.1-14.7-0.7-21.5-3c-3-10.5-5.4-21.2-9.3-31.4
	c-0.6-15.8-6.5-30.8-12.1-45.5c-2.7-7.5-6.5-14.5-10.5-21.4c-2.9-5.5-8.1-9.7-9.6-15.9c-0.9-2.4,0.2-5.1,1.9-6.9
	c7.9-8.8,17.1-16.2,24.7-25.3c4.2-5,9.3-9.7,11.6-16c-3.2-4-6.2-8.2-9.2-12.4c-3.3-4.6-5.2-9.9-8.6-14.4c-3.3-4.9-7.7-9-11.2-13.7
	c-4.8-6.4-9.3-13.1-12.2-20.6c-0.2,6.7-1,13.4-1.1,20.1c0.1,10.8-3.9,21.2-3.2,32.1c-0.3,13.5,5.7,27.1,1.6,40.5
	c-1.7,6.4-0.9,13.6-4.8,19.3c-1.2,2.1-3.7,2.6-5.9,3.3c-3.4,1-6.1,3.3-9.2,4.9c-5,1-9-2.7-13.5-4.2c-2.4-1-5.1-0.5-7.6-0.1
	c0.4,4.3,1.7,9.7-1.7,13.3c-2.5,2.8-6-0.3-9,0.2c-2.5,0.5-5.6,0.5-7.2,2.9c-1.7,2-3.9,3.6-5.9,5.4c-3.6-0.6-7.2-1.7-10.9-1.6
	c-2.8,1.9-4.2,5.2-7.1,6.9c-2.2,1.3-4.6,2.4-6.9,3.5c-3.1-1.2-6.5-1.5-9.8-2c-8-1-15.9-2.2-24-2.4c-0.9-5.1-6.4-7.9-6.7-13
	c1-4.1,5.2-6.7,5.4-11.2c2.4-0.8,4.7-1.7,7.1-2.6c0.1-5.5-0.5-11.1,0.8-16.5c2,0.3,4,0.6,6.1,0.9c3.8-4.3,6.4-9.3,9.4-14.1
	c-0.9-1.8-1.7-3.8-2.2-5.8c0.6-4.4,1.2-8.8,2.6-13.1c6.2-0.5,10.2-5.6,15.3-8.4c0.2-2.1-0.4-4.5,0.8-6.4c2.9-5.1,6.2-10,7.7-15.7
	c4.4-9.3,9-18.5,14.6-27.2c4.2-9.4,8.4-18.9,12.9-28.2c3.2-4.5,8.4-6.8,12.1-10.8c4.9-5.1,9.8-10.2,14.6-15.4c4-4.3,9.8-5.7,14.9-8
	c6.7-4.7,15.1-5.8,21.8-10.4c5.6-6.6,10.9-13.6,17-19.8c6.2-4.8,10.7-11.3,16.4-16.6c9.1-9,18.3-19.3,31.3-22.5
	c23-6.1,47-6.6,70.6-8.1c11.6-0.8,22.9-4.3,34.2-6.6c21.5-1.8,43.2-4.3,63.9-10.8c8.8-2.9,17.5-6.5,25-12c5.6-5.1,10.7-10.7,16-16.1
	c-3.2,0-6.3,0.6-9.4,1.1c-0.7-2.8-3-4.4-5.7-5c-0.6-0.7-1.3-1.3-1.9-2c-1.1,1.8-2.3,3.6-4,5c-3.6-2.1-2.3-6.4-0.3-9.1
	c-1.8,0.5-3.5,1-5.2,1.5c0.1-2.8,0-5.6-0.9-8.3c-2,2.6-2,7-6,7.6c0-2.1,0.3-4.3,1.9-5.9c5.5-5.6,9.2-12.7,14.7-18.4
	c5.2-3.1,11.2-4.4,16.2-7.8c7.9-5.1,15.6-11.2,20.5-19.4c4.4-7.2,7.4-16.8,16.2-19.7c11.7-3.5,24.1-1.5,36.1-0.6
	c-1.5-4.6-6.7-5.1-9.9-7.9c-4.2-3-7.1-7.5-8.6-12.3c4.9,0.6,5.3,6.6,9.4,8.5c3.6,2,7.1,4.2,10.1,6.9c0.7-1.4,1.4-2.7,2-4.1
	c2.7,0.2,5.3-0.1,7.7-1.6c-0.1-2.4-0.6-4.8,0-7.2c4.1-4.4,10.7-2.7,16.1-3.1c5,0.3,8.5-4.2,13.4-4.7c2.4-0.6,5.1-0.1,7.2-1.6
	c2.8-2.2,4.3-5.8,7.5-7.5c4.8-2.8,10.4-4.3,15.9-5.2c5.3,0,10.3,1.8,15.5,2.7C609.6,153.1,608.4,151.6,607.3,150.1z"/>
<path class="st0" d="M644,444c9-1.7,18.9-0.8,26.8,4.3c8.1,5.5,14.7,14,15.4,24.1c-8.4-5.1-16.9-10.1-25.7-14.6
	c3.3,6.9,13.3,8.5,13.8,17c-5.1-0.9-9.1-4.5-13.9-6.1C659.3,458.3,653.4,448.6,644,444z"/>
<path class="st0" d="M679.7,504.8c1.5-7.3,11.2-11.1,17.2-6.7c0.3,3-0.6,6.8-4.1,7.4C688.5,506.1,684,505.3,679.7,504.8z"/>
<path class="st0" d="M613.6,497.8c0.6-0.4,1.2-0.8,1.8-1.2l-0.5,0.7c2.7,0.7,5.6,1.3,7.9,3.3C619.4,500.6,616.5,498.9,613.6,497.8z"
	/>
</svg>
