<?xml version="1.0" encoding="utf-8"?>
<!-- Generator: Adobe Illustrator 21.1.0, SVG Export Plug-In . SVG Version: 6.00 Build 0)  -->
<svg version="1.1" id="Layer_1" xmlns="http://www.w3.org/2000/svg" xmlns:xlink="http://www.w3.org/1999/xlink" x="0px" y="0px"
	 viewBox="0 0 825 825" style="enable-background:new 0 0 825 825;" xml:space="preserve">
<style type="text/css">
	.st0{fill:#FFFFFF;}
</style>
<path d="M199.1,130.5c4-3.2,6.1-8.9,11.4-10.4c1.7,4.7,2.7,9.6,2.9,14.6c1.7-1.7,3.1-3.5,4.6-5.3c-0.4,2.2-0.8,4.4-1.1,6.6
	c5.9-5.8,12.1-11.8,20.3-14.1c-7.1,4.3-13.8,9.4-18.6,16.1c8.3-5.5,18-9,27.9-9.8c6.8-0.8,13.4,1.8,18.6,6.1
	c4.2,0.2,8.4-0.8,12.6-0.2c14.4,0.7,29.8,0.7,42.8,7.9c-11.8-0.7-23.6-1.4-35.4-1.7c-4.8,0.2-9.8,0.1-14.5,1.4
	c19.7-0.9,40,2.1,57.8,11c-11,0.5-22.1,1.2-32.8,3.9c-5.9,1.6-12.2,3.6-16.3,8.5c12.3-4,25.3-6.5,38.3-4.9
	c12.9,1.5,26.5,4.9,36.2,14c7.4,6.6,10.3,17.2,8.9,26.8c-0.5,3,2.7,5.1,5.3,5.3c4.1,0.2,8.6-0.1,11.9-2.9
	c-1.1,6.3-3.5,12.6-8.8,16.6c-10.9,8.4-25.5,9-38.7,7.7c6.4,4.2,14.4,5,21.7,3.1c9.6-2.1,17.5-8.2,26.7-11.2
	c7.9-2.8,16.9-3.5,24.7,0.1c-3.4,0.4-7,0-10.1,1.5c-5.1,2.5-8.2,7.6-10.1,12.8c-3.3,9.2-6.2,18.7-11.5,27
	c12.3-5.7,24.3-15.1,27.3-29c0.6,4.9,0.9,10-1.2,14.6c-1.8,4.6-5.2,8.1-8.7,11.5c0.8,6.1,0.7,12.8-2.8,18.2
	c-5.2,8.2-15.1,11.8-24.5,12.3c0.5,4.6,2.9,9,6.7,11.7c7.1,5,16.5,6.1,24.8,3.8c7.4-2.4,12.6-8.4,18.8-12.7
	c-3.2,12.5-11.3,23.7-22.6,30.1c-12,7.1-26.4,9-40.1,8.3c17.9,11.3,40.1,11.6,60.6,10.7c20.5-1.8,40.8-4.5,61.3-6.3
	c12.5-0.9,25.1-2.6,37.6-1.4c16.6,2.9,30.8,12.5,44.4,21.9c5.9,0.7,11.8-0.9,17.8-1.1c12.4-1.2,26.5-1.1,36-10.3
	c-0.9,1.9-1.8,3.9-2.6,5.9c5.2-2.8,10.1-6.2,15.7-8.2c-5.7,3.7-11.7,7.1-16.6,11.9c12.2-5.2,26.5-5.4,38.8-0.4
	c6.2,2.4,10.5,8,11.8,14.4c-2.1-4.6-5.3-8.9-10.1-11c-9.8-4.7-21.6-4.7-31.4-0.2c3.5,1,7.1,0.9,10.7,1.8c9.7,1.9,18.9,5.8,27.3,10.9
	c7.6,4.5,13.6,11,20.1,16.9c13.7,13,26.4,27.5,43.1,36.9c16.1,9.3,35.7,9.2,53.4,5.1c-10.9,8-24.8,10.8-38.1,10.2
	c-13.5-0.6-27.1-3.1-39.1-9.5c-4.1-2.1-7.6-5.2-11.3-7.9c10,14.1,27.5,20.7,44.2,21.7c10.7,0.1,21.4,0.4,32.1,1.1
	c7.7,0.7,16.2,2.4,21.4,8.6c3.4,4,4.5,9.2,5.1,14.3c-2.2-3.8-4.5-7.9-8.8-9.5c-5.1-2.3-10.6,0.2-15.3,2.3
	c-13.8,6.9-27.5,15.4-43.2,16.8c11.1,6.6,24.9,6,37.1,3c5.1-1.1,9.7-3.7,14.1-6.3c-10.2,10.4-23.8,18-38.4,19.2
	c-14.9,1.9-30.2-1-43.6-7.7c-19.3-9.5-33.5-26.2-47.4-42.1c1.3,7.4,3.1,14.6,4.6,21.9c8.8,4.9,17.8,9.5,26.6,14.4
	c-13-1.3-24.6-8.3-34.9-16c-8.6-6.4-16.3-14-24-21.4c1.6,16.6,2,33.3,3.7,49.9c1.6,15.1,5.4,30.8,14.9,43c5.7,5.6,11.7,11,17.5,16.5
	c5.9,5.1,10.6,12,12.1,19.7c1.7,8.7,0.4,17.6,0.3,26.4c-0.5,10.2,0.8,20.3,3.5,30.2c3.2,13.1,8.8,26.1,8.2,39.8
	c-0.1,10.2,0,20.5-1.3,30.6c-7.5,6.7-18.1,6.2-27.5,5.9c-4.6-0.2-9-1.5-13.3-2.8c4.5-17.5,15.2-33.3,16.2-51.7
	c0.9-20-3.3-40.2-11.9-58.3c-8.1-17.2-19.8-32.5-33.3-45.7c-18.5-18.8-41-32.9-59.4-51.7c-8.3,8.1-17.1,15.8-25.7,23.6
	c-7.4,6.7-14.9,14.5-17.3,24.6c-2,8.2,1.5,16.3,4.2,24c3.5,9.6,9.4,19,8.5,29.7c-0.2,6-4,11.1-8.2,15.1
	c-7.4,7.1-16.2,12.3-23.8,19.2c-13.6,11.2-20.4,28.1-32.3,40.7c-4.4,3.8-10.2,5.1-15.1,7.9c-2.4,1.4-5.3,2.8-6.2,5.6
	c-1.4,3.9-1.2,8.2-3,12.1c-0.6,1.8-2.6,2.2-4.1,2.9c-11.5,4.6-24.4,3.2-35.8-0.8c6.7-14.5,20-24.3,32.6-33.5
	c7-5.6,14.8-10.4,20.9-17.1c11.5-12.4,20.9-26.4,31.6-39.4c4.4-7.9,5.7-17.6,4.3-26.5c-4.9-17-11.2-33.6-16.7-50.5
	c-5-16-6.2-33.6-0.7-49.7c-32,13.4-67.2,16.9-101.6,16.2c-16.9-0.8-33.9-3.1-50.1-8.5c-5.8,10.6-13.1,20.2-20.9,29.4
	c-8.5,10.6-18,20.8-23.6,33.4c-5.6,12.2-12.1,23.8-18.5,35.6c-2.4,4.7-5.3,9.2-6.6,14.3c-5.1,17.7-10.6,35.3-14.9,53.2
	c-4.2,4.3-10.3,6.5-13.8,11.5c1,5.5,1.3,11.8-2.3,16.4c-4.1,5.3-11.2,6.9-17.5,7.9c-8.7,1.5-17.4-0.3-25.8-2.6
	c10.7-13.3,20.6-27.2,30.8-40.8c11.6-15.5,21.3-32.8,26.2-51.7c4.5-17.1,6.4-34.9,12.2-51.7c2.3-6.2,3.4-12.8,4.7-19.3
	c2.8-14.3,5.1-28.7,7.8-43c-12.4,13.4-31.5,16.9-48.8,19c-14.3,2-28.6-0.2-43-0.2c-6.8,0.1-14.1,1.1-19.5,5.5
	c-3.7,2.9-4.9,7.9-4.9,12.5c0.2,7.1,2.4,13.9,5.1,20.4c4.2,9.8,8.5,19.7,10.6,30.2c7.5,3.2,17,2,23.1,8.1c6.9,9.5,6.1,22.5,1.5,32.8
	c-14.1-3.5-27.1-11.6-36-23.3c-6.4-8.5-10.7-18.5-14.8-28.3c-5.1-12.8-10.1-25.7-13.1-39.1c-2.1-9.2-2.4-19.6,3.2-27.6
	c5.7-8.2,15.6-11.4,24.6-14.4c9.2-3.2,19.1-5.2,27.3-10.8c13.6-8.8,24.8-21.8,41-25.9c-8.5-11.4-8.5-26.5-6.8-40
	c2.9-17.4,8.3-34.4,8.8-52c-0.2-17.4-2.6-34.6-4.5-51.9c-1.9-13.2-3-26.6-1.5-39.9c1-7.9,3.6-15.5,7.6-22.4
	c-16.8,6.8-35.2,2-52.6,1.9c-9,0.4-19.5,1.5-25.4,9.3c-6.3,0-12.6-0.2-18.8-1.7c-2.3-0.8-5.5-1.6-6-4.3c-1.4-7.5-4-14.7-6.5-21.9
	c7-6.3,14.8-11.7,22.4-17.2c24.8-17.5,49.5-35.5,76.5-49.5c0.4-10.1,2.7-20.2,7-29.3C196.9,123.4,198.1,126.9,199.1,130.5z"/>
<path class="st0" d="M227.9,139.8c8.8-7.8,22.5-11.5,33.5-6.3C250.4,136.6,238.9,137.3,227.9,139.8z"/>
<path class="st0" d="M326.5,179.7c5.4-2,11.4-2.1,16.7,0.1c7.9,3.1,15.5,9.1,17.2,17.8c-5.1-6.2-10.3-13.1-18.1-16.1
	C337.4,179.2,331.9,179.7,326.5,179.7z"/>
<path class="st0" d="M379.1,270.2c4.5-2.2,8-5.9,11.9-9.1c-0.7,4.7-3.6,8.8-7.6,11.2c-5.4,3.3-11.7,4.8-17.9,5.5
	C369.1,274,374.6,272.9,379.1,270.2z"/>
<path d="M610.2,341.3C610.8,341.9,610.8,341.9,610.2,341.3z"/>
</svg>
