<?xml version="1.0" encoding="utf-8"?>
<!-- Generator: Adobe Illustrator 21.1.0, SVG Export Plug-In . SVG Version: 6.00 Build 0)  -->
<svg version="1.1" id="Layer_1" xmlns="http://www.w3.org/2000/svg" xmlns:xlink="http://www.w3.org/1999/xlink" x="0px" y="0px"
	 viewBox="0 0 825 825" style="enable-background:new 0 0 825 825;" xml:space="preserve">
<path d="M239.9,205.6c6.1-3.6,13.1-5.9,20.2-5.8c30.8,1.6,58.8,18.8,89.9,18.4c11.9-0.4,22.6-6.1,34-8.8c4.4-0.9,9.5-1.7,13.6,0.8
	c7.9,4.6,14.6,10.9,21.7,16.6c3.9,2.9,8.9,5.4,13.8,4.1c3.1-0.6,5.7-2.7,8-4.7c-2.4,4.3-5.3,8.9-10.2,10.8
	c-5.3,2.3-11.2,0.3-16.4-1.5c-11.2-4.2-22.2-11-34.6-10.5c-4.2-0.1-8.2,1.2-11.7,3.4c12.4-1.6,23.9,4.9,33.9,11.6
	c10,6.4,19,14.8,30.5,18.4c5.3,1.8,11.3,1.9,16.4-0.4c6.3-2.8,10.9-8.2,14.9-13.6c-0.9,8.6-3.9,17.2-10.2,23.3
	c-12.5,12.2-31.6,16.1-48.3,12.2c-8.9-3.3-17.1-8.1-25.4-12.6c-12.2-6.4-23.8-14.9-37.8-17.1c-7.9-1.6-16.3-0.5-23.5,3.1
	c21.2,0.1,41.1,9.4,58.9,20.2c19.3,12.3,42.3,21.2,65.5,17.4c-9.2,5.3-20.3,7.2-30.7,5.5c-10.1-1.1-19.4-5.3-28.8-8.5
	c-9.4-3.3-18.8-6.8-28.4-9.2c11.1,5.4,21.1,13,30.8,20.6c9.5,7.7,20.8,13.7,33.1,14.6c8.2,0.7,16.1-1.6,24.1-2.9
	c13-2.1,26.8,1.6,37,9.9c8.4,6.7,14.2,16.6,15.8,27.2c-9.7-5.8-14.9-17.8-26.7-20.2c-11.6-1.9-23.6-0.3-35.1,1.8
	c-13.2,2.7-26.4,5.4-39.9,6.1c-10.8,1.2-21.7-1.7-31-7c-5.3-3-10.8-5.9-16.7-7.8c9.6,17.3,26.4,29.8,44.6,36.9
	c23.4,9.1,48.9,11.6,73.8,11.2c10.6-0.2,21.2,0.3,31.8,1.2c21.2,2.1,43.4,7.2,59.6,21.9c9.4-4.9,18.6-10,28.3-14.3
	c11.5-4.6,24.2-5,36.3-2.8c10.6,2,20,7.9,27.5,15.6c7.9,8.5,15.4,17.3,23.2,25.9c4,5.1,9.6,8.5,15.1,11.9
	c13.5,7.9,29.8,11.2,45.3,8.7c10.6-1.4,21.2-5.3,28.6-13.3c9.5-9.7,12.2-24.2,10.9-37.4c3.7,9.6,7.2,19.4,10.1,29.2
	c0.7,2.4,0.4,5,0.5,7.4c-0.2,4.9,0.6,10-1,14.8c-3.1,11.4-11.6,20.7-22,26.1c-15,7.9-32.3,11.2-49.1,10.7
	c-13.4-0.3-26.5-4.4-38.2-11.1c3.9,10.8,15.8,15,26,17.3c17.4,3.5,36.8,4.2,52.6-5.2c-4.9,10.9-15.8,18.2-27.5,19.9
	c-14.9,2.2-30.3,0.3-44.3-5c-8.4-3.1-15.9-8.1-22.4-14.2c3.4,9.2,9.8,17.3,18.6,21.9c9.6,5.1,20.8,6.4,31.5,6.2
	c-8,3-16.8,4.8-25.3,2.8c-9.1-1.9-17.2-7.2-23.5-13.8c-6.7-6.5-12.7-13.6-19-20.5c4,8,5.2,17.2,5.1,26.1c-0.2,5.7-1.3,11.5-4,16.6
	c0.2-8.5-5-16.1-11.6-21c-6.8-5.4-14.6-9.9-19.4-17.3c-8-12.5-12-27-17.6-40.6c-4.3-9.9-10.5-19.7-20.2-24.9
	c8.3,19.3,13.1,40.1,13.8,61.2c0.7,8.6,0.6,17.4-1.2,25.9c-1.1,5.7-2.2,12.1,0.8,17.5c2.5,5.1,7.2,8.6,12.2,11.2
	c7.6,3.7,15.6,6.6,22.6,11.3c1.9,0.9,1.5,3.2,1.8,4.9c0.8,12.4,1.4,24.8,1.8,37.2c0.9,16.2,0.8,33.2,8.5,47.9
	c-3.7,1.6-7.3,3.6-10.8,5.6c2.5,5.6,5.9,11.1,5.3,17.5c-11.3,0-22.5,0-33.8,0c8.6-16.1,15.7-33.6,16.4-52
	c0.3-13.2-3.9-27.2-13.8-36.3c-12.1-10.3-27.9-14.2-42.3-20.1c-7.2-3.2-15.3-4.9-21.3-10.3c-4.5-3.9-8.7-10.9-15.6-9.2
	c1.5,5.6,3.4,11.2,6.7,16c6.8,10,16.6,17.1,25.6,24.8c-1.7,13.4-10.6,24.3-19.2,34.1c-8.2,9.3-14.4,20.8-15,33.4
	c-3.4-1.5-6.8-2.9-10.5-3.5c-2.8,4.9-0.4,10.4-1,15.6c-8.5-0.2-17.1,1.8-25.3-0.7c0.1-3.3,2-6,3.6-8.8c5.7-9.1,12.7-17.4,19.6-25.6
	c6.5-7.3,12.3-15.8,14.4-25.5c1.6-7.5,0.3-16.1-5.6-21.5c-7.2-6.5-16.1-10.5-23.9-16.1c-12.3-14.6-24.5-29.3-36.9-43.9
	c-37.9-0.8-75.8-1.4-113.6-2.3c-17-1.6-34-4.6-50-10.6c-12.8-4.9-25-12.1-34-22.6c-14.4,5.5-30.3,4.8-44.6,10.5
	c-3.3,1.2-6.2,3.2-8.9,5.5c4.6,7.4,14.4,6.1,21.9,7c-2,3.9-5.5,7.2-6.1,11.7c0.2,0.7,0.6,2.2,0.8,2.9c3.2,1,6.5,1.1,9.7,0.3
	c2.7-0.7,5.8,1.1,6.3,3.8c2.6,8.5,3.2,17.5,3.3,26.3c-10.1,0.9-20.2,0.9-30.3,1.3c-6.9-13.7-22.7-19-31.7-30.9
	c-1.2-1.2-0.2-2.9,0-4.4c1.3-4.8,3-9.6,3.2-14.6c-15.3,6-28.9,16.6-38,30.4c-5.3,8.2-9.3,17.2-11.8,26.6c-2.4-1.2-5.3-2.6-8-1.2
	c-5.1,2.6-6.7,8.5-9.5,13.1c-2.4,4-4.7,8.5-8.8,10.9c-11.5-0.6-23.3,2.4-34.5-1.2C71,552.1,81.7,539.7,83,524
	c20.4-5,36-20.3,49.2-35.9c13-14.8,27.7-29.6,47-35.6c0.7-7.9,3.5-16.2,10.1-21.1c4.6-3.6,10.4-4.9,16.1-5.6
	c-6.3-10.5-7.5-23.8-2.9-35.2c4.4-10.8,8.9-21.6,13.7-32.2c4.1-16.2-3.3-33.5-15.8-44.1c-3.2,8.5-8.8,15.8-15.2,22
	c-6.8,6.2-13.7,12.2-20.4,18.5c-2.3,2.3-5.1,4.4-6.8,7.3c-0.8,4-0.8,8.2-2.8,11.9c-2.1,4.4-6.4,7.9-11.3,8.4
	c-13.1,1.7-26.1-10.2-25.3-23.4c0.4-8.9,3.5-17.5,6.3-25.9c3.8-11.7,9.9-22.8,11.2-35.3c0.7-4.9-0.2-10.2-3.2-14.2
	c4.4-4.6,7.2-10.3,10.4-15.7c-3.8-5.2-3-12.1-2-18.1c1.8-9.3,3.3-19.2,0.3-28.5c5.6,3.6,10.9,7.7,16.3,11.7
	c4.2,3.1,9.7,4.2,14.7,2.6c2-0.7,4.7-1.1,5.5-3.4c2.2-7.1-1.5-15.1,2.4-21.8c7.2,5.8,7.2,16.6,14.4,22.3c2.2,2.1,5.2,0.3,7.6-0.3
	C217.2,226.8,226.4,213.1,239.9,205.6z"/>
</svg>
