<?xml version="1.0" encoding="utf-8"?>
<!-- Generator: Adobe Illustrator 21.1.0, SVG Export Plug-In . SVG Version: 6.00 Build 0)  -->
<svg version="1.1" id="Layer_1" xmlns="http://www.w3.org/2000/svg" xmlns:xlink="http://www.w3.org/1999/xlink" x="0px" y="0px"
	 viewBox="0 0 825 825" style="enable-background:new 0 0 825 825;" xml:space="preserve">
<style type="text/css">
	.st0{fill:#FFFFFF;}
	.st1{fill:#969696;}
</style>
<path d="M346.4,94.4c0.7-1.7,2.3-2.7,3.8-3.7c0.6,6.5,2.2,12.9,3.4,19.3c1.2,5.5,2.1,11.2,4,16.5c2.5,7.6,6.9,14.5,7.8,22.6
	c2.6,14.9-1.2,30.4-8.3,43.6c13.1-3.6,26.2-7.6,39.7-9.6c6.6-1.3,12.8,2.6,19.3,2.5c9.1-1.3,15.8-8.5,20.9-15.6
	c14.4-19.8,18.8-44.5,31.5-65.2c4.3,2.8,6.6,7.6,8.4,12.3c2.7,7.1,4.4,14.6,6.1,22c1.7,8.4,3.5,17,2.8,25.6
	c-1.9,12.6-8.9,23.6-15.1,34.4c1.9,6.8,3.5,14,1.4,20.9c8.1,10.8,7.7,25.8,17.1,35.7c10.3,9.7,21.9,17.9,32.4,27.4
	c3.1,2.8,9.2-0.7,11,3.6c6.4-3.5,14.5-4.3,20.8-0.1c9.2,6.2,13.9,16.7,18.6,26.4c4.5,11.3,14,19.9,17.2,31.8
	c1.9,6.7,0.8,14.5-3.3,20.1c-7.1,8-15.8,14.2-24.1,20.7c1.3,3.3,0.8,6.9-1,9.9c2.1,2.1,4.5,3.9,6.4,6.3c4.3,7.2,2.3,16.8,7.4,23.7
	c6.7,8.5,18.5,11,24.8,19.9c1.5,4.9,1.8,10.2,4.4,14.8c3.5,5.1-0.2,11.3,0.6,17c0.9,6.7,3.7,13,3.8,19.9c0.4,9.4,0,19.5-5.2,27.7
	c-3,5.1-10.1,5.1-13.3,10c-3.9,6.4-4.8,14.3-10.1,19.8c-4.1,5-11.1,6.9-14.1,12.8c-2.7,4.8-3.1,10.9-7.1,15c-1.8,1.5-2.2,3.9-2.8,6
	c-10.7,34.7-28.5,67.9-55.1,93c-13.7,13.1-29.9,24.3-48.5,28.9c-9.8,2.6-20,2.6-30,1.7c0.1-0.2,0.2-0.6,0.3-0.8
	c16.7-0.3,33.1-5,47.6-13.3c17-9.6,31.3-23.3,43.6-38.4c18.3-22.2,31.7-48.2,39.7-75.8c-3.6,0.8-7.1,1.7-10.7,2.6
	c-4.9,21.2-13.9,41.6-27,59c-23.5,31.4-58.4,52-94.5,65.6c-2,0.9-4.1-0.2-6.2-0.5c2.9-15.5,1.3-31.4,2.7-47
	c-12.3,15.3-25.6,29.8-41,42c-15.5,12.3-33.9,21-53.2,25.2c-18,3.9-36.7,4.5-54.9,2c-18.4-2.5-36.2-9.5-51-20.7
	c-15.1-11.4-27-26.6-35.6-43.2c-3.1-6.2-5.9-12.7-6.8-19.7c-0.4-7.7-0.3-16.2,4.7-22.5c1.8-2.4,5-1.9,7.5-1c0-36.6,2.8-73.2,8-109.5
	c7.4-50,20.2-99.4,40-146c15.6-36.7,35.5-71.6,59.5-103.5c1.9-3.2,5.4-5.7,6.3-9.3c-0.8-13,6.6-24.4,9.5-36.6
	c2.5-13.8,0.1-27.7,0.3-41.5c-0.2-9,3.3-17.5,6.5-25.7C325.5,133,335.9,113.7,346.4,94.4z"/>
<path class="st0" d="M317.6,162.1c6.4-24.1,18.7-46.2,32.1-67.1c2.2,12.9,3.6,26,6,38.9c2.2,8.4,5.8,16.5,6.6,25.2
	c0.3,14.6-7.9,27.3-12.7,40.6c-1.5,0.6-3,1.2-4.5,1.9c0.9-2.2,1.8-4.4,2.7-6.6c-3.8,4.7-5.8,11.3-11.7,13.9c-3.1-1-5-4.4-3.7-7.5
	c2.6-5.2,7-9.1,10.4-13.8c3.6-5,7.2-10.4,8.1-16.7c-2.9,4-5.2,8.4-8,12.5c1.5-7.2,5-13.8,7-20.9c-7.5,7.9-8.8,19.5-15.4,28
	c-1.4,1.9-3.3,3.1-5.3,4.2c0.4-12.8,6.1-24.5,10-36.5c-5.1,3.9-5.5,11-9.8,15.5c1.9-22.2,6.1-44.8,16.6-64.7
	c-6.5,6.6-9.8,15.5-12.9,24c-4.4,13.1-8.4,26.4-10.2,40c-1.6,12.8-1.6,26.7,4.9,38.3c-3.2,6.4-8.6,11.5-12.2,17.7
	c1.9-12.6,0.3-25.4-0.7-38.1C313.5,181.3,315.3,171.5,317.6,162.1z"/>
<path class="st0" d="M468.4,109.8c3,11-0.3,22.4-5.3,32.3c-2.3,4.1-4.2,8.4-6,12.8c-1.2-0.3-2.1-1.1-3.1-1.8
	c0.3,12.7-6,24.5-14.9,33.2c3.4-0.9,6.3-2.8,8.9-5.1c-1.8,3.5-4.1,6.6-6.5,9.7c-6.4-0.9-12.9-1.9-19.3-3.1c1.9-1.7,3.8-3.4,4.8-5.8
	c7.6-5,13.5-12.1,18.1-19.9c6.3-10.4,10.1-21.9,14.5-33.2C462.4,122.4,465.1,116,468.4,109.8z"/>
<path class="st0" d="M445.6,193.3c12.5-25.8,24.2-52.6,26.8-81.5c3.8,18.3,9.6,36.4,10.2,55.2c-0.1,3.7-0.8,7.5-2.7,10.8
	c-4,7.6-9,14.6-13.4,22c0.4,5.4,4.6,9.8,4.3,15.3c-5.5-5.1-10-11.1-14.6-17c4.3-2.8,9.2-4.9,12.9-8.5c-2.5,0.1-5.2-0.3-7.3,1.3
	c-2.9,2.1-5.3,4.8-8.2,6.9c0.1-5.2,4.2-9.1,8.2-11.8c6-4.1,12.4-8.3,15.7-15.1c-5.1,4.4-10.2,8.9-16.3,12c0.6-0.9,1.7-2.6,2.2-3.4
	c-6.3,3.2-10.2,9.4-12.5,15.9C449.4,194.8,447.5,194.1,445.6,193.3z"/>
<path class="st0" d="M363.6,193.8c14.1-4.6,29.2-9.2,44.1-6.1C392.8,187.8,378.4,192.1,363.6,193.8z"/>
<path class="st0" d="M392.6,191.8c10.6-1.4,21.4-3.4,31.9-1.1c16.1,3.2,30,13.4,40.9,25.3c-9-5.7-18.9-10.2-29.4-12
	c-23.2-4.2-46.9,0.2-69.2,6.9c-19.7,6.2-39.3,16.6-50.9,34.3c-1.4-1.1-2.9-2.2-4.5-3.2c3.1-8,8.9-14.6,14.8-20.7
	C344,203.9,368.5,195.5,392.6,191.8z"/>
<path class="st0" d="M413.1,204.1c17.6-1,35.6,4.2,49.5,15.2c5.9,4.6,10.6,10.8,13.4,17.8c-9.6-4.5-17.6-11.7-27-16.7
	c-12-6.8-26.3-8-39.8-7.2c-17.9,1.2-35.1,7.5-50.8,16c-14,7.6-26.3,18.2-35.6,31.2c-2.9-3.4-5.2-8-3.3-12.4
	c2.6-6.7,8.5-11.4,13.6-16.2C355,212.8,384.5,205,413.1,204.1z"/>
<path class="st0" d="M343.5,243.5c18.8-13.9,41.2-23.1,64.5-25.1c2.8-0.2,6.1,0.1,8,2.6c11.2,13.3,18.1,29.6,29.4,42.7
	c9.6,11.3,21.9,21.1,36.5,25c7.7,2.2,15-5.1,15.2-12.6c0.2-2.9-0.9-5.7-1.6-8.5c7.6,2.7,13.5,8.5,18.5,14.6
	c-0.6,10.7-1.8,21.4-2.6,32.1c-0.5-3.1-1.6-9.2-2.1-12.3c-1.1,3.9,0.4,7.6,1,11.3c2.4,10.6,4.2,21.4,8,31.6
	c3.1,4.9,7.1,9.3,10.9,13.7c-15.1,1-29.7,6.2-42.3,14.4c-13.8,8.8-25.3,20.4-38.1,30.6c-5.4-5.5-12.2-9.4-18-14.5
	c4,6.5,9.2,12.3,15.5,16.6c-8.8,12.5-21.6,21.7-29,35.2c-15.6-11.1-30.8-23.1-43.6-37.3c-9.9-11.2-18.9-23.9-22.9-38.5
	c3,2.4,5.9,4.9,8.6,7.7c8.4,9.8,19.8,16.3,31.5,21.3c-11.1-10-25.2-16.2-34.6-28.1c-5.1-6.1-9.1-13.6-9.1-21.8
	c-1.1-9.5-0.6-19.3-2.8-28.6c-3.7-9.1-8-17.9-11.9-26.9c-1.5-4-3.3-8.2-3.3-12.6c0.6-5.2,4.1-9.5,5.2-14.6
	c-5.9,1.5-7.9,7.7-8.3,13.1c-2-3.7-0.5-8,0.7-11.7C330,254.6,336.8,248.7,343.5,243.5z"/>
<path class="st0" d="M421.9,219.2c4,0.2,6.6,3.5,8.5,6.7c6.4,10.9,12.5,22,19.2,32.6c9.6,10.2,23.4,17.2,37.7,16.7
	c4.1-4.4,2.9-10.8,0.5-15.7c4.2,3.5,5.6,9.2,6.2,14.4c0.4,3.5-0.5,7.4-3.4,9.7c-5.8,0.9-11.4-1.6-16.6-3.8
	c-10-4.7-19.6-10.5-27.7-18.2C435,249.5,431.7,232.4,421.9,219.2z"/>
<path class="st0" d="M430.8,219.5c13.7,0.3,24,10.7,33,19.8c9,9.8,19.4,19.7,22.3,33.2c-15.1-1.9-28.9-10.4-38.2-22.3
	C440.3,241.1,435,230.4,430.8,219.5z"/>
<path d="M341.5,266c10.3-13.6,31.4-11,41.4-25.1c-1.1,2.7-2.2,5.6-4.4,7.6c-5,5-12,7.1-18.6,9.4C353.6,260.1,347.3,262.5,341.5,266z
	"/>
<path class="st0" d="M311,246c2,2.3,4.3,4.4,5.7,7.1c3.7,11.1,6.6,22.4,10.6,33.4c5.2,12.1,11,24.1,15.2,36.6
	c1.2,3.5,2.1,7.1,1.9,10.9c-0.7,10.1,0.4,20.2,2.1,30.1c2.6,14.7,8.7,29.1,19.2,39.9c-1.3-1.1-2.5-2.4-3.7-3.6
	c-1.2,1.4-3,1.6-4.1-0.1c-0.6,0.5-1.1,1.1-1.7,1.6l0.7,0.5c-2.7,3.1-4,7.3-7.2,10c-1.2-4.2-0.7-9.1,2.8-12.1
	c0.7,0.1,2.1,0.2,2.8,0.2c0.5-0.5,1.1-0.9,1.6-1.4l-1.3-2.1c0.6,0.6,1.9,1.7,2.6,2.3c0.6-0.4,1.2-0.8,1.9-1.2
	c-5.6-6.1-9.9-13.4-13-21c-4.5-14-6-28.7-8.6-43.1c-2.6-9.6-6-19-9.1-28.4c3,21.2,7.8,42.1,11.4,63.1c-11.2-20-23-39.8-31.2-61.3
	c-4.6-12.3-8-25.3-7.6-38.5c0.2-6.6,2.5-13.1,6.6-18.3c5.8,14.4,10.8,29.1,16.4,43.6c1.5,3.4,1.8,7.3,4,10.4
	c0.2-3.2-2.1-5.7-2.9-8.7c-3.4-10.7-8.2-21-9.9-32.1C314.9,257.8,312.9,251.9,311,246z"/>
<path d="M404.4,287.7c-3.5-9-6.8-18.1-12.2-26.2c5.9,2.3,11.3,6.4,14.1,12.2c4,8.1,4.4,17.5,3.4,26.4c-0.6-5.1-2.7-9.7-3.9-14.6
	C405.4,286,404.7,287.1,404.4,287.7z"/>
<path class="st0" d="M216.8,434.5c17.8-58.4,42.5-115.5,79-164.8c-0.6,15-0.4,30-0.2,45c-2.4,2.6-5.6,4-8.5,5.7
	c1.1,6.6-4.9,10.8-7.3,16.2c-2.6,7.2,0.2,15,4.4,20.9c-7,16-9.6,34.4-4.2,51.3c1.3,3.9,3.9,7.3,5.6,11.1c2.3,7.9,2.4,16.4,5.4,24
	c2.8,6.9,5.5,13.9,8.6,20.6c-5.3,21.4-13.7,42-18.5,63.6c-3.8,17.1-5.1,34.9-2.6,52.2c1.5-34.9,9.4-69.4,22-101.9
	c3.1,5.3,5.1,11.5,10.5,15c0.4-0.5,0.8-1,1.2-1.5c-5.5-6.9-8-15.7-9.8-24.2c-4-22.3-3.2-45.1-5.5-67.6c2.5-0.4,5-1,7.6-1.6
	c0.7,14.7,1.9,29.3,2.6,44c1.2,19.4,4.1,39.7,15.3,56.1c-4.6-2.7-7.1-7.6-11-11.1c1,2.6,2.3,5.2,3.1,7.9c5.4,3.2,10.8,6.5,16.2,9.6
	c5.3,3.2,8.4,8.9,13.9,11.9c5.5,3,11.9,3.9,18,4.7c12.6,1,25.3,0.1,37.8-1.4c0.1,7.8-0.2,15.7,0.2,23.5c1.6,21.4,5.9,42.5,12.6,62.9
	c0.5,1.6,1.1,3.3,0.7,5c-0.4,11-4.1,21.5-8.5,31.6c-12.4,28.4-34.4,53.7-63.5,65.5c-20.6,8.5-43.8,9.7-65.6,5.3
	c-17.5-3.6-34.1-11.7-48-22.9c-12.8-10.2-23.6-22.8-32.5-36.6c-3.6-5.8-6.8-12-7.8-18.7c-0.6-11.3,2.8-22.3,3.5-33.5
	c2.4-31,5.5-62,9.8-92.8C205.3,484.5,209.8,459.2,216.8,434.5z"/>
<path class="st0" d="M297.1,298c-1-9.6-1.8-19.9,2.4-28.9c0.4,4.6-0.1,9.2,0.4,13.8c2.7,15.2,5.7,30.4,7.9,45.8
	c-0.6,0.7-1.1,1.5-1.7,2.2c-0.8-5.3-1.4-13.5-8.1-14.5C298.2,310.3,297.3,304.2,297.1,298z"/>
<path d="M353.5,278.5c4.4-4,10.7-5,16.5-4.7c5,0.1,10.6,1.3,13.7,5.6c5.8,7.1,7.4,16.6,13.6,23.4c2.7,0.6,5.6,0.8,7.7,2.8
	c-3,1.1-5.6-0.9-7.9-2.5c-4.1-1.2-8.5-0.6-12,2.1c-5.2,3.9-10.3,8.9-17.2,9.2c0.2,0.5,0.7,1.4,0.9,1.8c-8.3,1.1-14.1-5.7-19-11.2
	c0,6,3.6,11.6,8.7,14.7c4.8,2.9,10.8,5.1,16.4,3.3c2.5-0.7,4.7-2.2,7-3.4c-2.6,2.8-5.9,5.6-9.9,5.8c-6.8,0.4-13.2-2.9-18.4-7
	c-5.2-4.1-7.4-11.1-6.2-17.4c-2.2-0.7-4.8-1.1-6.4-3.1c-4.3-5-4.2-12.7-0.5-18c0.4,0.8,0.7,1.7,1,2.6c1.5,1.5,3,3,4.6,4.4
	C350.2,285.8,351.2,281.4,353.5,278.5z"/>
<path class="st0" d="M354.8,285.6c2.4-4.5,6.8-8.4,12.1-8.2c10.5,0.5,22.1,7.4,23.1,18.7c-5.8-3.5-6.4-11.6-12.2-15
	C370,277.7,361.8,282.3,354.8,285.6z"/>
<path d="M504.2,281.8c3.7,7,5.1,15.1,4.7,22.9C506.6,297.3,505.5,289.5,504.2,281.8z"/>
<path class="st0" d="M371,285c0.4-1.2,2.1-0.5,2.9-0.1c2.2,1.8,2.7,4.8,3.6,7.3C375.2,290,373.1,287.5,371,285z"/>
<path class="st0" d="M539.4,287.5c4-0.6,8.1-0.7,12.2-1.2c6.6,11.4,13.7,22.4,19.8,34c2.7,5.2,5.4,10.5,6.9,16.2
	c1.2,5.6-0.8,11.3-3.7,16.1c-4.6,7.7-11.8,13.3-18.3,19.3c-6.4-5-11.1-14.4-20.5-13.3c-6.9-9.6-13.5-19.4-20.9-28.5
	c-2.4-3.1-2-7.3-1.5-10.9c1.8-8.4,6.6-15.7,8.7-24c2.7-0.5,5.5-0.7,7.9-2C533.3,291.4,535.9,288.7,539.4,287.5z"/>
<path class="st0" d="M360.1,292.4c1.2-3.4,7.8-3.2,7.8,0.5C365.5,294.6,362.5,293,360.1,292.4z"/>
<path class="st0" d="M379.4,289.4c3.3,2.1,4.6,6.8,2.2,10C381,296.1,380.5,292.7,379.4,289.4z"/>
<path class="st0" d="M354.1,298.6c2.1,1.6,4,3.5,5.6,5.7C356.7,303.8,355.1,301.2,354.1,298.6z"/>
<path class="st0" d="M360.8,309.6c6.5-0.6,13-1.4,19.4-3.3C373.9,308.5,367.4,310.8,360.8,309.6z"/>
<path d="M493.7,312.9c6.2,14.5,12.8,29,19.2,43.4C504.1,343.2,495.8,328.9,493.7,312.9z"/>
<path class="st0" d="M288.4,327.1c-2.7-7.6,12.3-10.8,13.4-3.1c2.1,7.8,2.2,15.9,2,23.9c-4-6.5-2-15.1-6.3-21.4
	C295.1,323,291.4,326.2,288.4,327.1z"/>
<path class="st0" d="M310.6,320.6c2.1,4,3.4,8.4,5.3,12.5c-1.4,1.5-2.9,3-4.4,4.5C310.8,331.9,311,326.2,310.6,320.6z"/>
<path class="st0" d="M281,341.9c0-7,5.7-14.8,13.4-13.3c-4.7,5.2-5.5,12.7-4.2,19.2c0.5,2.5,2.2,4.4,3.7,6.4
	c-2.4,0.9-5.4,2.4-7.8,0.6C281.7,352.3,280.5,346.7,281,341.9z"/>
<path class="st0" d="M578,329.1c5.4,5.1,8.8,12.4,7.8,19.9c-1.7,14-10.9,29-25.8,31.4c-1.1-2.1-2-4.3-3-6.5
	c8.5-5.1,16.9-11.6,21.2-20.8C581.7,345.5,580.7,336.8,578,329.1z"/>
<path class="st0" d="M306.2,332c0.6-0.6,1.2-1.3,1.8-1.9c0.6,6.6,1.1,13.1,1,19.7c-3.1,1-6.3,1.9-9.5,2.8c-1.3-3.5-2.2-7.2-1.9-11
	c1.2,2.8,1,6.4,3.4,8.6c2,1.8,4.8-0.1,5.2-2.4C307.8,342.7,306.8,337.2,306.2,332z"/>
<path class="st0" d="M295.7,351.5c-3.3-3.7-5-9.5-2-13.9C294.1,342.3,294.7,347,295.7,351.5z"/>
<path class="st0" d="M317.5,341.4c5.3,5.4,3.6,13.8,1.8,20.3C317.6,355.2,317.1,348.2,317.5,341.4z"/>
<path class="st0" d="M313.4,345.6c1.3,1.5,1.6,3.5,2.1,5.3c-0.3-0.1-1-0.2-1.4-0.3C313.5,349,313.1,347.3,313.4,345.6z"/>
<path class="st0" d="M311.8,349.9c3.4,4.8,4.1,10.8,4,16.5c2.1-0.9,4.3-1.6,6.5-2.2c5.4,15.4,10.5,31,17.2,45.9c2,4,5.9,6.5,9.7,8.5
	c1.8,5.5,4.5,10.7,7.9,15.3c3.8,5,10.1,7,14.2,11.7c2.8,3.2,5.6,6.9,9.7,8.6c2.9,1.3,6.1,1.2,9.2,1c6.3,5.3,7.9,13.9,9,21.6
	c1.5,13.4,1.2,27.1,5.4,40.1c-15.7,2.8-32.1,4.3-47.8,0.4c-10.3-2.5-19.9-8.2-26.2-16.8c-9.8-13.3-14.9-29.4-18.2-45.4
	c-5.5-28.7-5.6-58.1-4.1-87.2C308.9,361.9,310,355.8,311.8,349.9z"/>
<path class="st0" d="M289.9,358.6c4.9-2,10.1-3.3,15.1-4.8c0.2,3.1,0.5,6.3,0.8,9.5c-7.2-0.2-13.1,5-20.3,5.3
	C285.2,364.9,286.1,360.3,289.9,358.6z"/>
<path class="st0" d="M325.5,356c2.1,4.9,4.3,10.1,4.2,15.6C327.4,366.8,326.9,361.2,325.5,356z"/>
<path class="st0" d="M497.5,369.7c11.4-7.3,25.6-10.7,38.9-8c10,2.5,16.9,11,21.4,19.8c-14.3-6-30.6-5.4-45,0.1
	c-8.7,3.5-17.5,7.5-24.6,13.8c-15,12.3-30.2,24.5-45.3,36.8c-1-2.5-1.9-5.4-4.4-6.7c-1.6-1.2-3.7-0.4-5.5-0.1
	c10.1-12.2,21.1-23.9,33.8-33.5C477,384.3,487.3,377,497.5,369.7z"/>
<path class="st0" d="M280.7,383.2c0.6-4.5,0.4-9.2,1.8-13.6c2.3,14-1.3,28.2,1.1,42.2C280,402.8,280,392.8,280.7,383.2z"/>
<path class="st0" d="M290.6,372.4c2-1,4.1-2.1,6.1-3.2c1.8,3.8,0.6,8.1,1.2,12.2c-2.4,0.7-4.8,1.3-7.3,1.7
	C290.6,379.5,290.6,375.9,290.6,372.4z"/>
<path class="st0" d="M329.1,383.3c0-4.5,0.9-9.1,3.5-12.8c1.1,0.9,2.1,1.8,3.2,2.7C333.6,376.5,331.8,380.2,329.1,383.3z"/>
<path class="st0" d="M299.6,382.2c0-2.9,0.5-5.7,1-8.5C301.5,376.6,302,379.9,299.6,382.2z"/>
<path class="st0" d="M336,376.2c3.1,0.7,6.4,1.8,7.8,5C340.8,380.3,338.6,378,336,376.2z"/>
<path class="st0" d="M287.9,378.5c1.1,1.9,0.6,3.8-0.5,5.6C287.5,382.2,287.6,380.3,287.9,378.5z"/>
<path class="st0" d="M512.5,384.2c9.2-4.9,20-7.4,30.3-5.6c6,1.1,11.3,4.7,14.7,9.6c-7.8-4.6-17.1-6.5-26-5
	c-20.7,2.6-38.6,14.9-53.8,28.4c-16.1,13.8-29.5,30.6-46.7,43c9-16.1,22.7-29.1,37.1-40.5C482.3,403.4,496.6,392.5,512.5,384.2z"/>
<path class="st0" d="M335.9,380.7c2.2,2.3,4.3,4.7,6.6,6.9c-1.5,3.8-2.7,7.8-3.8,11.7C333,394.8,334.6,386.9,335.9,380.7z"/>
<path class="st0" d="M289.3,386.6c4.3-1.3,8.7-2,13.2-2.4c0.4,3.4,1,6.7,1.5,10.1c-4.6,1-9.3,2.1-13.9,3
	C290,393.7,289.6,390.2,289.3,386.6z"/>
<path class="st0" d="M531.9,387.2c4.7-1.5,9.6-1.1,14.5-0.7c-4,1.3-8.4,0.5-12.3,2.2c-5.5,2.4-10.2,6.4-14.2,10.9
	c-0.9-1.4-2-2.8-3.9-2.6C520.6,392.9,525.7,388.9,531.9,387.2z"/>
<path class="st0" d="M345.4,389.4c3.3-3,6.9,1.5,7.7,4.6c-2.5,2.5-5.6,4.8-6.5,8.4c-1.2,2.9-0.2,5.9,0.1,8.8c-2.6-1.1-4.9-3.1-5.4-6
	C340.5,399.6,342.1,393.8,345.4,389.4z"/>
<path class="st0" d="M536.8,392.5c4.4,1.7,8.6,3.8,13,5.7c2.1-1,4.1-2.1,6.2-3.1c-1,3-3.7,5.3-6.9,4.9
	C544.2,399.8,537,398.5,536.8,392.5z"/>
<path class="st0" d="M545.2,392c1.5-0.5,3.4,0.5,4.5,1.5C549.1,395.2,544.8,393.8,545.2,392z"/>
<path class="st0" d="M513,394.2c-8.7,11-17,22.7-21.5,36.1c-4.1,1.7-7.6,4.7-9.8,8.5c-4.5,7.7-6.1,16.6-9.8,24.7
	c4.6,9.3-0.6,19.4-6.3,26.9c-3.8-1.7-7.6-3.5-11.5-5c-1.5-9.4-6-18-10.4-26.3c7.6-9.8,15.1-19.7,23.3-29c1.2-1.4,2.4-2.8,3.9-3.9
	c3.1,1.3,5.9,3.2,8.9,4.8c-1.1-3.2-3.4-5.8-6-7.8C486,412.4,498.9,402.2,513,394.2z"/>
<path class="st0" d="M507.2,424.8c4.8-12.5,12.5-26.7,26.8-29.8c-6.1,6.6-13.4,12.1-18.8,19.3C512.5,417.8,510,421.4,507.2,424.8z"
	/>
<path class="st0" d="M500,418.6c4.5-7.1,9-14.2,14.7-20.4c0,0.4,0.1,1.3,0.1,1.8c1.4,0.1,2.8,0.3,4.1,0.5
	c-9,10.1-14.7,22.6-20.2,34.9c-2.3-0.3-4.7-0.6-7-0.8c2.3-5.2,5.5-9.9,7.5-15.2c0.5,1.2,1,2.4,1.5,3.6c1.4-1.3,2.1-3,2.4-4.8
	C502.4,418.3,500.8,418.5,500,418.6z"/>
<path class="st0" d="M287.1,398.7c2.3,0.6,4.6,1.3,6.9,1.9c0.7,10.5,1.1,21,2.4,31.5c0.5,7.7,1.7,15.3,1.5,23
	C290,437.4,288.4,417.8,287.1,398.7z"/>
<path class="st0" d="M539.5,400.2c6,2,13.2,3.5,18.7-0.8c2.7,4,4.7,8.4,5.9,13.1c-0.6-0.8-1.8-2.5-2.4-3.3c-0.3,0.7-0.6,1.4-0.9,2.2
	c5.3,10.9,14.9,18.6,24.5,25.4c8.2,6.6,16.9,15,17.2,26.2c-0.4,10.5-5.6,19.9-10.5,29c-4.3,8.7-8,18.1-7.2,28
	c0.4,5.7,0.5,12.1-3.5,16.6c3.3-1,7.1-2.7,7.8-6.6c1.1-8-1.6-16,0.3-24c1.5,2.3,3,4.7,5.2,6.3c2.6,2,6,2.6,9.1,3.4
	c-3,10.2-14.3,14-18.7,23.2c-3.2,6.6-6.3,13.8-12.4,18.4c-5.5,4.5-11.4,9-18.4,10.8l0.7,1l2.3,0.5c-2.7,1-5.5,1.3-8.2,1.9
	c2.7-5.4,2.8-11.5,3.2-17.4c0-1.6,0.5-3.1,1.2-4.5l0.1-0.4c-3.6,4.5-6.8,9.3-10.2,14c1.8,0.6,3.7,0.9,5.1,2.2
	c-5.1,4.4-12.2,4.9-18.5,3.7c-8.5-1.4-17.6-3.8-23.5-10.7c-5.4-6.4-9.9-13.5-14.4-20.5c-4.9-8.2-12.6-14.2-18.3-21.8
	c-3.1-3.9-2.3-9.3-1.2-13.7c2.8-9.5,8.8-17.7,12-27c9.3-6,11.9-17.6,15.3-27.4C506.4,427.7,522.5,412.2,539.5,400.2z"/>
<path class="st0" d="M560.8,400c5.4,4,6.8,11,8.1,17.2C565.5,411.8,563.8,405.6,560.8,400z"/>
<path d="M559.3,405.4c1.1-0.1,1.7,0.5,1.9,2c0.1,1.1-0.3,1.8-1.3,1.9C559.3,408.1,559.1,406.8,559.3,405.4z"/>
<path class="st0" d="M351.3,417.1c1.2-5,4.2-10.8,9.8-11.8c3.4-0.4,5.4,2.7,7.1,5c-3.1,0.7-6.6,1.4-8.7,4c-3,3.5-3.2,8.2-3.7,12.5
	C353.1,424.4,350.4,421.1,351.3,417.1z"/>
<path d="M535.9,406.7c2.2,9.9,4.5,20.6,12.3,27.8C537.2,430.7,534,417,535.9,406.7z"/>
<path class="st0" d="M363,413.9c3.4,4,5.6,8.9,8.8,13C367.5,423.9,363.1,419.6,363,413.9z"/>
<path class="st0" d="M359.7,418.3c6.1,4.5,11.5,9.9,17.1,14.9c1.6,1.5,3.2,3,4.5,4.8c-1.1-0.6-2.2-1.2-3.3-1.8
	c-4,1.3-3.7,5.7-2.5,8.9c-5.1-1.9-10.2-4.7-13.2-9.5C358.9,430.6,358.7,424.2,359.7,418.3z"/>
<path class="st0" d="M374,417.9c4.6-0.4,7.9,3.4,9.8,7.1c3.1,5.8,5.8,12.3,5,19.1c-0.3,3.9-4,6.8-7.8,7.1c-2.4,0-4-1.9-5.6-3.3
	c3.2,1.4,6.7,1.1,9.7-0.7C383.9,436.8,381.9,425.6,374,417.9z"/>
<path class="st0" d="M381.6,418.6c8.8,6.6,18,12.9,25.8,20.7C398.1,433.4,389,426.8,381.6,418.6z"/>
<path class="st0" d="M372,426.9c3.1,0.1,6.5,0.8,7.7,4.1C377,429.8,374.4,428.5,372,426.9z"/>
<path class="st0" d="M426.3,433.4c2.3-2.8,5.5-6.2,9.6-5.2c1.8,0.8,2.5,2.9,3.4,4.5c-3.2,0.6-6.6,1.2-9.1,3.6c-3.3,2.7-4.2,7-4.9,11
	C421.4,443.5,423.2,437.2,426.3,433.4z"/>
<path d="M510.1,440.5c2.1-5.7,8.5-7.8,14-8c2.1,0,4.9-0.8,6,1.5c4.7-1.1,9.3,0.4,13.1,3.2c-5.2-1.4-10.8-2.7-16-0.7
	c0.1,0.5,0.4,1.6,0.5,2.1c-12.8,6.1-24.4,16.4-28.9,30.2c-3.4,10.9-3.8,23.1,0.5,33.7c4,9.5,13,15.6,22.2,19.5
	c-9.1-1.2-17.3-6.5-22.5-14c-6.7-9-7.5-21-5.8-31.8c3.1-16.9,15.5-30.7,30.2-38.8C519,438.4,514.5,439.5,510.1,440.5z"/>
<path class="st0" d="M396.3,435.6c5.4,1.2,9,5.8,12,10C403.9,442.8,400.8,438.4,396.3,435.6z"/>
<path class="st0" d="M486.3,435.8c4.3,0.5,7.8,3.7,12.3,3.5c-1.1,1.7-2.1,3.4-3.1,5.1c-3-0.7-6.2-1.3-8.5-3.5
	C485.3,439.8,486.4,437.5,486.3,435.8z"/>
<path class="st0" d="M392.5,436.9c5.3,3.8,10.3,8.2,15.1,12.7c-1.6,3.4-4.2,6.1-6,9.3c-3.3-3.9-6.6-8.1-11.4-10.2
	C391.6,444.9,392.4,440.9,392.5,436.9z"/>
<path class="st0" d="M429.3,446.7c0.6-5,4.2-9.7,9.6-9.9C436.1,440.4,432.8,443.6,429.3,446.7z"/>
<path d="M573.7,436.9c3.8,1.9,7.3,4.3,10.9,6.6c3.5,2.4,7.3,4.8,9.7,8.5c-3.1-2.5-5.9-5.4-9.2-7.6c4.4,18.9-5.2,37-5.8,55.7
	c-0.4,5.3,0.6,10.5,1.6,15.7c-5.3-7.4-5.6-17.1-4-25.8c2.8-15.1,8-30.2,5.7-45.7c-4.7-0.3-9.3,1.2-13.9,1.5
	c3.4-2.3,7.4-3.2,11.4-3.9C577.9,440.3,575.7,438.7,573.7,436.9z"/>
<path d="M551.4,440c3.2-2.4,7.3-1,9.5,2c2.1,2.1,1.4,5.1,1.1,7.7C558.4,446.6,555.2,442.9,551.4,440z"/>
<path class="st0" d="M377,440.3c1.5,1.4,5,2,4.6,4.5C379.1,444.7,377.1,442.9,377,440.3z"/>
<path class="st1" d="M409.1,441.2c1.5-0.1,3.3,2,2.9,3.4C410.4,444.9,408.8,442.7,409.1,441.2z"/>
<path class="st0" d="M478.2,454.1c1.3-4.2,3.6-7.9,5.4-11.9c2.1,1.1,4.3,2.3,6.4,3.4c-3.4,5.6-4,12.9-9.2,17.4
	C478.6,460.6,477.3,457.4,478.2,454.1z"/>
<path d="M512,453c4.2-4.7,9.5-8.9,15.9-9.9c5-1.1,9.3,2.4,14.2,2.5c-2.9,1.2-5.9,2.4-9,2.9c-3.1,0.7-6.9,0.7-8.8,3.7
	c-0.8,1.7-0.3,3.9,1.2,5.1c3.8,2.9,9,3.2,12.2,6.9c5.8,6.3,6.6,15.6,5.3,23.8c-1.2,5.2-4.2,11.2-10,12.2c-4.3,1.8-8.5,4.8-13.5,3.7
	c1.8-1.2,3.7-2,5.7-2.8c-9.5-2.6-15.3-11.2-20.3-19c-1.5,2.7-2.9,5.8-2.1,9c0.8,5.3,3.1,10.9,8.2,13.3c-3.1,0.1-6.6,0-8.6-2.8
	c-4.8-6-5.3-14.2-4.5-21.5C499.3,469.6,505.2,460.6,512,453z"/>
<path d="M395.9,449.1c-0.7-2.1,1.2-3.2,2.8-3.9C398,446.7,398.4,450.8,395.9,449.1z"/>
<path class="st0" d="M407.6,452.8c1.9-3.7,5.8-5.5,9.7-6.5c1.6,1.3,2.1,3.3,2.6,5.3c-3.3,0.7-6.9,1.5-9,4.3
	c-4.6,5.2-4.3,12.7-2.9,19.1C402.4,468.8,403.8,459.5,407.6,452.8z"/>
<path class="st0" d="M492.1,447.8c3.8,9.8-5.3,20.2-15,20.8c2-3.3,5.9-4.4,8.6-7C488.8,457.5,489.1,452,492.1,447.8z"/>
<path d="M544.2,448.6c3.4,0.3,7,1.1,9.4,3.8c4.7,4.9,5.4,11.9,6.9,18.2c3.2-3.9,1.2-9,1.3-13.5c3,9.9,1.8,20.7-1.4,30.4
	c-3,9.7-7.8,18.7-11.2,28.2c1.4-14.4,8.9-27.9,7.1-42.7C555.8,463.8,552.9,453.4,544.2,448.6z"/>
<path class="st0" d="M424,450.1c0.7,0,2.2,0.1,2.9,0.2c-1,1.5-2.2,3-3.6,4.1C423.5,453,423.8,451.6,424,450.1z"/>
<path d="M573.9,449.6c5.5,2.4,4.5,9.3,6,14.2c-1.3,0.9-2.5,1.8-3.8,2.8C575.6,460.8,574.6,455.2,573.9,449.6z"/>
<path d="M569.8,467.9c0.1-5.4,0.7-10.9-1.2-16c2.1,4.1,3.9,8.5,3.5,13.2c-0.8,14.3-7.5,27.7-6.7,42.1
	C563.5,493.9,567.6,480.8,569.8,467.9z"/>
<path class="st0" d="M415.6,457.4c4.4,4,9.3,7.3,14.7,9.6c-5,0.6-9.7-1.6-13.4-4.8C415.5,461,415.3,459.1,415.6,457.4z"/>
<path class="st0" d="M433.2,460.4c7.4,1.6,12.4,8,14.7,14.8c3.3,9.9,4.6,20.6,3.8,31c-1.4-8.1-3.7-16.1-5.6-24.2
	c-1.7-7.7-5.2-16.1-12.9-19.5C433.2,462,433.2,460.9,433.2,460.4z"/>
<path class="st0" d="M412.1,460.5c4.7,4.1,9.5,8.5,15.8,9.8c-0.5,1.2-0.9,2.3-1.3,3.5c-1.7,0-3.4,0-5.1,0c0.5,1.5,1.1,2.9,2.1,4.2
	c-2.1,1.1-4.7,2.8-7.1,1.4C410.6,475.4,407.5,466.6,412.1,460.5z"/>
<path class="st0" d="M476.2,462.5c3.5-1.7,1.2,4.5-0.6,1.5C475.8,463.6,476.1,462.9,476.2,462.5z"/>
<path class="st0" d="M477.5,471.1c1.5,0,3.1,0,4.6,0.1c-7.6,18.8-15.8,37.5-20.9,57.2c-0.7,1.4,0,4.2-1.9,4.5
	c-3.3-5.7-2.1-12.7-0.9-18.9C462.5,498.8,473.7,486.5,477.5,471.1z"/>
<path class="st0" d="M436.7,472.5c2.2,2.1,2.2,5.3,2.6,8.1c-1.4,0.1-2.7,0.2-4.1,0.3C435.8,478.1,436.2,475.2,436.7,472.5z"/>
<path class="st0" d="M507,475.6c7.1,4.4,14.9,8.6,23.5,8.6c-2.8,2.9-5.4,5.9-8,8.9C513.6,492.3,508.8,483.5,507,475.6z"/>
<path class="st0" d="M404.4,480.9c0.9,0.5,1.7,1,2.6,1.5c-0.9,1.7-2,3.4-3.2,4.9C403.9,485.2,404.1,483.1,404.4,480.9z"/>
<path class="st0" d="M537.6,481c2.5,6.6-1.8,13.6-7.6,16.6c-2.9,1.2-5.7-0.3-7.9-2c4.1-0.9,8.4-1.9,11.4-5.1
	C536,488,536.8,484.3,537.6,481z"/>
<path class="st0" d="M600.9,504.2c0.7-7.1,1.1-14.4,2.5-21.4c1.6,5.3,3.4,10.6,3.2,16.2c0,4.6-1.8,9.1-4.3,12.9
	c-5.4,0.1-7.3-5.7-8.7-9.8C596,503.2,598.4,504.1,600.9,504.2z"/>
<path class="st0" d="M419,490c2.3-2.9,5.3-5.8,9.2-6c4.1-0.6,8,1.3,11.2,3.6c-5,0.8-10.5-2.4-15.2,0.4c-5.7,3.4-7.8,10.2-9.6,16.1
	c-1.8,7.1-2.5,14.8-0.7,22c1.1,5.2,4,10,4.6,15.3c-1.4-0.5-3.2-0.4-3.9-1.9c-2.8-4.2-3.3-9.5-4.1-14.3
	C408.7,512.9,411.6,500,419,490z"/>
<path class="st0" d="M406.7,486.6c0.4-1.7,2.4-1.4,3.7-1.8c-1.3,1.9-3.1,3.6-3.4,6c-0.2,2.6,0.6,5,0.9,7.6
	C404.1,495.6,405.2,490.4,406.7,486.6z"/>
<path class="st0" d="M413.2,487.1c0.6,0,1.6,0.1,2.2,0.1c-1,3.3-2,6.5-3.8,9.5C411.3,493.4,412.3,490.2,413.2,487.1z"/>
<path d="M481.8,497c0-3.7,2-7,4-10c1,11.2,3,23.5,11.6,31.6c5.8,5.7,14.3,7.1,22.1,6.9c-3.9,1.6-8,3.2-12.3,2.3
	c-7.3-1.4-12.9-6.8-17.5-12.4C485.5,510.2,481.5,504,481.8,497z"/>
<path class="st0" d="M455.5,488.9c4.2,0.1,8.6,3.2,7.7,7.9c-2.7-1-5.4-2.4-7.8-3.9C455.4,491.5,455.4,490.2,455.5,488.9z"/>
<path class="st0" d="M435.2,494.1c1.3-3.5,5.1-5.2,8.8-4.8c-3,3.8-8.3,7.3-7.3,12.8c1.2,2.6,3.3,4.7,4.4,7.4
	c-2.3-0.5-5.4-0.5-6.7-2.9C432.4,502.6,433.9,498,435.2,494.1z"/>
<path class="st0" d="M427.2,498.9c1.9-2.4,3.2-5.2,3.7-8.3c0.8,0.1,2.4,0.4,3.2,0.6c-2,4.5-3.5,9.4-2.9,14.4
	C429.6,503.4,428.3,501.2,427.2,498.9z"/>
<path class="st0" d="M444.1,495.7c6.9,12,5,26.8,0,39.2c-1.5,3.7-4,7.8-8.5,8c-1.9-5.7,4.5-8.9,6-13.8
	C444.8,518.2,444.1,506.8,444.1,495.7z"/>
<path class="st0" d="M455.9,497.5c1.6-0.8,3.5,1.6,2.6,3.1C457,501.2,455.1,498.8,455.9,497.5z"/>
<path class="st0" d="M425.2,501.8c3.2,4.2,6,8.8,8.7,13.4c1.3,2.8,4.3,3.9,6.5,5.9C430.5,521.8,424.1,510.6,425.2,501.8z"/>
<path class="st0" d="M404.9,503c1.3,0.7,2.5,1.5,3.8,2.2c-0.8,3.1-1.1,6.4-1.4,9.6C405.6,511.1,405.1,507.1,404.9,503z"/>
<path class="st0" d="M456.3,505.5c-0.8-1.2,0.6-2.9,1.9-2.9C460.6,503.3,458,506.8,456.3,505.5z"/>
<path class="st0" d="M420.6,503.8c2.4,4.3,4.5,8.8,6.5,13.3C422.1,514.6,421,508.8,420.6,503.8z"/>
<path class="st0" d="M434.3,511.2c2.7,0.7,5.4,1.7,8.2,2.1c-0.1,0.9-0.1,1.7-0.2,2.6C439.4,514.8,436.6,513.2,434.3,511.2z"/>
<path class="st0" d="M451.5,521c0.8-3.8,2.9-7.1,5-10.4c-0.2,4.9-1.6,9.8-2,14.7C453.2,524.1,451.4,523,451.5,521z"/>
<path d="M475.9,511.9c8.9,2.3,14.9,10,20.6,16.7c3.7,4.9,8.3,9.7,14.6,10.9c4.6,1,9.1-0.7,13.3-2.6c-0.9,2.2-2,4.6-4.5,5.1
	c-4.7,0.9-9.6,0.5-14.1-1.2c2.8,3.6,6.4,6.5,10.8,7.9c-3.8-0.3-7.7-0.5-11-2.3c-6.2-3.2-10-9.4-13.1-15.5
	C488.2,523.6,483.8,515.7,475.9,511.9z"/>
<path class="st0" d="M418.4,513.2c2.5,4.5,5.6,8.6,8.8,12.6c-3.4-0.9-6.6-2.4-9.9-3.5C417.6,519.3,418.1,516.2,418.4,513.2z"/>
<path class="st0" d="M469.5,518.6c6.7,1.6,10.1,8.4,12,14.4c2.1,7.2,4.6,14.8,10.8,19.5c4.9,10.1,14.5,16.9,25,20.2
	c13.5,5,28.5,4.4,42.2,0.3c-3.4,6.8-11.8,7.5-18.4,7.6c-11.8-0.4-23.7-1.5-35.1-4.9c-9.7-2.6-18.9-8.2-23.8-17.2
	c1.9,3.9,3.9,7.8,6.2,11.5c-17.5-6-27-27.2-21.2-44.5c2.2,3,4.2,6.1,6.4,9.1c-0.5,0.7-1.1,1.4-1.6,2.1l2.3-2.1
	c-0.2,1-0.5,2.9-0.7,3.9c2.6,6.7,5.4,13.3,8.5,19.7c-2.8-6.7-4.2-13.9-8.1-20.1c0.4-0.7,0.7-1.3,1.1-2l0.8,2.7
	C478.3,530.9,468.4,526.3,469.5,518.6z"/>
<path d="M526.9,518.8c4,7.2,8.5,14.1,12.8,21.1c-5.1-0.6-10-3.5-12.2-8.3C525.3,527.7,525.6,523,526.9,518.8z"/>
<path class="st0" d="M404.3,520.7c1,0.6,2.2,1.2,2.5,2.5c2.9,6.9,5.7,13.9,8.7,20.8c3.6,8.2,3.3,17.4,3.1,26.2
	c-0.6,7.7-1.1,15.5-2.6,23.1c-4.9-18.4-9.2-37.1-11.4-56C404,531.7,403.7,526.2,404.3,520.7z"/>
<path class="st0" d="M434.3,524c1.9,0.4,3.9,0.8,5.8,1.4c-0.6,1.6-1.2,3.2-1.8,4.8C436.6,528.4,435.1,526.4,434.3,524z"/>
<path class="st0" d="M419,527c2.9,0.5,5.7,1.5,8.3,3c-2.3,0.7-4.7,1-7,1C419.8,529.6,419.4,528.3,419,527z"/>
<path class="st0" d="M450.4,527.7c6.2,3,9.8,9.5,10.8,16.1c-4.6-2-9-4.3-13.4-6.8C448,533.7,449.2,530.7,450.4,527.7z"/>
<path d="M579.8,529.7c0.7,4.6-0.6,9.7-4.3,12.7c-3.8,3.3-9.1,3.6-13.8,2.9c4.7-1.3,9.8-2.6,13.4-6.2
	C577.7,536.6,579,533.1,579.8,529.7z"/>
<path class="st0" d="M424.1,534.1l1.5-0.2c0,1.9-0.2,3.8-0.2,5.7c1.5-1.5,2.9-3.2,4.7-4.3c-4.9,18.4-0.2,37.4-1.2,56
	c-3.3-1.3-6.2-3.4-8.4-6.2c1.3-8,0.7-16.1,0.8-24.2C421.4,552,420.8,542.6,424.1,534.1z"/>
<path class="st0" d="M438.5,550.1c1-3.7,4-6.8,7.6-8c5.4,1.6,10.4,4.4,15.7,6.3c1,8.5,9.2,12.9,13.7,19.5c0.2,0.8,0.5,2.4,0.7,3.1
	c0.4-0.8,0.9-1.7,1.3-2.5c11.3,6.4,24.5,7.4,36.7,11c-3.2,0.6-6.8-0.5-9.7,1.5c8.9,3.2,18.7,1.9,27.8,4.2
	c-10.9,5.6-23.9,5.7-35.3,1.6c-8.3-2.6-17-8-19.2-17c-1.8,2.9-0.1,6.2,1.5,8.8c4,6.5,10.7,10.9,18,13c13.8,4.3,29,2.8,42.2-3
	c-5.7,19.6-14.6,38.4-27,54.7C490.1,673.5,457,694,422,706.1c2.8-13.7,0-27.6-0.1-41.3c-1.8-12.8,5.4-24.3,7.2-36.7
	c0.4-5.4,1-10.8,1.3-16.2c0.1-5.1,4.3-8.9,4.9-13.8c0.5-3.6-2.7-6.5-2-10.2c0.7-7.8,3.7-15.2,4-23
	C437.6,560,437.2,554.9,438.5,550.1z"/>
<path d="M535,546c4.9-4,11.6-3.8,17.4-2.7c-8.2,3.5-17.6,6.3-23,13.9C530.1,553,531.3,548.5,535,546z"/>
<path class="st0" d="M420,590.2c3.6,1.7,8.5,2.7,9.4,7.2c-2.2-0.1-4.6,0-6.6-1.2C420.8,594.9,420.5,592.3,420,590.2z"/>
<path class="st0" d="M419.4,598.6c2.9,1.5,5.3,3.9,7.5,6.3c0.3,17.6-3.6,35.4-11.8,51c-9.9,18.8-24.9,34.6-42,47.1
	c-27.6,20.5-62.9,30-97,26.2c-22.4-2.5-43.7-12.1-61.4-25.8c-12.9-10-25-22-31.4-37.4c-4.8-11.1-5.3-23.8-1.9-35.4
	c7.8,16.9,17.4,33.2,30.2,46.8c8.8,9.8,19.3,17.9,29.7,25.8c-17.3-6.9-31.2-20-43.4-33.7c8.9,13.4,20.4,25.1,34.1,33.5
	c15.6,9.8,33.7,15.1,51.9,16.6c20.8,2,42.5-0.3,61.7-9.1c31.1-14.2,55-42.3,65.6-74.6C415.4,623.9,417.6,611.2,419.4,598.6z"/>
</svg>
