<?xml version="1.0" encoding="utf-8"?>
<!-- Generator: Adobe Illustrator 21.1.0, SVG Export Plug-In . SVG Version: 6.00 Build 0)  -->
<svg version="1.1" id="Layer_1" xmlns="http://www.w3.org/2000/svg" xmlns:xlink="http://www.w3.org/1999/xlink" x="0px" y="0px"
	 viewBox="0 0 182.2 182.2" style="enable-background:new 0 0 182.2 182.2;" xml:space="preserve">
<g>
	<path d="M16.5,115.1c1.5-0.1,2.7-0.6,3.7-1.3c0,1.2-1,1.9-3,2.1c-0.9,0.1-2-0.1-3.1-0.6c-0.5-0.2-1.1-0.6-1.8-1.2
		c-0.7-0.7-1.2-1-1.5-1.2c-0.2-0.1-0.6-0.3-1.2-0.4c-0.5-0.1-0.9-0.2-1.2-0.5c-0.5-0.5-0.7-1.6-0.7-3.4c1.2-0.8,1.8-2.5,1.6-4.9
		C9.1,100.1,9,98,9.1,97.6c0.4-2.1,1.8-4.1,4.2-6.2c0-0.3,0-0.6,0-1c-0.1-0.3-0.1-0.6,0-0.8c0.8-0.4,1.3-0.9,1.5-1.5l0.9-0.1
		c4-2,10.3-6.7,18.8-14c3.8-3.3,6.1-5.1,6.8-5.6c0.9-0.5,2.1-1.4,3.7-2.5c1.8-1.2,3-2.1,3.8-2.6c4.1-2.6,6.6-4.3,7.5-5.1l4.7-4.8
		c1.9-2,3.8-3.3,5.9-3.8c-0.1-0.8,0.1-1.8,0.5-2.9c0-0.1-0.2-0.2-0.6-0.3c-0.3-0.1-0.4-0.2-0.4-0.4c0.1-0.1,0.4-0.2,0.9-0.5
		c0.4-0.2,0.7-0.4,0.9-0.6c0.1-1.1,0.7-2,1.8-2.6c0.3-0.2,0.8-0.5,1.5-0.8c0.7-0.3,1.2-0.6,1.6-0.7c-1-0.8-1.8-1.7-2.3-2.6
		c-0.7-1.4-0.6-2.5,0.3-3.4c-0.4,2,0.2,3.3,1.8,4c0-0.2-0.3-1.2-0.8-2.9c-0.4-1.4-0.3-2.5,0.2-3.3c0.1,0.3,0.2,0.9,0.3,1.9
		c0,0.9,0.2,1.5,0.6,1.8c0.1-0.2,0.1-0.9,0.1-2.1c-0.1-1,0.2-1.7,0.9-1.9c-0.8,2.8,0.4,5.5,3.6,8.1c1.9,1.6,3.4,2.4,4.6,2.4
		c0.8,0,1.8-0.3,2.9-1c1.4-1,2.2-1.5,2.5-1.7c0.3-0.1,2.4,0.2,6.3,0.9c0.3-0.1,0.4-0.3,0.4-0.8c-0.1-0.5,0-0.8,0.1-1
		c0.8,0.3,1.9,0.7,3.4,1.4c1.5,0.6,2.7,1,3.5,1.3c0.3-1.1-0.2-2.1-1.6-2.8c-1.6-1-2.4-1.8-2.6-2.3c0.4,0.1,0.9,0.2,1.6,0.5
		c0.7,0.3,1.1,0.6,1.5,0.7c-0.8-1.5-2.5-2.5-5.1-3.1c-2.6-0.6-4.8-0.3-6.4,0.8c0.3,0.2,0.9,0.3,1.9,0.4c1,0.1,1.6,0.2,1.9,0.5
		c-3,0.1-4.7,0.1-5.1-0.2c-5.1,1.4-7.4,2.1-6.7,2.3c0.1-0.6-0.3-1.2-1.1-1.7c-0.8-0.5-1.2-0.8-1.3-1.1c0.3-0.1,0.8,0,1.4,0.3
		c0.7,0.4,1.2,0.6,1.6,0.6c-0.5,0,1.1-1.7,4.8-5.1c1.8-1.7,3.9-2.7,6.2-2.9c1.8-0.2,3.5-0.1,5.2,0.4c2,0.5,3.1,1.4,3.3,2.5
		c-3.7-0.9-5.7-1.3-6.1-1.3c1.3,2.2,2,3,2.1,2.4c3,1.4,4.9,2.4,5.7,3c0.3-0.1,1.3,0.2,2.8,0.9c-0.1-0.7-0.5-1.5-1.3-2.4
		c-1-1.2-1.6-2-1.8-2.3c0.7,0.2,1.4,0.7,2.1,1.6c0.8,1.2,1.3,1.9,1.6,2.1c0.1-0.1,0.1-0.9,0.2-2.4c0.3,0,0.6-0.1,0.7-0.3
		c0,0.3,0,0.8,0,1.4c-0.1,0.7-0.1,1.1,0,1.4c0,1,0.4,1.7,1.2,2.1c3.5-3.1,8.1-4.8,13.7-5.3c3.1-1.9,4.6-2.8,4.4-2.7
		c0.9-1.5,0.6-2.5-1.1-3.1c-1.6-0.5-3-0.4-4.2,0.4c0.4-1,1.5-1.6,3.3-1.6c1.5,0.1,2.8,0.4,3.8,0.9c0.7,3.7-1.5,6.8-6.5,9.4
		c-0.1,0.5-0.1,1,0.1,1.5c0.2,0.5,0.5,0.8,1,0.9c0.3-0.1,0.6-0.4,0.9-0.9c0.3-0.5,0.6-0.6,1.1-0.6c0.2-0.1,0.4-0.3,0.5-0.6
		c0.2-0.4,0.3-0.6,0.4-0.8c1,1.4,0.5,3-1.6,5c0,0.1,0.2,0.3,0.7,0.6c1.2-0.5,2.4-1.6,3.7-3.2c1.4-1.8,2.5-2.9,3.4-3.4
		c0.3,2.1-0.2,3.8-1.6,5.1c-0.5,0.5-2,1.4-4.4,2.6c0.8,0.7,2,0.8,3.6,0.5c1.5-0.3,2.6-0.8,3.3-1.6c0.1,0.1,0.5,0.1,1,0
		c-0.1,0.1,0.4-1,1.4-3.3c0.1-0.1,0.3-0.1,0.6-0.2c0.3-0.1,0.5-0.2,0.6-0.3c0.7-1.6,0.6-3.3-0.3-5.1c-0.3-0.5-0.7-1.3-1.3-2.2
		c-0.6-0.8-1-1.5-1.3-2.1c1.8,0.6,3.1,2,4,4.2c0.8,2.1,1,4.2,0.4,6.1c-0.6,1.8-0.9,2.5-1.1,2.1c1.4-0.4,2.2-1.5,2.3-3.4
		c0-0.1-0.1-0.5-0.2-1.2c-0.1-0.4,0.1-0.7,0.4-0.9c1.2,0.9,1.4,2.3,0.4,4.3c-1,1.9-2.4,2.8-4,2.6c-0.3,0.3-0.9,0.5-1.7,0.8
		c-0.8,0.3-1.5,0.5-2,0.8c-2.1,1.4-2.4,2.1-0.8,2.1c0.3,0.1,0.9-0.1,1.7-0.6c0.7-0.4,1.3-0.5,1.9-0.4c0.5-1,1.2-1.5,2.1-1.5
		c0.9,0.1,1.7,0.4,2.4,1.1c0.8,0.8,1.2,1.6,1.2,2.4c0,1-0.6,1.9-1.8,2.5c0.4,0.2,0.8,0.1,1.2-0.4c0.5-0.4,0.9-0.5,1.5-0.4
		c0.7-2.3,1.6-3.1,2.5-2.5c-0.4-2.2-2-3.5-4.7-3.8c0-0.1,0.3-0.7,0.9-1.7c0.5-0.8,0.8-1.5,1.1-1.9c0.1,0.2,0.2,0.6,0.3,1.3
		c0.1,0.7,0.2,1.1,0.3,1.4c0.2,0.3,0.5,0.6,1,0.9c0.5,0.3,0.7,0.6,0.9,0.7c1.1,1.2,1.6,2.8,1.4,4.6c-0.1,0.5-0.3,1-0.6,1.5
		c-0.5,0.7-0.8,1.2-0.9,1.6c0.3,0.3,0.6,0.3,1.1,0c0.5-0.3,0.8-0.4,1.1-0.3c0.7-1,1-2.1,1-3.3c0.1,0.5-0.5-1.2-1.6-4.9
		c1.4,0.4,2.2,1.6,2.4,3.5c0.3,1.9-0.2,3.5-1.3,5c-0.9,1.3-2.2,2.2-3.9,2.6c0.4,0.8,1.4,0.7,3-0.3c1.4-0.8,2.3-2,2.6-3.5
		c-0.1,0.2-0.1-0.5,0-2.1c0-0.8,0.3-1.4,1-1.6c0.4,0.7,0.5,1.6,0.4,2.7c-0.2,1.6-0.3,2.5-0.2,2.8c0.2,0,0.4-0.2,0.6-0.5
		c0.3-0.3,0.5-0.4,0.8-0.3c0.3,1,0.1,2-0.8,3c-1.3,1.7-2,2.5-2,2.4c-0.4,0.2-1.2,0.2-2.3,0.1c-1-0.1-1.6,0.1-2,0.4
		c0,0.1,0.1,0.1,0.4,0c0.3-0.1,0.4,0,0.5,0.1c-0.1,0.4-0.5,0.5-1.1,0.4c-0.6-0.1-0.9,0-1,0.5c0,0.5,0.2,0.9,0.6,1.4
		c-0.2,0.6-1.9,1.8-5.1,3.7c0-0.1,0.4,0.5,1.2,1.8c0.6-0.1,1.9-0.4,3.8-0.7c1.6-0.3,2.9-0.5,3.7-0.8c2.6-0.7,4.1-2.1,4.6-4.2
		c-0.3,0-1,0.4-2.1,1.1c-1,0.7-2,0.9-2.7,0.7c2-1.2,3.1-2.1,3.3-2.7c0-0.2-0.1-0.3-0.3-0.3c-0.3,0-0.4-0.1-0.4-0.2
		c0-0.5,0.3-1.1,1-1.7c0.7-0.5,1-1.1,1-1.7c0.3-0.1,0.6-0.3,0.9-0.6c0.3-0.4,0.6-0.6,0.9-0.7c0.1,3.3,0,4.8-0.4,4.3
		c0.3,0,0.4-0.2,0.5-0.7c0.1-0.5,0.3-0.7,0.6-0.7c-1,4.2-2.7,6.9-5.3,7.9c-0.9,0.1-2.2,0.5-3.8,1c-1.6,0.5-2.9,0.7-3.9,0.9
		c0.3,0.4,1,0.5,2,0.3c0.2-0.1,0.6-0.2,1.3-0.3c0.5-0.1,0.9-0.2,1.2-0.3c0,0.6,0,0.9,0.1,1c0.6-0.2,1.3-0.3,2.2-0.2
		c1,0.1,1.6,0.2,2,0.1c0.7-0.2,1.4-0.7,2.2-1.6c0.9-0.9,1.8-1.5,2.5-1.8c0,0.1-0.1,0.3-0.2,0.4c-0.1,0.2-0.1,0.4-0.1,0.5
		c0.2,0,0.4-0.1,0.6-0.2c0.3-0.1,0.5-0.2,0.7-0.1c-0.1,0.5,0,0.8,0.2,1c-0.5,0.2,0-0.9,1.7-3.3c0.5,0.7,0.4,1.6-0.1,2.6
		c-0.1,0.3-0.4,0.7-0.8,1.4c-0.3,0.5-0.6,0.9-0.7,1.2c-1.8,0.8-3.1,2-3.9,3.5c0.1-0.1,0.2,0.3,0.3,1.2c0,0.3-0.2,0.5-0.5,0.8
		c-0.3,0.3-0.4,0.6-0.5,0.8c0.9,0,1.7-0.3,2.3-1c0.2-0.2,0.5-0.5,0.8-1c0.3-0.5,0.6-0.8,0.8-1c0.1,0.1,0.2,0.2,0.2,0.5
		c0,0.3,0.1,0.4,0.4,0.4c0.5-0.3,1.1-0.8,1.8-1.6c0.7-0.9,1.2-1.5,1.6-1.8V67c4.4-0.2,6.3-0.5,5.9-0.8c-4.4,0.5-7.5,2.1-9.2,5.1
		c0.5-0.1,1.7-0.5,3.4-1.2c1.5-0.6,2.8-0.8,3.9-0.7c1,0.1,2.4,0.7,4.2,2c0.3,0.5,0.5,1.3,0.7,2.2c0.3,1.4,0.5,2.2,0.6,2.4
		c-0.8-0.2-1.3-0.7-1.7-1.7c-0.5-1.4-0.8-2.2-0.9-2.4c-1.2-1.6-3.5-1.8-6.8-0.6c0.3,0.1,1,0.1,2.1,0.1c1,0,1.7,0.1,2.1,0.2
		c1.5,0.3,2.3,1,2.3,2.3c-0.7,0.3-1,0.5-1,0.6c0.4,0.7,1.1,1.4,2.2,2.3c1.2,1,2,1.7,2.3,2.2c-0.7-0.1-1.6-0.4-2.9-1.1
		c-1.1-0.5-2.1-0.8-3.1-0.8c-0.1-0.1-0.2-0.4-0.4-0.7c-0.1-0.3-0.2-0.5-0.3-0.6c-0.9-0.4-2.2-0.5-3.9-0.3c-1.7,0.2-2.9,0.2-3.5,0
		v-1.6c-0.5-0.5-1.4-0.5-2.7,0c-0.3,0.1-0.8,0.4-1.8,0.8c-0.7,0.3-1.2,0.5-1.6,0.6c-0.8,0.3-1.8,0.5-3,0.8c-1.4,0.3-2.3,0.5-2.8,0.6
		c1,0.7,2.4,0.8,4.2,0.4c3.4-0.7,4.9-1,4.4-1l3.5,0.4c2.3,0.3,3.2,0.4,2.8,0.3c1.1,0.3,1.8,0.8,2,1.6c-4.6-1.8-8.2-1.9-10.8-0.3
		c0.1,0.3,0.5,0.5,1.2,0.5c0.7,0.1,1.1,0.2,1.3,0.4c-0.5,0.5-1.7,0.7-3.5,0.7c-2,0-3.2,0.2-3.7,0.5c-0.1,1.4,0.8,2.1,2.8,2.1
		c3.4,0.1,5.1,0.1,5,0c-2.1,0.8-4.4,1-6.6,0.6c-2.5-0.5-4-1.7-4.4-3.4c0.5-0.1,1.5-0.3,2.9-0.4c1.2-0.1,2.1-0.2,2.6-0.5
		c-0.5-0.2-1.9-0.5-4.3-0.8c-1.8-0.3-2.9-0.9-3.2-1.9c-0.4-0.1-0.9-0.4-1.7-0.7c-0.7-0.3-1.2-0.6-1.6-0.8c-0.3,0-0.3-0.1-0.1-0.2
		c0.3-0.3,0.4-0.4,0.4-0.5c-3.3-2.3-4.8-3.5-4.3-3.3c0.1-0.3,0.5-0.6,1.2-0.7c-0.3-1.2-0.4-1.9-0.3-2.1c-0.1-0.1-0.8-0.4-2.1-0.9
		c-1.3-2.5-3.6-4.1-6.8-4.8c-0.1-0.7-0.5-1.1-1-1.3c-0.1-0.1-0.8-0.2-2.1-0.3c-1.2-0.1-1.6-0.2-1.4-0.3c-0.8,0.3-1,0.7-0.6,1.4
		c0.4,0.8,0.5,1.5,0.3,1.9c-0.1,0.2,0,0.4,0.3,0.5c0.3,0.1,0.4,0.3,0.4,0.4c-0.2,0.6-0.1,1.2,0.4,1.8c0.4,0.5,0.5,1,0.2,1.4
		c0.1,0.3,0.4,0.5,0.8,0.7c0.5,0.2,0.8,0.4,1,0.5c0.1,0.1,0.1,0.3,0,0.6c-0.1,0.3-0.2,0.6-0.2,0.7c0.2,0.1,0.4,0.1,0.6-0.1
		c0.3-0.3,0.6-0.4,0.9-0.3c-0.3,1.7-0.8,2.5-1.6,2.5c-0.1-0.1-0.1-0.4,0-0.8c0.1-0.3,0.1-0.4,0-0.5c-0.1-0.1-0.2-0.1-0.4,0.1
		c-0.3,0.2-0.4,0.2-0.5,0.1c0.1,0.1-0.2-0.2-0.9-1c-0.3-0.4-0.4-0.9-0.3-1.6l-1.3-0.7c-0.1-0.1-0.1-0.2-0.2-0.4c0-0.3,0-0.4-0.1-0.5
		c-0.6-0.3-1.2-0.8-1.8-1.6c-0.6-1-1.1-1.6-1.5-1.9c-1,0.2-1.7,0.3-1.9,0.3c-0.1,0.3-0.7-0.2-1.8-1.5c-0.5,0.3-0.8,1.1-1.1,2.2
		c-0.3,1.2-0.7,2.1-1.2,2.5l0.1,1.9c0.3,0.3,0.7,1.2,1.1,2.5c0.4,1.3,0.9,2.1,1.6,2.5v1c0.7,0.7,1.4,1.5,2.1,2.4
		c0,1.9,0.2,3,0.7,3.2c0.3,3.7-0.2,7.7-1.5,11.8c-1.3,4.5-3,7.6-5.2,9.2c-1.5,1.2-2.7,1.6-3.6,1.2c-3.5,2-6,3.1-7.3,3.2
		c-0.7-0.5-1.6-0.7-2.6-0.6c-0.1,0-0.3-0.1-0.5-0.3s-0.4-0.3-0.5-0.3c-0.3,0-0.8,0-1.3,0.1c-0.5,0.1-1,0.1-1.4,0
		c-0.2-0.4-0.7-0.7-1.5-1c-0.8-0.4-1.3-0.7-1.6-1c0.2,0.1,0.8,0.1,2,0.2c0.8,0.1,1.2,0.4,1,0.9c1.2,0.5,3,0.2,5.2-0.7
		c-0.4-0.1-0.5,0.2-0.3,1c2.1,0.1,4.6-0.8,7.2-2.7c-0.2,0.8-1.4,1.8-3.6,2.7c1,0.1,2.5-0.5,4.7-1.9c0.7-0.4,1.4-1.1,2.3-2.1
		c1-1.2,1.7-2,2.1-2.3c-0.4,1.2-0.6,1.7-0.6,1.5c4.2-3.8,6-8.8,5.6-14.7c-0.5-5.8-2.9-10.4-7.2-13.8c-1.6-1.2-2.3-2-2.3-2.3
		c0-0.6,1.1-1.9,3.3-4c1.8-1.6,2.9-2.9,3.5-3.8c-0.1-0.1-0.2-0.2-0.4-0.3c-0.3-0.1-0.5-0.2-0.5-0.3c0-0.6,0.5-1.1,1.5-1.3
		c1.4-0.3,2.1-0.4,2.2-0.5c0-0.1-0.1-0.3-0.4-0.5c-0.3-0.2-0.4-0.4-0.5-0.6c0.7-1,2.2-1.3,4.4-1.1c0.3,0.6,0.5,1,0.4,1.2
		c0.4,0.8,1.5,1.4,3.4,1.8c4.8,0.8,8.3,1.1,10.5,0.9c3.7-0.5,6.7-2.3,9.1-5.3c1.2-1.4,1.7-2.5,1.7-3.3c-0.2-1.2-2.1-1.7-5.7-1.7
		c-0.1-0.1-0.1-0.3,0-0.4c0.1-0.1,0.1-0.2,0-0.2c-0.8-0.4-1.4-0.2-1.9,0.7c0.1,0.1,0.4,0.3,0.9,0.5c0.4,0.1,0.6,0.3,0.7,0.6
		c-0.2,0.4-0.7,0.6-1.4,0.6c-1.2-0.1-1.8-0.1-2-0.1c-0.2,0-0.3,0.1-0.4,0.4c-0.1,0.3-0.2,0.4-0.3,0.4l-3.2,0.2
		c-1.4,0.1-2.3,0.4-2.7,1.1c-0.5,0.2-1.7,0.3-3.6,0.4c-1.5,0-2.5,0.3-3,0.9c-0.3,0.1-0.9,0.2-1.7,0.3c-0.7,0.2-1.2,0.3-1.8,0.2
		c-0.8-0.8-1.9-1-3.2-0.4c-1.8,0.7-3,0.9-3.6,0.8c0.1-0.5-0.1-1-0.6-1.6c-0.5-0.5-1.1-0.8-1.9-1c0.1-0.2,1.5-0.6,4.2-1.2
		c0.5-0.1,1.1-0.5,1.8-1.1c0.8-0.8,1.4-1.4,1.7-1.6c0.8-0.5,2.1-0.9,3.6-1.2c1.9-0.4,3.2-0.7,3.9-1c-0.3-0.1-0.7-0.5-1.2-1
		c-0.5-0.5-0.9-0.8-1.3-0.9c-0.5-0.1-1.1,0.1-2,0.4c-1,0.5-1.8,0.7-2.2,0.8c-0.3,0-0.7,0-1.3-0.1c-0.5,0-0.9,0-1.3,0.1
		c-0.8-0.9-1.1-1.3-0.9-1.2c-3.9,3.8-7.7,5.7-11.4,5.5c-1-0.1-1.7-0.3-2.1-0.7c-0.1,0.2,0.9-0.3,2.8-1.4c-0.1-0.5,0.3-1.2,1.2-2.1
		c-0.7-0.7-2-0.6-4,0.2c0.3,0.4,0.2,0.8-0.2,1.4c-0.4,0.6-0.6,1.1-0.5,1.5c-0.7,0.6-1.6,1-2.7,1.2c-1.3,0.2-2.2,0-2.8-0.7
		c2.6-0.6,4.1-1.3,4.5-2c0-0.1-0.1-0.3-0.3-0.5c-0.2-0.1-0.3-0.3-0.3-0.5c-0.7-0.3-1.7-0.3-3,0c-1.6,0.3-2.8,0.4-3.6,0.3
		c0.2-0.2-0.8,0.1-3.1,1c0.1,0.3,0.3,0.6,0.7,1.1c0.4,0.5,0.6,0.8,0.7,1.2c1.4-0.1,2.1-0.1,2.2,0c-0.3,0.6-0.8,1.1-1.8,1.5
		c-1,0.4-1.6,0.8-1.8,1.4c0.3,0.1,0.1-0.3-0.4-1.2c0.1,0.3-0.9-0.4-2.9-1.9c-0.1-0.1-0.3-0.3-0.5-0.7c-0.3-0.3-0.5-0.5-0.7-0.6
		c-0.3-0.1-0.9-0.3-2-0.4c-0.9-0.1-1.6-0.4-2.1-0.8c-0.8,0.5-2.2,0.8-4.4,1.2c-2.1,0.3-3.6,0.7-4.4,1.2c-0.1,0.5-0.2,1-0.5,1.6
		c-0.4-0.7-0.7-1.1-1-1.2c-0.2,0-0.4,0.1-0.6,0.3c-0.1,0.3-0.3,0.4-0.4,0.4c0.4,2.5-0.7,4.5-3.3,6c0,0.3,0.2,0.5,0.5,0.6
		c0.4,0.1,0.7,0,0.9-0.1c-2.1,3.4-3.9,5.5-5.2,6.3c-0.1-0.2,0-0.4,0.2-0.6c0.3-0.3,0.4-0.5,0.4-0.6c-0.1-0.4-0.5-0.8-1.1-1.2
		c-0.7-0.4-1-0.7-1.2-0.9c0-0.2,0.2-0.5,0.6-0.8c0.3-0.2,0.4-0.5,0.2-0.8c-0.7-0.2-2,0.3-3.8,1.6c-0.5,0.3-1.1,0.7-1.8,1.3
		c-0.9,0.7-1.4,1.2-1.6,1.4c0.8,0,1.7-0.3,2.6-0.8c1.2-0.6,2.1-1,2.6-1.2c0.1,0.6-0.5,1-1.6,1.4c-0.3,0.1-0.8,0.2-1.5,0.4
		c-0.7,0.2-1.1,0.4-1.5,0.5c-0.3,0.1-0.8,0.3-1.3,0.8c-0.5,0.3-0.9,0.5-1.2,0.6c-0.3,0-2.1,0.9-5.2,2.7c0,0.1,0.1,0.2,0.4,0.2
		c0.2,0,0.3,0,0.3,0.1c-0.1,0.2-0.3,0.5-0.5,0.9c-0.2,0.5-0.4,0.8-0.5,1c-0.4,0.7-1,0.9-1.9,0.7c-0.4,0-0.8,0.2-1.2,0.6
		c-0.5,0.5-0.8,0.7-1,0.8c-0.1,0.1-0.3,0.1-0.6,0.1c-0.3,0-0.5,0-0.6,0.1c-0.1,0.1-1.1,0.9-3,2.5c-0.1,0.1-3.1,2.7-9,7.8
		c0,0.2,0.1,0.4,0.3,0.6c0.3,0.2,0.4,0.4,0.5,0.5c0.1-0.1,0.8-0.6,2.2-1.8c0.2,0,0.5,0.1,0.9,0.3c0.6-1,1.6-2.1,2.9-3.5
		c1-1,1.6-1.4,1.9-1.4c-0.1,0.6-0.8,1.7-2.1,3.4c-4.5,5.7-8.8,8.1-12.9,7.3c-0.1,0-0.4-0.1-0.7-0.2c-0.3-0.1-0.6-0.2-0.8-0.2
		c-0.6-0.1-1,0-1.4,0.4c0.3,1.1,1.3,1.9,3,2.2c2.4,0.5,3.8,0.8,4.2,1.1c1.1,2.3,1.7,4.1,1.7,5.6c1-1.4,0.9-2.9-0.3-4.6
		c-1.1-1.4-2.5-2.5-4.2-3.1c2.4,0.1,4.2,1.2,5.4,3.5c1.2,2.3,0.9,4.4-0.9,6.2c-3.5,1.4-5.5,2.1-6.1,2.1c-0.1-0.1-0.9-0.8-2.4-2.1
		c-1-0.8-1.5-1.9-1.5-3.1c1-0.3,2.2,0,3.5,1.1c0.8-0.4,1.3-1.1,1.3-2.1s-0.4-1.7-1.3-2.1c-1.8-0.5-3.1,0-3.9,1.5
		c-0.1,0.2-0.6,1.7-1.5,4.6c-0.3,0.1-0.4-0.1-0.3-0.6c0-0.4,0-0.6-0.1-0.7c0.1,0.1-0.4-0.1-1.5-0.6c-0.4,0.1-0.6,0.4-0.5,0.9
		c-0.2-0.1,0.3,0.4,1.5,1.6c0.6,0.6,1.4,0.8,2.3,0.6c0.1,0.3,0.2,0.6,0.1,1c0.1,0.1,0.3,0.1,0.6,0c0.2-0.1,0.4,0,0.5,0.2
		c-0.2,1.4-1.1,2-2.6,1.9c-0.3,1.2-0.2,2,0.3,2.3c0.4-0.2,0.8-0.7,1.2-1.7c0.4-0.9,0.9-1.4,1.6-1.4c0.2,0.5,0,1-0.6,1.7
		c-0.7,0.8-1,1.4-1,2c0.3,0.1,1.1-0.1,2.2-0.6c-0.3,1-1.2,1.8-2.8,2.5c-0.3,0.1-1,0.4-2.1,0.8c-0.9,0.3-1.6,0.6-2.1,0.9
		c-0.3-0.1-0.6-0.3-0.8-0.8c-0.3-0.4-0.5-0.6-0.8-0.7c-0.6,0.6-0.6,1.2-0.1,2c0.5,0.7,1.1,1,1.9,1.2c0.6,0.1,1.6,0.2,3,0.1
		c1.2-0.1,2,0,2.5,0.2c-0.7,0.7-1.4,1-2.1,0.9c0,0.3,0.2,0.5,0.5,0.6c0.5,0.1,0.8,0.1,0.9,0.2c0.1,0.8,0.2,1.2,0.2,1.2
		S16.3,115,16.5,115.1z M15.1,93.5c-0.3-0.7-0.6-0.9-1-0.9c-0.3,0.1-0.6,0.4-0.9,0.9c-0.7,1.3-0.5,2.1,0.6,2.5l0.3-2.2
		c0.3-0.3,0.4-0.4,0.4-0.4S14.7,93.5,15.1,93.5z M17.4,111.7c0.1-0.1,0.7-0.3,1.9-0.6c0,0.3-0.2,0.5-0.7,0.6c-0.1,0-0.3,0-0.6,0
		C17.7,111.7,17.5,111.7,17.4,111.7z M34.2,121.4c0.3,0.1,0.7,0.2,1.2,0.1c0.6-0.1,1-0.1,1.2,0c-2.2,1.2-4,1.6-5.5,1.2
		c-0.5-0.1-1.2-0.5-2.2-1.1c-0.9-0.5-1.7-0.8-2.3-1c-0.2,0-0.5,0-0.9,0.1c-0.4,0-0.7,0-0.9-0.1c-1.4-0.3-2.6-0.8-3.6-1.8
		c-1.3-1-1.6-2.1-1-3.2c1.1-0.3,2.7-1,4.9-2.1c1.9-1.1,3.6-1.7,5.2-1.8c-0.5-0.9-2-1-4.6-0.3c-2.9,0.8-4.5,1.2-4.8,1.2
		c0-0.2,0-0.4-0.1-0.7c-0.1-0.3-0.1-0.6,0-0.8c-0.3,0.2,1.1-0.3,4.1-1.6c0.3-0.1,0.6-0.3,0.9-0.6c0.4-0.4,0.7-0.7,0.9-0.8
		c3.6-2.1,7.6-3.5,11.8-4c2.9-0.3,5.2-0.2,6.9,0.5c2.3,0.9,2.8,2.6,1.5,5.2c-1.2,0.5-3.1,0.8-5.7,1c-2.7,0.2-4.7,0.5-5.8,0.9
		c-2.2,0.8-3.8,1.2-4.9,1.2c-0.7,0.8-1.2,1.8-1.5,2.7c0.8,0,1.9-0.2,3.2-0.5c1.3-0.4,2.3-0.6,3.1-0.6c-2.6,1.8-3.9,2.8-4,2.9
		c0,0.3,0.3,0.7,0.9,1.2c0.5,0.4,0.6,0.9,0.3,1.5l1.1,0.4C34.1,120.6,34.3,120.9,34.2,121.4z M23.2,104.8c0.4-0.3,1.3-1.2,2.6-2.7
		c1-1.2,1.9-1.9,2.8-2.1C26.3,102.6,24.5,104.2,23.2,104.8z M57.1,88.7c-6.6,1.9-9.8,2.8-9.8,2.7c0,0.2,0.1,0.3,0.4,0.3
		c0.3,0,0.4,0,0.5,0.1c0,0.4-0.3,0.7-0.8,0.9c-0.5,0.1-0.7,0.5-0.5,1.1c-2.6,0.9-4.1,2.2-4.4,3.8c2.8,0.7,4.5,1.1,5.1,1.1
		c1.4,1.2,3.3,1.1,5.7-0.5c-0.8,1.6-3.4,2.6-7.7,2.9c-0.2-0.1-0.4-0.2-0.6-0.5c-0.3-0.3-0.5-0.5-0.7-0.5c-0.4-0.1-1,0-1.9,0.4
		c-0.9,0.4-1.6,0.6-2.1,0.6c-0.1,0-0.4-0.1-0.7-0.2c-0.2-0.1-0.4-0.1-0.5-0.1c-0.2,0-0.5,0.1-1,0.4c-0.5,0.3-0.9,0.4-1.2,0.5
		c-0.5,0.1-1.2,0-2.1-0.2c-0.9-0.1-1.5-0.2-1.9-0.1c-0.4,0.1-0.9,0.4-1.5,0.9c-0.7,0.7-1.1,1-1.3,1.2c-2.3,1.2-3.3,1.8-3,1.6
		c-0.2,0-0.4,0-0.6-0.1c-0.2-0.1-0.4-0.2-0.5-0.2c-0.2,0.1-0.5,0.3-0.9,0.6c-0.4,0.3-0.8,0.4-1.1,0.4c0.5-0.3,1.3-1.2,2.4-2.7
		c1-1.2,2-2,3-2.2c0.2-0.1,0.3,0,0.2,0.2c-0.1,0.3,0,0.4,0.1,0.5c-0.2,0.3,0.7,0,2.8-0.7c2.8-1,3.9-1.6,3.3-2
		c0.1,0.3-0.1,0.6-0.4,0.9c-0.3,0.3-0.4,0.5-0.5,0.8c0.8-0.1,1.8-0.7,2.7-1.9c1-1.2,1.9-2,2.6-2.2c0.1-0.3,0.2-0.7,0.4-1.2
		c0.8-0.3,1.7-0.9,2.7-1.7c1.4-1,2.3-1.7,2.6-2c-0.3,0.1-0.9,0.3-1.8,0.5c-0.7,0.2-1.3,0.3-1.7,0.4c0.7-0.8,2.1-1.5,4.2-2.1
		c2.3-0.7,3.9-1.3,4.6-1.9c0.1,0.1,1.3,0.1,3.4,0c0.2-0.1,0.5-0.5,0.8-1.3c0.9-0.3,2-1,3.2-2.2c1.2-1.2,2.1-2,2.9-2.1
		c0.3-0.1,0.6-0.5,0.8-1c0.2-0.6,0.4-1,0.6-1.2c1.6,0.7,2.4,1,2.4,1c-0.1,0.8-0.5,1.6-1.4,2.1c-1,0.7-1.7,1.3-1.9,1.7
		c-0.4,0-1.3,0.4-2.7,1.3c-0.5-0.1-1.5,0.3-2.9,1.2V88.7z M30.2,90.9c-0.1,1.9-0.7,2.9-1.8,3c-0.8-2.9-1.1-4.5-1.1-4.6
		c0.5,0.5,0.9,0.7,1.4,0.7c0.2,0.4,0.4,0.7,0.6,1.1c0.2,0,0.4,0,0.5-0.1C30,90.9,30.1,90.9,30.2,90.9z M31.7,93.2
		c0-0.1,0.5-0.5,1.5-1.2c2.3-1.6,4-2.5,4.9-2.6c3.5-0.5,5.4-0.8,5.7-1c-0.8-0.7-2-0.8-3.5-0.4c-2.1,0.6-3.5,0.8-4.2,0.7
		c1.4-1.8,2.9-3.2,4.7-4.2c0.2,0,0.3,0.2,0.3,0.6c-0.1,0.5,0,0.8,0.1,0.9c2.5-0.4,4.1-0.3,4.8,0.3c0.6-0.3,1.1-0.4,1.5-0.3
		c-0.1,0.3-0.7,0.7-1.7,1.3c-1,0.5-1.5,0.8-1.5,1c0-0.6,0.8-0.4,2.5,0.5c-0.5,0.3-1.2,0.6-2.1,1c-0.9,0.4-1.6,0.7-2.1,1.1
		c-1.2,0.7-2.4,1.5-3.6,2.4c-0.2-0.3-0.2-0.6,0.1-0.9c0.4-0.3,0.6-0.6,0.6-0.8c-0.6-0.7-1.4-0.8-2.5-0.2c-1.3,0.7-2.2,1-2.8,0.8
		C32.1,92.7,31.3,93,31.7,93.2z M39.3,73.7c-1.5,1.9-2.8,3-3.9,3.3c-0.1-0.3,0.4-0.9,1.4-1.8c0.2-0.2,0.6-0.5,1.2-0.9
		c0.5-0.3,0.9-0.6,1.1-0.8C39.2,73.5,39.3,73.6,39.3,73.7z M102.4,129.3c-0.3,5.3-2.9,11.1-7.8,17.5c-2.4,3.2-5.4,6.6-8.9,10.2
		c-1.6,1.6-2.9,2.2-3.9,2c-0.1-0.4,0.1-0.7,0.5-1c0.5-0.3,0.7-0.6,0.8-0.9c-0.3,0.1-1,0.2-2.1,0.3c-1.2,0.1-2,0.1-2.1,0.1
		c-0.2-0.1-0.4-0.2-0.5-0.5c-0.1-0.3-0.3-0.5-0.6-0.6c0.3-0.2,0.8-0.7,1.8-1.5c0.7-0.6,1.3-1,1.9-1.4c0.2,0,0.3,0.1,0.4,0.3
		c0.1,0.3,0.1,0.4,0.2,0.5c0.4-0.2,1-0.7,1.8-1.5c0.7-0.7,1.2-1,1.6-1.2c-0.1-0.1-0.1,0.2,0,0.9c0.5-0.1,1-0.6,1.6-1.3
		c0.5-0.7,1.1-1,1.7-1.2c0,0.2-0.2,0.6-0.5,1.2c2.1-1.6,4.7-5.1,7.8-10.5c3.1-5.5,4.8-9.9,5.1-13.2c0.1-2.1-0.2-3.5-1-4.3
		c-0.5,5.1-2.5,9.8-6.2,14.1c-0.9,1.1-2.6,2.8-5,5.2c-2.1,2.1-3.7,3.9-4.8,5.3c-2.9,2.2-5.6,4.8-8.1,7.8c-0.1,0.1-0.2,0.4-0.4,0.7
		c-0.2,0.3-0.4,0.6-0.5,0.8c-0.5,0.5-1,0.7-1.6,0.4c0,0.2,0.7-1.1,2.1-4c-0.1,0-0.9-1-2.5-3c0.1-0.2,0.4-0.5,0.9-0.8
		c0.5-0.3,0.8-0.5,1-0.8c0-0.1,0-0.9,0.1-2.6c-0.5,0-1.1,0.2-2,0.6c-1,0.5-1.7,0.8-2.1,0.9c0.3-0.5,0.8-0.9,1.8-1.3
		c1-0.5,1.6-0.8,1.9-1.2c0.4,0.5-1,0.6-4.3,0.4c0.3-0.5,1.3-0.9,2.9-1.5c1.4-0.5,2.2-1.3,2.3-2.2c2.2-1.1,3.7-2.1,4.4-3
		c-0.3,0-1.9,0.7-5,2.2c-1.9,1-3.6,1.7-5.3,2.2c0.1-0.3,0.7-0.7,2-1.4c5.4-2.7,8.8-4.4,10.3-5.3c1.2-0.8,2.7-1.9,4.5-3.3
		c2.3-1.8,3.8-2.9,4.3-3.3c0.3-0.3,0.6-0.7,1-1.3c0.5-0.7,0.9-1.1,1.1-1.4c0.8-1,1.1-2.1,1-3.2c-0.9,0.1-1.8,0.6-2.7,1.5
		c-1.1,0.9-2,1.4-2.5,1.6c-0.1-0.1-0.2-0.3-0.2-0.6c0-0.4,0-0.6-0.1-0.7c-1,0.4-4.1,1.6-9.4,3.6c-3.8,1.4-6.9,2.7-9.1,3.9
		c-2.9,1.5-4.9,2.3-5.9,2.4c0.4-0.5,1.7-1.4,3.8-2.7c4.8-2.9,9.1-5.1,13-6.4c6.8-2.5,11-4.8,12.4-7.1c1.1-1.8,1.5-3.3,1.3-4.5
		c-6.4,3-13.1,3.5-20,1.5l-6.1-1.8c-0.6,0.1-1.6,0.2-3.1,0.4c-1.2,0.2-2.2,0.3-2.9,0.2c-4.4-0.2-7-0.3-7.7-0.2
		c-2.8,0.2-4.9,1-6.3,2.5c-0.1,0.1-0.3,0.4-0.6,0.8c-0.3,0.4-0.5,0.7-0.7,1c-2.2,2.4-5.1,2.9-8.7,1.6c-0.3,0.3,0.9,0.2,3.6-0.3
		c1-0.2,2-0.8,2.9-2c1.7-2.1,2.5-3.1,2.3-2.9c0.7-0.7,1.8-1.2,3.2-1.6c1.8-0.3,3-0.7,3.7-1.1c-0.3-0.9-1.2-1.4-2.5-1.5
		c-1.7-0.1-2.8-0.4-3.3-0.9c0.3-0.4,0.8-0.7,1.7-0.8c1.2-0.1,1.9-0.2,2.1-0.3c-0.1-0.3-0.4-0.7-0.7-1c-0.4-0.3-0.7-0.6-0.8-0.8
		c0.1-0.1,0.5-0.3,1.2-0.4c0.5-0.1,0.7-0.3,0.9-0.6c0-0.1-0.1-0.2-0.2-0.3c-0.1-0.1-0.2-0.2-0.3-0.3c-0.3-0.1-0.6,0.1-1.1,0.4
		c-0.4,0.2-0.8,0.2-1.1,0c-0.1-0.3-0.1-0.7,0.1-1.4c0.3-0.6,0.2-1-0.1-1.3c0.1-0.2,0.3-0.5,0.7-0.9c0.3-0.3,0.5-0.7,0.5-1
		c-0.2,0-1,0.2-2.4,0.5c-1.2,0.3-2,0.2-2.4-0.3c1.5-0.2,2.5-0.5,3.1-0.9c1.4,0.3,2.7,0,3.9-0.9c0.3-0.2,0.7-0.6,1.5-1.1
		c0.6-0.5,1.1-0.9,1.5-1.1c-0.1,0.7-0.9,1.5-2.4,2.3c-1.3,0.7-1.8,1.7-1.5,2.8c0.1,0.3,0.3,0.4,0.6,0.4c0.5,0,0.8,0,0.9,0
		c0,0.3-0.1,0.6-0.4,0.9c-0.3,0.3-0.5,0.6-0.5,0.8c0.5,0.3,1.1,0.1,1.9-0.5l-0.3-3.1c0.8-0.4,1.6-1,2.5-2c1.2-1.2,2-1.9,2.3-2.1
		c0.1,0.1,0.1,0.1,0.2,0.2c0,0.1,0,0.1,0.1,0.1c0,0.4-0.2,0.7-0.5,1c-0.3,0.3-0.5,0.7-0.5,1c0,0.1,0.2,0.2,0.5,0.2
		c0.4,0.1,0.6,0.1,0.7,0.2c0,0.1,0,0.3-0.1,0.4c-0.1,0.2-0.1,0.4-0.1,0.5c0.5-0.1,1,0,1.6,0.3c0.6,0.3,1.1,0.4,1.7,0.3
		c0,0.1,0,0.3-0.1,0.5c-0.1,0.1-0.1,0.3-0.1,0.4c0.5,0.1,1.5,0.1,2.8,0c1.3-0.1,2.2,0,2.6,0.3c-0.5,0.3-1.7,0.6-3.6,0.7
		c-2.4,0.1-3.8,0.2-4.1,0.3c-1.6,0.3-2.4,0.8-2.2,1.6c0.1,0.3,0.6,0.6,1.6,0.8c0.8,0.2,1.2,0.6,1.2,1.3c-0.6,1-0.9,1.4-1,1.2
		c0.3,0.2,1.3,0.2,2.8,0.1c1.7-0.2,2.9-0.1,3.5,0.2c-0.2,0.3-0.7,0.5-1.5,0.6c-0.9,0.1-1.5,0.2-1.7,0.4c0,0.2,0.1,0.3,0.2,0.3
		c0.1-0.1,0.3-0.2,0.4-0.3c0.1,0.1,0.1,0.3-0.1,0.6c-0.2,0.3-0.3,0.5-0.2,0.7c-0.3,0.1-0.5,0-0.6-0.2c-0.1-0.3-0.3-0.4-0.5-0.4
		c-0.3,0.2-0.5,0.5-0.6,0.9c0.2,0.2,1,0.3,2.3,0.3s2.3,0.3,2.9,0.8c-0.4,0.3-1.3,0.4-2.7,0.3c-1.3-0.1-2.1,0.1-2.3,0.7
		c2.5,0.3,5.7,0,9.8-0.9c5.1-1.1,8.4-1.7,9.9-1.9c6.6-0.5,11.5,0.5,14.5,3.1c4.7,4.2,7,6.2,7,6.2S102.7,123.6,102.4,129.3z
		 M39.9,113.5c-0.8-0.2-1.3-0.5-1.5-0.9c2-0.8,3.4-1.1,4.1-0.9c-0.1,0.5-0.6,0.8-1.3,1C40.4,113,40,113.2,39.9,113.5z M53.7,73.6
		c0.3-0.1,0.5-0.5,0.4-1.1c3.2-2.2,5.5-4.3,6.9-6.3c0.2,0.4,0.5,0.7,0.9,0.8c0.5,1.8,0.4,3.2-0.3,4.3c-0.7-0.1-1.6,0-2.5,0.4
		c-1.1,0.4-2,0.6-2.6,0.6c-2.3,1.8-5.9,4-10.5,6.6c0,0.7-0.6,1.4-1.9,2.3c-0.1-0.2,0.2-0.6,0.7-1.3c0.5-0.7,0.8-1.3,0.9-1.7
		c0.6-0.3,1.9-1.1,3.8-2.6C50.9,74.5,52.4,73.9,53.7,73.6z M45.5,111.5c-0.3,0.1-0.4,0-0.5-0.3c-0.1-0.2-0.1-0.4,0-0.5
		c0.1-0.1,0.3,0,0.4,0.1c0.2,0.1,0.3,0.1,0.4,0.1c0,0.2,0,0.3-0.1,0.4C45.6,111.4,45.5,111.4,45.5,111.5z M58.8,114.1
		c0-0.3-0.2-0.5-0.5-0.4c-0.3,0-0.6,0.1-0.7,0.3C57.7,114.1,58.1,114.1,58.8,114.1z M61.3,93c-1,2.2-2,3.2-2.8,2.9
		c0.3-0.5,0.7-1,1.4-1.7c0.7-0.7,1.1-1.2,1.4-1.6C61.3,92.7,61.3,92.8,61.3,93z M63.4,95.8c-1.4,0.2-2.2,0.1-2.4-0.3
		c0-0.3,0.4-0.5,1.3-0.6c0.1-0.7,0.5-1.3,1.2-2.1c0.7-0.7,1.1-1.4,1.2-2.1c0.1-0.1,0.1-0.1,0.2,0l0.2,0.1c0.1,1.8,1.5,5.2,4.2,10.3
		c-0.9,0-1.7-0.5-2.3-1.6c-0.1-0.2-0.4-0.7-0.8-1.5c-0.3-0.6-0.5-1-0.8-1.3c-0.5,0.1-0.8-0.1-1.1-0.4c-0.3-0.4-0.5-0.6-0.5-0.6
		S63.6,95.8,63.4,95.8z M62.2,66.1c-0.7-1.2-0.5-2.2,0.6-3.1c1.7-1.4,2.6-2.2,2.6-2.2c-0.3-4.3,1.7-6.7,6.1-7.2
		c-0.1,0.3-0.4,0.7-1.1,1c-0.6,0.2-0.8,0.6-0.7,1.2c-0.1,0,1,0.1,3.3,0.2c1.6,0.1,3.3,0.9,5.2,2.5c0.2-0.4,0.1-0.8-0.2-1.2
		c-0.5-0.5-0.7-0.9-0.7-1.3c0.7-0.1,1.2,0.2,1.6,0.9c0.1,0.1,0.3,0.4,0.5,0.9c0.2,0.4,0.4,0.7,0.5,0.9c0.1,0.1,0.5,0.5,1.4,1.2
		c0.5,0.5,0.7,0.9,0.6,1.5c-0.2,0-0.6-0.2-1.1-0.5c-0.5-0.4-0.9-0.6-1.1-0.6c-0.7-0.1-1.4,0.3-2.1,1.1c-1,1-1.7,1.7-2.1,1.9
		c-2.8,1.4-5.2,1.8-7.3,1.2c-0.1-0.1-0.3-0.3-0.8-0.6c-0.5-0.4-0.8-0.6-1.1-0.6c-0.8-0.1-1.6,0.4-2.2,1.4
		C63.4,65.5,62.8,66.1,62.2,66.1z M64.4,86.7c0.1,0.8-0.7,2.2-2.1,4.2C62.4,90.1,63.1,88.7,64.4,86.7z M72.8,69.7
		c0.2,0.9-0.3,1.5-1.5,1.9C71.5,71.1,72,70.4,72.8,69.7c0.6-0.8,0.9-1.5,1-2.1c-3.1,0.6-4.8,1.1-5.2,1.7c-0.3-0.2-0.6-0.2-0.9,0
		c-0.5,0.3-0.8,0.4-1,0.3c0.2-1,0.3-1.5,0.3-1.7c-0.5-0.1-1.1,0.1-1.9,0.5c-0.7,0.4-1.2,0.5-1.8,0.3c0.3-1.2,0.9-2.4,1.9-3.4
		c0.3,0.3,0.9,0.6,1.9,1.1c0.8,0.4,1.4,0.7,1.8,1.1c0.2,0,0.4-0.1,0.5-0.3c0.1-0.3,0.3-0.4,0.4-0.4c0.7,0.3,1.5,0.3,2.6,0
		c1-0.3,1.8-0.3,2.1,0c0.2-0.1,0.4-0.2,0.6-0.4c0.3-0.2,0.5-0.3,0.7-0.4c0.2,0,0.3,0.1,0.4,0.2c0.1,0.2,0.3,0.3,0.4,0.3
		c0,0.3-0.2,0.7-0.6,1.5c-0.7-0.3-1.2,0-1.7,0.7C73.8,69.3,73.3,69.7,72.8,69.7z M63.6,71.9c0.7-0.3,0.9-0.7,0.8-1.3
		c0.7,0.2,1.5,1,2.2,2.3c0.9,0.3,1.5,1,1.7,2.1c0.2,1.2-0.1,2.1-0.9,2.7c-0.3,0-1-1-2.1-3C64.3,73.2,63.8,72.3,63.6,71.9z
		 M103.9,112.1c0.1,1.2-0.2,1.9-0.8,2.1c0.1,0.3,0.5,0.9,1,1.7c0.5,0.8,0.8,1.4,1.1,1.9c0.7,1.6,0.9,3,0.7,4.3
		c-0.3-0.1-0.6-0.8-0.9-2.1c-1.5-5.3-5.5-8.6-12-10c0.1-0.3,0.6-0.6,1.3-0.8c0.7-0.2,1.1-0.5,1.2-0.8l-3.4-0.3
		c-13.1-1-21-7.7-23.7-19.9c0.1,0.2-0.3,0.1-1.4-0.4c-0.1-0.1-0.1-1.8-0.2-5.3c0.5-0.3,0.9-1.3,1.3-3c0.6,0.1,1,0,1.4-0.5
		c0.5-0.6,0.9-1,1.1-1.1c0.1,0.2,0,0.9-0.4,2.1c-0.7,2.3-0.8,5-0.1,7.9c0.6,2.7,1.6,5,3.1,6.9c1,1.2,2.7,2.9,5.2,5.1
		c2.8,2.3,4.7,3.8,5.8,4.3c-0.3-0.1,1.2,0.4,4.4,1.5c3.7,1.3,7.6,1.6,11.5,1c0,0.2-0.2,0.4-0.5,0.7c-0.3,0.2-0.5,0.4-0.5,0.6
		c0.3,0.1,0.7,0.1,1.4,0c0.7-0.1,1.3-0.2,1.8-0.1c0.1,0.4-0.1,0.8-0.6,1.3c-0.5,0.5-0.7,0.8-0.6,1.2c0-0.1,0-0.1,0-0.1
		S101.9,110.8,103.9,112.1z M67.7,59.1c-0.6,0.7-0.8,1.8-0.8,3.3c1.4,0.7,2.2,1,2.4,1c-0.1-0.2-0.3-0.5-0.6-0.9
		c-0.3-0.5-0.4-0.8-0.5-1c-0.5-0.7-0.6-1.5-0.3-2.3C68,59.2,67.9,59.1,67.7,59.1z M70,46.2c-1.2,0.5-2,1.5-2.3,3
		c0.4,0.1,0.6-0.2,0.6-1c0.1-0.3,0.5-0.6,1-1C69.6,46.8,69.9,46.5,70,46.2z M70.7,136.2c-0.3,0.5-1.1,0.9-2.4,1.2
		C68.9,136.6,69.7,136.2,70.7,136.2z M73.4,136.7c-1.8,1.1-3.5,1.9-5.1,2.4c0-0.3,0.7-0.8,2-1.5C71.7,136.9,72.8,136.6,73.4,136.7z
		 M87.8,130c0.3,0.1,0.3,0.2,0.1,0.4c-6.6,4.8-12.8,8.3-18.8,10.4C80.5,134.4,86.7,130.8,87.8,130z M75.4,61.2
		c-0.5,0.1-1.2,0.3-2.1,0.5c-1.1,0.2-1.9,0.4-2.2,0.5c0.2,0.1,0.3,0.3,0.3,0.6c0.9,0.3,1.8,0.3,2.7,0C75.1,62.4,75.5,61.9,75.4,61.2
		z M77.6,77.5c-0.1-0.2-0.4,0.2-0.7,1.1c0,0.3,0.1,0.5,0.2,0.6c-0.2,0.4-0.8,1.1-1.7,2.1c-0.7,0.8-1.2,1.5-1.5,2.2
		c0.2-0.1,0.5-0.4,1-1c0.5-0.6,0.8-1,1.2-1.1c-0.5,1.1-1.4,2.4-2.5,4c-0.5,0.7-0.8,0.9-0.9,0.8c0.3-0.5,0.7-1.2,1-2.1
		c-0.1-0.1-0.2-0.1-0.4,0c-0.3,0.1-0.5,0.2-0.6,0.1c-0.1,0.3,0.1,0,0.7-1.1c0.2-0.5,0.2-0.9-0.1-1.3C75.7,79.2,77.2,77.7,77.6,77.5z
		 M73.7,134.3c0.1,0.2-0.3,0.5-1.1,0.9C72.6,134.8,73,134.5,73.7,134.3z M73.9,86c0.1,0.3,0,0.7-0.3,1.2c-0.4,0.6-0.6,1-0.6,1.3
		c0.5,1.2,0.6,2.1,0.2,2.7C72.6,88.5,72.8,86.8,73.9,86z M75.2,58.9c0.2-0.6-0.1-1-0.9-1.2c-0.8-0.1-1.1,0.2-1,0.9
		C73.9,59.2,74.5,59.3,75.2,58.9z M75.1,39.5c-0.1-0.6-0.6-1.1-1.5-1.6c0.1,0.8,0.4,1.4,0.9,1.6H75.1z M79,133.9
		c-1.6,1.3-2.5,2-2.7,2c0.1-0.7,1.5-1.7,4.1-3c1.6-0.8,3.2-1.8,4.7-2.9h0.7c-0.5,0.8-1.5,1.5-3,2.1C80.8,132.8,79.5,133.5,79,133.9z
		 M87.6,55.8c0.2,0.1,1,0.5,2.3,1.3c0.4,0,1.1-0.2,2.1-0.6c0.8-0.3,1.4-0.3,2,0c-0.3,0.8-1.2,1.4-2.6,1.8c-1.7,0.5-2.8,0.9-3.2,1.3
		c-0.1,0-0.3,0-0.5-0.1c-0.1-0.1-0.3-0.2-0.4-0.2c-0.3,0.5-0.9,1-1.9,1.5c-1.1,0.5-1.8,0.9-2.1,1.2c0.1,0.3,0.3,0.6,0.7,1
		c0.4,0.3,0.6,0.6,0.5,0.9c-0.1,0.5-0.3,0.7-0.8,0.7c-0.8,0-1.3,0-1.4,0.1c-0.3,0.1-0.7,0.3-1.1,0.7c-0.3,0.3-0.6,0.4-0.9,0.3
		c-0.1-0.5,0.1-1.1,0.6-1.9c0.2-0.3,0.6-0.8,1.2-1.5c0.5-0.7,0.9-1.2,1.2-1.6c1.6-2.4,3-4,4-4.8H87.6z M90.2,113.7
		c0.2,0,0.6,0.3,1.2,0.8c0.4,0.4,0.8,0.4,1.2,0c-0.7-1-2.4-1.6-5-1.9c-1.8-0.2-3.5-0.2-4.9,0h-0.3c0.1,0.5,0.5,0.7,1,0.7
		c0.1,0,0.3,0,0.7-0.1c0.3-0.1,0.6-0.1,0.8-0.1c0.2,0.1,0.7,0.4,1.5,0.9c0.5,0.1,1.2,0,2.1-0.2C89.2,113.6,89.9,113.6,90.2,113.7z
		 M93,125.4c-1.2,2.4-2.4,3.5-3.6,3.2C90.7,126.7,91.9,125.6,93,125.4z M99.2,158.8c-0.3,0.2-0.8,0.7-1.5,1.6
		c-0.8,1-1.3,1.8-1.7,2.1c-1.6,1.6-3,2-4.3,1.2c0.5-0.9,2.4-4.6,5.9-11c2.5-4.6,4.1-8.7,5-12.2c0-0.1,0.1-0.1,0.2-0.2
		c0.1-0.1,0.1-0.1,0.1-0.2c0.1-0.1,0.1-0.1,0.2,0l0.2,0.1c0.1,1.1-0.2,2.6-0.9,4.4c-0.8,2-1.2,3.4-1.3,4.1c0.5-0.1,0.9-0.5,1.4-1.2
		c0.5-0.6,1-0.9,1.6-1c-0.1,0.4-0.3,0.8-0.6,1.4c-0.4,0.5-0.6,0.9-0.7,1.3c0,0.4,0.3,0.4,1,0c-0.1,0.8-0.6,1.8-1.5,2.7
		c-1.2,1.4-2,2.2-2.1,2.5c0,0.2,0.1,0.4,0.2,0.7c0.1,0.2,0.2,0.4,0.1,0.7c-0.1,0.3-0.3,0.7-0.7,1c-0.4,0.5-0.7,0.8-0.8,1
		C99.2,158.4,99.3,158.8,99.2,158.8C99.3,158.8,99.3,158.8,99.2,158.8z M95.6,52.5c3.8-0.8,6.1-0.8,6.9-0.2
		c-0.1,0.5-0.3,0.7-0.8,0.7c-0.1,0.1-0.3,0.1-0.6,0.1c-0.3,0-0.5,0-0.6,0c-4.4,0.7-7,0.8-8,0.4C92.7,53.2,93.7,52.9,95.6,52.5z
		 M106.6,152.1c-1.4,2.2-3.5,4.9-6.2,8c-1.7,2.1-3,3.1-4,3.1c0.3-0.3,1.2-1.3,2.7-2.9c1.1-1.1,1.9-2.2,2.3-3.2
		c-0.1-0.1-0.2-0.2-0.5-0.3c-0.3-0.1-0.5-0.1-0.6-0.2c2.1-2.2,4-4.4,5.7-6.5c-0.3-0.3-0.5,0.5-0.6,2.3c0.2,0.2,0.4,0.2,0.5-0.1
		C106.1,152.1,106.4,152.1,106.6,152.1z M98.4,58.6c0.1-0.6,0.7-1.2,1.9-1.7c1.2-0.5,2-0.5,2.5,0.2c-0.3,0.5-0.6,1.7-1,3.4
		c-0.3,1.4-0.7,2.5-1.1,3.1c-0.7-2-1-2.9-1-2.7C99,59.1,98.5,58.3,98.4,58.6z M105,156.4c0,0.4,0,0.6,0.1,0.6
		c-1.2,1.8-2.2,3.1-3,3.9c-1.1,1.2-2.1,1.8-3,1.8c3.8-4.4,5.6-6.4,5.5-6.2H105z M103.5,104.8c0.1,0.8-0.6,1.3-2.1,1.5
		C101.5,105.6,102.2,105.1,103.5,104.8z M102.6,161.6c1.2-2,2.3-3.2,3.5-3.6C105.1,160.1,103.9,161.3,102.6,161.6z M102.9,145.5
		c-0.1-0.3,0.4-1,1.5-2.1c0,0.1,0.5-1.5,1.5-4.8c1-3.5,1.3-5,1-4.6h0.3c0.4,1.4-0.1,3.9-1.6,7.3
		C104.5,143.8,103.7,145.2,102.9,145.5z M115,91.3c0.1,0,0.1,0,0.2,0.1c0.1,0.1,0.1,0.1,0.2,0.1c-0.3,0.8-0.8,2.5-1.3,5.2
		c-0.4,2.2-0.9,3.8-1.6,4.8c0.1,0.1,0.2,0.2,0.3,0.5c0.1,0.3,0.2,0.4,0.3,0.5c-1.8,3.9-2.7,5.7-2.6,5.5c0.3,0,0.5-0.3,0.7-0.8
		c0.3-0.4,0.6-0.6,0.9-0.6c-0.1,0.5-0.4,1.1-0.9,1.9c-0.5,0.7-0.8,1.3-0.9,1.9c0.3,0.2,0.5,0.1,0.7-0.3s0.4-0.5,0.7-0.3
		c0,0.4-0.1,0.8-0.4,1.2c-0.3,0.5-0.5,0.8-0.5,1.2c0.1,0.1,0.2,0.2,0.5,0.1c0.3-0.1,0.4-0.1,0.5,0c-0.1,0.6-0.5,1.4-1.2,2.4
		c0,0.3,0.1,0.5,0.4,0.7c0.2,0.3,0.3,0.5,0.4,0.7c-0.6,0.3-0.9,1-1.1,2.1c-0.5,0.1-0.9,0.9-1.3,2.2c-0.4,1.2-0.9,1.8-1.6,1.8
		c1.1-6.6,0.8-11.4-1-14.2c-0.1-0.1-0.3-0.4-0.6-0.7c-0.3-0.3-0.5-0.5-0.6-0.6c-0.3-0.5-0.4-1-0.2-1.6c1.2-0.5,2.4-1.6,3.6-3.2
		c1.6-2.1,2.6-3.3,3-3.7C113.6,93.9,114.7,91.7,115,91.3z M106.2,160.4c1-1.3,1.8-1.9,2.2-1.9c-0.1,0.1-0.2,0.4-0.4,0.7
		c-0.1,0.4-0.3,0.7-0.4,0.8C107.2,160.5,106.8,160.7,106.2,160.4z M109.5,160.1c-0.2-0.1-0.2-0.2-0.1-0.4c0.1-0.2,0.3-0.2,0.5-0.1
		c0-0.1,0,0.1-0.1,0.5C109.6,160.1,109.5,160.1,109.5,160.1z M121.9,48.4c-4.6,0.8-7.4,1.8-8.6,2.9c0.1,0.5-0.1,1-0.6,1.4
		c-0.5,0.3-0.8,0.7-0.7,1.3c0.8-0.2,1.7-0.8,2.8-2c1-1.1,2.1-1.7,3.1-1.9c1.3-0.1,3,0,5,0.5c2.5,0.5,4.1,0.8,5,0.9
		c0-0.2,0-0.4-0.1-0.6c-0.1-0.3-0.1-0.5-0.1-0.6c0.6-0.8,0.9-1,1.1-0.6c-0.5-0.3-1.7-0.5-3.6-0.4C123.4,49.5,122.3,49.2,121.9,48.4z
		 M117.2,84.9c-0.4,0-0.7,0.2-0.9,0.7c-0.2,0.5-0.4,0.7-0.7,0.8c-0.2-4-0.2-6.5,0-7.6c0.1,0,0.2,0,0.3,0c0.1,0.1,0.1,0.1,0.2,0.1
		c0.3,2,1.4,3.9,3.1,5.7c-0.1,0.2-0.1,0.4,0,0.7c0.1,0.3,0.2,0.5,0.2,0.6c0.1,0.1,0.4,0.2,1,0.2c0,0.1,0.1,0.3,0.2,0.6
		c0.1,0.3,0.1,0.5,0.1,0.7c0.7,0.4,1.1,1.3,1.3,2.6c0.2,1.2,0.2,2.3,0,3.3c-0.2-0.2-0.4-0.6-0.5-1.2c-0.1-0.7-0.3-1.1-0.4-1.3
		c-0.5-0.1-0.8-0.5-0.9-1.4c-0.2-1-0.4-1.5-0.5-1.7c-0.1,0-0.2,0.2-0.2,0.6s0,0.6-0.1,0.7C119.4,89,118.6,87.6,117.2,84.9z
		 M126.1,128.3c0.1,1.6-0.4,3.5-1.4,5.5c-0.5,3.3-1.4,6.9-2.7,10.6c-0.7,2-1,3.1-1,3.5c0,0.1,0,0.2,0.1,0.5c0.1,0.3,0.2,0.4,0.2,0.5
		c0,0.3-0.1,0.6-0.3,1c-0.2,0.5-0.3,0.8-0.3,1.1c0-0.1,0.1,0.5,0.4,2c0.1,0.8-0.1,1.4-0.7,2c0.1,0-0.2-0.1-0.9-0.3
		c-3.2,3.2-4.4,4.7-3.7,4.6c0-0.1,1.5-4.7,4.6-13.7c0.5-1.5,0.7-2.2,0.7-2.2c0.1,0,0.1,0,0.2-0.1c-0.1-0.1-0.1-0.1-0.1,0
		c0.1-1.4,0.6-3,1.3-4.6c0.1-0.4,0.6-2.1,1.5-5C124.6,131.2,125.3,129.4,126.1,128.3z M121.1,143.1L121.1,143.1
		C121.1,143.2,121.1,143.1,121.1,143.1L121.1,143.1z M123.8,73.3c-0.1,0.3,0,0.6,0.2,0.9c0.2,0.3,0.2,0.4,0.1,0.5
		c-0.8-0.1-1.5-0.5-1.9-1.4c-0.3-0.8-0.1-1.5,0.7-2.1c0.3,0.1,0.5,0.3,0.4,0.6c-0.2,0.5-0.3,0.8-0.2,1c0.1,0.1,0.2,0.1,0.4,0.2
		C123.7,73.1,123.8,73.2,123.8,73.3z M123.5,96.3c-0.5-0.3-0.7-1.8-0.6-4.4C123.5,92.6,123.7,94.1,123.5,96.3z M124.7,96.9
		c0.5,0.2,0.6,1.2,0.3,2.9c-0.4-0.1-0.6-0.5-0.6-1.4C124.4,97.8,124.5,97.3,124.7,96.9z M125.5,76.6c-0.2,0.1-0.4,0.1-0.6-0.2
		c-0.2-0.3-0.3-0.6-0.3-0.9c0.1-0.1,0.3-0.1,0.6-0.1C125.3,76.2,125.4,76.6,125.5,76.6z M147.6,94.9c-0.1,0.1-0.3,0.9-0.5,2.6
		c-0.1,0.7-0.6,2.1-1.6,4.2c0.4-0.2-0.3,0-2.1,0.6c-0.1,0.9-0.7,1.6-1.8,2c-1.9,0.8-2.8,1.1-2.6,1.1c0.1,0.4,0,1.1-0.1,2.1
		c-0.2,1.2-0.3,2.1-0.2,2.6c0.1,0.2,0.3,0.5,0.7,0.9c0.3,0.3,0.5,0.7,0.6,1c0.1,0.3,0,0.6-0.2,1.1c-0.1,0.5-0.2,0.9-0.3,1.1
		c0,0.1,0.1,0.3,0.2,0.6c0.1,0.3,0.1,0.6,0.1,0.7c0.1,1.5-0.4,3.6-1.7,6.2c-1.3,2.7-2,4.6-2,5.8c0.5-0.2,1-1,1.5-2.5
		c0.5-1.5,1-2.4,1.7-2.6c0,0.2-0.3,1.6-0.8,4.3c0,0.2,0.2,0.3,0.6,0.3s0.6,0.1,0.7,0.2c-0.2,1.8-1.4,5-3.6,9.5
		c0.1,0.1,0.3,0.1,0.6,0.2c0.3,0.1,0.4,0.2,0.5,0.3c0,0.1-0.3,0.6-0.8,1.7c0.1,0.2,0.2,0.4,0.4,0.5c0.3,0.2,0.4,0.4,0.4,0.6
		c-0.7,1.2-1.7,2.8-3,4.6c0,0.1,0.1,0.1,0.3,0.2c0.1,0.1,0.2,0.1,0.3,0.2c0.4-0.2,0.8-0.8,1.3-2c0.5-1,1.1-1.5,1.9-1.5
		c-0.2,0.9-0.6,1.9-1.3,3c-0.8,1.6-1.3,2.6-1.5,2.8c0.5,0.6,0.7,0.9,0.9,1.1c0.5-0.2,1-0.7,1.6-1.4c0.7-0.7,1.1-1.2,1.5-1.4
		c0.1-0.1,0.4-0.1,0.7-0.2c0.3-0.1,0.5-0.2,0.6-0.3c0.3-0.2,0.7-0.8,1.3-1.8c0.5-0.7,1-1.1,1.7-1.3c0,0.9-0.5,1.9-1.5,2.9
		c-1.2,1.2-1.9,2.2-2.1,2.8c-0.8,0.5-2.1,1.4-4,2.7c-1.6,1.2-3,2.1-4,2.6c-0.7,0-1.8,0.2-3.5,0.7c-1.3,0.4-2.3,0.4-3.1,0
		c0.1,0.6,0.7-0.6,1.9-3.4c0.1-0.3,0.1-0.7-0.1-1.2c-0.2-0.7-0.3-1.1-0.2-1.5c0.1-0.5,1.2-2.4,3.3-5.8c-0.1-0.6,0.1-1.1,0.4-1.6
		c0.5-0.7,0.7-1.1,0.8-1.3c-0.1-0.8,0.3-2.1,1.2-4.1c-0.4-0.7-0.4-1.5,0-2.4c0.6-1.7,0.9-2.6,1-2.8c0.6-3.1,1.2-5,1.8-5.7
		c-0.5-0.5-0.5-1.6-0.1-3.2c0.5-1.6,0.4-2.7-0.1-3.3c0.1-0.3,0.5-0.9,1.1-1.7c-0.5-0.5-0.7-1-0.4-1.8c0.5-1.2,0.8-1.8,0.8-1.8
		c0.1-0.9,0.1-2.3-0.2-4.2c-0.3-2.1-0.5-3.5-0.4-4.4c0-0.2,0.1-0.4,0.2-0.7c0.1-0.3,0.2-0.6,0.2-0.7c0.2-0.7-0.1-2.3-0.8-4.8
		c-0.3,0.3-0.5,0.7-0.4,1.4c0,0.6-0.1,1-0.4,1.3c-0.2-0.5-0.3-1.5-0.3-3c-0.1-1.3-0.4-2.2-0.9-2.6c-0.2-0.1-0.4,0-0.5,0.3
		c-0.2,0.3-0.4,0.5-0.6,0.5c0-1.1-0.2-2.2-0.7-3.4c-0.7-1.6-1-2.5-1.1-2.9c2.2,2,3.6,4.3,4.3,6.9c0.1,0.2,0.2,0.3,0.5,0.3l0.4,0.1
		c0.7,1.6,1,3.1,1.2,4.5c0.2,2.8,0.3,4.2,0.4,4.3c0.3-0.1,0.4-1.1,0.5-3c0.3,0.1,0.5,0.3,0.6,0.7c0.1,0.5,0.3,0.7,0.4,0.8
		c0.8-0.2,2.2-1.2,4-3.1c2.1-2.1,3-4.5,2.6-7.1c-0.3-2.8-1-4.9-2.1-6.4c1.1,0.5,2.4,1.2,3.8,2.2c1.8,1.3,3.1,2.1,3.7,2.4
		c2.3,2.7,2.3,6.6,0.1,11.9c-1,2.4-2,3.7-3.1,4c-0.1-0.5,0-1,0.5-1.7c0.5-0.8,0.8-1.4,0.8-1.8c0-0.3-0.1-0.6-0.3-0.9
		c-0.2-0.4-0.3-0.7-0.3-0.9c0,0.1,0-0.5,0.1-1.8c0.1-0.7-0.1-1.1-0.5-1.5c0-0.3,0.2-0.9,0.7-1.7c-0.1-0.7-0.2-1-0.2-1
		S148.3,95.9,147.6,94.9z M125.8,102.1c-0.1-0.5-0.1-0.8,0-0.9h0.4C126.2,101.9,126.1,102.2,125.8,102.1z M126.6,104.5
		c0.2-0.1,0.3,0.1,0.3,0.6h-0.4C126.5,105,126.5,104.9,126.6,104.5z M130.2,30.2c0.3-1.1,0.1-2.2-0.5-3.3c-0.9-1.9-1.4-2.8-1.4-2.7
		c1,0.2,1.9,1.2,2.4,3c0.6,1.8,0.6,3.2-0.1,4.2c-0.3,0.5-1,1-2.1,1.8c0-0.5,0.2-0.9,0.7-1.5C129.8,31.1,130.1,30.6,130.2,30.2z
		 M131.9,147.1c0.3,0,0.6-0.2,0.9-0.6c0.3-0.5,0.4-0.7,0.1-0.8c-0.1,0.1-0.2,0.4-0.5,0.7C132.2,146.7,132,146.9,131.9,147.1z
		 M132.9,141.7c0.1-0.1,0.2-0.3,0.2-0.4c-0.1,0-0.1,0.1-0.1,0.2C133,141.6,133,141.7,132.9,141.7z M133.7,47c-0.2,0.3-0.2,0.6-0.1,1
		c0.1,0.4,0.4,0.6,0.7,0.6c0-0.1,0.1-0.2,0.3-0.2c0,0.1-0.1-0.4-0.3-1.4H133.7z M134.4,135.2c1.2-1.6,1.8-2.8,1.8-3.8
		C135,133.7,134.4,135,134.4,135.2z M142.5,68.5c-1.4-0.4-3.8-0.2-7.2,0.6c0.3,0.1,0.9,0.2,2.1,0.4c0.8,0.1,1.4,0.3,1.8,0.6
		c-0.1,0.3-0.3,0.5-0.7,0.6c-0.4,0.2-0.6,0.4-0.7,0.6c0.1,0.3,0.3,0.4,0.8,0.5c0.5,0.1,0.8,0.2,1,0.4c0,0.1-0.1,0.3-0.3,0.6
		c-0.2,0.2-0.2,0.4-0.1,0.6c1.2,0.1,3.1,0.4,5.6,0.7c0,0.2,0.2,0.6,0.5,1.2l0.3,0.1c1.4,0,2.8-0.3,4.1-1c1.5-0.6,2.1-1.3,2-1.9
		c-1.3,0.7-3.5,1-6.5,1c-0.1,0.2,0.2-0.2,1.1-1.3c-0.6-0.6-1.3-0.7-2.1-0.5c-0.1,0-0.5,0.1-1.1,0.4c-0.5,0.2-0.8,0.3-1.2,0.4
		c0.1-0.2,0.3-0.6,0.6-1.3c0.1-0.6,0.3-1,0.6-1.2c-0.6-0.5-0.8-0.6-0.7-0.5c0-0.1,0.1-0.2,0.2-0.4c0.1-0.2,0.2-0.3,0.2-0.3
		S142.5,68.7,142.5,68.5z M138.6,46.6c0.1-0.8-0.4-1.3-1.3-1.3C137.4,46,137.9,46.4,138.6,46.6z M137.9,114.1
		c-0.3,0.1,0-0.6,0.7-1.9c-0.4-0.1-0.7,0.2-0.9,0.7C137.5,113.5,137.6,113.9,137.9,114.1z M162.8,82.7c0.3,0.5,0.5,1.2,0.5,2.1
		c0,1,0,1.7,0.1,2.1c-0.1,0.1-0.2,0.3-0.4,0.6c-0.3,0.3-0.4,0.5-0.5,0.7c0.3,1.2,0.1,2.2-0.6,3c-0.9,1.1-1.4,1.8-1.6,2.1
		c-0.1,0-0.3,0-0.6,0.1c-0.3,0.1-0.5,0.1-0.7,0.1c0.1-0.5,0.4-1,0.9-1.6c0.5-0.6,0.8-1,1-1.2c0-0.3-0.1-0.7-0.3-1.2
		c-0.1-0.4-0.2-0.7-0.3-1.1c-0.8-0.3-2.2-1.1-4.3-2.4l-1-1.9c-4.5,1-6.6,1.6-6.2,1.6c-2.6,0.4-4.7,0.1-6.2-0.9
		c0.7-0.2,1.8-0.2,3.1,0s2.3,0.2,2.9,0c0.1,0,0.4-0.1,0.7-0.4c0.3-0.2,0.6-0.3,0.9-0.4c0.3-0.1,0.6-0.2,1-0.3c0.5-0.1,0.8-0.1,1-0.2
		c0.7-0.2,1-0.6,1.2-1.2c0.1-0.2,0-0.4-0.2-0.6c-0.2-0.1-0.2-0.3-0.1-0.4C155.9,79.9,159.2,80.3,162.8,82.7z M145.1,67.1
		c-1,0.8-1.5,1.1-1.5,0.8c1.1,0.4,1.7,0.2,1.8-0.5C145.4,67.3,145.3,67.2,145.1,67.1z M154,63.6c-0.7,0.5-2,1-3.9,1.8
		c-1.8,0.7-3.1,1.3-3.9,1.9c1.8,0.1,3.6-0.3,5.6-1.4c1.6-0.8,2.5-1.5,2.5-2C154.3,63.8,154.2,63.7,154,63.6z M152.5,103.6
		c-0.5,4-2.5,6.9-6.1,8.7C149.4,109.5,151.4,106.6,152.5,103.6z M159.8,117.1c0.3,4.3-0.9,7.1-3.6,8.3c-0.1,0-0.4-0.1-0.7-0.2
		c-0.2-0.1-0.4-0.2-0.7-0.1c-0.4,0.2-0.6,0.5-0.5,0.8c0,0.1,0,0.3,0.1,0.5c0.1,0.2,0.1,0.4,0.1,0.5c0,4.2-1.1,6.6-3.3,7.3
		c-0.1-0.1,0.2-0.8,0.9-2c-0.1-0.5,0-1.8,0.1-4c0.1-1.8,0-3.2-0.1-4.1c-0.1-0.1-0.2-0.1-0.3,0.2c-0.1,0.3-0.3,0.5-0.5,0.4
		c-0.3-0.3-1-0.7-2.1-1.1c-1-0.4-1.6-0.7-2-1.1c1.1,0.2,2.4-0.1,3.9-1c0.3-0.3,0.9-0.7,1.9-1.3c0.8-0.6,1.5-1,2.1-1.3
		c0.6-0.3,0.9-0.5,1-0.6c0.4-0.3,0.8-1.1,1.3-2.4c0.5-1.1,1-1.7,1.8-1.9C158.9,115.8,159.1,116.8,159.8,117.1z M149.5,88.5
		c0.3-1,1.2-0.8,2.6,0.6c0,0.1-0.3,0.4-0.9,0.9C150.7,89.8,150.1,89.3,149.5,88.5z M163.9,96c-0.9,0.1-1.8,0.7-2.7,2
		c-0.8,1.2-1.8,1.8-2.7,1.8c0.1,0.7,0.3,1.6,0.7,2.9c0.5,1.4,0.7,2.4,0.9,3c0.5,2.4,0.1,4.1-1.2,5.2c0.5-1.5,0.3-3.5-0.6-6.1
		c-0.3,0-0.5,0.2-0.6,0.6l-0.3,0.9c-1.9,3.1-2.7,4.5-2.5,4.2c-1.4,3-2.8,4.4-4.1,4.3c-0.5,0.3,1.1-2.2,4.8-7.3
		c0.1-0.2,0.4-0.5,0.7-0.8c0.3-0.2,0.4-0.4,0.5-0.6c1-2.1,0.6-4.6-1.3-7.6c-0.4,0.1-0.7,0.6-0.9,1.4s-0.6,1.2-1.1,1.2
		c0.5-0.5,0.7-1.8,0.6-3.7c-0.1,0,0.2,0.1,0.9,0.4c3.9-1.4,6.4-3.2,7.5-5.5c0.5,0.3,0.4,1.2-0.1,2.7c0.2,0.2,0.6,0.2,1.1,0
		c0.5-0.2,0.8-0.2,1.1-0.1c0,0.2-0.1,0.4-0.3,0.6c-0.2,0.3-0.3,0.4-0.3,0.4S163.9,95.8,163.9,96z M150.9,119.2
		c0.2-0.5,0.8-1,1.8-1.5c0.9-0.4,1.4-1,1.4-1.9c-0.3-0.2-0.7-0.2-1.3,0.1c-0.5,0.3-0.9,0.3-1.2,0.2c1.8-1.6,3.2-3.2,4.2-4.8
		c0.1,3.5-0.7,6-2.3,7.3c-0.5-0.3-0.9-0.2-1.5,0.1C151.4,119.1,151.1,119.3,150.9,119.2z M153.7,103.9c-0.6-0.1-0.4,0.6,0.6,2.1
		c0.3-0.1,0.5-0.6,0.5-1.5c0-0.8,0.3-1.1,0.9-1c0.5,2.3-0.6,3.8-3.3,4.7c0.4-0.3,0.7-0.9,0.8-2.1
		C153.3,104.9,153.5,104.2,153.7,103.9z M153.1,90.2c0.7-0.2,1.3-0.2,1.9,0.1c0.6,0.3,0.9,0.8,0.9,1.5c-1.4,0.3-2.1,0.5-2.2,0.4
		C153.2,90.7,153.1,90,153.1,90.2z M154.5,93.2c0.3-0.8,1-1.1,2.1-0.7c1,0.4,1.2,1.1,0.7,2.1C155.7,94.5,154.8,94.1,154.5,93.2z
		 M164,116.9c0.6-0.6,1-1.3,1.2-2.1c0.3,6.2-0.2,10.2-1.5,11.7c-0.8,0.3-2,0.7-3.4,1.3c-1.5,0.6-2.6,1-3.3,1.2
		c0,0.1,0.6-0.5,1.8-1.8c0.2-0.2,0.6-0.7,1.2-1.5c0.5-0.7,0.9-1.2,1.3-1.6c0.1-0.1,0.3-0.2,0.8-0.4c0.4-0.2,0.7-0.4,0.8-0.6
		c0.2-0.3,0.4-1.1,0.5-2.3c0.1-1.1,0.4-1.9,1-2.2c0-0.3,0-0.6-0.1-0.9C164,117.3,164,117,164,116.9z M160.3,111.8l1.3,0.2
		c0.6-1.4,0.5-3.2-0.2-5.6c-0.1-0.7-0.5-1.6-1-2.9c-0.5-1.2-0.8-2.1-1-2.7c2.2,0.8,3.4,3.2,3.7,7.1c0.3,3.8-0.4,6.6-2,8.6
		c-0.4-0.4-0.6-0.6-0.6-0.6S160.5,114.5,160.3,111.8z M166.1,97.4c0.1,0.5,0.5,0.8,1.2,1.2c0.8,0.5,1.3,0.8,1.5,1
		c-0.1-0.4,0.3,0.4,1,2.2c0.3,1,0.1,1.7-0.6,2.1c-0.1-1.2-1.3-2.3-3.5-3.3c0.1,0.3,0.2,0.7,0.5,1.3c0.3,0.6,0.5,1,0.6,1.3
		c0.4,1.1,0.4,2.1,0,2.9c1.2,1.5,1.9,4,2.1,7.4c-0.5-0.1-0.9-0.9-1.1-2.4c-0.3-1.5-0.7-2.4-1.3-2.6c0.1,0.5,0.3,1.3,0.7,2.6
		c0.3,1.1,0.3,2,0.2,2.7c-0.8-0.7-1.3-1.7-1.6-3c-0.3-1.4-0.2-2.5,0.3-3.5c-0.3-1-0.7-1.6-1-1.9c-0.3,0.1-0.5,0.4-0.6,1
		c-0.1,0.5-0.4,0.8-0.8,0.8c0-1-0.4-2.2-1.1-3.5c-0.7-1.4-1.1-2.5-1.2-3.4h1.3l0.7-1.5c0.8-0.3,1.9-1.4,3-3.3c0.3,0.2,0.4,0.5,0.2,1
		C166.3,97,166.1,97.3,166.1,97.4C166.1,97.3,166.1,97.4,166.1,97.4z M173.5,94.6c0.1,1.9-0.7,3.4-2.4,4.5c1.2-1,1.7-3.1,1.3-6.2
		c-0.4-2.9-1.2-4.9-2.4-6.2c0,0.3,0.2,1.1,0.7,2.4c0.4,1.1,0.6,2.1,0.5,2.8c-0.1,0.4-1,1.8-2.7,4.1c-0.1-0.4,0.1-0.8,0.6-1.3
		c0.5-0.6,0.8-1,1-1.4c0.5-1.6,0.1-3.4-1.3-5.4c0.1,0-0.1,0.7-0.6,2c0.1-0.3-0.7,0.6-2.2,2.7c0.1-0.2,0.3-0.5,0.6-1
		c0.3-0.5,0.6-0.8,0.7-1.1c0.5-1,0.6-1.9,0.2-2.7c-0.3,0.3-0.8,1-1.4,2.1c-0.5,1-1,1.6-1.8,1.8c0.1-0.3,0.4-0.9,0.9-1.7
		c0.4-0.5,0.6-1,0.7-1.6c0.3-1.8-0.4-3.7-2.1-5.9c-0.8-1.2-1.3-1.8-1.3-1.9c0.1-0.9,0.7-1.3,1.8-1.1c0.4,0.1,1.1,0.7,2.1,1.8
		c0.9,1,1.8,1.4,2.6,1.3C171.6,84.1,173.1,88,173.5,94.6z"/>
</g>
</svg>
