<?xml version="1.0" encoding="utf-8"?>
<!-- Generator: Adobe Illustrator 21.1.0, SVG Export Plug-In . SVG Version: 6.00 Build 0)  -->
<svg version="1.1" id="Layer_1" xmlns="http://www.w3.org/2000/svg" xmlns:xlink="http://www.w3.org/1999/xlink" x="0px" y="0px"
	 viewBox="0 0 825 825" style="enable-background:new 0 0 825 825;" xml:space="preserve">
<style type="text/css">
	.st0{fill:#FFFFFF;}
</style>
<path d="M445.8,133.3c2.3-3.4,1.4-8.2,4.6-11.2c1.8,3.9,3.4,7.8,5.1,11.7c12.3,0.1,24.5-0.4,36.8,0.6c7,0.5,14.2,1,20.7,3.8
	c3.5,11.6,0.1,24.1-6.5,33.9c5.2,11.2,4.1,24.3-0.6,35.5c-4.9,11.5-11.2,22.4-15.3,34.2c-0.4,5.8,1.3,11.6,3.9,16.7
	c5.1,9.8,14,16.7,22.5,23.4c16.2,12.4,32.7,24.4,49.9,35.3c8.9-6,17.4-13.7,28.4-15.4c6.8-1.1,13.6,2,18,7c2.4,18.9,4.1,38,4.7,57
	c0.2,18.6,0,37.7-6.3,55.4c-8.7-1.1-13.2-9.6-20.8-12.9c-4.8,9.6-3.2,21-7.9,30.6c-5.8,2.3-12.7,1-17.3-3.1
	c-5-4.5-7.3-11.3-8.2-17.8c-1.2-6.1-0.6-12.6,2.4-18.1c1.6-3,4.3-5.3,6.9-7.5c-2.4-5.1-4.7-10.3-6.6-15.6
	c-6.5,6.8-13.1,13.7-18.9,21.2c-0.5,4.5,5.5,3.6,8.2,5c-8.1,20.5-27.6,33-40.1,50.4c-8.2-2.5-18-4.9-22.5-13
	c-14.4,12.1-25.8,27.7-41.9,37.9c-13.3,5.4-27.1,9.6-40.2,15.7c-5.1,2.6-10.5,5.3-14.1,9.8c-2.8,3.5-1.2,8.3,0.4,12
	c2.8,5.4,6,10.7,7.9,16.5c1.6,6.4,1.2,13.1,1,19.7c-1.4,22.8-7.5,44.9-12.9,67c-4,19.1-7.7,39.3-2,58.4c4.6,2.6,9.7,4.2,14.1,7.2
	c3.9,3.2,4.3,8.8,3.2,13.3c-9.1,2.4-18.7-0.3-26.6-5c-6.9-3.9-12.8-9.6-16.9-16.4c-4.9-7.9-9.7-16.1-12-25.1c-2.1-8,2.1-15.6,4-23.2
	c4.3-13.8,1.7-29.7-7.7-40.8c-7.2-8.5-16.5-17.2-28.3-17.5c-6.6-0.5-12.6,2.8-17.6,6.7c-14.9,11.9-24.9,29-40.6,39.9
	c-2.8,17.7-5.7,35.3-7.7,53.1c-1.2,8.2,6.1,13.8,9.9,20.2c2.9,4.4,2.9,11.4-1.9,14.5c-5.5,3.5-12.2,0.9-17.5-1.4
	c-6-3-6.4-10.7-11.2-14.9c4.3-27.6-4.8-54.8-5.1-82.3c-0.4-8.5,5.1-15.9,11.7-20.7c6.2-5,13-10.5,15.5-18.2
	c-6.8-27.7-8.5-57-1.5-84.9c-5.3-3.1-11.4-4.6-17.4-6.1c-7,9.2-18.2,15.5-29.9,14.4c1.1-8.6-1.2-17.3-2.2-25.8
	c5.9-3.1,10.9-7.7,15.3-12.7c4.2-4.8,9.1-9.2,15.1-11.5c7.4,5,16.7,4.2,25.1,4.1c5.3-0.2,10.9,0.2,15.1,3.9
	c11.8-8.2,16.4-22.9,18.4-36.4c0.9-9.5,4.5-18.4,7.9-27.3c1.5-4.4,3.4-9.4,1.7-14c-3.5-10.9-10.9-20.8-10.3-32.7
	c-0.1-5.9,2.6-11.5,6.2-16c-4.9-4.5-12.6-2.5-17.4-7c-2.2-22,3.9-45.1,17.9-62.3c12-13,25.2-24.9,37.6-37.6c-5-5.2-13-5.3-17.8-10.7
	c1.7-6.9,6.4-12.7,11.9-17c6.3-4.9,13.1-9.7,17.2-16.7c7.7,0.7,15.5,1.6,23.2,2.4c4.4,0.5,8.6,2.1,11.8,5c0,4,0,8,0,12
	c4.1,3.6,9.9,3.5,14.5,6.1c4.1,2.3,4.4,9,0.1,11.3c-3.6,1.8-7.6,2.7-11.2,4.5c-3.2,10.6-11,18.9-17.6,27.5c7.7,10.8,13.8,22.6,22,33
	c7.3-5.5,14.9-10.5,22.5-15.6c-0.7-14.6-1-29.2-0.2-43.8c0.3-13.1,4.4-25.6,8.1-38c1.8-6.8,3.7-13.8,3.1-20.9
	c-1.2-5.9-5.3-10.7-8-16c-1.6-3.2-1.9-7.2-0.2-10.4c1.7-1.2,3.8-0.2,5.6,0.2c6,1.5,10.8,6.1,16.9,7
	C438.2,135.9,442.3,135.1,445.8,133.3z"/>
<path class="st0" d="M478.5,199.6c3.7-6.3,9.7-11.1,16.8-13.2c3.2,5.6,3.4,12.5,1.7,18.7c-2.4,9-7.6,17-13.1,24.5
	c-4.8-1.5-10-4.6-11-10C471.6,212.5,474.9,205.5,478.5,199.6z"/>
<path class="st0" d="M388.2,298.1c4.5-6.7,13.1-9,20.8-9.7c-3.8,8.8-9,19.5-19.6,20.9C387.2,306.2,385.8,301.6,388.2,298.1z"/>
<path class="st0" d="M580,352.2c1.8-3.9,3.1-8.8,7.3-10.9c3.2-0.9,5.1,2.6,6.2,5c4.2,11.1,5.7,25-2.3,34.8
	C589.5,370.9,586.3,360.6,580,352.2z"/>
</svg>
