<?xml version="1.0" encoding="utf-8"?>
<!-- Generator: Adobe Illustrator 21.1.0, SVG Export Plug-In . SVG Version: 6.00 Build 0)  -->
<svg version="1.1" id="Layer_1" xmlns="http://www.w3.org/2000/svg" xmlns:xlink="http://www.w3.org/1999/xlink" x="0px" y="0px"
	 viewBox="0 0 825 825" style="enable-background:new 0 0 825 825;" xml:space="preserve">
<path d="M461,105.7c7.3,9.8,14.7,19.6,21.4,29.8c5.2,8.2,10.6,16.8,12.3,26.6c8.4-1.8,15.9-6.5,22.7-11.7
	c6.1-4.5,11.4-10.1,17.9-14.1c6.7-4.3,14.3-7.3,22.3-7.8c-3.8,10.6-6.5,21.5-9.2,32.4c15.7,12.2,37.2,11.4,53.5,22.3
	c7.9,5.3,13,14.1,14.9,23.4c2.9,14.1,0.5,28.7-3.1,42.5c-5.3-12.4-6.3-26.5-13.8-37.9c-2.5-4-5.9-7.4-10-9.8c5,12.9,8,28.2,1,41
	c-4.4-13.2-13.1-25-25.1-32.2c-8.6-5.3-18.4-8.7-28.4-10.2c1.1,2.3,2.6,4.4,4.8,5.8c6.7,4.8,15.1,7.1,21.1,12.9
	c4.8,6.3,3.9,15.5,9.8,21.2c5.9,6.2,13,11,19.4,16.6c7.5,6.2,13.5,13.9,19.7,21.4c17.3,20.7,32.3,43.4,51.8,62.2
	c6.1,6.3,15.2,7.7,23,10.9c4.9,9,16.1,13,19.4,23.2c-5.2,12.3-9.1,25.1-12.2,38c-1.7,5.4-2.6,11.3-6.3,15.8
	c-5.1,6.7-14.9,9.3-22.6,5.9c-3.2-1.1-7.5-2.7-10.1,0.4c-3.4,3.8-6.4,9.1-12.2,9.3c-9.4,0.1-17.7-5.7-27.1-6
	c-5.5-0.5-12.1,1.5-16.3-3.1c-7.1-7.6-7.7-18.7-8.8-28.5c-11.6,3.7-24,3.8-36,5c-11.6,0.6-23.2,1.4-34.8,1.7
	c-17.7,1.5-36.4-2.1-51.1-12.5c-6.1-4.1-11.2-9.4-15.9-15c3.7,20.2,10.9,39.5,18.5,58.4c8.3,20.2,17.6,40,27.4,59.5
	c8.4,16.7,16.2,33.8,22.8,51.3c7.8,21.1,14.2,42.8,16.7,65.2c1.3,8.8-1,17.6-0.7,26.5c0.4,2.4,0,5.3,2.2,7
	c11.5,11.4,23.4,22.8,30.6,37.5c9.4,17.9,11.4,38.9,8.3,58.7c-11.6-17.5-28.1-31.3-45.9-42.2c-32.1-19.7-68.3-30.9-104.4-40.5
	c-42-11.2-84.5-21.1-125-37.1c-36.3-14.1-71.7-31.4-102.6-55.3c-16.1-12.5-31.4-26.4-42.7-43.4c-7.2-11-12.7-23.5-13.6-36.7
	c-0.7-6.2,3.4-12.4,0.8-18.5c-2.8-6.6-10.5-9.2-13.6-15.6c-2.4-12.8-7.4-24.8-11.9-37c-3-7.3-5.8-14.9-5.5-22.9
	c-0.5-9.8,3.3-19.6,9.5-27.1c4.2-4.9,10.3-7.7,16.2-9.8c-7.8-4.2-14.6-11.1-16.5-19.9c-1.9-7.9,0.6-16.2,4.3-23.2
	c4.3-8.3,11-15.6,19.7-19.4c6.8-3.1,14.4-3.6,21.7-3.7c-14.7-14.9-27.5-32.4-33.5-52.7c-5.1-16.4-4.3-34.9,3.6-50.3
	c2.6,4.2,1.1,9.2,1.9,13.8c2.7-7.8,2.9-16.2,5.5-24c1.6-4.8,5-9.1,9.7-11.1c-2.9,12.5-1.4,26.2,5.7,37c2.4,3.8,6.1,6.4,10.1,8.3
	c-5.6-9.9-9.1-21.7-6.4-33.1c4.9-22.1,24.2-39.4,46.1-44c-4.2,2.4-8.1,5.4-11.1,9.1c-9,11.3-15.5,25.4-14.9,40.1
	c-0.2,8.7,4.3,17.9,12.5,21.5c9.2,4.2,19.9,3.6,29.6,1.8c11.6-2.9,22.2-8.7,32.5-14.7c14.9-8.6,28.5-19.2,43.6-27.4
	c15-8.2,31-14.9,48.1-17.1c17.1-1.9,34.7-0.7,50.8,5.5c5.6,2,10.8,4.8,16.1,7.6c1.1-6.4,4.1-12.7,9.6-16.5c5.3-3.7,11.6-5.5,18-6.2
	c-0.1,5.2-5,8.5-5.7,13.5c-0.5,4.1,0.9,8.9,4.8,11c3.3,2,7.4,1.5,11.1,1.2C454,148.8,457.3,127,461,105.7z"/>
</svg>
