<?xml version="1.0" encoding="utf-8"?>
<!-- Generator: Adobe Illustrator 21.1.0, SVG Export Plug-In . SVG Version: 6.00 Build 0)  -->
<svg version="1.1" id="Layer_1" xmlns="http://www.w3.org/2000/svg" xmlns:xlink="http://www.w3.org/1999/xlink" x="0px" y="0px"
	 viewBox="0 0 825 825" style="enable-background:new 0 0 825 825;" xml:space="preserve">
<style type="text/css">
	.st0{fill:#FFFFFF;}
</style>
<path d="M573.5,87.3c5.9,2.2,8.7,8.3,10.4,14c1.9,6.6,3.5,14.2,0.1,20.6c-2.3,3.8-6,6.3-9.5,9c0.5-6.1,6.9-9.6,7.3-15.7
	C583.4,105,576.9,96.4,573.5,87.3z"/>
<path d="M539.6,100.9c2.3-5.7,8.8-7.8,14.5-7.5c5.8,0.3,12,1.1,16.8,4.5c1.2,8.2-0.5,16.9-4.9,23.9c-5.7,9-14.5,15.5-23.7,20.7
	c-0.5,4.3,0.6,9.2,4.8,11.3c2.2-1.8,3.5-4.3,5.2-6.5c1.4-0.8,2.9-1.1,4.3-1.7c1.2-1.9,2-4.1,3-6.1c1.2,2.9,2.5,6.1,1.9,9.3
	c-0.8,5.9-5.1,10.4-8.6,14.9c0.8,1,1.7,1.8,2.6,2.7c13.6-7.1,18.5-23.2,30.8-31.9c0.9,7.3,0.4,15.3-4.2,21.4
	c-5.4,7.3-14.1,10.9-21.5,15.8c3.8,2.5,8.4,3.5,12.9,2.6c6.2-1,12.2-3.4,16.8-7.8c1.3,0,2.6,0,4,0.1c2.1-5.4,3.9-10.8,6.2-16.1
	c1.6-0.8,3.3-1.3,4.9-1.9c1.7-4.9,2.9-10.2,1.7-15.3c-2-11-9.2-20-14-29.9c8.8,3.4,14.4,11.7,17.5,20.2c3.4,9.3,4.4,19.8,1.6,29.4
	c-0.9,3.2-2.1,6.3-3.1,9.5c4.6-2.6,7.6-7.3,8.2-12.5c1.5-4.6-2-9.5,0.8-13.8c3.4,2.6,5.4,6.7,5,11c-0.6,6.8-3.8,13.4-8.5,18.3
	c-2.9,3.1-7.1,4.4-11.3,4.4c-5.3,3.7-12,4.4-17.1,8.3c-2.5,1.9-5.3,4-6.7,6.9c0.7,2.3,3.7,2.3,5.7,2.3c4.9-1.2,8.6-5.6,14-4.9
	c1.7-3.4,4.6-6.8,8.8-6.7c9.9,0.2,18.5,11.2,15.5,20.9c-1.1,3.7-4.3,6.1-6.9,8.8c4.4-0.4,6.5-5.8,11.3-4.8
	c1.6-4.5,2.8-10.1,7.2-12.6c0.9,0.1,2.8,0.3,3.7,0.4c-1.3-5-3.5-10.2-7.9-13.1c-3.7-2.7-8.1-3.8-12.5-4.7c2.7-5.8,5.7-11.4,8.7-17
	c1.4,4.2,0.8,8.9,2.5,13c2.6,3.7,7.1,5.6,9.5,9.5c4.1,6.1,5,13.9,4.1,21.1c-0.8,5.1-5.3,8.6-5.9,13.7c3.3,1.8,5.9-2.7,9.4-2.4
	c2.3-4.4,4.2-9.3,3.8-14.4c-2.3-8.2-4.6-16.4-6.8-24.6c4.8,1.8,8.3,5.8,9.6,10.7c2.4,9.7,2,20.8-3.7,29.3
	c-3.9,6.6-10.4,11.4-17.7,13.6c2.1,2.4,5.6,2.5,8.3,1.1c7.5-3.3,14.1-9.7,15.9-18c0.4-5.1-0.2-10.3,1-15.3c0.5-1.8,2.2-2.8,3.5-4
	c4.3,8.7,0.3,18.3,0.9,27.4c1.8-1.8,3.4-3.9,5.8-4.8c2.7,7.5-2.4,14.4-6.7,20.1c-2.4,2.9-3.9,7.7-8.4,7.6
	c-5.2,0.1-10.8-1.7-15.6,1.3c1.2,0.1,3.7,0.2,4.9,0.3c-1.8,3.8-5.8,1.5-8.9,2.4c-1.1,3.2,0.4,6.3,2.1,9
	c-5.8,7.3-14.2,11.9-21.7,17.2c1.6,2.8,3.3,5.6,4.9,8.4c12.6-3.2,25.9-3.8,37.9-9.2c7.3-3.3,12.6-10.1,14.2-17.9
	c-5.3,1.6-9.2,6-14.4,8.1c-2.2,0.9-4.7,0.6-7,0.7c5.3-3.9,11.3-7.5,14.8-13.3c-1.2-0.7-2.3-1.4-3.5-2.1c0.6-6.6,8.1-9.3,8.9-15.8
	c2.8-1.9,4.7-4.8,7.5-6.8c0,6.3,0.2,12.6-0.1,18.9c0.3-2.2,1.4-3.9,3.1-5.2c-2.6,11.9-6.2,24.4-15.1,33.2c-2.2,2-4.7,4-7.5,5.1
	c-11.4,2.6-22.3,7.2-33.8,9.4c6.3,3.2,13.1-0.6,19.4-1.9c0,1.5,0,3,0,4.6c3.5-0.7,7.1-1.1,10.7-0.7c3.1,0.2,6.5,1.5,9.3-0.4
	c7-4.2,11.2-11.8,18.6-15.3c-0.2,1.1-0.7,3.2-1,4.3c1.8-0.6,3.5-1.2,5.3-1.8c0,1,0,3-0.1,4c2.4-5.1,5-10.3,8.4-14.9
	c3.5,9-3.2,17.1-7.1,24.7c-6.6,4-12.7,9.3-16.4,16.2c0.4,2.3,1.1,4.7,0.9,7.1c-1.2,2.4-3.1,4.4-4.3,6.8c2.6-0.5,5.4-0.8,7.5-2.5
	c4.2-3.1,6.3-8,9.5-12c0.6,1.7,1.1,3.4,1.8,5c6.6-3.9,9.5-11.4,14.9-16.6c0,1,0,3,0,4.1c3.6-0.3,7.3-0.4,10.9-0.9
	c5.1-1.2,10.2-2.8,15.5-2.8c-2.4,1.6-5.2,2.1-8,2.4c-13.9,0.2-26.4,9.8-32.6,21.9c9.4-2.5,17.8-8.6,27.7-9.1
	c6.8-0.5,12.8,3.3,18.3,6.9c1.6,1.2,3.8,2.2,4.2,4.4c2.1,6.9,3.1,14,4.8,21c-2.2-1.2-4.6-2.5-5.8-4.9c-2.5-4.9-3.4-10.4-5.5-15.4
	c-2.4-3.5-6.5-5.7-10.7-5.9c-6.3-0.5-12.5,1.1-18.3,3.6c7.8,0.5,16.3-0.8,23.5,3c3.4,1.9,4.7,5.6,5.2,9.3c-1.5,0.9-3,1.9-4.6,2.8
	c5.3,8.6,14.3,14,20,22.2c-9.2-1.8-16.5-9.2-26.3-9.1c-1.1-2-1.9-4.2-3.3-6.1c-10.2-4.3-21.2,1.2-31.6-1.1c0-2.8,0-5.6-0.1-8.4
	c-5.8-3-11.7,1.1-16.8,3.4c-10.5,5.8-22.7,7.4-34.1,10.4c6.2,4,13.9,2.9,20.7,1.1c5.5-1.2,11-2.7,16.5-3.9
	c9.4,0.6,18.6,2.5,27.9,3.4c3.8,0.6,6.6,3.8,8,7.2c-10.1-4-20.8-7.7-31.8-6.7c-5.6,0.5-11.1,2.4-15.6,5.8c3.4,2.4,7.9,1.4,11.5,3.6
	c-9.6,6.2-21.8,1-31.8,5.7c0.2,2.3,0.4,4.8,2,6.6c3.3,3.4,8.4,3.6,12.9,3.7c6.4-0.2,12.9,0.5,19.3-0.1c-12,4.5-26.1,5.6-37.9-0.3
	c-5.3-2.5-9.1-7.6-10.2-13.3c8-2,16.5-1.2,24.3-4.1c-7-2.1-14.4-2.8-21.6-4.2c-4.8-0.9-9.3-3.7-11.2-8.4c-5-2-9.6-4.9-14.5-7.2
	c0.8-0.9,1.5-1.8,2.3-2.8c-6.4-5.3-13.4-10.1-19.2-16.1c1.6-1.6,3.6-2.6,5.7-3.5c-0.7-3.2-1.2-6.4-1.4-9.7c-2.8-1.5-5.7-2.7-8.5-3.8
	c-5.4-11.8-16.7-20.2-29.3-22.8c-0.8-2.1-1.4-4.8-3.8-5.8c-4.9-1.5-10-1.5-15-2.5c-2.3-0.7-4.5,2.1-3.4,4.3
	c1.4,3.7,3.1,7.7,1.7,11.7c1,0.7,1.9,1.4,2.9,2.2c-2.2,6.1,4.9,10.4,2.9,16.4c2.1,2.2,5,3.4,7.6,4.9c-0.3,2.1-0.7,4.2-1.1,6.3
	c2.1-0.9,4.1-1.9,6.2-2.8c-0.6,4.8-1.4,11.8-7,13.2c0.1-2.1,0.3-4.3,0.6-6.4c-1.3,0.5-2.5,1-3.8,1.5c-3.1-3.6-6.6-7.6-5.7-12.7
	c-2.9-1.6-6.3-3.3-6.4-7.1c-6.5-3.7-8.8-11.1-13.5-16.4c-3.2,0.5-6.3,1.1-9.4,1.8c-2.4-2.3-4.6-4.9-6.7-7.5
	c-5.4,6.9-3.7,16.7-9.5,23.4c0.6,3.5-0.2,7.2,1.8,10.4c3.6,7.4,3.5,16.6,10.1,22.4c0,1.4,0,2.8,0,4.2c3.2,3.8,6.3,7.6,9.2,11.6
	c0.2,5.3-0.3,11.2,2.9,15.8c1,13.6-0.3,27.3-2.8,40.6c-3,15.1-6.9,30.2-14.1,44c-4.2,8.1-10.3,15.6-18.5,19.9c-2.8,1.5-6,2-9,1
	c-9.8,5.9-19.6,12.7-31,15.2c-3.5-2.4-7.7-3.5-11.9-3c-4-4.3-9.8-1.7-14.8-2c-3.6-4.5-9.7-5.6-13.9-9.4c3.8,0.6,7.8,0.2,11.6,1.3
	c1.9,0.4,1.7,2.7,2.3,4.1c7.4,1.7,15.2-0.5,21.7-4.3c-1.6,1.3-2.2,3.1-1.7,5.2c12,0.4,22.3-6.5,31.7-13.1
	c-2.8,6.8-9.9,9.7-15.7,13.4c7.3-0.7,13.6-5,19.5-9c8.3-5.7,12.8-15.1,19.7-22.2c-0.7,2.2-1.5,4.4-2.1,6.7
	c13.1-13.4,21-31.4,22.8-50c2.6-27.2-4.3-56.4-22.9-77c-5.1-6-11.7-10.4-16.7-16.5c-3-2.9,0.2-6.6,2-9.2c8-10.8,18.9-19.2,26.1-30.7
	c-1.4-1-2.8-1.9-4.2-2.9c0.8-1.9,1.6-4.2,3.7-4.9c4.1-1.6,8.6-2,12.9-3.3c-1.4-1.7-2.9-3.3-4.3-5c4.4-6.1,12.6-6,19.3-5.2
	c1.1,2.4,1.4,5,2.6,7.3c3.1,3.6,7.8,5.2,12.3,6.3c7.7,1.6,15.5,2.9,23.3,3.9c10,1.1,20.3,2.1,30-0.8c13.2-3.5,24.5-12.5,32.3-23.6
	c3.1-4.5,6.6-9.2,7.2-14.9c0.3-3.5-3-5.8-5.9-6.8c-5.9-2.1-12.2-2.1-18.3-2c0-0.8-0.1-2.4-0.1-3.2c-3.4-1.6-6.5,0.7-7.9,3.7
	c2.3,1.5,5,2.4,6.9,4.3c-0.1,1.8-1.8,3.1-3.5,3.3c-3.9,0.3-7.8-0.2-11.6-0.1c-0.6,1.2-1.2,2.4-1.9,3.5c-8.6,1.8-19.9-1.4-26.2,6.4
	c-7,1.9-14.3,0.9-21.4,2.2c-2.7,0.4-5,1.9-7,3.7c-4.6,0.6-9,2.5-13.7,2.4c-3-2-6.3-4.7-10.2-3.5c-6.6,1.9-12.8,5.4-19.7,5.5
	c0.5-6.5-5.4-10.9-10.9-12.8c5.9-2.2,12.1-3.7,18.2-5.2c6.3-2,9.6-8.2,14.4-12.2c5-3.7,11.3-4.9,17.2-6.2c5.1-1,10-2.5,15-4
	c-3.6-2.8-5.6-7.6-10.1-9.1c-6.6-0.4-11.8,4.8-18.1,5.6c-3.7-0.1-7.3-0.4-11,0c-1.3-1.7-2.6-3.4-3.8-5.1
	c-10.1,10.7-22,20.9-36.6,24.6c-7.1,1.6-15.1,2.3-21.5-1.7c4-2,7.9-4.3,11.7-6.8c0.6-4.1,3.3-7.2,5.2-10.7
	c-4.8-4.3-11.4-0.9-16.5,0.9c1.3,5.2-3.7,9-3.6,14.1c-6.4,5.4-17.3,8.4-24.1,2.2c6.8-2.3,14.3-3.9,19.6-9.1
	c-0.9-1.8-1.7-3.5-2.7-5.2c-6.3-1.9-12.7,0.4-19,1.4c-3.6,0.7-7.2,0.2-10.8,0.4c-4.2,1.1-8.2,3-12.3,4.7c2,3.5,4.7,6.5,6.3,10.2
	c3.2-0.2,6.5-0.3,9.8-0.1c-2.4,7.6-13.1,6.9-15.3,14.4c0-1.9-0.2-4.2-1.8-5.5c-4.3-2.5-8.1-5.6-11.9-8.8c-2.6-2-3.2-6-6.6-7
	c-5.5-1.7-11.7-1.3-16.5-5c-11.7,5.9-25.6,4.7-37.3,10.5c-0.7,2.7-1.4,5.3-2.3,7.9c-1.2-2.1-2.5-4.1-4.1-5.9c-1.6,1-3,2.3-4.3,3.6
	c1.2,7.3-0.7,15.2-5.5,20.9c-2.6,3.2-6.1,5.6-9.4,8c1.7,1.8,3.9,2.8,6.3,2.2c-6.9,10.5-12.5,22.5-22.8,30.1c0.8-2.2,2.3-4.1,3.3-6.2
	c-2.4-4.2-7-6.3-10.2-9.8c1.4-2.5,5.2-4.2,4-7.5c-3.1,0.2-6.1,1.1-8.8,2.7c-8.1,4.8-15.5,10.9-22.1,17.7c8.7-0.4,15-7.1,23-9.6
	c-0.6,1.9-1,4.1-3,5c-4.9,2.7-10.6,3.3-15.7,5.6c-3.8,1.1-6.1,4.4-9.5,6.1c-8.8,3.5-16.5,9.1-24.5,14.1c0.8,0.3,2.4,0.8,3.2,1.1
	c-2.2,3.8-2.9,8.7-6.4,11.6c-2.2,1.8-5.1,0.3-7.6,1c-3,1.5-4.6,4.9-7.6,6.2c-2.4,0.5-5.1,0.4-6.7,2.5
	c-16.8,15.8-33.2,31.9-49.8,47.8c1,1.6,2.2,3.2,3.4,4.7c3.4-2.7,6.6-5.7,10-8.4c1.2,0.5,2.4,0.9,3.5,1.4c4.2-7.1,9.5-13.4,15.1-19.3
	c1.6-1.8,3.6-3.2,5.8-4.4c-1.6,6.3-5.7,11.5-9.4,16.8c-8.2,11.3-17.4,22.3-29.3,29.7c-8.9,5.5-20.3,8.2-30.2,4.1
	c-2.8-1.2-5.9-1-8.4,0.8c1.3,6,6.9,9.6,12.6,10.9c6.3,1.4,12.7,2.6,18.7,5.1c3.6,8.5,6.7,17.3,7.4,26.6c2.5-4.1,3.8-9.2,2.2-13.8
	c-3.3-10.5-12.2-18.3-21.9-22.9c7.1,0.4,14.2,3.4,18.6,9.2c6.5,8.2,10.3,19.9,5.8,29.9c-1.6,3.1-3.3,6.8-6.8,8.1
	c-7.9,3.4-15.7,6.9-23.9,9.5c-4.1-4-8.5-7.6-12.4-11.8c-3.2-3.6-4.4-8.5-4.8-13.2c5.9-1.8,11.4,1.8,15.8,5.3c6.1-4,7-14,1.1-18.5
	c-5.8-3.8-14.6-1.6-17.7,4.8c-3.6,7.6-4.4,16.1-7.6,23.9c-0.9-2-0.8-4.3-0.8-6.4c-2.4-1-4.7-2.3-7.1-3.4c-1.2,1.4-2.4,3.8-0.8,5.4
	c2.3,2.7,4.5,5.5,7.2,7.8c2.4,2.1,5.8,1.6,8.8,1.6c0.2,1.6,0.3,3.1,0.4,4.7c1.5,0,2.9,0.1,4.4,0.3c-0.4,2.9-1.4,6-3.9,7.8
	c-2.2,1.7-5,1.6-7.6,1.7c-0.9,3.8-1.2,7.9,1.1,11.3c5.6-4,4.6-14,12.4-15.1c0.8,7-6.9,10.9-7.3,17.7c3.7,0,7-1.6,10.2-3.1
	c-2.3,7.1-9.2,11.1-15.8,13.7c-5.3,2-10.5,4.1-15.5,6.7c-2-2.5-3.4-5.5-5.9-7.6c-4.7,5.4,0.2,13,6.1,14.8c8.4,2.4,17.2-0.5,25.7,1.6
	c-2.4,3-6,4.6-9.7,5.4c1.8,1.7,4.1,2.1,6.4,2.5c0.3,1.8,0.5,3.6,0.8,5.5c0.4,0.3,1.3,1,1.7,1.3c5.9-0.6,11.6-2.7,16.3-6.3
	c-0.6,3.1-1.8,6.6-5,8c-6.7,3.1-14.8,2.4-21.4-0.6c-5.9-2.3-9.4-8-14.5-11.4c-3.2-2.1-8.1-1.3-10.5-4.8c-2.5-4.7-2.1-10.2-2.5-15.3
	c6.1-5.3,7.4-14,7-21.7c-0.8-9.6-1.2-19.2-1.6-28.9c0.9-12.6,9.1-23.2,18-31.5c0-2.8,0-5.5,0-8.3c2.9-1.7,5.5-3.9,6.7-7.2
	c1.9-0.3,3.9-0.5,5.5-1.6c12.7-7.7,24.3-17.1,35.7-26.6C147,348,166,330,185,312c5.3-4.8,10.4-9.8,16.4-13.8
	c7.2-4.9,13.8-10.8,20.8-16.1c11.1-8.7,22.9-16.4,34.1-25.1c3.1-2.4,6.3-4.7,9-7.7c7.1-8,14.1-16,21.2-24c6.3-7,14.1-13,23.1-15.9
	c-0.2-4.7,0.6-9.4,2.1-13.9c-1.6-0.8-3.2-1.7-4.7-2.6c2.5-1.8,5.2-3.4,7.7-5.1c0.8-4,2-8.3,5.2-11c4.6-3.9,10.1-6.4,15.4-9
	c-5.6-5.3-11.3-11.8-11.6-19.8c-0.4-3.5,1.4-6.6,2.9-9.6c-0.3,4.7-0.8,9.9,1.8,14.1c1.3,2.5,3.7,4.1,6,5.7
	c-1.3-9.9-7.5-20.2-2.6-30.1c2.3,5.7,0,12.5,3.8,17.6c1.5-6.6-2.1-15.1,4.1-20c-0.7,6.3-1.3,12.8,1,18.9c4.2,11.3,13.3,20,22.8,27
	c4.5,3.1,10,6.4,15.6,4.5c6.8-1.7,11.7-7,17.3-10.7c1.1-0.6,2.2-1.6,3.5-1.5c9,0.7,17.8,3,26.6,4.4c1.3-2.7,0.8-5.7,1-8.6
	c10.2,4,19.9,9.4,30.3,12.8c-0.1-2.5,0.4-5.2-0.9-7.4c-1.9-3.7-5.8-5.6-8.9-8.1c-3.5-2.5-6.8-5.5-8.8-9.3c4.8,1.1,9,3.6,13.4,5.6
	c-4.7-8.7-14.3-13.1-23.6-15.1c-8.8-2-18.6-1.3-26,4.2c5.2,2.3,11.4,0.9,16.4,3.9c-7.4,0.4-15,0.8-22.4-0.4
	c-7.4,1.6-14.5,4.2-21.7,6.7c-2.4,1.1-5.7,1.5-7,4.1c0.2-6.8-7.6-8.4-10.8-13.2c4.8-0.8,8.1,3.1,12.3,4.5c4.9-8.4,12.4-14.8,19-21.9
	c7.2-7.8,16.3-14.4,27-16.1c10.6-1.4,21.9-0.6,31.4,4.6c3.6,1.9,6.1,5.4,7.3,9.2c-8.8-2.1-17.4-4.8-26.3-6.2
	c2.2,4.2,4.5,8.4,7.3,12.2c0.5,0,1.5-0.1,2-0.1c8.2,4,16.5,8.2,23.8,13.9c4.5,0.2,8.4,2.6,12.4,4.2c-2-9-9.5-15-13.6-23
	c8.1,2.9,10.8,11.8,16,17.8c0.4-3.8,0.5-7.7,0.6-11.5c1.1-0.5,2.2-1,3.2-1.5c0,5.5-0.7,11.1,0.2,16.5c0.4,2.6,2.5,4.5,4.4,6.1
	c14.5-14.2,34.1-22.3,54-24.7c2.3-0.4,4.8-0.2,6.7-1.8c4.9-3.4,10-6.7,14.9-10.1c3.3-1.9,4.4-6,4.3-9.6c-0.8-5-6.3-7.2-10.8-8.1
	C549,96.7,543.9,98.4,539.6,100.9z"/>
<path class="st0" d="M338.5,153.3c2.9,1.8,5.4,4.3,6.6,7.6C340.5,161.9,339.1,156.8,338.5,153.3z"/>
<path class="st0" d="M612.1,188.1c3.5,0.2,6,2.9,5.8,6.4C614.8,193.8,612.7,191.2,612.1,188.1z"/>
<path class="st0" d="M313.1,207.6c0.8-6.3,4.2-12.6,10.2-15.3c-1.5,2.9-3.8,5.4-6.2,7.6C314.7,202,316.1,206.1,313.1,207.6z"/>
<path class="st0" d="M596.4,196.4c0.9,0.1,1.8,0.3,2.7,0.5c0.6,2.3,0.8,4.7,1.2,7.1C596,204.5,595.5,199.5,596.4,196.4z"/>
<path class="st0" d="M509.4,216.7c10.1-8.4,23.6-10.6,36.1-13.4c2.2,2.5,5,4.3,8.4,4.6c6.7,0.6,13.5-0.4,20.1,0.8
	c-1,1.4-2.4,2.6-2.9,4.2c0.2,1.7,0.5,3.4,0.8,5.1c-14.7-1.5-28.9-8.2-43.9-6.3c-10.7,2.4-14.7,14.9-25,18.2
	C503.2,224.4,510.4,222.6,509.4,216.7z"/>
<path d="M438.1,221.6c8.2-1.4,17.1-3.7,25,0c-0.7,1.7-1.5,3.7-3.7,3.6c-13.2,0.9-26.6,5-39.9,2.2C425,223.8,431.9,223.1,438.1,221.6
	z"/>
<path d="M308,238.9c4.8-7.3,13.6-10.9,22-11.5c-2.2,4.2-8.6,4.6-8.7,10c5.9,0.7,11.9,0.7,17.8,1.5c7.7,1.5,13.8,6.9,19.7,11.7
	c0.7-4.7-4-7.5-4.5-12c5.6-0.4,7.7,5.3,9.5,9.5c2,6.5,11.4,8.7,10.4,16.5c-4.6-1.2-7.7-7.1-12.8-5.1c-6.8,3.3-9.8,11.2-16.6,14.5
	c-8.4,4.4-18.2,7.7-27.7,5.2c-4.6-0.8-6.9-7.4-12.2-6c-7.8,1.7-7.9,12.6-15.5,14.5c-1.9-4-2.5-9,0.4-12.8c4-4.9,9.1-8.7,13.5-13.2
	C302.6,254,303.6,245.6,308,238.9z"/>
<path d="M373.6,270.5c8.3-10.6,13.7-23.5,24.2-32.3c4,1.7,7.5,4.2,11.2,6.5c5.7-1.2,11.2-5.6,17.2-3.2c-1.8,4.4-6,7.2-10.5,8.3
	c-4.9,1.4-9.9,3-14.3,5.7c-1.4,1.2-3.1,0-4.6-0.3c-4.2,6-11.7,7.7-17,12.4c1.5,2.4,3.3,4.6,5.3,6.7c-0.2,1.7,0.1,3.7-1.5,4.8
	c-2.4,0.5-4.9,0.3-7.3,0.7c-3.6,0.8-5.3,4.8-9.1,5.1C367.2,279.4,370.4,274.6,373.6,270.5z"/>
<path d="M457.4,242.1c2.5-0.8,4.8,0.6,6.9,1.9c-3.8,10.4-4.3,21.8-8.8,32.1c-3.2-8.5-5.1-17.7-10.4-25.3
	C447,245.7,452.5,243.5,457.4,242.1z"/>
<path class="st0" d="M337.6,248.4c2.7-3,9.8,0.2,7.6,4.5c-1.2,0.6-2.4,1.2-3.6,1.7C339.1,253.7,335.8,251.4,337.6,248.4z"/>
<path class="st0" d="M309.6,270.1c0.1-5.6,0-12,4.2-16.4c0.1,3-0.5,6.1,0.3,9c1.5,4.4,3.8,8.5,6,12.6
	C316.5,273.8,313,272,309.6,270.1z"/>
<path class="st0" d="M327.9,268.6c6.1-1.6,12.3-2.6,18.4-4.3c0.3,4.7-4.2,7.2-8.3,7.8c-3.1,0.9-6.3,0.2-9.3-0.4
	C328.4,270.6,328.2,269.6,327.9,268.6z"/>
<path class="st0" d="M650.3,293c10.2-7.6,23.1-10.1,33.6-17.1c0.3,0.2,0.8,0.7,1.1,1l-0.1,1.3c-3.4,4-8,6.7-12.5,9.2
	C665.7,291.2,658.1,293.5,650.3,293z"/>
<path d="M294.5,299.9c1.2-6.2,4.2-11.8,7.9-16.8c5.1,3.9,11.2,6.3,16.2,10.3c0.9-1.1,1.8-2.1,2.7-3.2c4.5,1.4,9.4,0.8,13.8-0.6
	c2.5-0.9,5.2-0.6,7.7,0.3c1.6-1.2,3.3-2.5,5-3.6c1.2,0.8,2.4,1.7,3.7,2.6c-0.7,2.3-1.6,4.5-2.5,6.7c-1.9-0.1-4.1-0.6-5.5,1
	c-2.5,3-4.2,7.1-8.3,8.3c0.5,4.5-2.9,7.8-6.9,8.9c2.8-7,9.4-11.8,10.9-19.3c-7.6,1.7-15.6,3.1-22.3,7.4c-3-0.5-5.5,1.5-8.1,2.5
	c0.4-2.9,1-5.8,1.3-8.8C304.4,295.6,300.2,301,294.5,299.9z"/>
<path d="M284.3,287.9c1.2,1.5,2.5,2.9,4.1,4c1.5,6.6,1.8,13.8-1.2,20c-7.9-1.1-14.5,4.7-22.3,4.7c-14.3,11.5-29.6,21.7-45.1,31.4
	c-1.1,5-4.7,8.8-8.8,11.6c1.8-5.1,5.9-9,7.3-14.3c9.8-5.8,17.2-15.1,27.6-19.9c2.5-1.3,5.3-1.6,7.8-2.9c1.2-1.3,0.8-3.2,1.1-4.8
	C265.9,309.3,276.6,299.8,284.3,287.9z"/>
<path class="st0" d="M640.9,296.5c1.7-1.6,3.5-3.1,5.4-4.6c0,1.1,1.2,2.7,0.1,3.6C645,297.3,642.7,296.5,640.9,296.5z"/>
<path class="st0" d="M603.6,301.8c10.1-2.4,20.7-5.2,31.1-2.7c-0.6,1.6-1.3,3.1-2,4.6c0.9,0.6,1.7,1.3,2.6,2
	c-1.8,4-2.8,8.2-4.7,12.2c4-1.2,7.5-3.5,11.6-4.4c2.8-0.7,5.2,1.1,7.4,2.6c-1.5,2.2-3.2,4.3-4.7,6.4c9.6-0.2,19.5-0.6,28.5-4.6
	c-0.3,2.4-1.7,4.5-3.8,5.8c-7,4.6-15.2,8-23.7,7.3c-0.9-1.9-1.7-3.9-2.4-5.9c-7.9-1.2-15.9-2.2-23.8-3.3c0.5-2,1.2-4,1.9-6
	c-2.7-1-5.6-1.6-8.1-3c1.7-2.7,4.7-4,6.9-6.1C615.4,303.3,609.2,303.4,603.6,301.8z"/>
<path d="M299.5,309.2c4,2.7,6.6,6.8,8.9,11c2.7,1.3,5.3,3.4,6.2,6.4c1.9,5.8,2.2,13.4-3.2,17.5c-7-8.4-10.5-19.1-16-28.4
	C297.6,314.1,299,311.8,299.5,309.2z"/>
<path d="M546.9,318c0.1-2.8,2.1-4.8,4.2-6.5c2,2.3,0.6,5.1,0.1,7.7c0.9,0.6,1.9,1.2,2.8,1.9c0.2,2.7,1.3,5.1,2.4,7.5
	C550.8,328.4,546.7,323.2,546.9,318z"/>
<path d="M173.5,339.8c3.3-7.7,10.7-12.8,17.6-17c-2.4,4.8-6.3,8.7-10.1,12.4C178.9,337.2,176.3,338.7,173.5,339.8z"/>
<path d="M557.3,332.5c0.7-0.2,2-0.5,2.7-0.6c0.3,2.3,0.8,4.5,1.2,6.8C558.7,337.6,557.9,335,557.3,332.5z"/>
<path d="M337.1,362.3c6-7.3,12.3-14.4,18.4-21.6c-1.6,2.9-4.3,6.2-2.4,9.6c-4.1,7.1-10.7,12.6-13.3,20.5c3.6-3.1,5.3-8,9.5-10.6
	c-1.8,4.9-4.6,9.4-7.3,13.9c-2.4,3.7-4.6,7.6-7.9,10.5c1.6-3.8,3.4-7.5,4.4-11.5c-1.1,0.4-3.2,1.1-4.3,1.4
	C336.3,370.8,339.1,366.7,337.1,362.3z"/>
<path d="M314.1,351.2c5.7,1.2,7.2-5.6,11.1-8.2c-0.2,7.1-3.7,13.7-4,20.9c-1,6.9-0.4,14,0.4,20.9c1.8,12,5.1,24,11.4,34.4
	c3.7,6.4,8.9,11.8,13.8,17.2c5,5.2,9.9,10.5,15.3,15.3c6.6,5.8,13,12,20.5,16.6c7.7,3,15.4,5.8,23,8.7c14.9,5.3,31,5.8,46.5,3.5
	c-1.6,2.1-3.6,4-5.4,5.9c4.9,0.7,9.7-1,14.6-0.6c-0.3,4.5-4.5,7-6,11c4.4,3.2,8.9,6.3,13.3,9.5c0.1,3.8,0,7.9-3.2,10.4
	c3,5.5,6.2,10.9,8.9,16.6c2.9,6.4,3.9,13.6,2.8,20.6c-3.1-4.8-3.6-10.7-5.5-15.9c-4.2-12.8-12.8-24.2-24.3-31.4
	c-7.9-5.2-17-8.3-26.1-10.6c3-3.6,8.5-3.3,11.4-7.1c-10.1-1.2-20.4-1.6-30.4-3.6c-20.7-3.8-40.7-13-55.4-28.3
	c-17-17.2-26.5-40.4-31.1-63.8c-2.1-0.8-4.2-1.5-6-2.7c-0.9-8.2-0.8-16.5-0.8-24.8C312.4,361.8,313.3,356.3,314.1,351.2z"/>
<path d="M518.9,347.4c1.5,0.4,2.4,1.3,2.5,2.8c1.8,9.3,6.6,17.8,12.9,24.9c-0.1,2.3,0.5,4.5,1.2,6.6c1.4,0.3,2.8,0.6,4.3,0.9
	c0.5,1.9,0.9,3.8,1.4,5.8c2.5,2.3,3.9,5.5,4.5,8.8c1.2,6.6,2,13.4,0.4,20.1c-1.7-3.6-2.2-7.6-3.2-11.4c-6.1-2.8-3.4-10.7-6.6-15.6
	c-0.3,2.3-0.5,4.6-0.8,6.9c-3.8-6.6-6.7-13.8-10.3-20.5c-2.9,2-3.7,5.6-6.2,8.1C518.5,372.3,518,359.8,518.9,347.4z"/>
<path d="M720,357.7c0-1.7,0.6-3.7,2-4.7c1.9-0.9,4-0.7,6-0.4c6.6,3.4,9.4,11.8,16.7,14.1c6.3-0.1,10.2,5.8,13.1,10.6
	c7.1,13.5,8.6,28.9,10,43.8c0.6,5.9-0.2,12.1-3.7,17c-1.9,2.7-4.5,4.9-6.9,7.1c7.2-8.3,6.6-20,5.6-30.3
	c-1.3-10.4-3.6-21.4-10.4-29.7c1.1,8.9,6.6,17.3,4.5,26.4c-3.3,6.5-7.4,12.6-11.6,18.4c0.3-5.9,6.5-8.9,7.4-14.5
	c1.8-8.2-1.4-16.6-5.6-23.6c-0.8,2.7-1.6,5.4-2.3,8.1c-4,4.2-6.8,9.3-10,14c1.8-4.2,4.7-7.9,6.3-12.2c1.3-3.5,1-7.3,0.1-10.8
	c-3.8,4.3-5.3,10-8.3,14.8c-1.2,2.1-3.5,3.2-5.5,4.3c2-6.2,7-11.3,7.2-18c0.2-8.1-2.9-15.9-7.2-22.6
	C725,365.6,722.2,361.9,720,357.7z"/>
<path d="M295,356.5c3.7,1.6,7.4,3.4,11.1,5c-0.7,3.5-2.2,7-5,9.3c-3.3,2.5-6.5,5.2-9.1,8.5c-4.2,1.4-7.8,4.1-11.7,6
	c-4.6,1-8.7,3.4-12.6,5.9c0,1.4,0,2.8,0,4.2c-14.1,4.5-28.3,8.9-42.5,13.4c1.6,0.6,3.2,1.2,4.8,1.8c-1.3,2.8-4.4,3.9-6.5,6
	c0.2,0.7,0.5,2.1,0.7,2.9c-8.4,3.2-16.9,8.8-19.2,18c7.1,2.2,14.4,3.9,21.7,5.5c2.6,1.4,5.1,3.5,8.2,3.7c6.3,0.4,11.8-3.3,17-6.4
	c-4.2,7.1-12.2,10.5-20,12.1c-4.6,0.9-9.3,1.9-14.1,1.9c-2.3-1.6-3.6-5.1-6.9-4.8c-5,0.6-9,4.2-14,4.8c-2.4,0.2-4.5-1.4-6.9-1.2
	c-3.3,1.3-6.2,4.1-10,4.2c-5,0-9.9-1.9-14.9-1.7c-6.4,1.3-8.9,8.2-14.4,11.1c-3.4,2-6.7,4.1-10.2,5.9c-1.9,1.1-4-0.6-5.9-1
	c-2.3,1.9-4.6,3.9-7.6,4.8l-0.5,0.9c-0.1-0.2-0.1-0.8-0.2-1c8.8-7.2,12.2-20.7,24.2-24c0.2,1,0.6,3.1,0.8,4.1
	c6.6-1.6,12.9-4.2,19.2-6.9c3.1-1.4,6.8-2.8,7.8-6.5c0,0.5,0,1,0.1,1.4c-1.7,2.2-3.4,4.4-4.7,6.8c10.2-2.2,13.3-13.9,21.7-18.8
	c2.5-1.2,2.5-4.2,3.4-6.4c8.3-4.4,15.2-10.9,22.4-16.8c-4.8,1.4-9.6,2.9-14.5,3.9c10.3-10.3,25.9-11,37.7-18.7
	c5.1-0.9,10.5,0,15.7-0.6c1-1.9,2-3.8,2.8-5.8c11.2-4.4,16.1-17.2,27.3-21.7C293,363.7,293.3,359.7,295,356.5z"/>
<path d="M680.1,360.8c5.3-3.2,11.6-4.9,17.8-4.2c8.5,0.7,16.4,4.6,23.2,9.5c1.1,0.7,1.4,2,1.8,3.1c1.6,5.8,0.7,11.8,1.3,17.7
	c-1.2,1.9-2.5,3.7-3.7,5.6c1,4.7,0.6,9.9-2.2,14c-2.4,3.6-5.1,7-7.2,10.8c-1.9,0.4-3.8,0.8-5.7,1.2c0.9-4.4,4.1-7.7,6.8-11.1
	c3.5-3.7-0.8-8.5-1-12.6c-6.3-3.5-12.4-7.4-18.2-11.7c-1.9-2.7-2.9-6-4.6-8.9c-9.3,2.3-18.5,4.8-27.7,7.5
	c-8.7,1.7-18.5,0.8-25.9-4.5c8.4-1.9,16.7,1.8,25.1,0.5c4-1.3,7-4.6,11.2-5.2c4.1-0.6,8.8-1.8,10.3-6.2
	C681,364.3,680.6,362.5,680.1,360.8z"/>
<path d="M176.4,395.4c5.9-7.9,12.5-15.8,21.3-20.3c0.3,2.3,0.3,4.7,0.4,7c7-0.5,14.6-2.5,21,1.3c2.2-0.7,4.4-1.3,6.7-1.6
	c-2.8,4.6-7.9,6.6-12.3,9.3c3.3,1,6.5,2.5,9.5,4.3c-4.2,2.5-8.8,4.2-13.1,6.5c-7.5,4.4-14.4,9.7-21.2,15.1c-0.9-3.4,2.1-5.6,3.7-8.1
	c-1.6-1.3-3.1-3.1-5.4-2.8c-4.1-0.2-7.1,3-10.7,4.4c-3.8,2-8.2,0.9-12.1,2.5c-2.7,0.7-5,2.4-7.4,3.7c8.5-6.2,16.5-13.5,26.3-17.6
	c8.9-2.1,18.1-2.4,26.8-5.2c-4.1-3.6-10.1-3.5-15-1.9C189,393.9,182.8,395.8,176.4,395.4z"/>
<path d="M340.2,381.8c0.5,4.2-2.7,7.4-4,11.2c1.1,4.7,3,9.6,0.9,14.4C335.4,399.1,333,388.2,340.2,381.8z"/>
<path d="M289.1,406.2c2.3-7.4,5.9-14.4,9.9-21C298.2,393.1,293.4,399.8,289.1,406.2z"/>
<path d="M638,386.1c11.8,6,21.3,15.5,32.3,22.7c5.8,6.5,7.6,15.7,7.8,24.2c-0.2,13.4-4.3,26.3-9.4,38.5c-2.4,5.4-5.5,11.2-11.3,13.5
	c-0.9-6.1,4.7-10.2,5.5-15.8c0.4-3.6-2.8-6.5-2.3-10.1c0-5.1,1.5-10.8-1.9-15.2c0.9-2.6,2.1-5.1,3-7.7c-0.3-4.5-3.2-8-5.5-11.6
	c-1.7,6.3-1.2,13.1-3.5,19.3c-1.4,4.4-3.3,8.7-4.9,13c-3,0.8-6,1.9-8.9,3c-0.5,3.4-2.3,6.7-5.5,8.3c-4.4,2.2-8.9,4-13.3,6.1
	c0.2,7.6-1.9,15-1.6,22.5c1.5,3.6,5.5,5.9,5.8,10c-0.3,3.4-2.1,6.5-2.1,9.9c1.8,6.3,1.1,13.1-0.6,19.3c-3.5,14.9-12.8,28.1-14,43.6
	c7.7-6.6,5.1-19.3,13.7-25.4c-1,7.3-2.4,14.6-3.6,21.9c1.9,0.4,3.8,0.7,5.7,1.2c-2.6,15.9-9.4,30.7-15.6,45.4c1.6,0.6,3.2,1.3,4.8,2
	c-1.1,2.8-2.3,5.5-3.5,8.2c1.1,1.6,2.5,3.1,3.4,4.8c-3.5,7.8-8.3,15-13,22.1c0.7,0.5,2.1,1.5,2.7,2c3.2-3.6,4.3-8.3,6.6-12.4
	c1.4-2.5,4-3.8,6.7-4.4c-2.1,10.1-8,18.8-11.8,28.4c1.2,1.7,2.5,3.4,3.8,5.1c4.6-3.2,7.3-8.3,11.4-12c2.1-2.1,5.8-1.7,7.6-4.3
	c3.8-4.8,5.5-11.9,12-14c0,8.4-6.6,14.3-11.2,20.5c-2.5,3-3.1,7.4-6.6,9.4c-10.6,7.5-20.2,16.2-31.2,23.1c-5.4,1.1-11,2.1-16.3,3.9
	c-4.4,1.6-9.1,1.4-13.5,0.2c0.6-0.2,1.7-0.7,2.3-0.9c2.3-4.8,4.1-9.8,5.9-14.8c2.1-4.9-2.5-9.8-0.6-14.8c3.5-8.7,8.5-16.6,13-24.7
	c0.9-1.7,0.7-3.7,1.2-5.5c0.7-4,4.7-6.7,4.6-10.9c0.2-6.3,3-12.1,4.9-18c-0.4-2.5-1.5-5.1-0.8-7.7c1.6-7.5,5-14.5,6.1-22
	c1.5-7.6,2.8-15.5,6.5-22.4c-4.7-10.4,4.8-21.5-0.6-31.7c1.4-2.5,2.8-4.9,4.4-7.2c-4.6-5.6,0.4-12.1,2-17.9c1-12.8-2.7-25.3-2.7-38
	c-0.3-4.2,2.5-7.8,2-12c-0.4-6.7-2.1-13.2-3.8-19.6c-2.5,4.1-0.6,9.3-3.1,13.4c-3-9.2,1.3-20.3-5.7-28.2c-1.3,1.8-2.5,3.5-4.1,5.1
	c0.4-11-5-20.9-7.8-31.2c7.8,7.7,14,17.2,17.2,27.8c0.7,2.1,1.1,4.3,2,6.3c1.1,0.5,2.2,0.9,3.4,1.3c2.5,7.2,4.5,14.7,5.1,22.3
	c0.3,6.6,0.7,13.2,1.6,19.7c1.9-4.9,1.7-10.2,2.1-15.4c2.1,2.2,2.8,5.1,4,7.7c6.9-3,11.8-9.1,16.8-14.5c8.1-8.8,13-20.7,11.9-32.7
	C646.5,407.5,644.2,395.8,638,386.1z"/>
<path d="M666.2,391.3c4.5-0.5,7.4,3.3,10.2,6.1c-1.4,1.5-2.8,2.9-4.3,4.2c-3.1-1.8-5.5-4.5-7.6-7.3
	C664.9,393.6,665.8,392.1,666.2,391.3z"/>
<path d="M139.4,398.1c1.9,1.6,4,2.9,6.4,3.7c0.7,1.6,1.5,3.1,2.3,4.7c1-0.2,3-0.7,4-1c-0.6,5.6-1.2,13.1-7.8,14.9
	C142.6,412.9,140.7,405.6,139.4,398.1z"/>
<path d="M680,402c3.1-0.3,6.8-0.8,9.3,1.5c2,1.5,2.4,4,2.9,6.2c-3.3,0.8-6.6,1.6-9.9,2C681.5,408.5,680.8,405.2,680,402z"/>
<path d="M300.2,404.3c1.6,2.8,1.5,6.2,2.5,9.3c3.9,14.4,10.6,27.7,16.7,41.2c-5-0.5-8.7-4.2-10.7-8.5c-2-3.9-3.5-8-5.7-11.8
	c-3.7,0.2-5.7-2.9-7.7-5.5c-3.8,0.1-8,1.3-11.4-1.1c0.1-2.8,3.4-2.9,5.5-3.5c0.8-4,3-7.4,5.8-10.3
	C297.7,411.4,299,407.8,300.2,404.3z"/>
<path d="M516.3,407c0.3,0.4,0.9,1.2,1.3,1.6c-4.8,15.3-4.7,31.9-11.4,46.6c-0.4,2,1.3,3.8,1.9,5.6c-3.6,8.8-7.6,17.3-10.9,26.2
	c2.2-2.6,3.1-6.4,6.6-7.6c-1.1,7-6.7,12.2-7.8,19.2c2.7-0.7,3.3-4.4,6.4-4.3c-0.5,4.5-3.7,8-4.4,12.4c1.6-0.2,3.1-0.5,4.7-0.8
	c-0.7,4.7-3.4,8.7-5.3,13c1,1.9,2.3,3.5,3.5,5.3c-2.9,2.7-4.2,6.5-4.8,10.4c-5.4,4.2-4.4,11.9-8,17.2c-1,1.5-2.7,2-4.2,2.8
	c2.3-16.8,4.3-34,1.5-50.9c-1.4-7.7-3.6-15.8-9.2-21.5c-2.5-2.2-3-5.6-2.4-8.7c3.8-2.7,7.8-5.3,10.7-9.1c6.1-8,11.6-16.5,17.8-24.4
	C507,429.1,510.9,417.7,516.3,407z"/>
<path d="M550.6,409.8c3.4,6.8,3,14.6,2.4,21.9C549.7,425,550.5,417.1,550.6,409.8z"/>
<path d="M720.6,411.3c1.8,4.7,0,9.5-0.8,14.2c3.2-0.4,6.2-1.6,9.4-1.8c-1,2-2,4-3,6c-10.8,1.9-12,17.1-23.3,18
	c1.6,13.6,8.7,26.4,7.5,40.3c-0.2,4.9-2.6,9.4-5.8,13c2.3-9.9,0.8-20.6-3.3-29.8c-2,3.1-2.4,6.8-4.3,9.9c-3.1,5.6-6.2,11.2-9.2,16.9
	c-3.2,6.5-6,13.4-11.3,18.5c-2,2-4.8,2.9-7.5,3c5.5-12,13.4-22.7,20.4-33.9c2-3.6,5.8-6,6.8-10.2c3.5-11.6-0.7-24.1-6.7-34.1
	c-3.8,3.7-2.4,10.6-7.8,12.9c2.4-5.8,2.5-12.1,2.4-18.2c1.3,0.6,2.5,1.2,3.8,1.8c9.2-3.7,18.3-8.5,25.3-15.7
	C716.1,418.8,718.2,414.9,720.6,411.3z"/>
<path d="M685.7,416.4c2.2-5.3,9.4-4.6,12.4-0.5c1.7,2.2,0.5,5.1,0,7.4C693.2,423.3,687.6,421.5,685.7,416.4z"/>
<path class="st0" d="M82.1,414.1c2.5-0.9,3.4,2,4.8,3.4c-1.6,0.1-3.7,0.1-4.2,2c-0.9,3.6-0.9,7.3-1.4,10.9c-1.8-1.4-4.2-2.8-4.1-5.4
	C77.1,421,78.8,416.5,82.1,414.1z"/>
<path d="M273.4,429.5c3.7-5.6,8.4-10.4,12.6-15.6c-1.3,5.9-4.5,11.6-9,15.6C275.7,429.6,274.5,429.6,273.4,429.5z"/>
<path d="M737.8,426.4c2,3.7-0.9,7-1.8,10.5c1.9,5.3,8.4,6.1,11.6,10.2c1.8,4.2,3.4,8.4,4.4,12.9c0.7,2.9-0.7,5.6-2.6,7.7
	c-1.9-7.8-8.7-12.8-15.6-16c1.7,6.1,5.4,11.6,5.9,18c0.3,2.7-0.5,5.4-1,8c6.9,10.6,8.3,23.6,8.5,36c-6.8-6.9-2.7-18.5-9.9-25.3
	c1.1,8.9,5.2,17.4,3.8,26.4c-4.7-4.7-6.5-11.4-7.4-17.9c-0.5-4.7-0.3-9.6,1.8-13.9c-1.1-3.2-2.3-6.4-4.4-9c-2.2,2.9-1.9,7.3-5.3,9.3
	c-0.4-12-8.8-21.7-10.1-33.5c1.9,0,3.7,0,5.6,0c1.4-2.8,1.8-6.4,4.7-8.1C731.5,438,734.1,431.7,737.8,426.4z"/>
<path d="M559.1,449.1c-3.7-4.2-2.5-10.4-1-15.3C561.2,438.3,559.9,444,559.1,449.1z"/>
<path d="M255.5,460c8.4-5.2,14-13.7,21.6-20c2.1,4.1-2.2,6.5-3.4,9.9c-1.3,2.8,3.3,2,4.8,2.9c-0.2,1.3-0.5,2.6-0.7,4
	c4.8,0.4,8.8,3.5,13.7,3.5c-0.2,1.4-0.5,2.7-0.7,4.1c7.9,1.5,16.3-2.6,23.9,1.1c-11.6,5.4-24.9,2.3-36.9,5.7
	c-2.8,0.9-6.9,2.9-6.4,6.5c2.3,4.6,10,2.3,11.7,7.6c0.6,3.2-2.1,5.7-3.5,8.4c9.1,1.5,18.5-2.9,27.2,0.9c-4,4.1-10.4,1.5-14.6,5.2
	c1,0,2.9-0.1,3.9-0.2c-1,2-1.9,4.1-2.8,6.2c-1.3-1.2-2.6-2.5-3.9-3.7c-1,1.5-1.9,3-2.7,4.5c7.5,3,17-0.9,23.3,5.3
	c-5.5,2.2-11.4,0.9-17.2,1.3c-2.3-0.1-3.8,1.7-5.4,3.1c17.1,2.3,34-2.2,50.4-6.1c11.7-2.7,23.3-5.5,35.2-7.1
	c17.5-1.2,36.1-0.7,51.8,8c7.7,4,13,11,19.4,16.6c6.7,6.7,13.3,13.3,20.2,19.8c-0.4,13.8-1.8,27.5-2.4,41.3
	c-1.5,22.6-10.2,44.1-21.4,63.6c-14,24.1-31.4,46.1-49.9,67c-4.6,4.9-10.2,10.7-17.6,10.1c-0.2-4.1,3.9-5.9,5.9-8.8
	c-6.4,1-12.8,1.6-19.2,1.5c-1.4-1.7-2.3-3.8-3.7-5.5c5.1-4.5,9.8-9.7,15.6-13.3c0.7,1.3,1.5,2.6,2.1,3.9c5.1-3.7,8.6-9.1,13.8-12.8
	c0.2,1.5,0.4,3.1,0.7,4.7c5.6-3.1,7.4-10.3,13.9-12.2c-0.6,1.9-1.3,3.7-2,5.6c8.6-7.8,14.8-17.8,20.8-27.6
	c9.6-16.4,18.4-33.3,25.3-51c4.6-11.9,8.5-24.3,9-37.1c0.1-6-0.8-12.2-4-17.4c-1.9,16.3-6,32.4-13.8,46.9
	c-12.2,24-33.2,41.6-49.5,62.5c-2.6,3.1-4.6,6.8-7.7,9.3c-11.5,9.8-21.7,21.1-30.9,33.1c-2.5,3-3.7,6.9-6.1,9.9
	c-1.5,1.8-3.9,1.6-6,1.5c3-6.5,6.2-13,9-19.5c-3.8-4.8-7.4-9.7-10.9-14.7c2.5-2.6,5.5-4.5,8.1-6.9c0.2-4.4,0.3-8.7,0.4-13.1
	c-6.4,1-11.6,5.3-17.6,7.4c3.2-5,9.1-6.5,13.7-9.7c-5.5-0.2-11,0.1-16.5-0.4c5.3-5.7,13.9-5.9,19.6-11.1c2.1-1.7,2.9-4.3,3.7-6.8
	c6.8-4,13.9-8,18.6-14.4c-15.3,6.5-28.8,16.6-44.6,21.7c3.6-4.1,8.6-6.5,13.4-9.1c12.2-6.8,24.5-13.5,36.4-20.7
	c13.7-8.7,24.9-20.5,37.4-30.6c4.9-3.6,7.5-9.2,11.2-13.9c3.7-4.9,6.2-11,5.4-17.2c-9.4,2.1-14,11.9-23,14.9
	c-0.4-2.1-0.6-4.2-0.8-6.3c-16.3,7-32.7,14-49.1,20.9c-11.4,4.9-22.7,10.4-33.4,16.7c-7.2,3.9-14.5,8-22.5,10.1
	c3.3-3.9,7.5-6.9,11.7-9.9c17.9-12.4,36.4-24,56.5-32.4c16.7-6.8,33.8-13.8,48.1-25c9.5-7.5,16.2-19.6,15.2-31.9
	c-16.2,8.1-34.1,13.2-52.3,12.6c-20.9,0.5-40.3-8.2-59.9-14c-7,0.5-13.9,2.2-21,2.7c-13.1,0.2-26.1-1.6-39.2-0.9
	c-8.6,0.9-17.4,3.5-23.8,9.6c-4.6,4-6.3,10.2-10.9,14.2c-6.2,6.1-15.4,9-23.9,7.2c-3.6-0.7-7.3-1.3-10.4-3.2
	c2.4,0.1,4.8,0.7,7.1,0.2c4.6-0.9,9.7-1,13.8-3.7c5.4-3.3,8.5-9,12.2-13.8c2.8-3.5,4.8-7.9,8.8-10.3c7.9-5.4,18.2-4.8,26.4-9.5
	c-1.6-3.2-4.4-6-8.2-6.5c-6.1-0.8-12.5-1-17.7-4.6c4.3-5,11.4-3.6,17-5.4c-1.9-3.1-4.4-5.7-6.8-8.4c3.2-1.3,6.8-1.8,9.5-4.2
	c-0.9-1.1-1.7-2.3-2.8-3.2c-3.1,0.9-5.7,3.7-9.2,2.4c-0.2-3.6,0.7-7,1.7-10.4c-0.4-0.7-1.1-2.1-1.4-2.9c1.9-2.8,4.5-5.2,5.3-8.6
	c-7.1,0.8-14.9,5.6-21.7,1.1c4.7-1,9.6-1.7,13.7-4.2c3.5,0.5,7.1,0.5,10.4-0.8c7.8-2.8,12.8-9.8,19.6-14.2
	c-1.9,6.3-7.9,9.5-12.9,13.1c-3.9,2.7-5.5,7.8-4.2,12.3c1.3,2.4,4.4,1.4,6.6,1.8c-1.2,2.9-3.3,5.2-4.5,8.1c3,0.4,6-0.6,8.1-2.8
	C256.5,469.9,255.6,464.9,255.5,460z"/>
<path d="M134.9,456c2.8-3.4,6.3-6.1,10.5-7.6c-6.9,8.9-14.1,18.3-24.3,23.6C126,467,130.5,461.5,134.9,456z"/>
<path d="M707,452.3c5.3,2.4,9.4,6.9,11.5,12.2c4,9.6,4.8,20.2,4.7,30.5c0.2,11.3-2.1,23.1-8.5,32.7c-0.9-1-1.8-2-2.8-2.9
	c-0.2-6.6-0.8-13.1-1.2-19.6c1.8,0.3,3.7,0.6,5.6,0.9c1.6-4.5,1.7-9.4,1.4-14.1C716.5,478.1,710.7,465.4,707,452.3z"/>
<path d="M562.9,460.1c-0.3-2-0.4-4-0.2-6C565.6,455.3,564.1,458.2,562.9,460.1z"/>
<path d="M687.7,467.5c0.1-1.6,1.9-2,3.2-2.3c1.6,5.3,0.9,11.6-2.9,15.9c-2.8,3.4-6.9,5.2-10.9,7c4.1-6.5,2.6-14.8,5.3-21.8
	c-0.1,1.6-0.4,3.1-0.8,4.6c1.3,2.2,2.5,4.5,4.1,6.6C687.4,474.4,687.2,470.9,687.7,467.5z"/>
<path d="M650.8,507.9c11.8-11.9,21.5-26.1,26.7-42.2c-1.5,12.8-6.6,25.6-16.2,34.5C658,503.1,654.5,505.6,650.8,507.9z"/>
<path d="M138.4,486.5c18.7-11.6,40.5-18.7,62.6-18.5c7.6,0.5,16.1,1.5,21.9,7c5.5,5.5,3.7,14.3,0.5,20.5c-2,1.5-4.6,1.9-6.7,3.2
	c-1.5,1.5,1.9,2,2.7,2.7c-0.9,1-1.3,2.9-3,2.4c-0.7-1.8-1-3.7-1.9-5.4c-12.9,2.9-26.5,1.6-39.2,5.8c-7.2,2.6-14.5,5.6-22.2,6
	c-2.8,3.9-4.9,8.2-6.2,12.8c9.6,0.2,18.2-4.6,27.7-5.2c-6,4.8-12.2,9.3-17.9,14.4c1.3,2.3,3,4.3,4.8,6.3c1.7,1.6,0.8,4.1,0.9,6.2
	c3.2,1.2,7.2,2.2,7.3,6.4c3.4,0.4,6.7-0.7,10.1-0.3c-6.6,4.4-14.7,8.1-22.8,6.4c-7.3-1.9-12.7-7.9-20-9.8c-2.9-0.5-6,0.5-8.9-0.3
	c-7.4-1.7-14.2-6.1-18.8-12.2c-2.5-3.3-2.4-7.5-1.1-11.3c7.9-2.6,15.3-6.7,22.3-11.1c6.5-4.3,13.9-7.1,21.6-8.1
	c-3.6-4.1-9.6-3.5-14.4-2.5c-8.7,2.1-17.2,5.3-26,7.1c-0.4-2.2-0.8-4.5-1-6.7c5.8-2.3,11.5-4.9,17.2-7.5
	C132.1,492.9,134.5,488.7,138.4,486.5z"/>
<path d="M566.4,469.3c0.5,1.2,0.9,2.5,1.3,3.8c-0.8,0-1.5,0-2.2,0C565.7,471.9,566,470.6,566.4,469.3z"/>
<path d="M457.3,478.6c1.7-4.2,6.1-6.1,10.2-7.2C467.6,476.9,461.8,478.6,457.3,478.6z"/>
<path d="M96.2,504.6c3-1.3,6.2-2.2,9.3-2.9C104,505.6,99.6,504.6,96.2,504.6z"/>
<path d="M673.2,526.7c6.6-7.5,13.6-14.9,18.4-23.8c0.1,12.2-0.7,25.9-9.8,35.1c-4.3-2.2-7.7,2-11.7,2.9c1.8-4.5,6.2-6.4,10-8.8
	c2.8-1.7,3.8-4.9,3.7-8C680.1,523.9,676.9,526.3,673.2,526.7z"/>
<path d="M186.6,509.5c5.8-2.6,12-5.2,18.6-4.7c-2,5.5-8.9,4.5-12.2,8.7C190.5,512.8,188.3,511.5,186.6,509.5z"/>
<path class="st0" d="M613.9,516c-1.4-3.6,0.3-7.7,3.7-9.5C616.5,509.8,615.1,512.8,613.9,516z"/>
<path class="st0" d="M375.9,509.6c9.9-1.8,20.1-1.1,29.9,0.8c5.2,1.3,11.2,3,14.2,7.9c-0.7,0.3-2.2,0.9-2.9,1.2
	c-2.8-1.8-4.7-5-8.1-5.6c-5.4-0.7-10.4,2.7-15.8,1.6c-1.6-0.9-3.1-2.2-4.6-3.1c-2.2-1.8-5.1-0.2-7.6,0
	C378.6,513.4,377.3,511,375.9,509.6z"/>
<path class="st0" d="M269.3,515.5c2.2-1.1,5-2,6.1,1C273.4,516.3,271.3,515.9,269.3,515.5z"/>
<path d="M693.2,536.2c5-6.3,4.4-16.5,12.4-20.5c0.2,5-1.1,11.4,3.4,15c0.2,10.5-0.1,21.9-6.2,30.8c-2.3,3.7-5.9,6.2-9.5,8.4
	c-2.3-0.5-5-3-7-0.7c-2.3,2.4,0.2,5.9-0.1,8.8c-0.3,9.2-0.9,19-6,27c-1.9,3.3-5.2,5.4-8.6,6.9c0.8-3.4,2.4-6.5,4-9.5
	c-0.3-13.2,1.4-26.4-0.1-39.6c-0.8,1.4-1.6,2.7-2.4,4.1c-5.5-4.6-12.8-6.1-18.4-10.5c3.5,0.3,7.1-0.2,10.4-1.4
	c6.3-2.2,11-7.1,16.4-10.8C685.1,541.2,689.6,539.3,693.2,536.2z"/>
<path d="M726.7,529.5c2.4-3,4.2-6.5,5.3-10.2c0.1,10.5,0.6,21.1-0.4,31.7c-0.5,7.2-1.4,14.5-4.1,21.2c-0.7,1.2-1,3-2.5,3.4
	c-9.6,3.6-18.8,8.3-28.5,11.6c4.3-4.7,8.7-9.4,12.1-14.8c2.4-3.5,4.4-7.8,8.4-9.7c1.6-1,3.8-1.7,4.5-3.7c2.9-7.1,0.3-16.2,6.3-22
	C727.3,534.6,726.9,532.1,726.7,529.5z"/>
<path d="M405.9,585.4c4-6.4,8.6-13.1,15.9-16c-2.3,5.4-5,10.9-9.8,14.5C410.2,585.3,408,585.3,405.9,585.4z"/>
<path d="M556.2,603c1.9-6.8,4.2-13.6,7.8-19.6c0.4,9.2-2.5,18-5.7,26.5c-1.6,10.1-3.3,20.2-5.9,30.1c-2.8,12-7.4,23.5-10,35.6
	c-0.7,2.6,1.1,4.9,1,7.5c-0.6,3.4-3,6.5-2.1,10.1c1,5.7,3,12.3-1.3,17.2c-1.4-0.5-2.8-0.9-4.2-1.4c-5.2,5.8-10.4,11.6-15,17.8
	c6.3-20.7,12.6-41.4,19-62.1c1.5-4.8,3-9.6,3.6-14.6c0.8-6.1,2.8-11.9,4.9-17.6C551.2,622.7,553.6,612.8,556.2,603z"/>
<path d="M381.7,595.7c2.9-1.9,5.4-5.3,9.3-4.9c-2.2,3.8-5.7,6.6-9.6,8.7c-6.3,3.4-13,6-18.8,10.1c-4.4,3.4-8.2,7.6-13.2,10.3
	c1.1-2.2,2.6-4.3,4.6-5.9C362.6,607,373,602.7,381.7,595.7z"/>
<path d="M318.8,643.5c27.4-17.1,54.8-34.3,81.8-52c-0.3,1.5-1,2.9-2.4,3.8C374,614.7,347.9,632.2,318.8,643.5z"/>
<path class="st0" d="M599.8,616.3c1.8-6,4.6-11.7,7.3-17.3C606.6,605.4,603.3,611.1,599.8,616.3z"/>
<path d="M482.2,610.3c1.4,3.5,1.1,7.5,0.6,11.1c-1.6,10.4-5.1,20.4-9.1,30.1c-2.4,5.2-4.5,11.2-9.6,14.5c0.4-5.7,6.7-8.2,7.6-13.6
	C475.5,638.5,479.6,624.6,482.2,610.3z"/>
<path d="M333.8,617c0.5-3,3.2-4.4,6-4.6C338.3,614.5,336.1,615.9,333.8,617z"/>
<path d="M315.1,627.2c2.8-3.6,6.8-6,11.4-6C323.9,625,319.3,626.2,315.1,627.2z"/>
<path d="M326.9,626.7c3.4-1.9,7.1-3.2,11-3.2c-7.1,4.8-14.6,9.4-22.9,12C317.8,631.2,322.5,629.1,326.9,626.7z"/>
<path d="M463,642.1c0.2-1.6,1.9-2.2,3.1-2.9c1.1,14.6-7.3,27.5-9.1,41.7c4.9-2.9,6.7-9.5,12.6-11c-0.5,5.4-5.3,9-5.8,14.3
	c1.6-0.3,3.1-0.7,4.7-1c-1.9,10.1-10.7,16.5-15.8,24.8c0.5,2.5,2.2,5,1.1,7.5c-1.4,2.8-4,4.9-5.6,7.7c-0.5,1.8,0.4,3.6,0.7,5.4
	c-8.2,7-11.3,18.7-21.1,24c-3.5,2.1-7.8,1.6-11.4-0.2c9.2-20,19-39.6,28.4-59.5C452.4,676.6,459.1,659.7,463,642.1z"/>
<path class="st0" d="M588.9,673.8c1.5-2.6,3.4-5.1,5.4-7.3C593.9,669.7,592.2,672.8,588.9,673.8z"/>
<path d="M475.7,687.8c0.4-0.1,1.2-0.4,1.6-0.5c0.1,0.3,0.2,1,0.3,1.4c-0.5,0-1.4-0.1-1.9-0.1L475.7,687.8z"/>
<path d="M475.6,689.5c0.1,3.3-0.6,6.5-0.5,9.8c1.7-1,3.4-2,5.3-2.9c-8.3,14.8-18.9,28.2-29.2,41.6c-4.2,5.1-8.6,11.1-15.5,12.5
	c7.2-10.1,17.5-18.2,22.2-29.9c-1.6-0.7-3.2-1.4-4.8-2.1C461,709.3,469.2,700,475.6,689.5z"/>
<path d="M466.9,722.9c1.8-2.2,3.3-4.9,6.3-5.8c0.1,0.9,0.3,2.8,0.5,3.8c-4.8,7.6-9.6,15.3-16,21.7c-2.8,2.7-6.2,4.8-10.1,5.2
	C453.9,739.4,460.4,731.2,466.9,722.9z"/>
<path d="M463,742.8c3.6-7.1,8.4-14.2,15.6-18C475.1,731.9,470.8,739.6,463,742.8z"/>
<path d="M478,737.2c2.7-3.8,5.6-7.9,10.1-9.8c-1.5,3-2.3,6.6-4.7,9.1C482,737.9,479.8,737.1,478,737.2z"/>
<path d="M520.3,726.9c1.3,0.6,0.5,4.6-1.2,4.1C518.3,729.6,519.3,727.9,520.3,726.9z"/>
<path d="M492.6,733c1.4-1.1,2.6,1.4,1.3,2.3C492.5,736.4,491.4,733.8,492.6,733z"/>
</svg>
