<?xml version="1.0" encoding="utf-8"?>
<!-- Generator: Adobe Illustrator 21.1.0, SVG Export Plug-In . SVG Version: 6.00 Build 0)  -->
<svg version="1.1" id="Layer_1" xmlns="http://www.w3.org/2000/svg" xmlns:xlink="http://www.w3.org/1999/xlink" x="0px" y="0px"
	 viewBox="0 0 825 825" style="enable-background:new 0 0 825 825;" xml:space="preserve">
<style type="text/css">
	.st0{fill:#FFFFFF;}
</style>
<path d="M344.8,120.9c7.2,1.4,13.9,4.7,20.2,8.3c1.8,1.2,4,0.8,6,0.8c24.7,0.5,49.5,3.2,73,11.1c22,7.4,43.1,19.6,57.8,37.9
	c18.1,21.9,25,51.2,24,79.2c-1.6,20.9-7.8,41-14.7,60.7c-6.9,18.8-13.9,37.7-18.6,57.2c-2.2,9.1-3.8,18.5-2.1,27.8
	c3.2,18.4,11,35.7,19.4,52.3c8.8,15.5,18.7,30.4,28.4,45.4c-82.7,0-165.4,0-248,0c-5.6-20.5,0.1-42,8.3-61
	c9.7-21.7,21.6-42.8,37.6-60.6c9.6-8.8,19.7-16.9,29.6-25.3c8.8-7.5,17.3-16,21.9-26.9c3.4-7.6,1.9-16.2,1.7-24.3
	c-11.5,5.3-25,2.8-36.3,8.5c-4.5,2.1-6.8,7-6.7,11.9c0.3,7.3,2.1,14.8,0.5,22.1c-1.3,5.3-5.6,9.3-10.4,11.6
	c-9.8,4.9-20.9,5.5-31.2,8.9c-5.6-17.5-11.5-35-17.1-52.5c3.4-5.2,9.1-8.1,12.9-12.9c1.8-2.2,2.4-5,3.2-7.6
	c4.7-19,6.7-38.5,10.8-57.6c2.6-12.2,4.4-24.7,8.5-36.5c1.4-4.1,4.2-7.5,6.9-10.8c-9.1-9.8-17.8-19.9-26.5-30.1
	c10.2-13.7,26.7-20.3,42.5-25.2C346.1,129.1,345.7,124.9,344.8,120.9z"/>
<path d="M160.6,166.9c-3.3-14.4,1.2-29.4,8.5-41.9c1.4,6,2.8,11.9,4.2,17.9c-1.9-1.2-3.7-2.6-5.6-3.8c3,3.5,7.9,5.9,8,11.1
	c-3.3-1-6.2-2.7-9.1-4.5c1.6,3.9,5.6,5.6,9.4,6.4c0.4,2.2,0.9,4.5,1.4,6.7c-4.5-1.3-8.3-3.9-12-6.6c2.1,5,7,8.2,12.4,8.4
	c0.5,2.7,1.3,5.3,1.8,8c-5-2.2-9.2-5.6-13.9-8.4c2.8,5.5,8.2,9.3,14.3,10.2l-0.2,1.4c5.4-4.4,8.3-10.9,9.9-17.5
	c-3.4,4.2-6.4,8.8-9.2,13.3c-3.6-7.4,4.7-12.4,5.7-19.2c-3,3.1-5.4,6.7-8.4,9.8c-1.8-5.4,2-9.8,3.9-14.5c-1.4,1.5-2.5,3.3-3.6,5
	c0.6-4.3,0.6-8.6,0.4-12.9c-1.2,2.1-2.2,4.3-3.2,6.5c-1.6-5.7-2.9-11.5-4.2-17.3c13.1,4.7,21.6,17.1,25.1,30.1
	c4.6,14.3,3.1,30-2.8,43.7c14.3-11.4,15.6-32.2,29.6-43.8c12.8-11.3,30.7-14.7,47.3-13.8c-3.9,5.2-9.3,8.9-15,12
	c0.5-2.5,1.2-4.9,1.6-7.4c-2.7,4.5-2.5,11.4-8.3,13.4c0.6-3.7,1.2-7.5,1.2-11.2c-2.1,4.7-2,10.1-4.5,14.7c-0.5,1.3-2,1.8-3.2,2.4
	c-0.5-4.8,0-9.7,0.2-14.5c-2.9,4.5-4,10.3-2,15.4c-2,1.9-4.2,3.5-6.4,5.1c-1.2-5.7,0.2-11.4,0.8-17.1c-2.8,5.8-4.6,12.4-2.6,18.7
	c-2.4,1.7-4.7,3.4-7.1,5c-0.7-5.4,0.4-10.7,1-16c-3.3,5.3-3.9,11.8-2.4,17.8c-2,1.5-3.9,3.2-6,4.5c-0.5-6,0-12,1.3-17.9
	c-3.6,5.9-4.6,13.1-3,19.8c-1.1,0.7-2.2,1.4-3.3,2.1c-0.1,0.2-0.3,0.6-0.4,0.9c1.2-0.8,2.4-1.6,3.6-2.4c6.2,2.5,13.1,1.9,19.6,1.4
	c-5.6-1.1-11.5-0.6-16.9-2.8c1.9-1.9,4-3.5,6.4-4.7c4.6,2.4,10,2.2,15,2.3c0-0.2,0-0.6,0.1-0.8c-4.7-0.4-9.4-1.1-13.9-2.4
	c2.1-2.2,4.5-4,7-5.6c5.8,2.5,12.3,1.7,18.4,1.6c-5.7-1.5-11.8-0.2-17.3-2.4c1.6-2.3,4-3.8,6.2-5.3c4.8,1.9,10.2,2.6,15.2,1.1
	c-4.3-0.7-8.9-0.4-12.9-2.6c3.1-5.6,9.8-3.4,14.9-3.3c-2.5-1-5.2-1.6-7.9-2.3c3.3-5.2,9.9-3.1,15.1-4.1c-2.7-0.6-5.4-0.9-8.2-1.2
	c4.9-4.2,10.3-7.8,15.1-12.2c-1.2,15.9-7.2,32.5-20.5,42.2c-13.7,10.7-31.8,11-47.7,16.2c-6.4,1.4-9,8-12.3,12.9
	c15.3-12.8,37.9-15.5,56.2-8.1c-4.9,2.6-10,4.6-15,7c0.6-1.8,1.3-3.6,1.8-5.5c-3.4,2.8-4.3,8.4-9.4,8.7c0.3-3.4,1.9-6.4,3.1-9.6
	c-2.7,2.7-4.4,6.3-5,10.1c-1.5,0.7-3,1.5-4.5,2.2c0.6,0.6,2,1.7,2.6,2.2c-3.3,0.3-3.3-3.1-3.2-5.4c0.3-2.9,1.8-5.4,2.9-8
	c-4.7,2.1-5.1,7.7-5.2,12.2c-2.2,1.1-4.5,2-6.9,2.8c0.7-5.2,2.8-10,5.5-14.4c-5.1,3.5-6.9,9.6-7.4,15.5c-2.3,0.8-4.4,1.9-6.7,2.8
	c0.7-5.3,3.3-10,5.3-14.9c-3.8,4.4-6.3,9.8-7.2,15.6c-2,0.8-4.1,1.7-6.1,2.5c0.9-4.5,2.2-8.9,4-13.1c-3,4.1-5.4,8.8-5.6,14
	c-4.1,1.7-8.3,3.2-12.3,5c4.3-0.2,8-2.8,11.9-4.2c4.9,3,10.4,5.1,16.2,5.8c-4.4-2.4-9.7-3.3-13.6-6.6c1.6-1.1,3.4-1.6,5.3-2.1
	c4.9,2.4,10.1,4.7,15.6,4.9c-4.3-2.1-10.3-1.8-12.8-6.7c2-0.7,4-1.4,6-2.3c4.9,3.6,10.8,5.6,16.8,5.9c-4.8-2.5-9.9-4.3-14.6-7
	c6.7-4,12.9,2.2,19.6,2.9c-2.4-2.1-5-3.8-7.6-5.6c3.6,0.4,7.3,0.7,10.9,0.7c-2.1-1.4-4.4-2.6-6.6-3.9c3.6-3.4,8.3-1,12.5-0.7
	c-1.7-0.7-3.5-1.2-5.2-1.8c4.8-3,10.2-4.6,15.2-7.1c-3.8,10.5-9.8,20.7-19.2,27c-5.7,3.9-12.3,6.1-19.1,7
	c-11.3,1.2-22.5-2.9-33.8-1.5c-5.4,8.6-9.4,17.9-13,27.3c-4.2,11.3-8.2,22.8-11.3,34.4c7.1-10.3,13.4-21.3,21.5-30.9
	c10.8-8.2,25.1-10.4,38.4-9.3c-4.2,4.1-8.8,7.8-13.6,11.1c0.4-2.2,0.8-4.4,1.1-6.6c-2.1,3.8-2.6,8.4-5.6,11.8
	c-1.3-3.3-0.4-6.8-0.3-10.2c-2.3,3.8-1.8,8.5-3.9,12.4c4.2,0.8,8.7,0.3,13,0c-3-0.5-6-0.4-8.9-1.4c2-3.6,6.2-3.2,9.7-3.5
	c-0.7-0.2-2.2-0.7-2.9-0.9c2.6-5,8.4-6.7,11.8-10.9c-0.5,11.2-3.2,23-10.9,31.5c-8.6,8.9-20.7,12.9-32.4,15.7
	c-6.9,1.7-13.7,3.9-20.4,6.2c-3.3,19.2-5,38.7-4.9,58.1c3.2-12.5,8.2-25,17.4-34.3c8.4-8.8,19.6-14.1,31.2-17.2
	c-3.5,5.7-6.8,11.5-10.2,17.2c-1.3-2.6-1.8-5.5-2-8.3c-1.4,5-3.9,9.9-3.4,15.2l-0.4,0c-0.4-2.6-1.1-5.1-2.1-7.5
	c-0.5,5.5,3.4,12.1-1.6,16.6c-2.6-4.3-3.3-9.5-5.4-14c0.2,5.5,0.7,11.5,4.2,16c-1.3,2.5-2.9,5-4.4,7.4c-3.4-5.3-4-11.8-4.7-17.9
	c-1.5,6.7-1.7,14.7,3.3,20.1c-1.4,2.6-2.7,5.3-4.2,7.9c-3-5.5-4.3-11.8-5.1-18c-1.9,6.6-0.8,14.2,4.2,19.2c-1.6,2.1-2.9,4.4-4.1,6.7
	c-3.8-5.3-4.7-11.8-5.2-18.1c-2.2,6.9-0.9,14.8,4.1,20.2c-1.8,3.8-4.2,7.4-5.9,11.2c0.2-0.1,0.7-0.1,0.9-0.2
	c1.4-3.7,3.8-6.9,5.7-10.3c6.3,1,12.5-1.5,17.4-5.3c-5.3,1.3-10.5,3.4-16.1,3.3c1.1-2.2,2.3-4.3,3.4-6.5c6.7-0.2,13.2-2.5,19.1-5.7
	c-5.5,1.6-10.9,4.4-16.8,4c0.5-2.7,1.8-5,3.2-7.3c6.7-0.5,12.8-3.5,19-5.9c-5.8,0.9-11,3.8-16.9,3.8c1.4-2.6,3-5,4.1-7.7
	c5.5-0.4,10.6-2.5,15.9-3.8c-4.9,0-9.4,2.4-14.3,2c1.4-7,9.5-7.2,14.6-10.2c-3.3,0.4-6.4,1.4-9.6,2.1c4.5-3.3,9-6.7,13.3-10.2
	c-2.8,0.8-5.5,2.1-8.4,2.6c2.8-6.1,6.4-11.8,10.1-17.4c3.4,9.8,3.2,20.4,2,30.6c-1.7,11.5-8.5,21.6-17,29.2
	c-10,8.7-21.8,15.2-31.7,24c2.7,21.2,9.4,41.8,17.4,61.6c0.8,2.1,1.7,4.1,2.9,6c1-8-2.2-15.6-2.4-23.5c-0.1-12.1,2.4-24.5,9.1-34.8
	c7.3-11.7,18.9-20,31.1-25.9c-2.5,6.6-4.8,13.3-7.1,20c-1.8-2.4-2.6-5.1-3.9-7.8c-0.1,5.7,4.1,11.4,0.9,16.8c-3-3-4.8-6.8-6-10.8
	c-1,5,1.1,9.9,4.9,13.1c-0.8,2.5-1.7,5-2.8,7.4c-3.8-3.7-5.6-8.7-7.4-13.5c-1.3,6.3,1.8,12.5,6.6,16.4c-0.9,3-2.2,5.8-3.3,8.7
	c-4-4.9-7.1-10.7-7.9-17c-1.8,7,1.2,14.9,7.2,19c-0.8,2.9-1.7,5.9-2.5,8.8c-5.8-4.3-7.5-11.6-9.9-18c-0.1,7.4,2,15.5,8.3,20.1
	c-0.9,2.7-1.9,5.3-2.8,8c-5.1-4.8-7.5-11.5-9.4-18.1c-0.2,7.7,2.7,15.3,8.1,20.7c-1.4,6.9-4.8,13.1-6.7,19.9
	c3.4-6.3,5.4-13.2,7.7-19.9c5.2-0.4,9.9-2.7,13.9-5.9c0.2,0.5,0.5,1,0.7,1.5c-7,9.4-13.1,19.5-19.8,29.2c9.8,19,21.8,36.9,35.9,53
	c-7-11.6-8.6-25.6-6.6-38.8c1.7-14.1,7-28.5,17.9-38c1.4,6.4,0.6,13,0.5,19.4c-3,0.4-4-3.4-6.2-4.8c1.9,5.3,8.5,8.9,7,15.3
	c-4-1-6.1-4.7-9-7.3c2.2,3.9,5.4,7.2,8.9,10.1c0,2.5,0,5,0,7.4c-4.2-2.7-7.7-6.3-11.7-9.3c2.9,4.7,6.7,9,11.7,11.7
	c0.1,2.9,0,5.9,0,8.8c-5.7-2.9-9.8-7.9-13.6-12.9c2,6.8,7.3,12.2,13.7,15.2c0,2.9,0,5.8,0,8.7c-5.4-2.7-9.7-7.1-13.4-11.7
	c2.3,6.7,7.6,12,14.2,14.5c0,2.5,0,5,0,7.6c-4.9-3.3-9.1-7.5-13.6-11.3c3.4,5.5,7.5,11.1,13.6,13.7c0.3,3.5,0.4,7.2,1.3,10.6
	c0.8-4-2.1-9.6,1.9-12.3c-0.3-0.2-1-0.6-1.3-0.9c1.7-1.5,3.3-3,5-4.5l0,1.2c0,0.4,0,1.2,0.1,1.7c2.2-3,5.3-5.9,6.4-9.5
	c-1.9,1.1-2.6,3.5-4.5,4.6c0.8-5,4.7-9.3,4.5-14.6c-4.3,3.8-6.8,9.9-12.8,11.3c0-2.9,0-5.8,0-8.7c6.2-3.2,10.2-9.2,13.4-15.2
	c-4.6,4.1-8.6,8.8-13.4,12.8c0-3,0-5.9,0-8.9c1.6-0.8,2.1-2,1.6-3.7c0.7,0.4,1.4,0.8,2.1,1.1c2.3-2.7,4.9-5.2,6.7-8.3
	c-2.6,2-4.6,4.6-7,6.8c2.1-5.3,4.3-10.6,5.8-16c-3.4,2.5-6,5.8-8.7,8.9c3-4.1,3.9-9.1,5.3-13.9c-1.7,1.2-3.5,2.5-5.2,3.8
	c-1.4-6.7-0.3-13.5-0.7-20.2c11.2,10.9,21,24.9,21.7,41c0.9,13.9-4.8,27-11.1,39.1c-2.3,4.4-4.2,9-6.1,13.6
	c7.3,7.6,15.6,14.1,23.8,20.7c-1.2,2.5-2.4,5-3.4,7.6c-3.1-2.1-6.2-4.3-8.9-6.9c-19.1,3-35.1,16.6-54.8,17.1
	c-20.2,1.2-39.1-9.4-53.3-22.9c7.3-1.5,14.7,0.2,22,0.3c-2.1,2-4.4,3.9-6.4,6.1c3.1-1.2,5.5-3.3,8.2-5.2c2.4-1.7,5.5-1.2,8.3-1.2
	c-2.2,4.6-6.8,7-10,10.7c5.2-1.9,8.1-7.1,12.9-9.5c2.2-1.2,4.9-1,7.4-1.1c-3.9,4.4-7.7,8.8-11.3,13.5c5.3-3.5,10.9-7.1,14.3-12.7
	c3.1,0,6.3,0,9.4,0c-3.3,6.1-8.9,10.2-14.4,14.3c7.3-2.1,14.3-6.9,17-14.4c3.1,0,6.1,0,9.2,0.1c-2.8,6.2-8.3,10.4-13.5,14.6
	c6.8-2.3,13.4-6.7,16.1-13.6c3,0,6,0,9,0c-3.4,6.1-8.9,10.4-14.4,14.4c7.3-2.3,14-7.3,16.5-14.8c3.4,0,6.8-0.1,10.1-0.6
	c-3.1-0.3-6.2-0.2-9.3-0.6c-1.1-0.5-1.4-1.8-2-2.7c-3-5.2-8.1-8.8-13.1-12c4.3,4.2,8.7,8.4,12.2,13.3c-2.7,0.2-5.5,0.7-8.2,1.1
	c-3.4-6.3-9.1-11.2-15.1-14.9c4,4.6,8.9,8.4,12.3,13.5c-3.3,0-6.6,0.2-9.8,0.8c-3.2-6.5-9.5-10.6-15.3-14.5c4.3,4.7,9,9.1,12.8,14.3
	c-3.1-0.3-6.3-0.3-9.5-0.3c-3.6-4.9-7.9-9.1-12.6-12.9c3.2,4.3,8.3,7.4,9.9,12.8c-2.7,0-5.3,0-8,0c-2.5-4.2-6.3-7.6-10.4-10.3
	c2.4,3.6,6.1,6.3,7.9,10.4c-6.8,0.7-11-4.9-16.3-7.8c1.9,2.4,4.4,4.2,6.6,6.4c-7.6,1.1-15.1-0.6-22.7-0.4
	c7.5-6.7,15.5-13.2,24.9-17.2c10.4-4.4,22.2-6.2,33.3-3.4c10.5,2.5,20.1,7.7,29.5,12.8c-8.1-11.2-18.7-20.3-26.6-31.7
	c-16.7,0.4-31.8,10.1-48.7,9.2c-15.4,0-29.9-7.2-41.4-17c-5-4.4-9.9-8.9-13.8-14.4c7.1,0.5,14.3,1.4,21.1,3.6
	c-1.5,2.2-4.1,3.1-6.2,4.4c3.4,0.1,6.4-1.5,9.3-2.9c2.4-1.2,5.1-0.6,7.6-0.2c-2.4,3.7-6.5,5.5-9.9,8.1c5.9-0.8,9.4-6.8,15.4-7
	c1.4-0.1,2.9-0.3,4.1-1c-2.3-0.3-4.6-0.6-6.9-0.9c-1.9-4.4-4.8-8.2-8.5-11.2c2,3.5,4.6,6.6,6.6,10.1c-5.1-3.5-10.4-6.6-15.8-9.6
	c1.7,2.5,3.6,4.8,5.6,7c-7.3-1.2-14.6-2.1-21.9-3.2c12.5-8.7,27.1-16,42.7-14.8c18.8,1.2,35.1,11.9,49.1,23.6
	c-6-10.1-11.8-20.2-17.6-30.4c-9.3-2.1-18.9-1.8-28.3-1.2c-16.1,1.4-33-2.9-45.6-13.4c-10.7-8.7-18.3-20.6-23.8-33.1
	c6.7,2.9,13.6,5.6,19.9,9.4c-2.9,0.8-5.8,1.7-8.7,2.6c4.3,1.2,8.7,2.5,13.1,3.4c1.4-0.6,2.8-1.1,4.2-1.6c0.4,0.6,0.9,1.2,1.4,1.8
	c2.1-3.3,5.9,0.6,8.7,0.9c-3.9,5-10.3,6-15.8,8.1c7,0.6,13.6-2.4,19.5-5.7c2.6,1.3,5.4,2.4,8.2,3.4c-5.6,4.6-12.8,6.2-19.7,7.7
	c7.6,1.4,16.2-0.2,21.5-6.3c2.8,1.1,5.5,2.2,8.3,3.4c-4.7,5.5-12.1,6.4-18.7,8.3c7.7,1.2,16.6-0.3,21.4-7.2c2.7,1.1,5.4,2.3,8,3.6
	c-5.2,5.4-12.7,6.8-19.7,8.4c7.6,0.5,16.7-0.1,21.4-7.1c7.1,3.1,14,6.8,21.3,9.7c-6.2-4.3-13.3-6.9-20.1-10
	c-0.8-7-4.3-13.2-7.6-19.3c2.1,5.5,4.8,10.8,5.7,16.7c-2.9-0.9-5.6-2-8.3-3.2c0.6-7.1-3.2-13.7-7.9-18.7c2.3,5.9,5.2,11.6,6.1,17.9
	c-2.9-1.1-5.8-2.2-8.7-3.3c-0.3-7.6-3.9-14.8-9.3-20.1c2.2,6.1,5.5,11.9,6.5,18.3c-2.7-1.4-5.4-2.9-8.2-4
	c-0.4-6.1-3.1-11.9-7.3-16.3c1.9,5.1,3.8,10.2,5,15.5c-2.8-7-8.7-12.1-13.6-17.6c0.9,4.2,3.3,8.1,3.4,12.5c-2.2-1.1-4.4-2.2-6.7-3.2
	c-0.9-3.7-2.9-7.1-5.7-9.7c1.3,2.9,2.6,5.8,3.6,8.8c-6.5-3.3-13.3-6.2-19.6-9.9c8.3-3,16.8-5.8,25.8-5.8c16.5-1,32.8,6.3,44.3,17.9
	c7,7.2,13.1,15.1,19.6,22.7c-7.3-17.5-12.7-35.8-16.3-54.4c-8-6.5-18.6-7.5-28.5-8.4c-16.5-1.7-32.3-10.5-41.5-24.3
	c-7-10-11.1-21.8-13.7-33.7c5.8,3.8,11.2,8.3,17,12.1c0.3,1.7-1.9,1.2-2.9,1.6c-1.8,0.2-3.6,0.3-5.3,0.4c5.5,1.8,12.1-0.4,16.8,3.8
	c-3.8,2.5-8.4,2.7-12.8,3.2c4.7,1.8,10.1,1.9,14.3-1.1c2.1,1.5,4.2,3,6.4,4.4c-4.4,3-9.9,3.2-15,3.7c5.7,3.6,12.5,1,17.8-1.9
	c2.3,1.8,4.7,3.5,7.2,5.1c-5.9,1.9-12.1,2.7-18.2,3.9c6.7,1.7,14.4,2.4,20.2-2c2.5,1.9,5.4,3.4,7.1,6.3c-6.4,2.2-13.3,2.7-20,2.7
	c6.4,2.3,14,2.9,20-1.1c3.3-3,5.7,2.4,8.6,3.7c-6.3,3.7-13.9,3.1-20.9,4.1c8.1,2.5,16.4-0.2,24.3-2.1c0.3,2.7,3.1,2.9,4.9,4.1
	c4.4,2.6,7.9,6.4,12.6,8.6c-5.5-5.2-11.7-9.6-18-13.8c1.2-6.7-0.8-13.6-3.6-19.7c1.2,5.9,3,11.9,1.9,18c-2.3-1.4-4.5-3-6.7-4.6
	c0.2-6.6-1.4-13.2-3.4-19.5c0.1,5.9,3.4,11.7,1.4,17.6c-2.3-1.7-4.9-3.1-6.9-5.2c-0.5-7-2.6-13.7-4.6-20.3
	c0.4,6.2,2.9,12.2,2.3,18.6c-2.5-1.9-5.1-3.8-7.6-5.6c0.4-6-1.1-11.9-3.1-17.4c0.5,5.1,1.9,10.2,1.3,15.3c-2.1-1.2-4.1-2.5-6.2-3.9
	c-0.5-4.8-1.2-9.8-3.6-14.2c0.4,3.8,1.4,7.4,1.8,11.2c-2.6-5.2-6.1-10.1-10.2-14.2c0.8,3.1,1.9,6.2,2.3,9.4
	c-6.2-4.1-12.5-8.3-17.5-13.8c16.8-2,35.1-0.3,49.3,9.9c14.6,10.6,22.7,27.3,29.6,43.4c-0.8-16.1-2.3-32.2-1.8-48.4
	c-14.6-9.9-33.3-11-48-20.7c-16.2-12.3-23.8-32.7-25.2-52.5c5.6,4.3,10.7,9.2,15.3,14.6c-2.8-0.1-5.6-0.2-8.4,0
	c5.4,1.9,12.2,0.8,16.3,5.4c-4.4,0.8-8.9,1.2-13.3,1.7c4.3,2.5,10,3.6,14.2,0.4c2.2,1.9,4.2,4.1,6,6.4c-5.5,0.7-11,1-16.5,1.1
	c3.4,1.4,7.1,2.9,10.8,2.4c2.7-0.2,5.1-1.4,7.7-2c2.8,1.4,5.4,3.4,6.2,6.6c-6,1.4-12.3,0.8-18.4,1c6.5,3,14.7,4.7,20.9,0.1
	c2.2,2.2,4.4,4.4,6.3,6.9c-6.3,1.9-12.9,2.1-19.3,1.2c6.5,2.5,14.1,3.3,20.6,0.4c1.4-0.8,2.7,0.7,4,1.1c-0.7-1-1.3-2.1-1.9-3.1
	c1.3-6.4-0.3-13-0.8-19.4c-0.5,6.1,0.4,12.3-0.3,18.4c-2.4-2.2-5-4.3-6.9-7c-0.6-6.4-0.6-13.1-2.8-19.3c0.7,6,1.3,12.2,0.8,18.2
	c-2.4-1.9-4.6-4.1-6.8-6.2c1.2-6,0.5-12.3-1.3-18.1c-1.3,4.5,0.7,9.1-0.3,13.6c-0.6,1.8-3.1,1.2-3.8-0.3c-2.8-4.9-2.4-10.8-3.8-16.2
	c-0.6,4.1,0.2,8.2-0.3,12.3c-6.4-3-5-10.9-7.7-16.2c0.3,3.1,0.9,6.1,0.8,9.2c-5.7-4.3-10.4-9.7-15.5-14.7
	c15.5-1.2,31.9,2.2,44.3,12.1c15,11.9,22.9,30.3,27.9,48.3c2.8-14.6,4.7-29.5,8.2-44c-10.5-10.8-25.8-15.2-36.4-26
	c-11.4-12.3-14.4-30.3-11.9-46.4c4.4,4,6.7,9.6,10.8,13.8c-0.9,0.3-2.8,0.8-3.7,1c3.6,0.9,7.5,2.4,8.7,6.4
	c-3.7-0.1-7.2-1.2-10.8-1.1c4,1.8,8.7,1.5,12.5,3.6c1.8,0.8,2,2.8,2.7,4.4c-4.4,0.4-8.7-0.9-13.2-1.1c5,2.5,10.7,2.4,15.8,4.5
	c2.2,0.7,3,3,3.9,4.9c-5.3,0.1-10.4-1.6-15.6-2.4c4.9,3.2,10.9,4.9,16.8,3.6c1.3,1.9,2.5,3.9,3.7,5.9c-5,1.3-9.9-0.1-14.8-1
	c4.7,3.2,10.5,4.5,16,2.7c2,1.7,3.5,3.9,4.2,6.4c-5.4,0.1-10.7-1.3-15.9-2.3c5.3,3.1,11.5,5,17.7,3.7c3.8,4.1,6.5,9.2,10.3,13.3
	c-2.8-5-6.6-9.4-9.6-14.3c3.5-4.9,3.3-11.4,2-17c-1.1,5.2-0.2,10.9-2.8,15.8c-1.6-1.5-3.3-3.2-3.2-5.6c0.2-5.5,1.8-10.9,1.3-16.4
	c-1.4,4.5-1.7,9.3-2.5,14c-1.7-1.7-3.4-3.4-5.1-5.1c2.1-5.7,2.6-12,1.3-17.9c-1.2,5.3-0.2,10.9-2.8,15.9c-1.7-2-3.2-4.1-4.9-6.1
	c2.9-4.3,3.7-9.6,2.2-14.6c-1.3,4-0.9,8.5-3.1,12.2c-1.4-1.4-3.3-2.8-3.4-5c0.1-3.7,0.9-7.4,0.6-11.1c-0.8,3.1-1.3,6.2-2,9.2
	c-3.2-3.7-2.9-8.8-3.6-13.3c-0.5,2.2-0.8,4.5-1.1,6.8c-3.7-4.5-7-9.3-10.6-13.9c13.1,0.8,26.5,5.7,35,16.1
	c10.3,12.4,13.6,29,14.3,44.7c4.9-12.2,9.4-24.6,14.6-36.7c-3.7-4.3-7.4-8.5-11.4-12.5c-6.2-6.4-12.8-12.7-16.4-21
	c-6.6-14.4-4.7-31.1,0.6-45.5c2.7,5.2,4.9,10.6,6.6,16.2c-2-0.7-4-1.4-6-2c3.5,2.7,8.7,4.3,9.4,9.3c-3.5,0.1-6.5-1.5-9.6-2.9
	c1.8,4.2,6.4,4.8,10.4,5.2c0.7,2.1,1.4,4.2,2,6.4c-4.2-0.9-8.3-2.5-12.2-4.4c2.8,4.9,8.5,6.4,13.7,6.5c0.8,2.1,1.7,4.2,2.4,6.3
	c-5.5,0.9-10.1-2.4-14.3-5.4c2.8,5.8,9.2,8.2,15.3,8.1c1,2.1,2,4.2,2.9,6.3c-5.5,0.3-10.3-2.6-15-4.9c3.2,5.3,9.5,7.5,15.4,7.5
	c1,2,1.9,4.1,2.4,6.3c-5.3-0.8-10-3.3-14.9-5.2c4.7,3.4,9.8,6.7,15.7,7c1.5,3.8,2.9,7.6,4.4,11.3c-0.5-3.9-2.2-7.6-3.6-11.2
	c4-4.1,5.5-9.8,6-15.3c-2,4.6-3.6,9.4-6.3,13.7c-1-2-1.9-4-2.6-6c2.5-4.6,5.1-9.5,5.6-14.8c-2.6,3.5-4.8,7.2-7,11
	c-0.7-1.7-1.5-3.2-2.1-4.9c2.1-5.2,5-10.3,5.5-16c-2.5,4.1-2.6,9.4-6.5,12.6c-0.8-2.1-1.6-4.2-2.5-6.2c2.3-4.1,4.3-8.4,5.1-13.1
	c-2.1,3.5-3.8,7.2-6,10.6c-4.4-5.2,0.8-11.2,1.4-16.8c-1.5,2.6-2.7,5.5-4.1,8.2c-4.3-3.1-1.1-8.3-0.5-12.3c-1,1.8-1.5,3.9-3.3,5.1
	c-1.6-5.6-3.9-11-5.8-16.6c12.1,3.9,22.7,12.7,28.4,24.1c6.8,12.2,7.4,26.8,4.7,40.2c5.5-8.2,10.7-16.6,15.9-25
	c-3.8-5.2-7.4-10.5-11.2-15.7C168.5,184.2,162.8,176.3,160.6,166.9z"/>
<path d="M656.2,125c8.7,11.9,12.2,27.7,8.4,42c-3.8,15.5-15.3,27.2-24.3,39.9c5.1,8.5,10.9,16.5,15.6,25.3
	c-2.7-14.6-0.9-30.5,7.2-43.2c5.8-10,15.6-17.3,26.6-20.8c3,2.6,4.1,6.5,5.2,10.1c3.5,13.2,1.9,27.7-4.9,39.6
	c-6.5,11.4-16.9,19.8-25.5,29.5c4.7,12.3,9.5,24.5,13.8,36.9c2.2-10.6,4.8-21.2,8.5-31.4c2.3-5.9,4.8-12.1,9.8-16.3
	c9-7.7,20.6-11.3,31.9-13.9c-2.9,5.4-7.2,9.8-10.3,15.1c-0.6-1.7-1.2-3.4-1.7-5c-0.1,3.9,0.9,8.8-2.9,11.4
	c-1.2-3.2-1.7-6.7-2.1-10.1c-1.8,4.2-3.1,8.6-4.7,12.9c-0.8-2.8-0.8-5.6-1.1-8.4c-2.1,4.8-1.2,10.3,1.8,14.5
	c-1.5,2.1-3.1,4.1-4.5,6.2c-2.6-4.8-2.1-10.4-2.6-15.7c-3.4,5.6-1.8,12.4,1,17.8c-1.3,2.1-2.8,4.1-4.9,5.5
	c-1.1-4.7-1.8-9.4-2.4-14.2c-1.2,4.8,0,9.7,0.7,14.4c0.6,2.5-0.4,5.2-2.2,7c-1.7-0.2-1.9-2.2-2.4-3.5c-0.9-3.8-0.7-7.8-1.1-11.7
	c-2,5.5-1.9,12.2,1.5,17.2c-2.8,5.1-6.6,9.5-9.5,14.4c4-3.9,6.4-9,10-13.3c5.9-0.3,11.8-1.7,17.3-3.7c-5,0.8-9.9,2.4-15,2.7
	c1.1-2.2,2.1-4.4,3.1-6.7c5.6,0.6,11.1-1.2,16.4-2.8c-4.9,0.8-9.8,1.9-14.8,1.5c1.3-2.2,2.7-4.3,4.1-6.5c6,0.7,12-1.1,17.4-3.5
	c-5.5,0.6-10.8,2.9-16.5,2.2c1.8-2.2,3.7-4.3,5.2-6.8c5.1,1,10.1-0.7,14.9-2.2c-4.5-0.1-8.8,1.4-13.2,1c1.6-7.2,10.1-6,15.5-8
	c-3.6-0.4-7.1,1-10.7,1.3c0.9-5.5,7-6.3,11.4-7.6l-0.3-0.4c-2,0.5-4,0.9-6.1,1.1c3-4.9,6.4-9.6,9.6-14.3c3.1,15.1-0.7,31.1-9.5,43.7
	c-3.8,5.2-8.4,10.1-14.2,13c-8.2,4.2-17.4,7.4-23.7,14.5c-0.1,2.3,0.7,4.4,1.1,6.6c2.8,12.7,5.2,25.6,6.3,38.6
	c6.3-13.1,12.3-26.3,18.8-39.3c12.5-16.3,34.1-22.7,54-21.5c-4.7,5.3-9.8,10.5-15.3,14.9c-0.4-2.6-0.3-5.2,0.2-7.8
	c-0.1,0.2-0.4,0.6-0.5,0.8c-1.7,4.3-1.8,9.1-4.5,13c4.6-3.5,10.7-3,16-4.4c-3.2-0.4-6.3,0-9.5,0c4-5.8,9.8-9.9,14.9-14.8
	c-0.7,14.7-4.6,29.6-13.8,41.4c-4.9,6.4-11,12.2-18.4,15.6c-13.1,6.5-28.4,7.8-41,15.5c1.3,6.9-0.1,13.9,0.1,20.9
	c0,9.4-1.2,18.7-1.4,28c2.4-6.3,5.6-12.2,8.8-18.1c6.3-10.9,14.2-21.5,25.5-27.7c13.3-7.8,29.4-9,44.4-7.1
	c-4.9,5.5-11.2,9.6-17.3,13.7c0.5-3,1.3-6,2-9c-3.3,4.7-2.7,12.4-9.1,14.5c-0.2-4,0.6-7.8,1-11.8c-2.6,4.5-2.2,9.9-4.6,14.5
	c-1,2.1-3.1,3.1-5.2,3.7c-0.5-5.1,0.5-10.1,1-15.1c-1.8,3.8-3.5,7.9-3.4,12.2c-0.1,1.8,1.3,4-0.5,5.4c-2,1.8-4.2,3.1-6.1,4.9
	c-0.4-6.7,1.6-13.2,2.8-19.8c-5.8,7.8-3.5,18.7-9.7,26.2c1.7-1.2,3.5-2.4,5.2-3.6c6.4,2.5,13.5,2.5,20.3,2.4
	c-5.9-1.6-12.3-1.1-17.9-3.9c2.3-2.1,4.9-3.8,7.3-5.7c5,3,11.2,4.3,16.7,2.1c-4.8-1.2-9.7-2.1-14.5-3.3c2.1-1.8,4.2-3.8,6.9-4.8
	c4.4-0.3,8.8,0.6,13.2,1c-3.9-1.1-7.9-1.3-11.7-2.4c3.7-5.6,10.9-2.7,16.2-5c-2.8-0.2-5.6-0.2-8.3-0.4c5.5-4.8,11.2-9.3,17.5-13
	C766.4,368,760.2,383,749,394c-6.9,6.8-15.6,11.8-25,14.4c-8.2,2.5-16.9,2.4-25.1,4.7c-4.3,1.1-8.3,2.7-12.3,4.6
	c-4.2,18.8-9.4,37.4-16.8,55.2c6.5-7.5,12.9-15.1,19.6-22.4c9.9-10.1,23.4-17.1,37.6-17.8c11.1-0.6,22,2.5,32.5,5.6
	c-6.7,3.2-13.4,6.7-20,10.1c1.1-2.9,2.3-5.7,3.3-8.6c-2.4,2.7-4.4,5.8-5.3,9.4c-2.4,0.9-4.6,2.1-6.9,3.3c0.7-4.4,2.4-8.5,3.8-12.7
	c-4.9,5.5-5.1,14.9-12.8,17.8c-1-5.6,1.7-10.9,4-15.8c-5.6,3.5-7.8,10.3-7.6,16.6c-2.1,0.9-4.2,1.8-6.3,2.8c0.8,0.4,1.5,0.7,2.3,1.1
	c1.4-0.8,2.8-1.5,4.2-2.3c5.8,3.1,12.2,5.8,18.9,5.9c-5.5-1.7-10.9-4-15.8-6.9c2.4-1.4,5-2.4,7.5-3.8c4,2.3,8.4,4.1,13.1,3.6
	c-3.4-1.2-6.8-2.5-10.1-3.9c1.4-1.4,2.8-3.4,5-3.4c4.5,0,8.9,1.6,13.5,2c-3-1.5-6.4-2-9.6-3.1c6.2-4,13.1-6.6,19.9-9.3
	c-6.5,15.1-16.3,29.5-30.7,38.1c-10.2,6.2-22.4,8.6-34.2,8.7c-10-0.7-20.2-1.3-30.1,0.4c-2.6,0.1-3.5,2.8-4.8,4.6
	c-5.1,8.4-9.4,17.3-15,25.5c14-10.2,29.3-20.2,46.9-22.6c16.1-1.9,30.9,6.4,44.5,13.9c-6.9,3.1-14.6,3.2-21.9,4.8
	c2-2.6,4.2-5.1,6.1-7.9c-5.5,2.9-8.2,10.2-15.3,10.1c1.8-3.9,4.4-7.4,6.5-11.1c-4.6,2.5-7.9,6.9-9.6,11.9c-2.6,0.5-5.2,0.8-7.8,1.1
	c1.7-5.3,5.1-9.8,8.7-14c-6.1,2.5-10.4,8.2-11.3,14.7c-1.6,0.5-3.9,0.1-5.1,1.5l-0.1,0.6c1.1-0.2,3.4-0.5,4.5-0.7
	c5,4.5,10.5,8.7,17.1,10.5c-4.3-3.8-8.8-7.4-13.1-11.2c2.8-0.5,5.9-1.1,8.6,0.1c3.9,1.9,7.1,5.1,11.4,6c-2.7-2-5.4-3.9-8.2-5.7
	c5.1,0.5,10.1,1.1,15.2,1c-1.7-1.9-3.4-3.8-5.2-5.5c6.7-1.3,13.5-2.3,20.2-3.5c-9.6,13-22.3,24.6-38,29.4c-8,2.7-16.6,2.9-25,2.3
	c-13.7-1.9-26.4-8.7-40.5-8.8c-8.8,11-18.5,21.2-27.9,31.6c15.5-8.7,33.2-16,51.4-12.9c14,2.9,26,11.4,36.8,20.4
	c-7.2,0.9-14.5,1-21.8,1.1c1.1-2.8,3.7-4.6,5.8-6.6c-5.2,2.2-8.8,7.5-14.8,7.7c2.3-3.5,4.7-7,6.8-10.6c-4.3,2.7-8.4,5.8-10.9,10.3
	c-2.4,0-4.8,0-7.2,0.1c3.6-3.9,6.6-8.3,9.4-12.8c-5,3.3-10.1,7-12.5,12.7c-3.3,0-6.5,0-9.8,0.3c3.2-6,8.5-10.3,13.8-14.4
	c-7.1,2.6-13.9,7.4-16.6,14.7c-3.3,0.2-6.5,0-9.8,0c3.2-5.6,7.9-10,12.9-14.1c-7,2.4-12.8,7.8-15.5,14.7c-2.8,0-5.6,0-8.4,0
	c3.1-6,8-10.6,13.4-14.5c-6.8,2.4-13.1,7.3-15.2,14.5c-7,1-14.2,0.3-21.1,2.2c7,0.2,13.9-1.6,20.9-0.8c3.2,7,9.9,11.4,16.4,14.9
	c-5.1-4.3-10.1-8.7-14.2-14c2.9,0,5.9-0.2,8.8-0.5c4,4.8,8.9,8.7,14,12.4c-4.3-3.9-9.5-7.5-11.2-13.4c3.1-0.2,6.2,0.3,9.3,0.4
	c3.8,6.4,10.5,10.2,16.6,14c-4.5-5-9.8-9.1-14.1-14.3c3.2,0,6.4-0.2,9.7,0.1c4,4.6,8.6,8.7,13.6,12.3c-3.4-4.6-9-7.5-11.1-13.2
	c2.9,0,5.8,0,8.7,0c2.7,3.8,6.3,6.7,10.2,9.1c-1.6-2-3.6-3.5-5.7-5c0.6-0.4,1.2-0.8,1.8-1.2c3.6,1.3,7.4,2,11.1,2.8
	c-1.8-1.8-3.5-3.5-5.2-5.3c7.3-0.5,14.6-1.3,21.9-1.3c-10,10.6-22.6,19.1-37,22.2c-9,1.9-18.5,2-27.5-0.3
	c-14.8-3.6-27.7-12.7-42.8-15.5c-3.5,2.5-6.9,5.2-10.2,7.9c-1-2.6-2.2-5.2-3.2-7.8c8.2-6.8,16.5-13.4,24.4-20.6
	c-4.3-9-8.1-18.2-12.2-27.3c-4.5-10.1-6.8-21.5-4.5-32.4c3.1-13.4,11.3-24.8,20.2-35.1c1.5,6.9,0.3,13.8,0.5,20.8
	c-2.3-2.4-3.9-5.4-6.4-7.5c1.3,3.1,3.4,5.6,5.3,8.3c1.7,2.4,1.6,5.5,1.5,8.3c-2.8-2.5-5.5-5.3-8.4-7.8c1.9,4,4.9,7.4,8.4,10
	c0,2.4,0,4.7,0,7c-3.8-3.2-7.4-6.5-11.2-9.6c3.1,4.5,6.3,9.3,11.2,12c0,3,0,6,0,9c-5.7-2.8-9.5-8.1-13.2-13
	c1.7,6.9,6.7,12.7,13.2,15.5c0.2,2.8,0,5.6,0.1,8.4c-4.2-3.8-8.5-7.7-13-11.2c3.1,5.5,6.9,11.3,13,13.8c6.8-2.2,11.1-8.5,14.7-14.3
	c-4.3,4.2-8.2,9-13.7,11.8c-0.1-2.9,0-5.8,0-8.7c6-3.2,10.6-8.6,13.8-14.5c-4.9,3.7-7.9,9.7-13.8,12.2c-0.1-3,0-6,0-9
	c4.9-2.8,8.8-7.1,12.2-11.6c-3.7,3-7,6.5-10.9,9.1c-0.4-2.6-0.7-5.1-1.2-7.6c1.1-1.1,2.2-2.2,3.4-3.4c-0.9,0.2-2.7,0.7-3.6,0.9
	c0.2-6,5-10,7.3-15.2c-2.3,1.3-3,5.3-5.8,5.3c-0.9-6.5-0.2-13.2-0.4-19.8c11.7,9.4,16.9,24.4,18.5,38.9c1.7,13.1-0.2,27-7.2,38.3
	c14.4-15.8,26.1-33.9,36.3-52.7c-10.6-15-27.1-25.4-35.1-42.2c-5.7-11.2-6.8-24.3-5-36.6c1-6.8,3.4-13.4,7.5-18.9
	c2.2,6.3,4.8,12.4,7,18.6c-2.2-0.3-4.4-1-6.5-1.6c4.1,3.3,9.9,5.8,10.5,11.8c-3.9-1.3-7.5-3-11.2-4.7c3.5,3,7.5,5.3,11.8,6.8
	c0.8,2.4,1.6,4.9,2.4,7.3c-5-1.2-9.6-3.4-14.2-5.8c5.1,4.2,11.2,8.9,18.2,7.8l-0.9-0.4c3.5-4.7,5.8-10.2,6.4-16
	c-2.7,4.7-4.6,9.7-7.5,14.2c-1.4-2.4-2.2-5.1-3.2-7.7c2.8-4.1,5.1-8.6,5.2-13.7c-1.6,3.4-3.3,6.7-4.7,10.1
	c0.3-5.4-0.5-10.8-0.8-16.2c-1.3,2.6-2.4,5.2-3.7,7.7c-3.1-6.1-4.3-12.9-7.3-19.1c22.4,8.2,38.6,30.2,40.2,53.9
	c1.5,10.1-3,19.8-2.7,29.9c9.4-18.6,14.7-38.9,19.4-59.1c0.5-2.9,1.4-5.8,1.3-8.8c-1.6-4-5.4-6.6-8.9-8.9
	c-6.6-4.1-13.7-7.5-20.2-11.8c-10.8-8.3-18.3-20.8-20.1-34.4c-1.7-9.8-0.1-19.8,1.9-29.4c3.6,6,7.7,11.7,10.9,17.9
	c-2.9-0.7-5.7-1.7-8.5-2.7c4.1,3.6,10.7,3.8,13.1,9.3c-3.4-0.4-6.9-0.9-10.3-0.8c5.3,2.8,13.9,2.7,15.1,10
	c-4.7-0.3-9.3-1.4-13.8-2.7c4.4,3.6,10.1,5,15.7,4.6c1,2.7,2.7,5.1,4,7.7c-5.6-0.4-10.8-2.4-16.2-3.9c5.2,3.6,11.4,6,17.8,5.9
	c1.5,2.2,2.9,4.6,3.9,7.1c-5.9-0.4-11.5-2.7-17.3-3.7c5.7,3.6,12.2,6.1,19,5.6c1.1,2.1,2.2,4.1,3.3,6.1c-5.5,1.3-10.6-1.4-15.7-2.9
	c4.6,4.3,11.2,5.8,17.3,5.4c2.9,5.2,6.1,10.2,9.2,15.3c-1.1-5.8-5.4-10-8.1-15c2.5-6.6,4.8-13.7,3.6-20.9c-1.1,6.1-2.5,12.2-4.8,18
	c-1.8-2.2-3.4-4.5-4.7-7c4.2-5.3,5-12.5,4.4-19.1c-1.1,6.1-2.3,12.3-4.8,18c-1.7-2.5-3-5.2-4.6-7.8c3.8-6,4.3-13.3,3.4-20.2
	c-1.1,6.1-1.4,12.6-4.5,18.2c-1.9-2.4-3.6-5-4.8-7.9c3.4-4.4,3.6-10.1,4-15.5c-1.9,4.4-2.3,9.2-4.4,13.5c-2.4-1.8-4.2-4.7-3.8-7.8
	c0.8-3.5,1.8-6.9,2-10.4c-1.5,3.1-2.4,6.4-3.3,9.7c-4.6-2.8-3.5-8.4-3.2-12.9c-0.6,1.8-1.1,3.6-1.6,5.5c-4.2-5.1-6.5-11.3-10.4-16.5
	c14,2.9,27.8,9.7,36.2,21.5c6.6,8.7,9.6,19.4,11.8,29.9c1.2-19.5-1.4-39-4.6-58.2c-10.6-3.2-21.1-6.6-31.6-10
	c-9.4-3.2-18.8-8.2-24.2-16.9c-4.9-8.2-7-17.7-8.6-27c4.4,3.3,8.9,6.5,13.3,9.7c-2.3,0.5-4.6,0.8-6.7,1.8c3.4,0.8,6.9,0.7,10.4,1.1
	l0,1c0.6-0.4,1.3-0.7,1.9-1.1c-2.2-3.3-3.4-7.2-5.4-10.5c0.4,2.5,1,4.9,1.4,7.4c-5.1-2.6-8.8-7.2-13.6-10.1
	c11.5-2.7,23.3,0.6,33.6,5.8c5.8,3.1,11.3,7,15.2,12.4c4.7,6.9,6.4,15.3,11.4,22.1c-5.1-21.8-13.4-42.8-24-62.6
	c-13.5-1.4-27,4.4-40.3,0.3c-16.1-4.1-27.1-18.2-33.5-32.8c5.4,2.4,10.9,4.3,16.2,6.9c-1.8,0.8-3.6,1.4-5.4,2.2
	c4.3,0.2,9-2.8,12.9,0c-2.7,2.4-6.1,3.5-9.3,5c4.7-0.2,8.8-2.9,13.3-3.7c-0.5-0.1-1.6-0.3-2.1-0.4c-0.8-3.7-2.4-7.1-4-10.4
	c0.4,3,1.5,5.9,2.2,8.9c-4.8-0.6-6.5-5.4-9.3-8.6c0.8,1.9,1.7,3.7,2.5,5.6c-5.5-1.8-10.7-4.2-16-6.5c9.9-4.9,21.4-5.3,32.1-3.6
	c9.2,1.6,18.1,5.4,24.8,12.1c-2.2-3.9-5.1-7.4-7.7-11c-1-1.7-3-2.2-4.7-2.8c-9.5-3.1-19.2-5.3-28.8-7.7c-9.1-2.4-18.4-5.9-24.9-13.1
	c-9.5-10.3-13.4-24.3-15.8-37.8c5.2,3.8,10.1,8.2,15.5,11.8c-2.4,0.4-4.8,0.8-7.3,1.2c4.8,1.3,10.3,0.1,14.3,3.7
	c-3.1,1.8-6.6,1.8-10,2.3c5.7,1.8,11.4,5.2,17.5,3.8c-4.5,1.7-9.3,2.4-14.1,2.7c4.7,2.4,10.8,2.8,15-0.9c2.6,1.4,5,3.1,7.1,5.2
	c-5.7,1.8-11.8,1.6-17.7,1.7c6,2.1,13.5,3.9,18.8-0.9c2,1.8,5.9,2.9,6.2,5.8c-4.9,1.5-10,2-15,2.1c5.7,2.2,12.8,2.8,17.5-1.7
	c2,1.4,3.9,3.1,5.7,4.9c-5.5,1.9-11.4,2-17.2,2.7c6,1.8,13,2.9,18.4-1.1c2.6,1.7,5.2,3.4,8.1,4.8c-1.8-2.2-4.2-3.9-6.5-5.6
	c0.6-6.4-0.5-12.8-2.6-18.8c0.8,5.6,1.8,11.3,0.9,17c-2-1.4-4-2.8-5.9-4.3c0.6-6.1-0.5-12.3-2.2-18.2c-0.4,5.5,1.2,10.9,0.9,16.4
	c-2.3-1.4-5.2-2.5-6.5-5c0.4-6.5-1.1-12.9-3.3-18.9c0.1,5.8,2,11.6,1.2,17.4c-2.3-1.7-4.6-3.5-6.9-5.1c1.1-5.3,0.4-10.8-2.1-15.6
	c0.5,4.9,1.6,9.8,0.8,14.7c-6.7-2.8-6.1-10.9-8.2-16.6c0.1,3.5,1.3,6.9,1.5,10.4c-5.6-0.8-6-7-7.2-11.3c-0.2,1.8-0.1,3.6-0.1,5.4
	c-5.6-3.1-11-6.8-14.8-11.9c16.1-0.8,33.4,1.9,46.1,12.4c13.8,12.4,17.4,32.1,30.4,45.1c-5-12.8-6.6-27-3.3-40.4
	c3-14.2,12-28.2,26.3-33.1c-1.3,5.8-3,11.4-3.9,17.3c-1.5-1.7-2.9-3.5-4.2-5.4c1.6,4.2,4.6,8.5,2.5,13.1c-2.2-2.1-3.8-4.7-5.5-7.2
	c0.5,3,2.2,5.5,3.6,8.1c1.2,2.2,0.6,4.8,0.6,7.1c-4.5-1.7-6.5-6.1-8.2-10.2c-0.3,5.1,2.9,9.4,6.5,12.7c-0.4,2.6-0.9,5.3-1.3,7.9
	c-3.8-3.4-6-7.9-7.9-12.5c-0.2,5.8,3,10.9,7.3,14.6c-0.4,2.3-0.9,4.7-1.4,7c-4.2-3.3-6.7-7.9-8.8-12.7c0.7,6,4.2,11,8.1,15.4
	c-0.6,2.1-1.2,4.2-1.7,6.3c-4.1-3.7-6.2-8.8-8.5-13.6c-0.1,6.3,3.5,11.9,8.3,15.8c-1.3,4.5-2.4,9.1-3.3,13.6
	c1.6-4.3,2.2-8.8,3.5-13.2c5.6-1.8,10.4-5.3,14.6-9.4c-4.5,2.4-8.5,5.6-13.6,6.8c0.7-2.3,0.9-4.7,1.6-7c5.5-1.1,10-4.4,13.8-8.3
	c-4,2.2-7.8,4.6-11.9,6.6c0.2-2.5,0.4-5,0.4-7.5c5.4-1.5,10.1-5,13.8-9.2c-4.4,2.6-8.2,6.3-13.3,7.4c0.5-2.6,1.2-5.2,1.7-7.8
	c4.9-1.2,9.1-4.2,12.4-8.1c-4.1,1.6-8.1,3.7-12,5.9c0.6-2.1,1.2-4.3,1.8-6.4c3.6-1.1,6.4-3.6,8.8-6.4c-2.9,1.5-5.8,3.2-8.8,4.5
	c2.1-4.6,5.9-8,9.1-11.8c-2.4,1.1-4.3,2.9-6.7,3.9C653.4,136.6,654.9,130.8,656.2,125z"/>
<path class="st0" d="M183.4,177.5c3.2-4,5.7-8.5,8.7-12.7c-1.1,4.5-3.8,8.3-6.3,12c-1.7,2.4-1.1,5.7-2.8,8.2c0-1.2,0-3.6,0-4.8
	c-6.1-1.4-11.8-4.6-15.2-9.9c4.2,3.1,8.6,5.8,13.5,7.5c-0.2-1.6-0.4-3.2-0.4-4.8c0.2-0.4,0.7-1.3,1-1.7
	C182.3,173.4,182.9,175.5,183.4,177.5z"/>
<path class="st0" d="M689.3,168.8c0.3,1.2,1.3,2.7,0.4,3.9c-1.7,4.1-3.7,8-4.7,12.4c2.3-0.7,4.5-1.8,6.7-2.9
	c-3.3,3.5-7.3,6.3-10.1,10.3c3.3-0.8,6.4-2.1,9.6-3.1c-2.8,3.1-6.7,4.4-10.6,5.2c-0.8,2.1-1.4,4.3-2,6.5c3.9-0.9,7.7-2.3,11.4-3.8
	c-3.3,3.2-7.6,5.4-12.3,5.8c-1,2.4-2,4.7-3.1,7.1c5.3-0.9,10-3.4,14.5-6c-3.9,4.4-9.3,7.4-15.2,7.9c-0.9,2.4-1.8,4.7-2.8,7.1
	c5.2-1.1,10-3.4,14.9-5.5c-4.2,3.9-9.4,6.9-15.2,7.5c-1,1.8-2,3.7-2.7,5.6c1.4,0.3,2.8,0.6,4.2,0.9c-1.8,0.4-3.5,0.9-5.2,1.4
	c-1.4,3.8-2.7,7.8-4.5,11.4c1.1-3.9,2.4-7.8,3.8-11.7c-4.8-3.3-7-9.2-5.6-14.8c1.2,4.9,3,9.7,6.5,13.4c2-2.9,1.9-6.7,0.1-9.7
	c-1.9-3.3-3.6-6.9-3.4-10.9c1.7,4.1,3.1,8.6,6.5,11.6c0.7-2.2,1.5-4.3,2.3-6.5c-3.2-4.4-6.2-9.8-5.2-15.5c1.8,4.4,2.9,9.2,6,12.8
	c0.8-2.3,2.7-4.6,2.3-7.1c-2.7-3.6-5.3-7.6-4.3-12.3c1.3,3.9,2.7,8.1,6.2,10.6c3.8-6-2.4-11.6-1.7-17.7c0.7,3.4,1.9,6.6,4.3,9.2
	c0.6-1.2,1.2-2.3,1.7-3.5c-0.8-2.8-1.4-5.7-1.7-8.6c1,1.6,2,3.3,3.1,4.9C685.3,179.4,687.6,174.2,689.3,168.8z"/>
<path class="st0" d="M184.9,186.8c3.5-3.1,5.2-7.5,8.2-11.1c-1.7,4.9-4.9,9.1-7.8,13.3c1.6,4.7,2.3,9.6,3.6,14.4
	c-0.2,0-0.5,0.1-0.6,0.1c-1.7-4.6-2.7-9.5-3.2-14.4c-6.4-1.7-11.8-5.9-15.9-11c3.8,2.4,7.4,5.4,11.8,6.9c1.4,0.6,2.9,0,4.3-0.4
	L184.9,186.8z"/>
<path class="st0" d="M608.2,218.1c-0.3-3.5-1.8-6.7-2.8-10c3.2,3.2,4.9,7.6,5.4,12.1c2.2,1,4.5,2,6.9,2.8c-0.7-5-3.4-9.3-5.4-13.9
	c3.1,4.6,5.4,9.7,7.3,14.9c2.1,0.7,4,1.9,5.9,2.9c0-1.7,0.1-3.5,0.1-5.2c0.7,1.9,1.4,3.9,2.2,5.8c2.1,0.7,4.1,1.6,6.1,2.5
	c-0.7-4.5-2.2-8.8-3.8-13.1c3,4.1,5.1,8.8,5.5,13.8c4,1.7,8.2,3,11.9,5.4c-4.1-1-7.7-3.2-11.8-4.3c-4.6,3-9.7,6.2-15.5,4.9
	c4.8-1,9.7-2.6,13.4-6c-1.8-0.7-3.6-1.4-5.3-2.1c-4.6,2.5-9.5,4.8-14.7,5.3c3.9-2.2,8.7-2.8,11.6-6.5c-2.1-0.8-4.1-1.6-6.1-2.6
	c-4.2,4.2-10.4,6.8-16.3,5.1c5-1.1,10.7-1.8,14.2-6c-1-1.4-2.9-1.3-4.3-2c-5.1,1-9.5,4.6-14.9,4.1
	C601.5,224.2,607.5,223.4,608.2,218.1z"/>
<path d="M707.1,249.1C710.4,249.6,705.3,251.9,707.1,249.1z"/>
<path class="st0" d="M633.6,268.6c1.4,3.5,1.5,7.3,2.9,10.8c0.6,2,2.8,2.3,4.5,2.9c0.6-3.9-0.8-7.7-0.7-11.6c1.4,4.4,1.6,9,2.2,13.5
	c1.8,1.6,3.6,3.3,5.5,4.8c0.8-4.9-1.2-9.6-0.8-14.5c1.5,5,2.6,10.3,2.2,15.6c2,1.2,4,2.5,6,3.8c0-4.8-0.6-9.5-0.8-14.3
	c1.6,5.3,2.1,10.9,2.3,16.4c1.7,1.4,3.4,2.7,5.2,3.9c0.9-5.4-1-10.5-1.1-15.8c1.3,5.7,3.2,11.6,2,17.4c4.3,3.9,9.7,6.6,13.3,11.1
	c-4.8-3.4-9.5-7-13.9-10.9c-4.6,3.3-10.6,2.1-15.9,1.7c4.9-0.5,10-0.3,14.5-2.8c-1.7-1.4-3.4-2.7-5.2-4.1c-4.9,2.8-10.9,2.8-16.1,1
	c4.9-0.4,10.3,0.2,14.5-2.8c-1.4-2.1-4-2.6-6.4-2.6c-5.4-0.1-10.9,1.4-16.1-0.6c5.2-0.7,10.5-0.3,15.6-2c-2.2-1.5-4.2-3.2-6.5-4.6
	c-3.7,3.3-8.8,3-13,1.1c4.1-0.3,8.1-1,12.2-1.5c-5.3-0.7-10.2-2.9-15.3-4.3c3.3-0.3,6.6-0.9,9.3-2.9
	C634,274.6,633.7,271.6,633.6,268.6z"/>
<path class="st0" d="M178.2,289.1c7.2-3.4,4.1-12.6,7.4-18.4c-0.4,3.6-1.1,7.2-1,10.9c1,0.4,2.1,0.8,3.1,1.2l-2.3,1.9
	c4.2,0.7,8.5,0.9,12.7,1.9c-4.7,0.9-9.8,1.1-14.1-1.3c-2,1.6-4.1,3.2-6.1,4.8c4.9,1.9,10.4,0.5,15.3,2.2c-5.8,0.9-11.6-0.2-17.4,0.2
	c-2.2-0.1-3.5,1.8-4.8,3.3c4.6,1.6,9.5,1.4,14.2,2.8c-5.4,0.5-11,0.5-16-1.7c-1.5,1.4-3,2.8-4.5,4.2c4.8,0.8,9.8,1.1,14.4,2.6
	c-5.6,0.3-11.8,1.2-16.9-1.8c-4,3.8-8.1,7.6-12.8,10.5c3.7-4.5,9.1-7,12.9-11.3c-1.6-5.6-0.6-11.6,2.5-16.5
	c-0.3,5.2-2.4,10.6-0.3,15.7c6.4-4.6,3.5-13.2,5.9-19.6c0.2-0.1,0.5-0.4,0.7-0.6c-0.9,4.9-1.1,9.9-0.7,14.9c3-1.2,4.9-3.9,5.3-7.1
	c0.5-4.8,0.7-9.9,3.1-14.3C178.4,278.7,177.1,283.9,178.2,289.1z"/>
<path class="st0" d="M739.6,289.8c0.3,4,0.3,7.9,0.9,11.9l0.3,0.5l0.4,0.6c4.3,1,8.7,0.4,13,0.6c-4.9,1.3-10.1,1.7-15.1,0.6
	c-1.8,2.1-3.7,4-5.3,6.1c5.5,1,11.1,1,16.6,1.3c-6,1.9-12.8,2.4-18.8,0.1c-2.4,1.9-4.6,4.1-6.6,6.4c6.5,2.3,13.5,0.8,20.2,1.5
	c-7.5,1.2-15.5,3-22.8,0c-1.9,2.1-4,4.1-5.8,6.4c6.6,0.2,13.1,0.7,19.6,1.6c-7.2,1.6-15.1,2.8-22.2-0.1c-1.9,2.1-3.8,4.2-5.2,6.6
	c6.4,1,13,0.2,19.4,1.5c-7.3,0.6-15.2,2.6-22.1-1.1c-5.1,4.8-9.5,10.7-15.7,14.1c4.8-5.4,10.7-9.7,15.5-15.2
	c-3.6-6.6-1.7-14.5,1.6-20.7c-1.1,6.5-1.8,13.2-0.5,19.8c2.2-1.6,4.1-3.7,6.1-5.5c-2.6-7-1.5-14.8,1.9-21.3c-0.6,6.3-1,12.6-0.3,19
	c2.8-1.7,5.2-4,7.1-6.8c-1.8-6.6,0.1-13.5,2.5-19.7c-0.9,6-1.4,12-1,18.1c1.9-0.7,4.2-1.4,4.9-3.6c2.6-6.5,1-13.7,3.2-20.3
	c0.8,5.5-1.1,11.5,1.6,16.6C739,304.1,737.1,296,739.6,289.8z"/>
<path class="st0" d="M118.3,313.7c1.7,6.6,3.2,13.6,1.7,20.3c5,5.2,11.5,9,15.3,15.3c-6.1-4.4-10.6-10.7-16.8-15
	c-6,4.8-14.3,3.6-20.7,0.3c6.2,0.9,12.4,0.5,18.5-0.6c-0.1-0.9-0.2-2.6-0.2-3.4c0.5,0.4,1.6,1.2,2.2,1.5
	C119.8,326.1,119.2,319.8,118.3,313.7z"/>
<path class="st0" d="M717.6,372.6c0.1-0.1,0.5-0.4,0.6-0.5c-0.1,6.7-2.2,13.5-0.4,20c6.5,1.2,13.2,1.7,19.6,3.4
	c-7.4,0.3-15.4,1-22.1-2.8c-2.5,1.4-4.7,3.1-7,4.7c6.9,1.6,13.7,3.1,20.7,4.3c-7.7,1.6-16.3,1.8-23.1-2.8
	c-5.6,4.2-11.1,8.9-17.3,12.2c5.5-4.9,11.7-9,17.4-13.6c-2.2-6.5-0.5-13.7,3.5-19.1c-1.4,5.9-2.7,11.9-2.3,18c2.4-1.4,4.6-3,6.9-4.5
	C712.6,385.3,714.8,378.5,717.6,372.6z"/>
<path d="M198.7,413.2c2.6-6.7,4.8-13.6,7.9-20.2c5.4,12.5,8.6,26,7.5,39.7c-2.2,2-4.1,4.2-5.8,6.6c-4.3,6-8.8,12-12.6,18.4
	c-5.3,2.1-9.9,5.7-15.7,6.7c0.8-2.6,1.4-5.3,2.8-7.7c6.7-1.3,13-4.5,17.6-9.5c-5.3,3.1-10.9,5.9-16.9,7.4c0.8-3.1,2.3-6,3.1-9.2
	c3.4-1.2,6.5-3,10-4c2.5-2.6,5.8-4,8.7-6.1c-3.2,1.7-6.6,3.3-9.4,5.6c-2.4,1.7-5.4,2-8.2,2.7c1-3.1,1.7-6.5,3.7-9.1
	c4.8-2.8,10.1-4.7,14.9-7.5c-5.1,1.1-9.3,4.6-14.5,5.3c1-2.7,2.1-5.4,3.2-8.1c2.1-1.2,4.1-2.4,6.2-3.5c-1.8,0.5-3.7,1-5.5,1.5
	c0.6-2.6,1.3-5.5,3.7-7.1c2.8-1.9,6-3.4,8.4-5.9C204.6,410.5,201.8,412.1,198.7,413.2z"/>
<path class="st0" d="M648,426.6c0,6.9-2.8,13.9-7.7,18.8c1.2,2.5,2.2,5.2,3,7.9c3.6-5.9,6.6-12.2,9.7-18.4
	c-0.8,7.7-3.1,15.7-8.6,21.4c1.1,2.4,1.9,4.9,3,7.4c4.5-5.2,6.9-11.8,9.5-18.1c-0.8,7.8-4,15-8.4,21.4c0.8,6.8,5.6,12.5,6.4,19.4
	c-3-6.6-5.4-13.4-7.7-20.2c-7.2,0.5-13.8-3.4-17.9-9c5,3.3,10.4,6.2,16.4,7.3c-0.8-2.6-1.6-5.2-2.5-7.8c-6.9-0.8-13.9-3.5-18-9.4
	c5.3,3.2,10.9,5.9,16.9,7.4c-0.5-3.1-1.8-6-2.9-9c-6.8-1.4-12.7-5.3-17.8-9.8c5.6,2.7,10.9,6,16.9,7.8c-0.8-2.5-1.8-5-2.9-7.4
	c0.4-0.6,0.9-1.2,1.3-1.9c0.8,3,2.1,5.7,3.5,8.5C643.6,437.8,646,432.2,648,426.6z"/>
<path class="st0" d="M707.2,464.2c0.2-7.6,2.9-15.4,9.3-19.9c-2.7,5.5-5.9,11-6.3,17.3c0.9,0.4,1.8,0.7,2.7,1.1
	c-0.7,0.5-2,1.5-2.7,2c6.4,3.1,13.2,5.1,20,7.1c-7.7-0.4-16.1-1.5-22-6.9c-2.7,1.1-5.4,2.2-8.1,3.5c6,3.7,12.7,6,19.2,8.5
	c-8-0.2-16.6-1.7-22.6-7.4c-2.2,1.5-4.5,2.7-6.9,3.8c6,3.1,12.4,5.5,18.4,8.5c-7.2-1.1-15.3-2-20.7-7.5c-7.4,2.8-14.2,7.1-21.7,9.5
	c6.3-4.2,13.5-6.9,20.6-9.8c0.5-7.1,3.5-13.7,7.9-19.2c-2.6,5.5-4.8,11.3-5.9,17.3c3-0.8,5.9-2.1,8.4-3.9
	c-0.3-7.8,4.3-14.5,8.9-20.4c-2.7,6.2-6,12.5-6.3,19.4C702,466.2,704.6,465.1,707.2,464.2z"/>
<path class="st0" d="M83.7,458.8c2.2-0.7,4.4-1.4,6.5-2.2c1.3,0.3,2.7,0.7,3.9,1.2C90.7,459,87.2,459.9,83.7,458.8z"/>
<path class="st0" d="M130.4,518.3c-1.6-5.4-5.6-9.4-8.3-14.3c4.5,4.4,8.7,9.3,11,15.2c1.9,0.3,3.9,0.6,5.8,0.8
	c-0.7,0.5-1.5,1-2.2,1.5c-0.9-0.2-2.8-0.7-3.7-0.9c-3.9,5.3-9.4,9.7-16.2,10.1c4.9-2.8,10-5.6,13.2-10.4l-1.9-0.3
	C128.8,519.4,129.6,518.8,130.4,518.3z"/>
<path class="st0" d="M680.8,521.4c2.1-7,7.5-12.3,13.2-16.6c-3.9,5.1-8.3,10-11.2,15.8c0.8,0.2,2.3,0.5,3,0.7
	c-0.4,1-1.5,1.4-2.1,2.2c5.1,4,10.6,7.4,15.9,11.2c-7.4-1.7-14.1-5.9-19.1-11.5c-3,0.4-6,0.8-9,1.3c4.9,4.9,10.8,8.6,16.4,12.7
	c-7.4-1.9-14.2-6-19.1-11.8c-2.8,0.5-5.6,0.8-8.3,1.6c4.1,4.9,9.8,7.8,14.9,11.4c-6.4-2-13.3-5.1-16.6-11.3c-6.8,1-13.5,3-20.5,3.3
	c6.1-2.2,12.6-2.7,19-4c2.3-7.4,7.1-14.2,14.2-17.6c-4.3,5-8.8,10.1-10.7,16.6c2.7-0.6,5.5-1.1,8.2-1.7c2-6.7,6.9-12.1,12.2-16.4
	c-3.7,5.2-8,10.2-10.3,16.2C674.3,522.8,677.5,522,680.8,521.4z"/>
<path class="st0" d="M132.7,505.6c5.1,4.3,9.9,9.5,12.2,15.8c1.1,0.2,3.2,0.6,4.3,0.7c-1.9,1.8-5.3-0.1-6.3,2.7
	c-3.7,6.4-11.3,8.7-18.1,10c6.2-3.3,12.9-6.6,17.2-12.6c-1.1-0.1-3.2-0.2-4.3-0.3c1.5-0.9,3.3-1.4,5-1.8
	C140.2,514.8,136,510.5,132.7,505.6z"/>
<path d="M286.8,506.4c84.1,0,168.1,0,252.2,0c0,6.9,0,13.8,0,20.8c-84.1,0-168.2,0-252.4,0C286.7,520.2,286.5,513.3,286.8,506.4z"/>
<path class="st0" d="M144.2,506.7c5,5,9.8,10.3,12.6,16.9c0.8,0.2,2.5,0.5,3.4,0.6c-1.2,0.6-2.5,1.2-3.9,1.3
	c-3.8,6.8-11.1,10.9-18.7,11.5c5.8-3.2,12.2-6.3,15.8-12.1c-1.7-0.9-3.6-1.2-5.6-0.9c1.8-1.4,3.9-1.4,6.1-0.8
	C153.1,516.5,147.6,512.1,144.2,506.7z"/>
<path class="st0" d="M154.5,508.6c5.9,4.7,11.3,10.6,13.9,17.8c6,1.1,12,2,17.9,3.4c-6.6,0.1-12.9-1.8-19.4-2.5
	c-3.1,7.1-10.5,10.8-17.9,11.7c6-3.2,12-6.7,15.9-12.4c-2-0.2-4.1-0.4-6.1-0.6c1.8-1.5,4-1.5,6.2-0.7
	C161.6,519.5,157.9,514.2,154.5,508.6z"/>
<path d="M706,518.8c1.3-0.5,1.9,0,1.6,1.4C706.3,520.7,705.7,520.2,706,518.8z"/>
<path class="st0" d="M590,528.7c4.1,3.3,8.1,7,11.9,10.7c0.2-2,0.3-3.9,0.6-5.8c0.3,2,0.3,4.1,0.5,6.1c6.1-1.6,9.5-7.2,14.1-11
	c-4,5.1-8.2,10.3-14,13.4c-0.2,3.6-0.2,7.2-0.5,10.8c-0.4-3.6-0.3-7.3-0.4-10.9C596.6,539.1,592.9,534,590,528.7z"/>
<path d="M286.6,535.4c84.1,0,168.2,0,252.4,0c0,14.3,0,28.6,0,42.9c-21,0.6-42,1.1-63,0.3c-32.7,0.1-65.4-1.9-98.2-1.5
	c-3.7,1.6-7.8,1.8-11.8,1.9c-10.4,0.3-20.7,0.2-31.1-0.4c-16.1-0.5-32.2-0.6-48.4-0.2C286.6,564.1,286.7,549.7,286.6,535.4z"/>
<path d="M264.5,600.1c1.2-7.3,6.6-14.8,14.5-15.5c82,0,164,0,246,0c8.3,0.1,16.6-0.3,24.8,1c5.2,0.6,8,5.9,9.4,10.4
	c2.8,9.8,2.8,20,2.7,30.1c-99.4,0.1-198.8,0-298.1,0C263.7,617.5,263.1,608.7,264.5,600.1z"/>
<path d="M580.1,602.9c6.3,0.7,12.7,0.4,18.9,2c13.9,2.8,26.7,10.5,35.7,21.3c6.7,8.2,11.9,17.6,15.3,27.6
	c-7.8-1.4-14.2-6.5-21.5-9.4c2.7-1.6,5.8-2.1,8.8-3.1c-5.9,0.2-12.8,2.9-17.9-1.5c3.3-2.4,7.4-3.1,11.1-4.6
	c-4.8-0.2-9.4,1.6-13.8,3.4c-2.2-1.5-4.7-2.6-7.2-3.5c4.6-4,10.6-5.2,16.3-6.7c-6.8-1.2-13.2,1.4-19.1,4.4c-2.9-0.2-5.5-2.5-8.3-3.4
	c5.5-5.1,13.2-5.5,20.1-7c-7.7-1.1-16.6-0.8-22.5,5c-2.9-1.4-6-2.7-9-4c5.7-4.8,13.1-6,20.2-7.2c-8-1-17-0.2-23,5.8
	c-1.8-1.1-4.1-2-4.7-4.3c3-5.1,9.8-4.8,14.8-6.5c-4.8,0.5-9.6,0.9-14.4,1.7C580,609.7,580,606.3,580.1,602.9z"/>
<path d="M204.4,614.3c11.9-8,26.5-11.4,40.8-10.9c0,3.2,0,6.5,0,9.7c-5-1.4-10.2-2.3-15.4-1.9c5.2,1.3,10.4,2.7,15.4,4.6
	c0,1.8,0,3.7,0,5.5c-9.5-0.2-17.7-6.9-27.3-5.5c7,2.2,14.3,3.6,20.8,7.1c-2.6,1.8-5.3,3.5-8.3,4.7c-6.9-4.5-15.4-5.8-23.5-5.2
	c7.1,2,14.1,4.2,20.8,7.3c-3,1.3-6,2.7-8.9,4.3c-4.9-4.5-11.8-5.9-18.2-5.5c5.3,2,10.7,3.7,15.7,6.4c-2.9,1.4-5.6,4.2-9,3.5
	c-1.2-0.2-1.8,1.3-2.6,1.9l2.3-3.3c-2,1.7-4.5,2-7,2.3c-4.4,0.5-8.8,1.5-13.1,2.4c3.3,1.2,6.8,2.1,10.2,2.9
	c-6.9,3.8-13.8,7.3-21.1,10.2C181.3,638.9,190.3,623.7,204.4,614.3z"/>
<path d="M241.9,624.9c-0.3-2.5,2.4-2.9,4.2-3.4c0.2,7-0.2,14.1-2.7,20.8c2.2-1.9,3.2-4.5,4.1-7.2c1.4,1.7,2.8,3.4,4.1,5.2
	c-9.2,11.3-23.5,17-37.6,19.5c-12.3,2.2-25.1,1.3-37-2.5c6.2-4.8,13.9-6.8,20.3-11.2c-0.1,3.4-1.8,6.3-3,9.3
	c4.9-4,5.1-13.1,12.7-13.5c-1,4.2-2.5,8.2-3.6,12.4c4.4-3.5,6.1-9.1,5.7-14.6c2.4-1.1,4.8-2.2,7.2-3.3c0.2,6.1-2.3,11.8-4,17.5
	c4.4-5.1,7.9-11.6,6.6-18.5c2.8-2.4,6.3-3.8,9.8-4.8c-0.9,6.4-2.8,12.6-5.4,18.5c4.2-6,7.3-12.8,7.6-20.2c3-1.4,5.8-3.1,8.8-4.5
	c-0.4,7.2-3.6,13.8-5.5,20.7C238.4,639.3,242.2,632.5,241.9,624.9z"/>
<path d="M579.9,621.5c1.1,0.3,2.2,0.7,3.3,1.1c0.8,8.3,3.9,16.5,8.7,23.4c-2.4-7.1-6.3-13.9-6-21.6c3.1,1.3,6,3.1,9.2,4.6
	c0,7.8,3.5,15.3,8.4,21.2c-3.3-6.1-5.2-12.9-6.4-19.7c3.4,1.1,6.5,2.9,9.7,4.6c0,6.6,2.9,12.7,6,18.3c-1.6-5.6-4.3-11-4-16.9
	c2.6,1.1,5.2,2.1,7.8,3.2c1.4,5.3,3.4,10.4,5.4,15.5c-0.3-4.5-2.4-8.6-3.4-12.9c2,0.2,4.6,0.2,5.8,2.2c2.5,3.8,4.1,8.1,7.2,11.5
	c-1-3.3-2.2-6.6-3.2-9.9c6.7,3.7,13.5,7.1,20.4,10.4c-17.9,7.1-38.4,5.1-55.8-2.4c-7.2-3.2-14.1-7.6-18.9-14
	c1.2-1.6,2.5-3.1,3.8-4.7c1.2,1.8,2.4,3.5,3.6,5.3C579.5,634.6,579.3,628,579.9,621.5z"/>
<path class="st0" d="M195.6,635.3c3.5-0.1,6.8,0.9,10.1,1.8c-0.6,0.4-1.3,0.8-1.9,1.1C201.1,637.2,198.2,636.4,195.6,635.3z"/>
<path d="M262.8,656.7c4.5-4.6,9.6-8.8,15.4-11.8c13-0.3,26-0.1,39-0.1c-2.1,1.6-4.2,3.2-6.3,4.7c-7.1-3.3-15.2-2.1-22.7-2.1
	c6.9,1.9,14.1,2.7,21.2,3.8c-2.3,1.9-4.6,3.9-7.3,5.1c-7.4-2.9-15.5-2.3-23.3-2c6.9,1.7,13.9,2.7,21,3.8c-2.5,2.5-5.3,4.7-8.6,6.1
	c-7.1-3.1-15.3-2.1-22.7-1c7.1,0.9,14.5-0.2,21.5,2c-2.2,2.7-5,4.8-7.9,6.7c-5.5-2.2-11.6-2.3-17.4-1.7c5,1,10,1.7,14.9,2.9
	c-1.4,2-3,4.2-5.6,4.6c-5.6,1-11.5-0.4-17.1,0.8c4.6,0.4,9.3,0.3,13.8,1.5c-1.4,1.9-3,3.8-5.5,4.3c-3.9,0.6-8-0.2-11.8,1
	c3,0.5,6,0.7,9,1.2c-5.4,5.6-11.7,10.2-18.3,14.1C245.9,684.7,251.4,668.6,262.8,656.7z"/>
<path d="M311.5,650.3c5.2-4,11.7-6.3,18.4-5.8c-5.2,11.2-11,22.2-18.1,32.3c-6.9,10.2-17.1,18-28.7,22.2c-12.2,4.4-25.4,5-38.2,3.9
	c6-4.8,12-9.7,18.3-14.1c0.1,3.4-0.8,6.7-1.5,10c3.6-5.5,2.9-13.5,9.1-17.2c1.5,4.7,0.5,9.6-0.3,14.3c3.9-6.7,1.2-17.3,9.4-21
	c1.2,6,0.5,12.1-0.7,18.1c4-5.7,5.2-13,3.4-19.7c2.8-1.9,5.3-4.2,8.3-5.8c0.4,7.4-1.2,14.6-2.9,21.8c3.8-7.1,6.5-15.3,4.7-23.3
	c2.3-2.5,4.9-4.6,8.1-6c1.1,7.1-1.2,14-1.8,21.1c3.8-7,5.8-15.2,3.5-23c2.1-2.3,4.7-4.2,7.7-5.1c0.6,7.2-0.8,14.2-2.2,21.2
	C311.8,666.9,314.2,658.4,311.5,650.3z"/>
<path d="M370,645.5c20.6-1.1,41.3-0.5,62-0.7c7.9,0.1,15.8-0.1,23.8,0.1c-2.9,2.2-6.7,2.4-10.1,3.6c10.9,3,22.1,4.3,33.2,5.9
	c1.6,2.9,3.2,6.1,3.2,9.5c0,5.6-2.9,10.6-6.1,15c-20.8-6.2-41.5-12.8-62.2-19.5c-17.8,6.1-35.7,11.5-53.7,16.9
	c-2.8,0.8-5.8,2.1-8.7,1.2c0,0.4-0.1,1.1-0.1,1.5c-6.1-4.1-7.4-12.2-6.6-19c0.5-2.3,1.1-6.2,4.3-5.9c10.8-0.9,21.3-4,32.1-5
	C377.5,647.7,373.7,646.6,370,645.5z"/>
<path d="M495.8,645.3c6.6-1.8,13,1.4,18.3,5c-1.9,7.8,0.9,15.7,2.8,23.2c0.2-6.8-2.6-13.3-1.8-20.1c2.8,1.4,5.4,3.2,8.1,4.8
	c-1.5,7.8,0.6,15.8,3.3,23.1c-0.4-7.1-3.2-14-1.6-21.2c2.6,1.7,5.1,3.5,7.8,5.2c-0.5,8.2,2,16.2,4.8,23.8
	c-1.3-7.1-3.7-14.2-2.6-21.5c2.9,1.7,5.3,4,8.1,5.9c-1.6,6.7,0.7,13.5,2.8,19.8c0.2-6.1-1.3-12-0.9-18.1c2.4,1.5,4.8,3.1,7.1,4.7
	c0.2,5.5,1.2,10.9,2.9,16.1c-0.3-3.5-1.1-7-1.1-10.6c1.7,1.9,4.2,1.5,6.6,1.5c-1,4.2,1,7.9,3.2,11.3c-0.5-3.1-1.1-6.1-1.4-9.2
	c6.5,4,12.2,9.3,18.4,13.7c-12.9,2.3-26.5,1.8-38.8-3.2c-9-3.6-17.1-9.4-23.8-16.4C508.2,672,503.8,657.5,495.8,645.3z"/>
<path d="M508.7,645.5c13-1.1,26.1-0.6,39.1-0.5c11.5,6,20.7,16.1,26.4,27.8c4.2,8.6,6.7,17.9,8.1,27.3c-6.8-3.6-12.8-8.6-18.7-13.5
	c2.2-0.5,4.5-0.8,6.8-1.1c-5.2-1-11.6,0.2-15.2-4.5c4.1-2.1,8.7-2,13.1-2.4c-4.7-0.9-9.5-1.2-14.2-0.6c-3.3,0.3-6.3-1.7-7.7-4.6
	c5.1-1.4,10.3-2.3,15.5-3c-5.7-1.7-12.3-1.9-17.4,1.6c-2.8-2-5.8-3.8-8.7-5.8c7-2.7,14.5-2.3,21.9-2.7c-7.1-3.2-16.2-4.5-22.8,0.6
	c-2.9-2-6-3.8-8.9-5.7c6.6-3,14-2.8,21.1-3.1c-7.6-2.1-16.4-3.4-23.3,1.4c-2.5-1.7-4.8-3.6-7.2-5.4c6.7-3.2,14.2-2.7,21.4-3
	c-7.4-2.3-16.6-4.1-23.1,1.4C513,648.3,510.9,646.8,508.7,645.5z"/>
</svg>
