<?xml version="1.0" encoding="utf-8"?>
<!-- Generator: Adobe Illustrator 21.1.0, SVG Export Plug-In . SVG Version: 6.00 Build 0)  -->
<svg version="1.1" id="Layer_1" xmlns="http://www.w3.org/2000/svg" xmlns:xlink="http://www.w3.org/1999/xlink" x="0px" y="0px"
	 viewBox="0 0 825 825" style="enable-background:new 0 0 825 825;" xml:space="preserve">
<path d="M241.8,125c0.6-11.5,5.1-23.7,15.2-30.2c6,2.3,8.9,8.7,9.7,14.7c1.4,9.9,0.9,20.1-2,29.6c2.8-1.7,6-2.9,9.4-3.2
	c10.7-1.2,20.9,3.8,31.6,3.6c3.9-10,2.3-21.5,7.8-31c2.5-4.2,7.4-7.8,12.3-7.5c6.6,6,9,15.6,7.3,24.2c-1.7,8-4,15.8-5.9,23.7
	c-1.2,6.6-2.8,14.5,1.5,20.3c5.8,6.8,15.5,7.4,23.7,8.3c2,11.8,12.2,19.8,22.4,24.9c11.5,5.3,24.7,7.9,37.2,5.2
	c8.4-1.9,16.6-7,20.4-15c2.2-4.1,2.6-8.8,3.2-13.3c2.2,7.8,4.4,16.4,1,24.2c-3.9,9.3-13.8,14-23,16.4c-18.8,4.7-39.4,4.9-57.6-2.7
	c-4.7-1.8-9-4.6-13.4-7.2c1.2,4.4,4.8,7.4,8.5,9.8c6.4,3.8,13.5,6.3,20.7,8.2c12,3,26,3.6,36.5-4.1c-0.2,2.7-0.3,5.6-2.1,7.7
	c-3.4,4.3-9.3,5.3-14.4,5.7c-18,0.9-35.5-4.7-53.4-5.2c11.4,4.1,20.1,13.7,32.1,16.2c3.7,0.9,7.6,0.6,11.3-0.1
	c-4,5-10.9,6.7-16.9,4.5c-9-3.3-18.1-7.5-27.9-7.1c-3.1-0.2-4.2,3.1-5.3,5.3c-3.6,8.7-2.9,18.4-0.9,27.4c1.2,5.1,3.1,10.3,6.8,14.1
	c30.4-1.8,60.7-8.3,91.2-5c13.7,1.4,27.2,6,38.1,14.6c6.8-1.1,13.4-4,18.5-8.6c4.7-4.5,7.2-11.1,7.1-17.5c0.7-13-1.6-26.4,3.2-38.9
	c5.3-13.7,17.6-23.2,30.6-29.3c13.2-6.2,28.6-8.1,42.7-4c9,8.7,19.2,16.1,28.9,24c15,11.4,29.1,24.2,45.5,33.6
	c20.5,12,43.6,19.6,67.3,22.5c13.7,1.5,28.5,0.9,40.5-6.5c9.3-5.6,15.2-15.3,18.5-25.4c1.5,8.1,0.8,16.9-4.2,23.7
	c-7.3,9.9-19.2,15.1-30.6,18.6c-18.3,5.4-37.8,6.1-56.7,3.6c-16.1-3.6-30.9-11.2-45.6-18.6c-11.9-5.9-22.9-13.6-35.7-17.4
	c-13.6-4.5-28.8-3.9-41.8,2c11.4-0.4,23,0.3,34,3.7c9.2,2.6,18,6.4,26.4,10.9c10.4,5.4,19.8,12.7,30.6,17.4
	c16.6,7.7,35.7,10.8,53.5,6.2c-10.3,6.9-22.7,11.2-35.2,9.7c-17.7-1.9-33.1-11.7-48.8-19.4c-8.8-4.2-17.7-8.4-27.2-10.5
	c-12.9-2.4-26.7-0.4-38,6.4c10.2,1.3,20.6,4.9,27.9,12.5c5,5.1,8.6,11.6,10.3,18.6c3.8,13.1,6.6,26.6,12,39.1
	c3.1,7.3,7.4,14.3,13.7,19.2c11,9,25.8,11.6,39.7,11.3c9.5,0.1,19.5-2,27-8.3c7.6-6.2,10.5-17.5,6.8-26.5c-1.8-4.5-5.7-8-10.1-9.9
	c-6.4-2.8-13.7-3.9-20.6-2.9c-7.9,1.3-15.2,7-17.8,14.7c1.3,5.3,6.7,7.1,9.8,11c-1.2,0.7-2.3,1.9-3.8,1.9
	c-5.4-1.8-10.9-5.5-12.3-11.4c-1.1-5.5,1-11,3.6-15.7c3.5-6.3,9.7-11.1,16.8-12.5c10.9-2.2,22.9,0.1,31.6,7.3
	c14.4,11.3,18.6,33.7,9,49.3c-6.3,10.5-18,16.6-29.8,18.6c-25.4,3.7-53.5-2.3-72.2-20.6c-12.5-12.8-21.7-28.4-32-43
	c-7.7-10.5-16.5-21.1-29-25.9c-13.4-5.2-28.3-2.7-41.7,1.3c11.7,12.1,18,28.4,20.7,44.8c3.8,22.6,2.2,45.8-1.1,68.4
	c-3.1,19.1-8.1,38.3-18.6,54.7c-3.3,4.9-6.7,9.9-11.5,13.4c-16.4,12.9-32.7,25.9-49,39c-10.7,8.2-21.1,17-29.6,27.4
	c-9.5,11.5-16.8,25-20.3,39.6c-0.4,2-1.4,4.3-0.1,6.2c2.6,4.7,3.9,10.1,6.8,14.7c-4.5,9.1-13.7,14.3-19.7,22.2
	c-6.8-1.5-14-4-18.3-9.7c-3.4-4.3-3.7-10.1-2.9-15.2c2.2-12.5,4.2-25.1,6.5-37.6c6.9-5.7,15.5-9.6,24.5-10
	c6.3-5.3,9.4-13.3,11.3-21.1c2.4-9.5,5-19.1,8.8-28.2c3.4-8.1,10.9-13.2,16.5-19.6c4.6-5.2,9.9-11,9.9-18.4
	c-0.5-8.2-6.4-14.7-12.4-19.7c-17.8,3.8-36,8.8-51.2,19.3c-10,6.9-18.3,17.3-20.2,29.6c-1.7,15,3,29.7,3.5,44.5
	c0.1,12-6.5,22.6-12.7,32.4c-6.3,9.6-12.9,19.2-16.7,30.1c-1.9,11.8-1.1,23.8-2.2,35.6c-0.7,9.5-4.1,18.9-10.5,26.1
	c-11.4-0.9-22.9-2-34.4-2.1c5-18.7,14.9-35.5,23.8-52.5c6.9-13.9,13-28.8,13.5-44.5c1.8-19,3-38,4.6-57c-1,0.5-1.7,1.2-2.3,2.2
	c-15.2,20.3-36,36.3-48.1,58.9c-4.8,8.2-1.7,18.4-6.1,26.8c-8.5,17.1-23.8,29.2-33.6,45.4c-8.9,16.9-17.7,33.9-26.8,50.7
	c-0.7,1.2-0.3,2.8-0.4,4.1c0.1,6.2,0,12.4,0,18.6c-12.3,0.5-24.7,0.9-37-0.1c2.4-7,6.1-13.4,9.5-19.9c13.8-25.2,28.9-49.6,43.8-74.2
	c1.2-3.7,1.2-7.8,2.6-11.4c6-18.3,15.8-35,25.4-51.6c7.6-13.3,17.4-26,20.2-41.4c2.1-9.9-0.5-20.4-6-28.8
	c-3.4-5.4-7.8-9.9-12.2-14.3c-18.9,4.7-37.4,11.3-54.6,20.7c-15.9,8.7-30.4,20.3-41.3,34.9c-4.7,5.6-4.7,13.3-6.9,19.9
	c-1.4,5.1-5,9.2-7.8,13.5c-5.5,8.2-11.4,16-16.7,24.2c-4.7,7.1-8.8,16-6.1,24.6c2.7,8.3,11.2,12.5,18.9,15.2
	c0.8,9.8-1.9,20.8-10.4,26.6c-9.9,6.9-24.1,3.1-31.5-5.7c-6.2-7.4-8.2-17.6-6.8-27c2.4-9.2,11.2-14.8,14.2-23.7
	c5.8-18.5,2-38.2,4-57.2c0.5-2.2,0.1-5,2-6.6c16.1-15,31-31.5,42.5-50.3c10.6-17,20.5-34.9,25.3-54.5c1.6-6.2,1.6-12.6,3-18.8
	c3-13.3,8.5-25.8,14.3-38c7.1-14.6,15-28.9,23.5-42.7c8.2-10.5,16.4-20.9,24.6-31.4c8.9-10.9,16.4-23.5,18.9-37.5
	c2.7-15.3,0.1-30.9-1.6-46.2c-0.9-9.1-2.2-18.1-2.6-27.2c-0.5-6.6-8.6-8.6-10-14.9c7.5-7.1,10.1-17.8,10.7-27.7
	C244.3,151,240.8,138.1,241.8,125z"/>
</svg>
