<?xml version="1.0" encoding="utf-8"?>
<!-- Generator: Adobe Illustrator 21.1.0, SVG Export Plug-In . SVG Version: 6.00 Build 0)  -->
<svg version="1.1" id="Layer_1" xmlns="http://www.w3.org/2000/svg" xmlns:xlink="http://www.w3.org/1999/xlink" x="0px" y="0px"
	 viewBox="0 0 825 825" style="enable-background:new 0 0 825 825;" xml:space="preserve">
<path d="M375.9,87.9c4.3-4.1,9.5-7,15.1-9.1c2.6,9.2,8,17.1,13.2,25c4.1,5.7,7.7,12,9.2,18.9c1.4,5.4,1.1,11,0.6,16.5
	c20.4-4,41.3-6.1,62-4.2c7.1,0.8,14.2,2.2,21,4.3c15.9-16.5,30-34.5,45-51.7c7.9,5.3,15.5,12.7,17.1,22.4c1.5,9-2,17.9-6.8,25.4
	c-8.4,14.6-17.3,29-25.3,43.8c-1.5,8.3,2.1,17,7.2,23.5c7.3,9,15.3,17.8,19.5,28.8c-17-10.4-28.4-27.1-42.9-40.3
	c-10.8-10.7-24-19.7-39.2-22.6c-17.1-3.6-34.8,0.8-50.4,7.9c-2.2,14.3,7.8,26.5,8.1,40.5c0.1,2-0.1,3.9-0.2,5.9
	c-5.5,2.4-11.3,3.9-17.1,5.4c-13.2,3.3-26.5,6-39.8,8.9c6.2,10.1,15.8,17.4,23,26.6c3.8,4.8,5.9,10.7,7.4,16.6
	c5.3-5.9,8-13.4,11.2-20.6c15.5,7.2,27.2,21,33.9,36.6c10.1,23,12.5,48.6,12.7,73.5c1.5,32.5-0.2,65.4,6.4,97.5
	c-7.1-6.8-9-17-11.6-26.1c-5.3,0.2-10.9,2.9-12.8,8.1c-3.1,8.6-0.6,17.9,1.2,26.5c-4-1.4-6.8-4.9-10.8-6.1
	c3.9,11.7,14.6,19.6,25.1,25.2c2.7,1.9,5.5-1.3,5.4-4c-0.2-4.1-0.6-8.3-0.7-12.5c10.4-1,20.7-5.3,27.6-13.4
	c5.1-5.4,7.5-12.6,10.8-19.2c3.6-7.4,6.2-15.3,11.2-21.9c6.5,19.6,10.9,40.4,9.2,61.1c-1.3,15.8-8,31.6-20.3,41.8
	c-2.7,1.5-6,1.5-8.9,2c-13.3,1-26.7,1.5-40,1.1c-13.6-4.7-24.1-17.1-26.5-31.3c-2.6-16.6-0.1-33.5-3.4-50c-1.6-11-8-20.5-14.7-29.2
	c-8.7-11.5-19.6-21.1-28.4-32.6c-6.5-8.4-12.6-17.6-14.4-28.3C341.1,417.4,331.7,481,332,544c-0.3,39.1,3,78.4,11.5,116.6
	c6.7,29.8,17.2,58.9,32.4,85.5c-32.1-21.6-56.7-53-73.3-87.8c-23.1-48.8-32.6-102.9-36.1-156.4c-23.8,32.3-39.8,70.4-45.5,110.1
	c-4.3,28.2-3.6,57,0.3,85.3c-16.9-31.9-26.5-67.8-26.8-103.9c-0.7-31.7,5.4-63.2,15.6-93.1c12.7-33.5,40.2-58.5,55.2-90.8
	c10.4-25.5,13.9-53.1,18.6-80.1c3.2-17.2,6-34.6,12.3-51c12-33.1,28-65.8,52.7-91.3c7-7.1,14.7-13.4,23.1-18.8
	c-8-16.5-11.6-35.3-8.8-53.5C364.7,104.8,368.6,94.9,375.9,87.9z"/>
<path d="M474.1,191c12.5,12.8,24.7,25.9,37.7,38.2c8.4,8.1,17,16,26.7,22.6c-2.8,9.7-11.7,15.8-15.5,25
	c-7.3-17.2-18.9-32.1-29.8-47.1C485,217.9,477.6,205.1,474.1,191z"/>
<path d="M534.5,286.1c-0.1-10.1,8-17.6,15.5-23.2c6,2.9,11.5,7,18,8.5c-9.3,1.6-15.6,9.4-24.2,12.4
	C540.9,285.1,537.7,285.6,534.5,286.1z"/>
<path d="M495.1,288.2c0.7-3,0.4-7.3,3.8-8.7c2.3,0.2,1.8,2.8,2.1,4.5c0.6,12.3-0.8,24.6-2,36.9c-0.6,6.4-1.9,12.7-1.8,19.2
	c0.8,10.8,2.4,21.5,3.3,32.3c-4-10.6-4.1-22.1-3.6-33.3C495.9,322.1,493.8,305.1,495.1,288.2z"/>
</svg>
