<?xml version="1.0" encoding="utf-8"?>
<!-- Generator: Adobe Illustrator 21.1.0, SVG Export Plug-In . SVG Version: 6.00 Build 0)  -->
<svg version="1.1" id="Layer_1" xmlns="http://www.w3.org/2000/svg" xmlns:xlink="http://www.w3.org/1999/xlink" x="0px" y="0px"
	 viewBox="0 0 825 825" style="enable-background:new 0 0 825 825;" xml:space="preserve">
<path d="M619.9,134.8c3.9-0.8,8,0.8,10.3,4c6.3,8,8.4,18.5,8.4,28.5c5.3-1.4,9.6-5.4,12.6-9.8c4.5-6.7,6.7-14.6,8.1-22.5
	c6.3,3.6,8.2,11.4,9.1,18.1c1.5,9.6-0.6,19.4-1.8,28.9c6.3,11.7,18.2,20.3,20.6,34c-1.4,2.2-2.9,4.6-3.1,7.3
	c-0.7,7.2,0.3,14.4,2.7,21.2c3.2,8.5,6.2,17.1,9.2,25.6c4.4,12.4,9.2,24.9,10.9,38.1c0.3,4.7,0.5,9.8-1.9,14
	c-2.3,4.4-7.1,6.8-11.8,7.5c-6.7,1.2-14.5,0.7-19.4-4.4c-6.1-5.6-7.4-14.2-10.6-21.4c-2.7-6-5.2-12.3-9.9-17.1
	c-6.8-5.5-15.8-6.9-24.3-7.1c-6.8-0.2-13.2-3.1-18.4-7.4c-9,16.5-20.3,32.4-22.9,51.5c-1,8.9-1.7,18.6,2.8,26.8
	c4.1,7.5,10.3,13.7,13.4,21.7c3.8,12.9,3.4,26.6,3.2,39.9c0.2,12.2-1.1,24.9,3.5,36.5c5,12.3,14.1,22.2,23.3,31.5
	c6.4,6.6,12.7,13.3,18.8,20.2c7,7.7,10.6,17.6,15.4,26.7c23.5,49,45.7,98.6,67.8,148.3c-13.2-1.2-26.4-2.8-39.7-2.8
	c0-4.8,0.7-9.7,2.9-14.1c2.6-5.4,5.7-10.7,6.5-16.8c0.6-2.6-2.3-4-4.3-4.6c-4.6-1.1-9.5-1-13.9-2.9c0.3-6.8,0.9-13.6-0.2-20.3
	c-1.4-11.8-6.1-23.1-13.1-32.8c-5.7-7.9-13-14.3-19.2-21.8c-9.3-11.1-19-22.5-23.4-36.6c-0.8-1.5-2.3-2.4-3.5-3.5
	c-15-11.7-33.5-17.4-49.4-27.5c-1.2-0.6-2.2-1.6-3.6-1.8c-19.1,1.5-38,5.6-57.2,4.7c6.7,12.1,19.5,18.6,30.2,26.6
	c8.3,6.3,16,15.2,17,26c1,17.6-2.9,34.9-4.4,52.4c-0.8,11.2-2.2,22.5-0.4,33.7c1.6,10.5,4.2,20.7,6.4,31.1c1.7,8.2,1.2,17-2,24.8
	c-10.3-1.5-20.4-4-30.8-4.7c0.4-5.5,2.5-10.5,4.8-15.4c1.2-3.3,3-6.9,2-10.5c-1.5-3.6-5.5-4.5-8.3-6.7c-2.5-1.7-4.1-5.6-2-8.2
	c9.7-15.6,12.6-34.5,12.3-52.6c-0.6-15-3.4-30.7-12.7-42.9c-2.5-2.6-6.1-4-9.2-5.8c-14.2-7.6-28.8-14.5-43.1-21.9
	c-12-6.7-22.4-15.8-34.2-22.8c-19.6-11.6-43.7-6.4-64.3-14.5l-0.6,0.3c-9.7,18.3-18.9,37-29.6,54.8c7.8,7.2,15.3,14.7,22.9,22.1
	c8.4,7.5,14.7,17.8,16,29.1c1,4.1-0.6,8.6,1.7,12.3c2.6,5.2,7.2,9.3,9.2,14.9c0.9,2.3,0.9,4.9,1.2,7.3c-11,0.5-21.9,1.8-32.9,2.5
	c0.7-6.5,2-12.9,3.4-19.4c0.5-2,0.2-4.4-1.5-5.8c-2.3-2.2-5.8-2.3-8.7-2.7c0.6-6.1,5.6-10.6,6.9-16.4c-4.2-11.2-13.5-19.5-23.5-25.6
	c-6-3.8-12.3-7.2-18.1-11.3c3.1-13.8,3.9-28.5,0.6-42.4c-1.9-7.6-5.3-15.5-12-20c-1,10.6,0.3,21.3,1.7,31.8
	c3.4,22.8,10.8,44.9,19.6,66.2c7.9,19.8,15.6,39.8,22.1,60.1c2,6.7,4.1,13.4,5.2,20.3c-5.8-0.2-11.6-0.3-17.4,0.4
	c-5.8,0.8-11.5,1.8-17.3,2c-4.6-10.5,0.5-22.1,7-30.6c-4.4-3-10.1-1.4-14.6-4c-2.7-1.7-1.5-5.2-1.1-7.8c1.4-4.7,4.4-8.7,6.3-13.1
	c-6.6-19.8-17.9-37.6-29.8-54.6c-15.5-21.4-31.4-42.7-46.9-64.1c-13.7-21-24.7-44.6-27.5-69.8c-3-26.2,4.1-52.6,16.3-75.7
	c-8.5-6.4-18.7-11.6-29.6-11.2c-12.5,0.8-23.3,9.4-29.3,20c-7.1,12.5-10.7,27-11.1,41.3c0.4,13.4,3.4,27.2,11,38.4
	c4.7,7,11.8,12.2,19.5,15.4c-15.4-0.4-31.1-4.9-43.1-14.8c-5.8-4.7-9.8-11.2-12-18.3c1.4,22.5,3.4,44.9,5.2,67.3
	c0.6,23.2-2.5,46.9-12.7,68c-11.9-10.1-16.8-25.9-19.1-40.8c-3.3-21-2.4-42.6,2.5-63.2c-8,7.7-10.7,19.3-11,30.1
	c-0.2,15.1,1.7,30.1,2.4,45.1c0.9,10.8,1.2,21.8-1.1,32.5c-1.4,6.9-5.6,13.4-11.7,17.1c-6,3.6-13.1,4.7-20,4.7
	c8.4-12.1,12.6-27.2,10-41.9c-3.2-17.1-10.4-33-17.3-48.9c-6.4-15.2-12.3-30.8-16.4-46.8c-2.9-11.7-5.1-23.7-4.4-35.8
	c1.3-21,9.2-41.6,22.5-58c17.6-22,43.3-37,70.8-42.5c22.9-4.8,47.2-3.1,69.1,5.3c13.7,5.2,26.4,13.1,37.3,22.9
	c16.5-8.2,30.5-22,49.1-25.6c16-3,32.4-1.2,48.2,2.1c14.3,3.6,28.5,7.5,42.8,11.2c17.7,4.5,36.1,8.8,54.4,6
	c14.3-2.2,26.9-11.3,34.4-23.5c-21.5,2.2-42.8,6-64.3,8c-7.8,0.2-15.8-0.6-23.1-3.7c-6.2-2.7-11.3-7.7-14.4-13.7
	c13.5,2.9,27.4,0,40.4-3.8c8.8-2.6,17.2-6.3,25.9-9.1c15.9-5.1,33-7.5,49.5-3.7c-3.6-7.6-11-13.3-19.5-14.3
	c-15.1-1.5-29.9,2.8-44.8,3.8c-12.5,1.1-25.7,1.7-37.6-3.1c37.2-19.5,78.3-33.6,120.7-34.4c7-0.3,14,0.6,21.1,0.8
	c-22-4.3-44.1-7.9-65.9-12.8c-2.2-0.5-4.5-1.2-6.6-1.9c3.3-6.5,9.5-11.1,16.4-13.1c11.4-3.4,23.4-1.9,35-1.2
	c11.2,0.1,23,1.5,33.5-3.2c17.2-7.2,31.4-20.7,49.7-25.3c8.5-2.6,18.3-4.3,24.4-11.5C623.8,151.1,622.3,142.1,619.9,134.8z"/>
</svg>
