<?xml version="1.0" encoding="utf-8"?>
<!-- Generator: Adobe Illustrator 21.1.0, SVG Export Plug-In . SVG Version: 6.00 Build 0)  -->
<svg version="1.1" id="Layer_1" xmlns="http://www.w3.org/2000/svg" xmlns:xlink="http://www.w3.org/1999/xlink" x="0px" y="0px"
	 viewBox="0 0 825 825" style="enable-background:new 0 0 825 825;" xml:space="preserve">
<style type="text/css">
	.st0{fill:#FFFFFF;}
</style>
<path d="M603.2,120.3c19.5-10.3,41.7-15.2,63.8-14.9c10.8-0.1,21.7,0.3,32.1,3.2c8.2,2.1,16,5.4,23.6,9
	c-6.1,4.4-10.2,11.1-11.4,18.5c-21.6-4.6-44.3-5.8-65.9-0.4c-15.6,3.8-30.2,11.2-42.8,21.1c-15.5,12.1-28.7,26.7-40.9,42.1
	c-11.2,14-22.5,27.9-34.1,41.7c-7.2,8.5-14.2,17.2-23.1,24.1c-17.6,14.7-39.4,24.4-62.2,26.7c0-10,0-20.1,0-30.1
	c22.2-6.1,41.7-19.8,57.6-36.2c8.8-10.5,17.5-21.1,26.4-31.6c10.6-12.4,20.8-25.2,31.8-37.2C571.4,142.2,586,129.1,603.2,120.3z"/>
<path d="M708.9,142.7c10.6-8.9,15.8-23.3,28.5-30.1c1,2.5,2.1,5.1,1.5,7.8c-1.3,11.2-7.6,20.9-11.2,31.3
	c7.8,23.1,15.4,46.2,22.4,69.5c6.8,23,13.5,46.1,17.2,69.8c-7.7,0-15.4,0-23.2,0c-0.6-7.7-1.3-15.3-2.3-22.9
	c-11.6-5-23.9-8.4-35.4-13.6c-8.8-3.7-17.4-9.1-22.7-17.3c-4.8-6.9-6.7-15.4-6.8-23.7c-10.6,12.2-12.5,29.1-13,44.6
	c0.5,10.1,0.3,20.3,1.2,30.5c0.5,13.4,0.7,27-1.8,40.3c-5.6,33.2-23.6,63.2-46.5,87.3c31.5,22,65,41,97.2,62
	c1.7,12.8-0.8,26.4-8.3,37.1c-5.1,7.7-12.7,13.3-19.3,19.6c-7.9,7.4-16.2,14.5-23.3,22.7c-22.2-4.9-45.2-4.1-67.4,0
	c0.1-6.4,3.7-11.9,7.3-17c5.2-6.8,10.8-13.6,13.8-21.8c3.7-0.8,7.2,1.2,9.8,3.7c4.9,5,9,11.2,15.5,14.4c9.9-7.5,20.7-13.9,30.1-22
	c7.1-6.2,13-14,16-23c-20.8-7.3-42.6-10.9-64.2-14.5c-15.5-2.6-31-5.2-46.4-8.4c1-0.9,1.1-1.8,0.4-2.9c-2.6-4.2-6.3-7.6-9.9-10.9
	c-15.9,12.5-35.1,20.2-54.9,23.9c-27.7,5.1-56.3,3.2-83.9-1.8c-17.7-3.7-35.1-8.9-52.5-13.8c-26.7-7.7-53.2-15.9-79.8-24
	c-8.8,22.8-20.7,44.8-38,62.2c-1.9,1.9-4.3,3-6.6,4.2c-20.8,11.4-41.6,22.7-62.4,34c-13.2,7.5-21.9,20.6-29,33.7
	c-9.7,18.7-17.4,39-18.2,60.2c-0.1,8.6,0.5,17.6,4,25.6c4.8,11.1,13.5,19.7,21.7,28.3c7.9,8.7,16.3,17.3,21.9,27.8
	c-12.6,4.8-26.2,0.9-39.2,1.8c3.7-10.8,0.8-22.8-5.5-32c-6.1-8.9-12.8-17.6-18.1-27c-3.3-5.7-3.4-12.5-4.1-18.8
	c-1.4-16.9,1.2-33.8,2.4-50.6c0.5-11.7,1.4-23.3,0.3-35c-0.1-2.6-0.5-5.3-0.4-7.9c6.6-7.8,18.5-7.6,25.1-15.3
	c0.4-1.6,0.4-3.1,0.6-4.7c2.1-34.3,0.9-68.7,3-103.1c2-24.2,6.2-49.1,18.5-70.4c12.7-21.8,35.5-35.8,59.2-43
	c36.3-11.3,74.7-8.9,112.1-8.6c18,0.9,36,0.6,54,0.6c17.1-0.7,34.3-0.6,51.1-3.8c18.4-3.6,36.3-10.9,51.2-22.5
	c13.9-10.5,24.4-24.5,34.9-38.3c10.4-14.2,20.4-28.7,32.1-41.8c14.6-16.3,31.4-30.8,50.6-41.3c17.5-9.7,37-16.4,57.1-16.5
	C686.5,137.1,697.9,139.3,708.9,142.7z"/>
<path class="st0" d="M718.3,179.1c2.9,0.2,6.1,0.2,8.4,2.2c2,1.6,2.5,4.3,3.1,6.6c-2.8,2.1-5.3,4.8-8.8,5.8
	C714.4,192.5,714.8,183.2,718.3,179.1z"/>
<path d="M115.3,330.2c22.3-5,45.5-3.9,67.9-0.5c-1.7,4.7-4.1,9.6-8.8,12c-4.8,2.5-10.4,1.4-15.6,1.7c-3.6,0.3-7.1,0.1-10.7,0.1
	c-8.7,2.9-15.9,9.9-19.2,18.5c-3.9,9.8-3.5,20.6-2.4,30.8c3.9,23.5,8.5,46.8,11.6,70.4c0.5,3.9,1.1,7.8,1,11.7
	c-1.1,14-8,27.6-19.2,36.3c-9.4,7.3-21,12.9-33.2,12.2c-11.1-0.5-21.2-6.3-29.2-13.7c9.1-3.2,19.2,3.3,28-1.6
	c5.4-18.7-0.2-38.4-6.8-56c-7.3-17.4-14.4-35.3-16.3-54.2c-1.4-15.5,1.8-32.1,11.7-44.5C84.3,340.7,99.9,333.8,115.3,330.2z"/>
<path d="M298.9,446.2c15,2.9,29.1,9.5,44.4,11.2c-5.5,14.1-17.6,24-30.3,31.5c-12,7.3-25.2,12-37.7,18.2
	c-13.5,6.7-27.3,13.4-38.7,23.4c-12.4,12.2-20.2,28.1-25.3,44.5c-6.6,19.8-9.6,41.7-3.8,62.1c4.1,11.5,12.5,20.7,20.9,29.2
	c8.8,9.8,17.4,20.2,22,32.6c-12.3,0-24.7,0-37,0c3.5-10.3,1-21.7-4.8-30.7c-5.9-8.8-12.3-17.4-17.7-26.5c-4.9-7.3-4.6-16.5-5.1-25
	c-0.8-23.5,5.1-46.9,1.9-70.4c17-4.6,33.6-11.1,48.6-20.4c18.1-11,33.7-26,45.1-43.8C288.8,471.2,294.4,458.9,298.9,446.2z"/>
<path d="M552.9,469.8c3.6-1.8,7.6-3.6,11.7-2.7c4.2,1.3,8.5,5.1,7.6,9.9c-0.4,22.5-5.1,44.7-9.2,66.8c-4.5,21.1-8.4,42.5-8.9,64.2
	c-0.1,9.5,0.3,19.1,2.8,28.3c4.5,13.6,14.6,24.3,24.4,34.4c7.6,8.5,15.5,17.4,18.8,28.5c-13.9,0.7-27.9-0.7-41.8,0
	c2.2-11.8,1.6-24.9-5.1-35.2c-5.8-7.3-11.9-14.3-17.9-21.4c1-16.8,2.3-33.6,3.4-50.4c0.9-16.4,2.9-32.7,2.6-49.2
	c-0.6-21.1-2.7-42.7-10.9-62.4C538.2,477.4,545.6,473.6,552.9,469.8z"/>
</svg>
