<?xml version="1.0" encoding="utf-8"?>
<!-- Generator: Adobe Illustrator 21.1.0, SVG Export Plug-In . SVG Version: 6.00 Build 0)  -->
<svg version="1.1" id="Layer_1" xmlns="http://www.w3.org/2000/svg" xmlns:xlink="http://www.w3.org/1999/xlink" x="0px" y="0px"
	 viewBox="0 0 825 825" style="enable-background:new 0 0 825 825;" xml:space="preserve">
<style type="text/css">
	.st0{fill:#FFFFFF;}
</style>
<path d="M454,91.8c11-0.6,21.7,3.5,30.7,9.5c-0.8-3.1-2.8-5.6-5.5-7.2c6.9,0.5,13.7,3.7,17,10c-4.6,0.9-9.2,2.2-13.9,2.9
	c-4.7-3.9-10-7.6-16.1-8.8c-1.7,5.7-0.7,11.7,0.3,17.4c-3.6,3.8-7.8,7.1-10.4,11.7c-4.7,7.9-7.5,16.8-10.2,25.6
	c-5.8,20.6-10.3,41.8-11.3,63.2c-0.6,12.9-1.2,25.8-2.9,38.6c-0.7,4-1.1,8.3-3.9,11.5c-7.7,8.9-16.2,17.1-24.9,25
	c-5.6,4.7-11,10.1-17.9,12.7c10.1-8.8,21.1-18.3,24.6-31.8c-10,3.2-16.5,12-24.8,17.8c6.9-15.1,22.8-24.1,28.6-39.9
	c-4.2,3-7.9,6.5-11.5,10.2c-5.9,6.4-13.6,10.8-20.9,15.4c10.2-10.3,18.3-22.5,25.1-35.3c-8.6,5.9-16.8,12.5-25.5,18.2
	c12.1-10.3,21.8-23.3,28.8-37.6c-7.6,5.9-13,14.5-21.7,19.1c3.2-5.9,7.4-11.3,11.2-16.8c-6.7,3.3-13.3,6.9-20.1,10
	c-4-0.2-8-0.9-12-1.1c14.3-5,27-14.2,37.2-25.4c-6.5,4.5-14,8.1-22.1,8c-5.2,0.3-10.4-0.9-15.4-2.4c17.7-0.8,31.9-13.4,43.2-25.9
	c-7.2,4.4-15.5,7.2-24,7.2c10.2-6.7,18-16.3,26.4-25c-3.5,2.6-6.5,6-10.4,7.9c-2.5,1.3-5.5,1.4-8.2,1.7c-0.1-0.1-0.2-0.4-0.2-0.5
	c3.7-1.8,6.4-5,9.2-7.9c9.1-10.2,16.6-22.2,28.1-30c-7.3,1.6-14.5,3.8-21.7,5.4c10.5-5.6,21.3-10.9,31.9-16.3
	c-15.5-0.9-30.9,7.2-46.2,2.1c15.1-1.6,29.7-6,43.3-12.7c-9.5-2.7-19.8-4.7-27.4-11.3c6,1.7,12.1,2.9,18.3,3.1
	c10.8,0.6,21.6-0.8,32.3,0.8c-3.7-5-10.4-7.9-16.5-6.1c5.1-4,11.9-4.7,18.1-3C461.8,96.9,458.1,93.7,454,91.8z"/>
<path d="M498.7,94c2.8,0.5,5.8,1.2,7.7,3.5c2.6,3.1,4.9,6.5,7.2,9.8c11.5,5.4,21,14.1,32.5,19.5c1.5,6,6,10.6,11,14
	c6.6,4.4,14.5,6.1,22.2,7.2c0.5,9.9,2.2,19.7,2.9,29.7c-6-0.2-9.9,5-12.5,9.7c-4.3-2.4-8.2-5.4-12.8-7c-8.8,1.5-15.9,7.7-24.7,9.1
	c-6.3,1.1-12.6,3.7-19.1,2.5c-7.2-1.7-13.2-6.6-18.1-12c-4.6-5-4.7-12.1-5.8-18.4c-1.9,1.5-3.6,3.8-2.9,6.4
	c3.2,15.2,17.3,26.8,32.7,28.2c0.3,9.7,1.6,19.2,2.4,28.8c1.1,9.7,1.9,19.4,4,29c1.5,6.8,3.2,13.7,7,19.6c6.9,11,15.1,21,22.5,31.7
	c5.4,7.5,10.4,16.1,10.4,25.6c0.3,4.5-0.9,8.8-2.3,13c13.9,5.3,28,10.4,42.4,14.3c6.8,1.8,13.7,2.8,20.5,4.3c4.5,3,8.6,6.5,13,9.6
	c5.4,17.2,10.8,34.4,16.3,51.6c1.6,2.7,4.6,4.3,6.9,6.5c-2.8,7.5-1.8,15.6,0.7,23.1c3.1,8.9,6.6,17.6,8.5,26.8
	c-8.3,0.2-17.1,0.1-24.6-3.9c-6.3-3.3-9.3-11.3-7-18c3.2-2.2,9.4-3.2,8.9-8.1c-2.2-3.6-7.2-3.9-10-6.8c-0.4-3.9,0.9-7.5,2.8-10.8
	c1.9-3.1,0.7-6.7,0-10c-3.2-11.4-7.4-22.4-11.5-33.4c-1.5-5-6.8-7.2-11.4-8.4c-21.4-5.2-43.9,2.1-65.1-4.7c2.5-6,8.9-12.3,5.4-19.2
	c-3.8,4.3-5.2,10.2-8.8,14.7c-6.2-2.9-11.5-7.3-16.7-11.7c-8.5-7.6-16.5-15.6-25-23.1c7.7,12.9,18.5,23.6,29.8,33.4
	c7.4,7,15.3,13.6,24.3,18.5c8.2,4.8,17.5,8.8,23.5,16.5c5.1,6.3,3.8,14.8,5.8,22.2c2.3,7.8,4.8,15.5,8.2,22.9
	c2.5,5.8,7.3,10.1,10.4,15.5c1.6,3.6,1.2,7.6,1.6,11.4c1.7,5.2,4.9,9.7,7.8,14.2c4.6,6.4,7.5,13.9,9.5,21.5
	c-8.9,2.1-18.8,2.5-27.2-1.7c-4.6-1.8-9.2-5.8-8.9-11.2c-0.3-4.3,4.9-5.7,6.6-9c1.4-3.5-0.7-6.9-2.8-9.6c-3.6,0-7.1-0.2-10.6-0.2
	c-2.2-8.5,3-17.3-0.9-25.5c-3.6-8.6-7.6-17-11.8-25.3c-1.9-4-5.4-7.1-9.2-9.4c-7.6-4.7-16-7.8-24.4-10.7
	c-10.8-3.5-21.6-6.8-32.6-9.4c-8-1.8-16.2-3.5-24.4-2.4c-2.6,0.6-4.4-1.7-5.9-3.4c-5.4-7-7.2-16.8-14.7-22.2
	c0.3,6,3.8,11.2,6.7,16.3c3,4.8,5.6,10.2,10.1,13.8c10.9,4.4,24.2-2.2,34.3,5.3c-11.8,17.6-27.6,32.3-45.6,43.5
	c-22.4,13.9-47.4,23.6-73.3,28.4c-1.1,6.4-3.1,12.5-4.4,18.8c-1.3,5.6,0.9,11.1,0.9,16.7c-4.4,6.2-10.6,11.1-14.5,17.8
	c-5.9,10-9.7,21.2-12.1,32.6c-1.3,5.7-2.4,11.5-4.5,16.9c-3.9,7.9-9.3,15.1-12.1,23.6c-3,8.7-6.3,17.8-5,27.1
	c1.2,11.8,1.1,23.9,5.3,35.1c1.2,4.1,5.1,6.3,7.3,9.8c-0.1,2.8-0.6,5.6-1.3,8.4c6.8,8,13.6,16.3,17.2,26.4
	c-8.8,3.6-18.8,3.9-27.9,1.6c-4-1.2-8.7-3.4-9.8-7.8c1.6-5.4,6.4-9.9,5.8-15.8c-1.6-3.9-6.1-6-6.8-10.3c1.2-2.4,2.7-4.6,3.9-7
	c-1.2-8.8-3.6-17.4-5.8-26c-2.9-10.8-6.2-21.6-10.7-31.9c-1.5-3.3-2.6-6.9-4.9-9.7c1.5-6.5,7.4-10.7,9-17.1
	c3.4-12.1,2.4-24.9,1.5-37.4c-0.8-6-1.3-12.1-2.5-18.1c2.7-4.4,6.6-8,9-12.6c5.4-9.8,9.3-20.4,12.1-31.2c6.6,0.1,13.3,0.1,20-0.2
	c4-0.3,8.3-1.7,10.3-5.5c-10.2-0.9-20.4,1.6-30.5,0.2c-6.9,10.5-9.5,23-15.4,34c-10.8,17-18.5,35.6-29.5,52.5
	c-7.1,12-16.3,22.9-20.7,36.4c-1.8,5.8-4.7,11.5-4.2,17.7c0.3,8.1,1.5,16.1,2.3,24.1c1.7,13.5,2.7,27.4,7.7,40.2
	c-1.7,4.5-7.1,7.3-6.4,12.7c1.7,10.5,5.2,20.5,7.1,31c-8.2,1-15.9-2.7-23.3-5.7c-6.1-2.3-10.4-8.9-8.9-15.4
	c4.8-3.3,11.2-6.7,12.4-12.8c1-5-5-5.9-7.3-9.1c1.4-3.8,4.2-6.8,5.9-10.4c0.8-3.9,0.4-7.9,0-11.9c-1.6-12.5-4.7-24.7-7.9-36.8
	c-2.3-8.4-5.6-16.5-7.5-25.1c-0.8-3.8-2.1-7.8-1.3-11.7c2.1-3.8,5.2-7,8-10.2c7.6-8.9,14.4-19.4,15.5-31.3
	c0.7-7.4-2.1-14.5-5.1-21.1c-4.1-8.5-8.8-16.6-12.4-25.3c-6.3-19-5.8-40,0.2-59c7-22.8,22.7-42.3,42-56.1c9.7-6.6,21.2-10,31.4-15.7
	c9.8-5.8,18.4-13.5,26.9-21c14.9-13.7,30.1-27.4,42.5-43.5c6.1-8.4,11.6-17.2,17.7-25.5c6.3-7.5,12.2-15.4,19.1-22.4
	c4.2-16,4-32.8,5.6-49.1c2.1-22.8,5.4-45.7,13.1-67.3c4-11,9.5-21.8,17.6-30.3c-1.1-5.4-1.4-10.9-2.2-16.3c5.7,1.2,11.2,4.1,14.5,9
	c5.7-1.9,11.8-2.3,17.7-3.3C499,101.7,498.8,97.8,498.7,94z"/>
<path class="st0" d="M498.9,136.8c5.3-1.4,10.6-3.9,16.2-3.7c2.9,0.1,4.8,2.5,5.8,4.9c-4.1,1.6-9,1.9-12.5-1.2
	C505.4,138.1,502,138.1,498.9,136.8z"/>
<path class="st0" d="M562.6,148.5c3,1.8,6,3.5,8.8,5.6c-2.6-0.1-5.1-1-7.5-2.1c-1.6,2.2-5.3,3.6-4.9,6.7c1.8,3,5.4,5.2,8.9,5.2
	c2.8,0,3.2-3.4,5.6-4.2c0.2,2.2,0.4,5.1-1.8,6.6c-4.3,0.8-8.9-0.4-12.6-2.6c-3.2-1.7-4.2-6.5-1.8-9.2
	C559.1,152.5,561.1,150.7,562.6,148.5z"/>
<path d="M227.3,430.1c9.7-2.2,19.7-1.3,29.4,0.2c-1.7,4.8-4.2,9.4-6,14.1c0.3,0.5,0.8,1.4,1.1,1.8c-5.5,4.1-11.5,9.3-12,16.6
	c-0.6,6.3-2,12.6-1.8,19c2.6,7.3,3.6,15.6,0.2,22.9c-0.7-1.2-1.4-2.5-1.5-3.9c-0.4-6,0-12,0.7-18c0.3-1.6-0.5-3-1-4.5
	c-2.3-6.1-4.3-12.3-6.1-18.6c-0.4,6.4-2.2,12.6-2,19c-0.2,2-0.4,3.9-0.8,5.9c-0.2-2.8-0.7-5.7,0.6-8.2c-0.9-4.9-1.8-9.9-2.7-14.9
	c-2.1,21.2-0.3,43-5.9,63.8c-5.3,21-15.9,40.2-28.8,57.5c-9.1,12-19.3,23.5-31.8,32.1c-8.9,6.4-19,11.8-30,13
	c10.5-6,21.9-11.7,29-21.9c-9.1,3.4-18.8,4.8-28.5,4.2c14.9-2.9,30-10.6,37.4-24.4c-15.7,8.6-33.5,15.4-51.7,13
	c19.1-2.7,38.5-10.5,50.6-26.2c-13.2,0.9-24.4,8.9-35.1,15.9c0.7-2.1,1.3-4.4,3-6c9.1-8.8,22.2-11.9,30.9-21.1
	c2.6-2.5,4.3-5.7,5.6-9.1c-7.4,4.1-15.5,8.2-24.2,7.1c11.2-1.9,21.4-8.4,28.2-17.4c11.3-14.5,15.5-33.1,16.9-51.1
	c1.9-15.5,4.3-31.6,13.1-44.9C209.3,438,217.8,432.1,227.3,430.1z"/>
</svg>
