<?xml version="1.0" encoding="utf-8"?>
<!-- Generator: Adobe Illustrator 21.1.0, SVG Export Plug-In . SVG Version: 6.00 Build 0)  -->
<svg version="1.1" id="Layer_1" xmlns="http://www.w3.org/2000/svg" xmlns:xlink="http://www.w3.org/1999/xlink" x="0px" y="0px"
	 viewBox="0 0 825 825" style="enable-background:new 0 0 825 825;" xml:space="preserve">
<style type="text/css">
	.st0{fill:#FFFFFF;}
	.st1{fill:#949494;}
</style>
<path d="M480.1,105.1c11.2,4.6,20.6,14.2,23.2,26.2c-5.4-5.7-10.6-11.6-16.1-17.2c0.3,10.8,3.9,21.9,12.1,29.3
	c-1.3,3-2.5,6.2-3.2,9.4c-5-8.2-9.5-16.9-11.5-26.4c-5.3,18.2,0.8,37.2,9.7,53.1c-5.8-4.5-8.2-11.8-10-18.7
	C480,142.6,479.8,123.7,480.1,105.1z"/>
<path d="M646.9,122.4c8.8-1.5,18.8-3.4,26.8,1.8c11,6.9,14.3,20.5,22.3,30.1c-1.3,3.2-2.7,6.4-2.9,9.9c-5.9,2.7-12.2,3.8-18.3,5.7
	c-4,1.3-7.5,4.1-9.5,7.8c3.4,1,7,1.9,10,4c5.6,3.7,9,9.8,11.3,15.9c-3.5,4.2-9.9,0.8-13.7,4.3c-4.2,3.2-8.4,7.2-14,7.5
	c-7.1,0.7-13.9-2.4-19.2-6.9c-6.9,4.9-13.9,9.8-22,12.4c-5.9,8.8-13.1,17.3-23,21.7c-5.3,2.4-11.1,3-16.9,2.7
	c5.2-6.8,10.5-13.4,15.5-20.3c-4.2,2.8-9.5,4.9-11.9,9.6c-4.7,7.5-12.6,13-21.5,13.9c-12.6,1.3-25.1-2.9-35.9-9.1
	c-13.7-7.9-23.7-24.1-20.7-40.2c3.9,13.2,10,26.8,21.2,35.4c7.4,5.7,17.2,6.6,26.1,4.7c-0.3-6.9-0.8-13.7-1-20.6
	c2,6.8,2.1,15.2,8.5,19.6c2.8,1.9,5.9-0.5,8.4-1.8c9.3-5.8,13.3-16.9,15.1-27.2c2.4-13.2,1.4-27.3-4.1-39.7
	c-4.6-4.1-11.2-3.1-16.8-3.8c9.6-2.2,19.6-2.3,29.4-1.7c15.3,1.6,30.6,3.9,46,3.9c-5.6,6-14.5,5.7-22.1,5.8
	c-7.1,0.6-15.5-0.1-20.9,5.5c3.1,5.5,10,5.8,15.6,5c7.4-1.1,15.7-2.5,22.2,2.2c-5.3-0.4-10.7-0.4-15.8,1.2
	c-7.8,2.4-15.6,4.9-23.7,5.6c0.2,3.9-0.6,7.9-0.1,11.8c5.4,3.9,12.2,0.7,18-0.4c-5.9,6.1-15.7,4.9-21.7,10.9c-1.9,1.6-2.4,4.1-3,6.4
	c7,0.2,14.1-0.9,20.9,1.2c-7.7,3.9-14.2,10-18.7,17.5c6.7-0.5,12.9-4.2,16.9-9.5c4.2-5.4,8.3-10.9,13-15.9c-4-0.7-8.1,0.2-12.2,0.1
	c8.2-4.3,17.8-3.7,26.5-6c3.2-1,7.4-3.1,7-7.1c0-2.4-2-4.2-4.1-4.8c-5.3-1.7-11.9-1.2-15.5,3.5c0.7-3,2.2-6.3,5.7-6.7
	c7.4-0.7,14.8,0.8,22.1,0.4c-3.2-3.1-7-5.6-9.5-9.3c-1.1-5.8,2.1-11.3,6.4-14.9c6.9-5.6,14.7-10.1,21.3-16c-2.9-1.9-5.2,1.7-7.5,3
	c-4.9,2.5-10.7,2-16,1.3c2.2-1.2,4.5-2.4,6.6-3.7c-1.5-3-3.8-6.8-7.6-6.5c-5.6,0.2-10.2,4.6-12.3,9.5c-2.3,0-4.6-0.1-6.9-0.3
	c7.9-3.5,10.2-13.3,18.6-16c0.1-2.2,0.4-4.5,1-6.7c-7.8,2-15.8,2.8-23.8,3.2c2.9-1,5.7-2,8.4-3.5c-5.8-1.4-11.8-0.5-17.7-0.3
	c-4.2,0.1-8.5,0.1-12.7,0.5c9.8,4.5,20.6,7.8,31.5,6.2c2.3-0.5,4.5-1.4,6.9-1.8c-5.8,4.5-13.6,4.6-20.5,3.8
	c-11.1-1.4-22.5-5-33.7-2.3c-6.2-9-18.1-9.2-27.8-10c5.8-1.2,11.9-1.7,17.8-1.1c15.2,0.8,30.3,2,45.5,1.4
	C625,124.6,636.1,124.6,646.9,122.4z"/>
<path d="M505.8,131.1c11.9,3.7,22.6-4.6,34.3-5.6c-7.7,2.1-14,7.1-20.9,10.9c0.2,0.6,0.5,1.7,0.6,2.3c-3.9,1.1-7.7,2.5-11.6,3.8
	c-0.3,4.5-1.8,8.8-4,12.7c-2.1,3.7-2.5,8.1-2.8,12.3c-0.7-4.7-1.1-9.6,0.2-14.2C503.5,145.9,506.3,138.7,505.8,131.1z"/>
<path class="st0" d="M659.2,125.8c2.1,0.7,4.2,1.5,6.3,2.2c-0.4,0.5-0.9,1-1.3,1.5c-4.1-2-7,2.3-9.3,4.9c4.1-1.4,9-1.8,12.2-5.1
	c1.2,2,2.3,4,3.2,6.1c-2.1-0.5-4.2-1.2-6.3-0.6c-5,1.7-8.7,6.2-14,7.1c-5-0.8-5.9-7.3-4.3-11.2c1.1-2.6,4.2-2.7,6.6-3
	c-0.7,2.1-1.5,4.1-2.2,6.1C653.7,131.8,656.7,129,659.2,125.8z"/>
<path d="M544.4,133.5c8.6-5.3,20.7-2.3,27.1,5.1c-4.6,8.8-15.3,11.5-24.5,11.6c-2.6-0.3-3.4,2.8-5.1,4.1c-3.3-1.7-6.5-3.8-9.8-5.5
	c0.8,2.1,1.8,4.3,2.3,6.5c-3-2.6-5.4-5.7-8.4-8.3c-6.7,2.7-11.5,8.2-15.8,13.8c2.2-6.1,5.5-12.3,11.3-15.6
	c4.8-2.8,10.5-2.9,15.8-1.6C538.6,139.7,540.7,135.8,544.4,133.5z"/>
<path class="st0" d="M543.9,138c3.9-4.1,10.2-4.1,15.4-4c-1.1,0.6-2.3,1-3.5,1.3c1.3,2.4-0.6,3.7-2.3,4.9c-1.1-1.4-2.2-2.9-3.3-4.3
	c-2.3,1.8-4.2,4.2-5.5,6.8c4.7,2.5,10.1,3.1,15.3,2c1.3-1,2.5-2.1,3.7-3.2c-1.4-2.2-2.9-4.4-5.3-5.5c0.6-0.5,1.2-1,1.8-1.6
	c2.5,1.2,5,2.8,6.6,5.2c-0.9,3.6-5.1,4.6-8.1,5.9c-5.7,0.5-11.4,1.2-17.2,1C541.7,143.5,541.7,140.1,543.9,138z"/>
<path d="M448.6,140.9c8.8-0.2,17.7-0.4,26.3-2.3c2.1,7.7,4.3,15.3,6.3,23c-6.5,5.3-12.5,11.2-18.8,16.8c-1.7,1.7-3.8,3.1-4.6,5.5
	c-19.7,47.6-39.2,95.4-58.9,143.1c-2.6,5.5-4.1,11.8-8.9,16c-9.5,8.6-22.6,13.3-29.7,24.5c-6.3,8.3-10.7,18.4-19.5,24.5
	c-9,6.6-21.2,6.8-31.7,4c-7.9-2.2-14.2-8.5-17.4-15.9c7.7,1.8,15.8,6,23.6,2.5c8-3.4,10.5-12.9,11.1-20.8c0.3-10.2-0.1-20.5,1-30.6
	c0.3-5.4,1.2-10.7,3.2-15.7c-4.6,2.1-7.6,6.3-11.4,9.5c3.5-22,14.3-41.9,26.9-60c-1.4-5.7-2.1-11.9,0-17.5c1.8-5.4,6-9.7,10.7-12.6
	c11.4-6.8,24.3-11.5,34-20.8c-4,0.6-7.8,2.1-11.8,2.4c8.1-7.4,14.5-16.5,21.1-25.3c8.1-10.7,14.8-22.9,25.9-30.9
	c8.1-6.3,18-9.7,28.1-10.6C452.5,146.5,450.3,143.9,448.6,140.9z"/>
<path class="st0" d="M674.2,141c3.3,1.2,6.6,2.2,10.1,2.5c0.5,1.6,0.9,3.2,1.4,4.8c-3.8-0.8-7.7-1.8-11.5-1
	C674.2,145.2,674.2,143.1,674.2,141z"/>
<path class="st0" d="M671.7,158.8c3.9-1.8,8.4-3.1,12.7-2c2.6,0.6,4.5,2.6,6.4,4.4c-14.4,1.2-27.9,6.9-41.9,10.2
	C656.1,166.5,663.9,162.6,671.7,158.8z"/>
<path class="st0" d="M416.7,185.8c6.2-13.5,19.6-23.7,34.6-24.4c-6.2,2.7-12.9,4.2-19.1,6.9C426.8,173.8,422.1,180.1,416.7,185.8z"
	/>
<path class="st0" d="M651,173c4.4,0.1,8.8-0.3,13.1-1.1c-0.6,2.4-1.1,4.8-2.1,7c-4.6,2.2-10.1,3.6-15.2,2.3c-2.7-0.7-6-4.5-3.6-7
	C645.5,172.9,648.4,173.2,651,173z"/>
<path class="st0" d="M659.8,182.2c6.2-0.2,14.4-1.4,18.4,4.6C671.9,186.3,666,183.6,659.8,182.2z"/>
<path class="st0" d="M664.9,192.5c0.1-0.8,0.3-2.5,0.4-3.4c3.8,1.4,7.4,3.3,11.2,4.6c-2.8,0.3-5.6,0.6-8.4,0.9
	c-0.2,2.6,0.2,5.6-2.1,7.4c-5.2,4.3-14.2,3-17.3-3.3c4,0.7,7.5,2.8,11.6,2.9c0-1.7,0.7-3.9-0.8-5.3c-2-2.2-5.3-2-8-2.3
	C655.3,191.1,660.4,192.2,664.9,192.5z"/>
<path d="M463.2,233.3c5.9-12.3,11.9-24.5,16.7-37.3c1.1,10.3-5.8,19.7-4.6,30c0.9,5.5,6.8,7.2,10.9,9.7c3,2,7.1,4.2,6.9,8.4
	c1.5,12.7-0.7,26.6-8.9,36.6c1.9-9.4,3.3-19.1,2.2-28.7c-4.8-3.7-9.4-7.4-14.2-11.1c-5,13.2-4.8,28-0.6,41.3
	c3.2,10,7.8,19.7,13.9,28.3c10,13.2,24.4,21.9,38.2,30.6c11.7,7.7,23.4,15.5,33,25.7c8.6-6.4,10.4-19.9,3.9-28.4
	c3.1,1.9,5.3,4.9,8.1,7.2c3.3-8,3.3-16.9,3.4-25.4c-0.4-19.7-3.5-39.3-6.7-58.7c-1.7-0.1-3.4-0.3-5.1-0.5c1,15.9-4,31.4-5,47.1
	c-0.4,7.2,1,14.4,3.5,21.1c-5.1-5.3-6.3-13-6.3-20.2c-0.9-12.4,1.9-25-1.6-37.2c-1-3.8-3.3-7.3-7.1-8.7c-5.1,11.9,3.9,23.8,2.1,35.9
	c-0.5,3.6-3.1,6.2-5.8,8.3c4.9-8.2,1.6-18.2-3.3-25.6c-5.7-8.8-9.8-19.8-6.3-30.2c-2.4-4.1-4.5-8.4-7-12.4
	c9.1,7.1,21.1,8.6,32.4,8.7c6.1,0.1,12.2-0.4,18.2-1.2c0.7,9.8-0.2,19.6,0.7,29.4c0,24.6,0.4,49.3,0.1,73.9
	c-0.2,5.7,0.2,11.4-1.1,17c-1.7,7.4-3.5,14.8-5.6,22.1c-1.2,2.9,1.2,5.4,2.7,7.7c2.4,2.9,2.7,6.8,3.2,10.4
	c1.7,12.2,1.6,24.6,2.3,36.9c-2.8-6.9-6.1-13.7-10.3-19.9c-3.2,1.6-6.7,2.9-10.3,2.2c-7-1.4-12.6-7-15-13.6
	c-2.2-5.4-2.4-12.3,1.8-16.8c2.7-2.8,6.8-3.1,10.4-4c-6.6,2.1-7,10.5-4.4,15.9c2.3,4.4,9.5,3.8,11.6-0.4c2-3.9,1.4-8.4,1.1-12.5
	c-1.1-7.7-2.5-15.8-7.5-22c-8.3-11-20.5-18.5-32.7-24.4c-21-10.2-44-16.5-67.3-17.3c-13.7-0.6-27.4,0.3-41,1.5
	c-1.2,0.2-2.5,0.3-3.6-0.2c5.1-1.8,9.7-4.8,14.1-8c2.6-1.9,4.2-4.7,7.1-6.2c-1,3.4-2.7,6.5-3.9,9.9c18.8-3.5,38.1-3.8,57.1-1.2
	c-1.9-2.4-3.9-5-6.8-6c-2.8-1.4-5.8-0.5-8.7,0c-6-14.9-8.2-31-8.6-47c-1,0.5-1.9,1-2.9,1.6C454.1,261.2,457,246.3,463.2,233.3z"/>
<path class="st0" d="M437.2,199.8c-4,14.3-15.8,26.7-30.8,28.9C418,220.7,429.8,212,437.2,199.8z"/>
<path class="st0" d="M356,258.3c-2.2-8,4-15.3,11.1-18.1C362.4,245.4,357,250.8,356,258.3z"/>
<path class="st0" d="M394.9,254.4c0,0.2,0,0.8-0.1,1c-16.9,7.9-32.1,19.6-43.3,34.6c4.1-13.8,16.5-22.8,28.6-29.1
	C384.9,258.5,389.9,256.3,394.9,254.4z"/>
<path class="st0" d="M357,311c3-3.8,6.5-7,10.2-9.9c-7.5,13.6-16,27.1-19.8,42.4C346.5,331.9,349.6,320,357,311z"/>
<path d="M110.5,369.5c19.2-18.3,38-37.1,57.6-54.9C195.8,324,221.7,338,246,354c38.2,25.6,72.4,56.6,103.9,89.9
	c39,41.7,78.3,83.1,120.2,121.9c15,13.5,30.2,27.1,47,38.4c16.8-14.2,31.2-30.9,47.5-45.8c8.6,12.3,17.4,24.5,26.3,36.6
	c3.4,7.4,6.1,15.5,5.6,23.8c-0.1,4.3-3.3,7.7-5.6,11c-9.6,12.3-20.2,23.8-30.6,35.3c-12.3,13.4-24.5,26.9-37.1,40
	c-8.1,8.9-20.3,13.6-32.2,12.8c-7.8,0.4-15.6-1.3-23.1-3.4c-20.2-5.9-38.6-16.8-55.5-29.1c-14.6-10.5-27.9-22.7-41.3-34.7
	c-29.9-27.1-58.5-55.5-87.8-83.3c-46.9-44.4-94.9-88.1-149-123.7c-15.8,15.7-31.2,31.7-47.4,47c-7.5-8.9-14.7-18.1-20.8-28
	c-4.6-7.5-8.9-15.4-11.2-23.9c-0.4-2.9-0.3-5.9-0.1-8.8c1.9-5,5.5-9,8.8-13.1C78.2,400.1,94.6,385,110.5,369.5z"/>
<path class="st0" d="M168.6,321.1c51.1,18.2,95.8,50.6,135.7,86.7c30.1,27,56.5,57.5,84.6,86.4c26,26.9,52.4,53.6,80.2,78.7
	c15.4,13.8,31.4,27.1,49.2,37.8c18.8,11.3,39.4,21.4,61.7,22c-2.8,3.7-6.6,6.3-10.3,9c-7.2,5.5-15.7,9.2-24.8,10
	c4.6,1.8,9.7,1.9,14.5,0.8c-2.9,6.1-8.9,9.9-15.2,11.8c-11.4,3.7-23.8,3.5-35.5,1.5c2,2.2,4.5,3.8,7.4,4.5
	c8.3,2.2,17.1,2.1,25.5,0.5c-1.8,3.9-5.4,6.5-8.7,9c-10.1,7-22.8,8.9-34.8,8.9c-10.1-0.3-20.1-2-30-4c4.1,4.5,10.1,6.4,15.9,7.1
	c13.8,1.7,27.7,0.4,41.3-2.6c-5.4,8.7-15,14.8-25,16.4c-12.5,0.8-24.6-3.4-36.2-7.4c-11-3.8-21.5-9-32.2-13.5
	c12.2,14.2,30.1,22.4,48.5,24.8c7,1.3,14.1,0.8,21.2,1.1c-14.1,3.1-28.6-0.4-41.9-5.2c-18.6-7.2-35.9-17.8-51.4-30.4
	c-15.1-12.1-29.4-25.2-43.8-38.1c-56.2-50.5-112.3-101-168.9-151c-11.6-10.2-23.1-20.4-34.9-30.3c-5.8-5-12.4-8.9-18.7-13.2
	c-20.1-12.7-41-25.4-64.5-30.7c2.7-3.9,6.3-7.1,9.7-10.5c14.3-14,28.3-28.2,42.8-42.1C142.7,346.2,155.9,333.9,168.6,321.1z"/>
<path d="M168.2,324.9c29.1,9.4,57.6,22.4,81.2,42.2c-24.8-11.6-49.3-24.3-75.7-31.9c-4,4.8-9.1,8.4-13.8,12.4
	c20.6,2,40.4,8.9,58.5,18.5c-16.3-4-32.5-9.2-49.4-9.7c-10.1-0.3-21.2,1.9-28.5,9.5c15.7-0.4,32.3,1.2,45.9,10
	c-16.7-2.2-34.1-4.4-50.5,0.4c-7.6,2.2-14.5,7-18.6,13.9c11.7-1.4,24.6-3.4,35.3,2.7c-11.1,2.2-22.7,2.1-33.7,5.2
	c-9.4,2-18.7,6-24.7,13.7c-3.5-0.5-6.8-2-10.2-2.9C111,379.8,140.1,352.8,168.2,324.9z"/>
<path class="st1" d="M407.6,333c1.7-1.9,1.7,2.8,0,0.9V333z"/>
<path d="M365.5,396c9.9,2.3,16.4,10.8,21.6,18.9c1.6,2.1,2.3,5.2,5.1,6.1c18.3,7.3,36.5,17.7,47.5,34.6c-6.8-4.1-13.3-8.6-19.7-13.2
	c-10.4-7.9-22.6-14-35.7-15.6C381.2,414.9,375.3,403.5,365.5,396z"/>
<path class="st0" d="M69.5,419.7c7.3-3.1,15.5-1.1,22.7,1.5c13.2,5,25.7,11.7,37.9,18.7c-13.7,14.3-28.1,27.9-41.9,42.1
	c-6.3-8.2-12.8-16.2-19-24.4c-6.4-9.4-9.1-21.7-5.9-32.8C63.7,421.8,67.1,420.9,69.5,419.7z"/>
<path d="M68.3,426.3c2.2-3.7,6.7-5.2,10.7-5.6c6.3-0.6,12.4,1.7,18.1,4c9.7,4.2,18.9,9.5,27.9,15.1c-10.2,12.5-22.8,22.6-33.4,34.7
	c-7.9-9.9-17.9-18.6-22.8-30.6C66.5,438.4,65.7,431.8,68.3,426.3z"/>
<path d="M532.1,435.1c1.2-2.7,3.4-4.6,5.7-6.4c-5.3,10.1-2.2,22,1.4,32.1c3.7,9.4,7.8,19,7.9,29.2c0,5.1-1.4,10.2-4.2,14.5
	c18.2-4.6,37.1-5,55.6-8.3c6.1-1.1,12.2-2.7,18-5.1c-3.8-1.3-7.7-2.2-11.4-3.8c6.2-11.1,18.7-15.9,29.9-20.1
	c-7.1,5.6-16.4,9.2-20.8,17.5c9.9,1.8,18.3-4.5,27-7.8c7.1-2.9,15.5-2,22,2c6.3,3.8,11,9.6,15,15.7c-6.5-4-13.1-8.1-20.4-10.6
	c-2.6-0.9-5.5-1.5-8.2-0.5c-27.9,11.1-54.6,24.9-82.6,35.7c13.5,1.8,26.5-4.1,37.9-10.7c11.7-6.8,23.4-13.7,36.2-18.3
	c5.6-2.2,12-2.5,17.6-0.2c8.8,3.2,15.1,10.9,19.4,18.9c-6-4.6-10.7-11.2-18.1-13.7c-2.8-1-5.6,0.1-7.9,1.6
	c5.3,6.3,10.8,12.4,16.3,18.6c4.7,5.3,8.3,11.7,9.7,18.7c-5-5.7-9.4-12-15.1-17c3.5,20.5,19.4,35.7,25.2,55.3
	c-4.6-5.7-8.9-11.5-13.2-17.4c0.6,8.7,4.3,17,3.5,25.8c-0.2,6.1-7.8,9.8-6.4,16.2c0.2,1.9,2.4,1.9,3.9,2c2.2,0.2,3.1-2.2,4.3-3.6
	l0.1-0.3c-0.2,4.8-2,9.3-4.2,13.5c7.5,5.2,16.8,7.1,24.1,12.7c-1,8,2.5,15.8,0.7,23.8c-7.9-12-16.5-25.6-30.8-30.5
	c-0.2-3.3-2.1-6.2-5.5-7c-0.2-5.1,0-10.2,1.9-15c1.2-4.1,3.7-7.5,5.4-11.4c-1.2-8.9-3.1-17.6-4.6-26.5c-2.1-10.6-3.7-21.5-8.1-31.4
	c-4.5-10.7-12.5-20.5-23.4-25.1c-16.1,7.2-30,18.3-45.8,26c-6.6,3.4-14.2,3.7-21.3,5c-6.1,0.9-10.5,5.6-15.5,8.9
	c-6,4.9-13.3,9.1-21.3,8.9c-4.4,0.3-8.2-2.2-11.6-4.5c-8-5.9-14.8-13.3-21.4-20.7c-9.8-10.9-19.5-22.1-27.3-34.6
	c-1.9-3.1-3.6-6.4-4.9-9.8c5.4,6.4,10,13.6,15.7,19.8c8.7,9.9,21.3,15.3,30.2,24.9c0.8,2.9,1.4,6,3.6,8.2c4.4,4.6,10.6,7.1,16.8,8.4
	c5.5,1.3,11.6,0.3,16.1-3.2c3.7-2.9,5-8,3.9-12.5c-9.2-3.3-19.2-2.6-28.4-5.9c-7.4-2.6-10.8-10.5-12.1-17.6
	c-1.3-7.6-1.8-15.3-1.1-22.9c0.1-11.8,0.2-23.8-2.2-35.4c3.5,2.4,5.3,6.4,6.2,10.4c3,12.5,0.8,25.8,4.9,38.1c1,3,3.4,5.7,6.6,6.4
	c2.6,0.6,4.7-1.4,6.4-3.1c3.9-3.9,5.5-10.5,2.7-15.4c-4-6.2-5-13.6-6.1-20.8C529.4,449.8,529,442,532.1,435.1z"/>
<path d="M558.7,450.2c7.2,0.2,14.2,1.6,21.2,2.6c14,2.2,28,4.5,42,6c8.8,1.3,16.8-3.4,24.8-6c10-3.5,21.9-0.5,29,7.4
	c5.7,6.3,8.9,14.4,10.4,22.6c2.8,15.1,4.6,30.4,6.6,45.6c3.6,12.6,9,24.7,11.7,37.5c2,8.1,3.3,16.4,6.7,24.1
	c1.5,3.1,1.1,6.8,0.7,10.1c-2.5,7.2-5.4,14.3-7.1,21.8c-7.7-5.1-15.7-9.7-23.6-14.5c1.7-5.3,3.5-10.6,5.1-15.9
	c1.8,2.9,3.4,5.9,5.5,8.6c2.6,3.2,8.5,3.2,10.7-0.4c1.9-4.3,0.7-9.9-3.5-12.4c-2.6,2.1-3.7,5.3-4.8,8.3c-4.3-4.6-3.5-12.2,0.6-16.6
	c-2.9-11.3-4.8-22.8-7.1-34.2c-3-14.5-3-29.3-4.9-44c-1.2-13-3.1-27.4-12.9-36.9c-6.7-6.4-16.5-7.1-25.1-5.3
	c-15.3,3.2-28.8,12.1-44.4,14.2c4.8-2.9,9.6-5.8,14.4-8.8C596.2,459.1,577.6,454.2,558.7,450.2z"/>
<path d="M573.2,532.6c12.4-2,24.3-6.7,34.6-14c3.6,2.8,6.9,6.2,9.4,10.1c4.4,33.8,12.7,67,19.2,100.4c0.7,4.6,1.8,9.2,1.6,13.9
	c-0.5,6.3-6.4,10.7-6.6,17c-0.5,6.2,1.5,12.5-0.8,18.5c-3.4-4.7-6.7-9.5-11-13.3c-7.1-6.8-16.5-10.8-26.1-12.2
	c-2.7-14.2,5.1-27.2,6.9-41c2-20.9-5.5-42.4-19.8-57.7c-8-0.4-15.9,1.2-23.2,4.4c-10,4.6-19.3,10.6-29.7,14.1
	c4.2-6,10.5-10.4,14.8-16.3c2-2.3,3.2-5.4,5.5-7.4C557.3,545.2,567,540.8,573.2,532.6z"/>
<path d="M490,541.6c15.3-1.6,26.2,12.2,40.9,13.3c-7.1,13.3-18.8,23.5-32.1,30.4c-17.8-11-34.5-24.1-48.1-40.1
	c15.4,9,29.3,20.7,45.9,27.5c6.6-4.4,12.9-9.1,18.6-14.5C506.4,553.5,496.9,549.3,490,541.6z"/>
<path class="st0" d="M579,543c7.8-0.6,16.1,1.7,21.7,7.4c8.1,7.8,11,19,13.2,29.6c2.6,12,5,24.2,8.9,35.9c-5-5.7-7.1-13.2-9-20.4
	c-2-9-3.9-18-7.5-26.5c-1.1-2.6-2.8-4.9-4.8-6.9c0.1,15,8.4,28.8,7.6,43.9c0.5,8,0.8,16.7,5.7,23.4c3.6,4.9,10.3,4,15.2,6.6
	c2.1,1.3,4.1,3.4,4.2,6c-0.8,2-2,3.8-3.1,5.7c-3.3-3.4-8.2-5.5-13-4.6c-7.3,1.3-14.4,3.6-21.6,4.9c-2.1-6.2-1.3-13.8,3.9-18.3
	c2.7,0,5,1.6,7.3,2.7c-2.4-13.7-3.6-27.5-5.4-41.3c-1.6-11.2-4.2-22.8-11.2-32c-3.3-4.3-7.8-7.4-12.7-9.5
	C578.3,547.3,578.5,545.1,579,543z"/>
<path class="st0" d="M532.5,598.5c10.1-10.1,19.7-20.7,29.8-30.9c0.4,0,1.2,0,1.7,0c8,10.3,17.3,19.8,22.3,32.1
	c3.4,7.8,4.4,16.7,2.4,25.1c-12.6,2.9-25.8,0.4-37.7-3.9c-9.3-3.3-18.1-7.9-26.6-12.8C526.5,604.4,529.7,601.6,532.5,598.5z"/>
<path d="M530.7,608.7c9.5-12.6,21.8-22.7,31.5-35.2c5.7,7.2,11.3,14.6,15.9,22.5c4.1,7.3,7.8,15.3,8.2,23.8
	c-11.8,3.6-24.4,1.3-35.7-3.2C543.9,614.1,537.3,611.4,530.7,608.7z"/>
<path d="M661.2,618.9c8.5-2.2,16.3,3.3,22.7,8.2c6.2,5.3,13,11.4,14.4,19.9c1.1,8.1-5.6,14.3-6.5,22.1
	c-5.9-15.1-13.2-29.8-23.5-42.4C666,624,663.3,621.8,661.2,618.9z"/>
<path d="M660.7,623c6.9,9.2,15,17.7,20.5,27.9c4.8,8.8,7.2,18.9,6.4,28.9c-3.5,2.4-7.2,4.9-11.7,4.8c-5.4,0.1-9.9-3.6-13.1-7.6
	c-10.8-13.8-15-32-12.9-49.3c5.1,10.1,6.1,21.6,10.2,32c1.7,4,3.8,8.4,7.9,10.3c3.3,1.7,8.3-0.2,8.9-4.1c0.8-2.3,0.1-4.8-0.2-7.1
	c-1.2-6.6-3.7-13-7.2-18.7C666.2,634.6,662.4,629.3,660.7,623z"/>
<path class="st0" d="M690.1,640.9c1.7,1.3,3.6,2.5,4.2,4.7c1.3,4.1-0.3,8.3-1.5,12.2C689.5,653,685.8,646.2,690.1,640.9z"/>
<path d="M596.1,656.7c7.1,0.2,13.4,4.2,18.8,8.5c5.2,4.4,11,9.6,11.8,16.8c-0.2,5.4-4.8,9.2-6.5,14.1c-1.4-10.3-5.2-20.4-11.9-28.5
	C604.9,663.2,600.5,659.9,596.1,656.7z"/>
<path d="M592.1,659.3c10.7,4.6,18.6,14.4,22.6,25.1c3.5,9.5,2.6,20.6-3,29c-1.3,2-3.5,3.1-5.8,3.4c-7.9,0.7-15.1-4.6-18.7-11.4
	c-6.3-11.9-7.7-25.9-7.6-39.2c2.6,0.9,4.9,2.8,5.2,5.7c0.7,9.2,1.1,19.4,7.2,26.9c2.1,2.1,4.8,4.7,8,3.8c5.1-3,4.3-10.1,2-14.6
	c-4.3-7.2-8.5-14.3-12.8-21.4C589.7,664,590.8,661.7,592.1,659.3z"/>
<path class="st0" d="M616.8,673.6c2.6,2.3,5.6,4.7,6.4,8.3c0.6,1.8-1.4,3-2.2,4.3C619.5,682,617.5,678,616.8,673.6z"/>
</svg>
