<?xml version="1.0" encoding="utf-8"?>
<!-- Generator: Adobe Illustrator 21.1.0, SVG Export Plug-In . SVG Version: 6.00 Build 0)  -->
<svg version="1.1" id="Layer_1" xmlns="http://www.w3.org/2000/svg" xmlns:xlink="http://www.w3.org/1999/xlink" x="0px" y="0px"
	 viewBox="0 0 825 825" style="enable-background:new 0 0 825 825;" xml:space="preserve">
<style type="text/css">
	.st0{fill:#FFFFFF;}
</style>
<path d="M382.2,111.4C420.4,99.2,461,94.8,501,97.8c34.3,2.4,67.6,12.7,99.5,25.2c-10.2,15.1-20.2,30.4-30.7,45.2
	c-41-10.4-84.3-12.4-125.9-4.1c-54.3,10.7-104.1,38.4-145.9,74.1c-21.8,20.6-41.4,43.3-61.4,65.6c-36.9,42-73.2,84.6-109.1,127.5
	c-2.2-26.9-4.5-53.9-10.4-80.3c23.3-29,46.8-57.9,70.6-86.5c19.9-23.7,39.8-47.3,61.1-69.8c7.4-8,15.3-15.5,23.8-22.3
	C304.9,145.6,342,124.1,382.2,111.4z"/>
<path d="M609.7,139.6c8.4-9.5,17.8-18.4,29.1-24.3c2.8,14.1-2.1,28.2-7.3,41.2c-5.8,13.2-11.8,26.5-15,40.7c-0.5,2.6-1.1,5.3-0.9,8
	c12.5,37.9,25.1,75.7,36.8,113.9c20.9,68.4,39,137.6,54.9,207.3c-17.8,0-35.7,0-53.5,0c-3-14-10.7-28.3-5.4-42.7
	c-16-7.1-31.7-15-47.5-22.6c-17.8-8.8-35.7-17.5-53.4-26.4c-16.7-8.7-31.8-21.5-40.9-38.3c-8.5-15.3-11.3-33.1-10.8-50.4
	c-13.3,13.1-20.7,30.9-25,48.8c-3.8,16.5-5.6,33.4-5.8,50.2c-0.6,9-0.6,18,0,26.9c0.1,15,0.2,30.1,1,45.1c0.2,19,0.3,38,0,57
	c-1.8,44.2-13.1,87.8-31,128.1c-9.4,21.4-20.6,42.1-33,62C313.1,660,227,553.5,142.5,445.8c31.3-51.6,66.9-100.9,108.6-144.7
	c13.7-14.4,28.1-28,43.3-40.9c28.6-24.3,59.5-46.2,93.4-62.5c34.5-16.7,72.6-27.1,111.1-26.2c26.8,0.3,53.5,6.2,78.3,16.5
	C586.6,171,597,154.4,609.7,139.6z"/>
<path class="st0" d="M584,288c2.3-5.5,8.1-9.4,14.1-8.6c4.7,0.7,8.8,3.4,12.2,6.5c-5.4,3.3-13.7,1.4-17.2,7.4c-0.5,3.4-0.9,7,0,10.3
	c1,3.4,3.9,5.7,6.9,7.3c-5.3,1.6-12.1,1.5-15.6-3.4C580.2,301.9,581.3,294.1,584,288z"/>
</svg>
