<?xml version="1.0" encoding="utf-8"?>
<!-- Generator: Adobe Illustrator 21.1.0, SVG Export Plug-In . SVG Version: 6.00 Build 0)  -->
<svg version="1.1" id="Layer_1" xmlns="http://www.w3.org/2000/svg" xmlns:xlink="http://www.w3.org/1999/xlink" x="0px" y="0px"
	 viewBox="0 0 825 825" style="enable-background:new 0 0 825 825;" xml:space="preserve">
<style type="text/css">
	.st0{fill:#FFFFFF;}
</style>
<path d="M299.7,98.7c45.6-18.1,95.8-23,144.4-18.3c42,3.9,83.3,16.3,120,37.4c34.4,19.9,64.8,46.5,89.1,78
	c26,33.7,43.7,73.5,52,115.2c8.1,39.2,8.3,79.8,2.6,119.4c-6.6,45.6-19.4,90.3-36.1,133.1c-16.3,42-34.1,83.5-51.8,124.9
	c8.4,0.3,16.7,2.4,24.8,4.5c0,16.7,0,33.3,0,49.9c-29.6,0.8-59.2,2.4-88.8,3.2c-0.5-7.9,1.4-15.6,2.9-23.2
	c4.5-19.6,10.7-38.7,16.2-58c12.5-43.6,24.1-87.5,32.6-132.2c3.7-19.8,6.8-39.7,8.2-59.8c0.2-8.4,1.2-16.7,0.3-25
	c-1.5-38.8-16.4-76.4-40.2-106.9c-25.1-33-60.6-57.5-99.5-71.3c-45.4-16.1-96.7-15.9-141.6,2.1c-27.8,11.1-53.5,28-74.2,49.6
	c-23.3,24.5-40.8,54.6-49.6,87.3c-6.4,23.8-7.8,48.7-5.8,73.2c3.1,45,13.8,89.1,26.5,132.2c12.5,42,27.2,83.3,39.3,125.4
	c-18,4.2-36.6,3.6-55,3.5c-14.4-0.2-28.7-0.8-43.1-0.5c-0.2-16.6-0.1-33.2-0.1-49.8c9.5-0.1,19,0,28.5,0
	c-16.4-41.5-33-82.9-48.6-124.7c-16.1-42.1-28.9-85.6-35.9-130.2c-5.4-34.6-7.2-69.9-3-104.8c4.2-35.7,15.6-70.5,33.6-101.6
	c15.4-26.9,35.4-51,58-72C232.7,133.6,264.7,112.4,299.7,98.7z"/>
<path class="st0" d="M406.4,132.7c9.1-2.1,19.1-1.3,27.1,3.8c7.4,4.4,12.5,12.3,14,20.7c1.7,8.9,0.7,18.1-1.6,26.8
	c-2.3,8.5-8.2,16.5-16.9,19.1c-11.1,3.9-23.2,0.6-33-5.3c-10.1-6.2-20.2-14.4-24-26.1c-3-8.4-1.4-18.3,4.9-24.7
	C384.9,139.2,395.9,135.3,406.4,132.7z"/>
<path class="st0" d="M328.5,158.6c3.4-2.5,7.9-1,11.8-1.4c1.2,16.8,6.4,33.1,9.9,49.5c-27.3,4.8-53,16.7-75.2,33.2
	c-19.7,15.3-38,32.4-57.8,47.7c-1.7-17.3,6.4-33.6,16-47.4c12.4-17.3,27.9-32.2,44.2-45.8C293.4,181,310.6,169.2,328.5,158.6z"/>
<path class="st0" d="M483.3,157.2c33.7,15.8,65.7,36.9,90,65.5c16.7,19.7,29.4,42.8,36.1,67.7c-17.1-13-32.9-27.7-49.7-41.2
	c-24.9-20.4-54.1-36.2-85.8-42.5C477,190.2,481.3,173.9,483.3,157.2z"/>
</svg>
