<?xml version="1.0" encoding="utf-8"?>
<!-- Generator: Adobe Illustrator 21.1.0, SVG Export Plug-In . SVG Version: 6.00 Build 0)  -->
<svg version="1.1" id="Layer_1" xmlns="http://www.w3.org/2000/svg" xmlns:xlink="http://www.w3.org/1999/xlink" x="0px" y="0px"
	 viewBox="0 0 300 300" style="enable-background:new 0 0 300 300;" xml:space="preserve">
<g>
	<path d="M196,212.4c-6.3,8.7-14.5,14.4-24.3,17.1c-1.8,0.5-6.7,1.4-14.8,2.6c-0.7,0.1-2,0.2-3.8,0.3c-1.7,0.1-2.9,0.2-3.8,0.4
		c-8.8,1.7-13.8,2.4-14.9,2.3c-0.3,0-0.6-0.1-0.9-0.3c-0.3-0.3-0.6-0.4-1-0.3c0,0.6,0.2,1.6,0.7,3.1c0.4,1.2,0.5,2.1,0.3,2.9
		c-1.8-1.1-2.6-3.1-2.6-6c0-1.7,1.1-3.8,3.2-6.3c2.2-2.5,3.4-4.5,3.5-5.9c0.1-2.4-1.8-5.9-5.6-10.4c-6.8,7.2-9.1,18.8-6.9,34.9
		c0,0.2,0.2,0.3,0.6,0.4c0.3,0.1,0.5,0.2,0.6,0.3v2.2H61.1v-2.2c0.3,0,0.7-0.4,1.3-1.2c1.4-1.6,2.9-4.3,4.5-8.3
		c1.8-4,3.3-6.8,4.5-8.5c1.3-1.6,3.7-3.5,7.2-5.9c3.7-2.5,6.4-4.1,8.1-4.5c0,0.6-0.4,1.1-1.2,1.6c-0.7,0.5-1.1,1-1.2,1.6
		c0.7,0.1,1.1-0.1,1.3-0.7c0.2-0.8,0.3-1.2,0.4-1.3c2-1.5,3.3-3.5,4-6.2c0.2,0-0.9,0.6-3.4,1.9c-1.4,0.8-2.5,1-3.5,0.7
		c5.7-5.1,8.1-10.1,7.3-15.1c-0.3-1.8-1.2-3.5-2.6-5.1c-0.2,0.6-0.1,1.6,0.1,2.9c0.4,1.3,0.3,2.1-0.1,2.6c-2.5-2.7-3.4-7.2-2.6-13.5
		c-0.7,0.2-1.3,0.7-1.8,1.6c-0.6,1-1.2,1.5-1.9,1.6c0-0.4,1.2-4.8,3.7-13.3c-0.4,0.1-1.1,0.6-2.2,1.5c-0.8,0.7-1.6,0.9-2.3,0.6
		c2.4-4.5,3.9-7.5,4.2-9.1c0.3-1.1,0.6-2.9,1-5.6c0.4-2.4,0.8-4.3,1.2-5.7c-0.3,0-0.7,0.4-1.3,1.3c-0.5,0.8-1.1,1.1-1.9,1
		c-0.2-0.6-0.1-1.3,0.1-2.2c0.5-1.3,0.7-2.1,0.7-2.5c0-0.6-0.1-1.5-0.3-2.6c-0.2-1.1-0.3-1.9-0.3-2.5c0-2.7,0.8-5.7,2.3-8.9
		c-0.6,0.1-1.1,0.5-1.6,1.3c-0.6,0.8-1.2,1.2-1.8,1.3c-0.3-1.9,0-3.7,1-5.4c0.2-0.3,0.7-0.9,1.6-1.9c0.7-0.8,1.1-1.5,1.2-2.1
		c-0.3,0-0.8,0.1-1.6,0.1c-0.9,0.1-1.5,0.1-1.9,0.1c-1.6,0.1-2.4-0.3-2.5-1.2c3.3-2.3,5.2-4.1,5.6-5.4c0.2,0-0.6,0.2-2.3,0.7
		c-1,0.2-1.7,0.1-2.2-0.3c0.4-0.7,1.1-1.4,2.1-2.1c1.2-0.7,2-1.3,2.3-1.8c2.7-3.7,3.9-10.7,3.4-20.9c-1.4-4.4-1.6-8.8-0.7-13.2
		c1-4.9,3.2-7.5,6.6-7.9c-0.3,2-1.1,5.2-2.5,9.7c-1.4,4.3-2.2,7.6-2.5,9.8c3.5-7.6,5.9-12.9,7.2-16c1.7-3.9,2.3-5.6,1.9-5
		c1-1.7,2.5-2.3,4.5-2.1c0.2,1.7,0.1,4.2-0.3,7.8c-0.3,3.4-0.4,6-0.3,7.6c0.1,0.3,0.2,0.7,0.4,1.3c0.1,0.5,0.1,0.9,0.1,1.2
		c0,0.9-0.2,2.1-0.6,3.7c-0.5,1.7-0.7,2.9-0.7,3.7c0-0.8,1.1,4.1,3.4,14.5c0.3,1.5,0.4,3.7,0.4,6.6c0,2.7,0.2,4.7,0.6,6
		c1.4,5.7,3.5,9.8,6.4,12.3c0.3,0.2,0.8,0.5,1.6,0.9c0.8,0.4,1.3,0.7,1.6,1c0.2,0.2,0.5,0.7,0.9,1.5c0.3,0.6,0.7,1,1.3,1.2
		c0-0.7-0.3-1.5-0.9-2.3c-0.6-0.8-0.8-1.5-0.6-2.1c1.2,0.2,2.1,1,2.8,2.3c0.2,0.2,0.5,0.8,0.9,1.8c0.3,0.7,0.6,1.2,0.9,1.6
		c0.1,0.1,0.2,0.1,0.4,0.1c0.3,0,0.5,0,0.6,0c1.2,0.8,2.1,2.1,2.8,3.8c1,2.8,1.3,4.2,0.9,4c0.3-0.2,0.3-0.8,0.1-1.8
		c-0.2-0.8,0-1.3,0.6-1.5c0.6,0.2,0.9,0.9,1,2.2c0.2,1.3,0.5,2,1,2.2c-0.1,0.2,0-1,0.3-3.7c3-3.8,5.3-6.3,6.9-7.6
		c0.2-0.7,1.1-2.1,2.8-4.1c1.1-1.4,1.9-2.3,2.5-2.8c-0.1,0.1,2-0.1,6.3-0.7c0.6-0.1,1.7-0.5,3.2-1.2c1.2-0.5,2.2-0.6,3.2-0.4
		c-0.5-0.1,0.9,0.7,4.1,2.5c0.3,0.2,0.8,0.4,1.5,0.7c0.7,0.2,1.1,0.4,1.3,0.6c0.1,0.1,0.2,0.3,0.4,0.6c0.2,0.4,0.4,0.6,0.6,0.7
		c0.2,0.1,0.5,0.1,0.9,0.1c0.5,0.1,0.8,0.2,1,0.3c0.2,0.1,0.4,0.3,0.6,0.6c0.2,0.4,0.3,0.6,0.4,0.7c0.6,0.5,1.8,1.2,3.5,2.2
		c1.6,0.8,2.6,1.5,3.2,2.2c0.2,1.1,1.4,3.3,3.7,6.7c-0.2,0.2-0.1-2.2,0.3-7.3c0.1-0.2,0.4-0.2,0.9-0.1c0.3,0.1,0.4,0,0.4-0.4
		c0.4-6,0.5-8.9,0.4-8.8c0.3,0,0.5,0.3,0.6,1c0.1,0.6,0.3,0.9,0.6,1c-0.1-0.5,0-0.8,0.4-1c0.6-0.4,0.9-0.6,0.9-0.7
		c0-4.5,0.7-7,2.1-7.6c0.2,0.4,0.2,1,0.1,1.8c-0.1,0.7-0.1,1.2,0,1.6c0.9-0.4,1.8-2.1,2.6-5.1c2.1-7.9,2.1-14.7-0.3-20.5
		c-0.5-1.4-1.9-3.5-4.1-6.4c-2-2.4-3-4.6-3.2-6.4V91c-0.1-3.4-0.7-5.9-1.9-7.5c-0.5-0.5-1.9-1.5-4.2-3.1c-1.9-1.3-2.9-2.4-3.1-3.5
		c-0.1-0.8-0.1-2.2,0.1-4.2c0.2-2,0.2-3.2,0-3.7c0.8,0,2.1,0.2,4,0.6c1.7,0.4,3.1,0.6,4.2,0.6c0.2,1.2,0.5,3.7,1,7.6
		c0.4,3.3,0.8,5.9,1.3,7.6c0.4-1.6,0.6-4.1,0.7-7.5c0.1-3.5,0.3-6,0.6-7.5c1.8-0.3,3.4,0.1,4.8,1c0.4,0.3,0.9,0.8,1.6,1.5
		c0.7,0.7,1.3,1.2,1.8,1.5c2.5,1.9,3.9,2.9,4,3.1c-0.3-0.5,1,3,4,10.4c2.7,7.2,4.1,11.4,4.2,12.6c0.2,3,0,4.8-0.6,5.4
		c-0.2-0.2-0.4-0.8-0.7-1.8c-0.3-0.8-0.6-1.3-1-1.5c-0.2,10.7,0,16.9,0.6,18.5c1.1,3,3.2,5.9,6.3,8.6c-0.1-0.3-0.6-1.8-1.5-4.5
		c-0.8-2.1-1.2-3.8-1.3-5c0.5,0.2,1.2,0.8,2.2,1.9c0.9,0.9,1.8,1.4,2.6,1.5c-3.4-7.2-5.1-11-5.1-11.4c0.4,0.2,1,0.7,1.9,1.5
		c0.8,0.6,1.5,1,2.2,1.2c-1.8-4-2.7-6.2-2.8-6.7c-0.1-0.6-0.1-1.6,0-3.1c0.1-1.3,0.1-2.3,0-3.1c-0.1-1.1-0.6-2.4-1.5-4.1
		c-1.2-2-1.9-3.3-2.1-4c0.1,0.2-0.3-1.7-1.2-5.6c-0.7-3-0.9-4.8-0.6-5.4c3.8,3.4,5.8,7.9,5.9,13.5c0,0.3,0.2,0.6,0.6,0.9
		c0.4,0.2,0.6,0.4,0.6,0.7c-0.3,0.5-0.2,2.2,0.3,5.3c0.6,4.4,1.4,7.3,2.5,8.8c0.3,0.4,0.9,1,1.9,1.8c1,0.9,1.7,1.6,2.1,2.2
		c1.6,1.9,2.1,3.9,1.6,6l-5.7-3.4c-2.2-1.3-3.2-1.9-2.8-1.9c0.6,2.2,2.8,4.8,6.6,7.6c3.5,2.5,5.3,5.3,5.4,8.2
		c-5.1-2.7-7.3-4.1-6.7-4c1.3,3.5,3.8,6.9,7.6,10.3c2,1.8,2.9,2.7,2.9,2.9c-0.5,0-3.4-1.4-8.8-4.2c0,3.4,1.4,6.5,4.2,9.2
		c1.8,1.7,2.6,2.4,2.5,2.2c-1.6,0.1-3-0.4-4.2-1.5c-2.4-1.9-3.5-2.7-3.2-2.5c0,4.6,2.6,9,7.8,13.3c5.4,4.4,8.3,8.7,8.6,12.9
		c0.5,1,2.1,2.3,4.8,4.1c2.4,1.6,3.9,3.2,4.2,4.8c0.1,0.3,0.1,0.7,0,1.2c0,0.6,0,1,0,1.2c0.1,0.7,0.3,1.7,0.7,3.1
		c0.3,1.3,0.4,2.2,0.4,2.9c-1.7,0.1-2.3-0.2-1.9-0.9c1.9,4.2,2.8,6.4,2.9,6.6c-0.5-0.2-2.3-2.6-5.4-7.3c-0.6,3.9,0.4,7.9,3.1,12
		c3,4.9,4.6,8.4,4.8,10.5c0.4,2.8,0,4.9-1.2,6.3c-0.7-2.1-1.7-4.1-2.9-6c-1.1-1.7-1.9-2.3-2.3-1.9c1.9,2,2.9,4.6,3.2,7.9
		c0.2,3.1-0.3,6-1.5,8.6c-0.8,1.8-1.6,2.9-2.3,3.4c-0.2-0.3-0.2-0.9-0.1-1.8c0.1-0.7-0.1-1.1-0.4-1.2c-0.2,0.4-0.4,1-0.7,1.9
		s-0.5,1.5-0.7,1.9c-0.6,1.6-1.4,2.3-2.5,2.3c0-0.5,0.1-1.3,0.3-2.3c0.3-1.1,0.4-1.9,0.4-2.5c0.1-3.1-0.4-5-1.6-5.7
		c-0.5,2.2-0.9,4.7-1.3,7.3c-3.4,10.4-9.7,16.7-18.9,18.9c6-7.5,8.5-15.5,7.6-23.9c0.5-0.5-0.5,0.8-2.9,4c-1.3,1.6-2.6,2.5-4.1,2.8
		c1.2-3.5,1.5-7.2,0.9-11.1c-0.6-4.2-2-7.1-4.2-8.8c-1.2,1.1-1.9,2.2-2.2,3.5c-0.2,0.7-0.2,1.9,0,3.5c0.1,1.5-0.1,2.5-0.4,3.1
		c-2.6-2.7-3.9-7.2-3.8-13.3c-0.8,0.4-1.3,1.5-1.6,3.2c-0.3,2.1-0.6,3.3-1,3.7c-2.1-2.9-2.1-7.2,0-12.7c-4.7,2.5-7.6,3.7-8.8,3.4
		c3.7-5.9,5.9-10.3,6.6-13.5c-0.4,0-1.3,0.4-2.6,1.3c-1.3,0.9-2.4,1.2-3.4,0.9c0.2-0.5,0.7-1.5,1.5-2.9c0.6-1.3,1-2.3,1.2-3.2
		c0.5-2.2,0.5-6.3,0.1-12.3c-0.3-5.6,0-9.7,0.9-12.5c1.1-0.7,1.8-3.7,2.1-9.1c-1,0.8-1.5,2.8-1.5,6c-1.1,0.7-1.6,1.7-1.6,2.9
		c-0.1,0.2-0.4,0.2-0.9,0.1c-0.4-0.2-0.6-0.1-0.6,0.3c-0.1,0.8-0.5,2-1.3,3.5c-0.7,1.5-1,2.6-1,3.4c0.4-0.3,0.8-1.1,1.3-2.3
		c0.5-1.2,1-1.9,1.6-2.2c-0.2,2.1-0.1,5.6,0.1,10.7c0.3,4.8,0.2,8.3-0.1,10.7c-0.3,2.2-1.8,5.1-4.5,8.5c1.3,0.2,2.6,0,4-0.6
		c1.5-0.6,2.5-0.9,3.2-0.9c-0.6,1.9-2.8,5.8-6.6,11.9c1.3,0.6,2.7,0.6,4.4,0c2.8-1,4.1-1.4,4-1.3c-0.3,4.9-0.4,7.3-0.4,7.3
		S195.3,211.3,196,212.4z M70.8,104.5c0.2-0.8,1.1-1.6,2.6-2.3c1.8-1,2.9-1.8,3.4-2.3c-0.4-1.7-0.5-4-0.3-6.9
		c-0.4-0.5-1.2-0.9-2.3-1.2c-1.5-0.3-2.4-0.5-2.8-0.6c0.3-0.7,1.1-1,2.5-0.9c2.3,0.1,3.4,0.2,3.2,0.3c2.3-3.2,3.6-5.3,3.7-6.2
		c0.5,0.5-1.7,0-6.6-1.5c0.3-0.8,1.2-1.1,2.8-0.9c2,0.3,3.2,0.3,3.8,0.1c-0.8,0.3,0-1.8,2.5-6.2c-0.1-0.2-0.7-0.2-1.8-0.1
		c-1.1,0.1-1.7-0.1-1.8-0.6c0.5-0.4,1.7-0.8,3.5-1.2c1.6-0.4,2.6-0.9,3.2-1.5c-1.5-1.6-4.4-4.1-8.9-7.6c-1.6-1.3-2.3-2.1-2.3-2.6
		c0.4,0.1,2.9,1.4,7.5,4c0.4,0.2,1,0.5,1.8,0.9c0.9,0.5,1.6,0.9,2.1,1.2c0.2,0.1,0.6,0.3,1.2,0.7c0.6,0.4,1,0.7,1.3,0.9
		c1.1,0.5,1.9,0.2,2.3-0.7c-0.3-2.7-0.1-4.3,0.6-4.8c0.4,0.2,0.6,0.8,0.7,1.9c0,1.1,0.1,1.8,0.4,2.1c3-1.1,5.7-2.5,7.9-4.2
		c0.2-1,0.1-2.2-0.1-3.7s-0.3-2.6-0.1-3.4c1.7,2.1,3.3,3.6,4.8,4.2c0.4-0.1,5.3-2,14.6-5.7c-0.3-0.5-1.1-1.1-2.5-1.8
		c-1.3-0.6-2-1.3-2.2-2.2c0.9,0,2.1,0.4,3.8,1.3c1.7,1,2.8,1.5,3.5,1.5c0.8-0.4,1-1.6,0.7-3.7c-0.3-2.3-0.1-3.8,0.4-4.4
		c0.4,0.5,0.7,1.5,0.9,2.9c0.2,1.7,0.4,2.7,0.7,3.2c1.9-1,5.6-2.6,11.3-4.8c0.1-0.3-0.1-0.9-0.6-1.9c-0.5-0.8-0.6-1.5-0.3-2.1
		c0.9,0.1,1.6,0.7,2.1,1.8c0.6,1.3,1,2,1.3,2.2c1,0.3,2.8,0.9,5.6,1.8c0.4,0,0.6-0.4,0.7-1.3c0.1-0.9,0.3-1.4,0.6-1.6
		c0.4,0.4,0.7,1.2,0.9,2.5c0.2,1.1,0.6,1.7,1.3,1.8c0.4,0,1.3-0.5,2.6-1.6c2,1.1,2.8,1.6,2.5,1.6c0.8-0.7,1.7-1.9,2.8-3.7
		c1.1-1.8,2-2.9,2.8-3.5c0.2,0.9-0.1,2.1-1,3.5c-1,1.8-1.5,3.1-1.6,4c2.1,0.9,3.9,1.2,5.1,0.9c0.7-0.2,1.5-0.9,2.5-2.1
		c0.9-1.2,1.7-1.8,2.3-1.8c0,0.7-0.2,1.3-0.7,1.9c-0.6,0.6-0.9,1.1-0.9,1.6c0.5,0.3,2.7,0.4,6.7,0.3c0.2,0,0.6,0.1,1.3,0.1
		c0.5,0.1,0.9,0.1,1.2,0c0.7-0.2,1.5-0.9,2.3-2.1c0.9-1.1,1.6-1.7,2.2-1.8c0.2,0.6-0.1,1.3-0.7,2.1c-0.8,0.8-1.2,1.4-1.3,1.9
		c3.8,0.8,6.5,1,8.2,0.6c0.6,0.5,1.7,0.8,3.4,1c1.7,0.3,2.8,0.6,3.4,1c1-0.5,2.2-1.4,3.8-2.8c1.7-1.4,3-2.3,4-2.8
		c-0.3,1-1.2,2.1-2.6,3.5c-1.7,1.6-2.7,2.7-3.1,3.4c0,0.3,0.7,1.2,2.1,2.8c0.5,0,1.3-0.1,2.5-0.4c1.1-0.2,1.9-0.2,2.5,0
		c-0.3,0.4-0.9,0.7-1.8,1c-1.1,0.4-1.7,0.7-1.9,0.9c0.6,1.9,1.8,3.5,3.5,4.8c0.6-0.1,1.4-0.6,2.5-1.5c1-0.9,1.8-1.3,2.5-1.3
		c-0.3,0.8-0.9,1.5-1.8,2.1c-1,0.8-1.6,1.4-1.9,1.8c1.7,2.4,2.6,3.9,2.9,4.4c1-0.4,3.1-1.3,6.3-2.6c2.5-1.2,4.7-2,6.6-2.3
		c-0.4,0.5-2.5,1.8-6.3,3.8c-0.8,0.4-1.9,1-3.2,1.8c-1.5,0.8-2.5,1.4-3.1,1.8c-0.5,2.2-0.3,3.6,0.4,4.1c1,0.1,2.4,0,4.4-0.3
		c1.9-0.2,3.3-0.2,4.2,0c-0.5,0.6-1.6,1.1-3.2,1.5c-1.8,0.4-2.9,0.9-3.4,1.5c0,0.3,0.5,1.6,1.6,4c4.2,0.5,6.1,0.7,5.7,0.6
		c-0.4,0.4-1.1,0.6-2.2,0.7c-1.5,0.2-2.3,0.3-2.6,0.4c0,1.6-0.1,2.5-0.4,2.9c1.2,1.2,2.5,1.7,4.1,1.6c0,0.1,0,0.2,0.1,0.4
		c0.1,0.2,0.1,0.4,0.1,0.6c5.4,2.5,8.3,4,8.6,4.2c-0.7,0-4.4-1-11.1-3.1c-0.7,0.1-1.6,0.7-2.8,1.9c-1,1-2.1,1.5-3.2,1.5
		c0,0.6-0.3-0.8-1-4.1c-0.3-1.4,0.2-2.3,1.6-2.9c0.9-3.8,0.4-6.9-1.5-9.2c0.7,0.5-1.3-1-6-4.5c-2.4-1.8-4.9-2.8-7.5-3.2
		c-0.6,0.4-1.4,0.6-2.3,0.7c0.7,1,2.3,2,5,3.1c2.4,1,4,2.1,4.5,3.4c0,0.4-0.2,0.8-0.6,1.3c-0.3,0.5-0.5,0.8-0.6,1
		c0.7,5.5,1.1,8.1,1.2,7.9c-0.8-1.1-1.9-3.7-3.2-7.8c-1.1-3.3-2.5-5.5-4.2-6.6c-0.2-0.1-0.5-0.2-0.9-0.3c-0.4-0.1-0.7-0.2-0.9-0.3
		c-0.4-0.3-0.9-0.8-1.5-1.6c-0.6-0.8-1-1.3-1.3-1.6c-0.8-0.6-2.6-0.9-5.6-1c-0.6,0.6-0.8,2-0.7,4.1c0.1,2.2-0.1,3.7-0.6,4.4
		c-0.3-0.1-0.6-1.3-0.9-3.5c-0.1-0.7-0.2-1.6-0.4-2.8c-0.3-1.2-0.5-2-0.6-2.5c-1.1,0.1-2.8-0.1-5.1-0.7c-1.9-0.5-3.2-0.5-4.1-0.1
		v5.6c-1.1,0.1-1.8-0.5-2.1-1.8c-0.5-1.9-0.8-2.8-0.9-2.9c-4.2,1-10.2,2.1-18,3.2c-9.2,1.4-15.4,2.4-18.6,3.1
		c-0.4,0.1-1,0.3-1.9,0.6c-0.8,0.4-1.4,0.6-1.8,0.7c-0.5,0.1-1.2,0.2-2.2,0.3c-0.9,0-1.6,0.1-2.1,0.1c-7,1.6-11.4,2.6-13.2,3.2
		c-0.2,0.7-0.5,2.4-1,5.1c-0.4,2.2-0.8,4-1.3,5.1c-0.6-0.9-0.7-2.5-0.4-4.8c0.4-2.5,0.4-4.2,0.1-5.1c-2.8-0.2-5,1.2-6.4,4.2
		c-0.3,0.8-0.8,2.1-1.5,4.1c-0.7,1.8-1.3,3.1-1.8,4c-0.7-0.9-0.6-2.3,0.1-4.4c0.9-2.4,1.2-4,1-4.7c-3.3,1.5-5.4,3-6.3,4.5
		c-3.4,1.3-6.3,3.5-8.5,6.7c-1.9,2.7-1.8,5.3,0.3,7.6c1.1,1.2,3.5,2.8,7.3,4.8c0.8,3.1-0.1,5.1-2.6,6c0.1,0.3,0.4-0.6,1-2.6
		c-0.3-0.7-1-1.3-2.1-1.9c-1,0.7-2.3,2-4,3.8c-1.6,1.8-2.9,2.9-4.1,3.5c0.5-1.2,1.5-2.6,3.1-4.4c1.5-1.8,2.5-3.2,3.1-4.2
		c-0.4-0.4-1.2-1.2-2.5-2.5c-1.1-1-1.9-1.9-2.3-2.6c-0.6,0.2-1.2,0.8-1.8,1.9c-0.7,1.1-1.3,1.8-1.9,2.1c-0.3-0.7-0.2-1.4,0.3-2.2
		c0.6-1,0.9-1.6,0.9-1.9c-0.7-0.2-1.6,0-2.8,0.6C72.3,104.2,71.3,104.5,70.8,104.5z M85,88.5c0.1-0.1-0.6,0.2-2.2,1
		c-0.8,0.4-1.2,1-1.3,1.8c1.5-0.7,3.8-2.1,7-4.4c3.1-2.1,5.5-3.6,7-4.2c3.6-1.8,8.8-3.3,15.5-4.7c10-2,15.5-3.1,16.7-3.5
		c0.6-0.9,0.7-2.1,0.4-3.7c-0.2-1.6-0.8-2.4-1.8-2.6c-1.4,0.1-2.3,0.1-2.9-0.1c-1.8,0.8-4.7,1.7-8.8,2.8c-4,1.1-6.9,2.1-8.8,2.9
		c0.1-0.1,0,0.5-0.3,1.8c-0.2,0.7-0.7,1-1.5,0.9c-0.1-0.1-0.1-0.5-0.1-1.2c0-0.6-0.2-0.9-0.6-0.9C93.4,78.7,87.2,83.4,85,88.5z
		 M93.7,70.9c-6.5,1.7-10.3,6.2-11.1,13.5c1.7-0.9,3.6-2.1,5.7-3.8c2.9-2.3,4.7-3.7,5.4-4.1c0.5-0.4,1.3-0.8,2.5-1.3
		c1.2-0.5,2.1-0.9,2.6-1.3c0.6-0.5,1.5-1.4,2.8-2.8c1.4-1.6,2.4-2.6,3.1-3.2c3.4-3,5.7-4.7,6.7-5l4-1.2c0.1,0.5,0.5,1.1,1.3,1.8
		c0.8,0.7,1.2,1.4,1.2,2.2c-0.7-0.1-1.5-0.4-2.3-1c-1-0.7-1.7-1.1-2.2-1.2c-2.5,1.3-3.4,3-2.5,5.3c1.6-0.7,4.2-1.5,8.1-2.3
		s6.5-1.7,8.1-2.3c0.2-0.1,0.5-0.3,0.9-0.6c0.3-0.2,0.5-0.3,0.7-0.4c5.3-1.9,7.7-2.6,7.3-2.3c0.7-0.5,1.3-1.6,1.8-3.4
		c0.5-1.6,1.2-2.5,2.2-2.9c0.1,0.5,0,1.3-0.3,2.3c-0.4,1.2-0.5,2.1-0.4,2.8c0.6-0.1,1.9-0.2,4-0.4c2.1-0.2,3.6-0.4,4.5-0.6
		c0.5-0.8,1-2.2,1.6-4.4c0.8,0.3,1.8,0.2,2.9-0.3c-1.9,0.3-4-0.2-6.4-1.5c-2.7-1.5-4.7-2.2-5.9-2.3c-3.5-0.2-6.3,0.9-8.3,3.2
		c-0.4,0-0.9,0.2-1.6,0.7c-0.6,0.4-1.2,0.6-1.9,0.6c-1.3,1.9-3.4,3.2-6.4,4c-0.2,0.1-0.5,0.1-0.9,0c-0.3,0-0.5,0-0.7,0
		c-0.2,0-0.4,0.1-0.7,0.4c-0.4,0.2-0.7,0.3-0.9,0.4c-0.5,0.1-1.3,0.2-2.3,0.3c-1,0.1-1.7,0.2-2.1,0.4c-2,0.8-5.3,2.7-10,5.7
		c-4.2,2.7-6.3,4.1-6.3,4.1S96.4,70.2,93.7,70.9z M89.4,191.2c0.1-0.1,0.2-0.7,0.3-1.9c0.1-0.8,0.4-1.2,1-1.2
		c0.1,0.2,1.6,4,4.5,11.4c-0.1-5.5-0.5-9.3-1.3-11.4c-0.2-0.6-0.6-1.4-1.2-2.3c-0.8-1.2-1.3-2-1.5-2.3c-1-2.1-1.2-4.1-0.7-6
		c0.8,0.3,1.5,1,2.2,2.1c0.8,1.4,1.4,2.2,1.9,2.5c0.2-2-0.5-4.1-2.1-6.6c-1.8-2.5-2.6-4.7-2.6-6.6c-0.1-0.2-0.2-0.3-0.4-0.3
		c-0.7,3.1-1.5,5.4-2.5,6.7c0.3,0,0.6-0.1,1-0.4c0.3-0.3,0.7-0.4,1.2-0.3c0.1,1.5-0.2,3.3-1,5.6c-1,2.8-1.5,4.5-1.6,5.1
		c1.7-0.9,2.5-1.3,2.6-1.2C89.6,189.2,89.6,191.6,89.4,191.2z M89.2,144.5c-2.5,3.9-3,7.3-1.5,10.3c1.3-0.9,1.7-1.4,1.2-1.5
		c1,0.6,1.4,2,1.2,4.2c-0.2,2.4,0,4,0.6,4.5c0.1-0.1,0.1-0.3,0.1-0.6c0.1-0.3,0.1-0.5,0.1-0.7c0.1-0.4,0.4-0.5,0.9-0.4
		c0.8,0.8,1.4,2.2,1.9,4.2c0.5,2.3,1,3.9,1.5,4.5c0.2-0.2,0.2-0.8,0-1.8c-0.1-0.9,0.1-1.4,0.6-1.6c0.6,0.5,1.3,1.2,2.2,2.1
		s1.6,1.5,2.1,1.9c-0.3-1.2-1.4-3.7-3.2-7.5c-1.5-2.9-2.2-5.8-2.2-8.5c-0.1,0.1-0.2,0.4-0.4,0.9c-0.1,0.5-0.3,0.7-0.7,0.7
		c-2.5-5.3-3.9-8.8-4-10.7C89.5,144.4,89.4,144.4,89.2,144.5z M89.4,221.2c0-0.2,0,0,0.1,0.4c-0.2,2.3-0.1,3.6,0.3,3.8
		c0.2-2,0.5-4.1,0.9-6.3c-0.6,0.2-1.2,0.6-1.8,1.2c-0.8,0.8-1.4,1.3-1.8,1.5c0.3,0.1,0.6,0,1-0.3C88.5,221.2,88.9,221.1,89.4,221.2z
		 M89.2,85.4c0.1-3,1.5-4.7,4.1-5C92,83.1,90.7,84.7,89.2,85.4z M89.5,225.6l-0.1,1.5c0.3,0.1,0.4-0.1,0.4-0.6c0-0.6,0-0.9,0-0.9
		S89.7,225.6,89.5,225.6z M90.4,231c0.3-0.4,0.9-1.5,1.8-3.4c0.6-1.4,1.4-2.2,2.3-2.6c0.2-0.7,0.2-1.2,0.1-1.6
		c-1,0.3-1.9,1.2-2.6,2.6c-0.9,1.6-1.7,2.5-2.5,2.9C89.8,230.2,90.1,230.8,90.4,231z M103.6,68.6c-4.3,3.7-6.6,5.6-6.9,5.7
		c-0.6,0.2-1.5,0.7-2.6,1.6c-1.1,0.7-2,1.1-2.8,1.3c0.3-1.5,1.2-3.5,2.8-6.2c0.3-0.1,0.6-0.2,1-0.3c0.5-0.1,0.8-0.2,1-0.3
		c1.8-0.5,4-1.7,6.6-3.5c2.7-1.9,4.9-3,6.6-3.5C108.9,63.9,107,65.7,103.6,68.6z M102.8,244.9c1.6,1.8,2.9,2.6,4,2.6
		c-2.2-7.6-3.3-13.1-3.2-16.6c0-0.2,0.2-0.3,0.6-0.4c0.3,0,0.4-0.1,0.4-0.4c0-0.9-0.1-1.5-0.3-1.9c-0.5,0.3-0.9,2.2-1.2,5.9
		c-0.1,1.9-0.1,3.2,0,4.1c0.2,1.2,0.6,2.6,1.3,4.4c0.7,1.8,1,2.9,1,3.5c-0.9,0-2-0.9-3.2-2.8c-2.9-3.9-4.7-9.3-5.3-16.1
		c-0.6,0.5-1,1.6-1.3,3.2c-0.4,1.9-0.8,3-1.3,3.5c-0.3-0.3-0.4-0.9-0.4-1.9c-0.1-1-0.2-1.6-0.4-1.9c-0.7,3.4,0.2,5.7,2.6,6.9
		c-0.4-2.9-0.1-4.8,0.9-5.7c-0.3,0-0.1,0.1,0.4,0.3v0.3C97.5,237,99.3,241.3,102.8,244.9z M94.6,122.5c-0.6,1.9-0.9,2.7-0.9,2.6
		c1.6-1,2.4-1.5,2.5-1.5c-0.3,4.7-0.9,8.1-1.8,10.3c0.6-0.1,1.2-0.6,1.8-1.5c0.5-0.9,1.1-1.4,1.8-1.5c0.2,1.1,0.2,2.4,0,4.1
		c-0.2,1.8-0.2,2.8-0.1,3.2c2.2-2.1,3.3-4.9,3.1-8.6c0-1.5-0.6-4.8-1.8-10.1c-1.5-7.1-2.1-12.7-1.9-16.8c-0.1-0.1-0.2-0.1-0.4-0.1
		c-0.9,1.8-1.3,5-1.3,9.8C95.5,117.5,95.2,120.8,94.6,122.5z M103.7,78.8c-0.5,0.3-1.3,0.6-2.3,0.9c-1.2,0.4-2,0.7-2.3,0.9
		c-2.6,1.1-4.1,1.6-4.4,1.6c2.2-4.2,5.2-6.6,8.8-7.2C103.5,76,103.6,77.3,103.7,78.8z M100.3,61.3c0,0.3,0,0.7,0.1,1.3
		c0.1,0.6,0.1,1.1,0.1,1.5c-1.7,1.1-2.7,1.7-3.2,1.8C97.7,63.5,98.7,61.9,100.3,61.3z M103.4,203.5c0,0.4,0-1.5,0.1-5.6
		c0.1-2.3-0.3-4-1.3-4.8c0.5,2.6,0.3,5.8-0.6,9.5c-1,4-1.4,7.1-1.3,9.4c0.3,0,0.6-0.3,0.9-1c0.2-0.6,0.6-0.8,1.2-0.7
		c0,5.5,0.6,8.7,1.8,9.7c-0.7-2.9-0.4-6.4,0.9-10.5c1.7-4.9,2.5-8.1,2.5-9.7c0.1-3.2-0.8-6.7-2.6-10.4
		C106.2,195.8,105.8,200.6,103.4,203.5z M105.9,60.8c-1.4-0.4-2.5-1.2-3.5-2.3c2.5-3.4,5.4-6.1,8.6-8.1c5,3.1,7.6,4.9,7.9,5.3
		C111.7,58.1,107.4,59.8,105.9,60.8z M102.5,61.8c-0.1,1,0.2,1.4,1,1.2C104.1,62,103.7,61.6,102.5,61.8z M102.5,72.4
		c0.4-0.2,1.2-0.5,2.5-1c1.1-0.4,1.9-0.7,2.5-1c1.8-0.9,2.4-2.2,1.9-4C106.2,68.2,103.9,70.2,102.5,72.4z M172.6,192.8
		c4.6-6.5,8-10.3,10.3-11.4c0.6-1.2,1.3-2.9,2.1-5.1c1-2.6,1.7-4.4,2.1-5.3c-1.1,1.2-2.5,4-4.4,8.5c0.2-0.1-0.6,0.7-2.3,2.5
		c-0.7,0.4-3.4,3.5-8.1,9.2c-0.6-0.1-1.8,0.2-3.7,1c-1.7,0.7-3.1,0.6-4.2-0.1c-0.3-0.1-0.5,0-0.7,0.1c-0.3,0.2-0.6,0.3-0.9,0.3
		c-2.1-0.9-6.4-0.2-13.2,2.1c-0.7-0.1-1.5-0.4-2.3-0.9c-1.2-0.6-1.9-0.9-2.2-1c-0.1,0.6-0.2,0.8-0.4,0.7c-3.1-0.4-6.4-2.3-9.8-5.7
		c-3.5-3.5-6.6-5.6-9.4-6.2c-0.3-0.3-0.5-0.9-0.7-1.9c-0.2-1-0.4-1.7-0.7-2.1c-0.2,0.1-0.3,0.4-0.3,1c0.1,0.6-0.1,0.9-0.4,0.9
		c0.6,0.1,0.1-1-1.5-3.2c-0.2-0.2-0.5-0.5-1-0.9c-0.5-0.3-0.8-0.6-1-0.9c-0.8-1.9-1.1-2.7-1-2.6c-0.1,0.1-0.1,0.6-0.1,1.5
		c0.1,0.7-0.1,1-0.6,0.9c-0.7-0.3-1.3-2.1-1.8-5.4c-1.2-7.3-2.6-12.4-4.4-15.1c-0.3,0-0.4,0.2-0.4,0.7c-0.1,0.6-0.2,0.9-0.4,0.9
		c-0.7-0.2-1.3-0.9-1.8-2.1c-0.5-1.2-1.1-1.8-1.9-1.9c-0.5-1.9-0.7-3-0.7-3.5c-1.8-3.1-2.6-4.6-2.6-4.5c-0.3-1.6-0.3-5,0-10.3
		c0.4-4.5,0-7.7-1.2-9.5c0.4,15,0.6,22.6,0.6,22.7c1,3.6,3.2,7.8,6.6,12.6c1.6,2.2,3.3,6.3,5.1,12c1.8,5.3,3.6,9,5.6,11.1
		c0.1,0.2,0.3,0.3,0.7,0.4c0.4,0.1,0.6,0.2,0.7,0.3c1,1.9,2.3,2.9,4,3.2c1.3,2.8,1.9,4.6,1.9,5.3c-0.3,2.8-2,5.8-5,8.8
		c-0.2,0.2-0.5,0.4-1,0.7c-0.5,0.3-0.8,0.6-1,0.9c-2.1,2.3-3.9,6.5-5.1,12.5c-0.6,2.8-0.8,4.2-0.6,4c0.5,0.3-0.1-2.1-1.9-7
		c-2.5,4.2-3.9,6.4-4,6.7c-1.4,3.1-1.6,6-0.6,8.5c0.3-6.1,1.7-10.1,4.2-12.2c0.8,3.5,1.9,5.7,3.2,6.4c-0.3-3.9,0.9-9.2,3.5-16
		c4.2-3.9,7.1-7.8,8.8-11.7c3.1,8.4,5.9,14.7,8.2,19c0.2,0.3,0.8,1.2,1.9,2.8c0.7,1.2,1.2,2.1,1.5,2.9c0.2,0.5,0.4,1.3,0.7,2.5
		c0.4,1.1,0.7,1.9,0.9,2.5c0.4,1.1,0.7,2,1,2.6c0.1,0.4,0.2,1.1,0.4,2.1c0.1,1,0.2,1.7,0.4,2.2c0.6,1.1,1.6,1.5,3.1,1.3
		c0.3,0,1-0.1,2.2-0.3c1-0.3,1.8-0.4,2.5-0.4c10.2-0.8,15.6-1.3,16.3-1.6c0,0.1-0.5-3.3-1.6-10.1c0,0.4-0.1-3-0.3-10.1
		c-0.1-3.7-1.1-6.1-3.1-7.2c-1.5-0.9-4.9-1.3-10.3-1.3c-4.8,0-8-1-9.5-2.9c0.1,0,0.7-0.6,1.9-1.8c2.2,1.1,4.8,1,7.6-0.1
		c3.6-1.6,6.2-2.3,7.9-2.2c1.5,0.8,3.3,1.2,5.4,1.2c2.2,0,4-0.5,5.3-1.6c0.2,0,0.4,0.1,0.7,0.4C171.8,192.8,172.2,192.9,172.6,192.8
		z M104.9,96.4c0.4-0.1,0.5,0.1,0.4,0.4c0,0.4-0.1,0.6-0.1,0.7c-0.3,0-0.4-0.1-0.4-0.4S104.8,96.6,104.9,96.4z M104.9,231
		c1.6,2.5,4.4,5.5,8.5,8.8c0-0.3-0.2-0.6-0.6-1c-0.4-0.4-0.6-0.8-0.6-1.2C111.7,237.4,109.3,235.2,104.9,231z M110.3,77.5
		c-0.4,0-1.2,0.2-2.5,0.6c-1.1,0.3-1.9,0.3-2.5,0.1c0-0.6,0.1-1.3,0.4-2.2s0.5-1.6,0.6-2.2c1-0.5,3.3-1.2,7-2.2
		c-0.1,1-0.6,2-1.5,3.1C111,75.8,110.5,76.7,110.3,77.5z M108.7,67.4c0.9,1.4-0.2,2.4-3.2,3.1C105.8,69.6,106.8,68.6,108.7,67.4z
		 M105.8,96c0-0.2,0.8-5.2,2.3-15.1h0.7C108.2,88.7,107.1,93.7,105.8,96z M109.1,229.7c0,1,0.1,1.5,0.3,1.5
		C109.5,230.4,109.4,229.9,109.1,229.7z M135.2,102.7c-0.3,1-1,1.6-2.2,1.8c-1.3,0.3-2.8,0-4.7-1c-2-1.1-3.4-1.6-4.2-1.5
		c-2.4,0.1-5.9,2-10.4,5.7c-0.3,0.2-1,0.8-2.1,1.9c-0.9,1-1.5,1.5-1.9,1.5c0.2-4.7,3.6-8.6,10.3-11.9c4.1-2.1,6.7-3,7.9-2.8
		c0.2,0.4,1.7,1.2,4.5,2.5C134.7,99.9,135.6,101.2,135.2,102.7z M111.6,68c-0.9-2-0.4-3.2,1.5-3.7c1.9-0.4,3.1,0.2,3.7,1.9
		C116.8,66.1,115.1,66.7,111.6,68z M122.5,44.7c0.1,6.3,0.2,9.4,0.3,9.2c-3.8-1.3-7.1-2.7-10-4.4C114.5,47.2,117.8,45.6,122.5,44.7z
		 M129.5,115.5c0-2-0.7-3.1-2.1-3.4c-0.2,0.3-0.3,0.8-0.3,1.5c0.1,0.8,0,1.3-0.1,1.6c-0.7,2.1-2.2,2.7-4.7,1.9
		c-2.3-0.7-3.3-2.1-2.8-4.4c-1.2,0.1-2,0.9-2.3,2.3c-0.4,1.4-0.1,2.4,1,3.1c-3.1-0.8-4.9-1.3-5.4-1.5c0.7-0.6,1.6-1.5,2.6-2.8
		c1.1-1.4,1.9-2.3,2.5-2.8c2.1-2.1,4.6-2.8,7.6-2.3c1.1,0.1,3.1,1.4,6,4c1.6,1.3,2.3,1.8,2.2,1.5c-0.3,0.4-0.9,0.7-1.9,0.9
		C130.6,115.1,129.8,115.3,129.5,115.5z M119.8,65.7c-0.6-0.1-1.3-0.5-2.1-1.3c-0.8-0.8-1.1-1.5-1-2.1c0.1-0.5,1.7-1.6,4.8-3.2
		c3.1-1.6,5.2-2.3,6.2-2.3c0.1,0.6,0.1,1.4,0.1,2.5c-0.1,1.1-0.1,1.9,0,2.5C122.7,64.3,120,65.7,119.8,65.7z M133,110
		c-6.5-1.7-10.4-2.3-11.4-1.9c-0.5,0.1-1.3,0.5-2.3,1.2c-0.9,0.6-1.6,0.9-2.2,0.9c0.2-2,1.4-3.6,3.7-4.8c1.9-1.1,3.4-1.5,4.5-1.2
		c0.3,0,0.7,0.2,1.2,0.7c0.7,0.6,1.2,1,1.5,1.2c0.4,0.3,1,0.5,1.8,0.7c0.8,0.4,1.3,0.6,1.6,0.7C132.4,108.1,133,109,133,110z
		 M122.2,113.4c0.3,0,0.5-0.1,0.7-0.4c0.1-0.4,0-0.7-0.1-0.9h-0.6C121.7,112.5,121.7,112.9,122.2,113.4z M136.1,47.6
		c-1.2,0.3-2.9,0.9-5.1,1.9c-2.1,1-3.9,1.7-5.1,2.1c-1-3.3-1.4-5.6-1.2-6.9c0.9-0.1,2,0.1,3.2,0.6c1.4,0.6,2.3,0.8,2.9,0.7
		c0.5,0,1.1-0.3,1.8-1c0.6-0.7,1.2-1.1,1.8-1.2C135.3,44.4,135.9,45.7,136.1,47.6z M128,67.1c0.1-0.5-0.2-0.7-0.9-0.6
		c-0.7,0.1-1,0.4-0.9,0.9C126.9,67.5,127.5,67.4,128,67.1z M136.4,58.9c-1,0-2.2,0.3-3.7,0.9c-1.8,0.7-2.8,1-3.1,1
		c-0.4-0.3-0.6-1-0.7-2.2c0-1.4-0.1-2.2-0.3-2.5c2-1.1,5.1-1.7,9.5-1.8C138.1,55.3,137.5,56.8,136.4,58.9z M129.2,66.5
		c0.8,0.7,2.6,0.9,5.4,0.6c1.9-0.1,4.9-0.5,9.2-1.2c3.8-0.7,6.8-1.1,8.9-1.2c2.6-2.4,4-3.6,4-3.5c-6.7-1.1-15,0.2-24.8,3.8
		C130.3,65.7,129.4,66.1,129.2,66.5z M140.5,71.1c0.1-2.2,0.2-3.2,0.4-2.9c-6.9,0.5-10.7,0.9-11.4,1.2c0.1,2.5,0.3,4.1,0.6,4.5
		C136,72.6,139.5,71.7,140.5,71.1z M135.2,160.4c-0.7,3.6-0.1,6.6,1.6,8.9c-0.6,1.6-0.1,2.7,1.5,3.4c0.3-0.1,0.4-0.6,0.4-1.5
		c0.1-0.8,0.4-1.1,1-1c0.1,0.3,0.4,0.9,0.9,1.9c0.4,0.9,0.8,1.5,1.3,1.8c0.8-0.3,1.4-0.2,1.9,0.1c1-0.8,1.2-1.2,0.7-1.2
		c1.4,1.4,2.3,2,2.8,1.8c0.5-1,0.5-2.5,0.1-4.5c-0.4-2-0.3-3.5,0.3-4.7c-0.4-0.8-1.4-1.4-2.9-1.8c-1.9-0.4-3-0.7-3.4-1
		c0.9-1.1,2.3-1.5,4.4-1.2c3.6,0.5,5.2,0.7,4.8,0.7c1.4,0,3.3-0.7,5.9-2.2c2.1-1.4,3.9-1.9,5.3-1.5c-0.3,0.4-1.2,1.1-2.6,2.2
		c-1.3,0.9-1.9,1.7-1.9,2.5c-0.1,0.6,0.3,1.3,1.2,2.1c0.9,1,1.4,1.8,1.6,2.3c0.2,0.7,0.3,1.7,0.3,3.1c0,1.2,0.2,2.1,0.6,2.8
		c-0.3,0,0.9-0.7,3.7-2.2c-0.3-0.1-0.2,0.3,0.3,1.2c0.2-0.1,0.7-0.4,1.5-0.9c0.7-0.4,1.1-0.8,1.3-1.3c0.3-0.4,0.5-1.2,0.7-2.3
		c0.2-1.1,0.5-1.9,0.9-2.3c0.5,0.2,0.8,0.7,0.9,1.5c0.2,1.1,0.4,1.7,0.6,1.9c1-0.2,1.4-0.6,1.2-1.2c0-0.1-0.1-0.4-0.3-0.9
		c-0.2-0.4-0.3-0.8-0.3-1.2c-0.2-1.2-0.6-2.1-1.3-2.6c0.5-3.1,0-5.9-1.5-8.3c-0.7-0.4-2.3-1-5-1.8c-0.7-0.2-1.5-0.6-2.5-1.2
		c-1.1-0.5-1.8-0.8-2.2-1c-0.3-0.1-0.7-0.1-1.3-0.1c-0.6-0.1-1-0.2-1.3-0.3c-1.8-0.5-2.5-0.7-2.2-0.7c-0.5,0-1.3,0.2-2.3,0.6
		c-1.2,0.5-2.1,0.7-2.8,0.7c-0.3,0.1-0.9,0.1-1.9,0c-0.9-0.1-1.5-0.1-1.8,0l-2.5,2.6c-0.7,0.8-2,2-3.8,3.5c-1.9,1.5-2.8,2.2-2.8,2.2
		S135.9,159.6,135.2,160.4z M147.2,157.2c-0.4,0.1-1.9,1.1-4.5,2.9c-2.1,1.6-4,1.9-5.7,1c-0.1,0.3,0.8-0.3,2.8-1.9
		c0.6-0.5,1.5-1.6,2.6-3.4c1.1-1.5,2.1-2.4,3.1-2.9c0.7-0.1,1.6-0.1,2.6,0c1.1,0.2,1.9,0.2,2.3,0.1c0.4,0,1.2-0.4,2.3-1.2
		c1-0.5,2.1-0.6,3.4-0.4c0.7,0.2,1.8,0.8,3.2,1.8c1.4,1,2.6,1.5,3.7,1.6c0.3,0.1,0.8,0.1,1.6,0c0.8-0.1,1.5-0.1,2.2,0
		c-0.4,1.6-3.4,2.1-9.1,1.6c-0.4,0-0.9-0.1-1.6-0.3c-0.7-0.2-1.2-0.3-1.5-0.3c-0.4,0-0.9,0.2-1.6,0.7c-0.8,0.5-1.4,0.8-1.8,0.9
		c-0.5,0.1-1.2,0.1-2.1-0.1C148.3,157.3,147.6,157.2,147.2,157.2z M144.6,48.8c-4.2-0.8-6.5-2.5-7-5.1c1.1,0.1,2.4-0.3,4.1-1.3
		c1.5-0.8,2.7-1,3.8-0.7C145.4,45.4,145.1,47.8,144.6,48.8z M157,96.3c-1.3,0.5-2.7,2.6-4.2,6.4c0.9,0.1,2.2-0.4,4-1.5
		c1.9-1.2,3.3-1.8,4.2-1.9c2.3-0.2,4.3,0.3,6,1.6c-7.7-0.1-12.5,3.4-14.2,10.5c0-0.1,1.7,1.1,5,3.5c0-0.1-1.1,0.1-3.2,0.7
		c-2.4,0.8-3.4,2.6-2.9,5.4c0.4,2.3,1.5,4.6,3.4,6.9c0.2,0.3,0.7,0.8,1.5,1.6c0.8,0.8,1.3,1.4,1.6,1.9c1.2,1.5,1.5,2.9,1,4.4
		c-0.1,0.4-0.8,1.1-2.2,2.2c-1.5,1-2.4,1.6-2.9,1.8c-0.9,0.2-2,0.1-3.2-0.3c-1.3-0.3-2.2-0.4-2.9-0.3c-7.4,1.1-10.6,1.9-9.7,2.3
		c0.5-1.1,1.6-2.7,3.2-5c0.6-0.2,1.3,0,2.1,0.4c1.2,0.6,1.9,0.9,2.1,1c1.7,0.3,3.2,0.1,4.5-0.7c1.4-0.8,2.1-1.9,2.3-3.2
		c0.2-1.5-0.4-4.2-1.8-8.2c-2-5.6-3.4-10.6-4.4-15.1c-1-4.7-1.4-7.5-1.2-8.5c0.1-0.6,0.5-1.3,1.3-2.1c0.9-1,1.4-1.6,1.5-1.8
		c0.3-0.5,0.7-1.3,1.2-2.3c0.5-0.9,0.9-1.6,1.2-2.1c0.9-1.3,2.1-2,3.8-2.2c0.3,0,0.8,0.1,1.5,0.1c0.7,0.1,1.2,0.1,1.5,0.1
		c0.5,0,1.5-0.1,3.1-0.4c1.5-0.2,2.7-0.2,3.7-0.1c5,0.4,8.2,2.1,9.7,5.3c-0.6,0-1.6-0.2-3.1-0.6c-1.6-0.5-2.8-0.7-3.7-0.7
		C162,95.3,158.8,95.5,157,96.3z M140,58.9c-0.5-1.9-0.1-3.4,1-4.5c0.7,0.3,1.9,0.4,3.5,0.4c1.8,0.1,3,0.3,3.7,0.6
		c-0.1-0.4-0.4,0.4-0.9,2.5C145.3,58.1,142.9,58.4,140,58.9z M141.6,70.9c0.3,0.2,2.5,0.1,6.7-0.4c-0.4-1.7-1.6-2.6-3.7-2.8
		C142.6,67.5,141.6,68.6,141.6,70.9z M147.8,50c-0.9-3.9-1.2-6.6-1-8.1c0.6,0.1,1.4,0.2,2.5,0.3c1.2,0.1,2,0.2,2.5,0.3
		c-0.5,2.9-1.2,5.4-2.2,7.5H147.8z M171.1,54.8c-7.8-0.8-14.5-0.7-19.9,0.3c-0.6,1.3-0.6,2.3-0.1,3.2c0.8,0,1.9,0.1,3.2,0.3
		c1.6,0.2,2.5,0.3,2.9,0.3c2.3,0.2,4.1-0.2,5.3-1.2c0,0.2-0.1,0.5-0.1,0.9c-0.1,0.3-0.1,0.5,0.1,0.7c0.8,0.2,2.1,0.4,3.8,0.6
		c1.9,0.1,3.1,0.3,3.8,0.6c-0.1,0.3-0.1,0.6,0.1,0.9c0.2,0.3,0.3,0.6,0.3,0.9c-1.2-0.2-2.6-0.3-4.4-0.4c-1.8,0-3,0-3.7-0.1
		c-1.7-0.2-2.3-0.3-2.1-0.4c-0.9,0.2-2,1.2-3.4,2.9l-1.3,2.1c-0.6,0.2-1.8,0.3-3.7,0.3c-1.6,0-2.8,0.3-3.7,0.9
		c0.8,1.7,1.5,2.6,2.2,2.9c0.7-0.3,1.9-0.5,3.5-0.7c1.6-0.3,2.8-0.6,3.7-1c0.2-0.1,0.6-0.4,1.3-0.9c0.5-0.4,0.9-0.6,1.3-0.7
		c0.3-0.1,0.8-0.1,1.6,0c0.7,0,1.2,0,1.6-0.1c0.2-0.1,0.5-0.3,1-0.6c0.4-0.3,0.7-0.4,0.9-0.4c0.4,0,0.9,0.1,1.5,0.3
		c0.7,0.2,1.1,0.3,1.3,0.3c1.3,0.1,3.4,0.1,6.3,0c2.7-0.1,4.8,0,6.2,0.1c0-0.1-1.2-1-3.5-2.6c-0.3-0.2-0.6-0.6-1-1.2
		c-0.4-0.5-0.7-0.8-0.9-1c-0.7-0.5-1.9-1.1-3.7-1.8c-1.5-0.6-2.6-1.2-3.4-1.9c0.2-0.4,0.7-0.9,1.6-1.5c0.7-0.6,1-0.9,1-0.9
		S171,55.4,171.1,54.8z M161.4,56.9c-0.5,1.4-1.9,1.9-4.1,1.5c-3.1-0.5-5-0.6-5.7-0.4c-0.5-1-0.4-1.8,0.1-2.3
		C156,56,159.2,56.5,161.4,56.9z M157.3,44.7c0.3-0.4-0.3,0.7-1.9,3.2c-0.8,1.4-1.8,2.1-2.9,2.1c0.2,0.2,0.2-2.1,0-7
		C153.5,43,155.1,43.6,157.3,44.7z M154,129.4c-0.6,1.4-0.5,2.9,0.3,4.5c0.9,1.8,2.1,2.1,3.5,1C157.5,131.8,156.2,130,154,129.4z
		 M173.1,108.1c0.1-0.1-0.9,0.9-3.1,2.9c-1.3,1.3-2.6,1.8-4.1,1.6c0.3-0.3,0.7-0.6,1.3-0.9c0.9-0.5,1.5-0.8,1.8-1
		c1.4-0.9,2-2,1.9-3.2c-0.1-1.1-0.8-1.8-2.1-2.2c0.2,3.5-0.8,5.4-3.1,5.7c-1.4,0.1-2.5-0.3-3.4-1.2s-1.3-2.1-1.2-3.8
		c-2.2,0.4-3.2,1.8-2.9,4.1c-0.4,0.1-1,0.3-1.9,0.7c-0.7,0.4-1.3,0.6-1.9,0.6c2.6-6.9,6.5-10.1,11.6-9.4c1.4,0.2,2.8,0.9,4.4,2.1
		c1.8,1.3,3.1,2.1,4.1,2.3c0.2,0.5,0,0.8-0.4,1C173.3,108,172.9,108.2,173.1,108.1z M157.3,51c0-0.9,0.2-1.8,0.7-2.6
		c0.6-1.2,0.9-2,1-2.5c1.8,0.1,3.6,0.9,5.6,2.3c-0.4,1.4-1.3,2.3-2.8,2.8C160.5,51.5,159,51.5,157.3,51z M158.3,64.2
		c0.2-1.2,0.8-1.8,1.9-1.9c0.3-0.1,1.6,0,3.8,0.1c8.1,0.7,13.2,1.7,15.2,2.9c-0.3,0.4-1.5,0.5-3.7,0.4c-0.6,0-1.8,0-3.7,0
		c-1.7,0.1-2.9,0.1-3.8,0c-0.9-0.1-2.5-0.4-4.8-0.9C161.4,64.4,159.7,64.2,158.3,64.2z M164.4,106.5c0.2-0.3,0.3-0.6,0.3-1
		c-0.4-0.4-0.8-0.4-1.2,0C163.4,106.2,163.7,106.5,164.4,106.5z M166,51.7c-0.3-0.4-0.3-0.9-0.1-1.5c0.2-0.5,0.5-0.8,1-0.9
		c3.1,1.1,4.7,1.9,4.7,2.3C168.1,51.6,166.3,51.6,166,51.7z M171.1,148.1c-1.2-0.1-1.8-0.7-1.9-1.9c0.6,0,1.1,0.2,1.6,0.6
		C171.2,147.3,171.3,147.7,171.1,148.1z M184.4,55.4c-3.8-0.6-6.3-0.9-7.3-0.9c-2.6,0.2-4.2,1.3-4.5,3.2c3.4,3,7.4,4.9,12,5.6
		C184.8,62.6,184.7,60,184.4,55.4z M173.3,57.4c1-2.2,2.7-2.9,5.1-2.1c2,0.7,3.7,2,5.1,4c1,1.2,1.2,2.2,0.6,3.1
		C179.7,61.9,176.1,60.3,173.3,57.4z M182.5,71.7c0.2,1.4,1,3.2,2.5,5.4c1.5,2.2,2.3,4.2,2.5,5.9c0.1,0.4,0.1,1,0,1.8
		c-0.1,0.8-0.1,1.3-0.1,1.6c0,4.4,1.2,8.1,3.7,11.1c0,0.3-0.2-1.6-0.6-5.7c-0.2-2.5,0.2-4.2,1.2-5.1c0.6,2.2,1.2,3.5,1.9,3.7
		c-0.5-7.1-1.2-11.3-2.2-12.6c-0.7-0.9-2.1-1.9-4.4-3.1C184.6,73.3,183.1,72.3,182.5,71.7z M192.5,69.3c-3-1.9-5.4-2.8-7.2-2.8
		c0.6,1,1.7,1.8,3.2,2.3C190,69.5,191.3,69.6,192.5,69.3z M198,67c-0.6-0.7-1.4-1.8-2.5-3.4c-1.1-1.5-1.9-2.5-2.5-3.2
		c-2.1-2.4-4.4-3.9-7.2-4.4c0,0.9,0.5,3.6,1.5,8.1c0.8,0.4,1.9,0.9,3.4,1.5c1.6,0.6,2.7,1,3.4,1.3c0.2,1.1,0.8,1.6,1.8,1.6
		C196.9,68.4,197.7,67.9,198,67z M246.4,176.2c0.3,0,1,0.3,2.1,1c0.9,0.5,1.7,0.7,2.3,0.6v72.1h-63.7c-0.3-1,0-2.7,1-5.1
		c1.8-4.2,3.2-7.2,4.2-8.9c3.7-6.2,7.1-11.6,10.3-16c0.5,0.1,1,0.5,1.6,1.3c0.5,0.8,1.1,1.2,1.8,1.3c-1.1-6.1-1-9.9,0.3-11.6
		c0.8,0.1,1.6,1.2,2.3,3.2c0.9,2,1.4,3.3,1.5,4.1c0.4,3-0.3,7.5-2.1,13.3c1.6-0.4,3-1.1,4.4-2.2c2.7-2.1,3.9-3.1,3.5-2.9
		c0.2,7.6-2.7,14.6-8.6,20.8c2.2,0.7,5.3-0.2,9.2-2.6c6.8-4.2,11.1-10.3,12.7-18.2c0.8,1,0.9,2.3,0.3,4.1c-0.2,0.6-0.5,1.3-0.9,2.2
		c-0.5,0.9-0.8,1.5-0.9,1.9c1.6-0.6,3.1-1.9,4.5-4c0.2-0.2,0.4-0.2,0.7,0c0.3,0.3,0.5,0.4,0.7,0.4c3-4,4.9-7.3,5.7-10
		c0-0.1,0-0.5,0.1-1.2c0-0.5,0.1-0.9,0.3-1.2c0.1-0.4,0.4-0.8,1-1.2c0.5-0.5,0.8-0.8,0.9-1c1.8-2.8,1.8-6.5,0.1-11
		c-0.4-1.2-1.6-3.3-3.7-6.4c-1.8-2.6-2.7-5-2.9-7c0.5,0.3,1.4,1.1,2.8,2.3c1.2,1,2.2,1.6,3.2,1.9c0.1-0.8-0.3-1.8-1.2-3.1
		c-1-1.4-1.4-2.4-1.3-3.1c0.4-0.2,0.8-0.1,1.3,0.1c0.6,0.4,1.1,0.5,1.6,0.4c-0.3-0.6-0.8-1.3-1.6-2.1c-0.7-0.7-1.1-1.4-1.3-2.2
		c-0.2-0.5-0.2-1.2-0.1-2.2c0-1.2-0.1-2-0.1-2.5c0.2,1-2.8-2.6-9.1-10.7c2.7-1.1,5.2-0.8,7.5,0.9c3.5,2.4,5.5,3.8,5.9,4
		c0.4,0.1,1,0.1,1.8,0C245.4,176.1,246,176.2,246.4,176.2z M201.1,72.1c0.1-1.3-0.4-2.2-1.5-2.9c-1.1-0.6-1.8-0.1-2.1,1.3
		C199.3,71.9,200.4,72.4,201.1,72.1z M203.8,133.9c1.4,3.3,1.8,6.8,1.3,10.5c-1.7,12-2.8,17.3-3.5,16c-0.2,0.5,0.1-0.8,0.9-3.8
		c0.3-1.5,1-2.3,2.1-2.5c-1,2.9-1.2,6.3-0.6,10c0.6,3.6,1.7,6.3,3.4,8.2c-0.9-6.9-1.3-11.1-1.2-12.6c0.1-1.3,0.3-3.1,0.6-5.6
		c0.4-2.4,0.6-4.2,0.7-5.4c0.3-4.3-0.2-7.7-1.5-10.3v-1.2c-0.3-0.2-0.6-0.8-1-1.8C204.5,134.7,204.1,134.2,203.8,133.9z
		 M206.2,100.5c3,2.7,4.8,4.8,5.4,6.2c-3.6-2.6-5.5-4.7-5.7-6.2H206.2z M209,91.7c-0.6-0.5-1.2-0.6-1.9-0.3c-0.8,0.3-1.1,0.8-1,1.6
		c0.1,0,0.2,0.1,0.4,0.4C208,93.2,208.8,92.6,209,91.7z M212.3,161.6c-0.1,0-0.2,0-0.3-0.1c-0.1,0-0.2,0-0.3,0c0.1,4.4,1,8.4,2.8,12
		c0.2,0.4,0.8,1.2,1.8,2.5c0.7,1,1.1,1.9,1.2,2.6c0.2,0.1-1.7-2.1-5.6-6.7c-0.2,2.4,0.8,6,2.9,10.5c5.1,10.7,7.7,18.2,7.9,22.3
		c0.4,0,0.6-0.4,0.6-1.3c0-0.8,0.2-1.2,0.6-1.2c0.5,0.2,0.8,1.3,1,3.4l1,10c3.1-4.5,3.6-10.7,1.3-18.8c-0.1-0.6-0.5-1.5-1.3-2.8
		c-0.6-1-0.9-1.8-0.9-2.5c0.8,0.2,1.5,0.9,2.2,2.1c0.8,1.1,1.5,1.8,2.1,2.1c-0.9-4.9-3.6-10.6-8.1-17.3c-4.9-7.1-7.3-10.7-7.3-10.7
		S213.3,165.6,212.3,161.6z"/>
</g>
</svg>
