<?xml version="1.0" encoding="utf-8"?>
<!-- Generator: Adobe Illustrator 21.1.0, SVG Export Plug-In . SVG Version: 6.00 Build 0)  -->
<svg version="1.1" id="Layer_1" xmlns="http://www.w3.org/2000/svg" xmlns:xlink="http://www.w3.org/1999/xlink" x="0px" y="0px"
	 viewBox="0 0 825 825" style="enable-background:new 0 0 825 825;" xml:space="preserve">
<style type="text/css">
	.st0{fill:#FFFFFF;}
</style>
<path d="M368.6,84.5c3.4-2,7.5-2.3,11.3-2.1c-0.3,7.8-0.3,15.8-2.6,23.3c-9.4-1.6-20.7-6-22.8-16.5
	C359.6,89.4,364.2,86.9,368.6,84.5z"/>
<path d="M383.9,83.6c5.4,0.8,10.9,0.9,16.2,1.9c-1.6,8.2-3.6,16.3-7,23.9c-2,0-3.9,0-5.8,0C385.7,100.9,383.5,92.3,383.9,83.6z"/>
<path d="M402.4,86.6c5.5,1.2,10.6,3.6,15.7,5.8c-4.2,5.7-6.3,13.9-13.4,16.8c-0.4-0.1-1.1-0.3-1.5-0.4
	C402.4,101.5,402.9,94,402.4,86.6z"/>
<path d="M330.9,96.6c5.9,1.2,8.4-5.6,13.2-7.3c4.2,2.8,5.2,7.9,6,12.5c-11.4,3.1-21.7,9.2-33,12.7c-2-7.3-4.2-14.6-3.8-22.2
	C319.6,91.9,325,95.4,330.9,96.6z"/>
<path d="M352.7,102.1c-0.8-4.4-5.1-8.2-3.2-12.8c6.3,1.4,7,8.5,10.6,12.8c6.3,2.2,12.6,4.2,19,6c1.7-3.1,0.8-7.2,3.5-9.7
	c2.6,4,1.6,9.5,4.9,13c3.8,2,7.1-2.5,10.1-4.4c2.9,1.5,5.7,3.2,8.5,4.9c6.9-6.9,10-16.7,17.6-22.9c0.4,9-7.3,15.5-8.7,24.1
	c5.1,2.1,10.6,3.6,16.2,2.8c6.9-2,8.8-11.1,16.1-12.4c-0.3,4.6-4.4,7.4-5.8,11.6c8.1,1.7,16.4,0.2,24.6,1.1c1.7,0.1,3.5,0.9,5.2,0.2
	c6.3-2.4,8.1-10.7,15-12.3c0.1,5.4-5,8.2-7.3,12.5c8.6,2.1,17.6,3.6,26.4,2.2c6.7,3.9,15,2.8,21.8,6.3c8.9-5,15.6-13.2,24.8-17.8
	c-3.6,9.4-13.6,14.1-18.4,22.6c1.8,3.2,4.3,5.8,6.7,8.6c5.3-0.8,10.7-2.9,16.1-1.6c-3.4,3.1-8.1,3.9-12.1,6
	c2,6.3,6.3,11.4,11.2,15.6c6.2-1.6,9.7-8.5,16.3-9.1c-2.4,5.5-8.4,7.8-11.9,12.3c3.1,4.6,6.3,9.2,9.4,13.9c8.4-3.5,16.8-7,25.1-10.7
	c5.2-2.1,10.5-4.2,16.1-5.1c-12.4,9.2-27,14.9-40,23.3c-1.4,4-2.2,9.5,0.8,13c9.4,0.9,18.6-2.5,28-1.1c-5.4,6.2-15.7,3.8-21,9.9
	c1.1,4.2,3.1,8.2,5,12.1c5.9,1.5,12.3,1.1,18.3,2.6c-4.7,2.4-10.2,2-15.2,3.3c-0.3,3.2-0.6,6.5-1.4,9.7c3.5,3.3,8.1,5.1,12.9,5.1
	c0.3,1,0.6,2,1,3.1c9.2,4.6,18.8,8.5,27.6,13.7c-12.2-2.5-24.1-6.5-36.1-10c-7,2.8-10.9,11.2-19.2,11.1c-1.1-5.5-3-11-3.1-16.7
	c0.1-3.2,3.3-4.8,5.4-6.7c1.7-6.9,1.9-14.4-0.6-21.2c-1.4-3.5-3.1-7.2-6.4-9.3c-12.6-9.1-24.5-20.7-40.5-23.1
	c-2.5,1.2-5.1,1.9-7.8,2.6c6.9,7.7,18,8.8,25.9,15c1.9,1.5,3.9,3.3,4.4,5.7c-0.6,2.7-2.5,4.7-3.8,7.1c1.6,8.6,1.5,17.5,4.3,25.8
	c-0.7-0.5-1.2-1.2-1.6-2c-5.3-9.8-7.8-20.7-12.2-30.9c-2.9-6.1-6.9-13-14-14.6c-6.6-1.6-7.6-10.6-14.1-12.5
	c-4.9-1.4-9.9-1.7-14.9-1.8c-3.9,7-0.9,15.3-2.5,22.8c-0.5,1.4-0.3,3.6-2.1,4.2c-2.8-9-2.8-18.7-5.6-27.8c-7.5,0.1-14.7-2.4-22-3.7
	c-2.5-0.5-5.1-0.1-7.5,0.6c0,6.1,0,12.2,0,18.3c-2.1-0.6-4.7-1.1-5.5-3.4c-1.6-3.9-2.2-8.1-3.7-12c-34.4,7.8-69.6,11.5-104.3,17.7
	c-6.8,1.3-13.8,2.1-20.1,5c-3.9,2-8.4,2.5-12.8,2.6c-4.6,0-9,1.4-13.5,2.3c-11.2,2.7-22.6,4.9-33.6,8.5c-3.2,10.8-3.5,22.4-7.6,32.9
	c-4.8-10.2,1.2-21.4-0.7-32c-8.9-1.2-17,5.1-20.5,13c-3.7,8.8-5.9,18.2-10.9,26.4c-3.1-5.7-0.1-11.9,1.8-17.5
	c1.3-3.8,2.2-7.8,2.5-11.8c-7.8,3.3-15.6,7.6-20.7,14.5c-11.6,4.7-21.8,13.1-28.3,23.9c-3,5-3.9,11.6-1.1,16.9
	c2.3,5.1,7,8.5,11.5,11.5c4.9,3.3,10.1,6.1,15.3,9c1.1,4.6,1.6,9.9-1.2,14c-1.8,2.8-5,4.1-7.6,5.8c2-2.6,2.7-5.9,3.4-9
	c-1-2.8-3.8-5.1-6.7-5.8c-9.4,6.8-15.3,17.7-25.7,23.3c4.8-10.4,14.3-17.7,19.8-27.7c-5.1-5.6-11.1-10.5-15.7-16.5
	c-5,3.4-6.2,10.1-11.8,12.9c-1.3-5.2,2.8-9,4.3-13.5c-6.6-0.7-11.8,4.6-18.3,5c1-2.1,2.4-4,4.4-5.2c5-3.2,10.7-5.6,15-9.9
	c-1.5-7.4-1.3-15-0.9-22.5c-4.9-3.6-11.1-3.8-16.8-5.3c4.5-4.9,11.7-2.2,17.4-2.1c1.6,0.6,2.3-1.4,3.2-2.3c3.6-5.1,7.2-10.3,9.7-16
	c-7.2-1.6-14.3-3.5-21.3-5.7c1.1-1.3,2.4-2.8,4.3-2.8c5.2-0.5,10.4,1.1,15.6,1.1c1.9-7.4,6-13.8,9.4-20.5c-3.9-0.6-8.5,1.1-11.8-1.6
	c6.6-4.6,16-3.2,22.1-8.9c-7.4-7.1-15.2-13.6-23.2-19.9c-4.8-3.9-10.2-7.4-13.4-12.9c9.9,4.1,18.8,10,28.3,14.7
	c5.3,2.6,10.4,5.7,15.3,9.1c2.5,1.9,6.6,1.9,8.1-1.1c0.3-5.4-1.2-11.3,1.7-16.3c4.2,3,1.9,8.8,3.9,12.9c9.2-3,17.9-7.7,25.6-13.6
	c1.2-7.6-2.2-14.9-1.2-22.5c4.5,5.2,9.1,10.8,15.5,13.6c15.8-5.6,31.3-12.2,47-18.2c-4.5-5.2-13.1-5.7-15.5-12.8
	c8.9,0.7,15.5,7.6,24,9.3c0.8-1.2,1.9-2.3,2.1-3.8c1.2-7.4-2.5-15.5,1.3-22.5c3.7,6.1,2.5,13.6,5.1,20
	C328.1,111.9,340.4,107,352.7,102.1z"/>
<path d="M275.4,107.9c7.5-9.4,19.6-13.2,30.9-15.4c0.3,9.8,0.5,19.7,1,29.5C296.3,118.3,285.5,113.8,275.4,107.9z"/>
<path d="M423.4,96.2c6.7,0.4,12.9,3.6,18.1,7.6c-1.5,3.5-3.9,6.8-7.6,8.2c-5.1,2.3-10.9,2-16.2,0.7
	C417.6,106.7,422,101.9,423.4,96.2z"/>
<path d="M445.2,114.9c-1.7-2.8-0.2-8.1,3.7-7.2c5.1,1.9,10.8,3.3,14.7,7.3C457.5,115.3,451.3,114.1,445.2,114.9z"/>
<path class="st0" d="M335.6,119.4c7.1-7.9,18.4-11.5,28.8-9.7c12.3,3.2,22.5,13.2,35.9,12c-2.6,1.3-5.5,1.2-8.3,0.9
	c-1.3,4.8-2.8,9.6-5.1,13.9c-9,1.5-18.1,1.9-27.2,3.2c-0.1-5.7,2.9-10.9,2.6-16.6c-8.2,3.5-6.7,14.1-12.2,20
	c-7.5,1.7-14.6,4.6-21.9,7c-3.6,1.1-6.3,4-9.9,5.1c-16,5.7-33.1,7.7-48.9,13.8c-0.7-2.7-1.5-5.5-0.4-8.2c1.3-4.1,5-6.5,8.5-8.6
	c1.7,0.8,3.4,1.5,5,2.4c-3.8,0.1-8.2,0-10.9,3.2c-2.1,2.6-0.8,6.2,0,9c5.6-1.9,11.1-4,16.8-5.8c-0.7-1.2-1.5-2.5-2.2-3.7
	c2,0.9,4,1.6,6.1,2.2c-0.4-1.4-0.4-3.2-1.9-4l-0.5-0.5c-0.2-0.4-0.5-1.4-0.7-1.8c-2.2-1.9-3.8-4.4-5.8-6.4
	c-6.3,2.2-13.7,2.6-18.6,7.6c-0.5-0.7-1-1.4-1.4-2.1c-3.9,1.7-7.8,3.4-11.4,5.6c-7.2,4-13.6,9.6-21.1,13.1c2.4-2.1,5.1-3.6,7.7-5.4
	c12.7-8.1,25.1-16.7,38.7-23.2c6.7-3.5,15-1.1,21.2-5.8c9.8,0.2,19.6-4.8,25.7-12.5C328.5,123.6,331.7,120.7,335.6,119.4z"/>
<path d="M242.3,136.4c7.6-10.2,16.8-19.2,27.7-25.8c8.5,5.6,17.4,10.7,25.4,17c-14.2,5-28.7,9.6-42.2,16.4
	C248.9,142.6,245.1,139.9,242.3,136.4z"/>
<path class="st0" d="M398.1,125.7c21.1-3.6,42.6-2.9,63.8-1c-0.2,5.3-6.9,6.1-9,10.4c6.5,5.9,15.9,6.8,22.8,12.1
	c3,3.7,5.9,7.5,10.3,9.7c-15.8-5.1-32.4-6.8-48.9-7.9c0.6-0.6,1.3-1.2,1.9-1.8c7-0.1,14,0.5,20.9,1.5c-0.6-2-1.1-4-1.6-6
	c-8-1.8-16.2-1.7-24.2-3.4c0-1.7-0.1-3.4,0-5.1c-2.7,1.7-5.8,3.2-9,3.5c-9.3,0.9-18.5-1.4-27.7-2
	C396.1,132.4,396.8,128.9,398.1,125.7z"/>
<path d="M326.3,128.7c9.5-4.5,20.1-5,30.4-5.4c-0.8,5.2-3.2,10-5.7,14.6c-7.8,0.2-14.5,4.6-22,6.3
	C326.3,139.4,327.3,133.9,326.3,128.7z"/>
<path d="M362.5,137.9c-1.5-5-0.4-10.6,3.1-14.5c7.5,2.1,15.4,0.9,23,2.7c-1.1,2.7-1.8,5.6-2.5,8.4
	C378.2,135.5,370.3,136.6,362.5,137.9z"/>
<path class="st0" d="M466.4,134c1.3-5.8,6.8-9.5,12.5-9.9c8.6-0.6,17,1.6,25.5,2.5c0.8,8.4,0.5,16.8,0.6,25.2
	C490.7,149.9,477.2,143.6,466.4,134z"/>
<path d="M468.6,133.1c1.9-4.1,5.5-7.9,10.4-7.7c10.1,0.5,18.5,7.7,24,15.7c1.8,2.4,1.2,5.4,0.9,8.2
	C490.8,147.9,477.9,142.6,468.6,133.1z"/>
<path d="M399.8,126.9c10.5,1.4,21,2.7,31.5,4.3c-1.5,3.2-4.7,5.4-8.3,5.2c-8-0.2-15.9-2.6-24-2C398.6,131.8,398.2,129.1,399.8,126.9
	z"/>
<path class="st0" d="M509,128.5c7,1.4,13.6,4.8,18.7,9.7c7.9,7.5,13.3,17.1,20.2,25.6c-1.4,2.1-3.1,4.3-5.9,4.4
	c-3.5,0.9-6.3-2-7-5.2c-7-3-14.5-5.1-21.2-8.9C511.9,145.6,510,137.1,509,128.5z"/>
<path d="M301.4,139.5c7-3.6,14.1-7.4,21.9-8.8c0.9,5.4,0.1,10.9,0.4,16.3c-8,3.9-15.9,8.1-23.9,11.9c-3.4,1.8-6.4-1.8-8.7-3.9
	c-1.6-2-4.5-5.2-2.1-7.6C292.7,144.1,297.1,141.9,301.4,139.5z"/>
<path class="st0" d="M345.4,154.5c22.5-7.4,46.5-12.8,70.2-9.2c-4.2,3.6-8.1,7.4-12.3,11c-19.5,1.6-38.8,6.4-58.4,7.7
	c-5.8,0.4-12.1,1.2-17.3-1.9C332.9,158.2,339.5,156.8,345.4,154.5z"/>
<path d="M226.3,160.1c0.7-6.1,3.6-12.4,9.5-15c0.4,3.2,1,6.4,0.7,9.7C233.1,156.6,229.8,158.6,226.3,160.1z"/>
<path class="st0" d="M412.5,161.5c3.9-6,7.7-12.5,14.2-15.9c3.7,0.8,7.4,1.5,11.1,1.5c-0.6,0.6-1.3,1.2-1.9,1.8
	c-3.9-0.1-8-1-11.6,0.5c-2.1,0.9-2.6,3.3-3.5,5.2c13.6,0.6,26.5,6.4,40.1,5.6c7-0.3,14,0,21-0.1c2.1,0,4.2-0.6,6.2-1.2
	c1.4,1,2.8,2,4.1,3c-12.8-0.5-25.6,0.3-38.4,0c-3.5,0-6.7-2-10.2-2c-3.2,1.4-6,4.2-9.8,3.8c-3.6-0.3-7.6-0.6-10.4,2.1
	c-7.8,6.6-18.5,5.6-27.7,8.6c-3.1-2.5-5-5.9-6.6-9.4C396.4,160.8,404.8,163,412.5,161.5z"/>
<path class="st0" d="M242.9,147c1.3,0.3,3-0.2,3.9,1c-0.1,1.1-0.3,2.2-0.5,3.2c-0.7-0.2-2.2-0.5-2.9-0.6
	C243.1,149.4,242.9,148.2,242.9,147z"/>
<path class="st0" d="M263.7,153.2c-0.2,0.6-0.5,1.8-0.7,2.4c-3.9,2.4-7.2,5.6-10.7,8.5c-7.8,6.3-13.4,14.7-21,21.2
	c-5,3.7-11.3,4.9-16.4,8.5c-12.1,8.2-22.6,18.7-35.7,25.4c1.5-13,6.8-26.3,17.5-34.4c7.7-6.2,17.5-8.6,26.9-10.7l0.1,0.4
	c-3.1,1.2-7.6,0.7-9.3,4.1c-3.2,5.7-6.3,11.6-7.9,17.9c4-1.2,7.7-3.2,11.1-5.7c3.3-2.5,7.3-3.8,10.4-6.7
	C240.1,174,252.3,164,263.7,153.2z"/>
<path class="st0" d="M243.2,180.6c5.2-8.2,13.4-13.9,21.6-18.8c1.5,4.1-0.1,8.9-3.8,11.2C255.4,176.4,249.1,178,243.2,180.6z"/>
<path class="st0" d="M318.1,164.8c1.1-2.7,4.7-3.6,6.8-1.5C323,165.1,320.5,165.1,318.1,164.8z"/>
<path class="st0" d="M507.1,162.1c8.3,0.7,15.9,4.6,22.8,9.1C521.6,172.4,512.2,168.9,507.1,162.1z"/>
<path d="M251.8,175c2.6-4.5,6.8-7.8,11.3-10.2c0,1.9,1.1,4.2-0.6,5.6C259.6,173.3,255.5,174,251.8,175z"/>
<path class="st0" d="M371.9,166.7c6.6-2.3,15.6,0.6,17.4,8c-7.2,1-14.4,1.8-21.7,1.7C367.8,172.8,368.2,168.4,371.9,166.7z"/>
<path class="st0" d="M308.4,167.5c3.6-0.6,7.4-0.1,11.1,0c4.3,1.4,5,6.6,5.4,10.5c0.1,3.2,0.5,7.3-2.2,9.5
	c-24,6.2-48.6,9.5-72.6,15.7c-12,3.2-23.9,7-34.9,13c-13.9,7.4-25.7,18.3-40.1,24.9c1.4-5.6,7.8-6.2,11.6-9.2
	c3.8-7.6,9.5-14,15.8-19.6c-1.5,3.3-2.4,6.9-2.3,10.5c6.3-3.6,10.1-10,13.2-16.3c-1.2,0.2-3.5,0.6-4.7,0.8
	c10.6-7.7,22.3-13.7,34.1-19.2c1.2-0.6,2.6-0.9,4-1.2c0.6,2.2,0.7,4.5,0.8,6.7c1.5-0.2,3.4-0.1,4.3-1.7c1.1-2.1,1.2-4.5,1.6-6.8
	C271.2,177.1,290.6,174.6,308.4,167.5z"/>
<path class="st0" d="M329,171c11.8-2.3,23.9-2.4,35.8-3.7c-0.4,3.2-0.8,6.4-1,9.6c-10.7,4.1-22.1,6.2-33.2,8.7
	C329.4,180.8,329.1,175.9,329,171z"/>
<path d="M454.9,169.9c8.8,0.8,17.3,3.8,26.2,4c2.7,16,3.4,32.4,7.4,48.2c3.6-15.6,1.3-31.8,4.3-47.4c6.2-0.6,12.9,0.5,17.5,5.1
	c6.2,6.7,14.1,11.2,21.1,17c7.1,19.8,15.5,39.1,22.2,59.1c2.1,6.5,4.9,13.1,4.6,20.1c-0.1,4.1,0.4,8.9-2.4,12.2
	c-1.6-3.6-2.2-7.9-5.4-10.6c-0.2,12.1,0,24.2-0.1,36.4c0.1,7.2,0.3,14.4,1.6,21.4c3.6,11.3,11.3,20.7,20.1,28.4
	c-2.6-10.2-7.4-19.8-8.6-30.2c5.4,3.4,8.8,9.8,15.4,11.3c-5.4-12.4-11.8-24.4-16.5-37.1c4.4,2.9,8,7,13.1,8.7
	c-2.5-7-6-13.6-8.4-20.6c-1.6-8.4,1.7-17.3-1.4-25.5c-2.5-8.7-9.8-15.4-10.8-24.6c-1.8-10.4-5.6-20.5-5.2-31.1
	c12.8,9.9,18.9,26.6,19,42.4c0,2.3,2.5,3.3,3.7,4.8c-0.4,3.2-0.5,6.5-0.1,9.7c0.6-0.4,1.3-0.8,1.9-1.2c6.3,6.2,13.5,12,17.6,20
	c-4.8-3.4-9.5-7.1-13.5-11.4c-1.7-2-3.8-4-4.1-6.7c-0.5,0.6-1.1,1.1-1.6,1.7c1.8,10.3,2.7,20.9,7,30.5c2.5,5.4,8.1,8.2,11.9,12.5
	c3.1,3.6,6.2,7.5,7.6,12.1c1,3.4,0.6,7,0.4,10.5c-9-5.2-18-10.7-27.1-15.8c3.5,8.6,10.6,14.9,17.6,20.6c9.8,6.9,20,16,20.7,28.8
	c-7.3-3.6-14.1-7.9-21.3-11.6c3.3,7.9,8,15.2,13.8,21.5c6,7.2,14,12.4,19.9,19.7c-10-3.4-19.1-9.1-28.5-13.7
	c0,10.9,5.3,21.2,13,28.7c2.8,2.7,5.8,5.3,8.8,7.9c-4-0.1-8.1-0.7-11.4-3.1c-4.2-3.1-8.4-6.4-12.6-9.5c0.1,16.3,10.8,30.2,22.6,40.4
	c11,9,21.8,19.2,27.3,32.6c1.6,3.6,1.9,7.5,3,11.3c3.3,4.3,7.7,7.6,12.2,10.3c-2.9-3.7-5.8-7.4-8.6-11.1c6.7-2.6,14.7-2.9,21,0.9
	c6.9,4.3,13.4,9.3,20.2,13.7c3.1,2.4,7,0.2,10.5,1c6,0.3,10.1,6,16.2,5.8c0,76.7,0,153.3,0,230c-67.9,0-135.8,0-203.8,0
	c-0.6-6.1,1.6-11.9,3.9-17.4c3.8-8.8,7.5-17.7,12.2-26c10.6-18,21.8-35.7,33.8-52.8c4.5,1.8,5.9,7.3,10.5,8.9
	c-1.3-12.3-4.9-25.8,1-37.4c3.9,1.3,5.5,5.4,7,8.9c2.3,5.8,5.5,11.5,5.6,17.9c0.5,13.5-3.2,26.6-6.7,39.4c10-2.5,17.5-10,25.3-16.3
	c0.2,16.5-4.1,33.1-12.8,47.2c-4.2,7-9.4,13.2-14.8,19.3c9.4,2.1,18.5-2.3,26.5-6.9c16-9.1,29.6-22.9,37.1-39.8
	c3-6.5,5-13.4,6.6-20.3c5.2,8.8-1.3,18.3-4.8,26.4c5.8-2.1,10.1-6.8,13.7-11.6c1.3-2.2,3.8-0.3,5.5,0.3c6.7-9.1,13.3-18.6,17.3-29.3
	c1.1-2.8,1-5.8,1.6-8.7c1-3.8,5.3-5.3,7-8.7c5.5-9.3,4.6-20.9,1.4-30.8c-4.8-16.9-20.5-29.1-22.4-47.1c6.5,4.5,11.5,12.1,19.7,13.5
	c-0.9-7.4-8.2-12.1-8.5-19.6c3.5-0.5,6.2,2.4,9.7,2.5c-2.5-5.1-8-8.1-9.5-13.7c-1.2-4.7-0.2-9.5-0.7-14.3c-1.5-1.2-3-2.5-4.4-3.8
	c-0.6,8.3,3.6,15.9,4,24.1c-1.7,0-3.4,0-5,0c2.7,6.1,5.6,12,7.9,18.2c-6.8-6.8-11.5-15.4-17.2-23.2c-1.9,11.6,1.5,23.6,7.2,33.7
	c6.6,11.1,14,22.1,17.5,34.7c1.4,7.9,2,16.9-3,23.7c-2.9-7.8-6.5-15.5-11.6-22.2c-1.4-1.8-3.1-3.3-5.3-4.1c1.5,3.1,4,5.5,5.4,8.5
	c6.2,12.5,6.2,27.4,1.9,40.5c-2,5.4-4.2,11-8.6,14.9c-1.8,0.4-1.5-1.8-1.5-2.9c0.2-2.2,0.4-4.4-0.5-6.4c-3.6,5.5-4,12.6-8.2,17.8
	c-1.2,1.6-3.3,2-5,2.5c-0.2-6.4,2.8-12.4,2.3-18.9c-0.1-5.3-0.7-11.5-5-15.2c-2.1,7.9-2.9,16.1-4.6,24.1
	c-4.9,15.1-12.8,29.6-24.4,40.6c-9.8,9.7-22.6,15.9-35.9,19.2c10.9-13.7,19.3-29.5,23-46.6c2-9.6,2.5-19.5,1.6-29.2
	c-6.7,7.8-11.8,18.5-22.6,21.1c5-15.2,5-31.9,0.2-47.2c-2-6.4-5.6-12.4-10.8-16.7c-4.4,4-7.8,9.6-7.6,15.7
	c0.2,5.6,1.6,11.5-0.7,16.9c-11.1-11.2-12.3-28-12.7-42.9c-6.4,5.7-4.1,15.2-7.8,22.2c-4.2-4.6-5.1-11.2-5.4-17.2
	c0.2-8.1,2.1-16,5-23.5c-9,4.3-17.8,10.4-28.1,10.8c8.3-13.8,17.2-27.6,21.1-43.4c-6.6,2.1-11.8,8.9-19.3,7.4
	c3.3-7.3,7.9-14.1,9-22.2c3.4-25.2-4.2-51.1,2.6-76c4-4.8,4.9-11,5.6-17c0.5-4.2,1.1-8.4,0.9-12.6c-4.4,5.3-4.1,12.7-4.5,19.2
	c-3.4,2.1-5,6-5.2,9.8c-1.4-0.1-2.8-0.2-4.2-0.3c-1.1,8.2-7.2,14.8-7.8,23.1c4.1-4.3,4.2-11.1,9.2-14.7c-1.1,21.8,2.5,43.6,0.6,65.4
	c-1,11.6-8.1,21.4-15,30.3c8.2,1.3,15.1-4.2,23-4.9c-5.3,13.6-13.6,25.7-21.1,38.1c9.1,3.8,18-2.2,26.6-4.4
	c-0.2,7.7-1.1,15.4-1.3,23c0.6,2.2,2.2,4,3.2,6.1c-20.9,29.3-52.9,51-88.6,57.1c-12,2.2-24,4.2-36,6c-7.3,1.1-14.7,0.7-22,1.9
	c-15.6,2.8-31.2,6-46.9,7.9c-3.5,0.7-6.5-1.2-9.8-2c0.6,6.7,4.7,12.8,3.6,19.6c-6.9-4-8.8-12.5-8.8-19.8c1-9.6,8.1-16.9,13.9-24
	c4-5.4,9.2-11.7,7.2-18.9c-2.8-11.1-10.3-20.1-17.4-28.8c-12.6,13.6-19.8,31.4-22.6,49.6c-3.3,20.7-2.4,42,0.9,62.6
	c1.1,0.4,2.2,0.9,3.4,1.3c0,2.4,0,4.8,0.1,7.2c-69.4,0.1-138.8,0.1-208.2,0c0-2.2,0-4.4,0-6.6c3.6-2.8,6.2-6.5,8.6-10.3
	c6.8-10.9,10.6-23.2,16.6-34.4c3.1-5.7,6-11.7,10.8-16.2c7.1-7.1,15.6-12.6,23.8-18.2c7.1-4.6,14.2-9.3,22.2-12.1
	c-0.1,0.7-0.2,2-0.3,2.7c5.2-4.8,8.8-11.1,10.8-17.9c-7.2,3.1-13.8,9.4-22.2,8.2c11.6-10.6,22.7-23.8,24-40c1-9.1-2.6-18.2-8.8-24.8
	c-1.8,6.1,3.6,12.4,0.1,18.1c-10.5-11.8-10.2-28.8-8.6-43.5c-5.3,2.1-6,9.3-11.8,10.8c3.4-14.4,7.8-28.6,11.8-42.9
	c-5,2.1-8.4,8.1-14.5,6.9c5-10.6,11.6-20.6,14.3-32.1c2.3-11.2,3.5-22.6,6.3-33.7c-3.5,2.7-5.1,8.9-10.6,7.9
	c-0.3-3.7,0.8-7.2,2.2-10.5c2.3-6.2-0.4-12.8-0.6-19.1c-0.7-10.6,3-20.7,7.2-30.2c-4.6,1.7-5.8,7.4-10.7,8.8
	c-0.5-4.9-0.2-10,1.8-14.6c2.2-6.1,8.8-9.4,10.6-15.8c-6,0.3-12.4,2.4-18.3-0.1c-0.4-0.9-0.8-1.8-1.2-2.7c6.7-4.8,13.9-9.7,18-17
	c-4.8,1.2-10.1,3.8-14.9,1.2c4-6.6,12.6-8.3,16.2-15.2c7.4-13.1,8.4-28.6,9.2-43.3c-0.3-8.3,0.9-16.8-1.5-24.9
	c-2-7.2-2.8-14.7-2.9-22.2c0.6-10.8,1.8-22.1,7.6-31.5c3.4-5.4,9.1-8.9,15.4-9.7c-3.5,20.9-12.5,40.5-15.8,61.4
	c10.4-22.1,20.8-44.3,29.5-67.2c2.9-4.6,8.6-5.9,13.7-5.4c1,11.9-1.1,23.7-1.6,35.6c-0.2,5.5-1.3,11.2,0.7,16.4
	c2.9,9.3-2.3,18.3-3.2,27.4c3.9,15.6,7.2,31.3,10.6,46.9c2.9,13.6-0.1,27.7,3.4,41.2c3.5,13.6,8.7,27.5,19,37.5
	c3.4,3.6,8.7,4.3,12.1,7.9c2.1,2.9,3.1,6.8,6.7,8.2c0.1-5.4-5.6-8.9-4.9-14.4c8,1.6,10.4,10.4,13.6,16.7c0.6,2.2,3,2.4,4.9,2.5
	c7.4,5.6,9.7,15.1,11.9,23.6c0.5-2.9-1.8-6.4,0.5-8.9c1.3-1.4,2.8,0.6,3.4,1.8c1.3,4,1,8.6,3.9,12c0.7-4.2,0.3-8.7,1.9-12.6
	c6.4-8.2,13.1-16.2,20.8-23.3c4.8-7.9,10.5-15.5,17.1-22c6.6-0.8,13.2-1.6,19.9-2.5c6.2-1,11.5-5.2,17.8-5.5c2.8-0.6,4.7,1.8,7,2.9
	c5.4,3.1,10.7,6.5,16.6,8.6c2.4,0.7,3.1,3.4,4.7,5.1c2.1,0.6,4.3,0.7,6.4,1.5c1.6,1.2,2.4,3.1,3.7,4.5c6.3,5.3,14.8,7.5,20.7,13.4
	c2.9,7.5,7.2,14.4,11.6,21.1c0-7.8,0.9-15.5,1.4-23.2c1.3,0,2.7,0,4,0.1c0.8-10,1.2-19.9,1.9-29.9c1.4,2.2,2,4.7,2.8,7.1
	c0.4-2.7,2.8-4,4.8-5.4c0.2-6.8,0.1-13.9,2.8-20.4c0.7-2,2.3-3.4,4-4.5c1.2,3.7-0.2,7.5,0.2,11.2c4-2.8,5.5-7.8,7.1-12.2
	c7-22.1,9.4-46.8,0.8-68.8c-3.9-9.9-11-18-17.2-26.5c-3-4.4-5.6-9.2-6.5-14.5c-0.4-11.4,0.3-22.8-0.4-34.1c-0.8-6.7-1.7-14-6.1-19.4
	c-5.8-5.4-13.1-8.8-18.9-14.1c-2.9-2.6-4.9-6.4-4.6-10.4C454.5,184.6,455.4,177.3,454.9,169.9z"/>
<path class="st0" d="M546.3,174.4c1.1-1.9,1.9-5.2,4.9-4.4c4.5,0.9,6.8,5.8,6.8,10C553.3,180.5,549.6,177.2,546.3,174.4z"/>
<path d="M255.3,185.3c7.2-2.9,14.8-4.9,22.3-6.8c-1,7.4-7.8,11.7-10,18.6c-5.4,1.1-10.5,3.5-16.1,2.9
	C252,195,253.8,190.1,255.3,185.3z"/>
<path class="st0" d="M498.2,179.1c7.9,6.3,17.6,9.8,25.5,16.1c4.1,2.9,5,8.1,6.1,12.6c2,10,2.8,20.2,3.5,30.3
	c-3.8-2.9-4.6-7.9-6.1-12.1c-3.6,4-4,9.7-3.7,14.9c0.4,6.6,1.1,13.2,1.9,19.8c-7.2-9-11.1-20.3-11.5-31.8c-0.6-6,1.5-12.1-0.4-17.9
	C510.6,199.4,501.1,190.8,498.2,179.1z"/>
<path d="M217.4,212.4c5.7-11.1,15.4-21.3,28.2-23.2c0.5,4.2,0.9,8.4,0.7,12.6c-3.9,1.8-8.2,2.7-12.2,4.3
	C228.6,208.4,223.1,210.8,217.4,212.4z"/>
<path d="M260.7,208.2c0.6-0.1,1.8-0.3,2.4-0.4c-1.8,16.2-2.9,32.9-9.4,48.1l-0.5-0.1C255.5,239.9,257.9,224,260.7,208.2z"/>
<path class="st0" d="M573.2,246.2c0.8-4.2,6.9-6.9,9.8-3.2c-1.2,3.2-4.7,4.9-8,5.1C574.5,247.6,573.6,246.7,573.2,246.2z"/>
<path d="M419.9,244.2c10.5-2.2,21.6-2.3,31.8,1.1c7.4,2.3,14,7.3,17.3,14.4c-7.9-0.5-15.1-4.4-23.1-4.4c-5.6-0.1-11.3-1.1-16.9-0.3
	c-5.5,0.5-12.1,0.7-16,5.2c-4.4,5.2-7.2,11.6-9.8,17.9c9.7-0.9,16.3-9.2,25.7-11c7-0.9,14.2,0.9,19.9,5.1
	c-11.5-0.1-23.7,2.4-32.4,10.3c-6.9,6-10.6,14.5-13.1,23.1c5.3,3.8,10.6,7.5,15.8,11.5c-5.7,1.5-12.5,1.8-16.7,6.5
	c-3.5,3.9-3.7,9.7-2.5,14.6c2.2,10.7,9,19.9,16.7,27.4c3.3,3.6,6.5,7.6,7.5,12.5c0.4,2.8,0.1,6-2,8.1c-4.2,4.3-9.3,7.7-14.6,10.4
	c-6.8,2.1-13.5-2.9-20.4-1.6c-10.1,1.6-20.4,2.7-30.2,6c3.2-5.1,6.5-10.1,10.1-14.9c6-0.2,10.2,5.4,16.1,5.6
	c7.8,0.2,16.9-4.1,18.6-12.3c0.8-8.7-2.4-17.1-5-25.2c-7.8-22.5-14.7-45.4-18-69c-0.3-3.9-1.3-8.4,1.4-11.7c3.1-3.9,7.1-7.2,9-11.9
	c3.3-6.4,6.1-14.5,13.8-16.7C408.5,242.2,414.3,245.5,419.9,244.2z"/>
<path d="M251.4,261.4c-2.2-0.8-1.9-4.5,0.7-3.8C251.9,258.6,251.6,260.5,251.4,261.4z"/>
<path d="M308.8,261.6c4.6-1.8,9.3-4.1,14.4-4c5.3,3.7,11.3,6.2,17.2,9c3.6,1.8,7.5,5,7,9.5c0.2,4-3.7,7.1-7.5,7.4
	c-5.8,0.9-11.5-1.4-16.5-4.2c-4.3-2.1-8.9-4.7-13.9-3.6c-8.4,1.6-15.7,6.5-22.6,11.4c-4.9,3.7-9.9,7.4-14.2,11.9
	c-2.2,2.2-4.2,4.6-7.1,5.9c0.1-9.4,5.1-18,11.7-24.4C286.4,271.9,297.7,266.6,308.8,261.6z"/>
<path d="M426.4,280.2c8-5.6,19.3-6.3,27.9-1.5c3.9,1.9,7.1,4.9,10.8,7.1c2.8,1.9,6,3.1,8.9,4.9c-1.1,2.3-3.6,3.1-5.5,4.5
	c-4.6,3.7-8.4,8.5-13.2,12c-2.9,2.2-6.6,2.5-10.1,2.3c5.2-4.2,13.2-5.8,15.8-12.7c2-4.6-1.4-9.3-5.7-10.8
	c-0.3,5.4-0.2,11.6-4.3,15.8c-5,4.4-13.6,3.1-17.6-2.1c-2.7-3.1-2.9-7.4-3-11.3c-2.6,0.8-5.4,1.6-7.1,3.8c-2.3,2.5-2.3,6.1-2.1,9.2
	c-4.1,1.6-8.1,3.8-12.4,4.7C412.5,296.4,417.6,286.5,426.4,280.2z"/>
<path class="st0" d="M224.6,277.2c0.3,0.2,1,0.5,1.3,0.7c-0.4,13.7,1.4,27.4,3.8,40.9c2.4,14.8,6.8,29.2,8.1,44.2
	c0.7,10.1-1.6,21.7-10,28.3c0.1-7.8,2.1-15.5,0.8-23.3c-5.4,0.9-6,7.9-11.1,9.4c3.7-10.6,4.8-21.8,5.4-32.9
	c-2.5,1.5-5.1,3.1-7.6,4.6c3.3-9,5.1-18.4,5.1-28C220.8,306.4,219.1,291.1,224.6,277.2z"/>
<path d="M301.5,285.7c4.5-2.3,9.9-4.9,15-3c3.7,2.2,6.3,6,10.5,7.3c5.4,2.1,13,4.1,13.4,11.2c-11.1-2.5-22.2-5.7-33.6-6.5
	c-6.8-0.2-11.3,6.2-17.8,7.2C289.6,294.5,295.3,289,301.5,285.7z"/>
<path class="st0" d="M437.2,286.4c1.2-0.4,2.5-0.4,3.7-0.1c0.2,1.5,0.5,4.2-1.8,3.7C437.6,289.3,437.5,287.7,437.2,286.4z"/>
<path d="M283.2,314.2c5.8-7.2,12.2-15.2,21.8-17.1c5.4-0.6,11.4-1.2,16.2,1.7c7.8,4.5,14,11.1,21.5,16.1c-4.2,2.5-9.1,2.2-13.7,3.5
	c0.1-4.5-1.9-9.9-6.9-10.6c-1.2,3.7,0.4,7.9-1.6,11.4c-1.4,3.4-4.8,5.8-8.5,5.5c-4.6-0.1-9.5-1.5-12.8-4.8c-2.8-2.8-2.6-7-2.3-10.6
	c-7.3,1.7-10.9,13.2-4,17.6c-5.7-1.3-11.4-2.8-17-4.4C278,319.5,280.9,317.1,283.2,314.2z"/>
<path class="st0" d="M305.7,307.5c0.8,0.1,1.5,0.3,2.3,0.5c0.3,2-1,3.3-2.6,4c-0.4-0.8-0.8-1.7-1.2-2.5
	C304.6,309,305.3,308,305.7,307.5z"/>
<path class="st0" d="M243.4,368c0.1-7.8-0.7-15.6-0.1-23.3c5,10.4,3.7,22.2,3.1,33.3c-0.6,7.3-0.6,14.6-0.6,21.9
	c0.1,2.5,0.1,5.1,0.9,7.5c2.4,4.7,5.4,9.1,7.8,13.9c1.1,3.8,1.5,7.7,2.6,11.5c6.9,1.5,5.6,12,12.7,12.9c0.4-1.9,0.6-3.8,1.6-5.5
	c5.8,8.9,8.3,19.5,10.8,29.7c2.3,9.6,3.3,19.5,5.5,29.1c1,2.8,1.5,7.5,5.5,7.4c0.1-2.4,0.1-4.9,0.2-7.3c1.6,2.7,2.4,5.8,4,8.5
	c2.1,2.2,5,3.5,6.8,6c1.9,2.7,3.8,5.6,4.9,8.8h0.8c0-1.9,0.1-3.9,0.3-5.8c3.3,3.6,2.1,9.2,5.2,12.8c12.4,3.4,22.4,12.2,31.2,21.1
	c8.5,8.1,18.7,15.6,30.7,17c0.2-0.6,0.8-1.8,1-2.4c4.6,1.9,8.8,4.9,13.8,6c8.6-2.4,17-5.2,25.8-6.9c0.7,0.6,1.3,1.1,2,1.7
	c-11.4,1.3-21.1,9.7-32.9,8.9c-3.5,0.1-6.8-1.1-10-2.3c-2,2-4,3.9-6,5.8c5.8,6.5,14.8,8.3,23.1,9c11.5,0.6,23.1-0.1,34.4,2.4
	c4.5,0.9,8.9,3.4,11.3,7.5c4.2,6.8,4.3,15.1,4.3,22.8c0.7,9,0.5,18,0.9,27c1.6,10.8,3.5,21.6,5,32.4c-12.3,1.8-24.6,2.7-37,3.7
	c-8,0.9-16.1,0.7-23.9,2.7c-4.9,0.8-11.3,2.5-14.8-2.2c-2.8-4.6-1.9-10.3-3.8-15.2c-2.9-7.3-5.6-14.7-7.7-22.3
	c-3-9.8-10.5-17-14.7-26.2c-8.7-17.5-15.8-35.8-22.7-54.1c-2.1,3.2-3.5,6.8-5.6,10c-5.7,9.3-12.9,17.7-20.8,25.2
	c-2.9,2.5-3.5,6.6-4.9,10c-4.8,13.8-9,28.2-8.2,42.9c-6.5-4.9-8.4-13.2-10.1-20.7c-8,6.5-10.9,17-12.5,26.8
	c-0.5,3.8-0.6,7.7-1.5,11.4c-3.2-10.2-0.9-21.5,4.5-30.5c3.4-5.8,6.7-11.6,10.4-17.2c2.2,7.5,6,14.8,6.1,22.8
	c0.9-2.1-0.2-4.4,0.5-6.5c3.1-15.2,6.5-31.2,15.7-44c2.7-4.4,7.8-6,11-10c6.5-7.3,12.6-15.9,13.4-25.9c-0.9-5.8-3.8-11-5.9-16.4
	c-4.9-1.2-9.2-4.2-11.6-8.6c-1.4-3.2-5.6-2.8-7.2-5.8c-16.3-21.2-18-49.5-32.4-71.7c-8.9-12.8-17.7-26.3-21.6-41.6
	C244.2,400,244.1,384,243.4,368z"/>
<path class="st0" d="M407,362.8c8,2,12,10.4,12.2,18.1c-2.4,1.1-5.3,2.8-7.7,0.7C406.1,377.2,404.9,369.2,407,362.8z"/>
<path class="st0" d="M566.5,377.8c2.9,3,4.2,6.9,6.2,10.5c0.5,5.5,3.7,10.2,4.3,15.6c4.2,22.1-5.1,43.9-3,66c1,10,2,20,3.4,30
	c-7.5-8.9-10.3-20.6-11.4-32c-1.1-8.8,0-17.7,2.5-26.2c-0.7,0.3-2.2,0.9-2.9,1.2c1.9-11.4,3.7-22.7,5.1-34.2
	C571.9,398.4,570.2,387.7,566.5,377.8z"/>
<path d="M356.2,401.1l0.6,0l0,0.6l-0.6,0L356.2,401.1z"/>
<path class="st0" d="M195.6,443.8c-5.8-10.7-1.8-23.9,5.2-33c2.1,12.5,7.8,24,13.2,35.3c1.9-1.3,2.6-3.5,3.6-5.4
	c-0.5,18.5,11.9,33.5,17.2,50.5c-4.9-3.8-8.6-8.9-13.7-12.5c-3.1,2.8-0.7,7.3-1.2,10.9c-5.5-8-4-18.9-10-26.8
	c-0.7-1.5-2.3-1.4-3.7-1.2c-0.4,1.9-0.8,3.8-1.7,5.5c-3.9-8.8,1.6-19.2-3.8-27.6C199,441.1,197.3,442.5,195.6,443.8z"/>
<path d="M455.4,416.5c3.6,0.2,7.6,2.6,6.8,6.8c-1.7-0.7-3.7-1.1-5.1-2.4C456.2,419.5,455.9,418,455.4,416.5z"/>
<path class="st0" d="M391.6,431.8c5.1-0.4,9.5-3.2,14.5-4.1c4.3,0.6,8.4,2.6,12.8,3.1c6.5,0.2,11.5,4.8,17.4,7
	c5.2,1.8,10.6,3.1,15.8,5.3c2.7,0.9,3.5,4,4.5,6.4c2.7,6.6,2.9,13.9,2.1,20.9c2,2.5,3.6,5.4,4,8.6c0.3,2.8,2,5.3,2.1,8.2
	c-0.8,1.3-2.4,1.8-3.8,2.1c-2.3-3.4-0.8-8.7-4.9-11c-3.2,5-2.3,11.5-5.7,16.4c-2.1,2.8-5.4,4.2-8.3,5.9c-0.4-1.1-0.9-2.3-1.3-3.4
	c-3.9,2-7.7,4.2-11.5,6.5c-3.3-7.3,0.6-16.4-4.9-22.8c-2.5-3.6-7.9-6.5-6-11.6c3.2-5.8,10.1-8.2,14.3-13.2c-8.3-1.7-15.2,4-22.2,7.5
	c-5.1,2.3-10.6,5.3-16.4,3.7c-4.9-0.7-9.9-1.5-14.9-2.1c-4.4-0.5-9.1,0.8-12.2,4.1c6.6,3.4,15.3,2.4,20.4,8.5
	c-4.9,9.8,2.9,20.6-1.6,30.4c-3.1-1.2-5.8-3.3-8.1-5.8c-0.8,1.1-1.7,2.1-2.6,3.2c-2.2-1-4.6-0.8-6.9-0.5c-3.2-3.4-4.8-7.8-6.8-11.9
	c-4,1.1-2.7,5.8-4.1,8.7c-2-1.2-4.4-2.4-5.2-4.8c-1.1-2-0.2-4.2,0.2-6.3c-6-8.2-7.2-19-5-28.7c2-2.3,4.1-4.4,6.5-6.1
	c7.5-5.7,14.6-12,20.9-19c1.8-1.7,3.2-3.8,5.2-5.2C383.8,431.1,387.7,432.6,391.6,431.8z"/>
<path d="M393,438.8c6.1,0.8,10-5.6,16-5.4c9.8-1.3,16,8.5,24.9,10.5c4.8,1.7,9.8-0.6,14.7,0.3c-2.2,4.7-7.9,5.2-12.5,5.7
	c-8,0.5-16.2,0.2-24-1.8c-5.8-2.1-9.5,4.9-15,4.9c-4-0.2-7.9-1.5-12-0.9c-6.9,3.3-12.5,8.9-19.4,12.4c-4,2-8.6,1.8-12.7,0.4
	c4.3-3.3,9.1-6.1,12.3-10.6c4.4-5.8,8.1-12.8,14.8-16.2C384.4,437.6,388.7,438.3,393,438.8z"/>
<path class="st0" d="M591.5,464.8c0.5,0.4,1.4,1.1,1.9,1.5c2,6.4,3.1,13,5.4,19.2c8.5,12.7,17.4,25.2,25.9,38
	c10,15.7,19.3,32.4,22.9,50.8c-5.8-3.2-7.3-10.8-13.5-13.3c0.1,6.4,5.5,10.9,7,16.9c3.6,13,5.9,26.7,3.7,40.2
	c-1.2,7-3.7,13.9-7.9,19.8c-0.9-10.2-2.1-20.3-3.1-30.5c-0.6-4.3-0.4-9.3-3.7-12.6c-2.4,2.5-0.7,6.6-3.4,9.1
	c-0.6-9.8-3.7-19.2-6.9-28.4c-5.8-16.3-13.2-32.1-20.4-47.8c-3.8-9.1-7.8-18.7-7.2-28.8c6.1,7,11.9,14.2,17.9,21.3
	c-1.3-6.5-6.5-11.1-9.7-16.6C594.4,491.6,591.6,478.1,591.5,464.8z"/>
<path class="st0" d="M201.6,487.6c1.5,2.6,1,5.8,2.1,8.5c2.4,8.4,9,14.8,11.9,23c1.5,3.8,2.3,7.8,1.9,11.9c-5-4.4-6.7-11.8-13-14.9
	c-2.2,7.8-0.2,16.4,4.3,23c3.1,4.6,6.1,9.3,7.4,14.8c2.6,10.5,2.8,21.5,3.2,32.3c-5.5-11.8-9.1-24.5-15.1-36.1
	c-1.4,1-2.4,2.5-3.2,4.1c0.3-5.7-0.6-11.3-0.9-17c-2.9,1.1-5.6,2.5-8.4,3.8c2.7-11.5,8.9-22.3,8.5-34.4c-2.7,0.3-4.9,1.9-7.2,3.1
	C197.7,503,199.2,495.1,201.6,487.6z"/>
<path class="st0" d="M497.8,523.7c4.4-9,7.5-18.9,13.9-26.8c-4.5,10.6-7.6,21.8-12.6,32.1c-5.3,2.9-9.6,7.2-13.5,11.7
	c-6.6,7.5-12.6,15.5-18.4,23.7c-1.4,2.9-4.5,0.3-6.3-0.7c-7.3,5.7-17.2,6-25.9,4.2c-4.6-0.7-8.8-4.3-13.7-2.4
	c-0.8-0.5-1.6-1-2.4-1.4c4.7-0.5,9.6-1.3,14.2,0.1c2,0.8,4-0.5,6-0.8c2.1,0.3,3.8,1.7,5.9,1.8c7.2,0.7,13.1-4.7,20.2-4.9
	c6.8-8.2,13.5-16.5,20.6-24.4C489.6,531.5,494.2,528.1,497.8,523.7z"/>
<path class="st0" d="M250.6,555.1c6.4,12.8,10.6,27.8,6.6,42c-3.1,13.4-9.3,26.1-10.2,40c-0.4,5,0,10,0.8,14.9
	c-2.6-3.4-3.6-7.7-4.2-11.8c-0.8-6.5-1.2-13-1.2-19.5c-3.5,0.3-4,4.3-6.2,6.4c-1.5-17.4,7.1-33.7,6.5-51c0-3.1-0.2-6.2-0.4-9.3
	c3.4,3.9,3.9,9.2,3.8,14.2c-0.2,6.3-0.1,12.7-0.5,19.1c5.8-7.3,7.5-16.9,7.1-26C252.7,567.7,251.8,561.3,250.6,555.1z"/>
<path class="st0" d="M193.9,658.6c3.6-3,6.6-6.9,11-8.9c-1.3,6.6-1.7,13.4-3.1,20c0,2,1,4.3-0.8,5.8c0.6-6.6-0.2-13.2,0.1-19.8
	C198.5,656.1,196.3,657.5,193.9,658.6z"/>
<path class="st0" d="M185,661.1c0-3.1,2.5-5.1,5-6.5C189.4,657.5,188.3,660.6,185,661.1z"/>
<path class="st0" d="M201.3,681.5c7-4.8,8.2-14.9,16.3-18.3c-0.3,1.6,0.6,4.1-1.1,5.3c-7,4.2-8.4,12.9-12.6,19.3
	C202.8,685.8,201.8,683.7,201.3,681.5z"/>
<path class="st0" d="M224.5,675.6c1.2,3.7,1.2,7.6,1.9,11.5c2.6,16.3,8.4,32.6,19.5,45c1.7,2,4,3.3,6.5,4.1
	c-0.9-7.4-4.8-13.9-6.5-21.1c-2.8-9-0.5-18.4-0.4-27.5c0.7,3.7,1,7.5,1.4,11.2c1.7,14.2,5.9,28,9.4,41.8c-5.9-1.1-9.9-6-13.8-10.1
	c-8.9-9.6-14.6-22.1-15.6-35.2c-0.5-2.4,0.2-5.4-1.9-7.2c-4.2,5.3-3.2,12.3-2.9,18.6c-2.8-1.8-5.6-3.8-7-6.9
	c-2.4-4.6-2-10.1-1.1-15.1c1.5,4.1,1.1,8.5,2.4,12.7C221.6,691.3,219.9,682.2,224.5,675.6z"/>
<path class="st0" d="M246,687.3c0.3-3,0.7-6.1,2.5-8.6c0.4,1.9,0.9,3.9,0.9,5.9C248.5,685.7,247.2,686.5,246,687.3z"/>
<path class="st0" d="M264.1,687.6c-0.7-0.8-0.8-3.3,0.6-3.2C265.5,685.1,265.5,687.6,264.1,687.6z"/>
<path class="st0" d="M251.8,689.1c7,6.7,13.9,13.5,21.5,19.6c1.1,2.6,3,4.7,4.5,7c-6.9-5.1-13.2-11-19.1-17.2
	C256.2,695.4,253.3,692.7,251.8,689.1z"/>
</svg>
