<?xml version="1.0" encoding="utf-8"?>
<!-- Generator: Adobe Illustrator 21.1.0, SVG Export Plug-In . SVG Version: 6.00 Build 0)  -->
<svg version="1.1" id="Layer_1" xmlns="http://www.w3.org/2000/svg" xmlns:xlink="http://www.w3.org/1999/xlink" x="0px" y="0px"
	 viewBox="0 0 300 300" style="enable-background:new 0 0 300 300;" xml:space="preserve">
<g>
	<path d="M271.2,103.8c1.5,0.8,2.4,2.4,2.9,4.8c0.6,2.5,0.1,4.3-1.5,5.5c1.1,2.2,1.1,4.2-0.2,6.2c-1.3,1.8-3.1,2.7-5.6,2.7v2.7
		c-0.1,1.6-0.6,2.5-1.4,2.6c2.5,1,3.5,3.2,2.9,6.5c-0.5,3.4-2,5.2-4.6,5.5c0.8,1.5,0.9,3.1,0.2,4.8c-0.6,1.5-1.5,2.6-2.9,3.2
		c1.9,0.7,3.1,2.4,3.4,5.1c0.3,2.6-0.2,4.8-1.7,6.5c3,2.5,4,6,3.2,10.4c-0.8,4.6-3.2,7-7.2,7.2c0.2,3.5-0.7,6.2-2.9,7.9
		c-2.2,1.7-4.9,2.2-8.2,1.5c0.1,1.7-0.6,4.1-2.2,7.2c1.6,0.5,2.6,1.8,2.9,4.1c0.5,2.4-0.1,4.1-1.5,5.1c1.4,3.1,1.2,5.9-0.5,8.5
		c-1.7,2.5-4,3.9-7,4.3c-0.1,0.6,0.1,0.9,0.5,1c0.8,0.1,1.2,0.2,1.2,0.3c-0.6,2.2-1.8,3.8-3.8,5c-1.9,1.4-4.1,1.8-6.5,1.4
		c-0.9,3.1-3.8,4.8-8.5,5.1c-4.7,0.2-7.9-1.1-9.6-3.9c-2.1,2.1-4.8,2.7-8.2,1.9c-3.3-0.7-5.5-2.2-6.5-4.4c-1.4,3.1-3.3,5.4-5.8,6.8
		c-3.2,1.9-6.6,2.2-10.1,0.7c-0.7,2.4-2.2,4.2-4.6,5.3c-2.5,1.3-5,1.1-7.3-0.5c-3.6,6.2-7.6,9.3-12,9.4v-4.4
		c6.4-1.8,9.6-5.2,9.7-10.3c6.5,0.3,9.9-1.3,10.1-4.8c2.5,1.5,5.6,2,9.4,1.5c3.8-0.3,6.4-1.5,8-3.4c-3.3-2.3-4.7-3.2-4.3-2.7
		c-1.5-1.4-2.2-3.1-2.1-5.1c-2.3,0.2-4.5-0.5-6.7-2.2c-2.5,2.1-5.5,2.6-9.1,1.7c-3.3-0.9-5.8-2.7-7.3-5.3c2.1,1.4,4.6,2.2,7.7,2.4
		c3.9,0.3,6.5-0.6,7.9-2.9c1.3,2.4,3.6,3.5,7,3.4c3.5-0.1,5.6-1.5,6.3-4.3c1.7,0.7,3.2,0.5,4.6-0.7c-0.1,0.1,0.9-1,2.9-3.2
		c0.2,3-1,5.2-3.8,6.7c-3.9,2.2-6,3.5-6.3,3.9c-0.2,3.3,1.2,5.1,4.3,5.3c3,0.3,5.2-0.5,6.7-2.6c0.6,0.8,0.4,1.7-0.5,2.6
		c-1.3,1.4-1.9,2.1-2.1,2.2c1.1,1.7,2.8,2.1,5.1,1c0.5-0.1,2.2-1.2,5.1-3.2c0.7,2.5,3,3.8,7,3.9c4,0.2,5.8-1.5,5.3-5.3
		c4.4,0.6,6.9-0.7,7.5-3.9c2.8,0.7,5.2,0.1,7.2-1.7c1.8-1.6,2.9-3.8,3.2-6.7c0.3-2.7-0.2-5.1-1.5-7.2c-1.5-2.3-3.7-3.5-6.7-3.6
		c0,0.1-0.1-0.5-0.3-1.7c0.1-0.8,0.7-1.4,1.9-1.7c1.7-0.6,2.6-0.9,2.6-1c0.1-2.7-1.5-6.3-5-10.6c2.5-2.1,5.6-1.9,9.2,0.5
		c4.3,2.8,7.2,4.2,8.5,3.9c1.3-0.1,2.3-0.6,3.2-1.5c1.1-1,1.4-2.3,0.9-3.8c-2.5,0.9-4,1.4-4.6,1.4c-1.9,0.3-3.5-0.3-4.8-1.9
		c1.6,0.1,3-0.6,4.1-2.2c1.1-1.4,1.8-3,2.1-5c0.3-2.1,0.1-3.8-0.7-5.1c-1-1.6-2.6-2.3-4.6-2.2c-0.3-2.6-1.9-4.4-4.6-5.3
		c-2.8-0.9-5-0.2-6.5,2.1c1.8,3.6,2.7,5.1,2.7,4.4c-3.4-3-6.1-3.5-8-1.7c-0.5-0.9-0.3-1.5,0.5-1.7c1.5-0.5,2.3-0.8,2.6-1
		c0.5-0.3,1.4-1.3,2.7-2.9c1-1.1,1.9-1.8,2.6-1.9c3.1-0.7,6.2,0.8,9.4,4.4c1.4-0.7,2.1-2,2.1-3.9c0-1.9-0.7-3.1-2.1-3.6
		c-0.8,0.1-3.5-0.5-8-1.7c-3.1-0.9-5.4-0.2-7,2.1c-0.3-0.2-1.1-0.9-2.4-2.1c-0.9-0.9-1.8-1.5-2.6-1.9c-2.7,0-4.3,0.3-4.8,0.9
		c-0.5-1.3,0.3-2.2,2.2-2.9c1.8-0.8,3.6-0.9,5.3-0.2c2.5-3,5.1-4,7.9-3.1c1.6-3.6,0.5-6.7-3.2-9.2c-3.6-2.3-7-2.4-9.9-0.5
		c-0.3-1.5,0.8-2.4,3.4-2.9c2.5-0.6,4.7-0.5,6.7,0.2c0.5-1.9,0-3.4-1.4-4.3c-1.4-0.8-2.8-0.9-4.4-0.2c-0.1-2.1,1.4-2.9,4.4-2.6
		s4.9,1.4,5.5,3.1c4.8-0.3,7.1,2,7,7c0.2,0.3,0.9,0.5,2.1,0.5c1.1-0.1,1.8,0,2.1,0.3c-0.8-1.4-1.9-4.1-3.2-8.2
		c-1-3.1-2.2-5.4-3.4-6.8c3-0.6,5.1,0.2,6.3,2.4c1,2.2,1,4.5-0.2,7c2.1,2.7,3,5,2.7,6.7c3.2,2.6,4.7,6,4.4,10.1
		c1.6-0.5,2.7-1.5,3.4-3.1c0.1-0.1,0.2-0.6,0.2-1.5c0.1-0.8,0.2-1.3,0.3-1.5c0.3-0.6,1.1-1.3,2.2-2.1c1-0.7,1.6-1.3,1.7-1.9
		c0.6-2.3-0.2-4.5-2.2-6.7c1.3-3.5,1-6.5-0.9-8.9c6.5,0.7,9.5-1.3,8.9-5.8c0-0.1-0.3-0.5-0.9-1.2c-0.7-0.7-1-1.2-0.9-1.5
		c0-0.6,0.5-1.4,1.4-2.6c0.8-1.1,1.2-1.9,1.2-2.2c0.1-0.8-0.9-2.9-3.1-6.3c0.3-3.9-1.4-6.4-5.3-7.5c-3.9-1.3-6.7-0.3-8.4,2.7
		c-2.7-1.1-4.8-0.9-6.3,0.9c-0.9-5.6-3.9-7.8-8.9-6.7c0.1-2.5-1.1-4-3.6-4.6c-2.6-0.5-4.4,0.3-5.3,2.4c-0.1,1.9,0.1,3.4,0.5,4.4
		c-4.4,0.5-7.1,3.5-8,9.2c-0.9,5.7,0.6,9.6,4.4,11.6c4.6-2.8,7.7-4,9.4-3.6c0.5-2.6,2-4.6,4.6-6c2.7-1.6,5.3-1.5,7.7,0.3
		c2.1-2.4,4.6-3.4,7.7-2.9c3.4,0.3,5.2,2.3,5.3,6c-0.1,0.5,0,0.7,0.3,0.9l0.9,0.3c-0.8,0.7-2.4,1-4.8,1c1.3-2.7,0.2-4.5-3.1-5.3
		c-3.4-0.7-5.4,0.3-5.8,3.1c-1.6-1.4-3.6-1.9-6-1.7c-2.6,0.3-4.2,1.5-4.6,3.4c0.1,0.6,0.7,1,1.7,1.4c0.9,0.5,1.5,0.9,1.7,1.4
		c-3.5-0.9-6.7-0.7-9.4,0.7c-3.2,1.6-4.6,4.3-4.3,8.2c-4.1-1.9-6.2-5.1-6.2-9.4c-4.4-2.3-6.7-5.7-6.7-10.3c2.4,0.1,4.2-0.7,5.3-2.4
		c1.3-1.7,1.5-3.7,0.9-6c1.9-1.4,4.2-1.5,6.7-0.5c-3.1-3.9-3-8.1,0.3-12.6c1.5-1.9,3.1-3,5-3.2c2.1-0.3,4,0.5,5.8,2.6
		c3.1-2.1,5.4-3.1,7-3.1c-0.6-3-2.2-5.4-5-7.2c-3-2.1-5.4-1.7-7.3,1c-3.3-4.8-7.1-5.1-11.5-0.9c-3.8,3.5-6,7.6-6.8,12.3
		c-5.6-0.1-14.9-0.1-28,0c-10.8,0.1-20.7,0-29.6-0.3c3.3-4,4-9.6,2.2-16.9c-0.2-0.6-0.7-1.1-1.4-1.5c-0.7-0.6-1.1-1.1-1.4-1.5
		c-0.1-0.3-0.2-0.9-0.2-1.5c0.1-0.8,0.2-1.3,0.2-1.5c-0.2-1.1-1-2.4-2.2-3.8c-1.1-1.4-1.7-2.3-1.7-2.9c-1.6,0.1-3.8,0.1-6.7,0
		c-2.7-0.2-4.7-0.2-5.8,0c-3.8,0.5-5.4,3.2-5,8.4c-1.9,0.6-3.4,1.6-4.4,3.1c0.1,1.3,0.2,3.1,0.2,5.5c0,2.5,0,4.3,0,5.3
		c0.3,3.8,1.8,6.1,4.3,7c-5.7,0.9-15,1.2-27.9,0.9c-20.6-0.3-30.2-0.5-28.9-0.3c-0.6-4.9-3.4-7.4-8.4-7.5c-3.6-2.8-6.6-4-8.9-3.6
		c-0.6,0.1-1.3,0.7-2.2,1.7c-0.9,0.9-1.5,1.4-1.9,1.4c-0.2,0-1.3-0.6-3.2-1.7c-1.7-1.1-3.3-1.4-4.8-0.9c-3.4,1.1-4.9,3.8-4.4,7.9
		c-0.1,0.6-0.5,1.3-1,2.1c-0.6,0.8-0.9,1.5-1,2.1c-0.1,1.9,0,3.4,0.3,4.4c-1.6,0-2.9,0.6-3.9,1.7c-0.8,1.1-1.1,2.5-1,3.9
		c0.2,3.6,2.3,5.1,6.3,4.4c-2.4,2.2-4,5.4-5,9.7c-1,4.8-0.1,8.4,2.7,10.8c-2.2,2.5-3,5.8-2.6,9.7c0.6,4.3,2.6,6.6,6.2,6.7
		c-1.4,3.1-0.8,6.2,1.7,9.2c-2.5,1.6-3.8,4.2-3.9,7.7c0,3.4,0.9,6.4,2.6,8.9c-1.7,2.1-2.7,4.5-3.1,7.3c-0.5,3.2,0.5,5.6,2.7,7.2
		c-1.3,2.2-1.4,4.3-0.3,6.5c1,2.2,2.7,3.1,5.1,2.9c1.3-1.4,1.9-3.4,1.9-6.2c-0.1-4.6-0.1-6.9,0-7.2c-2.2-1.7-3.5-4.6-3.9-8.5
		c-0.6-4.4,0.7-7.1,3.9-7.9c-3.1-5-2.7-9.7,1-14c3.8-4.3,8.3-5.1,13.5-2.4c2.1-3.2,5.2-4.9,9.4-5.1c4.3-0.1,7.6,1.4,9.7,4.6
		c4.4-2.3,8.4-0.5,12,5.3c-0.1,2.1,0.5,3.6,1.7,4.6c0.5,0.3,1.8,1,4.1,2.1c0.3-0.8,0-1.8-1-2.9c-1.3-1.4-1.9-2.3-2.1-2.9h3.1
		c1.4-2.8,1.1-5.5-0.9-7.9c-1.8-2.5-4.2-3.4-7.2-2.7c-0.7-1.7-1.5-2.9-2.6-3.6c-1.8,0-3,0.3-3.6,1c-0.2-0.5-0.8-1.1-1.7-1.9
		c-0.8-0.7-1.3-1.4-1.4-2.2c3.3-1.8,6.3-1.4,8.9,1.4c-1.3-5.1-4.6-7.9-9.9-8.4c0.3-1.5,1.4-2.4,3.2-2.7c-0.7-1.4-1.8-2.6-3.4-3.6
		c-1.7-1-3.2-1.5-4.6-1.4c-0.2-2.3,2.4-2.1,8,0.5c1.1-1.6,0.5-5-1.9-10.3h9.7v5c-0.9,0.6-1.7,1.9-2.2,4.1c-0.5,2.2-1.2,3.6-2.2,4.3
		c2.1-0.2,4.3,0.8,6.7,3.1c2.1-0.8,3.9-0.7,5.6,0.2c1.8,1,2.6,2.8,2.4,5.3c-2.1-0.1-4.1,0.7-6.2,2.6c1.5-1.4,3.2-1.8,5.1-1.4
		c1.7,0.3,3.1,1.3,4.3,2.7c1.3,1.5,1.8,3.1,1.7,4.8c-0.2,1.9-1.3,3.6-3.2,5c0.3,1.3,2.4,2.8,6.3,4.6c3.1,1.4,3.9,3.7,2.6,7
		c4.3,0.3,6.5,2.1,6.7,5.3c0.7,0,1.4-0.2,2.1-0.5c0.8-0.3,1.5-0.5,2.1-0.3c0,1,0.9,2.2,2.6,3.4c-0.3,2.8,0.5,6.7,2.6,11.6
		c2.2,4.7,2.8,9.1,1.9,13.3c-1.6-1.3-4-1.7-7.2-1.4c-2.8,0.3-5,1.1-6.5,2.2c0,0.3,0.1,1,0.3,1.9c0.1,0.7,0.1,1.4,0,2.1
		c-0.7-2.7-2.9-4.6-6.7-5.6s-6.8-0.5-9.2,1.7c0.1-2.4,2.2-3.9,6.3-4.6c4.2-0.7,6.8,0.4,7.9,3.2c4.3-2.5,7-3.8,8-3.9
		c-0.2-6.9-3.8-10.8-10.8-11.6c-1.9-5.2-5.9-7.9-12-7.9c0.8-3.4-0.3-5.3-3.4-5.6s-4.9,0.8-5.5,3.4c-1.6-1.5-3.6-2.1-6.2-1.7
		c-2.6,0.5-4.3,1.6-5,3.4c0.3,0.5,1,0.9,2.1,1.4c1,0.5,1.7,0.9,2.1,1.4c-5.9-0.6-9.5-0.2-10.8,1.2c-0.2-0.8,0.2-1.6,1.4-2.4
		c1.1-0.7,2.3-1,3.6-1c0.6-2.6,2.2-4.6,4.8-6c2.8-1.3,5.5-1.1,8,0.5c1.7-1.7,2.9-2.6,3.6-2.6c-0.2-0.7-1.3-1.1-3.1-1.4
		c-0.9-2.6-2.8-4.4-5.6-5.5c-3-0.9-5.8-0.6-8.5,1c-0.2-3.9-2.7-5.9-7.5-6c-4.7-0.2-7.2,1.6-7.5,5.5c-1.8-2.1-3.9-3.1-6.3-3.1
		c-2.2,0-4.1,0.8-5.8,2.4c-1.8,1.5-2.8,3.3-3.1,5.5c-0.3,2.5,0.4,4.8,2.2,6.8c-0.5,0.5-1.3,1-2.4,1.7c-1.3,0.7-2.1,1.3-2.4,1.9
		c-0.3,3.1,0.3,5.7,2.1,7.9l5,5c-1.1,3.8-0.2,8.5,2.7,14.2c-1.5-0.6-3.6-2.3-6.3-5.3c-1.5,2.2-1.8,4.7-1,7.5c0.9,3,2.7,4.3,5.5,4.1
		c2.1,4.8,5.2,7.6,9.4,8.4c-1.5,3.2-1.2,6.2,0.9,9.1c1.9,3,4.6,3.9,8,2.9c1.9,4.8,4.9,7.3,8.9,7.5c0.7-2.5,1.1-3.9,1.2-4.3
		c0.7-1.5,1.8-2.3,3.2-2.4c-1.5-3.6-2.2-5.7-2.2-6.2c-5-0.2-8.8-2.3-11.5-6.2c-2.5-4-2.8-8.4-1-13.3c-1.6-2.8-1.8-5.8-0.5-8.9
		c1.3-3.3,3.5-4.8,6.7-4.4c-2.2,1.1-3.5,3.2-3.9,6.3c-0.3,2.8,0.1,5.6,1.4,8.2c-2.1,4.3-1.8,8.1,0.9,11.3c2.6,3.3,6.3,4.7,11.1,4.3
		c0.2,5.9,2.3,9.5,6.2,10.8c2.6,0.7,5.6,0.3,8.9-1.2c5.1-2.5,7.8-3.8,8-3.8c-1.9,3.4-4.6,6-8,7.7c-4.1,2.1-8.1,2-12-0.2
		c-1.1,0.9-1.6,2.5-1.4,4.8c0.2,2.2,0.9,3.7,1.9,4.6c-1.1,3.3-0.4,5.2,2.2,5.6c2.6,0.3,4.7-0.5,6.2-2.6c0.1,3.8,1.7,6.4,4.8,8
		c3.1,1.6,5.9,1.1,8.5-1.4c1.5,2.3,3.9,3.5,7.3,3.6c3.4,0.1,6-1,7.7-3.2c0.7,0.2,1.4,0.5,2.2,0.9c1,0.6,1.8,0.9,2.2,1v5.8
		c-1-0.2-2.6-1.7-4.8-4.4c-0.7,2.8-2.6,4.6-5.6,5.1c-3,0.6-5.4-0.3-7.3-2.6c-2.1,3-5.5,4.7-10.4,5.1c-5.4,0.6-8.9-0.9-10.8-4.3
		c-1.9,1.5-4.1,1.7-6.5,0.5c-2.5-1.1-3.3-2.9-2.4-5.3c-3.9,0-6.9-1-9.1-3.1c-2.2-2.2-3-5-2.6-8.5c-2.6-0.3-4.6-1.5-5.8-3.4
		c-1.5-2.2-1.6-4.6-0.3-7.2c-2.3-0.3-4-1.3-5.1-2.7c-1.4-1.7-1.6-3.8-0.7-6.2c-2.5,0-4.3-1.3-5.5-3.8c-1.3-2.6-1-4.9,0.7-6.8
		c-4.8-3-7.6-6.4-8.5-10.3c-3.5,0.7-6.4-0.1-8.5-2.4c-2.2-2.3-2.3-4.7-0.3-7.3c-3.1-3.1-4.6-5.5-4.4-7.2c0.1-0.5,0.5-1.1,1.2-1.9
		c0.7-0.9,1-1.6,1-2.1c0.1-0.6-0.1-1.4-0.5-2.4c-0.3-1.1-0.5-2-0.3-2.6c0.1-0.5,0.6-1.1,1.4-1.9c0.7-0.9,1.1-1.6,1.4-2.1
		c-0.1,0.2,0.1-2.1,0.5-7c0.2-3.1,1.2-5,2.9-5.8c-2.1-2.5-3.1-3.7-3.1-3.6c0.8-2.4,1.1-3.4,1-3.1c-3.2-1.6-5.2-2.9-6.2-3.9
		c-1.7-1.8-2.2-4.4-1.5-7.7c0.2-0.7,0.8-1.5,1.7-2.6c1-1,1.5-1.7,1.5-1.9c0,0.2-0.9-1-2.6-3.6c-1.4-1.9-1.3-3.7,0.3-5.3
		c-0.8-1.3-1.3-2.7-1.4-4.4c-0.2-2.1,0.2-3.5,1.4-4.4c-2.2-0.3-3.7-1.5-4.6-3.4c-1-2.1-0.9-4,0.5-5.8c-1.8-2.7-2.8-4.7-3.1-5.8v-2.2
		c1.1-4.1,3.2-6.5,6.2-7.2c0.8,2.3,1.5,3.5,2.2,3.6c-1.7-3.8-1.4-7.5,1-11.1c2.5-4,6.2-5.3,10.9-3.9c1.3-3,3.7-4.4,7.3-4.4
		c3.8,0,6.1,1.7,7,5c1.7-1.9,4.3-2.8,7.9-2.6c3.5,0.1,5.9,1.3,7.2,3.4l4.8-0.9c-0.7,0.1-0.7-0.5,0-1.9c3,0.6,5.8,2.1,8.5,4.4
		c-1.1-2.5-4.8-6-11.1-10.6c1.7-0.1,3.9,0.5,6.7,1.7c3.8,1.6,6,2.5,6.7,2.7c0.2,0.8-2-1.3-6.7-6.3c-0.8-0.1,4.5,2.6,15.9,8
		c-0.9-1.6-4.9-5.1-12-10.6c1.4,0.3,5.4,2.7,12,7c0.1,0.1-3.9-3.7-12-11.5c1.6,0.6,3.9,1.8,6.8,3.6c3.9,2.5,6.2,4,7,4.4
		c-0.3-0.7-3.6-4-9.7-9.9c1.3,0.5,3.1,1.7,5.6,3.8c2.6,2.3,4.7,3.7,6.3,4.3c-1.8-3.4-4.2-6.8-7.2-10.3c1.5,0.6,3.5,1.9,6,4.1
		c3.2,2.7,5.2,4.3,6,4.8c-0.7-2.5-2.7-5.9-6.2-10.1c1,0.1,2.3,1,3.9,2.7c2.1,2.2,3.4,3.5,4.1,3.9c-0.8-1.5-2.1-3.9-3.9-7.3
		c-1.6-3.1-2.8-5.5-3.8-7.3c1.7,1.5,4,3.9,7,7.3c3,3.3,5.2,5.8,6.8,7.3c-4.2-8.1-6.2-11.8-5.8-11.1c0.7,0,1.6,0.6,2.7,1.9
		c1.6,1.7,2.6,2.7,3.1,2.9c-0.2-1-0.7-2.5-1.5-4.4c-0.8-1.8-1.3-3.3-1.5-4.4c0.8,0.6,1.8,1.7,3.1,3.4c1.3,1.6,2.3,2.7,3.1,3.2
		c0-0.3-0.2-1-0.5-1.9c-0.3-0.7-0.5-1.4-0.3-2.1c3,3.4,5,6.2,6.2,8.4c-0.5-1.9-1.7-5-3.6-9.2c-2.1-4.4-3.4-7.9-3.9-10.3
		c2.1,3,4.4,7.2,7.2,12.8c0.1-1.1-0.2-3-1-5.5c-1-3.1-1.6-5.1-1.7-6c1.3,1.7,3.6,7,7.2,15.9c0.5-1.7,0.7-3.9,0.7-6.5
		c0.1-3.5,0.2-5.5,0.2-5.8c2.2,4.1,3.9,8.2,5.3,12.3c0.5-1.3,0.6-3.3,0.5-6.2c-0.1-3.6-0.1-5.9,0-6.7c1,2.8,1.8,6.6,2.2,11.1
		c0.8-0.8,1.4-2.3,1.7-4.4c0.6-2.6,1-4.3,1.4-5c0.3,0.3,0.6,2.7,0.9,7.2c0.7-0.9,1.3-2.3,1.9-4.3c0.8-2.4,1.4-3.9,1.7-4.6
		c0.1,0.3,0.6,4.3,1.4,12c-0.1,0.1,1.4-4.4,4.4-13.7c0.3,1.3,0.6,3.3,0.9,6.2c0.1,3.4,0.2,5.6,0.3,6.7c1.7-3,3.5-6.9,5.5-12
		c0.6,2.8,0.9,7.6,0.9,14.2c0.9-1.4,1.9-3.2,2.9-5.6c1.6-3.4,2.5-5.4,2.7-6c0.2,1.4,0.1,3.5-0.3,6.3c-0.6,3.4-0.9,5.8-0.9,7
		c5.6-9.3,8.4-14.1,8.4-14.2c-0.2,2.3-1,5.3-2.4,9.1c-1.9,5.1-3.1,8.2-3.4,9.2c3.5-3.8,8.6-10.4,15.2-20c-0.2,0.5-4.7,9.5-13.3,27
		c2.1-1.6,4.6-4.4,7.7-8.5c4.3-5.5,6.9-8.7,7.9-9.6c-0.1,0.5-2.1,4.2-5.8,11.1c0.9-0.6,4.9-4.6,12-12c-0.5,1.6-1.6,3.9-3.4,6.8
		c-2.3,3.9-3.6,6.3-4.1,7.3c-0.6,0.2,3.7-3.1,12.8-9.9c0.2-0.5-5,6.4-15.6,20.5c2.1-0.9,5.1-2.7,9.1-5.3c4.4-2.8,7.6-4.8,9.6-5.8
		c-0.7,1.4-1.9,2.9-3.8,4.6c-2.2,1.9-3.5,3.4-4.1,4.3c1.4-0.2,3.5-1,6.5-2.4c3.5-1.6,5.9-2.6,7.2-2.9c-0.9,1.3-2.3,2.8-4.1,4.8
		c-2.2,2.2-3.6,3.6-4.3,4.4c1.3-0.3,3.1-1,5.6-2.1c2.4-0.9,4.3-1.5,5.8-1.9c-0.7,1.1-1.9,2.6-3.8,4.4c-1.8,1.9-3.1,3.4-3.8,4.4
		c0.7-0.1,1.7-0.3,3.1-0.7c1.3-0.5,2.3-0.7,3.1-0.7c-0.2,1-0.7,2.2-1.5,3.4c-1,1.6-1.7,2.7-1.9,3.2c0.8,0,2.1-0.6,3.9-1.9
		c2.3-1.4,3.8-2.2,4.4-2.6c-0.1-4,1.4-6.9,4.4-8.9c3-1.8,6.2-1.9,9.7-0.3c1.6-1.8,3.9-2.5,7-2.1c3.1,0.5,5,1.7,5.8,3.8
		c2.6-0.8,5,0.4,7.2,3.6c-0.2,2.7,0.3,5.5,1.5,8.2c1.7,3.4,2.7,5.7,2.9,6.8c1.7-1.7,3.6-2.1,5.6-1.2c2.2,0.8,3.1,2.5,2.7,5.1
		c2.3-0.8,4.1-0.5,5.5,1c1.4,1.5,1.7,3.4,0.9,5.6c1.8,0.3,3.1,1.5,3.9,3.6c0.9,2.1,1.4,3.1,1.4,3.1S272.7,102.3,271.2,103.8z
		 M79.5,125.1c-1.7-1.5-4-2-6.8-1.5c-2.8,0.5-4.6,1.7-5.1,3.8c0.3,0.2,1.2,0,2.6-0.7s2.6-0.9,3.6-0.7c-0.5,0.6-1.7,1.4-3.8,2.4
		c-1.7,0.9-2.8,1.9-3.2,2.9c-0.8-1.6-2.1-3-3.9-4.1c-1.9-1.1-3.6-1.4-5-0.7c-0.7-5.4-2.6-8.5-5.8-9.4c2.6-3.8,6.4-5.4,11.5-4.8
		c-0.1-5.5-3.4-8.3-9.7-8.5c0.3-1.4,1.6-2.2,3.8-2.6c2.2-0.2,3.8,0.2,4.8,1.4c0.6-1.6,1.7-2.6,3.2-2.9c1.4-0.3,2.7-0.2,4.1,0.3
		c1.5,0.7,2.4,1.7,2.9,3.1c0.5,1.5,0.1,3.1-1,4.8c5.1,0,7.6,2.3,7.5,7c-1.7-1-3.6-1.5-5.6-1.5c-2.3,0.1-3.9,0.9-5,2.4
		c3-0.1,5.5,0.6,7.5,2.2C78.3,119.6,79.5,122,79.5,125.1z M174,267.1c-0.1,0.1-0.6,0.3-1.4,0.5c-0.6,0.1-0.9,0.4-0.9,0.9
		c6.8,0.3,10.7,0.9,11.6,1.7c-5.1,1-12.9,1.4-23.2,1.2c-11.3-0.2-18.5-0.2-21.7,0.2c0.2,0.3,1.5,0.6,3.8,0.9
		c1.7,0.2,1.9,0.7,0.7,1.4h-12.3c-17.8-3.2-26.5-4.7-26.3-4.4c2.6-0.3,7.3-0.8,14-1.4c6-0.6,10.7-1.1,14-1.7c-0.5-1-1.4-2.4-2.7-4.3
		c-1.3-1.7-2.1-3.1-2.6-4.1c0.2-0.8,1.7-2.4,4.4-5c3.3,5.7,4.8,8.4,4.4,8l-0.9-5c0-0.5,0.4-0.9,1.2-1.2c0.7-0.3,1-0.8,0.9-1.4
		c0.2-10.4,0.4-38.1,0.5-83.1c-3.5-4-5.1-8.9-4.8-14.7c-2.1-0.9-3.4-2.5-4.1-4.8c0-0.1,0.2-0.5,0.5-1c0.2-0.7,0.3-1.1,0.3-1.2
		c0-0.7-0.2-1.4-0.7-2.1c-0.5-0.7-0.6-1.2-0.5-1.5c0-1.1,0.6-2.5,1.7-4.1c1.3-1.8,2-3,2.2-3.4c0.7-0.5,1.4-0.5,2.2-0.2
		c0.8,0.3,1.5,0.4,2.2,0.2c-1-3.2-3-9.4-5.8-18.6c-2.4-0.6-5.4-1.9-8.9-4.1c-3.8-2.3-6.6-3.8-8.4-4.4c-0.3-0.1-0.9-0.2-1.7-0.2
		c-0.9,0-1.5-0.1-1.9-0.2c-1.5-0.7-3.5-2.3-6-4.8c-2.5-2.5-4.5-4-6-4.6c-2.2-0.8-5.5-1-10.1-0.5c-5.1,0.5-9,0.5-11.6,0.2
		c-1.6-1.5-2.3-4.2-2.1-8c0.1-1,0.3-2.6,0.7-4.8c0.2-1.9,0.4-3.3,0.5-4.1c0.1,0,4.2-0.2,12.3-0.5c6-0.1,14.6-0.2,25.8-0.2
		c11.4,0,19.2-0.1,23.4-0.2v-3.2c-2.4-0.2-3.8-2.2-4.1-5.8c0-0.8,0-2.4,0-4.8c0-2.2-0.1-3.8-0.2-4.8c1.7-2.1,3.3-3,4.8-2.7v-7.5
		c1.3-0.5,6.4-0.7,15.6-0.9c0.9,1,1.9,2.9,2.9,5.6c1,2.8,2,4.8,2.9,5.8c0.2,8.8,0.3,13.4,0.3,13.8c0,0.2-0.5,0.7-1.5,1.5
		c-0.7,0.6-0.9,1.4-0.7,2.4c5.7,0.6,15.2,0.7,28.4,0.5c13.1-0.2,24.6,0.2,34.4,1.2c-0.2,1,0,4.2,0.7,9.4c0.5,3.9-0.4,6.3-2.6,7.2
		c-1.8,0.7-5.4,0.7-10.6,0.2c-5.4-0.7-9.2-0.6-11.6,0.2c-5,4.2-10.6,6.6-16.7,7.2c-1.6,1.1-4,2.5-7.3,4.1c-3.5,1.6-6,2.8-7.3,3.8
		c0.1-1.4-0.6,4-2.1,16.1c-0.8,6.2-0.6,11.2,0.7,15c2.7,4.3,4,6.3,3.9,5.8c5.8,0.7,9.1,3.5,9.9,8.4c0.1,1.4-0.3,3.7-1.2,7
		c-0.8,2.8-0.9,5-0.2,6.3c-1.1,0.8-2.1,3.2-2.7,7.2c-0.7,3.4-2,5.4-3.9,5.8c-2.5,0.6-4.4-0.1-5.8-1.9c-0.7,1.5-1.4,5.8-2.2,12.8
		c-0.1,1.4-0.7,3.1-1.7,5.1c-1,2.2-1.7,3.8-1.9,4.8c-0.7,4-0.7,10.3-0.2,18.8c0.6,9.3,0.6,16,0.2,19.8c-0.6,5.8-0.6,9.9,0,12.3
		c1.7-3,2.8-4.6,3.2-4.8c0.5,0.1,1.3,0.2,2.6,0.2c1.1,0,2.2,0.2,3.1,0.7c-3.1,5.4-5,9.1-5.6,11.1C169.4,266.9,174,267.1,174,267.1z
		 M75.9,95.9c2.2,0.7,5.9,0.7,11.1,0C81,92.9,77.3,92.9,75.9,95.9z M80.3,90.4c-2.8,0.3-4.2,1.4-3.9,3.2c1,0.1,2.2,0.1,3.4-0.2
		c1.6-0.2,2.7-0.3,3.2-0.3c-0.2-0.3-0.4-1-0.5-2.1c0-1-0.2-1.7-0.5-1.9c-0.6,0-2.2-0.2-4.8-0.5c-0.3,0.9,0,1.4,1,1.4
		C79.5,90,80.2,90.1,80.3,90.4z M77.3,98.1c6.2,0.8,12.2,0.8,18.1,0C89.7,97.3,83.6,97.3,77.3,98.1z M78.1,85.1
		c-0.2,0.3-0.4,1.4-0.5,3.1h5c0-0.3,0.3-1.4,0.9-3.1H78.1z M86.5,87c-1.8-0.1-2.7,0.3-2.6,1.2C85.6,87.9,86.5,87.5,86.5,87z
		 M132.3,118.5c0.6,1.6,1.3,3.8,2.2,6.7c1,3.3,1.8,5.6,2.2,6.8c1.8,5.2,4,9,6.7,11.3c5.1,2.8,7.7,4.3,7.9,4.3c3.4,1.3,6.7,1,9.9-0.7
		c0-2.4-0.3-3.9-0.9-4.4c-0.1,0.2-0.1,1.1,0,2.7c0.1,1.1-0.2,1.7-1,1.7c0,0.1,0.2-0.6,0.5-2.2c0.1-0.9-0.1-1.2-0.5-0.9
		c-0.3,1.7-0.5,1.9-0.3,0.5c0.2-1.8,0.2-2.6,0-2.2c-0.1,0.9-0.4,1.5-0.9,1.7c0-1.8,0.4-3.1,1.2-3.9c0.3,0.6,0.7,1,1,1.2
		c-0.1-3.9,0.7-12.1,2.6-24.8c-0.6,0.3-1.1,1.4-1.5,3.2c-0.5,1.7-1.3,2.6-2.4,2.6c-0.5,0.9,0.5-2.1,2.9-8.9c1.3-3.4,2.9-5.6,5-6.7
		c0,0.9-0.7,2.2-2.1,3.8c-1.3,1.4-1.7,2.5-1.4,3.2c6.4-3.5,9.6-5.3,9.7-5.3c-0.2,0.6-0.7,1.1-1.5,1.5c-0.8,0.5-1.3,0.9-1.5,1.2
		c9.8-5.4,17.2-9.1,22.2-11.1c-0.6,1.4-2.5,2.6-5.8,3.6c-3.1,0.9-4.7,1.9-5,3.1c3.2-0.9,6.8-2.7,10.9-5.5c5-3.3,8.3-5.4,9.9-6.2
		c2.6,1.1,4.9,0.6,6.8-1.7c1.9-2.3,2.3-4.5,1.2-6.7c0,0.7-0.7,1-2.2,0.9c0.1-0.8,0.6-1.3,1.5-1.4c0.9-0.1,1.4-0.4,1.5-0.9
		c-0.3-0.3-1-0.4-2.1-0.2c-1,0.2-1.9,0-2.7-0.7c-1.8-0.1-3.4,0.7-4.6,2.4c-2.2,2.7-3.3,4.2-3.4,4.3c-1.7,1.4-4.8,2.7-9.2,3.9
		c-4.4,1.1-7.6,2.5-9.4,4.1c0.1,0,0.3,0.1,0.5,0.2c-1.6,0.1-3.5,0.6-5.8,1.5c-2.5,1-4.2,1.7-5,1.9c-0.9,0.1-2.6,0.1-5.1,0
		c-2.2-0.2-3.9-0.1-5.1,0.3c-0.8,0.3-1.7,1.1-2.7,2.2c-0.9,1.1-1.8,1.9-2.6,2.2c-0.3-0.8-0.6-1.9-0.7-3.4c-0.3-2.1-0.6-3.2-0.7-3.6
		c-2.6,3.6-6.2,4.7-10.6,3.1c-0.3-0.2-0.2,1.3,0.5,4.4c-0.5,0.1-1.3,0.8-2.4,2.1c-0.9,0.9-2.1,1.3-3.4,1c-1,2.3-2.1,3.8-3.1,4.4
		c0.1,0.1,0.4,0.4,0.9,0.9c0.5,0.5,0.8,0.9,1,1.2c0.7,0.9,0.8,1.7,0.3,2.4c-1.9-2.1-5.1-4-9.4-6c-5.4-2.4-8.8-4.1-10.3-5.1
		c1.8,0.3,4.2,1.3,7.2,2.7c2.8,1.4,5.2,2.2,7.2,2.6c0-0.7-0.6-1.4-1.7-2.2c-0.9-0.8-1.3-1.4-1-1.7c0.9,0.3,2.4,1.5,4.4,3.4
		c-0.5-4,0.3-6.6,2.2-7.9c-4,0.8-8,0.4-12.1-1.2c-4.9-1.9-8.7-2.9-11.5-2.9c-0.1,1.1-0.2,1.8-0.3,1.9c-0.8-1-0.6-1.8,0.5-2.2
		c0.3-0.2,0.9-0.4,1.5-0.5c0.7-0.1,1.1-0.2,1.4-0.3c-1.4-0.9-3.2-1.9-5.6-3.1c-3.2-1.5-5.1-2.4-5.8-2.7C98,92.1,95,89.3,93.7,86
		c-0.3,0-1-0.2-1.9-0.5C91,85.1,90.4,85,89.9,85c-1.6-0.3-2.6,0.2-2.9,1.5c0.2,0,0.6,0,1.2,0c0.5,0,0.8,0,1,0c0.8,0,1.3,0.3,1.4,0.9
		c0.1,0.3-0.1,0.7-0.7,1c-0.5,0.3-0.4,0.6,0.2,0.9c0.1-0.3,0.5-0.3,1.2,0.2c0.8,0.5,1.1,1,1,1.5c-0.7,0.3-1,0.6-1,0.9l0.2,0.3
		c0.2,0.3,0.4,0.7,0.5,1c-0.3,0-0.6-0.2-0.9-0.5c-0.2-0.3-0.6-0.5-1-0.3c0.1,0.8-0.1,1.1-0.5,1c-0.7,0-1.1,0.2-1.2,0.7
		c-0.1-0.8-0.3-1.3-0.5-1.4c-0.1,0.9-0.2,1.4-0.3,1.4c0.2,0,0.1-0.7-0.5-2.2c-0.1,0-0.6,0.2-1.5,0.7c-0.6,0.3-1,0.1-1.2-0.7
		c2.1-0.8,3-1.1,2.7-0.9c-0.7-0.3-1.7-0.2-3.1,0.5c0.7,2.8,3.6,3.9,8.9,3.1c2.1,1.4,5.1,3.8,9.1,7.2c3.8,3.2,6.8,5.5,9.1,7
		c3.4,0.9,5.1,1.4,5.1,1.4S121.5,112.9,132.3,118.5z M89.2,89.2c0.2-1.4-0.4-1.9-1.9-1.5c-0.5,0.1-0.7,0.3-0.9,0.5
		c-0.2,0.3-0.1,0.7,0.5,1c-1.7-0.8-2.7-0.5-3.1,0.9c0.8,0.3,1.8,0.2,2.9-0.3C87.9,89.2,88.7,89,89.2,89.2z M88.4,89.6
		c0.6,1.5,0.7,2.2,0.3,2.2c0.1-0.3,0.6-0.5,1.4-0.3C90.3,90,89.7,89.3,88.4,89.6z M95,84.8c-0.1,1.1,0.3,2,1.2,2.6l2.7,0.9
		c-1.8,0.7-2.7,0.9-2.6,0.5c0.6,0,1.4,0.5,2.4,1.4c1.1,1,2.1,1.6,2.9,1.7c2.6,0.6,7.2,0.6,13.8,0c6-0.5,9.9-0.5,11.5,0
		c-2.7,0.6-6.8,0.9-12.1,0.9c-5.9,0.1-9.9,0.3-11.8,0.5c2.5,2.5,7.5,3.6,15,3.4c9.2-0.2,14.9-0.1,16.9,0.5c0.7-2.4,0.5-5-0.5-7.9
		c5.4-3.4,9.2-4.9,11.5-4.4c1,0.1,2.4,0.8,4.1,2.1c1.3,0.9,2.3,1.1,3.1,0.5c2.3,5.8,3.5,10.7,3.6,14.7c-0.6-0.3,1-0.8,4.8-1.4
		c-0.5-0.2-1.1-0.2-2.1,0c-0.8,0.1-1.4,0-1.9-0.3c0-0.3-0.1-0.7-0.2-1c-0.2-0.3-0.3-0.6-0.3-0.9c1.6-0.1,5-0.1,10.1,0.2
		c3.8,0.1,6.3-0.1,7.7-0.5c-1-0.2-3.9-0.2-8.7,0c-4.3,0.2-7.6-0.1-9.9-1c2.6-0.7,7.8-0.9,15.6-0.5c6.3,0.2,10.9-0.7,13.8-2.9
		c-2.5,0.1-6,0.2-10.6,0.2c-5.6,0.1-9,0.2-10.3,0.2c-0.6,0-1.4,0.1-2.6,0.3c-1.1,0.1-2,0.2-2.6,0.2c-1.9,0.1-3.1-0.5-3.4-1.9
		c2.3,0.2,6.9,0.3,14,0.2c7.2-0.1,13.6,0.2,19.3,0.9c0.3-0.3,1.2-0.7,2.6-1.2c1.3-0.3,2.1-0.9,2.4-1.5c-14.2-1-21.2-1.5-21-1.4
		c13.6,0.3,21.9,0.2,25-0.3c0.2-0.7-0.1-1-0.9-1c-0.9,0.1-1.4,0-1.4-0.3c2.1-0.1,3.1-0.4,3.1-0.9c-1.4-0.2-6.6-0.2-15.6,0.2
		c-7.6,0.3-13.3-0.2-16.9-1.5h21.4c7.9,0,12-0.2,12.5-0.5c-2.8-0.3-10.6-0.5-23.2-0.3c-12.9,0.1-21.2-0.1-25.1-0.5V81
		c0.1-1.3-0.3-1.8-1.4-1.7c-0.3,0.2-0.5,1.1-0.5,2.7c0.1,1.5-0.2,2.2-0.9,2.2c0-0.5-0.1-1.3-0.3-2.4c-0.1-0.9-0.1-1.8,0-2.6
		c-0.5-0.1-1-0.2-1.7-0.2c-0.8,0.1-1.4,0.1-1.9-0.2c-0.1,2.1-0.4,3.1-0.9,3.1c-0.3-0.2-0.5-1.3-0.5-3.1H139v5.8
		c-2.6,0-10.3,0-22.9,0c-10.5,0-15.7,0-15.7,0S98.6,84.8,95,84.8z M124.8,144.6c-0.1-4.9-3-7.5-8.5-7.9c1.3-1.5,1.9-3.6,1.9-6.3
		c0-2.8-0.7-4.8-2.2-5.8c1.1-1.8,1.1-3.6,0-5.5c-1.3-1.9-3-2.7-5.3-2.4c-0.3-2.4-1.9-4-4.8-4.8c-2.8-0.9-5.1-0.5-6.8,1.2
		c-1.1-1.6-1.3-3-0.5-4.3c1.5-2.2,2.3-3.4,2.4-3.8c0.9,0.7,10.7,5.6,29.2,14.7c1.6,5,3.2,10.5,5,16.4c-2.3-0.7-4.1,0.5-5.5,3.4
		C128.2,143,126.6,144.6,124.8,144.6z M110.6,89.2l-7.2,0.3c1-0.1,11.2-0.4,30.6-0.9c-1.7,1-5.2,1.4-10.6,1
		c-7.4-0.5-11.1-0.7-11.1-0.7S111.7,89.1,110.6,89.2z M136.7,86.5c-7.6,2.2-15.6,2.2-23.9,0c1.4-0.1,4.8-0.1,10.4,0
		C129.6,86.6,134.1,86.6,136.7,86.5z M112.8,98.1c1.6,0.6,4.6,0.7,8.9,0.5c5.4-0.3,9.3-0.4,12-0.2c0.2,0,0.5,0.2,0.9,0.7
		c0.1,0.1,0.3-0.1,0.5-0.7C125.7,97.8,118.3,97.7,112.8,98.1z M119.8,94.5c7.9-0.3,11.8-0.5,12-0.5c-1.8,0.8-4.9,1.1-9.2,1
		c-4.7-0.2-7.8-0.1-9.4,0.3c0.2-0.8,1.1-1.2,2.7-1.2c0.3,0,1,0.1,2.1,0.2C118.8,94.5,119.5,94.5,119.8,94.5z M135,100.3
		c-1.8,0.3-4.9,0.5-9.2,0.3c-4.4-0.1-7.2-0.1-8.2,0c4.4,2.7,10.1,3.9,16.9,3.6c0,0.1,0.3-0.6,0.9-2.2
		C135.7,101.3,135.6,100.7,135,100.3z M134,101.5c-0.1,0.8-1.1,1.2-3.1,1.2c-2.2,0.1-3.5,0.5-3.9,1c-3.2-1.3-4.6-1.8-4.1-1.7
		c1.1-0.5,2.9-0.6,5.3-0.5C131.5,101.6,133.4,101.6,134,101.5z M153.1,157.9c0.6,0.5,1.9,1,3.9,1.5c1.8,0.6,3,1.3,3.6,2.1
		c-3.6,0.2-8.3-1.6-14-5.5c-4.9-3.3-9.4-4.2-13.5-2.6c2.2,0.2,6.9,2.5,14.2,6.7c1.6,0.9,3.8,1.8,6.7,2.7c3.1,1,5,1.8,5.8,2.2
		c0.3,0.1,0.7,0.4,1.2,0.9c0.7,0.7,1.1,1.1,1.4,1.2c1.3,0.8,2.3,0.9,3.2,0.2c-0.3-0.2-1.2-0.5-2.6-0.7c-1-0.2-1.7-0.6-1.9-1.2
		c0.6-0.1,1.3,0,2.2,0.3c0.8,0.2,1.5,0.3,2.2,0.2c0.6-2.2,0.7-3.2,0.3-3.1c1.3,0.2,2.2,1.1,2.7,2.6c0.7,1.6,0.7,3.1,0,4.4
		c-0.3-0.1-0.7-0.7-1-1.7c-0.2-0.8-0.6-1.3-1.2-1.4c-0.7,1.3-0.1,2.9,1.7,5c-0.2,0-0.7-0.2-1.5-0.7c-0.5-0.1-0.8,0.1-1,0.7
		c-1.3-3-5.4-5.6-12.5-8c1.4,0.7,3.3,2.4,5.8,5.1c2.2,2.4,4.2,3.9,6.2,4.6v3.1c0.1,1.9,0,3.6-0.3,5c-0.2,0-0.5-0.1-0.7-0.3
		c-0.2-0.1-0.5-0.2-0.7-0.2c0.2,1,0.8,2.4,1.7,4.1c0.5-0.2,0.6-0.6,0.3-1.2c-0.2-0.3-0.2-0.6,0.2-0.7c0.5,0.1,0.9,0.5,1.4,1
		c0.3,0.7,0.7,1.1,1.2,1.2c1.1-0.9,2.2-1.9,3.1-3.1c-0.8-1.6-0.7-3.2,0.2-4.8c0.1-0.3,0.6-1,1.4-2.1c0.6-0.8,1-1.5,1.2-2.1
		c0-0.3-0.3-0.6-1-0.7c-0.6-0.2-0.8-0.6-0.7-1c1.5-1.8,2.3-4.2,2.6-7c0.2-2.7-0.2-5.1-1.4-7.2c-0.6-1.1-2.1-2.1-4.6-2.9
		c-2.7-0.8-4.4-1.7-5.1-2.6c0.1,0.1-1.8,0.6-5.6,1.4c1.4-2.3,3.7-3,7-2.2c-1.3-1.3-2.7-1.5-4.4-0.9c-0.6,0.2-1.3,0.6-2.2,1.2
		c-1,0.6-1.8,0.9-2.2,1c0.7,0.3-3.8-1.4-13.3-5.3c0.8-0.1,1.8,0.1,3.1,0.7c1.1,0.5,1.9,0.5,2.2,0.2c-1.8-1.4-4.4-2.1-7.7-2.2
		c-3.6,0-6.1,0.9-7.3,2.7c0-0.3-0.2-0.6-0.5-0.9c-0.3-0.2-0.5-0.6-0.3-1c1.5-2.7,2.1-4.3,1.7-4.8c-0.8-0.2-1.2,0.1-1.2,1
		c-0.1,1.3-0.3,1.9-0.5,2.1c-1.5-2.2-0.9-3.8,1.9-5c2.8-1.1,4.6-0.7,5.1,1.4c-1.1,0-2.3,0.5-3.4,1.4c-1.4,1-1.8,2.2-1.4,3.6
		c0.1-0.3,0.5-0.6,1.2-0.7c0.6-0.1,0.9-0.3,1-0.7c-0.3,0.1-0.6-0.1-0.9-0.7c-0.2-0.5-0.1-0.7,0.3-0.7c0.3,0.8,1.4,1.3,3.2,1.4
		c2.2,0,3.5,0.1,3.9,0.3c-2.7-4.9-6.3-7.1-10.6-6.7c-0.1,1.1-0.7,2.4-1.7,3.8c-0.9,1.5-1.4,2.8-1.5,3.9c1,0.2,1.5,1.1,1.4,2.6
		c-0.1,1.4,0.1,2.1,0.5,2.2c3.4-4.6,6.4-5.8,8.9-3.6c-1.4-0.2-2.8,0-4.4,0.7c-1.7,0.7-2.6,1.5-2.7,2.6c0.5,0.3,1.5,0.2,3.2-0.5
		c1.6-0.6,2.7-0.6,3.4,0c-0.1,0.3-0.8,0.6-2.1,0.7c-1,0.2-1.4,0.5-1,0.7c2.8-0.2,6.8,0.6,12,2.4c6,2.3,10.2,3.5,12.5,3.8
		c0.3,0.1,0.8,0.1,1.4,0c0.8-0.1,1.3-0.2,1.5-0.2c1.1,0,1.8,0.7,1.9,2.1c-1.3-0.5-3.5-0.9-6.8-1.2
		C155.8,158.3,153.8,158,153.1,157.9z M130.6,256.5c-0.5,2.5,1.4,5.5,5.6,8.9C135.4,263.7,133.5,260.8,130.6,256.5z M134.5,111.3
		c-0.2-0.6,0-0.9,0.7-1c0.6-0.2,0.8-0.6,0.7-1.2c0.9-0.6,0-1-2.7-1.2c0.3,0.6,0.5,1.2,0.3,1.9c-0.1,0.6-0.1,1,0.2,1.2
		c0-0.3,0.1-0.5,0.3-0.5C134.2,111,134.4,111.3,134.5,111.3z M141.5,77.6c3.5-0.1,4.9-0.3,4.1-0.5c-0.3,0-2.5,0.1-6.3,0.2
		c-2.6,0.1-4-0.5-4.3-1.9c-0.9-0.2,6.3,0.3,21.7,1.7v-4.3c0.2,0,0.4,0.1,0.5,0.3c0.1,0.2,0.2,0.4,0.3,0.5v-9.7
		c-1.1-0.1-3.4-0.5-6.7-1.2c-2.7-0.5-5.1-0.7-7.2-0.7c-0.1-0.3,1.3-0.2,4.1,0.5c0.8,0.7,2.4,1.1,5,1.2c2.4,0.2,3.8,0.7,4.3,1.4
		c-1.1,0.2-3-0.1-5.6-1c-2.6-0.8-4.7-1.2-6.3-1.2c-0.2,0-2,0.5-5.3,1.4c-2.1,0.5-3.5,0.2-4.4-0.9c-0.5,0.5,0.5,0.6,2.7,0.5
		c0.3-0.3,1-0.6,1.9-0.7c1.1-0.1,1.8-0.2,2.1-0.3c1.3-0.2,0.7-0.3-1.5-0.3c-0.6,0-1.5,0-2.9,0c-1.1,0-1.9,0-2.2,0
		c-1.7,2.6-1.7,7.6,0,15H141.5z M136.7,166.8c0.1-1.1,0-2.3-0.3-3.4c-0.3-1.5-0.5-2.6-0.5-3.2c0.1-0.6,1.3-1.8,3.4-3.6
		c-1.4-1-2.8-1.4-4.3-1.2C133.9,158.7,134.5,162.5,136.7,166.8z M137.1,122.9c0.5,0,1,0.1,1.7,0.3c0.7,0.2,1.3,0.3,1.9,0.2
		c-0.8,1.5-1.1,3.4-0.9,5.6c-0.1,0-0.4-0.7-0.9-2.2c-0.3,0.3-0.3,0.9,0,1.7c0.3,1.1,0.5,1.9,0.3,2.4c-0.5-0.2-0.7,0-0.9,0.7
		c0,0.6-0.3,0.8-0.9,0.7c-0.3-3.3-0.5-5.5-0.5-6.7c-0.9,0.6-1.3,0.9-1.2,0.9C136,125.5,136.4,124.3,137.1,122.9z M136.7,74
		c0.9-2.5,0.9-5,0-7.5h2.2c0.2,4.9,0.3,7.4,0.3,7.5H136.7z M148.2,152.1c0.5-0.2,0.3-0.6-0.5-1c-1-0.5-1.4-1-1.2-1.5
		c5,3.4,9.5,5.6,13.3,6.7c-3.1-0.2-7-1.3-11.6-3.2c-6.3-2.5-10.1-3.9-11.5-4.3C140.2,148.7,144,149.8,148.2,152.1z M152.3,236.9
		c1.5-1.3,1.7-3.4,0.5-6.3c-1.4-3.6-2-5.6-1.9-6c0.3,0.2,0.7,1,1.2,2.4c0.3,1,1,1.5,1.9,1.5c-1.6-4.1-2.2-9.3-1.7-15.6
		c3-3.3,5.3-9.2,7-17.6c2.3-10.7,3.9-17.3,5-19.7c-0.6-1.8-2.1-2.9-4.4-3.2s-4.2,0.3-5.3,1.9c0.5,2.2,0.2,5.4-0.7,9.7
		c-0.7,3.9-0.5,6.8,0.7,8.9c-1.3,0.1-1.9,0.1-1.9,0c-0.2,5.2-0.2,7.6,0,7.2c0.3,0.1,0.2-1.2-0.3-3.9c-1.5,1-2.1,4.4-1.9,10.1
		c0.5-0.3,0.9-1.1,1.2-2.4c0.3-1.3,0.7-2.1,1-2.4c0,2.1-0.6,4.3-1.9,6.8c-1.4,3-2.2,5.1-2.6,6.5c-0.8-3-0.6-6.9,0.7-11.8
		c1.5-5.4,1.9-9.6,1.2-12.6c2.2-2.5,3.4-7.2,3.6-14.2c-0.3-0.3-2.4-4.5-6.2-12.5c-2.5-5.4-5.8-6.7-9.9-3.9c0.1-0.8,0.7,1.7,1.7,7.5
		c-0.8,0.1-1.2,0.2-1.2,0.3c0.1,1.7,1.2,3.9,3.2,6.7c2.1,2.6,3.2,4.8,3.4,6.7c0-0.1-1.1,3.1-3.2,9.7c-0.9,3.3-0.9,8.5,0.2,15.7
		c0.9,6.7,0.7,11.4-0.5,14c-0.1-0.7-0.4-1-0.9-0.9c0.5,1.3,0.9,3.6,1.2,7c0.3,3.2,0.8,5.5,1.4,6.8c0.6,0.2,0.9,0.1,0.9-0.5
		c0-0.7,0.2-1,0.5-0.9v2.6c-0.2,0-0.5-0.1-0.7-0.2c-0.3,0-0.6-0.1-0.7-0.2c-0.3,0-0.3,0.3,0,0.9c0.5,0.5,1.2,0.6,2.2,0.3
		c1.3-0.3,2.2-0.5,2.7-0.3c0.2-2.8,0.3-4.3,0.3-4.4c0.2,0.3,0.2,1.4,0,3.1c-0.2,1.5,0.1,2.4,1,2.7c0.7,0.2,1-0.1,0.9-0.9
		c-0.1-0.9,0-1.4,0.3-1.4C150.3,235.6,150.9,236.4,152.3,236.9z M150.9,98.1c2.1-0.8,2.5-1.5,1.4-2.2c-2.5-3.8-3.7-5.7-3.6-5.8
		c0,0.1,0.1,0.3,0.2,0.5c0.1,0.1,0.2,0.2,0.3,0.3c-0.5-0.6-1.3-0.8-2.6-0.7c-1.4,0.1-2.2,0.1-2.4-0.2c0.1-0.8,0.7-1.1,1.7-0.9
		c1,0.3,1.7,0.3,1.9,0c-0.5-0.1-1.1-0.3-1.9-0.5c-0.7-0.2-1.3-0.4-1.7-0.5c-0.5,0.7-1.5,1.1-3.1,1.2c-1.4,0.1-2.3,0.6-2.7,1.5
		c-0.3,1,0.3,3.8,1.9,8.4c0.5-0.1,0.9,0,1.2,0.3c0.5,0.2,0.9,0.3,1.4,0.2c0,0.3,0.2-1.3,0.7-5c0.2-1.8-0.1-2.8-1-3.1
		c-0.2-0.5-1,0.6-2.2,3.1c-0.1-0.2-0.3-0.5-0.5-0.7c-0.2-0.2-0.4-0.4-0.5-0.5c0-0.5,0.6-1,1.7-1.5c0.9-0.3,1.1-0.7,0.5-1.2
		c-0.2,0.3-0.6,0.6-1.2,0.9c-0.6,0.3-0.9,0.3-1,0c0.2-0.5,0.7-0.9,1.5-1.2c0.9-0.5,1.5-0.8,1.7-1c1.4,2.3,1.8,3.8,1.2,4.4
		C144.7,93.9,147,95.3,150.9,98.1z M139.8,55.4c-0.7,0.2-1,1.3-1,3.2c-0.1,1.9,0.4,2.8,1.5,2.6C141,60.3,140.8,58.4,139.8,55.4z
		 M139.3,177.4c0.2,1.3,0.3,3.1,0.2,5.6c-0.2,2.4-0.1,4.6,0.3,6.5c0.9-1.5,1.4-3.6,1.4-6.3C141.2,180.4,140.5,178.4,139.3,177.4z
		 M139.3,207.2c0.2,0.5,0.3,1.8,0.2,4.1c-0.2,1.9,0.2,3.2,1.2,3.9C140.7,210.7,140.2,208.1,139.3,207.2z M149.6,266.3
		c1.9-0.1,3-1.4,3.1-3.9c0-0.8-0.1-1.9-0.2-3.4c-0.1-1.6-0.2-2.7-0.2-3.2c0.5-10.3,0.2-16.1-0.9-17.4c-2.2,10.4-3.1,15.4-2.7,15.2
		c0.8-8.8,0.8-13.8,0-15.2c-0.9,0.5-1.4,1.9-1.4,4.4c0.1,3,0,4.7-0.3,5.3c-0.3-0.8-0.5-2.7-0.3-5.8c0-2.6-0.3-4.4-1-5.3
		c-0.1,1.1-0.1,5.2,0,12.1c0.1,5-0.2,8.7-0.9,10.9c-0.7-10.4-0.7-17.7,0-22c-2.1,0.1-3.4-1.1-3.9-3.6c-0.7-3.5-1.2-5.5-1.5-5.8v20.8
		c0,10,0.5,15.7,1.4,16.9c0.3-0.9,0.6-2.8,0.7-5.8c0.1-2.5,0.5-4.3,1.2-5.3c0,0.8-0.3,4.5-1,11.1h3.2c0.6-2.8,0.7-4.2,0.3-4.1
		c0.5,1.3,0.6,2.6,0.5,4.1h3.6c-1-3.3-1-5.8,0-7.5C149.2,258.9,149.3,261.4,149.6,266.3z M141.2,74c-0.9,0.1-1.3-0.9-1-2.9
		c0.3-2.5,0.2-4-0.3-4.6h2.2c0.1,0.5,0.4,1,0.9,1.7c0.6,0.7,0.9,1.3,0.9,1.9c0.6-0.2,0.7-0.9,0.5-1.9c-0.3-1-0.3-1.6,0-1.7
		c0.9-0.1,1.3,0.9,1.2,3.1c-0.1,0.6-0.3,1.4-0.5,2.6c-0.1,1-0.2,1.7-0.2,1.9c-0.5-0.2-1.5-1.8-3.2-4.8c-0.5,0.3-0.6,1.2-0.3,2.6
		C141.4,73.2,141.4,73.9,141.2,74z M140.7,110.1c0.8,0.3,1.1,1.4,0.9,3.2c-0.2,1.8-0.6,3-1.2,3.4
		C140.4,116.3,140.5,114.1,140.7,110.1z M140.7,237.4c0.8,1.6,1.1,4.2,1,7.9c-0.1,5.1-0.2,8.1-0.2,9.1c-0.7-1.5-1-4.1-0.9-7.9
		C140.8,241.3,140.8,238.3,140.7,237.4z M144.8,135.4c-0.6,0.1-1.1,0.1-1.5-0.2c-0.6-0.2-1-0.3-1.2-0.3c-0.2-0.6-0.4-1.7-0.5-3.2
		c0-1.7-0.1-2.8-0.3-3.4c3.5-2.3,5.9-3.5,7-3.6C143.1,128.3,141.9,131.8,144.8,135.4z M141.5,61.2c3-0.6,5.1-0.7,6.3-0.5
		c0.6-1.8,0.9-3.7,0.9-5.6h-3.1c-0.1,0.2-0.2,0.7-0.3,1.5c-0.1,0.8-0.3,1.3-0.5,1.5c-0.3-0.1-0.5-0.6-0.5-1.4c0-0.8-0.2-1.3-0.5-1.4
		h-2.2V61.2z M141.5,109.1c1.3-0.5,2.7-0.5,4.3-0.2c1.6,0.2,2.4,0.7,2.4,1.5c-0.6-0.2-1.7-0.5-3.2-0.7
		C143.3,109.5,142.2,109.3,141.5,109.1z M142.9,192.1c0.3-0.3,0.6,0.7,0.7,3.2c0,2.5-0.3,3.8-1,3.9
		C142.9,197.9,143,195.5,142.9,192.1z M149.6,99c-0.7-1.5-1.8-2-3.4-1.5c-1.6,0.5-2.5,1.5-2.7,3.2c0.6-0.2,1.6-0.5,3.1-0.7
		C147.7,99.9,148.8,99.5,149.6,99z M144.3,227.7c-0.8-1-0.9-2.2-0.3-3.6c0.5-1.1,1.2-2.1,2.2-2.7c1.1-0.6,2.1-0.5,2.7,0.2
		c0.8,0.8,1,2.4,0.7,4.8c-0.6-1.3-0.9-1.3-0.9,0c0.1,1.7,0.1,2.6,0,2.7c0.3,0.1,0.2-1.3-0.5-4.1c-0.6,0.9-0.9,0.9-0.9,0
		c-0.3,0-0.5,0.5-0.3,1.4c0,0.8-0.3,1.1-1,0.9v-2.6c-0.1,0-0.2,0.6-0.3,1.7c-0.2,0.7-0.4,0.6-0.5-0.2c0-0.6,0-1.1,0-1.5
		C144.7,224.6,144.4,225.6,144.3,227.7z M144.8,122.9c0.1-0.6,0.9-1,2.2-1.4c1.1-0.3,1.7-0.9,1.7-1.7c3.4,1.4,5.4,1.9,5.8,1.7
		c-0.9,0.7-2.5,1-4.8,0.9C147.3,122.2,145.7,122.3,144.8,122.9z M147.8,90.4c0.2,0.6,0.5,0.9,0.9,1c0,0.1-0.3,0.2-0.9,0.3
		c-0.1,0.3,0,0.5,0.3,0.5c-0.5,0.5-1,0.4-1.5-0.2c-0.6-0.5-0.9-0.6-1-0.3c-0.5-0.2-0.3-0.5,0.3-0.9S147.3,90.4,147.8,90.4z
		 M149.2,109.1c-0.7-0.1-1.3-0.6-1.9-1.5c-0.7-1-1.3-1.7-1.7-1.9c0-0.6,0.5-0.3,1.5,0.9c1,1.3,1.7,1.4,2.1,0.3
		c0.5,0.1,0.6,0.5,0.3,1.2C149.6,108.5,149.4,108.8,149.2,109.1z M147.8,221.8H146c-0.3,1.6,0.3,2.2,1.9,1.9V221.8z M146,74
		c0.9-2.5,0.9-5,0-7.5c2.5,0,4.2,0.2,5,0.5c-0.3,3.2-0.1,5.5,0.9,7c-1,0.2-1.8-0.1-2.2-0.9l-0.9-2.2c0.3,0,0.2,1-0.5,3.1H146z
		 M149.6,129c0.6,0.5,1,1.7,1.2,3.6c0.1,1.9,0.5,3.1,1,3.6c-0.8-0.2-1.7-0.3-2.6-0.2c-0.9,0-1.7-0.1-2.2-0.3
		c1.4-0.2,2.2-1.1,2.4-2.6c0-0.3,0-1,0-2.1C149.4,130.2,149.4,129.5,149.6,129z M148.2,188.2c-0.3,0-0.3,0.5,0,1.4
		c0.3,0.9,0.1,1.3-0.9,1.2c0.1-0.5,0.2-1.2,0.2-2.2c0.1-0.9,0.2-1.8,0.3-2.6c0.7,0.1,1,0.7,0.9,1.7c-0.6,0.2-0.6-0.5,0-2.2
		c0.7,0.3,1,1.4,0.9,3.1c-0.6-0.6-0.9-0.4-0.9,0.5C148.6,189,148.4,188.8,148.2,188.2z M151.4,167.7c0.3-0.8,0.9-1.4,1.7-1.7v1.7
		c0.2,0,0.6,0.1,1,0.2c0.5,0.1,0.8,0.2,1,0.2c0.6,0,0.9-0.4,1-1.2c-0.8,0-2.1-0.8-3.8-2.4c-1.6-1.6-3.1-2.4-4.6-2.4
		c-0.1-0.2,1.7,3.4,5.3,10.9c0.7,0,1.6-0.4,2.7-1.2c1-0.7,2.1-1,3.1-1c-0.2-1.4-1.4-1.9-3.4-1.7
		C153.1,169.2,151.8,168.7,151.4,167.7z M148.2,67.4c0.7,1.8,0.9,2.7,0.5,2.7c0.5-2.1,0.7-2.8,0.9-2.2c-0.1,0-0.3-0.1-0.5-0.3
		C148.8,67.4,148.5,67.4,148.2,67.4z M148.2,216c1,0.9,1.9,3.3,2.7,7.2C150.1,222.4,149.2,220,148.2,216z M150.9,183.2
		c-0.2,0.9-0.8,1.1-1.7,0.7c-0.9-0.5-1.1-1.1-0.5-2.1c0.5,0,0.9,0.2,1.2,0.7C150.2,183,150.6,183.2,150.9,183.2z M149.6,55.1
		c-0.2,3.9-0.3,5.9-0.3,6.2c0.5-0.1,0.9-0.1,1.2,0.2c0.5,0.3,0.9,0.5,1.4,0.3c-0.5-4.7-0.6-6.9-0.3-6.7H149.6z M150.4,233.5
		c-0.7-0.1-1-0.9-0.9-2.2h1.4c0.1,0.5,0.1,0.9-0.2,1.2C150.5,232.8,150.4,233.1,150.4,233.5z M155.9,130.1c-0.5-0.6-1.6-1.3-3.4-2.2
		c-1.6-0.8-2.6-1.7-2.9-2.7c2.8,0.8,5.1,2.3,6.7,4.4c1.9,2.5,2.2,5.2,0.9,8c-0.9-0.2-1.3-1.3-1.2-3.1c0.2-1.7-0.2-2.6-1.4-2.7
		C154.5,131.8,155,131.2,155.9,130.1z M150.4,142.4c2.7-0.5,2.7-1,0-1.7V142.4z M162.9,149c-0.3,0-4.3,0.2-12,0.5
		c1.7,1.6,3.8,2.1,6.2,1.4c0.5-0.1,1.4-0.5,2.9-1C161.2,149.4,162.2,149.2,162.9,149z M151.4,109.6c0.2,0.8,0.4,2,0.5,3.6
		c0.1,2.1,0.2,3.4,0.3,3.9c-0.6-0.6-1-1.9-1.2-4.1C150.9,110.9,151,109.8,151.4,109.6z M152.3,96.2c-0.1,1.5,0.2,2.4,0.9,2.7
		C153.6,98.5,153.3,97.6,152.3,96.2z M154.5,66.5c-0.9,2.5-0.9,5,0,7.5h-2.2v-7.5H154.5z M154,58.1c0.1,0.1,0.1,1,0,2.6
		c-0.1,1,0.2,1.5,0.9,1.4C153.8,60,153.5,58.7,154,58.1z M154.8,225.4c0-0.8,0.1-3,0.2-6.7c0-2.8-0.2-4.9-0.5-6.2
		C153.5,218.9,153.6,223.2,154.8,225.4z M154.5,236.9c-0.9,9-0.9,17.9,0,26.7C155.3,254.2,155.3,245.3,154.5,236.9z M154.5,79.3
		c-0.2,0.2-0.4,1.4-0.5,3.6c0.7,0.2,1-0.3,1-1.5C155,80.2,154.8,79.5,154.5,79.3z M154,267.1c1.9-0.7,3.6-2.3,5.1-5
		c2.1-3.5,3.3-5.6,3.8-6.2h-2.2c-0.7,1.6-1.8,3.5-3.2,5.6C155.6,264.5,154.4,266.3,154,267.1z M173.1,87.9
		c-7.1,1.5-13.2,1.8-18.3,0.9C155.9,88.5,162,88.2,173.1,87.9z M156.2,190.7c-0.3-0.2-0.5-0.5-0.3-0.9c0.2-0.5,0.2-0.9,0-1.4
		c0.8-0.9,1.7-0.9,2.6,0C158.4,189.1,157.7,189.8,156.2,190.7z M155.9,91.5c2.5-1.6,6.9-1.6,13.2,0H155.9z M165.6,162.9
		c-0.6,0-1-0.9-1.4-2.7c1.7,0,2.6-0.3,2.6-0.9c-0.6-2.5-2.6-4.2-6.2-5c0.2-1,1.6-1.1,4.1-0.3c0.3,1.5,1.8,3.2,4.3,5.1
		c2.3,1.8,3.5,3.8,3.6,6c-3.2-2.5-5.2-3.9-6.2-4.1c-0.3,0.1-0.5,0.4-0.5,0.9C165.8,162.4,165.7,162.8,165.6,162.9z M210.9,101.5
		c0.9,3,2.1,4.6,3.4,5c-1,1.6-1.1,3.2-0.3,5c0.6,1.5,1.6,2.6,3.1,3.4c-0.3,2.2-0.5,3.2-0.5,3.1c-5.7-0.8-9.2,1-10.6,5.5
		c-2.1-0.1-4.4,0.7-7.2,2.6c-0.3-0.1-1-0.5-1.9-1.2c-0.7-0.6-1.4-0.9-2.1-1c-1.6,0-3.9,0.6-6.8,1.7c-3.9,1.5-6,2.3-6.5,2.4
		c-0.6,0.1-1.5,0.2-2.7,0.3c-1.3,0.1-2.2,0.2-2.7,0.3c-1.8,0.5-2.8,1.8-2.9,4.1c1-1.8,2.7-3,5.1-3.4c2.4-0.3,4.4,0.2,6,1.7
		c1.9-2.3,4.4-3.2,7.3-2.7c-0.3-0.1,2.1,0.6,7.2,2.2c-1.7,0.9-2.9,2.6-3.6,5c-0.6,2.4-0.5,4.9,0.2,7.5c1.4-0.2,3.4,0.6,6.2,2.6
		c2.8-1.1,5.6-1.1,8.2,0c2.6,1.1,4,3.1,4.3,5.8c3,0,4.9,1.2,5.8,3.6c-1.8-2.1-5.5-2.5-11.1-1.4c2.3-1.5,3.6-2.2,3.9-2.2
		c-0.7-2.3-2.2-3.6-4.6-4.1c-2.3-0.5-4.3,0.2-6,1.9c-0.5-1.7-1.9-2.8-4.3-3.2c-2.4-0.6-3.9,0.1-4.6,1.9c-0.5,0.6-0.3,1.1,0.5,1.7
		c0.8,0.7,1.1,1.5,0.9,2.4c-3.1,0.1-6.1,1.4-9.1,3.9c-3.2,2.8-5.8,4.5-7.9,5c-2.1-5.6-5.2-8.5-9.4-8.9c-0.1-0.9-0.8-1.9-2.1-2.9
		c-1.3-1-2.1-1.8-2.4-2.4c-1.4-3.2-1.5-8.1-0.5-14.7c1.6-8.9,2.4-14.1,2.4-15.6c2.7-1.9,8-4.3,15.7-7c7.3-2.7,12.4-5.3,15.4-7.7
		H210.9z M166.8,175.2c1.1,0.2,3,0.1,5.5-0.3c-0.1,0.5-0.7,0.9-1.7,1.4c-0.9,0.5-1.3,1.2-1,2.2C167.8,177.9,166.9,176.8,166.8,175.2
		z M167.8,172.6c-0.1-0.3,0.2-0.5,0.9-0.5c0.6,0,0.7-0.3,0.3-0.9c0.6,0.1,1.1,0.4,1.7,0.9c0.7,0.5,1.2,0.7,1.5,0.9
		c-0.5,0.6-1.3,0.7-2.4,0.5C168.7,173.4,168.1,173.1,167.8,172.6z M180.1,139.3c-4.1-2.5-7.1-2.7-8.9-0.5c-0.9,0.5,2.2,1.5,9.4,3.2
		c1.8-1.9,5.1-2.7,9.7-2.2C188.3,137.2,184.9,137,180.1,139.3z M191.2,164.6c-2.8-0.8-5.2-0.5-7,0.9c-1.8,1.5-2.6,3.7-2.2,6.7
		c-0.1,0.7-0.6,1.3-1.5,1.9c-0.9,0.7-1.4,1.3-1.5,1.7c-0.1,0.7-0.1,1.4,0.2,2.2c0.2,0.8,0.3,1.5,0.2,2.2c-1.7-1.1-2.4-2.6-2.1-4.3
		c-0.1,0.8,0.6-0.9,2.1-5.1c1.5-3.8,2.3-5.9,2.6-6.3c1.3-1.9,3.2-2.7,6-2.4c1.4-3,3.2-5.2,5.6-6.7c3.1-1.8,5.9-1.8,8.5,0
		C196,155.1,192.4,158.2,191.2,164.6z M214,114.5c-2.5-1.4-3.2-3.3-2.2-5.8c-1.5,0.2-2.6-0.1-3.4-1c0.3,0.3-0.3-0.5-1.9-2.6
		c-1.4,1.3-1.5,3.3-0.5,6.2c-3.8-0.2-6.3,1.3-7.5,4.4c-1.9-2.2-4.7-3.1-8.4-2.9c-3.8,0.2-6.2,1.7-7.2,4.3c-1.8-0.9-3.2-0.1-4.1,2.4
		c-0.9,2.6-0.6,4.5,1,5.6c0.6-0.1,2.1-0.1,4.4,0c-0.1-1.4,0.6-2.3,2.2-2.9c1.5-0.5,2.7-0.2,3.6,0.7c3.9-3.3,7.4-3.5,10.6-0.5
		c0.6-1.4,2.1-1.9,4.4-1.7C204.9,116.5,207.8,114.4,214,114.5z M181.5,99.1c-0.5,0-0.9,0-1.2,0C180.7,99.1,181.1,99.1,181.5,99.1z
		 M181.5,99.1c1-0.2,1.8-0.2,2.2,0.2C182.9,99.2,182.2,99.1,181.5,99.1z M222,167.7c-5.7-0.2-9,2.3-9.9,7.5
		c6.6,0.7,10.5,2.6,11.6,5.8c-1.7,0.5-3.1,1.6-4.3,3.4c-0.9,1.9-1.1,3.6-0.7,5.1c-4.8,0.3-7.9,2.1-9.2,5.3c-5.1-3-7.8-4.4-8-4.4
		c0.6-0.3,2.8-0.1,6.7,0.9c-0.7-2.3-2.4-3.6-5.1-3.9c-2.4-0.5-4.7-0.1-6.8,1.2c0.2-3,1.4-5.3,3.6-7c2.2-1.6,4.8-2.2,7.9-1.9
		c-0.9-1.4-2.6-2.2-5-2.6c-2.5-0.2-4.4,0.3-5.6,1.7c-0.6-2.1-0.1-3.8,1.4-5.3c1.4-1.4,3.3-1.9,5.8-1.7c-1.1-1.4-1.5-2.8-1-4.3
		c0.5-1.5,1.4-2.7,2.7-3.6c1.3-0.9,2.6-1.2,3.9-0.9c1.5,0.3,2.6,1.5,3.2,3.4c1-1.1,2.7-1.6,5-1.4C220.5,165.2,221.8,166.1,222,167.7
		z M199.3,98.1c8.7,1.3,14.8,1.1,18.3-0.5c-1,0-4.2,0-9.4,0C204.3,97.5,201.3,97.7,199.3,98.1z M209.9,128.2
		c0.8-2.1,2.3-3.4,4.6-4.1c2.3-0.8,4.4-0.6,6.5,0.5c0.6,0,1.3-0.4,2.1-1.2c0.7-0.8,1.5-1.1,2.4-1c-0.7,1.7-3,3.1-6.8,4.3
		c-3.6,1-5.8,2.7-6.5,5.1c-2.3-0.8-4.3-0.8-6,0c-1.8,0.8-2.9,2.3-3.2,4.4c-2.3-2.2-2.3-4.6-0.2-7.2
		C205,126.5,207.4,126.3,209.9,128.2z M202.4,92.3c0.5-0.7,0.6-1,0.3-1c-1-0.3-1.4-0.5-1.2-0.3c0.6-0.2,1.4-1.3,2.6-3.2
		c0.9-1.4,2.3-1.9,4.1-1.7c0,0.1-1.3,1-3.9,2.7c0,0.2,0.3,0.3,1,0.2c0.8-0.2,1.3-0.1,1.5,0.3c0.2-0.6,0.7-0.8,1.5-0.7
		c0.9,0.1,1.6,0,2.1-0.3c-0.1,0.8-0.5,1.2-1,1.2c-1,0-1.7,0.1-2.1,0.2c-0.1,0.8,0.2,1.3,0.9,1.4c-0.3-0.1,0.4-0.1,2.2,0
		c0,0.6-0.4,0.9-1.2,0.9c-0.7,0.1-1.2,0-1.5-0.3c-0.2,1.1,0.2,1.5,1.4,1.2c0.1,0.6-0.3,0.9-1.2,1c-0.9,0.1-1.3-0.2-1-1
		c-0.3,0-0.5,0.4-0.3,1.2c0,0.7-0.3,0.9-1,0.7v-1.9c-0.3,0-0.5,0.4-0.3,1.2c0,0.7-0.3,0.9-0.9,0.7c-0.1-0.2-0.1-0.5,0.2-0.9
		c0.2-0.3,0.3-0.7,0.2-1c-0.5-0.1-0.7,0.3-0.9,1.4c-0.7-0.1-0.9-0.4-0.7-0.9c0-0.1,0.1-0.3,0.3-0.7c0.2-0.2,0.3-0.5,0.3-0.7
		c-0.5,0.3-0.7,0.5-0.7,0.5S202.8,92.3,202.4,92.3z M204.6,89.6c-0.3,1.6,0.3,2.2,1.9,1.9v-1.9H204.6z M218.8,95.4
		c-0.8-1-2.4-1.5-4.8-1.5c-2.5,0.1-4.2,0.9-5,2.4C215.6,95.7,218.9,95.4,218.8,95.4z M212.6,89.2c-0.2,0.2-0.4,0.9-0.5,1.9
		c-0.1,1-0.2,1.7-0.3,2.1c0.7,0,1.8,0.1,3.2,0.3c1.3,0.2,2.4,0.3,3.4,0.2c-0.1-0.7-0.4-1.6-0.9-2.7c-1.8,0.1-2.9-0.2-3.2-0.9
		c0.1,0,0.8,0,2.1,0c0.9,0.1,1.3-0.2,1.2-0.9c-0.5-0.5-1.2-0.6-2.2-0.3C214.1,89.2,213.2,89.3,212.6,89.2z M212.6,88.2h4.4v-2.6
		c-0.1-0.1-1.6-0.3-4.4-0.5V88.2z M252.9,93.7c3.3-1.6,4.7-2.3,4.1-2.2c-0.7-2.5-3.5-3.9-8.5-4.1c1.4-2.4,0.9-4.3-1.4-5.8
		c-2.2-1.6-4-1.4-5.6,0.5c2.4,2.2,3.6,4.8,3.6,8C246.2,90,248.8,91.2,252.9,93.7z M250.7,149c0.7-1.8,0.7-3.5,0-5.1
		c-0.8-1.7-2.1-2.5-3.9-2.4c-1.3-3.3-2.9-4.5-5-3.6c1.6,2.7,2.3,5.2,2.2,7.5c1-0.5,2.3-0.3,3.8,0.5
		C249.3,146.8,250.3,147.8,250.7,149z M255.2,174.3c3.3-0.2,5.2-2,5.8-5.3c0.6-3.2-0.3-5.7-2.6-7.5c0.7-2.1,0.6-3.9-0.3-5.6
		c-0.9-1.7-2.5-2.5-4.6-2.4c1,1.3,1.4,2.9,1.2,5c-0.1,1.9-0.7,3.5-1.7,4.8c1.8,0.6,3,2.2,3.4,4.8
		C256.8,170.5,256.4,172.6,255.2,174.3z"/>
</g>
</svg>
