<?xml version="1.0" encoding="utf-8"?>
<!-- Generator: Adobe Illustrator 21.1.0, SVG Export Plug-In . SVG Version: 6.00 Build 0)  -->
<svg version="1.1" id="Layer_1" xmlns="http://www.w3.org/2000/svg" xmlns:xlink="http://www.w3.org/1999/xlink" x="0px" y="0px"
	 viewBox="0 0 300 300" style="enable-background:new 0 0 300 300;" xml:space="preserve">
<g>
	<path d="M66.5,109c-0.6-2.8,0.5-4.4,3.2-4.6c2.5-0.2,5.1,0.7,7.9,2.7c-0.1,0.7-0.3,1.7-0.7,3.1c-0.3,1.6-0.6,2.7-0.7,3.4
		c-0.5,2.8,0,5.4,1.4,7.5c0.5-1.1,0.3-2.7-0.5-4.8c-0.7-1.6-0.5-2.7,0.5-3.2c0.2,2.4,1.3,4.6,3.2,6.7c2.1,2.1,3.6,2.2,4.8,0.3v3.9
		c0.9-0.8,1.7-1,2.2-0.7c-0.1-0.1,0.5,0.5,1.7,1.7c0.1-0.9-0.2-1.9-0.9-2.9c9.1,2.1,16.1,2.7,21,1.9c0,0.2,0.1,2.5,0.3,6.8
		c0.1,2.1-0.7,2.5-2.4,1.2h2.1c-1.3-0.1-1.7-1.1-1.2-2.9c0.5-2.1,0.2-3.4-0.9-4.1c-2.7,0.7-4,1-3.9,1c0,0.3,0.2,0.8,0.5,1.4
		c0.3,0.6,0.5,1.1,0.5,1.7h-7.2c-4-2.6-5.3-4-3.9-4.1c1.5,1.1,2.7,3.3,3.6,6.5c1.1,4.2,1.9,6.8,2.4,7.7c8.8-2.6,17.8-0.6,27.2,6
		c0.8,4.1,5.1,14.1,13,30.1c2.6-0.7,4.9-2.6,6.8-5.8c2.5-4,4.3-6.4,5.3-7.2c-0.1,0.9-1.5,3.6-4.1,8c6.4-3,17.1-3.6,32.1-2.1
		c0.2,1.5,1,2.3,2.2,2.6c1,0.1,2-0.1,2.9-0.5c-0.2-0.5-1-0.7-2.2-0.9c-1.1-0.1-1.8-0.5-1.9-1.2c1.1-0.6,1.4-1.8,0.9-3.8
		c-0.6-1.9-0.5-3,0.2-3.2l-2.2,1c-1.1,0.3-1.8,0-1.9-1c2.1-0.9,3-2.1,2.9-3.6c-0.2-1.6,0.2-2.7,1.2-3.4c0.6,2.5,2.6,3.8,6,3.9
		c-0.1-0.2-1.4-1.4-3.9-3.4c-1-0.7-0.4-1.2,1.9-1.5c-2.2-2.2-3-3.8-2.6-5c0.1-0.3,1.7-2.1,4.6-5.1c-1.6-0.9-2.3-2.4-2.1-4.4
		c0.2-3.1,0.2-5,0-5.6c0.8-0.3,1.9-0.1,3.2,0.7c0.9,0.6,1.5,0.3,1.9-0.7c-0.8,0.1-1.6-0.1-2.4-0.7c-0.8-0.5-1.7-0.6-2.7-0.3
		c-0.3-1,0-1.7,1-1.9c1.1-0.3,1.5-1,1-2.1c-0.6,0-1.5-0.3-2.7-0.9c-1-0.3-2.1-0.4-3.2-0.2v-3.9c4-1,9.3,0.6,16.1,5
		c-2.6,0.3-4,0.7-4.1,1c3.2,0.9,4.9,1.6,5.1,2.1c-1.1-0.2-1.9,0.1-2.4,1c0,0.2-0.2,1.2-0.7,2.9c1.5-0.2,2.5,0.8,3.1,3.1
		c0.7,2.3,0.7,3.6,0,3.9c-0.6-1.4-1.3-2.3-2.1-2.9c-0.5,1.6,0,2.6,1.4,3.1c1.6,0.7,2.5,1.3,2.7,1.9c-1.7-0.1-2.5,0.3-2.4,1.4
		c0.2,2.3,0.3,3.5,0.3,3.6c-0.1,0.7-0.6,2.6-1.5,5.6c-0.7,2.5-1.2,4.7-1.5,6.5c-0.1-1.6-0.8-2.3-2.1-2.1c-0.1-0.9-2.5,8.8-7,29.1
		c-3.6-1.7-5.2-2.2-4.6-1.4c-0.1-0.2-0.2-0.4-0.3-0.5c0.1,0.1,0.2,0.3,0.3,0.5c0.8,1,0.5,1.4-1,1.2c-1.6-0.3-2.4-0.3-2.4,0.2
		c0.3,0.6,1.7,1.3,3.9,2.2c1.7,0.8,2.4,2.1,2.2,3.9c-1.4,0.1-2.4-0.4-3.1-1.5c-0.9-1.5-1.6-2.3-2.1-2.6c-0.9,0.9-1,1.7-0.2,2.2
		c1.4,1,2.1,1.7,2.2,1.9c-1.9,0.2-3,0.6-3.1,1c1.4,0,2.2,0.1,2.4,0.2c0.7,0.2,0.9,0.8,0.7,1.7c-3.9,0.9-6.2,2.6-7,5.1
		c0.1,0-2.9-1.4-9.1-4.1c1,1,1.6,2.1,1.7,3.1c0.1,1.3-0.5,2.2-1.7,2.9c-0.1-1-0.9-1.3-2.2-0.9c-1.4,0.5-2.3-0.2-2.7-2.1
		c-1.6,3-1.6,4.3,0,3.9c-0.3-3.4-2.4-4.4-6.2-2.9c-1.7-1.5-4.7-4.9-8.9-10.3c-4-5.2-7.7-9.2-11.1-12c0.1,1.4,0.1,5.3-0.2,11.8
		c-0.1,4.8,0.3,8.3,1.2,10.4c0-3.5,0-5,0-4.3c0-1.8,0.3-2.1,1-0.9c0.2,1.8-0.1,4.5-1,8c7.4,7.7,11.4,15.4,12,23.1
		c-0.3-1.3-0.7-1.9-1-1.9c1.4,7.3,1.4,13,0,17.1c3.3,0.5,4.7-0.2,4.1-2.1c-0.3,1.1-1.4,2.1-3.1,2.9c-1.7,0.7-2.7,2.1-2.9,4.1
		c2.2,1.8,2.8,7.7,1.9,17.8c-0.2,3.5-0.5,5.5-0.9,5.8c-0.3,0.5-0.4-1.7-0.2-6.5c-0.5,0-0.8-0.3-1-0.9c-0.2-0.7-0.5-1.1-0.9-1.2
		c1.1,4.4,0.1,7.1-3.1,8c-2.1-7.3-2.7-10.7-2.1-10.1c0.5,1.7,0.6,2.6,0.5,2.6c-1,0-1.8,0.2-2.4,0.5c1-1.7,1.6-5.5,1.7-11.5
		c0-5.2,0.4-7.8,1.2-7.7c-0.9-1-1.5-2-1.7-2.9c-0.1-1,0.5-0.7,1.7,1c-0.9-7.4-5.6-16.8-14-28.2c-0.2-2.7-0.2-7,0-12.8
		c0.2-6.5,0.3-11,0.2-13.5c-0.5-10-3.9-15.3-10.3-15.9c5,7.1,7.3,21.5,7,43.2c4,4.9,6.5,10.4,7.7,16.6c1.3,7.3-0.3,12.5-4.6,15.6
		c0.6-2.4-0.1-5.1-2.1-8.2c-1.7-2.7-2.1-5-1-6.8c2.7,5,3.8,7.3,3.1,7c-0.8-0.9-1-1.5-0.5-1.7c0.8-0.5,1.3-0.9,1.5-1.4
		c-6.6-17.4-12.3-30.1-17.1-38.1c0,0.9-0.3,1.9-1,3.1c4.1,2.7,7,8.1,8.7,16.2l3.4,15.9c-1.1,0.7-1.4,1.8-0.9,3.4
		c0.8,2.2,1.1,3.7,0.9,4.6c0.7,0.6,1.3,0.7,1.9,0.5c0.7-0.3,1.4-0.2,2.1,0.5c-0.2,0.8-0.9,1.6-2.1,2.4c-0.6,0.5-0.2,1.3,1,2.6
		c-0.7-0.3-2-1-3.9-2.1c-1.6-0.9-3-1.6-4.1-2.1c-0.3-1.4-1.1-5-2.2-10.9c-0.9-4.6-1.8-8.1-2.6-10.8c-2.3-7.9-5.7-13.3-10.3-16.4
		c4.3,5,7.5,12.1,9.6,21.4c2.3,10.5,4.4,17.4,6.5,20.8c-0.8-1.3-2.7-2.8-5.8-4.8c-2.7-1.7-4.5-3.5-5.3-5.3
		c1.7-7.4-0.2-14.2-5.8-20.5c-7.9-8.5-12.2-14.1-13.2-16.6c-1.5-3.9-2.2-9.9-2.1-18.1c0.1-4.1-1.1-8.5-3.6-13.2
		c-3-5.5-4.8-10.1-5.5-14c-0.5-2.8-1.6-6.7-3.4-11.6c-1.5-4.2-2.3-7.7-2.6-10.4c-0.1-1,0.3-4,1.4-9.1c0.7-3.6,0.2-6.7-1.4-9.1
		c0,0.1,1-1.4,2.9-4.4c1-1.5,0.4-2.7-1.9-3.6c0,0.3,0.2,0.8,0.5,1.4c0.2,0.3,0.1,0.6-0.5,0.7c-0.1-0.6-0.2-0.9-0.2-0.9
		S69.1,109.1,66.5,109z M70.6,77.9c0.2,0.3,0.8,1.3,1.7,2.7c0.7,1.3,1.4,2.1,2.2,2.4c-0.3,2.8-0.7,5.2-1,7c-0.2-0.2-1.6-0.6-4.1-1
		c-1.7-0.2-2.7-0.9-2.9-2.1c4.8,0.7,7.1,1,7,1c-0.9-0.6-1.1-1.5-0.5-2.7c0.6-1.3,0.5-2-0.3-2.2c0.1,0.5,0,0.5-0.3,0.2
		c-0.3-0.2-0.8-0.7-1.4-1.4C69.7,79.9,69.6,78.5,70.6,77.9z M69.6,102c4.1,0.3,5-0.6,2.6-2.9c-3.6-3.8-5.5-5.8-5.6-6.2
		c2.6-0.2,4-0.5,4.1-0.9c0.1,0.7,1,2.2,2.7,4.4c1.6,2.1,2.3,4.2,2.2,6.5c-0.2,0-0.9,0-2.1,0c-1.3,0-2.2,0-2.7,0
		C68.7,103,68.3,102.6,69.6,102z M70.6,91.9c-0.3,0-0.6-0.1-0.7-0.3C69.8,91.2,70,91,70.6,91C70.5,91.3,70.5,91.5,70.6,91.9z
		 M76.6,68.8c0.3-0.2,0.3,2.1,0,7c-0.2,3.9-0.5,5.4-0.7,4.4c-0.5-3.3-0.9-5.4-1.4-6.3c0-0.1-0.8-1-2.4-2.6c-1.3-1.3-1.8-2.7-1.5-4.4
		c0.7-0.8,1.7-0.8,2.9,0C75.9,68.3,76.9,68.9,76.6,68.8z M70.6,91.9V92V91.9z M76.6,122.1c-1.8,3.4-2.6,7.1-2.2,11.1
		c0.1,1.4,0.5,3.4,1,6c0.6,3.2,1,5.5,1.2,7C78.1,142,78.1,134,76.6,122.1z M150.9,30.7c-0.3,1.8,0.9,3.5,3.8,5
		c1.1,0.6,1.8,1,1.9,1.4c0.2,0.7-0.3,1.6-1.7,2.7c3.6,0.2,6.5,1.4,8.7,3.6c2.6,2.4,3.1,5.2,1.4,8.4c-4.1-5.1-7.5-6.8-10.1-5
		c4.9,0.8,8.3,4.1,10.3,9.9c1.8,5.9,0.7,10.7-3.2,14.2c-1,0.5-1.7,0.1-1.9-1c-0.3-1-1-1.4-2.1-1c1.3,1.7,0.1,3.5-3.4,5.3
		c-1.3,0.8-2.3,1.1-3.1,0.9c-0.9-0.1-1.1-0.8-0.5-2.1c-1.5,0.6-2.5,1.3-3.1,2.1c0.7,0.1,1.2,0.4,1.5,0.9c0.3,0.6,0.2,0.9-0.5,1
		c-0.8-1-2.1-1.6-3.8-1.7c-1.6-0.1-1.4,0.5,0.7,1.7c-0.7,0.1-2.3-0.5-5-1.7c-2.1-0.8-3.7-0.6-5,0.7c6.7,1,9.2,4.6,7.3,10.8
		c-1.6,5.8-5.1,10-10.4,12.5c-0.8-1.1-2.3-1.8-4.6-2.1c-2.4-0.3-4.2,0-5.5,1c0.5-1.1,0.1-1.8-1-2.1c-1-0.2-1.3-0.9-0.9-2.1
		c0.6-0.2,2.2-0.5,4.8-0.7c2.1-0.2,3.4-0.7,4.1-1.4c-1.4-0.2-4.7-0.5-9.9-0.9c-0.1,0.3-0.4,0.9-0.9,1.7c-0.5,1-0.7,1.8-0.9,2.2
		c-0.7,1.9-0.5,3.3,0.7,4.1c2.7-1,5.4-1.1,7.9-0.3c2.7,0.9,4.8,2.7,6.2,5.3c-0.8,2.8-3.5,4.7-8,5.6c-4.3,0.9-8.3,0.7-12-0.7
		c2.5,0.5,3.8-1.2,3.9-5c-0.7,0.1-1.8,1.1-3.2,2.9c-1.3,1.5-2.2,1.8-2.7,1c0.3-0.6-0.2-1.8-1.5-3.8c-1.5-1.9-3-3-4.4-3.2
		c1.9,1.3,3.5,3.7,4.6,7.3c1.1,3.6,0.9,5.2-0.7,4.8c0.8-0.1,1.1-0.5,1-1c-6.8,1.3-10.5,4.3-11.1,9.1c0.8,0,1.6-0.2,2.4-0.7
		c0.3-0.2,0.9,0,1.7,0.7c-1.7-1.6-1.4-3.1,1-4.4c2.6-1.5,4.3-1.7,5-0.7c0,0.1-0.9,1.3-2.7,3.4c-0.9,1.1-0.7,2.1,0.7,2.7
		c-11.3,2.5-17.9-3.2-20-17.1c1.5,0.8,3.9,2.5,7.3,5.1c3,2.3,5.5,3.9,7.7,5c0-0.6,0.4-1.2,1.2-1.9c0.8-0.5,1.1-1.2,0.9-2.2
		c-1.5,0.6-2.3,0.7-2.6,0.5c-0.2-0.1-0.2-0.6,0-1.4c0.5-2.1-0.4-3.1-2.6-3.1c0,0.2,0.2,0.6,0.5,1.2c0.2,0.3,0.1,0.6-0.5,0.7
		c-4-0.7-7.9-3.2-11.6-7.7c-3.8-4.6-6.6-7-8.4-7.3c-1.6-7.9-1.3-10.2,1-7c-0.1-1.5-0.3-3.4-0.7-5.8c-0.5-2.8-0.7-4.6-0.9-5.3
		c-0.3-4,0.5-6.9,2.6-8.9c-1.6,0-2.6-0.7-3.1-2.1c1.4-0.7,2.2-1.3,2.4-1.9c0.3-0.7,0.2-1.8-0.3-3.2c0.5-0.8,1.1-0.9,2.1-0.3
		c0.9,0.6,1.5,0.4,1.9-0.5c-0.6-0.1-1.1-0.6-1.7-1.4c-0.6-0.8-1.3-1-2.2-0.7c-0.5-0.1-1,0.6-1.7,2.1c-0.6,1.1-1,1.1-1.4,0
		c0.7-0.1,1.2-0.8,1.5-2.1c0.3-1.3,0.9-1.9,1.5-2.1c0.6,1.1,1.9,1.8,3.9,2.1c2.1-4.2,5.4-8,10.1-11.3c4.4-3.2,8.8-5.1,13-5.8
		c-0.5,0.8-1.7,1.8-3.6,2.9c-1.8,1-3,2.1-3.4,3.1c0.3,0,1.5-0.5,3.6-1.5c1.1-0.6,1.9-0.1,2.4,1.5c-9.7,8.2-14.4,15.3-14,21.2
		c2.3-6.7,6.7-11.5,13.2-14.2c0.6,1.6,0.5,3.4-0.2,5.5c-0.6,2.1-1.5,3.6-2.9,4.6c-0.2-1.9-0.6-3-1-3.1c-0.8,0.1-1.4,0.7-1.9,1.7
		l-1.2,2.4c2.1,0.2,3.1,0.6,3.1,1c-1.5,4.2-3.5,7.2-6,9.1c1.9,0.8,3.5,0.2,4.8-1.9c0.2-0.2,0.5-0.6,0.7-1.2c0.2-0.3,0.4-0.6,0.5-0.9
		c0.3-0.5,0.7-0.5,1-0.2c-1.6,6.5-1.9,10.9-1,13.2c3.1-23.7,4.7-34.7,5-33.2c0.8-1,1.8-2.7,3.1-5c1.5-2.7,2.5-4.6,3.1-5.5
		c2.6-4.1,5.6-5.7,9.1-4.8c0,0.9,2.2,0.5,6.5-1.2c4.8-1.7,7.6-2.3,8.5-1.7c-0.3,0-0.6,0.1-0.7,0.3c-0.1,0.3,0.1,0.6,0.7,0.7
		c2.1-2.4,4.3-2.9,6.8-1.5C145.6,32.8,148.3,32.6,150.9,30.7z M79.7,129.1c-1.8,4.8-1.8,12.1,0,22C81.6,146.3,81.6,138.9,79.7,129.1
		z M80.7,109c0,0.1,1.5,1.7,4.6,4.6c1.5,1.4,1.9,3.5,1.4,6.5C81.3,115.2,79.3,111.5,80.7,109z M84.6,144.2c-2.8,5.1-2.8,14.2,0,27.2
		C84.3,172.4,84.3,163.3,84.6,144.2z M88.7,93.9c-0.1-1-0.7-1.9-1.9-2.7c-1.3-0.8-2-1.5-2.2-2.2c-1,0.6-1,1.7,0,3.2
		C85.7,93.7,87.1,94.3,88.7,93.9z M90.6,53.8c0.6,0.8,1.5,0.5,2.7-1c1.5-1.9,2.6-2.9,3.4-2.9c-1-1.3-2.1-1.1-3.2,0.5
		C91.6,52.6,90.6,53.8,90.6,53.8z M92.6,131.2c-1.1,0.8-1.4,2.3-0.9,4.4c0.2,0.7,0.6,1.5,1,2.6c0.5,1,0.7,1.7,0.9,1.9
		c0.9-0.6,0.9-1.8,0-3.8C92.5,134.1,92.2,132.4,92.6,131.2z M94.7,83.8c-1-0.9-0.9-2.1,0.5-3.6c1.7-2.1,2.5-3.5,2.4-4.4
		c-0.5-1.1-1.1-1.3-2.1-0.3c-1.1,1.3-2.1,1.7-2.9,1.4v9.1c2.3,0.2,3.3-1.1,3.1-3.9C95.4,82,95,82.6,94.7,83.8z M95.7,177.3
		c-1,4.2,0.1,8.7,3.2,13.5c5.2,7.9,7.8,11.7,7.7,11.6c0.9-4-0.3-8.3-3.8-13C98.6,183.4,96.2,179.4,95.7,177.3z M100.7,99.9
		c1.5-1.3,1.3-1.9-0.7-1.9c-1.9,0-3.4,0.3-4.3,1c0.9,1.3,1.3,2.9,1,5c0.3-0.1,0.9-1.3,1.7-3.6C99,98.7,99.8,98.5,100.7,99.9z
		 M97.6,166.2c-0.2,4.4,1.7,9.5,5.8,15.2c5.6,7.7,8.7,12.4,9.4,14c-0.2-4-2.3-8.9-6.3-14.7C101.5,173.2,98.5,168.4,97.6,166.2z
		 M105.6,97c0.7-0.7,0.2-1.8-1.4-3.4c-1.6-1.5-3.1-2.3-4.6-2.6c0.3,0.8,0.9,2.3,1.5,4.4c0.7,1.9,1.2,3.4,1.5,4.4
		c1.1-0.6,1.8-1.9,2.1-3.9C105.3,95.9,105.6,96.2,105.6,97z M105.6,176.3c0.6-1.1,1.8-0.6,3.6,1.7c1.7,2.4,2.2,4.2,1.5,5.3
		c0.1,0.6,0.5,0.7,1,0.3c0.6-0.2,0.9,0,1,0.7c0.7-3.4-1.4-7.7-6.2-13c-0.7,0.2-0.9,0.6-0.7,1.2c0.5,1.3,0.7,1.8,0.7,1.7
		c-1-0.5-1.9-1.5-2.7-3.2c-0.9-1.9-1.7-3.2-2.2-3.8c-0.7,0.8-0.3,2.2,1,4.3C104.5,174,105.5,175.6,105.6,176.3z M107.7,147.2
		c0.9,4.6,3.3,8.7,7.2,12.3c1.3,1.3,3.1,2.7,5.5,4.4c2.8,2.2,4.7,3.6,5.5,4.3c1.4-0.5,2.1-1.5,2.1-3.1c1.9,2.6,3,3.8,3.2,3.4
		c0.2-0.2-0.1-1.6-0.9-4.1c-2.7-8.7-4.2-14.1-4.4-16.4c-7.3,4.1-13,4.1-17.1,0c8.4-0.2,13.4-0.9,15-1.9c-1-2.6-4-4-8.9-4.1
		c-1.1-0.1-3.4-0.1-6.7,0c-2.8,0.1-5,0.1-6.5,0c0.8,0.2,1.7,1.2,2.7,2.9C105.3,146.4,106.4,147.1,107.7,147.2z M110.8,124
		c1-2.5,3.2-3.4,6.5-2.7c2.6,0.5,5.4,1.7,8.4,3.8c2.8,1.8,4,2.9,3.6,3.2c-0.3,0.3-2.8-1.1-7.5-4.3c-0.3,1.5-1.7,2.3-3.9,2.6
		c-0.6,0.1-1.6,0.2-3.1,0.3c-1.4,0-2.3,0.1-2.9,0.2c-0.3,1.9-0.7,3-1,3.1V124z M130.7,111c-0.6,0-0.7-0.2-0.5-0.7
		c0.2-0.3,0.7-0.5,1.5-0.3c-0.7,3.9-3.3,6.2-7.9,7c-1,0.1-5.1,0.1-12.1,0c0.2-1.1,1-2.1,2.4-2.9c1.3-0.7,1.8-1.4,1.5-2.1
		c1.9,3.2,4.4,4.2,7.5,2.9c0.8-0.3,2.1-1.1,3.9-2.2C128.8,111.8,130,111.2,130.7,111z M116.7,202.4c1-1.5,0.3-5.9-2.1-13.2
		c1.5,0.2,2.4,1.3,2.9,3.2c0.7,3.1,1.1,4.7,1.2,4.8c0.9-0.9,0.9-2.5,0-4.8c-1.1-2.5-1.5-4.6-1-6.2c-1.9,1.3-3,1.6-3.1,1
		c-0.2-1.3-1.2-1.9-2.9-2.1c1.5,3.2,2.4,6.4,2.7,9.6C114.9,197.9,115.6,200.4,116.7,202.4z M121.7,44.7c0.6,7.3-1.1,10.7-5,10.1
		c1.8,0.9,4.8,1.8,8.9,2.6c4.4,0.9,7.5,1.7,9.2,2.4c-1.3-1.7-5.3-3-12.1-3.9c0.2-0.7,0.5-1.8,0.9-3.2c0.2-1.6,0.5-2.7,0.7-3.4
		c0.7-2.4,1.9-3.9,3.6-4.4c-0.5-1-1.3-1.3-2.6-0.7C123.7,44.8,122.5,45.1,121.7,44.7z M146.8,39.8c-0.8,0-2.8-0.3-6.2-1
		c-3.8-0.8-6.7-1.3-8.7-1.5c-7.8-0.7-12.1,1.1-13.2,5.5c12.5-1.4,20.2-1.7,23.1-0.9c-0.1-0.3-0.5-0.7-1-1c-0.7-0.2-1-0.6-1-1
		c0.3-0.9,1.3-1.1,2.7-0.5C144.4,40,145.8,40.2,146.8,39.8z M120.8,79.9c0.2,1.6,0.1,3.3-0.3,5.1c-0.6,2.1-0.8,3.7-0.7,5
		c0.6,0,2.2-0.7,5-2.2c2.1-1.1,3.7-1.1,5,0.2c1.6-0.8,1.7-1.4,0.2-1.9c-1.5-0.5-2.8-0.5-4.1-0.2c1.4-1.3,3.4-1.5,6-0.7
		c0.6,0.1,1.7,0.5,3.2,1c1.3,0.3,2.2,0.6,2.7,0.7c-0.8-2.1-2.8-3.1-6-3.1c1.3-1.3,2.7-1.3,4.4,0c2.2,1.5,3.7,2.2,4.6,2.1
		c-0.8-3.4-3.4-5.8-7.9-7.2c-1.3-0.3-3.3-0.8-6.2-1.4c-2.7-0.6-4.7-1.1-6-1.5c0.8,1.3,4.1,2.6,9.9,4.1c-0.9,1.6-2.4,2.2-4.4,1.7
		c-0.6-0.1-1.5-0.5-2.9-1C122.3,80.3,121.4,80,120.8,79.9z M134.9,119.1c-1.4-1.1-3-1.1-5,0c-3.5,2.1-5.1,3-4.8,2.9
		c-0.1,0-0.2,0.1-0.3,0.2c0.1-0.1,0.2-0.2,0.3-0.2c1-0.1,1.9,0.3,2.6,1.4c0.6,1,0.3,1.6-0.9,1.7c-0.1-1-0.9-1.8-2.2-2.4
		c-1.6-0.7-2.6-1.2-2.9-1.5c-0.5,0,3.6-1.7,12.1-5.1c-0.1,0.5,0.3,1.1,1.4,1.9C136,118.4,135.9,118.8,134.9,119.1z M126.8,70.9
		c2.8,3,9.5,3.6,20,2.1c-1.6-1.5-2.6-3.5-2.9-6c-7.9-2.4-12.9-3.8-15-4.1c0.8,1.9,3,3.1,6.7,3.6c3.4,0.6,5.5,2.1,6.3,4.4
		c-1,1.7-3.2,2.2-6.7,1.5C130.1,71.4,127.3,70.9,126.8,70.9z M130.7,198.3c0.3,1.5,0.9,2.9,1.5,4.3c0.2,0.9,0.6,2.5,1,4.8
		c0.3,1.9,0.7,3.4,1,4.4c0.9,3.1,2.7,5.3,5.5,6.7c0-0.2-0.2-0.6-0.5-1c-0.3-0.3-0.5-0.7-0.5-1c1.5,0.1,2.1,0.7,1.7,1.9
		c-0.2,1-1.1,1.4-2.7,1.2c2.1,2.1,4.1,2.1,6.2,0c-7.8-11.2-11.6-16.8-11.6-16.9C131.8,201,131.3,199.6,130.7,198.3z M149.9,48.8
		c0.1-2.8-5.9-4.2-18.1-4.1c1.1,1.7,3.9,2.6,8.4,2.7C145.4,47.7,148.6,48.1,149.9,48.8z M133.8,222.4c4.9,5.8,7.9,19.2,9.1,40.2
		c0.6-10.8,0.6-18.3,0-22.6C141.9,232.2,138.8,226.3,133.8,222.4z M136.9,274.7c-1.3-1.8-2-4.4-2.2-7.7c-0.2-3.8,0.5-6.2,2.2-7.3
		c-1.6,5.9-1.3,10.3,0.9,13c1.5-0.1,3.2,0.2,5.1,1C142,274.5,140,274.9,136.9,274.7z M134.9,137.2c13.8-12.9,25.5-17.5,35-14
		c-5.1,0.3-11,2.6-17.6,6.8C145.4,134.2,139.6,136.6,134.9,137.2z M147.8,91.9c-0.7,3-2.5,5.4-5.5,7.3c-4,2.6-6.2,4.2-6.5,4.8
		c-0.2-3.4,1.3-6.3,4.4-8.7C142.8,93.4,145.3,92.2,147.8,91.9z M155.9,68.8c0-2.4-2.3-4-6.8-5c-7-1.4-11-2.4-12.1-3.1
		C142.6,65.8,148.9,68.5,155.9,68.8z M151.9,114.1c0.1,0.3,0.3,0.9,0.7,1.5c0.5,0.7,0.7,1.1,0.9,1.4c0.3,1-0.2,1.7-1.5,2.1
		c-1-2.5-3.5-3.6-7.5-3.2c-4.2,0.6-6.7,0.3-7.5-0.7c1.5-3.1,4.6-3.5,9.4-1.2c2.4,1.3,3.8,1.9,4.3,1.9
		C151.6,116.1,152.1,115.6,151.9,114.1z M145.8,100.9c-0.5,1.6-3.1,4.6-8,9.1C138.4,104.5,141.1,101.5,145.8,100.9z M140.8,182.3
		c2.2,2.7,3.2,3.8,3.1,3.1c11.6-3.1,18.6-4.4,21-4.1c-0.1,0.7-0.5,1-1,0.9c-0.7,0-1-0.3-1-0.9c-0.7,0.7-0.8,1.5-0.3,2.4
		c0.8,1.9,1.3,3.2,1.4,3.8c1.7-0.7,1,2-2.1,8c1-0.3,1.9-0.2,2.7,0.3c0.8,0.6,1.6,0.7,2.4,0.5c-0.2-3.2,1.1-4.2,3.9-2.9
		c2.4,0.3,4.4,2,6.2,5c0.8-0.3,1-0.8,0.7-1.4c-0.3-0.6-0.9-0.8-1.7-0.7c1.6-0.7,1.9-1.4,0.9-2.2c-0.8-0.7-2.1-1.3-3.9-1.7
		c-0.1,0.3,0.5-0.5,1.7-2.6c0.8-1.1,0.6-1.9-0.7-2.4c-0.1,0.5,0.9,0.5,3.1,0c-1.4-1.4-2.1-3.3-2.2-5.8c-0.1-2.7,0.9-3.8,3.1-3.2
		c1-0.5,0.7-0.9-1-1.2c-2.4-0.5-3.7-0.7-3.9-0.9c0.1-0.7,0.7-1.1,1.9-1.2c1.3-0.1,2-0.4,2.2-0.9c-4.2-1.9-10-1.7-17.3,0.7
		c-2.4,0.8-5.6,2-9.6,3.6C145.3,180.6,142.2,181.8,140.8,182.3z M166,129.1c-1.8,4-5,6.8-9.6,8.4c-4.7,1.7-8.8,1.6-12.5-0.3
		c4,0,8-1,12-3.1C163.2,130.6,166.5,128.9,166,129.1z M196,122.1c-1.6-0.3-3.7-0.6-6.3-0.7c-3.5-0.1-5.6-0.2-6.3-0.2
		c-4.4-0.5-6.9-1.9-7.3-4.3c-1.1-0.5-2.5-1-3.9-1.5c0.2-0.9-0.7-2-2.7-3.2c-1.8-1.1-3.6-1.9-5.5-2.2c0.6,1,1.8,1.9,3.8,2.7
		c2.1,0.9,3.4,1.8,3.9,2.6c-9.6-3.4-17.1-4.5-22.7-3.2l4.6-2.7c1.4-0.7,2.5-0.8,3.4-0.3c0-0.3,0.2-0.7,0.5-1
		c0.2-0.5,0.4-0.7,0.5-0.9c-2.3,0.7-3.3,0.6-3.1-0.2c0.3-1.6,0.3-2.6,0-2.9c-1.4,0-2.8,1-4.4,3.1c-1.5,1.7-3.3,2.3-5.5,1.9
		c0.8-3.6,2.9-6.4,6.3-8.2c5.2-2.7,8.1-4.3,8.7-4.8c-0.6,0-1-0.6-1.4-1.7c-0.3-1-0.9-1.5-1.7-1.4c-1-0.2-2.5,0.2-4.4,1.4
		c-1.3,0.7-2.1,0.2-2.6-1.4c2.8-0.9,5.9-1.3,9.1-1c0.1,0.2,0.5,1.4,1.2,3.4c0.3,1.4,1.3,1.9,2.7,1.7c0.2-0.5-0.2-1.1-1.4-1.9
		c-0.8-0.6-0.7-1,0.3-1.2c0.3,0.7,0.9,1.4,1.5,2.2c0.9,0.9,1.4,0.9,1.5-0.2c-0.5-1-1.5-2.2-3.1-3.4c-1.4-1.1-2-2-1.9-2.6
		c0,0.5-0.3,0.7-1,0.9c-0.6,0-0.9-0.3-1-0.9c0.7-0.5,2.5-1,5.5-1.5c2.4-0.6,3.9-1.4,4.6-2.6c0.2,1.4-0.3,2.6-1.5,3.8
		c-2.7,2.6-3.9,3.7-3.6,3.2c1.7,1.5,3.4,2.5,5.1,3.1c-0.8,0.1-1.1,1.1-1,3.1c-2.1-1.8-4-1.8-6,0c-3.6,3.4-5.4,5.1-5.1,5
		c0.7,1,1.9,1.9,3.8,2.6c1.9,0.8,3.4,0.6,4.3-0.5c-0.2-0.7-1.3-1-3.1-1c-1.8,0.1-2.8-0.2-2.9-1c1,0,2.1-0.5,3.1-1.4
		c1.1-1,2.1-1.6,2.9-1.7c1.5,0.8,4.6,2.1,9.2,3.9c4,1.5,6.9,2.8,8.9,4.1c-2.2-3.2-5.9-5.9-11.1-8c-0.6-2.2-0.6-3.8-0.2-4.8
		c0.6-1,1.3-0.4,2.2,1.9c-2.4-5.6-1.5-10.5,2.6-14.7c5.1-5,7.6-9.9,7.5-14.5c-1.1,0.2-1.9-0.3-2.4-1.5c-0.5-1.4-1.4-1.8-2.7-1.4
		c1.5,2.7,1.7,5.6,0.5,8.7c-1.1,3-3,4.7-5.5,5.3c-0.3-1.8,0.3-3.2,1.9-4.1c1.9-1,3-2,3.1-2.9c-1.1-0.7-1.6-1.7-1.4-3.1
		c0.5-2.3,0.6-3.9,0.5-5c3.2,0.1,4.8-0.6,5-2.1c-1.9,0.2-4.3-5.5-7-17.1c1.7,0.8,2.1,0.5,1.2-0.9l-1.2-2.2c0.9,1,2.2,1,3.9,0
		c1.3-0.8,1.9-0.5,2.1,1c0.9,0.5,0.6,0.9-0.9,1.4c-1.9,0.7-2.7,1.6-2.2,2.7c0.2,0.3,2.2,1.5,5.8,3.6c3.9,2.1,6.3,3.9,7.3,5.5
		c0.2,0.3,0.1,0.9-0.3,1.7l-0.7,1.2c0.1,0.2,0.5,0.1,1-0.3c0.7-0.5,1-0.6,1-0.5c2.6,6.2,5,10.2,7,12.1c3.8,3.5,8.8,3.8,15,0.9
		c0.5,0.2,1.4,1.2,2.7,2.9c0.9,1.1,2.3,1.5,4.3,1c-0.6,2.3,0.4,3.8,2.9,4.4c2.5,0.6,3.9,0.1,4.1-1.4c0.1,0.5,1.3,1.4,3.6,2.7
		c1.7,1,1.9,2.1,0.5,3.2c-3-0.7-8.4-1.2-16.2-1.5c-7.3-0.5-12.9-1.3-16.9-2.4c1,1.6,1.9,2.8,2.7,3.8c0.7,0.8,1.4,1.9,2.2,3.2
		c0.9-1,4-1.1,9.2-0.3c5.7,0.9,9.7,0.7,12-0.7c0.5,1.1,1.7,2.2,3.8,3.2c2.3,0.9,3.7,1.8,4.3,2.7c-1.3,0-3.4-0.7-6.3-2.2
		c-2.5-1-5.1-1.3-7.9-0.7c-0.9,3.9-3.3,6.8-7.2,8.7c-3.5,1.7-7.5,2.3-12,1.9c-4.4-0.3-8-1.6-10.8-3.8c-2.8-2.5-3.9-5.5-3.2-8.9
		c-1.4,0.8-1.9,0.9-1.5,0.3c0.1-0.1,0.4-0.5,0.9-1c0.3-0.6,0.6-1,0.7-1.4c-1.5,0-2.2-0.3-2.2-1c-0.1-0.9-1-1.5-2.7-1.9
		c0.1,6.6,2.4,11.7,6.8,15.2c3.2,2.7,8.3,5,15.2,6.8c1.3-0.6,2.8-1.5,4.8-2.9c2.1-1.4,3.6-2.3,4.6-2.9c3.9-1.9,8.1-2.7,12.8-2.2
		c0,1.9,1.7,3.4,5,4.3c2.1,0.5,3.4,0.7,3.9,0.7c-2.1,0-4.3,0.6-6.7,1.7c-3.3,1.5-5.1,2.3-5.3,2.4c1.6,1.7,3.9,3.5,6.8,5.5
		c3.1,1.8,5.1,2.7,6,2.6c-2.3,0.7-3.5,1-3.8,1c-1.1-0.5-2.6-1.5-4.4-3.2c-1.6-1.6-3.1-2.6-4.6-2.9c-2.4,2.1-3.8,4.4-4.1,7
		c1.8-1.3-4.2-1.5-17.9-0.9c4.1,3.3,8.8,6,14,8c3.2-6.8,10.9-8.5,23.1-5.1c-0.9-0.1-1.9,0.2-3.1,1c-1,0.8-2,1.1-2.9,1
		c-0.7-0.1-1.4-0.7-2.2-1.9c-0.7-0.9-1.7-1.3-2.9-1.2c-3.6,2.7-6.6,8.1-8.9,16.1c-8.4,3.9-12.6,5.8-12.6,5.8S201.7,133.3,196,122.1z
		 M147.8,184.3c-1.1,2.3-0.5,4.9,2.1,7.9c0.7,0.9,1.9,2.2,3.6,3.8c1.7,1.6,2.8,2.7,3.4,3.4c0.5-0.2,0.7-0.7,0.7-1.4
		c-0.2-0.9-0.1-1.8,0.3-2.6c-1.6-0.1-2.6-1.1-3.1-3.1c-0.8-3.6-1.1-5.3-1-5C150.9,187.9,148.9,186.8,147.8,184.3z M149.9,89
		c0.2-1.9-0.5-4.8-2.1-8.7c-0.5-1-0.5-1.5-0.2-1.5c0.3,0.1,1.4,0.9,3.2,2.2c0-0.3-0.2-0.8-0.7-1.4c-0.3-0.6-0.5-1.1-0.3-1.7
		c1.6-0.1,4-1,7.3-2.6c2.3-1.1,4.2-1.3,5.6-0.3c-0.3,0.1,0.1,0.7,1.4,1.7c1.7,1.5,2.6,2.6,2.7,3.2c0.3-1.4,0.7-2.1,1-2.1
		c0,3.9-2.2,6.5-6.7,7.9C152.9,88.2,149.1,89.3,149.9,89z M170.9,51.7c2.5,0.3,3.4,3.1,2.7,8.2c-1,6.5-1.3,10.5-0.7,12
		c-1.3,2.1-2.9,3.7-5,5c-0.9-5.7,0.4-10,3.9-13c-2.3-2.7-3.4-5.3-3.2-7.7c0-0.7,0.2-1.9,0.5-3.6c0.3-1.9,0.6-3.5,0.7-4.8
		c-3-4.6-7-8.6-12-12.1c0.8,0.1,1.4-0.5,1.7-1.7c0.3-1.1,1.1-1.5,2.2-1.2c0.3,2.5,0.7,3.8,1,3.9c0.8-0.3,1.5-1.6,2.2-3.8
		c0.6-1.9,1.5-3,2.9-3.2c0.2,3.4-0.8,6.8-3.1,10.1C170.4,43.4,172.4,47.4,170.9,51.7z M189,112c-7.4-1.3-13.8-2.9-19.1-5
		c0.6,1.4,1.6,2,3.1,1.9c-0.7,1.3-1.8,1.4-3.2,0.5c-1.8-1.1-3.1-1.7-3.8-1.5C170.5,112.5,178.2,113.9,189,112z M172.1,115.5
		c0,0.2-0.1,0.4-0.2,0.5c-0.1-0.2-0.2-0.5-0.3-0.7C171.9,115.4,172.1,115.5,172.1,115.5z M196,110c-1.9-1.1-2.5-1.7-1.5-1.5
		c2.3,0.2,3.8,0.1,4.6-0.5c-6.3-3.1-10.7-4-13.2-2.9c0.1,0.2,0.8,0.6,2.1,1c-0.6,1.1-1.3,1.8-2.1,1.9c0.6,1.3,1.9,1.9,4.1,2.1
		c0.7,0.1,1.7,0.1,2.9,0C194.4,110,195.5,110,196,110z M193.1,73.9c-1.1,0.8-1.1,1.9,0.2,3.4c1.8,2.3,2.7,3.5,2.7,3.6
		C195.1,81.6,194.2,79.3,193.1,73.9z M204.1,93.9c0.5,1.1,1.5,1.5,3.2,1c2.8-0.7,4.1-1,3.8-1c-0.2-0.9-1.4-1.3-3.4-1.2
		C205.8,93,204.6,93.4,204.1,93.9z M211.1,100.9c0.1,0.6-0.1,1.3-0.5,2.1c-0.3,0.7-0.5,1.4-0.5,2.1c0.3-0.6,1.6-1.2,3.8-1.9
		c1.7-0.6,2.5-1.7,2.4-3.2C214.8,100.9,213.1,101.3,211.1,100.9z"/>
</g>
</svg>
