<?xml version="1.0" encoding="utf-8"?>
<!-- Generator: Adobe Illustrator 21.1.0, SVG Export Plug-In . SVG Version: 6.00 Build 0)  -->
<svg version="1.1" id="Layer_1" xmlns="http://www.w3.org/2000/svg" xmlns:xlink="http://www.w3.org/1999/xlink" x="0px" y="0px"
	 viewBox="0 0 300 300" style="enable-background:new 0 0 300 300;" xml:space="preserve">
<g>
	<path d="M62.6,205.6c-1.8,22.2,2.2,44.4,12,66.5h-5.1c-4-12.8-6.7-23.5-8-32.1c-0.8,3.2-0.4,13.9,1.2,32.1h-5.3
		c0-2.1,0.2-9.3,0.5-21.7c0.2-8.7-0.1-15.6-1-20.7V209c0.1-9.6,3.8-22.3,10.9-38.3c1.1-2.7,3.5-8.4,7-17.1c2.7-7.1,5.1-12.5,7-16.2
		c6-11.5,13.8-19.1,23.2-22.9c-0.9,1.3-5,5.5-12.1,12.6c-0.1-0.8,0.1-1.5,0.5-2.1c0.5-0.8,0.7-1.5,0.7-2.1
		c-8.7,10.9-14.2,22.2-16.6,33.8c1.3-0.7,2.5-2.7,3.8-6.2c1.1-3.1,2.7-4.8,4.8-5.3c-0.6-0.5-0.7,0.9-0.5,4.1
		c1.5-1.4,7.2-10,17.1-25.8c0.1-0.2,0.5-1,1.2-2.2c0.5-0.9,0.9-1.7,1.4-2.2c1.3-1.7,2.7-2.3,4.3-1.9c-17,25.1-26.7,38.8-29.2,41.2
		c-0.6,0.7-1.9,1.8-4.1,3.4c-1.7,1.3-3,2.5-3.8,3.6c-3.4,4.2-7.1,13.3-10.9,27.3c0.8-0.8,1.5-2.6,2.2-5.5c0.7-2.6,1.5-4.4,2.4-5.3
		c0.1,2.7-0.3,6.6-1.4,11.5C63.4,199.4,62.8,203.4,62.6,205.6z M177.7,187.3c-1,12.8-5.9,25-14.7,36.6c-1.5,1.9-5.3,6.6-11.5,14
		c-4.8,5.8-8.5,10.7-11.1,14.7c-1.6,0-3.4,0.7-5.3,2.1c-2.1,1.5-3.7,2.3-5,2.6c-4.2,0.6-10.3-0.7-18.3-3.9
		c-8.4-3.2-14.2-4.7-17.3-4.6c0.5,0.8,1.7,2.1,3.6,3.8c1.7,1.5,2.6,3.1,2.7,4.8c-2.2-0.5-4.7-1.8-7.5-3.9c-3-2.3-5.4-3.6-7.3-4.1
		c0,1.5,0.8,3.2,2.4,5.1c1.5,1.7,2,3.2,1.5,4.6c-1.3,0.7-2.9,0.5-5-0.7c-2.1-1.3-3.8-1.4-5.3-0.5c0.9-2.1,3.2,2,6.8,12.1
		c-3,0.9-5.8,0.4-8.4-1.5c-2.5-1.9-3.9-4.5-4.1-7.7c-0.1-0.7-0.1-1.7,0.2-3.1c0.2-1.5,0.3-2.6,0.3-3.2c-0.2-4.8-1.5-14.8-3.8-29.9
		c-1.7-12.1-2.4-22.2-2.1-30.2c0.5-8.5,2.8-16.3,7-23.4c1.4-2.3,5.9-8.4,13.7-18.5c1.7-2.2,3.9-5.3,6.5-9.4c3-4.7,5-7.8,6.2-9.4
		c8.1-11.4,12.3-17.7,12.6-19c-0.5-0.5-1-0.4-1.7,0.2c-0.7,0.6-1.5,0.7-2.4,0.5c0.1-0.5,0.4-1.3,0.9-2.4c0.5-0.9,0.7-1.7,0.9-2.2
		c-1,0-2.2,0.6-3.4,1.7c-1.1,1-2.5,1.4-3.9,1c-1-2.2-0.7-4.2,0.9-6c3-3.2,4.4-4.6,4.3-4.3c-0.3-3.1,0.3-5.8,1.9-8.2
		c0.5-0.6,1.2-1.6,2.2-3.1c1-1.1,1.8-2.2,2.2-3.1c-0.7-1.8-0.9-4.3-0.5-7.5c0.3-4,0.5-6.6,0.5-7.9c1.5-3.1,3.3-7.6,5.5-13.7
		c2.3-6.6,4-11.2,5.1-13.8c4.7-10.1,11.5-16.1,20.3-17.8h6.8c8.4,2.2,13.6,4.3,15.4,6.3c3.8,4,6.8,10.5,9.2,19.5
		c0.3,1.4,0.2,3.2-0.3,5.5c-0.6,2.6-0.9,4.6-0.9,6c0.1,0.6,0.4,1.5,0.9,2.7c0.6,1.3,0.9,2.2,0.9,2.9c0.1,0.9-0.1,2.3-0.5,4.3
		c-0.5,1.9-0.6,3.4-0.5,4.4c0,0.9,0.9,3.8,2.7,8.5c1.1,3.1,0.8,5.8-1,8c0.6,1.4,1.8,3.2,3.8,5.6c1.8,2.3,3,4.2,3.6,5.8
		c-1,1.8-2.9,3-5.6,3.4c0.7,4.1-1.4,6.4-6.3,6.8c0.7-0.9,0.6-1.7-0.2-2.4c-1-0.7-1.5-1.4-1.5-2.2c-3.9-0.6-6.8-3.1-8.9-7.7
		c-2.1-4.3-2.3-8.3-0.9-11.8c-7,8.1-10.6,12.1-10.9,12.1l-1.7-1.7c-1.3-1.1-2-1.7-2.2-1.7c-1.1-0.2-2.2-0.1-3.1,0.3
		c-1.1,0.5-2.1,0.7-2.7,0.7c-0.1-0.1-2.3-3-6.7-8.5c-2.8-3.5-4.4-6.9-4.8-10.3c-1.1,1.8-1.5,8.9-1.2,21.2c-2.2,0.1-3.8,1.2-5,3.2
		c-0.3,0.5-0.9,1.4-1.5,2.7c-0.6,1.1-1.1,2-1.5,2.6c0.5,0.8,1.4,1.7,2.7,2.6c1.3,1,2.1,1.9,2.6,2.6c-1,0.3-2.6-0.1-4.6-1.4
		c-1.6-1-2.7-0.9-3.4,0.3c8,6,17.3,8.5,28,7.3c11-1.1,18.5-4.4,22.4-9.7c-1.7,0.5-4.2,1.3-7.3,2.4c-3.5,1.4-6.2,2.3-7.9,2.7
		c-6.5,1.9-12.1,2.2-16.9,0.7c4.8-0.1,15.8-3,33.2-8.7c0.9,0.3,1.8,1.4,2.6,3.1c0.7,1.6,1.6,2.5,2.7,2.7c0.2-0.3,0.7-0.6,1.5-0.7
		c1-0.2,1.7-0.4,1.9-0.5c1.7-3.4,4.7-6.7,9.1-9.7c1.5,1.6,4.4,3.9,8.9,6.8c4,2.7,6.8,5.2,8.4,7.5c-0.1,2.8-0.3,4.4-0.5,4.6
		c2.8,4.1,7.2,11.8,13.2,23.1c5.1,10.3,9.7,17.7,13.7,22.2c0.3,0.3,1.1,1.1,2.2,2.2c1.1,1,2,1.9,2.6,2.7c1.7,2.2,2.1,4.3,1,6.5
		c0.3,0.3-2.2-2.8-7.7-9.4c-3.6-4.4-6.7-6.8-9.1-7.2c-0.5-0.1-1.4,0.1-2.9,0.5c-1.4,0.5-2.5,0.6-3.2,0.5c-1,0-2.4-0.4-4.1-1.2
		c-1.5-0.8-2.6-1.1-3.4-1c-0.9,0.1-1.9,0.6-2.9,1.5c-1.3,1-2.2,1.7-2.9,1.9c-0.1-0.3-0.6-0.7-1.5-1c-0.8-0.3-1.2-0.7-1.2-1.2
		c3.2-18.6,4.8-28,4.8-28.4c0.7-12.4-2.8-19.4-10.6-21c-0.7,0.8-1.1,2.4-1.2,4.8c-0.2,2.6-0.6,4.3-1,5c-1.3-0.8-2.4-3.1-3.4-7
		c-0.8-3.5-2.2-5.6-4.1-6.2c0,0.8-0.1,2.4-0.2,4.8c0,2.1-0.1,3.7-0.2,5c-0.3,3.9-1.4,6.6-3.1,8c-1.3-8-1.7-11.8-1.2-11.5v35.5
		c1.1,1.3,4.5,2.5,10.1,3.8c4.8,0.9,7.3,2.9,7.7,6c-2.5-2.5-8-4.4-16.6-5.8c0.1,0.1-0.7-0.9-2.6-3.1c-1-1.4-2.3-2.1-3.8-2.1
		c-0.8,1.1-0.8,2.5,0,3.9l1.2,2.4c-8.7-0.7-14.2,0.1-16.6,2.2c-0.5-0.3,5.1,0.5,16.6,2.4c4.6,0.8,7.2,1.9,8,3.4
		c-0.3,0-4.3-0.7-12-2.2c-5.7-1-9.6-0.5-11.6,1.7c1.6,0.9,5.4,2.1,11.5,3.4c0.7,0.1,1.8,0.3,3.2,0.5c1.4,0.2,2.4,0.4,3.1,0.5
		c2.4,0.6,3.9,1.5,4.6,2.9c-2.1-0.2-5.4-1-10.1-2.4c-4.1-1.3-7.6-2-10.6-2.2c0.9,3.1,3.9,5.2,9.1,6.3c6.6,1.5,10.5,2.6,11.6,3.4
		c0.2,0-5.1-1.1-16.1-3.4c1.7,3,2.6,4.4,2.6,4.4S171.7,184.1,177.7,187.3z M112.4,214.1c0.7-12.5-0.5-24.3-3.4-35.4
		c0.6-0.9,1.5-2.2,2.9-3.8c1.7-1.9,2.8-3.2,3.4-3.9c2.7-3.4,4.3-6.6,4.6-9.6c0.1-1.5,0.8-5.5,2.1-12c0.9-4.9,1.4-8.7,1.4-11.5
		c-2.7,0.2-4.5,2.2-5.3,5.8l-2.2,9.1c-3.8-5-8.7-7.3-14.9-6.8c0.2-0.2,0.5-0.8,0.7-1.7c0.1-0.8,0.5-1.2,1-1.2
		c0.3,0.3,5,1.7,13.8,3.9c-0.2,0.9-1.2-0.6-2.9-4.6c-1.4-5.2-0.6-10.2,2.2-14.9c-0.5-0.6-0.7-1.7-0.7-3.4c0-1.4-0.5-2.3-1.5-2.9
		c-0.7,0.3-1.3,1.6-1.7,3.8c-0.5,2.3-0.5,3.1,0,2.6c0-0.5,0.3-1,1-1.7c0.7-0.6,1.1-0.6,1.2,0c-0.3,0.3-2,2.2-5,5.6
		c-2.3,2.4-4,4.4-5.1,6.2c-3.5,5.1-4.4,9.8-2.6,14c2.5-0.9,5.1-0.9,7.7,0.2c3.4,1.4,5.3,2.1,5.6,2.1c-1.1,1.6-2.7,1.6-4.6,0
		c0,0.7,0.3,2.1,1,4.1c0.5,1.6,0.5,2.7,0,3.4c-1.6-1.4-2.5-4.2-2.7-8.5c-1.4-0.6-2.7-0.4-4.1,0.5c-1,0.8-1.8,1.9-2.2,3.4
		c-0.8-0.7-1.5-0.7-2.1,0c-0.8,0.8-1.5,1.2-2.1,1.2c-0.3-0.8-0.5-2.1-0.3-3.8c0.2-1.6,0.2-2.6-0.2-3.1c-1.3,2.4-1.4,5.3-0.3,8.7
		c1.4,4.7,2.1,7.7,2.1,9.1c-3.6,2.7-5.9,7-6.7,12.6c-0.9,6.3,0.7,10.8,5,13.7c1.4-1,3.1-3.4,5.3-7.2c2.1-3.4,3.7-5.4,5-6
		c-0.1,2.7-0.1,7.3,0.2,13.8c0.1,6.3,0.1,11-0.2,14.2c-0.8,11.5-2.5,18-5.1,19.5c-4.2-17.7-6.3-26.4-6.3-26.3c-0.2-0.9-1.9-5-5-12.3
		c-2.4-5.6-3.6-9.5-3.6-11.8c0-2.3,0.9-4,2.7-5.3c3.2-2.3,5-3.6,5.3-3.9c1.9-2.1,1.7-4.4-0.7-7.2c-3-3.4-4.4-5.4-4.4-6
		c-3,2.1-5.6,5.5-8,10.4c-0.5,0.1-1.2,0.4-2.2,0.9c-0.9,0.5-1.6,0.8-2.1,1c-1.6,0.9-2.5,2.2-2.6,3.8c2.8,0.2,4,0.1,3.4-0.5
		c-0.5,0.3-0.7,1-0.7,1.9c0.1,1,0.5,1.5,1.2,1.5c1.3-2.8,2.8-4.2,4.6-4.1c-0.1,0.2-0.3,0.5-0.5,0.9c-0.2,0.5-0.3,0.7-0.3,0.9
		c-0.2,0.7,0.1,1.1,0.9,1.2c0.9-1.9,2.2-2.9,3.9-2.9c-0.3,1-1.2,2.5-2.6,4.4c-1.3,1.8-2.1,3.4-2.6,4.8c0.1-0.1,0.1,1.2-0.2,3.9
		c-0.1,1.6-0.8,2.6-2.1,2.9v-6.8c-0.9,0-1.6,0.5-2.1,1.4c-0.7,1.3-1.1,1.9-1.4,2.1c-0.5-0.3-0.7-1.2-0.9-2.6
		c-0.2-1.3-0.5-2.1-0.9-2.6c-2.8,3.6-3.7,9.9-2.6,18.6c1.4,11.5,2,17.7,1.9,18.6c-0.1,0.8-0.5,2.1-1.2,3.9c-0.7,1.7-1,3.1-1,4.1
		c-0.3,6.3,1.4,11.1,5.3,14.4c4.1,3.4,9,3.8,14.7,1c-0.2-0.5-0.6-1.2-1.2-2.2c-0.8-1.1-1.3-2-1.5-2.6c-1-2.1-1.3-3.9-0.7-5.5
		c3.5,8.7,8.3,12.3,14.4,10.9C108.6,239.3,111.5,230.5,112.4,214.1z M94.1,166.1c0,2.3-1.1,3.4-3.4,3.4c-0.5-0.2-1-0.6-1.5-1
		c-0.6-0.5-1-0.7-1.2-0.9c-1-0.6-2.2-0.5-3.6,0.2c0.6-2.2,1.9-3.4,4.1-3.6C90.4,164,92.3,164.6,94.1,166.1z M112.4,166.6
		c1.3,2.5,0.3,4.8-2.9,6.8c-5.7,3.5-8.4,5.1-8,4.6c0.1-0.2,0.8-1.7,2.1-4.3c0.8-1.5,0.9-3.3,0.3-5.5c0.3,0.2,1,0.9,2.1,2.1
		c0.8,0.8,1.7,1.3,2.6,1.4C110.5,171.2,111.8,169.4,112.4,166.6z M111.9,141.5c-0.7,0.5-1.8,0.4-3.2-0.2c-1.8-0.7-3-1-3.6-1
		c-0.1,0.3,1,0.2,3.4-0.5c0.1,0.9,1.3-1.2,3.4-6.3c0.1,0.2-0.3,1.5-1.2,3.9C109.8,139.3,110.2,140.7,111.9,141.5z M106.1,111.6
		c2.5-0.2,4.7-1.9,6.5-5c2.1-3.3,3.9-5.2,5.6-5.8c-0.3,0.2-0.6,0.7-0.7,1.5c-0.1,0.8,0.1,1.2,0.7,1.2c2.2-1.1,4-3,5.5-5.5
		c1.6-2.6,2.2-5.2,1.9-7.7c-0.6,2.1-1.6,3.8-3.1,5.3c-1.6,1.7-3.2,2.5-5,2.2c4.7-4.4,6.8-7.7,6.3-9.7c-2.4,2.8-4.3,4.4-5.6,4.6
		c0.3-0.6,1-1.4,1.9-2.6c1.1-1.3,1.9-2.2,2.2-2.7c1.7-2.3,2.2-4,1.5-5.1c-0.1,0.3-2.8,3.6-8,9.7c-3.3,3.9-4.6,8.5-3.9,13.8
		C107.9,106.5,105.9,108.4,106.1,111.6z M114.1,112.2c0.3,0.2,1.1,0.5,2.2,0.7c1,0.1,1.7,0.5,1.9,1c0.6,0.3,0.5,0.9-0.2,1.7
		c-0.6,0.8-0.5,1.4,0.2,1.7c2.1-1.4,2.1-3.5,0-6.3c1.6-0.2,2.7-1,3.4-2.2c-1.1-0.8-0.7-1.8,1.4-3.1c2.2-1.5,2.8-2.8,2.1-3.9
		c0.2-0.2-1.9,1.2-6.5,4.3C116,107.7,114.5,109.7,114.1,112.2z M121.6,225.6c13-24.3,19.7-36.6,20-37.1c-3.4,26.5-5.1,40.1-5.1,40.7
		c3.9-21.2,6.9-35.9,9.2-44.3v36.2c0.7-3.2,1.1-8.3,1.4-15.4c0.3-7.4,0.8-12.6,1.4-15.6c2.4,11.5,4.2,19.9,5.3,25.1
		c0.1,1.7,0.2,2.1,0.3,1c0.1-0.9,0.2-1.8,0.2-2.7c-0.1-1.9-0.7-7-1.9-15.2c-1-6.8-1.4-11.7-1-14.5c5.4,16.4,8.6,25.9,9.7,28.5
		c-3.8-18.9-5.6-28.7-5.6-29.2c1.5,2.3,3.5,5.6,6,10.1c2.6,4.7,4.6,8,6,10.1c-0.6-1.8-2.1-5.5-4.6-11.1c-2.1-4.4-3.2-8-3.4-10.8
		c1,1.9,3.7,5.6,8,10.9c-0.5-1.6-1.7-4-3.8-7.2c-1.9-2.8-3-5-3.1-6.5c6.2,4.2,8.8,6.3,8,6.2c-0.5-0.6-1.9-2-4.3-4.3
		c-1.8-1.7-3.1-3.3-3.8-4.8c3-0.3,4.1,0.1,3.4,1.2c-1.8-0.6-3.2-2.2-4.1-5c-0.2-0.8-0.5-1.9-0.9-3.2s-0.6-2.3-0.9-2.7
		c-1.5,0.6-3.2,2.5-5.1,5.6c-1.7,3-3.4,4.5-5.1,4.6c-2.1,0.2-4-0.9-5.8-3.2c-0.2-0.5-1.5-2.8-3.9-7c-0.6-0.2-1.4-0.2-2.4,0.2
		c-0.9,0.3-1.4,0.3-1.5-0.2c1.4-1.6,2.5-2,3.4-1.2c-0.7-5,0.8-7.9,4.4-8.5c0.7,0.2,1.5,0.7,2.6,1.5c1,0.7,1.9,1.1,2.7,1.4
		c1.3-1.9,3.4-2.3,6.3-1.2c2.8,1,3.8,2.6,2.7,4.6c-0.9,0.1-1.6-0.3-2.1-1.4c-0.6-1.3-1-1.9-1.4-2.1c-1.5-0.3-2.8-0.2-4.1,0.3
		c-1.6,0.8-2.7,1.3-3.2,1.4c-0.6-0.2-1.2-0.8-1.9-1.7c-0.6-0.9-1.3-1.3-2.2-1.2c-1,0.2-1.9,1-2.6,2.2c-0.7,1.3-0.6,2.4,0.3,3.4
		c-0.1-0.5,0.3-0.7,1.4-0.7c1.1,0,1.6,0.2,1.4,0.7c0.3,0.9,0.1,1.3-0.9,1.2c-0.9,0-1.4,0.2-1.4,0.7c1.1,0.7,2.1,0.5,2.7-0.5
		c1.4-1.7,2-2.5,1.9-2.4c0,0.3,0.5,0.6,1.5,0.7c1,0,1.5,0.3,1.4,1c-0.1,0.8-0.6,1.1-1.4,0.9c-0.8-0.2-1.1,0.1-1,0.9
		c3,0.3,4.7-0.1,5.1-1.2c-1.3-0.1-1.8-0.5-1.7-1.2c0.6-0.6,1.2-0.6,1.9,0c0.8,0.6,1.5,0.8,2.2,0.7c0-0.2,0-0.5,0-0.9
		c0-0.5,0-0.7,0-0.9c0-0.7,0.4-0.9,1.2-0.7c0.1,0.5,0.5,0.8,1,1c0.7,0.3,1.1,0.6,1.2,0.7c-1.9,2.1-2.9,2.8-2.9,2.4
		c1.6,0.1,2.8-0.5,3.6-1.9c1-1.9,1.8-3,2.2-3.2c8.1-2.8,12.1-4.2,12-4.1c-0.9,0.2-2.2,0.6-3.8,1.2c-1.6,0.6-2.8,1-3.8,1.2
		c0.6-0.8,2.2-1.9,4.8-3.4c2.3-1.3,3.4-2.4,3.2-3.6c-2.7,2.1-6,3.4-9.7,4.1c0.7-1,2.6-3,5.6-5.8c2.5-2.3,3.9-4.2,4.1-5.6
		c-4.9,4.3-8.5,7-10.8,8c1.4-1.9,3.4-4.4,6.2-7.5c3.1-3.4,5.2-5.9,6.3-7.3c-1.5,0.7-3.4,2.2-5.8,4.6c-2.4,2.2-4.4,3.6-6.2,4.4
		c0.9-1.6,2.3-3.7,4.3-6.3c2.1-2.7,3.5-4.8,4.3-6.3c-1.5,0.8-3.6,2.7-6.3,5.6c-2.5,2.7-4.4,4.3-5.6,4.8c6.2-10.3,9.2-15.2,9.2-14.9
		c-0.8,0.7-2.5,2.7-5.1,6c-2.1,2.6-4,4.4-5.8,5.5c0,0.1,1-1.4,3.1-4.6c1.3-1.8,1.8-3.4,1.5-4.6c-2.1,4.1-4.2,7-6.3,8.5
		c0.1-0.6,0.7-2,1.7-4.3c0.9-1.8,1.3-3.1,1.2-3.8c-0.5,0.7-1.3,2.2-2.6,4.4c-0.9,1.9-1.8,3.4-2.7,4.3c0-1.1,0.5-2.9,1.4-5.3
		c0.8-1.9,1-3.4,0.5-4.4c-1.3,3.8-2.6,6-4.1,6.8c-0.9-5.5-1.1-8-0.5-7.5c-0.2,2.8-0.8,5.2-1.7,7c-0.6-0.6-1-1.7-1.2-3.4
		c-0.3-1.8-0.7-3-1.2-3.6c0,0.2,0.1,1.8,0.2,4.8c0,1.9-0.4,3-1.2,3.2c-0.1-0.6-0.9-2.4-2.4-5.6c-0.1,0.7,0.2,2,0.9,3.9
		c0.5,1.5,0.3,2.6-0.3,3.4c-0.2-0.3-0.7-1.4-1.5-3.2c-0.6-1.4-1.2-2.4-1.9-3.1c0,0.8,0.4,2.1,1.2,3.9c0.7,1.6,0.7,2.8,0,3.6
		c-2.3-4.2-4.8-7.9-7.5-10.9c0.5,1.4,1.4,3.4,2.7,6c1.3,2.5,2.1,4.6,2.6,6.2c-0.9-0.5-2.1-1.8-3.6-4.1c-1.3-1.9-2.4-2.8-3.4-2.7
		c2.5,2.5,4.4,5.8,5.8,9.7c-1.6-1.4-4.2-4.2-7.9-8.4c-3.2-3.8-5.8-6.2-7.7-7.2c0.8,1.1,3.2,4.2,7.2,9.2c2.8,3.9,5.1,7.1,6.7,9.7
		c-1.3-0.5-2.9-1.9-5-4.3c-1.9-2.2-3.5-3.2-4.8-3.2c0.2,2.6,1.7,4.9,4.3,6.8c3.1,2.4,4.9,4.3,5.5,5.8c-5.4-4.2-9-6.7-10.9-7.5
		c0.7,1.6,2.2,3.3,4.4,5.1c2.5,1.9,4.1,3.5,4.8,4.6c-0.9-0.3-2.6-1.4-5-3.1c-1.9-1.4-3.8-2.2-5.5-2.6c0.6,1.1,2.2,2.5,4.8,3.9
		c2.4,1.5,3.7,2.6,3.9,3.4c-1-0.2-2.5-0.9-4.4-1.9c-1.8-0.9-3.4-1.4-4.8-1.5c0.8,1.3,2.3,2.4,4.6,3.4c2.7,1.3,4.4,2.2,5.1,2.9
		c-0.9,0.2-2.8-0.1-5.6-0.9c-2.2-0.7-3.5-0.6-4.1,0.3c0.7,0.5,2.2,1,4.6,1.7c2.1,0.6,3.4,1.3,3.9,2.2c-1.6-0.8-4.4-0.6-8.5,0.7
		c5.1,1.3,7.6,1.8,7.5,1.7l-8,2.2c1,0.2,2.7,0.1,5-0.3c1.9-0.3,3.3-0.2,4.1,0.3c-5.7,2.1-9.7,3.8-12,5.1c1,0,3.3-0.5,6.8-1.4
		c2.7-0.7,4.8-0.8,6.3-0.3c-5.2,3-10.2,6-14.9,9.2c1.5-0.2,3.9-1,7.2-2.4c3.1-1.1,5.2-1.7,6.5-1.7c-0.9,1.3-3.2,3.6-6.8,7
		c-3,2.8-4.8,5.1-5.6,6.8c7.9-6.7,13.2-10.9,16.1-12.6c-1.3,1.9-4,5.4-8.4,10.4c-3.8,4.3-6.2,7.7-7.2,10.3
		c6.6-6.6,11.2-10.7,13.7-12.1c-1,2.3-3.6,6.8-7.9,13.7c-3.5,5.7-5.9,10.1-7,13.3c10.3-15.5,17.5-26.2,21.9-32.1
		c-1.6,4.4-4.7,11.7-9.2,21.9c-4.2,9.1-6.3,13.7-6.3,13.7S123.1,220.7,121.6,225.6z M119.2,72.6c0.3,1.7,0.2,3.8-0.5,6.2
		c-0.7,2.3-0.9,3.9-0.5,4.8c2.6,0.2,4.2-1,4.8-3.6c0.1-0.8,0.3-2.1,0.5-3.8c0.1-1.6,0.2-2.8,0.3-3.6c0.2-0.9,1.3-3.2,3.2-6.8
		c1.4-2.6,1.8-4.7,1.4-6.3C127.9,62.4,124.8,66.8,119.2,72.6z M139.4,33.1c-7,4.6-12.9,15.8-17.8,33.8c6.6-9.1,10.6-15.2,12-18.3
		l-0.7,0.9c-0.3,0.5-0.6,0.8-0.9,1c-0.8,0.8-1.4,0.9-1.9,0.3c0.2-0.8,1.1-1.9,2.7-3.4c1.5-1.3,2.1-2.2,1.9-2.9
		c-0.1,0.1-0.4,0.3-0.9,0.7c-0.5,0.5-0.9,0.8-1.2,1c-0.9,0.6-1.6,0.6-2.1,0c0.7-1.4,2.1-2.6,4.3-3.6c2.7-1.3,4.4-2.2,5-2.7
		c0.2,0.1-2.3,0.7-7.5,1.7c0.5-1.1,1.8-2.6,3.9-4.4c2.1-1.7,3.1-2.6,3.1-2.6S139.4,34.1,139.4,33.1z M163.3,89.3
		c-0.5-1.7,0.2-3.9,2.1-6.7c2.5-3.5,3.9-5.9,4.3-7.2c0.6-1.4,1-3.8,1.4-7.2c0.6-4.3,0.9-6.9,1-7.7c1.4-7.9-0.2-13.4-4.6-16.6
		c-0.6-0.3-2.3-0.8-5.1-1.4c-2.2-0.5-3.5-1.5-4.1-3.2c-1.3,0.3-4.6,0.8-10.1,1.4c-4.1,0.5-6.8,1.1-8.2,2.1c-0.7,0.5-1.8,3.1-3.4,8
		c-4.2,13-6.4,19-6.5,17.9c-0.2-0.6-0.7-0.8-1.5-0.7c-0.1,0.6,0,1.3,0.3,2.2c0.2,0.7,0.1,1.3-0.3,1.7c-0.3,0-0.7-0.1-1.2-0.2
		c-0.3-0.2-0.7-0.3-1-0.3c-0.3,1.9-0.2,3.8,0.5,5.6h3.4c0.8,2.4,1,3.5,0.5,3.4c0.8,0.3,1.4-0.1,1.7-1.2c0.2-1.1,0.1-2.2-0.5-3.2
		c-1.3-0.3-1.8-0.3-1.7,0c0.8-3.6,1-5.4,0.5-5.3c2.4,5.8,3.6,9.8,3.6,12c-0.1,0.6-0.1,1.2,0,1.9c0-0.6,0-1.2,0-1.9
		c0.2-0.9,0.6-1.7,1-2.2c0.5,1,0.9,1.5,1.2,1.5l1.7-0.9c-0.2,1.4-0.5,2.3-0.9,2.7c-0.6,0.7-1,0.3-1.4-1c0.8,3.2,1,4.7,0.5,4.6
		c0.3-0.1,0.5-0.7,0.5-1.9c0-0.9,0.4-1.3,1.2-1c0.6,0.1,0.7,1,0.5,2.6c-0.1,1.6,0.1,2.5,0.7,2.6c0.2-3,1.8-6,4.6-9.2
		c3.3,0.3,5.4-0.2,6.2-1.7l-1.2-0.5c-0.5-0.1-0.6-0.5-0.5-1.2c0.7,0.1,1.9,0.7,3.8,1.7c1.3,0.7,2.5,0.5,3.8-0.5
		c1.3,4.4,1.9,6.7,1.9,6.7S159.7,86.5,163.3,89.3z M130,68.8c0.1,0.2,0.2,0.6,0.2,1C130.2,69.5,130.1,69.2,130,68.8z M162.3,255.5
		c-7.9,3.9-17,5-27.5,3.4c-0.8,1.1,3.2,0.6,12-1.7c1.3-0.3,2.6-1.7,3.9-4.1c1.5-2.4,2.8-3.7,4.1-3.9
		C158.4,248.5,160.9,250.6,162.3,255.5z M154.8,31.9c-2.7-2.6-5.9-2.8-9.6-0.5c-2.7,1.8-5.1,4.3-7,7.5c5.7-2.1,11.2-3.4,16.6-4.1
		c-1.1-0.7-3.1-0.7-5.8-0.2c-2.8,0.7-4.5,1-5,0.9C145.9,32.2,149.5,31,154.8,31.9z M138.7,81.8c0.6,0.2,1.1,0.2,1.5-0.2
		c0.5-0.3,0.9-0.5,1.4-0.3c-0.5,1.7-1.2,2.7-2.2,2.9c0-0.3-0.1-0.7-0.3-1.2C138.8,82.6,138.7,82.2,138.7,81.8z M159.4,87.6
		c-3.3,1-6,1.6-8,1.7c-0.7,2.1-0.7,3,0,2.7c-0.7-0.7-1.6-0.9-2.7-0.7c-1,0.2-1.8-0.1-2.4-1c-0.6,0.7-0.7,1.7-0.3,2.9
		c0.3,1.7,0.5,2.8,0.3,3.4c-0.5-0.5-0.9-0.5-1.2-0.2c-0.6,0.6-1.1,0.9-1.7,0.9c-0.1-1,0.3-2.5,1.2-4.4c0.8-1.7,0.8-3.1,0-4.3
		c0,0.2,0,0.5,0,0.9c0,0.5,0,0.8,0,1c-0.1,0.6-0.5,0.7-1.2,0.5c0-1.8,0.6-3,1.7-3.4c1.6,1.3,3,1.8,4.1,1.7c-0.1-0.7-0.6-1.3-1.5-1.9
		c-1-0.6-1.5-1.3-1.4-2.2c-1.8-0.1-3,0.1-3.4,0.7c-0.2,0-0.3,0.3-0.2,1c0.1,0.7-0.4,0.9-1.5,0.7c-0.1,0.9,0,1.9,0.3,2.9
		c0.5,1.4,0.7,2.3,0.7,2.7c-0.1,0-0.6,0.3-1.4,0.9c-0.5,0.3-0.7,0.2-0.9-0.3c0.3-0.2,0.6-0.9,0.7-2.1c0.1-1.1-0.1-1.8-0.7-1.9
		c0,0.5-0.1,1.1-0.3,1.9c-0.3,0.9-0.6,1.5-0.7,1.7c-0.2,1.4,0.1,2.5,1,3.2c0.3-0.8,0.9-1.4,1.7-1.7c0.1,0.1,0.1,1.8,0,5.1
		c2.4-0.9,3.9-0.9,4.6,0c0.6-0.1,0.9-0.9,1-2.4c0.1-1.5,0.3-2.4,0.7-2.7c-0.1-0.1,1.8-0.3,5.8-0.5c-0.5-1.3-0.2-2,0.9-2.2
		c1.6-0.3,2.4-0.6,2.6-0.7c-0.6-1.1-0.6-1.8-0.2-2.1c0.1,0,0.9,0.1,2.4,0.3V87.6z M139.4,56c1.1-1.9,3.4-2.6,6.7-2.1
		c3.3,0.6,5.2,1.8,5.8,3.8c-1.5,0.2-3.6-0.2-6.3-1.4C143.3,55.3,141.2,55.2,139.4,56z M139.4,60.1c1-2.2,3.2-2.9,6.5-2.2
		c3.3,0.7,4.7,2.3,4.3,5c-0.3,0.7-1.1,0.7-2.2,0c-0.8-0.6-1.2-0.2-1.2,1.2c0.1,0-1.2-0.2-3.9-0.5c-0.1-0.3-0.1-0.7,0.2-1
		c0.2-0.2,0.3-0.5,0.3-0.7c-0.3-0.3-0.9-0.4-1.5-0.2c-0.9,0.2-1.7,0.3-2.4,0.2C140.2,60.8,140.2,60.2,139.4,60.1z M153.1,167.3
		c-0.2-0.1-0.5-0.3-0.9-0.7s-0.6-0.5-0.9-0.5c-0.6,0.8-1.4,1.3-2.4,1.4c-1.3,0.2-2.2,0.5-2.7,0.9c-0.6-0.8-2.5-1.1-5.8-1
		c2.4,4.9,5.1,7.3,8,7.3c0.1-1.4,0.8-2.7,2.1-3.9C152,169.2,152.8,168.1,153.1,167.3z M144,154.6c-2.2,0.5-3.2-0.7-3.2-3.6
		c0-2.6,0.7-4.7,2.1-6.2c0.7,0.9,0.7,2.1,0.2,3.4c-0.8,1.7-1.1,3-0.9,3.9c1.5-0.9,2-1.3,1.5-1.2c0.3-0.1,1,0.3,2.1,1.2
		c-0.1-0.6-0.5-1.4-1.2-2.6c-0.7-0.9-0.9-1.9-0.5-3.1c0.7-0.1,1.1,0.2,1.4,0.9c0.2,0.9,0.5,1.4,0.9,1.4c0.6-0.2,0.7-0.9,0.3-1.9
		c-0.5-1-0.4-1.7,0.2-2.1c-0.1-0.9-0.9-1.3-2.2-1.2c0-0.9,0.3-1.4,1-1.4c0.7-0.1,0.9-0.8,0.7-2.1c0.9-0.1,1.7,0.3,2.2,1.4
		c0.6,0.9,1.1,1.4,1.7,1.5c0,0.3-0.3,0.6-1,0.7c-0.7,0-1.1,0.1-1.2,0.3c0,0.6,0.2,1.3,0.7,2.1c0.5,0.6,0.6,1.3,0.5,2.1
		c0.8-0.8,1.4-1.9,1.7-3.4c2.2,0,3.3,0,3.4,0c-0.1,4.8-0.4,7.8-0.9,9.1c-1,2.7-3.4,3.9-7.2,3.6c-1.3-2.1-2-3.6-2.2-4.6
		c-0.5,0-0.7,0.3-0.7,0.9C143.3,154.3,143.5,154.6,144,154.6z M156,36.5c-6.5-0.2-11.1,0.9-13.8,3.4C145.9,40,150.5,38.8,156,36.5z
		 M202.3,237.2c4.6,1.4,8.8,1.1,12.6-0.7c0.9,2.5,1.5,8.9,1.9,19.1c0.3,8.3,1.8,13.8,4.4,16.4h-8c-0.8-16.9-1.9-26.6-3.4-29.2
		c0,0.1,0.2,4.8,0.5,14c0.3,6.6,0.2,11.7-0.5,15.2H192c-0.1-3.6,1.5-7.5,5-11.6c4.1-5,6.4-8.6,7-10.8c-1.3-0.2-2.6,0.3-3.9,1.7
		c-0.3,0.3-0.9,1-1.7,2.1c-0.7,0.9-1.3,1.6-1.7,2.1c-6.8,6.6-10.1,9.6-9.7,9.1c-0.7,2.7-1.4,4.5-2.2,5.3c-1.1,0.6-2.6,0.7-4.3,0.5
		c-1.6-0.3-2.7-0.9-3.2-1.7c1.1-1.8,3.2-4.6,6.2-8.2c3-3.6,5.1-6.5,6.5-8.7c4.6-7.2,6.1-14.5,4.6-22c-2.2,2.5-7,10-14.5,22.6
		c-5.6,9.5-11.3,16.1-17.1,19.8h-20.7c2.3-1.8,5.6-3.8,9.9-6c4.6-2.2,7.7-4,9.6-5.5c4.9-3.6,11.2-13.8,19-30.4
		c6.2-13.2,9.4-26.4,9.7-39.5c0.6,0.2,3.2,0.4,8,0.5C197,214.8,198.3,230.1,202.3,237.2z M146.2,59.4c-0.2,0-0.1,0,0.5,0
		c-1.4,0.1-2.8,0.2-4.3,0.2C142.2,59.6,143.5,59.6,146.2,59.4z M152.5,81.3c-0.2,0.7-1.1,1.1-2.6,1.4c-1.7,0.2-2.8,0.5-3.2,0.9
		c0-0.2,0.1-0.5,0.3-0.7c0.2-0.3,0.3-0.7,0.3-1c-0.5,0.2-1.4,0.3-2.7,0.2c-0.8,0-1.3,0.5-1.4,1.5c7.4,0.1,12.4,1.3,14.9,3.4
		c-0.2-1.1-1.1-2.2-2.6-3.1C153.9,82.9,152.9,82,152.5,81.3z M148.4,64.7c-0.1,0.8-0.9,1.3-2.2,1.5c-1.3,0.2-1.8-0.3-1.7-1.5H148.4z
		 M150.1,148.3c-0.1,0.7-0.7,1.6-1.9,2.7c-1,0.9-1.7,2.3-2.1,4.1c0.8,0.1,1.4-0.3,1.7-1.2c0.3-0.9,0.9-1.3,1.7-1
		c0,0.3-0.1,0.7-0.3,1.2c-0.2,0.3-0.3,0.7-0.2,1c1.4-0.1,2.2-1.1,2.6-3.1C152.1,150.1,151.6,148.9,150.1,148.3z M156.5,99.1
		c0.8-2.6,1.2-3.8,1.2-3.4c-2.5,0.2-4,0.2-4.6,0c-0.8,2.2-1.8,3.3-2.9,3.4c0-0.2,0-0.5,0-0.9c0.1-0.5,0.2-0.8,0.2-1
		c-0.1-0.6-0.5-0.7-1.2-0.5c0.1,1.1-0.1,2.1-0.7,2.9c1.5,0.5,2.1,1.4,1.7,2.9c0.5-0.1,1.5-1.2,3.1-3.2
		C154.2,97.9,155.3,97.8,156.5,99.1z M158.2,62.3c1.8-0.1,5.3,0.7,10.4,2.4v2.7c-0.9,0.2-1.6,0.1-2.1-0.5c-0.7-0.7-1.1-1.1-1.4-1.2
		c1,1.4,0.6,2.1-1.2,2.2c-1.8,0.1-2.6-0.6-2.4-2.2c-2.5-0.2-4,1-4.6,3.8c-0.1,0.6-0.3,1.8-0.5,3.6c-0.1,1.6-0.3,2.8-0.5,3.6
		C154.4,70.9,155.1,66.1,158.2,62.3z M169.1,37.2c-2.8-3.6-6.7-5.6-11.5-5.8c0.5,1.6,1.2,4.3,2.2,8c7.6,0.5,12.4,3.9,14.4,10.3
		c-0.3-5.9-3.8-9.9-10.3-12c0.6-0.5,1.5-0.6,2.7-0.3C167.9,37.7,168.7,37.7,169.1,37.2z M171.3,64.1c-0.5-1.1-2.3-2-5.5-2.6
		c-3.3-0.6-5.1-1-5.3-1.4c2.3-0.9,4.6-1,6.8-0.2C169.7,60.8,171,62.1,171.3,64.1z M162.8,69.2c0.1-0.5,0.9-0.7,2.4-0.7
		c1.4,0,1.9,0.5,1.7,1.4C164.5,69.9,163.1,69.6,162.8,69.2z M166.9,100.1c-0.1,1,1.4-0.3,4.4-3.9c0.3-3.9-0.4-6.4-2.2-7.5
		c1,2.1,0.8,4.2-0.7,6.5C167.1,97.6,166.6,99.2,166.9,100.1z M168.6,80.6c0,0.6-0.2,1.3-0.7,2.1c-0.5,0.6-0.5,1.1,0,1.5
		c1,0.3,1.7-0.2,1.9-1.5C170,81.2,169.6,80.5,168.6,80.6z M170.8,100.8c3.8-0.7,6.3-3.1,7.7-7.2c1.5-4.1,0.6-7.5-2.6-10.1
		c-0.1,1.5-0.3,2.3-0.5,2.4c-0.1-0.2-0.3-1.4-0.5-3.6c-0.1-1.5-0.7-2.2-1.9-2.2c-0.1,0.7,0,1.4,0.3,2.1c0.3,0.8,0.5,1.5,0.3,2.1
		c-0.6,0.1-1.1-0.5-1.5-1.9c-0.5-1-0.9-1.2-1.4-0.5c2.3,6.4,3.4,10.7,3.4,13c-0.1,0.2-0.1,0.5,0,0.9c0-0.3,0-0.6,0-0.9
		c0.2-0.5,0.5-0.7,0.7-0.9c0.3-0.1,0.5,0.1,0.5,0.5c-0.1,1.3-1.8,2.8-5.1,4.6c-2.7,1.5-3.3,3.2-1.7,5.1
		C168.7,102.5,169.5,101.4,170.8,100.8z M173,109.3c-0.2-1.4,0.4-2.9,1.9-4.6c1.9-2.2,3.1-3.7,3.4-4.6c-0.9,0.1-1.8,0.7-2.7,1.9
		c-1,1-2.1,1.5-3.1,1.5c0,0.1,1.1-1,3.4-3.4c-2.4-0.3-4.2,0.9-5.5,3.8c-1,2.7-1.1,4.7-0.2,6c-0.2-0.6-0.2-1.1,0.2-1.7
		c0.5-0.7,0.7-0.7,0.9,0c-0.6,0.1-0.7,0.7-0.5,1.7c0.2,0.9,0.6,1.3,1.2,1.2C171.9,108.4,172.2,107.9,173,109.3z M170.3,230.2
		c4.2-12.6,9-20.6,14.4-23.9C185.7,216.5,180.9,224.5,170.3,230.2z M175.4,61.8c1.6-3.9,2.3-6.8,2.2-8.7c-0.6-0.6-2.1-1.3-4.6-2.2
		c1.6,0.8,2.5,2.5,2.7,5c0,0.8-0.1,1.9-0.2,3.2C175.5,60.7,175.4,61.6,175.4,61.8z M173.7,67c-0.2,6.3,0.5,10.1,2.2,11.5
		c-0.5-0.9-0.7-2.9-0.9-6C174.9,69.7,174.4,67.9,173.7,67z M183.5,109.3c0.2-1.6-0.2-2.8-1.2-3.8c-0.9-0.7-2.1-0.9-3.6-0.7
		c-1.5,0.1-2.6,0.6-3.4,1.4c-0.9,0.9-1,1.9-0.3,3.1c0.7-1.3,1.4-1.8,2.2-1.7c-0.8,0.8-1.2,1.8-1.2,2.9c0.1,1-0.2,1.9-1,2.7
		c1,1.1,2.3,1.9,3.9,2.4c0.1-0.7-0.2-1.3-0.9-1.7c-0.7-0.5-1-1-0.9-1.7c0.5-0.1,0.9,0,1.4,0.3c0.5,0.3,1,0.4,1.5,0.2
		c0.1-0.7-0.1-1.1-0.7-1.4c-0.7-0.3-1-0.6-1-0.9c0-0.1,0.6-0.3,1.9-0.7c0.8-0.2,1.1-0.8,0.9-1.7c-1.8,0.1-2.7-0.2-2.7-1h3.4
		C182.1,108.7,182.7,109.5,183.5,109.3z M209.8,186.8c-0.5-0.2-0.3,1.3,0.5,4.4c-0.8-0.1-7.1-0.8-19-2.1c-7.7-0.8-13-2.6-15.9-5.3
		c1,0.1,4.4,0.9,10.3,2.2c0.7,0,1.3-0.3,1.7-1c0.6-0.8,1.1-1.2,1.7-1.2c7.5,2.6,10.9,3.8,10.1,3.6
		C203.5,188.6,207.1,188.4,209.8,186.8z M180.1,188.5c0.2,0,2.5,0.6,6.8,1.7c-5.5,8-8.7,12.4-9.7,13.2
		C179.2,197.5,180.2,192.6,180.1,188.5z M191.5,178c5.1-0.1,7.8,0.9,8,2.9C195.1,180.4,192.4,179.4,191.5,178z M204,233.1
		c0-21.5-0.7-35.5-2.2-41.9c1.3,0,3.9,1,8,2.9C208.3,215.4,206.4,228.4,204,233.1z M219,211.9c-1.5-1.6-2.1-4.1-1.7-7.5
		c0.7-5.9,1-8.8,1-8.5c-0.1-5.4-1-10.3-2.6-14.9c-1.9-5.5-4.5-8.9-7.7-10.3c0.1,0.9,0.7,1.9,1.9,3.1c1.5,1.3,2.4,2.3,2.7,3.2
		c1.8,4.3,2.4,12.8,1.7,25.5c-0.8,13.6-0.6,22.6,0.5,27.2c-2.1-1.7-3.1-4.7-3.2-8.9c0-1.4,0.1-3.3,0.2-5.8c0.1-2.8,0.2-4.8,0.2-6
		c0-18-0.6-28.3-1.7-30.9c-0.6-1.3-1.7-2.6-3.2-3.9c-1.5-1.4-2.5-2.7-3.1-4.1c2.7-1.9,5-2.1,6.8-0.5c1.3,1,2.8,3.5,4.8,7.5
		c3.5,7.6,5.2,11.1,5.1,10.3C222.9,197.1,222.3,205.3,219,211.9z M208.1,143.7c-1.6,3.6-2.5,7.2-2.7,10.6c-0.2,4.8,1.3,7.6,4.4,8.4
		c0.8-3.6,1-5.4,0.5-5.1c0.3,0.3,0.8,1.6,1.4,3.8c0.5,1.7,1.1,2.7,2.1,3.1C216.3,157.8,214.5,150.9,208.1,143.7z M233.2,185.6
		c-2.1,0.5-3.7-0.6-5-3.1c-0.5-1-1.3-3.5-2.4-7.3c-3.6-1-6.7-2.5-9.2-4.4c3.3-1.7,6.9-0.4,10.9,3.9
		C231.3,178.6,233.2,182.3,233.2,185.6z M240.7,232.6v2.2c-0.1,1.5-0.9,2.8-2.2,4.1c-1.6,1.6-2.6,2.7-2.9,3.4c-1,2.2-1.4,6-1.2,11.6
		c0.1,5.6-0.5,9.7-1.7,12.3c-1.4-0.5-1.9-2.4-1.7-6c0.2-3.6-0.2-5.8-1.2-6.5c-1,1.3-1.8,3.6-2.4,7c-0.7,4.2-1.2,6.8-1.5,7.9
		c-6.2-1.7-7.9-5.2-5.3-10.6c0.3-0.7,3.4-4.8,9.2-12.3c6-7.7,9.5-12.1,10.4-13.2H240.7z M235.1,198.2c0.2,2.2,0.5,6.5,0.7,13
		c0.1,5.6,0.5,9.8,1,12.6c-1.9-5.2-4-12.6-6.3-22.2c-2.8-12-4.8-19.6-5.8-22.9c1.7,1.5,3.4,4.8,5,9.9
		C231.2,193.5,233,196.7,235.1,198.2z"/>
</g>
</svg>
