<?xml version="1.0" encoding="utf-8"?>
<!-- Generator: Adobe Illustrator 21.1.0, SVG Export Plug-In . SVG Version: 6.00 Build 0)  -->
<svg version="1.1" id="Layer_1" xmlns="http://www.w3.org/2000/svg" xmlns:xlink="http://www.w3.org/1999/xlink" x="0px" y="0px"
	 viewBox="0 0 300 300" style="enable-background:new 0 0 300 300;" xml:space="preserve">
<g>
	<path d="M285.2,36c0.1,0.2-1.8,5.5-5.6,15.7c-1.8,5-2.5,7.2-2.1,6.7c-1.3,1.5-3.4,3-6.5,4.4c-3.2,1.4-5.1,2.5-5.8,3.2
		c-0.6,0.7-1.1,1.8-1.7,3.4c-0.5,1.7-0.8,2.7-1,2.9c0.9,2.6,1.8,5.8,2.7,9.6c-0.8-0.3-1.4-1.4-1.7-3.1c-0.3-1.8-0.9-2.9-1.7-3.2
		c0.5,0.9,0.7,2,0.7,3.2c0,1.6,0.1,2.6,0.3,3.1c0.2,0.8,1.1,2.3,2.7,4.4c1.3,1.7,1.8,3.4,1.7,5c0,0.7-0.2,1.5-0.7,2.6
		c-0.6,1-0.9,1.8-1,2.4c-0.1,0.8,0.1,2.5,0.5,5.1c0.5,2.3,0.4,4-0.2,5.3c-0.3,0.9-1.4,2.1-3.1,3.4c-2.1,1.6-3.2,2.6-3.6,2.9
		c0.3-0.5-2.8,5-9.4,16.2c-5.8,9.7-13.6,19-23.2,28c-8.2,7.6-12.4,12-12.5,13c-0.2,0.9-0.2,2.3,0.2,4.1c0.2,1.9,0.3,3.5,0.2,4.6
		c-0.1,0.7-0.6,2.1-1.4,4.3c-0.6,1.7-0.9,3.2-0.9,4.4c0,0.2,0.7,4.7,2.2,13.3c1.7,11.2,2.3,18.6,1.7,22.4c-0.1,0.8-0.6,2-1.5,3.6
		c-0.7,1.5-1,2.6-0.9,3.4c0,0.7,0.5,1.5,1.4,2.4c0.9,1.1,1.5,2,1.7,2.6c1.7,5.8,2.6,10.9,2.7,15.4c0.2,4.2-1.4,8.1-4.8,11.6
		c-1.9,1.9-3.8,2.8-5.5,2.7c-2.1,0-3.2-1.7-3.4-5.1c-1.8,1.1-3.6,1.7-5.3,1.5c-2.1-0.2-3.3-1.5-3.8-3.8c-0.3-1.4-0.5-3.7-0.3-7
		c0-3.9,0-6.1,0-6.7c-0.3-3.9-1-10.1-2.1-18.8c-1-8.9-1.8-15.6-2.2-20c-1.6-19.1-3.8-31.2-6.7-36.2c0.3,5.6,1.3,13.9,2.7,25
		c1.6,11.9,2.6,20.5,2.9,26c1.6,23.2,3.2,37.7,5,43.4c0.2,0-1.5,0.2-5.3,0.7c-0.1-0.9,0-2.1,0.3-3.4c0.3-1.3,0.3-2.3,0-3.2
		c-1.1,0.9-2.3,1.1-3.6,0.7c-1.4-0.6-2.3-1.8-2.7-3.8c-0.1-0.9-0.5-6.3-1-16.1c-0.3-7.4-1.4-12.2-3.1-14.5c4.3,0.2,7,4.4,8,12.5
		c1.5,12.4,2.2,18.6,2.1,18.5c0-20.2-1.4-40.8-4.1-62c-0.2-1.4-1.1-5.5-2.6-12.5c-1.1-5-1.6-9.2-1.4-12.5c1.1,0,1.8,0.1,2.1,0.3
		c-0.9-2.4-1.9-4.1-3.1-5.1c0.2,3.3,0.2,5.1,0,5.5c-1-0.8-1.8-2.2-2.4-4.3c-0.7-2.2-0.9-3.8-0.5-4.8c-0.5-0.5-1.2-1.5-2.2-3.2
		c-0.9-1.5-1.9-2.4-2.9-2.7c3,5.1,3,8,0,8.7c-1-6.4-2.8-10.4-5.3-12.1c0.9-0.3-2.6-1.2-10.6-2.6c-3.4-0.6-7.4,0.1-12,1.9
		c-5.1,1.9-8.5,3-10.1,3.1c-4.3,8.1-6.2,18.1-5.6,30.1c1.1,24.5,2.6,39.2,4.3,44.3c1.3,6.6,2.9,12.3,5,17.1c0.2,0.8,0.8,2.1,1.7,3.8
		c0.8,1.7,1.4,3,1.7,3.9c1.3,3.1,1.5,5.9,0.7,8.5c-8.1,1.6-13.6-1.7-16.4-9.9c-0.8-2.3-1.8-6.1-2.9-11.5c-1-5.1-1.9-8.8-2.7-10.9
		c-0.5,6.7,0.5,17.1,2.7,31.3c0.2,0.8,0.7,2.5,1.4,5c0.6,2.1,0.9,3.5,0.9,4.4c-0.1,2.2-1,3.8-2.7,5c-1.7,1.1-3.8,1.5-6.2,1
		c-0.6-0.1-1.8-0.7-3.6-1.9c-1.6-1-3-1.5-4.1-1.4c-1.5-2.2-4.2-4.7-8.2-7.5c-4.2-3.2-7.1-5.7-8.5-7.5c-2.8-8-4.4-13.9-4.6-17.8
		c-0.3,0.3-0.6,1.2-0.7,2.6c-0.1,1.4-0.3,2.2-0.7,2.6c-1.5-0.3-2.1-2.7-1.7-7c0.1-2.3,1.4-8,3.8-17.1c1.4-5.4,3.9-13.2,7.7-23.4
		c3.9-10.6,6.4-18.3,7.7-23.2c-2.2-0.9-5.6-2.9-10.3-6c-4.7-3.1-8.4-5.2-11.1-6.3c-10.3-4.3-19.1-10.5-26.7-18.6
		c-5-5.5-8.7-9.3-11.1-11.5c-6.8-6.3-10.4-10.3-10.6-12c0-0.5,0.1-1,0.3-1.7c0.5-0.7,0.7-1.3,0.7-1.9c0.2-1.3,0.3-3.2,0.2-6
		c-0.3-3.6-0.5-5.9-0.5-6.8c0-1.4-0.1-3.3-0.2-5.8c-0.1-2.4-0.2-4.1-0.2-5.1c0.1-3.9,1-6.7,2.6-8.4c0.2-3.5-1.1-6.4-3.9-8.7
		c-0.6-0.5-1.8-1.3-3.8-2.6c-1.6-1.1-2.8-2.1-3.6-2.7c-0.7-0.7-1.5-1.8-2.4-3.2c-1.3-1.8-2.1-3-2.6-3.4c-4.7-5.8-7.6-10.5-8.7-14
		c0.1-0.9,0.7-1.4,1.9-1.5c0.2,0,0.7-0.1,1.5-0.2c0.7,0,1.2-0.1,1.5-0.2c0.5,0.3,1.6,2.3,3.4,6c0.5-0.1,0.7-0.8,0.9-2.1
		c0.1-1,0.4-1.6,0.9-1.7c1.6-0.2,2.4,0.6,2.6,2.6c0.1,3,0.2,4.6,0.3,4.8c2.8-2.4,4.1-3.6,3.8-3.6c-1.8-2.7-2.1-4.8-0.7-6.3
		c1.3-0.1,2.3,0.4,3.1,1.5c0.2,0.3,0.6,0.9,1,1.5c0.3,0.7,0.6,1.2,0.9,1.5c0.3,0.5,1.1,1.2,2.2,2.2c1,0.9,1.7,1.7,2.1,2.4
		c1.1,1.8,2.3,4.5,3.4,8c1.6,4.4,2.7,7.2,3.2,8.4c-0.7-1-2.7-5-6-11.8c-2.5-5.4-5-9.1-7.3-11.3c0.5,1,1.3,2.4,2.4,4.1
		c1.3,1.8,2.1,3.1,2.4,3.9c0.1,0.6-0.1,1.1-0.7,1.5c-0.7,0.3-1,0.7-1,1.2c0.1,1.1,1.1,2.2,3.1,3.1c1.8,0.9,2.7,2.1,2.6,3.6
		c-5,0.8-8.5-1.7-10.6-7.3c-2.4,3.2-2.1,5.9,1,8.2c2.5,1.9,5.8,3.1,9.9,3.4c0.9,1.3,2.2,3.7,3.8,7.3c1.4,3.3,2.7,5.6,3.9,7
		c0.6-0.3,0.9-1.3,0.9-2.7c0-1.3,0.5-2,1.4-2.2c0.3,2.2-0.3,7.7-1.9,16.6c-1.3,6.8-0.4,11.6,2.6,14.4c-0.9,0.5,0.8-4.8,5.1-15.9
		c0.9,13.2-0.5,20.2-4.1,20.8c-1,0.1-2.1-0.3-3.2-1.2c-1.4-1-2.5-1.6-3.4-1.7c-0.7,2.1,0.1,3.6,2.2,4.8c3.1,1.6,4.8,2.6,5.1,2.9
		c3.2,4.8,4.2,7,3.1,6.7c2.1-4.9,3.6-13.6,4.6-26c0.5,1.9,1.1,7.2,2.1,15.9c0.7,7,1.9,11.7,3.6,14.4c1.9,3,4.2,3.9,6.7,2.7
		c-4.8-2.1-7.5-5.8-8-11.1c-0.8-7.3-0.2-12.5,1.7-15.6c0.1,0.1,2.4,5.3,7,15.6c5.7,12.9,15.8,25.1,30.4,36.7c-0.9-1.6-2.6-3.4-5-5.3
		c-3.3-2.6-5.2-4.3-5.8-5c-9.6-9.6-16.2-20.4-20-32.5c0.6,0.2,1.4,0.8,2.6,1.7c1,0.9,1.9,1.5,2.7,1.7c0.3,0.1,0.9-0.2,1.7-1
		c0.8-0.7,1.5-1,2.1-1c1.7,0,3.8,2.7,6.3,8c5,10.7,11,19.1,17.9,25.3c-1.1-1.8-3-4.2-5.6-7.2c-2.8-3.4-4.8-5.9-6-7.5
		c-1.5-2.2-3-5.1-4.6-8.7c-2.3-5.1-3.6-8.2-4.1-9.2c0.7,0.2,3,2,6.8,5.3c2.5,2.3,5.1,2.4,7.9,0.3c0.1,1.5,0,2.6-0.3,3.4
		c0.2-0.2-1.1,0-3.9,0.7c1.6,4.8,3.7,9.7,6.3,14.9c0.6-1,0.9-3.5,1-7.3c0.1-3.3,0.7-5.4,1.9-6.3c1.8,10,2.6,14.9,2.4,14.7
		c0.7-2.4,1-5.7,0.9-9.9c-0.2-5.9-0.3-9.5-0.2-10.8c1.4,1.5,2.1,5.2,2.1,11.1c0,5.8,0.7,9.5,2.2,10.9c0.5-0.3,0.8-2.7,1-7
		c0.2-5.6,0.7-11.7,1.4-18.3c0.6,1.8,0.9,5.2,0.9,10.3c0,4.9,0.3,8.3,0.9,10.1c0.8-1.8,1.6-5.1,2.4-9.7c0.8-4.4,1.7-7.6,2.6-9.6
		c0-0.1-0.6,5.1-1.7,15.7c-0.8,6.8-0.1,11.7,2.1,14.5c1.6-1.6,2.3-5.7,2.1-12.3c-0.2-6.8,0.3-11.3,1.5-13.3
		c0.8,5.9,1.4,9.6,1.7,10.9c1.1,4.9,2.8,7.5,5,7.7c2.4,0.2,4.2-2.2,5.5-7.2c1.5-6,2.7-9.5,3.6-10.4c0.6,10.7,0.6,15.6,0,14.7
		c0.6-0.1,1.4-0.1,2.6,0.2c1,0.3,1.8,0.4,2.4,0.2c-0.3,0.1,0.7-0.5,3.2-1.7c1-0.7,2.2-0.3,3.4,1c0.7,0,2.4-0.3,5.3-0.9
		c2.2-0.3,3.9-0.4,5.1-0.2c0.8,0.2,1.7,0.8,2.6,1.7c0.9,0.9,1.7,1.4,2.4,1.5c3.3-0.8,4-5.5,2.1-14c1.6,0.3,2.7,1.5,3.2,3.6
		c0.5,1.8,0.5,3.9,0,6.2c-0.9,0.2,1.4-3.8,7-12c0.9,4.1,0.4,7.7-1.5,10.9c-0.2,0.2-2.3,2.6-6.2,7c0.5,0.2,1.7,0.6,3.8,1
		c1.7,0.3,2.9,0.8,3.6,1.4c2.2,0,3.6-0.9,4.3-2.7c0.8-1.8,0.3-3.4-1.5-4.6c-0.9-16.4-6.7-25.4-17.4-27c-1.5-1.1-2.3-3.4-2.6-6.7
		c-0.6-6.5-0.8-9.4-0.7-8.7c-1.9,5.2-3.8,8.9-5.6,10.9c-2.7,3.2-6.7,4.9-12,5.1c2.2,0.3,5.3,0.3,9.4-0.2c4.8-0.6,7.6-0.9,8.5-0.9
		c-5.6,2.7-9.6,3.8-12,3.2c-0.6,1.3-0.7,3.2-0.3,6c0.5,3.3,0.6,5.6,0.3,7c-0.7-1-1.4-3.1-2.1-6.2c-0.7-2.8-1.5-4.8-2.4-5.8
		c0.1,0-0.9,0.6-2.9,1.7c-0.5,0-0.9-0.3-1.2-0.9c-0.5-0.6-0.9-0.9-1.2-0.9c-1.3,1.1-2.3,3.8-3.1,8c-0.8,4.2-1.9,6.9-3.2,8
		c0,0.6,0.5-2.5,1.5-9.2c0.6-4,0.1-6.7-1.5-8.2c-1.8,0.3-4.1,1-6.8,1.9c-3.5,1.3-5.7,2-6.5,2.2c-1.8-1.4-4.8-1.7-9.1-0.9
		c-4.8,0.8-8.2,0.9-10.3,0.2c0.2-0.1,3.5-0.5,9.9-1c-5.4-7.1-8.9-12.8-10.8-17.1c-3.1-7.3-4.3-15.4-3.6-24.3c0.8-13,6-24,15.6-33
		c9.8-9.3,21.6-14,35.5-14c13.9,0,25.7,4.6,35.5,13.7c9.7,9,15,20.3,16.1,34c0.7,11.3-2.2,22-8.5,32.3c0.9,0.6,2.4,1.2,4.6,1.9
		c2.2,0.7,3.7,1.3,4.6,1.9c0.9-0.8,3.4-1.9,7.3-3.4c0.3-0.1,0.9-0.5,1.5-1c0.7-0.5,1.2-0.7,1.5-0.7c0.7-0.2,1.8-0.2,3.4,0
		c1.5,0.2,2.6,0.2,3.2,0c0.9-0.3,2.1-1.4,3.6-3.2c1.5-2.1,2.7-3.3,3.8-3.8c0.7-0.5,1.7-0.7,3.1-0.9c1.4-0.2,2.2-0.5,2.6-0.7
		c1.1-0.7,2.2-2.6,3.1-5.8c0.8-2.8,2.2-4.5,4.3-5c0.2-1.6,1-3.8,2.2-6.5c1.1-2.5,1.7-4.8,1.7-6.8c2.6-4.6,4.7-7.7,6.3-9.6
		c2.6-1.1,3.8-1.5,3.4-1c1.5-1.5,2.9-4.4,4.3-8.9c1.9-6.2,3.1-9.6,3.4-10.4c0.2-0.5,0.6-1.4,1.2-2.7c0.5-1.6,0.9-2.7,1.2-3.4
		c1.3-2.7,2.3-4,3.2-3.9c1.8,0.2,2.3,1.8,1.5,4.6c-0.1,0.7-0.5,1.8-1,3.2c-0.5,1.4-0.7,2.2-0.9,2.6c0,0.3,0.2,0.6,0.7,0.9
		c0.5,0.2,0.7,0.5,0.7,0.7c3.9-1.1,6-1.9,6.5-2.2c2.1-1.1,3-3.1,2.7-6c0.8-1.8,2.2-3.4,4.3-4.8C282.9,33.2,284.5,33.5,285.2,36z
		 M20.8,55.7c0-1.4-0.2-2.1-0.7-2.2C20.1,55,20.4,55.7,20.8,55.7z M25.1,59.1c0.7-1.6,0.5-2.5-0.7-2.7c-0.3,0.3-0.5,0.9-0.5,1.7
		C24,59,24.4,59.3,25.1,59.1z M28.5,53.5c-0.1,0.7,0.1,1.1,0.5,1.4c0.6,0.2,0.9,0.1,1-0.5c-0.3-0.1-0.5-0.4-0.5-0.9H28.5z
		 M36.7,118.4c1,0.3,2.1,0.2,3.1-0.3c1.1-0.5,1.8-1.1,2.1-2.1c-0.1-0.1-1.8,0.1-5.1,0.7V118.4z M39.8,112.4c1.5-0.6,2.2-3.5,2.1-8.7
		c-0.6-0.6-1.4-0.8-2.4-0.7c-1,0.1-1.7,0.5-2.1,1C38.5,109.3,39.3,112.1,39.8,112.4z M47.1,77.7c-1.9-4-2.7-5.8-2.4-5.3
		c0.3,0.7,1.7,2.1,4.1,4.3c2.2,1.8,3.5,3.6,3.9,5.3c2.6,1.9,4,4.2,4.1,6.7c4.3,3.3,7.3,6.4,8.9,9.4c-1-0.3-2.2-1.6-3.6-3.8
		c-1.3-1.9-2.7-2.9-4.4-2.9c-4-5.1-5.6-7.6-5-7.3C52.2,80.8,50.3,78.7,47.1,77.7z M52.4,84.8c1.1,1.6,1.4,2.9,0.7,3.9
		c-1.4-0.1-1.9-1.4-1.7-3.9H52.4z M72.4,107.8c-1.6-0.5-2.8-1.7-3.8-3.6c-0.2-0.5-0.6-1.3-1.2-2.6c-0.3-1.1-0.7-2-1-2.6
		c0.7,0,1.2,0.5,1.5,1.4l0.9,2.6C71.3,107,72.5,108.6,72.4,107.8z M74.5,111.1c-1.3-1.1-1.8-2.1-1.7-2.9c7.4,2.3,12.8,5.2,16.1,8.9
		h2.6c0.9,0.6,1.5,1,1.9,1.4s-0.2,0.2-1.5-0.3h-3.6c-1.6-2.8-3.6-4.2-6-3.9c-0.2-0.2-0.6-0.6-1-1.2c-0.5-0.7-0.8-1.2-1-1.5
		c-1-0.9-2.1-1.1-3.2-0.7c2.5,3,3.4,5.6,2.6,8c-1.3-0.1-2.3-1-3.1-2.7c-0.8-1.9-1.7-3-2.6-3.2c0-0.3,0.1-0.6,0.3-0.9
		C74.4,111.5,74.5,111.2,74.5,111.1z M90.2,228.8c1.6,0,2.8-1.5,3.6-4.4c0.8-2.8,0.8-5.2,0-7.2c-0.2,0.8-0.9,2.7-1.9,5.8
		C91.2,225.3,90.6,227.2,90.2,228.8z M101.8,119.1c0,1.1-1.3,1.5-3.9,1.2c-2.6-0.3-3.9-0.7-3.8-1.2c0.2-0.6,1.4-0.6,3.4,0
		C99.7,119.7,101.1,119.7,101.8,119.1z M98.4,243.5c0.3-10.5,0.3-17.7,0-21.7c-0.3,1.8-1,5-2.1,9.4c-0.9,4-1.5,7.2-1.9,9.6
		c0.5,0.1,1.1,0.7,2.1,1.7C97.2,243.3,97.8,243.6,98.4,243.5z M122.8,109c0.1-0.3,0.5-0.8,1-1.4c0.6-0.6,0.9-1.1,1-1.5
		c0.2-0.5,0.5-1.1,0.7-2.1c0.1-1,0.3-1.7,0.5-2.1c0.2-0.7,0.7-1.4,1.5-2.2c0.7-0.7,1.1-1.3,1.2-1.7c0.2-1,0.2-2.3-0.2-3.9
		c-0.6-2.1-0.9-3.4-0.9-4.1c-0.1-1.5,0.2-3.3,1-5.5c0.8-2.6,1.3-4.2,1.4-4.8c1-6,1.5-8.8,1.4-8.2c0.7-2.5,2.2-4.4,4.6-5.8
		c0-0.3,0.1-0.7,0.2-1.2c0.2-0.3,0.3-0.7,0.2-1.2c2.4-1.9,3.8-3,4.1-3.1c1.7-0.9,3.4-0.9,5.1,0.2c2.2-1.1,3.1-1.7,2.7-1.7
		c0.3,0.1,1,0.5,2.1,1c0.8,0.6,1.4,0.7,1.7,0.3c-0.3-0.3-0.7-0.7-1-1c5.8,0.9,9.5,2.9,10.9,6c-4.8-3.1-7.8-4.4-9.1-4.1
		c0.3,0.1,1.4,0.6,3.1,1.4c1.4,0.7,2.6,1.1,3.6,1.4c1.4,1,2.8,3.5,4.3,7.3c1.4,3.8,3,6.1,4.8,7c-2.8-5.2-4.3-8.4-4.3-9.4
		c5.9,10.3,9.1,18.2,9.6,23.8c0,0.3-0.2,0.4-0.5,0.2c-0.3-0.3-0.5-0.3-0.5,0.2c2.6,3.1,3.9,4.3,3.8,3.6c0.1,0.5,0.1,1.2-0.2,2.2
		c-0.3,1-0.5,1.8-0.5,2.2c0.1,1.5,1.3,3.2,3.6,5.3c3.8,3.6,6.1,5.4,7,5.3c2.1-0.2,4.7-4.2,8-12c6.8-15.9,5.5-31.2-3.9-45.6
		c-9-13.4-21-21-36.1-22.7c-14.7-1.6-27.4,2.5-38.1,12.1c-10.1,9.1-15.7,20.3-16.6,33.5c-0.9,12.9,2.6,24.2,10.4,34
		c3.2,3.9,5.4,5.9,6.7,6c1.5,0,2.7-1,3.8-3.1c0.3-0.6,0.7-1.4,1-2.6C122.4,109.9,122.7,109.2,122.8,109z M118.7,188.5
		c0.1,1,0.3,2.8,0.5,5.5c0.2,2.1,0.5,3.6,0.7,4.6c0.8,3,2.8,4.4,6.2,4.3c-0.6-3.3-2.1-7.6-4.4-13c-3-6.3-4.8-10.5-5.5-12.8
		c0.9-0.3,1.6-1.2,2.1-2.6c0.2-1.4,0.1-2.6-0.3-3.8c-1.3,1-2.6,3.6-4.1,7.9c-1.4,3.8-3,6.2-5,7.2c2.3-10.5,7.9-20.7,16.9-30.6
		c0.1,0,0.2-0.1,0.2-0.2c-0.1-0.1-0.3-0.2-0.5-0.2c-10,11.2-16.2,21.7-18.6,31.6c-0.9,3.5-1,6.3-0.3,8.4c2.5-3.4,3.4-5.1,2.7-5
		c0.1,1.1-0.2,2.8-1,5.1c-0.7,1.9-0.8,3.5-0.3,4.8c3.9-11.6,6.5-18.5,8-20.7c0.1,0.8,0.6,2.2,1.4,4.3
		C118,185.5,118.5,187.2,118.7,188.5z M128.5,171.7c0.1-2.1,1.5-7.8,4.3-17.3c-2.8,1-4.9,3.5-6.2,7.3c0.2-0.5-0.6,3.2-2.4,10.9
		c0-4.4,0.1-7.9,0.3-10.3c-2.1,1.4-3.5,3.9-4.3,7.5c-0.9,3.9-0.6,7,0.9,9.4c0.1-0.7,0.2-1.9,0.3-3.8c0-1.7,0.1-2.9,0.3-3.6
		c0.1,2.8,1,6.2,2.6,9.9c1.6,4,2.5,7.2,2.7,9.7c-2.2,0.7-3.1,0.3-2.9-1c1.6,3.6,2.9,6.9,3.9,9.7c0.1-2.7,0.2-7.4,0.2-14
		C128.2,180.1,128.2,175.2,128.5,171.7z M129.2,110c0.3-0.1,1.4-0.5,3.1-1c1.3-0.5,2.3-0.9,3.1-1.4c2.1-1.1,2.7-2.9,1.9-5.3
		c-0.8,2.5-1.7,4.1-2.7,4.8c-2.2,0.1-3.9,1-5.3,2.6c-0.3,0.3-0.9,1.1-1.7,2.4c-0.7,0.9-1.3,1.6-1.7,2.1c1,0,2.2-0.5,3.4-1.4V110z
		 M133.8,91.8c0.6,5.9-1,9.8-4.6,11.6c2.4-0.5,4-1.8,4.8-4.1c0.3-1.3,0.6-3.8,0.9-7.5H133.8z M131.2,89c1.1-0.6,1.9-1.5,2.2-2.9
		C132.4,86.1,131.7,87.1,131.2,89z M133.8,163.4c-0.2-0.2-0.1,3.5,0.3,11.1c0.3,6.6,1.3,13,2.7,19.3c0.5,1.7,1.4,3.9,2.7,6.7
		c1.3,2.7,2,4.6,2.2,5.6c0.3,1.9,0.4,3.9,0.2,6c-0.3,2.5-1,3.9-1.9,4.1c-2.7,0.8-4.6-2.4-5.6-9.7c-2.5-17.5-2.7-31.6-0.7-42V163.4z
		 M161.1,90c0.7-0.3,1.7-0.2,3.1,0.3c-1.3-9.6-2.2-14.8-2.7-15.7c-0.6,1.5-2.2,1.2-5-0.9c-0.2,1.3-2.1,1.9-5.6,1.9
		c-1-2.6-1.6-4.6-1.7-6c1.9-1.7,4.3-1.9,7.2-0.5c2.7,1.3,4.4,2.9,5.1,5c-0.1-8.2-6.4-12.5-19-12.8c1,0.6,0.9,1.4-0.5,2.4
		c-1,0.8-2.3,1.4-3.8,1.7c0.1,0.5-0.2,1.6-0.9,3.4c-0.6,1.7-0.6,3.1-0.2,4.3c0.5-0.2,1.1-0.6,1.9-1.2c0.8-0.7,1.4-1.1,1.9-1.4
		c1.5-0.9,3.3-1.2,5.5-0.9c-0.7-0.5,0.1,1.7,2.4,6.3c2.7,0.8,4.3,1.9,4.6,3.4c-0.1,0.6-0.7,1-1.7,1.4c-0.9,0.3-1.4,0.9-1.5,1.5
		C155,81.2,158.6,83.8,161.1,90z M141.1,152.4c-1.9,6.8-1.7,17.6,0.7,32.3c-2.4-3.4-3.9-8.5-4.6-15.4c-0.6-6.9,0.2-12.6,2.2-16.9
		H141.1z M143.9,82c0.8-1,1-2.2,0.5-3.6c-0.3-1.5-1.2-2.2-2.6-2.1c-0.1,0.3-0.3,1-0.5,1.9c-0.2,0.9-0.4,1.5-0.5,1.9
		C141.7,81.3,142.7,81.9,143.9,82z M154.1,149.7c-3.6,37.3,0.9,75,13.7,113.1c1.6,5,2.1,8.2,1.4,9.6c-0.9,1.6-3,2.5-6.2,2.7
		c-0.8,0-2.1-0.1-3.9-0.2c-1.5,0-2.6,0.1-3.2,0.2c-0.2-0.7-0.9-1.4-2.1-2.2c-1.4-0.9-2.2-1.7-2.6-2.4c-0.8-1.5-1.8-7.9-3.1-19.3
		c-1.1-9.6-1.9-21.7-2.4-36.4c0.5-0.1,0.8,0.1,1,0.7c0.2,0.6,0.6,0.8,1,0.7c0.3-3.4,0.7-14.7,1.2-33.8c0.5-14,1.5-24.7,3.2-32
		c0.1-0.2,0.3-0.4,0.5-0.5c0.1-0.2,0.2-0.5,0.3-0.7C153.4,149.5,153.8,149.7,154.1,149.7z M156.8,92.1c0.7-1.1,1.7-1.8,2.9-2.1
		c-3.2-3.4-5-5.2-5.3-5.3c0.1,1.4-0.8,2.2-2.7,2.4c-1.9,0.3-2.9,1.1-2.9,2.2c1.8-0.8,3.4-0.7,4.6,0.3
		C155.4,91.2,156.5,92,156.8,92.1z M151.9,93.1c0.1-0.7-0.1-1.3-0.5-1.7c-0.5-0.5-1-0.5-1.5,0C150.1,92.7,150.7,93.2,151.9,93.1z
		 M150.5,85.1c2.3-0.3,3.4-0.6,3.2-0.7c-0.1,0-0.8-0.1-2.1-0.2C151.1,84.1,150.7,84.4,150.5,85.1z M157.5,117.4
		c4.2,2.1,5.4,6.2,3.6,12.3c-1.8,6-4.9,9.3-9.2,9.7c3-4.9,4.7-8.1,5.3-9.7C158.8,125.5,158.9,121.4,157.5,117.4z M180.4,245.7
		c1.3,9.6,1.9,14.6,2.1,15c0.2,0.7,0.6,1.6,1,2.7c0.6,1.3,0.9,2.1,1,2.6c0.7,2.1,0.2,3.8-1.4,5.1c-3.5,0.7-5.9-0.5-7-3.6
		c-0.3-1.1-0.6-2.7-0.9-4.8c-0.5-2.7-0.7-4.5-0.9-5.3c-2.6-12-5.4-22.4-8.4-31.4c0.1,3.4,1,8.4,2.7,14.9c1.8,6.8,2.8,11.7,3.1,14.5
		c-1.8-0.3-3.1-1.7-3.9-3.9c-0.2-0.7-0.5-1.7-0.7-3.1c-0.3-1.5-0.5-2.4-0.5-2.7c-4-16.1-6.6-28.4-7.9-36.9
		c-0.9-6.8-1.5-16.2-1.7-28.2c-0.2-15.7-0.5-25.6-0.7-29.6c0-0.2,0.1-0.5,0.2-0.7c0.1-0.1,0.2-0.2,0.2-0.3c0.2-0.1,0.5-0.1,0.7,0
		c0.1,0.2,0.2,0.3,0.3,0.3c0.7,4.8,1.4,11.5,2.1,20.2c0.8,9.1,1.4,15.6,1.9,19.3c1.8,14.5,5.1,25.6,9.7,33.3
		c0.6,0.8,1.8,2.1,3.6,3.8c1.7,1.5,2.7,2.7,3.1,3.6C178.3,230.8,179.1,235.8,180.4,245.7z M164.2,150.7c2.3,1.6,3.5,5.2,3.8,10.9
		c0.5,8.5,0.7,13.2,0.9,13.8c-1.3-2.3-2.3-6.2-3.1-11.6c-0.9-6-1.8-10.1-2.6-12.1c0-0.2,0.1-0.4,0.2-0.5c0.1-0.2,0.2-0.4,0.2-0.5
		H164.2z M165.2,99.1c0.9,0.2,1.7,1.1,2.2,2.6c0.7,1.5,1.4,2.4,2.1,2.7c-0.1-0.3-0.2-1-0.2-1.9c0-1-0.1-1.7-0.2-2.1
		c-0.1-1.6-0.7-2.3-1.7-2.1c0.3,0.7,0.2,1-0.5,0.9C165.9,99.1,165.3,99,165.2,99.1z M165.6,79.8c1.1,1,2.2,3,3.2,5.8
		c1.1,3,2.2,4.9,3.1,5.8c-0.2-0.8-0.6-1.9-1-3.4c-0.5-1.6-0.8-2.7-1-3.4C168.9,82.1,167.5,80.5,165.6,79.8z M167.4,90.7l-0.2-3.6
		c0-1.4-0.6-2.3-1.7-2.7c0.2,4.3,2.3,8.7,6.3,13c-0.1-0.9-0.8-2-2.1-3.2c-1.4-1.4-2.1-2.1-2.1-2.1S167.7,91.6,167.4,90.7z
		 M169.1,207.5c0.3-0.7,1.3-1.4,2.7-2.2c1.3-0.7,2.1-1.6,2.6-2.7c1-2.8,1.2-7.9,0.5-15c-0.8-8.5-1.1-13.7-0.9-15.4
		c0.3-0.1,0.6,0,0.7,0.3c2.4,11.1,3.8,22,4.1,33c0.2,5.8-0.2,9.4-1.4,10.8c-2.6,0.2-4.6-0.6-6-2.6
		C171.1,212.8,170.3,210.8,169.1,207.5z M174.1,111.1c0.6-0.3,1.1-0.4,1.5-0.2c0.8,0.3,1.4,0.5,1.9,0.5c0.3-0.3,0.4-1,0.2-2.1
		c-0.1-0.8,0.1-1.3,0.5-1.5c0.9,0.2,1.6,0.7,2.1,1.4c0.6,0.8,0.6,1.7,0.2,2.6c0.5-0.1,1.1-0.1,1.9,0.2c0.8,0.2,1.3,0.2,1.5-0.2
		c-1-1.4-2.9-3.2-5.6-5.5c-2.6-2.3-4.5-4.2-5.6-5.8c0.1,0.8,0.5,1.6,1.2,2.4c0.7,0.8,1,1.5,1,2.2c-0.2,0.1-0.7,0.2-1.5,0.3
		c-0.7,0-1.1,0.1-1.4,0.3c0.6,0.3,1.5,0.5,2.7,0.5c1.1,0,1.9,0.3,2.2,0.9C175,109.5,174.1,110.8,174.1,111.1z M184.2,124.7
		c1.1,10.1,4.6,16.8,10.3,20c0.3-0.5,0.6-1.5,0.7-3.1c0.2-1.5,0.6-2.4,1-2.9c-0.7,15.4,2.4,25.5,9.4,30.4
		c-0.8-2.4-3.4-11.8-7.7-28.4c-3.1-11.6-6.4-20.3-10.1-26c-9.2-1.4-13.4-1.8-12.6-1.4c0.2,1.7,1.8,3.6,4.6,5.6
		C182.6,121.3,184.1,123.1,184.2,124.7z M184.9,156.7c0-0.1-0.1-2.4-0.3-7c-0.2,0-1,0.3-2.4,1c-1,0.3-2,0.6-2.9,0.7
		C179.3,151.6,181.2,153.4,184.9,156.7z M188.5,118.1c3.1,4.8,4.8,9.5,5.3,14c0.5,4.8-0.3,7.3-2.2,7.7c0,0.8-1.4-6.4-4.1-21.7H188.5
		z M195.5,117.4c-0.5-0.6-1.1-1.6-2.1-3.1c-0.7-1.3-1.4-2.1-2.2-2.6h-0.7c0,0.1-0.1,0.3-0.2,0.5c-0.1,0.1-0.2,0.3-0.2,0.5
		c0.7,2.2,2.1,5,4.1,8.4c2.2,3.4,3.6,6.3,4.3,8.5c0.6,1.7,1.3,4.6,2.1,8.7c0.6,3.8,1.3,6.8,2.2,9.1c0,0.1-0.7-4.2-2.1-13
		c-0.1-0.7-0.3-3.1-0.7-7.2c-0.1-3-0.5-5.1-1.2-6.5c-0.2-0.5-0.7-1-1.5-1.7C196.2,118.2,195.6,117.6,195.5,117.4z M202.5,232.8
		c2.3,13.3,3.6,20.7,4.1,22c0.1-5-0.3-11.2-1.4-18.5c-1.5-10.6-2.3-16.6-2.4-17.9c-0.9-9.6-1.6-15.6-2.1-17.9
		c-0.2-1.1-1-3.9-2.2-8.2c-1-3.3-1.6-6-1.7-8.2c0-0.1-1.1-7-3.4-20.7h-1.2c0,0.2-0.1,0.6-0.3,1C195.5,189.6,199.1,212.4,202.5,232.8
		z M209.5,135.7c-2.8-0.3-4.5-2.6-5-6.8c-0.2-1.3-0.3-3.1-0.3-5.5c0-2.7,0-4.4,0-5c0.8,0,1.9,0.5,3.2,1.5c1.1,1,2.2,1.3,3.1,0.9
		c0-1.1-0.7-2.3-2.2-3.6c-1.5-1.1-2.2-2.5-2.1-4.1c0.1-0.5,0.5-0.7,1.2-0.9c0.7-0.1,1.1-0.3,1.4-0.5c-1.4-0.2-2.8,0.2-4.4,1.4
		c-1.6,1.3-2.8,1.8-3.6,1.7c-0.7,0-1.6-0.5-2.7-1.4c-0.9-0.8-1.9-1-2.9-0.7c2.7,0.8,4.6,3.2,5.5,7.2c0.1,0.6,0.3,2.3,0.7,5.3
		c0.3,2.3,0.7,4.1,1.2,5.5c1,3.1,3.6,6.2,7.7,9.4C210.2,140,209.9,138.5,209.5,135.7z M221.4,113.5c-0.5-2.2,0.5-4.3,2.7-6.5
		c3.9-3.9,5.8-5.6,5.6-5.3c-1.9,0.1-3.6,1-5.1,2.7c-0.5,0.5-1,1.2-1.7,2.2c-0.7,1.1-1.2,1.9-1.5,2.4c-0.9,0.5-3,0.6-6.3,0.5
		c-2.7-0.1-4.4,0.7-5,2.6c0.7,0.3,1,1.3,1,2.9c0,1.8,0.1,3,0.3,3.4c1.4-0.3,1.7-2.6,1-6.7c0.8-0.3,1.9-0.5,3.4-0.3
		c1.5,0.1,2.6,0.1,3.2,0c1.9,3.8,4.8,5.4,8.5,5c-0.1-0.6-0.6-0.9-1.5-1c-0.9-0.2-1.5-0.5-1.7-0.9v-2.1c-0.3-0.3-0.7-0.2-1.2,0.3
		C222.8,113.5,222.1,113.7,221.4,113.5z M244.9,87.5l-0.3-3.1c-0.7,0-1.1,0.1-1.4,0.3c0.3,1.5,0.5,2.2,0.5,2.2
		S244.1,87.1,244.9,87.5z M244.2,78.4c1.4-3.3,1.9-4.6,1.7-3.8c-1-0.2-1.8,0.2-2.2,1.4C243.2,77.1,243.4,77.9,244.2,78.4z
		 M262.5,106.1c-3.2-3.5-6-9.2-8.5-16.9c-3.6-10.9-5.9-17.2-6.7-18.8c-0.7,2.2-1,3.2-1,3.1c0.1,0.3,0.4,0.5,0.9,0.3
		c0.3-0.2,0.5-0.1,0.5,0.3c0.2,1.3,0.7,3,1.5,5.1c0.8,2.3,1.3,4,1.4,5.1c0.1,0.8,0.1,2.1,0,3.8c-0.1,1.4,0,2.5,0.3,3.2
		c0.3,0.9,1.1,1.9,2.2,3.1c1.5,1.4,2.5,2.5,3.1,3.2c-0.5-0.7,0.3,1.1,2.4,5.5C259.4,105.3,260.8,106.2,262.5,106.1z M251.9,67.7
		c-0.3-0.6-0.9-0.8-1.5-0.7c-0.8,0.1-1.2,0.6-1.2,1.4c0.9,0.3,1.6,0.6,2.1,0.7c0.1-0.2,0.2-0.5,0.3-0.7
		C251.7,68,251.9,67.8,251.9,67.7z M260.2,58.8c2.7,1.3,5.9,1.5,9.6,0.7c-0.2-2.8-0.7-4.6-1.4-5.1c-0.8,0.6-2.2,1.3-4.1,2.2
		C262.4,57.5,261,58.2,260.2,58.8z M273.9,55.4c0.8-2.6,0.8-5.5,0-8.5c-1-0.1-2.1,0.3-3.2,1.2c-1.1,0.9-2.1,1.4-2.7,1.4
		c-0.5,0-1.2-0.5-2.2-1.4c-0.8-0.7-1.7-0.8-2.6-0.3c-0.6,1.3-0.2,2.3,1.2,3.1c0.5,0.2,1.1,0.5,1.9,0.7c0.9,0.3,1.5,0.6,1.7,0.7
		c3.4-0.8,5-1.3,4.6-1.4c0,0.2,0,0.7,0,1.5c0,0.6,0,1,0,1.4C272.7,54.7,273.1,55.2,273.9,55.4z M264.5,87.5c-0.5,0.8-0.6,2-0.3,3.6
		c0.2,2.2,0.3,3.5,0.3,3.9c0.8-0.8,1.3-2.1,1.4-3.9C266.1,89.1,265.6,87.9,264.5,87.5z M265.2,36.7c0,0.3-0.1,0.7-0.3,1
		c1,0.2,1.5,0.3,1.4,0.3v-1.4H265.2z"/>
</g>
</svg>
