<?xml version="1.0" encoding="utf-8"?>
<!-- Generator: Adobe Illustrator 21.1.0, SVG Export Plug-In . SVG Version: 6.00 Build 0)  -->
<svg version="1.1" id="Layer_1" xmlns="http://www.w3.org/2000/svg" xmlns:xlink="http://www.w3.org/1999/xlink" x="0px" y="0px"
	 viewBox="0 0 825 825" style="enable-background:new 0 0 825 825;" xml:space="preserve">
<style type="text/css">
	.st0{fill:#FFFFFF;}
</style>
<path d="M328.5,93.5c28.9-3.6,57.4-9.7,86.2-13.7c8,36.8,12.7,74.2,20.7,111c8.3-0.6,16.1-4.6,24.6-4.2c10.4,8.7,20.4,18,31.5,25.9
	c14.5,10.3,32.5,16.7,50.5,14.7c3.9,2.8,1.4,9.3,6.2,11.1c19.2-2.5,38.1-6.6,57.1-10.3c26.2-5.3,52.4-10.6,78.9-14.4
	c4.4,28.9,10.1,57.6,16.1,86.2C652.4,308.1,605,319,557.2,327c-14.8-15.6-24.8-34.9-36.2-52.9c-6.7-10-13.8-20.1-23.3-27.6
	c19.5,27.5,34.9,57.5,49,88.1c10.7,23.3,20.6,47,30,70.9c15.1,39.1,30.1,78.3,47.5,116.5c12.9,27.9,26.4,55.8,44.2,81
	c-13.7,14.3-30.8,24.8-47.8,34.6c-28.6,16-59,29.7-83.9,51.4c6-13.9,18.4-23.6,31-31.3c12.5-7.8,26.4-12.8,39.3-19.7
	c14.4-7.8,29.3-16.4,38.8-30.2c-20.1-37.6-36.5-77.1-51.7-117c-16.5-43.6-31.4-87.7-45.5-132.1c0.3,41.2,9.2,81.9,21.8,121
	c14.7,45.1,34.6,88.3,57.2,129.9c-9.3,2.4-17.2,9.1-27.1,9.3c-16.2-37.9-34.6-74.8-51-112.6c-4.4-9.9-8.5-20-12.7-29.9
	c-5.5,22.8-1.9,46.7,5.1,68.7c5.1,15.4,11.6,30.3,17.3,45.5c5.6,14.6,11.5,29.2,16.6,44c-15,9.4-31.3,16.7-45.5,27.2
	c-8.2-25.8-12.7-52.5-18.3-79c-10.7,10.3-22,20.8-28.3,34.5c-4.5,9.5-5.5,20.5-3.4,30.9c-39.3-14-80.4-23.7-122.1-26.1
	c-22.7-0.9-45.6-0.4-68,3.7c-5.3-29.5-11.2-58.9-18.2-88c-6.5,16.1-14.1,31.7-21.4,47.5c-8.2,17.2-16.1,35-19.3,54
	c7.3,2.5,15.1,3.7,22.8,3.6c19.8,0.7,38.9-5.2,58.3-7.9c27.3-2.8,55-0.2,81.9,4.8c43.7,8.4,86,23.1,127.1,40.1
	c2.1,17.5,5.5,34.7,9,51.9c-29.1,7.4-58.8,11.9-88.5,16.1c-2.7-23.6-7.8-46.8-11.5-70.2c-1.7-9.8-3-19.7-4.6-29.6
	c-20.1-7.1-41.6-9.1-62.7-8.9c-24.2,0.1-48.1,3.8-72.1,6.8c-28,3-56.2,6.6-84.4,4.8c9.6-38.5,29.3-73.2,45.2-109.2
	c10.1-21.1,16.2-43.9,21.1-66.7c6.6-31,11.1-62.4,15-93.8c-27.5,4-54.7,9.4-81.9,14.9c-10.2,1.9-20.4,3.9-30.6,5.1l-0.7-0.5
	c-2.5-14.4-5.2-28.9-8.1-43.3c-3.1-14-6-28-7.8-42.3c47.5-9.5,95.1-19,142.9-27.3c3.7-15.6,9.3-30.9,17.7-44.6
	c7.2-11.7,17.3-21.8,29.8-27.8c-4.5-29.9-10.9-59.4-15.4-89.3C331.8,115.3,330.2,104.4,328.5,93.5z"/>
<path class="st0" d="M447.9,204.9c4.9-1.7,10.3-3.9,15.5-2.3c8.6,2.5,16.2,7.5,23.7,12.2c15.6,10,29.8,23.1,47.8,28.5
	c-0.5,5.2-0.7,10.5-2.3,15.5c-2.7,0.1-5.3-0.4-7.5-2c-6.1-4.1-10.7-9.9-16.1-14.8c-3.2-2.8-5.7-6.4-9.4-8.7
	c-10.3-7.2-21-13.8-31.3-20.9c-1.6-1.7-4-0.7-6-0.4c-24.5,5.2-48.9,13.8-68.6,29.7c-2.2,1.8-4.3,3.7-6.6,5.4
	c-0.9-2.8-1.8-5.8-0.6-8.6c2-4.4,6.3-7.3,10.5-9.4C413.9,220.9,430.3,211.6,447.9,204.9z"/>
<path class="st0" d="M373.7,217.6c10-2.8,20.3-3.9,30.7-4c-9.8,3.2-19.3,7.8-26.8,15c-11.6,10.9-19,25.4-23.8,40.3
	c-8.1,25.4-12.4,51.8-18.4,77.7c-10.8-14.3-18.6-31.5-19.5-49.6c-1-18,5.3-35.9,15.5-50.6C341.5,232.1,356.9,222.1,373.7,217.6z"/>
<path class="st0" d="M419.5,240.5c11.3-8.4,23.8-15.1,37-19.6c-20,17-43.9,29.4-61.4,49.3c-4.3,4.7-7.6,10.1-11.3,15.3
	C390.2,267,404.1,252.1,419.5,240.5z"/>
<path class="st0" d="M429,268c12.9-12.9,26-25.9,41.4-35.8c-20.8,22-42.2,43.4-65.4,62.9c-8,6.5-16,12.9-25,18
	C397.9,299.8,413.6,283.9,429,268z"/>
<path class="st0" d="M374,251.9c2.1,1.6,4.1,3.3,6.2,5c-10.3,20.8-11.6,44.4-13.1,67.1c-1.9,53.6,3.4,107.2,8.9,160.4
	c-15.9-16.1-26.9-36.2-40.2-54.4c-1-1.6-2.8-3.1-2.5-5.2C335.5,365.4,349.2,306.2,374,251.9z"/>
<path class="st0" d="M440,289c12-11.5,24.2-23,38.2-32.2c13.8,5.9,24.6,17.5,31.1,30.9c9,18.3,11.3,39,12.1,59.2
	c-11.9-6.1-26-8-38.9-4.5c-4.8,1.3-9.4,4.2-11.4,9c-2.7,6.4-1.8,13.8,0.1,20.3c6.4,5.3,11.4,12.5,19,16.4c8.1,0.4,16.9-2.1,22.1-8.7
	c2.2-3.2,5.2-6.8,4.6-10.9c-0.8-6-7.8-6.9-11.6-10.4c5.2-3.4,12.3-2.1,17.9,0c-2.6,32.6-16.9,63.7-38.1,88.4
	c-4.3-5.1-9.5-9.4-14.1-14.2c-3.2-3.3-3.6-8.1-2.3-12.3c-5.5-0.2-10.5-2.5-15.3-5.1c-7-3.7-15.2-5.6-23-4.1c0,1.9-0.2,4.3,2.1,5
	c2.5,0.9,6.8,3.9,4,6.6c-13.3,6.9-29.9,4-42.3,12.9c-6.5-16.8-14.2-33.3-18.1-51c-3.4-15-3.8-30.6-1.9-45.8c3.2-0.2,6.2-1.1,9.2-2.3
	c-1.4,3.2-1.8,6.9-0.3,10.2c3,8.5,9.8,14.9,17.2,19.6c7.5,4.8,15.9,9.1,24.9,9.4c5.8,0.2,11.9-2.2,15.2-7.1
	c2.6-3.5,3.2-7.8,4.4-11.8c2.3,2.1,4.8,4.5,5,7.8c0.4,6.5-0.7,13-0.7,19.5c7.3-8,6.7-19.6,10.8-29.1c1.3-3.4,4-5.9,7-8
	c-2.9-8-10.2-13.5-18.1-16.2c-16.6-5.8-34.6-5.1-51.7-1.9C412.6,317,426.2,302.8,440,289z"/>
<path class="st0" d="M306.2,324.7c10.9,8.7,17.9,21.1,26.9,31.6c-13,69-21.4,138.9-22.6,209.1c-0.3,9.9,0.1,19.8-0.2,29.7
	c-8.4-17-21.3-31.4-30-48.2c-3.4-7-6.7-14.7-5.7-22.6c1.9-10.4,6.8-19.9,10.1-29.9c4-10.4,5.1-21.5,6.6-32.5
	C297.1,416.3,297.7,370,306.2,324.7z"/>
<path class="st0" d="M413.7,348.8c-0.9-1.8,0.6-4.2,2.6-4.5c5.3-0.8,11.7,0.6,14.5,5.7c-0.9,1.2-1.4,2.9-2.8,3.6
	c-3,0.1-5.4-1.9-8.3-2.2C417.6,350.8,414.7,351.2,413.7,348.8z"/>
<path class="st0" d="M485.5,360.8c3.9-1.7,8.4-0.5,11.9,1.7c2,1.2,3.1,4.4,1.2,6.1c-1.6,2-4,0.6-5.8-0.2c-2.3-1.2-5.2-1.2-7.3-2.9
	C485.1,363.9,485.4,362.3,485.5,360.8z"/>
<path class="st0" d="M333.4,449.5c3.9,5,6.8,10.7,10,16.1c11.9,21.3,22.9,43.2,33.9,65c7.1,14.3,14.2,28.7,22.8,42.2
	c12,19.2,26.6,37.1,45.2,50.3c-27.8-7.9-53.7-22.7-82.6-26.8C345.5,549.3,336.2,499.5,333.4,449.5z"/>
<path class="st0" d="M398.9,451.3c8.2,1.2,14.9,6.9,18.8,14c3.6,5.9,7.3,11.8,10.6,17.8c-3.7,2.5-8.3,4.8-12.9,3.3
	c-5.6-2.1-8.6-7.7-11.1-12.8C401.2,466.6,399.5,459,398.9,451.3z"/>
<path class="st0" d="M419.6,453.4c6.8-2.4,14.2-0.9,20.9,1.1c6.4,2,13,3.6,19.3,5.9c-6.4,3.2-14,2.8-20.6,0.4
	C432.7,458.3,426,456.2,419.6,453.4z"/>
<path class="st0" d="M494.8,465.6c7.6,4.7,10.9,13.8,10.7,22.4c-0.4,8.8-2.3,17.5-5.9,25.6c-5.4,12.6-10.6,25.3-16.4,37.7
	c3.4-11.6,8-22.7,12.1-34.1c4.5-11.4,8.3-24,5.8-36.3C500.2,475.3,497.5,470.4,494.8,465.6z"/>
<path class="st0" d="M455.2,469.7c6.4-2.8,13.6-4,20.5-2.6c-3.6,7.7-7.3,15.3-11.6,22.7C456.8,486,455.5,477.1,455.2,469.7z"/>
<path class="st0" d="M395,522.3c-8.2-15.3-13.3-34.7-5-51c1.3,1.7,2.7,3.5,2.8,5.7c0.6,6.6-0.4,13.2-0.6,19.8
	C392.9,505.4,394.5,513.8,395,522.3z"/>
<path class="st0" d="M476.4,490.1c4.5,6.3,4.2,14.6,2.4,21.8c-1.9,7.3-5.1,14.2-9.5,20.4C472,518.3,475.9,504.4,476.4,490.1z"/>
<path class="st0" d="M417.2,496.6c2.7,1.6,5.5,3.7,6,7c1,5.7,0.1,11.6,0.5,17.4c11.8,17.9,23.2,36,34.4,54.2
	c-10.5-10.4-20.9-20.9-29.1-33.2C420.2,528.8,414.9,512.6,417.2,496.6z"/>
<path class="st0" d="M442,509c-0.3-2.7,1.8-4.6,3.8-5.9c-1.5,8.8,0.9,17.6,4.6,25.6C445.1,523.7,442.1,516.2,442,509z"/>
<path class="st0" d="M408.9,543.7c10.3,8.2,20.1,16.8,30.1,25.4C426.5,564,416.6,554.3,408.9,543.7z"/>
</svg>
