<?xml version="1.0" encoding="utf-8"?>
<!-- Generator: Adobe Illustrator 21.1.0, SVG Export Plug-In . SVG Version: 6.00 Build 0)  -->
<svg version="1.1" id="Layer_1" xmlns="http://www.w3.org/2000/svg" xmlns:xlink="http://www.w3.org/1999/xlink" x="0px" y="0px"
	 viewBox="0 0 50.2 50.2" style="enable-background:new 0 0 50.2 50.2;" xml:space="preserve">
<g>
	<path d="M40.9,29.2c0.5,0.9,0.6,1.6,0.2,2.3c-0.1,0.1-0.3,0.3-0.7,0.7c-0.6,0.5-0.9,0.8-1.1,0.9c-0.5,0.3-1,0.3-1.5,0.1
		c-0.2,1.5-0.4,2.4-0.8,2.8c0.7,0.2,1.1,0.9,1.2,2c1.4,0.3,2.2,0.7,2.4,1c-0.4,0.5-1,0.7-1.9,0.8c-0.9,0.1-1.5-0.1-2-0.6
		c-0.1,0-0.1,0-0.2,0c-0.1,0.1-0.1,0.1-0.2,0.1c-0.4-0.1-1-0.5-1.6-1.1c-0.1,0.1-0.1,0.2-0.1,0.3c0,0.2,0,0.3,0,0.3
		c-0.5-0.6-0.8-1.7-0.8-3.3c0-0.4,0.1-1,0.3-1.8c0.3-1,0.4-1.5,0.4-1.5c0-0.2-0.2-0.3-0.5-0.3c-0.1,0-0.2,0-0.3,0
		c-0.2,0-0.3,0-0.3,0c-0.1-0.1-0.2-0.2-0.3-0.3c-0.1-0.2-0.2-0.3-0.3-0.4c-0.2,0-0.4,0.1-0.8,0.1c-0.3,0.1-0.6,0.1-0.8,0.1
		c-0.6,0-1-0.1-1.3-0.5c-1.2-0.2-2.2-0.6-2.8-1.2c-0.1,0-0.1,0-0.2,0.1c0,0.1-0.1,0.1-0.1,0.1c0.1,0.1-0.2-0.1-0.7-0.4
		c-0.3-0.2-0.4-0.4-0.5-0.6c-0.4-0.3-0.7-0.6-0.7-1c-0.1,0.1-0.1,0.2-0.1,0.5c0,0.3,0,0.5-0.1,0.5c0.3,0.6,0.4,0.9,0.4,1
		c0,0.1,0.1,0.1,0.2,0.1c0.1,0,0.2,0.1,0.2,0.1c0.1,0.1,0.1,0.3,0.1,0.6c0,0.2,0.1,0.4,0.2,0.5c0,0-0.1,0.2-0.2,0.5
		c0,0.1,0,0.1,0.1,0.1c0.1,0,0.1,0.1,0.1,0.1c-0.1,0.6-0.6,1.4-1.7,2.5c0.1,0.1,0.3,0.3,0.7,0.6c0.4,0.3,0.6,0.5,0.6,0.8
		c0,0.4-0.2,0.8-0.8,1.2c-0.6,0.4-0.9,0.8-1,1.2c0,0.2,0,0.4,0.1,0.6c0.1,0.3,0.2,0.5,0.2,0.7c0.2,1.2-0.7,2.2-2.5,3
		c0-0.1,0-0.1,0-0.2c0-0.1,0-0.1,0-0.2c-0.5-0.2-1.1-0.2-1.7-0.1c-0.6,0.2-1.1,0.4-1.4,0.8c0,0.1,0,0.2,0,0.3
		c0.1,0.1,0.1,0.2,0.1,0.2c-0.5-0.1-0.8-0.7-0.8-1.6c0,0-0.9,0.4-2.7,1.1c0.3,0.8,0.3,1.5-0.3,2.1c-0.5,0.5-1.2,0.8-2.1,0.8
		c0-0.1,0.1-0.3,0.3-0.5c0.2-0.2,0.3-0.3,0.3-0.4c0-0.1-0.2-0.3-0.5-0.8c-0.3,0-0.5,0-0.6-0.2c0,0-0.1-0.2-0.3-0.6
		c0-0.1-0.1-0.2-0.2-0.3c-0.1-0.1-0.2-0.2-0.2-0.3c-0.3-0.8-0.1-1.5,0.4-2.3c-1-0.3-1.5,0.5-1.2,2.5c0.1,0-0.2-0.3-0.9-0.8
		c0,0.2,0,0.3,0.1,0.6c0.1,0.3,0.1,0.5,0.1,0.6c-0.5-0.1-0.9-0.6-1-1.3c-0.1-0.5,0.1-0.9,0.4-1.3c0.4-0.5,0.7-0.8,0.7-0.9
		c0-0.2,0-0.5-0.2-0.8c-0.2-0.3-0.3-0.6-0.2-0.8c0.1-0.3,0.4-0.6,1-0.9c0.5-0.3,0.8-0.8,0.7-1.3c0,0.1-0.1,0-0.3-0.2
		c-0.2-0.4-0.3-0.9-0.2-1.4c0.1-0.5,0.3-0.9,0.6-1c0.7-0.3,1.5-0.7,2.2-1.2c0-0.1,0.1-0.3,0.3-0.6c0.1-0.2,0.2-0.4,0.2-0.6
		c0-0.2,0-0.7-0.2-1.5c-0.1-0.7-0.1-1.2,0.1-1.5c0.2-0.4,0.8-1,1.8-1.7c0.3-0.3,0.8-1,1.3-2.2c0,0-0.1-0.1-0.2-0.1
		c-0.1,0-0.2,0-0.2,0c0-0.3,0.2-0.7,0.4-1c0.2-0.4,0.4-0.7,0.4-0.9c0.1-0.6,0.1-1.3-0.2-2.2c-0.3-1-0.4-1.7-0.3-2
		c0-0.8,0.4-1.9,1.2-3.3c0.8-1.3,1.1-2.4,1.1-3.4c0.1-0.1,0.2-0.3,0.3-0.6c0.2-0.3,0.3-0.5,0.3-0.6c0.3-0.4,0.7-0.7,1.1-0.8
		c-0.1,0.3-0.3,0.7-0.8,1.4c-0.4,0.5-0.6,1-0.6,1.5c0,0.3,0.1,0.7,0.3,1.3c0.2,0.6,0.4,1.1,0.4,1.5c0,0.1,0,0.3,0,0.5
		c0,0.2,0,0.4,0,0.5c0,0.1,0.1,0.2,0.1,0.3c0.1,0.1,0.1,0.2,0.1,0.2c0.4,0.9,0.2,1.8-0.4,2.8c-1,1.6-1.5,2.4-1.5,2.4
		c-0.2,0.6-0.3,1.2-0.3,1.6c0,0.1,0,0.1,0.1,0.2c0,0.1,0.1,0.2,0.1,0.2c0,0.2,0,0.5,0.1,0.9c0,0.3,0.1,0.6,0.1,0.8
		c0.1,0.4,0.4,0.8,0.9,1.2c0.6,0.5,1,0.9,1.2,1.2c0-0.1,0,0.1,0.1,0.8c0.1,0.3,0,0.5-0.1,0.7c-0.1,0-0.2-0.1-0.2-0.4
		c0-0.2-0.1-0.4-0.2-0.4c-0.1,0.1-0.1,0.2,0,0.3l0.2,0.3c0.3,0.9,0,1.6-0.9,2c-0.8,0.4-1.7,0.5-2.5,0.2c0.1-0.1,0.3-0.3,0.6-0.4
		c0.3-0.1,0.5-0.2,0.6-0.3c0.4-0.4,0.5-0.9,0.4-1.6c-0.1-0.6-0.3-1.2-0.7-1.7c0.1-0.1,0.1,0.5-0.1,1.9c0,0.3-0.1,0.6-0.3,0.9
		c-0.1,0.1-0.3,0.3-0.7,0.4c-0.3,0.2-0.6,0.3-0.7,0.4c0,0.1-0.1,0.2-0.1,0.3c0,0.2,0,0.3-0.1,0.3c-0.2,0.7-0.6,1.3-1,1.9
		c-0.6,0.9-1,1.4-1.2,1.7c0,0.8,0.1,1.3,0.4,1.4c0.3-1.1,0.6-1.8,0.9-2c0.1,0,0.2-0.1,0.3-0.2c0.1-0.1,0.2-0.1,0.3-0.2
		c0.1-0.1,0.1-0.3,0.2-0.5c0.1-0.2,0.1-0.4,0.2-0.5c0.4-0.7,0.8-1.2,1.3-1.4c2.4-0.8,3.5-1.1,3.3-0.8c0.5-0.7,0.6-1.7,0.4-3.1
		c-0.1-0.1-0.1-0.2-0.2-0.4c-0.1-0.2-0.1-0.3-0.2-0.4c-0.1-0.1-0.1-0.2-0.2-0.3c-0.1-0.1-0.2-0.3-0.3-0.3c-1-1.5-1.4-2.9-1.3-4.2
		c0.1-0.7,0.4-1.4,0.9-2.1c1-1.1,1.4-1.7,1.4-1.6c0.3-0.5,0.3-1.2,0.1-2.1c-0.4-1.3-0.6-2-0.6-2.1c-0.1-1.2,0-2.2,0.4-2.8
		c0.1-0.2,0.4-0.5,0.9-1c0.4-0.4,0.7-0.8,0.9-1.1c0.1,0,0.4-0.1,0.7-0.3c0.3-0.1,0.5-0.2,0.7-0.3c0,0.1,0,0.2,0,0.3
		c0,0.1,0,0.2,0,0.3c0.2-0.2,0.6-0.5,1.4-0.8c0.7-0.3,1.1-0.7,1.3-1c0.4-0.2,0.6-0.3,0.7-0.5c-0.5-0.1-1.3,0.1-2.4,0.5
		c0-0.3,0.2-0.6,0.6-0.8C26.1,6.2,26.4,6,26.4,6c-1.1,0.1-2.3,0.5-3.4,1.1c0.4-0.8,1.7-1.5,3.8-2c0.1,0.1-0.4-0.1-1.5-0.3
		c0.4-0.3,1-0.5,2-0.5c0.3,0,0.7,0.1,1.2,0.2c0.5,0.1,0.9,0.2,1.1,0.2c0.2,0,0.5,0,0.8-0.1c0.4-0.1,0.7-0.1,0.8-0.1
		c1.4-0.1,2.4,0.1,3.1,0.7c0.4-0.4,0.9-0.6,1.3-0.5c0.6,0.1,1,0.5,1.2,1.2C36.9,6.3,37,7,37,8c-0.3-0.1-0.5-0.1-0.6-0.1
		c-0.3-0.1-0.5-0.4-0.8-0.7c-0.3-0.4-0.5-0.7-0.7-0.8c0,0,0,0,0,0.1c0,0.1,0,0.1-0.1,0.1c-0.6-0.2-1-0.3-1.1-0.3
		c0,0.1,0.1,0.3,0.3,0.5c0.2,0.2,0.2,0.3,0.3,0.5C33.8,7.1,32.5,7,30.6,7c0-0.1,0.3-0.3,0.9-0.6c0.1-0.1,0-0.1,0-0.1
		c-0.1-0.1-0.1-0.1-0.1-0.2c0.1-0.1,0.5-0.3,1.2-0.6c-0.4,0-0.9,0.1-1.4,0.4c-0.6,0.3-1.1,0.5-1.4,0.6c0,0.2-0.1,0.3-0.2,0.4
		c0.1,0,0.2,0,0.4,0.1c0.2,0,0.3,0.1,0.3,0.1c-0.4,0.2-1.3,0.4-2.8,0.9c-0.1,0-0.3,0.1-0.6,0.1c-0.2,0-0.4,0.1-0.5,0.1
		c-0.5,0.2-0.9,0.7-1.1,1.3c-0.1,0.3,0,0.7,0.2,1c0.1,0,0.3,0,0.5,0c0.3,0,0.5,0,0.6,0c0,0.1,0,0.2-0.1,0.3
		c-0.1,0.1-0.1,0.2-0.1,0.3c0.1,0,0.2,0,0.3,0c0.2-0.1,0.3-0.1,0.3-0.1c0,0.1,0,0.3-0.1,0.4c-0.2,0.2-0.2,0.3-0.3,0.4
		c0.1,0,0.3,0,0.4-0.1c0.2-0.2,0.3-0.2,0.4-0.2c0.1,0.3,0,0.6-0.2,1c-0.3,0.4-0.4,0.7-0.4,0.8c0,0.1,0.1,0.2,0.2,0.2
		c0.2,0.1,0.2,0.1,0.3,0.2c-0.5,0.6-0.7,1-0.7,1.1c0,0.1,0.1,0.3,0.3,0.5c0.2,0.2,0.2,0.4,0.2,0.5c0,0.2,0,0.3-0.2,0.6
		c-0.2,0.3-0.2,0.5-0.2,0.6s0.1,0.3,0.3,0.6c0.2,0.3,0.2,0.6,0.2,0.8c0,0.2-0.1,0.5-0.3,0.8c-0.2,0.3-0.3,0.6-0.3,0.8
		c-0.1,0.4,0,1,0.1,1.8c0.1,0.8,0.7,1.3,1.7,1.7c0.1,0,0.1,0,0.2-0.1c0.1-0.1,0.2-0.1,0.2-0.1c0.1,0,0.1,0.1,0.1,0.3
		c0.1,0.1,0.1,0.2,0.1,0.3c0.1,0,0.2,0,0.2-0.1c0.1-0.1,0.1-0.1,0.2-0.1c0.1,0.1,0.2,0.2,0.3,0.1c0.2-0.1,0.3-0.1,0.3-0.1
		c0.2,1,0.8,1.6,1.8,1.8c0,0,0.1,0.2,0.2,0.3c0.1,0.2,0.2,0.3,0.3,0.3c0.1,0,0.1,0,0.2-0.1c0.1-0.1,0.1-0.1,0.2,0
		c0.5,0.6,0.9,0.9,1.1,1c0.3-0.2,0.5-0.6,0.8-1.1c0.3-0.6,0.6-0.9,0.8-1.1c-0.1,0.1,0.4-0.1,1.5-0.5c0,0,0.1-0.1,0.3-0.2
		c0.1-0.1,0.2-0.1,0.3-0.1c0,0,0.2,0.1,0.7,0.4c0-0.1,0.2-0.2,0.4-0.2c0.2,0,0.3-0.1,0.4-0.2c-0.5-0.3-0.5-0.7-0.2-1.1
		c0.3-0.3,0.7-0.5,1.2-0.6c0,0.1,0,0.1-0.1,0.2c-0.1,0.1-0.1,0.1-0.1,0.2c0.1,0.5,0.1,1.2,0,2.1c-0.1,0.9,0,1.6,0,2.1
		c0,0.2,0.2,0.6,0.4,1.2c0.2,0.5,0.3,0.7,0.3,0.7S40.9,28.9,40.9,29.2z M15.7,38.8c0.8-0.5,1.1-1,1.1-1.6c0-0.3-0.2-0.6-0.6-1
		c-0.4-0.4-0.6-0.7-0.6-1c-0.2,0.3-0.1,0.7,0.1,1c0.3,0.4,0.5,0.7,0.5,0.9c0,0.2,0,0.5-0.2,0.8C15.8,38.3,15.7,38.6,15.7,38.8z
		 M25.8,21.4c0,0,0.2-0.1,0.5-0.3c0.2-0.1,0.3-0.3,0.2-0.6h-0.1c0-0.1-1.1,0.7-3.5,2.2c0,0.8,0.3,1.4,0.9,1.9c0.6,0.5,1.2,0.6,2,0.3
		c0-0.2,0.1-0.4,0.3-0.7c0.2-0.2,0.3-0.5,0.3-0.7c0-0.2-0.1-0.5-0.4-1C25.7,22,25.6,21.7,25.8,21.4z M36.4,15.1
		c-1.4-0.1-2.5,0-3.2,0.3c-0.2,0.1-0.4,0.2-0.7,0.4c-0.4,0.2-0.6,0.4-0.7,0.4c-0.6,0.3-1.1,0.4-1.7,0.2c0-0.1,0.6-0.5,1.6-1.2
		c0.9-0.6,1.6-1,2-1c0.2,0,0.5,0,1-0.1c0.5,0,1,0,1.3,0.1C36.4,14.4,36.6,14.7,36.4,15.1z M36.6,18.1c0.2-0.9-0.1-1.5-0.9-1.8
		c0,0,0,0.2,0.1,0.6c0.1,0.3,0,0.4-0.1,0.5c0,0-0.1-0.2-0.2-0.6c-0.1-0.3-0.2-0.4-0.3-0.4c0.1,0.3,0,0.6-0.3,0.8
		c-0.3,0.3-0.5,0.3-0.8,0c0-0.1,0.1-0.1,0.2-0.2c0.1-0.1,0.2-0.1,0.1-0.3c0-0.1-0.1-0.2-0.3-0.2c-0.2,0-0.4,0-0.4-0.1
		c-0.2,0.1-0.5,0.3-0.9,0.6c-0.3,0.3-0.6,0.4-0.9,0.5c0.1-0.6,0.6-1.1,1.6-1.4c0.6-0.2,1.4-0.3,2.5-0.2c0,0,0,0.1,0.1,0.3
		c0.4,0,0.7,0.3,0.8,0.8C37,17.5,36.9,17.9,36.6,18.1z M39,28c0.1,0,0.3,0.1,0.6,0.3c0.2,0.2,0.4,0.2,0.6,0.3
		c-0.5-1-0.8-1.6-0.8-1.6c0-0.1,0.1-0.3,0.1-0.4c0.1-0.2,0.1-0.3,0.1-0.4c-0.4-0.4-0.6-0.6-0.5-0.5c-0.2-0.2-0.5-0.2-0.8-0.1
		c0,0,0-0.1-0.1-0.2c0-0.1-0.1-0.2-0.1-0.2c-0.1,0.3-0.2,0.5-0.3,0.5c-0.1,0-0.1,0-0.2,0c-0.1,0-0.2,0-0.2,0
		c-0.1,0.1-0.3,0.2-0.5,0.3c-0.3,0.1-0.4,0.2-0.5,0.2c1.8,0.4,2.7,0.4,2.7,0c0,0.2-0.2,0.3-0.6,0.3c-0.4,0-0.7,0.1-0.8,0.3
		c-1-0.1-1.6-0.1-1.7-0.1c-0.5,0.5-1,0.9-1.3,1.2c0,0.1,0,0.2,0.1,0.3c0,0.1,0,0.3,0,0.4c0.3,0.1,0.4,0.2,0.4,0.5
		c0.2,0,0.3,0,0.4-0.1c0.2-0.1,0.3-0.1,0.3-0.1c0.1,0,0.1,0.1,0.1,0.2c0,0.1,0,0.2,0.1,0.2c0.1,0,0.2-0.1,0.4-0.2
		c0.1-0.1,0.3-0.2,0.3-0.2c0.3,0.2,0.5,0.1,0.8-0.2c0.3-0.4,0.5-0.7,0.6-0.7c0.1,0,0.2,0.1,0.3,0.3c0.1,0.2,0.2,0.3,0.4,0.3
		c0,0,0-0.1,0.1-0.3C38.8,28.1,38.9,28,39,28z M36.9,22.8c0.1-0.3,0.3-0.4,0.8-0.4c0.5,0,0.7,0.2,0.8,0.5c0,0-0.3,0-1,0
		c-0.1,0-0.2,0-0.4,0.1C37,23,36.9,23,36.8,23c-0.4-0.1-0.5-0.3-0.5-0.8c0-0.4,0.2-0.7,0.6-0.8c-0.2,0.1-0.3,0.4-0.3,0.7
		C36.5,22.5,36.6,22.7,36.9,22.8z M37.5,27.5c0.1-0.2,0.6-0.4,1.5-0.4c0,0.3-0.2,0.5-0.6,0.6C38,27.8,37.7,27.7,37.5,27.5z M38,18.5
		c0,0,0.2,0.4,0.6,1.2C38.3,19.3,38.1,18.9,38,18.5z M38.3,17C38.2,17,38.2,17,38.3,17c-0.1,0-0.2-0.1-0.2-0.1
		c0-0.2,0.1-0.4,0.3-0.6c0.2-0.2,0.3-0.2,0.4,0.1c0,0.1-0.1,0.2-0.2,0.3C38.4,16.8,38.3,16.9,38.3,17z M38.6,17.7
		c0.2,0.2,0.5,0.7,0.9,1.7C39.4,19.3,39.1,18.7,38.6,17.7z M38.8,17.1c0,0.1,0.1,0,0.3-0.2c0.1,0,0.1,0.1,0.1,0.2
		C39,17.1,38.9,17.1,38.8,17.1z M39.7,16.6c-0.3,0.2-0.5,0.1-0.6-0.2c-0.1-0.2-0.1-0.5-0.1-0.9c0,0,0.1-0.1,0.3-0.3
		c0.1-0.2,0.3-0.3,0.3-0.4c0.3-0.3,0.6-0.3,0.8-0.1c0,0.1,0,0.1,0,0.2c-0.6,0.2-0.9,0.4-1.1,0.7c0.1,0.2,0.3,0.2,0.7,0.3
		c0,0.1,0,0.1-0.1,0.1c-0.2,0-0.3-0.1-0.2-0.1c0,0.1,0,0.2,0.1,0.3C39.7,16.4,39.7,16.5,39.7,16.6z M39.2,23.2
		c-0.1,0.2,0,0.4,0.2,0.5c0,0,0.1,0.1,0.3,0.2c0.1,0.1,0.2,0.1,0.2,0.2c0.1-0.6,0.1-1,0.1-1.3C39.5,22.8,39.3,22.9,39.2,23.2z
		 M40,15.4c-0.1-0.1-0.1-0.2,0-0.3c0.1-0.1,0.2-0.1,0.3,0C40.3,15.3,40.2,15.4,40,15.4z"/>
</g>
</svg>
