<?xml version="1.0" encoding="utf-8"?>
<!-- Generator: Adobe Illustrator 21.1.0, SVG Export Plug-In . SVG Version: 6.00 Build 0)  -->
<svg version="1.1" id="Layer_1" xmlns="http://www.w3.org/2000/svg" xmlns:xlink="http://www.w3.org/1999/xlink" x="0px" y="0px"
	 viewBox="0 0 825 825" style="enable-background:new 0 0 825 825;" xml:space="preserve">
<style type="text/css">
	.st0{fill:#FFFFFF;}
</style>
<path d="M398,79.2c29.1-1.5,58.5,0.3,87.1,6.2c39,7.9,76.4,23.9,109.3,46.3c30.9,21.1,58.3,47.1,81.4,76.4
	c24.2,30.8,43,65.9,54.5,103.3c10.3,32.8,15,67.2,15.4,101.5c0.4,34.5-4,69.2-14.4,102.2c-12.3,40-33.5,77-60.5,108.9
	c-25.1,29.4-54.3,55.4-87.2,75.8c-34.9,21.6-74.1,36.2-114.6,42.4c-38.4,5.7-77.7,5.4-116-0.9c-38.5-6.3-75.9-19.8-109.4-39.9
	c-34.5-20.5-64.6-47.9-90.3-78.7c-26.4-31.6-47.4-68-59.9-107.3c-15.6-48-17.7-99.5-11.6-149.4c5-39,16.6-77.3,35.2-112.1
	c14.9-28,34.3-53.6,56.6-76.2c25.7-26.2,55.6-48.5,88.6-64.7C304.4,92.1,351.1,81.5,398,79.2z"/>
<path class="st0" d="M359.3,174.3c30.7-20.2,61.2-40.6,91.9-60.9c44.1,5.4,86.1,22.5,124.2,45c-14.8,11.3-30.8,20.8-46.9,30.1
	c-14.9,8.9-29.9,17.7-44.8,26.5c19.5,2.5,39,6.3,57.1,14.4c9.7,4.3,18.7,10.2,26,18c24.5-8.7,44.9-25.5,64.5-42.1
	c27,27,47.2,60.2,60.8,95.8c16.2,42.2,24.2,87.9,20.6,133c-1.4,17.7-4.4,35.3-9.1,52.5c-2.1-2.2-4.4-7.1-8-5.1
	c-8.6,5.3-14.2,13.9-21,21.2c-5.9,5.9-15.4,10-23.4,6.2c-11.4-3.9-22.9-7.2-34.4-10.8c-11.7-3.8-26-3.8-35.4,5.1
	c6.1-0.4,13.1,0.2,17.4,5.1c6.4,7.2,6.5,17.8,3.9,26.7c3.8,3.7,9.2,8.3,7.1,14.3c2.9,5.9,6.1,12.3,4.8,19.2c4.2,5.6,6,12.7,5.6,19.5
	c-0.2,3.3-1.7,6.2-3.7,8.8c3.3,2.5,6.1,7.1,4.2,11.3c3.7,0.3,8.2,1.9,9.2,5.9c1.8,4.5-0.8,9.7-5.1,11.7c-4.3,0.9-8.6,1.7-12.6,3.6
	c-11,5.1-19.1,14.6-25.1,24.9c-1.4,2.2-2.2,5-4.8,6.3c-15.5,9.8-31.1,19.7-48.3,26.2c2.8-11.7,4.2-23.7,5.9-35.6
	c0.9-7.8,2.3-15.6,5-23.1c1.6-4.6,3.8-9.2,7.3-12.6c6.1-6.1,13-11.1,19.9-16.3c4.1,3,3.6,8.6,3.6,13.1c3.5-2.7,6.2-6.3,8.8-9.9
	c-1.5-4.7-6.1-7.1-10.4-8.6c-4.8-1.7-9.8-3.9-12.7-8.4c-2.3,2.2-5.1,4.2-8.4,4.5c-4.2-0.3-7.9-3.2-10-6.8
	c-2.7-4.7-4.7-10.3-3.6-15.8c0.9-3.5,3.3-6.2,6.1-8.3c-2.2-5.3-3.2-11.3-1.6-16.9c2.6-9.5,9.5-17,16.6-23.5
	c5.4-4.8,11-9.6,16.9-13.8c0.5-10.5-0.4-20.9-0.9-31.4c2.3,2.7,3.9,6.1,6.7,8.4c1.6-11.4,4.4-22.6,7.2-33.7
	c2.2,9.8,5.1,19.5,6.1,29.6c-0.9-14.1,0.6-28.5,3.8-42.2c2.1,2,3.3,4.7,4.3,7.4c5.3-8.5,2.1-18.9,2.4-28.2c-4.7,0.8-7.8,4.9-12.3,6
	c-5-1.1-6.2-6.9-10.1-9.5c-1.9-1.2-3.7,0.8-4.7,2.2c-6,8.1-9.5,17.7-15.4,25.9c5.7-1.8,10.8-5.1,16.6-6.4
	c-7.7,7.2-14.4,15.4-20.9,23.7c-4.8-2.8-8.8-7.3-9.1-13.1c-9.1,14-16.3,29.2-23.9,44c-4.4,8.6-8.5,17.3-12.8,25.9
	c-5,0.3-9.4-2.8-12.3-6.6c-2.9-3.9-5.6-7.9-8.7-11.6c0.4-2,0.6-4.1,0.4-6.1c-1.3-2.2-5.2-1.1-5.7,1.3c-0.8,3.5,0,7.1-0.4,10.7
	c-4.6,0-7.2-4.4-11.2-5.8c-6.1-1.3-12.4,0.5-18.5-0.6c-4.7-0.8-7.3-6.1-12.1-6.4c-6.7,1.5-11.9,6.3-17.1,10.5
	c-9.3-3.6-11-14.9-11.9-23.6c2.6-1,5.3-1.7,8-2.5c-1.5-11.4-2-23.5,2.3-34.3c5.5-2.7,11.1-5.1,16.8-7.4c-0.9-6.5,0.2-13.1,2.4-19.2
	c2.4-7.4,6.9-14,8.3-21.7c0.8-4.4,0.7-9-0.8-13.1c-15.5,7.3-27.5,20.1-38.3,33.1c-6.5,7.5-12.9,15.2-19.6,22.6
	c15-29.4,38.6-55.2,68.9-69.1c5.5-2.6,11.2-4.8,17.1-6.5c2.4,11.1-2.7,21.9-6.5,32.1c5.2-4.4,10.1-9.2,14.5-14.4
	c0.3,3.2,0.9,6.5,1.6,9.6c5.3-7.7,7.9-16.9,13.1-24.7c-13.5-16.3-26.8-32.8-39.7-49.5c-4.7-6.2-9.5-12.4-13.3-19.2
	c-4.7,3-9.1,6.4-13.7,9.4c2-4,4.4-7.8,6.1-11.9c1.9-5,0.4-10.6-2.1-15.2c-5-8.7-10.3-17.2-15.3-25.8c-5.5-9.4-13.9-16.9-23.5-22
	c-3.1-8.2-7.4-15.9-10.5-24.2c-1.8,12.3-1.7,25.9,4.8,36.9c-5.7-1-11.2-2.5-16.8-3.8c3.9,5.1,8.5,9.6,13,14.1
	c-2.5,2.8-5.4,5.3-8.7,7c-0.8-2.4-1.5-4.9-2.2-7.3c-6,7-3.2,16.8-5,25.1c-0.3,5.9-5,10.1-9.2,13.8c-13.5,10.9-29.2,18.5-42.8,29.1
	c-10.5,8.8-20.1,18.9-31.8,26.2c-10.7,6.4-23.5,7.9-35.7,6.7c3.3,7.9,12.6,9.7,20.1,10.8c-2.9,2.9-6.4,5.2-10.3,6.5
	c-12.9,4.7-26.9,4.6-40.4,6.2c-6.2,0.7-12.5,1.3-18.7,2.4c-3.9,0.5-6.7,3.5-10.1,5.2c-9.7,5.4-19.1,12.4-30.3,14.2
	c-3.8,0.8-7.6,0.8-11.4,0.5c4.7,2.5,9.7,4.5,14.7,6.5c3.1,1.2,6.4,3.3,7.2,6.8c0.7,2.1-0.3,4.2-0.8,6.3c-5.3-1.5-8.4-6.7-13.3-9
	c-5.2,9.5-11.4,18.5-17.6,27.4c-3.1-0.9-6.1-1.8-9.2-2.2c1.7,3,4.8,4.9,6.9,7.6c-7.9,14.8-16.5,29.2-24.9,43.8
	c-14.3-43.7-12.5-91-2.7-135.4c0.8-2.3,0.3-5.5,2.9-6.8c52.6-36.1,105-72.7,158-108.4c-12.8-21.8-25.5-43.6-38.8-65
	c15.4-12.6,33.3-21.9,51.5-29.9c12-5,24-10.1,36.5-13.8C338.6,139.6,348.9,157,359.3,174.3z"/>
<path class="st0" d="M422.4,118.5c-18.1,13.6-37.7,24.9-56.2,37.9c-8.5-9.8-15-21.1-22.4-31.8c3.1,2.1,5.8,4.6,8.2,7.4
	c4.8,5.5,9.8,10.9,14.5,16.6C385.2,138.5,403.9,128.8,422.4,118.5z"/>
<path class="st0" d="M509,212c19-13.7,39.4-25.3,59-38.2c-14,13.1-31.4,22.2-44.4,36.4c15.1,4.5,29.9,11.3,41.4,22.4
	C548.1,221.7,528.9,214.4,509,212z"/>
<path class="st0" d="M230.8,177.2c4.8,5.8,8.2,12.6,11.9,19.1c5.9,10.3,11.7,20.6,17.8,30.8c-40.4,25.8-80.3,52.5-119.8,79.9
	c34.2-29.7,72.5-54.3,107.8-82.7C243.1,208.4,237.2,192.7,230.8,177.2z"/>
<path d="M410.4,194.9c3.5,7,6.6,14.1,9,21.6c8.6,1.1,18-0.8,24.1-7.3c1.4,4.8-2,9.4-1.3,14.3c9,1.5,18.1,3.8,27.3,2.6
	c-0.5-2.2-2.7-3.2-4.1-4.8c18.1-0.7,36.5,2.2,52.9,10c14.6,7,27,18.9,34,33.6c3.3,6.8,5.6,14,7.1,21.4c0.2,2.2,2.5,3.2,3.7,4.9
	c5.7,6.6,6.5,15.7,7,24.1c-0.3,6.8-1.2,13.5-3.4,20c-1-1.3-2.2-2.5-2.7-4.1c-2.1-6.9-0.8-14.1-0.2-21.1c-4.6,4.2-8.3,9.2-12,14.2
	c-3.8-1.9-7.5-3.9-11.1-6c0.4-2.9,1-5.7,1.2-8.6c-3.3,0.1-6,2.1-8.2,4.3c-7-3.9-13.2-9.1-19.5-14c-5.1-3.9-9.9-8.4-15.7-11.2
	c-7.2-3.8-15.5-5.1-23.6-5c-1.3-4-2.2-8.2-3-12.4c-5.6,3.2-11.1,7-15.7,11.7c2-9.9,2.7-20,3.8-30c-4.1,3.7-6.8,8.7-9.8,13.2
	c-8.6-8.2-18-18.3-17.3-31.1c-6.2-7.6-15.1-12.1-22.4-18.4C410.4,209.3,410.4,202.1,410.4,194.9z"/>
<path d="M584.4,265.9c15.8-10,32.3-19.7,45-33.7c29.2,26.1,48.4,61.9,59.2,99.2c6.6,23,10.4,46.8,11.1,70.6c0.6,7.6,0.5,15.3,0,22.9
	c-0.4,12.5-1.4,24.9-3.3,37.2c-5.2,0.3-10.6,1.8-14.4,5.7c-7.1,6.8-8.2,17.2-14.2,24.7c-2.4,3.5-6.2,6.4-10.7,6.5
	c-18.4,1-34.7-10.5-53-10c-4.7-0.2-9.3,0.8-13.7,2.4c-2.6-5-2.5-10.7-2.7-16.2c5.4,3.6,10.7,7.2,16.6,10
	c-7.4-11.4-6.1-25.8-2.4-38.2c4,0.8,4.9,4.7,4.8,8.2c4.8-5.7,6.6-13.2,8-20.3c1.6-7.5,2.2-15.2,3-22.8c9.2,0.3,18.3,2.3,27.5,3.4
	c-3.2-11.4-9.8-21.3-14.9-31.9c6.7-11.4,15.3-21.4,22.9-32.1c-11.2-0.1-22.5,0-33.7-0.1c2.6-11.9,6.2-23.5,9.6-35.1
	c-6.3,6.1-12.3,13.9-21.7,14.7c-3.3-11.1-6.6-22.1-9.9-33.2C594.5,286.8,588.7,276.6,584.4,265.9z"/>
<path d="M538.3,241.8c14.5,6.9,26,19,34.4,32.5c10.5,16.5,16.5,35.2,22.7,53.5c2.8,8.5,5.4,17,8.1,25.6c2.3-2.4,4.7-4.7,7.2-6.8
	c-0.5,5.5-2.1,10.8-3.4,16.2c6.8,0.3,13.5-1.7,20.3-1.1c-4.9,5.8-10,11.4-15.2,17c5.7,8.3,13.6,15,18.1,24.1
	c-5.6-0.2-10.4-3.9-16.1-3.3c-1.8,5.7-2.4,11.7-2.8,17.6c-3.2-13.2-12.4-24-23.3-31.8c2.1-1,4.5-2.2,6.8-1.2
	c6.3,2.2,10.2,7.9,15.6,11.5c0.2-7.1-3.5-13.9-8.9-18.4c-7.7-6.4-16.7-11-24.4-17.4c-0.5-9.4-1.2-18.9-2.9-28.2
	c6.2,6.1,9.5,14.5,15.6,20.7c-7.7-21.6-14.2-43.6-22.9-64.9C560.2,270.8,551.4,254.5,538.3,241.8z"/>
<path class="st0" d="M404.6,282.1c-4-10.5-6.5-23.4,0.6-33.2c4.9,4.1,4.5,10.8,5.1,16.6c0.7,15,8,30.2,21,38.2
	c6.3,4,13.5,6.1,20.8,7.2c3,5.3,7.1,9.9,9.8,15.4c-7.8,5.4-8,16.1-14.7,22.4c1.9-7.8,1.3-16,3-23.8c-11.9-3.5-24.5-8.1-32.1-18.5
	c-5.2,2.3-6.6,8.6-11.7,10.9C412.4,306.2,408.8,293.1,404.6,282.1z"/>
<path class="st0" d="M411.3,259.8c0.3-1.1,0.6-2.2,1-3.3c4.7,6,10.9,10.6,16.3,15.9c3.5,3.6,6.8,7.9,7.6,13
	c-1.3-0.9-2.5-1.7-3.6-2.8C425.1,275.3,418,267.7,411.3,259.8z"/>
<path d="M465.9,292c8.7-1.6,18-0.4,25.4,4.8c7.6,5.5,14.9,11.6,22.6,17c-8.1,1.2-16,3.4-24,5.1C480.6,311.1,474.6,300.3,465.9,292z"
	/>
<path d="M494.8,327.7c13.2-2.8,27-0.5,39.6,3.6c13.7,4.4,26.7,11.1,39.1,18.2c0.1,5.1-0.1,10.2,0.1,15.2
	c-6.9-11.3-19.5-17.4-31.4-22c-4.7-1.8-9.5-3.3-14.4-4.7c7.9,27,26.9,49.6,49.7,65.5c-3.4,8.4-7.5,16.6-10.4,25.2
	c-1.5-7.2,1-14.4,0.3-21.6c-4.5-4.4-9.4-8.4-14-12.7c-1-1.2-2.4,0.2-3.4,0.7c-5.6,3.4-10.8,7.4-15.6,11.8
	c2.3-7.9,6.4-15.1,10.2-22.4c-3.7-6.8-10.5-11-15.2-17.1c-6.2,6.5-9.4,15.1-15.8,21.3c2.3-9.5,5.2-18.9,7.6-28.4
	c1.5-8.6-0.4-17.9-5.8-24.8c-5-1.2-10.2,0.1-15.2-0.9C497,334,495.7,330.7,494.8,327.7z"/>
<path class="st0" d="M370.9,336.9c8.7-3.8,17.9-6.9,27.5-7.8c-25.3,7.5-46.3,24.3-65.8,41.4c-14.5,12.5-27.8,26.6-43.9,37.1
	c-11,7.1-23.6,12.6-36.9,12.9c26.4-8.2,47.7-26.7,67.4-45.4C334.2,359.8,351.1,345.8,370.9,336.9z"/>
<path class="st0" d="M378.3,377.3c11-14.6,24.4-28.1,41.6-35.1c-16.6,12.1-28.2,29.5-38.8,46.8c-11,18.6-21.9,37.2-33.9,55.2
	c-9.3,14.1-21.5,27.9-38.5,32.4c15.9-12.8,27.2-30.1,37.9-47.1C357.5,412.3,365.9,393.5,378.3,377.3z"/>
<path d="M546.4,361.7c14.2,3.7,28.3,8.8,40.6,16.9c-1.9,6.4-3.4,12.9-5.6,19.2c-1.3-5.1-1.8-10.3-1.6-15.5c-7.3-5-16.3-5.9-24.3-8.9
	C550.6,371.5,546.6,367.1,546.4,361.7z"/>
<path d="M488.6,392.6c6.7-2.4,14.4-3.3,21.1-0.5c9.3,3.7,16,11.9,20.6,20.5c2.1,3.5,3.2,7.5,5.2,11c2.2,2.4,5.5,3.5,8.3,4.9
	c-7.8,11.6-18.6,21.1-24.8,33.8c-2.4-1.4-4.8-2.7-7.2-4c1.2-3.8,2.3-7.5,3.9-11.2c-6.2-5.4-14.9-0.9-21.9-3.7
	c-8-8.1-11.7-20-10-31.3c12.1-3.4,24.1,2.6,35.1,7.1c-0.9-7.5-4.4-15.1-10.8-19.5C502.5,395.5,495.5,393.8,488.6,392.6z"/>
<path d="M585.3,399.8c0.9-2.4,1.8-4.8,2.7-7.2c5.7,4.7,9.7,11,14.8,16.2c-1.7,2.1-3.2,4.3-4.3,6.8
	C594.6,409.9,589.7,405,585.3,399.8z"/>
<path class="st0" d="M166,419.1c2.7-3.2,7.4-2.4,10.8-0.8c-4.5,5.3-9.8,10.5-16.7,12.4C162,426.8,163.7,422.8,166,419.1z"/>
<path class="st0" d="M495,419.4c8.9-0.1,20.5-0.4,25.9,8.1c-1.3,3.5-3.1,6.7-4.6,10.1c-6.1-1.7-12.5-4.2-16.6-9.4
	C497.5,425.7,496.2,422.6,495,419.4z"/>
<path class="st0" d="M181.8,437.9c6.8-2,14.6-3,20.9,0.7c0.1,3.7-0.3,7.5-2.5,10.6c-3.1,4.5-8.9,6.4-14.2,6.7
	c-6.8,0.8-13.6,0.5-20.4,0.5c12.6,6,26.1,11.5,40.3,10.7c11.8-0.9,21.8-7.9,32.7-11.7c2,5.1,1.9,11.3-1.5,15.8
	c-3.6,5.5-10,8.3-16.4,8.4c6.5,5.2,14.6,9,23.1,8.4c5.3-0.6,10.9-1.6,15.2-5c4-2.9,7-7.5,12.1-8.5c3.6-0.9,6.8,1.8,9.2,4.2
	c10.3,11.8,12.7,28.4,22.7,40.4c2.8,3.3,6.6,6.5,11.2,6.3c7.3,0,13.1-5.2,17.8-10.2c7.5-8.3,12.5-18.4,18.1-28
	c6.8-11.8,13.5-23.8,20.2-35.7c6.4-4.7,14.8-6,20.7-11.5c-0.7,7.5-1.9,17.2-9.7,20.7c-1.2,6.1,0.5,12.3,1,18.5
	c-5,3.4-8.1,9.1-8.6,15.1c-0.6,8,0,16.6,4.5,23.6c2.1,3.3,5.6,5.4,9.1,6.8c-0.1,6,0,12.1-0.1,18.1c3.9,0.5,7.9,1,11.8,1.8
	c3.7,12.7,8.7,25,12.3,37.8c3.1-0.1,5.7-2,8.3-3.4c1.2,3.7,2.1,7.4,3.1,11.1c2.1-3,4.7-5.6,7.4-8.1c2.8,2.2,5.5,4.7,8.7,6.4
	c0.4-7.5-0.1-15.2,2.3-22.4c5.2,8.3,7.7,18.7,5.4,28.4c-4.3,20-9.6,39.8-13,60c-3.7,19.6-6.9,39.3-11.5,58.6
	c-10.8,2.2-21.7-1-32.6-0.1c-14.5-39.5-23.7-80.9-40.1-119.7c-7.6-17.4-16.7-34.4-29.1-48.9c-2.3-3-6.4-3.5-9.2-5.8
	c-12.8-8.7-19.6-23.1-29.7-34.4c-5-5.5-11-10.3-18.1-12.6c0.8,4.5,3.4,8.2,5.7,12c16.6,36.6,34.4,72.7,51.8,109
	c15.5,32.2,31.3,64.2,46.6,96.5c-10.8,0.8-21.1-3.3-31.6-5.5c-9.7-9.9-16.3-22.2-23.8-33.8c-6.5-9.9-12.3-20.3-20.1-29.2
	c-11.6-13.6-23.8-26.8-35.9-40c-11.4-12-21.6-25.1-32.6-37.4c-13.1-14.9-26.5-30-43.4-40.7c-10.1-6.3-21.7-11.2-33.8-10.6
	c-5.6,0-10.9,1.7-16,3.6c-2.3-3.6-4.1-7.8-3.8-12.2c0.2-6.3,2.9-12.3,6.1-17.7c8.5-13.9,14.8-29,21.7-43.8
	C163.4,443.9,172.9,440.7,181.8,437.9z"/>
<path d="M363.3,467.3c3.8-8,11.9-14.6,21.2-13.7c-2.7,1.7-5.5,3-8.2,4.6c1.1,7,1.7,14,2.9,21c-4.9,3.2-9.1,7.4-14.4,10
	c5.2,9.8,6.5,21.2,5.4,32.2c3.4,1.3,6.8,2.5,10.2,3.6c0.1,9.1-2.5,18-2.3,27.1c4.8-0.2,9.5-0.8,14.1-2.1c5,13.6,7.9,27.8,11.2,41.9
	c3.6-1.5,7.3-2.8,10.9-4.3c2.7,5.1,1.8,11.1,4,16.3c3.8-3.6,6.8-8,9.9-12.2c-5.1,22.6-9.5,45.4-12.8,68.4
	c-1.9,14.4-3.5,28.8-3.3,43.3c-6.9,1.6-14.1,2.4-21.2,1.5c-12.1-40.5-25-80.9-40.8-120.1c-7.4-17.8-15.1-35.7-26.1-51.7
	c7.9-5,13.5-12.7,18.2-20.6C351.2,498.3,356.1,482.3,363.3,467.3z"/>
<path class="st0" d="M427.5,511.4c7.3-2.2,10.7-10.9,18.5-11.7c0.8,0.1,2.5,0.2,3.4,0.3c-0.6,1.7-1.1,3.3-1.7,5
	c8.9,2.6,18.5,5.2,25.3,11.9c3.4,3.2,4.6,8.2,2.8,12.5c-4-1.4-7.1-4.4-10-7.3c-6.3,3.6-7.2,11.5-8.7,17.8c-4.4-0.3-8.7-2-13.1-1.5
	c-3.2,3.8-1.6,9.5-2.6,14.1c-2.1-0.4-4.2-0.9-6.3-1.4c0.8-4,2-7.8,3.1-11.7c-3.2,0.2-5,3.5-8.2,3.8c-3.9-6.1,1.6-12,4.4-17.2
	c-2.4-2.5-5.3-4.4-8.1-6.4C426.5,516.9,427.3,514.2,427.5,511.4z"/>
<path class="st0" d="M511,545.3c7.2-9.8,13.2-20.5,20.8-30.1c2.1,4.1,2.7,8.7,4.6,12.9c-9.9,12.7-12.7,29.3-12.5,45
	c0.2,11.7,3.3,24.6,13.4,31.7c-7.5,8.7-11.3,19.8-14.1,30.8c-4.3,18.1-6,36.7-6.7,55.2c-7.6,2.2-15.3,4.6-22.8,7.1
	c1.5-22.9,2.7-46,0.2-68.9c-2-14.8-5.6-30-14.7-42.1c-4.4-5.9-10.5-10.3-17.2-13.1c6.4-10.5,14.3-20.8,25.5-26.4
	C494.7,543.5,503.3,543.1,511,545.3z"/>
<path d="M565.2,533.2c6.2-5.2,13.3-10.9,21.8-10.5c5.7,0.4,9.3,5.2,12,9.7c-5.9-4.3-13.9-6.1-20.8-3.2c-11.8,4.8-19.3,15.8-27.5,25
	C553.2,545.9,558.7,538.9,565.2,533.2z"/>
<path d="M576.1,547c8.4-3.5,18.3-2.6,26.1,2.1c-11.4-2.3-23.4,0.6-33.2,6.8c-8.8,5.4-16.1,12.7-22.7,20.6
	C551.7,563.2,562.8,552.3,576.1,547z"/>
<path class="st0" d="M181.9,564.9c9.5-1.3,19.4-0.4,28.4,3c6.9,2.6,12.4,8.3,14.5,15.4c-8.1,5.1-17.3-0.5-25.8-0.6
	c-3.7-0.3-6.6,2.2-8.4,5.2c5.8,4.8,12.7,8,19.3,11.4c17.8,8.3,36.1,16,51.8,28.1c21.3,15.5,38.5,37.2,46.5,62.4
	c-20.3-9.6-40.4-19.8-59.9-31c-16.2-9.7-33.1-19.4-45.6-33.9c7.7,2.7,14.7,6.8,21.9,10.6c19.2,10.7,37.9,22.1,56.6,33.7
	c-9-14.3-22.9-24.6-37.2-33.1c-11.2-6.6-23.1-12.2-35.1-17.1c-13.4-5.8-26.5-13.3-36.3-24.3c-3.9-4.4-7.3-9.2-9.5-14.7
	C165.2,571.3,173.6,566,181.9,564.9z"/>
<path d="M580.9,568.5c7.6-2.7,15.8-2.8,23.8-3c-4.6,2.2-9.6,3.2-14.3,5.1c-9,3-17.7,6.8-25.9,11.4
	C568.1,575.6,574,570.7,580.9,568.5z"/>
<path d="M577,592.1c7.8-2.6,15.9-6,24.2-4.3c2.9,0.7,4.7,3.3,5.5,6C596.8,593.1,586.9,592.5,577,592.1z"/>
<path class="st0" d="M453.1,599.2c10.6,14.6,13,33.2,14.3,50.7c1.1,19.6-0.1,39.2-2.3,58.6c-6.9,0.8-13.8,1.9-20.7,2.6
	c4.2-8.4,5.8-17.9,6.8-27.2C453.6,655.8,450.8,627.4,453.1,599.2z"/>
<path d="M588.2,619.2c7.1-5.4,15.9-7.9,24.7-8.6c-18.4,8-31.4,24.2-43.7,39.5C572.6,638.4,578.2,626.6,588.2,619.2z"/>
<path d="M554.9,633c4.4-7.1,11.5-11.8,17.4-17.5c-5.3,9-12.8,16.5-19.1,24.8C553.4,637.7,553.5,635.1,554.9,633z"/>
<path class="st0" d="M594.9,651.7c4.8-10.4,14.2-17.9,24.6-22.3C611.3,636.8,603.1,644.2,594.9,651.7z"/>
</svg>
