<?xml version="1.0" encoding="utf-8"?>
<!-- Generator: Adobe Illustrator 21.1.0, SVG Export Plug-In . SVG Version: 6.00 Build 0)  -->
<svg version="1.1" id="Layer_1" xmlns="http://www.w3.org/2000/svg" xmlns:xlink="http://www.w3.org/1999/xlink" x="0px" y="0px"
	 viewBox="0 0 182.2 182.2" style="enable-background:new 0 0 182.2 182.2;" xml:space="preserve">
<g>
	<path d="M24.8,112.6c0.3,0,0.6-0.4,0.9-1.3c0.3-1,0.5-1.5,0.7-1.5c0.4,8.1,1,13.4,1.5,15.9c-4-6.8-6.4-15-7.3-24.5V95
		c0.4,1.2,0.8,3.2,1.2,6c0.4,2.8,0.8,4.8,1.2,6c0.4,0,0.6-0.4,0.7-1.3c0.1-0.8,0.2-1.2,0.4-1.1c0.4,0.7,0.5,2,0.5,3.7
		C24.7,110.6,24.7,112,24.8,112.6z M27.3,79.9c-1.2,4.1-1.8,10-1.8,17.7c-2.5-7-3-15.2-1.4-24.5c1.5-8.9,4.2-15.6,8.1-20.2
		c-4.4,17.8-6.6,27.8-6.7,30C25.4,82.8,25.9,81.9,27.3,79.9z M42.2,57.6c-5.4-2.5-9.8-6.6-13.1-12.4c-1.6-2.9-2.3-4.9-2.1-6.2
		c0.4-3.1,4.7-4.1,13.1-3.1c-0.1-0.9-0.5-1.9-1-3.1c-0.7-1.3-1.1-2.3-1.2-3c0.5,0.5,1.2,1.3,2.2,2.4c1,1,1.7,1.8,2.2,2.3
		c1.8,1.6,3.8,2.5,6.2,2.7c7.4,0.6,12.7,2.9,16,6.9c-2.5-8.8-9.6-13.6-21.2-14.5c3.8-1.4,8.4-1.4,13.7-0.1c4.8,1.2,8.6,3,11.3,5.4
		c-0.3,0.1-0.8,0.1-1.6,0c-0.9-0.1-1.5-0.1-2,0c-0.1,0.1,0,0.3,0.5,0.5c0.5,0.2,0.7,0.4,0.5,0.4c0.4,0-0.7-0.1-3.1-0.4
		c0.2,0.7,0.7,1.9,1.5,3.4c0.7,1.7,1.2,2.9,1.5,3.7c4.1-8.6,10.9-12.7,20.5-12.2c0.3,0,0.8,0,1.4,0.1c0.6,0.1,1.1,0.1,1.5,0.2
		c-6.1-3.7-12.6-6.2-19.7-7.5c0.7,1,2.2,1.9,4.3,3c2.7,1.3,4.4,2.2,5.1,2.6c-1.6-0.3-3.7-1.1-6.4-2.5c-2.9-1.5-5-2.4-6.5-2.7
		c2,1.4,5.1,3.6,9.2,6.6c-1.3-0.3-5.2-1.9-11.5-4.9c-4.9-2.4-9.4-3.4-13.4-3.1c-1.2,0.1-3.6,0.8-7.1,2.1c4.2-2.9,9.9-4.5,17.1-4.8
		c7-0.3,13.2,0.7,18.6,3.1c1,0.5,2.9,1.6,5.6,3.4c3.4,2.3,5.5,4,6,5.3c1.6,0.3,4.6,1.7,9,4.3c-0.9-7-4.7-12.2-11.3-15.5
		c-6.4-3.1-14.1-3.9-22.9-2.2c-0.1-0.3,0.4-0.7,1.3-1.1c3.4-1.7,8.3-2.2,14.9-1.5c4.9,0.4,10.3,3,16,7.6c0-1.8-0.8-4-2.5-6.5
		c-2-3.1-4.1-5.4-6.5-6.8c3.5,0.5,6.5,2.3,8.9,5.5c1.4,1.9,3.1,5.2,5.1,9.8c0.7-2,1-6.8,1-14.4c0.4,0.7,1.3,4.2,2.5,10.5
		c6.2-4.7,11.7-7,16.4-6.8c1.4,0.1,2.3,0.3,2.7,0.8c-8.3,0.2-14.5,4.8-18.3,13.6c-2.4,5.5-2.9,10.5-1.4,15.1c-0.3,0-0.8-0.4-1.6-1.3
		c-1.5-1.7-3.2-3.3-5.1-4.7c-4.5-3.2-8.9-4.8-13.2-4.6c-4.5,0.2-8.4,1.4-11.6,3.6c-3.7,2.3-6.1,5-7.3,8c-1.5,3.7-2.4,5.7-2.6,6
		c-1.2,1.9-3.1,3-5.6,3.2c-0.4,0-1,0-1.5,0c-3-0.2-6.7-1.6-11.1-4.3c-4.7-2.8-8.5-4.4-11.4-4.8c1.3-0.6,2.9-0.5,4.8,0.1
		c2.3,0.7,4,1.1,5.1,1c-0.3-0.6-1.7-1.7-4.2-3.4c1-0.1,2.5,0.3,4.3,1.1c1.8,0.7,3.4,1,4.8,0.9c-0.2-1.2-2.1-2.5-5.5-3.6
		c-5.9-2.1-10.4-2.3-13.5-0.7c0.6,3.6,2.2,6.9,4.7,10c0.8,1,2,2.3,3.5,3.7C40.5,55.7,41.7,56.9,42.2,57.6z M58.5,58
		c-9.1,7.9-15.7,15.9-19.8,23.8c-5.4,10.5-7.7,22.4-6.8,35.9c-2.9-10.4-4-18.2-3.3-23.4c0.9-7.2,3.1-14.2,6.6-21.1
		c-0.1,0-2.1,1.3-6.2,4c0.5-1.9,1.9-4.5,4.3-7.7c4.5-6.2,8.9-10.4,13.4-12.9c-3.4,4.7-5.5,7.8-6.3,9.3c0.9-0.5,2.3-1.6,4.2-3.2
		c1.7-1.5,3.1-2.5,4.4-3c-0.4,1.1-1.4,2.5-2.9,4.3c-1.5,1.8-2.4,3.3-2.9,4.5c1.2-1,2.7-2.4,4.7-4.3c2.2-2,3.8-3.4,4.9-4.3
		c4-3.4,7.8-5.7,11.5-7c-0.7,0.8-1.6,1.7-3,2.6C59.8,57,58.8,57.7,58.5,58z M38.4,124.3c-1,11.7-0.8,21.5,0.5,29.3
		c-6.6-11.4-8.3-22.7-5.2-33.9c0.4,1.1,0.5,3.1,0.3,6c-0.1,2.9,0.1,5,0.4,6.2c0.1-0.1,0.2-0.5,0.2-1.1c0-0.5,0-0.9,0.1-1.1
		c0.1,0.1,0.3,1.2,0.8,3.1c0.7-0.6,1.2-1.9,1.5-4.1C37.5,126.4,37.9,124.9,38.4,124.3z M35.8,117.2c-1.3-7.5-1.1-14.7,0.5-21.5
		c1.7-6.8,4.5-12,8.5-15.5c-3.4,6.5-5.4,11.5-5.9,15.1c0.7-0.5,1.7-1.5,3.1-3.1c1.4-1.6,2.5-2.7,3.2-3.4c-3.9,7.5-5.9,12.3-6.2,14.5
		c0.4,0.1,1,0,1.8-0.4c0.8-0.5,1.5-0.8,2-0.8C40.6,103.7,38.2,108.7,35.8,117.2z M45.2,153.4c0.2-0.3,0.4-1,0.4-2c0-1,0.1-1.7,0.3-2
		c0.2,1.3,0.6,4.1,1.1,8.5c0.4,3.5,0.9,6.3,1.4,8.2c-0.9-0.5-1.9-2.1-3-4.7c-3.5-8.5-5.1-17.3-4.8-26.4v-0.4c0.2,0,0.3,0.1,0.3,0.2
		C41.7,141,43.1,147.2,45.2,153.4z M56.9,107.8c-4,5.2-7.1,11-9.4,17.5c-1.5,4.2-2.2,7.4-1.9,9.7c-3-6.3-3.7-14.3-2.2-24.1
		c1.2-8.1,3.6-15.5,7.1-22.2c0.1,0,0.2,0,0.2,0.1c0.1,0,0.1,0,0,0c-0.3,1.8-1,4.4-2.2,7.7c-1.2,3.1-1.8,5.7-2,7.8
		c0.4-0.1,1-0.3,1.5-0.8c0.6-0.4,1.1-0.7,1.5-0.8c-1.5,2.2-2.8,5-3.7,8.3c0.4-0.4,1.7-1.8,3.7-4.1c1.5-1.7,3-2.9,4.3-3.5
		c-3.5,7.9-5.2,11.5-5.1,10.8C54.6,109.8,57.3,107.6,56.9,107.8z M59,148.5c2-5.1,2.9-7.5,2.6-7.3c-1,11.9-1.4,19-1.2,21.1
		c-1.6-4.5-3.1-10.1-4.6-16.8c-1.5,3.2-2.3,9.6-2.2,19.2c-4.5-14.8-5.8-27.2-3.6-37.1c0.1,0,0.2,0.1,0.2,0.2c1,9.2,1.5,14,1.6,14.4
		c0.8-1.8,1.6-4.4,2.5-7.8c0.4-1.5,0.8-2.3,1-2.5c-0.8,6.9-1.2,10.7-1.2,11.4c0.4-0.7,1-1.9,1.8-3.8c0.8-1.8,1.5-3,2.1-3.8
		C58.8,144.6,59.2,148.9,59,148.5z M71.5,46.3c0.1,0,0.1,0.1,0.2,0.3c-0.4,1.6-4.7,9-12.7,22.3c1-0.1,2-0.5,3.3-1.2
		c1.4-0.7,2.4-1.2,3-1.3c-4.2,3.7-9.2,6.3-15.1,7.8c0-0.2,0.4-0.7,1.1-1.4c6.8-5.9,12-12,15.6-18.3C70.5,48.2,72,45.5,71.5,46.3z
		 M72.5,74.2C67.2,80,63.2,85,60.4,89c-0.9,1.2-2,3-3.4,5.2c-1.7,2.6-2.8,4.4-3.4,5.3c0.4-2,1-4.5,2-7.6c1.1-3.7,1.8-6.1,2.1-7.4
		c-0.4,0-1,0.4-1.6,1.2c-0.7,0.7-1.4,1.2-1.9,1.3c0.4-1.2,1.2-2.9,2.4-5.1c1.2-2.2,2-3.9,2.4-5.1c0.2,0.4,0.3,1.1,0.1,2
		C59,79.8,59,80.5,59,81c0.5-0.4,1.1-1.1,1.6-2.1c0.7-1,1.2-1.7,1.6-2.1c-1.1,2.9-1.7,4.9-1.9,6.3c0.4-0.1,0.9-0.7,1.4-1.8
		c0.6-1.2,1-2,1.3-2.3v2c0.8-0.5,2.3-1.7,4.4-3.6c1.9-1.7,3.6-2.9,4.9-3.5c0.1,0.1,0.1,0.1,0.1,0.2C72.6,74.1,72.6,74.2,72.5,74.2z
		 M61.6,134.9c-0.1,1.2,0,2.6,0.3,4.3c-3.1-5.3-4.3-12.7-3.7-22c0.5-8.2,2.2-15.4,4.9-21.6l-1.3,18.2c0.5-0.4,1.9-2,4.2-4.7
		c1.8-2.1,3.4-3.6,5.1-4.3c-3.7,5.4-5.9,9.8-6.8,13.2c-0.1,0,0.7-0.7,2.6-2.2c2-1.5,4.2-2.6,6.8-3.1c-2.6,2.3-4.9,5.7-6.9,10.2
		c-3.4,7.5-5.1,11.3-5.1,11.3S61.7,134.5,61.6,134.9z M83.8,146.7c-1.7,7.4-0.2,14.2,4.5,20.3c-7.5-2.6-14.3-7.9-20.2-15.9
		c0.1,1.5,0.5,3.9,1.4,7c-0.4-0.2-1.1-1.4-2-3.6c-2-4.5-3.1-9.2-3.4-13.8c-0.1-2.3,0-3.7,0.4-4.2c0.7,4,2.4,7.9,4.9,11.8
		c2.6,4,4.8,6.5,6.6,7.6c-1.1-8-1.1-13.3-0.1-15.8c-0.1,7.3,1.6,13.4,4.9,18.3c0.4-5.1,0.6-7.4,0.5-6.8
		C81.9,149.1,82.7,147.5,83.8,146.7z M73.7,87.8c-3.8,5.6-6.6,11.6-8.2,18c-0.2-6.1-0.2-12.2,0-18.2c-0.1-0.1,0.2,1.1,1,3.4
		c1.1-2.6,1.6-5.3,1.5-8.3c0.9,1.9,1,5.2,0.4,9.8c0.7-0.4,1.6-1.2,2.6-2.4C72,88.8,72.9,88.1,73.7,87.8z M86.3,138.7
		c4.8-8.1,7.4-12.3,7.7-12.5c-2.2,4.1-3.7,8.6-4.4,13.6c-0.9,6.1-0.4,11.2,1.5,15.5c-4-5.5-8.2-13.7-12.7-24.6
		c-0.4,0.6-0.9,2.7-1.5,6.3c-2.7-5.9-4-12.7-3.7-20.3c0.2,0.7,1.2,3.7,3.1,8.9c-0.1,0.4,0-0.8,0.4-3.6c0.3,0.1,0.5,0.5,0.7,1.2
		c0.1,0.7,0.4,1.1,0.7,1.2c0.4-0.8,0.9-1.9,1.5-3.4c0.7-1.8,1.1-2.9,1.4-3.4c1.2-2.7,2.7-4.5,4.4-5.5c-2.6,4.4-3.5,9.3-2.7,14.6
		c0.1-0.1,0.2-0.3,0.3-0.7c0.1-0.4,0.2-0.5,0.4-0.5c-0.1,1.2,0,2.3,0.3,3.3c0.3-0.9,0.6-2.9,0.9-6c0.3-2.6,0.8-4.3,1.5-5.3
		C85,127,85.1,134.1,86.3,138.7z M103.3,61.5c-0.1,0.1-0.2,0.4-0.1,0.9c0,0.5-0.1,0.8-0.2,1c-0.9-0.4-3.3-0.8-7.2-1.1
		c-3.3-0.2-5.3-0.9-5.9-2c1.5,0.6,3,0.8,4.7,0.7c1.8-0.2,3.1-0.8,3.7-1.9c0.1-1.8-1-3.5-3.1-4.9c-5.2-0.1-7.6,2-7.3,6.2
		c-1.5-1.6-3.5-2.6-6-3.1c0.6-0.2,2.7-1.6,6.4-4.1c2.6-1.8,5-2.5,7-2c1.8,0.4,4.6,3,8.2,7.6c2,2.6,3.2,4.2,3.5,5.1
		c-0.5-0.1-1.1-0.5-1.9-1.2C104.5,62,103.9,61.6,103.3,61.5z M121.5,126.8c-0.4-0.7-0.4-1.4,0-2.2c-0.7,0.6-1.5,1.8-2.3,3.6
		c-0.9,1.8-1.6,3-2.3,3.6c0.4-1.2,0.5-3,0.1-5.2c-0.4-2.3-1-3.6-2-3.7c-1.1-0.2-1.7,0.4-1.9,1.9c-0.1,1.1,0,2.4,0.3,3.8
		c-0.4-0.7-1-1.7-1.6-3.1c-0.7-1.5-1.3-2.5-1.6-3c-0.6,0.2-1.4,1.5-2.3,4c-0.6-0.6-1.4-1.6-2.3-3.1c-0.9-1.5-1.6-2.5-2.3-3.1
		c-0.5-0.4-1.3-1-2.3-1.5c-1.1-0.7-1.9-1.2-2.3-1.5c-3.7-2.8-7.1-6.8-10.4-12.2c-0.4,0.1-0.8,0.2-1.2,0.4c-0.5,0.3-0.8,0.5-1,0.5
		c0.1-0.1,0.7-0.5,2-1.4c0-0.2-0.1-0.5-0.2-0.9c-0.1-0.3-0.2-0.5-0.2-0.8c-0.8,0.1-2.7,1.2-5.7,3.3c0.4-1.5,2.6-3.3,6.7-5.5
		c2.1-1.2,4.5-2.3,7.3-3.3c-0.1-0.3-0.2-0.7-0.4-1.2c-0.2-0.5-0.3-0.9-0.3-1.2c-1.9,0.1-4,0.5-6.3,1.2c-3.2,1.1-5,1.7-5.5,1.9
		c0.1-0.4,0.9-0.9,2.3-1.4c2-0.7,5.1-1.6,9.1-2.5c0.1-0.4,0.2-1,0.2-1.8c0.1-1,0.1-1.6,0.2-1.9c-1.5-0.2-4.1,0-7.9,0.8
		c0.3-0.4,1.6-0.8,3.8-1.2c2.3-0.4,3.7-0.6,4.4-0.8c0.1,0,0.3-0.4,0.8-1.1c-0.1,0-0.1,0.4,0.1,1.1c3.4,0.3,5.1,0.4,4.9,0.3
		c-2,0.1-3.7,0.3-5.1,0.5c0,2.1,0,3.3,0.1,3.4l7.1-0.8c-0.1,0.1-2.4,0.6-6.8,1.5c0,0.5,0.1,1,0.4,1.4c0.4,0.5,0.6,0.9,0.7,1.1
		c0.4-0.1,1.4-0.3,3.1-0.7c1.2-0.3,2.4-0.4,3.4-0.4c-3.5,2.2-5.3,3-5.3,2.3c0,0.5,0.8,0.6,2.3,0.2c0.4-0.1,1-0.2,1.6-0.4
		c0.7-0.2,1-0.4,1.1-0.4c3.4-0.8,5.6-1,6.8-0.5c-0.7,0.3-2.2,0.7-4.5,1.1c-2,0.4-3.4,0.9-4.2,1.5c0.8,0.8,2.2,1.3,4.1,1.5
		c-0.1,0.1-0.6,0.3-1.3,0.5c-0.6,0.1-0.9,0.4-1,0.8c-0.1,0.3-0.1,0.5,0.2,0.8c0.1,0.1,0.2,0.3,0.1,0.3c-2.4-0.5-4.3-1.4-5.7-2.6
		c-1,0.2-4.1,1.4-9.2,3.6c1.5,2.8,3.3,4.9,5.2,6.4c2.9,2.2,5.6,2.4,8.2,0.7c-0.1,1.3,0.2,2.7,0.9,4.3c0.1,0,0.3-0.1,0.5-0.3
		c0.1-0.1,0.3-0.2,0.5-0.2c0,0.3,0.1,0.7,0.2,1.1c0.1,0.4,0.2,0.8,0.2,1c1.5-0.1,2.3-1.4,2.2-4c0.4,0.6,0.8,1.4,1.2,2.5
		c0.6,1.3,1,2.2,1.2,2.7c1-0.8,1.7-3,2.3-6.5c0.2,0.2,0.7,1.4,1.4,3.6c0.7,2.2,1.3,3.3,1.6,3.3c0.7,0,1.1-1,1.2-3
		c0.1-2.9,0.2-4.4,0.2-4.3c0.4,0.7,0.9,2,1.4,4c0.6,1.8,1.1,3,1.6,3.7c0.1-0.1,0.4-1.1,1.1-3.2c0.3,0.3,0.5,1,0.5,2
		c0.1,1.2,0.2,1.9,0.3,2.3c1.3-2.9,1.9-5.7,1.9-8.3c0.4,0.4,0.9,2.3,1.5,5.8c0.7-0.1,1.2-0.4,1.8-1.1c0.7-1,1.1-1.5,1.3-1.6
		c0,0.7,0,1.6,0.1,2.7c0.1,1.2,0.1,2.1,0.1,2.9c3-2,4.3-5.1,4-9c0.3,0.1,0.5,0.3,0.7,0.7c0.1,0.5,0.3,0.8,0.4,0.9
		c0.4-0.2,0.6-1.9,0.8-5.1c0.7,0.8,1.1,1.9,1.1,3.4c0.1,6.3-4.3,12-13.1,17.1c0.1-0.7,0.3-1.5,0.7-2.4c0.4-1.1,0.6-1.9,0.7-2.4
		c-0.1,0-0.1,0-0.1,0S122.8,125.1,121.5,126.8z M88.6,102.3c-0.1,0.2-0.1,0.5,0,0.8c0.1,0.3,0.1,0.5,0.1,0.8
		c4.2-1.6,7.1-2.9,8.7-3.7c-0.2-0.1-0.5-0.3-0.9-0.5c-0.3-0.3-0.6-0.5-0.9-0.5C93.2,100.2,90.8,101.3,88.6,102.3z M93,55.5
		c0.1,1.2,0.2,1.9,0.3,2.1c0.2,0,0.5,0,0.8-0.1c0.2-0.1,0.4-0.1,0.7-0.1c-0.1,1.2-0.5,1.9-1.2,2.1c-0.7,0.1-1.3-0.1-2-0.7
		c-0.7-0.6-0.9-1.2-0.8-1.9C90.9,56.2,91.6,55.7,93,55.5z M91.8,105.5c7.3,1.3,14.9,0.4,22.6-2.7c6.5-2.7,10.7-4.6,12.6-5.6
		c4.5,4.9,6.9,7.8,7.3,8.8c-0.1-0.1-0.8-0.5-2.1-1.3c-1.1-0.7-2-1.2-2.6-1.5c-2.3-1-3.6-0.4-3.8,2c-0.2,0.1-0.5-0.1-1-0.5
		c-0.5-0.6-0.9-0.9-1.2-1c-1.3-0.6-3-0.4-4.9,0.7c-0.4,0.2-1.2,0.7-2.4,1.4c-1,0.6-1.9,1-2.5,1.3c-1.1,0.4-2.6,0.8-4.5,1.2
		c-2.7,0.5-4.2,0.8-4.4,0.9c-4,1-5.9,1.5-5.8,1.5c0.2,0.1-1-0.7-3.7-2.4C93.4,107,92.3,106.1,91.8,105.5z M115.8,147.2
		c1.2-0.6,2.2-2,3-4.3c0.2-0.6,0.5-1.6,0.9-3c0.4-1.3,0.7-2.3,0.9-2.9c0,11.3-3.9,20.9-11.6,28.8c1.6-3.7,2.5-8.4,2.6-14
		c0.1-5.6-0.5-10.5-1.9-14.5c-0.6,0.2-1.3,1.2-2.2,3.1c-1.1,2.3-1.8,4.4-2,6.3c-3.2-5.6-6.2-12.2-8.9-19.9c-1.7-4.5-2.2-7.6-1.5-9.2
		c1.9,7,4.7,12.6,8.2,16.6c0.4-4.4,1.1-7.2,1.9-8.5c0.4,0.8,0.4,2.3,0.1,4.4c-0.3,2-0.2,3.3,0.2,4.1c0.3-0.1,0.4-0.4,0.4-1.1
		c0-0.7,0.1-1.2,0.2-1.3c0.1,0.5,0.1,1.3,0.2,2.4c0.1,1.2,0.1,2.1,0.2,2.5c1.9-1.8,3-3.9,3.2-6.4c0.7,1.2,2.1,6.1,4.1,14.8
		c0.3-0.4,0.9-1.5,1.8-3.4c0.7-1.5,1.4-2.5,2.1-2.9c-0.1,0.4-0.4,1.7-1,4.1C116.2,144.7,116,146.1,115.8,147.2z M134.9,19.5
		c-0.8,1.5-3.5,4.7-8.1,9.7c0.1-0.8,0.4-1.8,1-2.9c0.6-1.2,1-2,1.1-2.6c-2.2,0.7-4.2,2.6-5.9,5.6c-2,3.4-1.5,5.6,1.3,6.8
		c3.2-4,5.1-6,5.6-6.3c2.1-1,4.8-1.4,7.9-1c2.9,0.3,5.3,1,7.4,2.2c-5.8-1-10.2-0.5-13.2,1.2c0.7,0.1,1.5,0.2,2.5,0.2
		c1.4,0,2.3,0,2.6,0.1c2,0.1,3.3,0.6,4,1.4c-4.8-0.2-7.3-0.3-7.5-0.3c-2.8,0.2-4.4,1.2-4.7,3.1c9.3-1,14.8-1.1,16.5-0.4
		c-4.3,9.2-6.4,16.1-6.4,20.7c0.1,0.1-0.2-0.9-1-3c-1-2.6-4.3-6.3-9.9-10.9c-5.6-4.7-10.1-7.1-13.7-7.1c-1,0-3.7,0.5-8.2,1.6l6.3-11
		c2.5-4.5,5.4-7.3,8.8-8.6c-3.8,3.8-6.7,8.8-8.6,14.9c1.2,0.4,2.5,0,3.6-1.2c0.4-0.3,0.8-0.8,1.4-1.5c0.6-0.8,1-1.3,1.2-1.5
		c5.2-5.5,7.8-8.2,7.8-8.2S129.4,20.1,134.9,19.5z M112.1,80.2c0.9,0,1.7,0.3,2.5,0.8c1.1,0.7,1.8,1.1,2.1,1.2
		c3.2-2.9,7.1-3.7,11.6-2.4c0.1,0,0.5,0.1,1.1,0.4c0.5,0.2,1,0.4,1.5,0.4c0.9,0.1,3.4-0.1,7.7-0.7c0.6,0.5,0.9,1.2,0.9,2.1
		s-0.3,1.6-0.8,2.3c-0.6,0.7-2.1,1.6-4.5,2.6c-2.3,1-3.9,2.1-4.7,3.2c-0.4,0.6-0.8,1.4-1.1,2.3c-0.4,1.3-0.7,2.2-0.9,2.7
		c-0.9-2.1-1.8-3.6-2.9-4.6c-1.4-1.5-2.5-2.4-3.3-2.7c-0.6-0.3-1.5-0.6-2.9-0.9c-1.4-0.4-2.4-0.7-3.1-1
		C111.8,84.3,110.7,82.4,112.1,80.2z M125.5,62.4c-0.2-0.3-0.5-1.1-0.8-2.5c2.1,0.9,4,0.9,5.5,0c1.6-0.9,2.3-2.4,2-4.5
		c-0.3-2.1-1.4-2.6-3.2-1.5c-0.4,0.2-1.1,0.7-2.3,1.5c-1,0.7-1.6,1.1-2.1,1.2c-0.8,0.2-1.9,0.2-3.2,0c1-0.3,2.7-1.3,5.2-3
		c2-1.3,4-2,6-2c1.2,0.6,2.1,1.6,2.6,3.2c0.4,1.6,0.4,3.2-0.2,4.7c-1.2-1.7-1.7-2.5-1.3-2.3c-0.5,0.3-0.8,0.9-0.9,1.8
		c-0.1,1-0.3,1.7-0.5,2.1C131.3,62.7,129,63.1,125.5,62.4z M129.9,129.1c1.6-3.2,2.6-5.7,3.1-7.5c0.1,1.2-0.4,3.8-1.8,7.8
		c-1.6,4.8-3.8,10.1-6.6,15.7c0-0.5-1.1-5.2-3.2-14.1c0.3,0.4,0.7,0.9,1.3,1.6c0.6,0.8,1.1,1.4,1.4,1.8c0.1-0.2,0.1-0.7,0-1.3
		c-0.1-0.7-0.1-1.3,0-1.6c0.3,0.3,0.5,0.8,0.8,1.6c0.3,1,0.5,1.6,0.5,1.9C126.6,134.4,128.1,132.5,129.9,129.1z M127.2,56.9
		c0.1-0.5,0.4-0.9,1.1-1.1c0.6-0.2,0.7,0.1,0.4,1.1c0.1,0.4,0.7,0.7,1.5,0.7c-0.2,1.1-0.8,1.5-1.9,1.3
		C127.3,58.7,126.9,58,127.2,56.9z M139.5,104c-0.3,0.2-0.8,0.8-1.5,1.6c-0.6,0.7-1.2,1.2-1.9,1.3c0.1-0.6,0.4-1.2,0.9-1.9
		c0.6-0.7,0.9-1.4,1-1.9c-0.4-0.4-1.6-1.1-3.4-2.3c-1.5-1-2.4-1.8-2.9-2.4c0.9,0.1,2.2,0.8,3.8,1.9c1.2,0.8,1.8,1.2,1.6,1.1
		c0.8,0.4,1.4,0.3,1.9-0.3c0-0.4-0.2-0.6-0.5-0.8c-0.4-0.1-0.7-0.4-0.7-0.7c0.2,0,0.5,0.1,0.8,0.2c0.4,0.1,0.6,0.2,0.8,0.2
		c0.3-0.3,0.4-1.2,0.4-2.7c-0.6-0.4-1.6-0.8-3-1.4c-1.3-0.6-2.3-1-2.9-1.3c0.7-0.1,1.7-0.1,2.9,0.2c1.5,0.4,2.5,0.7,2.9,0.7
		c-0.1,0.1-0.3-1.7-0.5-5.4c-1,0-2.2,0.1-3.5,0.3c-1.7,0.4-2.7,0.5-3.2,0.5c2-1.2,4.2-2,6.7-2.4c0.7-2.6,0.9-4.7,0.8-6.5
		c-0.2-3.6-1.5-7-3.7-10.1c-0.7-1-2.9-3.4-6.7-7.5c-0.1-0.1,2.5,2.2,7.8,6.8c0.4-7.4,1-11.5,1.8-12.3c-0.4,3.3,0.1,8.2,1.3,14.6
		c1.2,6.2,1.5,11,1,14.6c0.3,0.1,1,0.3,2.1,0.5c0.8,0.2,1.5,0.4,2.1,0.4c-0.2,0.1-1.6,0.3-4.3,0.4c-0.1,0.8-0.1,1.9,0.2,3.4
		c0.3,1.8,0.5,3,0.5,3.6c1.7,1.5,2.6,2.6,2.7,3.1c-0.3-0.1-0.7-0.3-1.3-0.8c-0.5-0.4-1-0.7-1.4-0.8c-0.2,0.2-0.5,1.1-1,2.6
		c0.2,0.3,1.6,1.5,4.2,3.7c-0.4,0-1.2-0.5-2.2-1.4c-1-0.9-1.8-1.3-2.5-1.2c0,0.2,1,1.4,3.1,3.4c1.6,1.6,2.6,2.9,2.9,3.8
		c-0.8-0.4-1.9-1.3-3.4-2.7C141.7,105.3,140.6,104.5,139.5,104z M149.9,117.8c0.4-0.8,0.8-2.1,1.1-3.8c0.3-2.1,0.5-3.5,0.8-4.2
		c1.6,8.1,1.4,15.4-0.8,22c-0.4-0.5-0.7-1.6-1-3.3c-0.3-1.5-0.7-2.5-1.3-3c-2.3,8.8-5.7,16.7-10.3,23.8c0-1.1,0.1-3.2,0.4-6.3
		c0.3-2.6,0.4-4.7,0.3-6.3c0,0.2-1.4-5-4.2-15.7c1.2,0.9,2.3,2.6,3.4,5.1c1.2,2.9,2.2,4.7,3,5.6c0-2.7,0.3-8,1-15.8
		c0.4,0.7,0.6,1.9,0.8,3.7c0.1,1.8,0.4,3.1,0.7,3.7c1.4-6.7,1.1-11.5-0.9-14.5c0.4,0.3,2.3,3.5,5.7,9.7c0-0.3,0.1-1,0.3-2
		c0.1-0.8,0.2-1.4,0.4-1.9C149.2,114.7,149.4,115.7,149.9,117.8z M142.9,48.1c2.8,1.3,5.6,4.9,8.3,10.8c2.7,5.7,4.1,11.3,4.3,16.7
		c-2.9-8.1-5.8-13.5-8.8-16.3c0.7,3.7,1,5.8,1.1,6.5c-1.8-5.4-4.2-9.3-7.3-11.5c-0.4,0,1.9,1.3,6.9,3.8c-0.3-3.1-1.9-6.5-4.9-10
		H142.9z M156.2,92.1c0,3.5-1,7-2.9,10.5c-2.8,5.3-4.2,8.2-4.4,8.7c-0.5-7.3-2.2-13.1-5.2-17.2c1.2,0.5,2.5,1.5,3.6,3.1
		c1.6,2.1,2.6,3.2,3.1,3.5c-1.8-6.7-2.6-10.8-2.5-12.3l3.7,8.8c-0.6-8.3-2.3-14.5-5.3-18.5c2.3,1.5,4.6,5.9,6.8,13.2
		c0.3-10.3-2.4-18.3-8-23.8c3.2,0.8,5.9,3.9,8.1,9.2c1.9,4.8,2.9,7.1,2.9,7.1S156.2,86.9,156.2,92.1z"/>
</g>
</svg>
