<?xml version="1.0" encoding="utf-8"?>
<!-- Generator: Adobe Illustrator 21.1.0, SVG Export Plug-In . SVG Version: 6.00 Build 0)  -->
<svg version="1.1" id="Layer_1" xmlns="http://www.w3.org/2000/svg" xmlns:xlink="http://www.w3.org/1999/xlink" x="0px" y="0px"
	 viewBox="0 0 182.2 182.2" style="enable-background:new 0 0 182.2 182.2;" xml:space="preserve">
<style type="text/css">
	.st0{fill:#010101;}
</style>
<g>
	<path class="st0" d="M162.5,145.1c3.1,0.8,5.3,1.8,6.5,2.7c2,1.5,2.9,3.6,2.7,6.4c-1,2-3.4,3.2-7.1,3.8c-3.4,0.6-6.6,0.4-9.8-0.5
		c-2-0.3-6.9-0.2-14.6,0.4c-6.9,0.6-12,0.3-15.4-1c-0.5,0.1-0.7,0.5-0.6,1c-7.1,0.5-11.8,0.7-14,0.7c-6.6-0.1-10.9-1.2-12.9-3.3
		c-0.1,0-0.2,0.3-0.3,1c-0.3-0.5-1.1-1.5-2.3-2.9c-1-1.2-1.8-2.2-2.2-3c0.3,0.1,0.6,0.4,1,0.8c0.4,0.5,0.7,0.7,1,0.9
		c-1.3-2.8-4.3-4.5-9.1-5.2l-13.8-0.5c0.3,0.5,0.9,1.1,1.9,1.9c0.9,0.7,1.5,1.2,1.9,1.8c-0.9,0.1-2.1-0.4-3.6-1.5
		c-1.6-1.2-2.9-1.8-3.9-1.8c3.7-0.9,5.5-1.4,5.5-1.4l0.4,0.3c0.2,0.3,0.4,0.4,0.6,0.4c0.3,0,1.9-0.1,5-0.3c2.1-0.1,3.9,0,5.3,0.3
		c-1.1-5.5,0.9-9.5,6-11.9c0.4,0.3,0.8,0.6,1.3,1c0.6,0.6,0.9,1,1.1,1.2c1,0.8,2.1,1.2,3.3,1.2c0.1,0,0.3-0.1,0.4-0.3
		c0.1-0.3,0.2-0.4,0.3-0.4c4.6-2.4,7.3-6.2,7.9-11.5c0.1-1.2,0-4-0.4-8.4c-0.3-3.6-0.1-6.3,0.7-8.2c0.1,0.3,0.3,0.5,0.7,0.7
		c0-0.3-0.2-0.6-0.5-0.9c-0.3-0.3-0.3-0.6-0.2-1.1c-0.3,0.1-1,0.3-2,0.5c-0.9,0.1-1.6,0.3-2,0.5c0.5,0.2,0.8,0.4,1,0.7
		c-0.4,0.5-1.2,0.8-2.4,0.9c-1.8,0.1-2.7,0.1-2.5,0.1c0.5,0.2,0.8,0.4,1,0.7c-3.8,0.2-6.1-0.8-6.6-3c-0.2,0.1,0,0.9,0.7,2.3
		c0.7,1.5,0.6,2.6-0.3,3.3c-0.1-0.9-0.7-1.5-2.1-1.8c-1.7-0.4-2.7-0.7-2.9-0.9c-0.1,0.6,0.1,1.2,0.5,1.9c0.4,0.7,0.6,1.2,0.5,1.8
		c-0.6-0.4-1.5-0.9-2.8-1.7c-1.2-0.7-2.1-1.3-2.7-1.7c-0.3,2.5-0.9,3.9-1.7,4.3c0.5-0.6,0.6-0.9,0.5-1c0.2,0.1-0.1,0.1-0.9,0
		c0.3-0.3,0.4-0.7,0.4-1.4c0-0.7-0.2-1-0.7-1c-0.5,0.5-1.4,0.3-2.7-0.8c-0.4-0.4-0.8-0.8-1.4-1.4c-0.5-0.5-0.8-0.8-0.9-0.8
		c-0.7,0.5-1.2,1.3-1.6,2.4c-0.3,1.3-0.2,2.5,0.3,3.5c-0.1,0-0.3-0.1-0.5-0.2c-0.1-0.1-0.3-0.2-0.5-0.2c0.1,0.6,0.4,0.9,0.9,0.9
		c0.7,0,1.2,0.2,1.4,0.5c-1.1,0.1-2.4-0.2-3.9-1c-0.1,1.4,0.6,2.1,2,2.2c0.1-0.3,0-0.5-0.3-0.6c-0.4-0.1-0.5-0.4-0.4-0.7
		c0.9,0.7,1.4,1.2,1.4,1.7c-0.2,0-0.5,0-0.8,0c-0.3-0.1-0.6-0.1-0.8,0c-0.5,0-0.8,0.2-0.8,0.7c0.5,0.7,0.7,1.5,0.6,2.6
		c-0.1,1.2-0.5,2-1.3,2.2c-0.1-0.7-0.1-1,0-1c-0.2,0.3-0.4,0.9-0.5,2c-0.1,1-0.4,1.5-0.8,1.7c1.2-3.5,0.8-6.9-1-10.3
		c-0.3,0.4-0.5,1-0.6,1.9c0,0.8,0.3,0.9,0.9,0.2c0-0.1,0,0.5,0,2c0,0.8-0.2,1.3-0.7,1.4c-0.1-0.8-0.2-0.8-0.3,0c-0.1,1-0.4,1-0.7,0
		c0,1.6,0.2,2.8,0.7,3.6c-0.1-1.2,0.4-2,1.3-2.3c-0.1,0.8-0.1,1.9,0.2,3.2c0.2,1.3,0.3,2.1,0.2,2.4c-0.2,0-0.4-0.2-0.6-0.5
		c-0.2-0.2-0.5-0.3-0.8-0.2c-0.1,1.1-0.7,2.3-1.9,3.6c-1.3,1.4-2,2.3-2.1,2.6l-2.3-3.3c0.3,0.8,0.3,1.4-0.1,1.8
		c-0.8,0.7-1.2,1.1-1.3,1.3c-0.1-0.1,0.3,0.6,1.4,2l0.4-1.6c0.1-0.7,0.4-1,0.9-1.1c-1.4,5.1-3.3,7.8-5.6,7.9c0.5-0.1,0.8-1,1-2.9
		c0.1-1.6,0.4-2,1-1.4c-0.8-1.6-1.2-2.3-1-2.2c0,0.1-0.4,1.4-1.2,3.7c-0.7,2.1-0.7,3.7-0.2,4.9c-0.2-0.1-0.4-0.2-0.6-0.5
		c-0.3-0.3-0.5-0.5-0.7-0.6v1.4c-0.7,0.1-1.3,0.6-1.9,1.3c-0.7,0.8-1.3,1.2-1.8,1.4c-0.5,0.1-1.3,0.1-2.6-0.2
		c-0.9-0.1-1.4,0.2-1.4,0.9c2.7-0.7,5.8-0.7,9.4-0.1c4.7,0.7,7.4,1.1,8.1,1.1c0.1,0,0.3,0,0.4,0c6.6,6.4,10.3,9.8,10.9,10.3
		c-0.1-0.5-0.7-1.2-2-2.1c-1.3-1.1-2.1-1.9-2.3-2.4c-0.2-0.1,1.2,1.1,4.3,3.6c-0.1,0.1-0.8-0.9-2.3-3c0.5,0.1,1.4,0.9,2.6,2.2
		c1.3,1.4,2.4,2.2,3.3,2.4c-0.1-0.7-0.7-1.5-2.1-2.4c-1.4-1.1-2.3-2-2.6-2.5c0.6,0.3,1.6,1,2.9,2.2c1.5,1.4,2.6,2.3,3.4,2.7
		c-0.7-0.9-2-2.2-4-4c0.7,0,1.5,0.5,2.4,1.5c1.4,1.3,2.2,2,2.5,2.1c0-0.5-0.5-1.1-1.6-2.1c-1.2-1-1.9-1.8-2.1-2.2
		c0.5,0.2,1.3,0.9,2.6,2.2c1.3,1.3,2.4,2.1,3.3,2.4c0.1-0.5-0.4-1-1.5-1.8c-1.2-0.8-1.8-1.6-1.9-2.2c0.3,0.2,1,0.9,2.3,2.1
		c1,0.9,1.8,1.6,2.5,2c0.1-0.5-0.4-1.2-1.4-2c-1.3-1.1-2.1-1.8-2.2-2.1c0.7-0.1,1.4,0.4,2.3,1.4c1.2,1.3,2,2.1,2.3,2.2
		c0-0.4-0.5-1-1.5-2c-1.1-0.9-1.7-1.7-1.9-2.3c0.5,0.4,1.1,0.9,1.8,1.7c0.8,0.8,1.4,1.3,1.7,1.6c1.3,1.1,2.8,1.6,4.5,1.5
		c0.1-0.5-0.7-1.3-2.4-2.3c-1.6-1-2.2-2-1.9-2.9c0.8,0.3,1.9,0.9,3,2c1.1,1,2.1,1.7,2.9,2c-0.8-1.6-2.1-3.1-4-4.6
		c0.9,0,1.9,0.7,2.9,2.1c1.3,1.8,2.2,2.8,2.7,3.1c-0.2-0.3-1.8-2.4-4.7-6.2c0-0.1,1.8,1.9,5.4,6c0.3-0.3,0.7-0.4,1.2-0.3
		c0.6,0.1,0.8,0.4,0.8,0.9c-3.2,0.8-8.1,1.2-14.8,1c-0.9,0-2.3-0.2-4.3-0.5c-1.8-0.3-3.1-0.5-4-0.5c-0.3,0-0.6,0.2-0.9,0.5
		c-0.3,0.3-0.6,0.5-0.8,0.5c-0.8,0.3-3.2,0.4-6.9,0.4c-9.3,0-15.9-1.3-19.8-3.9c-0.1-0.1-0.3-0.2-0.5-0.3c-1.5-1.1-2.9-2.5-4.1-4.1
		c0.4-0.2,0.9,0.1,1.6,1c0.8,1,1.3,1.5,1.7,1.7c-1-2.9-3.1-4.9-6.2-5.9c-2.6-0.8-6.5-1.1-11.6-0.7c-0.6,0-1.4,0.1-2.3,0.3
		c-1,0.2-1.8,0.3-2.3,0.3c0.2,0.5,0.8,1,1.9,1.7c0.9,0.6,1.4,1.3,1.5,2.1c-1.1,0.1-2-0.4-2.7-1.3c-0.9-1-1.7-1.6-2.2-1.8
		c-0.8,0.2-1.4,0.8-1.7,2c-0.1,0.3-0.2,1.4-0.3,3.3c0.5,0.3,1.2,1.1,2.3,2.2c1,1,1.9,1.7,2.6,2.1c0-0.4-0.5-1-1.5-2
		c-1.1-0.9-1.7-1.7-1.9-2.3c0.5,0.4,1.1,0.9,1.8,1.7c0.8,0.9,1.4,1.5,1.7,1.7c1.4,1.2,3.2,1.8,5.2,1.7c-0.3-0.8-1.7-2-4-3.6
		c0.1-0.3,1,0.6,2.6,2.6c-0.8,0-1.7-0.6-2.8-1.9c-1.3-1.6-2.2-2.5-2.7-2.7c1.9,0.4,4.2,1.8,6.9,4.3c-0.3-0.4-0.7-0.9-1.4-1.6
		c-0.6-0.6-1-1.1-1.3-1.5c0.5,0.1,1.2,0.6,2.2,1.7c1.2,1.3,2,2.1,2.3,2.3c0.1-0.3-0.9-1.4-2.9-3.3c0.6-0.1,1.4,0.5,2.4,1.6
		c1.1,1.2,2.1,1.9,2.8,2.1c-0.1-0.5-0.7-1.3-1.9-2.2c-1.4-1.1-2.2-1.9-2.4-2.3c0.5,0.1,1.5,0.9,3,2.4c1.4,1.4,2.8,2.1,4.2,2.1
		c0-0.5-0.5-1.2-1.6-2.1c-1.3-1-2.1-1.8-2.3-2.2c0.5,0.1,1.4,0.8,2.5,2c1.4,1.2,2.4,2,3,2.3c0-0.5-0.6-1.2-1.9-2.1
		c-1.3-1.1-2.1-1.9-2.4-2.4c0.5,0.1,1.3,0.7,2.3,1.8c1.2,1.2,2.1,1.9,2.6,2.1c-0.3-0.5-0.9-1.1-1.9-2c-0.8-0.8-1.4-1.5-1.8-2
		c0.5,0.1,1.4,0.8,2.7,2.2c1.2,1.4,2.5,2.1,3.9,2.1c-0.1-0.5-0.9-1.2-2.4-2.1c-1.6-0.9-2.3-2-2.2-3.1c1,0.3,2.3,1.1,3.9,2.5
		c1.5,1.3,2.8,2.1,4,2.3c-0.5-1.4-2-3-4.3-4.6c0.9-0.2,1.9,0.3,2.8,1.6c1.2,1.6,2.1,2.5,2.5,2.7c-0.1-0.7-0.7-1.5-1.8-2.6
		c-1.5-1.4-2.3-2.3-2.5-2.6c1.6,0.7,3.3,2.3,4.9,5c0.4-0.3,0.3-0.7-0.2-1.1c-0.6-0.5-0.8-0.9-0.8-1.3c0.1,0,0.1,0,0.2,0.1
		c0.1,0.1,0.3,0.2,0.5,0.3c1.2,1.2,2,1.9,2.3,2c-2.3,2-9.2,2.5-20.5,1.6c-6.1-0.5-9.7-2.2-10.6-5.3c0.5-0.5,0.7-1.1,0.6-2
		c0-1.1,0-1.9,0.1-2.3c1.6-1.8,6.1-2.7,13.6-2.9c-13.3-7.8-21.5-17.5-24.5-29.1c-0.2,0,1.2-0.5,4.3-1.4c-0.3-1.1-0.8-2.1-1.6-2.9
		c-0.1-3,0.8-6,2.9-8.9c2.7-0.7,5.3-3.1,7.9-7c0.3-0.4,0.7-1,1.2-2c0.6-1,1-1.8,1.3-2.1c1-1.6,2.1-2.6,3.2-2.8
		c4.4-0.8,10-2.6,16.8-5.3c1.1-0.6,1.6-1.5,1.4-2.6c-2.5,0.6-3.4,1.1-2.6,1.7c-0.3-0.3-0.1-0.8,0.4-1.4c0.6-0.6,0.8-1.2,0.6-2
		c-0.3,0.2-0.6,0.6-1,1.1c-0.3,0.5-0.7,0.8-1,1c-0.8,0.1-1.6-0.1-2.3-0.7c0.1-0.3,0.4-0.2,0.9,0.1c0.5,0.3,0.9,0.3,1.1-0.1
		c0.3-0.5,0.5-1.9,0.4-4c0.2,0,0.1,0.6-0.4,1.7c-1.8-3.3-2.6-6.1-2.2-8.6c-0.6,0.5-0.9,1.4-1,2.5c-0.1,1.3,0.1,2.2,0.6,2.7
		c-1.4-1-1.7-3-0.8-6c0.1-0.1,1-2.2,2.8-6.2c-3.5,5.1-6.2,6.5-8.3,4c1.4,0.8,2.7,0.7,3.9-0.3c1-0.8,1.8-1.9,2.3-3.4
		c-1.4,0.7-2.7,1.2-4.1,1.4c-2,0.3-3.2-0.3-3.5-1.7c0.3,0,0.5,0.2,0.8,0.6c0.3,0.3,0.6,0.5,0.9,0.4c-0.2-0.1-0.5-0.4-1-0.9
		c-0.4-0.3-0.7-0.6-1-0.8c1.2,0.3,2.3,0.2,3.5-0.1c1.5-0.4,2.3-1.2,2.4-2.5c-3.5,2.3-5.3,2.2-5.3-0.3l1.3,1c1.2-0.6,2.1-2.3,2.7-5.1
		c0.7-2.7,1.7-4.4,2.9-4.9c-2.3,0.4-3.5,0.2-3.6-0.6c0.4,0.3,1.3,0.3,2.6,0c0.1,0.2-0.8,0.1-2.6-0.4c0-0.1,0.4-0.2,1.3-0.3
		c-2.1-2-3.1-2.7-2.9-2.3c0.5,0.6,1.6,0.9,3.1,0.9c1.7-0.1,3-0.5,3.8-1.2c0.1,0-0.9,0.1-3,0.2c-1.4,0.1-2.2-0.5-2.2-1.6
		c0.8,0.8,1.9,0.9,3.1,0.5c1-0.4,1.8-1,2.4-1.8c-0.1-0.4-0.3-0.5-0.6-0.2c-0.5,0.3-0.8,0.3-1.1,0.2c1.8-2,2.7-2.9,2.6-2.6
		c-0.1-0.1-0.4-0.1-1-0.1c-0.6,0.1-1,0.1-1.4,0c-1.2-0.1-1.9-0.6-2-1.3c1.6,0.9,3.2,0.4,5-1.5c2.2-2.3,4-3.5,5.3-3.5
		c0.1,0.5-0.2,0.7-0.9,0.8c-0.7,0.1-1,0.3-1.1,0.6c0.5,0.3,0.6,0.5,0.5,0.7c-0.1,0-0.2,0.1-0.4,0.2c-0.2,0.2-0.3,0.3-0.4,0.4
		c0.3,0.3,0.8,0.1,1.4-0.6c0.7-0.7,1.3-1.1,1.9-1.1c-0.1-0.7,0.1-1.4,0.5-2.1c0.4-0.8,0.6-1.6,0.6-2.1c-0.8-0.6-1.4-1-1.7-1
		c-0.1-0.1-0.2-0.3-0.3-0.6c-0.1-0.2-0.2-0.3-0.4-0.4v-2c-0.1-0.6,0-0.8,0.2-0.6s0.2,0.5,0.1,0.9c0,0.3,0.1,0.5,0.3,0.8
		c0.1,0.3,0.2,0.6,0.1,0.9c0.1,0.4,0.7,0.8,1.7,1.4c-0.1-0.2-0.4-0.9-1-2.2c-0.4-0.9-0.4-1.7-0.1-2.4c0.1,0.3,0.3,0.6,0.4,1.1
		c0.1,0.6,0.1,1,0.2,1.2c0.3,0.8,0.8,1.2,1.8,1.1c0.5-0.1,0.6-0.8,0.4-2c-0.1-1.4,0-2.2,0.3-2.6c0.1,0.1,0.1,0.9,0.1,2.2
		c-0.1,1.2,0.2,1.9,0.9,2.1c0.2-0.3,0.2-1.2-0.1-2.5c-0.3-1.2-0.1-2,0.4-2.4c-0.5,1.7,0.3,3.2,2.1,4.5c2,1.4,3,2.7,2.8,3.8
		c-0.1,0.1-0.4,0-0.7-0.2c-0.1-0.1-0.1,0.3,0,1.2c-0.1-0.3-0.4-0.4-1-0.3c-0.6,0-0.9-0.1-1-0.4c-0.1,0-0.2,0.4-0.3,1.3
		c-1.3,0.1-2,0.3-2.1,0.7c-0.3-0.1-0.4-0.5-0.2-1c0.2-0.4,0.1-0.6-0.4-0.7c0-0.1,0.2-0.2,0.5-0.3c0.3-0.1,0.5-0.2,0.5-0.3
		c0.1-0.6-0.4-1.4-1.5-2.2c0-0.2-0.1-0.4-0.2-0.5c0,0.2,0.1,0.4,0.2,0.5c0.1,0.1,0.1,1.1,0,3.2c-0.1,1.4,0.2,2,0.8,2
		c-0.3,0.7-1.7,2-4.3,3.9c-2.2,1.7-3.3,3.6-3.3,5.7c-0.2,0.2-0.4,0.3-0.7,0.2c-0.2-0.1-0.4,0-0.6,0.2c0.7,0.9,1.5,0.2,2.6-2.1
		c0,0.3-0.6,1.8-1.7,4.7c-0.8,2.3-1,4.3-0.4,6c1.2,0.7,1.7,1.7,1.7,2.9c0.2-0.4,0.2-1.3,0.1-2.6c-0.1-1.5-0.2-2.6-0.1-3.3
		c0.3,0.4,0.5,1.6,0.6,3.5c0.1,1.8,0.4,2.9,1.1,3.4c0.1-0.6,0.3-0.8,0.5-0.7c0.1,0.1,0.4,0.4,0.7,0.9c0.9,1.3,1.8,1.9,2.5,1.9
		c-1.4-1.7-2.1-2.5-2.1-2.3h1.7c-0.6-1.2-1.6-1.6-2.9-1.4c0.7-0.4,1.1-0.9,1.1-1.5c0-0.3-0.1-0.6-0.2-1.1c-0.1-0.6-0.2-1-0.3-1.4
		c-0.1-0.1,0.5,0.6,2,2.2c0.8,0.8,1.8,1.2,3,1.1c-0.4-1.1-1-1.6-2-1.4c-1.3-2.1-1.8-4.6-1.4-7.6c0.4-2.6,1.3-4.9,2.6-6.9
		c-0.5-0.4-0.3-1.2,0.6-2.5c0.9-1.4,2-2.3,3.1-2.7c-0.3,1.8-1,2.8-2.1,2.9c-0.1-0.5-0.7,1.1-2,4.7c-0.1,0.5,0.1,0.7,0.6,0.9
		c0.7,0.2,1,0.3,1.1,0.4c0.1-0.4,0-0.7-0.5-0.9c-0.4-0.1-0.6-0.4-0.5-0.8c-0.1-0.5,0.4-0.8,1.3-1c0.5-0.1,0.7,0,0.8,0.5
		c0.1,0.5,0.2,0.8,0.3,0.9c0.3-0.1,0.9-0.6,1.9-1.5c0.7-0.6,1.5-0.9,2.4-0.9c0.3,0.9,0.4,1.9,0.3,3C60,43.9,60.2,44,60.7,44
		s0.6,0.2,0.4,0.7c0.2-0.1,0.3-0.5,0.4-1c0.1-0.6,0.2-0.9,0.3-1.1c0.3,0.7,0.6,0.7,1,0.2c0.4-0.5,0.5-1.1,0.3-1.9
		c0.7,0.3,1.2,0.3,1.4,0c-0.1-0.1-0.4-0.4-0.9-0.8c-0.4-0.2-0.4-0.6-0.1-1.2c0.2,0.1,0.3,0.2,0.2,0.4c-0.2,0.3-0.2,0.5,0.1,0.6
		c0.7-0.1,0.8-0.9,0.4-2.6c-0.3,0.9-0.7,1-1.2,0.4c-0.5-0.6-0.7-1.3-0.9-2.1c0.7-0.2,0.6,0.4-0.3,1.7c-0.1,0.3-0.3-0.1-0.4-1.2
		c-0.1-0.7-0.2-0.6-0.3,0.2c-0.3-0.1-0.4-0.7-0.3-1.7c0-0.9-0.1-1.5-0.4-1.7c-0.6,0.3-0.7,0.8-0.4,1.6c0.5,0.8,0.5,1.4,0.1,1.8
		c-0.2-0.1-0.8-0.1-2,0c-0.4-0.1-0.5-0.5-0.4-1.2c0.1-0.6,0.4-0.7,0.7-0.2c0.2-1.5-0.5-3.4-2.1-5.7c-1.4-2-1.7-3.8-0.8-5.6
		c0.1,0.3,0.2,0.6,0.3,1.1c0.1,0.5,0.2,0.9,0.3,1.2c0.3,0.8,0.8,1.3,1.4,1.5c0.1-0.5-0.3-0.5-1.4,0c0.1,0.5,0.6,0.6,1.5,0.5
		c0.7-0.1,1,0.3,0.9,1.2c0.5-0.8,0.4-1.6-0.5-2.3c-0.9-0.8-1.3-1.6-1.2-2.3c2.1,1.3,3.4,2.4,3.6,3.3c1-0.2,1.6-1,1.6-2.4
		c0-1.4-0.7-1.9-2.1-1.6c0.5-0.1,0.8-0.5,1.2-1.3s0.7-1.2,1.1-1.4c-0.5,0.9-0.5,1.8,0.2,2.7c0.8,1,1.2,1.9,1.2,2.5
		c1.2-0.8,1.8-1.5,2-2.2c0-0.5-0.4-1-1.1-1.6c-0.7-0.5-0.9-1.1-0.9-1.8c0.3-0.3,0.6,1,1,4c-1.8-1.1-2.3-2.7-1.7-4.7
		c0.1,0,0.4,0.1,0.7,0.2c0.1,0.1,0.2,0,0.3-0.2c0.1,0.3,1.1,1.6,3,4c0,0.1-0.2,1-0.7,2.9c1.1,0.3,1.6-0.5,1.6-2.3
		c-0.1-1.8-0.7-2.7-2-2.9c0.2-0.2,0.6-0.2,1.2,0.1c0.4,0.1,0.7-0.1,0.9-0.8c0,0.6,0.2,1.3,0.6,2.1c0.4,0.9,0.6,1.8,0.7,2.5
		c0.5-0.4,0.5-1.5,0-3.3c0.8,0.8,1.2,0.5,1-1c2.5,2.7,3.4,5.5,2.7,8.2c0.7,0,1.1-0.7,1.1-2.1c0-1.3-0.3-2.1-0.8-2.4
		c0.5-0.2,1,0.3,1.4,1.4c0.3,1,0.4,2.1,0.3,3.2c0.5-0.3,0.8-0.9,0.9-1.9c0.1-1-0.1-1.7-0.6-2.1c0.8-0.2,1.1,0.5,1,2.1
		s-0.5,2.6-1.2,3.1c0.4-0.3,1-0.6,2-1c0.9-0.3,1.5-0.6,1.9-0.9c0.1-0.5,0.1-0.9-0.1-1.4c-0.2-0.5-0.3-0.9-0.2-1.4
		c0.4,0.2,0.6,0.7,0.7,1.6c0.1,0.8-0.1,1.4-0.4,1.8c0.7,0.6,1.3,0.6,2.1,0.1c0.8-0.5,0.9-1,0.3-1.8c0.7,0.1,0.9,0.4,0.7,1.1
		c-0.1,0.2-0.2,0.5-0.4,0.8l-0.3,0.5c-0.4,0.1-0.8,0.2-1.3,0.1c-0.3,0-0.7,0.1-1.1,0.2c0.4,0.7,1.2,0.7,2.5,0.3
		c1.3-0.4,1.8-1.1,1.5-2.2c0.3,0,0.4,0.2,0.4,0.7c-0.1,0.6-0.1,0.9-0.1,1c-0.4,0.5-1.3,1-2.6,1.4l1.2,0.2c0.6,0.1,1,0.4,1.2,0.8
		c1.1-0.7,1.7-1.3,1.7-1.7c0.7,0.3,0.7,1.1,0.3,2.3c-0.3,0.2-1.1,0.3-2.2,0.3c-1.2,0-2,0.1-2.3,0.3c0.1,0.1,0.8,0.3,2.2,0.7
		c1,0.3,1.6,0.8,1.8,1.4c0.1-0.1,0.4-0.2,0.7-0.3c0.3-0.1,0.6-0.2,0.7-0.3c0.5-0.3,0.7-0.8,0.6-1.5c-0.3,0-0.2,0.8,0.3,2.3
		c-1.2,0.8-2.1,1.1-2.9,1c0.7,0.8,1.5,0.9,2.4,0.4c0.9-0.5,1.4-1.1,1.5-2.1c0.4,0.3,0.4,0.8,0,1.4c-0.3,0.6-0.7,0.9-1.3,1
		c0.1,0.7,0.7,1.1,1.7,1.3c0.9,0.2,1.6,0,2-0.6c0.5,0.3,0.5,0.7,0,1.1c-0.7,0.5-1,0.7-1,0.9c0.5,1.4,1.7,2.1,3.6,2
		c0.3,0,0.6-0.2,0.7-0.7c0.1-0.5,0.2-0.8,0.3-1c0.7,1.2,0.5,2.3-0.7,3.1c-1.2,0.8-2.4,0.8-3.6,0.2c0.7,1,1.8,1.3,3.3,1
		c1.4-0.3,2.3-1,2.6-2c0.1,1.3-0.4,2.2-1.6,2.7c-1,0.5-2.1,0.6-3.3,0.3c0.4,0.4,1,2.2,1.9,5.6c0.6,2.5,1.8,3.5,3.7,3
		c0.5-0.3,0.7-1,0.7-2.1c0.2-0.4,0.3-0.2,0.3,0.6c0.1,1.4,0.1,2,0,1.8c-0.8,0.8-2.1,1.1-3.6,0.8c-1.4-0.3-2.5-0.9-3.3-1.8
		c0.2,1.6,1.3,2.7,3.3,3.3c2.1,0.7,3.5,0.2,4.3-1.4c0.4,1.1-0.3,1.8-2.1,2s-3.1-0.1-3.8-1c0.1,0.6,0.3,0.9,0.6,0.9
		c0.5,0,0.9,0.2,1.1,0.5c0.3,0.7,0.5,2,0.6,3.8c0.1,2.1,0.2,3.5,0.4,4.1c0.1,0.4,0.7,0.8,1.7,1.4c-0.8,0.7-1.3,0.9-1.3,0.6
		c-0.6,0.1-1.1-0.1-1.6-0.5c-0.6-0.5-1-0.7-1.2-0.8c0.4,1.7,1.4,2.6,3,2.6c-0.7,0.8-1.6,0.8-2.7,0c-0.3-0.2-0.7-0.6-1.3-1.1
		c-0.5-0.5-0.8-0.8-1-0.9c1.2,3.1,4.1,5.2,8.6,6.2c-0.3,0.5-0.3,0.9,0,1.3c-0.1-0.9,0.7-1.2,2.3-0.8c1.6,0.3,2.5,0.8,2.9,1.5
		c0.4-0.1,0.4-0.2,0.1-0.3l-0.7-0.4c2.7,0.3,9.9-0.2,21.8-1.5c9.4-1,16.4-0.4,20.8,1.9c1.2-0.3,3.3,0.3,6.3,2
		c7.7-0.2,12.6-1.9,14.5-5c0.3,0,0.5,0.1,0.8,0.3c0.3,0.1,0.6,0.2,0.9,0.1c-0.2-0.4-0.6-0.6-1.3-0.7c0.7-2.3,0.6-5-0.4-8.3
		c0-0.1-0.3-0.2-1-0.3c-2.1-3.6-5.6-5.8-10.4-6.5c-3.2-0.4-8.1-0.1-14.6,0.8c-7.4,1-12.4,1.5-15.1,1.5c-5.2-0.1-9.1-1.5-11.6-4.3
		c0-0.3,0.2-0.3,0.5-0.1c0.5,0.2,0.9,0.2,1.2,0.1c0.2-0.6,0.1-1.1-0.3-1.7c-0.5-0.8-0.7-1.3-0.7-1.7c-0.3-2.2,0.3-4,1.9-5.5
		c1.1-1,3-2,5.8-3.1c0.5-0.1,0.8,0,1.1,0.3c0.4,0.5,0.7,0.7,0.9,0.7c0.1-0.3-0.1-0.8-0.8-1.4s-1.4-0.8-2.2-0.6
		c0.6,0.4,0.5,0.6-0.3,0.5c-1.2-0.2-2-0.1-2.3,0.2c0.1-0.1,0.2-0.3,0.4-0.5s0.3-0.4,0.3-0.5c-0.3-1.8,0.2-3.2,1.3-4.3
		c0.9-1,2.2-1.6,3.9-1.9c1.6-0.3,3.1-0.2,4.6,0.3c1.5,0.5,2.5,1.4,3.1,2.5c-2.5-1.2-4.5-1.8-6-1.7c-3.4,0.3-5.4,1.9-6,5
		c0.8-2.5,2.8-4,6-4.3c3.1-0.4,5.2,0.7,6.2,3.2c1.4,0.1,2.1,0.1,2.3,0V42c1.5-1.1,2.9-1.6,4.3-1.4c0.1,0.6,0.2,0.9,0.5,1.1
		c0.9,0.5,1.3,0.7,1.2,0.6c0.1,0.4-0.2,0.6-0.7,0.7c0.5,0.5,1.2,0.8,2.1,0.9c0.9,0,1.5-0.3,1.9-0.9c0,0.5-0.5,1-1.4,1.7
		c-0.8,0.1-1.6-0.1-2.4-0.6c-0.8-0.5-1.6-0.8-2.1-0.8c-0.9,1.7-2.4,2.6-4.6,2.7c-2.2,0.1-3.5-0.8-3.7-2.7c0.1,0,0.7,0.3,1.9,0.8
		c1.2,0.5,2.1,0.5,2.8-0.1c-2.8-0.6-4.4-1.8-4.7-3.6c0.3,0.1,0.8,0.5,1.6,1.4c0.6,0.7,1.3,1,2.1,0.9c-2.5-1.6-4-3.1-4.3-4.3
		c-1.7-0.4-3.3-0.3-4.7,0.3c-1.5,0.5-2.5,1.4-2.9,2.7c0.2,0.3,0.5,0.1,1-0.5c0.5-0.6,0.9-0.9,1.3-0.9c0,0.3-0.2,0.5-0.5,0.7
		c-0.3,0.2-0.4,0.4-0.5,0.7c0.1,0,0.9-0.3,2.3-1c0.5,0.1,0.5,0.3,0.1,0.6c-0.4,0.3-0.7,0.5-1.1,0.4c0.1,0,0.8,0,2.2,0.1
		c1.2,0,2,0.2,2.3,0.6c-0.3,0.3-0.7,0.3-1.4,0c-0.8-0.5-1.4-0.6-2-0.4c0.1,0,1.2,1.1,3.3,3.2c1.3,1.2,2.7,1.9,4.3,2.1
		c0,0.3-0.2,0.4-0.7,0.5c-0.4,0.1-0.6,0.3-0.6,0.6c0.2,0.3,0.5,0.3,0.8,0c0.4-0.5,0.8-0.6,1.2-0.4c-1.6,2.5-3.8,3.1-6.8,2
		c-2.3-0.9-4.3-2.4-6.1-4.6c-0.1,0-0.5,0.2-1,0.6c-0.3,0.2-0.7,0.1-1-0.3c-0.1,0.3-0.8,0.9-2.1,2.1c-1,0.9-1.5,1.9-1.7,2.9
		c-0.2,2.6,1.2,4.7,4.3,6.3c-0.3,0.2-0.9,0-1.7-0.5c-0.9-0.5-1.6-0.8-2-0.9c1,1.2,2.5,2.1,4.3,2.7c2,0.7,3.6,0.9,5,0.6
		c-0.2-0.5-0.5-0.7-1-0.7c-0.1,0.3,0.8,0.2,2.9-0.3c0,0.5-0.6,0.7-1.7,0.6c0.5,0.3,2,0.4,4.3,0.4c0.2-0.5,0.1-0.7-0.4-0.7
		c-1-0.1-1.4-0.1-1.3,0c0.4-0.4,1.1-0.6,2.1-0.7c-0.4,0.5-0.3,0.8,0.2,0.9c0.7,0,1,0,1.1,0.1c0.3-0.1,0.4-0.2,0.1-0.4
		c-0.4-0.3-0.5-0.6-0.4-0.9c0.3,0.1,0.5,0,0.8-0.2s0.6-0.2,0.9-0.1c-0.2,0.2-0.5,0.4-1,0.6c0.1,0.3,0.5,0.5,1.3,0.4
		c0.8-0.1,1.2,0,1.4,0.3c0.5-0.6,1.7-0.7,3.6-0.3c-0.2-0.4-0.4-0.6-0.7-0.7c-0.2,0.6,0.4,0.8,1.7,0.7c-0.1-0.3-0.3-0.5-0.4-0.6
		c0.3,0.1,0.7-0.1,1.4-0.4c0.5-0.3,1-0.2,1.4,0.3c-0.2,0.1-0.2-0.3,0-1c2.7,0.2,4.3,0.4,5,0.7c0.3-0.1,0.3-0.3,0-0.7
		c-0.6-0.6-0.8-0.9-0.7-0.7c0.5-0.3,1.2-0.1,2.3,0.7c-0.1-0.6,0.1-0.9,0.5-0.9c0.1,0,0.6,0.2,1.5,0.5c0.6-0.5,1.7-0.6,3.2-0.1
		c2,0.5,3.4,0.7,4.4,0.5c0.2,0.6,1.1,1,2.6,1.4c1.4,0.3,2,1,2,2.2c0.6-0.8,2-0.1,4.3,2c0.4-0.2,0.4-0.6,0-1.1
		c-0.4-0.5-0.4-0.9,0-1.2c2.9,1.4,4.7,4.4,5.4,9c0.7,4.6-0.1,8.2-2.3,10.8c0-0.4,0.2-0.8,0.6-1.2c0.4-0.5,0.6-0.8,0.7-1.2
		c-0.7-0.3-1.3-0.2-1.7,0.5c-0.5,0.8-0.9,1.2-1.3,1.2c0,0.2,0.2,0.3,0.6,0.4c0.4,0.1,0.6,0.2,0.7,0.3c-0.1,0.3-0.9,0.7-2.6,1.3
		c0.4,0.5,0.3,0.7-0.3,0.7c0.3,0.7,0.8,0.7,1.6,0.2c0.9-0.6,1.6-0.9,2.1-0.9c-2.2,1.7-3.9,2.4-5,2.1c-0.3,0.2-0.2,0.4,0.3,0.7
		c0.2,0.1,0.5,0.3,0.8,0.4c0.3,0.1,0.5,0.2,0.6,0.2c-0.7,0.3-1.8,0.5-3.1,0.4c-1.4-0.1-2.3-0.3-2.8-0.7c-0.1,1,0.5,1.5,2,1.7
		c-0.2,0.5-0.8,0.6-2,0.2c-1.3-0.4-2.2-0.4-2.6,0.1c0,0.4,0.2,0.7,0.6,1.1c0.4,0.3,0.5,0.7,0.4,1.3c-0.3,0.1-0.6-0.1-0.8-0.4
		c-0.2-0.3-0.5-0.4-0.9-0.3c0.1,0.1,0.8,1.2,2.2,3.4c0.8,1.4,1.2,2.9,1.1,4.5c-0.4-0.2-0.6-0.4-0.7-0.7c-0.2,0.2-0.1,0.5,0.2,1
		c0.4,0.6,0.6,1,0.5,1.4c0.4,0-0.4-0.4-2.3-1.3c0.1,1.8,0.5,3.4,1.4,4.9c0,0.5-0.5,0.5-1.4,0c0,2.9,0.1,4.8,0.4,5.7
		c-0.5-0.3-0.7,0.1-0.9,1c-0.3,1.2-0.5,1.8-0.8,2c0.3,0.6,0.7,1.8,1.3,3.7c0.6,1.6,1.1,2.9,1.6,3.7c1.4,2.6,3.4,3.7,6.1,3.2
		c1,0.8,1.5,2.6,1.5,5.4c-0.1,2.7,0.3,4.5,1.2,5.2c0.8,0.1,1.3-0.2,1.4-0.7c0.4,0.2,0.4,0.5,0,1c-0.4,0.4-0.8,0.5-1.4,0.4
		c0.1,0.1,0.5,0.7,1.3,1.8c0.5,0.7,0.6,1.6,0.4,2.5c-0.3,0-0.5-0.2-0.6-0.7c-0.2-0.5-0.4-0.7-0.7-0.7c0.3,0.5,0.5,1.4,0.8,2.5
		c0.3,1.2,0.6,2,0.9,2.4c-0.3-0.1-0.5,0-0.8,0.2s-0.6,0.2-0.9,0.1c0.1,3.3,0.1,4.9,0.1,4.9S166.4,144.2,162.5,145.1z M43.6,147.1
		c0.9,0.7,2,1.8,3.2,3.2c1.6,1.9,2.6,3,3,3.4c-0.3-1.2-1.2-2.5-2.6-3.7c-1.6-1.3-2.6-2.4-3-3.2c-0.1,0,0.4-0.1,1.5-0.2
		c0.6-0.1,0.9-0.4,0.9-0.9c-0.3-0.2-1.1-0.4-2.5-0.5c-1.3-0.1-2.2-0.3-2.7-0.8c-0.7,1.2-1.4,1.9-2,2c-0.1-0.1-0.2-0.5-0.3-1.2
		c-0.1-0.6-0.2-0.9-0.4-1.1c-0.4,1.2-0.9,1.7-1.7,1.6c-0.7-1.7-0.6-3.6,0.4-5.9c0.8-1.8,1.9-3.3,3.2-4.7c-1-0.3-1.7-1.3-1.9-2.9
		c-0.2-1.6,0.1-2.8,0.9-3.7c0.5,0.3,1,0.7,1.6,1.2c0.7,0.7,1.2,1,1.5,1.2c0-0.4,0.1-1.1,0.4-2.2c0.2-1,0.3-1.7,0.4-2.2
		c0.2-1.8-0.1-3.1-0.8-4.1c0.1,0.1,0.3,0.2,0.5,0.3c0.2,0.2,0.4,0.3,0.5,0.4c0-7.2-1-12.6-3-16.2c-0.3,0.1-0.6,0.3-0.9,0.8
		c-0.3,0.5-0.5,0.7-0.8,0.9c-1-0.5-2.4-0.4-4.3,0.3c-1.8,0.7-3.1,1.4-3.9,2.3c-0.4-0.5-1-0.6-1.9-0.3c-1.5,0.5-2.2,0.7-2.1,0.6
		c-0.3,0.1-0.3,0.5-0.1,1c0.2,0.5,0.1,0.9-0.2,1.1c-1.2-0.9-2.7-1-4.4-0.3c-1.5,0.7-2.6,1.6-3.2,2.9c-0.1,0.3-0.4-0.1-0.7-1.4
		c-0.5,0-1.1,0.1-1.8,0.3c-0.8,0.3-1.3,0.4-1.6,0.4c-0.5,1.4-0.6,2-0.3,2c-0.5,0.1-0.8-0.1-1.1-0.5c-0.4-0.5-0.7-0.7-1-0.8
		c-0.1,0.1-1.3,0.5-3.6,1.3c2.3,8.3,6.4,14.8,12.2,19.5c0.2-0.2,0.3-0.8,0.3-1.9c0.1-0.8,0.3-1.3,0.8-1.5c1.3,0.5,2.2,1.4,2.8,2.7
		c0.7,1.4,0.5,2.7-0.6,3.9c0.7,0.3,2.1,1.2,4.1,2.5c2,1.4,3.6,2.3,4.9,2.7C38.2,147.2,41.6,147.7,43.6,147.1z M12.4,112.4
		c0,2,0.5,2.9,1.4,2.9c0.1,0.4,0.2-1.1,0.3-4.6c-0.5-0.1-0.7,0.3-0.8,1c-0.1,0.8-0.2,1.2-0.5,1.3c-0.6-2.1-0.5-3.4,0.3-3.6
		c0.1,0.6-0.2,1.4-0.9,2.3c-0.6,0.8-0.6,1.3-0.1,1.7C12.2,112.7,12.3,112.4,12.4,112.4z M14.5,113.4c-0.1,1.1,0.2,1.5,1,1.3
		C15.3,113.8,14.9,113.3,14.5,113.4z M21,103.1c-0.1,0.3-1.1,0.9-3.2,1.8c-2,0.8-3,1.8-3,2.8c0,0.2,0.2,0.7,0.6,1.6
		c0.4,0.8,0.7,0.9,0.8,0.1c0.1,1.6-0.2,2.6-0.7,3c-0.1-0.9-0.2-1.4-0.3-1.4c-0.4,0.9,0,2.1,1.3,3.6c0.3,0,0.5-0.2,0.6-0.7
		c0.1-0.5,0.3-0.8,0.4-1c-0.1,1,0.3,1.4,1,1.4c-0.8-2.9-0.6-5,0.7-6.2c-0.2,1.4-0.2,1.9-0.1,1.6c0.5-1.2,0.9-1.9,1.1-2.2
		c0.1,0.1,0,0.6-0.2,1.4c-0.1,0.5-0.1,0.6,0.2,0.3c0.1-0.8,0.2-1.1,0.5-1.1c0.5,0.2,0.7,0.2,0.9,0.1c-0.2-0.3-0.3-0.7-0.3-1.1
		c0-0.3-0.1-0.7-0.4-1c0.8-0.1,1.4-0.7,1.9-1.8c0.4-1,0.3-1.8-0.2-2.1c0.1,1.2-0.3,1.9-1,2.2C21.3,103.6,21.2,103.1,21,103.1z
		 M19.1,125.3c-1.6-0.3-2.7-1.1-3.1-2.3c-0.4-1.1-0.5-2.8-0.2-5c0.4,0.1,0.6,0,0.7-0.3c0.3,0,0.6,0.2,1.1,0.7
		c0.2,0.2,0.2,0.1-0.1-0.4c0.3,0,0.7,0.5,1.3,1.4c0.7,1.1,1.1,1.8,1.4,2c0,0.6-0.1,1.3-0.4,2.1C19.3,124.3,19.1,125,19.1,125.3z
		 M16.7,111.7c-0.3-0.2-0.4-0.6-0.3-1.3c0-0.2,0.1-0.5,0.2-0.8c0.1-0.3,0.1-0.5,0.1-0.6c0.3,0.7,0.5,0.8,0.6,0.6l0.2-0.5
		c0.1-0.3,0.2-0.6,0.3-0.8c0.3,0.3,0.3,0.9,0,1.8c-0.3,1.2-0.4,1.9-0.4,2.2c-0.1-0.1-0.3-0.6-0.4-1.3c-0.1-0.4-0.1-0.6-0.1-0.6
		S16.9,111,16.7,111.7z M16.4,127.9c1.8,1.7,2.4,3.3,2,4.9C17.4,132.4,16.8,130.7,16.4,127.9z M34,134.2c0.3,0.1,0.6-0.1,0.9-0.4
		c0.2-0.3,0.4-0.2,0.7,0.1c0.8,1,0.6,2-0.5,2.9c-1.2,1-2.1,1-2.7,0c-0.7,0.9-1.5,1.5-2.5,1.8c-1.2,0.3-2-0.3-2.1-1.8
		c0.9-0.7,1.2-1.8,0.8-3.3c-0.1-0.5-0.3-1.1-0.6-1.9c-0.3-0.8-0.4-1.4-0.5-1.8c-0.4,0.1-1,0.3-1.8,0.4c-0.8,0.2-1.4,0.3-1.8,0.4
		c-1.3,0.4-2,1.1-2.1,2.1c-1,0.3-1.7-0.1-2.1-1.1s-0.3-1.7,0.4-2.1c-0.1-0.3-0.3-0.6-0.8-0.9c-0.5-0.3-0.7-0.6-0.9-0.8
		c0,0.2,0.4-0.5,1.1-2.1c0.7,1,1.7,1.2,3.1,0.7c0.3-0.1,0.9-0.3,1.8-0.7c0.7-0.3,1.3-0.5,1.7-0.6c-0.2-0.3-0.4-1-0.6-2
		c-0.2-0.8-0.4-1.4-0.7-1.8c0.1-0.3,0.9-0.6,2.6-1c-0.6,0.1-1.4,0-2.3-0.4c-1-0.3-1.8-0.4-2.3-0.3v-1.6c0.2-0.1,0.6-0.2,1.2-0.3
		c0.5-0.1,1-0.3,1.6-0.4c-0.1-0.1-0.5-0.3-1.4-0.4c0.2,0,0.7-0.2,1.4-0.6c0.8-0.4,1.5-0.7,2-0.8c1.6-0.5,2.7-0.2,3.3,1.1
		c-0.1,0.3-0.3,0.4-0.8,0.4c-0.5,0-0.8,0.1-0.9,0.3c0.1,0.7,0.3,1.7,0.8,2.9c0.5,1.2,0.7,2.2,0.9,3c1.4-0.1,3.5-0.7,6.2-2.1
		c0.1-0.3,0-0.6-0.1-0.9c-0.2-0.3-0.3-0.5-0.2-0.8c0.8-0.1,1.8,0.3,2.9,1.1c-0.1,0.4,0.1,1.7,0.7,3.8c0.4,1.4-0.3,2.2-2,2.4
		c0.2-0.3,0.3-0.7,0.3-1c-1.1-0.1-2.3,0.1-3.5,0.6c-1.6,0.6-2.7,0.9-3.1,1.1C32,129.2,32.7,131.3,34,134.2z M19.8,128.5
		c1.4-0.4,2.1-0.7,2.3-1c-0.5,0.4-1,0.4-1.8,0c-0.7-0.3-1.1-0.2-1.3,0.4C19.6,127.9,19.8,128.1,19.8,128.5z M20.4,119.3
		c-0.6-0.2-0.8-0.7-0.7-1.5c0.1-0.6,0.4-1.1,0.7-1.6c-0.4-0.1,0.2,1.3,1.7,4c-0.5,0.5-0.7,0.3-0.9-0.6c-0.3-1.1-0.4-1.7-0.5-1.8
		C20.6,118,20.5,118.5,20.4,119.3z M22.1,156c-0.3-0.1-0.7-0.4-1.3-1.1c-0.5-0.6-0.9-0.8-1.1-0.6c0.1,0.1,0.2,0.4,0.5,0.7
		c0.3,0.3,0.5,0.5,0.6,0.7C21.4,156.2,21.8,156.3,22.1,156z M20.1,130.6c0.9-0.1,1.5-0.5,1.7-1C20.5,129.5,20,129.8,20.1,130.6z
		 M23.1,112c-0.5-0.4-0.9-0.4-1.5,0c-0.1,0.1-0.4,0.2-0.7,0.5c-0.2,0.3-0.4,0.4-0.5,0.5C21.7,112.9,22.6,112.5,23.1,112z
		 M21.4,128.9c8.7-2.7,13.9-4.6,15.8-5.7C28.1,126.4,22.8,128.3,21.4,128.9z M21.7,136.8c1.4-0.4,2.1-0.7,2.3-1
		C22.8,135.8,22,136.1,21.7,136.8z M24.7,103.1c-0.1,0.5-0.7,1.4-2.1,2.7c-1,1-1.2,1.9-0.6,2.5c-0.1-0.8,0.1-1.2,0.6-1.4
		c0.1,0.3,0.2,0.3,0.4,0.2c0.2-0.1,0.3,0,0.3,0.2c0,2.6-0.1,3.8-0.3,3.6c0.8-3.1,1.4-4.8,1.7-5c-0.1,0.2-0.2,0.7-0.5,1.7
		c-0.3,0.8-0.4,1.4-0.5,1.9c-0.2,1.6,0.4,2.4,1.7,2.4c-1-1.8-0.3-4.5,2-7.9c-0.1,0.6-0.4,1.5-0.9,2.7c-0.4,1.1-0.6,1.9-0.5,2.2
		c0.5-0.5,0.9-1.6,1.4-3.2c0.4-1.5,0.8-2.5,1.3-3.1l-0.2,0.6c-0.1,0.2,0,0.4,0.2,0.5c0.1-0.5,0.4-1.6,0.9-3.1
		c0.4-1.2,0.6-2.1,0.5-2.5c0,0.3-0.3,0.6-1,0.8c-0.7,0.1-1,0.1-1-0.1c0.1-1.2,0.9-2.7,2.3-4.5c1.4-1.8,2.1-3,2.2-3.8
		c-1.3,1.8-2.1,2.8-2.3,3c0.3-0.7,0.3-1,0.1-0.8c-0.4,0.3-0.6,0.3-0.7,0.1c0-0.1,0.2-0.4,0.6-1c0.3-0.3,0.3-0.6,0-0.7
		c-0.4,0.7-0.8,1-1.3,1c0.1-0.2,0.5-0.6,1.2-1.4c0.5-0.5,0.7-0.7,0.5-0.6c-0.3,0.1-0.7,0.4-1,0.8c-0.4,0.5-0.7,0.7-1.1,0.9
		c-0.3-0.5-0.7-0.6-1.3-0.4c-0.6,0.3-1,0.2-1.4-0.3c0.3-0.3,0.3,0.3,0,1.7c-0.5-0.1-1.1,0.3-1.7,1.1c-0.7,0.8-1,1.6-1,2.5
		c-0.3,0.1,0.1,0.4,1.4,0.7c0.5-0.9,0.5-1.4,0-1.4c0.3,0.3,0.7,0.7,1,1c-0.1,0.3-0.1,0.7-0.2,1c0.5-1.4,0.9-2.1,1.5-2.2
		c-0.6,1.8-0.8,2.6-0.7,2.4c-0.1,0,0.1-0.3,0.5-0.9c0.3-0.5,0.6-0.9,0.9-1.3c-0.4,1-0.6,1.7-0.5,1.9c0,0.2,0.2,0.1,0.5-0.4
		c0.8-1.3,0.8-2,0-2.1c0.1-0.3,0.4-0.5,0.9-0.7c0.4-0.1,0.7-0.5,0.8-1c0.1,0.8-0.3,2-1,3.5c-1,2-1.5,3.2-1.7,3.7
		c-0.1-0.3-0.1-0.8,0.2-1.6c0.1-0.5,0.1-0.7-0.2-0.4c-0.1,0.1-0.2,0.4-0.3,0.8s-0.2,0.7-0.3,0.8c-0.2,0.4-0.4,0.2-0.7-0.6
		c0.1,0.9-0.1,1.5-0.6,1.9c-0.1,0.1-0.3,0.2-0.6,0.4c-0.3,0.1-0.4,0.3-0.5,0.4c-0.1-0.7-0.3-1-0.4-1v1.3c0.1,0.3,0.4,0.4,0.7,0.2
		s0.5-0.3,0.5-0.3S24.6,102.8,24.7,103.1z M27,157c-0.7,0.1-1.7-0.5-2.8-1.7c-1.1-1.1-1.7-2-1.8-2.6C23.8,154.4,25.3,155.9,27,157z
		 M23.8,119c2.7-0.5,3.9-1,3.6-1.7c-0.3,0.2-0.9,0.5-2,0.8C24.6,118.3,24,118.6,23.8,119z M24.3,110.4c-0.3-0.6,0.2-2.3,1.4-5.3
		C25.8,105.4,25.3,107.2,24.3,110.4z M25.4,136.1c0.3-0.6,0.1-1.9-0.4-3.9c0.2,0.3,0.5,0.6,0.9,1c0.5,0.5,0.7,0.9,0.9,1.1
		c0.7,0.8,0.8,1.7,0.6,2.5C26.1,136.4,25.5,136.2,25.4,136.1z M25.7,122c1.6-0.5,2.4-0.8,2.6-1C26.9,120.9,26,121.2,25.7,122z
		 M28.6,122.3c-0.1,0.3-0.5,0.5-1.2,0.6c-0.7,0.1-1,0.4-1.1,0.8C28.4,123.1,29.1,122.7,28.6,122.3z M29.7,124.2
		c-1.4,0.1-2.4,0.4-3,1.1C27.4,125.3,28.4,124.9,29.7,124.2z M27.7,107.4c0.1,0.3-0.2,0.8-0.7,1.6c-0.3,0.6-0.3,1,0,1.4
		c0,0.1,0.3-0.4,0.8-1.5C28.1,108.2,28.1,107.8,27.7,107.4z M72.3,105.1c-0.1-0.2-0.2-0.5-0.3-0.8c0-0.3-0.1-0.6-0.4-0.9
		c0.1,0,0.3,0.1,0.5,0.2c0.1,0.1,0.1,0,0.2-0.2c-0.1-0.2-0.5-0.8-1-2c-0.3-0.8-0.8-1.4-1.4-1.7c0,0.3,0.2,0.6,0.5,0.9
		c0.2,0.3,0.2,0.5-0.1,0.8c-0.6-0.3-0.9-0.2-1,0.4c-0.1,0.8-0.3,1.2-0.7,1.3c0.2-0.5,0-0.9-0.5-1.3c-0.5-0.4-0.7-0.4-0.9-0.1
		c0.1,0.1,0.4,0.4,1,1c0.4,0.5,0.4,0.8,0.1,1.1c0.1,0-0.2-0.3-0.8-0.8c-0.3-0.3-0.5-0.2-0.6,0.1c0.2,0,0.4,0.2,0.5,0.5
		c0.2,0.4,0.1,0.6-0.2,0.5c0-0.1-0.6-0.8-1.8-2.1c-0.8-0.9-1.1-1.7-0.9-2.2c1,1.8,1.8,2.5,2.3,2c-2.1-1.6-3-3-2.6-4.3
		c1.2,2.1,2.1,3.4,2.9,3.6c0-0.4-0.2-0.8-0.7-1.3C66.2,99.4,66,99,66,98.5c0.3,0,0.6,0.4,1,1.1c0.3,0.6,0.7,0.7,1,0.3
		c-0.1-0.2-0.3-0.5-0.6-0.8c-0.4-0.5-0.7-0.8-0.8-1c-0.5-0.7-0.6-1.3-0.3-1.9c0.1,0.1,0.2,0.3,0.4,0.8c0.2,0.5,0.3,0.8,0.4,1
		c0.4,0.7,0.8,0.9,1.3,0.5c0,0.1-0.4-0.4-1.1-1.5c-0.5-0.7-0.6-1.1-0.3-1.5c0.1,0.1,0.2,0.4,0.4,0.7c0.1,0.4,0.3,0.7,0.4,0.9
		c0.4,0.7,0.8,0.8,1.2,0.4c-0.5-0.2-0.7-0.4-0.6-0.7c0.1-0.3,0.4-0.3,1,0c0.1-0.4-0.1-0.9-0.6-1.7c-0.4-0.6-0.4-1-0.1-1.3
		c0,0.3,0.2,0.7,0.5,1.1c0.3,0.3,0.4,0.6,0.5,0.9c1.5-0.4,2.1-0.5,2-0.3c-0.1-0.1-0.5-0.4-1.4-0.8c-0.7-0.3-0.9-0.6-0.6-0.9
		c0.2,0,0.4,0.1,0.5,0.3c0.2,0.2,0.4,0.3,0.5,0.4c0-0.1,0-0.3,0-0.5c0-0.3,0-0.5,0-0.6c0.1-0.3,0.3-0.4,0.7-0.3
		c0.1-0.3,0-0.6-0.3-0.8c-0.3-0.2-0.5-0.5-0.4-0.9c0.2,0,0.4,0.2,0.6,0.5c0.2,0.2,0.5,0.3,0.8,0.2c0.1-0.3-0.1-0.6-0.4-1
		c-0.3-0.4-0.3-0.6,0-0.7c0.7,0.6,0.9,0.8,0.7,0.6c0.3,0.3,0.6,0.2,0.7-0.2c-0.8-0.5-1.1-1-1-1.7c0.3-0.1,0.5,0.1,0.6,0.5
		s0.4,0.6,0.7,0.5c0-0.5-0.2-1.1-0.6-1.9c-0.4-0.7-0.6-1.3-0.7-1.8c1.2,0.3,1.6,0.5,1.3,0.6c0.1-0.3,0-0.6-0.3-0.8s-0.4-0.5-0.3-0.9
		c0.1,0.1,0.3,0.2,0.6,0.4c0.3,0.1,0.6,0.2,0.7,0.3c0.1-0.3,0-0.6-0.3-0.8c-0.3-0.3-0.5-0.6-0.4-0.9c1.2-0.4,1.8-0.4,1.7,0
		c-0.1-0.1-0.4-0.2-0.8-0.3c-0.4-0.1-0.7-0.1-0.8-0.2c-0.6-0.3-0.8-0.7-0.7-1.5c1-0.5,1.4-0.5,1.3,0c-0.3-0.3-0.8-0.5-1.5-0.4
		c-0.6,0-1-0.2-1.2-0.6c0.7-0.1,1-0.3,1-0.7C69,80.6,67,80.5,66,80.7c0.2-0.5,0.5-1.2,0.8-2.1c0.4-1,0.7-1.8,0.9-2.1
		c0.5,1.6,0.6,2.3,0.3,2.2c0.1-0.5,0.3-0.6,0.4-0.6c1.2,0.5,2.2-0.2,2.9-1.9c0.8-2,1.8-3.2,2.9-3.5c-1.3-0.1-2.6-0.1-3.9,0
		c-0.3,0.2-0.5,0.6-0.8,1.3c-0.3,0.6-0.6,0.9-0.9,1.1c-0.1-1.4,0-2.5,0.3-3.3c-0.4-0.3-0.9-0.4-1.7-0.3c0.1,0.7-0.2,1.3-1,1.7
		c0.1-0.8-0.2-1.4-0.7-1.7c-0.1,0.9-0.5,1.5-1,1.7c-0.3-0.6-0.7-1-1.3-1.4l-1.4,1c0.1-0.6-0.2-1-0.8-1.1c-0.7-0.1-1.1-0.2-1.2-0.2
		c0.7-0.4,0.9-0.7,0.5-1.1c-0.7-0.5-1.1-0.7-1.2-0.9c0.4,0.1,0.7,0,1-0.5c0.2-0.5,0.1-0.7-0.3-0.9c-0.3,0.4-0.8,0.2-1.7-0.6
		c-1.1-1-1.8-1.6-2-1.8c0,0.5-0.2,0.8-0.7,1c-1.4-1.5-2.3-2-2.6-1.6c0.1,0.1,0.4,0.4,0.9,0.7c0.4,0.3,0.7,0.6,0.8,0.9
		c-0.9-0.1-2.1,0-3.7,0.3c-1.9,0.5-3.3,0.7-4.2,0.8c0.7,0.7,2.5,0.7,5.5-0.2c1-0.3,1.8-0.3,2.2-0.1c0.5,0.3,0.7,1,0.5,2.2l-1.3-1
		c0.1,0.7,0.1,1-0.2,0.8c-0.5-0.3-0.5-0.4-0.2-0.5c-0.5,0.1-1.1,0.5-1.9,1.1c-0.7,0.6-1.3,0.9-1.8,0.9c0.2,0.1,0.5,0.3,1,0.6
		c0.5,0.2,0.8,0.4,1,0.5c0.2-0.1,0.5-0.4,0.9-0.8c0.4-0.3,0.7-0.6,0.9-0.8c0.8-0.6,1.5-0.6,2.2-0.1c-0.4,0.1-1.1,0.4-2.1,0.9
		c-0.9,0.4-1.6,0.7-2.1,0.8c-1.6,0.5-2.9,0-3.7-1.4c0.4,1.4,1.2,2.1,2.4,2.1c0.7,0,1.9-0.3,3.6-0.9c1.6-0.6,2.8-0.8,3.4-0.7
		c1.1,0.1,1.8,1,2.1,2.7c-0.8-0.5-1.9-0.7-3.1-0.7c-0.1-0.1-0.3-0.1-0.5,0h0.5c0.2,0.2,0.3,0.5,0.2,0.9c0,0.3-0.1,0.5-0.4,0.5
		l-1.3-1c0.3,0.7,0.3,1.1,0.1,1.1c-0.3,0.1-0.5-0.2-0.8-0.8v1.3C56,75.4,57,76,57.1,77c-0.8-0.4-2.8-0.3-5.8,0.3
		c-2.6,0.6-4.4,0.3-5.5-0.9c0.8,1.3,2,2,3.6,2c0.4,0.1,1.8-0.1,4.3-0.6c1.7-0.3,2.9-0.2,3.5,0.4c0.8,0.8,1.1,2.5,0.9,5.2
		c-0.8,0.3-1.1,0.1-1.1-0.4c0.4,0.1,0.5,0.5,0.4,1.1c-0.2,0.6-0.4,0.9-0.7,1c0-0.2,0.2-1.6,0.5-4.1c0.1-1.3-0.3-2.2-1.2-2.8
		c-1-0.1-2.1,0.3-3.2,1.1s-2.1,1.2-3,1.2c2.6,2.1,3.1,3.7,1.4,5c-0.2-0.7-0.2-1,0-1c0,0.3-0.2,0.4-0.5,0.5c-0.3,0.1-0.5,0.3-0.6,0.5
		c0.6-0.1,0.9,0.3,1.1,1.2c0.1,0.9,0,1.5-0.4,1.8c-0.1-0.1-0.1-0.9,0-2.2c-0.6,0-1-0.1-1.3-0.4c-0.8,0.5-1.5,1.9-2,4.1
		c-0.5,2.1-1,3.3-1.8,3.5c0.2,0.4,0.3,0.9,0.2,1.6c-0.1,0.6,0,0.9,0.2,1.1c0.1-0.1,0.2-0.4,0.5-0.8c0.3-0.3,0.4-0.6,0.5-0.9
		c-0.5,0-0.7-0.2-0.7-0.6c0.8-0.3,1.2-1.3,1.4-3.1c0.1-1.9,0.6-3,1.3-3.2c0.3,2.8,0.5,4.8,0.7,6l0.3-0.7c0.1-0.3,0.4-0.4,0.7-0.3
		c-0.1,0.1-0.3,0.5-0.4,1.1c-0.1,0.5-0.3,0.8-0.6,0.9c0.1,0.4,0.1,0.7,0.1,1.1c0.1-0.3,0.1-0.5,0.2-0.7s0.3-0.4,0.7-0.7
		c0.4-0.3,0.6-0.5,0.7-0.7c0.6-1.2,1.1-2.2,1.7-2.9c-0.1,0.7,0.3,1,1,1.2c0.7,0.1,0.8-0.2,0.3-0.9c-0.1,0.3-0.3,0.4-0.6,0.4
		c-0.6-2,0.1-4.1,2-6.3c0.4,0.8,0.3,1.9-0.3,3.3c-0.5,1.4-0.5,2.2,0,2.6c0.1-0.2,0.3-0.7,0.5-1.6c0.2-0.7,0.5-1.2,0.8-1.4
		c0.1,0.7,0.1,0.9,0.2,0.7c0.2-0.5,0.5-0.7,0.8-0.7c0,0.4-0.2,0.8-0.6,1.4c-0.3,0.5-0.5,1-0.4,1.6c0.2,0,0.4,0.1,0.7,0.2
		c0.3,0.1,0.5,0.2,0.7,0.2c-0.1-0.6,0.6-1.3,2-2.1c-0.1-2.5,0.3-4,1.3-4.6c0,0.1,0.1,0.3,0.4,0.4c0.2,0.1,0.3,0.2,0.3,0.3
		c-0.8,0.7-1.4,1.5-1.7,2.6c0.1,0,0.5,0.3,1.4,0.8c0.6,0.3,0.9,0.7,1,1.2c-0.2,0-0.4-0.1-0.6-0.4c-0.1-0.3-0.4-0.4-0.8-0.3
		c-0.1,1-0.5,2.1-1.3,3.2c-0.8,1.2-1.2,2.3-1.4,3.1c0-0.9,0.2-2,0.5-3.2c0.3-1,0.3-1.9,0.2-2.4c-0.2,0.8-0.6,1.8-1.3,2.9
		c-0.3,0.1-0.5-0.1-0.4-0.6c0.1-0.5,0-0.7-0.3-0.7c-0.3,0.5-0.7,2.9-1,7.2c-0.1-0.1-0.3-0.4-0.6-0.8c-0.3-0.5-0.5-0.8-0.6-1
		c-0.5-0.7-0.9-0.7-1.2-0.2c-0.2-0.2-0.4-0.7-0.5-1.6c-0.1-0.7-0.2-1.2-0.5-1.4c-0.8,1.3-1.2,3.2-1,5.6l-1-1.3v-3.7
		c-0.1-0.3-0.1-0.3-0.2,0c0,0.3,0,0.6-0.1,1.1c-0.2,1.3-0.2,2.3-0.1,2.9c0.5,0.6,1,1.5,1.7,2.6c-0.9-0.2-1.3-0.3-1.3-0.3
		c-0.1,0.5-0.1,1.3,0,2.6c0.1,1.2,0.1,1.8,0,2c-0.5-0.5-0.7-1.3-0.7-2.6c-0.8,0.2-1,0.7-0.6,1.7c0.5,1,0.5,1.5,0.2,1.7
		c-0.2-0.2-0.4-0.7-0.6-1.6c-0.1-0.8-0.4-1.3-0.7-1.5c-0.1,0.4-0.5,0.6-1.2,0.7c-0.7,0.1-1.1-0.2-1.2-0.7c-0.3-0.1,0.1-0.3,1.4-0.6
		c-0.3-0.7-0.5-2.3-0.5-4.7c-0.1-1.5-0.2-1.7-0.5-0.7c-0.1,0.1-0.1,0.4-0.1,0.8c0.1,0.5,0.1,0.9,0.1,1.3c-0.8,0.4-2.2,1.4-4,2.9
		c-0.2-0.1-0.3-0.4-0.3-1s-0.1-0.9-0.4-1c-0.2,0.2-0.5,0.7-0.9,1.5c-0.3,0.7-0.6,1.1-1.1,1.2c-0.3,0-0.4-0.2-0.5-0.7
		c-0.1-0.4-0.3-0.6-0.5-0.7c-0.5,0.9-1.3,1.4-2.3,1.4c0-0.1,0.1-0.4,0.3-1.1c0.2-0.5,0.1-0.7-0.3-0.9c-0.6,1-1.4,1.5-2.3,1.7
		c-2.4-0.8-4.1,0-5.2,2.2c-0.3,0.7-0.7,1.7-1.1,3.2c-0.4,1.5-0.7,2.5-1,3.1c5.9-1.8,10.6-3.4,14.2-5c2.1,2.5,3.4,6.7,3.7,12.7
		c0.3,5.4-0.1,10.3-1.4,14.7c-0.1,0-0.3,0.1-0.5,0.2c-0.1,0.1-0.3,0.2-0.5,0.1c0.1,0.3,1,1.3,2.6,3c2.1,0,4-0.6,5.5-1.7
		c1.5-1.1,2.3-2.5,2.4-4.3c0.2-1.6,0.8-3.3,1.8-4.9c1.2-2,1.9-3.4,2.2-4.4c0.6-1.9,1.1-4.5,1.5-7.7c0.5-3.4,0.8-5.7,1.2-6.8
		c-1.1,0.2-1.6,0-1.4-0.7c0.3-0.1,0.5,0.1,0.7,0.5c0.2,0.3,0.1,0.5-0.3,0.5c-0.6-0.2-1-0.9-1.2-2.1c-0.2-1.3-0.5-2.1-0.9-2.4
		c-0.1,0.6,0,1.4,0.3,2.4c0.3,0.9,0.3,1.5,0.1,1.9c-0.4-0.3-0.6-1.1-0.6-2.2c-0.1-1.2-0.2-2-0.4-2.3c-0.1,0.3-0.2,0.9-0.3,1.9
		c-0.1,0.8-0.2,1.4-0.4,1.8c-1-0.6-1.4-1.9-1.2-4c0.1-0.7,0.2-1.5,0.5-2.4c0.2-1,0.3-1.7,0.4-1.9c0.3,0.6,0.2,1.6-0.1,2.9
		c-0.3,1.3-0.2,2.2,0.1,2.7c0.1-0.3,0.1-0.7,0.1-1.3c0.1-0.7,0.1-1.1,0.2-1.3c0.1-0.9,0.6-1.4,1.3-1.5c0.1,0.1,0.1,0.4,0.1,0.7
		c0.1,0.3,0.1,0.5,0.1,0.7c0.1,0.5,0.4,0.7,0.9,0.6c0.5-2.1,0.6-3.1,0.3-2.9c0.1,0.6,0.3,0.8,0.8,0.8c0.5,0,0.8,0.2,0.9,0.6
		c0.1,1.4,0.5,2.6,1.3,3.6c-0.2,0.3-0.4-0.8-0.6-3.3c0.3,0.2,0.7,0.6,1.1,1.1c0.5,0.7,0.7,1.1,0.9,1.3c-1.1,1.4-1.4,2.4-1,3.2
		c-0.7,1-1.2,2.4-1.6,4.1l-0.8,3.5c-0.5,1.4-0.7,3.2-0.9,5.4c-0.1,2-0.4,3.5-0.8,4.3c-0.2,0.5-0.8,1.3-1.8,2.4
		c-0.9,1-1.4,1.8-1.6,2.1c-0.4,1.5,0.3,3.9,2.1,7.2c-0.1-0.4-0.2-0.8-0.5-1.3c-0.3-0.5-0.5-1-0.5-1.4c0.8-0.2,1.3-0.1,1.6,0.4
		c0.2-0.3,0.1-0.6-0.3-0.9c-0.3-0.2-0.3-0.4,0-0.5c0.2,0.1,0.4,0.2,0.5,0.3c0.2,0.2,0.4,0.3,0.5,0.4c0.1-0.3,0-0.6-0.4-1.1
		c-0.3-0.3-0.2-0.5,0.1-0.6c0.2,0,0.3,0.2,0.4,0.6c0.1,0.3,0.3,0.5,0.6,0.4c0.1-0.3,0-0.7-0.3-1.3c-0.3-0.4-0.3-0.6,0-0.7
		c0.2,0,0.3,0.2,0.4,0.5c0.1,0.4,0.3,0.6,0.6,0.5c-0.3-0.5-0.4-1-0.3-1.4c0.1-0.4,0.5-0.4,1,0c0-0.3-0.2-0.7-0.5-1
		c-0.3-0.4-0.5-0.7-0.6-1c1-0.5,1.5-0.5,1.4,0c-0.3-0.1-0.5-0.3-0.6-0.8c-0.2-0.5-0.1-0.7,0.3-0.9c-0.1,0.3-0.1,0.6,0.2,0.9
		c0.3,0.3,0.4,0.2,0.4-0.2c-0.2-0.5-0.2-0.9,0-1.4c0.3-0.6,0.4-1,0.4-1.4c0.1,0.4,0.2,0.7,0.4,1c0.3,0.2,0.5,0.1,0.6-0.2
		c-0.1-0.1-0.2-0.3-0.4-0.6c-0.2-0.3-0.3-0.6-0.4-0.8c-0.3-0.6-0.2-1,0.1-1.3c0.3,1.2,0.8,2,1.4,2.2c0-0.2-0.2-0.6-0.5-1.3
		c-0.3-0.5-0.3-0.8,0.1-1c0,0.5,0.2,0.8,0.7,1c0-0.3-0.2-0.9-0.5-1.8c-0.3-0.7-0.4-1.1-0.2-1.3c0.2,0.1,0.4,0.2,0.5,0.4
		c0.2,0.1,0.4,0.2,0.5,0.3c0.2-0.3,0.1-0.7-0.4-1.3c-0.3-0.5-0.3-0.8,0.1-1.1c-0.1,0.7,0.3,1.1,1,1.1c0.1-0.3,0-0.7-0.3-1.1
		c-0.3-0.3-0.4-0.7-0.4-1c0.3,0.1,0.5,0.2,0.7,0.5c0.2,0.3,0.4,0.5,0.7,0.5c0.1-0.3,0-0.6-0.3-0.8c-0.3-0.2-0.5-0.5-0.4-0.9
		c0.3,0,0.7,0.1,1,0.4c0.1-0.3-0.1-0.6-0.5-1.1c-0.3-0.4-0.2-0.7,0.2-0.9c0.1-0.1,0.2,0.1,0.5,0.5c0.2,0.3,0.4,0.2,0.5-0.2
		c-1-0.5-1.3-1.2-0.7-2.3c0.1,0.9,0.5,1.5,1,1.7c0-0.3-0.2-0.8-0.5-1.6c-0.3-0.6-0.5-1.2-0.5-1.8c0.1,0,0.3,0.1,0.5,0.2
		c0.1,0.1,0.3,0.2,0.5,0.2c0.1-0.4-0.1-0.7-0.5-1.1c-0.4-0.3-0.6-0.6-0.5-1c0.3-0.1,0.6,0.1,1,0.5c0.3,0.3,0.4,0.1,0.4-0.5
		c-0.6-0.5-1-1.4-1.4-2.9c0.2,0,0.4,0.1,0.6,0.3c0.1,0.2,0.3,0.3,0.4,0.4c0.1,0.1,0.4-0.5,1.1-1.7c-0.5-0.3-0.1,1,1,3.9
		c-0.1,0-0.3-0.1-0.5-0.2c-0.1-0.1-0.3-0.2-0.5-0.1c-0.1,0.5,0,0.8,0.3,1.2c0.3,0.3,0.4,0.7,0.3,1.2c-0.2-0.1-0.4-0.2-0.6-0.5
		c-0.3-0.3-0.5-0.5-0.7-0.6c0,0.5,0.3,0.9,0.8,1.4c0.5,0.4,0.5,0.8,0.2,1.4c-0.3,0-0.5-0.2-0.6-0.6s-0.4-0.6-0.8-0.5
		c0,0.5,0.6,1,1.7,1.7c-0.1-0.7,0.2-0.8,1.1-0.3c0-0.3-0.1-0.7-0.4-1c-0.3-0.3-0.4-0.7-0.3-1c0.3,0,0.7,0.1,1,0.3
		c0-0.2-0.1-0.4-0.2-0.7c-0.1-0.3-0.2-0.5-0.1-0.7c-0.1,0,0.1,0.1,0.5,0.3c0.2,0.1,0.4,0,0.5-0.3c-0.4-0.1-0.5-0.3-0.4-0.7
		c0.2-0.4,0.4-0.4,0.7,0.1c0.1-0.3,0-0.7-0.3-1c-0.3-0.4-0.4-0.7-0.4-1.1c0.3,0.1,0.6,0.3,0.7,0.7c0.2,0.5,0.4,0.7,0.7,0.7
		c0.1-0.5-0.1-1-0.5-1.4c-0.4-0.5-0.6-0.9-0.5-1.3c0.3,0,0.6,0.3,0.7,0.9c0.2,0.5,0.5,0.8,1,0.8c0-0.3-0.2-0.8-0.7-1.5
		c-0.3-0.5-0.3-0.9,0-1.2l0.6,1.3c0.2,0.5,0.6,0.7,1.1,0.7c0.1-0.4-0.2-0.9-0.8-1.7c-0.5-0.5-0.5-0.9-0.2-1.3
		c1.2,0.1,1.9,0.2,1.9,0.2S72.7,104.4,72.3,105.1z M28.4,130.6c0.5,0,0.9-0.1,1.4-0.3c0.5-0.3,0.9-0.4,1.3-0.4c0.3-0.3,0-0.4-1-0.2
		C29,130,28.4,130.3,28.4,130.6z M28.6,131.6c-0.3,0.1,0.3,0,1.8-0.5c0.8-0.2,1-0.5,0.6-0.9c-0.1,0.2-0.6,0.4-1.3,0.6
		C29.1,130.9,28.7,131.2,28.6,131.6z M31.7,131.3c-1.4,0.1-2.1,0.5-2.3,1C30.9,131.4,31.7,131.1,31.7,131.3z M29.7,133.9
		c1.2-0.1,2.1-0.5,2.6-1.1C31.3,132.8,30.4,133.1,29.7,133.9z M32,116.3c-0.5-0.2-0.7-0.8-0.8-2c-0.1-1.2-0.3-2-0.5-2.3
		C33.1,114.1,33.5,115.5,32,116.3z M31,101.1c0.1-0.4,0.6-1.4,1.5-3c0.7-1.3,0.9-2.2,0.9-2.8C31.8,98.9,31,100.9,31,101.1z
		 M32.4,100.5c0.1-0.7,0.7-1.9,1.6-3.5c0.8-1.4,1.1-2.4,1.1-3.1c-0.1,0.4-0.7,1.5-1.8,3.3C32.5,98.6,32.2,99.7,32.4,100.5v0.3
		c-0.1,0.1,0,0,0.1-0.1c0.1,0.1,0.1,0.3,0.2,0.4c1.7-2.9,2.5-4.7,2.3-5.6c-1.4,3.1-2.3,4.9-2.5,5.2
		C32.4,100.6,32.4,100.6,32.4,100.5C32.4,100.6,32.4,100.6,32.4,100.5z M32.4,138.8c1.4,0.9,2.1,2.3,2.2,4.3c-0.3,0.5-0.6,0.5-0.9,0
		c-0.3-0.5-0.4-0.9-0.4-1.3c-0.4,0.9-0.7,0.9-0.8-0.1C32.6,141.5,32.5,140.5,32.4,138.8z M35.6,157.6c-0.2-0.1-0.9-0.8-2.2-2
		c0.2-0.1,0.6,0,1.3,0.5C35.3,156.6,35.6,157.1,35.6,157.6z M37.2,65.2c0.3,0.5,0,1.1-0.7,1.9c-0.7,0.6-1.4,0.9-2.2,1.1
		C36.3,66.1,37.2,65.2,37.2,65.2z M37.6,118.7c-1.6-0.7-2.6-1.6-3-2.7c-0.3-1-0.2-2.6,0.4-4.6c1.6,0.5,2.6,1.4,3.1,2.8
		C38.8,115.6,38.6,117.1,37.6,118.7z M34.6,100.1c0.2-0.8,0.7-2.1,1.5-3.7c0.7-1.6,1.1-2.7,1.2-3.2c-0.1,0.4-0.4,0.9-0.9,1.7
		c-0.5,0.8-0.8,1.3-1,1.7C34.6,97.9,34.3,99.1,34.6,100.1z M38.6,54.9c0.4-0.3,0.5-0.5,0.2-0.5c-0.2,0-0.4,0.2-0.5,0.5
		c-0.1,1.6-0.5,3.9-1.1,6.9c-0.2,0.3-0.6,0.6-1.3,1s-1.1,0.7-1.4,1c1.6-0.3,2.7-1.3,3.3-3.1C38.2,59.6,38.5,57.6,38.6,54.9z
		 M34.6,126.3c0.1-0.1,1-0.4,2.7-0.9c1.2-0.3,1.7-0.7,1.6-1.2c-0.3,0.3-1.1,0.7-2.5,1.1C35.2,125.6,34.6,126,34.6,126.3z
		 M36.9,132.2c-0.5-0.1-0.6,0-0.5,0.3c0.2,0.4,0.3,0.7,0.2,1c-1.2-0.7-1.8-2-1.7-3.9c0.4,0.1,0.8,0.6,1.2,1.3
		c0.4,0.7,0.7,1.2,1.1,1.4c0,0.1-0.1,0.2-0.2,0.2C37,132.4,36.9,132.3,36.9,132.2z M35.6,124.9c1.3-0.1,2.2-0.5,2.7-1
		C37,124.1,36.1,124.4,35.6,124.9z M36,98.8c0.1-0.6,0.5-1.6,1.2-2.9c0.6-1.2,0.8-2,0.8-2.3C36.6,97.1,36,98.8,36,98.8z M36.3,56.8
		c0-0.9,0.5-1.9,1.4-3c0.9-1,1.3-1.8,1.3-2.2c-0.1,0.3-0.4,0.6-0.9,1.1c-0.5,0.6-0.9,1-1.1,1.3C36.2,55,35.9,55.9,36.3,56.8z
		 M37.9,68.4c0.1,0.3-0.1,1-0.6,2.1c-0.5,1-0.7,2-0.4,2.9C35.8,72.5,36.1,70.8,37.9,68.4z M36.7,98.8c0.3-0.4,0.7-1.2,1.3-2.3
		c0.5-1.2,0.6-1.7,0.4-1.7C36.8,97.8,36.2,99.2,36.7,98.8z M37.6,120.3c0,0.1,0,0.4-0.1,1c0,0.5,0.1,0.7,0.4,0.7
		c0.1-0.3,0.3-0.4,0.7-0.4C38.7,120.6,38.4,120.2,37.6,120.3z M40.3,88.6c-0.1,0.1-0.6,0.7-1.5,1.9c-0.7,0.8-0.8,1.5-0.5,2.1
		c0-0.5,0.4-1.3,1.3-2.4C40.2,89.1,40.5,88.7,40.3,88.6z M38.6,143.5c0.3,0.1,0.7-0.1,1-0.6c0.3-0.4,0.6-0.4,0.7-0.1
		c-0.4,0.3-0.7,0.7-0.8,1.3c-0.2,0.7-0.1,1,0.4,1.1c1.2-1.6,1.6-3.3,1.1-5c-0.7-0.1-1.2,0.4-1.6,1.6c-0.3,1-0.6,1.1-1.1,0.4
		C38.2,142.7,38.3,143.1,38.6,143.5z M40.6,132.5c-1-0.1-1.4,0.2-1.3,1c0.3,0.1,0.7,0.3,1.1,0.7s0.8,0.6,1.2,0.7
		c0-0.2,0.1-0.5,0.3-1c0.1-0.3,0.2-0.7,0.1-1.1c-0.5,0-0.9,0.1-1.1,0.4c-0.3,0.6-0.4,0.8-0.3,0.7c-0.5-0.2-0.8-0.4-1-0.7
		C40,133,40.4,132.8,40.6,132.5z M41.5,113.7c-0.9-0.3-1.4-0.5-1.6-0.8c-0.1-0.3-0.4-1.4-0.7-3.5c0.4-0.2,0.9,0.1,1.5,1
		c0.7,1,1.1,1.5,1.5,1.7c0,0.4-0.2,0.5-0.5,0.3c-0.4-0.2-0.6-0.4-0.5-0.6c-0.3,0.1-0.3,0.3,0,0.7C41.6,112.9,41.7,113.4,41.5,113.7z
		 M41.9,131.6c0,0.3-0.2,0.5-0.5,0.6c-0.3,0.1-0.5,0.2-0.5,0.4c1,0.1,1.4-0.3,1.3-1.3c-1.4,0-2.3,0.3-2.9,1c0.4,0.1,0.8-0.1,1.3-0.4
		C41,131.6,41.5,131.5,41.9,131.6z M40.3,123.3c0.1-0.5,0-1.2-0.2-2s-0.3-1.4-0.2-2c0.2,0.2,0.5,0.6,0.9,1.1
		c0.4,0.4,0.7,0.7,0.8,1.1c0.5,0.8,0.7,1.8,0.4,2.7c-0.4,0.1-0.7-0.1-0.8-0.6C41.1,123.2,40.8,123.1,40.3,123.3z M40.7,40.1
		c-0.2,0.3-0.5,0.5-0.8,0.6C40.1,40.5,40.4,40.3,40.7,40.1z M40.3,74c0.7,2,1.1,3.1,1.3,3.3C41.3,76,40.9,74.9,40.3,74z M47.5,35
		c-1.4,0.2-2.7,0.9-3.9,2.1c-0.3,0.3-0.7,0.8-1.5,1.6c-0.6,0.7-1.1,1.1-1.5,1.5c0.3-0.3,0.6-0.9,0.9-1.8c0.5-1.1,0.8-1.8,1-2.1
		c0.9-1.7,2.2-2.4,4-2.1c0.1-0.3,0.1-0.6-0.1-0.9c-0.2-0.3-0.3-0.5-0.2-0.8l0.5,0.7c0.7,0.8,1.2,1.1,1.8,1l-2.8,0.5
		c-1.6,0.2-2.5,0.8-2.7,1.9c3.4-0.8,5.1-1.3,5.1-1.3S47.8,35,47.5,35z M45.5,142.1c-0.1-1-0.2-1.4-0.2-1.4c0-0.3,0.3-0.3,0.9,0.1
		c0.1-0.8,0-1.6-0.5-2.3c-0.5-0.9-0.8-1.6-0.9-2c-1.4-0.1-2.4,0.4-3.1,1.5c-0.8,1.1-0.8,2.1-0.2,3.1c0.1-0.7,0.3-1,0.4-1
		c0.1,0.3,0,0.7-0.3,1.2c-0.2,0.4-0.1,0.7,0.3,0.8c-0.3,0.8,0.1,1.1,1,0.7c0.1-0.3,0-0.7-0.2-1.1c-0.2-0.5-0.2-0.9-0.1-1.3
		c0.3,0.3,0.4,0.3,0.5,0.2c0.2-0.3,0.4-0.4,0.5-0.5c-0.1,0.5,0.1,1.1,0.6,2.1c0.1,0.3,0.2,0.6,0.3,0.7c0.1,0.1,0.2,0.1,0.1-0.1
		c-0.4-1.8-0.4-2.7,0-2.9C45.4,141.4,45.7,142.2,45.5,142.1z M43.9,63.8c0.7,0.1,1.4,0.7,2.3,1.7c0.8,0.8,1.7,1.3,2.6,1.3
		c0.1-0.3,0.3-0.3,0.8-0.2c0.7,0.2,1.3,0.2,1.9-0.1c0.9-1.7,1.9-2.6,2.9-2.6c-0.3-0.6-0.2-0.8,0.1-0.8c0.4,0,0.6-0.3,0.6-0.9
		c-0.5-0.1-0.8,0.1-1.1,0.4c-0.5,0.8-0.7,1.1-0.6,1c-0.1-0.6-1.6-0.5-4.3,0.6c0.1-0.5-0.1-0.8-0.6-1c-0.7-0.2-1-0.4-1.1-0.7
		c-0.6-1.9-0.9-2.9-1-3c-0.5-1.1-1.3-1.7-2.3-1.9c-0.1-0.2-0.2-3.4-0.3-9.6c-1.6,2.7-2.2,6.2-2,10.5c0.7,0.1,1,0.2,1,0.3
		c-0.3,0.1-0.3,0.3,0,0.7c-0.3-0.3-0.5-0.3-0.6,0c-0.1,0.2-0.1,0.5,0,0.9c0.1,0.3,0.3,0.6,0.4,0.7c0.2,0.1,0.4-0.1,0.5-0.6
		C43.7,62.7,43.9,63.8,43.9,63.8z M44.2,40.3c0.2-0.3-0.2,0.3-1.3,1.6c-0.5,0.7-0.6,1.3-0.3,1.8c0-0.4,0.4-1,1.1-1.9
		C44.3,41.2,44.4,40.7,44.2,40.3z M44.2,98.2c-0.7,0.9-1.1,1.7-1.3,2.3c0.5,0,0.8-0.5,1.2-1.5c0.1-0.3,0.2-0.6,0.3-0.8
		C44.4,98,44.3,98,44.2,98.2z M44.6,85c-0.5,1.6-0.8,2.4-1,2.2c0-0.1,0.4-0.5,1.1-1.4C45.1,85.3,45.1,85,44.6,85z M51.2,64.8
		c-2.3,0.5-4.1,0.1-5.6-1.4c-1.3-1.4-1.9-3.4-1.8-5.9c0.8,0.3,1.2,1,1,2c0.4-0.2,0.6-0.4,0.7-0.7C46,62.4,47.9,64.4,51.2,64.8z
		 M45.2,147.4c0.8,0.5,1.9,1.7,3.4,3.4c1.4,1.6,2.4,2.6,3.1,2.9C49.1,150.1,46.9,148,45.2,147.4z M46.2,82.6c-0.6,0.5-0.6,1.1,0,1.7
		c0.2,0,0.4-0.1,0.7-0.2c0.2-0.1,0.4-0.2,0.6-0.2C47.7,83.2,47.3,82.8,46.2,82.6z M48.2,32.7c-0.7,0.3-1.3-0.1-1.8-1.2
		c-0.5-1-0.5-2-0.2-2.8c0.1,0.1,0.3,0.9,0.7,2.3C47.1,32,47.5,32.5,48.2,32.7z M46.2,80c1.7,0.5,2.7,0.6,2.9,0.3
		C46.8,79.8,45.8,79.7,46.2,80z M46.5,147.4c1,0.5,2.3,1.6,3.7,3.3s2.5,2.8,3.2,3c-0.4-0.4-0.9-1-1.5-1.9c-0.8-1-1.3-1.7-1.7-2.1
		C49,148.3,47.8,147.4,46.5,147.4z M46.9,71c-0.5,1.4,0.4,2.4,2.8,2.8c0.8,0.2,1.3,0.2,1.6,0.1c0.3-0.1-0.1-0.1-1.2-0.2
		c-0.5-0.3-1-0.7-1.7-1.3C47.6,71.6,47,71.1,46.9,71z M46.9,85.3c0.1-0.1,0.3-0.2,0.6-0.5c0.3-0.3,0.5-0.5,0.7-0.6
		c0.5-0.5,0.6-0.9,0.3-1.3c0,0.3-0.4,0.7-1.1,1.3C46.8,84.6,46.6,85,46.9,85.3z M47.5,143.1c0,0.1-0.1,0.3-0.2,0.6
		c-0.2,0.3-0.3,0.5-0.4,0.6c-0.2,0.6-0.1,1,0.3,1.2c0.1-0.1,0.2-0.3,0.4-0.6c0.2-0.3,0.3-0.5,0.4-0.7
		C48.2,143.6,48.1,143.3,47.5,143.1z M52.2,143.8c-0.3-1.2,0-2.7,1-4.3c-0.3-0.3-0.6-0.3-0.9-0.1c-0.5,0.3-0.8,0.5-1.1,0.5
		c-0.8-1.5-1.8-2.2-2.7-2.1c0.1,0.5,0,0.9-0.3,1.2c-0.1,0.1-0.3,0.2-0.5,0.3c-0.3,0.1-0.4,0.1-0.5,0.2c-0.1,0.5,0,0.9,0.3,1.5
		c0.3,0.6,0.4,1.1,0.4,1.6c0.5,0.1,0.7-0.1,0.4-0.6c-0.3-0.7-0.2-1,0.2-1.1c0.1,0.1,0.2,0.7,0.4,1.9c0.2,0.8,0.4,1,0.7,0.8
		c-0.5-0.8-0.5-1.3,0-1.4c0.1,0,0.3,0.3,0.4,1c0.1,0.5,0.3,0.5,0.6,0c-0.3,0.1-0.4-0.3-0.4-1c0-0.7,0.1-1,0.4-1c0.7-0.1,1,0.3,1,1.2
		C51.5,143.3,51.7,143.8,52.2,143.8z M48.2,60.5c-0.1,0.6,0.1,1,0.7,1.3c0.5,0.2,0.8,0,1-0.6c-0.3,0.1-0.6,0-0.8-0.3
		C48.8,60.5,48.5,60.4,48.2,60.5z M48.5,99.1c0.1,0.4,0.1,1-0.2,1.8c-0.2,0.6-0.1,1,0.2,1.3c0.2-0.3,0.3-0.9,0.4-2
		C48.9,99.2,48.8,98.8,48.5,99.1z M55.5,154.3c-3.1-4.2-5.5-6.6-7.3-7.2c1,0.7,2.2,1.9,3.6,3.7C53.2,152.6,54.5,153.7,55.5,154.3z
		 M51.8,62.1c-1.4-0.6-2.4-0.4-2.9,0.7c0.6,0.3,1.2,0.3,1.8,0.2C51.3,62.9,51.7,62.6,51.8,62.1z M49.5,82.9c-0.2,0.2-0.3,0.5-0.2,1
		c0.1,0.5,0.2,0.8,0.5,1.1c0.3-0.3,0.4-0.6,0.4-1.2C50.2,83.2,49.9,82.9,49.5,82.9z M57.5,154.3c-4.6-4.8-7.1-7.3-7.6-7.5
		c0.1,0.4,0.2,0.6,0.3,0.6c0.9,0.5,2.2,1.8,3.8,3.8C55.4,153,56.5,154.1,57.5,154.3z M50.5,58.8c-0.4,0.4-0.4,0.7,0.1,1
		c0.6,0.3,0.9,0.7,0.9,1.1c2-0.5,3.4-0.9,4-1.4c0,0.3,0.5,0.4,1.6,0.2c1.1-0.2,1.8,0.1,2.1,0.8c-1,0.2-1.7,0-2.1-0.7
		c-0.2,0.6-0.8,0.9-1.8,0.9c-1.1,0-1.8,0.3-2.1,0.8c0.3,0.3,0.9,0.4,1.9,0.1c1-0.2,1.7-0.1,2.1,0.3c-0.8-0.1-1.2,0.1-1.3,0.6
		c0.6,0.7,1.1,0.6,1.7-0.3c0.2,0.1,0.3,0.4,0.3,1.1c0,0.6,0.1,0.9,0.4,0.9c0.1-0.5,0.5-0.6,1-0.6c0.8,0.5,1.6,0.5,2.5,0.2
		c0.8-0.3,1.6-0.9,2.1-1.9c1.4-2.1,1.2-3.8-0.8-5c-0.9,0.3-1.6,0.1-2-0.4c-0.1-0.1-0.4-0.6-0.7-1.6c-0.4,0.2-1.5,0.2-3.3,0
		c-0.1,0.5,0.2,0.8,0.9,1c0.7,0.1,1.1,0.4,1.2,0.7c-0.4,0-0.9-0.1-1.7-0.3c-0.6-0.1-1.1-0.2-1.7-0.1c-0.2,0.6,0,0.9,0.7,1
		c0.8,0.1,1.2,0.2,1.3,0.4c-0.5,0.3-1.5,0.3-3.2-0.2c-1.6-0.5-2.6-0.3-3,0.5c-0.4-0.2,1.3,0,5,0.7c-0.3,0.3-0.7,0.7-1,1
		c-0.1-0.3-0.5-0.6-1.1-0.7c-0.7-0.1-1.1,0-1.3,0.4c0.5,0.2,0.8,0.4,1,0.6c-0.7,0.5-1.3,0.5-2,0C51.5,59.1,50.9,58.8,50.5,58.8z
		 M50.5,98.2c-0.3-0.4-0.3-0.1-0.2,0.9s0.3,1.6,0.5,1.8C50.6,101,50.5,100.1,50.5,98.2z M59.4,154.7c0.2,0.1-1.1-1.4-3.9-4.5
		c-1.6-1.8-3.1-2.8-4.3-3.1c1.1,0.5,2.5,1.8,4.2,4.1C57,153.3,58.3,154.4,59.4,154.7z M53.2,52.3c0.5,0.1,0.7-0.1,0.7-0.7
		c-0.1-0.7,0-1,0.3-1v0.7c0,0.4,0,0.7,0,0.9c0,0.7,0.1,0.8,0.3,0.4c-0.1-1.1,0.2-1.7,0.7-1.7c0,0.1,0,0.3,0,0.7s0,0.7,0,0.9
		c0,0.7,0.1,0.8,0.4,0.4c0-0.1,0-0.2-0.1-0.5c0-0.3,0-0.4,0-0.5c0.1-0.3,0.3-0.4,0.7-0.3v0.7c0,0.4,0,0.7,0,0.9
		c0,0.7,0.1,0.8,0.4,0.4c-0.1-1.3,0-1.7,0.3-1.3l0.7,1c0.1-0.8,0.2-1.3,0.3-1.4c0.3,1,0.5,1.5,0.5,1.6l0.2-0.4
		c0.2-0.3,0.4-0.5,0.7-0.8c0,0.1,0,0.4-0.1,1c0,0.5,0.1,0.7,0.4,0.6c0.1-0.1,0.2-0.5,0.3-1.1c0.1-0.5,0.2-0.7,0.4-0.9
		c0,0.1,0,0.4,0,1.1c-0.1,0.4,0,0.6,0.3,0.6c-0.1-0.8,0.2-1.2,0.7-1.3c0.1,0.3,0.1,0.6-0.1,0.9c-0.2,0.3-0.3,0.5-0.2,0.7
		c0.5,0.2,0.7,0,0.6-0.5c0-0.6,0.1-0.8,0.4-0.8c0.2,0.2,0.2,0.5,0.1,0.8c-0.1,0.5-0.2,0.8-0.1,1.2c2.8,0.7,5,0.6,6.6-0.3
		c-0.1-0.3-0.3-0.5-0.8-0.6c-0.5-0.1-0.7-0.4-0.6-0.8c-0.8-0.1-0.6-0.8,0.7-2c-0.1-0.1,0.3,1.6,1.3,5c-0.4,0.7-0.9,1.2-1.7,1.7
		c-2-0.1-2.6,1-2,3.2c0.7,2.2,1.9,3.3,3.6,3.3c0.4,0,0.8-0.2,1.2-0.5c0.4-0.3,0.8-0.5,1.2-0.5c0.8,2.5,0.2,3.8-2,4
		c0.3-0.1,0.6,0.1,0.8,0.6c0.2,0.5,0.5,0.7,0.9,0.7c0.1-0.3,0-0.6-0.3-0.7c-0.3-0.2-0.4-0.4-0.4-0.6c1-0.1,1.6-0.8,2-2.1
		c-0.1,0.1,0.1-0.9,0.4-2.9c0.5,0.6,1.5,0.9,3,1.1c1.6,0.1,2.5-0.4,2.5-1.4c-0.5-0.3-1.6-0.4-3.3-0.3c-1.6,0-2.7-0.1-3.3-0.4
		c-0.1,0.2,0.7,0.2,2.3,0c0.1-0.3,0.1-0.6-0.1-0.9c-0.2-0.3-0.3-0.5-0.2-0.8c0.6-0.1,1.1-0.4,1.7-0.7c0.7-0.4,0.9-0.7,0.6-1
		c-0.5,0.5-1.1,0.8-2,0.9c-1.1,0.1-1.9,0.2-2.3,0.5c0.4-0.5,0.4-0.9,0-1.4c0.1-0.1,1.2-0.3,3.3-0.6c1.3-0.2,2.1-0.6,2.3-1.4
		c-1.4-0.2-2.7,0.1-4.1,0.8c-1.4,0.7-2.3,1-2.8,0.9c0.1-0.3,0.4-0.6,1.1-0.7c0.6-0.1,0.9-0.4,0.9-0.7c-0.7,0.1-1.4-0.1-2.1-0.6
		C69.4,55,69,54.2,69,53.2c0.4,0.4,0.6,0.4,0.7-0.1c0-0.6,0.1-0.9,0.3-0.9c1.2,0.1,1.4,0.8,0.7,2c0.1-0.1,0.1-0.4,0-1.1
		c-0.1-0.4,0.1-0.6,0.4-0.6c0,1.3,0.2,2,0.6,2c0.1-0.2,0-0.6-0.2-1.3c-0.2-0.5-0.1-0.8,0.2-1c0.3,0,0.4,0.5,0.4,1.6
		c0,0.8,0.1,1,0.3,0.7c0.5-1.6,0.6-2.3,0.4-2.2c0.5,1.8,0.6,2.7,0.3,2.6c0.1-0.4,0.2-0.9,0.2-1.7c0-0.6,0-0.9,0.1-1
		c1.1-0.4,1.3,0,0.7,1.3c-0.1-0.8,0.2-1.1,0.7-0.7v-2.6c0.3-0.1,0.6-0.1,1.1,0.1c0.4,0.2,0.6,0.2,0.6-0.1c-0.5-0.5-1.1-0.8-1.7-0.8
		L73,49.5c0.1-0.1,0.3-0.4,0.8-0.7c0.3-0.3,0.5-0.6,0.5-0.9c0-0.4-0.2-0.4-0.5,0c-0.3,0.3-0.4,0.3-0.5,0c0.1-0.3,0.3-0.6,0.8-0.8
		c0.4-0.3,0.6-0.6,0.6-0.9c-0.4-1.6-0.7-2.6-1-3c-1.5-0.1-2.6,0.3-3.2,1.3c-0.5,0.8-0.7,1.9-0.4,3.2c-0.1-0.1-0.4-0.2-0.7-0.2
		c0.1,1.3-0.2,2.1-1,2.3c-0.1-0.5-0.2-0.6-0.5-0.4c-0.4,0.4-0.7,0.4-0.9,0c0.1-0.6,0.5-1.3,1.1-2.1c0.7-0.9,1.1-1.5,1.3-1.9
		c0.1,0-0.2-0.1-0.9-0.2c-0.2-0.1-0.4-0.3-0.5-0.8c1.3-0.2,1.8-1.3,1.4-3.3c1.4,0.5,3.7,0.9,6.9,1.3c-1,1.2-1.2,2.1-0.7,2.6
		c0.2,0.1,0.4,0,0.7-0.1c0.3-0.1,0.5-0.2,0.7-0.2c0.1-1.3-0.2-2.1-0.7-2.3c-0.4-0.6-1.2-1.8-2.3-3.4c-0.9-1.2-1.5-2.3-1.7-3.1
		c-0.1,0.1-0.2,0.3-0.3,0.7c0,0.4-0.1,0.6-0.4,0.6c0-1.5,0.5-2.3,1.4-2.3c2.4,4.8,3.8,7.8,4.2,9.1c1.2,4.1,1,7.8-0.6,11.1
		c1,0.3,1.6-0.3,1.9-2c0.1-0.6,0.2-1,0.3-1c0.1-0.1,0.2,0.2,0.5,1c0.5-2.7,0.7-3.9,0.4-3.7c0.1,1.8-0.2,4.3-1.1,7.3
		c0.7,0.1,1.4,0.1,2.2-0.1c0.5-0.1,0.8,0.2,1.1,0.8c-0.6-0.1-0.9,0.5-1,1.7c1.7-2,2.1-4.8,1.4-8.6c-0.2-0.9-1.1-3.7-2.6-8.3
		c-2.7-1.7-4.3-4.2-4.7-7.6c0,0.2-0.1,0.4-0.3,0.5c-0.2,0.1-0.3,0.1-0.4-0.2c0,0.1,0.5-0.3,1.4-1c-0.1,1.6,0.4,2.9,1.5,4.1
		c0.1,0.2,0.3,0.4,0.5,0.6c-0.2-0.2-0.4-0.4-0.5-0.6c-0.7-0.8-1-2.1-0.8-3.6c0.1-0.3,0.2-1,0.4-2c0.1-0.8,0.2-1.4,0.3-1.9
		c-1.4,0.3-2.3,0.8-2.7,1.7c0.3,0.1,0.7,0,1.1-0.3c-0.1,0.3,0,0.7,0.3,1c-0.1,0.3-0.5,0.7-1,1c-0.5,0.4-0.8,0.7-1,1
		c-0.2-0.6-0.5-1.1-1-1.3c-0.1-0.1-0.3-0.1-0.6-0.1c-0.3-0.1-0.6-0.2-0.8-0.2c0.9,1.3,0.8,2.4-0.3,3.2c-0.1-0.3,0-0.8,0.3-1.4
		c0.3-0.4,0.3-0.7,0-0.9c-1.2,1.6-1.8,2.3-1.7,2.2c0-1.6-0.1-2.1-0.3-1.7c0.1-0.6-0.8,0.7-2.6,3.7c-0.1,0.2-0.2-0.5-0.4-2.1
		c-0.1-0.9,0.1-1.4,0.7-1.6c-0.4,0.9-0.4,1.4,0,1.4c-0.1-0.5,0.1-0.7,0.6-0.7c0.7,0,1-0.1,1.1-0.3c-0.5-0.8-0.5-1.9-0.2-3.3l0.5-2.6
		c-0.6,0.9-0.9,1.3-0.9,1.3c-0.4,0.5-0.8,0.5-1.4,0c-0.1,0.7-0.3,1-0.4,1.1c-0.1-0.9,0.1-1.9,0.7-3c0.8,0.1,0.3,1.2-1.7,3.3
		c-0.3-0.1-0.4-0.7-0.3-1.7c0.1-1-0.1-1.5-0.4-1.7c-0.1,1.3-0.5,2.2-1,2.6c-0.1-0.8-0.2-1.3-0.3-1.3c-0.1,0.5-0.1,1.1,0.1,1.7
		c0.2,0.7,0.3,1.2,0.2,1.7c-0.5-0.2-0.8-0.2-1,0c-1.4-1.2-1.9-1.9-1.4-2.1c0.1,1.9,0.8,3.5,2.1,5c0.1-0.2,0-0.6-0.3-1.3
		c-0.2-0.5-0.1-0.9,0.3-1.1c-0.1,0.3,0,0.7,0.2,1.2c0.2,0.4,0.2,0.8,0.1,1.2c0.4,0.1,0.7-0.1,0.8-0.5c0.2-0.5,0.5-0.6,0.9-0.5
		c0,0.1,0.1,0.3,0.3,0.4c0.2,0.1,0.3,0.2,0.4,0.3c0.2,3.1,0.1,5.2-0.3,6.3c0,0.1,0,0.1-0.1,0.2c0.1,0,0.1-0.1,0.1-0.2
		c0.1-0.1,0.4-0.1,0.7,0c0.3,0.2,0.5,0.4,0.6,0.6c0.5-0.1,0.5,0.3,0,1.3c-0.3-0.1-1.2-0.9-2.9-2.6c0.6,2-0.7,3.3-3.7,4
		c0,0.3,0.3,1,0.9,2c0.5,0.7,0.4,1.3-0.2,1.7c-0.5,0-0.8-0.3-1.2-1c-0.3-0.6-0.7-1-1.2-1c0.8-0.6,1.2-1.3,1-2
		c-0.2-0.6-0.7-1-1.5-1.4c-0.8-0.3-1.5-0.3-2.2-0.1c-0.8,0.3-1.4,0.9-1.6,1.8c-0.2-0.3-0.7-0.3-1.6-0.2c-0.9,0.1-1.4,0.4-1.4,0.9
		c0.5-0.2,0.6,0.2,0.4,1.1c-0.2,1.1-0.1,1.8,0.3,2.1c0.1-0.2,0.3,0.1,0.4,0.9c0.1,0.6,0.3,0.2,0.6-1.2c0.3,0.3,0.4,0.8,0.2,1.4
		c-0.2,0.8-0.3,1.2-0.3,1.2S53.1,51.9,53.2,52.3z M53.4,97.5c0.1,0,0.3-0.2,0.4-0.7c1.1,1.2,1.1,2.9,0,5.2c-1.1,2.3-1.1,4,0,5.1
		c-1.2,0-2-0.9-2.2-2.6s0.1-2.9,1.2-3.3c0.1,0.4,0.1,0.7-0.2,0.8c-0.3,0.2-0.4,0.4-0.4,0.6c1-0.4,1.4-1.4,1.3-3
		c-0.1-0.4-0.2-1.1-0.4-2.1c-0.1-0.8-0.2-1.5-0.3-1.9c0.3,0.1,0.4,0.4,0.5,0.9C53.3,97,53.4,97.3,53.4,97.5z M51.8,134.2
		c0.6,0.7,1.2,1.7,1.9,3.2c0.7,1.8,1.2,2.9,1.5,3.4c0-0.7-0.4-1.9-1.1-3.6c-0.7-1.4-0.8-2.5-0.6-3.3c0.5,1.6,0.8,2.3,1,2
		c-1.6-1.8-2.2-2.6-1.7-2.6c0,0.1,0,0.6,0,1.7c-0.1-0.1-0.3-0.2-0.5-0.3C52.1,134.4,51.9,134.3,51.8,134.2z M52.5,84.3
		c0.3,0.1,0.4,0.3,0.2,0.8c-0.1,0.4-0.3,0.7-0.5,0.9c-0.1,0.8-0.1,1.2-0.2,1.4c-0.1,0.1-0.1-0.1-0.1-0.6
		C51.8,85.4,52,84.6,52.5,84.3z M53.2,82.9c-0.5-0.3-0.6,1.1-0.4,4.3c-0.3-0.5-0.3-1.2,0.1-2.1C53.3,84.1,53.4,83.4,53.2,82.9z
		 M60.1,154c-0.4-0.4-0.9-1.1-1.7-2.1c-0.8-1-1.5-1.8-2-2.3c-1.5-1.8-2.7-2.6-3.7-2.5c1.1,0.5,2.4,1.7,3.9,3.6
		C58.2,152.6,59.3,153.7,60.1,154z M54.4,28c-0.4-0.1-0.7-0.5-0.9-1.1c-0.2-0.6-0.1-1.2,0.3-1.6C53.8,25.4,54,26.3,54.4,28z
		 M54.8,48.3c-0.5-0.1-0.9-0.5-1.1-1.2c-0.3-0.6-0.2-1.1,0.1-1.5C53.9,45.8,54.2,46.6,54.8,48.3z M56.1,93.9c-0.1-1.4-0.1-1.9,0-1.7
		c-0.1-0.5-0.4-0.7-1-0.7c-0.2,0.5-0.5,0.8-1,1v2.7c0.2,0.4,0.3,0.2,0.3-0.5v-0.9c0-0.3,0-0.6,0-0.7c0.2,0,0.4-0.2,0.5-0.5
		c0.1-0.3,0.3-0.5,0.6-0.5c0.4,1.2,0.4,1.8,0,1.7c0-0.3,0.1-0.4,0.3-0.3C55.8,93.8,55.9,93.9,56.1,93.9z M61.8,154.7
		c-3.5-4.8-6.1-7.3-7.6-7.6c1.2,0.5,2.6,1.9,4.4,4.1C60.2,153.3,61.3,154.5,61.8,154.7z M55.1,64.5c0.3,0,0.4,0.1,0.4,0.3l-1.1-0.7
		c-0.1,0.7,0,1.1,0.5,1.3c1,0.5,1.4,0.6,1.2,0.4c0-0.3-0.1-0.7-0.4-1.2c-0.3-0.5-0.4-0.7-0.4-0.7S55.2,64.1,55.1,64.5z M55.5,81.7
		c0.3-0.4,0.5-0.3,0.8,0.4c0.3,0.7,0.3,1.3,0.2,1.9c-0.3-0.1-0.4-0.5-0.5-1.2C55.9,82.1,55.8,81.7,55.5,81.7z M63.7,155
		c-2.8-4.6-5.5-7.4-8.2-8.2c1.2,0.7,2.5,2.1,4.1,4C61.3,152.9,62.7,154.3,63.7,155z M56.8,67.1c1.1,0.3,1.7,0.7,1.7,1.3
		c-1.1,0.8-1.7,1.3-1.7,1.4c-0.4-0.3-0.6-0.3-0.7,0c-0.5-0.5-0.5-0.9,0-1.3C56.7,67.9,56.9,67.4,56.8,67.1z M58.7,45.2
		c0.2,0.8,0.1,1.3-0.4,1.6c-0.1,0.1-0.7,0.2-1.6,0.5c-0.3-0.4-0.5-1-0.4-1.9c0.1-0.8,0.4-1.3,0.7-1.5c-0.1-0.1,0.1,0.3,0.5,1.3
		C57.7,45.7,58.1,45.7,58.7,45.2z M58.1,94.5c-0.5,0.9-0.3,1.8,0.6,2.6c-0.5,0.5-0.8,0.3-1.2-0.6c-0.1-0.3-0.2-0.6-0.3-1.1
		c-0.1-0.6-0.1-0.9-0.2-1H58.1z M68.4,68.1c-0.1,0-0.3-0.1-0.8-0.3c-0.3-0.1-0.4-0.4-0.3-0.7c0.3,0.3,0.5,0.3,0.6,0.1
		c0.2-0.4,0.5-0.6,0.8-0.5c0.1,0.5,0.2,0.7,0.3,0.7c0-1.8-1-2.9-2.9-3.4c-2-0.5-3.5-0.1-4.7,1.2c-0.1,1.5-0.7,2.1-1.9,1.8
		c-1.1-0.3-1.8-1-2.1-2.1c-0.1,1,0.3,1.7,1,2.2c0.8,0.5,1.6,0.6,2.3,0.1c0.3,0.7,0.7,1.3,1.5,2.1c0.6,0.6,1,1.2,1.2,1.9
		c0.5-1.4,0.9-2.1,1.3-2.2c0,1,0.1,1.4,0.3,1.2c0.3-0.3,0.5-0.2,0.7,0.5c0.1-0.3,0.2-0.6,0.2-0.9l0.1-0.6c0.1-0.4,0.4-0.7,1.1-0.9
		c-0.3,0.5-0.3,0.8,0,0.8c0.3,0,0.6-0.3,0.7-0.8c0.4,1.3,0.5,2,0.3,2c0.1-0.2,0.2-0.5,0.2-0.9c-0.1-0.4-0.1-0.6-0.1-0.6
		S68.2,68.4,68.4,68.1z M65.4,154.7c-4.5-5-7-7.6-7.6-7.6c1,0.6,2.3,2,3.9,4.1C63.2,153.2,64.4,154.4,65.4,154.7z M58.7,86.2
		c-0.9-1.4-0.4-2.9,1.7-4.3C59.4,83.8,58.9,85.3,58.7,86.2z M59.8,25.1c-0.4,0.4-0.7,0.2-1.1-0.6c-0.3-0.6-0.4-1.3-0.3-2.1
		c0.4,0.1,0.6,0.5,0.7,1.3C59.2,24.6,59.4,25,59.8,25.1z M60.4,60.9c-0.1-0.5-0.7,0.1-2,1.6C59,61.3,59.7,60.8,60.4,60.9z
		 M59.4,95.5c0.5,0,0.7,0.3,0.5,0.9c-0.3,0.8-0.3,1.4-0.1,1.8c-0.5-0.1-0.7-0.5-0.6-1C59.4,96.3,59.5,95.8,59.4,95.5z M60.1,135.9
		c-0.1-0.2,0-0.6,0.3-1.3c0.2-0.5,0.1-0.9-0.3-1.1c0,0.7-0.2,0.8-0.7,0.4c0.1,0.1,0.2,0.5,0.3,1.4C59.8,136,59.9,136.2,60.1,135.9z
		 M59.8,63.1c1.6-0.8,2.3-1.2,2-1.3C61.5,62.5,60.8,63,59.8,63.1z M66.3,154c-0.5-0.4-1.6-1.7-3.2-3.8c-1.2-1.7-2.3-2.6-3.3-2.8
		c0.8,0.5,1.9,1.7,3.4,3.6C64.5,152.7,65.6,153.8,66.3,154z M60.8,122.9c0-0.1,0-0.1,0-0.2C60.8,122.7,60.8,122.8,60.8,122.9z
		 M67.7,153.7c-0.7-0.5-1.8-1.7-3.4-3.8c-1.4-1.7-2.5-2.6-3.5-2.8c0.8,0.5,2,1.7,3.5,3.7C65.7,152.5,66.8,153.5,67.7,153.7z
		 M61.4,99.1c1,0.7,1.8,1.8,2.3,3.3C62.8,101.8,62,100.7,61.4,99.1z M62.7,99.8c0.3-0.2,0.7,0.1,1.3,0.8c0.5,0.6,0.9,1.2,1.1,1.9
		c-0.5-0.2-0.9-0.6-1.3-1.2C63.3,100.5,62.9,100,62.7,99.8z M64.4,131.8c1.4-2.3,1.4-4.7,0-6.9c-0.1,0.4-0.1,1,0,1.9
		c0.1,0.7,0.1,1.1,0,1.2c-0.2-0.1-0.3-0.6-0.3-1.4c-0.1-0.7-0.3-1-0.7-1c0.2,1.2,0.3,1.9,0.3,2c0.1,0.7-0.2,0.7-0.7,0
		c0.1,0.9,0.3,1.7,0.6,2.3C64,130.7,64.3,131.4,64.4,131.8z M69.4,154c-0.7-0.6-1.8-1.7-3.1-3.4c-1.2-1.5-2.2-2.6-3.2-3.2
		C66,151.2,68.1,153.4,69.4,154z M65.7,54.5c-0.8,0.3-1.1-0.2-1-1.3h1V54.5z M70.6,154c-4-4.2-6-6.3-6-6.2c0.4,0.3,1.4,1.5,2.9,3.6
		C68.7,153,69.7,153.9,70.6,154z M67.3,128.5c0.1-1.9-0.2-3.8-1-5.9c0.1,0.8-0.2,1.3-0.7,1.6c0-0.1,0.1-0.6,0.3-1.3
		c0.1-0.5,0-0.6-0.3-0.3c-0.4,0.5-0.6,1.3-0.6,2.2c-0.1,1.1,0.1,1.9,0.6,2.3c0.5-1.6,0.7-2.3,0.4-2.3
		C66.6,127.3,67.1,128.5,67.3,128.5z M67.8,146.8c-0.7,0.1-1.2,0.2-1.8,0.3C66.7,146.9,67.3,146.8,67.8,146.8z M71.6,77
		c0.1,1-0.5,1.7-1.8,1.9c-1.6,0.3-2.6,0.5-2.8,0.8c1,0.6,2.2,0.6,3.4-0.1C71.7,78.8,72.1,77.9,71.6,77z M69.4,27.5
		c-0.7,2-1.2,2.8-1.4,2.6c0.1-0.1,0.4-0.6,1.1-1.4C69.6,28.2,69.7,27.8,69.4,27.5z M71,28.7C71,29.2,70.6,30,69.9,31
		c-0.7,0.8-0.8,1.5-0.5,2.1c0.1-0.2,0.5-1,1.3-2.4C71.2,29.5,71.4,28.9,71,28.7z M69.4,71c0.7,0.1,1-0.3,1-1.3h-1V71z M70.1,47.8
		c0.2,0.1,0.3,0.4,0.3,0.8C70.2,48.3,70.1,48,70.1,47.8z M70.3,23.2c0,1.3,0.2,2,0.7,2C71,23.8,70.8,23.2,70.3,23.2z M74,155.4
		c-0.8-0.6-1.9-1.7-3.3-3.3c0.2,0.8,0.7,1.5,1.5,2.2C72.8,155.1,73.4,155.5,74,155.4z M73.7,45.2c0.5,0.7,0.4,1.2-0.5,1.8
		c-0.8,0.5-1.6,0.4-2.1-0.1c-0.2-0.8,0-1.5,0.6-2.2c0.5,0.1,0.7,0.2,0.6,0.5c-0.1,0.4-0.1,0.7,0.1,0.8c0.4,0.1,0.6,0,0.7-0.3
		C73,45.2,73.3,45.1,73.7,45.2z M73.7,70.4c-1.3-0.1-2.1,0.1-2.3,0.6C72.6,71.1,73.4,70.9,73.7,70.4z M75.6,104.8
		c0.3-0.1,0.5,0.1,0.6,0.4c0.1,0.4,0.2,0.6,0.4,0.6c-0.5-0.7-0.8-2.3-1-4.9c-0.1-2.2-0.7-3.8-2-4.7c0.1,0.4,0.4,1.1,1,2.1
		c0.5,0.8,0.7,1.7,0.7,2.5c-0.1,0-0.3,0.1-0.5,0.2c-0.2,0.1-0.4,0.2-0.6,0.1c0-0.1,0-0.2-0.1-0.3c-0.1-0.1-0.2-0.2-0.2-0.3
		c0.3,0,0.7,0.1,1,0.3c-0.6-1.8-0.8-2.6-0.7-2.3c-0.4-0.9-0.8-1.2-1.3-1c0.7,0.7,1,1.5,1,2.3c-0.5-0.3-0.6-0.3-0.5,0.1
		c0.2,0.5,0.1,0.8-0.2,0.9c-0.7-1.5-1.2-1.9-1.7-1.3c0.5,0.5,0.9,1.3,1.4,2.4c0.4,1,0.8,1.7,1.3,2.1c0-0.1-0.1,0-0.2,0.2
		s-0.2,0.4-0.1,0.5c0.6-0.1,1,0.3,1.3,1c0.3,0.8,0.6,1.3,1.1,1.3c0.1-0.3-0.1-0.7-0.6-1.4C75.4,105.2,75.4,104.9,75.6,104.8z
		 M74.2,66.1c-0.5,0.1-1.3,0.5-2.2,1.3c3.3,0.2,5,0.3,5.1,0.3c1.6-0.2,2.5-1.2,2.8-2.9c-0.7-0.1-1.3,0.1-2,0.5s-0.9,0.7-0.7,0.9
		c1.6-0.6,2.2-1,2-1c-0.7,1.2-1.3,1.9-2,2c-0.6,0.1-1.1,0-1.6-0.4C75.2,66.3,74.7,66.1,74.2,66.1z M73.7,93.9c0.5-1.2,0.1-1.9-1-2
		C73.2,93.1,73.5,93.7,73.7,93.9z M73,63.5c0.1,0.3,0,0.7-0.2,1.3c-0.1,0.3,0.1,0.6,0.5,0.7c0.1-0.5,0.7-0.7,1.7-0.7
		c1.1,0.1,1.8,0,2.1-0.3c-0.5,0-0.8-0.2-1-0.6c-0.3-0.5-0.6-0.7-0.7-0.8c-0.5-0.1-0.9,0.1-1.4,0.4C73.6,63.8,73.2,63.8,73,63.5z
		 M73.3,69.4c-0.2,0.5,0.1,0.7,1,0.7s1.3-0.1,1.4-0.4c-0.3,0.1-0.7,0-1.1-0.2C74.1,69.3,73.7,69.3,73.3,69.4z M77,74
		c-1.2,0.1-2.1,0.5-2.8,1.2c-0.8,0.8-1,1.8-0.5,2.8C73.6,78.1,74.7,76.8,77,74z M73.7,86.6c0.1,0.3,0.4,0.9,1,2
		c0.3-0.4,0.4-0.8,0.2-1.4C74.6,86.8,74.2,86.6,73.7,86.6z M74,105.4c0.7,1.4,0.9,1.9,0.7,1.6c0.3,0.7,0.7,0.8,1,0.5
		C74.4,106.1,73.8,105.4,74,105.4z M79.2,59.5c-0.3,0.1-0.8,0.1-1.5,0c-0.7,0-1.2,0-1.5,0c-1.1,0.1-1.7,0.5-1.7,1.4
		c0.9,0.3,1.9,0.5,2.9,0.4C79,61.1,79.6,60.5,79.2,59.5z M95.1,91.5c-2.3-0.2-9.1-0.1-20.5,0.4c3.3,0.6,7.3,0.6,11.9,0
		c1.2-0.1,2.8-0.1,4.9,0c1.8,0,2.9,0,3.3,0C96.4,91.8,96.5,91.6,95.1,91.5z M74.6,93.9c0.7,0,6.9-0.1,18.8-0.3
		c3.1-0.1,4.1-0.2,2.9-0.4c-2.1-0.3-5.9-0.2-11.3,0.1C78.8,93.7,75.3,93.9,74.6,93.9z M96.8,92.2c-13,0.3-20,0.6-21.2,0.7
		c1.2-0.1,4.8,0,11,0.1C91.1,93,94.5,92.8,96.8,92.2z M77,29.4c-0.3-0.1-0.4-0.6-0.1-1.6c0.3-0.9,0.2-1.5-0.3-1.8
		c0.7-0.5,1-0.1,1,1.1C77.6,28.3,77.4,29,77,29.4z M80.6,57.5c-0.9-0.3-1.8-0.2-2.5,0.2s-0.9,0.9-0.5,1.5l1.4-0.2
		c0.8-0.1,1.3-0.1,1.7,0.2V57.5z M86.8,90.9c-0.8,0.1-2.4,0-5-0.1c-2-0.2-3.3-0.1-3.9,0.4C84.2,90.8,87.2,90.7,86.8,90.9z
		 M82.8,46.6c-0.1-1-0.7-2.1-1.6-3.5c-0.9-1.2-1.5-1.8-1.7-1.8c0.5,0.5,1.1,1.4,1.7,2.5C82.1,45.3,82.6,46.2,82.8,46.6z M82.6,75
		c-0.1,0.5-0.5,0.9-1.3,1.1c-1,0.3-1.5,0.5-1.7,0.6c0.8,0.1,1.5-0.1,2.2-0.4C82.7,75.9,82.9,75.5,82.6,75z M80.2,95.5
		c0.1,0.7,0.5,1.1,1.3,1.5c0.8,0.4,1.4,0.5,1.8,0.2C82.5,96.4,81.5,95.8,80.2,95.5z M81.3,110.4c-0.7,0.1-1,0.3-1.1,0.4
		c0.3,0,0.4,0.2,0.5,0.7c0.1,0.5,0.3,0.7,0.6,0.6V110.4z M81.6,88.2c0,0.3,0.1,0.5,0.2,0.7c0.1,0.3,0.2,0.5,0.1,0.7
		c-0.2-0.5-0.5-0.5-1-0.2c-0.5,0.3-0.5,0.6,0,0.9c0,0.2,0.7,0.1,2-0.4c0-1.8-0.2-2.7-0.6-2.9c0,0.1,0,0.3,0.1,0.6
		c0.1,0.3,0.2,0.6,0.2,0.8c0.1,0.7,0,1.1-0.3,1.3C82.3,88.8,82.1,88.3,81.6,88.2z M83.2,66.4c-0.5,1.4-1.3,2.5-2.3,3.3
		c0.1,0,0.4-0.3,1-0.8c0.3-0.3,0.7-0.2,1,0.1c-0.3-0.3-0.3-0.9,0.2-1.8C83.4,66.6,83.5,66.4,83.2,66.4z M82.6,63.5
		c0.1-0.5-0.4-0.8-1.3-1.1c0.1,0.8,0.3,1.3,0.4,1.4c0.1,0.2,0.3,0,0.6-0.7C82.3,63.4,82.4,63.5,82.6,63.5z M82.8,61.8
		c-0.1-0.5-0.1-0.9,0.2-1.2c0.3-0.3,0.5-0.6,0.5-0.9c-0.7-0.1-1.1,0.2-1.4,0.7c-0.5,1-0.7,1.4-0.6,1.4H82.8z M83.2,81.9
		c0.2-0.4,0-0.7-0.7-1.1c-0.2-0.1-0.4-0.2-0.5-0.2c-0.1,0.1,0,0.2,0.2,0.3c0.5,0.2,0.6,0.4,0.4,0.5c-0.3,0.3-0.5,0.6-0.4,0.9
		c0.3,0.3,1,0.3,2.2,0c1.1-0.2,1.8,0,2.1,0.6c-0.2,0.1-0.7,0-1.6-0.2c-0.5-0.1-0.9,0.1-1.1,0.6c-0.1,0,0.7,0,2.1,0
		c0.8,0,1.3-0.2,1.5-0.7c-0.5,0-0.7-0.1-0.6-0.2c0.4-0.2,0.6-0.4,0.6-0.5H83.2z M86.8,79.6c1.6,0,2.1-0.1,1.7-0.3
		c-0.3,0.1-1.4,0.1-3.3,0c-1.4-0.1-2.4,0-2.9,0.3c3.1,0.5,4.6,0.7,4.3,0.4c-0.1,0-0.8,0-2-0.1c-0.8-0.1-1.1,0.2-1.1,0.8
		c0.1-0.1,1-0.1,2.7,0c1.1,0.1,1.8-0.2,2-0.7C87.4,79.9,86.9,79.7,86.8,79.6z M84.5,94.2c-1,0.1-1.5,0.1-1.7,0.2
		c-0.1,0.1,0,0.1,0.5,0.2c1.4,0.1,2.6,0,3.5-0.4h-1.2C85.2,94.2,84.8,94.2,84.5,94.2z M83.5,55.2c0.1-0.6-0.2-1.6-0.7-2.9
		c0.1,0.9,0.1,2.1,0,3.5c0,1,0,1.7,0,2.1c0.1,0.4,0.2,0.2,0.4-0.5C83.4,56.7,83.5,56,83.5,55.2z M83.5,81.3c0.5,0.3,1.3,0.5,2.3,0.4
		c1.1,0,1.8-0.2,2-0.7C84.7,81.5,83.3,81.6,83.5,81.3z M84.5,52.3c0,0.8-0.1,1.8-0.3,2.9c-0.2,1.5-0.3,2.4-0.3,2.6
		c-0.3,2,0.1,3.6,1,5c0.1-0.5,0.2-1.6,0.2-3.1c-0.1-1.6,0-2.7,0.1-3.1c0.1,0.1,0.3,0.3,0.6,0.5s0.5,0.1,0.4-0.2
		c-0.5-0.3-0.8-1-0.8-2.1C85.4,53.5,85.1,52.7,84.5,52.3z M87.5,101.1c-2.7,0.5-3.9,0.7-3.6,0.4C86.5,101,87.7,100.8,87.5,101.1z
		 M87.1,88.9c0.2,0-0.5,0-2,0c-0.8,0-1.2,0.2-1.3,0.7c-0.2,0,0.5,0,2,0C86.7,89.6,87.1,89.3,87.1,88.9z M87.5,97.5
		c-2.6,0.5-3.8,0.7-3.6,0.4C86.5,97.3,87.7,97.2,87.5,97.5z M87.1,86.2c-0.4-0.1-1-0.1-1.9,0.2c-0.6,0.2-1,0.1-1.4-0.2
		c-0.1,0.5,0.4,0.8,1.7,0.8C86.8,87,87.3,86.8,87.1,86.2z M83.9,85.3c0.4,0,0.7,0,1-0.1c0.3-0.1,0.5-0.2,0.7-0.2
		c0.8-0.1,1.3-0.2,1.5-0.3c0.2-0.1,0.1-0.1-0.4-0.2C85.4,84.4,84.5,84.7,83.9,85.3z M84.9,90.5c1,0,1.8-0.1,2.1-0.3
		c0.3-0.1,0.3-0.3,0-0.4c-1-0.3-2-0.1-3.1,0.7H84.9z M84.2,86c2.3-0.5,3.5-0.6,3.3-0.4c-0.3-0.2-1-0.2-2.1-0.1
		C84.4,85.6,84,85.8,84.2,86z M84.2,83.9c2,0.3,3.1,0.2,3.3-0.3C85.2,84.1,84.1,84.2,84.2,83.9z M87.5,100.1
		c-2.3,0.5-3.5,0.7-3.3,0.4C86.6,100,87.7,99.9,87.5,100.1z M84.2,95.5c0.3-0.2,0.8-0.2,1.7-0.1c0.6,0.1,1-0.1,1.3-0.6
		c0.4-0.1-0.2-0.1-1.8,0C84.7,94.8,84.3,95.1,84.2,95.5z M86.8,96.8c-0.3-0.3-0.7-0.4-1.5-0.3c-0.8,0-1.2,0.2-1.2,0.7
		C86,96.7,86.9,96.6,86.8,96.8z M84.2,99.1c0,0.6,0.5,0.8,1.6,0.8c1-0.1,1.6-0.4,1.8-0.8H84.2z M84.5,102.2c0.3,0.3,0.8,0.4,1.5,0.3
		c0.7-0.1,1-0.3,1.2-0.7C85.3,102.2,84.4,102.4,84.5,102.2z M86.8,76.4c-0.5,0-0.9,0.2-1.3,0.7c-0.4,0.5-0.3,0.8,0.3,1
		c0.3-0.3,0.4-0.5,0.5-0.8c0-0.3,0.1-0.5,0.2-0.6C86.8,76.7,86.9,76.6,86.8,76.4z M88.2,46.3c-0.3-0.1-0.6-0.4-1.1-0.7
		c-0.4-0.3-0.7-0.6-1-0.7c0,0.5,0.3,0.9,0.8,1.3C87.5,46.6,88,46.6,88.2,46.3z M89.5,105.1c-0.4-0.3-1-0.4-1.8-0.3
		c-0.7,0.1-1.2,0.3-1.6,0.6c0.5-0.1,1.1-0.1,2-0.1C88.8,105.3,89.3,105.2,89.5,105.1z M86.2,108.7c0.7,0.5,1.4,0.6,2,0.4
		c0.7-0.1,1.3-0.1,1.8,0c0.1,0.1-0.5-0.4-2-1.3c-0.8-0.5-1.4-0.4-1.8,0.3c0.1,0,0.3,0,0.5,0c0.3-0.1,0.5-0.1,0.6-0.1
		c0.3,0.1,0.4,0.3,0.3,0.7C86.6,109.3,86.2,109.3,86.2,108.7z M90.2,157c-1.4,0.1-2.8-1.2-4-3.7c0.5,0.4,1.2,1,2.1,1.9
		C89,156,89.6,156.7,90.2,157z M86.8,146.4c0.3,0.1,0.4-0.3,0.4-1c0-0.7-0.1-1-0.4-1c0-0.1-0.2,0.3-0.5,1.2
		C86.1,146.2,86.3,146.5,86.8,146.4z M90.2,78.3c0.1,0-0.4,0-1.4,0c-1.2-0.1-1.9-0.1-2.2,0c-0.3,0.1-0.2,0.2,0.2,0.3
		C88.1,78.9,89.2,78.8,90.2,78.3z M88.5,44c-0.3,0.1-0.7-0.1-1.1-0.6c-0.4-0.5-0.7-0.5-0.9-0.1c0.1,0.3,0.5,0.8,1.3,1.4
		c0.3,0.2,0.5,0.3,0.7,0.4c0.1,0.1,0.1,0,0-0.1C88.4,44.4,88.4,44.1,88.5,44z M88.8,77.4c-1.6,0.3-2.2,0.3-2,0
		c-0.1,0.5,0.2,0.7,1,0.7C88.6,78,88.9,77.7,88.8,77.4z M88.5,146.4c0.1-0.2,0.1-0.5,0.2-0.9c0.1-0.3,0.2-0.6,0.3-0.7
		c0.1-0.6,0-1-0.5-1.4v0.7c-0.1,0-0.3-0.1-0.4-0.2c-0.1-0.1-0.2-0.2-0.3-0.2c0,0.2,0,0.5-0.1,0.9c-0.1,0.3-0.1,0.6-0.1,0.8
		C87.6,146,87.9,146.3,88.5,146.4z M141.4,150.7c0.8,0.6,1.8,1.6,2.7,2.9c1.2,1.6,2,2.6,2.5,3c-0.4-1.1-1.2-2.3-2.3-3.5
		c-1.5-1.7-2.4-2.7-2.6-3.1c0.3,0,0.7,0.3,1.1,0.8c0.4,0.5,0.7,0.6,0.9,0.3c-2.3-4-9.2-5.5-20.5-4.3c2.2,1.3,3.5,2.5,3.7,3.6
		c0.1,0.1-1.5-0.9-4.8-2.8c-1.9-1.1-3.8-1.5-5.9-1.3c4-0.7,8.7-0.8,14.1-0.5c5.5,0.3,9.2,0.9,11.1,2c-0.1-0.1-0.5-0.4-1-0.8
		c-0.4-0.3-0.6-0.6-0.7-0.9c3-0.6,6.2-0.8,9.6-0.7c-0.8-2.2-0.7-4.4,0.3-6.5c1-1.9,2.4-3.2,4.3-4c0.7,0.4,1.3,0.9,1.7,1.7
		c0.7-0.1,1.3,0,2,0.3c0.7,0.3,1.4,0.4,2.1,0.3c1.6-2.5,1.2-4.9-1-7.4c-2.7-3-4.1-5-4-6.1c-0.7-0.1-0.7,0.1-0.3,0.6
		c-9.6-4.6-14.1-6.6-13.5-6.2c-4.9-2.8-7.9-6.1-9.1-9.9c0-0.1,1.4,1.7,4.3,5.6c0.1-0.2,0.2-0.3,0.5-0.4c0.3-0.1,0.5-0.2,0.6-0.3
		c0.2,0.6,0.5,1,0.8,1.4c0.3,0.3,0.5,0.2,0.5-0.3c2.4,1.8,3.4,2.8,3,2.9c-0.2,0-0.3-0.1-0.3-0.3s0.1-0.3,0.3-0.4
		c0.6,0.1,0.9,0.3,1,0.4c-0.7-0.1-0.7,0.2-0.1,1c0.7,0.8,1,1.1,1.1,0.7c-0.2-0.1-0.4-0.3-0.5-0.6c-0.2-0.3-0.1-0.5,0.2-0.5
		c0.3,0.8,0.9,1.4,1.9,1.9c0.9,0.4,1.5,0.9,1.8,1.5c0.6-0.3,1.2-0.2,1.8,0.3c0.7,0.7,1.3,1.1,1.9,1.1c-0.1-0.5,0-0.9,0.3-1.3
		s0.5-0.8,0.4-1.4c0.8-0.1,1.3-0.3,1.3-0.4c-0.4-0.3-0.5-0.8-0.2-1.4c0.3-0.7,0.3-1.3-0.1-2c0.1,0.1,0.3,0.2,0.5,0.4
		s0.4,0.3,0.5,0.3c0-0.3-0.2-0.7-0.5-1.1s-0.5-0.8-0.5-1.2c0.3,0.1,0.5,0.3,0.8,0.8c0.3,0.5,0.6,0.8,0.9,0.8c0-0.4-0.2-0.8-0.7-1.3
		c-0.5-0.4-0.7-0.8-0.7-1.4c0.3,0.1,0.6,0.3,0.7,0.7c0.2,0.5,0.4,0.7,0.7,0.7c0.4-0.7,0.4-1.4-0.1-2.1c-0.5-0.8-0.7-1.3-0.6-1.5
		c0.2,0,0.4,0.2,0.5,0.5c0.1,0.3,0.2,0.5,0.5,0.5c0.3-0.3,0.3-0.6,0-0.9c-0.5-0.4-0.7-0.8-0.7-1.2c0.5,0.5,0.9,0.3,1.4-0.6
		c-0.7-0.8-1.1-1.6-1.1-2.3c0-0.2,0-0.5,0.1-1c0-0.4,0-0.7,0-1c0.2,0,0.4,0.2,0.5,0.6c0.1,0.5,0.3,0.7,0.5,0.7
		c0.1-0.7,0-1.4-0.5-2.1c-0.4-0.7-0.8-0.8-1.2-0.6c0.3,0.6,0.2,1.2-0.3,2c-0.5,0.7-1,0.7-1.7,0c0,0.2,0.2,0.6,0.5,1.3
		c0.2,0.3,0,0.4-0.5,0.1c0,0.3,0.4,0.7,1.2,1.4c0.7,0.5,0.7,1,0.1,1.6c0-1.2-0.4-1.8-1.3-1.6c0.1,0.5,0,0.7-0.1,0.6
		c-0.4-0.4-0.8-0.5-1.3-0.3c0.3,0.1,0.6,0.3,0.9,0.7c0.3,0.5,0.2,0.8-0.2,1c0-0.5-0.2-0.8-0.7-1c-0.1,0.7-0.1,1,0,1
		c0.1,0-0.1-0.2-0.8-0.6c-0.4-0.3-0.7-0.2-0.9,0.2c1.2,0.8,1.5,1.2,1,1.4c-0.1,0-0.3-0.1-0.5-0.4c-0.2-0.3-0.5-0.4-0.8-0.3
		c-0.1,0.3,0,0.6,0.4,0.9c0.3,0.2,0.2,0.4-0.1,0.5c-0.1-0.3-0.1-0.3-0.2-0.1l-0.4,0.4c-0.2,0-0.4-0.1-0.6-0.3s-0.4-0.3-0.5-0.4
		c0.3,0.7,0.3,0.9,0,0.8c-0.5-0.3-0.8-0.2-1,0.3c-0.8-0.3-1.4-1.1-1.8-2.2c-0.3-1.2,0.2-1.7,1.5-1.5c0.1-0.3-0.1-0.5-0.4-0.7
		s-0.4-0.5-0.3-1c-0.1,0,0.1,0.1,0.6,0.3c0.2,0.1,0.3,0,0.4-0.3c0.1,0.1-0.2,0-0.9-0.4c-0.3-0.2-0.5-0.5-0.4-0.9
		c0.9,0.3,2.3,0.4,4.3,0.3c-0.3-0.4-0.9-0.6-1.7-0.5c-0.8,0.1-1.4-0.1-1.7-0.5h1.7c0.1-0.7-0.1-0.9-0.7-0.9c-0.7,0-1,0-1-0.1
		c0.1-0.4,0.4-0.6,0.8-0.5c0.5,0.1,0.7,0.1,0.9-0.2c-0.3-0.1-0.5-0.2-0.8-0.5c-0.3-0.3-0.2-0.4,0.1-0.5c1.7,0.1,2.3,0.5,2,1
		c-0.7-0.4-1-0.8-1-1.3l0.6,0.2c0.2,0.1,0.3,0,0.4-0.2c-0.1-0.3-0.4-0.4-0.9-0.2c-0.4,0.2-0.7,0.1-0.8-0.2c0.4-0.5,0.4-0.9,0-1.3
		c0.3-0.3,0.7-0.5,1.1-0.5c0.5,0,0.8-0.1,1-0.2c-1.2-0.7-1.5-1.2-1-1.4c-0.1,0,0.1,0.1,0.5,0.3c0.2,0.1,0.4,0,0.5-0.3
		c-0.1,0-0.3-0.1-0.7-0.3c-0.3-0.1-0.4-0.3-0.3-0.7c0.1,0,0.2,0.1,0.4,0.2c0.2,0.1,0.4,0.2,0.6,0.2c0.1-0.3,0-0.6-0.3-0.8
		s-0.4-0.4-0.4-0.6c0.3-0.5,0.7-0.6,1.3-0.3c0.5,0.1,0.7,0,0.7-0.4c-0.2-0.3-0.6-0.5-1.1-0.4c-0.5,0.1-0.7,0-0.9-0.2
		c0.1-0.5,0.5-0.7,1-0.6c0.6,0.1,0.9,0.1,1-0.1l-1.3-1c0.1-0.3,0.4-0.3,0.7-0.2c0.3,0.2,0.5,0.1,0.6-0.2c-0.5-0.2-0.8-0.5-1-1
		c0.7-0.1,1-0.2,1-0.3c-0.5-0.2-0.8-0.5-1-1c0.2-0.1,0.4,0,0.7,0.1c0.3,0.1,0.5,0.2,0.7,0.2c0.1-0.5-0.1-0.7-0.5-0.9
		c-0.5-0.1-0.7-0.4-0.6-0.8c0.3,0,0.5,0.1,0.7,0.2c0.3,0.1,0.5,0.2,0.7,0.1c0.1-0.4-0.2-0.7-0.8-0.9c-0.5-0.1-0.7-0.5-0.6-1.1
		c-0.1-0.1,0.8,0.2,2.7,0.7c0.1,0.5-0.7,0.3-2.3-0.7c-0.3-0.5-0.4-1.1-0.3-1.7c0.1-0.5-0.2-0.9-0.7-1.3c0.2-0.1,0.4,0,0.7,0.1
		c0.2,0.1,0.4,0.2,0.6,0.2c0.1-0.5-0.1-0.8-0.7-1c-0.7-0.1-1-0.4-1-0.7c0.7,0,0.9-0.2,0.8-0.7c-0.2-0.6-0.1-1.1,0.2-1.3
		c0.5,0.1,0.8,0.4,1.1,0.7c-0.1-0.4-0.4-0.7-1-1c-0.5-0.3-0.7-0.6-0.7-1.1c0.8,0.5,1.8,1.3,2.8,2.4c1.2,1.3,2.1,2.1,2.7,2.5
		c0-0.5-0.3-1-1-1.5c-0.7-0.5-1-1-1-1.5c0.2,0,0.4,0.2,0.7,0.5c0.2,0.3,0.4,0.4,0.6,0.5c-0.2-0.8-0.6-1.5-1.3-2.2
		c-0.7-0.8-1.2-1.1-1.7-1.1c0.5,0.1,0.7,0.5,0.7,1c-0.5-0.2-1-0.5-1.4-1c0.1,0.2,0.4,0.6,1,1.1c0.5,0.4,0.7,0.7,0.4,0.9
		c-0.2-0.2-0.8-0.6-1.8-1.4c-0.7-0.6-1.2-1.1-1.6-1.6c0.3-0.2,0.6-0.1,0.9,0.3c0.2,0.3,0.3,0.3,0.4,0c-3.6-2.9-6.1-4.4-7.2-4.3
		c0,0.1,0.3,0.3,0.9,0.5c0.5,0.1,0.5,0.3,0.1,0.5c-2.7-1-4.2-1.6-4.6-1.7c-0.4-0.1-0.4-0.1,0.1,0.2c1,0.5,1.5,0.9,1.6,1.2l-5-1.7
		c0.1,0.1,0.4,0.2,1,0.4c0.5,0.1,0.7,0.3,0.7,0.6c-0.4,0-1.1-0.3-2.2-0.8c-0.9-0.5-1.6-0.5-2.1-0.2l1.1,0.4c0.5,0.2,0.6,0.4,0.2,0.6
		c-1.8-1.1-3-1.4-3.6-1c0.5,0.2,0.8,0.4,1,0.7c-0.7-0.2-2.5-0.2-5.6,0c0.8-0.1,1.3,0.1,1.7,0.6c-0.4,0.1-1.1-0.1-2.2-0.5
		c-0.8-0.3-1.4-0.4-1.8-0.1c0.2,0.2,0.7,0.4,1.7,0.5c0.7,0.1,1.2,0.4,1.4,0.8c-0.5,0-1.5-0.3-2.8-0.8c-1-0.5-1.9-0.5-2.5-0.2
		c1.9,1.2,2.8,1.7,2.6,1.4c-0.4,0-1.1-0.3-2.2-0.9c-0.8-0.4-1.5-0.5-2.1-0.2c1,0.3,1.4,0.6,1.4,1.1c0.3,0.1-0.2-0.2-1.5-0.8
		c-0.7-0.3-1.2-0.2-1.5,0.1l0.4,0.2c0.2,0.1,0.4,0.2,0.5,0.3c0.4,0.2,0.4,0.4,0.1,0.5c-0.4-0.3-1.5-0.7-3.3-1.4
		c-0.1,0.4,0.3,0.7,1.1,1c0.7,0.2,0.9,0.4,0.6,0.7c0.1,0.1-0.5-0.2-1.8-0.8c-0.7-0.4-1.2-0.5-1.6-0.2c1.2,0.3,2,0.8,2.3,1.4
		c-0.4,0-1.1-0.3-2.1-0.9c-0.8-0.5-1.4-0.5-2-0.1c2,0.8,3.1,1.3,3.3,1.7c-0.4-0.1-1.2-0.4-2.4-1.1c-0.9-0.5-1.7-0.6-2.2-0.3
		c0.5,0.1,1.5,0.6,3,1.7c-0.6-0.1-1.2-0.3-2-0.8c-0.8-0.5-1.3-0.7-1.7-0.9c-0.1,0.5,0.3,0.9,1,1.2c0.7,0.3,1,0.7,1,1.2
		c-0.2-0.1-0.7-0.5-1.4-1c-0.5-0.4-1-0.6-1.6-0.7c-0.1,0.4,0,0.7,0.4,0.9c0.5,0.1,0.7,0.4,0.6,0.8c-1.9-1.4-3.1-1.9-3.7-1.7
		c0.3,0.3,0.2,0.5-0.3,0.5c-0.7,0-1,0.3-1,0.8c-0.1-0.3-0.3-0.5-0.6-0.6c-0.3-0.1-0.5,0-0.8,0.3c0-0.1-0.1-0.3-0.2-0.8
		c-0.1-0.3-0.1-0.6-0.2-0.9c-0.3-0.6-0.6-0.7-0.9-0.3c0.3,0,0.6,0.4,0.8,1.1c0.2,0.7,0.2,1.1-0.1,1.2c-0.9-1.4-1.5-2.2-1.7-2.2
		c0,0.1,0.2,0.4,0.5,0.9c0.2,0.3,0,0.6-0.5,0.8c0.1-0.4-0.1-0.8-0.5-1.2c-0.4-0.3-0.7-0.3-0.9,0.1c0.3-0.1,0.5,0.1,0.7,0.6
		c0.1,0.5,0,0.7-0.3,0.8c-0.1-0.1-0.2-0.4-0.4-0.7c-0.2-0.4-0.3-0.6-0.4-0.8c-0.3-0.6-0.6-0.8-0.9-0.5c0.3,0.2,0.5,0.5,0.5,1
		c-0.1,0.6,0,1,0.1,1.3c0.5,0.2-0.5-0.4-2.9-1.7c-0.1,0.4,0.1,0.8,0.7,1.3c0.5,0.3,0.6,0.6,0.3,0.8c0-0.1-0.1-0.2-0.4-0.4
		c-0.2-0.2-0.4-0.3-0.6-0.4c-0.5-0.3-0.8-0.3-1,0.1c0.2,0.1,0.4,0.2,0.7,0.5c0.3,0.3,0.3,0.4-0.1,0.5c-0.1,0-0.3-0.1-0.5-0.4
		c-0.2-0.3-0.5-0.4-0.8-0.3c-0.5,1-0.5,1.5,0,1.4c-0.5-0.6-0.8-0.9-1-0.9c-0.1,0.1-0.2,0.5-0.4,1.2c0.1,0.1-0.1-0.4-0.4-1.5
		c-0.2-0.6-0.5-0.6-0.9-0.2c0.4,0.4,0.7,0.9,0.8,1.5c0.3,0.7,0.1,1-0.5,1.2c-0.1-0.3-0.4-0.5-0.9-0.8c-0.6-0.2-0.9-0.1-1.1,0.2
		c0.8,0.7,1,0.9,0.5,0.8c-0.1-0.1-0.4-0.2-0.9-0.3C89.5,81,89.3,81,89.2,81c0.1,0.3,0.4,0.6,0.9,1c0.5,0.3,0.7,0.7,0.8,1
		c-0.3-0.3-0.7-0.3-1,0c-0.4,0.4-0.7,0.4-1.1,0c-0.1,0.6,0.1,1,0.4,1.3c0.7,0.5,1,0.7,1,0.8c-0.2,0-0.4-0.1-0.7-0.2
		c-0.3-0.1-0.5-0.2-0.7-0.2c-0.1,0.4,0.1,0.7,0.4,0.9c0.4,0.1,0.6,0.3,0.7,0.5c-0.7-0.3-1,0-1,0.9c0,1.9,0,2.9-0.1,3
		c4.9,0.4,7.3,0.5,6.9,0.4c0.4-0.3,0.7-0.8,0.9-1.6c0.2-1,0.4-1.6,0.5-1.8c1.5,0.5,2.2,1.7,2.1,3.8c-0.1,2.5,0.2,4.1,0.9,4.8
		c-0.8-0.1-1.1,0.2-1,1.1c0.1,0.9,0.4,1.1,1,0.6c-0.5,0.1-0.7,0-0.6-0.4c0.1-0.3,0.3-0.5,0.6-0.6c0.4,0.7,0.8,1,1.3,1
		c0.1-0.3,0-0.6-0.4-0.9c-0.3-0.2-0.2-0.4,0.1-0.5c0.5,0.1,1,0.9,1.4,2.3c0.4,1.2,0.9,1.7,1.6,1.4c-0.5-0.3-0.7-0.7-0.9-1.2
		c-0.1-0.7-0.2-1.2-0.4-1.6c0.3-0.1,0.7,0.2,1.1,0.7c0.3,0.4,0.6,0.4,0.9,0c-0.4-0.1-0.7-0.4-0.9-0.7c-0.1-0.3,0.1-0.5,0.6-0.6
		c0.7,0.8,1.2,1.2,1.6,1.3c-1.1-2-1.6-3.5-1.6-4.3c0.5,0.2,0.8,0.4,1,0.7c-0.3,0.3-0.2,1,0.3,2c0.6,1,1.1,1.2,1.7,0.7
		c-0.6-0.2-1-0.8-1.3-1.9c-0.4-1.7-0.5-2.4-0.4-2.1c0.4,0.1,0.9,0.5,1.6,1c0.6,0.5,1.2,0.7,1.8,0.7c0-0.2-0.2-0.7-0.7-1.4
		c-0.3-0.6-0.3-1,0-1.3c0.4,0.4,0.8,1,1.2,1.9c0.3,0.8,0.6,1.3,0.8,1.5c0.1-1.8-0.6-3.2-2-4.3c0.3-0.1,0.7-0.3,1.2-0.7
		c0.5-0.3,0.8-0.5,1.2-0.6c0.1,0.5,0,0.8-0.3,1.1c-0.5,0.3-0.7,0.5-0.7,0.6c0.3,0.1,0.5,0.5,0.6,1.2c0.1,0.7,0.4,1,1.1,1.1
		c0-0.4-0.1-0.8-0.3-1.4c-0.3-0.5-0.4-0.9-0.4-1.3c0.3,0.1,0.6,0.3,0.7,0.8c0.2,0.5,0.4,0.8,0.6,0.9c0-0.1,0-0.3-0.1-0.5
		s-0.1-0.3-0.1-0.4c0-0.2,0.2-0.3,0.6-0.4c0.1,0.1,0.2,0.2,0.3,0.4c0.2,0.2,0.3,0.3,0.4,0.4c0.3,0.2,0.5,0,0.6-0.5
		c-0.6-0.2-0.8-1.2-0.6-3l0.9,0.6c0.3,0.2,0.5,0,0.4-0.6c-0.2-0.2-0.6-0.7-1.1-1.6c-0.5-0.7-1-1.3-1.6-1.7c2.5,0.7,3.6,1.1,3.3,1.3
		c-0.1-0.3-0.6-0.8-1.5-1.5c-0.7-0.5-1-0.9-0.9-1.2l2,1.6c0.8,0.6,1.3,0.6,1.7,0.1c0.5,1.2,1.1,1.7,1.7,1.7c0.1-0.5-0.2-0.9-0.7-1.2
		c-0.6-0.3-0.9-0.5-1-0.8c0.7-0.1,1-0.3,1.1-0.4c-0.9-1.1-1.4-1.5-1.4-1.3c0.3,0.3,0.5,0.3,0.6,0c0.1-0.4,0.2-0.6,0.4-0.7
		c1.1,0.3,1.9,1,2.3,2.1c0.7,1.6,1.2,2.7,1.7,3.1c-0.5,0-0.7,0.1-0.6,0.3c0.3,0.5,0.3,0.8,0.2,1.1c-0.1,0-0.3-0.2-0.5-0.5
		c-0.2-0.2-0.5-0.3-0.8-0.2c0.7,0.8,1,1.8,1,2.9c-0.2-0.1-0.4-0.2-0.7-0.3c-0.3-0.2-0.5-0.3-0.7-0.3c0,0.3,0.2,0.6,0.5,0.9
		c0.3,0.3,0.5,0.5,0.6,0.7c-0.5,0-0.7,0.1-0.6,0.3c0.2,0.3,0.3,0.6,0.2,0.8c-0.2,0-0.4-0.1-0.7-0.2c-0.2-0.1-0.4-0.2-0.6-0.2
		c-0.1,0.5,0,0.7,0.5,0.8c0.5,0.1,0.8,0.3,0.8,0.6c-0.3,0-0.7-0.1-1-0.4c-0.1,0.3,0,0.6,0.3,0.8s0.4,0.4,0.4,0.6
		c-0.1,0-0.4-0.2-0.9-0.5c-0.4-0.3-0.7-0.2-0.8,0.2l1.3,1c-0.6,0-0.8,0-0.8,0.1c0.3,0.3,0.5,0.6,0.5,0.9c-0.2,0.1-0.6-0.1-1.1-0.5
		c-0.4-0.3-0.7-0.3-0.9,0.1c0.1,0.1,0.4,0.3,1,0.4c0.4,0.1,0.6,0.4,0.7,0.7c-1,0.5-1.5,0.5-1.4,0l0.7,0.3c0.3,0.1,0.4,0.3,0.3,0.7
		c-0.2,0.1-0.6-0.1-1.1-0.5c-0.3-0.3-0.6-0.3-0.9,0.1c0.1,0.1,0.4,0.3,1,0.4c0.5,0.1,0.7,0.4,0.7,0.7c-0.5-0.3-1-0.3-1.5,0
		c-0.1,0.1-0.3,0.2-0.6,0.5c-0.3,0.2-0.5,0.4-0.6,0.5c0.1,0.1,0-0.2-0.4-1c-0.2-0.3-0.5-0.5-1-0.4c-0.1,0.4,0,0.8,0.5,1.4
		c0.3,0.4,0.3,0.7-0.1,1c-0.3-0.3-0.7-0.9-1-1.8c-0.2-0.6-0.6-1-1.1-1.3c0,0.5,0.2,0.9,0.5,1.5c0.3,0.5,0.5,0.9,0.6,1.2
		c-0.7,0.1-1.6,0.2-2.7,0.3c-0.7,0.1-1.4,0.2-2,0.4c0.2,0.1,0.4,0.2,0.5,0.3c0.1,0.2,0.1,0.3-0.1,0.4c-0.1,0-0.4-0.2-1-0.5
		c-0.4-0.3-0.6-0.2-0.7,0.2c0.3-0.1,0.4,0.1,0.4,0.6c0,0.6-0.1,0.8-0.4,0.7c-0.2-0.1-0.4-0.4-0.5-0.9c-0.1-0.4-0.4-0.5-0.9-0.4
		c-0.5,1-0.5,1.4,0,1.3c-1.2-0.3-1.6-0.6-1.3-0.7c-0.5,1.2-0.5,1.8,0,1.7c0.1-0.4-0.1-0.7-0.5-1.1c-0.5-0.3-0.7-0.3-0.9,0.1
		c1,1.2,1.6,1.9,2,2c0.2-0.1,0.4-0.3,0.6-0.6c0.1-0.4,0.3-0.6,0.4-0.7c0.6,0.4,1.4,0.4,2.3,0c0.9-0.4,1.1-0.7,0.7-1
		c1.7,0,2.1-0.2,1.3-0.7c0.9,0.3,3-0.1,6.3-1.1c2.7-0.8,4.7-0.6,6,0.8c-0.3,0.9-0.3,1.7,0.1,2.3c0.4,0.7,1.1,1,2.1,0.9
		c-0.2-0.8-0.1-1.3,0.4-1.6c-0.5-0.1-0.7-0.3-0.7-0.4c1-0.5,1.4-0.5,1.4,0c-2-1.2-2.6-2.3-2.1-3.3c-0.7,0.2-1.3,0-2.1-0.5
		c-0.8-0.5-1.2-1.2-1.3-2.1c4.4-0.2,7.7,2.2,9.7,7.3c0.4-0.7,1.1-1,2.1-1.1c1.8-0.1,2.7-0.2,2.8-0.3c0-0.4-0.2-0.7-0.7-0.8
		c-0.2-0.1-0.1-0.2,0.4-0.5c-0.5,0-0.8-0.2-1-0.7c0.8-0.1,1.3-0.3,1.3-0.4c-0.5-0.5-1.3-0.4-2.2,0.4c-0.8-0.3-1.1,0.1-0.7,1
		c0.8,0.1,1.3,0.2,1.3,0.3c-1.3-0.4-2-0.5-2-0.3v-7.6c-0.8-0.1-2.1-0.1-3.8,0c-1.6,0.1-2.6,0.1-3.1,0c-0.2,0.1-0.4,0.5-0.6,1.1
		c-0.2,0.5-0.5,0.8-0.8,0.9c-0.1-0.1-0.4-0.1-0.7-0.2c-0.3-0.1-0.6-0.2-0.7-0.3c-0.5-0.3-0.7-0.8-0.6-1.5c0.1,0,0.4,0,1.1,0.1
		c0.4,0,0.6-0.1,0.6-0.4c-0.7-0.2-1.3-0.2-2,0c0.1-0.3,0.1-1.9,0.2-4.6c0-1.6,0.4-2.9,1.1-3.7c-1,0.5-1.4,0.5-1.3,0
		c0.2,0,0.3,0.2,0.3,0.5c0,0.3-0.1,0.5-0.3,0.5c-0.8-1.8-1.2-3.1-1.4-3.9c-0.1-0.1-0.3-0.2-0.7-0.3c-0.4-0.1-0.7-0.2-0.9-0.3
		c-0.7-0.2-0.8-0.5-0.4-0.8c0.1,0,0.4,0.2,0.9,0.5c0.4,0.3,0.7,0.2,0.8-0.1c-1.4-1.2-2-1.7-2-1.7c1-0.5,1.4-0.5,1.3,0
		c0-0.1-0.2-0.2-0.7-0.3c-0.3-0.1-0.4-0.4-0.3-0.8c2.9,2.9,4.5,4,4.6,3.3l-1.4-1.2c-0.6-0.5-1.1-0.5-1.6-0.1c2.8,1.2,4.5,2.5,5,3.9
		c-0.2-0.1-0.6-0.5-1.3-1c-0.5-0.5-1-0.8-1.4-1c-0.1,0.4,0.1,0.8,0.8,1.4c0.6,0.4,0.7,0.7,0.5,1c0.2,0.2-0.6-0.4-2.3-1.7
		c0.3,0.7,0.7,1.3,1.5,1.7c0.8,0.5,1.5,0.6,2.2,0.3c0.3,1.1,0,1.9-0.7,2.3c0.5,0.1,0.7,0.5,0.7,1c4.2,0.5,6.2,0.6,6,0.3
		c-0.5,0-1.8,0-3.9,0.1c-1.6,0.1-2.7-0.1-3.4-0.4c0.5,0,0.5-0.3,0.1-0.8c-0.6-0.7-0.8-1.2-0.8-1.6c-0.5,0.6-0.6,1.2-0.5,1.8
		c0.1,0.7,0.1,1.2-0.1,1.6c1.4,0.1,4.8,0,10.4-0.3c4.3-0.3,7.6,0,9.8,0.7c-1.2,0-4.5,0-10-0.1c-4.1-0.1-7.3,0.1-9.6,0.4
		c0.7,0.3,2.1,0.4,4.2,0.3c2-0.1,3.4,0.1,4.1,0.4h-5c-0.7-0.1-1.6-0.1-2.7,0c-1.2,0.1-1,0.2,0.4,0.3c0.7-0.1,2.4,0,5.4,0.1
		c2.2,0,3.8-0.1,4.9-0.4c-1-0.3-1.5-0.6-1.7-0.7c0.6,0.1,1.4,0.1,2.3,0c0.8-0.1,1.4,0,2,0.3c-0.8,0-1.3,0.2-1.6,0.7
		c0.9-0.2,2.6-0.2,5-0.1c2,0.1,3.5-0.1,4.6-0.6c-0.5,0-1.8,0-4,0.1c-1.7,0.1-2.9-0.1-3.6-0.4c5.9-0.8,8.7-1.1,8.2-0.7
		c-0.1,0-0.4,0-1,0.1c-0.5,0-0.7-0.1-0.6-0.4c1.6-0.5,2.3-0.6,2.2-0.4c-0.7-0.3-2-0.3-4.1-0.1c-2,0.2-3.5,0-4.5-0.5h6.6
		c0.1-0.3,0.1-0.7-0.2-1.3c-0.2-0.4-0.1-0.6,0.2-0.8c0.4,0.3,1.3,0.4,2.6,0.4c0.1,0.3,0.3,0.6,0.6,0.9c0.3,0.4,0.4,0.7,0.4,1.1
		c-0.3,0.5-0.3,2.1,0,5c-1.1,1.4-2.2,2-3.3,2c0.3,0.3,0.3-0.3,0-1.7c-3.6,0-6.1,0.1-7.2,0.4c-0.1,0.5-0.1,2.2,0,5.1
		c0.1,2.1-0.1,3.7-0.4,4.8c-0.1-0.3-0.7-0.3-1.6-0.1c-0.8,0.3-1.4,0.2-1.7-0.2c0.1-1.2,0.8-1.4,2-0.7c-2.3,0.5-3.5,0.6-3.3,0.3
		c0.6,0.3,0.5,0.6-0.2,0.7c-0.7,0.1-0.8,0.2-0.5,0.3c2.1-0.3,3-0.2,2.6,0.4c-0.8-0.1-1.3-0.3-1.3-0.4c3.3-0.1,4.6-0.1,4.1,0
		c1.4-0.2,2.1-0.8,2.1-2c0.1,0.9,0.8,2.2,2,3.8c1,1.4,1.5,2.5,1.4,3.5l-2.3-3.3c1.1-0.2,1.6,0,1.4,0.7c-0.3-0.2-0.6-0.5-0.9-1
		c-0.4-0.6-0.7-0.9-0.8-1.1c-0.8,0.9-2.1,1.3-3.9,1.1c-2.1-0.2-3.5-0.1-4.4,0.3c-0.3-1.2-2-1.9-5.3-2.1c-0.2,0.7-2.4,3.8-6.7,9.2
		c-2.9,3.6-3.4,7.4-1.5,11.3c-0.6,2.1-1.9,3-4,2.6c-0.7,0.7-1.1,1.6-1.2,2.6c-0.1,1.2,0.3,2,1.2,2.3c0,0.5-0.4,0.7-1.2,0.7
		c-0.7,0.1-1.2,0-1.5-0.3c0.2,2,0.3,2.8,0.3,2.4c0,1-0.3,1.6-1,1.9c0.1-0.5-0.1-0.9-0.4-1.3c-0.4-0.5-0.6-0.8-0.6-1.1
		c0.3,0.3,0.6,0.1,0.7-0.8c0.1-0.8,0-1.3-0.4-1.6c-0.1,0.1-0.1,0.3-0.2,0.6c-0.1,0.3-0.2,0.4-0.2,0.5c-0.1,0.2-0.3,0.1-0.6-0.4
		c0.1,2.5-0.2,4.2-0.7,5c-0.1-0.1-0.2-0.5-0.4-1.1c-0.1-0.5-0.3-0.8-0.6-1c0,0.6,0.2,1.4,0.6,2.3c0.3,1,0.5,1.5,0.4,1.7
		c-0.1-0.1-0.4-0.3-1-0.4c-0.4-0.1-0.6-0.3-0.7-0.6c0.7-0.1,1-0.2,1.1-0.3c-0.3-0.1-0.4-0.5-0.5-1.1s-0.3-0.9-0.6-1
		c-0.1,0.3-0.1,0.8-0.2,1.4c-0.1,0.8-0.1,1.3-0.2,1.5c-0.2,1.1-0.7,1.8-1.6,2.1c-0.2,0-0.3-0.2-0.4-0.6c-0.1-0.3-0.3-0.5-0.6-0.4
		c-0.1,0.5-0.4,0.9-0.9,1.3c-0.5,0.4-1,0.4-1.5,0c0,0.5-0.2,0.9-0.6,1.5c-0.4,0.5-0.6,0.9-0.7,1.2c1.2,0.1,2.9,0.1,5.1,0
		c2-0.1,3.5-0.1,4.5,0c3.9,0.3,7.6,1.9,10.9,4.7c-0.3,0.6,0,1.4,0.9,2.4c0.8,0.9,1.5,1.3,2.1,1.2c-1.2-0.9-1.7-1.5-1.3-1.7
		c0.1,0.1,1.1,1.1,3,3.1c1.2,1.2,2.6,1.6,4.2,1.2c-2.5-2.3-3.8-3.6-4-3.9c0.4,0.1,1.3,1,2.6,2.5c1.1,1.1,2.1,1.6,3,1.4
		c-0.6-0.2-1.2-0.6-1.9-1.2c-0.7-0.7-0.9-1.1-0.8-1.5l2.1,2c0.8,0.8,1.6,1.1,2.1,1.1c-1.2-1-2.3-2.1-3.3-3.3
		c0.5,0.1,1.2,0.7,2.3,1.9c0.8,0.9,1.6,1.3,2.2,1.1c-1.9-1.2-3-2.1-3.2-2.9c0.4,0.2,1.2,0.9,2.4,2.1c1,0.9,1.9,1.3,2.4,1.3
		c-2.2-2.4-3.3-3.5-3.3-3.3c3.2,3.5,6.7,4.6,10.6,3.3c-4-1.8-5.4-3.5-4.3-5c-0.2-0.1,1,0.9,3.5,3.1c1.4,1.2,2.8,1.9,4.1,1.9
		c-0.3-1-0.9-2.1-2.1-3.3c-1.2-1.4-1.9-2.1-1.9-2.1S141.7,151.3,141.4,150.7z M92.1,98.8c0.1-0.3-0.1-0.7-0.8-1
		c-0.5-0.3-0.5-0.5-0.2-0.7c0.1,0.2,0.4,0.4,0.8,0.6c0.5,0.2,0.7,0.3,0.9,0.4c0-0.2-0.1-0.7-0.2-1.5c-0.1-0.4,0.1-0.7,0.5-0.9
		c-1.2,0-2.6-0.1-4.3-0.3v4c0.5-0.5,0.9-0.6,1.2-0.3c0.1,0.1,0.2,0.3,0.4,0.6c0.1,0.3,0.3,0.5,0.5,0.7c0.1-0.3-0.1-0.8-0.4-1.5
		c-0.2-0.5-0.2-0.7,0-0.9c0.3,0.3,0.7,0.7,1,1C91.6,98.9,91.8,98.8,92.1,98.8z M91.4,137.5c-0.8-0.2-1.5,0.1-2,0.9s-0.5,1.5,0,2.1
		c0.1-0.5,0.3-0.7,0.7-0.6c-0.1,0.1-0.3,0.6-0.5,1.3c-0.1,0.7-0.1,0.8,0.2,0.3c0.2,0,0.3-0.2,0.4-0.7c0.1-0.5,0.3-0.7,0.6-0.6
		c0.1,0.3,0,0.8-0.4,1.4c-0.3,0.5-0.3,0.8,0,1c1.2-1.6,1.6-2.4,1.4-2.3c0,0.2-0.1,0.7-0.4,1.4c-0.2,0.5-0.2,0.6,0,0.3
		c0.2-0.2,0.4-0.6,0.7-1.2s0.5-1,0.7-1.2C91.9,137.9,91.4,137.3,91.4,137.5z M97.4,90.5c-0.5,0.1-1.9,0.1-4.3,0
		c-1.8-0.1-3.1,0.1-3.9,0.4c0.7-0.1,2.2-0.1,4.6,0C95.5,91.1,96.7,90.9,97.4,90.5z M89.5,146.8c1.4,0.1,2.1,0.3,2,0.6
		c-0.5-0.1-0.8-0.5-1-1c1.6-0.2,2.4-0.3,2.3-0.3c-0.1-0.7-0.4-0.9-1-0.7c-0.8,0.4-1.5,0.5-2,0.3C89.9,146,89.7,146.4,89.5,146.8z
		 M91.1,62.1c-0.1,0.6,0,1.3,0.2,2.1c0.1,0.8,0.3,1.2,0.5,1C91,63.6,90.8,62.6,91.1,62.1z M91.1,47.6c0.5-0.3,1-0.1,1.5,0.7
		c0.4,0.7,0.6,1.5,0.5,2.3c-0.2-0.2-0.5-0.7-0.8-1.7C92.1,48.2,91.7,47.7,91.1,47.6z M91.4,147.1c1,0.3,2.1,1.3,3.3,3
		c1.2,1.6,2.2,2.5,3,2.6c-0.1-0.1-1.1-1.3-2.8-3.6C93.8,147.7,92.6,147,91.4,147.1z M92.5,101.5c-0.1,1,0.4,1.8,1.3,2.3
		C93.7,102.4,93.2,101.6,92.5,101.5z M97.1,95.2c1,0.1,1.4-0.3,1.4-1.1c0.3,0.2-1.6,0.1-5.7-0.3c-0.1,0.3,0.6,0.4,1.9,0.4
		c1.9-0.1,2.9-0.1,3.1-0.1c0,0.1,0,0.3,0.1,0.4c0.1,0.1,0.2,0.2,0.2,0.3c-0.3-0.1-0.6-0.1-1,0C96.6,95,96.6,95.1,97.1,95.2z
		 M93.5,100.5c0.2,1.6,0.6,2.6,1.3,2.9C94.6,101.9,94.1,101,93.5,100.5z M93.5,144.4c0,0.1,0,0.4,0,0.8c0,0.3,0,0.6,0,0.7
		c0,0.5,0.2,0.8,0.7,0.9c0.2-0.2,0.3-1,0.3-2.3H93.5z M96.8,102.5c0.1-0.5,0-1.2-0.5-2.1c-0.4-0.7-0.5-1.2-0.2-1.6
		c0.1,0.1,0.3,0.6,0.5,1.3c0.2,0.6,0.5,0.9,0.8,1c0.1-0.8-0.1-1.7-0.6-2.7c-0.5-1.1-0.7-2.1-0.7-2.8c-1.6,0.5-2.4,0.6-2.3,0.3
		c0.5,0,0.8,0.2,1,0.7c-0.8,0.5-0.9,1.7-0.3,3.7c0.5,2.1,0.9,3,1.3,2.5c0-0.3-0.2-1-0.6-2.1c-0.3-0.8-0.5-1.4-0.4-1.6
		c0.3,0.3,0.7,0.9,1.1,1.7S96.5,102.1,96.8,102.5z M94.2,139.9c-0.3,0.2-0.4,0.8-0.2,2c0.2,1.1,0.4,1.5,0.5,1.3
		c-0.2-0.3-0.2-0.6,0.1-0.9c0.3-0.3,0.5-0.2,0.6,0.3c-0.1,0.2,0.1,0.1,0.6-0.4c0.1,0.3,0.1,0.6-0.1,0.9c-0.2,0.3-0.3,0.5-0.2,0.8
		c0.5,0.2,0.7,0,0.7-0.7c-0.1-0.7,0-1,0.3-1c0,1.2,0.1,1.7,0.2,1.6c0.3-0.3,0.6-0.1,0.8,0.5c-0.1-1.7,0.2-2.4,0.7-2.1
		C96.8,140.9,95.5,140.2,94.2,139.9z M94.8,148.5c0.7,0.3,1.5,1.2,2.5,2.8c0.9,1.4,1.7,2.1,2.4,2.1c-0.3-0.3-0.6-0.7-1.1-1.5
		c-0.6-0.8-1-1.4-1.2-1.7C96.5,149,95.6,148.4,94.8,148.5z M95.1,106.8c0.1,0.6,0.6,1.1,1.3,1.7c0.7,0.5,1.3,0.6,1.7,0.3
		C97.9,108.6,96.9,108,95.1,106.8z M95.4,146.8c2.7,3.5,4.8,5.9,6.2,7.2C100.1,151,98,148.6,95.4,146.8z M96.1,106.5
		c-0.1,0.5,0.3,1,1.2,1.5c0.3,0.1,0.5,0.2,0.8,0.3c0.2,0,0.2,0,0-0.1c-0.2-0.2-0.5-0.5-1-0.9C96.7,106.8,96.4,106.6,96.1,106.5z
		 M96.1,90.2c1.3,0,2-0.2,2-0.7C96.8,89.6,96.1,89.8,96.1,90.2z M97.8,146.8c1.1,0.5,2.3,1.7,3.7,3.5c1.3,2,2.5,3.2,3.5,3.7
		c-0.1-0.2-0.7-1-1.8-2.4c-0.8-1.1-1.5-2-2.1-2.6c-1.8-1.9-3.5-2.6-5.1-2.1c1,0.5,2.3,1.6,3.7,3.4c1.5,1.8,2.6,2.9,3.2,3.1
		c-0.4-0.6-1.4-1.7-2.9-3.4C98.8,148.5,98,147.5,97.8,146.8z M99.1,97.9c-0.3-0.1-0.4-0.4-0.3-1.1c-0.3,0-0.6,0.1-0.9,0.3
		c-0.4,0.3-0.7,0.4-0.8,0.4c0.5,1.6,1,2.5,1.4,2.6c-0.5-1.4-0.6-2.2-0.4-2.6c0.1,0,0.2,0.2,0.5,0.6C98.8,98.3,98.9,98.3,99.1,97.9z
		 M97.1,106.1c0,0.7,0.5,1.3,1.4,1.8c0.8,0.4,1.5,0.5,2,0.3C98.5,106.8,97.4,106.1,97.1,106.1z M99.4,139.5c0.2,0.5,0.1,1.1-0.4,1.7
		c-0.4,0.5-0.4,1,0,1.4c0-0.3,0.4-0.5,1.1-0.8c0.6-0.2,0.8-0.7,0.6-1.6c0.7,0.3,1.3,0,1.7-0.9c0.3-0.8,0.7-1,1-0.8
		c0.5-1.6,0.6-2.3,0.4-2.3c0.1,0.4,0.3,0.5,0.6,0.4c0.3-0.2,0.6-0.5,0.9-0.9c0.6-1.2,0.4-2.2-0.5-2.8c0,0.8-0.1,1-0.2,0.8
		c-0.4-0.5-0.7-0.7-0.8-0.8c-0.2,1-0.5,1.4-1,1.4c-0.3,0.7-0.3,1.3-0.1,2c0.2,0.6,0.2,1,0.1,1.4c0-0.5-0.2-0.6-0.5-0.5
		c-0.5,0.2-0.7,0.1-0.9-0.2c0.1,1.6-0.2,2.4-0.7,2.6c-0.1-0.7-0.2-1-0.3-1C100.2,139.7,99.9,140,99.4,139.5z M99.1,105.4
		c0,0.7,0.5,1.1,1.5,1.4c0.9,0.1,1.5,0.1,1.9,0c-0.5-0.2-1-0.7-1.5-1.4c-0.6-0.9-1-1.4-1.2-1.6c0-0.1,0.1,0.3,0.4,1.2
		c0.1,0.6,0,0.9-0.4,1.1C99.7,105.5,99.4,105.3,99.1,105.4z M99.7,146.4c0.7,0.9,1.9,2.2,3.5,4c1.6,1.7,2.7,3,3.4,3.9
		C106.1,152.7,103.8,150.1,99.7,146.4z M102.4,106.1c-0.3-0.5,0-0.7,0.9-0.7c0.7,0,0.8-0.1,0.5-0.3c-0.5,0.1-0.8-0.1-0.9-0.8
		c-0.1-0.5-0.3-0.5-0.8-0.2c0.2,0,0.3,0.2,0.3,0.5c0,0.3-0.1,0.5-0.3,0.5c-0.1,0.6-0.4,0.4-1-0.7
		C101.1,105.2,101.5,105.7,102.4,106.1z M101.1,146.8c1,0.5,2.3,1.8,3.9,3.7c1.5,2,2.6,3.1,3.3,3.5
		C104.2,149.4,101.8,147,101.1,146.8z M101.1,155.4c0.1,1,0.9,1.7,2.2,2C103.4,156.7,102.6,156,101.1,155.4z M101.4,98.2
		c-0.1-0.3,0,0.2,0.4,1.5c0.1,0.5,0.5,0.8,1,0.9C101.5,98.9,101,98.1,101.4,98.2z M102.8,146.8c0.8,0.5,2.1,1.8,3.6,3.7
		c1.4,1.8,2.5,2.9,3.3,3.2c-0.4-0.5-0.9-1.1-1.6-2.1c-0.7-1-1.2-1.8-1.6-2.2C105.2,147.8,103.9,146.9,102.8,146.8z M103.1,139.2
		c0.1,1.2,0.1,1.8,0,2c0.5-0.2,0.7-0.2,0.9-0.1c0.3,0.5,0.4,0.8,0.5,0.8c-0.1,0.3,0-0.1,0.4-1.3c0.2-0.6,0.2-0.9-0.1-1.1
		c-0.3,0.3-0.7,0.7-1,1C103.8,139.7,103.6,139.2,103.1,139.2z M104,146.8c1.2,0.4,2.5,1.7,4.1,3.8c1.4,2,2.6,3.2,3.5,3.4
		C106,149.1,103.4,146.7,104,146.8z M105,112.7c0.6-0.1,0.8,0.1,0.6,0.5c-0.3,0.5-0.2,0.8,0.1,0.9c0.1-0.5,0.2-0.7,0.3-0.7
		c0.1,0.4,0.3,0.6,0.4,0.7c0,0.1-0.5-0.7-1.4-2.3V112.7z M107.1,122.3c-0.3,0.2-0.3,0.5,0.2,1c0.5,0.5,0.5,0.8,0.1,1
		c0.1-0.3,0-0.6-0.3-0.9c-0.4-0.3-0.6-0.2-0.7,0.3c0.4,0.2,0.6,0.6,0.7,1.3c-0.7,0.2-1.1,0.2-1.1,0c-0.1,0.2,0.1,0.8,0.5,2
		c0.3,1,0.4,1.7,0.2,2.1c0,0.1-0.4-0.4-1.2-1.7c0-0.1,0-0.2-0.1-0.3c0,0.1,0,0.2,0.1,0.3c0.2,0.5,0.1,1.7-0.3,3.6
		c-0.3,1.6,0,2.8,0.8,3.6c0.2-0.6,0.1-1.3-0.3-2.2c-0.3-0.8-0.3-1.3,0-1.7l0.4,1.6c0.2,0.7,0.5,1,1,1.1c0.1-0.5,0-1.2-0.5-2
		c-0.5-0.6-0.5-1-0.2-1.4c0.5,1.3,0.9,2,1.3,2c0-0.3-0.1-0.7-0.3-1.2c-0.2-0.5-0.3-0.8-0.3-1.1c0.3-0.1,0.5,0.1,0.6,0.5
		c0.1,0.5,0.2,0.8,0.4,0.8c0.1-0.5,0-1-0.4-1.7c-0.3-0.6-0.3-1,0-1.3c0.5,1.2,0.8,1.9,1.1,2c0.3-0.5,0.1-1.2-0.4-2.2
		c-0.5-1-0.6-1.7-0.3-2.1c0.1,0.1,0.3,0.7,0.6,1.7c0.2,0.8,0.6,1.2,1.1,1.3c0.4-1.2,0.4-1.7,0-1.6c0.1,0,0.2,0.2,0.2,0.7
		c0.1,0.4,0.2,0.6,0.4,0.6c0.2-0.4,0.2-0.9-0.1-1.6c-0.3-0.5-0.2-0.9,0.1-1.1c-0.1,0.3,0,0.6,0.4,0.9c0.4,0.3,0.6,0.2,0.7-0.2
		c0.4-0.2,0.8-1.1,1.3-2.6c-0.1,0-0.3-0.1-0.4-0.3c-0.1-0.3-0.2-0.4-0.3-0.4c0,0.1,0,0.4,0.1,1c0,0.5-0.1,0.7-0.4,0.7
		c0.1-1.3-0.2-2.2-0.7-2.6c-0.1,0.1-0.2,0.3-0.3,0.7c0,0.4-0.1,0.6-0.4,0.6c0-0.2-0.1-0.5-0.2-0.9c-0.1-0.3-0.2-0.7-0.1-1.1
		c-0.6-0.1-0.8,0-0.6,0.4c0.2,0.5,0.2,0.7-0.1,0.6c-0.3-0.6-1-0.9-2-1c0-0.3-0.1-0.4-0.3-0.3c-0.1,0.4,0.2,0.8,0.8,1.4
		c0.6,0.4,0.7,0.7,0.5,0.9C108.3,123.3,107.9,122.9,107.1,122.3z M106.4,121c-0.5-1.6-0.6-2.4-0.4-2.3c-0.3,0.3-0.4,0.7-0.3,1.3
		S106,120.9,106.4,121z M106,146.8c1,0.5,2.2,1.8,3.8,3.9c1.4,2,2.5,3.1,3.5,3.3C109.3,149.4,106.8,147,106,146.8z M106.4,93.9
		c1.1,1.5,1.8,2.3,2,2.3C106.4,94.9,105.7,94.1,106.4,93.9z M107.4,114.1c-0.1-0.4-0.1,0.2,0,1.8c0,0.7,0.2,1.1,0.7,1.2
		c0,0.3,0-0.3,0-1.9C108,114.4,107.8,114.1,107.4,114.1z M107.6,146.8c1.2,0.7,2.4,2,3.8,3.8c1.6,2.1,2.8,3.5,3.5,4.1
		C111.8,149.9,109.4,147.3,107.6,146.8z M108.3,111c0.5,1.8,0.6,2.7,0.4,2.6c-0.2-0.3-0.1-0.9,0.2-1.7
		C109.1,111.4,108.9,111.1,108.3,111z M109.7,116.7c-0.1-0.5-0.2-1.2-0.1-2c0-0.6-0.1-1-0.3-1.4c-0.3,0.4-0.4,1-0.3,1.8
		C109,116,109.2,116.5,109.7,116.7z M110,147.4c0.8,0.5,1.9,1.7,3.3,3.7c1.2,1.8,2.3,2.8,3.3,2.9c-2.7-3.3-5-5.7-6.9-7.2
		C109.8,147.2,109.9,147.4,110,147.4z M111.7,132.5c-0.3-0.5-0.7-0.8-1-1c-0.1-0.3-0.2-0.4-0.4-0.3v1.6
		C111.2,132.8,111.7,132.7,111.7,132.5z M111,123.9l0.4,2.3c-0.3-0.3-0.5-0.7-0.7-1.2c-0.1-0.6-0.2-0.9-0.2-0.9
		S110.6,124.1,111,123.9z M110.7,147.1c1,0.4,2.2,1.5,3.6,3.3c1.4,1.8,2.5,2.8,3.3,2.9c-0.4-0.4-0.9-1-1.6-1.8
		c-0.8-1-1.4-1.7-1.7-2.1C113,148,111.8,147.2,110.7,147.1z M112.3,87.6c-0.1-0.1-0.2-0.3-0.3-0.6c-0.1-0.3-0.2-0.4-0.4-0.4
		c0.3-0.4,0.5-0.5,0.7-0.3s0.3,0.5,0.3,0.9c0,1.2-0.3,1.4-1,0.7C111.7,87.8,111.9,87.7,112.3,87.6z M113.2,52.7
		c-0.4,0.8-0.7,0.4-0.9-1.1c-0.2-1.4,0-2.2,0.7-2.3c-0.7-0.5-0.5-1.6,0.6-3.2c1.1-1.7,2.3-2.6,3.7-2.7c-0.5,0.3-1.1,0.8-1.9,1.8
		c-0.7,0.8-1.3,1.3-1.9,1.6c-0.6,2.9-0.4,5.7,0.7,8.3C113.2,54.2,112.8,53.5,113.2,52.7z M113,83.3c-0.5,0.5,0.4,0.8,2.6,1
		C116,83.8,115.2,83.5,113,83.3z M113.6,123c0-0.3,0,0.3,0,1.9c0,0.7,0.2,1.1,0.7,1.1C113,124.9,112.8,123.9,113.6,123z
		 M113.3,147.8c0.8,0.5,1.9,1.6,3.2,3.4c1.2,1.7,2.2,2.6,3,2.8c0.3,0.3-0.7-1-2.9-3.7C115.4,148.7,114.3,147.9,113.3,147.8z
		 M116.2,89.9c-0.1-0.1-0.2-0.4-0.3-0.9c-0.2-0.6-0.4-1-0.5-1.2c-0.4-0.8-0.9-1-1.5-0.6c1,0.7,1.3,1.4,1,2.1
		c0.1,0.1,0.4,0.2,0.7,0.3C115.9,89.8,116.1,89.9,116.2,89.9z M115,148.1c0.9,0.4,2.1,1.6,3.5,3.6c1.3,1.9,2.4,2.9,3.4,3
		c-0.8-0.4-1.9-1.7-3.3-3.9C117.3,149,116.1,148.1,115,148.1z M115.9,87.6c-0.1,0.5,0.1,0.9,0.6,1.3s0.8,0.4,1.1,0
		C117,88.2,116.4,87.8,115.9,87.6z M118.9,43.3c-0.1,0.3-0.8,0.7-2.2,1.4C116.8,44.1,117.6,43.6,118.9,43.3z M116.9,83.3
		c0,0.4,0.6,0.9,1.7,1.7C118.5,83.9,118,83.4,116.9,83.3z M116.9,113.7c0.9-0.1,1.5-0.5,1.7-1c-0.9-0.2-1.3-0.3-1.3-0.3
		C117.3,113,117.2,113.4,116.9,113.7z M120,88.2c-0.2-0.2-0.5-0.8-0.8-1.9c-0.3-0.7-0.7-1-1.3-0.8C119.1,87.3,119.8,88.2,120,88.2z
		 M118.3,79.3c0.3-0.1,1.9,0.7,4.9,2.3C123.2,81.7,121.6,80.9,118.3,79.3z M121.9,44.9c0-0.2-0.1-0.3-0.3-0.3s-0.3,0.1-0.4,0.3
		c2.3,0.8,3.4,1.4,3,1.7c-1.2-1.7-2-2.6-2.3-2.6C121.7,44.7,121.7,45,121.9,44.9z M144.4,92.9c0.2,0,0.4,0,0.5-0.1
		c0.1-0.1,0.1-0.2-0.2-0.3h-10.8c-6.2,0.1-9.9,0.2-11.1,0.3c-0.3-0.1-0.6-0.1-0.9-0.2c-0.1-0.1-0.1-0.1-0.2-0.1
		c0,0.1,0.1,0.1,0.2,0.1c0.1,0.1,0.1,0.2,0.1,0.3c0.1,0,0.3,0,0.8-0.1c2.7,0.5,6.2,0.6,10.7,0.3C138.6,92.8,142.3,92.7,144.4,92.9z
		 M135.5,93.6c-0.8,0-3.3,0-7.2-0.1c-2.9-0.1-5.1,0.1-6.6,0.4c1.2-0.2,3.7-0.1,7.4,0.2C132,94.3,134.2,94.1,135.5,93.6z M124.5,36.3
		c-0.7,0.1-1.3,0.2-2,0.5c-0.7,0.3-0.9,0.6-0.7,0.9c0.2-0.2,0.7-0.4,1.4-0.7C123.9,36.8,124.3,36.6,124.5,36.3z M122.2,78.3
		c0.5-0.3,1-0.3,1.8,0.2c0.6,0.4,1,0.9,1.3,1.5C122.8,78.8,121.8,78.3,122.2,78.3z M128.5,45.9c-0.2-0.1-0.5-0.5-1-1.1
		c-0.5-0.5-0.8-0.9-1.2-1.2c-0.9-0.9-1.8-1.3-2.5-1.1c0.4,1.2,1.1,2.3,2.1,3.3c1.4,1.4,2.6,1.6,3.8,0.7c-1.2,0.5-2.3,0.2-3.5-1
		c-0.9-0.8-1.5-1.7-1.8-2.6c0.2,0.2,0.5,0.5,0.9,1c0.5,0.5,0.8,0.9,1,1.1C127.2,45.9,127.9,46.2,128.5,45.9z M127.5,156.7
		c-0.5-0.2-0.9-0.6-1.5-1.1c-0.7-0.7-1.2-1.1-1.5-1.3c0.4-0.2,0.9,0,1.7,0.7C126.8,155.5,127.2,156.1,127.5,156.7z M135.5,76.4
		c1.6,0.9,2.2,1.3,2.1,1.2c0.7,0.6,1,1.4,0.9,2.4c-0.3,0.2-0.6,0.2-0.9,0c-0.3-0.3-0.7-0.3-1.1,0c-0.1,0.5-0.1,2.1,0,4.8
		c0.1,2-0.1,3.5-0.4,4.5c-2-0.6-3.3-0.6-3.9,0c0.3,0.4,0.9,0.5,1.9,0.2c0.9-0.3,1.5-0.2,1.8,0.1c-0.4,0.3-1.2,0.4-2.3,0.4
		c-1,0-1.8-0.1-2.2-0.4c-0.1-0.5,0-1.3,0.2-2.6c0.1-1.4,0.2-2.5,0.3-3.1c0.1-2.5-0.8-3.6-2.5-3.5c-0.1-1.7,0.6-2.6,2.2-2.8
		c0.3-0.1,1.8,0,4.7,0.2C135.7,76.5,135.5,76.1,135.5,76.4z M131.5,45.2c0.6,0.1,1.2,0.1,1.9-0.2c0.7-0.3,0.8-0.5,0.5-0.8
		c-0.1,0.3-0.6,0.4-1.3,0.4C131.9,44.7,131.5,44.9,131.5,45.2z M131.5,80.3c0.4-0.1,1.1-0.1,2.2,0c0.8,0.1,1.4-0.2,1.8-0.7
		c-0.1,0.1-0.8,0.1-2.3,0C132.2,79.6,131.6,79.8,131.5,80.3z M131.8,81c2.7-0.5,3.9-0.6,3.7-0.3C132.8,81.1,131.6,81.2,131.8,81z
		 M131.8,81.9c2.7-0.5,3.9-0.6,3.7-0.3C132.8,82.1,131.6,82.2,131.8,81.9z M131.8,86.6c2.4-0.5,3.5-0.6,3.3-0.4
		C132.7,86.8,131.6,86.9,131.8,86.6z M135.1,95.5c-2.3,0.5-3.5,0.6-3.3,0.3c0.1,0,0.8,0.1,2,0.3C134.5,96.3,135,96.1,135.1,95.5z
		 M132.5,79c-0.5,0.1-0.5,0.2-0.2,0.3c0.3,0.1,0.8,0.2,1.6,0.1c1.9,0,2.9-0.3,2.9-0.8C135,78.5,133.6,78.6,132.5,79z M132.2,86.9
		c-0.2,0.5,0.2,0.8,1.3,0.8c1.1,0,1.6-0.3,1.4-0.8C132.9,86.8,132,86.8,132.2,86.9z M135.5,94.5c-2.4,0.5-3.5,0.6-3.3,0.3l0.8,0.2
		c0.5,0.1,0.8,0.2,1.1,0.2c0.9,0.1,1.4,0.2,1.4,0.2S135.4,95.1,135.5,94.5z M134.8,85.3c-0.8,0-1.1-0.1-0.8-0.4
		c0.1-0.1,0.3-0.2,0.6-0.3c0.3-0.1,0.4-0.2,0.5-0.3c-2.1,0.5-3.1,0.6-2.9,0.3C132.9,85.6,133.8,85.9,134.8,85.3z M132.2,83.9
		c1.5,0.1,2.5-0.1,2.9-0.6c-0.1,0-0.7,0-1.9-0.1C132.5,83.2,132.1,83.4,132.2,83.9z M132.2,88.6c2.1-0.5,3.1-0.6,2.9-0.4
		c-0.3-0.2-0.9-0.3-1.7-0.4C132.5,87.7,132.1,88,132.2,88.6z M132.2,97.9c0.1-0.1,0.6-0.1,1.7,0c0.7,0.1,1-0.2,1-0.7
		c-0.2,0-0.5,0-0.9,0s-0.7,0-0.8,0C132.5,97.2,132.2,97.4,132.2,97.9z M133.4,99.8c-0.7,0.1-1.1,0.3-1.3,0.7
		c2.1-0.5,3.1-0.7,2.9-0.4c-0.7,0-1.1-0.2-1.3-0.6c0.7-0.1,1-0.3,1-0.7c-0.7,0-1-0.1-0.8-0.2l0.8-0.5c0.2,0-0.4,0-1.8,0
		c-0.8,0-1,0.1-0.6,0.3c0.5,0.2,0.5,0.5,0.2,0.8c-0.3,0.2-0.4,0.3-0.4,0.3S132.6,99.6,133.4,99.8z M137.4,156.7
		c0.3-0.1-1.2-1.2-4.6-3.3C132.3,153.3,133.9,154.4,137.4,156.7z M134.5,78c0.1,0.3,0.6,0.4,1.5,0.4c0.8,0,1.3-0.1,1.5-0.4
		c-0.2-0.2-0.6-0.2-1.2-0.1C135.5,78.1,134.9,78.1,134.5,78z M135.1,154c-0.4,0.1,0.8,0.9,3.7,2.6
		C138.6,156.7,137.4,155.8,135.1,154z M135.5,56.2c-0.1,0.1,0.8-0.3,2.6-1C137.9,55.8,137,56.1,135.5,56.2z M139.8,156.4
		c-0.6,0.5-1.5-0.1-2.6-1.6c-0.4-0.5-0.7-0.8-0.9-1.2c-0.2-0.4-0.1-0.4,0.2,0.1C139.1,155.7,140.2,156.6,139.8,156.4z M145.1,93.2
		c-3.2,0-5.7,0.2-7.6,0.7C142.5,93.4,145.1,93.2,145.1,93.2z M138,56.9c-0.1,0-0.2,0-0.3-0.1C137.9,56.8,138,56.9,138,56.9z
		 M140.8,116c-0.3-0.1-0.6-0.4-0.9-0.8c-0.4-0.5-0.7-0.8-0.8-0.9c0.1-0.1,0.3,0,0.8,0.1c0.2,0,0.2-0.4-0.1-1.1
		c0.3,0.1,0.6,0.5,1,1.2c0.3,0.5,0.7,0.8,1.3,0.8c-0.3,0.4-0.7,0.4-1.2,0C140.5,115.1,140.5,115.3,140.8,116z M139.4,105.4
		c0.3-0.5,0.9-0.1,1.7,1.1c-0.3,0.4-0.6,0.4-0.9-0.1L139.4,105.4z M141.7,114.4c-0.3,0.5-0.6,0.4-0.9-0.2c-0.4-0.7-0.7-1.1-0.8-1.2
		c0.2-0.3,0.5-0.2,0.8,0.3C141.4,113.9,141.7,114.3,141.7,114.4z M142,112.4c-1-0.7-1.5-1.4-1.7-2.3
		C141.2,110.5,141.8,111.3,142,112.4z M142,114.1c-0.8-0.5-1.3-1.3-1.7-2.3C141.2,112.2,141.8,113,142,114.1z M140.8,152.1
		c0-0.1,0.5,0.3,1.5,1.3s1.7,1.8,2.1,2.3C143.9,155.7,142.7,154.5,140.8,152.1z M142.7,146.8c1,0.5,2.1,1.5,3.5,3
		c1.4,1.6,2.6,2.7,3.4,3.2c-1.9-2.7-3.1-4.2-3.5-4.7c-1.7-1.6-3.4-2.1-5.1-1.6c1,0.5,2.2,1.5,3.5,2.9c1.4,1.7,2.5,2.8,3.1,3.3
		c-0.3-1-1.1-2.1-2.6-3.4C143.6,148.3,142.8,147.4,142.7,146.8z M144.4,146.4c-0.2-0.1,2.2,2.2,7.3,6.9
		C149.6,149.2,147.2,146.9,144.4,146.4z M148.7,53.8c-0.1,0.4-1.2,0.6-3.3,0.7C146,54.1,147.1,53.8,148.7,53.8z M146,146.4
		c1.2,0.6,2.6,1.8,4.1,3.6c1.5,1.9,2.8,3.1,3.8,3.7C150.8,149.1,148.2,146.7,146,146.4z M146.3,154.7c0.6,1.4,1.3,2,2.1,2
		C148.3,156.1,147.6,155.4,146.3,154.7z M156.3,153.7c-0.5-0.5-1-1.2-1.8-2.1c-0.8-1.2-1.4-2-1.8-2.3c-1.5-1.8-3-2.7-4.4-2.8
		c0.4,0.3,1.7,1.6,3.9,4C154.4,152.6,155.8,153.7,156.3,153.7z M150.3,142.5c-0.7,1.4-0.8,2.2-0.3,2.6
		C151.1,143.6,151.2,142.8,150.3,142.5z M150.3,146.4c1,0.6,2.4,1.9,4.1,3.9c1.6,2,2.8,3.1,3.8,3.4c-0.3-0.4-0.9-1.1-1.7-2.2
		c-0.8-1-1.4-1.7-1.9-2.2C153.2,147.5,151.7,146.6,150.3,146.4z M151.7,144.4c-0.4,0.7-0.2,1,0.7,1.1c0.8,0.1,1.1-0.2,0.9-0.8
		c0.1-0.3-0.1-0.4-0.6-0.3C152.1,144.4,151.8,144.4,151.7,144.4z M154.9,54.9c-0.1,0.1-0.5,0.1-1.2-0.2c-0.8-0.3-1.5-0.3-2.1-0.2
		c0.2-0.6,0.7-0.8,1.7-0.6C154,54.1,154.5,54.4,154.9,54.9z M152,146.4c1.2,0.5,2.6,1.9,4.4,4.1c1.6,2.1,3,3.3,4.2,3.5
		C156.3,149.2,153.4,146.7,152,146.4z M156.6,90.5c-0.7-1.9-1.9-3.5-3.6-5C155.7,89.3,156.9,90.9,156.6,90.5z M153,87.6
		c0.3,0.1,0.5,0.3,0.8,0.8c0.3,0.5,0.6,0.8,0.9,0.9c-0.1-0.6-0.3-1.1-0.6-1.5C153.6,87.3,153.3,87.2,153,87.6z M153.3,100.8
		c1.1-0.2,1.6,0,1.4,0.7c-0.3-0.5-0.5-1.1-0.7-1.7C153.9,99.8,153.7,100.1,153.3,100.8z M154.6,103.4c-0.3-1.1-0.7-1.7-1.4-1.7
		C153.3,102.2,153.8,102.8,154.6,103.4z M153.3,155.4c0.1,0.5,0.4,0.9,1.1,1.4c0.7,0.4,1.1,0.5,1.3,0.3c-0.2-0.3-0.6-0.7-1.1-1
		C153.9,155.7,153.4,155.5,153.3,155.4z M154.6,145.7c0.7-0.5,0.8-1,0.5-1.8c-0.3-0.7-0.7-1.1-1.5-1.2
		C154,144.5,154.3,145.5,154.6,145.7z M153.9,92.9c0.6,1.7,1.3,2.7,2.1,2.9c-0.1-0.2-0.2-0.5-0.3-0.9c-0.1-0.3-0.1-0.6-0.1-0.7
		c-0.1-0.3-0.4-0.1-0.7,0.6C155,93.8,154.7,93.1,153.9,92.9z M157.6,141.4c-0.1-0.8,0.3-1.6,1.4-2.2c0.1,0.8,0.2,1.3,0.3,1.3
		c0-0.2,0.1-0.5,0.3-0.8c0.1-0.3,0.2-0.6,0.1-0.9c-0.5,0-0.9-0.3-1.5-1c-0.5-0.6-1.1-0.8-1.9-0.7c-0.1,1.4-0.6,2.8-1.4,4.3
		c0-0.1,0-0.1-0.1-0.2c-0.1,0-0.2,0.1-0.2,0.2c1.4,0,1.9,0.2,1.7,0.7c-0.3-0.5-0.4-0.6-0.1-0.4c0.5,0.3,0.8,0.3,0.8,0.1
		c-0.3,0.1-0.4-0.1-0.4-0.7s0.1-0.8,0.4-0.7C157.9,140.1,158.1,140.4,157.6,141.4z M157,120.6c-0.3-0.1-0.6-0.2-0.9-0.1
		c-0.4,0-0.8-0.1-1.2-0.2c-0.1,0.4,0,0.6,0.4,0.6c0.5,0,0.7,0.1,0.7,0.4c-0.5,0.1-0.6,0.3-0.3,0.7c0.3,0.3,0.6,0.4,0.9,0.3
		c0.1-0.2,0-0.4-0.1-0.7c-0.1-0.2-0.2-0.4-0.2-0.6C156.7,120.9,157,120.8,157,120.6z M156.3,86.6c0.1-0.7,0-1.4-0.3-2.1
		c-0.3-0.6-0.7-0.7-1.1-0.3c0.3,0.1,0.5,0.6,0.6,1.3C155.6,86.2,155.9,86.6,156.3,86.6z M160.3,56.2c-1,0.3-2.6-0.1-4.7-1.3
		c1.6,0.1,3.4,0.6,5.5,1.7c2.5,1.2,4,1.8,4.5,2c0.1,1-0.3,1.1-1.2,0.4c-1.1-0.8-1.7-0.9-1.9-0.4C161.6,57.9,160.9,57.1,160.3,56.2z
		 M156.3,105.1c0,0.3,0,0.6,0.1,0.8s0.1,0.2,0.2-0.1c-0.2-0.9-0.5-1.4-1-1.4c0.5,1.4,0.6,2.1,0.4,2.1
		C156.1,105.6,156.2,105.2,156.3,105.1z M156.6,147.1c1,0.7,2.3,1.9,3.8,3.5c1.6,1.9,2.8,3.1,3.5,3.7c-2.9-4.6-5.6-7.4-7.9-8.2
		c0,0.2-0.1,0.4-0.2,0.7c-0.1,0.2-0.2,0.4-0.2,0.6c0.1,0.2,2.3,2.5,6.6,6.9c-0.3-1-1.3-2.3-3-3.8C157.6,149,156.8,147.9,156.6,147.1
		z M156,156c-0.1,0.5,0.2,1,0.8,1.4c0.5,0.3,0.9,0.3,1.2,0C157.6,156.8,157,156.3,156,156z M157.3,102.5c0.1-0.4-0.1-0.8-0.5-1.2
		c-0.3-0.4-0.5-0.8-0.5-1.2c-0.2-0.3-0.3-0.4-0.3-0.2c0,0.1,0.1,0.4,0.2,0.9C156.5,101.9,156.9,102.5,157.3,102.5z M157.9,125.6
		c-0.1,0.5,0.1,0.8,0.8,1c0.7,0.1,0.9,0.5,0.9,1c-0.5,0-0.7,0.2-0.9,0.6s-0.3,0.5-0.6,0.4c-0.2-0.2-0.4-0.3-0.6-0.3
		c0.3,0.1,0.5,0.2,0.6,0.3c0.4,0.5,0.7,0.7,0.8,0.7c0.2-0.5,0.4-0.8,0.7-1c0.6,0.3,1,0.7,1.3,1.4c0.3,0.7,0.7,1.1,1,1.3
		c-0.5,0.3-0.5,1.1,0,2.5c0.5,1.2,0.5,1.8,0,1.8c0,0.5,0.6,1,1.7,1.7c0.4-0.6,0.5-1.4,0.4-2.3c-0.1-0.8,0-1.4,0.3-1.7
		c-0.6,0.1-0.9-0.2-1.1-0.8s0-1.1,0.4-1.5c-0.4-0.2-0.6-0.6-0.7-1.2c0-0.6-0.2-1-0.6-1.2c0.7-2.1,1.1-3.3,1.3-3.3
		c0.1-0.7-0.2-1.9-1-3.6c1,0,1.8,0.4,2.1,1.1c0.5,0.9,0.8,1.4,1.2,1.6c-0.2-1.3-0.2-2.3,0-2.9c-1.7-0.8-2.9-1.3-3.6-1.4
		c-0.2,0.3-0.2,0.6-0.1,1c0.1,0.3,0,0.5-0.3,0.7c-0.2-0.1-0.5-0.3-1-0.5c-0.4-0.3-0.7-0.4-1-0.5v1.7c0.7,0.1,0.9,0.4,0.8,0.8
		c-0.3,0.5-0.2,0.8,0.2,1.2c-0.5,0.1-0.6,0.1-0.4,0.2c0.4,0.3,0.5,0.5,0.4,0.8c-0.6-0.4-1-0.2-1.3,0.6
		C159.3,126.3,158.7,126.3,157.9,125.6z M160.3,144.7c-0.1-0.3-0.5-0.4-1-0.1c-0.4,0.3-0.6,0.5-0.7,0.8h1.7V144.7z M158.9,147.1
		c0.8,0.5,1.9,1.7,3.2,3.6c1.2,1.8,2.2,2.8,3,3C162.4,149.7,160.3,147.5,158.9,147.1z M161.8,119.3c-0.5,0.1-1-0.2-1.6-0.9
		c-0.5-0.5-0.9-0.7-1.1-0.5c0.1,0.2,0.4,0.5,0.9,0.8c0.5,0.3,0.7,0.6,0.8,0.9c-0.2,0.1-0.5,0-0.8-0.2c-0.1-0.1-0.2,0-0.2,0.5
		c0.7-0.1,1.2,0.1,1.7,0.4v-0.7C161.8,119.6,161.9,119.5,161.8,119.3z M159.9,143.5c-0.2-0.4-0.3-1-0.2-1.8c0.1-0.7,0-1.1-0.1-1.3
		c-0.3,0.3-0.4,0.9-0.4,1.7C159.2,143,159.4,143.4,159.9,143.5z M159.6,146.4c1.1,0.5,2.5,2,4.2,4.5c1.6,2.1,3,3.3,4.4,3.4
		c-0.8-0.5-2.2-2-4.1-4.6C162.5,147.6,161,146.5,159.6,146.4z M165.2,140.8c0.1-0.3,0.1-0.6-0.1-0.9c-0.2-0.3-0.3-0.6-0.2-0.8
		c-0.4,0.3-1.3,0.2-2.8-0.4c-1.1-0.5-1.7-0.1-1.8,1.1c0.5-0.4,1-0.2,1.4,0.5c0.3,0.7,0.3,1.2-0.1,1.8c0.5,0.2,0.7,0.1,0.7-0.3
		c0-0.5,0.1-0.7,0.3-0.7c0.1,0.7,0.3,1,0.4,1c0.1-0.7,0.2-1,0.3-1c-0.1,0.3,0,0.5,0.2,0.6c0.2,0.1,0.4,0,0.5-0.3
		c-0.3,0-0.4-0.1-0.3-0.4c0-0.3,0.1-0.5,0.3-0.6c0.1,0.1,0.2,0.4,0.3,1c0.1,0.4,0.3,0.4,0.4,0c0-0.1-0.1-0.4-0.4-1.1
		c-0.1-0.5,0-0.7,0.4-0.9c0.1,0,0.2,0.4,0.3,1.1C164.9,141.1,165,141.2,165.2,140.8z M161.3,145.4c0.2-0.2,0.3-0.6,0.4-1.2
		c0-0.7-0.3-0.9-0.8-0.8c0,0.1,0,0.3-0.1,0.6c-0.1,0.3-0.2,0.5-0.2,0.6C160.6,145.1,160.8,145.4,161.3,145.4z M168.2,73.7
		c-1,0.1-2.1,0.7-3.2,1.7c-1.3,1-2.3,1.7-3.1,2c1.4,0.9,2.5,1.1,3.3,0.7c-0.1-0.4,0.2-1.1,0.8-2.1C166.6,75,167.3,74.3,168.2,73.7z
		 M161.8,146.8c1,0.7,2.3,2,3.9,3.9c1.6,2,2.8,3.3,3.7,4C165.1,149.6,162.6,147,161.8,146.8z M162.2,136.8c0.2,0.9,0.5,1.4,1,1.4
		c0-0.1,0.3-0.3,0.8-0.7c0.3-0.3,0.3-0.6-0.1-0.7c-0.2,0.5-0.4,0.7-0.7,0.5C162.8,137,162.5,136.8,162.2,136.8z M163.9,146.4
		c2.9,3.7,4.7,5.7,5.6,6c-0.5-0.4-1.3-1.4-2.6-3C165.7,148,164.7,147.1,163.9,146.4z M167.5,131.3c-0.4-0.2-0.8-0.6-1.3-1.2
		c-0.5-0.6-1-1-1.4-1.2c0,0.1-0.1,0.3-0.3,0.4c-0.2,0.1-0.3,0.2-0.4,0.3c0.3,0.2,0.5,0.2,0.6,0.1c0.1-0.3,0.3-0.4,0.4-0.5
		c0.1,0.5,0.5,1,1.1,1.6C166.8,131.3,167.3,131.5,167.5,131.3z M165.2,137.1c-0.5,0.5-0.6,1.1-0.3,2c0.3,0.8,0.9,1.3,1.7,1.4
		C166.5,138.8,166,137.6,165.2,137.1z M165.2,132.2c0.1,0.7,0.3,1,0.8,1.1c0.7,0.1,1.1,0.1,1.3,0.2c0-0.4-0.3-0.7-0.9-0.8
		C165.7,132.5,165.3,132.4,165.2,132.2z M165.6,147.1c0.5,0.3,1.3,1.3,2.6,2.8c1.1,1.3,2,2,2.6,2.1c-0.4-1.4-1.1-2.5-2.1-3.5
		C167.7,147.4,166.7,147,165.6,147.1z M167.2,64.8c0.6-0.6,0.5-1.5-0.4-2.6c0.1,0.2,0,0.4-0.1,0.7c-0.1,0.3-0.2,0.5-0.2,0.7
		c0.5,0.1,0.7,0.2,0.7,0.3c0-0.1-0.1,0.1-0.3,0.6C166.9,64.6,167,64.7,167.2,64.8z M167.5,64.8c0,0.3,0.2,0.9,0.7,1.9
		c0.3,0.7,0.1,1.1-0.4,1.5c0.5,0.3,0.9,0.3,1.4-0.1c0.5-0.4,0.6-0.7,0.3-0.9c-0.3,0.2-0.5,0-0.6-0.7c-0.1-0.8-0.5-1.3-1.1-1.3
		c0.2-0.1,0.3-0.2,0.2-0.3C167.9,64.7,167.8,64.7,167.5,64.8z"/>
</g>
</svg>
