<?xml version="1.0" encoding="utf-8"?>
<!-- Generator: Adobe Illustrator 21.1.0, SVG Export Plug-In . SVG Version: 6.00 Build 0)  -->
<svg version="1.1" id="Layer_1" xmlns="http://www.w3.org/2000/svg" xmlns:xlink="http://www.w3.org/1999/xlink" x="0px" y="0px"
	 viewBox="0 0 1024 1024" style="enable-background:new 0 0 1024 1024;" xml:space="preserve">
<style type="text/css">
	.st0{fill:#010101;}
	.st1{fill:#FFFFFF;}
	.st2{fill:#020202;}
	.st3{fill:#696969;}
	.st4{fill:#FEFEFE;}
</style>
<path class="st0" d="M506,112.9c8.5,1.4,18.2,3,23.9,10.1c4.1,5.4,2.5,12.5,0.2,18.3c6.3,0.3,12.6,0.8,18.9,1.1
	c3.7,0.2,7.5,0.8,10.6,2.9c2,1.3,3.3,3.3,5.1,4.8c14.9,3.3,30,5.6,44.5,10.5c4.3,1.3,7.3,5.2,8.4,9.5c2,6.7,2.1,13.9,1.8,20.8
	c-0.4,6.3-4.5,11.5-5.6,17.6c-4.6,3.8-8.4,8.7-10.3,14.4c-2.7-2.4-5.2-4.9-7.3-7.7c-3.7,0.4-7.4,0.6-11,0.9c4.1,4,8.9,8.2,14.9,8.6
	c5.4,0.3,8.5-6,13.9-5.6c2.9,0.2,5.2,2.8,4.9,5.8c-0.5,6.4-3.9,13.6-10.7,15c0.3,9.2-4.4,17.6-10.2,24.4c-1.2-1-2.3-2.5-3.9-2.9
	c-4.6,0.1-8.8,3.7-9.5,8.3c8.2,7.2,22,4.5,27.5-4.7c3.3,3.4,3.4,8.4,3.3,12.8c9.8,4.3,17.1,14.2,17.5,25c0.3,4-0.7,8-1.8,11.9
	c1,1.1,1.9,2.2,2.9,3.4c4.1-2.2,8-4.8,11.7-7.6c5.9-4.6,13.6-5.6,20.3-8.5c5.4-2.3,11.9-3.7,15.1-9c4.8-7.1,10.9-13.3,18.2-17.7
	c5.4-3.2,10.5-6.7,15.6-10.4c4.9-3.9,7.2-10.1,11.6-14.5c7.7-2.2,15.5-4,23.1-6.7c6.1-2.3,11.5-7.2,18.4-6.8
	c4.2-0.2,7.1,3.8,11.2,4.2c2.3,0.6,5.1,0,7.1,1.7c3.3,2.8,4.9,7.1,5.8,11.2c1.2,5.6,2.1,11.3,2.4,17c0,2.1,0.8,4.1,1.6,6.1
	c-1.3-2.8-4.3-3.4-7-4.1c3,8.1,3.9,17,2.5,25.5c-3.2-1.8-4.5-6.1-8.5-6.7c0.4,8.1,5.2,17,0.1,24.6c-6.6-6.8-16.9-5.3-25.1-2.9
	c-6.5,2.2-13.3,3.8-18.8,8c-6,3.6-9.3,10.6-15.8,13.2c-3.5,1.3-6.5-1.4-8.7-3.7c-6.6,5.5-8.7,14.3-14.7,20.2
	c-14.2,12.5-31.6,20.6-48,29.7c2.5,10.5,3.4,21.5,1.6,32.2c16.4,9.9,32.4,20.7,49.8,29c1.2-7.5,3.5-15.1,8.4-21.1
	c4.1-5.2,10-8.8,16.1-11.2c-0.6-4.8-0.6-10.1,2.7-13.9c4.1-4.6,10.3-6.7,16.3-7.4c6.4-0.8,12.2,2.9,15.9,7.8c-1.8,1.7-3.7,3.3-5.5,5
	c2,2.9,5,5.3,5.4,8.9c1.7,8.1-1.3,16.2-5,23.4c3.5,2.2,6.3,5.6,7,9.8c-4.1,0-8.4,1.5-10.1,5.5c-3,6.7-2.6,14.8-7.3,20.8
	c-0.9,7.9-1.6,16.2-5.9,23.1c-2.8,4.8-8.1,7.2-11.5,11.4c-2.6,2.7-4.7,6.1-7.9,8.2c-3.8,1.9-7.5-1-10.2-3.4
	c-4.2,3.1-9.4,5.5-14.7,4.6c-8.6-1.4-15.1-8-20.3-14.5c-1.1-1.5-3.3-0.7-4.9-1.1c-2.1,0-3.6-1.8-5.2-2.8
	c-13.5-9.6-26.9-19.5-41-28.1c-2.6,2.6-5.8,4.8-8,7.8c-3.4,12.6-9.3,24.5-17.1,35c-11,14.9-25.1,27.2-40,38.1
	c11-1.4,22-3.2,33.1-4.7c9.1,0.3,18.2,4.9,23.5,12.4c5.7,8,7.6,17.9,8.1,27.5c0.7,16.9-2.3,33.8-6.1,50.2
	c-3.4,14.5-7.9,28.7-12.5,42.8c10.2,6.3,22.7,5.8,34.2,5.2c5.6-0.5,11.2-1,16.8-2.1c6.1-3.9,8.7-11.9,15.6-14.8
	c7.3-2.5,15,1.6,22.4-0.6c10.8-3,20.8-9.4,32.2-9.8c6,0.5,11.2,4.9,14.4,9.9c3.1,4.8,3.3,11,0.6,16c-2.2-1.4-4.3-3-6.6-4.1
	c0.4,5.1,2,10.1,1.5,15.3c-0.5,5.6-2.7,10.8-5.3,15.8c-3.4-3.5-4.7-8.4-8-12c0,5.2-1.4,10.9-6.1,13.8c-1.2-1.6-2.3-3.2-3.8-4.5
	c-2.1,3.4-2.2,9-6.8,10c-4.5,1.5-9.5,1.3-13.5-1.3c-1.2,2-2.3,4.3-4.5,5.3c-8,4.4-12.6,13.1-20.9,17.1c-4.1,2-9.6,2.8-13.3-0.5
	c-2.5-1.5-4.2-5-7.6-4.6c-7.7,0.1-15.4-0.2-23.1,0.2c-10.3,1.9-20.6,4-30.9,5.7c-6.5,1-13.2-0.3-19-3.4c-6.9,2.2-14.9,2-20.9-2.3
	c-3.8-2.9-8.4-6.1-8.9-11.2c-2.6-16.8,5.4-33,4.2-49.7c-0.6-4.9-1.6-10.5-5.4-14.1c-11.4-7.1-24.6-10.8-37.8-12.8l-0.7,0.3
	c-8,17.9-15.3,36-23.3,53.8c-8.6,18.6-17.6,37.3-30.9,53.1c-11.6,13.9-26.7,25.2-44,31c0.1,23.6,0.5,47.2,0.5,70.8
	c8,2.1,15.5,5.7,23.1,9c4.1,2.1,8.6,3.7,11.9,7.1c3.2,5.5,4.7,13,0.9,18.6c-1.6,2.7-4.6,4.1-6.8,6.2c-1.4,2.2-2.4,4.7-3.8,6.9
	c-3-2.5-5.5-5.4-8.3-8c-7.4,3.1-16.4,6.1-23.8,1.4c0.5,6.1,0.9,12.8-2.9,18c-1,1.5-3,2-4.6,2.6c-4.1-6.2-8.7-12.8-15.8-16
	c-3.4-1.7-4.5-5.5-6.6-8.4c-3.3-4.7-8.7-7.1-12.8-11.1c0.3-10.9-1.9-21.6-1.8-32.5c-0.7-12-1.6-24-2.5-35.9
	c-1.2-12.4-3.9-24.7-4.3-37.1c-0.3-2.2,1.4-3.8,2.5-5.5c8.7-12.4,18.6-24.1,25.1-37.8c4.7-9.8,8-20.6,6.9-31.5
	c-1.3-14.8-6-29.2-5.8-44.1c-0.1-8.1,0.9-16.3,2.7-24.2c-16.2,9.5-33.8,16.9-52.3,20.2c-19.6,3.6-40.2,2.8-58.9-4.3
	c-31.7-12-57.9-39-67.2-71.8c-6.8-22.4-6-46.3-2.5-69.2c3.7-24.5,9.8-49.2,22.3-70.8c9.2-16,22.8-29.8,39.8-37.4
	c12-5.5,26.4-8.1,39.1-3.2c12.3,3.6,24.7,6.7,36.6,11.2c3.4,1.4,7,2.8,9.6,5.4c4.8,4.7,7.2,11.1,9.8,17.1c2,4.4,3.7,9.3,7.7,12.3
	c2,1.7,5.5,2.9,7.6,0.7c2.5-2.5,2-6.4,2.4-9.6c4.1,0.7,8.2,3.3,8.9,7.7c1.2,8,0.1,18.3-7.9,22.7c2.2,5.9,1.7,13.1-3.1,17.5
	c-3.2,3.9-8.5,3.9-13,3.2c1.8,5.8,7.4,9.3,13.3,9.2c-1.3,2.6-2.5,5.4-5.1,6.9c-2.4,1.7-5.4,1.8-8.1,2.1c-0.4,6.7-1.9,13.9-7,18.7
	c-2.7,2.7-6.4,3.6-9.9,4.8c-1.6,6.3-5.8,11.5-10.7,15.6c-5.2,4.2-10.3,8.7-14.9,13.7c9,0.3,17.5,7.5,18.9,16.5
	c1.4,8.6-1.6,18.9-9.9,23c-4.8,2.6-10.6,0.9-14.5-2.6c-9.8-9-16.4-22-15.6-35.5c0.2-8.1,3.6-15.7,8.2-22.1
	c-6.8-4.7-13.8-10.3-16.3-18.5c-2.1-7.8,0.4-17.7,8-21.6c5.1-2.6,11.6-4.6,17-1.6c1.2,0.9,3.6,1.8,2.6,3.8
	c-1.1,4.6-2.2,9.2-3.4,13.8c-2.2-2-4-5-7.3-5.2c0.7,3.3,2.6,7,6.4,7.5c6.9,0.6,14.8-3.2,17-10.2c-3.8-0.4-7.8-1.6-9.9-5
	c-4.7-7.3-4.6-17.6,0.6-24.6c-10.2-6.8-14-21.5-8.7-32.5c4,3.7,5.5,9.7,10.8,12.1c5.5-4.1,6-11.6,4.2-17.8
	c-1.8-7.7-8.9-12.5-15.8-15.2c-9.7-3.7-20.3-6.3-30.7-4.4c-6.7,1.2-12.5,5.1-17.6,9.5c-13.2,11.3-21.7,26.9-28.3,42.8
	c-9.6,23.1-14.4,48.3-13.5,73.4c0.8,20.7,7.1,41.4,20.1,57.8c9.3,12.4,22.3,22.1,37.1,26.9c15.6,5,33,6.2,48.5,0
	c14.7-5.7,26.3-17.3,34.7-30.3c4.7-7.4,9.7-14.5,13.7-22.3c2.8-7.1,4.2-14.6,5.8-22c2-8.6,6.8-16.2,11.9-23.2
	c10.9-14.9,23.8-28.2,36.7-41.3c6.7-7,14.6-13.1,19.5-21.5c9.1-14.9,10.9-33,9.8-50.1c-4.3,2-8.4,4.5-12.4,7.1
	c-1.3-7.5,2.3-14.5,4.5-21.4c-1.5,1.1-2.8,2.3-4.2,3.6c0.2-2.9,0.6-5.7,1-8.5c-3.8-0.3-7.9-1-10.3-4.2c-5.3-6.9-5.1-16.7-1.5-24.3
	c-6,1.5-12.2,2.5-18.3,1.3c-4.2-0.8-7.5-4-8.9-8c7.2-5,14.5-10.1,22.2-14.4c3.6-8,3.3-17.2,1.5-25.6c-0.9-3.5-2.1-7.7-5.6-9.5
	c-3.2-0.8-5.7,1.7-8.1,3.3c1.4,4.8,7.1,4.5,10.9,3.2c-0.2,4.4-0.5,9.2-3.5,12.7c-3.8,4.6-10.4,5.7-16,4.8c-5.2-0.8-9.4-4.7-11.8-9.2
	c-6.5-12.2-6.9-28.3,1.5-39.8c-2-0.4-4.1-0.8-6.1-1.1c3.5-9.9,6.7-19.9,9.9-29.9c-7.4-1.2-15.8-3-20.1-9.9
	c6.4-6.1,12.8-12.4,19.1-18.6c-7.9-4-11.4-13.1-12.1-21.4c-0.8-13.1,4.3-25.7,10.7-36.8c4.4-7.9,10.5-14.6,17.4-20.5
	c-2.1-0.4-4.3-0.8-6.4-1.1c7.7-14.9,22.9-26,39.9-27.3c7.5-0.7,15,1.2,21.8,4.4c7.6-4.2,16.5-7.3,25.3-5.8c3.9,0.5,7.3,2.5,10.8,4.1
	C507.9,116.2,507,114.6,506,112.9z"/>
<path class="st1" d="M488.4,119.5c10.8-2.3,21.7,3.5,28.7,11.5c1.9-3.6-0.8-7-3-9.6c4.6,0.7,10.9,0.3,12.8,5.6
	c1.7,5.5,0.1,12.1-3.5,16.6c-0.5-5.1,4.9-10.7,0.5-15.1c-0.7,3.6-0.6,8.9-5,10c-4.6,0.1-8.8-2.5-13.1-3.6
	c7.1,8.6,18.3,12.4,29.2,12.8c6.7,0.4,13.8-1.4,20.2,1.3c2.8,1,4.6,3.5,6.9,5.3c16.6,2.2,33,6.2,48.6,12.2c2.8,3.6,2.9,8.4,2.3,12.8
	c-2.1-1.6-4.1-3.2-6.1-5c-4.3,2.7-9.8,1.2-13-2.5c2.8-2.4,6.6-2.5,9.6-4.3c-3.2,0.2-6.4,1-9.6,1.8c-0.6,2.1-0.9,4.4-0.9,6.6
	c4.1,2.5,9,2.9,13.7,1.9c2.2,1.2,5.2,1.7,6.2,4.3c3.2,6.3,2.2,16-4.8,19.2c-10.9,4.1-23.5,0.4-34,5.9c-4.9,3.8-6.8,10.3-8.1,16.1
	c-1,5.5-2.5,11.4-0.2,16.8c1.4,3.5,5.6,4.8,9,4.3c6.6-2.5,12.8-7.1,20.1-7.4c2.9,0.2,6.2,0.9,8.1,3.2c0.2,4.8-0.3,10-2.8,14.2
	c-0.8,1.2-1.6,2.7-3.1,3c-3.8,1-7.7,1.4-11.5,1.7c-0.5-1.6-1-3.3-1.6-4.9c-2.6,1.9-5,4-7.4,6.1c-0.4-1.3-0.7-2.6-1-3.9
	c-12.1-2-24.5-6.9-32.1-16.9c-4.5-5.6-6.5-12.7-8.1-19.6c-1,12.1,5,23.9,14.1,31.5c7,5.9,16.4,6.6,24.9,8.8c-0.2,2-0.5,4-0.8,6
	c2.8-0.9,5.5-2.3,8.1-3.7c-1.3,4-4,8.9-1.2,12.8c1.5,2.3,4.7,1,6.9,2.2c8.4,3.7,20.6,1.5,24.4-7.7c1.3,4.7,1.7,10.4-2.5,13.8
	c14.1-0.6,23.3,17.2,16.7,29c-0.9-3.2-2-6.7-5-8.7c-3.4-2.8-8.7-1.2-11.2,2.1c-3.4,4-2.6,9.8-1.1,14.4c1.7,5,4.2,10.2,8.8,13.1
	c2.7,1.7,5.9,1.6,8.9,2.2c-7.4,3.4-15.7,1.2-23.3-0.1c0.3-6.2-2.6-12.5-8.2-15.5c-7.4-3.8-15.3-6.8-21.6-12.4
	c1.2,6.8,8,10,13.8,12.2c7,2.7,14.4,8.1,14.9,16.2c-0.1,7.2-2.6,14.2-6.3,20.2c0-4.1,0.5-8.5-2-12.1c-4.2-6.3-11.9-9.1-19-10.6
	c-7.3-1.6-15.9,0.6-20.2,7.1c-2.5,6.7-2.9,13.9-4.8,20.7c-2.8-5.8-2.8-12.6-6.6-17.9c-2.6,0.3-5.1,0.9-7.5,1.8
	c2.3,0.5,4.5,1,6.8,1.5c1.1,9.1,4.8,18.8,13.1,23.6c-3.6-7.4-3.8-16.2-0.9-23.9c0.9-3.7,4.3-5.8,7.5-7.4c8.2-3.8,18-1.2,25.1,3.6
	c5.5,3.8,7.3,10.8,6.7,17.2c5.7-5.3,9.9-12,11.9-19.5c7.1,0.7,14.7,1.7,21.5-1c2.7-1,4.2-3.5,5.7-5.8c-6.2-1.1-12.8-2.5-17.5-6.9
	c-4-3.5-5.1-9.4-4.1-14.4c0.8-3.4,3.5-7.4,7.5-6.3c1.9,0,2.5,1.9,3,3.4c1.4,4.5,0,9-0.7,13.5c2.1-1.3,3.7-3.1,5.3-4.9
	c3.7,1.6,5.6,5.2,6.2,9c5.7-6.6,13.3-10.8,21.4-13.7c8.9-3.3,18.4-6.1,26-12.1c6.7-6.3,12.7-13.4,19.2-19.9
	c6.5-5.6,14.2-9.8,21.1-14.9c3.9-4.7,7.4-9.9,12.2-13.8c9.8-1.7,19.9-4.1,28.2-9.8c1.9-1.7,4.6-1.3,6.9-1.6c-0.2,1.5-0.5,3-0.7,4.5
	c5.5-1,11.7-1.7,16.4,2c6.5,5.1,7.7,13.8,8.6,21.5c-2-2.4-4-4.9-6.7-6.4c-5.1-3-11.2-3.6-17-3.5c-1.3-2.3-2.8-4.5-4.3-6.7
	c-1.5,4.9,1.4,10.7,7,10.6c-5.4,2.2-10.9-0.1-15.8-2.4c3.8,6.4,12.2,5.5,18.6,5.4c-1,0.8-1.9,1.6-2.9,2.4c4.1,0.3,8.4,1.2,11.4,4.2
	c5.1,4.9,6.5,12.3,7.2,19.1c-7.4-1.8-14.2-5.1-21-8.3c-2.2-3.4-1.5-7.5-1-11.2c-1.1,1.3-2.5,2.4-3.2,4c-1.1,4.6,1.9,9.3,5.6,11.7
	c2.9,1.9,6.4,1,9.7,1.2c-1.6,1-3.4,2.1-5.4,1.6c-3.9-1-7.7-2.7-11.7-3.5c-1-2.4-1.9-4.8-2.7-7.2c-3.8,1.2-7.6,2.5-11.3,4
	c3.3,1.1,6.7,2.1,10,3.3c-1.9,2-4,3.9-5.8,6c4.9-1.6,10.2-2.7,15.3-1.3c4.9,1.3,10.2,3.6,12.8,8.2c1.6,2.6,1.2,5.7,1,8.6
	c-7.1-1.1-14.3-1.9-21.3-3.4c-4.3-0.9-7.5-4.1-9.9-7.6c0,2.1-0.2,4.5,1.3,6.2c1.3,1.4,3.2,2.2,4.8,3.2c-3.9,4.1-10,6.3-15.4,4.4
	c-2.6-0.6-4.2-3-6-4.8c0,3.6,1.9,6.7,5.1,8.4c-6.5,2.8-10.2,9-15.3,13.7c-2.3,2.5-5.7,0.3-7.4-1.7c-2.2-2.5-2.1-5.9-2.5-8.9
	c-1.8,2.3-1.7,5.3-1.7,8.1c-7.2,7.3-11.1,17.2-18.8,24.2c-10.3,9.9-23.7,15.3-36,22.1c-6.7,3.7-13.6,6.9-20.2,10.7
	c-3.9,4.5-7.7,9.2-13.2,11.9c0.5-2.9,1.1-5.9,1.5-8.8c-2.4,0.7-4.5,2-6.9,2.6c-4.4-0.5-8.4-2.9-12.8-3.1c-17.5-1.3-34.8,2-52,4.2
	c-10.1,1.1-20.1-1.4-29.5-5.1c8.9,8.3,22,8.7,33.5,8.2c15-1.3,30-3.5,45.1-2.1c6,0.3,11.5,3.2,17.6,2.5c-1,2.2-2,4.5-3.1,6.7
	c5.8,0.6,12-0.6,16.6-4.4c4.7-4,8.8-8.9,14.1-12.1c-0.5,10.7,1.8,21.4-0.2,32.1c-3.4,21-16.6,38.9-32.2,52.8
	c-3.2,2.3-3.8,6.4-5.1,9.9c-1.3,3.3-0.8,7.1-2.6,10.3c-11.1,22.1-29.2,39.9-49.3,53.8c-7.1,5.1-14.8,9.2-22.1,13.9
	c-12.4,9-20.9,22.5-26.2,36.8c-3.8,10.3-6.1,21.1-7.8,31.9c-1.1,7.2-1,14.7-3.7,21.5c-4.8,11.9-14.3,21.6-16.9,34.4
	c-9.9,33.8-34,61.3-60.6,83.4c-6.3,4.9-12.1,10.9-19.9,13.2c-0.5,21.2-2.2,42.3-1,63.5c0.5,5.1,0.8,10.7,3.8,15.1
	c2.4,0.6,4.9-0.3,7.3,0.3c4.4,0.8,7.9,3.5,11.5,5.8c2.6,0.4,5.4,0.1,7.8,1.2c7.1,3.6,11.2,13.8,6,20.6c-0.8-4.3-1.3-9-4.3-12.4
	c-1.9-2.4-4.7-3.6-7.4-4.5c2.1,2.5,4.6,4.9,5.9,8c2.1,4.9,2.1,10.4,1.4,15.7c-2.9-1.8-5.7-4-9.1-4.7c-2.6-0.6-5.2,0.2-7.7,0.7
	c-2.6-4.5-3.3-10.1-1.2-14.9c-1.7,1-3.7,2.1-4.2,4.3c-1.3,4.5-0.3,9.3,0.3,13.9c-2.6-0.4-5.1-1-7.7-1.7c-2.4-7.2-4-14.8-7.2-21.8
	c-2.7-5.7-8.8-8.9-15-9.1c-0.9-3-1.8-5.9-2.9-8.8c-1.8,3.2-3.8,7-2.2,10.7c1.7,4.7,7.5,4.1,11.3,5.8c6.4,1.4,7.8,8.9,8.1,14.4
	c0.1,9.2-0.9,18.3-2.5,27.4c-3.9-6.5-9.7-12.3-11.5-19.9c-1.1-3.9,0.3-7.8,1.5-11.5c-1.8,1.1-3.9,1.9-4.8,4
	c-1.7,3.5-0.6,7.5-0.5,11.2c-2.3-2.4-4-5.2-5.7-8.1c-1.9-3.7-7.2-3.1-9.4-6.5c-4.7-6.5-5.2-14.8-6-22.5c0-15.7,0.4-31.4,0.9-47
	c-0.7-10.2-1.4-20.4-2.7-30.6c0.1-3.2-1.7-6.9,0-9.8c15-15.5,26.2-34.5,32.4-55.1c2.5,6.7,3.4,13.7,5.2,20.6
	c0.3-21-5.7-41.2-8.2-61.9c-4.7-33.3,3.8-67.3,19.5-96.6c3.1-5.8,7.9-10.4,11.7-15.7c-12.3,9.5-19.8,23.7-27.1,37.1
	c-5.5,10.8-12,21.3-20.2,30.2c4.7-3.3,9-7.1,13-11.2c-0.5,3.2-1,6.3-1.4,9.5c-16.3,10.6-34.4,18.9-53.8,21.9
	c-21.6,3.6-44.2,0-64-9.3c-30.3-14.5-52.4-44.5-58.4-77.5c-3.4-19.1-2.5-38.8,0.5-58c4.4-25.3,13-50.2,27.2-71.7
	c10.5-15.7,25.8-29.1,44.6-33.3c13.2-3.5,27.7-1.9,39.5,5.1c10.3,5.8,18,14.9,24.9,24.3c-2.6-9.5-10.3-16-17.5-22
	c8.9,1.2,17.6,4.9,23.5,11.8c6.5,6.8,7.4,16.8,12.5,24.5c2.9,4.3,8.6,6.1,13.7,4.9c3.4-2,4.2-6.2,5.3-9.6c4.8,8.2,0.8,21.2-9.2,22.9
	c5.5,3.8,4.8,12.1,0.9,16.7c-2.4,2.8-6.2,1.4-9.1,0.2c1.7-2.1,3.4-4.4,3.6-7.2c-2.8-1-6.6-1.8-8.9,0.7c-1.8,2.3-1.5,5.4-1.1,8.1
	c0.8,4.5,2.2,9.3,5.6,12.5c2.2,2,5.3,2.2,8.1,3.1c-7.2,5.2-16.5-0.8-19.8-7.8c0.1,5.7,4,10.1,6.9,14.6c0.9,8.5-4,17-11.9,20.4
	c0.3-2.7,0.7-5.3,0.6-8c-3,3.5-1.9,8.5-4.4,12.3c-5.9,11-18.9,15.2-25.7,25.3c-2.3,5-1.7,10.8-0.5,16c0.4,2.4,2.1,4.3,4.1,5.6
	c1.7-1.1,3.3-2.2,4.9-3.5c-0.3-3.3-1.9-6.2-3.4-9c2.1-0.4,4.5-0.7,6.2,0.9c4.9,4.2,6.3,11.4,5,17.4c-0.5,2.7-2.7,5.4-5.6,5.5
	c-2.8-0.1-5.1-2-7.5-3.2c0.8,5.1,6.6,4.5,10.5,4.7c-2.9,2.4-6.9,4.3-10.6,2.8c-5.5-2.2-8.6-7.8-11.2-12.8
	c-4.9-9.7-6.8-21.7-2.2-31.9c5.2-9.6,15.2-15.1,23.9-21.1c7.5-5.3,12.3-13.8,12.9-22.9c-1.3,3.8-2.2,7.9-4.4,11.4
	c-4,7.1-12.2,11.6-20.3,11.6c-5.6-0.1-9.7-4.2-13.3-7.9c1.9,4.8,5.8,8.8,11,9.8c-2,1.8-4.1,3.4-6.5,4.6c-7-5.5-13.6-13-14.1-22.4
	c-0.8-3.5,2.3-6.1,4.8-8.1c3.9-2.9,9.6-4.9,14-2.1c3,1.6,1.4,5.4,1.3,8.1c-2-2.5-4.5-5.6-8.1-4.4c-2.9,1.9-3.1,6-2,9
	c1.2,3.4,4.8,5,8,5.9c8.3,2.5,17.9-2,21.5-9.9c3.8-6.7,4.2-15.4-0.6-21.6c-1.5,0.8-3.6,1.2-4.2,3.2c-1,3.1,0,6.3,0.1,9.4
	c-3-1-6.1-2.6-7-5.9c-1.7-7.4,0.8-15.5,6.2-20.8c-4.7-1.9-9.3-4.9-11.6-9.6c-1.9-3.5-2.2-7.5-2.6-11.4c1.6,2.6,2.9,6.2,6.3,6.7
	c4,0.3,7.8-2.1,10-5.3c2-2.9,1.9-6.6,2.2-9.9c4.5,6.8,7.7,14.2,10.5,21.8c-1.5-17.2-9.9-34-23.8-44.4c-8.8-6.8-20.1-10-31.2-9.7
	c-12.5-0.3-23.7,7-32.1,15.7c-11.4,11.6-19.7,26-26.1,40.8c-5.7,13-8.8,27-11.2,41c-3.3,20.8-3.6,42.5,1.8,63
	c4.2,17.2,13.1,33.6,26.9,45c13,10.9,29.4,17.3,46.1,20c15.8,2.5,32.5-0.7,45.9-9.5c15.4-9.9,26.4-25.1,35.1-40.9
	c4.6-7.8,6-16.9,8.3-25.5c4.3-18.9,15.7-35.4,29-49.2c15.5-15.8,32.4-30.4,46.7-47.3c5.8-14.9,4.2-31.2,6-46.9
	c0.7-5.5,1.7-11,4.4-15.9c6.1,1.4,12.3-1.1,16.5-5.5c-5-1.2-10.4-4-11.9-9.3c-1.2-3.1,0.2-6.2,0.5-9.3c-4.1,3.7-3.7,9.9-1.7,14.5
	c1.1,2.7,3.9,3.7,6.3,4.9c-3.4,1.5-8,2.7-10.7-0.7c-5.4-6.8-6-16.2-4.1-24.4c-3.6,9.7-4.3,21.4,1.5,30.4
	c-2.8,6.6-8.2,11.8-14.5,15.1c2.2-7,4.8-14,5.7-21.3c-1.4,0.5-2.7,0.9-4.1,1.4c0.4-2.6,1.4-5,2.6-7.3c-3,1.4-6.3,3.1-9.7,2.1
	c-4.5-1.1-7.7-5.5-7.6-10.1c0.1-7.6,4.2-14.2,7.6-20.8c5.4-9.4,11.4-18.7,13.8-29.4c2.1-8.1,0.4-16.4-1.7-24.3
	c1.1,10.9-0.9,22-5.9,31.8c-3.7,8.3-8.2,16.1-11.8,24.5c-7.3,0.7-14.6,3.8-22,1.9c3.7-2.3,7.9-4.1,10.8-7.4
	c11.1-11.8,12.9-30.6,6.2-45c-3.7-8.3-18.9-6.6-19.9,2.6c-0.4,3,0.8,6.2,3.3,7.9c2.4,2,5.5,0.4,8.2,0.3c-2.5,3.1-5.4,6.5-9.5,7.4
	c-5.2,1.1-10.4-1.9-13.6-5.8c-4.4-5.3-5.7-12.7-4.7-19.4c4-9.7,8.8-19.2,12.9-28.9c-4.3,1.8-8.5,3.8-12.9,5.5
	c4.4-10.7,9-21.4,11.5-32.7c-6,1.5-12.6,1.1-17.9-2.2c6.1-5.3,12-11.3,14.8-19c2.1-5.5,2-11.6,0.5-17.3c-1,3.7-1.1,7.5-1.2,11.3
	c-0.6,0.3-1.7,0.8-2.3,1.1c-3-3.1-6.6-6-8-10.2c-3.5-9.1-0.9-19,2.3-27.8c6.7-17.1,17-34.1,33.9-42.7c-3.9,0.5-7.7,1.2-11.6,1.5
	c4.4-8,12.3-13.6,20.9-16.5c9.6-3.5,20.6-3.3,29.9,1c-10.3,8.7-20.5,18.1-26.6,30.4C456,139.5,471.4,127.8,488.4,119.5z"/>
<path class="st0" d="M530.7,156.7c1.9-2.2,4.9-2.6,7.6-2.8c-3.1,3.8-6.4,7.4-9.3,11.2C528.8,162.3,528.4,158.9,530.7,156.7z"/>
<path class="st0" d="M482.1,163.1c5.4-3,10.6-7.1,17-7.4c2.5-0.3,4.6,1.3,6.5,2.7c-8.2-0.3-16,3.1-22.8,7.4
	c-4.5,2.9-9.6,4.9-13.9,7.9c-1.3,5-1,10.9,2.4,15.1c3.4,4.1,8.8,6,13.9,7.1c6.2,1.4,12.6,0.4,18.9-0.5c-5.7,5.6-14.3,5.5-21.7,4.4
	c-5.1-0.7-8.3-5.1-12.6-7.6c-2-0.3-3.8,1.1-5.5,2c-3.6,2.3-7.4,4.6-10.2,7.8c-2.8,8.7-3,18-3.9,27c-0.9,9.7-0.6,20.4-6.2,28.8
	c-3.8,5.8-12.7,5.2-17.2,0.6c-3-2.6-3.8-6.5-5.2-10c-1.6,4.2-2.9,9.3-0.2,13.4c7.7,10.9,25.7,13.8,35.3,3.8
	c7.6-9.2,7.7-21.9,8.9-33.2c1.1-8.1,1.7-16.8,6.5-23.6c-4.1,12.4-3.7,25.4-4.4,38.3c-0.9,8.6-2.2,18.4-9.1,24.4
	c-6.8,5.5-16.4,4.4-24.3,2.4c-6.2-1.6-13.4-4.2-16.3-10.5c-2.8-6.5,1.9-12.9,4.2-18.8c1.1,3.4,2.2,7.1,4.9,9.7
	c4.4,4.7,13.2,3.7,16.4-1.9c2.5-4.3,2.9-9.4,3-14.3c0.1-9.6-0.2-19.2,0.9-28.7c2-10,11-16.6,20.1-19.7c-1.3-4.9-4.9-9.9-2.9-15.1
	C469.9,170.1,476.1,166.8,482.1,163.1z"/>
<path class="st0" d="M546.7,161.6c2.9-0.8,6-0.1,8.7,1c1.3,2,1.7,4.8,0.1,6.8c-2.7,3.6-7.2,4.9-11.1,6.8c1.5,2.8,4.9,4,8,3.3
	c2.3-2.2,2.7-5.4,3.4-8.3c2,4,0.2,8.4,1,12.6c-2.2,3.5-6.2,5.9-10.3,6.6c2.4-1.8,4.8-3.6,6.7-5.9c-4.2-2.6-8.3-5.5-12.6-8.2
	c4.5-2.7,9.1-5.2,13.3-8.3C553.1,164.4,549.9,162.7,546.7,161.6z"/>
<path class="st2" d="M478.6,171.3c1.6-1.4,3.1-3.3,5.4-3.3c2.6,0.4,5.1,1.1,7.7,1.3c0,1.3,0.1,2.7,0.1,4.1c2.3-0.2,4.7-0.6,7-1
	c-0.7,1.7-1.4,3.4-2.1,5.1c1.9-0.7,3.8-1.4,5.8-1.9c-0.6,1.2-1.1,2.5-1.6,3.7c-2.6-0.6-4.9,0.7-7.3,1.5c0.5-2.1,1.2-4.1,2.2-6
	c-2.7,0.2-5.5,0.4-8.2,0.5c1.1-1.4,2.2-2.7,3.4-4c-1-0.7-2-1.4-2.9-2.1C485,169.9,481.8,170.6,478.6,171.3z"/>
<path class="st0" d="M560.7,176.5c2.2-3.8,6-6.3,9.8-8.4C569,172.5,565.4,175.9,560.7,176.5z"/>
<path class="st0" d="M570.7,178.2c2.3-1.4,4.5-3,6.5-4.9c-1.2,1.7-2.6,3.3-3.5,5.2c-1.1,7.2-1.6,15.1-6.2,21.1
	c-3.3,3.5-8,5.2-11.5,8.5c-1.9,1.8-2.2,4.6-3.1,6.9c0.3-2.7,0.6-5.6,2-8c3.3-6.5,10.4-9.9,13.6-16.5
	C570.7,186.8,570.8,182.4,570.7,178.2z"/>
<path class="st2" d="M577.7,183.7c1.9-3.3,5.7-4.6,9-5.9c-1.4,1.4-2.7,2.8-4,4.3c7.5,0.3,14.1,4.3,21,6.8
	c-6.8,0.5-13.1-2.7-19.7-3.3c-6.2-0.3-6.2,8.9-2.1,11.5c4.6,2.9,10.3,1.9,15.5,2.3c-5.6,1.8-12.3,2.9-17.3-1
	c-3.8,6.1-10.2,10-13.6,16.5c-0.9-8.6,8.6-12.4,10.2-20.1C577.3,191.1,575.5,187.1,577.7,183.7z"/>
<path class="st2" d="M498,185.5c0.5-1.3,1.1-2.7,1.7-4c0.4,1.9,0.8,3.9,1.1,5.9C499.8,186.8,498.9,186.1,498,185.5z"/>
<path class="st3" d="M501.3,188.3c0.9-0.9,2.9,0.4,2.3,1.6C502.6,190.8,500.7,189.5,501.3,188.3z"/>
<path class="st4" d="M597.7,207.8c4.2-0.1,8-1.6,11.7-3.5c-0.6,2.8-3.1,4.3-4.9,6.1c-1.7,1.6-2.2,3.9-3.1,6
	C598.8,214.2,597.9,211,597.7,207.8z"/>
<path class="st4" d="M575.6,210.1c6.9-3,14.7-1.9,21.9-0.6c-1.5,1-3.1,1.7-4.9,1.9C587,212,581.2,211.4,575.6,210.1z"/>
<path class="st4" d="M569.4,231.9c-0.2-5.3,0.2-10.8,2.6-15.6c6.8,1.3,12.5,5.8,16.1,11.6C583.9,233.9,575.6,232.6,569.4,231.9z"/>
<path class="st4" d="M600.4,230.6c5.2-0.6,8.4-5.3,13.4-6.6c1.3,6.9-6.1,12.2-12.5,10.8C601.1,233.4,600.8,232,600.4,230.6z"/>
<path class="st4" d="M588.5,234.4c1.2-2.3,2-4.7,2.7-7.1c1.7,2,3,4.2,4.6,6.3c1.6-0.6,3.2-1.2,4.9-1.5
	C597.2,234.6,592.5,234,588.5,234.4z"/>
<path class="st4" d="M569.7,235.2c3.8-0.3,7.8-0.5,11.2,1.5c1.7-1,3.5-1.5,5.5-1.7c-0.9,0.6-1.8,1.2-2.8,1.6
	c-3.8,1.1-6.7,5.2-11.1,4C569.8,240.3,569.8,237.3,569.7,235.2z"/>
<path class="st0" d="M524.6,258.6c3.8-3.5,7.8-6.9,11.7-10.2c-2.2,7.1-10.7,9.5-13.7,16.1c-1.8,4.1-1,9.3,2.1,12.7
	c4.8,5.3,11.4,8.5,16.1,14c5,6.5,8.1,14.7,7.3,22.9c-0.3,4.5-2,8.8-3.8,13c1-7.1,3.3-14.7,0.2-21.6c-5.4-11.7-18.8-17-24.1-28.8
	C517.8,270.4,519.8,263.1,524.6,258.6z"/>
<path class="st0" d="M488.9,369.3c7.7-12.4,21.1-21,35.7-22.3c2.5,6.2-0.6,12.4-3.2,17.9c4.9-1.9,8.7-5.5,13-8.4
	c-4,6.9-11.4,12.3-19.7,11.5c3.1-4.4,8-7.7,9.2-13.2c-8.8-0.4-18.1,1.4-25.1,7c-6,4.6-9.4,11.6-12.1,18.5c-0.7-4.9-0.8-9.8-2.1-14.6
	c1.1-0.2,2.2-0.4,3.4-0.6C488.3,366.4,488.6,367.9,488.9,369.3z"/>
<path class="st1" d="M739.5,395.5c5.2-3.9,12.2-2.9,17.7-0.2c-2.5,2.2-4.8,4.7-6.1,7.8c-2.1,4-2.6,8.9-5.7,12.2
	c-1.8,2-4.7,1.9-7,2.6c3.8,1.6,8.7,1.5,11.7-1.9c3.1-3,3-7.4,2.9-11.4c3.7,1.6,5.7,5.4,5.6,9.4c-0.2,6.4-1.4,13.1-5,18.5
	c-1.6,2-4.2,4.6-6.9,3.2c-3.7-1.5-7.5-3-11.5-2.9c-5.9,0.1-11.5,4.7-12.4,10.6c-1.6,7.7,0.2,15.7-1.1,23.4c-0.4,3-2.2,5.6-3.5,8.2
	c3.1-1.4,5.9-4,6.6-7.5c1.6-7.1,0-14.4,0.1-21.5c1.6-3.4,5.1-5.2,7.7-7.7c0.3,0.5,0.9,1.5,1.2,2c7.7-4.1,17.8-5,25.5-0.2
	c-4.4,2.1-8.2,5.2-12.1,8.2c1.4,4.8,2.6,10.3,0.1,14.9c-1,2.1-3.1,3.2-5,4.5c-0.3,6.6,1.2,14.5-3.8,19.8c-5.9,7.2-12,14.2-18.3,21
	c-2.9-1.7-5.2-4.1-7.9-6.1c-3.4,4.3-9.4,5.3-14.2,2.8c0.5,1.2,0.9,2.4,1.3,3.6c-8.9-1.1-16.4-7.1-20-15.1c-1.9,0.2-4.1,1.9-5.9,0.6
	c-12.6-8.7-24.2-18.9-37.8-26c13.9-12.4,16.5-32.4,16.7-50c12.7,7.7,23.5,18.5,37.2,24.6c6.9,3.1,14.8,4.6,22.2,2.7
	c-1.2-3.8-2.5-7.5-3.7-11.2c3.6-5.1,6.5-10.9,11.5-14.8c3.2-2.6,7-4.1,11-5.2C730,406.9,733,399.3,739.5,395.5z"/>
<path class="st2" d="M735.4,449.4c3.5,0.8,7,0.8,10.4-0.2c-0.5,2.5-4,3-5.8,4.6C738.2,452.7,736.2,451.6,735.4,449.4z"/>
<path class="st0" d="M657.9,460.8c8.1,5.2,14.5,12.5,21.9,18.5c6.4,5.1,15,6.5,23,5.2c-1.7,2.3-3.8,4.5-6.8,4.9
	c-8,0.8-16.5-2.3-21.9-8.4C668.3,474.5,663.9,467,657.9,460.8z"/>
<path class="st0" d="M681.9,462c9.4-0.6,21,0.2,26.7,8.9C700,466.9,689.4,468.3,681.9,462z"/>
<path class="st1" d="M552.7,554.8c15.6-2.7,31.3-9.6,47.3-5.9c10,2,16.8,11.1,19.3,20.6c4,14.6,2.2,30.1-0.3,44.8
	c-4.8,23.2-12.7,45.6-18.6,68.5c1.5-1,2.9-2.1,4.4-3.1c7.5,4.8,16.5,6.3,25.2,7.2c9.3,0.9,19.1,0.6,27.8-3.1
	c7.3-2.9,9.8-11.7,16.9-14.9c5.9-2.4,12,0.4,18,0.2c6.3-1.5,12-5.6,18.8-5.1c2-2.6,4.6-4.8,7.9-5.4c8.9-1.5,19.5,3.7,21.1,13.2
	c-2.3,0-4.8-0.4-6.9,0.9c-4,1.8-6.6,5.9-10.9,6.9c-2.5,0.7-4.9-0.8-7.2-1.4c1.3,1.8,3,4,5.5,3.8c3.6,0.4,6.4-2,9-4
	c-0.4,3.7-1.3,8.5-5.4,9.7c-6.9,1.9-14-2.5-16.7-8.9c-3.5-0.4-7.1,0.2-10.1,2.2c-3.2,2.5-8.1,0.5-11,3.7c3.3,0.5,6.3-1,9.2-2.3
	c4.5-0.5,9.4-1.2,13.5,1c5.7,3.1,9.7,9.4,9.4,16c-1.7-0.6-3.4-1.4-5.1-1.9c-4.5-0.4-7.2,5.1-11.7,4.4c-3.7-0.6-4.6-4.7-6.2-7.4
	c-0.1,2.4-0.9,5.5,1.3,7.3c4,3.1,9.8,4,14.4,1.5c-1.6,7.8-12.6,8.6-17.6,3.6c-2.3,2.4-4.3,5.2-7,7.1c-5,2-9.5,5.2-14,8.1
	c-4.3,2.9-8.7,5.7-12.2,9.5c-2.5-1.6-4.8-3.5-7.3-5.2c-2.8-0.8-5.7-0.6-8.5-0.6c-18.1,0.8-36.1,3.3-54.1,5.5c-4.7,0.6-10-0.5-13-4.3
	c-4-4.8-4.1-11.5-4.5-17.4c-3.3,5.5-3.6,12.1-1.5,18c-6.8,1.8-14.2-0.5-19.4-5.2c-3.7-3.4-4.1-8.8-3.9-13.5
	c0.6-13.2,6.5-25.7,6.2-39c-0.5-8-3.3-16.7-10.6-20.9c6.5-1.5,13.3-4,17.2-9.8c-7.5,5.4-17.1,6.9-26,5.1c-10.1-2.1-20-5.4-30-8.1
	c1.5-12.7,4.1-25.5,10.2-36.8c3-5.5,7.2-11.1,13.6-12.7c5.3-1.3,10.4,1.5,14.7,4.3c-5.4-6.3-7.1-14.9-6.4-22.9
	c0.4-4.2,2.5-8.3,6-10.9C546,555.2,549.6,555.5,552.7,554.8z"/>
<path class="st0" d="M567,633.2c5.8,11,9.1,24.2,5.8,36.4c-2.1,8.2-4.2,16.4-6.6,24.5c-1.5,4.8-3,9.7-5.5,14c-2-0.7-4.2-1.5-4.6-3.8
	c-1.4-5.8-1.2-12.1,0.5-17.9c3.1-6.7,8.6-12.3,10.5-19.5C567.9,655.7,566.8,644.4,567,633.2z"/>
<path class="st0" d="M660.7,692.7c2.9-5.8,5.4-12.7,11.4-16.1c8.4,0.5,16.7,0.7,25.1,0.8C684.4,680.3,669.7,682.1,660.7,692.7z"/>
<path class="st4" d="M731.3,684c1.8-0.3,1.9,1.9,2.3,3.1c0.6,4,0.2,8.1-0.7,12.1c-2-3.3-2.9-7.1-5.4-10.1
	C728.8,687.5,729.9,685.7,731.3,684z"/>
<path class="st0" d="M588.5,703.2c3.5-0.5,7.3-1,10.8,0.4c4.3,1.5,7.1,5.5,9.2,9.3c7.2-1.2,14.3-2.8,21.6-3.6
	c4.7-0.5,9.2,0.9,13.2,3.3c-13.8-1-27.5,3.2-41.3,1.2C600.7,707.3,593.8,705.4,588.5,703.2z"/>
<path class="st0" d="M376.5,763.5c4.4-12.3,14.2-21.3,20.2-32.6c-2,7.5-4.2,15.1-8,22c-1.4,2.8-4.2,4.4-6.1,6.9
	c-3,5.7-3.3,12.4-5.6,18.4c-2.1,4.9-7.6,7.4-12.8,6.7c-2.2-1.3-3.3-4.4-6.3-4.3c0-0.6-0.1-1.7-0.1-2.2c0.8,0.6,1.6,1.2,2.5,1.8
	c3-1.5,6.4-2.3,9-4.6C372.9,772.3,375.1,767.9,376.5,763.5z"/>
</svg>
