<?xml version="1.0" encoding="utf-8"?>
<!-- Generator: Adobe Illustrator 21.1.0, SVG Export Plug-In . SVG Version: 6.00 Build 0)  -->
<svg version="1.1" id="Layer_1" xmlns="http://www.w3.org/2000/svg" xmlns:xlink="http://www.w3.org/1999/xlink" x="0px" y="0px"
	 viewBox="0 0 1024 1024" style="enable-background:new 0 0 1024 1024;" xml:space="preserve">
<style type="text/css">
	.st0{fill:#FFFFFF;}
</style>
<path d="M556.7,117.4c0.2-1.3,0.6-2.6,1-3.8c0.5,19.6-7.7,38.9-3.2,58.4c5.5-13.1,3.5-27.8,7.2-41.3c1.1-4.7,2.9-9.3,6-13
	c-0.1,22.8-7.5,44.8-8.7,67.5c8.4-7,13.9-16.9,23.1-23c1.9-1.4,4.3-2.2,5.7-4.2c3.1-4.2,6-8.6,9.3-12.8c1.5-2.2,4.8-1.5,6.3-3.7
	c5.8-7.2,11.5-14.6,17-22.1c1.2,5.4-2.8,9.5-6.1,13.1c-5.2,5.8-7.6,13.5-12.3,19.6c-5.7,7.7-11.4,15.5-16.4,23.6
	c-2.8,4.5-5.5,9.2-6.8,14.3c7.9-5.4,14.8-12.1,22.2-18c6.6-5.4,13.2-10.9,20.1-15.9c5.6-3.8,11.9-7.6,19-7.3
	c-6.6,9.8-17.1,15.9-24.6,24.9c6.8-3.2,11.1-9.9,17.8-13.4c2.4-1.4,5.2-2.1,7.9-2.6c-11.2,12.9-24.3,24-36.1,36.4
	c-6.9,7.2-13.6,14.7-19.7,22.6c4-0.7,7.7,0.9,10,4.2c13.1-12.2,23.8-26.7,35-40.5c3.9-4.5,8.2-9.2,14-11.3c0.7,1.5,1.9,3,1.5,4.7
	c-0.7,1.7-2,3-3,4.5c9.1-3.5,13.7-15.2,24.5-14.7c-12.1,16.4-28.5,29.4-39.6,46.6c14.4-9,29.2-17.5,43.7-26.4c-4.1,0.1-8,1.4-12,2
	c13.4-6,27.7-10.2,40.9-16.8c10.8-1.7,21.8-1.8,32.7-2.4c2.8,2.6,5.1,5.7,8.1,8.1c-1.9,1.6-3.9,2.9-5.9,4.3
	c3.7,0.3,7.1-3.3,10.8-1.2c-0.7,1.8-1.3,4-3.2,4.9c-4.7,2.5-10.1,3.6-14.9,6c6.9-0.4,12.7-4.3,18.9-7c4-1.8,8.7-2.1,12.5,0.3
	c-12,7.9-25.6,12.6-38.5,18.8c17.5-3.4,34.1-10.1,51.1-15c3.6-1,7.3-2,11-2c-5.8,4.4-12.8,6.7-19.4,9.7c-9.2,3.6-18,8.2-27.1,11.9
	c-3.3,1.4-6.8,2.7-10,4.4c17.4-1.4,33.4-9.6,50.8-10.5c0.8,1.5,1.6,3,2.4,4.5c7.5-1.5,14.9-3.4,22.4-4.5c4.5-0.6,9.5-1.3,13.4,1.7
	c-13.6,4.7-27.9,6.7-41.8,10.3c19.6,3.8,39.5-0.5,59.2,1.6c6.9,0.9,14.2,2.2,19.5,7.1c-23.2,6.1-47.3,7.1-71.1,9.6
	c-4,0.5-8.1,0.7-12.1,1.8c18.4,7.3,38.8,4.6,57.6,10.1c4.2,1.3,8.5,2.9,11.7,6c-4.6,1.1-9.2-0.1-13.9-0.2c5,2.5,11.9,2,15.2,7.1
	c-22.4-0.8-44.4-7.6-66.9-6.6c-5.4,0.5-10.8,0.8-16.2,0.8c12-1.6,24-2.3,35.9-4.3c-6.9-4-15.2-4.6-23-4.5c-2.1,0.6-2.6-1.2-2.2-2.7
	c-5.3-0.3-10.5-1.2-15.9-0.8c4.4,0.9,8.9,1.2,13.4,1.7c0.5,0.7,1,1.4,1.5,2.1c-10.4,0.3-20.7,0-31-0.9c4.5,1.6,9.4,1.9,13.7,4
	c-3.7,0.7-7.3-0.6-10.9-0.6c-0.4,2.1-0.7,4.3-1,6.4c14.3,0.8,28.9,2.2,42.2,7.9c-16.6-3.4-33.7-3.9-50.6-2.8
	c-27.2,1.9-54.4,4.7-81.7,3.2c0-1.4-0.1-2.9-0.1-4.3c19.2,0.2,37.5-6.6,55.4-12.7c-3.4-3-3.2-7.9-5.5-11.6c-5,0.3-10,0.7-14.9,1.4
	c-6.3,1.1-11,7.5-17.8,6.3c-3.9-0.8-7.4,1.7-10.9,2.9c-4.7,2.3-9.9,3.5-15.1,3.7c-2.7,5.3-5.8,10.5-7.2,16.3c6.3-1.4,5.9-10,12-11.9
	c-0.4,4.9-4.3,8.1-6.5,12.1c2.4-0.7,5.4-1.1,6.7,1.6c0.7,2.8-2.5,4.4-3.8,6.5c3.1-1,5.6-4.3,9.1-3.4c1.4,0.5,1.5,2.1,0.8,3.2
	c-1.4,2-3,3.7-4.2,5.9c5.5-2.2,10.6-5.9,16.8-6.2c-4.9,5.8-12.7,7.9-17.9,13.3c14.7-1.7,29.4-3.5,44-5.9c-7,1.3-13.9,2.8-20.6,5
	c-4.4,4.7-8.3,9.9-12.6,14.6c5.3-0.4,9.9-4,15.4-3c-3.3,3.7-7.5,6.5-11.4,9.7c10.7,7.8,24.5,8.1,36.8,11.6c5.2,1.5,10.1,4,13.8,8.1
	c-3,0.3-5.7,1.4-7.6,3.9c-13.6-4.8-27.1-9.9-41.2-13.1c5.2,3.5,10.2,7.3,15.6,10.4c7.6,2.5,15.8,3,23.3,5.9c4.1,1.6,5.6,6,5.7,10.1
	c12.1,9.5,24.2,19.1,35.4,29.7c2,1.4,1.5,3.9,1.7,6c1.8-1.5,3.5-3,5.2-4.6c6.2,12.1,16.9,21,27.1,29.6c5.3,4.5,11,8.3,16.2,12.8
	c-3.1-1-6-2.5-9-3.5c5.9,6.8,10.4,14.6,16.3,21.3c-9-6.2-17.6-13.1-26.7-19.2c2.8,5.1,8.1,7.8,12.2,11.6
	c9.5,8.3,19.4,16.3,27.2,26.2c-4.7,1.8-7.3-4.4-12-3.7c0.9,1.6,1.9,3,2.9,4.5c-13.1-5.6-24.1-15-36.8-21.5
	c10.8,11,23.7,19.9,33.9,31.5c-5.6-0.9-9.3-5.7-14.6-7.4c0.7,2.8,3.5,4,5.7,5.6c-0.3,1-0.6,2.1-0.9,3.1
	c9.4,11.1,17.4,23.2,26.3,34.6c-14.8-9.7-29.5-19.6-44.9-28.3c11,14.2,25.7,25.6,34.4,41.6c-6.6-3.6-12.1-8.9-16.9-14.6
	c-2.9-3.3-5.7-6.7-9.1-9.5c2.8,7.2,10.2,11.4,12.9,18.6c1,2.3,1,4.9,1.2,7.4c-11.5-6.3-16.5-19.3-24.4-29.1
	c-3.9-4.9-8.4-9.7-14.3-12.1c0.4,3.5,3.6,5.1,6.1,7c-0.5,1.1-0.8,2.4-1.7,3.2c-2,0.4-4,0.1-6,0.2c0,2.1-0.5,4.6,1.3,6.2
	c1.5,2,4.1,1.9,6.2,1.5c2.6,3,5.5,5.8,8.6,8.2c1.7-0.9,3.3-1.8,5-2.7c12.3,14.1,20.5,31.2,26.8,48.6c3.2,9.3,6.1,19.2,4.5,29.2
	c-1.5-0.9-3-1.9-4.4-2.8c4.8,16.3,7.6,33,11.7,49.5c0.8,3.5,2,6.9,2.6,10.5c-3.1-2-3.1-6.2-5.8-8.5c2.2,13.1,5.9,26.1,6.4,39.5
	c0.1,2-0.2,4-0.5,5.9c-2.8-4.3-3.2-9.6-4.7-14.4c-3.1,9.5,1.3,19.5-1.2,29c-1.1-0.9-2.1-1.9-3.1-2.9c-0.9,3.9,1,8.9-2.9,11.6
	c-1.6-2.3-2.5-4.9-3.5-7.4c-0.7,5.9,2.4,11.7,0.8,17.6c-3.3-6.3-5.4-13.1-7.7-19.8c-1.6,11-0.4,22.2,0.5,33.2
	c-5.2-7.9-3.3-18.3-8.6-26.1c-0.8,13.9,4.3,27.5,2.6,41.4c-1.1-1.8-2.2-3.6-3.4-5.2c1.2,11.1-2,22.1-1.2,33.2
	c-1.9-5.3-3.7-10.7-4.4-16.3c-4.6,9.4-2,20.3-5.2,30.1c-5.8-16.1,2.4-32.8,0.6-49.3c-9.9,32.1-16.2,65.3-21.3,98.5
	c3.5-34.2,8.1-68.3,11.5-102.5c-5.4,14.4-8.1,29.6-11.7,44.5c-4.5,24.8-5.7,50.1-10,75c-1.3,6.6-2.4,13.4-4.7,19.8
	c-1.2-30,3.9-59.7,9.3-89.1c3-13.8,3.9-28,7.6-41.6c2-7.1,5.6-14.1,12.1-18c1,2.7,1.5,5.6,2.2,8.5c4.3-11.2,1.6-23.6,5-35
	c0.7-3.1,3.7-5.2,3.5-8.5c0.2-5.1,0.6-10.2,1-15.3c1-8-4.1-15.7-2.1-23.7c2.6-6.3-0.3-12.9-2.2-19c-3.5-8.8-3.2-18.7-1.1-27.8
	c3.1,2.9,4.5,7.1,5.5,11.1c1.5,6.4,2.6,12.9,5.1,19.1c5-3.3,3.7-9.7,3.8-14.8c-0.2-2.8,2.3-5.4,1-8.2c-5.9-17.2-14.4-33.3-22.4-49.6
	c-3.1-6.6-7.6-13.1-7.8-20.6c4.1,1.9,7,5.4,9.2,9.2c3.7,6.7,7,13.7,11.8,19.7c-0.7-7.6-5.3-14.6-3.8-22.4c-2.8-5.2-6.9-9.6-9.3-15
	c-1.3-2.8-0.7-6,0.1-8.9c5.9,3.6,7.1,10.9,11.1,16.2c-1.4-7.9-4.9-16-11.5-21c-3.6-2.9-8.2-4.2-12.7-5c-1.2,26,3.9,52.1,1,78
	c-2.1-8.2-1.4-16.8-2.9-25c-0.8,1.5-1.5,3-2.1,4.6c-1.4-4.7,0.1-9.4,0.5-14c-5.3,5.8-6.8,14.4-6.2,22c1.4,3.3-1.5,5.9-2.2,9
	c-2,5.5-1.8,11.9-5.2,16.8c-1.2,1.9-3.3,2.7-5.4,2.8c-0.2-2.3-0.1-4.6-0.3-6.9c-2.4,4-0.9,8.8-2.3,13c-0.6,2.1-2.9,2.3-4.5,3.3
	c0.4-18.7,0-37.4-0.4-56.1c1.4-1.1,2.7-2.1,4.1-3.2c-0.4-7.2-3.4-14-5.8-20.7c-3.9-9.8-7.8-19.5-11.8-29.3
	c-1.9-4.8-6.4-7.9-11.4-8.7c5.2,19.6,15.9,37.6,18,58c-1.6,0.4-3.1,0.9-4.7,1.3c0.2,4.3,1.2,8.8-0.1,13c-0.5,1.5-2.4,1.8-3.6,2.6
	c-0.3,4.6,1.1,9,1.1,13.6c-6.7-15.5-8.9-32.5-13.6-48.6c-2.4,18.5,7,36.8,2,55.2c-0.2,1.8-2,2.7-3.2,4c-1.9,1.6-2.5,4.1-3.5,6.3
	c-0.6-1.8-0.7-3.8-2.1-5.2c-2.2-1.9-2.6-4.9-3.8-7.4c-4.3,3.6-0.3,9.8-3,14.2c-1.3-0.5-2.6-1.1-3.9-1.6c-2.6,13.7-5.3,27.4-6.8,41.3
	c4.8,1.7,10.3,0.9,14.7,3.7c-6.3,15.5-22.5,25.8-24.7,43.2c5.4-0.3,7.8-5.5,10.3-9.3c1.8-3,4.8-4.8,8.1-5.6c1.7-0.2,2.3-1.9,3-3.2
	c5.8-11,8.4-23.3,14-34.4c1.8,0,3.5-0.1,5.3-0.1c4.1-13,2.4-27.7,9.4-39.7c3.4,5,3.2,11.3,3.2,17.1c0.3,14.8-4,29.3-10.1,42.7
	c-2-4.2-1.1-8.8-0.2-13.1c-7.3,9.8-8.8,22.4-15.5,32.5c-5.8,5.6-12.1,11.6-13.7,19.9c2.1,0.4,4.2,0.7,6.3,1c4.7-8,9.5-16,14.7-23.6
	c1.7-2.5,3.6-4.9,5.8-6.9c2.9,12.1-1.7,24.2-6.5,35.2c-4,10.1-8.5,20.3-8.9,31.3c-0.4,6.8-1.1,13.6-2.1,20.3c12.1-8,9.5-27,23-33.8
	c6.1-17,11.7-34.2,17.8-51.2c4.7-12.7,8.6-25.8,15.4-37.6c3-5.2,6.3-10.5,11.8-13.3c3.8,9.7,8.3,20.1,6.5,30.8
	c-0.4,3.8-3.9,5.6-6.3,7.9c-1.5,17-6.7,33.6-6.2,50.7c0.2,2.2-1.6,3.7-3,5.1c-3.2-8.6-1.2-17.8-0.8-26.6c-7.1,16.1-8.4,34-15.4,50.2
	c-0.8,1.8-1.6,3.6-2.8,5.1c-2.5,1.1-5.4,1-8.1,1.6c-2,3.7-3,8.9-7.4,10.3c-0.2-1.7-0.4-3.4-0.6-5.1c-6,5.5-7.3,14-11.1,20.9
	c6.1-3.7,9.5-11.2,17.1-12.6c0.5,6.5-3.9,11.5-7.2,16.6c-2.7,18.2-13.8,33.3-21,49.8c1.7,4.9,1.6,10,0.1,15c2.4-1.9,4.3-4.3,5.7-7
	c4.1-7.7,6.3-16.2,10-24.1c5.7-12.5,11.8-24.9,20.1-35.9c4.3-5.4,5.1-12.4,7-18.8c2.9-9.9,4.5-21.2,12.7-28.3
	c2.6-1.8,2.4-5.4,4.3-7.7c1-1.4,2.8-1.8,4.2-2.5c1.7,8.2-2.7,15.9-2.9,24c1.7,0.2,3.4,0.4,5.1,0.5c-5.6,14.2-11.9,28.2-16.2,42.9
	c3-1.5,5.7-3.6,8.8-4.9c-15.5,23.2-29.7,47.8-37.2,74.9c-2.4,8.2-3.8,16.8-5.1,25.2c-1.5-9.3,1.3-18.6,1.6-27.9
	c-2.8,9.4-4.8,19-7.6,28.5c2.9-16.8,6.1-33.5,8.8-50.3c-5.1,6.6-9.8,13.6-15.9,19.4c0.4,2.1,1.8,4.3,0.5,6.3
	c-9.2,21.8-18.1,43.7-28,65.2c-1.8,4.4-5.7,7.2-9.9,9.2c0.1-8.4,2.4-16.6,3.9-24.8c-1.4-0.4-2.8-0.8-4.2-1.1c1.4-4.3,2.7-8.7,4.1-13
	c-1.2-0.7-3.6-0.3-3.7-2c0.7-11.9,7.3-22.4,8.9-34.1c-5,7-8.9,14.9-15,21.1c-0.5-1.3-1-2.7-1.5-4c-1.3,1.5-2.8,3-4.1,4.6
	c-3.8,10.3-0.6,23.4-9,31.8c-1.1-9.7,2-19.4,0.7-29.1c-4.4,8.6-2,19.5-8,27.4c-0.9-14.6,5.3-28.8,3.3-43.4
	c-8.6,15.2-11.5,33.9-24.4,46.4c0.8-8.8,6.5-16.1,7.4-24.8c-9.1,10.6-17.1,22-26.7,32.1c-0.5-1.3-1-2.5-1.5-3.8
	c-1.5,1.6-3.3,2.7-5.3,3.5c-0.3-6,0.2-11.9,0-17.8c-6.4,7.5-6.2,19-14.5,25c7.5-25.3,17.4-49.9,26.8-74.5
	c-10.7,17.2-20.7,34.9-30.8,52.5c-1.9,0.5-4.2,0.6-5.5,2.3c-1.8,2.1-3.8,4.2-6.7,4.5c5.3-16.2,14.1-30.9,21-46.3
	c2.7-6.2,5.5-12.5,6.7-19.3c-4.8,3.6-7.1,9.4-12,12.9c7.5-14,19.6-25.6,24.1-41.1c-7.7,8.9-14.7,18.3-21.5,28c-3.1,4.4-6,9-7.7,14.2
	c-6.4,13.8-14.8,26.8-19.7,41.2c-1.3,5.6-1.5,11.4-3.2,16.9c-0.6,2.1-2.3,3.6-4,4.8c-2.3-1.7-1.4-5.1-1.8-7.6
	c-0.2-17.8,12.9-31.7,16.5-48.5c-9.5,8.1-14.5,19.7-20.9,30.1c-1.9,3.1-3.8,6.1-6.5,8.6c0.3-5.5,4.9-9.1,6.1-14.3
	c-4.6,2.3-8.7,5.4-13.1,8c6.5-19.2,22.2-33.2,31.3-50.9c-14.3,12.2-26.9,26.1-39.5,40c-8.9,9.7-16.8,20.7-27.5,28.5
	c0.5-1.8,1-3.7,1.3-5.6c-1,0-3.1-0.1-4.1-0.1c1-4.2,1.7-8.4,2.2-12.7c-1.3-0.2-2.5-0.3-3.8-0.5c-6.8,6.2-8.1,16.7-16,21.8
	c12.9-21.6,25.1-43.6,36.7-65.9c-11.5,10.9-18.6,25.3-26.3,38.9c-5.1,8.7-10.1,17.6-16.5,25.5c-2.2,2.5-4.5,5.8-8.2,5.8
	c-0.3-1.2-0.6-2.3-0.8-3.5c1,0.7,2,1.4,3,2.2c10.5-15.7,20.6-31.7,30.3-47.8c-4,3.9-7.2,8.5-10.7,12.8c-6.2,7.9-12.4,15.7-18.5,23.6
	c-1.6,1.7-3.8-0.3-5.2-1.2c2.2-0.7,4.7-1,6.5-2.6c4.9-4.4,7.4-10.6,10.3-16.4c-9.7,6.8-16.6,17.8-28.4,21.3
	c2.2-10.5,5.8-20.7,8.6-31.1c0.2-4.3,0.2-8.6,1.5-12.7c3-9.3,7.1-18.2,9.7-27.7c-10.8,12.5-18.5,27.3-27.4,41.1
	c-4.7,7.1-9.9,14.2-16.8,19.2c5.7-10.5,12-20.7,17.4-31.3c-9,10.6-17.1,22-25.7,32.9c-2.7,3.3-4.9,8.3-9.9,7.8
	c-1.3,1.8-2.6,3.5-4.1,5.1c5.5-15.6,13.3-30.3,21-45c8.8-16.5,18.4-32.5,27.7-48.7c-4.9,4.3-9,9.3-13.3,14.2
	c-6.2,7.2-11.4,15.4-18.9,21.3c22.3-30.7,45.7-60.7,67.3-92c6.1-9.7,11.6-19.7,17.2-29.7c1.8-3.5,4-6.9,5.1-10.8
	c0.7-4.6,0-9.2-0.2-13.8c-0.4-5.4,1.5-10.6,1.8-15.9c1.2-14.2,0.1-28.5-2.2-42.5c-7.7,23.1-12.2,47.2-14,71.5
	c-0.7,7.7,0.1,16.1-4.4,22.8c-2.5-6.6-1.5-13.8-1-20.7c1.9-13.5,4.6-27,4.9-40.6c-5.2,10.4-4.7,22.4-9.3,33
	c-0.3-22.5,9.7-43.7,9.4-66.1c-12.5,30.4-19.6,62.8-23.8,95.3c-1,6.9-1.3,13.9-2.5,20.7c-2.4-17.2,3.6-34.1,2.7-51.2
	c-1.9,2.9-3.2,6.2-4.9,9.2c5.8-25,12.3-50.1,12.9-75.9c-10.6,19.2-12.9,41.5-19.2,62.2c-2.3,7-4.1,14.2-7.6,20.8
	c1.1-8,3.1-15.8,4.7-23.7c1.3-4.8,2-9.8,4.1-14.4c-0.6,7.5-4.2,14.7-3.7,22.4c5.4-22.4,10.3-45,15.3-67.5
	c4.5-22.1,9.7-44.1,12.4-66.5c-2.6,6.6-3,14.1-6.8,20.2c-1.1,1.7-1.3,3.7-1.6,5.6c-1.8,10-3.5,20.1-5,30.2c-1.3,8.2-3,16.6-6.6,24.2
	c-1.5,2.4-0.3,5.1-0.1,7.6c-2.6,0.7-5.6,1.7-6.5,4.6c-1.8,5.2-0.9,10.9-1.9,16.3c-2.3,2.4-5.9,2.7-9,3.6c-1.8,7.7-1,17.2-7.9,22.5
	c-1.6-6.8-3.3-13.5-5.5-20.1c-4,3.3-5.3,8.6-5.4,13.6c-0.1,7.1,0.7,14.3-1,21.3c-2.3-3.7-3.5-8-5.3-11.9c-1.4,4.2-0.3,8.8-1.7,13
	c-2,2.1-3-2-4.5-3c0.3,5.5-0.8,10.9-1,16.3c-1.6,0.4-3.8,0-4.6,1.8c-0.8,1.1,0.2,2.5,0.3,3.7c5.8-3.6,10.3-8.8,14.6-13.9
	c6.7-8.5,14-17,23.6-22.4c-10.5,20.2-29,34.8-38.9,55.4c8.4-7.6,16.2-16,23.9-24.4c2.2-0.6,4.9-0.7,6.4-2.6c3.4-3.9,5.4-9.7,11-10.9
	c-6.1,15.7-21,25-32.4,36.5c-7.9,7.1-13,16.5-18.9,25.2c-7.2,11-14.7,21.8-22.5,32.5c-1.6,2.2-3.6,4.3-4.2,7.1
	c-0.2,1.4-1.3,2.4-2.2,3.4c-4.8,4.8-7.5,11.4-12.9,15.6c8.8-15.4,19.9-29.3,28.8-44.6c-0.3-0.9-1-2.8-1.4-3.7
	c-17.4,17.9-32.7,38.4-41.7,61.8c3.1-3.3,5.1-7.4,8.1-10.8c0.6,7.5-4.5,13.8-4.8,21.1c10.5-12,20.2-24.8,30.2-37.2
	c11.2-14.2,22.3-28.5,33.2-42.9c1.6-1.5,0.5-4.2,2.4-5.4c9.9-8.8,20.5-16.8,31.6-24.1c-0.6,1.8-1.4,3.6-2.3,5.4
	c1.6,0.2,3.2,0.3,4.9,0.5c-10.8,14.5-22.4,28.4-33.8,42.5c-14.8,17.9-29.4,36-44.4,53.7c10.7-15.5,22.1-30.5,33.6-45.5
	c2.6-3.6,5.6-7,7.8-10.8c-10.3,11-19.1,23.3-28.4,35.2c-15.3,20.1-30.3,40.4-45.2,60.8c-4.2,6.8-3.3,17.8-12.1,20.8
	c-2.3-12.8,3.5-24.9,8.7-36.2c2.2-5.2,4.8-10.2,6.8-15.4c-9.7,12.1-12.6,28.7-24.3,39.3c4.9-19.8,16.1-37,25.5-54.9
	c4-7.9,8.4-15.6,11.5-23.9c-5,3.8-8,9.4-10,15.2c-9.8,7.7-15.7,18.9-21.4,29.7c-4.8,8.2-9.7,16.9-17.7,22.3c0.4-2.4,1.4-4.6,2.2-6.8
	c-1.9-1.1-3.8-2.2-5.7-3.4c5-7.8,8.4-16.3,13-24.3c6.1-11.8,13.6-22.9,19.3-34.9c-15.6,15.1-24,36.3-41,50.2
	c11.1-16.5,20.5-34.2,28.5-52.5c-4.8,4.2-9.3,8.8-13.6,13.4c-2.8,2.8-6.1,5.2-9.8,6.6c0.4-3.3,3.1-4.6,6-5.2
	c7.1-9.4,16.6-17.2,21.8-28c-10.1,8.1-15.8,21.2-28,26.8c11-13.1,22.3-25.9,32.6-39.6c2.6-3.4,5.1-6.9,6.9-10.8
	c-8.8,2.3-15.7,8.5-22.4,14.3c-3.8,3.2-6.6,7.3-10,11c-1.2,1.5-3.2,1.6-4.9,1.9c12.4-12.1,24.7-25,31.7-41.1
	c-8.1,5-11.6,15.5-21.1,18.5c3.8-4.6,8.9-8.1,11.3-13.8c-5.4,4.1-9.1,10.1-14.9,13.7c0.9-2.5,3.1-4.3,4.8-6.3c0.6-1.4,0.9-2.9,2-4
	c6.1-7,11.7-14.7,15.1-23.4c-1.9,1.4-3.6,3-5.7,4.3c0.7-2.4,3-3.6,4.8-5.1c-8.4-9-19.8-14.9-27-25.1c4.5-1.1,7.5,2.6,10.9,4.7
	c-0.8-1.4-1.8-2.7-2.7-4.1c4.6,1,8.4,4.1,11,7.9c2.8,3.9,6.4,8,11.7,8c-3.7-7.5-12.5-10.8-15.9-18.6c5.5-0.6,11.1,0.2,16.1,2.5
	c7.3-0.7,13.5,4,20.5,4.8c-0.2-2.4-0.7-4.7-1.2-7c2.5,0,5.2,0.4,7.5-0.8c5.2-2.7,8.3-8,13-11.3c1.5,7-1,14.3,1.3,21.2
	c4.7-12.6,8.9-25.4,13-38.2c-9.3-4.8-18.7-9.3-28.4-13.3c-6.8-2.6-13.6-5.3-20.9-6c10.6,6.6,22.2,11.6,32,19.3
	c-8.2-1.1-14.7-6.6-22.5-8.9c2,3.8,5.7,6.1,8.7,9c-2.8-1.4-4.7-4-7.4-5.4c-11.9-7.2-24-14.2-36.6-20.1c5.9,5.8,12.5,10.9,18.6,16.6
	c-7.2-4.1-14.1-8.7-21.6-12.3c8,7.9,16.9,14.7,25.1,22.3c3.9,3.7,7.9,7.6,9.7,12.8c-3.8-0.9-7.2-2.8-10.7-4.6
	c0.9,1.4,1.7,2.9,2.5,4.5c-11.3-5.6-20-14.9-30.7-21.3c1,2.2,2.2,4.2,3.5,6.3c-10.6-7.6-18.2-18.5-24.3-29.8
	c2.3,2.4,4.4,4.9,6.5,7.5c6.9-0.9,12.5,3.7,17.2,8.1c3.8,3.4,7.5,6.8,11.8,9.6c-16.2-16.6-34.8-31.1-55.4-42
	c6.5,2,12.8,4.8,19.1,7.4c0.5-1.6,0.9-3.1,1.4-4.7c-5.2-4.9-11.9-7.7-18.6-9.7c0.4,2.4,2.1,4.3,3.1,6.5c-2.3-2.7-4.4-5.6-7.1-8
	c-0.4-1.7-0.3-3.6-0.6-5.3c1.4-0.3,2.9-0.6,4.3-0.9c-7.3-6.9-15.3-13.4-24.6-17.4c0,4.2,1.2,8.6,4.4,11.6c4.6,4.4,10.1,8,13.2,13.7
	c-3.1,0.4-6.2-0.4-9.2-0.7c1.1,17,19.5,24.9,23.5,40.6c-5.3-5.8-9.4-12.9-16.3-17c-1.4,10.7,2.5,21.5,9.7,29.4
	c6.1,6.6,12.8,12.7,17.7,20.3c1,1.6,1.6,3.4,2.2,5.2c-2.8-0.7-5-2.7-7.6-3.9c2.6,4.5,9,6.7,8.7,12.8c-4-0.2-5.4-4.4-8.3-6.4
	c0.8,4.5,2.4,8.7,3.6,13c2-0.8,4.1-1.5,6.2-2.1c-0.9,5.1-2.3,10.4-1.3,15.6c-1.5-0.4-3-0.9-4.5-1.3c-2.9,6.7-5.2,13.8-9.5,19.7
	c0.7-3.2,2.8-5.9,2.8-9.2c-2.3,3.5-3.6,7.7-5.4,11.5c-3.5,7.5-5.1,15.7-9,23c-0.8,1.9-3.5,1.8-4.2,3.8c-2.2,4.9-6.7,8.5-8.5,13.6
	c2.4-1.9,4.6-4,7.3-5.4c-2.3,5.3-6.4,9.4-9.3,14.3c-0.1,7.9-0.9,15.7-2.8,23.3c3.7,0.4,7.3,1.9,11.1,1.6c-2.1,4.8-6,8.3-8.5,12.9
	c1,2.2,2.3,4.3,3.9,6.2c-2.8,5.9-5.1,12.1-7.8,18.1c4.4-3.9,7-10.4,13.6-11.2c-2.5,7.1-7.4,13-11.2,19.4c-2.1,3.5-3.5,7.5-3.4,11.7
	c6.6-0.2,8.9-8.4,15.3-8.5c-5.4,6.9-13.4,10.9-20.7,15.3c-1.4-1.6-2.8-3.3-4.2-4.9c2-4,4.6-7.7,6.6-11.7
	c-6.6,3.8-8.9,11.9-15.3,16.1c2.7-8.8,9.1-15.8,12.6-24.2c-6.2,3.3-12.3,7-18.1,11.1c-2.5,1.3-2.7,4.5-4.8,6.3
	c2.2-6.7,9.4-10.6,12-17.3c-4.9,2.9-9.3,6.7-13.7,10.3c4-9.2,6.6-19.1,9-28.8c-2.4,2.1-4.1,5.4-7.6,5.8c3.4-7,7.9-13.4,10.5-20.8
	c-3.6,1.5-6.9,3.3-10.3,5.1c0.6-2.8,1.7-5.3,2.9-7.8c0.8,0.2,1.7,0.3,2.5,0.5c5.8-10.1,12.4-19.8,17.4-30.3c-2,1.8-3.8,3.9-5.7,5.8
	c1.6-6.2,5.8-11.1,9.5-16.1c-0.7,0-2.1,0.1-2.9,0.2c3.6-3.7,7.6-7,10.8-11.1c-0.1-5.3,0.8-10.6,0.7-16c-4.5,6.9-7.5,14.6-11.7,21.7
	c0.4-2.6,0.9-5.1,1.2-7.6c-1.8,1.9-2.8,4.8-5.6,5.2c0-2.1,0.2-4.1,0.2-6.2c-1.6,1.5-2.9,3.2-4.2,5c-2.1-0.3-4.3-0.3-6.4-0.2
	c-0.2-8.8-0.7-17.7-1.3-26.5c-1.4,1.7-2.9,3.4-3.3,5.6c-2,8.2,0.2,16.9-1.7,25.2c-1.2-3.5-1.5-7.3-3-10.7c-2.1,2.7-3.5,5.9-5.3,8.8
	c-2.5-8.4-1.5-17.3-3.4-25.8c-2.8,7-3.1,15.5-9.1,20.8c-2-10.8,3.1-21.3,1.7-32c-8.3,8.2-7.5,21.1-14.4,30.2
	c0.7-8.9,4-17.3,4.8-26.1c-2.8,6.2-3.8,13.1-7.3,19c-1.1,2.1-3.1,3.5-5.3,4.5c10.9-25.9,21.7-52,28.3-79.4
	c-5.7,10.8-11.8,21.5-17.8,32.2c-2.4,4.4-6.7,7.3-10,11c-4.9,5.6-9.1,11.8-14.1,17.3c5.2-9.1,12.7-16.8,17.7-26
	c-7.6,4.1-13.5,11.6-22.5,12.8c7.2-5.1,14.5-10.8,18.4-19c-8.2,4-16.2,8.6-25,11.3c10.7-10.5,21.9-20.5,30.8-32.8
	c-1.4,11.9-14.6,15.8-19.7,25.5c7.8-3.1,15.4-6.8,23.2-10.1c-0.5-1.3-1-2.6-1.5-3.9c5-4.5,6.4-11.3,8.9-17.2c1.4-3,3.4-6.5,6.8-7.5
	c0.6,0.8,1.2,1.5,1.8,2.3c1-1.7,1.8-3.8,3.7-4.6c1.8-1,3.7-0.1,5.6,0.2c-0.2,2.9-0.8,5.8-1.2,8.8c2.7-1.5,5.1-3.4,7.2-5.6
	c-3-5.7-6.4-11.1-9-17c8.2,1.1,9.9,10.6,16.3,14.2c7,4.7,14.9,8.1,21.2,13.8c4.8,4.2,6.7,10.7,8.3,16.6c1.9,8.5,3.3,17,6.4,25.2
	c-7.3-2.8-7.5-11.4-11.3-17.1c-0.7,4.2-1.1,8.5-1.5,12.8c-1.6-1.1-3.3-2.1-5.2-2.6c2.4-10.4,2-21.8-3.2-31.3
	c-3.1-6.3-8.7-11.3-15.6-13.2c2.5,9.2,6.8,17.9,8.2,27.4c1.4-0.2,2.9-0.3,4.3-0.4c2.1,8,4.4,15.8,6.1,23.9
	c-6.3-3.3-4.2-11.3-7.4-16.5c-1.8,6.6-2.8,13.5-2.2,20.4c1.2-0.2,2.5-0.5,3.7-0.7c-1.4,8.9-3.1,17.9-3.4,27
	c3.1-6.8,2.8-15.7,9.1-20.7c0.3,5-3.6,9.3-2.7,14.3c2.2-4.7,3.9-9.7,7.6-13.5c0.4,1.5,0.8,3.1,1.2,4.7c2.2-2.2,4.4-4.7,7.6-5.1
	c0.2,1.5,0.4,3,0.6,4.5c1.7-2.6,3.5-5.1,6-6.9c1.3,0.5,2.7,1,4,1.6c3-9.1,8-17.4,14.1-24.8c-2.7-4.1-5.8-8-7.8-12.5
	c-1-1.9,0.2-3.9,0.7-5.7c2.8,3.1,4.2,7.3,7.8,9.6c-0.1-7.6-1.5-17.1-9.4-20.5c0.7,2.4,1.9,4.8,1,7.4c-2.9-1.8-5.2-4.2-7.8-6.3
	c-0.5,1.1-1,2.1-1.5,3.2c-8-8.1-17.8-14-27.2-20.3c-1.4,0.4-2.9,0.8-4.3,1.2c-2.6-9.2-10.1-16.1-18.6-20.1
	c-7.7-3.8-15.8-6.7-23.2-10.9c-2.2,4.8-4.1,9.8-4.7,15.1c1.5,0.4,2.9,0.7,4.4,1.1c-4.5,6.9-12.1,11-16.8,17.8
	c2.2-0.6,4.3-1.3,6.5-1.8c-1.6,2.1-4.2,2.9-6.2,4.4c-4.2,2.9-8.3,6.6-13.6,6.9c5.9-8,13-14.9,18.8-23c-3.4,1.8-5.8,4.8-8.5,7.5
	c1.6-3.3,3.7-6.3,5.6-9.4c-6.9-3.1-7.2-11.4-9.8-17.5c-7.9,4.7-14.7,10.8-21.4,16.9c5.1-6.5,10.4-12.7,15.7-18.9
	c-1.5-1.1-3.6-2.1-3.4-4.3c-0.1-4.2,0.6-8.4,0.6-12.6c-26,7.3-50.6,19.3-73.2,33.9c9.1-10.4,21.8-16.7,34.1-22.5
	c9.1-4.4,18.3-8.7,26.9-14c-0.9-0.8-1.9-1.7-2.9-2.5c2-6.4,4.3-12.7,5.8-19.3c-21.4,1.7-41,11.2-61.7,15.9c20.5-8,41.2-15.5,61.9-23
	c-2.3-2.9-3.4-6.8-2.2-10.4c1.2-3.3,2.6-6.4,3.5-9.8c-23,2.7-46,8.4-69.4,6.6c24.1-5.6,49-6.8,72.8-13.6c-0.9-4.6,3.1-7.5,5.2-11.1
	c1.1-1.6-0.6-2.8-1.6-3.8c-2.3-2.1-5.1-3.5-7.5-5.5c-4.2-4.6-6.6-10.5-11.3-14.6c-1.2-1.2-2.8-2-3.2-3.7c-2.2-7-3.4-14.5-1.8-21.7
	c1.2-5.9,4.2-11.4,8.3-15.8c2.1-2.4,6.1-1.4,8.2-3.8c10.5-10.7,22.8-19.5,35.2-27.9c16.5-11.3,34.2-20.9,50.3-32.7
	c12.1-8.8,24-18.3,33.1-30.2c-2.3-0.1-4.6-0.3-6.8-0.5c0.4-2.4,1.6-4.4,2.9-6.4c-1.8-0.1-3.5-0.1-5.3-0.2c3.2-3.1,6.2-6.5,9.1-9.9
	c-2.1-1.1-5-2.2-4.9-5c-0.1-5.7,5.3-9.9,10.7-9.9c-0.6-1.7-1.4-3.4-2.1-5.1c4.4-0.8,8.8-1.4,13.2-2.1c-5.8-1.6-12.2-2.6-16.7-6.9
	c6.6,1.3,13.5,6.1,20.2,2.2c-5.6-3.8-11.7-6.8-16.8-11.3c8.2,1.7,15,9.4,24,6.9c-4.3-2.8-9.5-3.4-14.3-5.1c-2.1-0.7-3.2-2.7-4.4-4.3
	c5.9,0.3,12,1.1,17.6-1.5c-3.1-1.6-7.9-2.1-8.1-6.4c5,1,10.6,4.1,15.5,0.8c-4.2-2.1-10.1-2.9-11.8-8c6,2,12.1,5.3,18.6,3.6
	c-6.6-2-14.4-3-18.7-9.1c6.3,0.9,14.1,2.6,18.9-2.8c-7.9-0.9-16.8-1.9-22.5-8c9.6,4.1,20.4,6.6,30.7,4.1c3.6-0.8,6.6-3.2,8.2-6.5
	c-9.3,0.9-18.6,0.7-27.8-0.2c1.9-2.5,3.9-4.8,5.9-7.1c-0.7-0.7-1.4-1.4-2.1-2.1c12.1,2.2,24.8,2.7,36.7-0.9
	c-8.2-4.4-18.8-2.5-25.9-9.3c4.8-2.4,10.3-2.4,15.5-1.5c5.8,1,11.6,1.8,17.4,1.9c2.5,0,5.2-0.2,7.4-1.7c4.9-3.1,9.5-6.7,14.1-10.2
	c-18.8,0.5-38.1,0.1-56-6.3c0-1.4,0-2.8,0-4.2c-3.5-1.5-7.1-2.8-10.4-4.7c8.6-1.6,17,1.8,24.8,4.8c7.5,2.7,15.4,5.3,23.5,5.4
	c-4.1-3.5-8.3-6.8-13-9.2c7.8-2.2,14.8,3.5,22.7,2.8c-5.9-5.5-12.6-10-19-14.9c7.6,0.4,14.5,3.7,21.3,6.8c6.5,3.3,13.3,6.8,20.7,6.6
	c3.7,0.1,7.1-1.3,10.2-3.2c-5.8-2.1-11.7-4.1-17.7-5.6c-1.8-0.6-3.9-0.5-5.4-1.7c-6.3-5-12.4-10.1-19-14.6
	c14.2,3.1,24.9,14.4,39.1,17.5c3.1,0.7,6.2,1.2,9.4,1c2.4-1.3,4.6-3.1,7.3-3.6c4.5-1.1,9.4-1.9,12.6-5.6c-4.1-2.9-8.5-5.4-12.8-8.1
	c-1,0.7-2,1.3-2.9,2c-11.5-6.1-23-12.3-33.9-19.4c-3.6-2.4-7.3-4.9-10.2-8.2c9-0.3,14.3,8.3,22.5,10.3c-2.6-2.8-6.8-4.7-6.5-9.1
	c12.4,5,24.1,11.6,36.4,17.1c-7.4-8.7-19.4-13.9-22.9-25.6c10.8,0.1,18.6,8.6,27,14.2c4.5,3.7,10.7,6.2,12.8,12
	c-8.4-4.7-16.1-10.4-24.5-15c7.6,8.8,15.4,17.6,22.9,26.5c3.7-1.5,6.8-5,11.1-4.4c-12.1,11.2-27.5,18-41.7,26.1
	c-10.7,6.2-21.4,13-29.8,22.2c-9.1,7.4-18.6,14.3-28,21.3c0.3,1.3,0.5,2.6,0.8,3.9c-4.1,1.5-7.7,4-11.6,5.9c1.5,1.4,3,2.8,3.8,4.8
	c-3.7,2.1-7.8,3.3-11.9,4c0.1,1.4,0.1,2.8,0.2,4.1c-9.5,2.7-13.6,13.1-22.8,16.4c3.2,1.1,6.3,2.5,8.3,5.3c1.7-2,3.3-4,5.2-5.7
	c4.6-2.2,9.2-4.3,14-6.1c2.8-0.9,4.2-3.8,6.4-5.5c9.5-8.8,24.1-11.9,30.2-24.1c-1.8-2.8-3.6-5.6-5.5-8.3c1.4-0.3,2.8-0.6,4.1-0.9
	c0.6,2.8,2.4,4.9,4.6,6.7c4-1.3,6.2-5.1,9.9-7c0.8,6.4-6.2,10.8-11.9,10.9c-1.3,2.5-3.1,5-2.7,8c2.1,0.5,4.6,1.5,6.4-0.1
	c2.7-1.9,3-5.6,5.3-7.8c5.6-5.2,11.5-9.9,17.3-14.8c-9.2,1.1-18.3,2.8-27.4,3.9c7.7-2.5,15.4-4.7,23.1-7.3c1.7-0.4,2.5-2,3.5-3.2
	c2.6-3.4,6-6.2,9.2-8.9c-1.9-0.1-3.9-0.1-5.8-0.3c6.2-5.4,13.1-10.1,19.6-15.1c-1.2-0.7-2.3-1.4-3.5-2.1c3.3-4.5,8.5-6.6,13.4-8.7
	c2.8-1.4,6.1-2.2,8-4.9c2.8-3.4,5.7-8.1,10.8-7c-0.4,1.9-0.9,3.9-2.4,5.4c-6,6.5-15.4,8.1-21.3,14.8c6.3-1,12.9-1.2,18.7-4.2
	c2-0.9,4.3-0.2,6.4-0.6c5.3-4.7,9.9-10.3,14.6-15.6c2.2-2.5,5.1-4.2,8.2-5.3c-0.8,1.9-1.6,3.8-2.4,5.6c1.3-0.1,2.5-0.2,3.8-0.2
	c5.8,13.6,11.8,27.3,14.3,42c1.1,9.1,1.6,18.4,3.6,27.4c1.4,6.4,3.1,13.1,7.8,17.8c4.9-2.7,7.8-8.5,13.7-9.4
	c-3.1,5.8-8.8,9.5-12.8,14.6c5.4,4.8,5.1,12.7,9.8,18c4.2,0,8.4-0.2,12.6,0.2c-1.2,1.6-3.1,2.4-5,3.2c-0.1,1.5,0.3,3.1-0.2,4.6
	c-1.7,2.8-5,3.9-7.7,5.5c6.4-1.5,12.9-2.9,19.2-4.9c-5.3,5.7-11.1,11-17.5,15.5c10,0.7,19.2-3.8,28.9-5.1c-1.4,2-3.1,3.9-4.7,5.8
	c9.9,2.5,19.9-4.9,29.5-0.4c-1.8,1.6-3.8,2.9-5.8,4.2c1.1,0.5,2.3,1,3.4,1.5c-12.4,1-24.2,5.6-35.5,10.5c9.4,0.8,18.8,0.3,28.2,0.4
	c5.4,2.2,11.1-0.6,16.8-0.3c0.4-14.3,0-28.6,1.4-42.8c-7.7,5.9-14.6,13.5-23.9,16.9c-0.1-6.3,6.1-10.2,6.7-16.3
	c-3.8,3.7-5.4,10.4-11.4,11.4c-0.2-3.9,2.7-7.1,2.3-11c-1.2-2-4-2.2-5.9-3.2c0.4-1.7,0.8-3.4,1.2-5.1c-4.9,2.5-10,4.5-15.1,6.8
	c-1.5-2.1-4-3-6.3-3.8c-0.4-1.6-1-3.2-1-4.9c1.3-9.1,8.4-16.1,10.1-25.2c-6.2,4-8.9,11.5-15.3,15.3c-2,1.2-4.4,1.8-6.6,2.3
	c1.9-6.8,7.6-11.3,11.6-16.7c-1.5-2.4-2.4-5-3.2-7.6c-2.4-0.2-4.8-0.3-7.2-0.4c1.8-7.5,5.8-14.2,9.7-20.7c-3.2,1.5-6.4,3.4-10.1,2.4
	c0.4-2,1.1-3.9,1.6-5.9c-4.2,4.9-8.2,10-12.8,14.6c-0.9-1.7-2.5-3.7-1.2-5.7c1.8-3,4.5-5.4,6.4-8.4c-0.8-1-1.5-1.9-2.3-2.9
	c9.1-19.2,31.1-27,42.3-44.5c-12.7,8.1-26.6,14.6-37.9,24.8c-4.3,3.7-8.5,7.5-12.8,11.2c0.3-5.6,0.3-11.2,0.3-16.8
	c-1.6,0.2-3.2,0.3-4.9,0.4c0.1-6.6,0.6-13.1,0.7-19.7c-5.5-2-6.5-8.4-10.3-12.2c-0.4,2.2-0.8,4.5-1.2,6.8c-5,0-10-0.2-14.9-1
	c0.5,1.8,1,3.6,1.5,5.4c-5.6,0.4-12.2,0.5-16.5-3.8c-2.6-2.5-3-6.4-1.9-9.8c3-0.2,5.4,1.5,8,2.7c-1.2-1.8-2.5-3.6-3.8-5.3
	c-2.5-0.3-5.6,0.8-7.5-1.5c-6.6-6.9-17.1-10.2-20.6-19.7c12.7,1.4,18.9,16.2,32,16.4c-3-6.1-8.2-10.5-13.2-14.9
	c-4.7-4.5-9.4-9.1-12.6-14.8c7.8,1.9,13.8,7.7,19.2,13.2c4.4,4.4,10.1,7.8,16.4,7.6c-9.4-12.3-24.2-19.7-31.7-33.6
	c4,0.4,8,1.5,11.4,3.8c7.3,4.8,12.6,12.3,20.4,16.6c-8.5-11.9-22.9-17.9-30.8-30.3c4,0,7.5,2.3,10.7,4.4c8.6,5.7,16.5,12.5,23.7,20
	c-0.9-0.1-2.6-0.1-3.5-0.2c7.1,15.4,15.1,30.3,23.2,45.2c3.2-16.3-7.7-30.9-7.4-46.9c1.9,1,4.1,2,4.8,4.2c1.4,4.4,2.2,8.9,3.5,13.3
	c0.8-4.6,1.5-9.3,1.7-14c-6.1-6.5-13.2-12-20.5-17.2c-6.6-4.8-13-10.4-16.8-17.7c3.3,0.9,6.5,2.2,9.3,4.1
	c10.8,7,16.5,19.6,27.8,25.8c-5.6-10.8-18.1-15.8-23.4-26.8c7.1,0.7,11.5,6.8,15.8,11.7c3.2,3.7,7.2,6.6,11.9,8.1
	c0.3,3.7,2.4,6.9,5.6,8.9c1.3-5,2.1-10.1,3-15.2c-2.1-2.1-4.7-3.4-7.6-4.1c0.7,2.1,1.6,4.2,2,6.4c-3.7-2.6-4.6-7.6-7-11.3
	c5.1-1.1,8.9,2.8,13,5.2c2.4-7.9,4.8-15.9,6.9-23.9c1.4,0,2.8,0,4.3,0c2.7-5.5,5.1-11.1,7.9-16.6c-2.1,11.7-7.6,22.8-7.9,34.8
	c1.6-1.7,3.1-3.5,4.6-5.3c0,3.3-0.8,6.7,0.7,9.8c3.1-15.9,5.3-32,8.6-47.9c0.5-4.1,4.8-6.3,8.4-7.4c-2.6,27.5-3.5,55.2-0.5,82.7
	c3.8-20.9,1.8-42.4,5.5-63.4c4.3,20.4,0.8,41.8,7.1,61.8c1.3-11.8,2.1-23.7,3.2-35.6c1.2-7.2-4.2-13.8-2.7-21
	c0.5-2.3,2.3-3.9,3.9-5.5c5.6,20.8,11,41.7,15.7,62.7c1.6-6.8,1.6-13.8,3.1-20.6c1,7.1,1.1,14.4-0.7,21.4c-0.7,3-2.9,5.6-5.9,6.5
	c-6.1-5.9-5.6-15-9.4-22c-1.7,6.1-1.6,12.6-2.5,18.8c-0.5,3.5-2.6,6.5-5.4,8.6c-1.4-5.8-3.5-11.5-6.4-16.8
	c-1.6,8.4-2.7,16.8-2.7,25.4c-8,4.4-13.6,12-19,19.2c9.6-6.6,18.3-14.4,27.3-21.8c-0.4-1.1-0.8-2.1-1.1-3.2
	c12.4-1.7,24.1-6.7,36.8-6.9c1.1-18.1-11.9-33-13-50.7c3.9,7.9,7.2,16.1,11.3,23.8c1.7-22.1-6.6-43.3-6.2-65.3
	c1.6,1.3,3.8,2.1,4.9,3.8c0.3,15.9,4,31.4,7.3,46.8C550.9,157.3,553.4,137.3,556.7,117.4z"/>
<path class="st0" d="M488.6,151.3c1.8,0.2,0.2,3.7-1.2,3.4C486.8,153.6,487.5,152,488.6,151.3z"/>
<path class="st0" d="M691.5,180.5c1.9-2.4,3.4-5.6,6.7-6.6c3.7-1.2,7.2,0.9,10.2,2.7c-8.3,4.6-16.8,8.9-25,13.8
	c-3.5,2.1-7.2,4.1-10,7c11.1,2.4,20.5-5.8,31.2-6.4c-8.5,4.1-18.5,4.7-26.5,10c-1.3,0.5-0.6,2.1-0.7,3.1
	c-14.7,6.6-29.5,13-43.7,20.6c-2.9,1.6-5.8,3.3-8.3,5.5c6.2-0.1,11.8-3,17.3-5.5c14.2-6.9,28.6-13.6,43.8-18.2
	c5.5-1.6,11.2-3.1,16.9-3.6c-7.8,5.1-15.9,9.7-23.8,14.6c-7.2,5.1-18.9,2-24.1,10.5c0.6,2,2.5,3.2,3.7,4.8
	c-8.3,3.8-17.6,4.1-26.1,7.4c-1.2,8.8-5.9,16.7-10.8,23.9c0-2.6-0.2-5.2,0.1-7.8c2.8-7.2,7.9-13.2,10.4-20.5
	c-4.8,2.2-6.3,7.6-9.2,11.6c-1.1-1.4-1.6-3.7-3.6-3.8c-1.2,0.3-2.3,0.6-3.4,1c-0.7-9.5,4.1-18.3,9-26.1c12.6-5.7,24-13.7,35.1-21.9
	C670.1,189.8,680.2,183.6,691.5,180.5z"/>
<path class="st0" d="M484.1,191.2c0.3-5.3,1.2-10.7,3.5-15.5c-0.7,12.5-2.5,25-5,37.2C483.1,205.7,483.7,198.5,484.1,191.2z"/>
<path class="st0" d="M579.2,199.8c5-8.8,13.2-15.1,21.1-21C594.2,186.5,587.8,194.6,579.2,199.8z"/>
<path class="st0" d="M615.8,202.4c4-7.7,9.9-14.4,16.8-19.7C628.9,190.7,621.9,196.4,615.8,202.4z"/>
<path class="st0" d="M565.4,190.6c1.4,1.2,2.8,2.3,4.5,3.1c-5.8,6.5-11,13.5-16.7,20.2C554.1,204.8,559.6,197.3,565.4,190.6z"/>
<path class="st0" d="M485.1,237.4c1.3-13,2.3-26.2,5.1-39c1.2,8.1,1.6,16.4,2.1,24.6C492.6,228.5,491.2,235.6,485.1,237.4z"/>
<path class="st0" d="M585.4,207.4c2.6-3.1,5.6-5.8,9.1-7.8C592.1,202.8,589.1,205.8,585.4,207.4z"/>
<path class="st0" d="M558.1,217.4c6.6-5.1,11-12.6,18.5-16.5c1.7,5.1-3.5,8.2-6,11.7c-1.7,2.1,0,4.5,0.8,6.5
	C566.8,220.6,562.3,219,558.1,217.4z"/>
<path class="st0" d="M614.5,214.5c4.9-3.5,8-8.9,12.9-12.5c-1.9,4.3-5.3,7.6-7.4,11.8c0.9,1.7,1.7,3.4,2.6,5.1
	c-6.9,5.3-8.6,14.4-14.5,20.4c-2.7-5-0.7-10.5-0.2-15.7c-4.1-0.3-5.3,3.7-6.9,6.6c-2.7-5.7,1.2-11.3,4-16
	C607.8,215.7,611.6,216.6,614.5,214.5z"/>
<path class="st0" d="M456.7,205.6c1.4,0.7,2.7,1.4,4.1,2.2c-0.8,6.6-1.1,13.4-2.9,19.8C456.6,220.3,456,212.9,456.7,205.6z"/>
<path class="st0" d="M687.7,218.4c11.3-4.5,22.9-8.3,34.3-12.3C711.2,211.4,700.3,218.6,687.7,218.4z"/>
<path d="M363.9,211c7.7,0.4,14.1,6.1,17.4,12.7c2.2,4.4,5.1,8.3,7.7,12.5C379.3,229.4,369.6,221.5,363.9,211z"/>
<path class="st0" d="M421.6,214.9c4.4,1.8,9.8,5.1,8.7,10.7C427.2,222.2,424.4,218.6,421.6,214.9z"/>
<path class="st0" d="M738.5,220c12.7-2.3,25.6-2.7,38.5-3c18.2-0.4,36.4-0.3,54.6,0.3c-8,2.3-16.4,3.1-24.6,4.3
	c-19.3,2.3-38.6,4.1-57.9,5.6C745,225.9,741.9,222.5,738.5,220z"/>
<path class="st0" d="M409.7,221.6c9.5,2.4,15.2,12.2,14.8,21.6c-2.1-3.3-3.7-6.7-5.6-10.1C416.6,228.6,410.8,226.8,409.7,221.6z"/>
<path class="st0" d="M712.8,225.5c7.6-1.9,15.4-3.5,23.2-2.6c3.2,0.3,6.1,1.9,8.2,4.3C733.7,228,723.2,226.5,712.8,225.5z"/>
<path class="st0" d="M500.9,241.2c11.5-11.6,28-17.3,44.1-17.4c0.9,1.1,3.4,4.1,0.5,4.4c-5.8-1.6-12.1-2.4-17.9-0.3
	c-4.3,1.5-6.8,5.9-7.9,10.1c-0.6,2.1,0.8,3.7,2,5.2c3.8-3.1,4.7-8.3,8.3-11.4c12.1,0.8,24.3,5.6,32.6,14.5c5.2,5.4,8.8,12,11.6,18.9
	c-1,1-2,1.9-3,2.8c5.3,8.1,6.9,18,6.5,27.5c-2,0.4-4.1,0.9-6.1,1.2c1.6-2.2,3.7-4,5.6-5.9c-5.5-2-11.4-0.6-16.8,0.9
	c-6.7,1.9-13.5,3.9-20.4,5.2c4.7-4.6,9.9-8.6,13.9-13.8c2.3-2.6-1-5.6-2-8.1c2.9-2.3,5.7-4.7,7.8-7.8c-0.9-1.3-1.8-2.6-2.6-3.8
	c2.1-1.3,4.3-2.5,6.3-3.9c-6.1,1-12.4,1.3-18.6,1.2c3.7-3.9,7.7-7.7,11.2-11.8c-7.9,1.4-15.1,8.9-23.4,4.8c-6.4,4.7-14.5,5-21.7,7.6
	c1.4-1.7,2.6-3.5,3.8-5.4c-1.2-0.3-2.3-0.6-3.5-0.8c0.9-3.7-1.1-7.1-4.3-9c3.1-2.9,6.2-5.7,8.9-9
	C510.2,233.7,506.3,240.4,500.9,241.2z"/>
<path class="st0" d="M659.9,227.6c6.1-3.2,13.5-4.3,20.1-2.1C674.3,229.3,665.8,233.2,659.9,227.6z"/>
<path class="st0" d="M551,230c-1-0.4-4.2-0.9-2.3-2.3c8.1-0.3,15.8,3.7,22.2,8.2c7.9,5.9,14.4,13.5,19.7,21.8
	c-1.2,1.1-2.4,2.2-3.5,3.3c1.8,2.5,5,4.3,6.2,7.2c2.2,21.3,4.4,42.5,6.5,63.8c0.6,20-1.8,41.4-13.5,58.3c-1.1-1-2.1-2-3.2-3
	c-0.8,1.9-1.7,3.8-2.6,5.7c1.9,3,3.5,6.1,5.2,9.2c-1.8-0.9-3.7-1.7-4.9-3.2c-2.8-3.3-2.8-8.1-5.6-11.4c-0.9-1.2-2.2-2.1-2.8-3.5
	c2-2.4,4-4.8,4.8-7.9c10.1-7,13.5-19.5,16.7-30.7c-0.8,0-2.5-0.1-3.3-0.2c5.4-30.6-10.5-59.9-7.5-90.5c0.1-5.1-6.7-4-9.1-7
	C569.7,238.7,560.1,233.6,551,230z"/>
<path d="M319.4,231.7c10.9,5.3,21,12.1,31.5,18.1c-2.7-1.2-5.4-2.3-8-3.7c-0.6,0.1-1.7,0.2-2.3,0.3c-0.1-0.4-0.3-1.2-0.4-1.6
	l-0.8-0.1l-0.3,0.7c0.4,0.2,1.1,0.8,1.4,1c0.5,0.1,1.4,0.3,1.8,0.4l0.5-0.7c0.2,0.8,0.6,2.5,0.8,3.4
	C335.2,244.5,325.1,240.4,319.4,231.7z"/>
<path class="st0" d="M429,232.4c5.1,0.8,5.2,7,4.7,11C431.1,240.2,429.9,236.3,429,232.4z"/>
<path class="st0" d="M681.9,251.6c7.7-3.8,15.3-7.8,23.1-11.4c9.5,2,19.1,4.5,28.5,7.1C716.5,250,699.1,250.4,681.9,251.6z"/>
<path class="st0" d="M339.5,244.7l0.8,0.1c0.1,0.4,0.3,1.2,0.4,1.6c-0.4-0.2-1.1-0.8-1.4-1L339.5,244.7z"/>
<path class="st0" d="M340.7,246.4c0.6-0.1,1.7-0.2,2.3-0.3l-0.5,0.7C342.1,246.7,341.2,246.5,340.7,246.4z"/>
<path d="M326.7,247.2c9.6,1.9,17.6,7.7,26.2,12c4.2,2.2,8.6,4.1,13.1,5.8C351.6,263.4,336.1,259,326.7,247.2z"/>
<path class="st0" d="M462.5,267.3c2.8-3.6,5.9-7.1,9.8-9.6C470.9,262.3,467.4,266.4,462.5,267.3z"/>
<path class="st0" d="M480.1,287.4c7.7-8.1,15.4-16.1,23.2-24.2C497.4,272.7,489.9,281.7,480.1,287.4z"/>
<path d="M686.2,264.4c8.7-2.3,17.9-1.5,26.8-1.6c17.7,0.5,35.3,1.1,52.9,3.2c4.9,0.6,9.8,1.4,14.5,2.9c-17.9,2-35.9-1.9-53.8,0
	c13.4,2.4,27,2.6,40.5,4.1c8.8,0.9,17.6,1.9,26.3,3c0.5-1.8,1.1-3.5,1.6-5.3c7.6,2.1,15.6,1.5,23.4,1.5c-1-2.4-0.8-5,0.5-7.2
	c21.1,2.9,42.1,6.4,63.3,8.6c-1.4,3.4-4.5,5.3-7.5,7c2.4,1.1,4.8,2.2,7.2,3.4c0.1,2.4-0.3,4.8-1.7,6.8c2.8,0.5,7.8,3.2,4.9,6.3
	c-4,2.8-9.4,1.8-13.9,3.3c2.7,1.8,6,2.4,9,3.4c3,1.2,3.7,4.6,4,7.4c-4.4,1.9-9.3,1.6-13.7,3.4c-3.2,1.4-1.9,5-0.7,7.3
	c0.6-0.4,1.8-1.3,2.3-1.8c-2.1,2.9-3.8,6.2-6.8,8.3c-7,5.2-15.8,6.7-24.1,8.4c13.8,5,28.5,8.4,41.1,16.4c-3.3,1.8-7.2,1.1-10.8,2
	c4.8,4.7,12.3,4.7,17.3,9.2c-9.6-1-17.8-7.2-27.4-8.3c8.2,5.3,17.5,9,27,11.5c0.4,1.3,0.8,2.5,1.2,3.8c4.5,1.4,9.3,0.9,13.9,1.6
	c-2.6,1.9-6,1.7-9,2.1c0.5,2.6,1.1,5.3,1.8,7.9c-15.5-8.8-31.3-17.2-47.5-24.4c-3.1,1.1-6.4,1.9-9.6,1.1c-3.3-0.5-7-2.8-7.2-6.5
	c0.7-2.4,2.2-4.4,3.2-6.7c-2.4-1.1-4.8-2.2-7.2-3.3c0.2-1.5,0.4-3,0.6-4.5c-2-1.4-4.4-1.8-6.8-1.9c0.9,1.5,1.8,3,2.6,4.5
	c-12.5-3.4-24.8-7.3-37.4-10.4c-18.2-4.8-36.9-8.3-54.3-15.5c-3-1.4-6.2-2.5-8.3-5.2c3.4-2.1,7,0.2,10.5,0.7
	c1.8,0.4,2.6-1.5,3.6-2.6c-9.6-5.8-21.9-1.7-31.6-7.2c-3.2-2.5-7.5-1.5-11.2-2.4c0.2-1.6-0.4-3.6,1.2-4.6c3.4-1.2,7.2-0.7,10.8-1.1
	c-2.3-1.1-4.6-1.9-6.9-3c0.1-0.6,0.3-1.8,0.4-2.4c9.5-1.6,19,1,28.4,0.1c-5.8-3.8-13.3-3.1-19.2-6.7c15.2,1.9,30.4,4,45.6,5.4
	c11.5,1.7,22.7,5.4,33.9,8.6c0.9-1.5,1.7-3.1,2.6-4.6c-9.6-3.2-19.6-4.3-29.6-5.6c-8.6-1.3-17.3-2.4-25.8-3.9
	c-2-0.1-2.3-2.4-3.4-3.6c-0.7-1.4-2.5-1-3.7-1.3C714.9,274.6,700.2,270,686.2,264.4z"/>
<path class="st0" d="M423.1,270.2c2.3-1.3,4.9-1.5,7.5-1.5c6.4,19.7,9.9,40.2,15.5,60.1c2.3,7.9,5.1,15.7,8.9,23
	c-6.1,7.2-13.2,13.6-19.9,20.2c-4.5,4.7-9,9.6-11.6,15.7c14.1-7.5,21.4-22.8,34.4-31.7c3,4.3,5.6,9,8.9,13.1
	c-1.4,2.6-3.1,5.3-5.8,6.7c-3.4,2-7.5,2-11.3,2c0.9-2.5,2.9-5.3,0.4-7.6c-9.5,8.4-20.7,15-28.7,25.1c1.2,1.1,2.5,2.2,3.8,3.3
	c-5.4,1-10.1,3.8-13.9,7.5c-5.1-5.1-9.4-11.4-16.2-14.4c-13.8-6.4-29.2-8-44.2-9.8c-0.5-9.2,2.6-19.4,10.2-25.1
	c-2.5-6.5-5.1-13.1-8.7-19.1c0.1-8.6,5.3-16.4,12-21.5c6.1-4.7,12.7-8.7,18.7-13.6c-0.2,4.5-3.2,8.2-3.7,12.6
	c7.9-9.1,15.7-18.4,23.8-27.3c2.4-2.3,5.4-3.9,7.6-6.3C415,278.1,418,272.9,423.1,270.2z"/>
<path class="st0" d="M398.1,281c2-3.9,6.6-3.8,10.3-4.5c-2.1,2.4-4.3,4.7-7.2,5.9C400.4,282.1,398.9,281.4,398.1,281z"/>
<path class="st0" d="M762.8,277.8c10.1-0.7,20,1.5,30.1,1.8c0,1.8,0,3.6,0,5.4C782.8,282.9,772.6,281.1,762.8,277.8z"/>
<path d="M708.2,279.2C708.8,279.8,708.8,279.8,708.2,279.2z"/>
<path class="st0" d="M852.2,279.5c6.8,0.2,13.5,2,19.3,5.5C864.8,285.1,856.7,285.3,852.2,279.5z"/>
<path class="st0" d="M348.1,280.6c1,0.7,2,1.5,2.9,2.2c-1.6,2.4-4,4-6.9,4.2c-6.3,0.8-12.9-0.1-18.6-2.8c6.8-0.4,13.6,0.9,20.4,0.8
	C346.6,283.5,347.3,282,348.1,280.6z"/>
<path class="st0" d="M832.5,284.2c4.8,0.9,9.4,2.4,14.2,3.3c11.2,2.5,22.8,3.4,33.6,7.4c-6.8-0.5-13.4-2.2-20-3.3
	C850.9,289.6,841.3,288.1,832.5,284.2z"/>
<path class="st0" d="M815.7,285c15.3,7.5,32.5,9.3,48.5,14.7c6.3,2.2,12.6,5.2,17.4,10c-17.1-2-34.2-6.1-49.7-13.7
	C826.1,293.1,820.5,289.5,815.7,285z"/>
<path class="st0" d="M634.8,287.8c2.9-1.6,6.4-1.5,9.6-1.3c-5.4,4.2-10.4,9.4-17.1,11.3C628.7,293.9,630.9,289.8,634.8,287.8z"/>
<path class="st0" d="M797.9,292.4c7.9,1.4,16,3,23.4,6.4C813.5,296.6,805.2,296,797.9,292.4z"/>
<path class="st0" d="M715.5,293.6c4.6-0.1,9.2,0.5,13.8,0.9C724.7,295,719.7,296,715.5,293.6z"/>
<path class="st0" d="M552,306.3c4-4.6,8.4-9.6,14.6-10.9C561.9,299.2,557,302.9,552,306.3z"/>
<path class="st0" d="M648,295.6c1.7,0,3.3,0,5,0c-0.1,0.5-0.3,1.5-0.4,2.1c-1.4,0-2.8,0-4.1,0C648.4,297.1,648.2,296.1,648,295.6z"
	/>
<path class="st0" d="M733.2,296.8c5.6-1.1,11.6-2.5,17.2-0.4C744.8,297.7,738.8,298.5,733.2,296.8z"/>
<path class="st0" d="M784.7,300.3c4-1.2,8.2-2.3,12.3-1.3c4.4,0.7,8.2,3.2,12,5.4c-3.7-0.1-5.9,2.7-8.1,5.3
	C795,307.3,790.1,303.4,784.7,300.3z"/>
<path class="st0" d="M565.2,312.5c3.9-4.6,8.6-8.7,13.7-12c2,9.7,0.4,19.5,0.1,29.3c-2.8,1.4-5.6,3-8.3,4.5c-0.9-2.5-2-4.9-2.6-7.4
	c1.2-2.4,3.4-4.2,5.2-6.2c-0.8-1.1-1.6-2.2-2.4-3.4c1.6-2.5,5.7-4.6,4.8-7.9C571.8,308.7,568.7,311.7,565.2,312.5z"/>
<path class="st0" d="M304.3,307.1c3.5,0,7,0.5,10.3,1.5C311.1,309,307.4,309.1,304.3,307.1z"/>
<path class="st0" d="M744.7,308.5c22-0.5,43.9,3,65.6,6.1c18.1,2.9,36.2,5.9,54.2,9.5c-4.4,4.9-11.3,6.1-17.5,6.2
	c-10.8-0.2-21.5-2.8-32.2-3.6c-0.2,2.1-0.3,4.1-0.4,6.2c-9-2.3-17.4-6.2-26.3-8.8c-3.6-1.1-7.7-0.4-11.1-2.1
	c-3.6-2.4-6.3-6.4-10.7-7.2C759,313,751.2,312.4,744.7,308.5z"/>
<path class="st0" d="M602.9,309.5c2.6,1.8,2.7,5.1,2.7,8C604,315.1,603.3,312.3,602.9,309.5z"/>
<path class="st0" d="M605,319.4c1.8,1.7,3.3,3.5,4.7,5.5c-1.4,1-2.2,4.3-4.2,2.9C604.8,325,604.7,322.2,605,319.4z"/>
<path d="M721.8,322.4c7.4-2.2,14.8,0.8,21.8,3c2.8,1,5.9,1.2,8.5,2.4c1.3,2,2,5,4.8,5.4c15.4,4.3,31.8,4.5,46.9,9.8
	c4,1.6,8.4,0.2,12.4,1.7c1.8,0.3,1.7,2.3,2.2,3.6c-29.7-2.9-59.4-8.4-87.1-19.8C727.7,327.5,722.8,326.8,721.8,322.4z"/>
<path class="st0" d="M606,331.4c3.2,1.6,4.1,5.9,0.9,8C606.5,336.7,606.1,334.1,606,331.4z"/>
<path class="st0" d="M322.3,348.4c7.3-4.5,14.5-9.2,21.8-13.7c-1.6,11.2-10.4,20-11,31.4c-0.3,2.8,0.2,5.6,0.7,8.4
	c-3,2-4.9,5.5-4.5,9.1c3.3,3.2,6.9,6,10.4,9c0.6,6.3-0.7,12.5-2.7,18.5c-1.4,4.2-2.4,8.6-2.1,13c-7.2,6.4-12.9,14.5-21.1,19.9
	c-0.3-1.2-0.6-2.3-0.9-3.5c-0.7-0.1-2-0.4-2.7-0.5c-7.2,9.6-14.2,19.6-23.3,27.6c3.7-7.4,10.4-12.7,13.9-20.2
	c-1.3-1.7-2.6-3.4-3.9-5.1c-2.6,0.9-5.5,1.2-7.6,3c-5.9,7.1-13.3,12.9-20.4,18.7c-0.2-5.8,5.1-9,7-14c-3.7,0.9-6.4,3.6-8.3,6.8
	c-5.7-1.7-11.4,0.6-16.9,2c2.1,3.9,6.7,3.2,10.4,2.6c1,2.4,1.8,5.2,4.3,6.6c2.1,1.2,4.4,0.4,6.6,0.1c-2,5.3-0.7,11,0.8,16.3
	c1,0.4,2.1,0.8,3.1,1.3c16.1-12,29.3-27.4,46-38.6c1.1,1.4,2.3,2.7,3.5,4c-3.2,7.2-6.6,14.5-8.1,22.3c11.2-11.4,21-24.2,33.1-34.8
	c4.3,2.1,9.2,3,13.9,1.6c7.6-2.1,13.8-7.2,20.7-10.7c-1,3.8-3.5,7.2-2.6,11.3c-1.5,2.9-3.5,5.5-5.4,8.1c3.3-0.8,6.7-1.5,10-2.3
	c3.2-6.6,5-13.9,7-20.9c5.3,0.4,10.7-0.2,15.3-3c1.4,1.3,3,2.4,4.8,3.2c-1.8,1.5-3.5,3.1-5.2,4.7c4.8,4.3,11.2,7.9,12.9,14.6
	c-5.7-1.4-8.4-7.5-14-9c-1.5-0.4-3.1-0.6-4.6-0.8c0.4,1.6,0.8,3.2,1.3,4.8c-2,1.2-4.1,2.5-6.1,3.7c3.9,8.4,8.1,16.7,11.5,25.3
	c-4.4-5.1-7.6-14.2-15.9-12.9c0.5,2.7,1.3,5.3,2,8c-4.2,0.5-7.9-2.4-12.1-2c1,3.4,3.9,5.8,5.4,9c-2.9,0.6-5.7,1.3-8.3,2.7
	c4.9,6.7,10.5,12.9,17.2,17.8c0.9-0.7,1.8-1.5,2.6-2.1c3.5,2.7,6.7,6,10.9,7.7c2,1,4.1-0.3,6.1-0.7c7.1,5.8,16.1,9.2,25.2,9.7
	c5.9,0.3,11.6-2,16-5.6c-3-1.1-6-2.1-8.9-3.3c5.4-0.2,10.7-0.1,16.1-0.1c-0.4,3.7-0.8,7.5-1.4,11.2c-1.9,0.6-3.8,1.2-5.7,1.8
	c-1.5,21.1-5.9,41.8-10.1,62.4c-3.7-0.5-7.4-0.6-11.1-0.5c-6.4,15.2-6.6,31.9-10.5,47.8c-5.9-4.6-12.7-8.2-20.1-9.4
	c2.9,8.9,9,16.3,12.7,24.9c-5.7,3.7-0.6,10.7-2,16c-3.1-6.6-2.3-14.6-6.8-20.6c-2.1-3.7-2.4-8-4.3-11.8c-0.9-2-3.1-2.6-5-3.4
	c-0.1,2.2-0.1,4.4-0.1,6.6c-8.6-1.7-15-7.9-22.4-12.1c3.7-3,8.3-4.4,12.9-5.5c-2-1.4-3.8-3.1-5.5-4.8c2.6-0.6,5.1-1.2,7.7-1.8
	c-4.1-1.7-8.7-2.1-12.9-3.4c7.4-2.2,14.8-4.1,22-6.8c-2.2-1.4-4.7-2.3-6.9-3.7c3.6-0.6,7.3-0.2,10.9-0.7c1.5-0.2,2.1-1.8,3-2.8
	c-5.5-1-11.2,1.9-16.4-1.1c8.5-3.9,18.9-2.7,26.3-8.9c-3.9-1.8-7.8,0.6-11.7,0.6c3.5-3.4,8.6-3.5,13.2-4.3c4.4-0.7,8.8-1.9,12.7-4.3
	c-10.9-2.1-22.2-2.2-33.1-0.6c-6.5,8.6-18.9,5.5-27.1,11.4c2.3,1.4,4.6,2.8,6.7,4.4c-4.5,0.5-9.1,1.2-13.3,2.8
	c1.2,2.7,2.6,5.4,4,8.1c-1.6,0.6-3.3,1.1-4.9,1.8c0.8,1.8,1.7,3.4,2.8,5c-2.3-0.1-4.8-0.4-6.7,1.2c-3,2.2-6.1,4.3-9.6,5.5
	c1.2,1,2.4,2,3.6,3c-15.6-0.8-30.3-6.8-45.8-8.4c-2.3-1.3-3.4-4-4.9-6.1c3.4-1.6,6.9-3,10.2-4.7c-2.1-2.1-4.8-3.4-7.1-5
	c0.8-1.5,1.5-3.2,2.5-4.6c2.3-1.1,4.9-1.3,7.3-1.9c-1.6-1.3-3.3-2.6-4.8-4c2.7-0.7,5.4-1,8.2-1.5c-2-3.2-4.7-6-6.3-9.5
	c1-2.4,4.5-3.3,4.1-6.5c3.1-0.6,4.4-3.9,3.8-6.8c-3.4,0.8-7.2,3.3-10.6,1c-5.4-4.9-9.9-10.7-14.3-16.4c10.6,2.4,19.4,9.9,30.3,11.1
	c-2.9-3.3-7.2-4.7-10.5-7.5c2.6,0.4,5,1.7,7.6,2.5c0.9-4-3.5-4.8-6.1-6.2c1.1-0.6,2.2-1.2,3.3-1.9c-4.1-6.8-12.5-9-16.6-15.7
	c5.3,1.7,9.9,4.8,14.9,7.2c3.2-5.3-1.1-10.6-5.7-13.1c-8.2-4.7-16.8-8.6-25.3-12.6c-2.4,1.6-5.2,2.6-7,5c6,9,16.5,13.3,24.3,20.4
	c-10-2.2-15.9-12.9-26.6-13.3c0.1,2.2,0.1,4.5,0.1,6.7c4.4,3.3,9.4,5.6,13.4,9.4c-7-1.2-14.5-1.9-20.7-5.6c2.7,2.4,5.6,4.5,8.4,6.9
	c-1.7,0.5-3.4,1-5,1.6c2.2,5.7,8.7,6.8,12.7,10.8c-7.2-2-12.6-10.5-20.9-7.5c2.3,3.6,6.3,5.5,9.3,8.5c-5.5-0.5-10.9-1.7-16.4-2.5
	c11.7,6.6,26.1,5.7,37.8,12.5c-1.9-0.4-3.8-1-5.6-1.5c-1.1,1.4-2.1,2.8-3.2,4.3c-23.1,3.1-45.2,10.7-67.3,17.7
	c-0.9-2-1.9-3.9-3.1-5.7c-2,0.5-4,1-6,1.7c0.9,3.5,1.7,7,2.8,10.5c6.1,0.1,10.3-4.9,16.1-5.9c1.5,0,4.2-0.2,3.9,2
	c-3.7,2.6-8.3,3-12.3,4.8c-1.8,0.7-2.2,2.6-2.7,4.3c6.4-0.2,11.6-4.4,17.8-5.5c2.3,3.7,6.7,4.5,10.8,3.9c-0.3-2-0.7-3.9-1.1-5.9
	c4.7-1.1,9.5-1.9,13.9-4.1c-6.5,0-14.2,1.7-19.4-3.2c12.8-3.2,25.8-5.7,38.5-9.2c-0.7,3.4-3.6,5.5-4.9,8.7c-2.3-0.2-4.7-0.3-7-0.1
	c3.1,4.1,7.9,6.3,11.6,9.8c-3.4,1.8-7.2,2.5-10.9,2.8c0.2,1,0.4,2.1,0.6,3.1c-5.9-0.2-11.3-4.1-17.3-2.3c0.8,3.1,3.3,5.9,6.7,6
	c6.6,0.2,13.2-1.3,19.8-0.2c-1.8,4-5.1,7-8.9,9.1c-5.4-1.9-10.8-3.9-16.2-5.9c-0.1,1.5-0.1,3-0.2,4.5c-4.1-1.1-6.9-4.4-10.2-6.9
	c-2.1-1.6-4.4-0.3-6.5,0.6c2.2,3.5,5,6.5,7.3,9.9c-4.6,0.4-8.9-1.1-12.9-3.2c-0.3-2.6-0.4-6.1-3.4-7c-4-1-9.4-0.8-11.7,3.3
	c4.9,2.2,9.5,5,13.8,8.2c0.5,2.1-2.3,2.7-3.4,4c4.6,0.7,9.3,0.6,13.9,1.5c-1,1.9-2.4,3.5-3.7,5.2c3.9,4.8,9.4,10.4,16.2,8.2
	c-2-2.2-4.2-4.2-6.2-6.4c3.3,1,6.5,2.4,9.6,4c7.2,3.8,14.5,7.8,20.6,13.3c1.7,1.5,2.9,3.6,3.8,5.7c-6.8,0.8-13.2-5.1-19.9-1.8
	c4.5,3.5,9.7,5.8,14.8,8.3c18.6,8.9,38.1,16,57.2,23.8c-12.6,1.5-25-2.4-36.3-7.6c-11.2-5.3-22.5-10.7-34.5-14c-1.2,1-2.5,2-3.7,3
	c-2.2-1.7-3.7-4.1-4.6-6.7c3,0.8,6.2,1.4,9-0.5c-4.1-3.9-8.4-7.6-12.9-11.1c-4.5-0.5-9.3-0.8-12.7-4.2c-5.2-5.2-7.2-13.2-13.9-17
	c-0.5,1.2-1.1,2.4-1.6,3.7c-4.7-1.4-9.7-2-14.2-3.9c-1.2-1.9-2.2-4-3.5-5.9c2.2-4.8,6.9-8.5,7.2-14c0.2-2.6-2.4-3.7-4.2-4.9
	c-5.4,7.3-6.8,16.6-10.8,24.6c1.4-0.6,2.9-1.3,4.3-2c3.1,6.1,7.5,11.6,9.1,18.3c-5.4,2.1-7.9,7.5-11.5,11.7
	c10.2,4.8,19.5,12.7,23.9,23.3c3.1,7,3.9,14.7,3.7,22.2c-3.8-2.6-7.9-4.7-12.2-6.2c0.6,3.1,2,6,2,9.2c-4.7-3.6-8.9-7.9-13.2-12
	c0.5,1.9,1.2,3.9,1.6,5.8c-10.4-4.3-15.2-16.7-26.5-19.3c-0.5-1.3-1-2.6-1.5-3.8c-0.7,0.2-2,0.6-2.6,0.8c0.5,3,2.5,5.7,2.5,8.8
	c-9.8-3.8-20.4-10.7-22.2-21.9c0-2.6-2.9-2.7-4.6-3.6c-6.6-21-6.5-43.5-6.1-65.3c9.1-5.9,20.1-8.7,27.8-16.7
	c9.8,0.2,16.3-9.4,16.8-18.4c-3.1-0.1-6.6,0.1-9,2.4c-2.8,2.8-5.5,6-9,8c-17.6-8-37.6-12.3-56.7-7.4c-2.4-11.8,4.8-22.8,13.8-29.7
	c-1.8,4.4-4.2,8.6-6.7,12.7c-1.2,1.9-1.5,4.1-1.6,6.3c1.6-0.3,3.4-0.1,4.8-1.2c2.7-2.2,3.2-6,5.7-8.3c1.4-1.4,3.5-1,5.3-1.1
	c-0.4,5.6-5.6,9.3-6.1,14.8c10.6-8.4,20.3-17.8,30.7-26.3c-1.3,2.5-3,4.9-4.2,7.5c-1,1.9,0.2,3.8,0.7,5.7c-3.5,2.9-7.7,6.1-8.1,11.1
	c4.2-0.6,5.6-5.1,9.1-7.1c-0.6,3.5-4,5.6-4.1,9.2c3.7-1.5,6.7-4.3,9.5-7.1c7.6-7.5,13.5-16.7,21.8-23.5c-5.3,11-14.7,19.3-20.5,30
	c2.8,0.2,5.8,0.5,8.4-1c6.8-3.6,9.5-11.6,15.5-16.2c-1.5,2.8-3.3,5.4-4.5,8.4c2.1,0,4.4,0.5,6.2-1c2.8-2.3,4.6-5.7,6.8-8.6
	c1.5,1.7,2.3,4.5,4.5,5.2c6.9-0.6,14.1-3.2,18.6-8.8c2.6-3.1,3.6-7.1,4.2-11.1c-6.6,6.3-13.1,13.1-21.6,16.7
	c-0.9-4.4-1.5-8.9-1.3-13.4c-0.1-2,2.2-2.5,3.2-3.8c2-2.9,3.4-6.2,4-9.6c-2.3-0.4-4.7-0.1-6.9,0.6c0.2-1.9,0.3-3.9,0.3-5.8
	c-7.3,1.7-13.7,6-20.5,9c0.7-1.7,1.7-3.3,2.6-5c-7.6,4.3-15.8,7.1-23.8,10.5c-0.2-0.9-0.5-2.5-0.7-3.4c-1.9,0.1-4,0-5.7,1.2
	c-4,2.8-5.4,8.3-10.4,9.8c1.8-4,4.3-7.9,4.8-12.3c12.5-7.2,24.8-14.7,37.3-21.8c1.9-1.2,4,0.6,5.9,0.1c13.8-13,26.9-26.9,42.5-37.7
	c-0.3-1.4-2.1-3.2-0.3-4.2c11-8.6,22.4-16.9,32.9-26.1c1.5-0.8,0.8-2.5,0.7-3.9c16.6-13.9,33.2-27.8,49.9-41.6
	c2.8-2.4,6.1-4.5,7.9-7.9C325.2,349.1,323.3,348.6,322.3,348.4z"/>
<path class="st0" d="M567.8,341.3c3.9-4.5,10.1-8.1,16-5.2c-1,4.1-2.4,8.2-5.1,11.4c0.3-2.4,1.2-4.5,2.1-6.7
	C576.5,339.2,572.2,341.2,567.8,341.3z"/>
<path class="st0" d="M641,335.5c2.3,3.4,4.3,7.1,6.1,10.9C643.2,344.6,639,340.1,641,335.5z"/>
<path d="M734.6,338.8c7.5,0.2,14.7,2.6,21.9,4.6c24.2,7.1,48.4,14.2,71.9,23.2c7.2,2.9,14.7,5.6,21,10.4
	c-34.2-9.9-68.2-20.7-102.4-30.9C742.5,344.6,736.9,343.6,734.6,338.8z"/>
<path class="st0" d="M549.6,350c1.6-3.1,4.4-5.5,7.7-6.4C555,346.1,552.4,348.2,549.6,350z"/>
<path class="st0" d="M669.9,344.4c2.5,1.6,4.5,3.7,6.5,5.8C673,350.1,670.3,347.8,669.9,344.4z"/>
<path class="st0" d="M345.3,359.3c1-3.1,1.5-6.5,3.6-9.1c0.8,1,1.6,2,2.3,3C350.8,356.3,348.6,359.2,345.3,359.3z"/>
<path class="st0" d="M572.3,357.8c2.1-2.4,4.1-4.9,6.5-7c-0.9,2.8-2.1,5.5-3,8.3C574.6,358.7,573.4,358.3,572.3,357.8z"/>
<path class="st0" d="M653.7,351.6c8.1,9.6,15.9,19.9,20.3,31.8C667,373,660.1,362.4,653.7,351.6z"/>
<path d="M754.8,353.3c12.6,2,24.7,6.1,36.9,9.8c17.5,5.7,35.3,10.8,52,18.5c-14,0.2-27.1-5.8-40.8-7.3c16.7,6.2,32.4,15,47.8,24
	c9.3,5.5,18.6,11.2,27.3,17.7c3.9,3,7.8,6.1,10.7,10c-11.3-6.2-22.2-13.1-33.6-19.2c8.8,7.9,18.3,15.3,25.6,24.7
	c-8.2-4.6-15.8-10.5-24.7-13.7c7.2,4.7,15.7,8.8,19.7,16.9c-8.1-4.4-16.1-9.2-24.9-12.1c6.4,5.8,15.1,8.6,20.5,15.6
	c-5.3-1.5-10-4.5-15.4-5.6c11.4,12.3,23.7,24.8,29.9,40.7c-7.6-2.2-14.3-6.7-20.7-11.4c-3.7-2.8-7.7-5.2-12.2-6.4
	c3.3,6.9,10.1,12,11.3,19.9c-4.2-5.3-7-11.9-12.9-15.5c1.6,7.9,8.3,12.9,12.6,19.3c-2.1,5.1,1,9.8,2.6,14.5
	c3.8,10.8,7,21.9,7.9,33.3c0.2,2.2-0.1,4.6,1,6.6c5.1,9.5,10.5,18.9,15.5,28.5c-0.2,4.2-0.8,8.4-0.9,12.6c-3.8-3.3-6.2-7.7-8.7-12
	c-8.3-14.6-16.6-29.2-25.6-43.4c-3.1-4.7-6-9.5-9.6-13.8c5.4,14.2,12.4,27.7,19,41.4c7.5,14.5,14.3,29.7,16.8,45.9
	c-3.3-6.2-5-13.4-9.9-18.7c1.6,11.8,7.1,22.5,11.3,33.4c3.1,8.5,5.5,17.4,5.2,26.6c-6.9-17.9-12.6-36.5-21.6-53.6
	c1.1,6,5.8,11.2,4.4,17.5c-7-12.7-10.5-27.1-18.1-39.6c8.3,26.3,22.5,50.3,30.1,76.8c2.7,9.4,4.9,19,5.5,28.8
	c-5.2-17.2-11-34.4-19.8-50.2c0.3,2.2,0.8,4.3,1,6.5c-5.6-10.1-10-20.9-15.3-31.2c-3.7-7-6.6-14.4-11.4-20.7
	c0.6,4.5,1.3,9.2,2.8,13.4c9.2,7.9,13.8,19.6,17,30.9c3.5,13.4,6.4,27.1,12.1,39.9c1,2.7,3.6,5.1,2.9,8.2c-0.8,11.2,0.9,22.8,6,32.8
	c3.8,7.7,9.5,14.3,16,19.9c1.2-0.2,2.3-0.4,3.5-0.6c1.2,2.4,2.5,4.8,4.1,7c1.4-16.6-6.9-31.9-9.1-48.1c1-0.6,2.1-1.3,3.1-1.9
	c-1.3-2.9-3.2-5.8-3.4-9c1-12.5-6.8-23.6-6.8-36c0.5-0.5,1.5-1.4,2-1.9c5.8,5.6,8.5,13.3,11.7,20.5c9.3,23.7,19,47.3,27.6,71.3
	c0.4-4.5,2.5-8.5,3.5-12.8c-1.4-12.3-7.9-23.5-8.7-35.9c0.7-1.9,3-2.7,4.4-4.1c-5.9-18.4-16.4-35.4-19.4-54.7
	c3.5-0.6,7,0.2,10.3,1.3c-4.2-7.5-9.3-14.8-11.7-23.2c12.1,7.6,18.5,21.6,30.8,29c-1.7-8.8-8.4-15.3-15.2-20.6
	c-6.1-5.1-12.5-10.9-14.4-18.9c7.3-2.4,12.8,4.2,19,6.6c-3.7-8.2-9.9-15-14.6-22.7c-2.8-4.7-4.1-10.3-2.7-15.7
	c13.6,10.1,26.1,22,36.7,35.3c-5.5-1.9-7.9-8-13.2-10.2c2.4,7.2,7.8,13,14.5,16.4c-1.2,0.5-2.5,1.1-3.7,1.6
	c8,10.4,17.3,20.2,22.1,32.6c-10.8-13.1-21.1-26.9-34.8-37.1c1.4,7,7.4,11.7,10.3,17.9c-2-1.1-3.8-2.5-5.8-3.6
	c5.7,14.2,19.9,23.4,24.4,38.3c-6-6.9-11.1-14.8-18.7-20c1.6,6.2,3,12.5,4.5,18.8c1.4,6.1,3.8,11.9,5.3,18c-3.7-2.2-5.7-6.5-9.7-8.2
	c3.7,16.8,8.6,33.3,12.8,49.9c-6.8-3.3-8.7-11.5-15-15.4c2.8,17.3,6.9,34.3,9.6,51.7c-4.4-13.8-5.9-28.5-12-41.8
	c-2.5,11,5.1,20.4,6.3,31c-1.8-2.6-3-5.5-4.6-8.2c-0.6,9.8,1.6,19.5,3.6,29c1.5,8,2.4,16.5-0.7,24.3c-1.2-3-2-6.1-3.7-8.9
	c-3.4,14.8,3,30.1-0.6,44.9c-4.5-7.5-5.7-16.4-9.5-24.1c0.3,2.2,1.2,4.3,1.3,6.6c-1,2.7-5.1,3.7-4.5,7c0.3,7.7-1.4,15.3-2.1,23
	c-0.6,4.1,1,8.4-1.1,12.2c-2.8,6.2-2.6,13.6-6.5,19.4c-1.2,2.4-4.1,1.8-6.3,2.4c0.2,3.2,0.6,6.3,0.9,9.5c-2.6-4.9-6.8-8.6-9.7-13.4
	c0.7,7.7,3.3,15.1,2.8,22.9c-2.6-1.8-2.8-5.1-4.7-7.3c-1.2,4.5,0.7,9.1,0.1,13.7c-1.5-1.4-2.7-2.9-4-4.3c-0.1,2.5-0.1,5-0.1,7.5
	c-2.2-0.4-4.4-0.7-6.6-1.1c0.2,2,0.4,4.1,0.4,6.2c-6.3-5.7-7.5-15.1-13.9-20.7c1,8.2,8.7,14.9,6,23.6c-1.8-1.7-2.9-3.8-4.2-5.8
	c0.2,2.7,0.6,5.4,0.9,8.1c-1.8-1.7-3.6-3.5-5.3-5.3c-1.3,0.8-2.5,1.7-3.8,2.5c-2-4-3.8-8.1-5.7-12.2c0.6,3.7,1.3,7.5-0.3,11.1
	c-6.8-7.2-5.1-18.3-10.5-26.4c-1,5-0.5,10.8-4.2,14.8c-2.6-5-2.5-10.9-0.8-16.1c1.3-4,3.1-7.9,4.2-12c-5.3-5.3-4.4-13.5-7.7-19.8
	c-1.1,11.5-1.6,23.1-2.1,34.6c-0.2,3.1,0.5,6.2,0.7,9.2c-2.1-8.9-1-18.8-5.8-27c-1.1,7.2-1.8,14.5-2.2,21.8
	c-4.8-11.4-4.2-24.3-9.2-35.7c0.8,12.1,3.1,24.2,3.1,36.3c-2.3,0.7-4.6,1.4-7,2c1.3,5.1,1.1,12.5-4.7,14.8
	c-1.4-7.7-0.2-16.2-4.5-23.2c-2,9,1.2,18.6-2.5,27.4c-1.2-6.3-1.6-13-5.3-18.4c-0.9,2.6-1.2,5.3-2.1,7.9c-0.9,1.8-3,1.9-4.7,2.4
	c-0.4-4.4,0-8.8-1.1-13c-2.5,5.7-1.2,12.4-4.7,17.8c-2-0.2-3.7-1.1-5.3-2.1c-1,2.8-2.6,5.4-5.8,5.8c-0.8-1.9-1.6-3.8-2.6-5.7
	c-0.9,4.4,1.8,10.8-3.4,13.1c-2.9-9.5-3.4-19.7-7.5-28.9c-4.2,8.4-0.1,17.7-0.7,26.5c0,2.8-1.7,5.2-3.5,7.3
	c-1.7-8.3-2.1-16.9-4.3-25.1c-0.9,5.9,0.6,11.9,0.4,17.8c0,2.8-1.5,5.2-3.3,7.2c-2.4-15.5-0.7-31.5-4.6-46.8
	c-3.7,9.2-3.6,19.3-5.7,28.9c-1,4.2-2.5,8.3-5.5,11.5c-0.8-6.2,2.1-12.5,0.5-18.6c-3.5,4.6-5.5,10.2-9.1,14.9
	c-1.6,2.6-4.7,4.3-5.3,7.5c-0.5,2.2-1.9,3.9-3.7,5.3c2.1-10.2,4.9-20.2,7.5-30.2c2.8-4.4,6.7-7.9,10.2-11.7c0.6,0.6,1.7,2,2.3,2.6
	c7.8-15.5,19.1-28.8,29-42.9c1-3.8-0.5-8,1-11.8c0.7-1.8,2.7-2.5,4.3-3.3c0.8,2.3,1.7,4.6,2.9,6.8c1.4-2,2.4-5.2,5.5-4.8
	c-0.7,5.5-2.5,10.8-3.3,16.2c1.2,0.9,2.4,1.9,3.6,2.8c-7.7,13.4-5.2,30-0.1,43.8c0.3-7.2-1.1-14.4-1.4-21.6
	c-0.2-4.1,1.5-8.1,4.6-10.9c1.1,0.8,2.2,1.5,3.3,2.3c0.7-2.7,0.3-6.9,3.7-7.9c2.9,0.4,2.6,4.2,4,6.2c-0.9-9.2,0.4-19.1,5.9-26.8
	c4.8-5.9,9.6-11.8,14.5-17.6c5.9,11,8.6,23.3,12.6,35c-0.7-13-4.8-25.5-6.9-38.3c-1-5.9-2.3-11.7-2.8-17.7c2.7-4.3,2.2-9.9,6-13.5
	c-1.1-6.6-4.5-12.5-7.9-18.1c-2.3-3.8-3.3-8.4-1.7-12.7c2.2,1,4,2.6,5.8,4.3c2.1-2.9,5.1-4.9,7.2-7.7c0.4-4-2.5-8.5,1.3-11.7
	c-1.6-4.6-4.4-9-4.7-13.9c-0.3-2.9,1.6-5.3,3.7-7c2,3,3.5,6.3,6.2,8.8c2.1-14.1-8.9-25.8-9-39.8c3.2-0.7,6.8-1.7,10-0.2
	c2,0.8,2.9,2.8,3.8,4.5c-2.5,0-5-0.5-7.5-0.7c-0.3,3.1,0.5,6.1,2.3,8.7c0.9-2.3,1.9-4.7,3.5-6.6c5.5,4.9,8.4,12,11.1,18.8
	c6.5,18.6,8,38.6,15.8,56.8c-1,0.7-2,1.5-3,2.3c1.2,6.1,2.8,13.8-2.3,18.6c1.6,6.1,4.3,12.5,2.3,18.9c-2.2-2.1-3.7-4.8-5.7-7.1
	c0.8,5.4,2.5,10.7,5.7,15.1c3.3-7.4,8.5-13.7,14.6-18.9c-0.7-3-2-6.3-0.9-9.4c0.6-1.6,2.5-1.6,3.9-2.1c3.7,5.8,3.9,13,7,19.1
	c1-8.9,1.3-17.9,1.1-26.9c0.2-2.8-1.6-5-2.5-7.5c3.6,5,3.7,11.8,7.5,16.9c-0.4-13.8-7-26.9-5.6-40.8c0.6-0.1,1.9-0.2,2.5-0.2
	c0.9,1.5,1.8,3.1,3.2,4.3c0.3-4.3-2.2-8-5.3-10.7c-0.3,1.7-0.6,3.5-0.9,5.2c-14.7-15.2-20-36.3-30.3-54.2
	c4.6,25.6,15.5,50,16.1,76.3c-9-29.9-16.9-60.2-26.6-89.9c-1.6-4.9-4-9.9-2.8-15.1c0.2-2.3,2-3.8,3.6-5.2
	c7.9,12.1,10.6,26.8,18.6,38.8c-2.9-14.6-9-28.4-14.8-42.1c-5.6-13.6-11.6-27-15.9-41c-2.1-7.7-4.4-16.1-1.4-23.9
	c3.8-0.3,6.2,2.9,9,4.9c-3.2-7.8-5.7-15.9-7.1-24.2c1.2-1.8,3.3-3.1,3.8-5.2c-2.5-5.2-5.5-10.3-5.6-16.2c1.5-0.9,3-1.7,4.5-2.5
	c-2.5-5.9-5.2-11.7-7.5-17.6c-1.9-5.2-0.2-11.2,4.6-14.1c14.6,11,20.5,29,31.3,43.1c-6.1-18.6-18.3-34.4-31.6-48.4
	c-1.3,0.8-2.7,1.5-4,2.2c-0.9-4-0.6-8.5,2.6-11.5c-6.7-10.5-15.3-19.5-22.9-29.3c-3.2-3.9-5.3-8.5-8.5-12.4c3,3.4,7.3,4.7,11.3,6.4
	c-3.2-4.6-5.9-10.8-2.5-16.1c14.1,5.4,24.7,16.4,36,25.9c4.4,3.5,8.9,7,14.2,9c-16.6-18.9-36.8-35-60-45.1c-1.4-3.4-3.9-6-6.6-8.4
	c-2-1.6-1.6-4.2-1.5-6.4c5.9,2,10.8,6.1,16.4,8.8c3.1-0.1,6.3,0,9.2,1.4c6.3,2.8,12.2,6.5,18.8,8.6c-14.9-9.7-30.1-18.9-45.4-27.9
	c-7.3-4.2-14.6-8.6-22.4-11.9c-0.2-1.6-0.4-3.2-0.6-4.8C768,361.5,761.5,357.3,754.8,353.3z"/>
<path d="M379.7,354.9c2.2-0.6,4.9-1.1,6.8,0.6c1.2,1.2,1.8,2.9,2.5,4.4c2.3-0.5,4.6-0.9,7-1.1c0.6,2.9,1.1,5.9,2.9,8.3
	c3.9,1.7,8.5,2.3,12.7,1.7c5.7-4.9,11.5-9.6,18.4-12.7c-1.3,7.2-2.7,14.4-5,21.4c-3,0.1-5.9-0.4-8.9-0.7c-0.6,3.6-0.7,7.4-2.7,10.5
	c-1.1,1.7-3.4,1.4-5,1.9c0.8-6.3,1.9-12.5,3-18.7c-6.8-1.2-13.7-1.8-20.2-4.2c-1,1.9-1.8,4.2-3.7,5.4c-1.9,1.4-4.3,0.4-6.5,0.2
	c-0.7-5.5,3-10.7,0.8-16.1c-4.7,1.2-8.3,4.8-9.8,9.4c2.2,0.2,4.4,0.3,6.6,0.6c-0.1,2.5-0.5,5-1.2,7.4c-8.2,2-16.4,4.5-24.7,5.7
	c3.9-6.6,7.5-13.4,11.2-20.1C369.3,357.9,374.5,356.4,379.7,354.9z"/>
<path class="st0" d="M721.2,361.7c4.9-0.1,10.1,1.4,13,5.6C729.1,371,724.3,365.3,721.2,361.7z"/>
<path class="st0" d="M546,369.8c1.6-3.2,4.3-5.6,7.5-7c-0.6,3.2-1.9,6.2-3.2,9.2C548.9,371.2,547.4,370.5,546,369.8z"/>
<path class="st0" d="M628.1,365.8c2.6,0.1,3.4,2.6,4,4.8C630.1,369.6,628.6,368,628.1,365.8z"/>
<path d="M858.5,365.5c5.2,0.6,9.7,4.8,9.9,10.2C865.1,372.4,861.7,369,858.5,365.5z"/>
<path class="st0" d="M602.3,368.6c1.6,1.5,3.2,3.2,4.6,4.9c-2.1-0.2-4.1-0.7-6.1-1.2C601.3,371,601.8,369.8,602.3,368.6z"/>
<path class="st0" d="M264.7,370.4c3.1-0.7,6.3-0.6,9.4-1c-4.9,6-9.5,12.2-14.1,18.3c2,1.2,4,2.5,5.8,4.1c-0.2,0.8-0.7,2.3-0.9,3
	c-0.7,0-2-0.1-2.7-0.1c-1.4-2.7-2.5-5.9-5.9-6.6c0,2,0.9,4.2-0.3,6c-1.8,3.1-4.7,5.5-7.8,7.3c1.8-3.8,6-5.8,7.6-9.8
	c-5.8-3.5-10.9,4.2-16.8,1.8c0.6-7.3,8.8-7.7,14.4-8.7c1.5-2.9,3.8-5.5,7.2-6C261.5,375.7,263.2,373.1,264.7,370.4z"/>
<path class="st0" d="M704.7,373.8c9.7,4.2,18.4,10.1,27.4,15.6c-0.9,1.6-1.9,3.2-2.8,4.8c2.2,1.2,4.7,2.4,5.6,4.9
	c-2.8-1.4-5-3.6-7.4-5.6C720,386.9,712.2,380.6,704.7,373.8z"/>
<path class="st0" d="M441.7,383.7c7.1,4,13.5-3.6,20.7-2.1c-3.6,3.3-9.2,1.6-13,4.5c4.6,1.5,9.4,0.7,14,0c-2.9,1.6-5.9,3.1-8.1,5.7
	c5.8-1,11.4-2.9,17.2-3.7c-4.9,3.5-11.4,2.3-16.2,6c0.4,2.5,0.8,4.9,0.9,7.4c1.4,0.2,2.7,0.5,4.1,0.8c-0.9,6.2-4.3,12-3.6,18.4
	c10.4-0.3,20.7-1.6,30.9-2.9c10.9-1.8,21.9-2.7,32.9-1.7c-0.9,0.8-1.8,1.5-2.7,2.3c4.8,0.4,9.3-1.5,13.9-2.3
	c1.5,17,2.8,33.9,4.9,50.8c-4.3,0-6.8-4.3-10.8-5.4c-0.2,2.3-0.4,4.6-0.6,6.9c-3.6-1.5-7.3-3-10.8-4.7c2.1-3.2,5.8-4.8,7.8-8.1
	c-4.7-2.8-10.2-3.5-15.6-3.9c-6.3-0.4-12.6-1-18.9-2.2c-2.5-0.8-4.5,1.5-6.6,2.5c-9.9-4.9-19.3-11.5-30.2-13.9
	c-0.1,2.2-0.1,4.3-0.1,6.5c-2.1-2.8-3.4-6.7-7.2-7.4c0.4,2.7,1,5.4,1.6,8.1c-5.2,0.9-10.5,1.3-15.7,2c-2.5,5.4-4.1,11-5.3,16.8
	c-1.8-1.5-3.5-3.1-5.3-4.6c1.4-0.6,2.8-1.3,4.2-1.9c-1.8-3-3.4-6-5-9.1c3,0.1,6-0.1,8.9-1c-1.5-3.2-3.2-6.3-4.5-9.7
	c1.3,0.2,2.5,0.6,3.7,1.2c1.3,2.5,1.7,5.6,4.2,7.3c0.5-2.3,0.8-4.6,1-6.9c3.4-1.7,7-3.2,10-5.6c-3.1-0.1-5.9,1.2-8.7,2
	c-1.5-6.1-4.2-11.7-6-17.7c-2.7,0.2-5.3,1-7.7,2.1c-0.6-3-0.6-6.1,0.1-9.2c-2.4-0.2-4.8-0.3-7.2-0.5c4.1-3.4,9.1-5.8,14.4-6.6
	c-1.5,1.9-3.9,3.2-4.4,5.7c4.6-0.5,8.1-3.8,10.2-7.6c1.8-3,4.5-5.3,7-7.9c-2.2-1.5-4.8-2-7.4-2.4
	C435.4,388.8,438.7,386.5,441.7,383.7z"/>
<path class="st0" d="M552.2,396.6c0.1-5.4,0.8-10.9,2.8-16c1.7,2.7,3.2,5.5,4.5,8.4c-1.2,0.5-2.4,1.1-3.5,1.6
	c-0.2,4.4,3.9,7.2,4.3,11.5C557.6,400.2,555,398.2,552.2,396.6z"/>
<path class="st0" d="M647.1,381.5c2.1,0.3,4.3,0.9,6,2.2c-1.4,0.6-2.7,1.2-4.1,1.7C648.4,384.1,647.7,382.8,647.1,381.5z"/>
<path d="M310.4,382.2c8.4,3.5,16.8,7.6,23.4,14c-4.7-0.8-8.4-4.2-13.2-4.9c1,3.9,2.4,7.7,4,11.3c-1.7,0.6-3.7,0.7-4.9,2.1
	c-0.4,1.8-0.4,3.7-0.6,5.5c-4.1,0.1-6.8-3.1-8.9-6.2c-2.1,1-4.4,1.8-6.7,2.5c-0.8,3.4-1.6,6.8-3.1,10c-3,2-6.1,3.8-8.6,6.4
	c-5.6,5.2-9.2,12.2-15,17.4c-1.4-6.4,0.2-12.8,1.3-19.1c1.8-0.1,3.5-0.2,5.3-0.4c1.5-4.8,2.4-9.7,4.5-14.3c1.5,0.4,3,0.8,4.5,1.2
	c0.9-6.5,5.3-11.9,5.4-18.6c1.6,0.5,3.2,1.1,4.8,1.7c-0.1-2.1-0.2-4.2-0.1-6.3c8.9,4.1,5.9,16.5,13.5,21.7
	C318.5,397.6,311,390.7,310.4,382.2z"/>
<path class="st0" d="M350.9,387c2.1,0.2,4.6,0.2,6.2,1.8c5.6,8,16.4,9.6,22.3,17.2c-8.4-1.5-16.3-6-25-4.2c0.4-2.4,2.5-3.4,4.5-4.4
	C357,393.3,351.3,392,350.9,387z"/>
<path class="st0" d="M370.1,388.9c4.5-0.4,9,0.4,13.1,2.2c-1.5,1.4-2.4,3.2-2.7,5.2C376.4,394.8,372.9,392.1,370.1,388.9z"/>
<path class="st0" d="M656.1,392.1c0.4-0.8,0.8-1.5,1.2-2.3c1.3,4.1,2.6,8.2,3.7,12.3C659.3,398.9,657.7,395.5,656.1,392.1z"/>
<path class="st0" d="M629.5,390.9c5.4,2.9,12.8,2.8,16.4,8.3c-0.3,1.4-0.9,2.7-1.4,4c-2.5-2.5-5.2-4.8-8.3-6.4
	C633.6,395.3,630.7,393.8,629.5,390.9z"/>
<path class="st0" d="M387.4,392.5c6.2,2.9,12.5,6.6,16.1,12.5C396.4,403.9,390.1,399.1,387.4,392.5z"/>
<path class="st0" d="M543.2,415.2c-5.6-4.2-2.2-11.5-0.3-16.8C543.1,404,543.4,409.6,543.2,415.2z"/>
<path class="st0" d="M460.4,415.1c0-8.8,8.8-15.6,17.3-14.5c-4.7,2.6-10.2,4-14,8c1.6,0.1,3.1,0.3,4.7,0.4c0,2.3,0,4.7,0,7
	C465.7,415.6,463,415.4,460.4,415.1z"/>
<path class="st0" d="M697.8,400.8c5.2,5.2,10.4,10.3,15.6,15.5C704.9,416.4,698.8,408.6,697.8,400.8z"/>
<path class="st0" d="M488.7,406.5c1.9-1.9,4.5-2.5,7.1-2.5C493.7,405.6,491.2,406.2,488.7,406.5z"/>
<path class="st0" d="M475.7,407.6c2.4-1.3,5.1-2.1,7.8-2.6C482.4,408.3,478.5,408,475.7,407.6z"/>
<path class="st0" d="M382.5,406.2c7.1,2.9,14.4,5.4,21.7,7.7c-1.7,1.5-3.5,3-5.3,4.3c-0.7-2.1-1.1-4.8-3.5-5.7
	C391,410.5,385,411.3,382.5,406.2z"/>
<path class="st0" d="M724.1,407.7c1.5,1.6,3.2,3.2,4.2,5.3c-0.7,1.3-1.6,2.5-2.4,3.7C727,413.5,725.5,410.6,724.1,407.7z"/>
<path d="M896,409.6c5.7,2.8,11.9,6.2,14.4,12.5c-1.4-0.4-4.1-1.2-5.4-1.6c2.5,4,6.3,7.4,7.2,12.2C906.3,425.3,901.7,417.1,896,409.6
	z"/>
<path class="st0" d="M556.5,412.5c2,1.8,2.9,4.4,3.9,6.9c0.7,1.8-1.2,3-2.2,4.1C557.4,419.9,556.1,416.3,556.5,412.5z"/>
<path class="st0" d="M405.3,421.2c0.4-2.9,3-3.7,5.6-3.6c-0.5,1-1,1.9-1.5,2.9C408.1,420.8,406.7,421,405.3,421.2z"/>
<path class="st0" d="M635.7,417.6c2.8,1.6,6.2,2.8,8.3,5.3c6.2,16.4,19.4,28.9,25.9,45.1C658,451.6,646.1,435.1,635.7,417.6z"/>
<path class="st0" d="M551.7,442.9c-6.6-5.5-7-15.6-4.3-23.3C548.6,427.4,551.7,434.9,551.7,442.9z"/>
<path class="st0" d="M361,432.5c1.1-3.9,3.8-7.3,7.7-8.7c0.5,1.9,1.8,4.3,0.2,6.1C367.2,432.5,363.9,433.1,361,432.5z"/>
<path d="M489,427.7c6.4,1.2,12.2-2.2,18.1-4.1c0.4,1.9,0.8,3.9,1.1,5.8c5-0.2,9.9-1.3,14.9-1.2c2.2,0,4,1.5,5.6,2.8
	c-13.5,2.1-27.1,3.7-40.6,5.7c2.7,1.5,5.4,2.9,8.1,4.4c-11.1-3-23.8-4.4-32.3-13C471.4,423,480.6,427.3,489,427.7z"/>
<path class="st0" d="M559.1,425.6c4.6,6.5,7.9,13.8,12.1,20.6c-1.8,1.4-2.5,3.6-2.5,5.8c-2.3-0.6-4.6-1-6.8-1.5
	c-1.3-5.8-1.5-11.9,0.2-17.6C559.3,431.4,559.3,428.3,559.1,425.6z"/>
<path class="st0" d="M418.8,431.2c2.7-1.4,5.5-2.6,8.4-3.6c0.1,2.5,0.1,5.1,0,7.6C424,434.9,421,433.6,418.8,431.2z"/>
<path class="st0" d="M695.9,431c1.2,1.3,2.3,2.7,3.5,4.1c0.8-0.8,1.7-1.6,2.6-2.4c0.8,3.4,3.3,6.6,2.5,10.3
	C701.2,439.3,698.5,435.2,695.9,431z"/>
<path class="st0" d="M708.1,442c-0.6-3.2-3.3-6.8-0.9-9.9c8.7,8.7,19.1,15.5,27.8,24.2c-7.7-3.2-14.8-7.8-22.5-10.8
	C710.8,444.7,708.2,444.3,708.1,442z"/>
<path class="st0" d="M613.9,436.2c3-2.1,7-2.6,10-0.1c8.2,6.1,13.6,15.8,15,25.9c2.7,16.8,2,34.3-3.3,50.6
	c-1.1-21.3-4.5-42.9-13.9-62.3C619.6,445.4,616.6,440.9,613.9,436.2z"/>
<path class="st0" d="M679.1,435.6c4,6.2,7.8,12.7,10.2,19.7C683.3,450.5,680.3,443,679.1,435.6z"/>
<path d="M915.2,436.7c8,7.6,16.6,15.2,21,25.5C929.6,453.4,922.2,445.2,915.2,436.7z"/>
<path class="st0" d="M723.8,439.4c3.6-0.1,6.7,2.2,7.6,5.7C728.4,443.9,725.8,441.9,723.8,439.4z"/>
<path d="M497.8,441.8c3.7,1.2,8.4,1.5,10.8,5c0.9,0.9,2.1,1.4,3.2,2.1c-6.4-1-13.2-0.3-19.4-2.6c4.7-0.9,9.3,0.1,14,0.3
	C503.7,444.8,500.6,443.5,497.8,441.8z"/>
<path d="M902.2,441.4c6.3,6.5,12.8,12.8,19.2,19.2c8.2,13.7,21.6,23.3,30.7,36.3c-0.5,1.7-1,3.4-1.4,5.1c2.1,4.9,5.3,9.3,7.2,14.3
	c-9.5-3.3-11.6-14.9-20.4-19.2c-0.3,0.7-0.8,2.1-1.1,2.8c-8.5-7.4-17-15.4-27.3-20.1c4.8,9.4,12.4,16.8,19.1,24.8
	c9.6,11.4,19.9,22.3,28.6,34.4c4.1,5.9,8.1,12,10,19c-18.9-23.3-39.1-45.7-58.5-68.5c-4.1-4.5-7.3-11-4.2-17
	c6.2,2.5,11.4,6.7,17.3,9.8c-5.4-10.4-18.8-15.2-21-27.5c3.4-0.1,6.4,1.7,9.5,2.7C907.1,452.3,900.6,448.2,902.2,441.4z"/>
<path class="st0" d="M611.2,443.9c5.3,16.3,13.5,31.6,17.7,48.3c2.9,11,4,22.5,3.2,33.9c-0.2,1.3,0,3-1.2,3.8
	c-2.9,2.5-5.4,5.6-8.2,8.2c-3.2-10.3-5.4-21-7.3-31.6c0,2.8,0.7,5.6,1,8.4c-3.2-2.6-4.3-7.2-2.1-10.7c-2.3-11.3-5.3-22.5-7.3-33.9
	c3.5,4,5.8,8.8,8.5,13.2c2.6,4.2,6.5,7.6,11.2,9.4c-2.5-7.2-6.3-13.9-10.8-20.1C616.6,462.9,612.5,453.6,611.2,443.9z"/>
<path d="M375.2,449.2C375.8,449.8,375.8,449.8,375.2,449.2z"/>
<path d="M514.5,449.2c1.2-0.9,1.9-0.7,2.2,0.6C515.5,450.7,514.7,450.5,514.5,449.2z"/>
<path class="st0" d="M703,449.4c8.2,12.2,21.7,19.1,31.4,29.9c-9.3-4.8-18.1-10.5-27.6-14.9c-1.9,0.8-3.9,1.7-5.8,2.6
	c-0.5-0.3-1.4-0.9-1.9-1.2C701.1,460.5,700.9,454.7,703,449.4z"/>
<path class="st0" d="M607.1,450.8c1.8,2,3,4.3,4.1,6.7c-1.5-0.8-3.5-1.1-4-2.9C607.1,453.4,607,452.1,607.1,450.8z"/>
<path class="st0" d="M466.1,462.2c2-3.9,5.8-6.2,8.9-9.1c4.2,1.9,9,2,13.3,3.9c-3.1,0.2-6.3,0.5-9.2,1.8c1.2,4.9,6.7,4.2,10.4,5.5
	c3.4,6,10.9,8.1,13.7,14.5c-9.5-4.4-17.3-12.1-27.6-14.6c-1.3,4.1,0.5,8.2-0.1,12.3c8.4,8.8,17.7,18.6,30.3,20.6
	c-4.3-6.2-11.3-9.7-16-15.5c6.1,2.3,10.9,7,16.8,9.8c0.8-0.8,1.6-1.6,2.5-2.4c1.9,0.7,3.8,1.3,5.7,1.9c0.5-3.6,0-7.4-2.4-10.2
	c-3.9-4.8-8.9-8.7-12.7-13.5c5,0.9,9.9,2.2,14.8,3.7c3.2-3.2,7.8-0.9,11.5,0.1c0.6,8.3,1.8,16.5,3.1,24.7c-2,1.9-3.6,4.2-4.4,6.9
	c-2.1-0.4-4.3-0.3-6.4,0.3c4.3,14.7,10.6,28.7,14.7,43.4c0.5,2.3-1,4.3-1.8,6.4c-4-12-8.1-24-10.1-36.5c-1.8,0-3.5-0.1-5.3-0.1
	c-1-4.6-0.2-11.9-6.3-13c-4.5,5.9-0.1,13,1.8,19c-4,4.7-6.5,10.4-10.6,15.1c0.2-4.7,1.3-9.3,1.3-14.1c0-2.5-1.7-4.5-3.1-6.5
	c-2,0.5-3.9,1.1-5.8,1.8c-4-3.3-5.3-8.6-3.1-13.3c4.5,3.8,9.6,6.8,13.9,10.8c0.7-0.9,1.3-1.9,2-2.8c-4.3-5.4-11.5-8.1-14.6-14.5
	c0.9-0.8,1.9-1.5,2.9-2.3c-6.8-5.1-14.2-9.4-21.6-13.5c-3,3.8-7,7.3-7.7,12.4c-7.7,0.5-15.1-3.7-22.8-1.8c1.7,1.7,3.5,3.2,5.2,4.9
	c-3.3,1.2-6.3-1.1-9.4-1.7c0.9-8.2,7-14.5,8.9-22.4c1.5,1.5,2.9,3.1,4.4,4.6c2.1-0.8,4.1-1.9,5.9-3.2c-0.3-5.9-4.3-10.7-4.8-16.6
	C456.8,459.8,461.5,460.9,466.1,462.2z"/>
<path class="st0" d="M755,456.1c3.1,2.3,6.2,4.7,9.2,7.1c-3.5,1.9-7.1,0.5-10.1-1.5C754.4,459.8,754.7,457.9,755,456.1z"/>
<path d="M361.9,459c1.2-2.1,3.8-2.2,5.9-2.6c-2.6,8.5-5.2,17.1-8.6,25.2c0.2-3.4,1.3-6.7,0.8-10.1c-1.3,1.6-2.5,3.2-3.5,5.1
	c-6.1,11.8-8.8,25.1-15.4,36.7c0.9-9.2,3.9-18.1,5.6-27.2c-2.5,2.7-4.6,5.9-7.3,8.4c-1.7,1.7-4.3,1.1-6.4,0.8c0.8-2.9,1.9-5.6,3-8.4
	c-4.5-0.6-9.2,1.7-13.2-1c-1.8,2-3.4,4.2-4.9,6.4c0.5,1.3,1.1,2.5,1.6,3.8c-0.6,1.1-1.3,2.2-1.9,3.2c1.5,1.2,5.5,1.8,4.1,4.4
	c-7.2,1.5-12.5-4.8-19-6.3c-4.1,0.5-6.8-3.1-9.5-5.5c1.3-2.8,2.8-5.5,4.4-8.2c-2.7-1.2-6.9-2.7-5.2-6.4c6.3,0.9,12.6,2.4,18.3,5.5
	c-0.1,1.8-0.2,3.6-0.3,5.4c1.8,0.3,4.1,1.6,5.4-0.3c3.7-5.3,4.6-12.2,8.9-17.1c1.9-1.1,4.3-0.5,6.1-1.9c2.8-1.4,5-4.3,8.3-4.4
	c0.9-0.1,1.8-0.3,2.6-0.5c0.4,1.2,0.9,2.4,1.4,3.6c3.9-1,5.9-5.2,9.9-6.1c0.5,1.6,1.1,3.1,1.6,4.7C358.1,465,360,461.8,361.9,459z"
	/>
<path class="st0" d="M438.1,480.2c1.8-7.6,3.9-15.2,6.6-22.5c0.8,1,1.6,2.1,2.3,3.1C444.2,467.4,441.5,473.9,438.1,480.2z"/>
<path d="M209.5,471c2.5-5.6,7.6-9.4,12.6-12.5C218.8,463.5,214.8,468.1,209.5,471z"/>
<path d="M233.1,461.2c0.9-0.3,1.8-0.7,2.7-1c5.9,7.2,12,14.2,16.9,22.1c3.3,5.6,6,12.4,4.4,19c-1.2,4.9-5.2,8.3-9.4,10.8
	c3-5.4,7.9-11.1,5.3-17.7c-5.3,5.3-10.8,10.8-14.1,17.6c-0.9,2-2.9,3.1-4.5,4.4c-9.4,6.7-18.9,13.5-29.2,18.7
	c-0.2,9.6-0.7,19.2-3.2,28.5c2.5,1.1,5,2.4,7.4,3.6c-2.8,2.3-5.3,4.7-7.8,7.3c-1.4-1.3-2.9-2.8-4.2-4.2c-8.1,3.5-16.5,6.2-24.6,9.7
	c-0.9-2-1.8-4-2.8-6c6.6-0.4,13.3-3.2,17.2-8.8c6.6-9.2,8.2-20.9,8.8-31.9c-3.6-0.5-7.1-0.9-10.7-1.6c1.7-0.4,3.5-0.5,5.1-1.1
	c0.5-1,0.9-2,1.4-2.9c12.3-0.7,23.9-6.7,32.6-15.2c7.3-6.8,13.1-15.1,18.2-23.6c3,1.3,6.2,2.2,9.5,2.2c-1.6-3.5-3.7-6.8-6.5-9.5
	c-0.1,1.9-0.2,3.8-0.3,5.8C239.3,479.7,238.3,469.4,233.1,461.2z"/>
<path class="st0" d="M739.6,462.1c1-0.5,2.1-0.9,3.2-1.3c-0.1,1.6-0.3,3.2-0.5,4.8C741.4,464.5,740.5,463.3,739.6,462.1z"/>
<path class="st0" d="M580.7,464.2c1.3,0.6,2.5,1.5,3.2,2.9c6,10.1,10,21.1,13.8,32.2c2.4,7.5,5.7,15.1,5.2,23.2
	c-3-4.9-4.6-10.5-6.7-15.8c-3.7-10.9-7.7-21.8-9.7-33.2C584.9,470.2,582,467.7,580.7,464.2z"/>
<path class="st0" d="M275.4,468.1c1,0.4,2,0.7,3,1.1c-0.7,1.8-1.5,3.5-2.3,5.2c-0.8-0.1-2.4-0.4-3.3-0.5
	C273.7,471.9,274.6,470,275.4,468.1z"/>
<path class="st0" d="M733,469.2c5,1.3,11.9,2.2,12.9,8.4C741.5,475,737.3,472,733,469.2z"/>
<path class="st0" d="M277.4,478.6c1.7-3.2,4.2-5.8,7-8C283,473.9,280.5,476.7,277.4,478.6z"/>
<path class="st0" d="M575,470.4c1.6,2.8,3.2,5.6,3.3,8.9C576.1,476.8,574.8,473.7,575,470.4z"/>
<path class="st0" d="M422.2,489.2c1-5.3,6.4-7.7,10.2-10.8c0.4,6.1-2.8,11.6-2.6,17.7c5.4,2.7,11,4.8,16.3,7.4
	c-14.3,0.6-26.8-8.5-35.8-18.8c2,0,4,0.1,5.9,0.1c-0.6-1.6-1.2-3.1-1.8-4.7c2.4,0,4.9,0.1,7.3,0.4
	C422.2,483.3,422.5,486.3,422.2,489.2z"/>
<path class="st0" d="M723.9,479c2.9,1.8,5.9,3.6,8.9,5.4c0.1,9.6,0.5,19.4-1.6,28.9C723.3,503.8,722.5,490.7,723.9,479z"/>
<path class="st0" d="M545.8,498.5c-2.2-2.8-2.3-8.4,1.5-9.9C547.7,492,547.9,495.6,545.8,498.5z"/>
<path class="st0" d="M573.9,490c5.9,11.1,12,23.2,11.1,36.1C580.1,514.4,577.2,502.1,573.9,490z"/>
<path class="st0" d="M474.1,495.7c3.4,0.9,6.1,3.1,8.1,5.9c-1.4,0.7-2.9,1.3-4.3,1.9C476.7,500.9,475.4,498.3,474.1,495.7z"/>
<path class="st0" d="M603.9,499.2c4.9,9.1,10.4,19.6,7.6,30.2C608.5,519.5,602.7,509.9,603.9,499.2z"/>
<path class="st0" d="M466.1,540c-1-11.9-1.7-25.6,6.2-35.5C473.8,516.5,470.2,528.7,466.1,540z"/>
<path d="M422.7,506c9.5,0.7,12.3,13.5,22.1,13.1c-3.4-3.1-7.6-5.5-10.4-9.3c3.4,2.2,6.8,4.5,10.5,6.2c3.2,1.4,5.8,3.8,7.5,6.8
	c-1.9,0.8-4.6,0.8-5.5,3c-0.6,1.1-1,2.3-1.5,3.5c-5.7,1.3-11.1-1-16-3.7c3.1,3,6.6,5.5,9.7,8.5c-4.2,1.7-7.8-1.4-11.7-2.3
	c2.9,3.1,8.2,3.9,8.9,8.8c-5.2-0.1-9.8-2.5-14.8-3.6c3.2,3.4,7.5,5.4,11.8,7.1c-0.4,1.9-0.9,3.7-1.4,5.5
	c-11.1-1.8-21.1-8.8-26.7-18.6c1.2-0.3,2.4-0.7,3.7-1c-1.2-2.8-2.6-5.4-4-8.1c7.4,0.8,11.6,7.5,18,10.4c-2.5-5.2-6-9.8-8.6-15
	c1.7,0.9,3.4,2,5,3c-0.5-1.9-0.9-3.7-1.3-5.6c5.1,0.3,9.5,3.4,12.9,7c2.7,2.9,6.4,5,10.5,4.5C435.9,519,425.9,515.3,422.7,506z"/>
<path d="M905.3,509c1.5-1.1,2.9-2.1,4.5-3c6.2,6.8,14.3,11.9,19.7,19.5c-3.2-1-5-4.1-7.9-5.5c2.5,4.4,6.6,7.7,10.1,11.3
	c8.8,8.9,19,16.5,26,26.9c2.9,4.4,5.2,9.2,6.3,14.4c-10-8-18.5-17.6-28.2-25.9c11.7,14.7,26.1,27.3,36.1,43.4
	c1.6,2.2,0.8,5.1,0.4,7.5c-0.8-0.1-2.4-0.3-3.2-0.4c0.3-1.7,0.7-3.3,1-4.9c-7-7.2-13.5-14.8-20.2-22.3c-9.2-9.5-18.4-19-27.1-28.9
	c-4.3-5-8.9-10.1-11.5-16.3c1.4-0.9,2.8-1.8,4.2-2.7C912.4,517.5,906.1,515.2,905.3,509z"/>
<path class="st0" d="M559.3,509.5c0.8,2.8,2.7,6.1,0.6,8.8C559.3,515.4,559.1,512.5,559.3,509.5z"/>
<path class="st0" d="M538.8,512.5c2.9,5.1,4,10.9,5.6,16.5c-2,1.3-3.8,2.7-5.7,4.2c-0.9-2.1-1.6-4.2-2.1-6.3
	c1.1-0.4,2.3-0.8,3.5-1.2C539.6,521.3,538.3,517,538.8,512.5z"/>
<path class="st0" d="M481.4,514.7c1.7,1.2,3.7,2.3,4.6,4.3c2.4,4.9,0.7,10.4,1.6,15.6c1.7,13,0.3,27.2-7.9,37.9
	C479.9,553.2,480.5,533.9,481.4,514.7z"/>
<path class="st0" d="M493.9,564.5c0.8-10.9,7.5-20.4,14.6-28.3c0.1,5.5-1.4,11.1-4.8,15.5C500.5,556,497.4,560.4,493.9,564.5z"/>
<path class="st0" d="M601.4,545.4c0-2.5,0.4-5.1,1.6-7.3C603.2,540.6,602.8,543.2,601.4,545.4z"/>
<path class="st0" d="M534.6,547.5c-0.2-2.3-0.3-4.6,0.3-6.8c0.7,2.3,1.3,4.6,1.6,7C536.1,547.7,535.1,547.6,534.6,547.5z"/>
<path class="st0" d="M552,542.4c3.4,4.5,5.2,10.2,4.8,15.9C554.9,553,552.8,547.8,552,542.4z"/>
<path class="st0" d="M610.6,564.7c-3.8-5.9-1.4-13.5,0-19.9C611.1,551.4,612.9,558.2,610.6,564.7z"/>
<path class="st0" d="M152.6,546.6c2.9-1.1,6.2-0.9,7.7,2.2C157.4,550.2,154.1,549.5,152.6,546.6z"/>
<path class="st0" d="M542.3,545.6c1.1,4.2,1.3,8.5,1.3,12.8C542.2,554.3,541.7,549.9,542.3,545.6z"/>
<path class="st0" d="M469.3,575.2c1.7-8.5,3.1-17.1,4.5-25.7c0.2,12.2-0.9,24.3-1.5,36.5c-0.6,5.4-0.5,11.3-3.7,16
	C466.5,593.1,467.8,584,469.3,575.2z"/>
<path class="st0" d="M550.9,551.6c5.2,9.7,8.5,20.7,8.6,31.8C554.6,573.4,551.8,562.5,550.9,551.6z"/>
<path class="st0" d="M287.5,553.8c6.8,0.5,13,4.7,17.1,9.9C298.7,560.7,292.8,557.7,287.5,553.8z"/>
<path class="st0" d="M520.2,558.8c2.9,4.5,5.8,9,8.8,13.5c2.4-0.3,4.9-0.6,7.3-0.9c7,24.5,7.4,50.5,4.4,75.8
	c-1.2,11.1-3.5,22-5.5,33c6-18.7,8.2-38.4,9.5-57.9c2.3,2.4,2.9,5.8,3.1,9c0.9,10.5,1.6,21.1-0.3,31.5c-2.2,10.8-10.3,19-13.7,29.3
	c-9.2,24.3-17.8,48.8-28.5,72.4c-1.4,2.8-0.7,6-1,9c-1.6,0.2-3.2,0.4-4.8,0.6c-0.3,2.7,0.9,6-1.3,8.1
	c-12.7,14.7-25.2,29.7-36.7,45.4c-6.9,9.5-13.5,19.2-18.9,29.6c1-0.2,3.1-0.5,4.1-0.7c-2.7,7.6-5.9,15.4-11.5,21.3
	c1.7-25.9,14.7-49.4,17.1-75.2c-3.6,1.7-5,5.8-8.7,7.4c1.9-5.2,5-9.8,7.7-14.6c12.4-21.1,25.6-41.7,38.7-62.2
	c15.9-24.9,29.5-51.6,37.5-80.2c0.9,6.4-3,13.2,0.1,19.2c3.4-11.3,2.3-23.2,4.3-34.7c2.4,7.3,0.8,15.2,2.7,22.6
	c1.7-22.6,0.3-45.4-4.2-67.6c1,0.5,2,1.2,3.1,1.7c0.1-2.5,0-5-0.5-7.4c-0.9,1.9-0.7,4.7-2.9,5.7C528,580.8,524.1,569.8,520.2,558.8z
	"/>
<path class="st0" d="M501.8,585c-0.2-8.9,1.3-18.2,6.6-25.5c2,18.5,0.5,37.1-1.1,55.5C502.8,605.7,501.5,595.2,501.8,585z"/>
<path class="st0" d="M495.6,574.8c1-5.2,3.3-10.1,7.1-13.8c-0.6,3.8-1,7.7-2.4,11.3C499.6,574.2,497.3,574.2,495.6,574.8z"/>
<path class="st0" d="M394.6,571.3c4-1.9,8.3-3.5,12.7-4.3C403.5,569.3,399.2,571.4,394.6,571.3z"/>
<path class="st0" d="M482.4,591.1c1.5-8.5,4.5-16.8,8.9-24.2C489.1,575.2,485.8,583.2,482.4,591.1z"/>
<path class="st0" d="M603.8,567.7c1,4.6,1.3,9.4,1,14.1C601,578,602.3,572.3,603.8,567.7z"/>
<path class="st0" d="M550.8,596.9c-3.2-8.3-4.5-17.4-3.6-26.2C548.8,579.4,552,588,550.8,596.9z"/>
<path class="st0" d="M131.6,576.7c0.7-2,3.1-1.4,4.8-1.7c0,4.4-0.1,8.8,0.6,13.2c0.7,6.1,2.4,12.4,0.6,18.4
	c-0.4,1.6-1.6,2.7-2.6,3.8c0.5-2.2,1.3-4.3,2.1-6.4c-3.6,2.7-7.3,5.3-11.2,7.5c1.8-8.1,3.9-16.1,5.9-24.1
	C133,583.9,129.4,580.2,131.6,576.7z"/>
<path class="st0" d="M568.4,574.5c2,3.5,2.8,7.4,3.6,11.3C569,582.9,568.3,578.5,568.4,574.5z"/>
<path d="M190.1,582c-0.4-5.8,9.3-8,10.8-2.1c-2.4,2-5,3.9-7.9,4.9C192,583.9,191.1,582.9,190.1,582z"/>
<path class="st0" d="M791.1,577.5c1.4-0.3,1.5,2.2,0.6,2.9C790.3,580.6,790.2,578.2,791.1,577.5z"/>
<path class="st0" d="M459.1,605.9c0.6-9.6,2.4-19.3,5.8-28.4c0.4,7.3,1.9,14.7,0.7,22C465.2,602.9,462.4,605.2,459.1,605.9z"/>
<path class="st0" d="M383.5,581.1c2.9,1,5.5,2.7,7.7,4.7C388.2,585.1,385,584.1,383.5,581.1z"/>
<path class="st0" d="M478.1,623.3c0.6-14.9,6.2-29.3,14.1-41.8c-0.7,11.6-0.7,23.4-2.8,34.9c-1.5-3.9-0.5-8.1-1.2-12.2
	c-2.5,0.4-5.5,1.2-6.2,4C480.7,613.3,480.4,618.6,478.1,623.3z"/>
<path class="st0" d="M544.7,581.1c1.5,3.4,1.9,7.2,2.2,10.9c0.4,1.9-1.2,3.2-2.3,4.5C544.2,591.4,543.7,586.1,544.7,581.1z"/>
<path class="st0" d="M515.6,582.6c1.4,7.1,2.3,14.2,3.6,21.3c1.8,11.3,3.8,22.8,1.6,34.2c-1.2,7-4.3,13.8-9.6,18.6
	c-1.2-10.2-0.4-20.5,0.2-30.8C512.4,611.4,513.8,597,515.6,582.6z"/>
<path class="st0" d="M563.7,602.9c1.4-6.8-1.3-14.1,2.3-20.4c6.4,12,3.9,26.4,0.8,39.1c-2.5-10.1-5.5-20.1-7.6-30.3
	C562.3,594.4,561.6,599.2,563.7,602.9z"/>
<path class="st0" d="M927.3,585.6c4.5,1.9,8.3,5.6,9.5,10.5C932.9,593.3,929.2,590,927.3,585.6z"/>
<path d="M172.8,590.9c2.5-0.5,5-0.8,7.6-0.2c-0.1,3.5-0.5,7-0.7,10.4c-1.9-0.5-4.5-0.5-5.3-2.6C173.5,596.1,173.2,593.5,172.8,590.9
	z"/>
<path class="st0" d="M258.5,589.8c2,0.9,3.9,2.1,5.6,3.4c-1.9,0.1-3.9,0.1-5.8,0.2C258.4,592.2,258.5,591,258.5,589.8z"/>
<path d="M155.8,592.2c1.7-0.6,3.4-1.2,5.1-1.6c0,2-0.1,4-0.2,6C158.3,596.1,156.5,594.6,155.8,592.2z"/>
<path class="st0" d="M631.2,599.2c0-3,0.4-6.2,2.7-8.5C633.7,593.7,632.7,596.6,631.2,599.2z"/>
<path d="M190.6,604.6c-1.9-3.2-2.3-7-0.8-10.4c3.9,0.4,7.7,2.2,9.3,6.1C196.3,601.8,193.5,603.3,190.6,604.6z"/>
<path class="st0" d="M249.3,601.8c4.5-6.9,15.1-3.6,18.1,3C261.6,602.5,255.1,604.2,249.3,601.8z"/>
<path class="st0" d="M274.8,599.9c14.2,4.9,28.4,9.8,42.4,15.1c-7.8-0.5-15.2-3.2-22.4-5.9C288.1,606.3,281.3,603.5,274.8,599.9z"/>
<path class="st0" d="M523.5,599.3c1.9,8.9,4.1,18.1,3.1,27.3C525.2,617.5,522.2,608.5,523.5,599.3z"/>
<path class="st0" d="M291.4,601.2c5.3-1.1,10.6,0.4,15.8,1.5C301.9,602.5,296.6,602.2,291.4,601.2z"/>
<path class="st0" d="M603,611.9c0.2-3.2,0.9-6.3,2.6-9C605.4,606,605.3,609.5,603,611.9z"/>
<path class="st0" d="M297.8,605.6c14.3-1.8,29.3-2.5,43.2,2.2c6.2,2.1,12,5.8,15.8,11.2c-6.1,0.4-9.8-6.9-16-4.9
	c1.1,2.6,2.4,5.4,1.4,8.3c8.2,0.8,17.1,0.7,24-4.6c10.7,0.5,21.9,2,31.1,7.8c4.4,2.7,6.6,7.4,9.9,11.2c2,5.3,5.8,11.5,2.1,16.9
	c-1.8-4.1-1.4-10.3-6.6-11.9c-0.6,7.5,4.5,13.8,5.6,21c0.6,3.1-0.8,6-2.6,8.4c-2.7-8.8-3-18.2-4.9-27.2c-1-4.5-3.5-8.7-7.5-11
	c-0.1,5.2-1.5,10.2-2.6,15.3c-1.6-3.6-3.3-8-7.9-8.3c0.6,13.4,7.8,25.8,7.3,39.3c-4-5.4-2.8-12.5-5.2-18.5c-4.7,1-8.9-0.9-13-3
	c-1.2-1.5-2.4-3-4.2-3.7c-12.2-6-22.1-15.7-34-22.2c0.1-1.2,0.2-2.5,0.3-3.7c-3.5-1.7-7.2-2.8-10.6-4.7c2.2-0.8,4.4-1.5,6.4-2.7
	c-2.7-1.7-4.9-3.9-6-6.9C315.7,609.9,306,609.8,297.8,605.6z"/>
<path class="st0" d="M558.9,605.3c3.5,8.3,5.7,17.2,6.9,26.1c-2.1,0.3-4.7,0.4-6,2.4c-2,3-2.8,6.7-5.1,9.6
	C554,630.6,555.5,617.6,558.9,605.3z"/>
<path class="st0" d="M498.4,609.5c1.5,10.1,2.4,20.3,2.9,30.5c0.4,13.2,0.2,26.7-3.7,39.4c-1.5,4.9-4.1,9.5-7.3,13.5
	c1.8-8.6,4.4-17.1,6.2-25.7C499.8,648.1,496.2,628.7,498.4,609.5z"/>
<path class="st0" d="M934.7,612.9c5.1,4.1,12.4,8.2,11.7,15.8C942.3,623.7,937.2,619.1,934.7,612.9z"/>
<path class="st0" d="M270.4,613.6c2.4,0.8,4.8,1.7,7.3,2.5c-0.1-0.7-0.4-2-0.5-2.6c7.6,2.2,14.1,6.8,21.5,9.4
	c-0.3,1.5-0.4,3-0.5,4.5C287.3,627.4,277.5,621.2,270.4,613.6z"/>
<path class="st0" d="M631.3,634.1c1.2-7.2,3.3-14.3,7.5-20.4C637,620.8,634.5,627.6,631.3,634.1z"/>
<path class="st0" d="M132.6,616.5c1.5-0.6,3-1.1,4.5-1.7c0.4,2.8,0.9,5.7,1.4,8.5c-1.9,0-3.8,0-5.6,0
	C132.8,621.1,132.7,618.8,132.6,616.5z"/>
<path d="M176.5,616.5c1.6-1.5,3.9-1.3,5.9-1.7c0.2,1.9,0.4,3.7,0.7,5.6c-2.6,0.5-5.1,1.2-7.7,1.5C175.6,620.1,175,617.9,176.5,616.5
	z"/>
<path d="M193.6,627.9c2.7-1.7,4.7-4.2,5.7-7.3c0.8,2.9,1.6,5.9,0.9,8.9C198,629.3,195.8,628.7,193.6,627.9z"/>
<path class="st0" d="M739.8,629.1c0.3-2.1,0.9-4.2,2.2-5.9C741.9,625.3,743.4,629.4,739.8,629.1z"/>
<path class="st0" d="M210.1,632.2c1.2-2.5,2.1-5.2,3.6-7.5c3.1,4.1,5.2,9.2,4.7,14.5C215.4,637.1,213,634.3,210.1,632.2z"/>
<path class="st0" d="M306.2,625c2.5-0.1,4.8,0.8,6.4,2.7C310.3,627.2,308,626.4,306.2,625z"/>
<path class="st0" d="M325.2,627c1.4-0.1,4.2,0.6,4.5,2.2C328.2,629.8,325.5,628.6,325.2,627z"/>
<path class="st0" d="M618.2,636.3c0.4-3.5,1.5-7,3.7-9.9C621.2,629.9,619.9,633.2,618.2,636.3z"/>
<path class="st0" d="M123,639.1c0.8-4,2.1-8,4.2-11.5C127.7,631.8,126.5,636.4,123,639.1z"/>
<path class="st0" d="M136.8,634.8c0.5-2.6,0.5-5.6,2.6-7.5c0.3,2.1,0.5,4.3,0.6,6.5C138.9,634.1,137.8,634.5,136.8,634.8z"/>
<path class="st0" d="M575.1,629c0.1,6.2,1.2,13.7-3.4,18.6C570.5,641.2,572.6,634.8,575.1,629z"/>
<path class="st0" d="M596.3,629.3c1.2,1,1.6,2.5,1.9,4c-1.1,0.6-2.2,1.1-3.3,1.7C595.2,633.1,595.7,631.2,596.3,629.3z"/>
<path class="st0" d="M669.1,646.6c0-5.8,0.2-11.5,0.7-17.2c3.5,0.4,7,0.9,10.4,1.4C678.3,637,673.7,642.1,669.1,646.6z"/>
<path class="st0" d="M278.5,633.5c3.9-0.2,7.7,0.4,11.2,2c-0.5,0.8-1.6,2.5-2.1,3.3C284.4,637.4,281.2,635.8,278.5,633.5z"/>
<path class="st0" d="M320.4,633.6c2.4-0.2,5.2-0.9,7.1,1.1C325.1,634.9,322.6,634.8,320.4,633.6z"/>
<path class="st0" d="M134.6,640.6c2.8-1.8,5.5-3.7,8.2-5.5c2.6,7.7,7,15.8,4.3,24.2c-1.4-0.3-2.8-0.6-4.2-0.9
	c-0.7-4.9,1.5-10.6-1.9-14.8c-3.9,0.7-5.2,4.6-7.1,7.5C133.4,647.5,134.2,644,134.6,640.6z"/>
<path class="st0" d="M928.8,634.8c7.8,13.6,15,27.5,22.2,41.3c-5.1-7.4-10.1-14.8-14.8-22.5C932.9,647.8,929.6,641.6,928.8,634.8z"
	/>
<path class="st0" d="M581.2,660.3c-1.9-8.1-1.5-17.4,3.9-24.1C586.3,644.4,584,652.7,581.2,660.3z"/>
<path class="st0" d="M634,644.2c0.1-2.5,0.8-4.9,2.5-6.8C637,640,636,642.5,634,644.2z"/>
<path class="st0" d="M326.6,640.6c6.8-1.1,14,0.2,19.9,3.9c5.8,3.6,10.9,8.1,16.3,12.3c-8,3.7-17,5-25.7,3.1
	c-8.6-1.8-16.6-5.9-23.7-11.1c9-1.4,18.2-0.6,27.1-2.7C336.1,643.6,330.9,643.2,326.6,640.6z"/>
<path class="st0" d="M605.5,675.6c5.2-11.1,6.2-23.6,11.2-34.8c-3.7,14.4-6.6,29.1-7.2,44c-8.7,5.9-14.7,14.7-23.2,20.7
	c2.5-8.3,4.7-16.8,8.7-24.5c0.4,1.7,0.9,3.5,1.4,5.2C600.9,684.2,603.5,679.8,605.5,675.6z"/>
<path class="st0" d="M658.2,648.5c2.1-0.5,4.2-1.1,6.3-1.6c-2.3,7.7-7.4,14.2-12.3,20.4c-7.4,8.4-14.7,16.9-22.1,25.3
	c-0.4-4.8-0.8-9.8,0.2-14.5c-2.2-0.3-4.3-0.6-6.5-0.8c1.5-1.7,3-3.3,4.5-4.9c-1.3-1.1-2.5-2.2-3.8-3.3c2-3.5,2-7.8,4.8-10.8
	c-0.4,3.3-1.7,6.8-0.3,10c3.2-2.9,4.6-7.1,6.3-11c2-0.4,4-0.8,6.1-1.1c0,4.2-2.5,7.7-3.2,11.8c4.5-2.9,5.9-8.3,6.5-13.3
	c3-0.8,5.8,0,8.5,1.5C655.3,653.8,656.9,651.2,658.2,648.5z"/>
<path class="st0" d="M500.1,693.5c2.9-14.7,11.2-27.5,19.8-39.4C515.5,668.2,509.2,681.8,500.1,693.5z"/>
<path d="M240,655c1.7,0,3.3-0.1,5-0.1c14.6,17.8,29.3,35.5,43.8,53.3c-7-5-14.1-9.9-21.8-13.6c0,1.7,0.1,3.3,0.2,5
	c-3.1-0.4-5.7,1.5-8.3,3c-5.9-9.1-13.8-16.6-20.5-25c5.1-1.3,10.6-1,15.2,1.7c5.1,3,9.4,7,14.5,9.9C260,676.9,247.9,667.7,240,655z"
	/>
<path class="st0" d="M553.5,687c1.7-10.5,4.8-20.8,9.9-30.1C562.6,667.6,559.1,678,553.5,687z"/>
<path class="st0" d="M352.3,662.4c5.2-2,10.8-3.9,16.4-3c3,0.5,4,3.5,4.5,6.1C366.2,665,359,664.6,352.3,662.4z"/>
<path class="st0" d="M314.4,664c2.9,0.6,5.7,1.8,8,3.8C319.5,667.3,316.5,666.3,314.4,664z"/>
<path class="st0" d="M326.8,665.5c15.7-4,31.4,2.1,47.2,2.4c0.8,7.9,4.4,15.2,4.4,23.1c0.1,3.6-1.9,6.8-4.5,9.2
	c-3.7-9.5-1.3-20.2-6-29.4c-2.4,0.5-5.3,1-6.5,3.5c-2.2,3.3-2.1,7.3-1.4,11c-7.8-3.8-15.8-7.3-23.4-11.5c2.5,0.5,4.9,1.5,7.5,1.9
	C338.7,671.7,332.3,669.4,326.8,665.5z"/>
<path class="st0" d="M638.7,689.2c5.2-7.3,11.2-14,17.4-20.5C654.2,678,647.2,685.4,638.7,689.2z"/>
<path class="st0" d="M613.8,679.7c-0.8-3.6,1.2-6.8,4.8-7.7C618.8,675.4,617.1,678.5,613.8,679.7z"/>
<path class="st0" d="M682.3,698.5c2.2-9.1,7-17.4,11.4-25.6C691.2,681.8,689.5,692,682.3,698.5z"/>
<path class="st0" d="M571.1,694.7c0.5-7.3,1.7-14.5,3.8-21.5C575.1,680.5,574.4,688.1,571.1,694.7z"/>
<path class="st0" d="M565.4,698.2c1-6.7,0.9-13.6,3.3-20C568.8,685,568.1,692,565.4,698.2z"/>
<path class="st0" d="M616.2,692.2c3.6-4.1,7.6-8,12.1-11c-3.4,21.9-19.9,39.3-38.5,50.1C597.5,717.6,606,704.2,616.2,692.2z"/>
<path d="M308.7,684.8c4.8,3,9.5,6.4,13.5,10.4C317.2,692.5,312.9,688.7,308.7,684.8z"/>
<path class="st0" d="M223.6,687.3c2.2,0,4.4,0.6,5.3,2.9C226.7,690.2,224.9,688.9,223.6,687.3z"/>
<path class="st0" d="M721.1,721c-1.9-12.5,4.1-24.5,10.8-34.6C729.3,698.1,726.8,710.2,721.1,721z"/>
<path d="M516.1,700.1c2.2-4.3,4.2-8.7,6.9-12.6c-8.7,22.4-19.2,44.1-28.6,66.3c3.5-2.6,6.4-5.8,9.6-8.7c-1.5,8.5-5.2,16.5-8.8,24.3
	c-1.8,3.4-2.8,7.6-6.1,9.9c-8.3,7.3-10,19-16.4,27.6c-2.3,3.6-5.5,6.6-9.1,8.9c-0.7-1.5-1.4-3.1-2.2-4.6c-2.6,1.6-4.9,3.9-8.2,4
	c0-1.9,0.1-3.9,0.3-5.8c1,1.7,1.5,3.9,3.7,4.6c13.1-19.1,23.7-39.9,34.1-60.6C499.6,735.6,507.6,717.7,516.1,700.1z"/>
<path class="st0" d="M669.9,695.8c0.5-3.3,2.6-6.1,5.1-8.2C673.8,690.5,672.6,693.8,669.9,695.8z"/>
<path class="st0" d="M487.5,710.5c2.9-7.2,6-14.7,11.8-20.1c-4.5,15.9-13.9,30-24.8,42.2C478.4,724.9,485,718.8,487.5,710.5z"/>
<path d="M150.8,692.9c2.2-0.3,4.4-0.7,6.6-1c-3,12.5-10.6,24-21.6,30.9c4.4-5.3,9.2-10.3,12.6-16.4c-7.7,5.3-14.5,12-22.8,16.5
	c1.7-5.4,5.7-9.7,10.2-12.8c-1.5,2.5-3.3,4.9-4.4,7.6c3.6-2.3,6.3-5.7,9.4-8.6c-1.1,0.1-3.3,0.4-4.4,0.5c5.6-4.2,12.3-8,15.7-14.4
	C151.8,694.4,151.2,693.6,150.8,692.9z"/>
<path class="st0" d="M528.4,716c1.5-8.7,4.9-17,9.5-24.5C537.2,700.4,533.5,708.8,528.4,716z"/>
<path class="st0" d="M552.2,700.3c0.6-3.6,2.5-6.7,5.1-9.1C557.4,695,556,698.9,552.2,700.3z"/>
<path class="st0" d="M238.2,694.6c7.1,3.6,15,7.5,18.8,14.8c-3.5-2.2-6.6-4.9-9.8-7.5c-0.1,0.9-0.1,2.8-0.2,3.8
	C244,701.9,239.8,699.2,238.2,694.6z"/>
<path class="st0" d="M456,772c16.1-25,31.9-50.2,48.3-75c-7,14.9-16,28.8-24.6,42.7c-14.2,22.5-29.1,44.7-44,66.8
	c-1.2,1.6-2.1,3.7-4.2,4.4C439.2,797.6,447.9,784.9,456,772z"/>
<path class="st0" d="M559.1,704.1c0.9-2.3,1.7-4.6,3.5-6.4C563.2,700.6,561.3,702.6,559.1,704.1z"/>
<path class="st0" d="M574.6,707.6c1.7-2.7,3.1-5.7,5.2-8.2c-1,2.6-2.8,4.8-3.5,7.5c1.8-0.4,3.3-1.5,4.7-2.8c0.1,1.9,0.4,3.8,1.8,5.3
	c-6.4,8.9-14.5,16.4-22.9,23.5C564.6,724.4,569.7,716.1,574.6,707.6z"/>
<path class="st0" d="M668.3,723.3c4.8-6.7,9.5-13.5,14.8-19.8c-4,16.1-13.7,30.8-26.9,40.9C659,736.7,663.7,730,668.3,723.3z"/>
<path class="st0" d="M190.1,704.4c5.2,4.3,7.6,11.2,7.2,17.9c-2.4-3.4-4.6-6.9-7.7-9.7c-0.5,1.4-1,2.8-1.6,4.1
	C188.3,712.5,189.3,708.5,190.1,704.4z"/>
<path class="st0" d="M368,711.8c0.1-2.1-0.4-4.8,1.6-6.2C369.5,707.7,370,710.3,368,711.8z"/>
<path class="st0" d="M554.9,712.3c1.6-2.6,3.5-5,5.7-7.1C560.1,708.4,558.6,711.9,554.9,712.3z"/>
<path class="st0" d="M377.1,720c0.6-4.7,2.7-9.2,5.9-12.6C382.5,712.1,379.9,716.3,377.1,720z"/>
<path class="st0" d="M527.4,747.2c2.5-15.3,11.5-29,22.5-39.7c-3,8.3-7.4,16-11.6,23.8C535,736.8,532.1,742.7,527.4,747.2z"/>
<path class="st0" d="M163.7,764.2c3.1-19.6,11.2-38.2,20.8-55.5c-0.9,8.1-3.3,16-5.8,23.7c-1.8,5.8-3.5,11.7-3,17.8
	c6.1-4.9,4.1-14.1,9.2-19.8c-1.9,13.1-4.6,26.6-11.3,38.2c-0.7-5.8-1.6-11.6-0.9-17.5C170.3,756,166.8,760,163.7,764.2z"/>
<path class="st0" d="M554.6,723.3c2-5.7,6-10.4,9.8-15C562.6,714,559.6,719.7,554.6,723.3z"/>
<path class="st0" d="M579.9,728.9c5.4-6,10.7-12.2,16.3-18.1c-6.7,10.3-14.1,20.1-21.1,30.2c-1.4,2.9-5.1,2-7.4,3.7
	c-3.5,2.4-5.7,6.2-9.1,8.7C565.3,744.9,572.9,737.1,579.9,728.9z"/>
<path class="st0" d="M631,719.3c0.4-3.1,2.1-6.2,5.6-6.4C635,715.3,633.4,717.7,631,719.3z"/>
<path class="st0" d="M353.4,726.5c0.3-2.9,1.5-5.6,3.5-7.8C356.7,721.6,356.3,725,353.4,726.5z"/>
<path class="st0" d="M710.9,725.5c0.6-2.4,1.7-4.6,3.1-6.7C713.5,721.2,712.7,723.7,710.9,725.5z"/>
<path class="st0" d="M383.6,720c2,4.6,1.9,10.5-1.8,14.3c-2.1-0.2-2.3-2.6-2.4-4.2C379.6,726.3,381.3,722.8,383.6,720z"/>
<path class="st0" d="M192.4,721.5c2.9,3.4,0.5,7.5-2.2,10.2C190.5,728.2,191.1,724.7,192.4,721.5z"/>
<path class="st0" d="M674.2,740.1c1.9-5.8,5.1-11,8.1-16.2c-1.9,9.8-6,18.9-9.2,28.2c-3.5,9.4-7.1,18.8-10.9,28
	c-0.9,3.4-5.9,2.8-6.8,6.1c-5.7,13-10.7,26.4-15.1,39.9c-2.1,5.9-3.8,11.8-6.2,17.6c-0.5-5.5-1.6-11.1-1-16.6
	c6.6-14,13.5-27.9,20.5-41.7c6.3-12.2,12.6-24.5,19.8-36.3C675.2,746.5,672.8,743,674.2,740.1z"/>
<path class="st0" d="M522,790.2c13.2-25.6,33-47.6,55.4-65.5c-9.8,12.4-19.6,24.9-29.1,37.6C540.4,772.3,532.1,782.3,522,790.2z"/>
<path class="st0" d="M621.1,733.4c1.8-3.1,3.9-6,6.1-8.7C626.3,728.3,624.6,731.9,621.1,733.4z"/>
<path class="st0" d="M543,745c2.5-6.7,4-14.1,9.3-19.3C551.4,732.9,546.6,738.8,543,745z"/>
<path class="st0" d="M536,743.5c2.8-5.8,5.5-11.6,9-16.9C544.3,733,542.4,740.5,536,743.5z"/>
<path class="st0" d="M594.8,735.5c1.2-2.2,1.9-5.6,4.9-5.8C598.6,732.1,596.8,734,594.8,735.5z"/>
<path class="st0" d="M183,784.6c-0.8-18.7,1.8-38.5,12.1-54.5c2.6,7.3,3.8,15,3.9,22.8c-2.1,1-4.6,2-5.6,4.4
	c-1.8,3.6-3.3,7.8-7.2,9.8C185.7,773,185.6,779.2,183,784.6z"/>
<path class="st0" d="M373.9,743c-2.2-4.2-0.8-9.5,3.7-11.3C379.6,735.9,377.2,740.2,373.9,743z"/>
<path class="st0" d="M610.5,750.8c2.4-4.8,3.8-10.8,8.8-13.7C617.6,742.3,615.5,748,610.5,750.8z"/>
<path class="st0" d="M655.7,755.2c4.2-5.8,8.9-11.4,13.2-17.1c-1.7,5.4-3.3,11.2-7.5,15.2C659.9,754.9,657.6,754.9,655.7,755.2z"/>
<path class="st0" d="M929.7,737.3c4.8,3.4,7.1,9,8.4,14.5c1.9,9.1,1.2,18.5-0.4,27.5c-3.9-7.4-4.9-15.9-6.2-24
	C930.8,749.3,929.6,743.4,929.7,737.3z"/>
<path class="st0" d="M300.6,738.8c2.1,0.9,4.2,2,4.8,4.4C302.8,743,300.9,741.5,300.6,738.8z"/>
<path class="st0" d="M593.7,743.3c0.7-2.5,2.2-4.6,5-4.5C597.5,740.8,595.7,742.3,593.7,743.3z"/>
<path class="st0" d="M547.1,746.2c0.8-2.8,2.1-5.4,4.5-7.1C551,742,549.3,744.3,547.1,746.2z"/>
<path class="st0" d="M574.2,746.3c1.4-2.6,3.1-5.1,5.1-7.2C578.8,742.2,577.5,745.4,574.2,746.3z"/>
<path class="st0" d="M346.7,752c-0.2-3.5,1.4-6.6,3.9-8.9C350.1,746.3,349.6,749.9,346.7,752z"/>
<path d="M145.8,782.2c4-13,8.9-25.8,14-38.4c-1.4,7.3-3.4,14.5-5.6,21.5C152.1,771.2,149.9,777.3,145.8,782.2z"/>
<path d="M252.1,768c3.1-7.4,5.8-15,9.1-22.3c-2.2,10.5-6.3,20.5-9.7,30.7c-3,7.6-5.4,15.8-11.3,21.7
	C243.8,788,248.1,778.1,252.1,768z"/>
<path class="st0" d="M605.1,746.1c0.7,0.2,2,0.7,2.7,0.9c-5.9,12.6-12.4,25-20.5,36.3c-4.4,6-9.2,11.9-15.6,15.9
	c0.5-1.8,1-3.8,2.3-5.3c7-8.6,12.2-18.5,18.3-27.7C596.6,759.6,600.8,752.8,605.1,746.1z"/>
<path class="st0" d="M310.6,758.6c2.3-4.3,5.3-8.3,8.7-11.9C317.6,751.4,314.5,755.5,310.6,758.6z"/>
<path class="st0" d="M535.6,750.6c2.5-0.5,4.8-1.5,6.4-3.6c-2.4,4.2-3.5,8.9-4.5,13.6c-6.4,7.4-12.1,15.3-18.3,22.9
	c1.4-3.2,1.5-6.6,1.2-9.9C525.6,765.9,529.4,757.3,535.6,750.6z"/>
<path class="st0" d="M582.6,766.4c3.3-4.9,6.6-10,11.1-13.9C591.3,757.9,588.6,764.2,582.6,766.4z"/>
<path class="st0" d="M482.5,776.5c4.2-7.5,8.1-15.5,14.5-21.5c-9.9,17.5-20,34.9-30.1,52.3C471.8,796.8,477.3,786.7,482.5,776.5z"/>
<path class="st0" d="M615,769.4c0.8-4.4,3.2-8.2,6.1-11.5C620,762.1,618.4,766.5,615,769.4z"/>
<path class="st0" d="M199.1,759.1c1,0.4,3.8,0,3.1,1.9c-0.3,2.8-1.4,5.5-2.6,8C199.2,765.7,199.1,762.4,199.1,759.1z"/>
<path class="st0" d="M236,774.5c1.4-4.4,2.6-8.9,4.9-12.9C240.5,766.2,240.3,771.8,236,774.5z"/>
<path class="st0" d="M711.6,776.5c3.3-5.4,7.1-10.6,12.1-14.5c-3.1,8.9-7.8,17.2-12.1,25.5c-4.7,8.6-9.5,17.2-14.6,25.5
	C700.4,800.5,704.8,787.9,711.6,776.5z"/>
<path class="st0" d="M371.2,775.4c2-4.1,4.5-8.4,8.6-10.8C377.4,768.5,375.1,772.8,371.2,775.4z"/>
<path class="st0" d="M548.4,782.6c4.9-6,10.3-11.5,15.9-16.9C560,772.1,555,778.4,548.4,782.6z"/>
<path d="M407.7,790.8c7.1-6.9,13.9-13.9,20.6-21.1c-0.1,3.4-2.7,5.7-4,8.6c3.1-2.1,5.8-5.5,10-5.1c-0.3,1-0.7,2-1.2,3
	c-13.4,23.8-31.5,44.4-46.2,67.4c-0.2,0-0.6,0.1-0.8,0.2c11.6-19.2,24-38,35.7-57.2c-20.1,19.5-37.5,41.7-54.4,64
	c-9.1,12-14.8,26.2-23.9,38.1c-1.6,2.4-4.2,3.8-7,4c3.1-6.3,7.3-12,11.2-17.9c17.7-25.8,36.2-51,54.8-76.2
	C404.5,796.1,405.3,792.9,407.7,790.8z"/>
<path class="st0" d="M590.9,792c3.3-9.5,11.1-16.6,18.6-22.9c-0.6,4.9-3.3,9.2-7,12.4C598.6,784.9,594.7,788.5,590.9,792z"/>
<path class="st0" d="M527.7,791.7c7.4-7,14.1-14.9,22.2-21.1c-6.9,13.3-16.7,24.8-25.7,36.7c-6.1,8.4-12.7,16.6-16.4,26.4
	c-1.5,3.3-0.3,7.4-2.8,10.3c-7.9,11.1-15.5,22.4-24.2,32.8c-1.6,2-3.5,3.8-5.7,5.2c4.3-11,11-20.8,17.4-30.6
	c11.6-17.7,26.1-33.9,33.7-54c-5,2-8,6.6-11.1,10.6c-6.5,9.5-12.9,19.1-19.3,28.7c-4.7,7.3-9.9,14.3-14.2,21.9
	c-2.7,4.4-5.1,9-8.6,12.8c6.2-12.1,13.2-23.8,19.7-35.8c4.8-8.5,9.4-17.2,14.5-25.5C513.1,803.1,521,798,527.7,791.7z"/>
<path class="st0" d="M506.3,786.3c3.7-4.8,5.5-11.1,10.2-15.1c-1.5,8.4-9.2,13.7-11.1,21.8c1.6-1.5,3-3.1,4.6-4.6
	c-0.8,3.8-2.9,7.2-5.3,10.3c-1.2-0.4-2.4-0.8-3.6-1.2c-11.2,10.2-20.2,22.6-27.5,35.9c1.9-1.8,3.2-4.2,5.3-5.9
	c-6,13.9-14.6,26.6-24.8,37.7c-3.6,3.5-6.9,7.8-12,9c1.6-3,3.7-5.7,5.4-8.6c4.9-8.6,7.8-18,12.1-26.9c7-15.9,20.8-27.1,32.3-39.7
	c2.5-2.5,4.2-5.7,6.7-8.2C501.5,789.8,504.5,788.8,506.3,786.3z"/>
<path d="M382.6,773.8c1.2-0.3,2.4-0.6,3.5-0.9c-1.3,1.2-2.5,2.4-3.8,3.5C382.4,775.7,382.6,774.4,382.6,773.8z"/>
<path class="st0" d="M550.6,789.3c1.9-7.5,8.4-12.5,15.2-15.4C560.4,778.7,556.5,785,550.6,789.3z"/>
<path class="st0" d="M227.8,781.5c0.5-2.4,1.6-4.6,2.9-6.6C230.3,777.4,229.9,780,227.8,781.5z"/>
<path class="st0" d="M555.6,797.5c6.9-7.3,13.7-14.9,21.8-20.8c-5.1,9.2-11.5,17.5-17.7,25.9c-3.8,0.3-7.9,1.5-10.3,4.7
	c-1.5,1.2,0,3.5-1.3,4.8c-18.5,19.2-35.6,39.6-54.8,58.1c14.2-20.9,28.7-41.7,43.6-62.1c1.3-1.6,0.1-3.7,0.6-5.5
	c0.8-3.2,3.7-5,6.3-6.8c-0.8,1.1-1.5,2.2-2.2,3.4c0.2,2.1,2.2,3.4,3.4,5c-9.5,10.1-18.1,21-25.9,32.5
	C532.3,824.6,543.6,810.7,555.6,797.5z"/>
<path d="M371.2,789.2c2.2-4.8,5.6-9.2,10.7-11.3C378.5,781.9,375,785.7,371.2,789.2z"/>
<path class="st0" d="M708.9,810.5c3.5-10.8,7.4-21.6,12.9-31.6c0.3,1.7,0.7,3.3,0.9,5c-1.4,3.4-3.4,6.6-4.9,10
	C714.9,799.4,712.8,805.5,708.9,810.5z"/>
<path class="st0" d="M611.3,780.2c1.4,0.6,2.8,1.2,4.2,1.6c-1.9,4.2-3.4,8.8-6.1,12.6c-3.1,2.7-6.5,5.1-9.8,7.5
	C603,794.4,606.5,786.9,611.3,780.2z"/>
<path class="st0" d="M344,792.8c1.6-4.8,4-9.7,8.5-12.3C352,785.8,347.8,789.5,344,792.8z"/>
<path class="st0" d="M546.2,799.4c3.4-5.9,8.7-10.5,13.9-14.8C556.9,790.5,552.9,796.9,546.2,799.4z"/>
<path class="st0" d="M504.5,805c3.4-5.4,6.8-10.8,10.8-15.8C514.3,795.8,510.5,802,504.5,805z"/>
<path class="st0" d="M575.8,834.6c5.7-13.1,14-24.9,22-36.6c-3.1,9.4-8.7,17.6-14.1,25.8C581.2,827.4,578.9,831.3,575.8,834.6z"/>
<path class="st0" d="M335,810.1c1.7-4.7,4.6-9.8,9.9-11C341.9,803.1,338.4,806.6,335,810.1z"/>
<path class="st0" d="M602.4,805.4c0.8-1.8,2.5-3,4.3-3.8c-3.6,9.5-8.4,18.8-10.1,29c-2.9,4.8-6,9.5-8.6,14.6c0.9,0.5,1.9,1,2.8,1.6
	c-6.5,9.7-9.7,21.3-17.1,30.5c3.3-11,8.7-21.2,12.6-32c1.5-3.8,2.2-8,4.6-11.4C596.3,825.1,597.5,814.4,602.4,805.4z"/>
<path class="st0" d="M299,813c2.1-3.6,3.6-8.5,8.1-9.8C304.6,806.6,302.4,810.4,299,813z"/>
<path class="st0" d="M654.8,820.1c2.6-5.6,5.9-10.9,9.1-16.2C661.7,809.6,659.1,815.5,654.8,820.1z"/>
<path class="st0" d="M434.2,810.1c2.6-1.6,4.8-3.8,7.3-5.5c-10.6,16.2-22,31.9-33.1,47.8c-6.5,9-12.7,18.3-19.7,27
	c7.1-13.2,15.5-25.6,23.3-38.3c6.1-9.6,12.1-19.3,18.2-28.8C431,810.6,432.8,810.6,434.2,810.1z"/>
<path class="st0" d="M499.9,814.2c0.8-2.9,2.4-5.6,4.6-7.6C503.9,809.6,502.5,812.3,499.9,814.2z"/>
<path class="st0" d="M556.2,819.8c3.7-4.8,7.8-9.6,13.1-12.5C566.4,812.4,563,819.6,556.2,819.8z"/>
<path class="st0" d="M652.1,834c4.3-6.6,8.2-13.4,12.5-20c-2,13.2-8.8,25.1-15.7,36.2c-0.1-3.9,1.7-7.5,2-11.3
	C651.2,837.3,651,835.4,652.1,834z"/>
<path class="st0" d="M201.7,845.3c3.8-7.3,6.2-15.6,12.2-21.5C212.5,832.1,208.5,840.2,201.7,845.3z"/>
<path d="M362.8,837.4c1.2-3,2.9-6.5,6.5-7C367.2,832.8,365.3,835.4,362.8,837.4z"/>
<path class="st0" d="M594,840.4c2.6-2.9,4.6-6.2,7.2-9.1c0.1,4-1.7,7.5-3.5,11C596.5,841.6,595.2,841,594,840.4z"/>
<path class="st0" d="M326.9,857.4c3.7-9.8,10.9-17.8,18.5-24.8c-1.8,3.3-4.2,6.3-6.4,9.4C335.2,847.3,331.7,852.9,326.9,857.4z"/>
<path class="st0" d="M622.8,839.2c1-2.5,2.5-4.8,4.3-6.9C626.7,835.2,625.2,837.6,622.8,839.2z"/>
<path class="st0" d="M293.7,852.7c2.9-5.4,6.1-11.2,12-13.7c-2.5,4.1-5.3,7.9-7.9,12c-3.8,5.7-6.8,12-11.9,16.6
	C288.1,862.4,291.1,857.7,293.7,852.7z"/>
<path d="M351.8,850.2c1.1-3.2,3.9-5.2,6.4-7.3C356.3,845.6,354.5,848.4,351.8,850.2z"/>
<path d="M383.7,847.8c0.6-0.9,0.9-2.1,2-2.6c-0.3,1.3-0.9,2.5-1.7,3.7c0.8-0.2,2.4-0.5,3.2-0.6c-11.4,14.2-16.6,32.7-30.5,45
	C364.7,877.5,374.7,862.9,383.7,847.8z"/>
<path d="M332,866.5c2.9-4.5,5.5-9.4,9.1-13.3C338.8,858,336.3,863,332,866.5z"/>
<path class="st0" d="M514.1,871.7c2.7-6,6.5-11.5,11.4-15.8C524.2,862.4,520.8,869.4,514.1,871.7z"/>
<path class="st0" d="M588.9,872.3c0.6-5,2.3-10,6-13.6C593.1,863.4,591.1,868,588.9,872.3z"/>
<path class="st0" d="M559.6,871.3c1.4-4.2,3.9-8,6.5-11.6C564.9,864,562.9,868.2,559.6,871.3z"/>
<path class="st0" d="M579.4,886c-1.2-9.6,3.4-18.7,8.3-26.6C586.6,868.7,584,877.9,579.4,886z"/>
<path d="M504.4,871.6c3.1-2.8,4.5-7.2,8.4-9.1c-3.4,5.1-7.5,10.1-13.1,12.8c-0.1-0.7-0.3-2.2-0.4-2.9C501,872.3,503,873,504.4,871.6
	z"/>
<path class="st0" d="M430.3,881.2c1.8,0.3,0.7,4.3-1.1,3.5C428.4,883.6,429,881.7,430.3,881.2z"/>
<path class="st0" d="M655.6,903.8c-0.1-3.8-1.4-8.6,2-11.4c0.8,0.4,2.3,1.1,3,1.4C659.3,897.3,658.2,901.1,655.6,903.8z"/>
</svg>
