<?xml version="1.0" encoding="utf-8"?>
<!-- Generator: Adobe Illustrator 21.1.0, SVG Export Plug-In . SVG Version: 6.00 Build 0)  -->
<svg version="1.1" id="Layer_1" xmlns="http://www.w3.org/2000/svg" xmlns:xlink="http://www.w3.org/1999/xlink" x="0px" y="0px"
	 viewBox="0 0 1024 1024" style="enable-background:new 0 0 1024 1024;" xml:space="preserve">
<path d="M467.5,130.5c22.1-16.1,47.4-28.2,74.5-32.5c-11.6,24.3-23.4,48.8-30,75c19.6-11.9,39.2-23.9,60-33.9
	c35.1-16.9,76.1-23.1,114.1-13.3c-13.1,8.7-26.2,17.7-37.7,28.6c-5.1,4.9-9.9,10.1-13.5,16.2c15.4-7.3,32.1-11.6,49.1-13.1
	c22.9-2.1,46-0.3,68.5,4.1c19.5,3.9,38.6,10.3,55.8,20.2c-13.5,10.9-29.3,18.4-44.2,27.2c-8.1,4.8-16,10.3-22.2,17.4
	c34.7,5.2,69.8,15.8,97.2,38.6c15.8,13.1,28.2,30.3,35.8,49.3c-9.7-3.9-20.6-3.6-30.6-1.1c-10.4,2.6-20.1,7.1-29.4,12.2
	c14.9,4.1,29.5,9.8,42.3,18.4c14.1,9.4,25.9,22.3,33.7,37.3c9.3,17.7,13.2,37.7,14.2,57.5c-14.7-21.7-37.6-36.7-62.4-44.3
	c4.1,10.5,10,20.1,14.7,30.3c6.1,12.8,12.6,25.4,17.2,38.8c5,14.3,8.5,29.2,9,44.3c-6.6-4.3-12-10.3-18.4-14.9
	c-7.1-5.1-14.2-10.5-22.4-13.6c-6.1-2.4-12.6-3.6-19.2-3.9c10.9,11.6,19.1,25.6,24.7,40.4c6.7,17.6,10.9,36.3,10.4,55.2
	c-0.3,14.7-4.1,29.5-11.6,42.2c-8.9-10.7-14.6-23.8-24.7-33.5c-4.6-4.4-10.1-7.6-16.2-9.4c5.7,34.3,8.8,69.6,2.8,104
	c-2.6,14.4-6.8,28.7-13.3,41.8c-6.3-11.5-12.7-23-19.7-34c-5-7.7-10.1-15.6-16.8-22c-12.5,27.1-26.9,53.4-44.8,77.3
	c-20.6,27.5-46.3,52.2-77.8,66.7c15.5-24.3,28.9-50.2,36.7-78c4.2-15.1,6.6-30.7,6.7-46.3c-26.5,12.3-52.9,24.7-79.2,37.5
	c9.2-9.9,17.2-21.1,23.1-33.3c11-22.4,16.2-47.2,18.1-71.9c3-39.5-0.6-80.1-14.7-117.3c-3.9-10.3-8.6-20.2-13.9-29.8
	c17.3,4.2,33.2,12.6,48.8,20.9c16.1,8.7,31.6,18.4,47.2,28.1c-12.4-33.2-35.2-61.4-61.5-84.7c-19.8-17.6-41.8-32.5-64.5-46
	c29.9-6.3,61.6-1.1,88.8,12.7c8.4,3.8,15.6,9.6,23.2,14.8c19.2,13.6,38.2,27.6,57.5,41.2c-4.7-15.3-12.7-29.2-20.6-43
	c-14.1-24.3-30-47.5-45.8-70.7c16.2,4.8,30.9,13.9,43.8,24.7c14.8,12.2,26.7,27.5,41.7,39.4c-3.4-14.6-10.9-27.7-18.8-40.2
	c-13.3-20.6-29.2-39.5-45.3-58c17.4-7.7,36.8-9.7,55.6-8.7c-5.6-11.1-18.2-15.5-29.5-17.9c-25.6-5-52.5-4.3-77.7,2.9
	c3.6-13.2,14.3-22.4,24.3-30.9c4.5-4,9.1-7.9,13.6-11.9c-22.5,0.3-44.9,3.9-66.9,8.6c-28.8,6.2-57,14.6-85,23.7
	c3.3-16.2,11.8-30.9,21.8-43.9c8.7-11.4,19-21.4,29.4-31.1c-38.5,4.1-76.1,15.9-110.1,34.5c-11.8,6.3-22.9,13.8-34.5,20.6
	c-6,3.4-11.9,7.1-18.4,9.4c0.4-7.1,2.5-14,5-20.6c4-10.7,9.3-20.9,14.5-31c-24.7,10.1-47.5,25-66.3,44c-12.7,13-23.6,27.7-32.3,43.6
	c50.8-12.9,104.4-14.4,156-4.8c34.7,6.3,69.5,17,98.3,37.9c8.3,6.1,16,12.9,22.7,20.7c-35.5-15.6-72.7-28.1-111.3-32.8
	c-23.6-3-47.7-3.2-71.3,0.6c12.7,11.5,25.4,22.9,38.4,34c-21.6-0.6-43.2,2.6-63.8,8.8c15.4,13.6,31.1,27.1,46.1,41.1
	c24.3,21.7,39.3,53.1,41.7,85.5c-13.8-14.3-28.2-29.5-47.4-36.3c-0.8,22.3-2.8,44.9-10.7,66c-4.8,12.8-12.4,24.8-23.5,33
	c15.1,41.8,23.2,86.6,19.5,131.1c-0.4,6.1-1.3,12.1-2,18.2c22.9-30.3,37.1-66.5,45-103.5c4.5-21.6,7-43.5,8-65.6
	c19.2,22.1,35,49.2,36.5,79.2c13-8.3,22.6-21.2,28.5-35.4c5.7-13.2,8.4-27.3,10.3-41.5c12.3,11.8,22,26.5,27.3,42.8
	c7.5,22.6,7.3,47.1,2.8,70.3c-7,34.2-25,65.1-46.5,92.3c-13.9,17.6-29.6,33.8-46,49c-36,32.6-72,65.3-104.9,101.1
	c-10.9,12-21.6,24.4-29.9,38.5c11.2-49.4,34.3-96.4,68-134.4c11.6-13.5,22.9-27.4,32.5-42.5c4.6-7.4,9-15.2,11-23.8
	c-15,9.9-28.1,23-44.9,29.9c-13.2,5.5-28.1,8.5-42.2,4.8c-10.9-2.7-21.4-7.2-32.6-9.2c-46.6,7.2-93.5,12.7-140.2,19
	c-6.1-7.6-8.6-17.3-10.4-26.6c-2.3-13.7-2.7-27.6-2.4-41.5c5.6,12.1,5.7,26.3,13.1,37.6c4.3,6.7,12.6,11,20.5,8.9
	c15.4-3.5,29.1-11.8,42.6-19.5c13.5-8.4,27.7-16.3,43.5-19.2c9.5-1.9,19.4-1.2,28.4,2.3c4.7-18.6,1.9-38.8-6.7-55.9
	c-3.2-6.4-7.7-11.9-12.7-16.8c15.8,4.4,28.1,17.1,34.8,31.8c7.1,14.8,9,31.4,8.5,47.7c6.5,0.8,13.7,0.5,18.9-4.1
	c7.4-6.5,9.5-16.8,10.6-26.1c2.4-21.9-3.3-44.2-14.1-63.3c-9.6-17.3-23.2-33.4-41.6-41.7c7.6-7.7,18.8-9.7,29.1-10.7
	c6.7-0.6,13.4-0.5,20.1-0.4c-3.8-18.4-16.6-33.8-32.3-43.6c-7.1-4.6-15.2-7.4-23.3-9.7c6.9-5.5,16-6.9,24.6-6.6
	c13.1,0.5,26.2,3,38.1,8.6c8.7-3.4,16-10.1,19.7-18.8c6-13.9,4.9-29.6,2.7-44.3c-2.5-16.2-8.3-32.6-20.5-44c10,1.3,20.2,2.6,29.8,6
	c-5.5-14.6-18.3-24.8-32.2-31c-22.8-10.5-48.3-13-73.1-11.6c7.2-11.9,18.7-20.9,31.8-25.6c5.8-2.2,11.9-3.3,17.9-4.7
	c-8-4.7-17.5-6-26.6-4.3c-12.9,2.3-24.6,8.6-35.6,15.5c5.7-10.8,11.5-21.4,17.1-32.2c-25.2,8.3-49.8,21.5-66.4,42.7
	c-9-9-15.4-20.2-19.9-32.1c-10.5-28.6-12.9-60.2-6.2-90c8.5,10.8,16.1,22.3,25.9,31.9c3-14.1,5.2-28.5,7.8-42.7
	c2.2-13.4,4.8-26.9,10.9-39.2c2.3-4.7,5.4-9,9.1-12.7c6.1,20.7,11.5,41.5,17.4,62.2c11.8-33.1,26.3-65.5,47.1-94
	c14.1-19.3,31.1-36.8,51.3-49.8c-3.3,13.7-10.6,26-14.5,39.5c-3.8,12.2-5.3,25.4-2.3,38C427.8,163.8,446.6,145.9,467.5,130.5z"/>
<path d="M511.7,353.5c11.4-2.5,24.7-3.2,34.5,4.4c3.3,2.9,7.4,6.3,7.2,11.1c0.9,22.3-4.8,44.2-12.6,64.9c-0.4,1.3-1.1,2.4-2.2,3.1
	c-0.2-0.8-0.5-2.2-0.7-3c1-1.1,2.7-1.9,2.8-3.6c1.9-15,3.2-30.4,0.3-45.3c-1.3-5.9-3.4-12-7.4-16.6c-5-3.6-11.5-4.3-17.5-3.7
	c-9.6,1.1-18.7,5.2-27.1,9.9c9.6,12.6,21.3,23.7,28.4,38c6.2,12.1,8.7,25.9,8.1,39.4c-11.3-31.9-35.2-57.2-60.2-79.2
	C480.1,365.3,495.3,357.4,511.7,353.5z"/>
<path d="M268.6,386.6c0.4,1.7,1,3.3,1,5.1c-1,2.2-2.6,4.1-3.5,6.4c-10,22.9-20.3,45.7-28.7,69.3c-26.4,20.4-52.1,41.7-77.1,63.9
	c1.8,8,1.1,16.2-1.2,24c-3.6,11.5-8.9,22.4-11.8,34.1c6.8,3.7,14.9,2.4,21.8,0c4-1.3,7.6-3.7,10.9-6.3c0.1,5.1-2,9.9-5.7,13.4
	c-5.6,5.3-12.9,9.6-15.6,17.2c-2.4,9.2-0.9,19.4,3.9,27.6c6,10.1,15.4,18,25.8,23.2c9.4,4.8,20.4,6.3,30.6,3.7
	c12.4-3.3,23.7-10.2,33.4-18.6c5-5.7,9.4-12,14.7-17.4c1.6,0.8,3.1,1.5,4.7,2.4c-10.4,14.5-22.8,28.1-38.7,36.7
	c-10.2,5.6-22.1,9-33.8,7.1c-9.6-1.6-18.9-6-26.2-12.5c-9.2-13.8-18-28-27-42c-5.9-9.8-14-18.1-20.5-27.5
	c-8.4-11.3-10.5-27-5.5-40.2c8.3-9.6,18.3-17.7,27.8-26.2c26.4-23.1,53-46,80.8-67.3c4.5-12.1,11-23.3,17.4-34.5
	c6.5-11.3,13.3-22.5,20.2-33.7C268,392.1,267.9,389.2,268.6,386.6z"/>
<path d="M285.5,446.5c11.7-10.5,26.8-17,42.5-18.1c-8.1,5.1-16.3,10.1-24.5,15.1c-6.6,4.3-13.2,8.8-17.9,15.1
	c-2.8,3.8-4.5,8.9-2.7,13.4c2.3,5.7,7.7,9.1,12.8,12c9.1-4.5,14.2-13.9,17.2-23.1c1.9-5.6,2.9-11.5,4.1-17.3
	c8.7,14.5,6.2,35.4-7.1,46.3c-4.8,4.4-12,7.1-18.3,4.4c-6.9-2.8-10.6-9.8-13.3-16.3c-2.5,2.9-5.3,6-9.1,7c-8.2,2.4-17.6-2-21.4-9.5
	c3.6,0,8.2,1.4,10.9-1.8C267.9,464.9,276.2,455.2,285.5,446.5z"/>
<path d="M198.9,572.1c20.2-21.7,39.6-44,57.5-67.6c-7.1,15.6-15.5,30.6-23.2,46c12.2-0.8,25.2,0.8,35.6,7.8
	c11.3,7.6,19.2,20.8,18.8,34.7c-0.4,8.6-2.9,17.2-7.4,24.6c-1.8-7.3,2.1-14.5,0.6-21.9c-16.5,6.8-31,19.2-49.2,21.4
	c15-12.1,30.9-23.2,45-36.4c-1.7-6.2-4.7-12.4-10.3-16c-3.4-2.3-7.5-3-11.4-3.3c-7.5,9.3-15.3,18.3-23,27.4
	c-8.2,9.6-18.2,18.2-30.5,21.9c8.4-11.2,17.2-22.1,23.8-34.5c1.8-3.4,3.3-7,3.9-10.8c-3.4-1-6.9-0.7-10.2,0.4
	C212.3,568,205.8,570.9,198.9,572.1z"/>
</svg>
