<?xml version="1.0" encoding="utf-8"?>
<!-- Generator: Adobe Illustrator 21.1.0, SVG Export Plug-In . SVG Version: 6.00 Build 0)  -->
<svg version="1.1" id="Layer_1" xmlns="http://www.w3.org/2000/svg" xmlns:xlink="http://www.w3.org/1999/xlink" x="0px" y="0px"
	 viewBox="0 0 1024 1024" style="enable-background:new 0 0 1024 1024;" xml:space="preserve">
<style type="text/css">
	.st0{fill:#010101;}
	.st1{fill:#FFFFFF;}
	.st2{fill:#020202;}
	.st3{fill:#696969;}
	.st4{fill:#FEFEFE;}
</style>
<path class="st0" d="M494.1,123.1c5.7-7.2,15.5-8.7,24-10.1c-1,1.7-2.1,3.3-3,5c4.9-2.6,10.3-4.8,16-4.6c7.2,0.2,14.1,2.8,20.3,6.2
	c8.7-4.3,18.8-5.7,28.3-3.4c14.3,3.3,26.5,13.4,33.3,26.3c-2.2,0.3-4.4,0.7-6.6,1.1c12.7,10.4,21.5,25,26.2,40.6
	c3,10.3,3.2,22.3-2.9,31.6c-1.6,3-4.5,4.9-7.3,6.6c6.3,6.3,12.7,12.5,19.1,18.6c-4.3,6.8-12.7,8.7-20.1,9.9c3.2,10,6.4,20,9.9,29.9
	c-2,0.4-4.1,0.7-6.1,1.1c5.8,8,7.7,18.3,5.6,27.9c-1.5,7.9-4.9,16.8-12.8,20.2c-5.9,2.2-13.4,1.6-18.2-2.8
	c-3.7-3.5-4.2-8.9-4.5-13.7c3.9,1.4,9.2,1.5,11-2.9c-2.3-1.8-5-4.3-8.2-3.5c-3.6,1.8-4.7,6-5.7,9.5c-1.8,8.4-2.1,17.6,1.5,25.6
	c7.7,4.3,15,9.4,22.2,14.5c-1.6,3.5-4.3,6.7-8.2,7.7c-6.3,1.6-12.9,0.5-19.1-1.1c3.6,7.6,3.8,17.4-1.5,24.3
	c-2.4,3.2-6.6,3.9-10.3,4.2c0.4,2.9,0.8,5.7,1.1,8.6c-1.4-1.3-2.8-2.6-4.3-3.8c2.3,7,5.9,14,4.6,21.6c-3.9-2.7-8.1-5.1-12.4-7.2
	c-1.2,17.1,0.7,35.2,9.8,50.2c4.7,8.1,12.1,13.9,18.5,20.5c12.6,12.8,25.1,25.7,36,40c5.8,7.8,11.4,16,13.6,25.5
	c1.6,7.4,3,15,5.8,22c4,7.7,9,14.9,13.7,22.3c8.5,13,20,24.6,34.7,30.3c14.4,5.8,30.7,5.1,45.4,0.9c15.5-4.3,29.4-13.9,39.2-26.6
	c13-16,19.7-36.4,20.8-56.9c1.7-34.4-7.3-69.2-25.2-98.7c-6.3-10-14.4-19.2-24.6-25.4c-8.3-5-18.5-5.1-27.8-3
	c-7.5,1.8-15.2,4-21.4,8.8c-4.9,3.5-7.4,9.4-7.7,15.3c-0.7,4.8,1.3,9.7,5.2,12.7c5.1-2.5,6.8-8.4,10.7-12.1
	c5.3,11.1,1.5,25.7-8.7,32.5c5.3,7.2,5.4,17.9,0.2,25.2c-2.2,3-6,4-9.5,4.4c2.4,7.4,11.4,11.8,18.7,9.7c2.9-1.2,3.9-4.4,4.8-7.1
	c-3,0.2-4.7,2.6-6.6,4.6c-0.3-0.1-0.9-0.4-1.1-0.5c-1-4.8-2.7-9.6-3.1-14.4c2.8-2.6,6.7-4,10.5-3.4c5.5,0.8,11.2,3,14.6,7.6
	c4,6.1,4.6,14.6,0.9,21c-3.3,6.1-9,10.5-14.6,14.4c4.7,6.4,8,14.1,8.2,22.1c0.8,13.5-5.8,26.6-15.6,35.5c-3.8,3.5-9.7,5.2-14.4,2.6
	c-9.3-4.7-12.1-16.9-9.1-26.2c2.7-7.4,10.1-13,18.1-13.3c-4.3-4.6-8.9-8.8-13.8-12.8c-5.5-4.2-10.1-9.8-11.9-16.6
	c-4.9-1.1-9.9-3.4-12.6-7.9c-3-4.6-3.9-10.1-4.3-15.5c-2.8-0.3-5.8-0.4-8.2-2c-2.6-1.5-3.8-4.4-5.1-6.9c6,0.2,11.6-3.4,13.4-9.2
	c-4.5,0.7-9.9,0.7-13-3.2c-4.8-4.5-5.3-11.7-3.1-17.6c-4.5-2.4-7.2-7.1-7.8-12.1c-0.5-4.8-1.3-10.2,1.7-14.4
	c1.7-2.4,4.5-3.1,7.1-3.9c0.4,3.7-0.1,8.6,3.8,10.6c4,1,7.4-2.3,9.6-5.2c5-8,6.7-17.8,13.2-24.9c3.6-4.2,9.2-5.9,14.2-7.8
	c13.2-4.6,26.7-7.9,40.1-12c11.6-1.6,23.6,1,34.1,6.2c14.1,6.7,25.7,17.9,34.2,30.8c11.1,16.8,17.7,36.2,22,55.8
	c3.9,18.7,6.8,37.7,6.3,56.9c-0.5,21.2-6,42.5-17.6,60.4c-17.6,27-47.1,46.9-79.6,50c-30.3,3-60.6-6.3-86.4-21.8
	c2.9,12.5,3.7,25.6,1.7,38.3c-1.6,12.9-5.8,25.7-4.8,38.8c1.7,15,9.2,28.7,17.7,40.9c5.3,7.4,10.8,14.6,15.9,22.1
	c1.2,1.4,0.8,3.2,0.8,4.9c-0.7,11.9-3.1,23.5-4.3,35.3c-1,15.3-2.4,30.6-2.9,46c-0.9,7.5-1.3,15-1.4,22.5c-3.8,3.5-8.5,5.9-11.9,9.9
	c-2.1,2.4-3.1,5.5-5.2,7.8c-2.6,2.5-6.5,3.3-8.9,6c-3.4,3.6-6.7,7.4-9.2,11.7c-1.8-0.8-3.9-1.4-4.9-3.3c-3.3-5.2-2.9-11.6-2.4-17.5
	c-7.4,4.8-16.4,1.8-23.8-1.4c-2.9,2.6-5.3,5.6-8.4,8.1c-1.5-2.4-2.4-5.2-4.2-7.4c-2.4-1.9-5.2-3.5-6.7-6.3
	c-3.4-5.6-1.8-12.7,1.3-18.1c3.3-3.3,7.8-5,12-7.1c7.6-3.3,15.1-6.9,23.1-9c0-23.6,0.3-47.2,0.5-70.8c-14.8-4.9-28.1-13.9-38.8-25.2
	c-11.4-11.8-20-26-27.4-40.5c-11.9-23.5-21.3-48.1-32.1-72.2c-1.2-0.6-2.6,0.1-3.9,0.2c-10.6,2-21.2,5-30.8,10.1
	c-2.3,1.2-4.9,2.4-5.9,5c-4.2,8-3.8,17.5-2.4,26.2c2.1,11.2,4.8,22.5,3.5,34c-0.2,5.8-5.4,9.4-9.7,12.4c-6,4-13.6,4-20.3,2
	c-3,1.2-5.9,2.9-9.2,3.3c-8.9,1.4-17.5-1.6-26.2-2.9c-6.5-0.9-12.9-3.1-19.5-2.9c-6.7,0.1-13.3-0.1-20,0.1c-3.5,1.9-5.9,5.9-10,6.6
	c-6,0.8-11.7-2.5-15.9-6.5c-4.6-4.4-8.8-9.5-14.5-12.6c-2-1-2.8-3.1-3.9-4.9c-4.6,3.1-10.7,2.8-15.6,0.5c-2.5-2.5-3-6.4-4.9-9.4
	c-1.2,1.6-2.4,3.2-3.7,4.8c-4.5-3.2-6.1-8.7-6-13.9c-3.2,3.7-4.7,8.5-7.9,12.1c-2.7-4.9-4.9-10.2-5.4-15.9
	c-0.5-5.2,1.1-10.2,1.5-15.3c-2.4,1.2-4.5,2.8-6.7,4.2c-2.5-4.8-2.6-10.7,0.2-15.4c3.2-5.3,8.5-9.9,14.8-10.5
	c11.5,0.5,21.4,6.9,32.3,9.8c7.4,2.3,15.1-1.8,22.4,0.6c6.9,2.9,9.5,10.8,15.6,14.8c4,0.9,8.2,1.2,12.3,1.7
	c12.9,1.1,27.1,2.2,38.7-4.8c-7.3-21.8-13.9-43.9-17.2-66.7c-2-15.6-3.3-32.3,2.9-47.2c5-12.7,19.6-21.4,33.1-18
	c9.1,1.3,18.2,2.7,27.2,3.9c-15.5-11.3-30.1-24.2-41.3-39.9c-7.2-10-12.6-21.3-15.8-33.2c-2.2-3-5.4-5.1-8-7.8
	c-15.4,9.4-29.9,20.3-44.6,30.6c-1.9,0.6-4.1,0.1-6,0.8c-5.3,6.4-11.5,13.2-20.1,15c-5.6,1.2-11.1-1.2-15.5-4.5
	c-2.9,2.6-7,5.5-10.9,3.1c-4.8-4.2-8.1-10-13.5-13.6c-8.8-6.7-10-18.6-11.1-28.8c-4.7-6-4.3-14.1-7.3-20.8c-1.7-4-6.1-5.6-10.2-5.5
	c0.7-4.2,3.5-7.6,7-9.8c-3.7-7.1-6.7-15.2-5-23.4c0.5-3.6,3.5-6.1,5.5-8.9c-1.8-1.7-3.7-3.3-5.5-5c3.5-4.6,8.9-8.3,15-7.9
	c6.1,0.5,12.4,2.5,16.8,6.9c3.7,3.8,3.9,9.5,3.1,14.4c6.2,2.4,12.1,6,16.2,11.2c5,5.9,7.3,13.6,8.4,21.1c17.4-8.2,33.4-19,49.8-28.9
	c-1.8-10.7-0.9-21.7,1.6-32.2c-13.5-7.2-27.1-14.3-39.8-23c-4.3-3.6-9.4-6.7-12.3-11.7c-3.2-5.4-6-11.1-10.8-15.3
	c-2.1,2.1-4.6,4.7-7.9,4c-4.3-1.1-7.2-4.8-10.3-7.8c-3.5-3.9-8-6.9-12.6-9.3c-9.1-3.2-18.5-7.3-28.4-6.1c-3.7,0.3-6.7,2.5-9.4,4.8
	c-4.8-7.7-0.1-16.6,0.2-24.8c-3.8,0.9-5.4,4.8-8.3,7c-1.6-8.5-0.5-17.5,2.4-25.6c-2.7,0.7-5.8,1.3-7,4.2c2.3-4.5,1.5-9.7,2.5-14.6
	c1.2-6.7,1.7-14.3,6.8-19.3c1.9-2.2,5-1.6,7.6-2.2c4.1-0.4,7-4.4,11.2-4.2c4.4-0.3,8.5,1.8,12.3,3.9c9,5.1,19.4,6.6,29.2,9.6
	c4.2,4.2,6.5,10,11.1,14c5.5,4.3,11.4,8,17.4,11.7c6.9,4.3,12.5,10.3,17,17c1.3,2,3,3.8,5.2,4.8c8.1,4.1,16.8,6.5,25.2,9.7
	c5.8,3.1,10.8,7.6,16.7,10.6c1-1.1,1.9-2.2,2.9-3.4c-1.6-5.3-2.5-10.9-1.2-16.4c1.9-9,8.5-16.8,17-20.5c-0.1-4.5,0-9.4,3.3-12.9
	c5.5,9.3,19.4,12,27.5,4.6c-0.8-4.2-4.4-7.5-8.6-8.1c-2.2-0.5-3.4,1.7-4.8,2.9c-5.8-6.9-10.7-15.2-10.3-24.5
	c-6.9-1.3-10.2-8.6-10.7-15c-0.4-2.9,2-5.6,4.9-5.8c5.4-0.4,8.5,5.9,13.9,5.6c6-0.4,10.8-4.6,15-8.6c-3.7-0.3-7.4-0.5-11.1-0.9
	c-2.1,2.9-4.7,5.3-7.3,7.7c-1.8-4.9-4.6-9.6-8.7-12.9c-2.4-1.5-2.1-4.5-3.2-6.8c-2.1-4.5-4.3-9.2-4.1-14.3c-0.1-7.5,0-15.4,3.3-22.3
	c1.6-3.4,5-5.5,8.5-6.5c14-4.5,28.6-6.8,43-10c3.1-3.4,6.7-6.8,11.5-7.3c7.7-0.9,15.4-1,23.1-1.6C491.6,135.6,490,128.4,494.1,123.1
	z"/>
<path class="st1" d="M506.8,131c5.4-5.8,12.2-10.7,20.3-11.7c3-0.2,6.3-0.8,9.2,0.5c16.7,8.4,31.9,19.9,44,34.1
	c-6.2-12.2-16.3-21.8-26.8-30.4c9.3-4.4,20.3-4.6,30-1.1c8.6,2.8,16.5,8.4,21,16.5c-3.9-0.3-7.8-0.9-11.7-1.5
	c16.5,8.2,26.7,24.7,33.5,41.2c3.5,8.9,6.4,19.1,3.1,28.5c-1.4,4.5-5.1,7.6-8.3,10.9c-0.6-0.3-1.7-0.8-2.3-1.1
	c0-3.8-0.2-7.7-1.1-11.4c-1.6,5.6-1.7,11.8,0.4,17.4c2.8,7.7,8.7,13.8,14.9,19c-5.4,3.3-12,3.8-18,2.2c2.6,11.3,7.2,22.1,11.6,32.8
	c-4.4-1.8-8.7-3.7-13-5.6c4.2,9.7,8.9,19.2,13,29c1,7.1-0.5,15.1-5.6,20.5c-3.2,3.3-7.9,5.8-12.6,4.8c-4.2-0.9-7-4.3-9.6-7.4
	c2.7,0.1,5.9,1.7,8.2-0.3c5.1-3.4,4.3-12.3-1.4-14.6c-3.9-1.6-9-2.2-12.5,0.6c-3.5,3.1-4.7,7.8-5.6,12.2
	c-2.6,12.6,0.2,26.7,9.2,36.1c3,3.3,7.1,5.2,11,7.3c-7.4,2-14.7-1.2-22-1.8c-4.9-10.9-11-21.2-15.2-32.4c-2.8-7.7-3.3-16-2.6-24.1
	c-2.1,8.2-3.9,16.9-1.5,25.3c3.4,14.4,13.3,25.8,18.9,39.2c1.6,4,3,8.6,1.9,12.9c-1,4.1-4.8,7.4-9.1,7.6c-2.8,0.2-5.4-1.3-7.9-2.5
	c1.3,2.3,2.3,4.8,2.7,7.4c-1.4-0.5-2.8-1.1-4.2-1.6c1,7.4,3.5,14.4,5.8,21.5c-6.3-3.3-11.7-8.5-14.5-15.1c5.8-9.1,5-20.9,1.5-30.6
	c0.9,5.3,1.8,10.8,0,16.1c-1.2,3.9-2.7,8.5-6.7,10.3c-2.8,1.3-5.6-0.3-8.3-1.1c8.2-2,10.4-13.9,4.7-19.5c0.3,3.1,1.8,6.3,0.6,9.3
	c-1.5,5.3-6.9,8.1-11.9,9.3c4.3,4.4,10.5,6.9,16.7,5.5c3,5.7,4,12.2,4.6,18.5c1,11.3,0.7,22.8,2.8,33.9c1.2,4.2,1.3,9.2,4.7,12.5
	c12.3,13.7,25.7,26.3,38.9,39.1c12.5,11.9,23.7,25.5,30.5,41.5c4,9.1,5.4,19.1,8.3,28.6c1.7,6.6,5.4,12.4,8.9,18.3
	c8.8,14.4,20.1,27.8,35,35.9c13,7.2,28.5,9.2,43.1,6.7c18.1-3.2,35.9-10.9,49.1-24c11.6-11.5,18.9-26.6,22.6-42.4
	c6.2-25.1,4.1-51.5-1.6-76.5c-3.9-18.3-11.6-35.6-21.8-51.2c-7.3-10.5-15.8-20.7-27.3-26.8c-11.5-6.4-25.7-5.4-37.7-0.9
	c-20.2,8.3-32.9,29.5-34.7,50.8c2.7-7.7,6.1-15.2,10.5-22.1c0.2,3.6,0.1,7.6,2.6,10.6c2.4,3,6.4,5.4,10.4,4.6c3-1,4.1-4.2,5.6-6.6
	c-0.4,4.4-0.8,9-3.3,12.8c-2.4,4.1-6.6,6.5-10.9,8.3c5.5,5.3,7.9,13.5,6.2,20.8c-0.9,3.3-4.2,4.9-7.2,5.9c0.3-3.1,1.2-6.4,0.3-9.5
	c-0.5-1.9-2.6-2.4-4.1-3.2c-2.8,4-4.4,8.8-3.4,13.7c1.3,7.1,5.3,14.5,12.4,17.1c5.5,2.4,12.2,1.7,17.1-1.7c3.8-2.8,4.7-9.6,0.6-12.5
	c-3.7-1.2-6.4,1.8-7.9,4.7c-0.4-3-2-7.4,1.8-8.9c6.8-2.9,14.8,1.8,18.1,7.9c0.8,10.4-6.3,19.2-14.2,25.1c-2.3-1.3-4.4-2.9-6.4-4.6
	c5.3-1,9.2-5,11.1-9.9c-3.6,3.8-7.8,7.9-13.4,8c-8.1,0-16.3-4.4-20.3-11.6c-2.2-3.6-3.1-7.6-4.4-11.5c0.6,8.9,5.1,17.3,12.4,22.6
	c8.8,6.2,19.1,11.7,24.5,21.5c4.6,10.2,2.7,22.2-2.2,31.9c-2.6,5-5.7,10.6-11.2,12.8c-3.8,1.5-7.8-0.6-10.8-2.9
	c4-0.1,9.9,0.5,10.8-4.7c-2.9,1.4-5.9,4.1-9.3,2.9c-4.7-2.3-4.7-8.4-4-12.9c0.8-5.5,4.8-12.4,11.4-10.9c-1.4,3-3,5.9-3.4,9.2
	c1.6,1.3,3.3,2.5,5.1,3.6c4.3-2.8,4.8-8.4,5-13c0-3.2-0.2-6.5-1.9-9.3c-6.9-9.5-19-13.8-25-24c-2.8-4-1.8-9.3-4.7-13.2
	c-0.2,2.8,0.3,5.5,0.6,8.3c-7-3.1-11.9-10.2-12-17.9c-0.7-3,1.9-5.1,3.3-7.4c2.1-3,3.5-6.4,3.7-10c-2.4,5-7.1,8.9-12.6,10
	c-2.7,0.5-5.1-1-7.4-2c3-0.9,6.5-1.1,8.8-3.6c3.5-3.8,4.9-9,5.4-14c0.2-2.5-0.1-5.6-2.4-7c-2.4-1.3-5.3-0.6-7.8,0.3
	c0.2,2.8,2,5.1,3.6,7.2c-2.8,1.1-6.7,2.5-9-0.2c-4-4.6-4.6-13,0.9-16.7c-7-0.9-11-8.1-11.3-14.6c-0.1-2.9,1.1-5.7,2.1-8.4
	c1.1,3.5,1.9,7.7,5.4,9.7c4.8,1.2,10.2-0.4,13.2-4.3c5.1-6.9,5.9-16,11.1-22.9c5.9-8.2,15.5-12.8,25.4-14.1
	c-7.3,6-15.1,12.7-17.7,22.2c8.2-11.5,18.3-22.4,31.8-27.8c15.3-6.3,32.9-3.7,47.4,3.6c15.4,8,27,21.7,35.4,36.6
	c18.6,33.7,27.1,73,23.7,111.4c-2.8,30.7-19.3,59.7-44.1,77.8c-18.4,13.4-41.3,20-63.9,20c-24.9-0.2-48.8-9.8-69.5-23.2
	c-0.5-3.2-0.9-6.4-1.5-9.6c4,4.2,8.4,8,13.2,11.4c-7-7.5-12.7-16.1-17.6-25.1c-8.2-15.2-16.1-31.6-30-42.5
	c3.6,4.9,7.9,9.2,11.1,14.5c13.4,24.3,21.5,51.8,21.6,79.7c-0.1,27.1-9.9,53.1-9.6,80.2c1.8-6.9,2.8-14,5.2-20.8
	c6.1,21,17.8,40.1,32.9,55.9c0.1,7.8-1.7,15.5-2.1,23.3c-0.3,7.1-1.6,14.2-1.1,21.3c0.4,13.7,0.6,27.4,0.8,41.1
	c-0.7,8-1.1,16.8-6,23.5c-2.2,3.5-7.5,2.8-9.4,6.5c-1.7,2.9-3.5,5.7-5.7,8.2c0.2-3.8,1.3-7.8-0.5-11.3c-0.9-2-3.1-2.9-4.8-4
	c1.2,3.7,2.6,7.6,1.5,11.5c-1.8,7.7-7.7,13.3-11.5,19.9c-1.4-7.7-2.1-15.6-2.5-23.5c-0.1-5.6,0.2-11.9,4.1-16.3
	c3.9-3.2,9.4-2.9,13.6-5.3c4-3.7,2-9.5-0.5-13.5c-1.1,2.9-2,5.9-2.9,8.9c-6.2,0.2-12.3,3.4-15,9.1c-3.2,7-4.8,14.5-7.2,21.8
	c-2.5,0.7-5.1,1.2-7.7,1.7c0.6-4.6,1.6-9.4,0.3-13.9c-0.6-2.1-2.6-3.2-4.2-4.3c2.2,4.9,1.4,10.5-1.2,15.1c-5.9-2.6-12,0.3-16.7,4
	c-0.7-5.2-0.7-10.8,1.4-15.7c1.3-3.2,3.8-5.6,6-8.1c-2.8,1-5.7,2.2-7.6,4.7c-3,3.4-3.4,8.2-4.3,12.5c-6.1-8.3,0.9-21.9,11.2-21.7
	c4,0.3,6.5-3.6,10.1-4.8c3.5-2,7.6-1.4,11.4-1.6c2.7-3.9,3.2-8.8,3.7-13.3c1.6-21.7-0.3-43.5-0.8-65.3c-7-2-12.2-7.1-17.8-11.4
	c-15.7-12.9-30.4-27.2-42.2-43.8c-10-13.9-17.7-29.5-21.9-46.1c-3.7-10.6-11.4-19.2-15.6-29.6c-2.8-6.8-2.6-14.3-3.7-21.5
	c-2.4-16-6.4-32-14.4-46.2c-4.9-8.7-11.4-16.6-19.6-22.5c-7.3-4.8-15-8.9-22.1-13.9c-20.6-14.2-39.1-32.5-50-55.3
	c-1.3-5.8-2-12.2-5.5-17.2c-10.3-9.2-19.7-19.6-26.1-31.9c-5.9-11.1-9.1-23.8-8.4-36.4c0.3-6,0.8-12,0.6-18c5.8,3.5,9.9,9,15.3,13
	c4.5,3.2,10.2,4,15.6,3.5c-1.2-2.2-2.3-4.4-3.3-6.7c2.4-0.1,4.9,0.1,7.2-0.5c10.2-3.2,21-2.7,31.5-2.1c13.3,0.6,26.6,3.6,39.9,1.6
	c6.4-0.9,12.8-3.2,17.6-7.8c-6.7,2.5-13.4,4.9-20.6,5.2c-8.8,0.8-17.4-1.5-26.1-2.4c-11.9-1.4-24-3-35.9-1.8
	c-4.1,0.3-7.8,2.5-11.9,3c-2.4-0.6-4.6-1.8-7-2.6c0.4,3,1,6,1.6,8.9c-5.8-2.7-9.5-7.9-13.8-12.3c-12.7-6.7-25.4-13.3-38-20
	c-9.6-5.2-18.8-11.9-25-21.1c-3.5-5.4-7.1-10.7-11.3-15.6c-0.2-2.9-0.2-5.9-1.8-8.4c-0.1,4.3-0.9,9.6-5.4,11.6
	c-3.1,2-5.7-1.6-7.6-3.6c-3.4-4.3-7.3-8.3-12.3-10.7c3.3-1.6,5.1-4.9,5.3-8.5c-1.9,1.8-3.4,4.2-6.1,4.8c-5.5,1.8-11.5-0.4-15.5-4.4
	c1.6-1.1,3.5-1.8,4.9-3.3c1.5-1.7,1.2-4.1,1.3-6.3c-2.4,3.6-5.6,6.9-10,7.7c-7,1.5-14.1,2.2-21.2,3.4c-0.6-3.8-0.3-8.1,2.7-11
	c6.9-6.7,17.7-8,26.4-4.5c-1.8-2.1-3.9-4-5.9-6c3.3-1.3,6.7-2.3,10.1-3.4c-3.8-1.4-7.6-2.8-11.4-4c-0.8,2.4-1.7,4.8-2.7,7.2
	c-4.3,0.9-8.3,2.9-12.6,3.6c-2,0.5-3.2-1.5-4.9-2.1c-3.2,0.9-6.3,2.4-9.6,3c0.7-6.8,2.1-14.2,7.2-19.1c3.1-3,7.4-3.9,11.6-4.3
	c-1.1-0.8-2.2-1.5-3.3-2.3c6.6,0,15,0.9,19.1-5.6c-5,2.4-10.5,4.7-16,2.6c2.2-0.5,4.8-0.9,5.9-3.1c1.7-2.2,1.3-5.1,1-7.6
	c-1.5,2.2-3,4.5-4.3,6.8c-5.8-0.1-11.9,0.5-17,3.5c-2.8,1.6-4.7,4.1-6.7,6.5c0.9-7.5,2.1-15.9,8.1-21.1c4.7-4.1,11.3-3.5,17-2.3
	c-0.2-1.5-0.5-3.1-0.7-4.6c5.5-0.8,9.3,3.6,14,5.5c6.7,3.1,14,4.6,21.2,5.9c4.8,3.8,8.3,9,12.2,13.8c6.9,5.1,14.6,9.2,21.1,14.9
	c6.5,6.5,12.5,13.5,19.1,19.9c11.6,9.2,27.1,10.5,39.3,18.6c3,2.1,5.5,4.7,8,7.2c0.5-3.8,2.6-7.2,6-9.2c1.8,1.8,3.5,3.6,5.6,5
	c-0.9-5.4-2.7-11.5,0.7-16.4c2.2-1.1,5.3-0.9,6.8,1.3c4.6,5.9,3,15.5-2.9,19.8c-4.7,3.7-10.7,5.1-16.5,5.9c1.6,3.2,4.3,6,8,6.7
	c6.3,1.7,12.8,0.9,19.2,0.2c1.4,4.2,2.9,8.4,5.4,12.1c1.8,2.8,4.4,5,6.5,7.5c-0.2-4.3,0-8.8,2.3-12.5c3.4-5.6,10-8.3,16.1-9.7
	c7-1.6,15,0.5,19.6,6.1c4,8.3,4.3,18.3,0.2,26.6c8.4-4.9,12-14.5,13.2-23.7c2.3-0.6,4.6-1,6.9-1.5c-2.5-0.9-5.1-1.5-7.7-1.8
	c-3.8,5.4-3.8,12.2-6.6,18c-1.6-6.9-2.3-14.1-4.7-20.8c-4.3-6.4-12.9-8.6-20.2-7c-7.1,1.5-14.8,4.3-19.1,10.7
	c-2.6,3.6-2.1,8.2-1.9,12.4c-3.7-6.5-6.7-13.9-6.3-21.5c0.9-7.8,8-12.7,14.8-15.3c5.9-2.2,12.7-5.5,13.9-12.4c-3.4,2.8-7,5.4-11,7.3
	c-5.5,3-12.2,4.6-16,9.9c-2.5,3-2.8,7.1-2.9,10.8c-7.7,1.4-16,3.5-23.5,0.2c3.7-0.6,8-0.6,10.9-3.5c4.9-4.6,7.6-11.4,8.3-18.1
	c0.8-5.8-4-12.2-10.2-11.6c-4.9,0.8-7.5,5.8-8.4,10.2c-6.6-11.9,2.5-29.8,16.7-29.1c-4.2-3.5-3.8-9.2-2.5-14
	c3.7,9.4,16,11.6,24.4,7.8c2.2-1.1,5.4,0.2,6.9-2.2c2.9-4,0.1-8.8-1.2-12.8c2.7,1.4,5.3,2.8,8.2,3.8c-0.3-2-0.6-4-0.9-6
	c8.5-2.3,18-2.9,25-8.8c9.1-7.7,15.2-19.5,14.1-31.6c-1.7,7.8-4.2,15.9-9.9,21.8c-7.7,8.7-19.2,12.8-30.3,14.8
	c-0.3,1.3-0.6,2.6-0.9,3.9c-2.4-2.2-5-4.2-7.5-6.2c-0.5,1.7-1.1,3.3-1.6,5c-4.3-0.7-8.8-0.7-12.8-2.4c-4-4.4-4.8-10.9-4.5-16.6
	c1.2-1.7,3.4-2.2,5.3-2.8c5.6-1.4,10.9,1.6,15.8,3.8c3.7,1.6,7.5,4.6,11.8,2.9c5.4-1.6,5.9-8.2,5.4-12.9c-1.1-8.2-2.4-17.5-8.7-23.5
	c-10.5-6.1-23.5-2.1-34.6-6.3c-7.3-3.4-8.1-13.5-4.5-19.8c1.1-2.3,3.9-2.5,6-3.7c4.6,0.8,9.5,0.5,13.6-2c-0.1-2.2,0.1-4.6-1.1-6.5
	c-3-1.1-6.2-1.6-9.4-1.8c3.1,1.7,6.8,2.1,9.8,4.2c-3.1,3.9-8.7,5.3-13,2.6c-2,1.7-4,3.4-6.1,5c-0.5-4.3-0.5-9.2,2.3-12.8
	c15.6-6.1,32-10,48.6-12.2c3.8-4.4,9.2-7.1,15-6.8c8.7,0.4,17.7,0.7,26.1-2.3c5.9-1.9,11.1-5.6,15.2-10.3c-4.4,1.2-8.6,3.7-13.2,3.7
	c-4.6-1.1-4.4-6.6-5-10.2c-4.6,4.7,1.3,10.3,0.3,15.7c-3-5.2-5.5-11.8-3-17.7c2.2-4.8,8.2-4.2,12.6-5C507.6,124,505,127.3,506.8,131
	z"/>
<path class="st0" d="M485.6,153.9c2.7,0.2,5.8,0.5,7.7,2.8c2.3,2.2,1.9,5.6,1.7,8.5C492,161.3,488.8,157.7,485.6,153.9z"/>
<path class="st0" d="M518.5,158.4c1.9-1.4,4-3,6.5-2.7c6.6,0.4,12,4.7,17.6,7.8c5.7,3.6,11.8,6.8,17.1,11.1c1.9,5.2-1.6,10.2-3,15.1
	c9.2,3.1,18.2,9.7,20.2,19.7c1.2,9.8,0.8,19.8,0.9,29.7c0.2,4.5,0.7,9.3,3,13.3c3.2,5.6,12,6.6,16.5,1.9c2.7-2.6,3.9-6.3,4.9-9.8
	c2,4.7,4.6,9.4,5.2,14.6c-0.2,6.7-6.3,11.1-12.1,13.1c-7.8,2.6-16.5,4.5-24.5,2c-5.7-1.9-9.6-7-11.3-12.6
	c-4.5-13.4-2.4-27.7-4.6-41.4c-0.5-4-1.8-7.7-2.7-11.6c4.2,5.9,5.1,13.3,6.2,20.3c1.4,11.4,1.1,23.6,7.1,33.8
	c3.5,6.2,10.8,9,17.7,9.1c7.1-0.2,14.2-3.5,18.9-8.8c3.6-4.3,2.4-10.1,0.6-14.9c-1.3,3.6-2.1,7.7-5.2,10.3
	c-4.2,4.2-12.1,5.2-16.3,0.5c-3.5-3.9-4.7-9.2-5.6-14.2c-2.1-14.2-1.4-28.9-5.4-42.8c-4.2-4.2-9.4-7.9-15.1-9.9
	c-4.5,1.7-7.4,6.6-12.4,7.5c-7.6,1.3-16.6,1.5-22.6-4.2c10.3,2,22.1,2.1,30.8-4.6c5.1-4,6-11.2,4.4-17.1c-3.9-2.9-8.6-4.6-12.6-7.2
	C535.3,161.9,527.3,157.9,518.5,158.4z"/>
<path class="st0" d="M468.6,162.6c2.7-1.3,5.8-1.6,8.8-1.3c-3.1,1.4-6.5,3-7.3,6.7c4.2,3.2,8.8,5.7,13.4,8.3
	c-4.3,2.6-8.5,5.5-12.7,8.2c2,2.3,4.6,4.1,7,6c-4.1-0.8-8.3-3.2-10.5-6.8c0.7-4.3-0.9-8.8,0.9-12.9c0.6,3.2,1.4,6.4,3.7,8.9
	c3-0.2,6.2-0.8,7.8-3.7c-3.9-1.9-8.4-3.2-11.2-6.9C467,167.4,467.3,164.6,468.6,162.6z"/>
<path class="st2" d="M532.1,169.4c2.6-0.3,5.2-1,7.9-1.4c2.3,0.1,3.8,2,5.4,3.3c-4.2-0.5-9-3.9-12.6-0.2c1.2,1.4,2.3,2.7,3.5,4.1
	c-2.8-0.1-5.5-0.3-8.3-0.5c1,1.9,1.8,3.9,2.3,6.1c-2.4-0.7-4.8-2.1-7.3-1.4c-0.6-1.3-1.1-2.6-1.6-3.9c2,0.6,4,1.3,6,2
	c-0.8-1.7-1.5-3.4-2.3-5.2c2.4,0.4,4.8,0.8,7.2,1C532.2,172.1,532.2,170.8,532.1,169.4z"/>
<path class="st0" d="M453.4,168c3.8,2.1,7.6,4.6,9.9,8.5C458.5,176,455,172.4,453.4,168z"/>
<path class="st0" d="M446.8,173.3c2,1.9,4.2,3.4,6.6,4.9c-0.1,4.2,0,8.6,2.1,12.3c3.1,6.4,9.8,9.8,13.2,15.8
	c1.7,2.6,2.1,5.6,2.5,8.6c-0.9-2.4-1.3-5.1-3.2-6.9c-3.5-3.3-8.2-5-11.5-8.5c-4.6-6-5.1-13.9-6.2-21.1
	C449.4,176.6,448,175,446.8,173.3z"/>
<path class="st2" d="M437.2,177.8c3.4,1.3,7.2,2.6,9.1,5.9c2.3,3.6,0.1,8,1.2,11.9c2.1,7.2,10.9,11.1,10.1,19.5
	c-3.3-6.6-9.9-10.4-13.7-16.7c-5.1,4-11.8,2.7-17.4,1c5.2-0.4,11,0.7,15.6-2.3c4.1-2.7,4.1-11.8-2.1-11.5c-6.7,0.7-13,3.8-19.9,3.3
	c7.1-2.3,13.7-6.6,21.3-6.8C440,180.7,438.6,179.3,437.2,177.8z"/>
<path class="st2" d="M524.4,181.5c0.6,1.3,1.2,2.6,1.7,3.9c-1,0.7-1.9,1.4-2.9,2.2C523.6,185.5,524,183.5,524.4,181.5z"/>
<path class="st3" d="M521.3,188.1c1.6-0.9,2,1.6,0.5,1.9C520.1,190.9,519.7,188.4,521.3,188.1z"/>
<path class="st4" d="M414.5,204.3c3.7,1.8,7.6,3.5,11.8,3.5c-0.2,3.3-1.3,6.4-3.6,8.8c-1-2.3-1.6-4.9-3.6-6.6
	C417.2,208.4,415.2,206.8,414.5,204.3z"/>
<path class="st4" d="M426.2,209.7c7.2-1.5,15.2-2.5,22.2,0.5C441.2,211.4,433.1,213.1,426.2,209.7z"/>
<path class="st4" d="M435.9,227.9c3.7-5.7,9.4-10.3,16.1-11.6c2.4,4.9,2.8,10.3,2.6,15.7C448.3,232.5,440.1,233.9,435.9,227.9z"/>
<path class="st4" d="M410.3,223.9c4.8,1.5,8,6.1,13.2,6.6c-0.3,1.5-0.6,3-0.9,4.4C416.2,236,408.8,230.8,410.3,223.9z"/>
<path class="st4" d="M432.6,227.3c0.9,2.4,1.8,4.9,3,7.1c-3.7-0.2-7.5-0.2-11.1-1.3c-0.1-0.2-0.2-0.7-0.3-0.9c1.5,0.2,2.7,1,4.1,1.5
	C429.7,231.5,431,229.4,432.6,227.3z"/>
<path class="st4" d="M437.5,234.9c1.9,0.3,3.8,0.8,5.5,1.9c3.5-1.9,7.5-1.8,11.4-1.4c-0.4,1.8,0,4.3-2.1,5.1c-2.7,1-5.8,0-7.9-1.8
	S439.5,236.6,437.5,234.9z"/>
<path class="st0" d="M487.5,248.2c4.1,3.7,8.4,7.1,12.4,11c4.5,4.5,6.2,11.5,3.6,17.5c-5.2,11.8-18.6,17.1-24,28.8
	c-3.1,6.9-0.8,14.6,0.2,21.7c-2.3-5.1-4.1-10.5-3.9-16.1c0.1-7.2,3-14.2,7.4-19.8c4.8-5.6,11.8-8.8,16.5-14.5
	c4-4.8,3.2-12.7-1.7-16.6C494.5,256,489,253.6,487.5,248.2z"/>
<path class="st2" d="M256.5,272.2c1.4,1.7,3.6,3.3,3.4,5.8c0.1,6.7-6.6,12.7-13.3,11.3c-0.1-0.3-0.4-0.8-0.5-1.1
	c2.9-2,6.4-2.9,9.5-4.7C257.7,280.1,257,276,256.5,272.2z"/>
<path class="st0" d="M499.5,346.8c14.5,1.7,28,10.1,35.7,22.6c0.2-1.5,0.5-2.9,0.8-4.4c1.2,0.2,2.3,0.4,3.5,0.6
	c-1.3,4.8-1.4,9.8-2.1,14.7c-2.6-7-6-14-12-18.6c-7-5.6-16.3-7.4-25.2-7c1.4,5.5,6.1,8.9,9.3,13.2c-8.4,0.9-15.8-4.7-19.9-11.6
	c4.4,3,8.3,6.6,13.2,8.6C500,359.4,496.9,353,499.5,346.8z"/>
<path class="st1" d="M266.8,395.2c5.4-2.4,12-3.7,17.2-0.1c6.8,3.7,10.1,11.5,9.7,19c3.9,1.1,7.8,2.6,11,5.2
	c5.1,3.9,7.9,9.7,11.5,14.8c-1.2,3.8-2.5,7.5-3.7,11.2c8,1.9,16.3,0.1,23.6-3.4c13.1-6.2,23.5-16.5,35.8-24
	c0.2,17.7,2.7,37.6,16.7,50c-14,7.2-25.7,17.9-38.7,26.5c-1.8,0.1-3.4-0.7-5.1-1.1c-3.7,8.1-11.2,14.1-20.2,15.2
	c0.5-1.3,1.1-2.5,1.7-3.7c-4.8,2.5-11,1.7-14.4-2.7c-2.7,2-5,4.4-7.9,6.1c-6.3-6.8-12.5-13.9-18.3-21.1c-5-5.3-3.6-13.1-3.8-19.7
	c-1.9-1.2-4-2.4-5-4.5c-2.5-4.6-1.2-10.1,0.1-14.9c-3.9-3-7.7-6.1-12.1-8.2c7.9-4.7,18.2-3.9,26,0.6c0.1-0.6,0.3-1.9,0.4-2.6
	c2.8,2.5,6.4,4.4,8.1,7.9c0.1,7.4-1.6,15,0.4,22.3c0.8,3.3,3.6,5.4,6.4,6.8c-1.4-2.7-3.2-5.2-3.6-8.3c-1.5-8.7,1-17.9-1.9-26.4
	c-2.1-4.8-7.3-8-12.5-7.7c-4.3,0-8.1,2.1-12.1,3.4c-4.8-1-7.2-6.1-8.5-10.4c-1.4-5.3-2.8-11-1-16.3c0.7-2.3,2.9-3.6,4.8-4.9
	c-0.2,4.2-0.1,9,3.4,12c3,3,7.6,2.7,11.4,1.3c-3.4-0.4-7.4-1.2-8.9-4.8C274.1,406.8,272.8,399.4,266.8,395.2z"/>
<path class="st2" d="M278.1,449.2c3.5,1,7.1,0.9,10.6,0.3c-1.1,2-2.9,3.2-4.9,4.3C282.1,452.2,278.5,451.6,278.1,449.2z"/>
<path class="st0" d="M344.2,479.2c7.4-6.1,13.9-13.4,22-18.6c-6.1,6.2-10.5,13.8-16.4,20.3c-5.4,6.1-13.9,9.2-21.9,8.4
	c-3-0.4-5.1-2.7-6.9-4.9C329.2,485.8,337.8,484.4,344.2,479.2z"/>
<path class="st0" d="M315.4,471c5.7-8.9,17.4-9.6,26.9-9.1C334.6,468.3,324,466.9,315.4,471z"/>
<path class="st1" d="M412.9,554.9c5.2-5.3,12.9-7,20.1-7.1c14.6,0,28.3,5.8,42.6,7.7c6,0.5,10,6.3,10.9,11.9
	c1,8.3-0.7,17.3-6.3,23.8c4.5-3,10.1-5.9,15.6-4.1c6.1,2,10.1,7.7,13.1,13.1c5.9,11.2,8.4,23.7,9.9,36.2c-10.1,2.7-20,6-30.2,8.1
	c-8.9,1.7-18.5,0.3-25.9-5.2c3.9,5.8,10.7,8.4,17.3,9.9c-7.4,4.2-10.1,12.9-10.6,20.9c-0.3,13.3,5.5,25.8,6.2,39
	c0.2,4.7-0.2,10.1-3.9,13.6c-5.2,4.6-12.6,7-19.4,5.2c2-6,1.6-12.6-1.6-18.1c-0.4,6.4-0.5,13.8-5.5,18.5c-3.7,3.7-9.3,3.8-14.1,3.1
	c-16.9-2.2-33.9-4.5-51-5.3c-3.2-0.1-6.4-0.3-9.5,0.5c-2.5,1.6-4.8,3.6-7.4,5.2c-5.4-5.8-12.5-9.5-18.9-13.8
	c-2.4-1.8-5.3-2.7-7.9-4.2c-2.4-2-4.4-4.4-6.5-6.8c-5,5-15.9,4.1-17.6-3.7c4.6,2.5,10.4,1.6,14.4-1.5c2.2-1.8,1.3-5,1.3-7.4
	c-1.6,2.8-2.5,7-6.2,7.5c-4.5,0.7-7.2-4.7-11.6-4.4c-1.8,0.5-3.5,1.3-5.2,2c-0.1-7.8,5.5-15.7,13.2-17.3c4.3-0.4,9.1-0.6,13,1.6
	c1.9,1.1,4.1,1.1,6.2,0.8c-3.2-2.7-7.9-1.1-11.2-3.5c-3-2-6.6-2.7-10.1-2.2c-1.9,3.6-4.6,7.2-8.7,8.5c-3.4,1-7.7,1.5-10.5-1.1
	c-2.3-2.1-2.4-5.4-2.9-8.2c2.6,2,5.5,4.5,9.1,4.1c2.6,0.2,4.2-2.1,5.6-3.9c-3.2,1.3-6.9,2.6-10,0.4c-4.5-3.2-8.9-8-15.1-6.7
	c1-3.9,2.9-7.8,6.4-9.9c6.7-4.6,17.6-5.6,22.6,2c6.8-0.4,12.4,3.7,18.7,5.1c6.2,0.3,12.7-2.7,18.7,0.1c5.9,3.2,8.6,10.1,14.3,13.7
	c8.5,4.4,18.5,4.9,27.9,4.2c9.4-0.9,19.1-2.3,27.1-7.5c1.5,1.1,2.9,2.3,4.4,3.4c-5.1-19.8-11.6-39.2-16.4-59
	c-3.5-14.2-5.6-28.9-4.5-43.6C403.5,571.2,406.1,561.5,412.9,554.9z"/>
<path class="st0" d="M449.9,657c0.6-8.4,3.2-16.6,7.1-24c0.1,11.3-0.9,22.7,0,34c1.9,7.2,7.4,12.8,10.5,19.5
	c1.7,5.7,1.9,12,0.5,17.9c-0.4,2.3-2.7,3.1-4.5,4c-4.5-7.7-6.2-16.7-8.8-25.1C452.8,674.5,449.3,666,449.9,657z"/>
<path class="st0" d="M327.4,677.5c8.2-0.3,16.4-0.4,24.6-0.9c6,3.4,8.4,10.2,11.4,16C354.5,682.2,340,680.4,327.4,677.5z"/>
<path class="st4" d="M290.4,687.2c0.4-1.3,0.4-3.3,2.2-3.2c1.4,1.7,2.6,3.5,3.9,5.2c-2.5,3-3.5,6.9-5.5,10.2
	C290.3,695.4,289.7,691.3,290.4,687.2z"/>
<path class="st0" d="M424.7,703.6c3.5-1.4,7.3-0.8,10.9-0.4c-5.3,2.2-12.4,4-13.5,10.6c-9.4,1.6-18.8-0.3-28.1-0.9
	c-4.4-0.4-8.9-0.2-13.3-0.2c4-2.4,8.5-3.9,13.2-3.3c7.3,0.8,14.4,2.3,21.6,3.6C417.6,709.1,420.4,705.2,424.7,703.6z"/>
<path class="st0" d="M627.2,730.8c6,11.4,15.9,20.4,20.2,32.7c1.4,4.2,3.4,8.4,6.6,11.5c2.7,2.7,6.5,3.5,9.7,5.4
	c0.6-0.8,1.3-1.6,1.9-2.4c0.1,0.6,0.3,1.9,0.4,2.5c-2.7-0.1-4,2.2-5.7,3.9c-5.2,1.5-11.3-1.3-13.5-6.4c-2.5-6.1-2.6-13.2-6-18.9
	C632.4,752.2,630.2,740.8,627.2,730.8z"/>
</svg>
