<?xml version="1.0" encoding="utf-8"?>
<!-- Generator: Adobe Illustrator 21.1.0, SVG Export Plug-In . SVG Version: 6.00 Build 0)  -->
<svg version="1.1" id="Layer_1" xmlns="http://www.w3.org/2000/svg" xmlns:xlink="http://www.w3.org/1999/xlink" x="0px" y="0px"
	 viewBox="0 0 1024 1024" style="enable-background:new 0 0 1024 1024;" xml:space="preserve">
<style type="text/css">
	.st0{fill:#FFFFFF;}
</style>
<path d="M498,124c2.2-3.6,4.3-8,8.5-9.6c5.5,9.6,12.3,18.3,18.8,27.2c1.2,1.8,3,3.4,3.7,5.6c-0.4,4.3-3.7,7.4-6.5,10.4
	c-2.4,2.7-2.1,6.5-1.7,9.9c8,0.6,16,1.8,24.1,2.4c6.2,0.2,12.1-2.7,16-7.5c-0.8-5-5.1-7.7-8.4-11c-1.2-1.6-3.6-4.3-1.3-6
	c9.8-9.2,20.1-19.1,33.3-22.9c-9,25.5-12,52.7-13.3,79.7c-44,0-88.1,0-132.1,0c0.4-26.8-1.3-54.3-10.6-79.7
	c6.7,0.6,13.1,3.5,18.1,7.9c5.8,5.1,11.6,10.5,18.8,13.7c-1.2,5-5.6,8-9.1,11.3c-3.1,3.2-2.9,8-1.9,12.1c2.6,2,5.6,3.7,9,2.2
	c8.5-1.8,17.2-0.8,25.7,0.7c1.9-3.5,4-6.9,5.7-10.5c-2.5-3.4-6.2-5.6-9.1-8.5c-1.3-1.6-2.5-4.4-0.4-6
	C490.9,139.1,494.2,131.4,498,124z"/>
<path d="M459.9,220.8c16.5-4.7,34-3.9,50.6-0.4c4.1,0.7,7.1,3.8,10.8,5.4c11.3,0.9,22.8,0.7,34.1,2c8.1,1.1,16.5,4.1,21.4,11.1
	c-6.2,0.6-12.4,0.1-18.5,0.8c-2.8,0.3-4.6,2.6-5.7,5c7.5-1.4,14.4,2.5,21.8,2.8c-0.8,14.2-7.6,27-13.5,39.6
	c-1.9-4.4-4.2-8.9-8.2-11.7c-5-3.7-12.2-4.3-17.7-1.5c-9.5,4.7-15.7,15.4-14.6,26c0.8,7,4.5,14.8,11.8,16.6
	c7.9-1.4,14.5-6.6,20.9-11.1c5,9.1,7.8,20.1,4.4,30.2c-3.2,9.5-11.2,16.4-20.1,20.4c0.3-7.4-3.2-14.7-9.7-18.5
	c-5-3.8-11.8-3.3-16.9,0c1.8,9,7.2,16.9,14.7,22.2c10.1,7.4,22.4,10.9,34.5,13.5c19,4.6,38.2,9.2,56.3,16.8
	c13.6,5.4,22.9,17.1,32.5,27.5c11.2,12.2,20.9,25.7,32.5,37.5c11.5,11.6,25.5,21.3,41.5,25.5c-2,6.3-5.3,12.3-9.8,17.2
	c-9.2,10.4-21.8,16.8-32.5,25.4c19.7,15.3,33.6,37.2,55.4,50c5.3-6,12.3-10.6,20.1-12.4c9.8-2.3,20.6-2.6,30,1.7
	c4.1,1.8,7.5,4.6,10.9,7.4c-3.4,0.3-7.5-0.2-10,2.7c-4,4.6-3.3,11.1-3.1,16.7c-7.1-0.7-14.9-1.7-21.5,1.7c-2.6,1.2-4,3.7-5.3,6
	c9.8-1,19.6-2.9,29.5-2.7c0.5,3.3,1.5,6.5,3.6,9.2c3.1,4.5,8.3,7.3,10.7,12.3c1.8,3.3,1.8,7.2,1.8,10.9c-3.8-1.7-8.1-4.7-12.4-2.9
	c-3.3,2.2-5.6,5.6-9,7.8c-5.3,0.5-9.8-3.4-13.5-6.7c-3.7-3.5-7.7-8.6-13.4-6.9c5.8,5,11.3,10.5,15.1,17.2c6,10.1,7.8,22.1,6.8,33.6
	c-4.5-2.9-9.2-6.1-14.8-6c-6,0.5-11.9,2.2-17.8,3.3c-9.4-6.2-15.3-16-23.3-23.8c-6.3,3.8-13.9,4.3-20.6,7c-3.7,1.4-5.6,5.2-6.2,9
	c-6.4-6.3-8.8-15.5-9.9-24.2c-1-8.1-0.4-16.9,4.6-23.8c-6.4-6.6-12.6-13.6-20.1-19c-1.5-0.9-3.5-2.7-5-0.8c-8,6.1-18.9,5.5-28.2,3.2
	c-8.4-2.1-17.3-6.2-20.7-14.8c7.2-2,15.9-5.2,18-13.2c1.5-3.5-1.7-6.4-3.5-9c-5.8-7.3-15.3-10.6-24.4-10.2
	c-13.4,0.6-26.2,5.7-38.1,11.6c-16,8-31,17.9-45.4,28.6c-7.7,5.9-15.2,12.1-21.6,19.4c-3.6,4.3-7,9.2-7.6,15
	c-2.2,17.8,2.5,35.4,3.6,53.1c1.3,15.8-3.9,31.5-12,44.9c-5.5,8.8-11.3,17.5-16.4,26.6c-0.5,1.1-1.4,2.2-1.4,3.6
	c-0.3,6.9,1.4,13.7,2.8,20.5c-8.1,1.5-15.5-3.1-21.4-8.1c-3.6-3.1-7.4-6.9-12.5-6.9c-3.3-0.1-5.9,2.1-8.4,4
	c10,14.6,20.9,28.8,34,40.8c12.7,11.4,28.3,20.6,45.6,22.1c15.8,1.5,31.4-3.9,44.8-12.1c7.1,5.1,16,6.3,24.2,8.5
	c6.1,1.8,10.9,6.6,13.3,12.5c-5.1,1-11.3-0.2-15.2,4.1c-3.2,3.4-1.9,8.3-1.5,12.5c-7.2-2.3-9.9-10-14.7-15c-1.5-1.9-3.9-2.2-6.2-2.1
	c5.7,7.3,12.1,14.1,17.8,21.3c5.7,7.5,7.5,17.4,6.2,26.6c-0.4,1.6-2.5,1.6-3.7,2.5c-2.7-3.8-4.9-8.3-9.2-10.6
	c-3.4,2.4-6.3,5.8-10.3,7.2c-3.7,0.3-4.6-4.2-5.9-6.8c-2.3,7.6-1.8,15.7-3.3,23.5c-0.7,4-3.4,7.4-7.2,8.9c-1.2-3.7-2.2-7.9-5.4-10.4
	c-4.4-3.7-10.5-3.8-16-3.3c-0.1-6.9,0.6-13.8,0.3-20.7c-0.1-3.7-1.8-7.1-5-9.1c3.1,15.4-0.2,31.1-2.9,46.3c0,2.1-2.4,1.7-3.8,2.5
	c-1.4,0.9-2.7,2-4,2.9c-0.2-3.8,0.2-7.9-2-11.2c-2.1-3.6-6.4-5.1-10.3-5.5c-8.6-1-17.2-1.8-25.8-2.6c-9.2-5.1-13.3-15.6-16.7-25
	c-3-10-8.2-20.1-17.5-25.6c-2.4-1.3-5.1-3.2-7.9-2.2c-3.4,1.1-5,4.7-7.8,6.7c-1.9,1.1-5.2,0-5.1-2.4c-1.4-11.2-6.5-21.5-11.8-31.4
	c-6.8-12.6-14.8-24.4-22.9-36.2c-8.5-13.1-14.7-28.3-14.3-44.1c0.1-8.6,2.5-17,6-24.9c1.5,6,4.3,12.2,10.1,15.3
	c3.7,1.9,8.4,4,12.4,1.6c9.1-3.8,17-11.1,20.5-20.4c4.9-12.9,3.3-27.2,0.4-40.4c-3.1-13.9-10.8-27.5-23.5-34.5
	c-2.8-1.6-5.8-2.8-8.8-3.9c-6.3,12.6-16.5,23.2-28.9,29.9c-19.5,11-43.3,13.4-64.9,7.8c-15.7-4.1-29.8-13.8-38.9-27.2
	c-11.6-17.3-13.1-40.1-6.2-59.4c2.7-8.1,7.3-15.4,11.1-23.1c4.2-8.4,8.3-17,10.9-26c1.6-3.9-1.8-7.5-4.7-9.6
	c-7.1-4.7-16.2-4.1-24.3-3.5c0.8-5.7,3.4-11.4,8.5-14.4c7.6-4.4,16.9-4.5,25.4-3.3c7,1,13.6,5.2,16.7,11.8
	c1.9-8.1,7.2-14.7,12.5-20.8c10.6-12,23-22.4,35.3-32.6c11-9.4,21.2-20.3,27.5-33.5c5.3-11.4,7-25.2,1.8-37
	c-5.4-12-16.2-20.4-27.3-26.7c-11-6.2-25-7.8-36.7-2.5c-6.3,4.8-5.1,14.9-12.5,18.9c-16.2-9-32.2-18.3-47.7-28.5
	c-3.7-2.6-7.7-5-10.7-8.4c-0.8-1.7-0.4-3.8,0.8-5.2c5.4-7.6,12.4-14.5,21.3-17.6c4.7-1.8,9.8-2,14.8-1.8c2.9-6.1,5.9-12.1,8.8-18.2
	c4.6,0.7,9.3,1.3,13.9,2.1c2.1,0.1,2.5,2.5,3.4,4c2.5,5.4,2.8,12.3,7.6,16.4c1.9,1.8,4.6,1.5,7,1.7c19.5,1.1,39.2,5.9,55.6,16.7
	c15.9,10.4,28.4,26.3,33.1,44.9c4.6,18,4.1,37.7-3.6,54.8c-6,13.6-16,25.2-27.4,34.6c-13.9,11.3-27.7,22.9-39.8,36.2
	c-4.5,5-8.6,10.3-11.5,16.4c10.5-2.7,21.1-5,31.8-7.2c10-1.9,20-3.9,29.6-7.3c8.9-3.3,17.4-9.8,19.7-19.4
	c2.6-11.1-1.8-22.3-6.6-32.2c4.6-9.7,8.9-19.7,13.3-29.5c22.4,22.9,27.1,60.9,11.2,88.6c-7.5,13.6-20.2,24.3-35,29.2
	c-16.7,5.8-35.1,4.3-51.8-0.8c7.5,5.5,10,15.2,9.4,24.1c-0.7,9.2-1.7,19.6-8.6,26.5c-3.4,3.5-8.5,3.5-12.9,2.1
	c3.8-6.3,3.4-14,2.6-21.1c-3.9-4.1-9.1-6.9-14.5-8.4c-6.1-1.8-12.6,0.3-17.4,4.2c-6.7,5.3-10,13.7-11.2,22
	c-1.6,10.7,0.5,22.4,7.7,30.7c5.2,6.2,13.1,9.8,21.1,10.6c10.6,0.9,21.7-1.1,30.8-6.9c13.6-8.3,24.9-19.8,35.2-31.7
	c13.1-15.3,25.4-31.1,39.2-45.8c21.9-22.6,43.8-45.2,65.6-67.8c-13.5-8.6-25.3-19.9-33.6-33.6c-7.1-11.5-11.6-24.5-14.1-37.8
	c-3.4,2.4-6.6,5-10.2,6.9c-1.9,1.1-4.6,0.9-5.7-1.2c1.4-19-1.9-38-2.8-56.9c-0.3-10.1,0.3-20.6,4.8-29.8c-4.4,1.8-10.1,3.1-14.2-0.1
	c-2.4-2.3-0.8-5.5,0.1-8.1c8-23.1,16.4-46.4,29.8-66.9C426.9,237.7,442.2,225.8,459.9,220.8z"/>
<path class="st0" d="M486.7,236.5c8.7-1.1,17.4-1.6,26.1-2.1c0,3.5,0,7,0,10.5C503.8,243.5,494.8,241,486.7,236.5z"/>
<path class="st0" d="M443.6,238.6c2.2-2.6,5.6-2.8,8.8-2.7c-2.9,2.6-6.1,5.1-7.7,8.7c-2.6,5.6-3.2,12.2-1.4,18.2
	c1,3.4,3.6,5.9,5.9,8.4c-5.1-0.5-10.4-3.4-11.3-8.9C436.5,254.2,437.9,244.9,443.6,238.6z"/>
<path d="M640.5,280.4c-1.1-2.2-1.2-5.7,1.7-6.5c5.2-0.5,10.6,0.6,15.5,2.6c10.5,4.5,17.1,16.1,16,27.4c-0.9,9.3-3.6,19.5-11.5,25.2
	c-8.8,6.2-20.2,5.7-30.3,3.9c-18.4-3.6-35.5-11.5-52.5-19.3c-16.6-7.5-32.6-16.7-50.3-21.3c19.2-3.6,38.6,1.3,56.9,6.9
	c13.1,4.5,27,8.6,40.9,6.2c6.5-1.3,13.1-4.1,17.3-9.4C646.5,290.7,642.5,285.3,640.5,280.4z"/>
<path d="M708,312c3.1-3.3,7.3-5.2,11.5-6.7c3.8,12.8,5.9,26.2,5.7,39.6c5.3-11.7,13.8-22.2,25.2-28.5c6-3.3,13.2-4.2,19.9-2.8
	c-0.8,16.6-13.5,29.2-16.4,45.2c2.5-1.4,4.9-3,6.8-5.1c4.2-4.2,6.6-10.2,11.6-13.5c1.3-0.3,2.6,0.1,4,0.2c9.2,1.7,18.7,2.8,28.1,2.2
	c-5.1,5.8-8.2,13.4-8.2,21.2c-0.3,3.6,0.6,7.2,0.4,10.9c-5,4.3-11.2,6.7-16.9,9.9c-3.2,1.8-5.3,4.8-6.8,8c2.4,3,4.4,6.5,5,10.4
	c1.4,5.8-0.6,12.2,2.5,17.5c1.7,3.4,5.1,5.4,8.2,7.2c-4.2,3.8-10,5.2-15.6,4.8c-6.3-0.4-12.7-0.2-19-0.2
	c-6.7-3.2-8.6-11.8-15.3-15.3c-7.2,2-12.2,8.3-16.9,13.7c-7,8.1-11.7,18-20,25c-3,2.5-7.4,4.8-11.2,2.6c-4.8-2.7-8.2-7.2-11.6-11.5
	c-6.4-8.7-12.9-17.5-17.8-27.2c4.1-6.6,9.8-11.9,15.5-17.1c6.6-6.1,14.2-11.2,19.6-18.4c4.9-6.3,8.2-14.1,8-22.2
	c0-10.1-1.8-20.1-2.9-30.2C701,324.8,703,317.2,708,312z"/>
<path d="M244,406c11.4-6.1,22.9-12,34-18.7c8.1,4.2,3.3,15.6,9.4,21.1c21.3,0.9,42.6,1.9,64,3c-3.3,12.2-9.2,24.9-20.7,31.3
	c-9,0.1-18.2-0.9-27.2,0.9c-7.3,1.3-15,4.1-19.5,10.4c-2.8,3.8-3.7,8.5-4,13.1c-5.8,0.3-12.4-0.2-16.7-4.6c-3.1-2.9-4.2-7.1-5-11.1
	c-15.8,1-30.2-8.6-39.1-21c-0.3-2-0.3-4.1,0-6C226.1,416.6,235,411,244,406z"/>
<path d="M526.3,589.1c10.7-7.7,24.5-12.3,37.7-8.9c13.9,3.1,24,13.8,35.7,21.1c11.7,7.4,23.8,15.6,38,17.1
	c0.3,5.8-0.4,12.2-4.5,16.7c-5.8,7-14.9,9.3-21.6,15c-0.1,9.2-2.4,18.4-6.8,26.6c-7.8,14.5-19.5,26.9-25.3,42.5
	c18.3,4.8,38.4,3.1,55.4-5.6c9.4-4.4,17.2-11.3,25.9-17c14-9.1,30.4-17.2,47.6-14.8c-1.8,1.3-4.3,2.6-3.9,5.2
	c0.5,4.5,1.9,9,2.6,13.5c-4.8,0.5-9.6,0.5-14.3,1.2c-3.5,0.6-6.1,3.2-7.9,6.1c7.2-1.7,14.7-3.2,22.1-1.6c10.6,2,22.1,7.1,26.2,17.9
	c-4.8-0.6-10.4-0.9-14.2,2.6c-3.9,3.5-4.1,9.1-4.4,13.9c-6.2-1.3-10.5-6.2-14.2-10.9c-2.5-3-5.4-6.3-9.7-6.1
	c10.3,12.6,21.6,25.9,24.2,42.5c-3.5-2.1-7.6-3.1-11.6-2.1c-6.2,1.2-11.7,4.4-17.9,5.3c-1.2-4.8-1.1-10-3.2-14.6
	c-1.3-2.8-4.5-3.6-7.3-4.2c6.1,10.2,9.6,22.3,8.1,34.2c-0.7,5.5-3.8,10.5-8,14c-0.7-6.7-4.2-13.2-10.4-16.2
	c-5.5,2.5-11.9,3.9-17.8,2c-6.5-1.7-11.4-6.5-16.8-10.3c-5.7-4.1-11.5-8.3-18.3-10.1c-5.2,4.9-10.8,10.6-11,18.2
	c-5.8-4.4-12.8-7-19.7-9c-13-3.8-26.4-6.1-39.8-8c-13.9-2-28.1-4.7-40.4-11.9c-4.6-2.7-8.6-6.3-11.7-10.7c8.6-5.1,17.3-9.9,26-14.9
	c1-0.6,1.8-1.5,2.4-2.5c5.1-8.9,10.3-17.8,15.4-26.7c5.2-8.9,9.7-19.1,8-29.6c-1.4-9.5-8.8-16.9-16.9-21.2c-1.4-0.8-3.1-0.1-4.6,0.2
	c-5.9,1.7-11.4,4.6-16.8,7.4c0-9.7,0-19.3,0-29c6.3-4.7,12.7-9.3,19-14.1C528,606.7,529.5,597,526.3,589.1z"/>
<path class="st0" d="M537.9,853.1c-1.5-2.4-0.1-4.9,1.3-6.9c2,4.6,4.5,9.1,5.8,14c0.8,2.8-0.6,5.4-2.1,7.6
	C542.9,862.4,540.4,857.7,537.9,853.1z"/>
</svg>
