<?xml version="1.0" encoding="utf-8"?>
<!-- Generator: Adobe Illustrator 21.1.0, SVG Export Plug-In . SVG Version: 6.00 Build 0)  -->
<svg version="1.1" id="Layer_1" xmlns="http://www.w3.org/2000/svg" xmlns:xlink="http://www.w3.org/1999/xlink" x="0px" y="0px"
	 viewBox="0 0 1024 1024" style="enable-background:new 0 0 1024 1024;" xml:space="preserve">
<style type="text/css">
	.st0{fill:#FFFFFF;}
</style>
<path d="M490.4,97.6c50-2,100.4,5.3,147.5,22.4c55.2,20,104.9,53.4,147.1,94c14.6,13.6,26.9,29.3,38.6,45.4
	c21.2,29,38.6,60.9,51.5,94.4c18.5,47.8,27.8,99,29.5,150.1c-1,15.9-1.1,31.8-2.8,47.7c-5.1,54.9-19.5,109.3-44.8,158.4
	c-23.3,45.6-55.8,86.1-93.9,120.1c-36.3,32.5-78.7,58.3-124.7,74.5c-24.8,8.8-50.6,14.9-76.6,18.4c-34,4.6-68.7,5.2-102.7,0.2
	c-36.5-5.2-72.1-16.2-105.5-31.7c-34.5-15.9-66.8-36.6-95.3-61.8c-30.7-27.1-56.8-59.2-77.8-94.2c-20.4-34.1-36.9-70.6-47.2-108.9
	c-12.2-44.7-16-91.4-13.3-137.5c1.8-33.3,7.2-66.4,16.3-98.4c19.7-69.9,58.6-134,109.8-185.3c28.5-28,61.8-50.7,97.5-68.5
	C389.1,113.5,439.4,99.6,490.4,97.6z"/>
<path class="st0" d="M461.7,144.7c18.5-3.5,37.4-4,56.1-3.9c-8.8,5.5-17.9,11.5-23.2,20.6C483.9,155.4,473.1,149.4,461.7,144.7z"/>
<path class="st0" d="M556.5,143c13.1,2.4,26.3,4.8,39.2,8.5c-16,2.5-31.5,7-46.9,11.6C548,155.6,552.1,148.8,556.5,143z"/>
<path class="st0" d="M406.8,157.1c8.8-2.1,17.3-5.3,26.2-7.1c3.4,7.2,4.2,15.2,5.2,23C427.8,167.6,416.5,163.8,406.8,157.1z"/>
<path class="st0" d="M608,171.7c7.4-1,14.9-0.5,22.3-0.2c-5.6,0.8-11.3,0.5-16.9,1.2c-16.5,1.8-32.5,7-47.1,14.7
	c-19.4,9.9-36.4,23.6-54.6,35.4c-1,0.6-2,1.1-3.1,1.6c-0.7-3-0.7-6.7,1.9-8.8c13.6-9.3,27.5-18.3,42.2-25.7
	C570.1,181.1,588.6,174,608,171.7z"/>
<path class="st0" d="M652.8,182c-0.5-3.1,0.7-6.1,1.8-8.9c36.6,16.5,69.7,40.3,97.5,69.2c-7.7,1.7-12.9,8.6-20.5,10.5
	c-4.7,0.4-9-2.2-12.7-4.7c-5.2-3.9-10.4-7.9-16.4-10.5c5.1-7.4,13.9-10.9,22.6-12.1c-10.5-10.4-25.2-14.7-38.7-19.8
	c-8.9-3.4-17.8-7-25.5-12.5C657,190.5,653.4,186.8,652.8,182z"/>
<path class="st0" d="M334.8,204.6c4.6-5.1,11.6-6.7,18.1-7.2c21.4-1.3,43.3,6,59.3,20.4c4.3,4,8.9,8.2,11.5,13.6
	c1.3,2.5,0.7,5.3-0.5,7.8c-13.4-19.1-34.6-32.6-57.6-36.6C355.3,200.6,344.8,201.9,334.8,204.6z"/>
<path class="st0" d="M624.2,226c17.9-3.9,37.1-4.5,54.3,2.5c4.6,2,9.8,4,12.3,8.7c-8.4-5.1-17.6-9.1-27.4-10.3
	c-19.5-2.5-39,2.2-57,9.5c-10,4.1-19.5,9.4-28.5,15.4c-2.6-1.1-5.1-2.6-7.5-4.1C586.7,237.1,605.1,229.8,624.2,226z"/>
<path class="st0" d="M177.9,395c18.5-59.1,51.4-113.8,96.2-156.7c-14.9,26.3-28.8,54.1-32.6,84.5c11.5-13.6,22.6-27.5,34.8-40.5
	c2.3-2.4,4.7-4.7,7.3-6.8c-4.6,15.7-12.7,30.1-21,44.1c-9.1,15.4-20.2,29.5-28.6,45.4c-8.3,15.4-15.2,32.2-15.6,49.9
	c10-9.4,20.3-20.5,34.6-22.6c-10.1,22.5-24.6,42.7-34.4,65.3c-9.2,19.3-17.2,39.4-21.5,60.5c-2.8,13.8-3.8,28.1-1.6,42.1
	c3.6-6.3,7.3-13.2,14-16.7c3.6-1.9,7.8-1.2,11.3,0.5c-13.3,30.8-31.5,59.7-39.6,92.5c-17.5-41-20.7-86.3-20.3-130.4
	C161.6,468.5,166.5,430.8,177.9,395z"/>
<path class="st0" d="M293.8,254.9c13.4-9.2,30.3-11.6,46.2-10.2c19.4,1.3,39.4,7.1,54,20.3c2.9,2.8,6.2,5.4,7.8,9.2
	c1,2.8-2.3,4.6-3.7,6.6C391,268,378.6,259,365,253.9c-16.8-6.2-35.4-8.8-53.1-5.3C305.6,249.9,299.7,252.4,293.8,254.9z"/>
<path class="st0" d="M434.4,256.4c2.1-3.6,5-7.6,9.7-7.2c-2.5,5.4-6.1,10.3-7.9,16c-7.4,21.1-6.4,43.9-4.7,65.9
	c-3.7-15.9-4.9-32.4-3.7-48.6C428.5,273.5,429.9,264.3,434.4,256.4z"/>
<path class="st0" d="M737.1,270.2c7.7-8.9,19.6-13.6,31.3-12.2c-5,2.5-9.6,5.7-12.9,10.3c5.9,5,12.7,9.4,16,16.7
	c-3.3-2.6-6.4-5.4-10.1-7.5C754.1,273.1,745.5,271.1,737.1,270.2z"/>
<path class="st0" d="M477.8,285.9c21.7-7.9,42.9-18.8,66.3-20.3c1,5.5,1,11.1,2.3,16.6c5.2-3.3,5.6-10.1,9.4-14.5
	c0.8-1.4,2.8-0.6,4-0.5c5.1,0.9,9.5,3.7,13.3,7c-0.8,6-3.1,11.7-2.8,17.9c5-1.4,7.4-6.3,11.7-8.8c15.6,20.4,21.1,46.3,34.6,67.9
	c2,2.9,3.7,6.5,7.2,7.8c7.6,3.4,13.2,10.4,15.5,18.3c2.2,6.9,4.8,13.6,7.1,20.5c-4.6,0.1-9.1-0.7-13.7-0.9c5.3,8.3,10.9,16.3,17,24
	c-3.8-2-7.5-4-11.7-5.1c3.6,8.1,11.9,12.9,15.5,21c-4,1.8-8.7,1.2-12.3-1.3c-4.6-2.8-8.9-6.4-14.3-7.6c1.6,5.9,7.2,9.3,9.2,14.9
	c-3.2,1-6.7,1.8-8.6,4.8c12.2,16.8,22.3,35.4,28.1,55.4c6.4,21.7,7.1,45.3,0.5,67.1c-5.6-2.5-6.7-9.7-12-12.6
	c0.3,8,4.1,15.2,6.1,22.8c0.6,1.2,0.2,2.4-0.4,3.5c-2.6,4.9-5.2,9.7-8.9,13.9c-4-7.1-6.7-15-11.6-21.6c-0.3,10.7,3.3,21,3.8,31.7
	c-2.2,3.5-5.1,6.4-7.8,9.5c-7.3,8-15.2,15.7-24.9,20.8c-0.2-8.3-1.4-16.7-4.6-24.5c-1.9-4-4.6-8.2-8.8-9.9c-2.7-1.2-5.6-0.5-8.3,0.1
	c-0.4,3.1-2.7,5.1-4.6,7.3c-1.1,3-2.1,6-3.3,8.9c-9.1-6.3-18.1-12.8-27.5-18.8c-1.6-1.2-2.8-2.8-4.1-4.2c-1.8-0.5-2.8,1.5-3.8,2.6
	c0.8,1.2,1.2,2.8,2.5,3.5c1.7,0,3.3-0.4,5-0.7c9,6.2,18.1,12.3,27.3,18.3c-1.1,3.7-2.1,7.4-3.3,11c-6.8-3.2-13.3-7.2-19.4-11.7
	c-2.1-1.4-2.3-4.3-4.2-5.9c-2.8-1.4-6,2.7-4.7,5.4c2,2.3,5.3-0.1,7.6,1.6c6.5,4.1,13.1,8,19.7,12c-0.8,2.7-1.8,5.3-2.9,7.9
	c-6.7-3.6-13.3-7.5-19.5-11.9c-3.5-2.3-6.9-4.8-10.9-6.1c8.8,7.6,19.5,12.8,29.5,18.8c-1.4,3.8-3.7,7.1-6.2,10.3
	c-6-4.4-11.7-9.1-17.7-13.3c-0.2-1.8,0.6-4.1-1.2-5.2c-1.5-0.8-3.3-0.5-4.9-0.4c-0.3,2-0.3,4.1,0.6,6c1.8,0.1,3.7-0.2,5.6,0.2
	c5.5,4.5,11,9,17.1,12.8c-3.8,3.5-7.7,6.9-11.5,10.4c-7.1-4.9-12.3-12.1-19.3-17.1c0-2.2-0.2-4.4-1.2-6.3c-1.6,0.1-3.2,0.2-4.8,0.4
	c-0.4,2.2-0.8,4.9,1.2,6.4c1.6,0.3,3.2,0.2,4.8,0.3c5.3,6.2,11.7,11.1,17.7,16.5c-3.9,2.2-7.9,4-12.1,5.5
	c-7.7-7.1-14.3-15.4-22.1-22.4c0.1-2,0.1-4,0-6c-1.8-0.4-3.9-1.6-5.6-0.3c-1.2,1.2-1.8,3-0.9,4.5c1.2,2.2,4.5,1.1,5.9,3.1
	c6.4,7.7,14.6,13.7,20.5,21.8c-15.5,2.8-31-2.2-45.8-6.4c-17.6-5.8-35.6-11.5-51.1-22c-2.8-2.4-6.9-4.3-7.4-8.4
	c-1.9-10.9-5.4-22.1-2.9-33.2c1.3-6.7,4.3-13.9,10.3-17.7c11.3-4,22.7-8,33.4-13.6c3.7-2.1,7.7-4.2,10.2-7.8c2.1-4,2.5-8.6,3-13
	c0.2-3.1,0.6-6.9-2-9.2c-1.8-2-4.2,0.4-5.8,1.4c-6,4.1-10.5,11.5-18.2,12.2c-9.5-1.9-15.7-10.7-24.9-13.6c-4.2-1.4-8.9-1.5-12.9,0.4
	c-5.7,3.1-10.8,7.7-17.3,9.1c-4.5-0.7-8.8-2.1-13.2-3.1c-5.3-1.3-11.9-3-16.4,1.1c-4,3.8-3.4,9.7-2.8,14.7c-1.8-0.2-3.6-0.3-5.4-0.4
	c1.8,7.2,3.8,15.3,9.9,20.1c3,2.4,7.1,2.3,10.4,0.7c3.8-1.7,7.7-3.4,12-3.4c1.6,4.2,2.8,8.5,4.9,12.5c3.8,4.9,8.6,8.8,11.9,14.1
	c4.5,7,6.8,15.1,9.1,23c1,4.9,2.7,10.7-0.5,15.2c-9.6,14.3-22.1,26.4-31.6,40.7c-7.6-1.2-13.1-7.3-15.5-14.3
	c-4.1-12.2-4.4-25.7-10.7-37.1c-0.7-1.9-2.8-2.1-4.4-2.8c-1.3-1.4-0.7-3.2-0.6-4.8c1.7,1.9,2.9,4.1,4.2,6.4c0.5-1.9,1-3.9,1.6-5.8
	c-4.8-5.1-8.8-11.2-14-15.8c-2.8-0.3-5.6-3.4-3.2-5.9c1.3,1.5,1.6,4,3.5,4.8c2.2-0.4,2.9-4,1.4-5.6c-1.6-0.8-3.5-0.2-5.2,0
	c-1.7-3.7-3.5-7.3-4.7-11.3c-2.7-1.3-5.9-2.5-7.4-5.3c-2.3-4-3.6-8.5-4.9-13c-2.9-10.7-5-21.5-6.9-32.4c-1.2-8.3-6.3-15.9-5.8-24.5
	c0.5-11.5,4.9-22.5,5.7-34c-1.5-16.7,5.4-33.4,1.9-50c1.4-7,8.9-10.9,10.5-17.9c-4,2.5-6.8,6.6-11.2,8.5c-0.8-5.7,0.8-11.3,2.8-16.6
	c3.5-9,8.3-17.4,13.4-25.6c6.6-10.9,13-21.9,18.8-33.2c4.5-8.9,8.9-17.9,11.6-27.5c2.4-6.8,9.3-10.7,15.7-13.3
	c7.3-2.6,14.5-5.2,21.9-7.4c6.3,6.3,10,14.7,12.4,23.1c4.2,14.8,5.4,30.3,5.9,45.6c0,3.2,2,6.1,4.4,8c4.1,3.1,9.4,4,14.4,4.1
	c7.1-22.4,14.3-44.7,21.4-67.1c1.8-6.6,5.3-12.4,8.8-18.2C472.7,290.9,474.6,287.6,477.8,285.9z"/>
<path class="st0" d="M777.2,268.8c23.5,29.3,43,61.9,57.2,96.8c16.3,39.9,25.5,82.5,28.1,125.4c-11.5-20.4-24.9-39.6-37.2-59.5
	c7.7-1.4,15.2-3.8,22.6-6.2c-11.2-11.9-24-22.2-36.2-33C803.1,384.9,794,378,787,369c-3.4-3.9-1.5-9.3-0.6-13.8
	c3.3-10.5,2.4-21.6,1.5-32.3C786,304.6,781.8,286.6,777.2,268.8z"/>
<path class="st0" d="M718.3,278.2c5.5-2.5,11.8-0.2,16.6,2.8c7.1,4.6,14.6,10.5,16,19.4c-2.6-3.2-4.8-6.8-8.4-9.1
	c-3.5-2.5-7.9-3.2-12.1-3.4c7.2,6.2,15.5,12.9,16.8,22.9c-3.7-6.2-8-12.5-14.7-15.8c5.3,12.3,10.3,25.3,9.9,38.9
	c0.1,5.3-1.4,10.6-3.4,15.5c0.6-7.8,1.1-15.8-1.1-23.4c-4-15.2-15-27.4-27.2-36.7C713.4,285.7,715.8,281.9,718.3,278.2z"/>
<path class="st0" d="M608.3,281.3c19.1-3.2,39.3-1.7,57.1,6.3c21,9.3,37.6,26.3,49.8,45.5c-10.5-13.2-22.3-25.7-36.7-34.6
	c-15-9.5-32.9-14.6-50.6-13.3c-6.3,0.4-12.5,1.4-18.6,2.9C609,285.8,608.7,283.5,608.3,281.3z"/>
<path class="st0" d="M304.8,297.9c15.2-5.8,32.3-7.4,48.1-2.9c4.7,1.5,9.4,3.4,12.8,7.1c-1.5,2.4-3.5,4.5-5.3,6.7
	c-8.8-8.6-21.4-11.6-33.3-11.6c-10.6,0.1-21.7,1.2-31.1,6.7c-4.2,2.4-7.3,6.3-10.2,10C289.5,306.2,296.8,300.8,304.8,297.9z"/>
<path class="st0" d="M771.4,305.3c5.5,10,4.5,21.9,2.6,32.7c-1.2,7.1-3.1,14.1-5.1,21.1c-2.4-0.8-4.7-1.7-7.1-2.5
	C768.7,340.4,773.6,322.9,771.4,305.3z"/>
<path class="st0" d="M325.5,329.5c8.1-1.7,16.5-0.8,24.4,1.5c-0.6,1.7-1.2,3.3-1.7,5c-10.2-3.2-21.4-2.9-31.4,0.9
	c-12.7,4.7-24.1,12.7-32.8,23.1c-2.7,3.2-4.9,6.9-7.4,10.3c1.8-7.1,6.9-12.6,11.8-17.9C298.4,341.7,310.8,332.3,325.5,329.5z"/>
<path class="st0" d="M691.1,367.1c27.7,21,53.1,44.9,74.8,72.1c24,29.9,43.5,63.4,58,99c3.4,8.4,6.5,16.9,8.1,25.8
	c-12.4-31-27.5-60.9-46.4-88.4c-25.9-38.1-58.2-71.8-94.8-99.7C690.8,372.9,691,370,691.1,367.1z"/>
<path class="st0" d="M309.5,389.5c3-2,6-4.1,9.4-5.5c0.2,3.9-1.5,7.6-2.5,11.3c-24.2,12.5-45.7,31.4-58.1,56
	c-5.8,10.9-9.2,22.9-11.8,34.9c0.7-21.3,9.8-41.5,22.3-58.4C280,412.8,293.9,399.9,309.5,389.5z"/>
<path d="M514.5,400.5c6.3-8,17.7-9.6,27-7.1c9.4,2.5,18.5,6.5,26.8,11.6c-7.6,3.9-15.1,8-22.8,11.6c-6.7,1.7-13.9,2.5-20,5.9
	c-2.6,1.4-4.2,4.1-5.3,6.8c-4.8,1.3-9.1,3.9-12.4,7.6c-4.6,4.6-6.9,11.5-12.8,14.9c-0.5-6.8,5.4-11.1,8.1-16.7
	c1.8-3.4,1.1-7.4,1.7-11c0.7-3.2,3.2-5.6,4.7-8.6C512.3,410.9,510.8,404.7,514.5,400.5z"/>
<path class="st0" d="M528,401.5c2.2,0.5,3.8,1.8,4.3,4.1c-0.6,0.5-1.8,1.5-2.4,2c-0.9-0.9-1.9-1.7-2.7-2.7
	C527.4,403.8,527.7,402.6,528,401.5z"/>
<path d="M359.9,414.1c6.5-1.7,13.5-0.9,19.8,1.4c0.6,9.2,0.4,18.4,0.5,27.5c-0.1,6.8,0.3,13.6-0.6,20.3
	c-1.7,13.7-6.7,26.8-13.6,38.7c-8.3,14-17.7,27.9-21,44.1c1.8-16.8,10.9-31.6,19.1-46c7.9-14.5,14.1-30.6,13.3-47.3
	c-1.6,1.2-3.2,2.4-4.9,3.5c1.1-5.3,3-10.5,4.4-15.7c-7.5,0.5-16,0.7-22-4.5c-2.2-1.6-3.1-4.5-5.1-6.2c-5.1-0.4-8.9,3.8-13.6,5.1
	C339.9,424.5,349.3,416.7,359.9,414.1z"/>
<path class="st0" d="M678.3,426.7c-2.2-2.7-0.4-6.4,2.3-8c4.9,4.1,8.4,9.5,12.2,14.5c23.7,32.4,42.5,68.5,54,107
	c12,39.7,16.2,81.5,13.6,122.8c-0.7,11.3-1.2,22.6-2,33.9c-0.9,5.6-2.7,11.1-3.9,16.7c-2.3,9-4.2,18-7.1,26.8
	c-1.3,4-2.7,8.1-5.3,11.5c3.4-12.3,7.3-24.5,9.7-37c8.9-42.4,8.4-86.5,0.1-129c-7.3-38.9-21-76.6-40.7-111
	C701.5,458,690.2,442.1,678.3,426.7z"/>
<path class="st0" d="M362.4,421.2c1.8,0.4,3.4,1.3,4.6,2.7c-1,1.3-1.8,3.8-3.9,2.4C360.8,425.4,361.7,422.9,362.4,421.2z"/>
<path class="st0" d="M247.3,578.3c15.5-39.4,35.7-77.1,60.7-111.4c0.9,3.2,2.2,6.5,2.1,9.9c-23.5,33.2-43.5,68.9-58.9,106.5
	c-16.2,39.2-27.4,81.1-27.8,123.7c-0.1,5.6,0.4,11.1,0.1,16.7c-2.3-5.2-2.2-11-2.4-16.6C220.6,662.9,231.3,619.2,247.3,578.3z"/>
<path d="M449.9,472c1.4,0.5,2.7,1.2,3.5,2.5c6.6,9.1,10.1,20.1,12.8,31c-1.7,0.6-3.3,1.3-4.9,2c-0.3-9.9-1.7-20.2-6.9-28.8
	C452.9,476.4,451.1,474.4,449.9,472z"/>
<path d="M372.6,503.6c6.1-10.2,13.8-19.4,23.1-26.8c-9.4,9.9-17.7,20.9-23.5,33.2c-5.6,11.3-9.7,23.3-12.8,35.5
	c-1.9,0.5-3.7,0.9-5.6,1.4C358.5,531.9,364.5,517.1,372.6,503.6z"/>
<path class="st0" d="M271.5,686.1c5.9-50,16.6-99.8,36.4-146.2c4.5,6.3,2.9,14.4,0,21c-5,10.3-8.1,21.4-11.7,32.3
	c-15.9,50.6-24.9,103.7-23.4,156.8c0.1,10.6,1.4,21.1,1.9,31.6c-3.5-5.2-4.1-11.6-4.9-17.6C267.4,738,268.6,711.9,271.5,686.1z"/>
<path class="st0" d="M395,556.8c11.4-0.2,21.6-5.8,32.1-9.7c-6.7,4.6-12.3,11.6-12.9,20c-0.1,7,2.8,14.1,0.6,21.1
	c-8.2-3.1-3.5-14.4-10-19.2c-4.7,7.2,3.2,15.4-0.9,22.7c-4.3-14.4-14-26.9-26.3-35.4c-2.7-2-5.6-3.6-8.3-5.5
	C378.4,550.5,386,557.1,395,556.8z"/>
<path d="M499.3,567c1.5-2.6,4.2-4.2,7.2-3.8c0.8,2.1,1.1,4.4,0.3,6.6C503.9,570.7,501.2,569.2,499.3,567z"/>
<path d="M487.2,566.2c1.3-1.3,3.3-0.6,4.9-0.4c0.1,1.8,0.3,3.6,0.4,5.4c-2.2,1.8-4.8,1.1-6.9-0.3C486,569.3,485.7,567.2,487.2,566.2
	z"/>
<path d="M486.9,580.9c1.5-1.5,3.6-0.5,5.4-0.1c0.1,1.5,0.2,2.9,0.2,4.4c-1.8,0.8-3.7,1.3-5.7,1.5
	C486.3,584.9,484.8,582.3,486.9,580.9z"/>
<path d="M498.3,580.4c2.2-1.3,5.7-0.1,5.8,2.7c0.7,2.9-2.9,3.9-5.2,3.4C496.9,585.2,496.9,582.1,498.3,580.4z"/>
<path d="M510.8,584c0.8-2.2,2.3-4.8,5-4c3.3,0.4,3.3,5.9,0,6.3C513.7,587.1,512.2,585.2,510.8,584z"/>
<path d="M340.5,586.1c2-1.6,5.3-4.5,7.6-1.9c0.5,1.9,0.1,3.8-0.4,5.6C344.8,590.1,341.8,588.8,340.5,586.1z"/>
<path d="M526.3,583.8c0.7-0.2,2.1-0.5,2.8-0.7c5.1,5.9,12.7,8.7,19.2,12.8c8.5,5.1,17.3,9.5,25.4,15.3
	c-13.7-6.9-27.1-14.6-40.5-22.2c-1.7,0.3-3.8,1.9-5.3,0.4C526.1,587.9,526.1,585.7,526.3,583.8z"/>
<path d="M542.1,583.1c4,1.2,7.4,3.7,11.1,5.7c8.5,5,17.1,9.7,25.3,15.1c-9.6-4.2-18.6-9.6-27.7-14.9
	C547.9,587.2,544.5,585.8,542.1,583.1z"/>
<path d="M473.3,586.9c1.9-1.6,4.1-2.6,6.6-2.7c0.7,2.1,1,4.5-0.2,6.4C477,592.8,474.2,589.3,473.3,586.9z"/>
<path class="st0" d="M331.2,589.3c2.8-1.7,3.9,3,5.2,4.8C333.5,594.3,330.5,592.6,331.2,589.3z"/>
<path d="M353.5,601c0.4-2.4,1.8-4.5,3.4-6.2c1.8,1.3,4.1,3.2,2.7,5.7C359,603.3,354.4,603.7,353.5,601z"/>
<path d="M522.5,598.4c1.9,0.2,4.9-0.6,5.6,1.8c1.1,2.9-2.9,6.2-5.4,4C520.7,602.7,522,600.2,522.5,598.4z"/>
<path class="st0" d="M672.2,603.9c1.5-2.5,3.6-4.4,5.8-6.2c13.2,35.8,14.9,74.7,11.9,112.3c-2.7,33.2-9.4,65.8-17.1,98.2
	c-2,7.7-4,15.5-6.9,22.9c9-34.5,16.5-69.5,19.5-105.1C688.9,685,686.7,642.7,672.2,603.9z"/>
<path d="M466.5,600.4c2.1-0.8,5.2,0.2,5.2,2.8c0.3,2.7-3,4.1-5.2,3.5C463.6,605.7,464.2,601.4,466.5,600.4z"/>
<path d="M478.4,602.9c1.3-0.8,2.7-1.8,4.4-1.6c1.4,0.5,2.3,1.9,3.5,2.9c-0.6,1.9-1.5,3.7-3,5C481.1,607.5,479.4,605.4,478.4,602.9z"
	/>
<path d="M507.2,608c1.6-2.1,3.8-3.6,6.5-3.9c1.4,2.1,1.5,4.6,1.1,7.1C511.8,611.6,509.1,610.2,507.2,608z"/>
<path d="M449.8,606.4c2.2,0.5,4.4,0.5,6.5,0c-0.8,1.7-1.7,3.3-2.5,5C451.4,610.8,450.8,608.3,449.8,606.4z"/>
<path d="M492.5,612.1c0-2.3,0.7-5.8,3.5-5.8c3.1-0.2,3.4,3.5,3.4,5.8C497.1,613,494.7,613.1,492.5,612.1z"/>
<path d="M375.4,611.6c1.1-2.3,4-1.8,6.1-1.9c0.4,3.1-0.8,6.3-3.5,8.1C376.5,616.2,373.5,614,375.4,611.6z"/>
<path d="M364.1,617.5c1.1-1.8,1-5.4,3.7-5.4c0.9,1.4,1.6,3,2.4,4.5C368.1,616,366,616.3,364.1,617.5z"/>
<path class="st0" d="M330,620.8c2.9,2.5,5.6,5.5,7,9.2c-10.3,41.7-11.8,85.2-7.4,127.7c3.1,28.7,8.8,57.6,21.6,83.7
	c-2.3-1-5.5-1.5-6.2-4.4c-14.5-32-20.2-67.2-22.9-102C319.5,696.9,320.9,658.1,330,620.8z"/>
<path d="M510.3,626c1.9-2,4.1-3.5,6.9-3.8c1.2,2.1,1.3,4.6,0.9,7C515,630.1,511.6,629.1,510.3,626z"/>
<path d="M466.7,624.1c1.7,0,3.4,0,5.1,0c0.6,1.3,1.2,2.6,1.7,3.9c-1.2,1.7-2.5,3.2-4.6,3.9C467.6,629.5,466.3,626.9,466.7,624.1z"/>
<path d="M483.5,624.5c1.7-1.4,3.9-0.2,5.7,0.4c0.1,1.4,0.1,2.9,0.2,4.3c-1.4,0.5-2.8,1.4-4.4,1.4
	C482.2,630.2,481.9,626.3,483.5,624.5z"/>
<path d="M499.3,624c4.1-2.1,7,4.7,2.5,6.1C497.7,632.5,495,625.3,499.3,624z"/>
<path class="st0" d="M566.6,632.7c2.8,1.1,5.3,2.7,7.7,4.5C571.3,636.5,568.6,635,566.6,632.7z"/>
<path class="st0" d="M419.8,658.6c7.8-3.5,16.5-1.1,24.2,1.2c14.8,4.5,29.3,9.9,43.7,15.5c9.2,3.4,19.1,8.8,29.2,6
	c8.2,7.8,16.3,15.6,23.6,24.2c3.3,4,6.5,8.2,8.6,13c-5.2-4.2-9.4-9.6-14.4-14.1c-2.4-0.4-4.8-0.5-7.1-0.7
	c3.4,12.4,15.9,20.6,16.6,33.9c-8.4-8.5-15.8-17.9-24.7-26c1.6,6.9,6,12.6,9,18.9c2.1,4.2,4,8.6,5.2,13.2
	c-7.1-6.1-11.2-15-18.8-20.5c-2.6-2.1-5.8-3.2-9.1-3.5c7.9,12.7,14.9,26.6,15.8,41.8c-6.4-13-14-26.5-27.3-33.5
	c1.5,10.3,4.3,20.3,7.5,30.1c-3.9-5.4-7.1-11.3-11.7-16.1c-3.6-3.8-8.9-5.4-14-5.4c1.9,10.7,5,21.1,6,31.9
	c-5.2-11.1-11.4-21.9-20.2-30.6c-0.4,9.8,0.2,19.7,1,29.5c0.5,6,0.4,12-0.9,17.8c-3.8-11.7-7.3-23.5-12.4-34.6
	c-1.9-4.2-4-8.2-7-11.7c-3.7,8.9-3,18.8-4,28.1c-1.1,10.6-2.1,21.6-7.2,31.1c0.9-20.7,0.5-41.6-4.6-61.8c-5.4,10.4-6.2,22.9-13,32.6
	c0.1-12,1.4-24,0.1-35.9c-3.8,8.4-6.5,17.2-10.1,25.7c-1.9,4.5-4.8,8.6-8.7,11.6c3.4-13.5,8.9-27.2,7.1-41.4
	c-9.3,8.4-12.5,21.4-21.9,29.7c3.2-11.9,7.2-23.5,10.3-35.4c-8.1,2.4-13.5,9.2-17.7,16.1c1.5-11.5,12.5-19.3,12.9-31.2
	c-7.1-1.8-11.6,5.1-17,8.2c3.2-8,8.5-15,14.7-20.9c4.6-4.7,10.6-8.1,14.1-13.8C403.9,673,409.4,662.8,419.8,658.6z"/>
<path class="st0" d="M604.1,678.6c-1.7-3.5,1.4-6.7,2.5-9.9c13.8,41.3,15.4,85.9,9,128.8c-2.9,19.2-7,38.3-12.6,56.9
	c1.7-12.8,4.3-25.5,5.7-38.3c3.5-26.8,5.5-53.9,4.3-81C612.2,716,609.8,696.8,604.1,678.6z"/>
<path class="st0" d="M528.3,763.2c2.7-1.4,5.3-2.9,8-4.2c2,35.8-4.5,71.5-14.5,105.7c-1.9,5.8-3.6,11.9-7,17.1
	c1.5-8.2,4.3-16,6-24.1C528.2,826.8,530.6,794.8,528.3,763.2z"/>
<path class="st0" d="M384.1,768c2.8,2.2,5.8,4.3,8.1,7.1c3.3,20.7,8.1,41.2,16.1,60.6c5.1,12.7,11.8,24.5,19,36.1
	c-5.6-4.2-9-10.5-12.7-16.4C399,828.6,389.1,798.6,384.1,768z"/>
</svg>
