<?xml version="1.0" encoding="utf-8"?>
<!-- Generator: Adobe Illustrator 21.1.0, SVG Export Plug-In . SVG Version: 6.00 Build 0)  -->
<svg version="1.1" id="Layer_1" xmlns="http://www.w3.org/2000/svg" xmlns:xlink="http://www.w3.org/1999/xlink" x="0px" y="0px"
	 viewBox="0 0 1024 1024" style="enable-background:new 0 0 1024 1024;" xml:space="preserve">
<style type="text/css">
	.st0{fill:#FFFFFF;}
</style>
<path d="M501.4,117.4c12.7-3.8,26.3-2.4,38.9,1.2c12.5,3.4,25.3,6.6,38.4,6.7c-18.2,34-34.1,69.7-42,107.6
	c-3.2,15.2-4.6,30.8-4.2,46.3c-17.1,7.7-34.2,15.5-51.5,22.6c19.1-41,26.3-86.7,25-131.7C505.5,152.4,504,134.8,501.4,117.4z"/>
<path d="M432.5,130.1c15.8-4.8,32.4-6.6,48.5-10.5c12.4,21.8,15,47.8,13.5,72.5c-2.4,35-11.9,69.1-23.6,102
	c-6.6-5-13.2-11.2-15.2-19.7c-1.1-4.3,0.5-8.6,1.9-12.6c3.8-10.6,10.1-20.2,13.1-31c4.8-15,2.3-31.4-3.9-45.6
	c-4.6-10.7-12.1-19.7-18.6-29.3C442.6,147.5,436.8,139.2,432.5,130.1z"/>
<path d="M585.9,130.1c14.6,0.1,29.2-0.1,43.8,0.1c16.5,14.2,32.6,28.9,49,43.3c-34.4,7.9-65.8,26.7-90.4,51.9
	c-18.3,18.8-34.2,39.8-50.5,60.3C553.7,233.7,569.9,181.9,585.9,130.1z"/>
<path d="M388.9,150.4c11.1-7.4,22.5-15.5,35.9-17.6c20.1,25,29.4,57.4,29.4,89.2c0.3,19.5-2.4,39.8-12.2,57
	c-6.8,12.1-17.5,21.7-29.9,27.9c3.6-16.6,1.1-34.1-5.2-49.7c-6.2-15.6-12.7-31.2-17.5-47.3C384.6,190.2,393.4,170.1,388.9,150.4z"/>
<path d="M372.4,156.2c1.6-1.5,3.7-0.3,5.5,0.3c-1,1.5-2.4,2.8-2.6,4.7c-3.9,19.5-1.3,39.7,3.7,58.7c2.9,11.4,7.4,22.3,10.6,33.6
	c5.6,19.7,10.2,40.5,6.9,61c-13.5-22.8-28.3-45.1-46.3-64.7c-12.7-13.9-27.3-26.3-43.8-35.4c6.9-11.7,17-21,27.3-29.7
	C346,174.5,359,165.1,372.4,156.2z"/>
<path d="M690.3,179.2c2-0.6,3.6,1.3,5.1,2.3c8.2,6.5,12.1,16.5,16.2,25.8c3.2,6.8,6.3,13.7,10.2,20.1c-20.9,2.7-41.7,6.5-61.8,12.9
	c-16.3,5.2-32.2,12.4-45.4,23.5c-12.1,10.1-21.4,23.5-26.6,38.4c-2.1,5.7-3.3,11.7-4.7,17.6c-12.3-5.8-15.7-22.2-10.5-33.9
	c-3.7,0.4-7.2,1.8-10.4,3.7c-7.4,4.5-14.4,9.8-22.8,12.4c17.1-30,38.3-58,64.6-80.6C628.8,200.4,658.5,185,690.3,179.2z"/>
<path d="M276,252.9c8.9-7.5,16.8-16.7,20.6-27.8c23.1,19.5,45.9,39.7,65.4,62.9c8.1,9.9,15.9,20.4,21,32.3c1.1,1.7,0.4,3.5-0.6,5
	c-6.1,10.6-16.3,18-26.3,24.8c-11,7-22.3,15.6-26.4,28.5c-38.7,12.4-74.9,32.7-105.2,59.8c-3.2,2.8-6.4,5.7-9.1,9
	c-2.7-7-0.4-14.7,2.9-21.1c8-15.1,23.2-24.9,30.6-40.5c2.5-5.2,2.2-11.1,1.6-16.7c-1.8-11.6-6.5-22.5-11.4-33.1
	c-5-11.8-9-24.7-6.8-37.7c1.6-9.7,8.2-17.4,15.2-23.8C256.2,266.3,266.9,260.8,276,252.9z"/>
<path d="M624.6,269.6c24.1-20,54.9-32.5,86.4-32.7c6.3-0.1,12.6,0.3,18.8,1c12,16.9,24,33.7,34.9,51.4
	c17.5,27.5,23.2,62.5,14.3,93.9c-1.7,3.8,0.5,7.6,1.7,11.1c5.2,13.9,15.3,25.9,18,40.8c-14.1-10.6-29.1-20.2-45.3-27.5
	c-21.3-9.8-44.2-15.9-67.5-18.4c-2.9-12-11.7-21.4-20.7-29.4c-7.8-6.9-17-12.3-23.6-20.4c-7.8-8.9-12.3-20.6-12-32.5
	c-12.8-0.6-24.9,4.7-36,10.5C598.3,298.4,609.9,281.9,624.6,269.6z"/>
<path class="st0" d="M275.2,286.2c8.5-7.1,20-9.3,30.7-8.6c12.2,0.8,24.9,3.8,34.3,12.2c7.7,6.9,14.3,16.5,13.7,27.3
	c-0.3,7.5-5.6,13.6-11.2,18.1c-3.5-11.8-7.9-24.1-17.5-32.4c-8.6-7.6-21.7-8.2-31.9-3.5c-7.4,3.6-11.3,11.7-12.4,19.5
	c-1.5,10.6-0.3,21.5,1.5,32c2,11,4.2,22,6.1,33.1c-11.2-9-20-21.3-24.2-35.1c-3.5-11.2-4-23.1-2.8-34.7
	C262.7,303.6,267,293.1,275.2,286.2z"/>
<path class="st0" d="M686.4,289.4c11.9-7,25.8-10.4,39.6-10.8c13.7-0.3,28,4.7,36.9,15.3c2.9,14.7,2.3,30.2-0.9,44.8
	c-4,17.3-12.2,34.7-27.1,45.1c2.9-13.2,6-26.3,8.7-39.5c2.3-10,3.2-20.7,0.5-30.8c-1.7-6.8-6.5-13.1-13.1-15.6
	c-8.1-3.1-17.7-2.7-25.3,1.7c-6.8,4-12.9,9.6-16.2,16.8c-2.5,5-3.2,10.5-3.8,16c-8.6-3.2-10-13.7-17.5-18.2
	C670.2,303.8,677.2,294.7,686.4,289.4z"/>
<path d="M555.4,378.4c9.1-6.4,19.5-11.4,30.7-12.6c10.5-1.2,21.1,1,30.7,5.2c-7.4,4.1-11.4,11.9-15.9,18.7c-4.4,6.5-12.2,10-20,9.4
	c-0.4,7.1,0.9,14.4,4.3,20.7c3.7,6.8,8.1,13.3,11.3,20.3c-6.6-4.6-11.2-11.4-15.8-17.9C571.3,408.2,563.1,393.4,555.4,378.4z"/>
<path d="M391.2,381.4c6.9-8.4,18.6-10.1,28.8-10.1c16.1,0.3,32,3.6,48.2,2.5c-4.9,14.3-13.6,26.9-22.2,39.1
	c-6.9,9.3-13.8,18.6-21.4,27.4c-1.4-7.9,4.3-14.3,8.3-20.5c3.1-4.7,5.8-9.6,7.1-15.1c-9-0.4-18.9-0.6-26.3-6.4
	c-4.4-3.4-4.9-9.2-4.8-14.3C402.9,383.7,396.6,384.4,391.2,381.4z"/>
<path class="st0" d="M572.9,386c5.5-5.5,13.9-4.8,21-4.8c-0.2,3.2-0.8,7-3.9,8.6C584.3,392.8,576.5,391.7,572.9,386z"/>
<path class="st0" d="M422.5,387.5c1.1-3.4,5.4-4.2,8.4-3.3c3.5,0.5,6.6,2.3,9.1,4.8c-1,2.6-2.1,5.9-5.2,6.7c-3.9,0.7-8-0.9-10.7-3.7
	C423,390.7,421.5,389.1,422.5,387.5z"/>
<path d="M317.3,387.3c4.9-2.6,11.2-0.2,14.3,4.1c3,4.2,5.6,8.6,8.3,13c-31.2,20.7-61.8,42.6-89.1,68.3c-20.3,19-38.8,40.3-51.6,65.1
	c-3.5-16,1.2-32,4-47.8c1.7-8.9,2.9-17.8,4.1-26.7C238.6,431.2,276.4,405.7,317.3,387.3z"/>
<path d="M683.4,396.9c35,5.3,70.1,15.8,99.3,36.5c16.1,11.5,30.1,26.4,38.5,44.5c11.7,24.8,11.1,53.8,3.7,79.7
	c-4.3-17.8-11.1-35-20.9-50.5c-17-27.1-41.8-48.6-69.2-64.8c-21-12.5-43.5-22.3-66.5-30.4C673.4,406.9,678.6,402,683.4,396.9z"/>
<path d="M621.1,419.1c1.2-2.1,3.9-1.9,6-2.2c-2.7,2.6-5.2,5.4-7.5,8.3c1,4.3,0.8,9.2,3.1,13c8.7,7.1,15.2,16.8,18.7,27.5
	c4.7,13.8,5.1,28.7,4.2,43.2c-1.1,15.2-3.8,30.8-11.3,44.3c-5.5,10.1-14.2,18.5-24.9,23c5.8-11,12-21.9,17.9-32.9
	c6.5-11.7,10.3-24.9,10.2-38.3c-0.1-4.7-1.7-9.1-3-13.6c-4-12.3-8.9-24.3-13.7-36.3c-3.3-8.7-5.5-18.6-2-27.6
	C619.9,424.9,619.8,421.7,621.1,419.1z"/>
<path d="M320.3,431.3c5.8-4.7,11.6-9.6,17.5-14.1c8,8.8,12.3,20.2,17.5,30.7c-34.3,24.1-67.4,51.2-92,85.5
	c-24.8,34.2-39,75.4-43.7,117.2c-11.8-17.1-20.4-36.8-21.9-57.7c-1.6-19.5,3.6-39.2,12.8-56.3c7.2-13.2,16-25.6,27.3-35.7
	C264.5,476.7,292.5,454.1,320.3,431.3z"/>
<path d="M660.2,417.4c37,11.4,71.8,30.7,100.3,57.2c11.7,11,22.6,22.9,32,36c11,15.5,19.8,33,22.7,52c2.6,16.1,0.4,32.8-5.9,47.9
	c-4.4,10.8-10.6,20.7-17.8,29.8c-8.6-34.7-21.3-68.8-40.4-99.2c-24-38.9-59.2-70.9-100.7-90.2C651.5,439.2,654.2,427.5,660.2,417.4z
	"/>
<path d="M376.2,419.6c5.4,0.9,11.4,2.7,14.6,7.6c3.4,5.4,2.1,12.2,0.2,17.8c-4,10.7-9.5,20.8-13.1,31.7c-4,11.1-2.2,23.4,1.2,34.4
	c2.8,8.6,6.8,16.8,11.4,24.5c10.4,16.9,21.1,33.6,31.4,50.6c-25.7-18.2-42.5-46.5-52.3-75.9c-4.7-14.8-6.4-31.4-0.8-46.2
	c3.3-8.9,9.2-16.6,16.3-22.9c2.2-1.5,1.5-4.4,1.2-6.7C385.1,428.4,379.6,424.5,376.2,419.6z"/>
<path d="M433,448.2c1.1-5.5,2.2-11.2,4.9-16.2c3.8,7.8-2.7,16.1,0.2,24c0.9,2.3,3.3,3.4,5.3,4.6c14.3,8,30.6,11.2,46.8,12.6
	c19.3,1.5,38.9,0.8,57.9-3.2c10.7-2.3,21.1-6,30.5-11.5c0.8-7.1,1.2-14.8-2.4-21.3c5,0.1,7,5.3,8,9.4c2.2,9.9,4.3,19.8,7.1,29.5
	c-17,1.7-32.4,10.8-44.4,22.7c-9.7,8.8-19.1,18.2-29.9,25.7c1.2,9.8,6.8,18.4,7.8,28.2c11.1,1.9,21.6,6.3,31.2,12
	c13.2,8.2,26.2,16.9,40.1,24.1c-21.5-2.7-41.7-11.2-62.1-18c-16.5-5.1-34.6-7.2-51.4-2.2c-11.8,4.8-21.8,13-33,18.9
	c-8.5,4.3-18,6.7-27.6,6.4c13.5-8.8,27.8-16.2,41.7-24.3c13.8-7.4,27.1-17.5,34-32c1.4-3.4,3.2-6.8,3.4-10.5
	c-11.5-10.7-23.1-21.2-34.6-31.8c-11-10-24.6-17.3-39.5-19.2C429.6,467,431.4,457.6,433,448.2z"/>
<path d="M289.7,519.7c15.5-19.1,32.3-37.2,50.3-54.1c5.3,14.9,4.1,31,8.3,46.1c1.3,4.8,3.6,9.4,7,13.1
	c-22.6,34.1-43,69.8-58.8,107.6c-12.9,31.1-22.6,63.9-25.5,97.5c-6.7-8.8-13.9-17.3-21.3-25.5c-8.9-10.1-17.1-21.5-20.3-34.8
	c-4.3-16.7-1.1-34.2,4.1-50.4C244.8,582.5,265.7,549.5,289.7,519.7z"/>
<path d="M655.6,471.4c8.4,3.2,16.9,6.1,25.1,9.8c8.2,5.6,15.3,12.7,22.2,19.9c12.9,13.9,24.6,28.9,35.8,44.2
	c10.9,15.1,21.3,30.7,29.5,47.4c7.3,14.7,12,30.9,13,47.3c0.7,13.4-1.4,27.4-8,39.2c-7.3,13.3-17.6,24.7-28.4,35.3
	c-7.6-28.6-19.8-55.6-31.9-82.5c-10.5-22.9-21.6-45.6-32.9-68.1c-6-11.6-11.6-23.5-18.2-34.8c-2.8-3.5-1.7-8.2-1.7-12.2
	c0.1-11.1,2.9-22.3,0.4-33.3C659.7,479.3,657.8,475.2,655.6,471.4z"/>
<path d="M358.3,539.9c10.5,8.5,7.1,25.1,17.5,33.8c-30.6,68-46,143-43.3,217.6c-13.9-8.6-25.5-20.4-37.2-31.6
	c-5.6-5.5-11.2-11.1-16.7-16.8c3.5-43.1,17.3-84.8,35.4-123.8C326.9,591.7,341.8,565.2,358.3,539.9z"/>
<path d="M619.2,596.8c11.2-18.4,23.5-36.4,31.3-56.6c17.9,32.8,34.8,66.2,51.9,99.4c9.8,19.4,19.4,39,26.6,59.5c3,9,6,18.4,6,28
	c-0.2,10.3-6.9,19.1-14.1,25.9c-8,7.1-16.3,14.2-22.3,23.1c-6.2-30.6-17.5-60-30.4-88.3C653.8,656.5,637.1,626.3,619.2,596.8z"/>
<path d="M381,586.1c4.7,2.3,9,5.5,12.3,9.7c5.5,6.7,8.6,14.9,12.5,22.5c3.4,6.8,6.8,13.6,11.3,19.7c-8.8,20.4-13.9,42.2-16.9,64.2
	c-3.1,23-4.2,46.3-3.5,69.5c0.7,22.2,3.8,44.4,9.9,65.9c-6.8-0.9-13-4.1-19-7.1c-13.7-7.1-26.8-15.4-39.8-23.7
	c-0.3-47.2,7.1-94,15.8-140.3C368.5,639.6,374.5,612.8,381,586.1z"/>
<path d="M606.5,609.5c12.2,10.5,20.2,24.8,28.3,38.6c16,28.8,30.1,58.7,41.5,89.6c5.1,14.9,10.5,30.3,10.3,46.3
	c-0.3,12.8-10,22.7-19.8,29.7c-14.7,10-31.2,17.4-44.6,29.2c2.9-52.8-5-106.2-24.2-155.5c-2.7-7.3-6-14.3-8.9-21.5
	c3.4-16,14.4-29.5,16.9-45.8C606.4,616.6,606.4,613,606.5,609.5z"/>
<path d="M412.7,710.3c1.8-20.2,5.1-40.5,12.1-59.6c10.9,14.8,22,29.5,34.2,43.3c5.2,5.6,10.5,11.4,16.8,15.7
	c-4.5,27.6-7.9,55.4-9.1,83.4c-1,28.6-0.2,58,9,85.4c-16.2-7.2-32.4-14.5-48.6-21.6c-1-0.6-2.6-0.9-2.8-2.3
	c-6.5-22.5-9.9-45.7-11.7-69C411.1,760.5,410.7,735.3,412.7,710.3z"/>
<path d="M519.5,668.4c5.3,4.2,7.6,11,7.3,17.6c-0.4,11.8-5,23-9.8,33.7c-4.3-1.7-8.2-4.5-12.9-5.4c1.1-8.9,5-17.2,9.2-25
	C516.8,682.9,519,675.7,519.5,668.4z"/>
<path d="M542.8,724.2c10.6-17.9,26.8-31.8,36-50.6c16.3,32.4,28.5,67.3,32.9,103.5c3.2,24.8,2.5,50.1-2.2,74.7
	c-0.1,1.5-1.7,2.1-2.8,2.9c-22.3,14.7-44.5,29.7-66.9,44.3c8.6-29.7,15.7-60.1,18.3-91c1.2-16.3,1.2-32.8-1.9-49
	c-2.1-11-5.7-21.9-11.8-31.5C543.9,726.4,542.9,725.5,542.8,724.2z"/>
<path d="M477.3,819c-0.1-33.3,2.7-66.6,6.5-99.6c9.5,2.8,18.3,7.4,27.3,11.6c4.8,2.1,10.3,3.1,15.4,1.6c3.2-0.9,5.9-3,8.4-5
	c12.9,38,13.5,79,8.8,118.5c-2.7,20.9-7.9,41.6-16.6,60.9c-14.4-4.4-26.7-13.2-40-20c-1.8-0.7-1.9-2.7-2.5-4.2
	C478.5,862,477.5,840.3,477.3,819z"/>
</svg>
