<?xml version="1.0" encoding="utf-8"?>
<!-- Generator: Adobe Illustrator 21.1.0, SVG Export Plug-In . SVG Version: 6.00 Build 0)  -->
<svg version="1.1" id="Layer_1" xmlns="http://www.w3.org/2000/svg" xmlns:xlink="http://www.w3.org/1999/xlink" x="0px" y="0px"
	 viewBox="0 0 300 300" style="enable-background:new 0 0 300 300;" xml:space="preserve">
<style type="text/css">
	.st0{fill:#FFFFFF;}
</style>
<path d="M153.2,48.2c23.5-4.3,47-9.1,70.9-10.9c-4.5,3.4-9.1,6.7-13.8,9.7c10.2,1.2,20.6,2.8,30.1,6.9c-2.9,1.9-6,3.4-9.1,4.8
	c14.9,8.7,26.1,22.4,35.1,37c-4.7,0-9.4,0-14.1,0c9,14.4,13.2,31.4,14.1,48.2c-4.6-1.7-8.9-4.3-13.3-6.6c4.3,13.5,8.6,27.3,9.3,41.6
	c-2.9-1.5-5.3-3.7-8.1-5.4c-0.5,14-3.1,27.8-5.3,41.7c-3.2-4-6.4-8.1-9.6-12.1c-8.4,11.5-18.8,21.4-30.3,29.7
	c-0.2-4.2-0.2-8.5-1.2-12.7c-8,10.6-15.6,21.5-24.6,31.4c0.3-4.9,0.5-9.8,0.7-14.7c-7,9.6-13.9,19.2-21.2,28.6
	c-0.9-3.1-1.2-6.3-1.9-9.5c-3.4,4.9-5.2,11.2-10.3,14.7c3.8-6.4,7.6-12.8,10.5-19.7c0.9,3.3,1.8,6.5,2.6,9.8
	c8.6-9.8,15.7-20.9,22.6-31.9c-1.7,5.7-0.7,11.7-1.2,17.5c10.5-9.2,18.1-21.2,23.6-33.9c0.9,5.3,1.6,10.7,2.6,16
	c11.9-9.1,19.9-22.1,26.7-35.2c2.7,3.7,5.5,7.4,8.4,11c5.8-12.3,3.4-26.4,0.5-39.2c2.9,1.8,5.9,3.4,9,5
	c-2.1-14.7-7.2-28.8-14.9-41.5c4.5,0.3,8.8,1.8,13,3.3c-2.5-15.5-11.1-29.1-20.1-41.6c5.1-3.1,11-3.8,16.8-3.4
	c-9-12-23.1-18.8-37.3-22.5c3.2-4.1,7.8-6.4,12-9.3c-12.9-2.8-26.1-1.3-38.9,1.4c6.7-6.4,15.1-10.4,23-15.1
	c-20,3.6-39.8,8.7-59.6,13.2C130,50,110,45.1,89.9,41c7.9,4.6,16.2,8.8,23.3,14.6c-13.1-0.8-26.2-2-39.4-1.3
	c3.9,3.2,8.1,6.1,12.1,9.2c-13.8,4.6-27.5,11.1-37.2,22.3c5.7,1.2,11.5,1.9,16.9,4.1c-8.9,12.5-17.6,25.8-20.2,41.2
	c4.4-1.2,8.5-3.3,13.1-3.5c-7.1,13.1-12.8,27.1-14.9,41.9c3.1-0.8,5.9-2.5,8.3-4.6c-1.2,13-3.3,26.5,0.6,39.2
	c3.3-3.4,5.4-7.7,8.4-11.2c7.9,12.8,16,26,27.5,36c0.6-5.4,1.4-10.7,2.1-16c6.6,11.9,13.8,23.7,23.4,33.4c1-5.5,0.1-11.1-0.3-16.6
	c7,10.8,13.8,21.7,22.1,31.5c0.8-3.4,1.8-6.7,2.3-10.2c3.8,6.6,7.6,13.3,11,20.2c-3.9-4.8-7.1-10-10-15.4c-0.9,3-1.5,6.1-1.8,9.3
	c-8.3-8.5-15-18.4-21.3-28.5c-1.3,4.6-1.2,9.6,0.2,14.2c-2.4-1.9-4.6-4-6.5-6.4c-6.5-7.6-12.5-15.7-17.5-24.4
	c-0.9,4.2-1.2,8.5-1.6,12.8c-11-8.7-22.1-17.9-29.6-29.9c-4,3.6-6.4,8.5-10.1,12.3c-2.1-13.8-3.8-27.7-4.9-41.6
	c-3.2,1.2-5.8,3.7-8.8,5.3c1.2-14.1,4.7-28,9.6-41.3c-4.8,1.4-8.8,4.5-13.3,6.3c1.3-16.9,4.6-34.4,14.7-48.4c-5.1,0-10.3,0-15.4,0
	C40.9,85,48,73.1,59,64.9c2.8-2.2,6.1-3.9,9.2-5.6c-2.4-2.4-6.1-3-8.8-5c1.1-0.7,2.2-1.4,3.4-1.8c8.6-2.9,17.5-5,26.5-5
	c-4.3-3.5-8.9-6.7-13.6-9.7c19.8,0.3,39.4,3.8,58.8,7.5C140.7,46.4,146.8,50.1,153.2,48.2z"/>
<path d="M162,78.3c13-6.5,25.7-14.1,40.1-16.8c-6.3,3.9-12.9,7.5-18.3,12.6c14.6-2.9,29.4,0.1,43.4,4.6c-10.9,0.3-22.1-0.9-32.6,2.5
	c16.3,7,29.6,19.3,42.4,31.3c-9.1-3.9-17.6-9.6-27.8-10.2c10.6,11.8,20.4,24.3,28.3,38.1c-8.8-6.6-16.4-15.7-27.5-18.5
	c8.8,12,15.1,25.6,21.1,39.2c4.2,9.5,8,19.2,11.8,28.9c-9.7-12.8-19.1-26-29.4-38.4c5,20.5,3.6,41.9,0.8,62.6
	c-4.2-14.6-5.6-30.3-12.7-43.9c-1.7,20.6-5.6,41-11,60.9c-1.4-12.8-2.8-25.7-4.3-38.5c-3.6,17.4-9.5,34.2-15.8,50.7
	c-2.1-6-1.8-12.7-4.8-18.5c-4.3,11.5-9.7,22.6-15.6,33.3c-6.8-10.3-12.1-21.6-15.6-33.4c-3.9,5.6-3.9,12.8-4.7,19.4
	c-6.6-16.9-13.4-34-15.7-52.1c-4.5,12.5-3.8,25.9-4.3,39c-6.4-19.8-10.4-40.4-11-61.1c-6.4,13.8-9,29-12.9,43.7
	c-4.7-20.3-5.4-41.8,0.6-61.9c-11.3,11.1-19.7,24.7-28.7,37.6c8.1-23.6,17-47.6,32.5-67.6c-10.9,3.4-19.5,11.2-27.5,19.1
	c6.6-14.7,16.9-27.4,28.2-38.7c-10,1-19.1,5.7-27.6,10.7c11.6-13.2,25-25.6,41.9-31.5c-10.4-4.9-22.3-3.8-33.4-2.1
	c13.9-5.4,29.5-9,44.2-4.6c-4.6-6.1-11.4-9.9-18.4-12.7c14.6,1.3,27.5,9,39.7,16.6c-4.1-5.7-9-10.7-13.1-16.3
	c8.6,5.7,16,12.9,23,20.3c0.8,0.9,1.9,1.7,3,2.3c0.2-0.1,0.7-0.3,0.9-0.5c7.1-8.5,15.7-15.6,24.3-22.5
	C171.6,67.9,165.7,72.2,162,78.3z"/>
<path class="st0" d="M124.8,80c9,0.1,17.4,3.8,26.1,5.8c7.8-2.9,15.9-5.2,24.3-5.6c-6.5,2.5-12.6,5.8-18.4,9.6
	c9.4-2.1,18.7-5.1,28.3-5.6c6.4,1.4,11.5,6.4,15,11.8c3,4.7,5.6,10.7,3.2,16.2c-1.1,2.4-2.8,4.8-5.3,5.8c-5-0.8-9.4-3.8-14.6-3.6
	c5.8,2.5,12.1,4.7,16.4,9.7c4.3,5,5,12.1,3.6,18.3c-2.6,9.2-9.8,16-15.5,23.5c-2.4,3-4.3,6.4-6.6,9.6c-0.2-5.2,1.1-10.4,0.8-15.6
	c-1,2.3-1.9,4.7-2.6,7.2c-3.3,12.7-5,25.7-7.1,38.6c-1.5,2.1-4.3,2.1-6.6,2.6c-6.9,0.4-13.9-2.2-20.8-0.8
	c-5.8,0.5-12.9,2.7-17.6-1.8c-3.8-15.1-1.6-32.2-10.8-45.7c0.8,5,1.4,10.1,1,15.2c-5.5-10.1-14.6-17.7-19.8-28
	c-3.4-6.4-3.4-14.5,0.3-20.7c4-6.4,11.5-9.1,18-12.4c-4.9,0.7-9.3,2.9-14.1,3.9c-2.5,0.6-4.1-1.9-5.2-3.7c-3.4-5.3-1.1-11.9,1.5-17
	c3.3-6.8,9.7-12.7,17.5-13.2c9.2-0.8,17.5,3.9,26.4,5c-5.7-3.1-11.5-6.1-17.5-8.7L124.8,80z"/>
<path d="M109.1,95.3c6-4.1,14.6-3.5,20.2,1.1c-6-2.2-13-3.2-19-0.1c-2.2,1-3.5,3-4.6,5.1c3.8-0.8,6-6,10.2-4.8
	c5.1,1.6,9.1,5.4,14.2,7.1c5.7,0.8,10.8-3,16.6-2.3c-2.8,1.2-5.7,2-8.6,2.8c3.7,3.4,5.8,8.1,5.9,13.1c-1-2.8-1.7-6.2-4.8-7.3
	c-5.9-2.2-13,1.8-13.9,8.1c-0.1-0.7-0.2-2-0.2-2.7c1.5-3.4,4.4-5.9,7-8.4c-2.6,1-5.3,2.1-8.2,1.2c2-0.7,4-1.1,6-1.5
	c-2.1-4.8-7.9-6.7-12.8-6.5c-0.2,2.8,1.6,5,2.9,7.3c-3.1-2.3-5.3-5.4-7.9-8.2c-3.1,1.4-5.5,3.8-8.4,5.5
	C104.4,101.1,105.8,97.3,109.1,95.3z"/>
<path d="M171.3,96.9c4.8-6.3,14.2-5.2,20.2-1.2c2.9,1.9,3.6,5.5,3.9,8.8c-2.5-1.7-5-3.5-7.5-5.2c-3.1,2.4-5.4,5.5-8.1,8.2
	c0.9-2.1,2.1-4,3.1-6c-2.7-2.7-6.9-1.1-9.3,1.1c-1.2,1.2-3.9,1.8-3.3,3.9c1.7,0.4,3.5,0.6,5.3,1c-2.5,1.7-5.4,0.2-7.8-0.9
	c2.8,3.4,6.4,6.4,7.8,10.7c-2.8-5-8.3-9.2-14.3-8c-3.5,1-4,5-4.9,7.9c-0.7-4.9,1.4-9.8,5.3-12.8c-2.9-1.3-5.8-2.2-8.8-3.1
	c6.1-0.8,11.7,3.5,17.8,1.9c4.1-1.8,7.8-4.2,11.7-6.4c3.4-1.4,6.4,1.2,9.4,2.4C186.9,92.9,177.6,92.9,171.3,96.9z"/>
<path d="M134.6,124.5c3.2,6.2,5.4,13.5,11.6,17.5c-0.7-6.4-7.7-9.5-8.7-15.8c8.1,0.8,16.2,0.2,24.3,0.5c-1.1,5.9-7.1,9-8.7,14.6
	c7.2-2.2,8.5-10.6,11.8-16.4c-1.2,6.2-3.7,12.2-7.2,17.4c-2.2,0.7-4.5,1.4-6.8,2.1c0,1.1,0,2.2,0,3.4c5.5,0.7,10.4,3.2,15.6,4.8
	c1.2,0.5,2.3,1.1,3.2,2c4.8,2,10.5,1.6,14.5-1.9c-4.6-0.4-9.2-1.4-13.3-3.5c5-0.1,10.2,2.7,15,0.6c1.5-2,1.2-4.8,1.6-7.1
	c-6.2,1.2-12.4,2.8-18.7,2.5c6.6-2.2,14.3-2,19.9-6.6c-0.2-1.3-0.5-2.6-0.8-3.8c-7,2.7-13.9,6.1-21.4,7.4c6.7-3.5,14.6-4.9,20.4-10
	c-2.1-2.1-4.7-4.4-8-3.8c-6.4,1.1-11.9,5.1-16.3,9.7c3.8-8.5,13.2-12.5,22.1-12c2.2,1.6,4.4,3.5,5.1,6.3c1.4,5.7,0.7,12.1-2.2,17.3
	c-3.6,6.7-12.4,8.4-15.6,15.5c-4.1,9.6-2.1,20.3-4.6,30.2c-11.8,0-23.6,0-35.4,0c-2.3-10-1-20.7-5-30.3
	c-4.4-8.1-14.4-11.8-17.6-20.8c-2.1-6.2-1.1-15.1,5.6-18.1c9.1-0.7,16.8,4.9,22.5,11.4c-5.5-3.1-10.2-8-16.7-9.1
	c-3.3-0.7-6.2,1.3-8.4,3.5c6.8,4.7,14.7,7.4,22.5,10.1c-8.6,0.5-16.7-3.2-23.9-7.7c-0.2,2.8,0.8,5.8,3.5,7.1
	c4.9,2.4,10.4,2.7,15.6,3.7c-6.2,1-12.2-0.9-18.1-2.3c0.1,2.3-0.6,5.1,1,6.9c2.6,1.1,5.2-0.8,7.8-1c9.3-1.3,18.8-0.4,28.1,0
	c-0.5-1.4-0.1-3.4-1.6-4.2c-2.2-1.3-5.3-0.9-6.6-3.3C137.6,136.1,135.9,130.2,134.6,124.5z"/>
<path class="st0" d="M128.2,156.8c1.9-2,4.3-3.3,6.8-4.4c-0.6,6.2-0.5,12.6,0.8,18.7C131.7,167.4,130,161.9,128.2,156.8z"/>
<path class="st0" d="M164.4,152.4c2.3,1.3,4.7,2.5,7,3.8c-1.1,5.7-3.5,11.2-7.5,15.4C164.1,165.2,165.5,158.8,164.4,152.4z"/>
<path class="st0" d="M139.8,154.3c6.8,0.8,13.6,0.9,20.4,0c-1.1,2-2.4,4-3.8,5.9c-0.1-0.8-0.4-2.3-0.6-3c-0.4,0.5-1.1,1.4-1.5,1.9
	c-2.4-0.6-4.9-0.7-7.3-1.1l-0.5,1.6c-0.8-0.9-1.6-1.7-2.4-2.6c-0.2,0.8-0.6,2.4-0.8,3.3C141.8,158.5,140.6,156.5,139.8,154.3z"/>
<path class="st0" d="M136.9,163.1c4-0.2,8,0.1,11.9,0.9c0.2,3.8,0.4,7.5,0.9,11.2c0.9-3.6,0.3-7.4,0.6-11.1c4.2-0.8,8.4-1,12.6-1
	c-1,4.8-1.7,9.7-2.6,14.5c-6.8,1.8-14.1,1.3-21,0.3C138.6,172.9,137.5,168.1,136.9,163.1z"/>
<path class="st0" d="M136.8,180.6c1.8,1.7,3.4,3.5,5.2,5.3c0.4-0.7,1.2-2,1.7-2.7c0.4,0.7,1.2,2,1.7,2.7c0.4-0.8,1.1-2.4,1.5-3.2
	c0.9,0.8,1.8,1.6,2.7,2.4c1.2-0.8,2.5-1.6,3.8-2.4c0.2,0.8,0.5,2.3,0.7,3.1c0.7-0.9,1.4-1.7,2.1-2.6c0.5,0.8,1,1.7,1.5,2.5
	c1.7-1.7,3.4-3.4,5.1-5.1c0.4,3.4-1,6.6-2.6,9.5c-6.1-3.2-13.9-3.2-20.1,0C138.2,187.3,137.5,183.9,136.8,180.6z"/>
<path d="M141.6,204.7c0-3.8,4.4-4.6,7.4-4.9c3.6-0.2,8.7,0.7,9.4,5C153.7,200.8,146.3,200.5,141.6,204.7z"/>
</svg>
