<?xml version="1.0" encoding="utf-8"?>
<!-- Generator: Adobe Illustrator 21.1.0, SVG Export Plug-In . SVG Version: 6.00 Build 0)  -->
<svg version="1.1" id="Layer_1" xmlns="http://www.w3.org/2000/svg" xmlns:xlink="http://www.w3.org/1999/xlink" x="0px" y="0px"
	 viewBox="0 0 182.2 182.2" style="enable-background:new 0 0 182.2 182.2;" xml:space="preserve">
<style type="text/css">
	.st0{fill:#010101;}
</style>
<g>
	<path class="st0" d="M138.6,27.4c10,7.3,17.9,16.5,23.5,27.5c6.7,13.3,9.5,27.9,8.2,43.8c-1.5,19.4-9.2,35.9-23.3,49.3
		c-13.4,12.8-29.2,19.9-47.4,21.3c-24.2,1.9-44.8-5.2-62-21.3c-17.9-16.8-25.8-38.3-23.8-64.4c1-13,5.9-25.5,14.5-37.5
		c13.7-19.2,31.9-30,54.7-32.5C104.5,11.4,123,16,138.6,27.4z M137.2,152.7c9.1-6.5,16.3-14.8,21.8-24.8c6.3-11.6,9.4-24.2,9.2-37.8
		c-0.1-7.7-1.8-16.1-5.1-25.3c-2.8-7.8-5.9-14-9.3-18.7c-6.9-9.5-15.9-17.1-26.9-22.6c-12.9-6.4-26.5-9-40.9-7.7
		c-19.8,1.8-36.4,9.8-49.7,23.8C22.7,54,16,71.3,16.1,91.5c0.1,16.3,4.4,30.5,12.9,42.7c7.7,11.2,18.1,19.7,31.2,25.4
		c12.6,5.5,25.8,7.7,39.6,6.6C113.8,165.2,126.3,160.6,137.2,152.7z M155.9,88.7c0.5-0.1,2.2-0.1,5.1,0c2.2,0.1,3.6-0.1,4.3-0.8
		c1.5,3.4,1.5,8,0,13.7c-0.7-0.4-2-0.7-3.8-0.9c-2.1-0.2-3.4-0.4-4.1-0.5c-0.1-1.1,0-2.3,0.3-3.6c0.4-1.4,0.5-2.6,0.3-3.6
		c1.8,0,2.8,0,2.9,0c1,0.1,1.5,0.6,1.5,1.4c0.4,1,0,1.4-1.1,1.4c-1.1,0.1-1.5,0.5-1.1,1.4c0.1,0.3,1,0.5,2.9,0.8
		c-0.6,0.4-0.3-2,0.8-7.3h-7.3c-1,2.5-1.4,6.1-1.4,10.9c0.9,0.5,4.2,1.2,10.1,2.1c-0.2,0.9-0.8,3.1-1.6,6.6c-0.7,2.8-1.4,4.9-2,6.4
		c-2-1.1-4.6-2.1-7.9-2.9c1.4-4,2.1-6.3,2.2-7.1c0.3,0.3,1,0.5,2.1,0.7c1.2,0.1,1.9,0.4,2.2,0.8c0.3,1,0,1.6-1,1.9
		c-1.2,0.3-1.8,0.6-1.9,1c-0.4,1-0.2,1.4,0.8,1.4c1,0,1.5,0.3,1.4,0.8c0.9-0.3,1.5-1.2,1.8-2.9c0.4-2,0.8-3.3,1.1-3.6
		c-0.7-0.5-1.9-1-3.4-1.3c-2.1-0.4-3.3-0.7-3.8-0.9c-1,0.7-1.7,2.3-2.2,5.1c-0.4,2.7-1.1,4.4-2.1,5.1c0.8,0.6,4.2,2,10.1,4.3
		c-4.1,8.1-6,12-5.8,11.5c-1-0.1-2.1-0.8-3.5-1.9c-1.3-1-2.5-1.6-3.6-1.8c0-1,0.5-2,1.4-3.2c0.9-1.2,1.4-2.3,1.4-3.3
		c0.7-0.1,1.4,0.2,2.1,0.8c0.8,0.5,1.5,0.7,2.2,0.7c-0.1,1.2-0.6,1.8-1.4,1.9c-1.3,0.1-2.1,0.3-2.2,0.3c-0.1,1,0.7,2,2.2,2.9
		c-0.6,0.3,0.6-1.6,3.6-5.7c-0.7-0.7-1.7-1.3-3.1-2c-1.9-0.8-3-1.4-3.4-1.6c-0.1,0.1-2.1,3.2-5.8,9.3c2.6,2.1,5.5,4.1,8.7,5.8
		c-2.8,3.9-5.4,7.3-7.9,10.1c-0.7-0.4-1.7-1.3-3.1-2.7c-1.2-1.2-2.3-2-3.4-2.3c0.4-0.7,1.2-1.6,2.2-3c1-1.2,1.6-2.2,2.1-2.9
		c0.2,0.1,0.6,0.4,1.2,0.7c0.5,0.2,0.9,0.4,1.2,0.5c0.8,0.6,1.2,1.4,1.2,2.4c-0.5,0.6-1.2,0.7-2.2,0.3c-1-0.3-1.6-0.1-2.1,0.4
		c0.9,2.3,2.1,2.9,3.5,1.8c0.4-0.4,1.1-1,1.9-1.9c0.9-1.1,1.5-1.8,1.8-2.1c-0.4-0.5-2.6-2.2-6.5-5.1c-0.6,0.7-1.8,2-3.6,4
		c-1.5,1.6-2.7,2.9-3.5,4c2,2.7,4.4,5.1,7.1,7.2c-0.7,1.4-2.2,2.9-4.5,4.4c-2.5,1.8-4.1,3.2-4.8,4.2c-2-1.4-3.7-3.8-5.1-7.1
		c0.7-0.2,1.6-0.9,2.7-2c1-0.9,2-1.4,3-1.6c0.1,0.5,0.5,1.1,1.3,1.6c0.7,0.5,1,1.2,0.9,2c-0.7,0.6-1.6,0.6-2.6,0
		c-1-0.5-1.8-0.3-2.4,0.7c0.1,0.5,0.4,1,1.1,1.5c0.7,0.4,1,0.9,1.1,1.4c3.2-1.2,4.8-2.9,4.6-4.8c-0.1-2-1.7-3.7-4.6-5.3
		c-0.5,0.3-1.9,1.3-4.1,3.1c-1.6,1.3-3.1,2.2-4.6,2.6c3.7,5.6,5.7,8.5,5.8,8.7c-1.1,1.2-3,2.3-5.6,3.5c-3.1,1.4-5.1,2.4-5.9,3
		c-0.7-0.6-1.4-1.8-1.9-3.5c-0.6-1.9-1.2-3.1-1.8-3.7c0.4-0.6,1.4-1.2,2.9-1.8s2.4-1.2,2.9-1.8c0.7,0.2,1.4,0.9,2,2.1
		c0.7,1.2,0.7,2,0.2,2.2c0.7-0.7-0.6-0.9-3.6-0.8c1-0.2,1,1,0,3.6c1.2-0.2,3.7-1.2,7.3-2.9c-0.5-0.5-1.2-1.6-2-3.4
		c-0.7-1.6-1.5-2.6-2.3-3.1c-1.1,0.2-2.6,0.8-4.6,1.9c-1.8,1-3.4,1.5-4.8,1.8c0,1.7,0.4,3.5,1.2,5.4c1,2.4,1.5,4,1.8,4.7
		c-8.6,1.9-12.9,2.9-13.1,2.9c-0.6-4.2-1.1-6.7-1.4-7.3c0.4-0.6,1.5-1,3.2-1.1c1.8-0.2,2.9-0.5,3.3-1c0.6,0.1,1,0.6,1.2,1.6
		c0.2,1.1,0.5,1.7,1,1.9c-0.9,1-1.6,1.3-2.3,1c-0.1,0-0.8-0.5-2-1.6c-0.7-0.1-1,0.4-0.9,1.3c0.1,1.4,0.2,2.2,0.1,2.3
		c1.9,0.1,4.3-0.4,7.2-1.4c-0.1-0.9-0.8-3.3-2.2-7.3c-1.2,0.1-3,0.5-5.4,1.1c-2.3,0.6-4.1,1-5.4,1.1c0.1,0.6,0.3,2.3,0.5,5.2
		c0.2,2.1,0.5,3.7,0.9,4.8c-0.7,0.1-2.9,0.3-6.7,0.7c-2.6,0.2-5,0.3-7,0.1c0.5-1.1,0.8-4,0.8-8.7c3.8,0.1,6.2,0.1,7.1,0v4.4
		c-1,0.3-1.6,0-2.1-0.8c-0.5-0.8-1.2-1-2.2-0.7c-1.5,1.9-1,3,1.3,3.4c2.1,0.4,4.1,0.2,5.9-0.5c-0.1,0-0.3-2.6-0.8-7.9
		c-5.6,0.9-9.5,0.9-11.5,0c0,1-0.2,2.6-0.5,4.8c-0.3,2-0.4,3.7-0.2,5.2c-2.1,0.2-4.3,0.1-6.7-0.3c-3.1-0.7-5.2-1-6.3-1.1
		c0.1-0.8,0.9-3.4,2.2-7.9c0.9-0.1,1.9,0,3.2,0.4c1.2,0.4,2.3,0.5,3.3,0.3c-0.1,0.1,0,1,0.1,2.5c0.1,1.2-0.2,1.8-0.9,1.8
		c-1.1,0.5-1.8,0.2-2-0.9c-0.2-1.1-0.7-1.5-1.5-1.3c-0.3,0.1-0.5,1.1-0.8,3l5.8,1.4c1-0.1,1.5-1.1,1.4-3.2c-0.1-2.3,0.1-3.7,0.7-4.1
		c-0.9-0.6-2.5-1.1-4.9-1.5c-2.6-0.4-4.3-0.8-5.2-1.3c-1,0.7-1.7,2.1-2.3,4.2c-1,3.8-1.4,5.5-1.2,5.2c-2,0.1-4.1-0.4-6.4-1.5
		c-2.6-1.2-4.5-1.9-5.9-2.1c0.1-1.1,1.3-3.7,3.6-7.9c3,1.2,5.2,2.1,6.5,2.9c-2.6,2.4-3.5,3.6-2.9,3.6c-0.8-0.3-1.1-0.7-1-1.3
		c0.1-0.7,0-1.2-0.4-1.5c-0.8-0.2-1.3,0-1.5,0.7c-0.4,1-0.6,1.5-0.7,1.5c0.2,0.4,2.1,1.4,5.7,2.9c0.9-0.4,1.5-1.4,2-2.7
		c0.7-2.8,1.1-4,1-3.7c-0.8-1-2.3-1.9-4.5-2.7c-2.6-1-4.2-1.8-4.9-2.3c-1.4,1.8-3.1,4.7-5.1,8.7c-2.1-0.7-5.7-2.9-10.8-6.5
		c0.3-1.1,1-2.3,2-3.5c1.3-1.5,2.1-2.5,2.3-3c1,0.1,2.2,0.7,3.4,1.6c1.3,1,2.3,1.6,3.1,1.9c-2.9,2.4-4.1,3.6-3.5,3.6
		c-0.4-0.5-0.5-1.3-0.4-2.3c0-0.7-0.3-1.4-1-2l-2.2,2.9c0.3,0.7,1.1,1.5,2.5,2.2c1.4,0.7,2.2,1.4,2.5,2.1c0.9-0.4,1.7-1.4,2.5-3.2
		c0.9-1.7,1.7-2.8,2.5-3.3c-3.8-3.7-6.6-5.6-8.3-5.7c-2.5-0.3-5,1.9-7.6,6.5c-5-4.5-7.8-7.9-8.6-10.1c0.7-0.3,1.8-1.1,3.1-2.3
		c1.2-1.1,2.3-1.8,3.4-2c0.1,0.9,0.8,1.8,1.9,2.9c1,1,1.6,1.9,1.6,2.9c-1,0.4-1.7,1.2-2.1,2.2c-1.4-0.4-1.9-1.1-1.6-2
		c0.4-1.2,0.5-1.9,0.2-2.3c-0.7-0.2-1.3-0.1-1.6,0.4c-0.4,0.7-0.9,1-1.3,1c0.1,1,0.7,1.9,1.8,2.9c1.1,1,1.7,2,1.9,2.9
		c1.2-0.2,2.3-1,3.3-2.4c1.3-1.9,2.2-3,2.5-3.3c-0.5-1.3-1.5-2.7-3.1-4.2c-1.8-1.8-3-3.1-3.4-3.7c0.5-0.2-2.1,1.7-7.9,5.7
		c-2.9-2.5-5.3-6.3-7.2-11.5c1-0.1,2.2-0.6,3.6-1.4c1.4-0.9,2.6-1.4,3.6-1.4c0.1,0.7,0.7,1.6,1.6,3c0.8,1.2,1.2,2.3,1.2,3.5
		c-0.4,0.1-0.9,0.4-1.6,0.9c-0.7,0.4-1.3,0.6-2,0.5c-0.4-1-0.4-1.8,0-2.5c0.4-0.7,0.4-1.6,0-2.5c-0.4,0.1-0.8,0.4-1.4,0.8
		c-0.6,0.3-1.1,0.5-1.4,0.7c-0.1,1.2,0.3,2.4,1.2,3.4c1,1.2,1.6,2.2,1.6,3.1c1.2-0.2,2.4-0.9,3.7-2c1.5-1.2,2.6-2,3.5-2.3
		c-3.4-6.1-5.1-9.2-5.1-9.3c-1.5,0-3.2,0.6-5.1,1.8c-1.9,1.2-3.6,1.8-5.1,1.8c-2.1-5.2-3.6-9.3-4.4-12.2c1.2,0.1,2.6-0.1,4.1-0.7
		c1.7-0.5,3-0.8,4-0.8c1,2.3,1.6,4.4,2.1,6.5c-1.9,0.8-3.3,1.3-4.3,1.4c-0.3-1.1,0.2-2.3,1.4-3.6c-0.2-1-0.7-1.4-1.3-1.3
		c-0.2,0.1-0.6,0.2-1.1,0.3s-0.9,0.3-1.2,0.3c-0.1,1.3,0.7,3.7,2.2,7.1c3.5-1.7,5.9-2.6,7.2-2.9c-2-6.9-3-10.5-3-10.8
		c-0.8,0-4.4,0.7-10.8,2.1c-0.1-1.2-0.4-3.3-0.9-6.3c-0.4-2.6-0.6-4.8-0.5-6.7h7.9c-0.1,0.9,0,1.9,0.4,3.2c0.4,1.2,0.5,2.3,0.3,3.3
		c-0.4,0-1.1,0.2-2,0.5c-0.8,0.3-1.6,0.4-2.4,0.2c-0.2-2.4,0.5-3.4,2.2-3c-0.3-2.1-1.8-2.5-4.4-1.4c0.7,2.1,1,4.2,0.8,6.5
		c1.2,0.2,2.5,0.1,4.1-0.2c1.5-0.4,2.8-0.6,3.8-0.4c0.4-0.9,0.4-2.5,0-4.8c-0.5-3-0.7-5-0.7-6c-0.7-0.4-2-0.4-3.7-0.2
		c-2.6,0.3-4.8,0.4-6.4,0.2c0-7,0.2-11.4,0.7-13c1.1-0.1,2.4,0.1,4,0.4c1.5,0.4,2.8,0.5,4.1,0.3c0.1,1.2,0,2.4-0.3,3.7
		c-0.4,1.5-0.5,2.6-0.4,3.5h-4.3c-0.3-1.2-0.1-2,0.7-2.5c0.2-0.2,0.6-0.4,1.1-0.7c0.5-0.2,0.9-0.4,1.1-0.4c-1.4-2.1-2.6-2.3-3.7-0.4
		c-1.1,1.8-1.3,3.9-0.7,6.2h7.3c0.7-0.7,1.2-2.3,1.3-4.7c0.2-2.8,0.5-4.6,0.9-5.4c-3.2-1.5-6.6-2.2-10.1-2.1c-0.1-2,0.3-4.3,1.2-6.8
		c1-2.9,1.5-4.9,1.6-6.2c1,0.1,2.3,0.6,4,1.4c1.7,0.7,3,1.2,4,1.4c-0.4,2-1.1,4.1-2.1,6.5c-1.8,0.1-3-0.4-3.6-1.4
		c-0.2-1,0.2-1.5,1.3-1.6c1.2-0.1,1.7-0.5,1.5-1.2c-0.4-0.9-1.4-1.4-2.9-1.5c-1.5,1.4-2.2,3.6-2.2,6.5c0.7,0.6,1.8,1,3.4,1.3
		c2.1,0.4,3.3,0.7,3.8,0.9c0.5-1.2,1.1-2.8,1.9-4.9c0.8-2.5,1.4-4.2,1.8-5.2c-0.9-0.7-4-2.1-9.4-4.3c0.5-1.2,1.5-3.1,3-5.7
		c1.3-2.3,2.3-4.3,2.9-5.8c1.2,0.3,2.4,1,3.7,2c1.8,1.3,2.9,2.1,3.4,2.3c-0.2,1.1-1.4,3-3.5,5.8c-0.8,0-1.7-0.3-2.6-0.9
		c-1-0.6-1.1-1-0.3-1.3c0-1,0.6-1.4,1.6-1.1c1.2,0.3,1.8-0.1,2-1.1c0,0.1-1-0.6-2.9-2.1c-0.9,0.8-2.1,2.7-3.6,5.7
		c0.7,0.7,1.7,1.3,3.1,2c1.9,0.9,3,1.4,3.4,1.6c1-0.8,2-2.2,3.1-4.2c1.2-2.3,2.2-3.8,2.7-4.5c-2.3-2.6-5-4.5-8-5.7
		c0.6-1.7,1.9-3.6,3.8-5.6c2.1-2.3,3.5-4,4.2-5.3c2.2,1.7,4.1,3.6,5.7,5.8c-1.2,3.1-3.2,4.8-5.7,5.1c0-0.1-0.4-0.7-1.2-1.5
		c-0.6-0.7-0.4-1.1,0.4-1.3c0.1-1,0.5-1.2,1.3-0.8c1,0.6,1.8,0.3,2.3-0.8c-0.4-1-1.2-1.7-2.2-2.1c-1.2,0.1-2.3,0.8-3.1,2
		c-1.6,2.4-2.3,3.4-2,3.1c0.5,0.5,1.5,1.3,3,2.4c1.3,1,2.3,1.9,2.9,2.6c0.7-1,1.9-2.3,3.6-4c1.7-1.7,2.9-3,3.5-4.1
		c-0.3-1.2-1.2-2.5-2.6-3.7c-1.7-1.5-2.7-2.7-3.1-3.4c0.6-1.8,2-3.4,4.2-4.8c3-2,4.7-3.3,5.2-3.8c2,1.8,3.4,4.2,4.3,7.3
		c-0.2,0.1-1.1,0.7-2.5,1.6c-1.1,0.7-1.9,1.4-2.4,2c-0.7-0.1-1.2-0.6-1.6-1.3c-0.5-0.9-1-1.4-1.3-1.6c0.2-1,0.8-1.4,1.8-1.3
		c0.3,0,0.7,0.1,1.3,0.3c0.7,0.1,1.1,0.3,1.3,0.3c0.6-0.6,0.6-1.1,0.1-1.6c-0.7-0.6-1-1.2-0.9-2c-1,0.1-2.1,0.7-3.3,1.8
		s-2.2,1.7-3.2,1.9c0.2,1,1,2,2.2,3.2c1.2,1.1,1.9,2.2,2.1,3.3c2.6-1.1,5.7-3.3,9.4-6.5c-0.4-1.1-1.1-2.6-2.2-4.4
		c-1.1-1.8-1.8-3.2-2.2-4.3c1.1-0.9,2.9-1.9,5.4-3c2.7-1.2,4.5-2.1,5.5-2.7c1.9,3.6,2.9,6.4,2.9,8.6c-1.1-0.1-2.2,0.3-3.4,1
		c-1.2,0.8-2.3,1.2-3.1,1.2c0.3-0.7,0.1-1.6-0.7-2.7c-0.6-0.8-0.6-1.3-0.1-1.5c-0.7,0.7,0.5,0.9,3.6,0.7c0.7-0.2,0.9-0.7,0.4-1.3
		c-0.6-1-0.7-1.7-0.4-2.3c-1,0.1-2.1,0.4-3.3,1.1c-1.3,0.6-2.4,1-3.2,1.1c0,1.3,0.4,2.7,1.3,4.1c1,1.6,1.5,2.9,1.5,3.8
		c4.4-2.2,7.8-3.6,10.1-4.3c-0.2-1.4-0.7-3.1-1.3-5.2c-0.8-2.4-1.3-4.1-1.5-4.9C71.9,20,76,19.1,80.9,18c0.2,0.7,0.4,2.2,0.7,4.4
		c0.3,1.9,0.6,3.3,0.9,4.2c-1.2-0.1-2.4,0-3.7,0.3c-1.5,0.4-2.6,0.5-3.5,0.4c0.1-0.7,0-1.5-0.3-2.2c-0.4-0.7-0.6-1.4-0.4-2.1
		c1.1-0.4,1.9-0.3,2.5,0.3c0.7,0.7,1.3,1.1,1.9,1.1c0.7-0.2,0.9-0.7,0.4-1.4c-0.6-0.9-0.7-1.6-0.4-2.2c-1,0-2.2,0.3-3.6,0.8
		c-1.5,0.4-2.7,0.7-3.6,0.7c1.2,2.6,1.9,5.2,2.2,7.9c6.4-1.4,10-2.1,10.8-2.1c0.1-0.7-0.1-2.5-0.7-5.4c-0.4-2.1-0.1-3.7,0.7-4.7
		c-0.4,0.3,3.4,0,11.5-0.8V26h-7.1v-4.3c1-0.4,1.6-0.2,2,0.4c0.4,0.8,0.9,1.1,1.5,1c0.3-0.1,0.6-1.1,0.8-3c0.3,0.6-1.9,0.4-6.5-0.7
		v7.9c0.6,0.1,2.4,0,5.5-0.1c2.3-0.1,3.9,0.2,4.6,0.9c0.9-0.7,1.4-2.2,1.4-4.4c0-0.6,0-1.5,0-2.9s0-2.3,0-2.9c1.8-0.1,3.9,0,6.3,0.5
		c2.8,0.5,4.8,0.8,5.9,0.9c0.1,1.3,0,2.7-0.4,4.2c-0.6,2.1-0.9,3.4-1,3.7c-0.9,0.1-1.9,0-3.2-0.4c-1.2-0.4-2.3-0.5-3.3-0.3
		c0.1-0.1,0.1-1,0-2.5c-0.1-1.1,0.1-1.7,0.8-1.8c1.2-0.3,1.8-0.1,2,0.4c0.2,0.6,0,1.2-0.6,1.8c1.8,0.2,2.7-0.3,2.9-1.4
		c0.3-1.4-0.4-2.1-2.2-2.2c-2.1-0.1-3.2-0.3-3.5-0.8c-1,0.1-1.5,1.1-1.5,2.9c0,3.2,0,4.7,0.1,4.4c0.7,0.7,2.2,1.3,4.5,1.6
		c2.5,0.4,4.1,0.8,4.8,1.2c1.4-1.8,2.3-4.9,2.9-9.3c2,0,4.1,0.5,6.4,1.5c2.6,1.2,4.5,1.9,5.9,2.1c-0.2,0.9-0.7,2.2-1.5,3.8
		c-0.8,1.5-1.3,2.9-1.4,4.1c-2.9-1.2-5.1-2.1-6.5-2.9c0.7-2.3,1.2-3.5,1.5-3.6c1.3-0.1,1.9,0.2,1.8,1.1c-0.2,1-0.1,1.6,0.3,1.8
		c0.8,0.2,1.3,0,1.5-0.7c0.4-1,0.6-1.5,0.7-1.5c-0.4-0.8-2.3-1.8-5.8-2.9c-0.7,0.5-1.2,1.5-1.6,3.1c-0.4,1.8-0.8,3-1.2,3.4
		c0.8,0.8,2.4,1.6,4.7,2.5c2.3,0.8,3.9,1.6,4.6,2.5c0.7-1,1.6-2.4,2.6-4.3c1.2-2.1,2-3.6,2.4-4.4c4.2,1.3,7.2,3,8.8,5.2
		c2,2.6,1,5-3,7.1c-1.9-0.2-3.4-1.2-4.4-3c-1.1-1.9-0.4-3.1,2.2-3.5c0.6,0.5,0.7,1.1,0.4,1.9c-0.2,0.7-0.1,1.3,0.3,1.8
		c0.9,0.2,1.5,0,1.8-0.8c0.4-0.9,0.7-1.4,1.1-1.4c-0.3-0.8-1.1-1.6-2.3-2.3c-1.5-0.8-2.4-1.5-2.7-2c-1,0.4-1.9,1.4-2.5,2.9
		c-1.2,2.4-1.8,3.6-1.8,3.6c0.7,0.9,2,1.9,4,3.2c1.9,1.2,3.2,2.3,4,3.3c-0.4,0.2,1.8-2.2,6.5-7.3c1.7,0.5,3.4,1.7,5.1,3.6
		c2,2.3,3.5,3.8,4.3,4.3c-1.5,2.9-3.4,4.4-5.5,4.7c-2.3,0.4-3.8-1.2-4.6-4.7c0.6,0.1,1-0.3,1.3-1.2c0.2-0.8,0.8-1.1,1.6-0.9
		c0.5,0.4,0.6,1.1,0.3,2.1c-0.4,1-0.3,1.7,0.3,2.2c0.7,0.2,1.3,0,1.6-0.5c0.4-0.6,0.8-0.9,1.2-0.9c-1.2-3.4-2.7-4.9-4.7-4.6
		c-1.8,0.2-3.6,1.8-5.4,4.6c2.9,4,5.3,6.2,7,6.5c1.8,0.2,4.8-1.2,8.9-4.3c3.9,7.5,5.8,11.1,5.7,10.8c-1,0-2.2,0.5-3.5,1.5
		c-1.2,1-2.5,1.4-3.6,1.3c-0.7-2.7-1.7-4.4-3-5.1c1.9-2.3,3.4-3,4.4-2.1c0.6,0.6,0.6,1.1,0.1,1.5c-0.7,0.7-1,1.3-0.9,2
		c0.6,0.7,1.1,0.7,1.6,0.2c0.6-0.7,1.2-1,2-0.9c-0.9-3.4-2.2-5.2-4-5.4c-1.3-0.1-3.4,1-6.2,3.2c0.4,0.9,1.3,2.4,2.7,4.5
		c1.2,1.8,1.9,3.4,2.3,4.8c1.4-0.1,3-0.7,4.9-1.9c1.9-1.1,3.6-1.6,5.2-1.6c0.2,1,0.9,2.7,2.1,5.4c1,2.2,1.5,4.2,1.5,6.2
		c-4.6,1.7-6.8,2.4-6.5,2.1c-1.1-0.7-2.1-3-2.9-7.1c0.7,0.1,1.4,0,2.1-0.4c0.7-0.4,1.5-0.5,2.2-0.3c0.3,1,0.1,1.7-0.5,2.3
		c-0.7,0.7-1,1.4-0.9,2.1c1.5,0.1,2.7-0.1,3.6-0.8c-0.1-1.1-0.4-2.2-0.9-3.4c-0.8-1.6-1.2-2.6-1.3-3.1c-0.8,0.2-2,0.7-3.6,1.4
		c-1.4,0.7-2.6,1.2-3.6,1.4c1.9,4.6,3.1,8.2,3.6,10.9c1.1-0.4,2.8-1,5.1-1.5c2.4-0.6,4.1-1.1,5.1-1.4c1.3,6.2,2,10.5,2.2,13
		c-1.2-0.1-2.6,0-4.1,0.3c-1.5,0.4-2.9,0.6-4,0.4c-0.5-0.3-0.7-1.4-0.7-3.3c0.1-1.8-0.1-2.9-0.8-3.2c1-0.7,1.9-1.1,2.9-1.2
		c1.3-0.3,2,0.1,2.2,1.2c0.4,0.9,0,1.4-1.1,1.4c-1,0.1-1.4,0.5-1,1.4c0,0.3,1,0.5,2.9,0.8c0.8-0.7,1-1.8,0.7-3.4
		c-0.4-2.5-0.7-3.8-0.7-3.8c-1.4-0.1-2.8,0.1-4.3,0.4c-2.1,0.6-3.3,0.9-3.6,1c0.7,6.1,1.1,9.1,1.1,9.1S155.7,87.5,155.9,88.7z
		 M31.2,85.1c1.1,5.7,1.3,8.4,0.7,7.9c0.1-1.2,0.8-3.3,2.2-6.5c-0.7,0.2-1.3,0-1.6-0.5C32,85.4,31.6,85.1,31.2,85.1z M31.9,99.5
		c0.1,0.2,0.1,1.1,0,2.6c-0.1,1.1,0.2,1.6,0.8,1.6c0.1,0.4,0.6-1,1.4-4.3H31.9z M53.5,91.5c-1.6-2.3-4.5-3.8-8.7-4.5
		c-4.2-0.7-7.6-0.2-10,1.6c-1.2,2.9-2.2,5.7-3,8.6c1.2,0,2.4-0.7,3.4-2c1-1.5,2.1-2.2,3.1-2.3c1.4-0.8,4.1-0.9,8-0.3
		C50.1,93.2,52.4,92.9,53.5,91.5z M39.9,59.1c-0.4,0.8-1.3,2.5-2.6,5.2c-1.1,2.3-2,4.2-2.6,5.6c-1.8,4.6-2.5,8.7-2,12.3
		c0.3-1.2,2-5.2,5.1-11.9C40,65.5,40.7,61.8,39.9,59.1z M86,152.1c16.8,1.4,31.1-2.5,42.8-11.6c10.4-8.1,18-19.6,22.7-34.5
		c-2.3,1-4.1,3.2-5.4,6.5c0.1-0.2-0.8,2.9-2.5,9.3c-8.6,9-16.7,16.7-24.5,23.1c-1.6-0.9-3.2-0.6-4.6,0.8c-1.8,1.8-3.2,2.7-4.1,2.9
		c-11.1,1.7-23.6,1.7-37.5,0c-0.5-0.3-1.1-0.8-1.9-1.5c-0.8-0.8-1.4-1.4-1.8-1.6c-1.5-1.1-3.1-1.2-4.9-0.4
		c-1.4-1.4-5.5-5.2-12.3-11.5c-5.1-4.6-8.9-8.7-11.5-12.2c-2.3-8.1-4.4-12.9-6.5-14.4c0-0.4-0.2-0.7-0.7-0.7s-0.7,0.2-0.8,0.7
		C42.9,134.9,60.7,150,86,152.1z M33.4,84.3c3.9-1,9-0.2,15.5,2.4c6.1,2.6,10.8,3.2,14.1,2c-0.7-2-3-3.5-7.1-4.5
		c-4.1-1-6.6-2.4-7.4-4.2c-4.7,0.1-7.8,0.2-9.2,0.4C36.2,81,34.2,82.3,33.4,84.3z M49.3,94.4c-5,0.3-8.6,1.2-11,2.7
		c-2.3,1.5-3.7,4-4.2,7.4c1.4,0.4,2.8-0.1,4.3-1.6c1.8-1.9,3.5-3,5.1-3.4c1.5-0.4,5.7-0.4,12.6-0.1c5.2,0.2,8.7-0.7,10.4-2.7
		c-0.1-2.6-2.2-3.7-6.5-3.5c-1.2,0.1-3,0.3-5.6,0.7C51.9,94.1,50.2,94.3,49.3,94.4z M65.1,79.2c-9.4-4.1-14.1-6.2-14.3-6.2
		c-6.1-1.7-10.9-0.6-14.5,3.3c4.6-1.6,10.1-0.4,16.6,3.5c2.7,1.7,4.8,2.6,6.2,2.7C61.2,82.8,63.2,81.7,65.1,79.2z M70.9,105.3
		c0.1-1.9-1.6-3.2-5.4-3.8c-3.4-0.7-7.4-0.7-12,0c-4.8,0.7-8.4,1.8-11,3.3c-2.9,1.8-3.5,3.9-2,6.3c1.2,0.5,2.4,0.4,3.6-0.3
		c1.9-1.1,3.3-1.7,4.3-1.9c0.1,0,4.8,0.1,14.1,0.3C67.8,109.3,70.6,108,70.9,105.3z M45.6,51.2c-0.4,0.7-1.1,1.7-2.2,3.1
		c-1,1.3-1.7,2.5-2.1,3.4c2,0.4,3.4-0.2,4.4-1.9C46.8,54.2,46.7,52.7,45.6,51.2z M63,75.7c2.3-5.4-1.8-8.3-12.3-8.7
		c-0.4-0.4-1-1.3-1.8-2.5c-0.8-1.5-1.4-2.4-1.8-2.9c-1.5-2.1-3.3-2.7-5.2-1.9c1.2,0.9,2.4,3.8,3.6,8.7c2.4,0.3,5.3,1.5,8.6,3.6
		C57.5,74.3,60.4,75.5,63,75.7z M57.2,112.4c-3.4-2.2-6.8-2-10.4,0.7c-3.4,2.6-4.7,5.5-4,8.7c8.1-3.1,12.6-4.8,13.6-5.1
		c-0.1-0.7,0-1.4,0.4-2.1C57.2,113.9,57.3,113.2,57.2,112.4z M48.5,49.7c-0.5,1.3-0.4,3.3,0.2,5.8c0.9,3.2,1.3,5.4,1.2,6.5
		c0.4,0.1,3.6,1.9,9.3,5.3c3.8,2.3,7,2.9,9.4,2c-0.4-2.4-2-4.2-4.8-5.3c-0.6-0.3-1.8-0.7-3.7-1.3c-1.6-0.5-2.9-1-3.7-1.4
		c-0.8-0.7-1.9-2.9-3.3-6.4C52,51.9,50.5,50.2,48.5,49.7z M61.5,112.4c-0.6,1.5-2.5,4-5.8,7.5c-2.7,2.8-4.1,5.8-4.2,9.1
		c1,0.7,2,0.3,3-1.2c0.3-0.4,0.7-1.1,1.1-2c0.5-1,0.8-1.6,0.9-1.9c9.7-4.8,15.7-9.2,18-13c-1.1-1.7-2.9-1.9-5.4-0.7
		C65.7,112,63.1,112.7,61.5,112.4z M53.5,44c-0.1,2.1,0.6,4.1,2.2,5.9c1.9,2.1,4.3,3,7.2,2.7c0.9,0.7,1.9,2.9,3.2,6.4
		c1.1,3,2.7,4.7,4.7,5.2c1.5-4.4,0-9.7-4.4-15.9C61.6,48.4,57.3,47,53.5,44z M60,38.9c-0.2,0.5-1.1,1.1-2.5,1.8
		c-1.2,0.7-1.8,1.5-1.8,2.5c1.2,1.2,2.4,1,3.6-0.7C60.7,40.9,60.9,39.7,60,38.9z M63,61.2c0.9-1.8,0.6-3.5-1-5.1
		c-1.5-1.5-3.3-2.2-5.6-2.1C57.4,57.5,59.6,59.8,63,61.2z M76,116.7c-1.2,1.1-3.2,2.4-5.7,3.8c-2.8,1.6-4.7,2.8-5.7,3.5
		c-4.2,3.1-6.4,7.2-6.6,12.2c2.1-0.7,5.1-2.6,9-5.9c4.5-3.7,7.7-6.1,9.7-7C76.3,119.1,76.1,116.9,76,116.7z M76.6,59.8
		c2-5.6,1.2-11-2.2-16.1c-1.5-2.3-3.3-3.7-5.3-4.3c-2.3-0.6-4.6,0-6.9,1.8c0.6,0.7,1.9,1.4,4.1,2.3c2,0.8,3.3,1.7,3.8,2.7
		c0.4,0.6,1,3.3,1.8,8.2C72.5,58,74.1,59.8,76.6,59.8z M120.6,36.7c-7.1-4.2-16.7-6.4-28.8-6.4c-12.5,0-21.8,2.4-28.1,7.1
		c2.6-0.2,7.4-1.2,14.2-2.9c6.1-1.5,10.9-2.2,14.6-2.2c3.3,0,8.2,0.8,14.6,2.4C113,36.3,117.5,36.9,120.6,36.7z M70.1,78.6
		c-4.8-0.4-6.5,3.2-5.1,10.8c0.7,3.7,4.6,8.3,11.5,13.7c1.3-3.9,0.4-7.8-2.7-11.9C70.5,87,69.3,82.8,70.1,78.6z M72.3,136.3
		c8.4-2.8,11.5-6.9,9.3-12.3c-0.2,0-0.5-0.1-1-0.4c-0.4-0.2-0.8-0.3-1.2-0.2c-1.5,3.7-5.1,6.4-10.8,7.9c-2.4,8.1-3.6,11.9-3.6,11.5
		c1.5-0.2,2.9-1.2,4.1-2.9C70.5,137.8,71.5,136.6,72.3,136.3z M82.4,69.2c-3.4-1.2-6.6-1-9.6,0.8c-2.4,1.5-4.3,3.6-5.6,6.4
		c3,1.3,6,1.2,9-0.4C78.9,74.5,81,72.2,82.4,69.2z M112.7,67.7c-1.8-3.1-4.6-5.5-8.6-7.3c-3.7-1.7-7.8-2.5-12.3-2.5
		c-4.5,0.1-8.5,1-12.1,2.6c-3.9,1.9-6.6,4.5-8.1,7.9c5.1-2.8,9.8-2.5,14.4,0.8c1.5-1.3,3.6-2,6.2-2c2.6,0,4.6,0.7,6.2,2
		c1.7-1.7,4.1-2.5,7.2-2.4C106.1,66.8,108.5,67.1,112.7,67.7z M81.7,84.3c0.2-3-0.7-5.1-2.9-6.2c-2-1-4.1-0.9-6.5,0.4
		c0.1,2.1,1.1,3.6,3.1,4.5C76.5,83.6,78.6,84,81.7,84.3z M83.1,86.5c-2.1,0.4-4.1,0.1-5.9-0.9c-2.3-1.2-4-1.9-4.8-2
		c0.3,4.4,2.5,8.2,6.5,11.5C80.4,94.4,81.9,91.5,83.1,86.5z M73,147c2.3-0.7,4.2-2.1,5.6-4.3c1.5-2.3,1.8-4.8,0.9-7.3
		c-2.9-0.4-4.9,0.9-6,3.7C72.4,141.7,72.3,144.3,73,147z M76,82.2c-1.2-1-1.2-2-0.2-3.1c1-1,2.1-1,3.1,0.1v3H76z M82.4,56.9
		c1.8-3.7,2-7.8,0.8-12.3c-1.4-5-4.1-7.4-8-7.1c1.6,1.2,2.6,4.4,3.1,9.6c0.4,5.3,1.3,8.6,2.6,9.9H82.4z M88.9,112.4
		c-6.9-9.3-10.3-13.4-10.1-12.2c-2,2.1-2.9,5.1-2.7,9.1c0.2,4,1.4,7,3.4,8.9C85,117.3,88.2,115.3,88.9,112.4z M104.7,97.3
		c-2.7-3.8-4.6-7.1-5.7-10c-4.6,0.9-9.2,0.9-13.7,0c-0.6,1.3-1.5,3.1-2.9,5.4c-1.4,2.5-2.4,4.3-3,5.4c2.1,3.3,6.4,4.9,13,4.9
		C99.1,103,103.2,101.1,104.7,97.3z M87.5,85.1c-1.2-4.5-1.8-6.7-1.9-6.8c-0.4-2.5,0-4.8,1.1-6.9c-1.4-0.7-2.8-0.5-4.2,0.8
		c-1.3,1.2-2.1,2.6-2.3,4.3c2.6,3.1,3.7,4.5,3.4,4.1c1,1.7,0.8,3.4-0.5,5.3C84.1,86.2,85.6,85.9,87.5,85.1z M80.9,121.1
		c7.5,1.2,14.9,1.2,22.4,0c-3-3.2-6.7-4.8-11.2-4.8C87.6,116.3,83.9,117.9,80.9,121.1z M87.5,105.9c0.5,0.4,1.2,1.5,2,3.3
		c0.7,1.6,1.7,2.5,3,2.5c0.9-0.3,1.7-1.3,2.5-3c0.7-1.7,1.6-2.6,2.5-2.9c0.4,0,0.9,0.3,1.3,0.9c0.4,0.6,0.9,0.8,1.6,0.5
		c0.1-0.4,0.5-1,1.4-1.8c0.7-0.7,1-1.5,0.7-2.5c-7,1.4-13.9,1.4-20.9,0c-0.2,1,0,1.9,0.7,2.5c1,0.8,1.5,1.4,1.5,1.8
		c0.7,0.2,1.3,0,1.8-0.7S86.7,105.8,87.5,105.9z M83.9,149.2c2-2,3.4-5.7,4.4-11.1c1.2-6.9,2.1-11.1,2.7-12.7
		c-4.5-2.6-7.1-0.3-7.9,6.7C82.7,136.3,82.9,142,83.9,149.2z M86.7,35.3c-1,5.4-1.4,9.4-1.3,11.9c0.2,4.6,1.9,7.4,4.9,8.3
		c0.8-4,1.1-7.7,0.9-11.3C90.9,39.1,89.4,36.1,86.7,35.3z M92.4,87.3c1.6-0.1,2.8-1.1,3.6-3c0.7-1.7,1-3.7,0.9-6.2
		c-0.3-5.8-2-9.3-5.2-10.4c-2.9,1.7-4.3,5.4-4.4,11.1c-0.1,2.5,0.3,4.5,1.1,6C89.4,86.5,90.8,87.3,92.4,87.3z M94,136.3
		c-3.7-0.5-5.3,1.2-5.1,5.1c0.3,3.8,1.5,6.2,3.5,7.1c1.3-1.7,2.2-3.6,2.6-5.8C95.5,140.1,95.1,137.9,94,136.3z M97.5,35.3
		c-2.6,0.8-4.1,3.8-4.4,8.9c-0.3,3.6,0,7.4,0.9,11.3c3-1,4.6-3.7,4.8-8.3C99,44.7,98.5,40.7,97.5,35.3z M93.2,126.8
		c-0.4,1.3,1.7,8.8,6.5,22.4c1.4-3.2,1.9-7.7,1.6-13.3c-0.3-5.7-1.3-9.7-3.1-12C95.6,123.4,93.9,124.4,93.2,126.8z M103.3,106.7
		c-5.3,5.9-7.9,8-7.9,6.5c1.4,2.7,4.5,4.4,9.3,5.1c2.2-1.9,3.4-5,3.5-9.2c0.1-4.4-1-7.3-3.5-8.8C104.4,100.8,104,103,103.3,106.7z
		 M98.3,70.7c0.1,7.3-0.3,12-1.4,14.4c1.8,0.9,3.3,1.1,4.3,0.7c-1.4-1.9-1.5-3.7-0.4-5.4c2.3-3.4,3.4-4.9,3.3-4.6
		C102.7,72.6,100.8,71,98.3,70.7z M109,37.5c-4.1-0.1-6.8,2.2-8.1,6.7c-1.1,3.6-1.2,7.8-0.4,12.7c2.1,0,3.6-0.9,4.4-2.6
		c0.6-1.2,0.9-3.2,1-6c0.1-3.4,0.3-5.6,0.4-6.6C106.7,39.5,107.6,38.1,109,37.5z M101.1,86.5c0.1,0.4,0.4,1.4,0.8,2.7
		c0.2,1.1,0.5,2,0.8,2.6c0.7,1.9,1.9,3,3.5,3.3c0.4-0.6,1-1.4,1.9-2.5c0.9-1,1.5-1.8,1.9-2.4c1.4-2,2.1-4.2,2.1-6.6
		c-1,0.1-2.6,0.7-4.9,2C105.2,86.6,103.2,86.9,101.1,86.5z M102.5,131.2c4.7,2.3,10.2,6.2,16.6,11.5c0.3-4.8-1.6-8.8-5.6-11.8
		c-5.8-4.3-9-6.9-9.6-7.7c-0.1,0.4-0.4,0.6-0.9,0.8c-0.7,0.3-1.1,0.5-1.2,0.7C101.7,127,101.9,129.2,102.5,131.2z M101.9,69.9
		c4.5,6.8,9.6,9,15.2,6.5c-1.1-2.7-3.1-4.9-6-6.6C107.6,67.9,104.6,67.9,101.9,69.9z M102.5,84.3c3.1-0.3,5.2-0.7,6.4-1.2
		c1.9-0.9,2.9-2.4,3.1-4.5c-2.4-1.3-4.6-1.5-6.6-0.4C103.4,79.2,102.4,81.3,102.5,84.3z M111.2,147c0.7-1,0.8-2.5,0.3-4.5
		c-0.7-3.6-1.1-5.2-1.1-4.8c-2.1-1.5-4-2.2-5.7-2.2c-0.9,2.5-0.6,4.9,0.9,7.3C107,144.9,108.9,146.4,111.2,147z M106.2,78.6
		c1-0.2,1.8-0.1,2.3,0.3c0.4,0.4,0.6,1,0.5,1.6c-0.1,0.7-0.5,1.2-1.1,1.5c-0.7,0.4-1.5,0.5-2.4,0.1
		C105.3,80.7,105.5,79.5,106.2,78.6z M114.1,45.4c0.4-0.4,1.9-1.1,4.4-2.1c1.9-0.7,3.1-1.7,3.5-3c-5.2-2.7-9.3-1.5-12.4,3.6
		c-3,4.8-3.7,10-2,15.8c2.6-0.1,4.2-1.9,4.8-5.6C113.2,48.8,113.8,45.9,114.1,45.4z M118.5,91.5c1-3,1.4-5.7,1.1-8.1
		c-0.4-3.3-2.3-4.9-5.5-4.8c0.9,4.1-0.4,8.3-3.7,12.6c-3.2,4-4.1,8-2.7,11.9C114.5,96.3,118.1,92.5,118.5,91.5z M108.4,124
		c2.2,0.9,5.3,3.1,9.3,6.7c3.7,3.3,6.6,5.2,8.7,5.6c-0.2-5-2.4-9-6.6-12.2c-1-0.7-3-1.9-5.8-3.5c-2.5-1.5-4.4-2.7-5.6-3.8
		c-0.6,0.7-0.9,1.9-0.9,3.6S107.8,123.3,108.4,124z M109.8,111.8c4,4.5,10,8.5,18,12.2c0.1,0.2,0.4,0.8,0.9,1.9
		c0.4,0.9,0.8,1.5,1.1,2c1,1.5,2.1,1.9,3.1,1.2c-1-5.3-3.6-9.9-7.9-13.5c-4-3.4-8.6-5.3-13.7-5.9c-0.4,0.1-0.7,0.4-0.9,0.9
		C110.1,111.2,109.9,111.6,109.8,111.8z M130,44c-2,2.8-6.1,4.2-12.3,4.3c-3.5,4.8-5.2,10.1-5.1,15.9c2.5-0.1,4.3-1.8,5.4-5.2
		c1.2-3.7,2.5-5.9,4-6.4c2.6,0.3,4.9-0.8,6.9-3.2C130.8,47.1,131.2,45.3,130,44z M136.5,108.8c0.6,0.1,1.8,0.7,3.6,1.9
		c1.4,1,2.6,1.1,3.5,0.3c0.2-1.2,0-2.6-0.5-4.1c-0.6-1.5-1.4-2.5-2.3-3.2c-2.6-1.8-8.2-2.7-16.6-3c-9-0.2-12.6,1.8-10.8,5.9
		c2.3,1.7,5.8,2.5,10.2,2.5c0.7,0,2.8-0.1,6.2-0.3C132.4,108.8,134.7,108.7,136.5,108.8z M135.7,49.7c-2,0.9-3.6,2.7-4.8,5.4
		c-1.3,3.1-2.6,5.2-3.8,6.2c-0.3,0.3-2.5,1.2-6.7,2.7c-2.9,1.1-4.5,2.9-4.8,5.3c2.5,1,5.6,0.3,9.4-2c5.9-3.4,9-5.1,9.3-5.3
		c0-1.1,0.4-3.3,1.2-6.5C136.2,52.9,136.2,51,135.7,49.7z M117.7,98c0.4,0.1,6.4,0.5,18,1.4c7.2,0.6,11.8,2.5,13.7,5.8
		c0.1-2.3-0.4-4.4-1.6-6.5c-1.4-2.2-3.3-3.7-5.6-4.4c-3.5-1.1-8.6-1.5-15.2-1.3C119.4,93.3,116.2,94.9,117.7,98z M148,75.7
		c-4.2-3.4-9.3-4.2-15.3-2.5c-3.5,1-8.1,3.3-13.6,6.8c2.1,1.9,4.3,2.7,6.6,2.4c1.5-0.2,3.6-1.1,6.3-2.6
		C138.5,76.1,143.9,74.7,148,75.7z M132.9,67c-4.4,0.4-7.5,1-9.2,1.8c-3,1.4-3.8,3.7-2.3,6.9c2.6-0.2,5.5-1.4,8.7-3.6
		c3.4-2.1,6.2-3.3,8.6-3.6c0.3-2,1.5-5.2,3.6-9.3c-2.3-0.1-4.1,0.9-5.5,3.1C135,65,133.7,66.6,132.9,67z M127.8,54.1
		c-2.3-0.1-4.1,0.6-5.6,2.1c-1.5,1.5-1.8,3.2-0.9,5.1C124.8,59.8,126.9,57.5,127.8,54.1z M121.3,90.1c3.4-0.1,8.3-1.3,14.7-3.7
		c5.5-2.1,10.4-2.8,14.8-2.1c-0.9-2-2.9-3.3-5.9-3.8c-1.4-0.2-4.5-0.4-9.2-0.4c-0.7,1.8-3.3,3.2-8,4.3
		C123.5,85.2,121.3,87.2,121.3,90.1z M123.5,39.7c0.4,0.1,0.6,0.4,0.5,0.9c-0.1,0.4-0.3,0.8-0.5,1.2c0.2,0.1,0.6,0.4,1.1,0.8
		c0.6,0.4,1,0.7,1.2,0.9c1,0.6,1.9,0.5,2.6-0.2c0-1-0.7-2-2.2-3C124.9,39.4,124,39.2,123.5,39.7z M127.8,116.7
		c1,0.2,5.6,1.9,13.7,5.1c0.7-3.2-0.7-6.1-4.1-8.7c-3.5-2.6-7-2.9-10.4-0.7c-0.1,0.7,0,1.5,0.4,2.2C127.8,115.3,128,116,127.8,116.7
		z M146.5,93c0.7,0.2,1.5,1.1,2.6,2.5c0.9,1.2,1.9,1.8,3.2,1.8c-0.7-2.9-1.7-5.7-2.9-8.6c-2.6-1.9-6.1-2.5-10.4-1.6
		c-4.4,0.8-7.2,2.5-8.3,5.2c1.9,0.6,4.5,0.7,7.7,0.3C141.6,92.2,144.3,92.4,146.5,93z M137.9,51.2c-0.5,2.1-0.2,3.8,1,5.2
		c1.2,1.5,2.6,1.6,4.1,0.5c-0.6-0.4-1.4-1.4-2.4-3C139.7,52.6,138.8,51.7,137.9,51.2z M143.6,59.8c-0.3,2.2,0.3,4.9,1.9,8.1
		c2.8,5.6,4.1,8.2,4,7.8c-0.5,3.2,0.4,5.4,2.9,6.5C151,71.9,148.1,64.4,143.6,59.8z M153.1,93c-1.1-5.7-1.4-8.4-0.8-7.9
		c0.1,0.6-0.3,1-1,1.2s-1.1,0.5-1.2,1c0.7,0.3,1.3,1.2,1.6,2.6C152.3,91.5,152.7,92.5,153.1,93z M152.3,99.5
		c-1.4,0.2-2.1,0.5-2.2,0.8c0.6,0.1,1,0.6,1.2,1.6c0.2,1.1,0.6,1.7,1,1.9V99.5z"/>
</g>
</svg>
