<?xml version="1.0" encoding="utf-8"?>
<!-- Generator: Adobe Illustrator 21.1.0, SVG Export Plug-In . SVG Version: 6.00 Build 0)  -->
<svg version="1.1" id="Layer_1" xmlns="http://www.w3.org/2000/svg" xmlns:xlink="http://www.w3.org/1999/xlink" x="0px" y="0px"
	 viewBox="0 0 182.2 182.2" style="enable-background:new 0 0 182.2 182.2;" xml:space="preserve">
<style type="text/css">
	.st0{fill:#010101;}
</style>
<g>
	<path class="st0" d="M118.5,159.7c3.3,0.1,13.5,0.3,30.9,0.6c12.6,0.1,22.5,0.7,29.8,1.6c-21.2,0.8-50.1,1-86.7,0.6
		c-43.4-0.4-72.8-0.5-88-0.2c2.9-1.1,7.8-1.7,14.9-1.7c8.3,0,13.3-0.2,15.1-0.5c-2.6-1.7-3.4-4.2-2.3-7.5c1.8-6,2.8-9.3,2.8-9.9
		c0-1-0.2-2.7-0.6-5c-0.4-2-0.5-3.7-0.3-5.2c3.3-4,4.9-6.3,5.1-6.8c-3.4,0.7-6.7,0.3-9.9-1c-3.5-1.4-5.4-3.5-5.9-6.2
		c-0.6-4,1.4-7.6,6-10.7c5.5-3.9,8.7-6.7,9.4-8.4c0.1-0.5-0.2-0.9-0.7-1.3c-0.6-0.4-0.9-0.7-1.1-0.8c0.7,0-3.5,1.1-12.3,3.4
		c-4.5,1.2-7.6-0.6-9.3-5.2c-0.1-0.7,0.1-0.9,0.5-0.8c0.7,0.3,1,0.4,1.2,0.4c-0.6-1.6-0.8-2.6-0.8-3c0.3,0.5,1.7,1.2,4.2,2.1
		c0.5-0.3,1.2-0.6,2.1-1.1c0.9-0.5,1.6-0.8,2.1-1.1c7.4-1,12.1-1.5,14.1-1.5c5.1,0.2,8,2.1,8.9,5.8c0.8,3.8-0.7,7.4-4.6,10.7
		c-4.8,4.2-7.5,7.1-8.1,8.8c1.4,2.6,3.7,2.6,7.1,0c1.1-0.8,2.6-2.8,4.4-6c1.8-3.1,3.3-5,4.6-6c2.3-1.6,6.1-2.2,11.5-1.9
		c6.8,0.5,11.2,0.5,13.1,0.2c4.4-0.9,8.9-3.7,13.5-8.5c0.1-0.4-0.2-0.6-0.8-0.5c-0.8,0.1-1.2,0.1-1.3,0c0.1-0.5,0.5-1.2,1-2.1
		c0.6-1,0.9-1.7,1.1-2.1c0.2-1-0.5-1.4-2.1-1.3c2.5-3.6,4.2-6.4,5.1-8.5c-0.2-0.4-0.8,0-1.7,1.1c-0.8,1-1.2,1-1.4,0.2
		c1-1,1.4-3,1.2-6c-0.3-3.6-0.2-6,0.1-7.1c0.5-1.4,1.6-3.1,3.3-5.2c1.7-2,2.7-3.6,3.1-5.1c3.6-0.8,5.8,0,6.3,2.5
		c3.9-0.1,6,1.2,6.3,3.9c-0.7,0-2-0.4-3.7-1.1c-1.7-0.6-3.2-0.9-4.4-0.7c-2.1,0.4-3.8,2.4-5.1,6c0.8-1.3,4.1-2.7,9.8-4.2
		c0.5,0.5,0.5,0.9-0.1,1.5c-0.7,0.7-1,1.3-0.8,1.9c0.6-0.1,1.8,0.3,3.5,1.1c1.6,0.7,3,0.8,4.2,0.2l-0.7,3.5c-0.2,1.2-0.8,2-1.9,2.4
		c0.3-1.2-0.1-1.9-1-2.2c-0.3-0.1-0.8-0.1-1.5-0.1c-0.7-0.1-1.1-0.1-1.5-0.2c-0.1-0.5,0.1-0.9,0.6-1.1c0.6-0.2,0.8-0.6,0.8-1.1
		c-1-0.8-2-0.2-3,1.8c0-0.3,1.4,1.3,4.3,4.6c0,0.7-0.2,1.4-0.7,2.1c-0.5,0.8-0.7,1.5-0.6,2.1c0.1,1.4,1,2.1,2.7,2
		c1.7-0.1,2.7-0.8,3.1-2c0-0.8-0.6-1.3-1.7-1.7c-1.3-0.3-2-0.8-2.1-1.4c0.4-0.6,1.7-0.9,3.8-0.9c3.6,0.1,5.5,0.1,5.6,0.1
		c0.1,1-0.4,1.6-1.5,2c-1.2,0.4-1.9,0.9-2,1.5c0.1,0.8,0.6,1.3,1.5,1.7c0.2,0.1,0.6,0.3,1.2,0.4c0.5,0.2,0.9,0.4,1.2,0.5
		c1-0.3,1.6-1.1,1.7-2.3c-0.1,0.3-0.2-0.9-0.4-3.6c0.3-0.4,0.7-0.9,1.5-1.5c0.8-0.7,1.3-1.2,1.6-1.6c1.1-1.3,1.2-2.8,0.4-4.6
		c-0.5-0.1-0.8,0-1.1,0.4c-0.3,0.4-0.6,0.5-1.1,0.4c-0.1,0.6,0.5,1,1.8,1.3c-0.5,0.4-1.6,0.8-3.1,1.2c-1.2,0.3-2,0.9-2.4,1.9
		c-0.8-1.4-1.2-3.2-1.3-5.6c1.2,0.6,2.3,0.6,3.4-0.1c1.4-0.8,2.6-1.2,3.4-1.2c-0.1-0.6-0.6-1.2-1.4-1.9c-0.7-0.6-1.1-1.3-1.3-2
		c0.4-1.8,1.4-3.2,2.9-4.2c1.8-1.1,3.5-1.1,5.2,0c0.3,0.3,0.4,1.2,0.4,2.9c2.8,2.8,4.7,5.2,5.8,7.3c1.4,2.9,1.9,6.1,1.5,9.7
		c-0.1,0.7-0.3,1.7-0.6,3.2c-0.3,1.5-0.5,2.6-0.6,3.3c-0.3,2.6,0.4,4.7,2.1,6.2c-0.2-0.2-1-0.2-2.5,0c0.3,0.8,0.6,2.4,0.9,4.8
		c0.2,2.3,0.6,3.8,1.2,4.6c-0.4-0.3-0.8-0.5-1.3-0.5c1.3,2.7,4.4,6.6,9.4,11.5c0.1-2.1,0-3-0.4-2.6c2.6-1.1,5-1.2,7.3-0.3
		c2.1,0.8,3.7,2.2,5,4.2c1.2,2,1.6,3.9,1.4,6c-0.3,2.2-1.3,3.9-3.1,5c2.1,7,3.6,9.8,4.3,8.5c-1.8-0.3-3.3-1.3-4.7-3.2
		c-1.9-2.6-3-4.1-3.4-4.4c-1.3,0-3.1-0.3-5.4-0.8c-2-0.5-3.5-0.7-4.8-0.5c-1.5,0.3-5.3,2.1-11.5,5.5c-4.8,2.7-9.5,3.4-14,2.1
		c-2.5,2.3-3.9,7.9-4.2,16.6c0.3,0.6,1,0.9,2.1,1.1c0.9,0.1,1.8,0,2.5-0.3c1.7,0.7,2.7,2.3,3.1,4.8c0.4,2.4,0.6,3.6,0.6,3.6
		S119.8,158.2,118.5,159.7z M31.2,112.3c-2,1.4-2.8,3.1-2.4,5c0.3,1.6,1.2,3,2.8,4.1c1.6,1.2,3.2,1.6,4.8,1.4
		c1.8-0.3,2.8-1.4,3.2-3.3c-1.7,1-3.5,1.3-5.3,0.7c-1.8-0.6-2.7-1.7-2.7-3.2c-0.1-1.9,2.3-4.8,7.2-8.8c4.9-4,7.3-7.3,7.2-9.9
		c-0.1-3.4-2.2-5.4-6.3-6.2c-3.8-0.7-7.4-0.1-10.6,2c-1.3-0.9-3.1-0.9-5.3,0.1c-2.5,1.1-4.3,1.5-5.4,1.2c0.1,0.1,0.7,0.5,1.6,1.1
		c0.7,0.5,0.9,0.8,0.6,1.1c-0.5,0.1-0.9,0-1.3-0.3c-0.4-0.2-0.8-0.3-1.3-0.2c0.1,0.8,0.7,1.4,1.8,2c1,0.5,1.9,0.6,2.4,0.2
		c-0.6-0.3-1-0.6-1.3-0.9c2.8-0.3,4.1-0.3,3.8,0c-0.8-0.1-1.4-0.3-1.7-0.8c2.1,0.4,3.8,0.5,5.1,0.4c0.2-0.2,0.4-0.6,0.6-1.3
		s0.4-1.1,0.7-1.3c0.1,0.2,0.2,0.5,0.5,0.9c0.2,0.3,0.3,0.6,0.4,0.8c1.4-1,3.3-1.3,5.7-0.9c0.8,0.1,1.7,0.4,2.8,0.7
		c1.2,0.4,1.9,0.6,2.1,0.7c-0.5-1.1-1.8-1.8-3.8-2.1c-0.3-0.1-1.2-0.2-2.5-0.4c-1.1-0.1-2-0.3-2.5-0.5c4.5-0.3,6.9-0.4,7.3-0.4
		c2.3,0.2,3.7,1.2,4.1,2.9c0.5,2-0.2,4.1-2.1,6.2c-1.4,1.6-3.1,2.9-5,3.9c1.8-3.9,2.7-5.6,2.9-5.1c-0.5,0.7-3.2,2.8-8.1,6.5
		c-3.9,2.9-5.9,5.5-5.9,7.9c-0.1,1,0.1,1.9,0.4,2.6c0.4,0.8,0.9,1.1,1.7,0.8c-0.8-1.6-0.6-3.3,0.7-5.1C29,113.2,30,112.4,31.2,112.3
		z M23.9,95.3c0.3-0.6,1.1-0.9,2.3-1.1c1.2-0.1,1.9,0.2,1.9,1.1c-0.3,0.2-0.8,0.2-1.7,0.1C25.4,95.2,24.5,95.1,23.9,95.3z
		 M54.4,97.8c-2.5-3.5-6.6-8.7-12.5-15.6c-5.6-6.6-9.8-11.9-12.5-15.7c1.1-0.6,4.7-2.5,10.8-5.6c4.4-2.2,7.7-4.3,10-6.3
		c-0.1-0.7-0.6-1.7-1.7-2.9c1.7-4.6,5.4-8.5,11-11.7c1.6-0.9,4.2-2.1,7.6-3.7c3.4-1.6,6-2.8,7.6-3.7c-0.3-0.5-0.7-0.6-1.4-0.3
		c-0.8,0.3-1.3,0.4-1.7,0.3c-0.2-0.6-0.6-1.3-1.2-2.2c-0.8-1.1-1.2-1.8-1.4-2.1c-0.9-1.7-0.6-3.2,0.9-4.5h3.4c1,2.9,1.5,4,1.7,3.4
		c0,0.3,0.3,0.5,0.8,0.5c0.8-0.1,1.2-0.1,1.4-0.1c0.1,0.4-0.2,1.2-0.9,2.5c7.2,8.9,14.3,17.3,21.2,25c-0.1,0.3-0.5,0.6-1,0.8
		c-0.6,0.3-0.9,0.4-1.1,0.5c-1.4-1.4-7.9-8.9-19.5-22.5c-7.7,3.5-12.6,5.7-14.5,6.7c-5.1,2.9-9,6.2-11.4,9.9
		c-0.1,0.8,0.3,1.6,1.2,2.2c0.8,0.7,1.3,1.3,1.4,2c-2.3,2.1-5.7,4.3-10.3,6.7c-6,3.1-9.6,5.1-10.9,6c1,0.3,3.3-0.5,6.7-2.5
		c0-0.3-1.8,1.1-5.5,4.3c0.1,0.7,0.5,0.9,1.4,0.8c0.7-0.1,1.2-0.4,1.6-0.8c0.2,0.3,0,0.7-0.7,1.5c-0.5,0.6-0.4,1.2,0.3,1.9
		c0.4,0.1,0.8-0.1,1.3-0.4c0.5-0.3,0.9-0.5,1.3-0.4c-0.1,0.3-0.3,0.5-0.6,0.8c-0.4,0.3-0.6,0.6-0.7,0.9c0,0.5,0.3,0.8,1,1.2
		c0.6,0.3,1.1,0.3,1.5-0.1c-0.4,0.7-0.4,1.3,0,2c0.5,0.8,1.3,0.9,2.6,0.4c-0.7,0.3-1.1,0.7-1.1,1.2c0,0.3,0.2,0.8,0.7,1.8
		c0.7,0.1,1.3,0,1.9-0.3c0.7-0.3,1.2-0.5,1.6-0.6c-0.1,0.4-0.5,0.7-1,1c-0.7,0.4-1,0.7-1.2,0.8c0,0.3,0.2,0.5,0.5,0.7
		c0.3,0.3,0.4,0.6,0.3,1c0.6,0.1,1.1,0,1.6-0.3c0.6-0.4,1.1-0.6,1.5-0.5c-0.1,0.3-0.3,0.6-0.8,0.9c-0.5,0.3-0.8,0.6-0.9,0.8
		c0,0.3,0.2,0.6,0.6,0.9c0.4,0.3,0.6,0.5,0.7,0.8c1.1-0.5,2-0.7,2.5-0.8c-0.1,0.3-0.4,0.6-0.9,0.8c-0.6,0.2-0.9,0.5-0.9,0.9
		c0.2,0.7,0.6,1.1,1.3,1.1c0.6,0,1.2-0.2,1.8-0.7c-0.8,0.9-1,1.7-0.6,2.3c0.5,0.8,1.6,0.8,3.5,0.2c-0.1,0.5-0.4,0.8-1,1
		c-0.7,0.2-1,0.5-1.2,0.8c0.3,0.8,0.8,1.2,1.6,1c1.7-0.4,2.4-0.6,2.2-0.6c-0.1,0.3-0.5,0.6-1,0.9c-0.6,0.3-0.9,0.5-1.1,0.8
		c0,0.2,0.1,0.4,0.4,0.7c0.3,0.2,0.4,0.4,0.4,0.6c1.2,0.1,2.5-0.3,3.9-1c1.6-0.8,2.7-1.4,3.3-1.6c-0.5,0.7-1.4,1.4-2.6,2.1
		c-1.5,0.9-2.4,1.5-2.8,1.9c11-3.6,18.8-8.3,23.3-14.1c0.5,0.5-0.6,1.2-3.4,2.1c0.1,0.1,0.6-1.1,1.7-3.4c-0.3-0.6-1-1.5-2.1-2.4
		c-1.1-1-1.8-1.9-2.1-2.6c0.5,0.3,0.9,0.5,1.3,0.4c1.8-2.7,3.5-4.4,5.1-5.1c0,0.1-0.6,0.9-1.9,2.4c-1.4,1.7-2.2,3-2.4,3.9
		c0.7,0.3,1.1,0.2,1.5-0.5c0.5-1.2,0.7-1.7,0.7-1.6c2.7-3.1,7.1-5.9,13.2-8.5c-0.6,1.7-2.2,3.2-5,4.6c-3.1,1.5-4.9,2.8-5.7,3.9
		c0.1,0.8,0.6,1.7,1.3,2.5c1,1,1.6,1.7,1.8,2.1c-2.1,4.4-6.1,8.3-11.9,11.5c-1.7,0.9-4.3,2.2-7.8,3.8C58.7,95.6,56.1,96.9,54.4,97.8
		z M117.6,156.3c0.5-1.1,0.6-2.2,0.1-3.4c-0.5-1.1-1.2-1.8-2.1-2.1c-0.1,0.8-0.4,1.4-0.9,1.7c-0.3-0.8-1.5-1.2-3.4-1.3
		c-2.1-0.1-3.4-0.4-3.8-0.9c0.3-0.1,0.7-0.3,1.3-0.6c0.6-0.3,1-0.6,1.3-0.7c-0.5-3.1,0.2-7.6,1.9-13.5c1.6-5.6,2-10.3,1.2-14.1
		c0.8-0.6,1.9-0.7,3.3-0.4c0-2.2-1.5-3.8-4.5-4.8c-3.3-1.2-5.2-2.4-5.7-3.7c0.1-0.1,0.6-0.1,1.4,0c0.5,0.1,0.8-0.1,0.8-0.4
		c-0.1-0.1-0.9-0.6-2.6-1.5c-1-0.6-1.4-1.5-1.2-2.8c-2.7,0.4-5-0.7-7.1-3.1c-3.5-4.2-5.2-6.2-5.2-6.2c0,0.8,0.3,1.6,1,2.3
		c0.7,1,1,1.7,1.2,2.2c-4.1-2.6-6-3.9-5.6-3.8c-3.8,2.8-11.3,4.9-22.5,6.3c-2.8-1-5.9-1.3-9.2-0.7c-3.6,0.7-5.8,2-6.5,4.1
		c0.1,0.1,0.6,0.1,1.4,0c0.5-0.1,0.8,0.1,0.8,0.4c-1.8,0.4-3.1,1.1-3.8,2.1c3.3-0.3,5.1-0.3,5.5,0c-2.4,0.2-4.4,0.9-5.9,2.1
		c0.5,0.1,1.6-0.1,3.3-0.4c1.4-0.3,2.4-0.1,3,0.4c-0.4,0.1-1.1,0.3-2.1,0.5c-1.1,0.3-1.9,0.5-2.3,0.6c-1.8,0.5-2.7,1.1-2.7,1.9
		c3.6-1.6,6.7-1.8,9.3-0.8c-5.9,1.8-9,3.6-9.3,5.5c1.1-0.7,2.5-1.3,4.2-1.7c0.1-0.1-1.4,1.2-4.3,3.7c-1.8,1.5-2.9,3.1-3.3,4.8
		c0.7,0,1.4-0.5,2.1-1.6c0.7-0.9,1.3-1.3,1.7-1.1c-2.1,4.7-5,7.8-8.9,9.4c-0.7,4.6-1.5,7.3-2.5,8.1c0.3-1.1,0.4-2.6,0.2-4.6
		c-0.3-2.3-0.3-3.9-0.2-4.8c2-0.3,3.5-1.7,4.5-4.2c0.2-0.5,0.6-1.5,1.1-3.2c0.5-1.4,0.8-2.4,1.2-3.2c1.2-0.1-0.2,2.3-4.2,7.2
		c-0.3,0.3-0.8,0.7-1.7,1.1c-0.9,0.4-1.5,0.7-1.8,1.1c-0.5,0.7-0.6,1.9-0.3,3.5c0.5,2.6,0.8,3.8,0.8,3.7c0.1,2-0.3,4.5-1.2,7.7
		c-0.9,3.3-1.4,5.7-1.4,7.1c0-0.1,0.2-0.9,0.5-2.5c0.2-1,0.6-1.6,1.2-1.8c-1,3.1-0.4,5.4,1.9,6.8c1.9,1.2,4.7,1.6,8.3,1.3
		c0.1-0.2,0.3-0.7,0.4-1.6c0.1-0.8,0.2-1.3,0.5-1.5c0.4,0.2,0.8,0.8,1.3,1.8c0.4,0.8,0.9,1.3,1.7,1.3c0.3-0.5,0.3-1.1,0.2-2.1
		c-0.1-0.7,0.1-1.1,0.7-1.4c0.3,0.3,0.5,0.7,0.7,1.5c0.1,0.8,0.3,1.3,0.6,1.6c1-1.5,0.7-3.2-0.9-5.2c-0.5-0.1-0.9,0-1.3,0.3
		c-0.4,0.4-0.7,0.6-0.8,0.6c0-1.2-0.6-1.8-1.7-1.7c-0.8,0.1-1.6,0.6-2.1,1.3c-0.4-1.3-1.4-1.6-3.1-0.9c-1.9,0.8-3.1,1-3.7,0.4
		c1.5-1.8,2.6-4.5,3.3-8c0.7-3.6,1.6-6,2.6-7.2c0.5-0.7,1.4-1.3,2.7-1.9c1.6-0.7,2.7-1.2,3.2-1.6c5.7-4.2,8.5-6.3,8.4-6.3l5.4-2.1
		c1.8-1,3-2.4,3.6-4.2c-0.4-0.2-0.9,0.1-1.7,1c-0.8,1-1.6,1.6-2.1,1.6c0.9-1,1.8-2.4,2.5-4.2c-0.7-0.7-1.1-1.7-1.3-3.1
		c-0.1-1.4,0.2-2.4,0.8-3.2c1.8,3.8,6.3,6.2,13.5,6.9c7.1,0.8,12.5-0.2,16.2-3.1c-6.5,1.9-11.5,2.1-14.8,0.8
		c6.5,0.4,11.8-1.3,15.7-5.1c-7.6,2.2-12.1,3.2-13.6,3c3.9-0.4,8.1-2.4,12.7-6c1,0.8,2.5,2,4.7,3.4c2.2,1.4,3.8,2.5,4.7,3.3
		c-1-0.1-2.3-0.3-3.7-0.7c-2-0.6-3.1-0.9-3.5-1c0.3,2.3,1.6,4.1,3.7,5.2c1.3,0.7,3.6,1.4,6.9,2.1c-0.7,0.4-1.7,1.3-3.1,2.8
		c-1.2,1.3-2.3,2.2-3.3,2.6c-1.4-0.7-2.5-1.6-3.3-2.5c0.5,0,1.1-0.2,1.8-0.7c0.7-0.5,0.7-0.8,0.3-1c-0.5,0.5-1.1,0.9-1.9,1.1
		c-1,0.2-1.6,0-2-0.7c0.2-0.3,0.7-0.7,1.6-1c0.8-0.3,1.3-0.7,1.5-1.2l-5.1,0.9c-0.5,0.8-1.5,1.4-3,1.7c-0.5,0.1-1.2,0.2-2.1,0.3
		c-1.1,0.1-1.8,0.1-2.1,0.2c-0.4-0.1-0.6,0-0.7,0.2c-0.1,0.2,0.2,0.3,0.7,0.2h4.2c0.1,0,0.5-0.1,1.1-0.4c0.5-0.2,0.9-0.3,1.3-0.4
		c1-0.2,1.7,0.1,2,0.8c-0.3,0.5-0.9,0.8-2.1,1c-1.2,0.2-1.9,0.5-2.2,0.8c0.7,0.1,2.2-0.1,4.7-0.5c2.7,1.5,4.4,5.1,5,10.8
		c0,0.4,0,5,0.1,13.8c1-2,1.5-5.5,1.5-10.5c-0.1-5.1,0.3-8.7,1.1-10.6c0.5,4.9,0.9,7.7,1.3,8.5c0.3-7,0.6-10.8,0.9-11.4
		c1.2,5.9,1.2,13.8,0,23.7c-1.3,0.8-2.1,1.3-2.3,1.7c-0.7,0.8-0.9,2-0.7,3.4c3.6,0.8,5.7,2,6.4,3.4c0.4-0.5,0.5-1.4,0.2-2.5
		c-0.3-1.1-0.2-1.8,0.2-2.1c1.6,0.5,3.1,1.8,4.7,3.8c0.5-1.2,0.7-2.3,0.8-3.4c2.2,0.4,3.3,0.6,3.3,0.6S118.1,155.8,117.6,156.3z
		 M46.8,79.1c-4-3.7-7.2-7.5-9.8-11.4c10.3-5.6,16.1-9.1,17.4-10.6c4.6,3.1,5.5,7.3,2.7,12.4C54.8,73.7,51.3,76.9,46.8,79.1z
		 M52.7,160.1c-0.6,0.1,6.6-0.1,21.6-0.4c-0.9-1-1.6-2.3-2-3.7c-0.5-1.6-0.9-2.8-1.4-3.5c-0.7-1.1-3.3-3-7.8-5.6
		c-3-1.8-4.2-4.6-3.7-8.4c-0.8,0.1-2.6,0.7-5.6,1.9c-2.7,1.1-5.1,1.6-7.1,1.5c-0.5,2.9-1.6,5.7-3.4,8.5c5.6,1,8.6,1.6,9,1.8
		C53.3,154.1,53.4,156.8,52.7,160.1z M50.2,63.9c-0.8-0.3-2.8,0.5-6,2.5c1.2,0.2,2.5,1,3.9,2.4c0.3,0.3,0.8,1,1.7,2
		c0.7,0.8,1.2,1.5,1.7,2c2-0.9,3.4-2.3,4.2-4.3c-0.3-0.3-0.9-0.6-1.7-1c-1-0.5-1.7-0.8-2-1C50.6,65.7,49.9,64.8,50.2,63.9z M48,71.9
		c0.3-1.1-0.3-2-1.7-2.5c-0.5,0.6-0.6,1.1-0.1,1.7C46.7,71.6,47.3,71.9,48,71.9z M48,60c0.1-0.5,0.9-1.3,2.3-2.4
		c1.8-1.4,2.8-2.2,3.2-2.6C53.7,54.5,51.8,56.2,48,60z M57.4,91c-3.1-2.1-6.2-5.7-9.4-10.5c0.7-0.3,3-1.9,6.8-4.8
		c3.1-2.3,5.7-3.5,8-3.7c5.1-0.4,9.2,2.3,12.3,8.1C72.7,82.5,66.8,86.1,57.4,91z M48.9,139.3c3.3-0.2,6.2-1.1,8.9-2.8
		c2.5-1.6,4.2-3.5,5.1-5.6c-1.8,0.8-4.1,2.2-7,4.1C52.7,137.1,50.4,138.5,48.9,139.3z M59.5,42.6c-0.6,0.8-1.8,2.2-3.6,4.1
		c-2.3,2.3-3.8,3.8-4.4,4.4c0.4-1.8,1.5-3.5,3.3-4.9c0.3-0.3,1.1-0.8,2.4-1.8C58.2,43.8,59,43.1,59.5,42.6z M84.6,47.3
		c-7.1,4.2-12.3,6.8-15.6,7.8c-7.2,2.1-12.5,0.8-15.8-4c3.6-4.6,11.1-9.3,22.6-14.4C79.3,39.8,82.2,43.3,84.6,47.3z M55.7,66.5
		c0.1-0.8-0.2-1.3-1-1.7c-0.8-0.3-1.4,0-1.6,0.8c0.1,0,0.5,0.3,1.3,1C54.8,66.9,55.2,66.9,55.7,66.5z M56.9,65.2
		c-0.1-0.1-0.5-0.5-1.1-1.4c-0.3-0.5-0.7-0.4-1,0.5c0.3-0.1,0.7,0.2,1.2,0.9C56.3,65.7,56.6,65.7,56.9,65.2z M56.9,75.7
		c-0.1,1.1,0.2,2.1,0.9,3c0.1,0.2,0.4,0.5,0.9,1c0.4,0.5,0.7,0.8,0.8,1.1c-1-0.3-1.8-0.1-2.3,0.4c-0.5,0.4-0.6,0.9-0.4,1.7
		c0.2,0.7,0.6,1.1,1.1,1.4c0.7,0.3,1.4,0.1,2.1-0.4c-0.7-0.1-1-0.7-0.9-1.8c0.4,0.2,0.9,0.2,1.7-0.1c0.6-0.2,0.9-0.2,0.9,0.1
		c-0.1,0.2-0.2,0.7-0.2,1.5c0,0.7-0.2,1.2-0.6,1.6c0.5-0.1,1.6,0,3.3,0.4c-0.2-0.5-0.1-1.1,0.3-2c0.3-0.7,0.2-1.2-0.3-1.5
		c0,0.3-0.6,0.4-1.7,0.5c-0.7-1.5-0.4-2.5,0.9-3l1.3,1.8c0.5-0.6,0.6-1.5,0.4-2.4c-0.3-1-0.8-1.5-1.7-1.5c-0.8,0.3-1.5,1-2.1,2.1
		c-0.3-1.2-0.8-2.2-1.6-3C58.8,75.6,57.9,75.3,56.9,75.7z M59.5,57.1c0.4,0.3,0.4,0.7,0.1,1.5c-0.5,0.8-0.6,1.5-0.5,2
		c0.7-0.1,1.8-1.1,3.4-3c0.3,0.3,0,1.1-0.7,2.3C61,61,61,61.9,61.6,62.5c1.4-1.4,2.5-2.6,3.4-3.8c0.3,0.5,0,1.3-0.8,2.3
		c-0.8,1.2-1.1,2.2-0.9,3.2c1-0.3,2.4-1.8,4.2-4.3c0.2,0.6-0.2,1.6-1.3,3.1c-1,1.6-1.3,2.8-0.9,3.7c0.7,0,1.2-0.3,1.6-1l1-1.6
		c0.3,0.3,0.2,0.8-0.2,1.8c-0.5,1.2-0.7,2-0.6,2.4c0.3,0.4,0.7,0.4,1.2,0l0.9-1.3c-0.5,2.1-0.3,3.7,0.6,4.7
		c-1.6-1.1-5.4-5.2-11.6-12.3c0.1,0.3,0.1,0.5,0.1,0.5S58.7,59.1,59.5,57.1z M66.7,48.2c-2.6-0.7-4,0-4.2,2.1c0.4,0,0.9,0.1,1.5,0.4
		c0.6,0.3,1.1,0.4,1.5,0.4c0-0.5,0.3-0.9,0.8-1.4C66.7,49.4,66.9,48.8,66.7,48.2z M64.2,46.9c0.4,0,0.9,0.1,1.5,0.4
		c0.7,0.3,1.2,0.4,1.6,0.5c0.2-0.3,0.2-0.7,0.1-1.4c-0.2-0.8-0.2-1.5-0.1-2.1c-0.5,0.1-1.1,0.1-1.9-0.2c-0.5-0.1-0.9-0.1-1.2,0.2
		V46.9z M69.7,52c-0.4-1.4-1.1-2.3-2.1-2.9c-0.1,0.2-0.5,0.7-1,1.4c-0.4,0.5-0.6,1-0.7,1.6c0.3,0.1,0.6,0.3,0.9,0.8
		c0.3,0.4,0.7,0.6,1.2,0.5c0.3-0.1,0.6-0.3,0.9-0.7C69.1,52.3,69.4,52.1,69.7,52z M91.8,156.7c0.3-1,0.2-2.2-0.4-3.5
		c-0.7-1.3-1.5-2.1-2.6-2.3c-0.5-0.2-0.9,0-1.1,0.6c-0.2,0.5-0.6,0.7-1.1,0.7c-0.3-1.3-0.9-2-1.7-2.1c-0.3,0.1-0.5,0.6-0.6,1.4
		c-0.1,0.7-0.3,1.1-0.7,1.2c0.3,0.4-1.8-1.5-6.2-5.8c-2.5-2.4-3.6-5.3-3.5-8.7c2.7-2.4,4.7-5.2,6-8.4c6.7,1,10.8,1,12.3,0
		c-6.1,0.6-11.4-0.3-16.1-2.5c0,0.5,0.1,1.1,0.2,2.1c0.1,1,0.1,1.8,0.2,2.2c0,1.6-0.4,2.7-1.3,3.3c0-1.5-0.4-4-1.3-7.6
		c0.6-0.1-1.5,1.5-6.3,4.6c0.3-0.1,1-0.3,2-0.6c0.8-0.3,1.4-0.5,1.9-0.7c-0.3,0.7-0.9,1.2-1.9,1.8c-1,0.7-1.7,1.2-2,1.7
		c0.7,0,1.5-0.2,2.4-0.6c1-0.4,1.7-0.6,2.2-0.7c-0.4,0.8-1.2,1.5-2.4,2.2c-1.4,0.9-2.3,1.6-2.6,2c0.3,0,1.3-0.2,2.9-0.7
		c1.3-0.3,2.1-0.4,2.5-0.1c-0.3,0.7-1.1,1.2-2.3,1.7c-1.4,0.5-2.3,0.9-2.7,1.3c0.6,0.2,1.5,0.1,2.6-0.2c1-0.3,1.7-0.2,2.1,0.2
		c0.1-0.2-1.2,0.7-3.8,2.5c0.5,0.2,1.3,0.1,2.4-0.2c0.9-0.2,1.5-0.1,1.8,0.2c-0.2,0.5-0.7,0.9-1.6,1.3c-1,0.3-1.6,0.6-1.9,0.9
		c0.5,0.2,1.2,0.2,2.1,0c0.9-0.1,1.6,0,2.1,0.4c-0.1,0.1-0.7,0.4-1.8,0.8c-0.8,0.3-0.9,0.6-0.4,1c0-0.4,0.4-0.6,1.3-0.6
		c0.9,0,1.3,0.2,1.3,0.6c-0.1,0.3-0.4,0.6-1,0.7c-0.7,0.1-1,0.3-1.2,0.6c1.4,0.1,2.7-0.1,3.9-0.5c-0.7,1.2-0.3,2.1,1.1,2.9l3.1,1.8
		c-0.3,0.3-1.1,0.7-2.5,1.3c0.1,1.5,0.8,2.7,2.3,3.5c2.1,1.3,3.3,2.1,3.6,2.4c0.2-0.3,0.3-1,0.3-2.1s0.2-1.8,0.5-2.1
		c2,1,3.2,2.3,3.4,3.9c1,0,1.6-0.6,1.6-1.8c0-1.6,0-2.4,0.1-2.5c-0.5,0-0.8,0-0.8,0S89.5,154.7,91.8,156.7z M68,47.8
		c0.5-0.1,1.1-0.4,1.8-0.7c0.8-0.3,1.4-0.6,1.7-0.7c0-1.7-0.4-2.5-1.3-2.5c-0.1,0.3-0.4,0.5-1,0.5c-0.7,0.1-1,0.2-1.2,0.4V47.8z
		 M73,49.5c-1-1.8-2.4-2.2-4.2-1.3c-0.1,1.2,0.4,2,1.7,2.3C71.7,50.9,72.6,50.6,73,49.5z M71.8,28.7c1,0,1.8-0.6,2.1-1.7
		c-1.2,0.2-2.6,0-4.2-0.5C69.9,27.7,70.6,28.5,71.8,28.7z M69.8,71.9c0.3,0.1,0.5,0.3,0.7,0.4C70.2,72.2,70,72.1,69.8,71.9z
		 M93.8,59.2C80.4,67.9,73.4,72.4,73,72.8c-6.2-9.1-2.1-17.3,12.3-24.6C90.4,53.5,93.3,57.2,93.8,59.2z M82.8,63
		c-1.5-1.4-3-2.4-4.4-3c-2.1-0.8-3.8-0.4-4.9,1.3C75.5,62.9,78.6,63.5,82.8,63z M100.7,159.7c-1.2-2.3-1.7-6.4-1.5-12.4
		c0.2-6.9,0-11.7-0.7-14.4c-3.6,0.5-9.7,0.1-18.3-1.3c-0.1,1.6-0.8,3-2,4.2c-0.3,0.3-0.8,0.8-1.6,1.5c-0.7,0.7-1.2,1.2-1.6,1.6
		c1.2,4.5,3.8,7.7,7.6,9.8c3.6-0.5,6.6,0.2,9.1,2.2c2.7,2.2,3.2,5.1,1.6,8.8H100.7z M76.1,121.1c2.3,2.1,5.9,2.9,10.8,2.4
		c4.7-0.5,8.1-1.8,10.4-3.7c-0.1-0.7-0.4-1-0.9-0.9c-2.3,1.6-5.4,2.7-9.5,3.2C82.7,122.7,79.1,122.4,76.1,121.1z M84.1,62.5
		c-1.4-3.5-2.1-5.3-2.1-5.5c-1.1-1.8-2.9-2.5-5.5-2.1c0.4,1.7,1.5,3.2,3.2,4.5C82.9,61.8,84.3,62.8,84.1,62.5z M77.3,76.1
		c-0.1,1.5,0.8,2.5,2.5,3C79.1,77.4,78.3,76.4,77.3,76.1z M84.1,51.6c-1.4,1.2-1.8,2.9-1.3,4.9c0.4,1.6,1.2,3,2.5,4.4
		c0-0.6,0.1-1.5,0.2-2.5c0.2-1.2,0.3-2.1,0.3-2.4C86,54.1,85.4,52.6,84.1,51.6z M92.6,108.8c0.3-0.1,0.5,0,0.7,0.1
		c0.3,0.2,0.5,0.3,0.6,0.3c-0.6,1.8-2.4,2.9-5.5,3.4c0-0.1,0.8-0.6,2.4-1.6C91.8,110.4,92.4,109.7,92.6,108.8z M92.6,41.4
		c-1.5-0.7-2.2-2-2.1-3.7c0-0.6,0.1-1.4,0.4-2.3c0.2-1.1,0.3-1.9,0.4-2.3c0.2-0.1,0.5-0.2,1-0.3c0.5-0.1,0.8-0.1,1-0.2
		c0.7-0.2,0.8-0.7,0.6-1.7c0.6,0,2-0.1,4.1-0.3c1.6-0.1,2.9-0.1,3.9,0c3,0.2,5.4,1.3,7.3,3.2c-0.8,0.1-2.4,0-4.6-0.3
		c-2.5-0.3-4.3-0.4-5.4-0.4c-4.2,0-6,1.7-5.4,5c1.7-1.5,4-2.4,7-2.8c3.3-0.4,5.9,0.1,7.8,1.6c-0.6,0.2-2.8,0.4-6.5,0.6
		c-3.3,0.1-5.5,0.6-6.5,1.5c-0.5,1.5-0.5,3.6,0,6.3c0.5,0.2,0.7,0.1,0.8-0.4c0.1-0.5,0.4-0.6,0.9-0.4c0,0.5,0.2,0.9,0.7,1.5
		c0.5,0.5,0.7,0.9,0.6,1.5c-0.3,0-0.6-0.1-0.9-0.2c-0.3-0.2-0.5-0.3-0.8-0.2c0,1,0.6,1.7,1.7,2.1c1,0.4,2.1,0.5,3.2,0.3
		c1.2-0.3,1.9-0.7,2.2-1.3c0.3-0.8-0.1-1.6-1.3-2.4c-0.7-0.2-1.2-0.1-1.6,0.2c-0.5,0.5-1,0.7-1.4,0.6c0-0.2-0.1-0.6-0.3-1.1
		c-0.2-0.5-0.2-0.9-0.1-1.5c0.8-0.8,1.8-0.9,2.9-0.4c-0.4-2.1-0.5-3.8-0.4-5.1c1.7,0.4,2.5,2,2.5,4.7c0.3,0,0.7-0.2,1.3-0.6
		c0.5-0.4,1-0.5,1.7-0.3l1.3,2.9c-0.3,0.4-0.7,0.4-1.1,0.1c-0.4-0.5-0.9-0.6-1.5-0.5c-0.1,0.1-0.3,0.2-0.4,0.5
		c-0.1,0.3-0.2,0.4-0.5,0.4c1.1,2.9,2.6,3.4,4.4,1.3c1.8-2,2.4-4.3,2.1-6.8c-2.2-2.1-2-5.6,0.8-10.5c-0.6-0.1-1.2,0.2-1.8,0.8
		s-1.1,0.9-1.6,0.9c0-2.7-0.2-4.4-0.5-5.1c-0.4,0.4,0.6,0.5,3,0.4c0.1-0.7-0.2-1.4-0.8-2c-0.6-0.7-0.9-1.3-1-1.9h6.8
		c0.3,0.5,0.2,1-0.3,1.6c-0.7,0.8-1,1.4-1,1.9c0.5,0.1,1.1-0.1,1.7-0.4c0.6-0.4,1.1-0.6,1.7-0.5c0.1,0.7,0.1,1.7,0,2.9
		c-0.1,1-0.1,1.8,0,2.1c-0.4,0.4-0.9,0.4-1.5-0.1c-0.9-0.7-1.4-1.1-1.5-1.2c-0.4-0.1-0.5,0.2-0.4,0.9c0.1,0.7-0.1,0.9-0.5,0.9
		c1.6,0.7,2.6,2.2,2.8,4.4c0.2,2.1-0.5,3.8-2,4.9c0.6,4.4,1.9,7.1,3.8,8.1c1-0.1,1.9-0.5,2.5-1.2c0.7-0.8,0.7-1.7,0-2.6
		c-1.6-0.1-2.3,0.3-2.1,1.3c-0.8-0.3-1-0.9-0.7-1.9c0.2-0.7,0.6-1.4,1.2-2c-0.3,0,0.6,0.3,2.5,0.8c0-1.8,0.6-3.4,1.7-4.6
		c0.7-0.1,1,0.6,1,1.9c-0.1,1.1-0.2,1.9-0.5,2.3c-0.1-0.3,0.9-0.2,2.9,0.4c0.5,1.1,0.4,2.2-0.4,3.4l-1.8-1.3
		c-0.5,0.1-1.1,0.7-2.1,1.7c0.3,1.8,1.4,2.6,3.4,2.4c2-0.1,3.3-0.9,3.7-2.4c0.2,0.7-0.4,0.7-1.7,0c0.1-0.5,0.3-1,0.6-1.6
		c0.4-0.6,0.6-1.1,0.7-1.4c0.4-0.1,0.7,0,1,0.3c0.3,0.4,0.5,0.6,0.7,0.6c1.3-3.5,0.2-5.8-3.3-6.8c-2.8-0.8-6.2-0.8-10.3,0
		c1.2-2.1,3.6-3.1,7.2-2.8c3.4,0.3,5.9,1.2,7.6,2.8c0.7-3.3-1.1-4.9-5.4-4.9c-1.4-0.1-3.1,0.1-5.3,0.5c-2.7,0.4-4.1,0.6-4.2,0.6
		c0.7-1.8,2.3-2.9,4.9-3.1c3.8-0.5,6-0.8,6.6-1.1c2.8,1.2,5.2,2.9,7.1,5.1l-0.3,0.9c-0.2,0.4-0.5,0.5-1,0.4c0,0.3,0.2,0.6,0.6,0.7
		c0.5,0.1,0.7,0.3,0.7,0.6c-0.5,1.1-1.2,2.6-2.3,4.4c-1.5,2.6-2.4,4.2-2.6,4.7c-2.1,4-3.5,7.7-3.9,11.2c-1.2-2.3-3-4-5.3-5.1
		c-2.7-1.4-5.2-1.1-7.4,0.9c-2.4-1-5.3-1.5-8.7-1.3c-3.5,0.2-6.1,1-7.8,2.5c-0.4-1.9-1.6-4.2-3.5-6.9c-2-2.8-3-4.2-3-4.2
		S92.8,42.7,92.6,41.4z M94.7,77.9c-3.3,6.4-4.2,11.5-2.5,15.2c-0.1-4.8,1.4-7.6,4.7-8.5c-0.1-2.8,0.8-4.9,2.7-6.2
		c1.8-1.2,3.8-1.6,6.2-1c0.2-1-0.3-1.7-1.5-1.9c-1.7-0.3-2.6-0.6-2.8-0.7c0.1-0.4,0.4-0.9,0.9-1.5c0.5-0.6,0.7-1.1,0.9-1.5
		c2.1,0.1-0.7,3.5-8.5,10.2C95.7,80.4,95.7,79,94.7,77.9z M96,63.4c-1.6,1-2.7,2.7-3.5,4.9c-0.8,2.3-0.9,4.7-0.3,7
		c0.2-1.4,0.9-3.5,2.1-6.2C95.3,66.5,95.9,64.6,96,63.4z M97.3,88c0.1,2.4,0.3,3.7,0.4,3.8c1-0.6,2-2.7,3-6.2c0.9-3,2.4-4.6,4.6-4.8
		c-0.5-0.9-1.5-1.3-3-1.2c-1.4,0.1-2.5,0.5-3.3,1.2c-0.3,0.7-0.9,2-1.9,3.9c-1,1.9-1.8,3.4-2.1,4.5c-1.3,3.6-0.8,6.6,1.5,9
		c0.3-1,0.2-2.9-0.5-5.7C95.4,90.4,95.9,88.9,97.3,88z M103.6,68.5c-1.6-2.1-3.6-1.9-6,0.6c-2.3,2.3-3.3,4.6-2.9,6.6
		C96.2,73.1,99.2,70.6,103.6,68.5z M102,60.5c0.1-1.2-0.5-2.1-2-2.4c-1.4-0.4-2.3,0-2.7,1.2c0.9-0.6,1.8-0.6,2.6-0.2
		C99.8,59,100.5,59.5,102,60.5z M107.4,83.3c-2.8-0.1-4.8,1.5-5.9,4.7c-1.5,4.2-2.6,6.6-3.4,7.2c-0.4,1.8-0.3,3.4,0.4,4.8
		c0.7,1.4,1.6,1.4,2.5-0.1c-0.6,0-1-0.3-1.4-0.8c-0.1-0.1-0.3-0.4-0.4-0.7c-0.1-0.3-0.3-0.6-0.4-0.7c0.7-1.6,2.2-4,4.4-7.1
		C105.4,87.9,106.8,85.4,107.4,83.3z M99.8,56.7c1.4-2.3,3.8-3.5,7.2-3.4c-0.9,0.1-2.1,0.9-3.5,2.2C102.3,56.6,101.1,57,99.8,56.7z
		 M109.6,88c-1.9-0.1-3.1,0.6-3.6,2.1c-0.1,0.1-0.3,0.9-0.6,2.3c-0.3,1.1-0.6,2-0.9,2.7c-1.1,2.2-1.7,3.5-1.9,3.9
		c-0.5,1.6-0.3,3.2,0.6,4.6c-0.1,0.5-0.4,1-1,1.4c-0.7,0.5-1,0.9-1.2,1.2c2,0.3,3.4-0.3,4.2-1.8c-2.1-5.1-1-8.8,3.4-11
		C108.2,92.5,108.5,90.7,109.6,88z M111.2,64.3c-0.9-2.1-1.8-3.5-2.6-4.3c-1.4-1.2-3.2-1.8-5.4-1.7c0.5-1,1.7-1.5,3.4-1.3
		c1.4,0.2,2.7,0.6,3.8,1.3c-0.1,0.3-0.5-0.5-1.3-2.5c-1.4-0.1-2.7,0-3.9,0.4c1.2-1.6,2.4-2.3,3.8-2.1c1.2,0.1,2.2,0.8,3.1,2.1
		c0.9,1.3,1.3,2.7,1.2,4.1C113.3,62,112.6,63.3,111.2,64.3z M108.7,98.7c1.4-2.2,2.1-3.6,2.3-4.1c0.7-2,0.4-3.5-1.1-4.4
		c-0.1,0.7-0.4,2.3-1.1,4.7c-0.8,2.8-1.4,4.9-1.8,6.3c-1,5.4-0.1,8.4,2.8,8.9c0.3-1,0-1.9-0.9-2.5c-0.9-0.7-1.3-1.4-1.2-2.1
		C108.8,102.9,109,100.6,108.7,98.7z M110,103.8c0.1,0.5,0.5,1.4,1.2,2.8c0.5,1.2,0.8,2.1,1,2.8c0.4,2.1-0.5,3.6-2.5,4.5
		c1,0.5,2.4,0.1,4.2-1.3C114,109.1,112.7,106.1,110,103.8z M119.7,84.6c-5.3-0.3-8.6-0.3-9.8,0c0,1,0.4,1.8,1.1,2.3
		c1.5,1.3,2.1,1.8,2,1.5l0.3-0.9c0.2-0.3,0.5-0.5,1-0.4v2.1c0.7,0,1.2-0.4,1.6-1.1c0.5-1.2,0.8-1.8,1-1.9c0.2,0,0.3,0.2,0.4,0.6
		c0.1,0.4,0.2,0.6,0.4,0.7c0.2-0.3,0.6-0.8,1.2-1.5c0.5-0.5,0.8-0.8,0.8-0.8S119.6,85.1,119.7,84.6z M125.7,55.8
		c-2.1,0.1-3.3,0.2-3.7,0.3c-1.6,0.4-2.3,1.3-2.2,2.6c0.3,0.1,1-0.2,2.2-1c1.2-0.8,2.5-1,3.7-0.7c-3.6,2.2-5.5,4.8-5.6,7.6
		c-0.3,0-1.5,0.1-3.6,0.2c-1.8,0.1-3.1,0.1-4-0.2c1.6-1.7,2.2-3.9,2.1-6.6c-0.3-3-1.7-4.6-4.1-4.8c0.7-0.5,1.5-0.6,2.4-0.1
		c0.3,0.1,0.7,0.4,1.2,0.7c0.5,0.4,0.8,0.6,1,0.7c0.5-0.1,1.1-0.4,1.9-0.8c0.9-0.5,1.5-0.8,1.9-1c1.6-0.6,3-0.6,4.4,0.1
		c-2.6,0.1-4.6,0.9-5.9,2.4c-1.6,1.7-1.9,3.8-1,6.4c0.8-5.2,3.4-7.7,7.7-7.6C124.6,54.6,125.2,55.2,125.7,55.8z M113.4,93.1
		c-2.5,7.5-1.8,12.4,2.1,14.8c0.3-1.7,0-3.4-1-5.1c-1-2-1.6-3.1-1.6-3.4c1.2,0.6,2.1,1.4,2.9,2.5c0.7-3.7,0.8-5.4,0.4-5.1
		c1.1,0.7,2.1,2.1,3,4.3c1.6-2.1,1.5-4.1-0.5-6c-0.4-0.4-1.3-1.1-2.7-2.1c-1.2-0.8-2-1.6-2.3-2.1c-0.1,0.6,0.1,1.1,0.4,1.6
		c0.3,0.6,0.5,1.1,0.5,1.5c-0.2-0.1-0.4-0.2-0.7-0.4C113.8,93.3,113.6,93.2,113.4,93.1z M116.3,116.1c0.8-0.5,1-1.4,0.8-2.6
		c-0.3-1.2-0.8-1.9-1.6-2.1C114.5,114.1,114.7,115.7,116.3,116.1z M116.8,129.6c8.7,0.4,14.3-1,16.9-4.3c-0.9,0.1-3.2,0.9-6.9,2.5
		c-2.8,1.2-5.1,1.4-7,0.5c2.5-2.9,3.2-4.6,2.1-5.2c-0.2,1-0.9,1.9-2.2,2.6c-1.6,0.9-2.5,1.6-2.8,2.1V129.6z M119.3,111.4
		c-0.7-1.7-0.2-3.7,1.3-6c1.6-2.3,2.1-4.2,1.7-5.5c-0.2,0.6-0.7,1.5-1.6,2.6c-1.1,1.5-1.8,2.5-2.1,2.9
		C117.2,108,117.4,109.9,119.3,111.4z M121.4,93.1c-0.3,0-0.8-0.3-1.6-1c-0.7-0.5-1.1-0.6-1.4-0.3c3.6,3.7,6.5,7.5,8.9,11.4
		c-0.1,0.7-0.8-1.7-2.1-7.1c2.3-0.7,3.3-0.2,2.9,1.3c-0.5-1-1.9-2.4-4.2-4.2c-2.1-1.5-3.1-2.5-3-3c-0.1,0.4,0,0.8,0.3,1.4
		C121.5,92.1,121.5,92.6,121.4,93.1z M126.1,105.4c0.1-0.1-0.8,1.2-2.6,3.8c-1.2,1.6-1.6,3-1.2,4.3c1.2-1,2.3-2.3,3.2-3.8
		C126.6,107.8,126.8,106.4,126.1,105.4z M123.1,81.3c-1.2,3.1-1.1,5.8,0.3,8.2c1.3,2.1,3.3,3.6,6.1,4.5c-0.1-0.8-1-1.7-2.5-2.6
		c-1.4-0.9-1.9-1.7-1.7-2.4c3.6,0.1,5.1,0.3,4.6,0.8C126.9,88.5,124.6,85.7,123.1,81.3z M123.5,64.7c2.1-0.3,3.6,0.3,4.5,1.9
		c0.8,1.4,0.9,3.1,0.2,5c1.2-0.5,1.6-1.8,1.4-3.9c-0.3-2.1-0.8-3.3-1.8-3.7c0.1-0.1-0.8-0.1-2.6-0.1
		C124.2,63.8,123.7,64.1,123.5,64.7z M129.1,59.6c-1-1.2-2.3-1.2-3.8-0.2c-1.6,1-1.9,2.2-0.9,3.6C124.2,60.6,125.7,59.5,129.1,59.6z
		 M140.5,116.5c-1-0.3-1.3-0.9-1-1.8c0-0.1,0.2-0.6,0.5-1.3c0.3-0.5,0.4-0.8,0.5-1.2c-3.2-0.1-5.5,0.4-6.8,1.7
		c0.4,0,1.4-0.2,2.9-0.6c1.2-0.3,2.1-0.3,2.6,0.2c-0.9,0.6-3,1.7-6.3,3.4c-2.6,1.4-4.6,2.6-6,3.7c1.4-0.3,3.2-0.9,5.2-2
		c2.3-1.2,4-1.9,5-2.2c-1.2,1.4-3.2,2.8-5.9,4.3c-3.5,1.9-5.6,3.1-6.4,3.7C129.8,125.2,135,122.5,140.5,116.5z M131.6,87.2
		c1.5-1.5,1.5-3.5,0.1-6.2c-1.4-2.4-2.8-3.6-4.4-3.6c1.6,2.1,2.1,3.4,1.8,3.9c-0.3-0.1-0.9-0.4-1.9-1.1c-0.7-0.5-1.2-0.6-1.6-0.2
		c0.3,0.6,1.6,1.5,3.7,2.8C131,83.9,131.8,85.3,131.6,87.2z M129.1,102.5c0.1,0.4-0.1,0.7-0.5,1.1c-0.4,0.3-0.5,0.6-0.4,1
		c0.8,2.9,1.1,4.6,0.9,5.1c0.9-0.3,1.2-1.5,1-3.4C130.1,106.4,129.8,105.2,129.1,102.5z M139.6,111.4c-1.5-2.6-3.5-5-6-7.2
		c-0.2,0.9-1.3,4-3.3,9.4C134.9,112,138,111.3,139.6,111.4z M131.6,69.8c-0.7,2.1-0.7,4.2,0,6.2c0.6,1.9,1.6,3.4,2.9,4.4
		c0.7-1,1-2.4,0.9-4.3c-0.6-0.2-0.9,0-0.9,0.7c0.1,0.7-0.1,1.1-0.4,1.1c-1-0.5-1.7-1.8-1.9-3.9C132.1,71.5,131.8,70.1,131.6,69.8z
		 M131.6,94.9c0.1,0.7,0.1,1.7-0.1,3.1c-0.3,1.2-0.2,2,0.1,2.3c1.4-1,2.3-2.4,2.5-4.2c0.3-1.9-0.3-3.5-1.8-4.7c1,2.7,1,4.7,0,6
		C132.4,96.1,132.2,95.3,131.6,94.9z M147.8,111c-0.2,2.3-1.8,3.6-4.7,3.8c0,1.2,0.7,1.8,2.1,1.8c1.5,0.1,2.4,0.3,2.6,0.8
		c-1,0.7-2,1-3,0.8c0.1,1.8,1,2.5,2.9,2c2.3-0.7,3.5-1,3.4-1.1c0,0.5-0.4,1-1.1,1.4c-0.7,0.5-1,1-1,1.6c2.7,1.3,5.1,0.2,7.2-3.3
		c0.2,1.6,0.5,2.6,0.8,2.9c0.7-1,0.7-2.5,0-4.7c-0.7-2-1.3-3.1-2.1-3.3c0.4,0.3,0.6,1.1,0.5,2.2c-0.1,1.3-0.4,2-1,2
		c0.2-0.7,0.1-1.2-0.2-1.6c-0.3-0.3-0.6-0.2-1.1,0.3c-0.1-1.2-0.4-2.1-0.9-2.5c-0.1,0.1-0.4,0.3-0.7,0.8c-0.3,0.3-0.6,0.5-1,0.5
		v-3.8C150.4,111.1,149.4,111,147.8,111z"/>
</g>
</svg>
