<?xml version="1.0" encoding="utf-8"?>
<!-- Generator: Adobe Illustrator 21.1.0, SVG Export Plug-In . SVG Version: 6.00 Build 0)  -->
<svg version="1.1" id="Layer_1" xmlns="http://www.w3.org/2000/svg" xmlns:xlink="http://www.w3.org/1999/xlink" x="0px" y="0px"
	 viewBox="0 0 1024 1024" style="enable-background:new 0 0 1024 1024;" xml:space="preserve">
<style type="text/css">
	.st0{fill:#010101;}
	.st1{fill:#FEFEFE;}
	.st2{fill:#FFFFFF;}
</style>
<path d="M735.3,117.5c12,10.8,15.2,28,14,43.4c-0.8,16.6-6.6,32.2-11.6,47.8c-3.5,10.2-6.8,20.4-10.5,30.4
	c-4.8-7.1-6.5-15.8-6.1-24.3c0.4-12.3,4.1-24.2,8.3-35.7c5.1-14.5,9.3-29.7,9-45.2C738.3,128.4,737,122.8,735.3,117.5z"/>
<path d="M715.9,128.5c3.4,2.1,3.7,6.4,4.5,9.9c1.9,14.2-1.4,28.4-4.9,42c-3.7,12.7-7.4,25.9-5.7,39.3c0.6,5.5,2.9,10.6,6.1,15
	c-9.4-2.8-19.7-7.1-24.3-16.3c-4.3-9.1-1.6-19.5,1.2-28.6C699.5,169,714.6,150.9,715.9,128.5z"/>
<path d="M770.5,147.5c7.3,6.3,14.1,13.2,20.9,20.1c12.2,12.4,20,29.8,18.9,47.4c-0.6,7-2.3,14.6-7.6,19.7
	c-4.9,4.7-12.1,6.1-18.7,5.8c-9-0.5-18.1-2.8-25.7-7.8c7.7-1.9,15-6.5,18.8-13.6c6.1-11.2,6-24.6,4.6-37
	C780.3,169.9,776,158.3,770.5,147.5z"/>
<path d="M685.8,148c2.3,8.5,1.2,17.3,0.4,25.9c-1.2,13.8-5.3,27.6-2.5,41.5c0.9,4.9,3.2,9.5,6.4,13.3c-4.7,0.4-9.5,0.3-14.2-0.8
	c0.2,2.6,0.8,5.7-2,7.2c-7.2,12.3-27.5,13.4-36.1,1.9c-2.9-3.7-3.7-8.4-3.8-13c0-20,14.1-37.2,12-57.5c4.2,7.7,8.5,15.5,12.7,23.2
	C665.9,174.6,681.8,164.9,685.8,148z"/>
<path d="M760.4,159.6c7.2,3.7,13.4,10.1,14.7,18.4c1.8,12.1-3,23.9-8.8,34.3c-6.1,11.1-16.7,20.5-29.7,21.9
	C746.6,210.1,757.1,185.7,760.4,159.6z"/>
<path d="M804.2,160.7c9-0.4,17.1,4.6,23.4,10.7c4.3,4.1,8.2,8.7,11.7,13.5c-5.4,8.2-13.6,13.9-19.1,22
	C814.8,191.5,808.9,176.3,804.2,160.7z"/>
<path class="st0" d="M624.4,182.4c3.2-2.6,7.2-3.8,11.2-4.5c-3.3,9.1-7.4,17.9-11,26.8c2.7,4.1,5.3,8.1,7.9,12.3
	c-4.8,0.5-10.3,0.9-14.5-2.1c-3.8-2.9-4.8-8.1-3.9-12.6C615.5,194.9,618.4,187.2,624.4,182.4z"/>
<path class="st0" d="M824.7,209.6c6.8-8.5,15.7-15.9,26.6-18.3c8.5-2,17.5,0.1,25.3,3.7c-13.6,3.2-23.9,13.4-33.2,23.2
	c-10.1,10.7-23.6,19.3-38.8,19.3C810.9,228,817.5,218.6,824.7,209.6z"/>
<path d="M859.8,221.5c11.9-3,23.3-8,35.5-9.9c7.5-1,16.4-0.8,22.1,5c3.6,3.4,3.1,8.8,3.4,13.3c-0.1,14.5-1.5,28.9-3.1,43.3
	c-11.9-2.5-19.1-13.5-24.4-23.5c-4.2-8.9-9-18.1-17.6-23.5C871,223.1,865.3,222.1,859.8,221.5z"/>
<path d="M577,222c3.8-4.6,10.5-4.9,15.9-4c11.3,1.9,21.1,8.2,32.1,10.9c-16.7,7.8-36,8.2-52.1,17.5C571.2,238.1,571.5,228.8,577,222
	z"/>
<path class="st0" d="M832,238c8.3-4.2,17.5-8,27-7.1c10.5,1.5,18.4,9.9,23.5,18.7c3.2,5.8,7,11.4,10.8,16.9
	c-12.1-3.8-19.8-15.7-32.5-18.1c-7.5-1.2-15.1,1-22.5,2.1c-8.3,1.3-16.6,4.6-25,2.5c-3.8-0.9-6.8-3.7-8.8-6.9
	C814.1,246,823.4,242.3,832,238z"/>
<path class="st0" d="M678.2,244.3c13.3-5.1,28.5-4.9,41.7,0.3c-0.7,9-3.8,17.6-5.7,26.4c-1.1,4.7,0.2,9.5,1.7,14
	c-4.7,0-9.5-2.3-11-7.1c-2.9-8.6-2.1-18-5-26.7c-12.8-2.4-26.4,1-36.6,9c-7.6,6-14.5,12.9-22,18.9C647,262.4,662,250.3,678.2,244.3z
	"/>
<path class="st0" d="M724.7,244.6c21.3-4.9,44.3-3.2,64,6.7c6.9,3,12,8.7,18.4,12.6c5.2,3.2,10.4,7.7,16.9,7.2
	c3.5-0.2,5.4-3.4,7-6.1c6.9,18.9,21.1,34.6,25.1,54.6c4.8,21.4-7.6,41.3-7.9,62.4c-4.2-17.9,3.2-35.9,0.3-53.9
	c-1.6-10.3-6.7-19.6-12.7-28c-10.3-14-23.4-25.9-38.4-34.6c-15.6-9.1-34.2-13.5-52.1-10.3c-7.8,1.6-13.9,7.6-17.6,14.4
	c-2.2,4-2.5,8.5-2.9,12.9c-4.9-3.4-5.5-9.8-4.2-15.2C722.5,260,725,252.5,724.7,244.6z"/>
<path d="M589.3,253.2c13-4,25.8-10.4,39.7-10c8.3-0.1,16.5,2.9,23,8.1c-12.3,2.8-24.5,5.9-36.7,9.3c-19.3,5.2-40.4,7.3-59.5,0.4
	C567.4,260.6,578.4,256.6,589.3,253.2z"/>
<path d="M631.8,262.6c4.3-1,8.4-2.8,12.6-3.8c-1.8,5.5-6.4,9.4-11,12.7c-13.2,9.1-28.8,13.5-44,18c-12.2,3.9-24.6,9-33.6,18.3
	c-3.5,3.4-5.7,7.8-7.7,12.1c-1.3-9.5-0.4-19.7,5-27.9c6.5-10.1,18-15.6,29.2-18.8C598.5,268.7,615.5,267,631.8,262.6z"/>
<path class="st0" d="M837.1,259.7c20.7,10.6,41.6,21.1,62.5,31.3c-15.6-2-32-2.8-46.1-10.5C845.3,276.3,838.8,268.8,837.1,259.7z"/>
<path class="st0" d="M651.9,284.3c4-2.4,9.3-3.7,13.1-0.3c6,5.3,11.4,12,19.6,14c-5.7,2.1-12-0.2-16-4.5
	C664.2,288.7,658.6,284.5,651.9,284.3z"/>
<path d="M592.6,305.6c10.4-10.1,23.4-18,37.8-20.6c-11.3,11-19.2,24.9-27.1,38.4c-9.6,16.7-18.1,33.9-26.8,51.1
	c-8.4,15.8-19.2,30.7-33.8,41.3c-11.9,8.7-26.3,13.8-41,14.6c12.9-6.7,22.5-18,30.9-29.6c11.2-15.7,20.3-32.9,28.8-50.2
	C569.6,334.1,579.5,318.4,592.6,305.6z"/>
<path class="st0" d="M785.7,287.7c4.9-3.6,11.2-3.5,16.7-1.2c-4.6,1.4-9.4,2.7-13.2,5.8c-5.9,4.7-11.1,10.8-18.4,13.3
	C774.1,298.4,779.4,292.2,785.7,287.7z"/>
<path class="st0" d="M900.7,291.4c10.9,1.6,21.9,3.8,32.2,7.8c4.3,1.9,9.2,3.9,11.5,8.3c-4.4,0.8-8.5-1-12.5-2.4
	C921.2,301,910.8,296.4,900.7,291.4z"/>
<path class="st0" d="M711.7,294.7c4-2.2,9.5-2.3,13.4,0.1c3,1.9,3.3,5.6,3.3,8.8c-7.1-1-14.3-2.1-21.5-0.9
	C707.8,299.7,708.8,296.3,711.7,294.7z"/>
<path d="M615.2,324.2c5.7-10,11.4-19.9,16.5-30.1c-0.9,8.3-4.8,15.9-6.6,24c10.8-2.5,20.5-9.6,31.9-8.9c5.8,0.2,10.1,5,11.4,10.4
	c-1.7-1-3.3-2.2-4.8-3.5c-0.8,3.3-3.3,5.4-6.7,5.9c-0.2,0.2-0.7,0.6-0.9,0.8c1.8,1.1,4.7,0.6,5.7,3.2c-4.2-0.4-8.3-1.7-12.2-3.3
	c1.4-0.4,5.3,0.9,5.1-1.4c-2.9-1-4.5-3.5-5.3-6.3c-1.7,0.9-3.3,1.8-5,2.8c1.4,1.6,2.8,3.1,4.3,4.6c-7.9-0.1-15.8-0.5-23.7-0.1
	c-5.9,13.5-10.2,27.9-11,42.6c16.2-11.1,32.1-22.5,48.2-33.7c-2.5,10-12,15.2-18.2,22.6c6.2,0.5,12.7,0.3,18.3,3.4
	c-9.3,5.3-20.4,6.4-29.6,11.8c-3.5,1.9-6.2,4.9-8.2,8.3c12.8,2,25.7-0.5,38.5-0.5c5.7,0.1,11.3,1.3,16.4,4
	c-4.4,0.8-8.8,1.4-13.1,2.7c-9.9,2.9-19,8-28.8,11.2c-4.9,1.8-10.1,2.8-15.2,3.9c-3.4,4.9-1.5,12,2.6,16c13.5-4.1,25.5-13.1,40-13.1
	c-13.8,6.2-22.4,19.2-33.6,28.8c2.2,3.9,5.3,7.1,8.4,10.2c9.1-5,19.1-7.8,29-10.6c10.8-2.7,21.8-5.5,31-11.9
	c2.3-11.7-3.1-23.2-9.9-32.5c-6.7-9.8-16.7-17.1-22.1-27.9c-3.8-8.1-1.1-17.6,3.5-24.8c1.7,3.8,3.2,7.8,4.1,12
	c8.2-2.8,16.8-5.7,25.6-4.8c3.5,0.3,6.6,2.3,9,4.8c9.5-6.2,21.7-5.8,32.3-2.9c4.3,1.1,8.2,3.4,12,5.7c5.2-1.7,7.6-7.2,9.9-11.7
	c1.5,8.3,0.7,17.4-4,24.6c-3.6,6-9.8,9.7-15.3,13.7c-10.3,7.2-22,13-29.7,23.3c-3,4.2-5.4,10.2-2.5,15.1c3.4,5.4,9.4,8.4,15,11
	c18.7,8.3,40.4,10.1,56.9,22.9c3.4-6.9,6.8-13.8,10.9-20.3c-5.5-4.6-10.8-9.5-16.1-14.3c-5.4-5.2-12.7-7.7-20-8.3
	c5.9-2.4,12.6-2.2,18.6-0.1c7.6,2.7,15.6,5.9,23.9,4.6c2-4,4.2-8,6.3-12c-16.1,0-32.2,0-48.3-0.7c-4.6-0.3-9.3-0.5-13.8-1.6
	c1.1-3.6,3.4-6.9,6.9-8.5c14.4-7.2,31.6-2,46-9.1c4-1.9,6.9-5.6,7.9-10c-13.8-2.6-28.2-3.9-42.1-1c5.1-10.2,18.1-8.3,26.7-13.4
	c-6.6-7.8-18.3-10.5-22.3-20.6c9.8,4.9,19.5,10.4,29,15.9c13,7.4,22.9,20.7,25.1,35.7c1.7,12.6-1.2,25.4-5.7,37.3
	c-3.8,10.4-9.6,19.9-13.8,30.2c-4.7,11.4-8.8,23.5-8.8,36.1c11.1-16,24-30.5,36.6-45.4c13.3-14.9,24.4-32.6,28.4-52.5
	c2.6-12.3,1.8-25-0.8-37.2c6.9,20,6.5,42.1-0.2,62.1c-2.5,8.7-7.2,16.5-11.5,24.4c-8.7,15.6-17.6,31-26.6,46.4
	c-17.6,30.8-31.9,65.1-31.1,101.2c0.8,15.7,1.5,31.4,3,47c3.9-0.7,7.7-1.5,11.5-2.8c-1-7.8-3.5-15.3-5.4-23
	c5.9,3.6,10.6,8.8,14.7,14.3c1.5,1.9,3.1,4,5.5,4.8c1.5-0.1,3-0.3,4.4-0.7c-8.2-15.6-18-31-21.3-48.6c-0.8-8.7,0.1-18.6,6.4-25.3
	c4.9,13.8,13.2,26.1,22.7,37.2c6.6,8,13.3,16,19.1,24.6c2.8-1.3,5.6-2.6,8.3-3.9c-7.7-11.8-17.2-22.3-25.8-33.5
	c-11.9-16.2-18.8-36.6-16.3-56.8c1.2-11.3,5.5-22.1,12-31.4c2.7,14.2,8,27.7,15.3,40.2c7.5,13.4,17.5,25.2,26.2,37.8
	c7.6,11,15.2,22,20.7,34.2c5.3-1.7,10.8-2.3,16.4-2.2c-4.5-13.2-13.3-24.4-21.7-35.2c-9.6-12.4-21.1-23.2-29.6-36.4
	c-8.2-12.5-14.3-26.9-14.5-42.1c-0.4-13.3,3.3-27,11.5-37.7c2.2,20.5,11.8,39.4,23.7,56.1c6.7,9.8,14.9,18.5,22.2,27.8
	c15.6,19.9,27.8,43.7,28.9,69.3c5.1,2.5,10.3,5.1,15.3,7.7c1.2-12.7-0.5-25.6-5-37.5c-6-16.5-16.1-31.1-27.7-44.2
	C899,511.9,886.9,500,875.9,487c-10.4-13.9-15.4-31.8-13.6-49c1.6-8.1,3.6-16.1,5.2-24.2c0,16.3,5.3,33,16.6,45.1
	c18.6,19.5,44.9,29.1,63.6,48.4c9.7,10.1,15.4,23.5,16.8,37.4c2.5,23-4,46.6-17.5,65.3c2.1,3,4.6,5.6,6.6,8.7
	c-7.8-5.1-16.2-9.7-25.3-12.1c-12.6-3.2-26.3-4.1-38.8,0c-24.2,7.5-45.8,21-69.6,29.5c-15.1,5-31,8.2-45,15.8
	c-9.5,8.5-18.9,17.2-28.4,25.6c-11.1,10.3-23.7,19.4-38.4,23.6c-11.2,3-22.5,5.8-33.3,9.7c-7.3,2.6-13.5,7.9-17.4,14.5
	c-3.6,6-5.1,13-5.4,20c6.9-0.4,13.3-3.2,19.4-6.4c-5.4,5.9-12.3,10.1-18.9,14.5c-7.1,4.8-15.3,8.4-20.7,15.3
	c-4.7,5.5-7.1,12.7-7.1,19.9c5.4-2.7,10.3-7.1,16.6-7.6c3.3-0.4,6.3,1.2,8.9,3.1c-1,9.7-9.5,15.9-17,20.8c6.2,4.1,14.1,6.1,21.2,3.4
	c10.6-3.9,17-13.6,25-21c6.5-6,12.5-13,20.8-16.6c-1.8,4.9-5.3,8.9-8.7,12.7c-6.7,7.3-14,14-21.4,20.6c-6.1,5.6-11.6,12.6-13,21.1
	c-1.2,6.6,0.8,13.4,3.9,19.2c4-2.4,7.5-5.4,11.4-7.9c2.8-1.7,6.2-1.3,9.2-0.7c1.1,2.6,1.8,5.6,0.1,8.2c-2.8,4.2-7.5,6.5-10.6,10.4
	c3,3.7,7.6,5.6,12.1,6.6c3.3,0.1,6-2.2,8.3-4.4c5.8-6,9.8-13.3,13.7-20.6c-4.3-6-9.4-11.5-13.7-17.5c7,0.6,12,8.1,19.4,6.7
	c6.8-2.4,10.4-9.1,13.9-14.9c-2.4,13.7-7.8,27.1-16.5,38.1c-5.5,7.1-12.3,13.1-19.5,18.4c2.4,3.9,5.1,7.5,7.8,11.2
	c5.8-3.7,11.7-9.8,19.3-7.6c1.4,4.6,0,9.3-1.5,13.7c4.5,0.4,9.4,0.3,13.4-2.2c7.8-4.7,12-13.2,15.3-21.3c-6.8-2.9-14-5.3-19.9-9.9
	c8,0.7,16,1.1,23.8,3c7.3-11.8,8.3-26,9.5-39.5c4.9,11.6,3.8,25-0.7,36.6c-5.9,10.9-11.8,21.9-16.9,33.2c2.1,0.8,4.5,1.8,6.6,0.5
	c6.1-3.4,9.8-11.5,17.5-11.8c2.3,3,4.4,6.1,6.7,9c8.8-3.2,12.1-13,15.2-21.1c6-19.5,10.9-39.4,16.9-58.9
	c4.5-11.8,10.2-23.7,19.9-32.1c5.5-4.9,12.9-7.5,20.3-6.9c-2.8,4-6.7,7.6-7.3,12.7c-1.8,9.9,4.4,19.5,12.5,24.7
	c14.4,9.6,29.4,19.5,46.8,22.4c15.5,2.7,32.2-1.1,44.4-11.2c11.7-9.5,18.6-23.6,23.7-37.5c7.5-21.2,10.7-43.5,14-65.7
	c2.2-16,4-32,5.2-48.1c1-12.8,2.1-25.5,1.3-38.3c-1.3-22.7-6.6-45-13-66.8c10.8,22.7,19.5,46.8,21.3,72.1
	c1.1,13.7-1.7,27.3-2.3,40.9c-1.7,24.7-2.3,49.6-6.7,74c-3.8,21.8-9.5,43.7-20.9,62.9c-8.3,14-20.8,26.3-36.5,31.5
	c-23.1,7.6-49.3,2.2-68.8-11.8c-14-9.4-25.2-22.4-39.4-31.5c-7.4,10.1-10.6,22.4-13.8,34.2c-3.6,14.9-6.4,30.1-11.3,44.6
	c-2.7,7.4-5.3,15.4-10.7,21.3c-6.8,6.1-16.6,5.9-25.1,6.8c-9.7,2.8-18.5,7.8-27.6,12c3.2-5,6.2-10,9.2-15.2
	c-9.6-5.3-21.1-5.7-31.7-3.7c-9.2,1.5-17.9,5-26.6,8.2c1.7-6.8,8.8-9.7,12.2-15.3c-1.6-6.4-7.5-10.2-13.2-12.4
	c-6.1-2.5-12.4-4.9-17.7-8.9c-7.4,4.1-13.3,10.6-21.4,13.4c4.3-7.7,9.4-14.9,14.2-22.3c-4.8-10.5-9.8-21.3-10.6-32.9
	c-6.7-3.7-13.8-6.8-20-11.4c-6.6,0.9-11.1,6.7-17.4,8.4c2.1-9,11.7-13.6,13.7-22.6c3.7-14-0.1-28.4-4.9-41.6
	c-3.3-8.4-8.3-17.1-16.8-21.2c-10.6-5-23.8-4.2-33.6,2.3c-12.5,8.1-25.1,16-36.8,25.2c-3.2,2.6-6.7,5.2-8.4,9.1
	c-21.2-4.4-42.7-7.8-63-15.6c-23.9-9.2-46.2-22.2-67-37.2c-14.4-12.3-28.7-24.6-43.2-36.8c-13.8-11.9-28.2-23.4-44.8-31.2
	c-10.2-4.8-21.8-7.6-33.1-5.4c-13,2.5-25.2,8.6-38.6,9.4c-9,0.4-17.1-4.6-26-5.1c-13.9-0.3-27.2,5.1-41.1,4.4
	c-4.5-0.1-8.7-2-12.8-3.6c-0.2-1.3-0.4-2.7-0.6-4c-4.1,0.8-7.7,3.1-11.8,3.8c-7.6,1.4-15.2,3.1-22.8,4.3
	c-18-3.1-27.1-22.8-44.9-26.3c-4.4,3.3-9.2,6-14,8.6c-0.9-6.4-1.8-13.3,1.1-19.3c1.1-2.4,3.3-4.2,5.4-5.7
	c-5.7-6.7-5.9-16.1-10.8-23.2c-2.2-3.4-6.8-4.4-10.3-2.7c-4.6,1.8-6.2,6.8-8,10.9c-0.1-7.9,0.5-16.7,6.1-22.9
	c4.2-4.8,10.7-6.3,16.8-6.8c0.2-5.2-2.3-9.9-3.9-14.7c-7.8,1.1-13.9,6.4-20,10.9c1.3-10.1,6.4-19.8,14.9-25.7
	c3.9-3.1,8.7-4.6,13.1-6.8c7.4-12.2,20.1-20,33.2-24.8c9.3-3.5,18.9-5.7,28.7-7.4c12.5-2.3,24.8-6.3,37.5-7.3
	c11.4,2.5,22.7,5.4,34,8c8.6,2.4,17.8,0.3,26.4,3c9.3,4.1,15.8,12.3,24.7,17.1c5.3,2.1,11.1,2.7,16.7,3.5c17.7,2.1,35.6,3,53.4,3.9
	c13.2,0.7,26.3,4,37.8,10.7c10.2,6.1,19.2,14.1,30.2,18.8c16.9,6.5,35.2,6.2,52.9,9c9.4,1.4,18.7,3,28.1,3.8
	c6.2,0.5,13-1.8,16.5-7.2c4.6-10,8.9-20.1,14.3-29.7c8.1-14,18.1-26.9,29.8-38.1c-10.2,19-20.6,37.9-28.9,57.9
	c-3,7.6-6.1,15.3-7.3,23.5c-0.5,5.5-0.2,11.3,2.5,16.2c3.3,4.3,9,6.6,10.8,12c2,6.8,2.6,13.8,3.6,20.8c1.5,13.7,3.1,27.4,3.7,41.1
	c-6.2-14.8-9.1-30.7-15.7-45.3c-2.6-5.5-5.6-10.8-9.9-15.1c-3.9-3.5-8.4-6.2-12.6-9.4c-4.3-3.4-6.6-8.6-7.5-13.9
	c-13.9-2.1-27.9-3.6-41.9-5.6c-18.9-2.2-37.9-5.6-55.1-14c-8.9-4.1-16.4-10.5-24.9-15.1c-10.8-6.1-22.6-11.9-35.3-11.5
	c-16.7-1-33.4,1.7-50.1,0c-8.5-0.7-16-4.9-23.4-8.7c-8-4-15.2-9.5-23.7-12.4c-8.3-3-17.6-3.8-26.2-1.5c1.6,2.5,5,4.7,3.9,8.1
	c-0.4,4.4-5.5,4.9-8.9,5.4c1.8,8.7,9.5,15,17.9,17c9.5,2,19.2,2.4,28.8,3.9c-7.7,5.2-17.5,6.6-26.6,4.9c-8.4-1.4-17-4.7-22.5-11.5
	c-2.5-2.9-3.7-6.6-4.7-10.2c-3.7,1-7.4,1.9-11.2,2.4c5.2-10.4,13.8-18.6,21.3-27.4c-15.2-1.7-30.8-2.6-45.9,0.6
	c-8.3,1.8-16.7,5.2-22,12.1c-4.9,6.2-6,14.4-5.3,22c8-7.5,19.8-6.7,29.8-4.5c7.8,1.9,16.5,3.7,22.1,10c4,4.9,1.4,11.7-2.1,16
	c-5,6.9-14.4,8.7-22.4,7.4c-11.1-1.7-22.2-5.7-31.1-12.7c-5.9-4.6-9.5-11.6-9.5-19.1c-4.7,1.5-9.4,3-14,4.6
	c4.7-8.9,11.1-16.8,16.8-25.2c-6.9,4.5-13.8,9.2-20.1,14.7c-7.6,7-11.1,17.6-9.8,27.8c3.7-1.1,7.1-3.2,10.9-3.8
	c10.2-1.7,21,0.5,30,5.7c3.7,2.2,7.3,5.2,8.7,9.4c1.6,4.7,0,10.8-4.9,12.8c-6.7,2.7-14.2,1.4-21.1,0.2c-8.7-1.9-17.9-4.1-24.9-10.1
	c-0.6,3.3-1.1,6.6-1.8,9.9c14.9,6.2,31.3,13.7,39.1,28.8c-5.1,6.8-14.5,5.3-21.9,5.2c4.1,11.7,16,17.9,27.1,21.5
	c8.4,2.8,17.9,1.9,25.5-2.6c-6-6.2-10.3-14.3-11.1-23c-1.5-8.7,1.8-17.8,8.1-24c10.5-11,26.1-15.4,41-15.3c6.9,0,14.5,0.6,20.2,5.1
	c2.9,2.2,4.4,5.7,4.5,9.3c1,12.6-6.2,24.2-4.7,36.8c0.3,3.7,2,7.2,4.2,10.1c11.2,0.3,22.1,3.2,33,5.7c7.1,1.5,14.8,1,21.1-2.7
	c-6.6-1.7-13.5-2.2-20.2-3.4c-3.6-0.7-7.7-2.3-9.2-5.9c-0.8-5.2,0-11.2,4.1-14.8c5.4-4.7,13.1-5.5,19.9-4.2c5.6,1.1,11.4,2.6,16,6.2
	c3.1,2.6,5.8,6.6,5,10.8c-0.7,3.1-3.2,5.2-5.4,7.2c16.3-1.8,33.2,1,47.8,8.5c16.3,8.2,29.4,21.2,42.5,33.6c14.3,14,30.4,25.9,47,37
	c33.6,22.2,71.5,38,111.1,45.7c7.4,1,15.3,2.9,22.5-0.2c9-5.1,12.9-15.2,19.2-22.9c6-8.4,15.5-14,25.7-15.5
	c7.8-1.2,15.7,0.1,23.3,2.1c-5-15.7-5.1-32.7-0.9-48.6c4.5-17,12.9-32.7,23.1-46.9c-3.4,8.5-8.1,16.4-10.8,25.2
	c-4.8,14.4-5.7,30.9,0.9,44.9c7.7,15.4,19.4,28.1,29.3,42c4.4-10,8.8-20.3,16.3-28.5c-2.3-1.5-4.7-3.1-7.6-3.1
	c-5.6-0.2-10.6,2.9-15.2,5.7c0.7-5.8,4.7-10.5,5.1-16.4c-7.2,0-13.4,4.2-20.5,4.9c5.6-13,4.3-27.4,5.4-41.1
	c1.8-15.4,8.3-29.7,15.5-43.1c6.4-12.6,12-26,12.2-40.4c0.4-17.3-2.6-34.5-6.4-51.3c-4.4-19-10-37.7-16.7-56.1
	c-3.1-8.3-6.5-16.5-11-24.1c0-3.3,0.8-6.5,0.8-9.7c-1.4,0.6-2.8,1.4-4.2,2.2c-2-2.9-3.1-6.4-2.1-10c-1.8-1.1-4.3-1.8-4.8-4.2
	c-3.3-10.1-6.7-20.3-9.2-30.7c-3.5-14.5-0.9-29.8,4.6-43.4C605.2,340.7,610.4,332.6,615.2,324.2z"/>
<path d="M851,294.6c10.6,0,21.5,2,30.6,7.7c10.1,6.2,17.2,16.2,22.3,26.7c10,19.9,15.2,41.6,24.1,61.9c4.8,11.3,10.9,22.5,20.8,30.2
	c8.9,7.3,20.3,10.7,31.6,11.5c-15.1,3.7-31.8,3.8-46-3.1c-16.9-8.1-28.7-24-36.5-40.6c-6-19.9-11.9-39.9-18.2-59.7
	C874.8,314.9,866.1,300.1,851,294.6z"/>
<path class="st0" d="M744.3,296.9c6.1,8.5,11.9,17.2,18.3,25.5c-6.4-3.2-13.3-6.5-17.3-12.7C742.8,305.9,743.2,301.1,744.3,296.9z"
	/>
<path class="st0" d="M894.9,296.9c13.3,0.5,26.5,5.8,36,15.2c12.5,12.4,19.2,29.4,23.4,46.3c-8.6-12.5-20.7-22-32.7-31.1
	C911,318.9,900.6,309.4,894.9,296.9z"/>
<path class="st0" d="M685.3,308.3c4-2.6,8.4-4.9,13-6.4c-0.6,4.4-4.1,7.5-7.7,9.6c-5.7,3.3-11.1,7.1-15.7,11.8
	C675.2,316.7,680,311.6,685.3,308.3z"/>
<path class="st0" d="M551.6,324.6c6-9.4,14.4-18.2,25.6-21.1c-4,8.3-8,16.6-11.4,25.2c-4.1,9.8-9,19.9-17.8,26.2
	c-6.8,5.1-15.5,6.7-23.8,6.7C536.5,352,543.6,337.7,551.6,324.6z"/>
<path class="st0" d="M783.9,318.9c4.5-4.5,11-5.9,17.1-6.3c13.9-0.7,28,2.4,40.4,8.8c-8.6,2.1-17.2,4-25.7,6.1
	c-3.5,0.7-6,3.6-9.3,4.9c-5.1,1.9-10.4,3.4-15.9,3.4c6.7-4.3,14.9-5.4,22.5-7.4c0.8-1.5,1.6-3,2.3-4.5c-2.3-0.9-4.6-1.5-6.9-2.2
	c-2,5.4-7.2,9.9-13.2,8.7c-2.5-1.5-3.2-4.6-4.6-7c-4.5,1.3-7.9,4.6-11.8,6.9C779.3,326.1,780.7,321.9,783.9,318.9z"/>
<path class="st0" d="M763.6,322.9c1.1-0.8,3.1,0.8,2.6,2.1C765,325.8,762.9,324.2,763.6,322.9z"/>
<path class="st0" d="M915,333c10.5,13.6,21.8,26.8,34.7,38.2c11.5,10.2,24.6,19,39.4,23.5c-9.1,4.9-20,7.5-30.2,4.3
	c-12-3.7-20.9-13.4-27.9-23.3C922.4,363.1,917.4,348.2,915,333z"/>
<path d="M871,335.9c7.6,18.3,14.1,37.1,21.6,55.5c6.4,15.1,13.3,30.3,24.2,42.8c9.3,10.9,21.5,19.4,35.1,23.9
	c12.3,4.3,25.4,5.1,38.3,4.6c-1.2,2.8-3,5.4-5.5,7.2c-7.5,5.9-16.5,10.2-25.8,12.2c12.5,12.2,21.1,28.8,20.8,46.5
	c-13-18.4-27.5-36.8-47.4-47.9c-6-3.2-11.9-6.4-18-9.2c-0.2-7.3-2.7-14.2-4.5-21.1C898.3,411.6,884.2,373.9,871,335.9z"/>
<path class="st1" d="M679.4,349c4.6-1.3,9.8-1.2,13.9,1.7c6.8,4.8,10.4,12.5,14.5,19.5c5.3-5.9,10.4-12,16.3-17.3
	c6.6-5.6,16.2-7.1,24.1-3.5c-6.4,2.2-12.8,4.4-18.5,8c-9.3,5.6-16.8,13.9-21.8,23.5C703.8,366.6,691,357.3,679.4,349z"/>
<path d="M540.1,436.2c16.7-14.1,29.7-32.4,38.2-52.5c0.4,17.3-2.3,35.3-11.4,50.3c-7.6,12.6-19.6,22.7-33.6,27.3
	c-12.5,4.2-26,4.7-39,2.9C510.8,456.8,526.6,448,540.1,436.2z"/>
<path d="M557.9,461.9c11.1-13.9,21-28.9,27.1-45.7c2.6,20.5-0.2,41.6-7.9,60.8c-5.1,12.7-12.2,24.6-20.5,35.5
	c-11.3,15.5-22.5,31.2-32.2,47.8c-4.3,7.3-8.2,14.8-10.9,22.8c-7.4-11-7.6-25-4.9-37.5c2.9-13.1,7.3-26.1,14.6-37.5
	C533.4,491.7,545.7,476.8,557.9,461.9z"/>
<path class="st1" d="M681.3,440.3c13.3-7.1,29.1-6.4,43.3-3.1c6,1.5,13,3.3,16.1,9.2c2.2,5.2-1.2,10.5-4.2,14.6
	c-0.7-3.2-1-6.4-1.9-9.5c-2.5,0.7-4.1,2.9-6,4.5c-0.4-2.1-0.1-4.4-1.5-6.2c-3.8-2.4-8.7-1.2-12.2,1.2c-1.1-2.1-2-4.2-3.1-6.2
	c-3.1,0.9-4.6,3.7-5.8,6.5c-1.6-2.9-4.4-5.4-7.9-4.8c-2.8,0.3-3.5,3.4-4.7,5.5c-1.6-1.6-2.7-5-5.5-4.3c-2.4,1.7-3.4,4.6-5.1,6.8
	C681.3,449.9,680.8,445.1,681.3,440.3z"/>
<path d="M596.8,438.8c5.2,3.9,7.7,10.3,10.1,16.1c6.1,17.6,6.1,37.3,0.3,55c-5.7,17.7-15.6,33.7-26.8,48.4
	c-8.6,10.8-17.1,21.8-24.3,33.6c-9.3,15.1-17.2,31.6-18.9,49.5c-2.6-7.7-4.9-15.6-6.2-23.6c-2.5-18.5,0.3-37.4,7.1-54.7
	c5.8-15.2,14.4-29.1,24-42.2c12.4-17.5,23.7-36.1,30.1-56.7C594.9,456.1,595.6,447.4,596.8,438.8z"/>
<path class="st2" d="M657.9,446.8c2.6-2.6,6.4-3.3,9.8-3.9c-0.1,11.8-1,23.6-2.6,35.3c-0.8,6.4-1.5,12.7-1.6,19.1
	c-5.6-11-9.6-22.9-10.2-35.2C653,456.7,653.7,450.6,657.9,446.8z"/>
<path class="st1" d="M755.5,451.5c2.6-2.9,6.5-3.6,10.1-4.1c1.9,7.2,0.9,14.8-0.3,22c-2,10.8-5.1,21.4-8.5,31.8
	c-1.6-10.7-4-21.4-5.2-32.2C751,463,751.1,456.1,755.5,451.5z"/>
<path class="st2" d="M720.5,507.5c2.5-4.7,6.1-8.9,10.7-11.7c12.7,11.3,18.3,28.6,18.6,45.2c0.3,12-0.5,25.1-7.6,35.2
	c-5.3,7.7-14.8,11.4-23.9,11.8c-0.3,1.2-0.7,2.3-1,3.5c-10.9,0.6-22.6,0.3-32.1-5.7c-7.8-4.8-12.2-13.6-13.4-22.4
	c-1.8-14.1,0.5-28.5,5.9-41.6c3-7.3,5.9-14.8,11-21c2.6-3.5,7.7-4.5,11.7-3.2c4.6,2.1,5.3,7.8,5.4,12.3c0,11.4-2.3,22.8-0.8,34.1
	c0.3,2.3,1.2,4.5,2.3,6.5C710.7,535.9,713.2,520.7,720.5,507.5z"/>
<path d="M622.1,504.8c0.3-1.6,0.7-3.1,1.3-4.6c6.2,15,8,32.1,3.4,47.8c-5.1,17.7-16.1,32.9-28.5,46.2
	c-10.4,10.7-20.4,21.9-28.4,34.5c-7.1,10.9-12.5,23.2-14.3,36.2c-4.6-13.2-5.5-27.8-1.7-41.4c5.1-19.2,16.2-36.1,28.4-51.5
	c11-13.2,21.6-26.9,30-42C616.5,522.2,620.3,513.8,622.1,504.8z"/>
<path class="st1" d="M766,603.9c5-24.8,2.2-50.5,7.4-75.3c1.9,20.8,3.3,41.6,3.3,62.4c0.1,11.6-1.3,23.6-6.6,34.1
	c-3.2,6.2-8.6,11.6-15.5,13.4c-6.3,1.8-12.8,0.7-19-0.7c6.8-1.2,13.6-3.6,18.5-8.7C760.8,622.3,764.1,613,766,603.9z"/>
<path d="M626.6,575.5c7.1-11,11.6-23.5,14.9-36.1c3.2,17.7,1.1,36.6-7.3,52.7c-13.3,24.6-34.8,43.5-47.8,68.3
	c-8.1,16.2-9.5,34.8-7.5,52.6c-8.6-15.1-12.1-33.1-9.5-50.4c2.9-16.8,11.8-31.8,22.3-44.9C603.3,603.6,614.8,589.5,626.6,575.5z"/>
<path class="st1" d="M661,575.8c6.5,5.5,12.7,11.4,18.9,17.3c6,5.9,8.1,14.9,5.7,22.9c-8.8,0.6-17.1-5.4-19.7-13.7
	C663.3,593.6,662.2,584.7,661,575.8z"/>
<path class="st1" d="M737.3,599.4c4.3-4.5,8.8-8.9,12.7-13.8c0.5,8.1,0.1,16.5-3.7,23.8c-3.1,6.2-8.7,10.7-15,13.2
	C729,614.4,731.7,605.5,737.3,599.4z"/>
<path class="st2" d="M146,589.8c13.8-4.2,29.2-4,42.6,1.7c-1.4,3.8-4.6,6.5-8.5,7.5c-8.9,2.5-18.3,1-27.4,0.3
	c2.6,4.9,8.2,6.1,13.2,6.6c6.1,1.1,12.3,0.7,18.4-0.5c0.7,5.6-0.4,12.1-5.2,15.7c-4.6,3.1-9.9,5-14.6,7.8c5.9,4.9,13.6,0.1,19.5-2.5
	c0.8,4.6,2.7,8.8,4,13.3c-11.2,3.7-23.6,2.7-34.3-2.1c-7.5-3.3-14.8-7.8-19.6-14.5c-4.1-5.9-5.6-13.7-3.5-20.6
	C132.8,595.6,139.6,591.8,146,589.8z"/>
<path class="st1" d="M696,601.8c3.8,0.3,7.5,1.6,10.3,4.2c0.8-1.3,1.5-2.7,2.3-4c3.4,1.7,7.2,2.8,11,1.5c-0.9,3.3-1.7,6.7-2.8,10
	c-6.1,0.9-12.1-0.5-18.2-0.5C697.1,609.5,696,605.8,696,601.8z"/>
<path class="st2" d="M633.4,645.1c0.8-6.9,3.7-14,9.3-18.3c2.9,5.8,1.5,12.9,4.7,18.6c0.8,1.7,3,1.3,4.5,1.7
	c22.1,2.6,43.7-6.7,65.8-4.5c13.3,2.2,25.5,9.7,39.3,9.6c-14.8,17.4-32.3,34.4-55,40.3c-1.1-2.8-2.2-5.6-3.7-8.2
	c-2,2.6-3.2,5.6-5.1,8.2c-2-3.5-4.3-6.7-6.8-9.8c-9.4,3.2-7.9,16.5-17.2,20c-3.2-6.1-4-13.2-8-18.9c-4,2.9-5.2,9-10.8,9.7
	c-0.6-7.6-0.8-15.3-0.9-22.9c-4.8,2.1-7.2,7.4-12.2,8.9C634.3,668.3,632.1,656.7,633.4,645.1z"/>
</svg>
