<?xml version="1.0" encoding="utf-8"?>
<!-- Generator: Adobe Illustrator 21.1.0, SVG Export Plug-In . SVG Version: 6.00 Build 0)  -->
<svg version="1.1" id="Layer_1" xmlns="http://www.w3.org/2000/svg" xmlns:xlink="http://www.w3.org/1999/xlink" x="0px" y="0px"
	 viewBox="0 0 900 900" style="enable-background:new 0 0 900 900;" xml:space="preserve">
<style type="text/css">
	.st0{fill:#FFFFFF;}
</style>
<path d="M224.2,226.7c13.2-2,26.4-4.2,39.8-5.3c2.2,7.4,4.8,14.7,8.1,21.7c2.6-7.1,5-14.3,7.3-21.6c13.4,0.9,26.8,2.6,39.7,6.4
	c-2.4,4.9-3.2,10.7-2.3,16.1c4-3.2,6.1-8.2,10.1-11.2c4.2-3.2,9.6-1.4,14.1-0.1c11.7,3.8,22.8,9.2,33.8,14.7
	c-6.1,7.4-12.6,14.7-16.3,23.7c7.4-0.4,14.7-1.6,22.1-1.2c-0.2,16.3,0.5,32.9-2.1,49c-4.1,3.3-9.6,4.9-12.6,9.5
	c4.5,0.9,9.1,1.1,13.5,2.4c0.5,8.8-0.7,17.6-1.7,26.3c-0.5,4.4-0.2,8.8,0.8,13.1c53.1,3.6,106-4.8,159-4.4c4.1-6.1,11.4-9.3,18.5-10
	c15.7-1.6,31.3,2.4,47,3.2c18.3,1.5,36.7,3,55,4.8c19,1.6,38,4,57.1,5.2c6.3,1,11.2-5.1,11.4-11c0.7-5.3-0.9-13-7.2-14
	c-8.6-1.5-17.4-1.5-26.1-1.7c-61,0-122,0-183,0c-12.7,0-25.4,0.3-38.1,0.8c-16.7-0.1-33.8,0.6-50-3.9c-7.7-2.1-15.2-5.5-21-11
	c-9.8-9.7-15.9-23.3-15.5-37.2c0.4-13.5,5-26.9,12.7-37.9c8.1-11.6,21.8-18.9,35.9-19.4c87,0,174,0,261,0c15,1,30.2,6.6,40.6,17.8
	c9.5,10,14.6,23.4,17.2,36.7c-4.2-3.8-8.6-7.4-12.9-11.2c-6.6-6.2-15.5-9.7-24.5-10c2.5,4.8,6.5,8.6,10.7,11.9
	c8.2,6.4,17.5,11.1,26.8,15.7c-13.4,0.7-27.1-1.1-39.3-7.1c-11.5-5.9-21.7-14.4-33.7-19.4c5,10.9,13.6,20.2,24.6,25.1
	c-5.8,0.4-11.8,0.4-17.5-1.2c-17.4-4.2-29.9-18.5-46.7-24.2c4.4,12.5,14.9,23,28,26c-12.3,2.7-25.5,0.9-36.5-5.4
	c-11.2-6.6-22-13.8-33.4-20c4.6,13.8,19.5,19,30.4,26.7c-20,0.9-41-0.5-59.2-9.9c-12.2-6.2-20.1-18.8-32.8-24.2
	c-25.3-0.5-50.6,0.4-75.9-0.8c-11.4-0.2-23.4-0.4-34.1,4.3c-5.2,2.2-9,6.7-11.3,11.8c-7.3,15,3.2,35,19.3,38.5
	c3.6,1,7.4,0.8,11.1,0.8c90,0,180,0,270,0c8.7-0.4,17.5,2.5,24.2,8c15.2,13.5,19.7,38.9,7.2,55.6c-4.9,7.7-13.6,12-22.3,14.1
	c-15.4,3.9-31.4,2.4-47.1,3.5c-9.3,0.1-18.7-0.3-27.9,1c11.2,22.6,22.3,45.2,33.6,67.8c10-1.3,19.6-4.4,28.9-8.2
	c9.6-3.6,18.7-10.5,29.5-8.6c11,2.6,20.2,10.1,27.2,18.8c5.1,6.5,9.3,13.8,12.6,21.4c-5.5-1.2-11-2.4-16.7-2
	c4.9,4.7,10.2,9,15.4,13.3c6,5,12.5,9.5,17,15.9c3.5,4.7,5.6,10.3,6.5,16c-6.4-4-13.1-8.3-20.8-9.3c5.1,7.7,10.3,15.3,15.8,22.8
	c4.3,4.2,8.8,8.3,12.1,13.5c-0.3,0.5-0.8,1.5-1,2c3,3.4,5.2,7.8,9.4,10c0.2,0.3,0.6,1,0.8,1.4c-5.4-4.2-12.1-6.2-18.3-9
	c7.9,13.5,21.6,23.2,27,38.2c2.1,5.1,2.3,10.7,2.1,16.2c-5.3-4.5-10.8-9-17.1-12.1c5.5,11.2,9.8,23.2,10.3,35.7
	c0,5.8-1.4,12.3-6.4,15.9c-4.8,3.6-11.1,3.5-16.8,3.4c-6.7,0-13.4-0.6-20-0.3c-2.4,5.7-3,12-3.8,18.2c-6-5.8-9.5-13.6-12.6-21.2
	c-4.3,2.9-9.8,1.9-14.3,4.2c-2.7,4.8-1.7,10.9-4.5,15.7c-4-5.8-7.4-11.9-11-18c-4.2,0.2-8.3,0.5-12.5,0.4c-1,5.2-1.9,10.5-3.1,15.8
	c-8.8-6.4-11.5-17.9-11.2-28.2c0.8-8.4,2.5-17.8,9.4-23.4c5.5-4.5,13.2-4.4,19.6-1.9c-1.1-29.8-8.5-59.5-23.1-85.6
	c-9.5,6.6-18.9,13.2-28.5,19.6c-10.3,6.6-25.2,7.2-34.5-1.5c-18.6-15.7-36.3-32.6-55.3-48c-1.3,8.8,1,18,5.9,25.4
	c5.6,8.6,13.3,15.5,19.9,23.4c7.4,8.9,14.9,17.8,21.5,27.3c4.1,5.5,4.4,13.1,2,19.4c-3.2,7.9-8.5,15.3-16.3,19
	c2.5-6.9,2.2-15.3-3.1-20.9c-6.2,7.8-10.1,17-14.4,25.9c-4,9-11.1,17.6-21.3,19.6c1.7-5.8,3-11.8,2.9-17.9
	c-8.7,5.6-15.1,13.9-23.5,19.9c-6.6,4.5-13.4,8.8-20.7,12.1c-2.7,1.2-5.5,2.3-8.4,2.1c-19,0-38,0-57.1,0c-9.8-0.4-19.7-0.1-29.3-2
	c-4.2-1-7.4-6-12.1-4.3c-4,1.8-7.1,5-11.2,6.6c0.4-2.2,1-4.4,1.6-6.6c-5,1.2-8.5,5.3-13.4,6.5c3.4-11.1,9.2-23.8,21.4-27.2
	c4-9,14.1-12.8,23.2-14c14.5-3,28.8,4.7,43.3,1.6c7.4-2.4,12.3-9.1,17.1-14.8c9.5-12.1,18.3-25,23.5-39.5
	c-24.6-20.3-47.4-42.7-69.1-66.2c-3.7,2.7-7.4,5.4-11.2,7.9c4.7,2.1,9.6,3.8,14.5,5.4c-6.8,6.3-16.2,10.6-25.6,8.6
	c-8.5-0.1-18.8-3.6-25.6,3.2c1.7,4.1,4.5,7.5,8.2,9.9c4.2,2.6,8.3,5.5,12.8,7.6c-20.2,0.6-40.6-0.8-60.2-6.2
	c-9.3-2.3-18.1-6.5-27.6-8.3c1.1,6.5,6.3,11.2,7.9,17.5c2.2,8.5,1.4,17.5-0.4,26c-5.8-4.9-8.8-13.1-16.3-15.6
	c-3.4,9.2-7,18.4-10.2,27.7c-1.5,4.2-1.4,9-3.9,12.8c-1.7,2.7-2,6.1-2.9,9.1c0.3,0.9,0.6,1.9,0.8,2.9c-2.7-5-1.5-13.3-7.9-15.8
	c-7.6,11.3-10.9,25-19.2,35.8c-2.7,3.6-6,7-10.4,8.4c1.4-8.2,0.9-17-1.9-24.8c-4.3,3-7.2,7.6-10.5,11.7c-8.4,11-16,23.5-28.4,30.4
	c-12.6,7.2-27.7,8-41.7,5.9c-1.5,5.3-2.4,10.8-3.4,16.3c-5.6-5.3-8.6-12.5-12.1-19.2c-3.9,2-8.1,2.6-12.4,2.7
	c-1.1,5.3-2.1,10.7-3.2,16c-4.3-5.4-7.6-11.5-11-17.5c-3.5,0.9-7.1,1-10.7,1c-1.8,4.4-2.2,9.2-3.4,13.8c-6.9-3.6-8.8-12-9.8-19
	c-1-6.6,0.3-13.5,2.6-19.7c2.2-5.8,7.4-11,13.9-11.4c3.7-0.4,7.3,1.1,10.7,2.5c7.2-5.5,17.7-5.7,25.6-1.7c6-4.5,13.4-8.4,16.5-15.6
	c8.5-17.5,17.8-34.5,25.9-52.2c4.6-9.9,9-20,13.8-29.8c-2.2-2.6-4.1-5.3-5.8-8.2c-6.6,5.5-16,9.9-17.3,19.4
	c0.4,4.7,4.4,7.8,6.6,11.7c-6.7,1-13.6-0.2-19.8-2.8c-7.8-3.3-15.4-7.3-23.8-9.1c0.5,6.8,5.1,12.2,6.2,18.8
	c-10.5-0.3-19.1-7.1-26.3-14c-5.3-4.6-10.2-9.8-16.3-13.4c-15.9-7.6-33.8-9.3-50.4-15.1c-0.9,2.9-1.8,5.7-2.5,8.7
	c5.1,1.3,10.6,2.9,14.1,7.2c3.5,4.2,4.2,9.9,3.8,15.2c5.2,6.1,13.6,7.9,21.3,8.4c-5.4,5.5-12.7,8.6-20.1,10.4c1.3,1,2.6,2,4,3
	c-4.7,0.7-9.4,1.7-14.2,2.1c-5.2-0.5-10-3-14.3-5.8c-2.9-1.7-5.9-3.8-9.5-3.4c-5.4,0.8-9.9-3-13-7c-5-6.7-7.6-14.8-9.6-22.9
	c-1.8-7.4-3.7-14.7-5.4-22.1c-0.6-5-0.1-10-0.2-15c-0.2-7.2,1.7-14.9,7.1-19.9c5.8-5.4,14-6.7,21.5-7.8c19.5-2.6,39.1-3.8,58.6-6.5
	c19.1-2.7,38.4-5.2,56.6-11.9c-1.9-3.8-5.1-7.4-4.9-11.9c0.3-4.8,1.7-9.6,1.1-14.4c-2.4,5-3.9,10.4-6,15.6
	c-10.7-11.4-20.6-23.9-26.9-38.3c3.3-6.9,7.3-13.4,11-20c-5.5,1.2-9.9,5.2-15.3,6.6c-4.7-18.6-7.8-37.7-7.1-56.9
	c4.5-1,9.1-0.8,13.7-0.9c-2.8-5.3-9.4-6.6-13.4-10.7c-1-16.2-2.2-32.5-0.9-48.8c7.3,0.7,14.6,1.6,21.9,1.9
	c-3.6-9.6-11.3-16.6-16.7-25c14.1-7.3,29.1-13.6,45-15.6c5.1,2.8,7.3,8.9,12.5,11.5C227.8,236.6,224.4,231.9,224.2,226.7z"/>
<path class="st0" d="M253.3,227.5c2-0.3,4.1-0.7,6.1-1.1c6.1,13.9,9.3,28.9,11.8,43.8c3.9-14.3,7.2-28.8,11.9-43c2,0,4,0,6,0
	c-2,11.8-3.6,23.6-3.8,35.5c3.7-11.5,5.5-23.6,9.9-34.9c5.3,1.2,10.7,2.5,16.2,3.3c0.1,10.2,1,20.5,0,30.8
	c4.6-5.7,8.2-12.2,12.4-18.3c3.2-4.5,8.8-7.4,14.4-6.3c-5.4,8.9-11.1,17.7-14.8,27.5c7.4-8,13-17.5,21-24.9c2.4,0.4,4.6,1.1,6.9,1.6
	c-3.9,8.5-7.3,17.3-8.6,26.6c4.8-7.9,9.5-15.8,14.2-23.8c3.3,0.8,6.2,2.7,9.2,4.2c-6.8,8.4-13,17.6-16,28.1
	c-5.6-3.7-12.7-4.1-19.1-2.9c-3.8,0.7-7.2,2.9-9.6,5.8c-5.1-0.6-10.1-1.6-15.2-1.8c-0.6-12.1,0.4-24.2,1.5-36.3
	c-3.9,11.3-5.9,23.1-8,34.9c-6.5-0.5-13-1.5-19.5-0.8c-3.2,0.3-5.8,2.4-7.5,4.9c-7.5-6.7-18.6-5-27.8-4.1
	c-1.5-11.8-5.1-23.1-7.3-34.7c-0.7,10.4,1.7,20.8,1.3,31.3c-0.3,1.3,0.7,3.8-1.1,4.2c-4.8,0.8-9.5,2.7-14.4,2.3
	c-5.2-1.1-8.6-6.4-14.2-6.7c-5.1,0.6-10,2.3-15,3.5c-3.6-10.5-10.2-19.6-16.2-28.9c2.7-1.1,5.4-2.3,8.1-3.5
	c6.3,7.1,11.2,15.4,14.8,24.2c0.4-9.4-3.9-18.1-8.3-26.2c1.9-1.4,4.1-2.6,6.5-1.6c3.8,1.4,6.4,4.7,8.8,7.7c4.4,5.7,8.6,11.5,13.2,17
	c-4.5-9.7-10-18.8-15-28.2c5.6-0.5,11.1,2.3,14.2,6.8c4.2,6.2,8,12.7,12.3,18.9c-0.9-10.5-0.1-21-1.2-31.5
	c5.4-1.1,10.7-2.1,16.1-3.1c4.1,10.9,6.6,22.4,9.1,33.7C256.9,250.3,255,238.9,253.3,227.5z"/>
<path class="st0" d="M408.2,249.2c9.9-7.3,22.7-9.4,34.7-10.2c81.7-0.1,163.4,0,245.1,0c15.8-0.7,32.1,5.3,43.1,16.9
	c4.3,4.3,7.8,9.3,10.6,14.6c-11.1-8.3-25.5-10-38.9-8.9c6.4,8.5,13.6,16.4,21.4,23.6c-16.5-4.8-28.9-18.4-45.5-23
	c-6.3-1.9-12.9-2.5-19.5-2.2c11.2,4.9,18.7,15.2,25.2,25.1c-10.7-5.7-21-12.2-31.8-17.8c-9.8-5.1-21.1-6.7-32.1-5.8
	c12.3,4,19.9,15.6,24.6,27c-17.1-5-28.5-20.5-45.6-25.4c-2.6-0.8-5.2-1.3-7.9-1.6c0,6.9,2.3,13.8,6.9,19c3.1,3.7,7.1,6.3,11.1,8.9
	c-15.1,0.4-30.2-4-42.7-12.5c-9.7-7-17.5-17-29-21.1c-33.3-0.3-66.7,0-100.1-0.2c-10.4-0.3-20.8,5.6-25.5,15
	c-6.8,13.6-4,31.4,6.8,42.1c5.2,5.2,12.4,8.3,19.8,8.5c93,0,186,0,279,0c17.8,0.3,32.8,17.4,31.9,34.9c-0.3,9.9-4.4,20.3-12.8,26.1
	c-8.6,6.3-19.6,7.6-30,8.4c-15,0.7-30-0.2-45,0.8c-6,0-12.3,0.5-18-1.8c16.3-2.1,32.7-0.7,49-1c12.6,0.2,26-0.1,37.4-6.1
	c6.5-3.4,11.4-9.8,12.7-17.1c-5.8,6.5-12.1,13-20.3,16.3c-8.7,2.7-17.9,2-26.9,2.7c-11.7-0.6-23.3-0.5-35-1.4
	c-11.7-0.1-23.5-0.8-35.2,0.6c10.9,3.6,18.3,13.2,23.1,23.1c6,11.3,10.4,23.4,16.3,34.7c4.8,9.2,9,18.8,14.4,27.7
	c3.9,6.6,12.5,8.7,19.6,6.8c-3.5-2.7-8.8-1.8-11.6-5.5c16.6-2,31.7-9.6,47-15.7c4.3-2.7,9.6-0.3,13.6,1.9c9.9,6,15.5,16.5,23.6,24.5
	c-5.2,0.6-10.4,1.7-15,4.3c7,16,27.5,19.1,35.7,34.2c-5.8-2-12.2-1.5-18,0.2c3.7,9.6,11.7,16.6,19.8,22.7
	c6.4,4.4,9.6,11.7,14.5,17.5c-5.1-1.3-10.1-3.6-15.5-3.4c3.9,19.5,23.8,29.7,30.6,47.8c-7.2-2.6-14.2-5.6-21.6-7.4
	c5.7,13,11.4,26.2,15.6,39.8c2.7,7.8-2.2,17.8-10.8,18.7c-8.1,0.4-16.2,0.2-24.3,0.1c1.1-3.5,3.5-6.3,5.5-9.3
	c2.8-3.9,1-10.3-3.8-11.8c-4.4-1.3-9.5-1.6-13.8,0.2c-2.9,1.2-4.2,4.2-5.5,6.8c-0.4-3.9-0.5-8.1,1.7-11.5c5.6-9.2,20-10.1,27.5-2.8
	c3,2.9,4,7.2,4.2,11.2c1.5-4.2,2.3-9.2-0.4-13c-2.8-4.9-8.3-7.4-13.6-8.5c-6.5-1.1-14.2,0-18,5.9c-6.6-4.9-16.6-6.1-23.7-1.7
	c-2.2-24.4-6.9-48.8-16.9-71.3c-1.8-4.8-5.6-8.7-6.6-13.8c-0.5-2.4,1.7-3.9,3.2-5.3c11.4,18.1,16.1,39.3,19.5,60.1
	c1.8-21.6-5.4-42.8-14.2-62.2c4.2-4.2,9.7-6.8,15.3-8.6c-8.6,0.2-16.4,4.3-24,8.1c-13.6,7-25.5,16.7-38.7,24.5
	c-7.2,4.5-17.2,4.7-24.2-0.2c-26.7-22.5-52.3-46.4-78.3-69.7c-9.5-8.5-17.5-19-28.7-25.5c-8.1-4.8-18.1-4.2-26.9-2.1
	c-13.7,3.7-25.6,12.1-35.9,21.7c13.4-9.8,29.6-15.8,46.2-16.9c9.7-0.7,20.4,3.2,24.6,12.6c-24.1,5.6-47.7,13.4-71,21.6
	c-7,2.5-14.1,4.9-20.6,8.5c-2.2,1.4-5.2,3.1-5,6.1c-0.4,4.2,3.7,6.6,6.1,9.3c-6.3,1.1-12.7,0.7-19.1,0.7c-6.3-0.1-13.1-1-18.8,2.2
	c-2.5,1.4-3.7,4.1-4.3,6.8c0.6,5.1,4.4,8.8,7.3,12.7c-12.8-1.9-25.6-3.6-38.3-5.9c-10.3-2.7-21-6.9-28-15.3
	c33.4,1.2,67.3-8.2,94.4-28c-29.5,12.9-61.2,23.8-93.9,22.4c2.9-19.9,4.8-40.4,1.7-60.4c-2.8,27.1-5.1,54.3-11.4,80.8
	c5.3,8,11,16.8,10.7,26.8c-4.9-1.8-7.5-7.7-13.1-8c-3.7,0.8-5.5,4.5-6.5,7.8c-2.3,7.5-2.3,15.5-3.5,23.2c-0.6,5-2.6,9.7-4.1,14.5
	c-2-2.7-3.7-6.1-7.2-7c-3.7-0.8-6.6,2.1-8.6,4.8c-7.2,10-10.8,22-16.6,32.7c-0.9-4.8-1.8-9.7-3-14.5c-0.7-3-3.4-5.8-6.7-5.5
	c-5.1,1.1-8.2,5.7-11.2,9.5c-5.3,8-11,15.7-17.1,23.1c-3.6,4.3-7.1,9.1-12.2,11.7c-3.6,1.8-7.5,3.1-11.5,3.3
	c-8.4-0.1-16.8,0-25.2-0.1c1-3.9,4.4-6.6,5.2-10.6c0.5-3.2-1.4-6.5-4.4-7.8c-4.1-1.6-9.1-1.9-13,0.4c-2,1.2-2.7,3.5-3.5,5.6
	c-1.4-5.2,0.3-11.2,5.1-14c6.8-4.2,17.5-3.4,22,3.8c1.7,2.3,1.8,5.2,2.4,7.8c1.2-3.8,1.6-8.2-0.7-11.6c-2.8-4.7-7.7-7.6-12.9-8.8
	c18-34.2,35.7-68.8,49.6-105c2.8-7.7,5.5-15.4,7.5-23.3c-3.9,5.5-4.7,12.5-7.8,18.4c-1.3,2.3-3.4,4.7-6.2,4.5
	c-2.4,0-4.3-1.6-5.9-3.1c-4.5-4.3-7.1-10.2-10.3-15.4c-6.4-10.9-13.2-21.9-17.2-34c4.8,3.8,10.1,6.9,15.6,9.6
	c-0.2-8.1-0.7-16.3-0.8-24.4c7.9,12.1,16.2,24,25.2,35.4c11.7-9.4,19.8-22.4,26.7-35.5c1.8,8,1.4,16.4-0.1,24.4
	c15.3-6,27.3-18,38.2-30c0.1-6.6-0.1-13.2-1-19.8c2.9,4.5,5,9.5,6.2,14.7c11.6-10.1,19.5-23.6,27.6-36.6c-3-7.5-7.2-14.5-12-21.1
	c5.4,1.1,10.1,4.2,14.8,7.1c1.8-4.1,2.8-8.5,3.7-12.9c4.4,7.5,8.9,14.9,13,22.6c-1-3.5,0.1-7.1,0.7-10.6c21.1-1.8,42-4.9,63-6.8
	c-15.7,0-31.5-0.4-47.2,0.9c-5,0.9-10.2,1.5-15.3,0.9c-2.9-0.4-5-2.6-6-5.2c33.3,0,66.5-1.9,99.8-3.7c26.6-1.3,53.3-2.5,79.9-0.9
	c0.6-0.1,1.8-0.2,2.4-0.2c-6.4-1.8-12.6-4-18.9-6.1c7.3-6.5,18-5.9,27-4.6c38.7,3.7,77.3,7.9,116,11.9c11.2,0.8,22.9,2.6,33.8-1.2
	c5.2-1.6,9.1-6.4,9.5-11.9c0.2-4.6,0.6-9.7-2.3-13.7c-3.3-4.4-8-8.2-13.6-9.1c-11.4-1.2-22.9-1.4-34.4-0.9c-22,0.9-44,0.6-66,0.6
	c-61.4,0-122.7,0-184,0c-11.9-0.6-23.4-6.9-30.1-16.8c-6.2-9.1-9.7-20-10.6-31C390.1,274.1,396.8,258.9,408.2,249.2z"/>
<path d="M449.5,251.4c28.9-1.1,57.7-3.6,86.5-4.6c5.5-0.7,10.1,2.9,14.5,5.6c12.7,8.5,22.5,22,37.9,26c-9.7,1-18.6-4.1-25.9-10
	c-6.2-4.9-12.3-9.9-19.1-13.9c-2.2-1.3-4.6-2.7-7.3-2.6c-25,0-50.1,0-75.1,0C457.2,251.9,453.4,251.7,449.5,251.4z"/>
<path class="st0" d="M168,275.2c5.8-0.3,11.7,0,17.4,1.6c-5.1,0.4-10.2,0.9-15.3,1.4c5,3.1,10.4,5.6,15.7,8.1
	c-2.3,7.1-2,15.3,2.2,21.6c3.4,5.7,9.3,9.3,15.4,11.3c-4.8,25.1-2.3,51,3.7,75.6c7.4-2.1,13.4-8.7,21.6-7.8
	c1.6,5.2,3.4,11.2,8.3,14.3c2.8,1.9,5.6-0.6,7.8-2.3c1.4,5.3,1.5,11.5,5.7,15.5c2.2,2.2,5.3,2.8,8.3,2.8c2,11.7,4.7,23.2,7.4,34.8
	c1.5-11.7-2.8-23.5,0.6-35c2.2,1.6,2.7,4.3,2.8,6.9c0,12.5,1.7,24.8,2.4,37.2c1.6-9.7,2.4-19.4,3.2-29.2c0.4-5-1.5-10.9,2.4-15
	c1.9,5.2,1.1,10.7,1,16.1c-0.4,6.2-0.5,12.4-1.2,18.5c0.1-0.1,0.4-0.3,0.5-0.4c3.5-10.8,5.9-21.9,7.5-33.1c3.6-1.4,7.3-3,9.8-6.1
	c3.1-3.5,3.2-8.4,3-12.9c2.3,1.2,4.5,2.6,6.7,4c4.5-4.5,7.5-10.3,9.6-16.2c8,0,15,4.4,21.5,8.6c7.8-24.5,8.8-50.9,4.4-76.2
	c9-2.9,16.9-10,19-19.4c1.3-4.5,0.3-9.2-0.7-13.7c5.2-2.5,10.1-5.4,15.5-7.6c-7.3-1.8-14,5.6-21.1,1.9c1.2-1,2.5-1.9,4.1-2.2
	c6-1.7,12.2-2.4,18.3-3.3c-0.6,9.4-0.4,18.9-0.8,28.4c-9.2,3.6-17.7,8.8-24.8,15.6c8-2.9,15.8-6.1,23.8-9c0,1.6,0.4,3.5-0.6,4.9
	c-2.9,4.8-8.4,6.9-12.5,10.5c-3.9,3.4-7.9,6.7-11.3,10.6c8.2-1,16.4-1.6,24.7-1.4c-0.2,3.4-0.4,6.8-0.9,10.2
	c-8.1-0.1-16.3,1-24.1,3.2c8.1,1.1,16.4,1.6,24.5,2.9c-0.1,4.5-1.4,8.8-1.8,13.2c-8.7-1.2-17.4-2.6-26.1-2.8
	c8.3,3.5,17.7,4.2,25.2,9.5c-0.8,2.7-1.6,5.4-2.1,8.1c-7.7-3.3-16-5-24.3-5.6c5.8,9.4,15.5,17.2,17,28.7
	c-6.5-4.3-10.5-11.3-16.4-16.2c3.9,6.8,8.8,13,12.9,19.7c1.1,1.1,0.1,2.5-0.5,3.7c-1.5,2.5-3.2,4.8-4.7,7.2
	c-7.2-6.1-14.4-12.2-21.5-18.4c6.2,7.6,13,15,17,24c-1.1,2.2-3,4-4.5,6c-4.6-9.2-11-17.7-19.4-23.8c2.6,10.1,5.6,20.4,5.6,30.9
	c0,5.7-2.2,12.3-8.3,14.1c-2.3-12.2-4.6-24.5-7.5-36.6c-0.1,14.1,2.4,28.2,1.3,42.3c-2.7,3.9-7.3,6-11,8.9
	c0.3-11.7-1.4-23.4-3.1-34.9c-5.2,10.6-10.5,21.3-17,31.1c-3.9,5.7-8,11.5-13.5,15.9c-10.4-15.1-21.1-30.4-27.1-47.8
	c-3.5,11.3-3.3,23.3-3.5,35c-3.8-1.8-6.9-4.5-10.3-6.9c-1.2-14.4-0.3-28.9,1.7-43.2c-4.6,11.5-6.8,23.8-7.9,36.1
	c-5.8-1-8.6-6.8-9.1-12.1c-1-11.2,1.3-22.6,5.8-32.9c-9.2,4.9-16,13.6-19.5,23.3c-1.5-1.7-3.1-3.4-4.5-5.2
	c4.3-9.1,10.8-16.7,17.1-24.5c-7.5,4.9-14,11.2-20,17.7c-0.9,1.7-2.2,0-2.8-0.9c-1.5-2.1-2.7-4.5-4.4-6.4
	c3.6-8.2,9.1-15.2,14.3-22.4c-7.2,3.9-11.1,11.6-17.4,16.5c0.7-11.9,10.6-19.9,17.2-28.9c-8.5-0.4-16.9,1.7-24.6,5.1
	c-0.6-2.7-1.4-5.4-1.7-8.2c7.9-3.3,15.9-6.7,24.4-8.1c-8.7-1.3-17.3,1.1-26,1.8c-0.2-4.4-1-8.7-1.2-13.1c7.9-1.8,16.1-3.4,24.2-2.2
	c-7.9-3.2-16.5-3.6-24.9-3.8c0-3.6,0-7.2,0-10.8c8-0.1,16-0.1,23.8,1.9c-4-5.6-9.1-10.4-14.7-14.4c-4.4-2.7-9.8-5.6-10.3-11.4
	c8.2,2.7,16.3,5.6,24.2,9c-6.2-7.9-15.6-12.4-24.8-15.8C168.8,293.9,167.7,284.6,168,275.2z"/>
<path class="st0" d="M190,289.1c3.6-8,13.7-13,22.1-9.5c5.6,1.1,8.4,6.8,8.1,12.1c3-1,3.6-4.2,4.4-6.8c11.2-0.5,22.1-4.5,33.4-3.9
	c4.3,0.2,8.9,1.9,11.2,5.7c1.5,2.1,1.7,4.8,2.2,7.2c3.8-4.2,4.2-11.1,9.8-13.5c7-1.5,14,0.7,20.8,2.1c5.5,1.3,11.2,2,16.8,2.5
	c1.2,2.2,2.2,4.5,3.7,6.6c2.8-5.1,4.8-12.3,11.4-13.3c12.3-2.4,22.7,11.4,19.4,22.9c-1.4,6.2-7.3,10.2-13.2,11.6
	c-2.5,0.7-4.9-0.3-7-1.5c6.8,24.6,6.5,50.8,0.1,75.4c-1.7-0.8-3.4-1.6-5.1-2.4c1.8-15,3.1-30.3,1.2-45.3c-1.7,14.4-2.5,29-5.8,43.3
	c-2.5-0.5-5-0.9-7.5-0.9c0.8-10.2-1-20.9-6.6-29.6c7.4-6.6,13.8-15.8,13-26.1c-1.6,0.6-3.2,1.3-4.9,2c0-5.5-3.4-10.1-3.6-15.5
	c1.9-0.3,4.1-1.2,6-0.1c3.1,1.7,3.6,5.6,4.4,8.7c3.6-4.6,1.5-11.8-3.8-14.1c-2.4-1.3-5.2-0.2-7.6,0.4c-11.5,4-20.6,12.8-32.1,16.7
	c-2.3,1.3-3.7-1.3-4.4-3.1c-2.3-5.4-3.3-11.2-4.5-16.9c-1.9,5.1-1.8,10.7-3.5,15.9c-0.7,2.3-2.7,5.2-5.5,4.2
	c-12.7-3.4-21.8-14.7-34.8-17.5c-4.3-1.3-9.5,1.2-10.8,5.6c-1.3,2.8-0.2,5.9,0.8,8.7c1.6-3,3.1-6.4,6.2-8.1c1.9-1.1,4.1-0.2,6.1,0.4
	c-1.9,4.9-3.7,9.9-4,15.2c-2.2-0.8-4.4-1.7-6.5-2.6c0.8,6.5,1.7,13.4,5.9,18.7c2,2.9,5.3,4.6,8.3,6.2c-4.2,9.4-8.4,19.7-6.8,30.2
	c-2.1,0.8-4.2,1.4-6.4,1.7c-3.8-14-5.4-28.6-5.3-43c-3.3,14.8-1.2,30,0.5,44.9c-1.5,0.7-3,1.4-4.4,2.3c-8.4-23.8-6.1-49.8-1.1-74
	c-5.3,0.8-11.3,0.1-15.3-3.8C190.3,303.7,187.6,295.9,190,289.1z"/>
<path d="M195.5,296.2c0.8-4.8,3.6-9.9,8.6-11.2c2.9-1,5.9,0,8.6,1c1.5,3.2,2.7,6.7,2.3,10.3c-1.5-1.8-2.4-4.1-4.1-5.6
	c-3.3-0.4-7.4-0.3-9.5,2.7c-1.9,3.2-1.1,7.3,0.5,10.4c1.6,3,5.1,3.8,8.2,4.2c-4.1,0.5-9.1,1.5-12.2-1.9
	C195.1,303.7,195.2,299.6,195.5,296.2z"/>
<path d="M329.9,287.9c2.7-2.5,6.5-4.3,10.2-2.9c7.5,3,10.7,13.2,7.2,20.2c-2.5,4.6-8.4,4.3-12.9,3.7c2.1-0.9,4.6-1.3,6.3-3
	c4.9-4.1,3-14.1-3.7-15.2c-3.4-0.4-5.4,3-7.1,5.4C328.3,293.5,329.3,290.6,329.9,287.9z"/>
<path d="M290.4,304.6c2.7-4.3,4.8-9,6.9-13.6c0.2,2.6,0.6,5.3-0.6,7.8c-1.8,4.4-6.2,6.7-9.9,9.4
	C287.4,306.3,289.5,306.1,290.4,304.6z"/>
<path d="M245.9,291.3c3.4,2.9,7.2,5.4,10.2,8.7c1.8,1.9,1.5,4.8,1.1,7.2C250.6,304.8,245.9,298.4,245.9,291.3z"/>
<path d="M405.4,310.3c2.1,1.8,2.4,5,4.4,6.9c6.5,7.4,16.5,10.1,25.9,11.5c23,2.8,46.2,0,69.3,1c41.7,1.2,83.3,2.4,125,2.4
	c23.9,0.8,47.8,0.6,71.6,1.2c-1.2,0.6-2.4,0.9-3.7,0.8c-83.3,0-166.7,0-250,0c-10.8,0.8-22.1-0.7-31.6-6.3c-5.1-3-8.8-8.1-10.3-13.8
	C405.6,312.8,405.3,311.5,405.4,310.3z"/>
<path class="st0" d="M303.2,320.6c0.9-2.9,4.4-2.8,6.6-1.4C308.9,321.8,304.8,323.2,303.2,320.6z"/>
<path class="st0" d="M235.4,319.5c2.5,0.1,5.4,0.6,6.6,3.2C239.3,324.7,235,323.1,235.4,319.5z"/>
<path class="st0" d="M310.9,323.1c0.5,2,1.6,4.5,0.7,6.4c-4.7,1.4-9.7,1.6-14.6,2C301.6,328.5,307.2,327.2,310.9,323.1z"/>
<path class="st0" d="M232,323.6c4.7,3,9.6,5.7,14.9,7.2c-5,1.3-10.1-0.4-14.9-1.5C232,327.5,232,325.6,232,323.6z"/>
<path class="st0" d="M271.3,326c5,4.4,12.6,3.9,17.8,0.1c-2.1,7.6-3,15.6-4.4,23.4c-8.3-0.8-16.8-1-25.1,0
	c-1.4-8.1-4.6-15.6-6.3-23.6c3.7,1.7,7.4,3.9,11.7,3.5C267.5,329.4,269.5,327.6,271.3,326z"/>
<path class="st0" d="M226.9,334c7.6,2.4,15.8,3.2,23.7,2c2.4,10,3.8,20.1,6,30.2c2.3-0.1,4.7-0.2,7,0c1.4,3.3,1.2,8,5.3,9.3
	c-0.3,3.7-0.7,7.4-1,11.2c-10.2,1.8-19.8,5.7-29.7,8.6c-5.2-6.9-6.9-16-5.4-24.4c1.3-9.9,4.9-20.2,12.8-26.7
	c-3.1,0.7-6.3,1.8-9.5,0.9C231.1,343.9,227.9,338.9,226.9,334z"/>
<path class="st0" d="M293.8,337c7.5,0.2,14.9-1,22.1-3c-0.4,4.5-3.6,8.2-7.2,10.6c-3.4,2.6-7-1.3-10.6-1.3c3,6.6,8,12.2,10.6,19
	c4.7,10.8,2.2,23.6-4.5,33c-9.6-3.7-19.4-7.5-29.7-8.7c0-3.1,0-6.1,0-9.2c3.6-3.2,3.8-8.3,6.2-12.2c2.3,0.7,4.5,1.5,6.5,2.9
	C291.2,358.2,289.5,347,293.8,337z"/>
<path class="st0" d="M264.9,355c6.2-1.8,13.2-1.4,19.3,1c-6.3,4.9-14.9,4.2-21.8,1.3C261.5,355.7,264.1,355.6,264.9,355z"/>
<path d="M557.5,381.4c6.7-1.9,13.7,0.2,19.6,3.6c-10-0.2-21.2,0.9-28.3,8.8c-6.8,6.5-7.4,16.6-6.1,25.4c-3.5-6.3-5.9-13.9-3.3-21
	C542.5,390.2,549.4,383.8,557.5,381.4z"/>
<path class="st0" d="M252.3,398.5c3.8-5.7,11.1-7.5,17.6-7.5c7.1-0.4,14.7,1,20.2,5.8c3.4,2.8,4.1,8.2,1.5,11.8
	c-2.7,3-7,3.3-10.7,3.9c-9.6,0.7-19.2-0.5-28.5-2.9C251.1,406.1,250.1,401.9,252.3,398.5z"/>
<path d="M655.2,451c-6.8-12.8-13.5-25.7-20.3-38.5c6,2.4,11.5,6.4,14.8,12C654.4,432.4,655.4,441.9,655.2,451z"/>
<path d="M476.8,438.9c1.6,8,2.3,16.4-0.2,24.2c-2,6.3-5.3,12.7-11,16.5c-2.7,1.9-5.9,2.8-8.9,4.2c-1.5,0.4-1.7-0.7-0.4-1.2
	c5.1-1.9,8.3-6.6,11-11.1C472.8,461.4,475,450,476.8,438.9z"/>
<path d="M455.9,442.8c3.4,11,3.1,23.4-2.4,33.7c-4.1,8.6-12.2,15.4-21.8,16.5c9.2-4.3,14.9-13.4,18.4-22.6
	C453.4,461.5,455.1,452.1,455.9,442.8z"/>
<path d="M432.8,451c3.9,12.6,2.9,27-4.8,37.9c-4.3,6.6-11.5,11-19.2,12.4c9.3-4.9,15.4-14.1,18.7-23.9
	C430.5,469,431.9,460,432.8,451z"/>
<path d="M408.3,453c3.1,11.8,3.5,24.7-1.2,36.2c-3.7,10.2-11.6,19.3-22.3,22.6c2.6-4.6,7.5-7.1,10.9-11c2.9-3,4.3-7,5.7-10.9
	C405.2,477.9,406.7,465.4,408.3,453z"/>
<path class="st0" d="M188.1,461.5c9.7-2.3,18.8-7.6,28.9-8c2.8-0.5,3.9,2.5,5.2,4.4c-20,6.9-40.9,11.4-62.1,13.3
	c-6,0.8-12.1,0.5-18.1,1.2c27.7,4.8,55.9-1.1,82.4-9.2c6.5,18.8,17.8,35.3,26.6,53c-7.8-1.6-12.4-8.9-15.6-15.6
	c-2.2-5-4.4-10-7.3-14.6c0.3,3.1,1.5,6.1,2.8,8.9c4.2,9.5,9.3,18.5,14.3,27.6c-5.4,3.9-11,7.4-16.5,11.2c1.9,4.2,3.7,8.5,5.5,12.8
	c-10.3-3.3-19.5-9.7-30.3-11.3c-2.5-0.5-5.7,0.4-6.8,2.9c-1.2,4,0.1,8.2,1,12.1c-12.1-3.9-17.8-16.6-28.4-22.8
	c-9.9-4.3-20.3-6.8-30.7-9.7c-13.7-4-27.8-6.1-42-7.2c2.8,0.9,5.9,1.4,8.1,3.4c1.4,1.2,1.8,3.2,2.5,4.9c-0.5,4.3-3.8,7.4-7.7,8.9
	c4.7-0.2,10.2,0,13.7,3.6c2.5,2.8,3.6,6.8,2.7,10.4c-1.3,8-8.1,15.1-16.3,16c-6.4,0.1-11.7-4.8-15-9.8c-7.4-11.5-9.2-25.5-10.6-38.8
	c-0.6-9-1.2-18.6,2.8-27c2.5-5.2,7.7-9.3,13.6-9.3c23.6-1.8,47.2-4.1,70.7-7.1C170.4,464.5,179.3,463.4,188.1,461.5z"/>
<path d="M738.7,465.4c4.3-0.6,8.9-0.9,12.8,1.4c4.3,2.2,7,6.4,9.2,10.5c-6.4,1.5-12.1,4.8-18,7.6c0.7,1.9,2.3,3.3,3.8,4.7
	c11.5,10.6,27,15.5,38.6,26c-8.4,0-16.8-2-25.1-0.9c11.9,16.1,30.2,25.8,43.7,40.4c-8.3-1.2-16.3-5-24.8-4.1
	c9.4,17.1,25.6,29.2,35.1,46.3c-8.4-3.9-16.8-7.9-25.4-11.2c6.7,12.6,16.9,23.1,22.2,36.5c3.5,8.3,5.3,17.3,5.5,26.4
	c-2.5,3.4-7,4.3-11.1,4.3c-3.8,0-7.5,0.1-11.3-0.2c5.4-2.8,12.1-2.3,16.9-6.5c-1-16-8.2-30.9-17.5-43.7
	c-5.8-8.4-12.7-15.9-18.5-24.3c7.4,0.5,14.5,2.6,21.6,4.4c-9-12.3-18.1-24.5-27.4-36.6c5.2-1.1,10.7-1.4,16-0.6
	c-11.7-11.3-23.8-22.1-34.8-34c5.2-0.9,10.4-2.1,15.5-3.3c-11.3-7-23.6-13.6-31.7-24.5c6.3-3.3,12-7.8,18.9-9.9
	C749.8,469.1,744.3,466.5,738.7,465.4z"/>
<path d="M565.7,468.1c27.5,20.8,54.1,42.8,81.1,64.2c7.4,5.4,14.6,11.3,23.3,14.4c8.2-4.4,16.4-8.6,24.8-12.7
	c8.4-3.7,17-7.2,25.4-11c-7.8,4.6-15.5,9.4-23.1,14.3c-7.1,4.6-13.1,11.3-21.4,13.6c-4.9,1.1-10.6,1.3-15-1.6
	c-4.2-2.7-8.2-5.9-12.1-9C620.8,516.4,593.1,492.4,565.7,468.1z"/>
<path class="st0" d="M529.4,485.6c10.5-3.3,21.8-5.9,32.8-3.8c12.2,2.5,20.5,12.5,29.6,20.2c-2.8,9.2-2.5,19.5,2,28.1
	c5.4,10.5,14.3,18.5,21.9,27.5c6,7.9,12.9,15.1,18.6,23.3c2.5,3.6,5.1,7.4,6.2,11.7c1.2,5.9-1.1,11.8-4.6,16.5
	c-3.1-5.1-5.9-10.5-10-14.9c-2,0.8-3.9,1.6-5.4,3.2c-11.2,10.4-10.3,28.5-22.8,37.9c-0.2-6.3,0.2-12.7-1.2-18.9
	c-14.7,14.3-30.4,27.6-48.1,38.1c-2.9,1.5-5.9,3.5-9.4,3.3c-13,0-26,0-39,0c-9.8,0-19.5,0.9-29.3,0c-4.8-0.7-10.2-1.8-13.2-6
	c-2.9-4.6-1.8-10.4,0.1-15.1c1.6-3.9,4.3-8.1,8.8-8.9c14-2.6,28.1,2.8,42,0.1c4.6-1.1,8.1-4.5,11.5-7.7c8.8-9.1,16-19.6,23.1-30.1
	c3.4-5.1,7.6-10.2,13.5-12.3c5.1-1.7,10.4,0,14.9,2.6c-17.6-13.8-34.9-28-51.5-43.1c-12.2-11.4-24.6-23-34.2-36.8
	c3.3-2.5,7.2-0.3,9.1,2.8c5.2,7.9,12.3,14.3,19.2,20.8c8.6,7.7,17.8,14.9,27.7,20.8c-11.8-11.7-23.5-23.5-34.6-35.8
	c-3.6-4.1-7.2-8.2-10.2-12.7C507.9,493.1,518.6,489.2,529.4,485.6z"/>
<path d="M346.2,535c4.7-17.5,7.4-35.5,9.2-53.5c3.5,17.1,1.3,34.8-2.8,51.6c3.7,6.5,7.8,12.7,10.5,19.6c-4.8,0.5-8.5-3.6-13.2-3.1
	c-3.6,0.6-5.1,4.3-6,7.3c-2.7,10.9-0.2,22.7-4.8,33.2c-2.9-3-4.9-6.8-8.2-9.4c-3,1.3-4.7,4.2-6.5,6.8c-5.5,8.5-8.4,18.4-14.1,26.8
	c-3.6-4.7-6.3-10-9-15.3c-7.6,6.2-13.4,14.2-19.4,21.9c-6.2,8-11.4,17.1-19.8,23.2c-7.7,6-17.5,9.1-27.2,9.1
	c11.4-2.3,21.4-9.4,28.8-18.3c7-9.4,14-18.8,21.1-28.2c4.3-5.4,9.2-11.4,16.3-12.8c4.9-0.9,8.2,3.5,9.8,7.5
	c5.8-6.9,6.4-17.1,13.6-23c3.5-3,8.3-2.6,12.3-0.9c1.7-9.1-0.2-19,4.3-27.4c2.3-4.5,7.6-6,12.3-5.8
	C351.5,540.7,348.4,538.2,346.2,535z"/>
<path d="M245.9,584.3c12.2-28.9,26-57.3,34.5-87.6c0,17.6-4.5,35.2-12.7,50.7C260.7,559.9,253.2,572,245.9,584.3z"/>
<path d="M586.6,505.4c2.2,8.5-0.9,18.6,5,25.9c14.8,20.8,31.2,40.3,45.7,61.3c-4-0.9-8.2-1.8-12.2-0.6c-4.9,1-8.8,4.5-11.4,8.6
	c-5.2,7.9-7.3,17.2-11.4,25.6c-2.7-5.6-1.2-12.6-5.1-17.8c-12.1,14.5-25.7,27.9-41.8,38c-5.8,3.6-11.5,8.1-18.5,8.6
	c-10.6,1-21.2,0.3-31.8-0.7c-9-0.5-18-0.2-26.9,0.2c8.2-1.4,16.5-2.3,24.8-2.6c10.7,0,21.4-0.1,31.9-1.9c8.1-1.3,15-6,21.6-10.6
	c15.2-11.2,29.2-24.4,39.9-40.2c2.9,2.3,4.7,5.6,7.3,8.2c3.2-10.1,8.9-21.3,20.2-23.8c-11.3-16.8-23.5-32.9-36.3-48.6
	C582.5,526,583,514.9,586.6,505.4z"/>
<path d="M138.7,514.5c8.7,0.8,17.4,1.2,26,2.7c6.4,1.4,13.1,3.2,17.8,8c-0.4-2-0.8-4-1.1-6c8.1,3.8,16.8,6.4,25.7,7.9
	c-2.1-2.1-4.7-3.7-6-6.4c10.2,1.5,20.7,0.7,30.6-2.6c-3.8,5.8-11.5,6-17.8,6.4c2.6,3.9,6,7.2,9.5,10.5c-12.5-0.8-24.4-5-36.2-9
	c-0.3,4.9,0.6,9.7,1.7,14.4c-4.8-10.5-15.2-16.8-25.7-20.4C155.2,517.1,146.9,515.9,138.7,514.5z"/>
<path class="st0" d="M121.3,535.2c4,1.9,3.5,7.1,3.3,10.8c-0.4,3.1-1.2,7.8-5.2,7.9C120.4,547.7,121.1,541.4,121.3,535.2z"/>
<path class="st0" d="M128,553.3c2.8,2,5.7,3.7,8.6,5.4c-4.4,1.2-9,1.1-13.6,1.1C124.5,557.6,126.3,555.5,128,553.3z"/>
<path class="st0" d="M108.3,560.4c2.3-1,4.4-2.3,6.3-4c1.9,2.8,3.9,5.6,5.5,8.7C115.8,565,111.1,564,108.3,560.4z"/>
<path class="st0" d="M746.9,625.6c5.1-2.4,11.2-1.8,16,1c-4.8,7.9-3.6,18.1,0.7,25.9c-3.5,1.6-7.2,2.7-11.1,3.2
	c1.1-3.6,3.7-6.4,5.1-9.9c1.6-3.9-0.7-8.7-4.7-9.8c-5-1.4-10.8-1-15.1,2.3C737.8,632.7,741.6,627.5,746.9,625.6z"/>
<path class="st0" d="M715.3,638.7c-0.4-9.6,11.9-14.7,19.8-11.1c-2.9,8.7-1.6,18.1-0.3,26.9c-3.1,0.6-6.2,1.2-9.4,0.6
	c1.7-2.4,3.4-5,3.2-8c-0.2-3.6-2-7.9-5.8-8.9C720.3,637.2,717.7,638.3,715.3,638.7z"/>
<path class="st0" d="M178.9,641.1c1.5-9.9,14-15.3,22.4-9.9c-3.6,7.2-3.1,16.1,0.6,23.1c-2.8,1.4-5.7,3-8.9,2.3
	c1.5-4.2,5.8-7.8,4.4-12.7c-1.2-4-5.7-5.4-9.4-5.3C184.7,638.4,181.8,639.9,178.9,641.1z"/>
<path class="st0" d="M446,638.2c0.5-5,5.3-8.4,10-9.1C454.3,633.6,450.4,636.7,446,638.2z"/>
<path class="st0" d="M158.1,641.3c2.4-7.6,11-11.9,18.5-9.4c-3.5,7.5-1.7,16-0.6,23.9c-2.6,0.1-5.1,0.4-7.7,0.7
	c2.9-3.3,4.2-8.3,1.3-12.1C167.4,640.1,162.1,640.5,158.1,641.3z"/>
<path class="st0" d="M776.5,638.5c2.7-0.8,5.1,1.2,7.4,2.4c-3,8.3-8.1,15.8-9.8,24.5c-4.8-4.9-4.6-12.4-3-18.5
	C771.9,643.6,773,639.7,776.5,638.5z"/>
<path class="st0" d="M745.5,640.5c2.6-0.8,5,0.9,7.2,2c-3.1,7.4-7.4,14.3-9.2,22.2c-4.2-5.3-4-12.5-2.1-18.6
	C742,643.9,743.2,641.5,745.5,640.5z"/>
<path class="st0" d="M211.7,643.8c2.3-3.4,6.7-1.1,9.1,1c-3.8,6.5-6.7,13.5-9.4,20.6C206.6,659.1,207.9,650.1,211.7,643.8z"/>
<path class="st0" d="M429,652.4c0-5.6,5.1-9.5,10.2-10.6C437.3,646.4,434,650.9,429,652.4z"/>
<path class="st0" d="M440,651.2c3-3.3,6-6.6,9.3-9.7c2.1,2.5,1.1,5.9,1.5,8.9C447.2,650.5,443.6,650.8,440,651.2z"/>
<path class="st0" d="M714.6,646.9c0.7-1.5,1.6-3.4,3.4-3.7c2-0.5,3.8,0.7,5.6,1.4c-2.5,6.1-5,12.2-7.6,18.2
	C712.5,658.3,712.8,652.1,714.6,646.9z"/>
<path class="st0" d="M185.4,644.4c2.3-1.1,4.9-0.1,7,0.9c-2.8,6.5-5.7,12.9-8.4,19.5c-1.9-3.2-3.1-7-2.6-10.8
	C182,650.6,182.4,646.6,185.4,644.4z"/>
<path class="st0" d="M159.7,647.5c1.8-2.4,4.8-1,6.8,0.3c-3.1,4.8-5.8,9.9-7.1,15.5C156,658.7,156.7,652.1,159.7,647.5z"/>
</svg>
