<?xml version="1.0" encoding="utf-8"?>
<!-- Generator: Adobe Illustrator 21.1.0, SVG Export Plug-In . SVG Version: 6.00 Build 0)  -->
<svg version="1.1" id="Layer_1" xmlns="http://www.w3.org/2000/svg" xmlns:xlink="http://www.w3.org/1999/xlink" x="0px" y="0px"
	 viewBox="0 0 182.2 182.2" style="enable-background:new 0 0 182.2 182.2;" xml:space="preserve">
<style type="text/css">
	.st0{fill:#010101;}
</style>
<g>
	<path class="st0" d="M24.2,103.9c2,1.6,3.1,2.4,3.5,2.4c1.9-0.1,2.7-1.7,2.5-4.9c-0.1-2.2-0.7-5.6-1.5-10.2
		c-0.9-4.5-1.4-7.9-1.4-10.2c-0.3-5.7,0.3-10.4,1.9-14.2c1.9-4.6,5-7.1,9.2-7.5c5.7-0.4,10.6,2.3,14.6,8.3c2.9,4.3,4.5,9.7,4.6,16
		c0.1,3.4-1.4,10.1-4.4,20.3c-1,3.1-1.4,5.3-1.4,6.4c0,2.6,1.1,4.7,3.3,6c2.2,1.4,4.2,1.3,6.2-0.3c2.7-2.2,4.2-4.4,4.4-6.7
		c0.1-0.4,0-1.1-0.1-1.9c-0.1-1-0.2-1.6-0.2-2c-0.1-3.7-0.3-8.5-0.3-14.4c0-8.1,0-13,0-14.5c4.6,3.8,7.8,6,9.7,6.7
		c-0.8-1.3-1.1-3-1-4.9c4.2,3.3,8.9,5.8,14.1,7.5c-0.6-1.8-0.8-3.3-0.8-4.6c3.1,1.5,5.1,2.7,5.8,3.6c0.8,0.4,2.9,2.7,6.3,7.1
		c0.1-0.5,0.2-1.2,0.1-2.1C99,88.9,99,88.2,99,87.8c0.7,0.4,2.5,1.5,5.4,3.3c2.2,1.5,4.1,2.5,5.6,3.2c0.7-0.5,1.7-1.4,3.1-2.6
		c1.3-1.2,2.4-2,3.2-2.5c2.7-1.8,5.7-2.6,9-2.3c0.9,0.1,1.6,0.3,2.3,0.8c0.8,1.8,0.7,3.3-0.3,4.5c-2.8-1-5.2-1-7.4,0
		c2.4-0.4,4.7-0.3,6.9,0.5c0.9,2.2,0.7,4-0.4,5.3c-1.8-1.5-3.9-2-6.4-1.6c2.9,0.2,4.9,1.1,6.2,2.5c0.1,2.1-0.6,3.8-2.2,4.9
		c-0.5-0.3-1.2-0.8-2.1-1.5c-1-0.8-1.7-1.4-2.1-1.6c-1.8-1.2-3.5-1.7-5.3-1.5c-0.5,0.1-1.4,0.4-2.5,1c-1.1,0.5-1.9,0.7-2.5,0.7
		c-0.4,0-2.6-0.8-6.4-2.3c-1.9-0.8-5-2.2-9.3-4.2c-3.9-1.7-6.9-3-9-3.8c0.1,0.2,0.3,0.4,0.8,0.5c0.4,0.1,0.7,0.2,0.8,0.3
		c-0.1,0.6-0.4,1.4-0.9,2.4c-0.5,1.2-0.8,2.1-1,2.6c-1.2,3.1-1.7,5-1.5,5.6c0-0.1,0.8,0.8,2.4,2.7c2.8,3.3,4.3,7,4.5,11.1
		c0.4,6.5-1.3,11.7-5.3,15.6c-3.5,3.4-7.9,4.3-13.3,2.5c-0.8,2.3-2.3,8.7-4.6,19.2c0.3,0.6,0.7,1.1,1.3,1.4c0.3-0.4,0.5-1,0.8-1.9
		c0.4-1.2,0.6-1.9,0.7-2.2c0.7-1.5,1.8-2,3.4-1.4c0.4-1.2,1.3-1.9,2.9-2c1.5-0.1,2.6,0.4,3.3,1.4c-1.7,0.5-2.8,1.4-3.3,2.5
		c1.1,1.3,1,2.6-0.2,3.7c-2.1,2.1-3.1,3.1-3.1,2.9c0.4,0.3,1.1,0.5,2,0.8c1.2,0.4,2,0.6,2.3,0.7c1.6,0.7,2.1,1.8,1.5,3.4
		c1.3,0.4,2,1.3,2.2,2.9c0.1,1.5-0.4,2.6-1.5,3.3c-0.4-1.5-1.2-2.6-2.4-3.1c-1.4,1.1-2.7,1-4-0.4c-1.9-2-3-3-3.3-3.2
		c-0.3,0.4-0.5,1.1-0.8,2c-0.4,1.1-0.6,1.8-0.7,2.2c-0.7,1.5-1.8,2.1-3.3,1.5c-0.5,1.2-1.5,1.9-3,2c-1.5,0.1-2.6-0.4-3.4-1.5
		c1.7-0.4,2.8-1.2,3.3-2.4c-1-1.2-1-2.3,0.1-3.5c0.2-0.3,0.7-0.8,1.5-1.4c0.7-0.5,1.1-1,1.3-1.3c-1-0.5-1.8-1.1-2.4-1.8
		c0.1-3.3,0.3-6.6,0.7-9.8c-0.6,0.2-1.2,0.8-2,1.9c-0.9,1.3-1.4,1.9-1.4,1.9c-0.1-1.5,0.9-4.7,2.9-9.3c-0.7,0.1-1.8,1-3.2,2.4
		c-0.8,0.8-1.2,1.2-1.3,1.1c0-2,1.2-4.9,3.6-8.8c-1.2,0.1-2.1,0.4-2.9,1.1c-1.5,1.2-2.1,1.8-2,1.8c0.3-2.9,1.9-5.6,4.8-8.1
		c-1.8-0.2-4,0.3-6.6,1.5c1.1-2.9,3-4.6,5.6-4.9c-1.2-1-1.6-2.4-1.4-4.3c0.4,0.1,1,0.5,1.9,1c0.7,0.4,1.4,0.7,2.1,0.8
		c1.6,0.3,3.2,0.2,4.7-0.3c1.7-0.6,2.7-1.4,3.2-2.5c0.6-1.4,0.4-3.1-0.4-5.1c-0.3-0.6-0.7-1.4-1.2-2.4c-0.6-1-1-1.6-1.1-2
		c-1.7,2.9-2.9,4.8-3.6,5.6c-1.6,1.8-3.6,2.6-5.9,2.6c-2.9,0.1-5.5-1.1-7.9-3.4c-2.7-2.6-3.9-6-3.6-10.2c0.1-2.4,1-6,2.5-10.8
		c1.5-4.7,2.4-8.4,2.5-11.2c0.2-5.6-0.8-10.1-3-13.5c-2.2-3.4-4.5-5.2-7-5.4c-1.2-0.1-2.3,0.4-3.1,1.4c-0.7,0.9-1.1,1.9-1.1,3.2
		c0,1.2,0.3,2.2,0.8,3.1c0.7,1,1.5,1.4,2.6,1.2c0.3,0,0.6-0.1,1-0.4c0.3-0.3,0.5-0.4,0.7-0.3c-0.2,1.8-0.8,3.2-1.8,4.2
		c-1.2,1.1-2.6,1.4-4.4,0.9c3.9,3.7,5.9,7.5,6.2,11.6c-2.9-2-4.4-3-4.5-3.1c2.8,4.8,4,8.2,3.7,10.3c-0.1,0.6-0.3,1.2-0.7,1.9
		c-0.4,0.7-0.7,1.1-1,1c0-3.7-0.8-5.7-2.5-6.3c0.7,11-1.8,16.1-7.7,15.3C27.4,110.7,25.5,108.3,24.2,103.9z M98.6,72.4
		c-1.7-1.9-3.7-3-6-3.4c4.1,6.3,6.2,13.8,6.2,22.4c-2.9-5.1-6.9-8.6-12.1-10.3c-0.1,1.2,0.1,2.7,0.5,4.5c-6.7-2.9-10.9-5.2-12.6-6.7
		c-1-0.8-1.3-1.2-1.1-1.1c-0.3,1.2-0.1,2.9,0.4,5.2c-5.3-2.9-9.5-6.6-12.7-11.1c-0.7,1.4-0.7,3.3,0,5.8c-5.5-5.8-8.1-12.2-7.9-19.1
		c-0.8,0.9-1.5,2.5-2,4.8c-1.5-5-2.3-10-2.3-15.1c0-6.2,1.4-10.6,4.2-13.1c0.8,0.6,1.4,0.8,1.8,0.5c-1.4,0.2-2.1-0.6-2.2-2.5
		c0-1.8,0.5-2.9,1.4-3.3c0.3-0.1,1.3,0,3,0.5c0-0.2-0.2-0.4-0.7-0.4c-0.4-0.1-0.5-0.3-0.5-0.4c0.1-0.5,1.4-0.8,3.6-0.8H64
		c0.1,0,1.1,0,2.7-0.1c1.3-0.1,2.3-0.1,3.1,0c2.4,0.1,3.4,0.9,3,2.3c3.1-0.4,5.1-0.3,6,0.3c0.4,1.1,0.2,1.8-0.8,2.2
		c-0.9,0.3-1.8,0.3-2.6-0.1c1.5,0.9,2.6,0.9,3.5,0c0.7,3.8,1.1,5.8,1.1,5.9c-1.2,1.3-3.2,1.8-5.7,1.4c-2.7-0.3-4-1.5-3.8-3.6
		c-2.3-0.1-3.6,0-3.8,0.2c-0.8,0.6-1.1,1.8-0.9,3.7c0.2,1.8,0.8,3.2,1.6,4.1c1.2,1.4,2.5,1.9,3.7,1.6c0.2,0,0.5-0.2,0.9-0.7
		c0.4-0.4,0.7-0.7,0.9-0.8c1-0.7,2.4-0.9,4.1-0.7c1.8,0.3,2.7,1,3,2c0,0.4-0.2,1.1-0.5,2.2c-0.3,1-0.2,1.6,0.2,2.1
		c-0.1,0.1-0.4-0.1-0.8-0.4c-0.4-0.4-0.8-0.6-1.2-0.7c-3.3-0.8-4.9-1.1-4.8-1c-1.1,1.2-2.7,1.8-4.9,1.9c-2.6,0.1-4.6-1.1-5.9-3.5
		c-1.2-2.2-1.6-5-1.2-8.3c-0.7,3.7-0.4,6.7,0.9,9.1c1.5,2.6,4.1,3.8,7.6,3.4c0.1,0,0.3-0.1,0.8-0.2c0.4-0.1,0.7-0.2,1-0.2
		c1.8,0,5,0.9,9.6,2.6c3.4,1.4,6.1,2.9,7.9,4.5C92.2,61.5,95.6,66.3,98.6,72.4z M56,31.8c-0.1-0.7-0.7-0.8-1.5-0.2
		c-0.8,0.6-1,1.4-0.4,2.4c0.6,0.2,1,0.3,1.2,0.3c-0.1-0.1-0.3-0.2-0.5-0.3c-0.3-0.1-0.5-0.2-0.5-0.3c-0.2-0.8-0.1-1.4,0.3-1.9
		C55,31.2,55.5,31.2,56,31.8z M56.3,28.4V26h14.9c-0.1-0.1,0,0.6,0.1,2.3H56.3z M59.1,23.3c-0.2,0.1-0.5,0.3-0.9,0.3
		c-0.5,0.1-0.8,0.3-0.9,0.3c-0.4,1.3-0.5,1.9-0.3,1.9h-0.4c-0.3-3.4-0.3-5.7,0.1-6.8C58.7,20.6,59.5,22.1,59.1,23.3z M64.9,166.2
		c-0.5-0.7-1.3-1.3-2.4-1.9c-0.2,0.3-0.5,0.7-0.9,1.1c-0.4,0.6-0.6,1-0.8,1.2c-0.7,0.8-1.5,1.3-2.4,1.4c1.1,1.2,2.3,1.6,3.7,1
		C63.5,168.6,64.4,167.6,64.9,166.2z M66.7,23.2c0.1-0.1-0.6,0.1-2,0.8c0,1.5,0,2.1,0,1.9h-1.8v-2c-1.8-0.1-2.3-1-1.6-2.5
		c0.7-1.5,1.6-2.2,2.9-2.3C66.1,20.5,67,21.9,66.7,23.2z M65,31.3c0.1,1.6,1.3,2.6,3.5,2.9c2.2,0.3,3.3-0.7,3.2-2.9
		C70.8,31.4,68.6,31.4,65,31.3z M68,31.5c1,0.1,1.4,0.2,1.3,0.1l-0.4,0.5c0.7,0.3,0.9,0.4,0.7,0.4l0.5-0.3c0-0.2-0.1-0.5-0.4-0.8
		h1.4c0.4,1.5-0.2,2.2-1.6,2.1c-1.5-0.1-2.2-0.1-2.2-0.1S67.5,32.9,68,31.5z M87.5,39.8c0.2,1.7-0.5,3.2-2.1,4.5
		c-0.9,0.7-1.8,1.2-2.7,1.3c-0.7,0.1-3.1-0.5-7.3-1.6c-2.4-0.7-3.8,0.3-4.2,2.7c-1.5-0.1-2.7-0.6-3.4-1.5c1.1-1.8,1.7-2.7,1.9-2.9
		c1.7-1.3,4.7-1,9,1c1.8,0.8,3,1.2,3.8,1.1c1.2-0.1,2-1,2.4-2.7c-1.5-0.4-2.3-1.1-2.4-2c-0.1-1.6,0.6-2.3,2.2-2.2
		C86.3,37.6,87.3,38.4,87.5,39.8z M71.4,19c0,0.4,0,1.5,0.1,3.5c0,1.5-0.1,2.6-0.3,3.3h-0.4c0.1,0.1,0-0.5-0.2-2
		c-0.7,0-1.3-0.2-1.9-0.7C68.3,21.6,69.2,20.2,71.4,19z M72.1,150.4c0.4,0.7,1.3,1.2,2.5,1.8c1.8-2.3,3-3.6,3.8-3.7
		c-1-1.3-2.3-1.6-3.7-1C73.4,148,72.5,149,72.1,150.4z M75.1,164.6c2.1,0.8,3.4,2,3.7,3.5c1-1.4,1.5-2.5,1.3-3.4
		c-0.1-0.6-0.6-1.1-1.4-1.6c-1.1-0.7-1.7-1.2-1.8-1.3C76,162.3,75.3,163.3,75.1,164.6z M89.3,122.4c1-3.2,1-6.7,0-10.3
		c-0.9-3.1-2.2-5.8-4.1-7.8c-1.2-1.4-1.9-2.2-2-2.3c-0.4-0.8-0.3-1.7,0.4-2.6c11.7,2.9,17.9,9.2,18.6,18.7c0-0.2-0.1,2.7-0.3,8.9
		c3.9-0.9,9-2.6,15.3-5.1c0.2,0.3-0.8-0.6-3.2-2.7c-1.2-1.2-1.4-2.4-0.3-3.7c-1.1-0.9-1.4-2-1-3.4c0.4-1.4,1.3-2.2,2.6-2.5
		c-0.4,1.7,0,3,1.2,4c1.5-0.7,2.7-0.3,3.4,1.3c1.3,2.9,1.9,4.2,1.6,4c-0.2,0.1,0.7-1,2.6-3.4c1.2-1.4,2.5-1.6,4-0.7
		c0.9-1.1,2-1.4,3.4-0.9c1.3,0.4,2.2,1.2,2.6,2.4c-1.9-0.1-3.2,0.3-3.8,1.3c0.5,1.6,0.1,2.8-1.1,3.5c-3.1,1.8-4.6,2.5-4.6,2.1
		c0,0.2,0.6,0.8,1.9,1.6c2.6,1.8,3.2,3.4,1.9,4.8c1.1,0.9,1.4,2.1,0.9,3.5c-0.4,1.3-1.3,2.2-2.5,2.5c0.1-2.1-0.3-3.4-1.3-4
		c-1.5,0.6-2.5,0.2-3.2-1.2c-0.1-0.3-0.4-0.9-0.8-1.9c-0.2-0.8-0.5-1.4-0.8-1.6c-0.6,0.4-1.4,0.9-2.5,1.4c-1.4,0.7-2.3,1.2-2.6,1.4
		c0.5,0.4,1.3,0.7,2.4,1.1c1.3,0.3,2.2,0.5,2.6,0.8c-2.8,1.1-6.2,1.2-10.2,0.2c0.2,0.3,1.9,1.4,5.2,3.2c-2.9,1-6.2,0.7-9.9-0.7
		c0.4,1.3,2,2.5,4.6,3.6c-2.8,0.9-6,0.3-9.6-1.9c0.2,0.8,1.4,2.7,3.4,5.8c-2.9-0.2-5.1-1.5-6.4-3.8c-0.8,1.7-2,2.6-3.5,2.6
		C95.5,134.3,93.8,128.2,89.3,122.4z M113.8,61.9c1,0.9,1.7,1.1,2.3,0.5c-0.1-0.1-0.3-0.1-0.8,0c-0.4,0-0.6,0-0.8-0.1
		c-1-1.2-1.5-2.7-1.4-4.5c1.2-1.2,2.2-1.8,3-1.8c0.8,0.1,1.6,0.7,2.3,2c0.9,1.3,1,2.3,0.2,3c0.1,0.7,0.7,1.2,1.5,1.5
		c0.8,0.3,1.6,0.2,2.3-0.2c0.1-1.5-0.2-2.4-0.8-2.7c-0.8,0.6-1.6,0.9-2.5,0.9l0.1-0.3c0.1-0.3,0.2-0.5,0.1-0.8
		c-0.4-1-0.5-4.4-0.5-10.3v-9.1h4.3v17.7c-0.7,0-1.3,0.2-1.8,0.7c-0.5,0.4-0.7,1-0.5,1.6c0.1-0.1,0.3-0.4,0.3-0.9
		c0.1-0.4,0.2-0.6,0.3-0.8c1.7-0.7,3.3-0.7,4.7,0c1.3,1.5,1.2,2.9-0.2,4.1c-1.5,1.2-2.9,1.4-4.4,0.5c0.4,0.2,0.5,0.4,0.3,0.5
		c-0.6,0-1.1,0.2-1.4,0.5c-0.4,0.4-0.4,0.8-0.2,1.3c0.4-1,0.6-1.5,0.4-1.3c1.5-0.7,2.9-0.7,4.2-0.1c1.3,0.7,1.8,1.7,1.4,3.2
		c-0.1,0.4-0.7,0.9-1.6,1.4c-1,0.6-1.8,0.8-2.4,0.8c-0.3-0.1-0.5-0.2-0.8-0.4c-0.3-0.3-0.5-0.4-0.8-0.4c0.4,0.8,1.2,1.1,2.4,1v17.2
		c-1.7,0.1-3.1,0.4-4.3,0.7V67.9c-0.2,0-0.4-0.1-0.7-0.3c-0.2-0.2-0.4-0.4-0.4-0.4c-4.5,2.4-11.4,6-20.9,10.7
		c-0.8-3-2.1-5.8-3.7-8.5c1,0.1,2.1,0.6,3.2,1.4l2.6,1.8c-0.2-0.7-0.6-1.5-1.2-2.5c-0.7-1.1-1.1-1.9-1.3-2.4c9.3-3,14-4.5,14-4.5
		S111.5,62.7,113.8,61.9z M104.7,39.7c0-1.8,0-4.9,0-9.6c0-4.2,0-7.3,0-9.1c1.5,0.4,2.3,0.5,2.3,0.4v18.2H104.7z M117.9,34
		c-3.7-0.2-6.8,0.4-9.1,1.8c-1,0.5-1.5,0.8-1.5,0.8c0-0.7,0-2.8,0-6.3c0-2.6,0-4.6,0.1-6.2c2.6,2,6.1,2.9,10.5,2.7V34z M117.2,114.6
		c-0.1-0.3-0.4-0.6-0.8-1c-0.4-0.4-0.6-0.8-0.8-1c-0.6-0.8-0.8-1.8-0.7-2.9c-1.5,0.6-2.2,1.6-2.1,3.1c0,1.4,0.6,2.6,1.8,3.6
		C115.9,116,116.8,115.4,117.2,114.6z M115.7,61.4c0.3,0.8,0.8,1.4,1.6,1.9c0.9,0.5,1.8,0.5,2.6,0c-1.3-2.3-2-3.5-2-3.4
		C117.2,60,116.5,60.5,115.7,61.4z M117.4,65.9c0.4,1.9,1.9,2.6,4.5,2c0.1-0.7,0-1.6-0.4-2.7C119.5,65.7,118.2,65.9,117.4,65.9z
		 M123.9,21c0.1,2.3,0.2,5.4,0.1,9.2c0,5.1,0,8.3,0,9.4h-6V21.2c0.7-0.1,1.6-0.2,2.9-0.2C122.5,21.1,123.5,21.1,123.9,21z
		 M118.7,65.4c-0.1,0,0-0.4,0.1-1.3C118.9,64.1,118.8,64.5,118.7,65.4z M123.1,20.9c-3.3-0.1-4.7-0.2-4.3-0.1v-4.1
		c-0.4,0.1,1,0.1,4.3-0.1V20.9z M123.1,110.2c0,3.7,0,5.4,0,5.2c-0.1,1.7-0.7,2.6-1.6,2.7c-0.1-0.3-0.5-1.2-1.1-2.9
		c-0.4-1.2-0.9-2-1.5-2.4v-12.3h0.2c0.1,0.1,0.8,0.5,2.2,1.4c1.1,0.7,1.7,1.2,1.9,1.8V110.2z M142.7,19.3c2.1,7.3,2.1,14.6,0,22
		c-4.7-3.2-10.8-4.7-18.5-4.5c0.1-1.4,0.1-3.5,0-6.4v-6.6C132,24.1,138.2,22.6,142.7,19.3z M124.9,130.3c0.1,0.2,0.4,0.5,0.8,1
		c0.4,0.4,0.6,0.8,0.8,1c0.5,0.8,0.7,1.7,0.7,2.7c1.5-0.4,2.2-1.4,2.1-3c0-1.5-0.6-2.7-1.8-3.5C126.3,128.8,125.4,129.4,124.9,130.3
		z M127.1,115.6c0.4,1.3,1.1,2.2,1.9,2.5c-0.4,0.2,0.3-0.3,2-1.5c0.8-0.6,1.8-0.8,2.9-0.7c-0.5-1.5-1.6-2.2-3.2-2.1
		C129.1,113.9,128,114.5,127.1,115.6z M141.3,46.5c2-4.3,3-9.7,3-16.1c0-6.4-1-11.8-3-16.1c0.5-0.2,1.3-0.5,2.3-0.9
		c1.1-0.4,1.9-0.8,2.3-1c2.4,4.6,3.6,10.6,3.6,17.9c0,7.3-1.2,13.4-3.5,18.1C146.1,48.3,144.6,47.7,141.3,46.5z"/>
</g>
</svg>
