<?xml version="1.0" encoding="utf-8"?>
<!-- Generator: Adobe Illustrator 21.1.0, SVG Export Plug-In . SVG Version: 6.00 Build 0)  -->
<svg version="1.1" id="Layer_1" xmlns="http://www.w3.org/2000/svg" xmlns:xlink="http://www.w3.org/1999/xlink" x="0px" y="0px"
	 viewBox="0 0 182.2 182.2" style="enable-background:new 0 0 182.2 182.2;" xml:space="preserve">
<style type="text/css">
	.st0{fill:#010101;}
</style>
<g>
	<path class="st0" d="M42.5,17.7c-2.1,4.3-3.1,9.7-3.1,16.1c0,6.4,1,11.8,3.1,16.1c-3.4,1.2-5,1.9-4.8,1.9
		c-2.3-4.8-3.4-10.8-3.4-18.1c0-7.3,1.2-13.3,3.5-17.9c0.5,0.2,1.3,0.5,2.4,1C41.1,17.2,41.9,17.5,42.5,17.7z M41,44.8
		c-2.1-7.3-2.1-14.6,0-22c4.6,3.3,10.8,4.8,18.5,4.5v13C51.8,40.1,45.7,41.6,41,44.8z M98.5,107.8c-1.9,2.1-3.3,4.7-4.1,7.8
		c-1,3.7-1,7.1,0,10.3c-4.5,5.8-6.2,11.9-4.9,18.3c-1.6-0.1-2.8-1-3.5-2.6c-1.3,2.3-3.5,3.6-6.5,3.8c2.1-3.1,3.3-5,3.4-5.8
		c-3.5,2.1-6.7,2.7-9.4,1.9c2.6-1.1,4.1-2.3,4.5-3.6c-3.7,1.4-6.9,1.6-9.8,0.7c3.2-1.8,4.9-2.9,5.2-3.2c-4,1-7.4,0.9-10.2-0.2
		c0.4-0.2,1.2-0.5,2.5-0.8c1.2-0.4,2-0.7,2.5-1.1c-0.4-0.2-1.3-0.7-2.6-1.4c-1.1-0.5-2-1-2.6-1.4c-0.2,0.3-0.5,0.8-0.8,1.6
		c-0.3,1-0.5,1.6-0.7,1.9c-0.7,1.4-1.7,1.8-3.2,1.2c-1.1,0.5-1.6,1.8-1.4,4c-1.2-0.4-2-1.2-2.5-2.5c-0.4-1.5-0.1-2.6,0.9-3.5
		c-1.2-1.5-0.6-3.1,2-4.8c1.2-0.9,1.9-1.4,1.9-1.6c0,0.4-1.6-0.3-4.7-2.1c-1.2-0.7-1.5-1.9-1-3.5c-0.7-1-2-1.5-4-1.3
		c0.5-1.2,1.4-2,2.6-2.4c1.5-0.5,2.6-0.2,3.5,0.9c1.5-1,2.7-0.7,3.8,0.7c2,2.4,2.9,3.6,2.6,3.4c-0.2,0.3,0.4-1,1.8-4
		c0.7-1.6,1.8-2,3.3-1.3c1.2-1,1.7-2.3,1.3-4c1.2,0.3,2.1,1.1,2.5,2.5c0.5,1.4,0.2,2.5-0.9,3.4c1,1.3,0.9,2.6-0.3,3.7
		c-2.3,2.1-3.4,3-3.2,2.7c6.3,2.5,11.4,4.2,15.3,5.1c-0.2-6.2-0.4-9.1-0.4-8.9c0.7-9.5,7-15.7,18.7-18.7c0.7,1,0.8,1.8,0.4,2.6
		C100.4,105.6,99.7,106.4,98.5,107.8z M54.8,121.6c0.7-0.4,1.4-1.2,1.9-2.5c-0.9-1.1-2.1-1.7-3.6-1.8c-1.6-0.1-2.6,0.6-3.1,2.1
		c1.1-0.1,2,0.1,2.9,0.7C54.5,121.3,55.2,121.8,54.8,121.6z M56.7,138.5c-0.1-0.6,0.6-2.2,2.1-4.7c-0.4-0.9-1.3-1.5-2.5-1.8
		c-1.1,0.8-1.7,2-1.8,3.5C54.5,137.1,55.2,138.1,56.7,138.5z M156,109.9c0.4,0,1.6-0.8,3.6-2.4c-1.4,4.4-3.3,6.8-5.8,7.1
		c-5.9,0.8-8.5-4.3-7.7-15.3c-1.7,0.5-2.5,2.6-2.5,6.3c-0.3,0.1-0.6-0.3-1-1c-0.4-0.7-0.6-1.3-0.7-1.9c-0.3-2.1,1-5.6,3.7-10.3
		c-0.2,0.1-1.7,1.1-4.5,3.1c0.1-4.1,2.2-8,6.2-11.6c-1.8,0.5-3.3,0.2-4.4-0.9c-1-1-1.5-2.3-1.8-4.2c0.1-0.1,0.3,0,0.7,0.3
		c0.4,0.3,0.7,0.4,1,0.4c1.1,0.1,1.9-0.3,2.5-1.2c0.6-0.9,0.9-1.9,0.9-3.1c0-1.2-0.4-2.3-1.1-3.2c-0.9-1-1.9-1.5-3.1-1.4
		c-2.6,0.2-4.9,2-7.1,5.4c-2.2,3.4-3.2,7.9-2.9,13.5c0.1,2.8,1,6.5,2.4,11.2c1.6,4.8,2.5,8.3,2.6,10.8c0.3,4.2-1,7.7-3.7,10.2
		c-2.3,2.3-4.9,3.5-7.8,3.4c-2.4,0-4.4-0.9-6-2.6c-0.7-0.8-1.8-2.7-3.5-5.6c-0.2,0.4-0.6,1-1.1,2c-0.6,1-1,1.8-1.2,2.4
		c-0.9,2-1.1,3.7-0.5,5.1c0.4,1.1,1.5,1.9,3.3,2.5c1.5,0.5,3.1,0.6,4.7,0.3c0.7-0.1,1.4-0.3,2.1-0.8c0.9-0.5,1.5-0.8,1.9-1
		c0.2,1.9-0.3,3.3-1.4,4.3c2.6,0.4,4.5,2,5.6,4.9c-2.6-1.2-4.8-1.8-6.6-1.5c2.9,2.6,4.5,5.3,4.7,8.1c0.1,0-0.5-0.6-1.9-1.8
		c-0.8-0.7-1.8-1-2.9-1.1c2.3,3.9,3.6,6.8,3.6,8.8c-0.1,0.1-0.5-0.3-1.4-1.1c-1.4-1.5-2.4-2.3-3.1-2.4c2,4.7,2.9,7.8,2.9,9.3
		c-0.1,0.1-0.7-0.5-1.5-1.9c-0.7-1-1.3-1.6-1.9-1.9c0.4,3.2,0.6,6.5,0.7,9.8c-0.6,0.7-1.4,1.2-2.4,1.8c0.2,0.4,0.7,0.8,1.3,1.3
		c0.8,0.7,1.3,1.1,1.5,1.4c1.1,1.2,1.1,2.3,0,3.5c0.6,1.2,1.7,2.1,3.3,2.4c-0.7,1.1-1.8,1.6-3.3,1.5c-1.5-0.1-2.5-0.7-3-2
		c-1.5,0.5-2.6,0-3.3-1.5c-0.1-0.4-0.4-1.1-0.7-2.2c-0.2-0.9-0.5-1.5-0.8-2c-0.3,0.1-1.4,1.2-3.3,3.2c-1.3,1.4-2.7,1.5-4.1,0.4
		c-1.2,0.5-2,1.5-2.3,3.1c-1.1-0.7-1.6-1.8-1.5-3.3c0.1-1.5,0.8-2.5,2.1-2.9c-0.6-1.6,0-2.7,1.6-3.4c3.1-1.2,4.5-1.6,4.2-1.4
		c0.1,0.2-0.9-0.7-3.1-2.9c-1.2-1.2-1.3-2.4-0.2-3.7c-0.4-1.2-1.5-2-3.3-2.5c0.7-1,1.9-1.5,3.4-1.4c1.5,0.1,2.4,0.7,2.9,2
		c1.5-0.6,2.6-0.1,3.3,1.4c0.1,0.3,0.4,1,0.7,2.2c0.3,0.9,0.6,1.5,0.9,1.9c0.6-0.4,1-0.8,1.3-1.4c-2.3-10.5-3.8-17-4.6-19.2
		c-5.3,1.8-9.8,0.9-13.3-2.5c-4-3.9-5.8-9.1-5.4-15.6c0.3-4.1,1.8-7.8,4.6-11.1c1.6-1.9,2.4-2.8,2.4-2.7c0.1-0.6-0.4-2.5-1.5-5.6
		c-0.2-0.5-0.5-1.4-1-2.6c-0.4-1-0.7-1.8-0.9-2.4c0.1-0.1,0.3-0.3,0.8-0.3c0.4-0.1,0.6-0.3,0.7-0.5c-2.1,0.9-5.1,2.2-8.9,3.8
		c-4.3,2-7.4,3.4-9.3,4.2c-3.8,1.5-5.9,2.3-6.4,2.3c-0.7,0.1-1.5-0.1-2.5-0.7c-1.2-0.6-2-0.9-2.5-1c-1.8-0.1-3.5,0.4-5.3,1.5
		c-0.4,0.3-1.1,0.8-2.1,1.6c-0.9,0.7-1.6,1.2-2.1,1.5c-1.6-1.2-2.3-2.8-2.2-4.9c1.2-1.5,3.3-2.3,6-2.5c-2.4-0.4-4.5,0.2-6.3,1.6
		c-1.2-1.3-1.4-3.1-0.5-5.3c2.2-0.8,4.5-1,7-0.5c-2.1-1-4.6-1-7.4,0c-1-1.2-1.2-2.7-0.4-4.5c0.7-0.4,1.5-0.7,2.4-0.8
		c3.3-0.3,6.3,0.5,8.9,2.3c0.9,0.5,1.9,1.4,3.2,2.5c1.5,1.2,2.5,2.1,3.1,2.6c1.6-0.7,3.5-1.7,5.6-3.2c2.9-1.8,4.7-2.9,5.4-3.3
		c0.1,0.4,0.1,1.1,0,2.2c-0.1,0.9-0.1,1.6,0,2.1c3.4-4.4,5.5-6.8,6.4-7.1c0.7-1,2.6-2.2,5.8-3.6c0.1,1.3-0.2,2.9-0.8,4.6
		c5.2-1.7,9.9-4.2,14.1-7.5c0.1,2-0.2,3.6-1,4.9c1.8-0.7,5-2.9,9.7-6.7c0,1.5,0,6.4-0.1,14.5c0,5.9-0.1,10.7-0.2,14.4
		c0,0.4-0.1,1-0.3,2c-0.1,0.8-0.1,1.4-0.1,1.9c0.2,2.3,1.7,4.5,4.5,6.7c1.9,1.6,4,1.7,6.2,0.3c2.2-1.4,3.3-3.4,3.3-6
		c0-1.1-0.5-3.2-1.4-6.4c-3-10.2-4.5-17-4.4-20.3c0.1-6.4,1.6-11.7,4.5-16c4.1-6,9-8.8,14.7-8.3c4.2,0.4,7.3,2.9,9.2,7.5
		c1.5,3.7,2.2,8.5,1.9,14.2c-0.1,2.3-0.5,5.8-1.4,10.2c-1,4.6-1.5,8-1.6,10.2C153.3,108.1,154.2,109.8,156,109.9z M67.7,65.9
		c0.6,0.5,1.4,0.3,2.3-0.5c2.3,0.8,8,2.7,17.2,5.7c-0.1,0.5-0.5,1.3-1.2,2.4c-0.7,1-1.1,1.9-1.3,2.5c0.1,0,1-0.6,2.7-1.8
		c1.1-0.8,2.1-1.3,3.1-1.4c-1.6,2.6-2.8,5.5-3.6,8.5C77.4,76.6,70.5,73,66,70.6c-0.1,0.1-0.3,0.2-0.5,0.4c-0.1,0.2-0.3,0.3-0.5,0.3
		v19.3c-1.2-0.3-2.6-0.5-4.3-0.7V72.8c1.1,0.1,1.9-0.2,2.3-1c-0.1,0-0.4,0.1-0.7,0.4c-0.3,0.2-0.5,0.4-0.8,0.4
		C60.9,72.8,60,72.5,59,72c-1-0.5-1.5-1-1.5-1.4c-0.4-1.5,0-2.5,1.3-3.2c1.3-0.6,2.7-0.5,4.2,0.1c-0.1-0.1,0.1,0.3,0.5,1.3
		c0.2-0.5,0.1-1-0.2-1.3c-0.4-0.4-0.8-0.5-1.4-0.5c-0.1-0.1-0.1-0.3,0.2-0.5c-1.5,0.8-2.9,0.6-4.4-0.5c-1.5-1.2-1.5-2.5-0.1-4.1
		c1.5-0.7,3-0.7,4.7,0c0.1,0.1,0.2,0.4,0.3,0.8c0.1,0.4,0.1,0.7,0.2,0.9c0.1-0.7,0-1.2-0.4-1.6s-1-0.7-1.8-0.7V43.4h4.3v9.1
		c0,5.9-0.2,9.4-0.5,10.3c-0.1,0.2,0,0.5,0.1,0.8c0.1,0.2,0.1,0.3,0,0.3c-0.9,0-1.7-0.3-2.5-0.9c-0.5,0.4-0.8,1.3-0.8,2.7
		c0.7,0.4,1.5,0.5,2.4,0.2c0.8-0.3,1.3-0.8,1.5-1.5c-0.7-0.7-0.7-1.6,0.1-3c0.8-1.2,1.6-1.9,2.4-2c0.7-0.1,1.7,0.5,3,1.8
		c0.1,1.8-0.4,3.3-1.4,4.5c-0.1,0.1-0.4,0.1-0.9,0.1C68,65.8,67.7,65.8,67.7,65.9z M59.8,43.2c0-1.2,0-4.3-0.1-9.4
		c0-3.8,0.1-6.9,0.2-9.2c0.3,0.1,1.3,0.1,3,0c1.3,0,2.3,0.1,3,0.2v18.5H59.8z M62.3,121.6c-1-0.1-1.6-1.1-1.8-2.7
		c0.1,0.2,0.1-1.5,0.1-5.2v-6.5c0.1-0.5,0.8-1.1,1.9-1.8c1.4-0.9,2.1-1.4,2.1-1.4h0.3v12.3c-0.7,0.4-1.2,1.2-1.6,2.4
		C62.8,120.4,62.4,121.3,62.3,121.6z M64.9,24.3c0.4-0.1-1.1,0-4.3,0.1v-4.3c3.2,0.2,4.7,0.3,4.3,0.1V24.3z M61.8,71.4
		c2.6,0.6,4-0.1,4.4-2c-0.7,0-2.1-0.3-4-0.8C61.8,69.8,61.6,70.7,61.8,71.4z M63.7,66.8c0.9,0.5,1.8,0.5,2.7,0
		c0.8-0.4,1.4-1.1,1.6-1.9c-0.8-1-1.6-1.5-2.3-1.5C65.8,63.3,65.1,64.4,63.7,66.8z M64.9,67.6l0.1,1.3c-0.1-0.9-0.2-1.3-0.2-1.3
		S64.8,67.6,64.9,67.6z M75,39.2c-2.4-1.4-5.5-2-9.1-1.8v-7.1c4.5,0.1,7.9-0.8,10.4-2.7c0.1,1.5,0.2,3.6,0.2,6.2
		c-0.1,3.4-0.1,5.5,0,6.3C76.5,40,76,39.7,75,39.2z M68.7,113.3c0.1,1.1,0,2.1-0.5,2.9c-0.1,0.2-0.4,0.5-0.9,1
		c-0.3,0.4-0.5,0.7-0.7,1c0.4,0.8,1.2,1.4,2.5,1.9c1.2-1,1.8-2.2,1.8-3.6C70.9,114.9,70.2,113.8,68.7,113.3z M79.1,24.5
		c0,1.8,0,4.9,0,9.1c0,4.6,0,7.8,0,9.6h-2.3V24.9C76.8,25,77.5,24.9,79.1,24.5z M91.2,72.5c-2.3,0.4-4.4,1.5-6,3.4
		c2.9-6.2,6.3-10.9,10.2-14.2c1.8-1.6,4.4-3.1,7.8-4.5c4.5-1.8,7.8-2.6,9.7-2.6c0.3,0,0.6,0.1,1,0.2c0.4,0.1,0.6,0.2,0.8,0.2
		c3.5,0.4,6-0.8,7.5-3.4c1.4-2.4,1.7-5.5,1-9.1c0.4,3.4,0,6.2-1.2,8.3c-1.3,2.4-3.3,3.6-5.9,3.5c-2.2-0.1-3.8-0.7-4.9-1.9
		c0.1-0.1-1.5,0.2-4.8,1c-0.4,0.1-0.8,0.3-1.2,0.7c-0.4,0.4-0.7,0.5-0.9,0.4c0.5-0.4,0.6-1.1,0.3-2.1c-0.4-1.1-0.6-1.8-0.5-2.2
		c0.2-1,1.2-1.7,3-2c1.7-0.2,3,0,4,0.7c0.2,0.1,0.5,0.3,1,0.8c0.3,0.4,0.6,0.7,0.9,0.7c1.2,0.3,2.5-0.3,3.7-1.6
		c0.9-0.9,1.4-2.2,1.6-4.1c0.2-1.9-0.1-3.1-0.9-3.7c-0.4-0.2-1.7-0.3-4-0.2c0.2,2.1-1,3.3-3.7,3.6c-2.6,0.4-4.5-0.1-5.7-1.4
		c0-0.1,0.3-2.1,1-5.9c1,0.9,2.1,0.9,3.5,0c-0.8,0.4-1.6,0.4-2.5,0.1c-1-0.4-1.2-1.1-0.9-2.2c1-0.7,3.1-0.8,6.2-0.3
		c-0.4-1.4,0.5-2.2,2.9-2.3c0.8-0.1,1.9-0.1,3.2,0c1.7,0.1,2.6,0.1,2.7,0.1h4.4c2.3,0,3.5,0.3,3.7,0.8c-0.1,0.1-0.3,0.3-0.7,0.4
		c-0.4,0.1-0.6,0.2-0.7,0.4c1.8-0.5,2.8-0.7,3.1-0.5c1,0.4,1.4,1.5,1.3,3.3c0,1.9-0.7,2.7-2.1,2.5c0.3,0.2,0.9,0,1.8-0.5
		c2.8,2.5,4.2,6.8,4.2,13.1c0,5.1-0.8,10.1-2.4,15.1c-0.4-2.3-1.1-4-1.9-4.8c0.1,7-2.5,13.3-7.9,19.1c0.7-2.5,0.7-4.4,0-5.8
		c-3.2,4.5-7.5,8.2-12.9,11.1c0.6-2.3,0.8-4,0.5-5.2c0.1-0.1-0.2,0.3-1.1,1.1c-1.8,1.5-6,3.8-12.7,6.7c0.5-1.8,0.7-3.3,0.7-4.5
		c-5.2,1.8-9.2,5.2-12.1,10.3C85,86.3,87.1,78.8,91.2,72.5z M98.3,47.8c-1.7-1.3-2.4-2.8-2.1-4.5c0.2-1.4,1.1-2.2,2.7-2.3
		c1.6-0.1,2.3,0.6,2.2,2.2c-0.1,0.9-0.9,1.5-2.4,2c0.4,1.8,1.1,2.7,2.3,2.7c0.8,0.1,2.1-0.3,4-1.1c4.3-2,7.3-2.3,8.9-1
		c0.2,0.1,0.9,1.1,2,2.9c-0.7,1-1.9,1.5-3.5,1.5c-0.4-2.5-1.8-3.4-4.2-2.7c-4.2,1.2-6.6,1.7-7.1,1.6C100.1,49,99.2,48.5,98.3,47.8z
		 M104.8,171.6c0.4-1.5,1.7-2.7,3.8-3.5c-0.2-1.3-0.8-2.3-1.9-2.9c-0.1,0.1-0.7,0.6-1.8,1.3c-0.8,0.5-1.3,1.1-1.4,1.6
		C103.4,169.1,103.8,170.2,104.8,171.6z M109.2,155.7c1.2-0.5,2-1.1,2.5-1.8c-0.5-1.4-1.4-2.4-2.6-3c-1.5-0.7-2.7-0.3-3.7,1
		C106.2,152.1,107.4,153.3,109.2,155.7z M112,34.8c-0.1,2.2,1,3.1,3.2,2.9c2.1-0.3,3.3-1.2,3.5-2.9C115.2,34.9,112.9,34.9,112,34.8z
		 M112.6,29.3c-0.2-0.7-0.3-1.8-0.3-3.3c0.1-2,0.1-3.1,0-3.5c2.2,1.2,3.1,2.6,2.9,4.2c-0.6,0.4-1.2,0.7-2,0.7
		c-0.1,1.5-0.2,2.1-0.1,2H112.6z M112.3,31.9c0.2-1.7,0.3-2.5,0.1-2.3h14.9v2.3H112.3z M114.5,35.1c-0.1,0.1,0.3,0,1.2-0.1
		c0.5,1.3,0,2-1.4,2.1c-1.4,0.1-1.9-0.6-1.5-2.1h1.3c-0.3,0.3-0.4,0.5-0.3,0.8l0.5,0.3c-0.2,0,0-0.1,0.5-0.4L114.5,35.1z M119,27.5
		c-1.3-0.7-1.9-0.9-1.9-0.8c-0.3-1.2,0.5-2.6,2.5-4.2c1.2,0.1,2.2,0.8,2.9,2.3c0.6,1.5,0,2.4-1.8,2.5v2H119
		C119,29.5,119,28.9,119,27.5z M121.3,167.9c-1.2,0.6-2,1.2-2.4,1.9c0.4,1.4,1.3,2.3,2.6,2.9c1.5,0.6,2.7,0.3,3.8-1
		c-1-0.1-1.8-0.6-2.4-1.4c-0.1-0.2-0.4-0.6-0.8-1.2C121.8,168.5,121.5,168.2,121.3,167.9z M126.4,27.5c-0.1-0.1-0.4-0.2-0.9-0.3
		c-0.4-0.1-0.7-0.2-0.9-0.3c-0.5-1.2,0.3-2.7,2.4-4.3c0.3,1.1,0.3,3.4,0.1,6.8h-0.5C126.9,29.4,126.8,28.8,126.4,27.5z M129.7,37.5
		c0.5-1,0.3-1.8-0.5-2.4c-0.8-0.6-1.3-0.5-1.4,0.2c0.5-0.5,1-0.5,1.4,0c0.4,0.4,0.6,1.1,0.4,1.9c-0.1,0.1-0.3,0.3-0.5,0.3
		c-0.3,0.1-0.5,0.3-0.5,0.3C128.7,37.8,129.1,37.7,129.7,37.5z"/>
</g>
</svg>
