<?xml version="1.0" encoding="utf-8"?>
<!-- Generator: Adobe Illustrator 21.1.0, SVG Export Plug-In . SVG Version: 6.00 Build 0)  -->
<svg version="1.1" id="Layer_1" xmlns="http://www.w3.org/2000/svg" xmlns:xlink="http://www.w3.org/1999/xlink" x="0px" y="0px"
	 viewBox="0 0 1024 1024" style="enable-background:new 0 0 1024 1024;" xml:space="preserve">
<style type="text/css">
	.st0{fill:#FFFFFF;}
</style>
<path d="M472.3,143.9c7.6-10.8,16.3-20.9,22.6-32.6c4.6,1.9,6.8,6.6,9.2,10.6c3.8,7.8,7.7,15.7,13.8,22c-0.8,5.2-6,7.3-9.2,10.8
	c-0.7,0.8-2,1.9-1.3,3.1c1.5,3.3,3.5,6.3,5.1,9.5c8.9-1.6,18.1-2.5,27-0.4c4.2,1.5,9.1-2.5,8.4-6.9c1-8.8-10.2-11-11.7-18.9
	c9.5-3.8,15.8-12.2,24.2-17.5c3.8-2.4,8.3-3.5,12.7-4c-9.3,25.4-11,52.8-10.5,79.6c-44.1,0-88.2,0-132.2,0
	c-1.3-26.9-4.3-54.1-13.3-79.7c7.8,2,14.5,6.8,20.7,11.7c4.9,4,9.6,8.1,13.9,12.6c-1.7,6.1-9.3,8.1-10.6,14.3
	c-0.6,1.7,0.9,2.8,2,3.8c4,3.7,9.6,5.2,14.9,4.8c7.5-0.8,15.1-1.7,22.6-2.3c0.4-3.4,0.8-7.5-1.9-10.1
	C475.9,151.3,473.2,148.1,472.3,143.9z"/>
<path d="M490.5,217.5c18.4-3.9,38.1-4.6,56,1.9c17.1,6.1,31.4,18.9,40.6,34.4c12.4,20.5,20.5,43.1,28.2,65.7
	c1.2,2.4,0.2,5.4-2.3,6.4c-4.1,1.8-8.8,0.7-12.7-1c6.4,13.7,5.2,29.3,3.8,44c-1.2,14.4-2.8,28.9-1.7,43.4c-1.6,0.8-3.5,2-5.3,0.9
	c-3.9-1.9-7.2-4.7-10.7-7.2c-3.2,16.9-9.8,33.4-20.5,47c-7.5,9.7-16.9,17.8-27.2,24.4c14.6,15.1,29.1,30.1,43.7,45.2
	c12.4,12.9,25.3,25.5,36.7,39.3c13.2,15.2,25.1,31.5,39.7,45.3c9,8.4,18.8,16.6,30.7,20.5c10.3,2.8,22,3.5,31.8-1.3
	c9.2-4.4,15.3-13.8,16.9-23.7c1.5-9.6,0.2-19.8-4.4-28.4c-3.8-6.8-10.8-12.4-18.8-12.7c-7.5,0-14.1,4.2-19.7,8.7
	c-0.8,7.2-1.1,14.9,2.6,21.5c-4.2,1.2-9.2,1.4-12.5-2c-6.9-6.5-8-16.7-8.8-25.6c-0.8-9.2,1.6-19.4,9.4-25.1
	c-17.8,5.3-37.7,6.7-55.2-0.5c-14.5-5.7-26.4-17-33.2-30.9c-14-27.5-8.6-63.5,12.8-85.7c4.5,9.9,8.7,19.8,13.4,29.6
	c-4.9,9.8-9.2,20.9-6.7,31.9c2.2,9.5,10.5,16.1,19.2,19.4c10.4,3.8,21.3,5.7,32.1,7.9c10,2.1,20,4.2,29.9,6.8
	c-2.8-6.3-7.2-11.6-11.7-16.7c-12.4-13.6-26.6-25.5-40.9-37.1c-14.8-12.4-26.8-28.9-30.7-48c-2.9-14.6-2.1-30,2.3-44.2
	c5.9-18.9,20-34.5,37.2-44.1c16.3-9.2,35-12.9,53.5-13.7c2.5,0,4.6-1.8,5.9-3.7c3.6-5.3,3.7-12.3,7.4-17.6c5-1.5,10.3-1.6,15.4-2.6
	c2.9,6.1,6,12.1,8.8,18.2c7.8-0.6,15.8,1.1,22.4,5.6c5.9,4,10.9,9.4,14.7,15.4c1.6,3.9-3,6.1-5.4,8.2c-16.9,12-35.1,22-53.1,32.4
	c-6.4-3.4-6.6-11.4-10.4-16.8c-1.9-2.9-5.7-3.5-8.8-4.3c-10.8-2.7-22.4,0.1-31.9,5.6c-10,6-19.5,13.6-24.8,24.1
	c-5.5,10.9-4.7,24.1-0.3,35.3c5.7,14.4,16.5,26,28,36c13.2,11,26.6,22.1,37.8,35.2c4.7,5.6,9.2,11.7,10.9,18.9
	c3.3-6.9,10.5-11,17.9-11.8c8.4-1,17.7-0.7,25.1,4c4.7,3.1,6.8,8.5,7.7,13.9c-8.3-0.5-17.6-1.3-24.7,3.8c-2.8,2.2-6,5.8-4.2,9.5
	c2.6,8.9,6.6,17.2,10.7,25.5c3.8,7.7,8.4,14.9,11.2,23c5.8,16,5.8,34.1-0.7,49.9c-6,14.3-17.8,25.7-31.5,32.5
	c-15.7,7.5-33.8,9.1-50.9,6.4c-23.1-4-45.3-17.8-55.6-39.4c-7.9,2.8-15.3,7.3-20.7,13.8c-9.2,11-12.8,25.5-14.1,39.5
	c-0.9,10.4-0.1,21.4,5.2,30.6c4.2,7.4,11.3,12.8,19.2,15.9c3.4,1.7,7.1-0.2,10.3-1.5c6.2-2.9,9.6-9.4,11-15.8
	c7.2,14.6,8,32,2.5,47.3c-5.5,17-17.6,30.4-26.5,45.6c-8.3,13.9-16.8,28.4-19.1,44.7c-0.8,2.3-4.5,2.4-5.9,0.5
	c-2.6-2.7-5.3-6.8-9.6-5.9c-5.8,1.9-10.6,6-14.3,10.8c-7.8,10.1-8.7,23.6-16.2,33.8c-2.9,3.8-6.5,8.7-11.8,8.7
	c-7.8,0.6-15.7,1.5-23.5,2.4c-3.7,0.4-7.5,1.9-9.5,5.1c-2.3,3.4-1.8,7.6-2.4,11.5c-2.1-1.9-4.4-3.8-7.4-4
	c-2.4-15.7-6.2-31.8-2.9-47.6c-3,1.7-4.8,4.7-5,8.1c-0.5,7.2,0.3,14.4,0.3,21.6c-5.6-0.5-12-0.4-16.4,3.6c-3,2.5-4,6.5-5,10.1
	c-4.2-1.5-6.9-5.5-7.5-9.8c-1.1-7.5-1.1-15.2-2.9-22.6c-1.4,2.5-2.3,6.7-5.8,6.8c-4.2-1.2-7.1-4.8-10.5-7.2c-3.7,2-6,5.4-8,8.9
	c-1,2-3.6,1.1-4.8-0.2c-1.6-9.5,0.3-19.8,6.2-27.5c5.7-7.2,12-14,17.7-21.1c-4.5-0.9-7.4,3-9.6,6.2c-2.9,4.5-6.2,9.2-11.5,10.9
	c0.8-4.3,1.9-9.5-1.6-12.9c-4-3.8-9.9-2.8-14.9-3.7c1.8-3.7,4.1-7.4,7.6-9.7c4.8-3.4,10.9-3.8,16.4-5.5c4.8-1.2,9.5-3,13.6-5.9
	c13.4,8.5,29.4,13.7,45.3,12c15.9-1.5,30.5-9.6,42.5-19.9c14.2-12.3,25.9-27.3,36.5-42.8c-2.3-1.9-4.8-4.1-7.9-4.1
	c-4.9-0.2-8.7,3.3-12.1,6.3c-6.1,5.2-13.8,10.2-22.2,8.7c1.4-6.5,3-13,2.9-19.6c0.1-3-2.2-5.4-3.5-8c-8.7-15.2-20.5-29.2-24.5-46.7
	c-4.6-16.5-0.2-33.6,1.4-50.2c0.8-8.9,1.5-18-0.2-26.9c-2.1-7.5-7.8-13.3-13.2-18.7c-11.3-10.6-24.1-19.5-37.1-27.9
	c-14.1-8.9-28.8-17.3-44.8-22.2c-9.2-2.7-19.3-4.4-28.7-1.5c-6.8,2.1-12.4,7.2-15.9,13.2c-1.5,2.2-0.2,5,0.7,7.2
	c3.4,6.2,10.6,8.7,17,10.6c-3.4,8.7-12.5,12.8-21,14.8c-9.9,2.6-21.4,2.5-29.6-4.4c-9.2,5.3-16,13.5-23.3,21
	c6,8.4,5.5,19.4,3.7,29.1c-1.2,7-4.1,13.7-8.9,18.9c-0.6-4.8-3.9-8.9-8.7-10c-6.1-1.7-12.6-2.8-18.2-6c-8,7.7-14,17.4-23.2,23.7
	c-6.5-1.1-12.9-3.3-19.5-3.3c-4.9,0.6-9.1,3.3-13.1,6c-1.3-13.3,1.7-27.3,9.7-38.1c3.4-4.9,7.8-8.8,12.1-12.8c-5-1.5-9,2.5-12.1,5.8
	c-3.9,3.8-8.6,8-14.4,8c-3.6-2.2-5.9-6-9.6-8c-4.2-1.4-8.2,1.3-11.9,3c-0.8-5.9,1.2-12.1,5.7-16.1c4.9-4.2,9.6-9.4,10.2-16.2
	c9.9-0.1,19.7,1.8,29.5,2.7c-1.6-2.9-3.8-5.7-7-6.8c-6.3-2.3-13.3-1.6-19.8-0.8c0.2-5.6,0.8-12-2.9-16.6c-2.5-3.1-6.7-2.7-10.2-2.9
	c5.5-5.2,12.4-9.1,20-10.2c14.7-2.1,31.2,1.6,40.9,13.5c21.8-12.8,35.7-34.8,55.4-50c-11.9-9.5-26.3-16.4-35.5-29.1
	c-3.1-4-5.2-8.7-6.8-13.5c19.1-5.1,35.1-17.8,47.9-32.5c11.3-13.4,22.2-27,34.3-39.7c6.6-6.9,13.4-13.9,22.4-17.6
	c18.6-8.2,38.6-12.9,58.3-17.7c13-2.8,26.3-6.7,36.6-15.3c6.3-5.1,10.7-12.4,12.2-20.3c-3.3-1.8-7-3.4-10.9-2.5
	c-9.3,2.1-16.5,11.4-15.5,21.1c-8.2-3.8-15.9-9.7-19.4-18.3c-4.7-10.5-2-22.7,3.5-32.4c6.5,4.7,13.3,9.8,21.4,11.3
	c1.9-1.3,4-2.4,5.8-3.8c4.6-5.7,6.6-13.6,4.9-20.8c-1.5-7.5-6.6-14-13.1-17.8c-5.9-3.4-13.8-2.9-19.1,1.2c-3.8,2.8-5.9,7.2-7.7,11.4
	c-6-12.6-12.7-25.4-13.5-39.5c3.5-0.2,6.9-0.9,10.3-2c3.7-1.3,7.7-1,11.6-0.9c-1.3-2.2-2.9-4.6-5.7-4.9c-6.2-0.8-12.4-0.2-18.6-0.9
	c5.2-7.2,14-10.1,22.5-11.1c10.8-1.1,21.8-1,32.6-1.8C483.7,221.6,486.5,218.3,490.5,217.5z"/>
<path class="st0" d="M488.7,231.3c8.7,0.6,17.4,0.9,26.1,2.2c-8,4.6-17,6.9-26.1,8.4C488.7,238.3,488.7,234.8,488.7,231.3z"/>
<path class="st0" d="M549.3,232.9c3-0.3,6.3,0,8.4,2.4c5.9,6.1,7.3,15.5,6.1,23.6c-0.8,5.5-6,8.7-11.2,9.2
	c8.1-6.9,8.6-19.4,3.5-28.2C554.5,237.1,551.7,235.1,549.3,232.9z"/>
<path d="M337,278c5.9-5.3,14.1-7.6,22-7.2c2.4,0.1,3.4,2.9,2.7,4.9c-1.5,5.6-6.5,10.8-4.3,16.9c3.5,5.1,9.6,7.8,15.4,9.4
	c14.5,3.4,29.2-0.9,42.9-5.6c18.2-5.7,37.6-10.6,56.8-7.1c-19.4,5.6-37,15.7-55.3,23.8c-16.5,7.5-33.4,15-51.4,17.5
	c-9.4,1.2-20.1,0.7-27.6-5.7c-6.6-5.6-9-14.6-10-22.9C326.9,293.2,330.3,283.9,337,278z"/>
<path d="M282,302.3c5.9,1.9,11.7,5.4,14.8,10.9c2.6,4.5,3.6,9.7,3.6,14.8c-1.1,11.6-3.6,23.3-2.8,35c1.2,10.1,7.3,19,14.7,25.7
	c10,8.7,20.9,16.8,28.2,28.1c-5,9.6-11.3,18.3-17.7,27c-3.4,4.2-6.8,8.7-11.5,11.5c-3.2,2.1-7.3,0.5-10.2-1.5
	c-8.5-6.3-13.3-16.1-19.9-24.1c-5.1-6.3-10.6-12.7-18.2-15.9c-6.5,3.7-8.7,11.7-15.1,15.5c-6,0-12-0.2-18,0.2
	c-6,0.6-12.4-0.5-17-4.7c3.2-1.9,6.7-4,8.4-7.5c2.8-4.9,1.1-10.7,2.1-16c0.5-4.3,2.5-8.3,5.3-11.7c-1.6-3.9-4.6-7.2-8.4-9
	c-5.3-2.6-10.7-5.3-15.3-8.9c1.6-11.2,0.3-23.5-7.8-32.1c10.6,0.8,21.2-1.2,31.6-2.7c4.5,2.5,6.8,7.4,9.9,11.2
	c2.4,3.1,5.5,5.7,8.9,7.5c-2.8-16-15.6-28.6-16.3-45.2c7.3-1.6,15-0.3,21.4,3.6c10.6,6.4,18.8,16.5,23.7,27.8
	C276.1,328.6,278.4,315.2,282,302.3z"/>
<path d="M714.4,405.4c5.8-5.8,1.1-17.2,9.4-21.1c13.8,8.9,29,15.3,42.8,24c5.6,3.7,11.1,7.7,15.4,12.9c0.9,1.9,0.6,4.5,0.2,6.6
	c-9,12.2-23.3,21.7-39,20.7c-0.8,4.4-2.2,9-5.9,11.9c-4.4,3.7-10.4,3.9-15.8,3.8c-0.1-7.6-3.8-15.4-10.7-19.1
	c-11.5-6.4-25.2-5.8-38-5.1c-2.7,0.3-4.6-1.9-6.6-3.3c-8.6-7.1-13.2-17.7-16.1-28.2C671.6,407.4,693,406.4,714.4,405.4z"/>
<path d="M428.4,580.5c8.2-4,17.8-5.5,26.8-3.5c7.3,1.5,14,5,20.1,9.1c-2.1,5.7-2.5,12.4,0.7,17.9c2.5,5.1,7.6,7.8,11.9,11.1
	c3.6,2.8,7.5,5.3,11,8.3c0.7,9.6,0.1,19.3,0.3,29c-5.4-2.7-10.7-5.6-16.5-7.3c-1.7-0.4-3.8-1.1-5.4,0c-7.7,4.3-14.6,11.2-16.3,20.1
	c-1.9,9.8,1.9,19.7,6.6,28.2c5.5,9.5,11,19,16.5,28.5c1.1,2.5,3.9,3.6,6.1,4.9c7.5,4.3,15.1,8.5,22.5,12.9c-6.7,9.7-18,14.7-29,17.9
	c-12.8,3.8-26.1,4.8-39.1,7.2c-8.6,1.6-17.2,3.4-25.6,6c-6.2,2-12.5,4.4-17.8,8.4c-0.5-7.5-5.9-13.3-11.1-18.2
	c-8.3,2.4-15.2,7.9-22.1,13c-4.7,3.8-9.9,7.4-16,8.2c-5.1,0.9-10.2-0.7-14.9-2.6c-2.6,1.8-5.3,3.7-7,6.4c-1.9,2.9-2.5,6.4-3.4,9.7
	c-4.5-3.7-7.5-9-8-14.8c-1.1-11.6,2.2-23.4,8.2-33.2c-3,0.4-6.4,1.5-7.6,4.6c-1.8,4.5-2,9.4-2.9,14.2c-7.7-1-14.6-6-22.5-5.7
	c-2.5,0-4.8,1.3-7.1,2.3c2.7-16.5,13.8-29.8,24.2-42.3c-4.2-0.4-7,2.9-9.5,5.8c-3.7,4.8-8,9.7-14.3,11.1c-0.5-4.8-0.6-10.2-4.3-13.7
	c-3.8-3.7-9.6-3.3-14.5-3c4.2-10.4,15.2-15.6,25.5-17.6c7.5-1.6,15.3-0.4,22.6,1.6c-1.5-3.3-4.5-5.8-8.1-6.3
	c-4.6-0.6-9.3-0.7-13.9-1.1c0.8-4.5,2.1-8.9,2.6-13.5c0.5-2.7-2.2-4-4.1-5.3c12.5-1.7,25,2.2,36,8c8.1,4.2,15.7,9.4,23,15
	c12.1,9.1,26.6,15.4,41.7,16.8c9.4,0.9,19,0,28.1-2.3c-5.3-14.4-15.6-26.1-23.3-39c-5.4-9.1-8.7-19.5-8.6-30.1
	c-7-6-16.7-8.3-22.4-15.9c-3.6-4.4-4-10.3-3.8-15.8c5-0.5,9.9-1.8,14.5-3.9c11.2-4.9,21.4-11.6,31.3-18.6
	C415.9,588.6,421.6,583.6,428.4,580.5z"/>
<path class="st0" d="M462.3,843.2c0.9,1.5,2.4,2.9,2.1,4.8c-0.6,2.8-2.4,5.2-3.6,7.8c-1.4,2.8-1.7,5.9-2.4,8.9
	c-1.1-2.4-2.5-4.9-1.7-7.6C457.9,852.2,460.5,847.8,462.3,843.2z"/>
</svg>
