<?xml version="1.0" encoding="utf-8"?>
<!-- Generator: Adobe Illustrator 21.1.0, SVG Export Plug-In . SVG Version: 6.00 Build 0)  -->
<svg version="1.1" id="Layer_1" xmlns="http://www.w3.org/2000/svg" xmlns:xlink="http://www.w3.org/1999/xlink" x="0px" y="0px"
	 viewBox="0 0 1024 1024" style="enable-background:new 0 0 1024 1024;" xml:space="preserve">
<style type="text/css">
	.st0{fill:#FFFFFF;}
</style>
<path d="M437.6,98.6c49.3-4,99.4,0,147,13.9c70.1,20.1,134,61.1,181.4,116.5c24.5,28.7,45,60.8,60.9,95.1
	c32.5,70.4,43.2,150.1,33.3,226.8c-5.9,46.6-19.9,92-39.9,134.4c-1.5,3.3-6.1,4.3-9.1,2.6c-2.7-1.6-4.6-4.2-6.2-6.8
	c-3.1-5-6.1-9.9-9.1-14.9c-31.8,47-68.1,91.7-112.9,127c-9.8-4.3-13.3-16-23.1-20.4c-47,33.7-85.8,78.5-114.3,128.8
	c-3.7,6.3-7,12.9-10.5,19.3c-9.3,0.5-18.5-2.1-26.6-6.4c-5.9-2.5-11.6-6-18.1-6.4c-3.6,1.9-1.6,6.7-1.7,9.9c0.2,2.6,0.2,7.8-3.7,7
	c-31.2-3.5-61.1-14.8-88.9-29.1c-29-15.2-56.8-32.9-81.3-54.7c-22.3-20-42.3-43.6-53.2-71.8c-8.2-21.2-10.6-45.3-3.3-67.1
	c5.1-15.8,15.3-29.4,27.4-40.6c-9-4.7-19.5-5.6-29.4-4.5c-17.9,1.9-34.4,9.7-52.1,12.7c-11.9-15.1-14.9-35.1-14.9-53.8
	c-0.4-14.1,2.2-28.9,10.9-40.3c-11-20.2-14.2-43.2-19.5-65.3c-3.9-15-8.6-30.5-19.2-42.3c3.5-14.8,9.6-29,18.3-41.6
	c14.1-20.5,34.5-35.5,55.4-48.6c9-5.8,18.3-11.1,27.5-16.6c4.5-13.9,5.6-28.8,5.3-43.4c-0.4-18.6-3.9-37.1-8.9-55
	c7.8-6.5,17-11.1,27-13.1c0.6-13.7,0.6-27.7-3.9-40.8c20.4-19.6,40.8-39.2,61.2-58.8c11-10.4,24.5-19.2,39.8-20.7
	c12.6-1.3,25,3.2,35.3,10.1c3.6-4.5,7-9.2,10.5-13.7c1.1-1.6,2.6-3.1,3-5C433.8,113.4,435.6,106,437.6,98.6z"/>
<path class="st0" d="M465.1,126.9c48.5-3,97.6,4.3,143.3,20.7c-11.7,2.6-23.6,4.5-35.2,7.6c-23.7,6.1-47,14.4-68,27
	c-13.3,7.9-25.2,17.9-35.9,29.1c-16.2,16.7-31,35.1-49.5,49.5c-7.7,5.8-16.5,11.5-26.5,11.1c0.3-6.9-3.3-13.1-6-19.3
	c-12.8-26.1-28-50.9-42.8-75.8c10.5-5,21.3-9.4,32.3-13.1c5.9-1.9,11.9-3.8,18.1-3.7c3.5,11,4.1,22.6,4.4,34
	c0.1,20.3-1.2,40.7-0.6,61c11.8-23.6,23.6-47.2,35.6-70.8C444.2,165,453.6,145.4,465.1,126.9z"/>
<path class="st0" d="M560.3,174.3c19.3-7.1,40.1-9.9,60.6-9.6c19.8,0.5,39.9,4.4,57.4,14c14.3,7.7,27.1,18,38.7,29.3
	c26.3,25.7,47.5,56,66.9,87.1c24.9,40.9,45.5,85.6,51.1,133.6c3.3,25.2-1.8,50.5-0.4,75.8c-13.4-35.8-27.7-71.4-46.1-105
	c-16.6-30.6-37.4-59.3-64.1-82c-19.1-16.5-41.2-29.3-64.7-38.3c11.7-5,24.9-4.8,37.1-2.3c17.1,3.4,33.1,10.9,48.5,19
	c-11.7-15.7-28.8-26.5-46.8-33.6c-35.9-13.9-75.8-15.3-113.2-7.4c0-6.6,2.7-13.2,7.7-17.6c8.4-7.5,19.6-10.5,30.3-12.7
	c16.9-3.1,34.4-4.1,51.3-1.1c9.9,1.7,19.5,5.3,28,10.6c-8.8-12.5-22.7-20.4-37.2-24.8c-23.2-7.1-47.8-6.9-71.8-6.2
	c-23.4,0.7-46.8,2.8-70.3,2.1C530.6,190,545.2,180,560.3,174.3z"/>
<path class="st0" d="M309.7,207.7c5.3-5.3,12.3-8.3,19.3-10.7c15.2,12.9,23.2,32.2,27.5,51.2c1.4,6.2,2.5,12.4,3.2,18.8
	c-17-1-33.6-9-44.4-22.3c-4.9-6.1-10.1-12.6-11.4-20.6C303,218.1,305.5,211.9,309.7,207.7z"/>
<path class="st0" d="M480.3,249.3c13.9-7.3,30.2-9.4,45.7-7.3c22.2,2.9,43.4,12.9,59.6,28.3c11.7,11,20.8,25.5,23.3,41.6
	c-4.1,8.6-11.6,15.2-19.1,21c-17,12.6-36.5,21.1-56.1,28.8c12.6,1.4,25,4.2,37.3,7c1.5,0.4,3.1,0.7,4.2,1.9
	c11.1,10.2,20.4,22.4,27.1,35.9c7.8,15.4,12.4,32.3,14.2,49.5c-14-10.6-30-18-46.3-24.5c9.8,19.2,13.1,40.9,14.9,62.1
	c1,18.1-0.3,37.8-11.3,52.9c-9-3.5-14-12.3-18.2-20.5c-3-5.4-5.2-11.3-9-16.2c0.3,16.6-2.1,33.3-8.1,48.8
	c-5,13.1-11.9,25.5-20.3,36.8c-14.5,16.5-29.1,32.9-43.6,49.4c-11.5,13.2-23.6,25.9-34,40c-11.6,15.6-21.7,32.6-27.8,51.1
	c-6.5,19.3-8.2,40-6,60.1c2.4,23.2,9.7,45.5,18.9,66.8c-13.6-11.3-27.1-22.8-40.3-34.5c-7.4-6.6-14.9-13.1-21.6-20.4
	c-11-12.8-20.1-27.6-23.9-44.1c-3.1-13.5-2.6-27.9,2-40.9c5.8-14.1,17.6-24.5,29.5-33.4c17.3-13.1,37.1-22.2,55.7-33.3
	c16.6-10,33.3-20.3,47.8-33.2c10.8-9.5,18.1-22.3,23.4-35.6c9.2-23.5,9.2-49.7,4.2-74.2c-4.4-20.7-11.4-40.6-18.6-60.4
	c-3.5-9.3-6.9-18.7-10.9-27.9c6.1,23.8,9.9,48.4,8.9,73.1c-1.1,36.1-13,71.8-33.7,101.4c-16.8,24.1-39.6,43.8-65.2,58.1
	c-0.9-18.1,6.1-36,17.4-49.8c10.1-12.2,20.9-23.8,31.6-35.4c10.4-11.5,19.4-24.5,25-39c6.6-16.7,8.1-35.4,3.7-52.9
	c-10.9,10.1-17.5,23.7-26,35.6c-6.8,9.2-16.6,16.8-28.2,18.3c-2.3-6.3-1.1-13.1,0.1-19.5c2.9-12.9,7-25.7,7.6-39
	c-2.9-2.3-6.8-3.7-8.4-7.4c-15.6,7.3-31.2,14.7-46.8,22c-14.6,6.4-30.3,10.5-46.3,10.9c5.1,18.7,14.2,36.7,28.3,50.1
	c4.2,4.3,9.3,7.6,14,11.3c-11.6-0.1-21.7-6.3-31.2-12.3c-1.2,2.1-2.6,4.2-3,6.6c-1,6.4,3.6,11.9,3.4,18.2c-5-1.9-9.1-5.4-13.9-7.6
	c-2.8-1.6-6.6,2.1-4.8,4.9c2.2,4.5,5.3,9.6,3.3,14.8c-21.1-9.2-44.5-11.3-65.8-20c-11.8-4.5-23.4-10.7-31.3-20.8
	c-7.3-9.2-10-21.8-7.4-33.2c1.8-7.1,6.9-13,12.9-17c5.7-4,12.4-6,18.3-9.6c8.7-5.1,16.4-12.7,19.1-22.6c-27.2,3.6-54.8,6.8-82.2,4
	c8.4-24.1,26.4-43.8,46.9-58.5c20.9-14.8,43.9-26.3,65.5-40.1c0.6-1.5,0.1-3.2,0.1-4.7c-1-14.6,2.9-29.8,12.4-41.2
	c4.8-6.3,11.4-10.7,17.7-15.4c8.9-6.3,17.9-12.9,25-21.3c-14.9-0.3-27.7,8.5-39.3,16.8c-6.5-4.2-9-12.1-10.2-19.3
	c-0.8-4.5-1.3-9.1-1.3-13.7c16-4.1,33.3-3.7,48.7,2.7c7.9,3.3,15.1,9.5,17.6,17.9c-8.1,7.9-18.1,13.5-27.4,19.8
	c-7.4,5.1-13.6,12.5-15.3,21.6c18.1-9.2,32.5-24.5,51.2-32.8c12.6-5.6,27.7-6.8,40.4-0.9c8.5,3.6,15.1,10.3,22.8,15.1
	c6.8,4.6,14.3,8.2,22.4,10.2c-1.9,7.1-10.2,9.4-12.4,16.4c1.7,3.3,4.1,6.5,7.6,7.9c4.1,1.6,8.8,1.1,13,0c8.9-2.5,17.7-5.1,26.6-7.6
	c-5.2,21.5-5.8,44.3-0.5,65.8c6.9,29.3,23.5,55.4,43.4,77.6c-3.9-37.9-8.3-75.7-12.3-113.6c-1.2-14.3,0.4-30.4,10.5-41.4
	c11-11.9,27-17.4,42.4-21c0.5-0.2,1.4-0.7,1.9-1c-4.5-13.9-13.9-27.2-27.8-32.9c-14.3-6.1-30.4-3.9-45.2-0.8
	c-15.6,3.5-31.2,7.7-47.2,9.2C455.4,268.7,466.4,256.4,480.3,249.3z"/>
<path d="M350.3,338.3c7.5-8.1,18-13.2,29-14c-8.4,9.1-17,18.1-23.4,28.8c10.6,10.3,23.8,18.4,38.5,21c-9.8,5.8-18.5,14.8-30.4,16
	c-5.7,0.8-11.3-1-16.1-3.9c-9.5,4.5-17.3,11.7-25,18.6c-7.6,6.7-14.3,14.5-22.6,20.4c-10.9,7.9-24,13.2-37.5,14.2
	c22.1-26.9,53.4-44.2,85.2-57.2c-5.1-4.4-9.8-10.1-10-17.2C337.6,354.8,343.4,345.5,350.3,338.3z"/>
<path class="st0" d="M671.8,349.3c30.6,6.3,58.7,23.3,78.7,47.2c24.5,28.8,38.6,65.1,45.2,102c5,27.9,5.9,56.5,4.2,84.7
	c-9.1-15.2-14.4-32.4-23.4-47.7c-7-12.8-17-24.7-30.8-30.2c2.7,40.9-2,82.9-18.5,120.7c-6.6,15.2-15,29.6-26,42
	c-11.3,13-25.6,23.6-41.5,30.4c0.2-15-2-29.9-4-44.7c-4.1,16.3-12,31.5-21.5,45.3c-12,17.6-26.4,33.5-41.7,48.4
	c-19,18.3-36.7,38.3-49.7,61.4c-7.3,12.9-12.7,27-15.5,41.6c-9.7-14.9-15.1-32.7-14.6-50.5c0.7-19.3,8-37.9,18.1-54.2
	c8-13.3,18.6-24.6,28.4-36.5c13.5-16.2,27.9-31.7,40-49c5-7.3,9.9-14.7,13.3-22.9c-27.1,23.8-56.9,44.2-83,69.2
	c-23.9,22.4-41,52-48.1,84.1c-3.9,16.9-5.1,34.3-4.7,51.6c-9.6-17.6-17.1-36.5-21.1-56.2c-4-19.7-4-40.4,1.2-59.9
	c3.6-14.1,10.1-27.2,17.9-39.4c11.2-17.6,24.9-33.6,39.3-48.7c12.2-12.8,25.2-24.8,37.8-37.2c16.6-16.4,33.2-32.8,49-50
	c24-25.7,42.7-56.9,50.7-91.3c3.7-15.5,4.8-31.5,4.3-47.3c6.8,15.3,10.2,32,12,48.6c2.5,25.4-0.2,51.1-5.9,76
	c-5.5,23.9-15.1,46.8-29.2,66.9c14-3.7,26.3-12.7,34.7-24.4c11.4-15.7,17-34.8,20.4-53.7c4.1-24.3,4.9-49.1,3.8-73.7
	C690.2,417.1,683.4,382.3,671.8,349.3z"/>
<path d="M523.8,362.6c3-1.2,6.3-1.1,9.5-0.9c-3.2,1.5-6.6,2.9-10.1,3.4C523.3,364.5,523.6,363.3,523.8,362.6z"/>
<path d="M384,397c8.4-3.7,19-4.7,26.7,1.1c-1.9,4.5-4.1,9-6.2,13.4c-2.6,5-8.2,7.8-13.7,7.8c1.3-3.3,4.7-6.1,3.9-9.9
	c-0.5-2.1-2.8-2.9-4.7-2.9c-4.8,0-9.6,0.5-14.5,0.2C376.6,402.3,380,398.8,384,397z"/>
<path class="st0" d="M188.8,505.4c7.9,3.2,11.3,11.7,13.2,19.4c2.5,11.3,4,23,9,33.5c-8.4-4.7-14-13.2-17.1-22.1
	C190.4,526.3,189.1,515.8,188.8,505.4z"/>
<path class="st0" d="M209.4,601.4c5-9.9,10.3-19.7,14.5-29.9c15.7,5,30.9,12.3,43.5,23.2c9.5,8.3,17.3,18.5,22.1,30.1
	c-24,8.2-50.5,2.7-74.3,11.8c-3.9-4.3-7.5-9.3-8.7-15.2C205.1,614.7,206.1,607.5,209.4,601.4z"/>
<path class="st0" d="M283.5,731c-0.8-14.6,4.5-29.2,14.2-40.1c9.9,41.4,27.4,80.5,47.7,117.7c6.9,12.9,14.6,25.2,22,37.9
	c-27.8-15.1-49.3-39.4-65.9-66C292.2,765.5,284.4,748.8,283.5,731z"/>
</svg>
