<?xml version="1.0" encoding="utf-8"?>
<!-- Generator: Adobe Illustrator 21.1.0, SVG Export Plug-In . SVG Version: 6.00 Build 0)  -->
<svg version="1.1" id="Layer_1" xmlns="http://www.w3.org/2000/svg" xmlns:xlink="http://www.w3.org/1999/xlink" x="0px" y="0px"
	 viewBox="0 0 900 900" style="enable-background:new 0 0 900 900;" xml:space="preserve">
<style type="text/css">
	.st0{fill:#FFFFFF;}
</style>
<path d="M282.6,109.9c5-3.5,10.6-7.2,17-6.9C294.2,105.9,288.4,107.9,282.6,109.9z"/>
<path d="M298.9,110c5.8-5.2,14.2-5.5,21.4-3.3c8.6,2.6,16.7,7.6,22.1,14.9c1.1,1.2,1.6,2.6,1.4,4.2c-3.6-1-4.7-5.2-8.3-6.3
	c1.1,12.4,4.7,24.5,7.5,36.6c2.2,8,3.1,16.8,8.6,23.4c8.6,10.8,21.7,17,34.6,21.2c-8.8-4.3-17.2-9.8-23.8-17
	c-10.8-10.1-16.8-25.2-15.3-39.9c4.7,11.3,5,24.7,12.8,34.7c-4-11.8-3.8-24.3-4.2-36.6c-1.5,6.7-1.4,13.7-1.8,20.5
	c-2-5.5-2-11.5-2.9-17.3c0.1-5-3.3-9-5.4-13.2c0.8,0,2.4,0,3.2,0c-2.2-6.8-5.9-13-11.5-17.6c5.7-0.1,7.7,6.3,10.6,10.1
	c0.9-3.1-3.5-5.1-2.4-8.5c4.6,3.4,5.8,9.4,10.1,13.1c0.6-0.9,1.1-2,1.7-3c4.1,5.5,7,11.8,11,17.4c3.2-7.4,5.5-15.3,9.7-22.3
	c-3.4,12-7.5,24.2-7.1,36.8c-0.1,3.9,0.6,7.9,2.4,11.4c2.2-8.7,0.4-17.9,3.5-26.3c2,9.3-2.2,18.9,0.8,28.1
	c0.2-5.1-0.3-10.2,0.4-15.2c1.7-12.4,7.1-24.2,14.9-33.9c4.4-5.6,10.6-10.3,17.9-10.7c-12.7,7-20.4,20.7-23.1,34.6
	c-1.4,6.7-0.5,13.6,1.1,20.2c-1.7-5.9-3.5-11.8-6-17.5c-4.8,8,5.7,15.2,2,23.3c-1-2.8-1.8-5.7-3.2-8.4c0,4.4,1.1,9.3,4.4,12.5
	c2,0.8,4.2,1.5,6.3,2.1c-0.7-4.1-1.9-8.1-1.4-12.2c-0.5-9.7,0.7-19.7,4.7-28.6l-0.5-0.1c0.8-0.9,2.3-2.6,3.1-3.5
	c0,2.9-1.5,5.4-2.2,8.1c10.7-8.9,20.3-19.3,32.7-25.9c-0.2,0.7-0.7,2.1-1,2.8c4.2-0.9,8.2-3.3,12.6-2.9c-8.3,5.3-17,9.7-25,15.4
	c-10.2,7.6-16,20.3-15.9,32.9c4.9-14.7,14.3-28.9,29-35.2c-0.9,1.5-1.9,3-2.9,4.5c9.3-5.2,20.1-6.6,30.6-7.1c4.3,0.1,9-0.6,12.9,1.6
	c2.2,1.2,2.3,3.9,2,6.1c2.2-0.1,4.7-0.3,4.8-3c3.3,4.5,8,7.6,12.4,10.8c-9.5-5.2-20.3-6.7-31-7.8c-8.1-0.4-17-0.2-23.9,4.9
	c5.8,0.8,11-2.8,16.6-3.5c1.4,4.3-3.8,3.2-6.3,3.9c2.7,1.1,5.7,0.6,8-1.2c3.1-2.3,7-3.7,10.8-2.5c0,0.7,0.1,2.2,0.2,3
	c-2.1-0.8-4.3-1.6-6.6-1.8c8.5,7.3,18.9,11.9,28.2,18c-6.7-4-14.1-6.7-21.9-6.9c-11.6-0.4-23.9,0.6-33.9,7.1
	c-4.7,3.2-8.1,8.2-9.3,13.8c4.8-4.6,9.6-9.8,16.3-11.4c3.7-1.2,7.5-0.5,11.1,0.7c-5.4,2.5-10.7,5.2-16,8c-4.7,2.5-8,7.5-8,12.9
	c1.2-2.7,1.9-5.6,3.7-8c1.5,5.5-2.4,11.2,0.3,16.5c1.3-3.4,2.6-6.9,5-9.7c3.4-4.6,8.5-7.2,13.1-10.3c-2,1.4-2.3,3.2-1.2,5.3
	c8.8-3.7,17.6-8.2,27.3-8.4c-0.4,1.9-0.7,3.8-0.8,5.8c3-0.4,6.1-0.6,9.1-0.8c0.5,6.5,8.1,6.8,13,8.2c-13.3-0.9-27.1-2.6-40,1.6
	c-6.2,2-12.4,6.7-13.2,13.6c1.9,2.9,5.2,4.5,8.1,6.2c-3.4,3.7-8.1-1.8-11.8,1.1c4.9,2.1,10.3,1.8,15.5,1.6c11.3-0.4,22.5-4,33.8-2.2
	c3.9,0.4,7.5,1.9,11,3.7c-0.6,4.2-1.5,8.7,0.1,12.8c1.8,4.9,6.7,8.5,11.9,8.7c11.8,2.1,23.7,3.6,35.1,7.2
	c18.6,5.6,36.7,12.7,54.8,19.9c-0.3,1.3-0.5,2.7-0.7,4c4.4,1.5,10.7,0.5,12.6,5.8c-5.5-1.3-11.9-3.4-17,0.2c1.5,1.3,3.1,2.8,5.2,2.7
	c6.5,0.1,12.7-2,19.1-2.7c1.8,3.8,3.3,7.9,3.7,12.1c2.7-0.6,4.4-3,6.6-4.5c-0.9,3.4-4.2,5.1-6.8,7.2c-4.5,3.5-9.2,7.3-11.4,12.7
	c9.1-5.9,18-12.4,27.6-17.5c5.1-2.7,10.4-5.6,16.4-5.4c-15.1,4.9-30.8,12.1-39.4,26.1c-2.8,3.1,1.2,6.6,0.8,10.1
	c5.1-1.1,6.7-8.4,12.6-7c-3.1,4.3-7.8,7.1-12.8,8.8c-2.1-3.8-3.6-7.9-5.3-12c-0.9,1.1-1.8,2.1-2.7,3.2c1,1.7,2,3.4,3,5
	c-2.5-0.7-4.9,0.3-6.8,1.8c0.9,3.5,1.4,7.1,0.2,10.6c0.7-1.3,1.2-2.7,1.8-4c3.4,1.2,6.6,2.9,9.7,4.6c-1.2,0.9-2.4,2.8-4.2,2.1
	c-3.1-0.9-6.3-1.3-9.1,0.6c1.8,3.2,4.4,5.8,6.8,8.6c-5.6,9-6,20.1-11.2,29.3c-1.5-6.7-4.5-12.9-6.8-19.3c-7.8,3.4-15.9,6.8-24.6,6.3
	c-2.6,2.9-5.5,6.3-5.2,10.5c0.1,3.4,2.5,6,5,8c7.4,5.8,16.5,8.4,24.9,12.4c-12.8-1.4-24.2-10-37.3-8.7c0.1-3.2,0.1-6.5,0-9.7
	c-7.3-0.6-14.4,2.1-21.6,2.3c-2.7,0.1-5.4,0-8.2,0.1c1.5,0.9,3,1.7,4.6,2.5c-0.7,0.2-2,0.5-2.6,0.6c8.3,0.3,16.1,3.5,23.9,5.9
	c11.3,3.6,22.2,9.7,34.4,9.5c5.2,0.1,10.3-1.4,14.8-4.1c0-5,0-10,0-15c4.5-5.7,13.5-3.1,17.3,2.1c3.1,4.6,3.3,11.1,0.5,15.9
	c-2.6,4.8-7.2,8-11.6,11c-5.8,3.9-12.5,6.5-19.5,6.9c-0.4,4.9,2.1,9.3,1.8,14.2c-0.7,0.1-2.1,0.4-2.8,0.6c-0.1-2.3-0.1-4.6-0.2-7
	c-0.6,0.9-1.2,1.7-1.8,2.6c1.2,7.3,9.2,10.7,10.8,17.8c0.5,1.9-0.3,3.7-0.7,5.5c2.3,0.5,4.6,1.3,6.7,2.3c-1.8,0.2-3.7,0.4-5.5,0.5
	c2.4,3.8,7.6,3.5,10.3,6.8c0.9,4.3-6.7,3.6-5.3,8.3c1.8,0.1,3.6,0.4,5.2,1.4c-0.7,3.4,1.5,5.9,4.7,6.5
	c-12.1,12.5-17.8,29.4-24.3,45.2c-7.9,0.8-15.5,4.1-23.4,3.5c1.8,3.6,3,7.5,4.5,11.2c1.8-1.3,3.1-4,5.6-3.5c1.7,2.2,1.8,5.1,2.5,7.7
	c1.3-1,2.3-2.3,2.7-4c5.7,6,12,11.6,19.2,15.8c4.3,2.3,9.1,4.3,14.1,3.4c0.9-1.4-0.6-2.1-1.5-2.8c-2.4-1.6-5.6-3.3-8.1-0.9
	c-7.5-7.1-16.3-12.5-24.2-19.2c4.9-0.8,9.6,0.9,13.8,3.4c0.9-0.3,1.7-0.6,2.6-0.9l-1-0.9c5.1-1.8,10.2-3.9,15.1-6.2
	c0.1-0.8,0.3-2.3,0.5-3c-6.4,3.4-13.6,8.1-21.1,5.2c11.8-3.8,21.4-12.2,28.9-21.9c9.5-12.4,19.3-25.8,34-32.4
	c-0.2,1.5-0.4,3.1-0.6,4.6c2.8,0.1,7.2-1.5,8,2.4c-6-0.5-12.4-0.1-17.4,3.6c-5.7,3.5-8,10-11.4,15.4c-2.1,3.8-5,7-7.3,10.7
	c3.8-1.1,5.8-4.8,8.2-7.6c-1.2,11.2-13.1,15.5-20.3,22.4c5.9-2.4,11.7-4.9,17.4-7.6c-1-0.2-2-0.4-3-0.6c6-9.1,12.3-18.2,21.2-24.8
	c6.3-4.9,13.8-8.2,21.5-10c0.1,0.8,0.4,2.2,0.5,3c2.5,0.7,5.2,0.3,7.8,0.7c-6.8,2.9-14,4.5-20.9,7.1c-3.3,1.5-7.1,3.1-8.4,6.7
	c2.5-1,4.2-3.6,7.2-3.2c-5.8,6.7-12.2,12.8-18.3,19.2c-5.2,4.9-9.6,10.7-15.9,14.2c-7.1,4.1-15.8,5.1-23.8,3.3
	c-0.8,0.4-1.5,0.9-2.3,1.4c4,1.8,8.5,2,12.4,4c-2.8,0-5.5-0.9-8.2-1.2c5.2,2.8,9.7,7.3,15.8,8c6.3,1,12.5-1.5,17.5-5.1
	c6.5-4.7,11.6-11.1,16-17.7c0.5-2.2-2.1-2.8-3.6-3.3c6-11.7,18.4-17.2,29.1-23.6c2.8-1.8,6.1-3.1,8.1-5.8c0.4,0.2,1.3,0.6,1.8,0.8
	l-0.1-0.4c-2.6-1.1,0.1-1.5,1-1.9c-0.2,0.6-0.5,1.7-0.6,2.2c9.8,1,20.2,1.8,28.9,7.1c2.9,1.7,4.9,4.4,6.5,7.2
	c-6.8-4.8-14.1-9.6-22.5-11.2c-6.6-1.6-13.8-0.5-19.4,3.2c14.1,0.4,28.9,4.9,39,15.1c4.6,4.4,7.5,11.1,5.9,17.5
	c-0.6,2.9-1.9,5.6-3.1,8.3c1.2-7.6,1.4-16.3-4.2-22.4c-9.1-9.7-23.2-13.3-36.2-12.3c-8,0.9-17,2.6-22.1,9.4c-3,4.6-4.5,10-6.9,15
	c-0.3,1.6-1.9,1.6-3.2,1.9c1.9,8-6.2,14-12.9,16.2c8,1,12.8-7.1,16.1-13.1c0.8,6.2-3.8,11.3-8.5,14.5c-4.3,3.1-9.5,4.4-14.6,5.3
	c7.5,1.2,14.8-2.5,20-7.7c7.1-6.6,10.6-15.8,16.9-23.1c5-6.2,12-11.8,20.3-12.1c4.1-0.1,6.6,3.7,10,5.3c1.9,1.1,4,0.2,6-0.1
	c1,8.4,8.5,13.4,11.7,20.8c-3.4-3.4-7.6-6.7-12.7-6.6c-9.7-0.1-20.8,4.2-24.8,13.7c3.6-1.5,5.2-5.1,8-7.5c0,3.3-2.5,5.7-4.3,8.2
	c5.5-3.9,12.3-6,19-5.9c6.8-0.2,14.2,1.3,19.5,5.9c3.2,2.8,5.1,6.7,6.3,10.7c-8.1-4-14.4-11.6-23.7-13c-5.9-1.4-11.7,1.5-16.2,5.1
	c-4.8,3.9-9.1,8.4-12.9,13.2c9.7-6.5,22.3-7.3,33.3-4.1c6.6,1.9,11.9,7.7,12.8,14.6c-0.6,5.4-2.6,11.9-8.4,13.6
	c1.4-3.7,3-7.4,4.9-10.8c-1.7-6.7-6.5-13.3-13.8-14.3c-13.2-1-26.4,5.2-34.7,15.3c1.2-2.6,2.5-5.2,3.4-8c-4.1,1-6.8,4.5-9.6,7.4
	c0.8,0,2.4,0.2,3.2,0.2c-5.6,0.6-11.2,1.6-16.5,3.3c1.2,0.3,2.5,0.7,3.8,1c-2.2-0.1-4.3,0.5-6.4,0.7c-12.3-1.7-25.3-6-33.6-15.9
	c-0.6,2.6-1.3,5.1-2.1,7.6c1.8-0.4,3.8-0.8,5.6,0.1c7.5,3.3,12.7,10.5,20.5,13.3c1.9,0.8,4.1,0.5,6.1-0.1c0,0.8-0.1,2.4-0.2,3.2
	c3.3,0.6,6.7-0.4,9.8-1.5c11.3-4.4,21.9-10.2,32.9-15.2c-2.9,1.6-5.8,3.2-8.4,5.3c-2.1,7.9-9.9,13-17.6,13.9
	c-13,1.6-26.4-1.3-38-7.1c3.5,5.5,5.7,12,10.7,16.4c1.3,1.2,3,0,4.5-0.2c8.4-2.8,18.5-2.4,25.4,3.7c1.9-4,5.3-7.2,9.5-8.6
	c7.3-3.2,15.8-2.8,22.9,0.6c4.8,2.4,8.5,7.5,8.6,13c0,3.1-0.8,6.1-2,9c0.4,2.2,1.9,3.7,3.8,4.7c-0.7,0.6-1.3,1.3-2,1.9
	c-2.2-4.7-4.1-9.7-3.9-15c-0.3-0.1-0.9-0.2-1.2-0.3c-3.1,2.4-7.7,3.7-8.2,8.1c2.3-0.1,4.6-0.6,7-1c-1.7,1.9-3.3,3.8-4.9,5.7
	c1.1,3.3,1.6,6.7,1.7,10.2c2.6-1,4.4-3.4,6.3-5.3c0.1,1,0.4,2.9,0.5,3.9c2.9-0.7,4.7-3.2,6.1-5.7c0.2,0.6,0.7,1.9,1,2.6
	c2.6,0,4.3-2.6,6.2-4.1c9.1-8.8,18.2-19.7,31.5-21.5c-7.9-1-14.9,3.5-20.8,8.3c-4.8,3.5-9.5,7.2-14.6,10.1c1.6-8.4,3.1-17,7.1-24.6
	c3.3-6.3,9.9-10.5,17-11.1c3.3-0.2,6.7-0.1,10,0.2c4.7,4.8,9.2,11.8,6,18.7c-0.9,3.8-5.3,1.9-8.1,2.6c-10.3,1.5-17,10.2-24.2,16.8
	c8.5-4.7,14.6-13.7,24.6-15.6c-5.9,7.8-16.3,10.3-22.7,17.7c9.5-3.2,16.3-11.8,26.4-13.8c1.1-1.9,2.2-3.7,3.4-5.6l0.7,1.8
	c-0.1-0.6-0.4-1.9-0.5-2.6c4.8-4.1,11.4-6.3,17.6-4.6c6.5,1.7,12.1,6.5,15,12.5c4,7.9,6,18.1,0.9,26c-3.9,6.9-12.3,9.4-19.8,9.2
	c-3.4-5.3-7-10.5-9.8-16.1c-5.9-0.7-12.2,0.5-16.7,4.6c-8.4,6.8-9.7,18.3-16.7,26.2c-3.1,3.6-7.2,6.9-12.1,7.5
	c-3.5-0.3-4.8,3.5-7.2,5.3c-3.2,2.7-6,5.8-7.6,9.7c-1.9-0.8-3.8-1.5-5.7-2.2c0.6,1.5,2.5,3.4,0.8,5c-3.9,3.8-9.1,6.1-14.1,8.2
	l-2,0.1c0.7-1.9,2.5-2.7,4.1-3.5c-4.9-0.5-8.5,3.6-13.2,4.2c-1.7,0.1-3.4-0.1-5.1-0.2c-0.5-2.3-1.2-4.5-1.7-6.8
	c14.3,0.3,27.1-8.4,35.7-19.3c-8.1,5.3-14.6,13.3-24,16.3c-3.3,1.1-6.7,1.5-10.2,1.6c9.3-4.2,18.8-8.7,26.7-15.4
	c2.4-2,4.3-4.5,6-7.1c-2.8-3.8-3.8-8.5-4.9-13c-6.6,3.6-13.4,7-19.6,11.2c0.3-1.2,1-3.7,1.4-4.9c-4,2.4-6.1,6.8-6.1,11.3
	c4.9-1.2,8.8-4.5,12.8-7.3c3.4-2.5,8-2.7,11.8-0.9c-1.9,7.9-7.8,14.5-15.2,17.7c-13.3,6.2-28.9,3.9-42-1.7
	c-9.4-4.2-18.7-10.8-22.5-20.7c-0.5-1.8-1.7-3.9-0.8-5.7c0.5,0.1,1.6,0.2,2.2,0.3c1.4-5.5-0.4-11.2-3.1-16c-0.9-1.9-3-2.7-4.8-3.4
	c0.2-0.7,0.4-2.1,0.6-2.8c1.5,1,3,2.1,4.5,3.2c-3.1-13.6-5.9-27.3-8.2-41.1c3.6,1.1,3,6.2,6.8,7c-1.1-3.7-3-7.1-3.5-11
	c-1.4,0.5-2.9,1-4.3,1.3c-0.3-5.7-7.3-8.6-5.6-14.7c3.8,2.6,4.5,7.7,8.4,10.3c0.3-11-12.4-15.2-15-25c-2.3,1.5-0.4,6.7-4,5.7
	c-0.9-5.3-5.4-8.9-7-13.9c2.6,1.8,4.9,4.1,8,5.1c-4.1-5.6-10-9.7-12.9-16.1c-0.4,0.9-1.1,1.8-1,2.8c1.8,2.3,4.8,3.9,4.8,7.3
	c-8.3-4.1-9.8-14.6-17.4-19.5c0.3,1,0.9,2.9,1.2,3.8c-2.5-0.2-4.8-1.3-7-2.2c1.9,3.3,5.7,4,8.9,5.4c2.3,1.1,3.1,3.6,3,6
	c-9-5.2-18.3-9.9-27.3-15c2.2,2.8,4.3,5.5,6.2,8.5c-5.5-0.5-10-4-13.8-7.8c-4-4.3-8.1-8.6-12.6-12.5c-0.8-0.9-1.8-1.1-2.8-0.5
	c1,2,3,3.4,4.6,4.8c-7.6,0.5-9.7-9.9-17.2-10.4c0.9,4.2,6.4,4.6,9.4,7c-3.7,2.2-7-1.4-10.2-2.8c4.4,3.1,8.9,5.9,13.1,9.2
	c-3.3,0.1-6.6,0-9.8,0.1c2.2,2.2,4.9,4,8,4.6c2.7,0.4,4.5,2.6,5.4,5.1c-2.3-1.4-4.4-3-6.6-4.5c-2.7-2.1-6.8-1.6-9.1-4.6l2.7,0.5
	c-0.2-0.4-0.7-1.2-0.9-1.6c-5.9-0.8-11.6-2-17.6-1.8c1,1.2,2,2.3,2.5,3.8c-2-0.8-3.8-1.8-5.5-3.1c-1.1-0.6-2.2-1.3-3.3-2
	c0.2-0.4,0.5-1.2,0.6-1.6c-1.8-1.9-3.6-3.7-4.5-6.2c0.3,1.9,0,4,1.7,5.5c-2-1-3.9-1.9-5.9-2.7c0.6-8.4,0-17.3-4.1-24.9
	c-3.1-5.6-6.3-11.2-8.8-17.2c-19.3-6.3-39.1-12-57-21.9c5.6,9.9,16.3,15.7,26.9,18.9c8.9,2.9,18.5,5.2,25.7,11.5
	c9.1,8.9,8.6,22.7,15.1,33.1c3.5,5.1,10.1,8.3,10.7,15c4.4,0.5,8.7,1.5,12.7,3.4c-8.4,1.4-16.9-2.6-22.2-9
	c-8.9-10.2-13.2-23.3-20-34.9c0.8,0.3,2.5,1,3.4,1.4c-2.6-6.6-9-10.7-15.4-13.2c-9-3.5-18.7-5.2-28.3-4.3
	c-1.5-11-11.2-17.8-18.3-25.3c3.1,0.3,5.2,2.8,7.8,4.1c0.5-0.6,1-1.1,1.5-1.7c-0.7-0.4-2-1.1-2.7-1.4c0.2-0.3,0.6-0.9,0.8-1.2
	c2.9,0.5,4.6,3.5,7.4,4.5c-0.7-2.4-2.9-3.9-4.4-5.7c4.6-0.3,7.5,4.5,8,8.6c9.2-2.7,16.6,5.5,25.6,5.2c-6-5.2-13.2-8.9-19.8-13.3
	c15.1,1.2,23.1,17.5,37.9,19.8c-14-14.6-33.2-22-50-32.8c0.7-0.4,1.4-0.8,2.1-1.2c-9.6-10.4-20.8-20.5-25-34.5
	c-2.4-7.8-1.4-16.1,1.2-23.7c0.7,5.2,0.1,10.5,1.2,15.6c2.5,14.2,11.1,26.9,22.6,35.4c15.4,11.5,31.3,22.2,46,34.7
	c-0.9-9.2-6.5-17.2-13.4-23c-5.4-5.1-11.2-9.6-17.1-14.1c-2.1,1.4-4.9,2-7,0.4c-5.8-4-9.4-10.6-11.2-17.3c3.9,6.2,9.8,10.8,16,14.5
	c7.2,4.5,15.5,7.1,22,12.6c5.1,3.9,8.9,9.3,11,15.4c2.6,0.4,5.1,0.7,7.7,1c5-9.7,5.8-21,3.9-31.6c-0.9-3.9-1.9-7.9-4.3-11
	c0.4-0.5,0.7-1,1.1-1.5l1,1.1c2.8-2.5,7.4-3.9,8-8.2c-2.8,2.5-6.8,4.8-10.6,3c1-2.1-0.3-3-2.3-3.4c0.4,2.1,1.1,4.1,2,6.1
	c-0.8,2.5-1.1,5.2-1.7,7.8c-2.8-6.4-6.9-12.1-10.1-18.3c2.6,1.2,4.7,4.3,7.9,3.5c2.2-0.6,3.8-2.5,5.1-4.3c-2.7,1.6-6,3.1-9.1,1.4
	c-3-2-5.6-4.5-8.4-6.8c-0.4,0.3-1.1,1.1-1.5,1.4c-4.6-0.1-8.4-3-12.4-5.1c-4.3-2.7-9-5-12.7-8.5c5-0.9,7.7,4.4,12.1,5.7
	c-8.2-7.5-18.3-12.9-25.6-21.4c-4.3-5.1-7.5-11.2-8.6-17.8c8.5,3.9,16.4,9.8,21.1,18c9.2-2.9,19.5-2.3,28,2.2
	c8.5,4.3,16.8,11.2,19.1,20.9c1.2,4.2,0.6,8.6,0,12.9c5.9-4.2,5.3-12.5,3.1-18.5c2.5-0.9,5.2-1.3,7.9-1.2c-0.9,0.6-1.8,1.3-2.7,1.9
	c1.4,0.8,2.9,1.7,4.3,2.5c-1.1,0.2-3.2,0.6-4.3,0.9c2.5,1.9,5.6,2.8,8.7,3.1c-0.3,2.4,0.4,4.8,0.8,7.1c-0.7,0.2-2,0.6-2.6,0.8
	c1.5,1.7,1.8,3.9,2,6c0.9-0.3,2.6-0.8,3.5-1.1c-0.5,3-0.3,6.1-1.5,8.9c0.9-0.2,2.7-0.7,3.5-0.9c-0.5,7,1.1,14,0.4,21.1
	c2.1,2.7,0.6,6.5,2.3,9.5c1.1-1.2,1.8-2.8,3.3-3.6c2.1,1.3,3.1,4.6,5.9,4.4c2.1-1.1,3.1-3.7,5.6-4.2c0.1,1.6,0.1,3.1,0.1,4.7
	c3.2-2.7,7.5-2.9,11.5-2.2c3.5,0.6,6.8-1.7,7.9-5c1.5,6.2,4,12.1,7,17.8c1.8-5.7-3.6-10.6-2-16.4c2.2,3.7,3.4,8,4.7,12.1
	c0.2,0.2,0.7,0.5,1,0.7c0.2-0.4,0.7-1.1,0.9-1.4c-1.1-2.7-2.3-5.5-1.9-8.6c0.9,1.1,1.8,2.4,2.7,3.6c0.2-1.5,0.5-3,0.8-4.5
	c1.8-0.2,3.8,0,5.5-0.9c2-1.3,2.2-3.8,2.9-5.8c2.2,6.9,2.4,14.5-0.2,21.3c1.8,2.6,3.5,5.4,5.1,8.2c3.3-3.6-0.9-8-0.9-12
	c5.5,0.3,7.7,5.7,9.2,10.2c2.7-3.2-0.5-7-0.8-10.5c5.4,5.8,5.8,14.3,8.4,21.5c4.2-6.4-2.5-12.9-1.7-19.6c2.4,2.1,2.7,5.4,3.8,8.2
	c0.4-0.8,1.2-2.2,1.5-3c4.6,3,2.1,9.1,4.7,13.3c2.5-6-2.1-12.1-0.4-18.2c4.5,5,2.5,12.4,5.2,18.2c0.7-2.3,1.1-4.6,1.4-7
	c5.3,2.9,5.8,9.9,10.9,13.1c-3.8-9.3-11.1-17.1-12.7-27.3c1.6,3.1,4.9,0.6,5.2-2c-0.8-0.8-1.6-1.6-2.4-2.4c1.8,0.3,3.5,0.7,5.2,1.2
	c0-1.8,0-3.6,0-5.5c2,2.8,3.9,5.8,5.9,8.6c-0.4-2.2-0.8-4.4-1.1-6.6c3.3,2.2,6.6,4.3,10,6.4c-1.9-5.4-5.5-10.1-6.5-15.9
	c-12.7-2.2-25.5-3.7-38.3-4.8c-8.2-0.3-16.7-0.9-24.8,1.2c-1.3-3.3-2.8-6.5-4.5-9.7c-9.2,8.8-21.4,15-34.4,14.6
	c-2.8-26.8,5.7-53.7,19.6-76.4c12.9-1.5,26.1-2.9,38.9-0.3c2.4,0.7,4.2-1.5,6.2-2.4c1.1,4.7,4.7,8.1,8.1,11.2
	c-11.3-1.2-23.3-2.2-34.2,1.8c-6.4,2.2-11.6,7.7-12.8,14.5c12.8,0.9,25.1-4.4,37.9-3.8c3.7,0.3,7.3,0.9,10.9,2
	c-0.2-4.6-0.1-9.2-1.4-13.6c1.6,1,3.9,1.6,4.5,3.6c0.6,2.9,1,5.8,1.5,8.7c4.3-0.5,6.1-5.9,3.8-9.2c-1.3-0.4-2.5-0.7-3.8-1
	c8.7-2.6,17.1-6.2,25.6-9.4c-3.2-2.9-9.1-1.4-9.6,3.2c-5.2,0.9-9.9-1.5-14.6-3.3c-0.6,1.6-1,3.2-1.4,4.8c-2.5-2.5-6.1-2.2-9.4-2.8
	c0.8-1.2,3-3.2,0.8-4.3c-3-2.9-9.5-2.3-9.9-7.4c-14.7-0.6-29.3-0.1-44-0.1c0.3-5.6,6.3-7.9,10.7-10.1c-1.8-0.8-3.9-1.5-5.4,0.3
	c-2.4,3.1-5.5,6.2-9.8,5.7c1.2-1.4,4.3-2.6,2.9-4.9c-1.6-1.5-3.9-0.6-5.9-0.7c7.8-5.9,18.3-6.8,25.6-13.4c-2.8,0.1-5.6,0.4-8.4-0.1
	c-6-1.2-12.2-1.5-18.3-1.3c12.2-5.5,25.6-7.2,38.7-9.5c-2.5-2-5.3-3.7-8.3-4.6c-2.2-0.4-3.4,1.7-4.7,3.1c0-0.4-0.1-1.2-0.2-1.7
	c-5.7-2.8-12.2-2.8-18.2-4.5c11.6-3.9,24.2-0.9,35.7-5c-8.4-3.8-16.9-7.4-25.7-9.9c8.8-4.8,20.2-3.2,28.5,2c2-1.7,2.7-4.2,3.9-6.5
	c-2.6-4.3-9.4-3.4-11.4-8.5c7.7,2.4,15.9,2.2,23.5,4.7c-0.3,0.4-1,1.2-1.3,1.6c-1.4-0.4-2.8-0.8-4.1-1.1c2.2,5.6,10.8,4.3,11.9,10.7
	c-3,0-6,0-9,0.1c-0.4,5.6,8.4,1.3,7.6,7c-9.3-2.9-18.4-6.5-28-8.3c6.5,6.6,18.8,5.1,23,14.5c-9.1-1.5-18.4-1.6-27.6-1.4
	c7.4,2.9,15.3,4.6,22.5,8c-7,2.4-14.4,2.8-21.7,3.3c8.2,2.4,19.6,1.2,23.7,10.5c-4.2,0.8-8.4,0.9-12.6,1.2c3.9,0.1,7.9,1.6,8.9,5.8
	c-4.3,1.2-8.5,2.5-12.8,3.8c-2.4,0.8-5.1,0.7-6.9-1.3c-0.5,0.9-1.1,1.7-1.6,2.6c9.8,2.1,19.9,1.4,29.7,3.4c-0.7,2.4-3.2,2.5-5.1,3.2
	c5.3,2,10.3-1.3,15.5-2.1c-1.5,4.7,5.8,4.4,5.9,8.9c-2.4-0.8-4.7-1.6-7.1-2.3c-0.3,0.8-0.6,1.6-0.9,2.4c4.7-0.2,9.3,0.4,13.9,0.9
	c-1-2.2-3.3-3.1-5.4-3.9c2.9-2.1,5.9,0,9,0.5c1.4-0.3,2.8-0.6,4.2-1c0.9,2.8,3.3,4.8,4.3,7.5c3.4-1.5,7-2.8,10.4-4.3
	c0.4,0.5,1.1,1.4,1.5,1.9c3.1-1.1,5.8-2.9,8.8-4.3c-0.5-0.6-1.5-1.8-2-2.3c-2.7,0.3-5.4,0.8-8.1,1.3c5.8-13.5,2.9-30.7-8.2-40.6
	c-6.2,1.5-13.8-0.3-17.3-6c-2.4-3.4-3-7.6-2.5-11.6c6.1-2.2,12.5-4.8,19.1-4.1c2.5,0.2,4.2,2.1,6.2,3.3c-0.8-2.5-2.1-5-4.8-5.8
	c-5.2-1.8-10.8-2.6-16.2-3.8c3.7-3,8.1-0.9,12.1,0.2c-3-5-10-5.2-14.3-1.8c-5.8-7.4-16-7.3-24.4-9c0.5-1.5,1-2.9,1.4-4.4
	c-5.1,2-10.6,1.6-15.9,1c0-0.7,0.1-2.2,0.1-2.9c-5.5-3.9-13.3,1.4-18.5-3.6c1.8-0.9,3.8-1.6,5.5-2.8c-4.6-0.9-9,2.9-13.6,0.9
	c2.3-0.7,4.6-1.2,6.8-1.8c-3-1.6-6.5-1-9.8-1.1c-1.8,0.4-3.2-0.8-2.8-2.7c-1.9,0.7-3.9,0.6-5.8,0.1c-1,0.8-2,1.6-3,2.5
	c6.4,4.4,13.1,8.5,20.2,11.8c-1.8,0.5-3.7,1-5.5,1.5c2.1,1.1,6.3,0.7,5.1,4.2c-1.5-0.5-3-1.1-4.6-1.5c1.5,1.4,3.2,2.6,4.7,4
	c-2,1.7-5.1,1.4-7.1,3.2c-2.5,1.7-3.3,4.9-2.9,7.7c-3.7-1.8-8.4-2.3-11.8,0.4c-2.2,1.4-2.7,4.1-3.2,6.4c-0.5-0.2-1.6-0.7-2.2-0.9
	c0.3-2.1,1.2-4.2,0-6.1c-1.5,6.3-4.8,12.5-10.5,15.9c-9.7,6.3-23.7,6-32-2.5c0.4,1,0.7,1.9,1.1,2.9c-1,0.1-3.1,0.3-4.2,0.3
	c1.4,1.1,3,1.3,4.7,1.5c0.1,0.4,0.2,1.3,0.2,1.8c-1.1-0.6-2.2-1.3-3.3-1.9c-1,0.5-2.1,1-3.1,1.5c3.5,2.2,5.3,6.1,9,8
	c-3.3,2.4,0.8,6.5-1.8,9.5c3.6-0.1,7.1,0.5,10.5,1.5c-1.9,3.5-5.6,6.2-9.7,5.7c-7.3-0.8-13.2-6.6-15.1-13.6c4.6,0.8,8.7,4,13.6,3.2
	c-3.2-4.8-10.2-2.1-14-6.2c-2,1.6-4.7,3.6-4.3,6.6c0.9,1,2,1.9,3,2.9c-0.7,0.1-2.1,0.2-2.8,0.3c2.6,2.8,5.1,5.7,7.9,8.3
	c-2.5,0.2-6.7-1.8-8.2,1.1c1.6,2.4,4.7,0.7,7,0.3c2.7-0.8,5.6-0.6,8.1,0.7c-3.2,1.2-6.7,0.7-10,0.7c3.4,2.1,5.7,6.7,10.1,6.2
	c-2.9,0.6-6.8,0.5-8.9,2.9c-0.2,3.6,4.4,3.6,6.8,4.6c0.1,0.6,0.3,1.8,0.4,2.4c5.1-0.9,10.7-1.3,14.8-4.8c-0.1,1-0.3,2.9-0.4,3.9
	c2.6-0.3,5.2-0.5,7.8-0.8c-3.1,2.4-4.6,6.9-9,7.3c1.4,0.4,2.9,0.8,4.4,1.1c-1.6,1.1-3.2,2.1-4.5,3.6c3-0.3,5.9-1.1,8.8-1.9
	c-0.4-1.5-1.4-3.2-0.4-4.8c2.1-2.2,5-3.8,6-6.8c4.4-1.2,8.2,2.1,12.2,3.2c1.6-0.7,3.1-1.3,4.7-1.9c-0.8-0.5-1.6-1.1-2.4-1.6
	c1.9-4.3,6.9-5.7,11.2-6.6c-1.6,2.5-3.2,5.5-6.5,5.6c0.5,0.6,0.9,1.1,1.4,1.7c2-1,4-2.2,6-3.4c1.3,2.1,2.5,5.4-0.2,7.1
	c-5.4,3-12,3-18,2.7c2.1-3.6-2.4-4.5-4.9-5.1c-1,3.5-2.3,7.1-5.1,9.5c-3.2,2.9-7.4,4.2-11.4,5.4c2.3,2.3,5,0.2,7.1-1.3
	c1.8-1.3,4-0.8,6.1-0.7c-2.8,3-7.2,3.4-10.2,6.2c1.4,0.7,2.8,1.4,3.7,2.8c-1.9,0.3-3.7,0.6-5.6,0.9c1.8,0.9,3.8,1.4,5.7,2
	c-2,1.1-4.1,2-6.2,2.7c0.1,0.5,0.3,1.4,0.4,1.9c-3.3-4.9-8.9-7.5-13.9-10.2c-9.2-4.9-19-8.3-28.5-12.5c-9-4.2-18.5-9.8-22.3-19.5
	c10.2,9.6,23.7,14.7,36.9,18.6c1.3,4.1,6.9,4.5,10.3,3c-10.2-8.6-23.7-11.6-34.5-19.3c-7.7-5.4-12.9-14.1-14-23.4
	c0.5,0.6,1.6,1.8,2.1,2.4c1.1-2.4,2.7-4.5,5.6-4.6c-8.9-6.1-10.8-19.7-4.3-28.2c2.4-3.3,6-5.2,9.5-7c-3.1,5.5-5.1,11.9-4.3,18.3
	c0.2,0.3,0.6,1,0.8,1.3c0.4-2.8,1.1-5.6,2.1-8.3c2.6,6.8,2.9,14.9,8.6,20.1c2.3-5.2-4.2-8.5-4.3-13.5c4.7,2,3.3,8.3,7.1,11.1
	c1.2,0.9,2.8,0.6,3.9-0.2c-0.7-0.9-1.3-1.8-2-2.6c5.2,2.3,10.3,5.3,16.2,5c3.5-4.8,4.7-10.7,5.9-16.4c1.6-8.1,2.5-16.3,3.5-24.4
	c-1,0.6-2,1.2-2.9,1.8c0,2.2,0.4,4.5-0.4,6.6c-2.9,0.9-6,0-8.5-1.7c2.4-0.7,4.8-1.3,7.1-2c-1.9-0.5-3.8-1-5.7-1.4
	c1.3-0.5,2.5-1.1,3.9-1.6c0-2.2-0.1-4.4-0.3-6.7c7.1-7.5,18.3-9.6,28.2-8.2c6.2,0.6,12.4,3.3,16.7,7.9c1.4,4.2,1.9,8.8,4.6,12.5
	c2.1,3.3,5.8,5.9,9.9,5.9c1.2-1.9,0.4-4.5,0.9-6.7c-3.4-2.6-5.3-7.2-9.9-8.1c-0.6-3-1.7-6-4-8.1c-5.4-6-14.4-7.2-19.1-14
	c-8.7-0.3-17.1,2.6-24.9,6.2c-7.3,3.4-15.5,3.9-23.4,3.1c-1.6,5.2-6.5,8.8-11.8,9.2c1.2,0.4,2.5,0.9,3.7,1.4
	c-2.6,4-7.4,5.5-11.5,7.4c-2.9,1.1-6.1,3-9.1,1c-6.9,3.8-13.5,8.3-21,10.7c-5.2,1.6-11.6,0.4-14.8-4.2c-5.4-6.4-4-16-9.5-22.3
	c-4.2-5.3-11.2-7.1-17.7-7.3c-7.6,0-14.4,3.9-19.8,9c-0.5,3.2,1.4,7.6-1.5,9.8c-0.4-3.8-0.1-7.7-0.4-11.5c-1.3,1.5-2.2,3.3-3.1,5.1
	c-9,0.3-18.3-0.1-26.3-4.6c-6.7-3.7-12.8-9.5-14.9-17c-1-2.8-1.2-5.8-2.6-8.5c-2.8-3.9-7.9-4.5-12.3-5.2c-4.6-0.4-9.8-0.9-13.7,2.1
	c-4.6,3.8-6.2,9.9-8.2,15.2c5.7-6,13.6-9.1,20.8-12.7c-0.3,0.6-1,1.8-1.4,2.4c5.1,1.3,11.1,0.9,15.2,4.6c1.9,1.5,1.3,4,1.2,6.1
	c-10.6-2-22.1-3-32.2,1.6c-5.2,2.3-9,6.7-12,11.3c-1.5-6.3,4.7-10.2,6.3-15.8c0.9-2.4,0.5-4.9,0.7-7.4c2.6-7.4,9.5-12.7,17.1-14.2
	c10-2.4,20.8,0,29,6.1c-3.1-4.1-6.6-7.8-10.6-11.1c-11.8-0.7-24.7-0.8-35.1,5.8c-3.9,2.3-6.2,6.3-8.7,9.9
	c0.7-9.7,12.3-11.6,16.5-19.2c7,0,13.6-3,19.7-6.2c4.9-2.5,10.2-4,15.6-5.3c-2-1.2-4.3-1.8-6.6-1.8c-9,0-17.6,3.1-26.2,5.6
	c1.7-2.2,3.7-4.3,6.4-5.4c6.9-3,14.5-3.5,21.9-3.4c5.3,0.1,10.5-0.2,15.8,0.5c6.4,4,12.8,7.9,19.1,12.1
	c-7.2-12.4-22.2-17.5-35.8-18.1c-8.4-0.6-16.6,2.4-23.4,7.1c7.3-8.6,19.5-11.6,30.3-9.4c11.3,2.2,23.4,6,31.2,14.9
	c-5.5-10-16.1-16.4-27.1-18.8c-6.6-1.3-13.4-1.7-20.1-0.8c0.9-1.5,1.8-3,2.8-4.6c14.6-4.2,29.6,0.4,44.2,1.6
	c3.8,1.5,6.7,4.7,9.4,7.6c6.2,7.3,10.5,16,14.2,24.7c4.4,10.2,9.6,20.4,17.4,28.5c2.4,2.3,5,4.6,8.3,5.5c-0.5-6-8.7-4.9-11.3-9.5
	c-7.3-11.4-10.2-24.8-15.7-37c0.5-0.5,1.1-0.9,1.6-1.4c1.5,4.9,3.8,9.6,5.9,14.4c-2.4-7.9-5.2-15.6-8.7-23.1
	c-3.6-7.6-10-14.2-18.2-16.9c-3.5-1.5-7.4-0.6-11.1-0.4c-6,0.7-12.1,0.7-18.2,1.1c8.3-4.2,18.1-6.4,27.3-3.8
	c9.9,2.7,18.7,9.1,24.8,17.3c4.7,6.3,7.2,14,8.2,21.8c0.1,3.9,3.4,6.4,6.4,8.3c-4.4-14.5-9.3-28.9-14.5-43.1
	c-2.6-6-7.3-11.7-13.8-13.5c-4-1-8.3-0.5-12.4-0.3c3.6-5.2,10.6-4.7,16.2-4.7c3,5.7,10.2,4.4,14.8,7.7c0,2.2,0,4.4,0.1,6.5
	c2.9,3.4,4.6,7.6,6.3,11.7c-2.3,3.4-2,7.7-0.8,11.4c2.9,9.9,6.2,20,12.7,28.1c3.2,4.2,8.1,7,13.4,7.5c-0.6-0.4-1.8-1.2-2.4-1.6
	c0.3-0.6,1.2-1.5,0.4-2.1c-5.7-6-8-14.2-10.2-21.9c-4.5-15.6-4.3-32.8-13-47.1c-3.9-6.6-10.3-11.5-17.8-13.2
	c1.2-0.8,2.4-1.6,3.6-2.4C305.5,111.6,302.2,110.9,298.9,110z"/>
<path d="M418.3,113.3c4.8-2,9.9-3,15.1-3.4c-6,3.5-12.4,6.3-18.5,9.6c-6.8,3-12.9,8.2-15.9,15c-0.5-0.5-1.1-1-1.6-1.5
	C402.1,124.6,409.1,117.1,418.3,113.3z"/>
<path d="M273.3,120.2c3.7-1.6,7.8-1.6,11.5-3c-3.6,3.4-9,4.1-13.4,6.2c-3.3,1.3-6.1,3.5-8.7,5.8C263.7,124,269,121.9,273.3,120.2z"
	/>
<path d="M367.2,117.3c2.8,1.9,0.9,5.2,0.2,7.7c-1.2,3-1.4,6.3-0.8,9.5c-1.2-1.2-2.9-2.5-2.6-4.5C364.8,125.7,366,121.5,367.2,117.3z
	"/>
<path d="M271.7,132.7c3.6-1.5,7.4-2.1,11.3-1.8c-5.2,4.9-13.2,3.5-18.9,7.8C264.9,135,268.7,134,271.7,132.7z"/>
<path class="st0" d="M358.6,133.8c2,1.9,3.8,4.1,4.9,6.7c3.2,7.4,4.1,15.4,4.9,23.4c-3-1.8,0.6-6.9-3.5-7.4
	c-0.8,7.2,0.8,14.5,5.3,20.3c5.4,7.2,13.3,11.7,21,16c-6.9-2.4-14.5-4.7-19.1-10.8C361,168.7,359.2,150.5,358.6,133.8z"/>
<path d="M274.9,147c10.7-1.6,21.5,3.9,27.8,12.4c2.5,3.6,5.8,7.2,6.4,11.7c-0.7-0.9-2.1-2.6-2.8-3.4
	C300.7,155.6,288.3,147.2,274.9,147z"/>
<path d="M323,154.4c5.5,11.7,7.2,25.1,14.9,35.7c1.8,2.4,3.7,4.8,6.5,6.1c-0.5,0.3-0.9,0.6-1.3,0.9c-3.9-3.6-8-6.9-10.9-11.4
	C326.1,176.6,322.5,165.5,323,154.4z"/>
<path class="st0" d="M401.1,173.8c1.8,0.9,2.2,3.1,3.3,4.7c1.8,2.9,3.8,5.8,4.6,9.2C404.7,184.3,402.4,179,401.1,173.8z"/>
<path class="st0" d="M394.4,174.4c0.6,1.2,1.2,2.4,1.7,3.7c0.9-1,1-3.3,2.8-3c1,1.8,1.6,3.8,2.2,5.7c-0.7-0.1-2.1-0.2-2.8-0.3
	l-0.7,2.1C394.1,182.3,394.2,177.1,394.4,174.4z"/>
<path class="st0" d="M290,180.6c3.3,6,6.2,12.3,8.6,18.7c-4.2-3.9-8.2-8.2-11-13.3c1.2,0.5,2.3,1.1,3.5,1.6
	C290.7,185.4,290.3,183,290,180.6z"/>
<path class="st0" d="M274.8,188.9c4.4,2.9,7.1,7.7,9.5,12.2C278.6,200.3,276.1,193.8,274.8,188.9z"/>
<path class="st0" d="M287.5,201.4c-2.2-3.9-4.8-7.6-7.6-11.1c5.5,2.1,8.3,7.7,11.3,12.4c2.5,4.1,5.6,7.9,9,11.3
	C293.5,213.1,290.5,206.6,287.5,201.4z"/>
<path class="st0" d="M326.8,192.7c9.8,5.3,17.6,14.2,28.6,17.3C343.4,210.9,332.8,202.5,326.8,192.7z"/>
<path class="st0" d="M252.6,203.4c-3-3.1-6.8-5.2-9.9-8.1c5.3,1,9.6,4.7,13,8.9c3.5,4.2,7.2,8.1,10.5,12.5
	C261.2,212.7,257.1,207.9,252.6,203.4z"/>
<path class="st0" d="M322.8,198.2c5.6,7.6,14.8,11.8,19.6,20.1C333.2,215,327.2,206.4,322.8,198.2z"/>
<path class="st0" d="M274.8,198.7c9.5,4.7,14.9,14.7,24.4,19.5c-5.1-0.7-9.5-3.7-13.3-7C281.9,207.3,278,203.3,274.8,198.7z"/>
<path class="st0" d="M295.7,202.7c4.8,4.2,9.5,8.6,14.4,12.8c-4.3,0.9-7.6-2.4-10.4-5.2C297.6,208.2,296.3,205.5,295.7,202.7z"/>
<path class="st0" d="M424.1,206.2c1.8-0.7,3.2-2.2,5-3.1c1.9-0.7,3.8,0.3,5.7,0.5c-3.7,2.1-7.5,4.1-11.6,5.2c-2.6,0.8-4.8-1-6.1-3.1
	C419.3,205.9,421.7,206.7,424.1,206.2z"/>
<path class="st0" d="M469.5,207.6c1.1-0.7,2.3-1.3,3.6-1.7c-1.2,0.9-2.5,1.7-3.8,2.4c0,0.3,0.1,1,0.1,1.3c5.5-1.8,11.2-2.4,16.7-4.1
	c-3.4,5.1-2.4,12.9,3.6,15.5c-2.7,0.6-5.4,1.5-8.1,2.2c-0.9-3.2-2-6.4-2.9-9.7c-2.2,0.6-4.3,1.5-6.6,1.7c-1.2-1.7,0.1-2.7,1.4-3.6
	c1.8,0.4,3.7,0.7,5.6,0.7c-4.9-4.3-11.2,1.5-16.7,0c2-1.1,4.1-1.9,6.4-2.3c-0.5-0.4-1.1-0.7-1.6-1.1c0.4-0.6,1.2-1.7,1.6-2.2
	L469.5,207.6z"/>
<path class="st0" d="M256.7,220.3c-2.4-3.3-3.9-7.6-3.1-11.7c6.1,4.7,10.4,11.6,17.5,15c-0.8,0.3-2.5,1-3.3,1.4
	c1.4,1.8,3.8,2.3,5.6,3.5c2.3,1.7,5.3,0.9,7.9,1.4c-1.3,0.8-2.6,2.1-4.3,1.8C269,231.4,261.4,226.8,256.7,220.3z"/>
<path d="M222,221.6c9.6-3.6,20.6-2.3,29.4,2.7c1,6.9,7.8,10.2,13.1,13.4c0.1,0.2,0.3,0.6,0.4,0.8c-3.6,2.4-6.3-2.9-10-2.8
	c4.3,4.2,9.9,6.8,15.9,7.2c-0.9-0.8-1.9-1.6-2.8-2.4c2.8-1.4,5.9-1,8.9-1.2c4.7-0.4,9.4-0.5,14.1-1.1c-2,10-11.9,15.5-21.1,17.2
	c-13,2.4-26.2,4.1-39.2,6.5c2.7,3.2,7.3,3.9,11.2,3.3c6.7-0.9,13.3-2.5,20-3.4c-7.6,5.6-17.7,4.1-26.5,5c3.3,2.9,8.1,1.2,11.8,3.4
	c-8.7,3.6-17.5-1-26-2.8c2.3-0.1,4.4-0.9,6.3-2c-5.5-2.3-11.2-4.1-16.9-6.1c2.9,2.6,6.2,4.7,9.1,7.3c-2.1-0.4-4-1-6.1-1.3
	c3.1,2.1,6.5,3.7,10,5c0,0.7,0.2,1.8-0.8,1.8c-4.5,0.7-9.1,0.4-13.6,0.1c12.2,7.1,27.2,7.6,40.3,3c-8.5,1-17.1,0.9-25.7,1.3
	c0-1,0-2.9,0-3.8c3.6-2.1,7.3,0.9,11,1c7.5,1.6,15.4,0.1,22.1-3.7c-0.8,0.9-2.4,2.6-3.2,3.4c14.1-6,26.2-15.7,37.2-26.1
	c-1.4,9.3-10.8,14.1-13.2,22.9c4.7-4.2,6.4-10.7,11.4-14.6c1.9,13.4,6,27.5,16.3,36.9c7.1,6.9,18.5,8,27.5,4.3
	c5.6-3,8.7-8.8,12.2-13.8c3-4,7.3-7.7,12.5-7.7c-4.3,2.7-7.7,6.5-11.2,10.2c-4.4,4.8-8.2,10.3-10.3,16.6c5-5.2,6.7-12.9,12.2-17.7
	c2.4-2.5,5.7-3.8,9.1-4.6c-3,2.6-6.7,4.6-8.6,8.2c2.2-1.5,4-4,7-3.6c-5,6.5-10.5,12.7-16.6,18.2c0,0.3,0.1,1,0.1,1.3
	c2.7-1.1,4.6-3.4,7-4.9c-1.5,6.8-8.9,9.4-12.5,14.9c0.5,0.2,1.5,0.8,2,1c1.8-2.2,3.6-4.9,6.8-4.6c-1.9,4.5-7.6,6.2-8.6,11.1
	c4.2-0.9,4.5-6.4,8.5-7.6c-1,2.5-2.4,4.7-3.9,6.9c4-3.4,8.8-5.7,13.8-7.4c-4.4,5.5-11.2,8.7-14.8,14.9c4.9-3.1,8.1-9.1,14.3-10
	c-8.2,9.2-18.1,18.5-19.6,31.5c-3.9-4.8,0.4-10.3,1.6-15.2c-0.8,0.6-2.3,1.9-3.1,2.5c0.6-3.9,1.7-7.7,3.4-11.3
	c-2,2.5-3.6,5.2-5.4,7.9c-2.6-4.6,2.4-8.5,1.5-13.2c-1.6,2.1-2.1,4.7-3,7c-3,8.9-6.4,17.7-9.3,26.7c5.3-4.8,3.6-13,8.2-18.2
	c-2.8,13.1-3.3,26.8-0.7,40c2.6,12.6,7.5,24.8,14.5,35.6c7.3,11.6,15.3,22.7,23.9,33.4c-3.1-8.8-9.6-16-12.1-25
	c5.7,6.2,9.7,13.7,13.9,20.9c3.1,5,6.6,10.1,11.8,13.3c-11.1-17.7-23.8-34.3-35.4-51.7c1.6,0.2,3.7-0.3,4.9,1.1
	c1.5,2.3,2.1,5.1,3.8,7.2c4.1,4.6,10.5,6.6,14.3,11.7c9.8,11.7,14.5,27.5,27.2,36.7c14.1,8.5,32.5,5.7,45.7,16.3
	c0.3,13.2,7.5,25.4,17.1,34.1c6.4,5.8,15,9.9,23.8,8.9c3.7-0.5,7.8-1.2,10.6-4c1.9-1.9,0.9-4.8,0.5-7c1.5,1.2,4.6,1.9,4,4.6
	c-2.1,5.1-7.6,8-13,7.7c0.9,5.6,9.8-0.2,9.2,6.2c-15,3.6-31,0.5-44.1-7.4c0.7-0.3,1.9-1,2.6-1.4c-4.6-7-13.6-11.5-14.2-20.6
	c5.8,6.2,10.6,13.2,16.8,19c7.8,6.5,18.5,7.9,28.3,7.1c-9.6-5-21.1-5.8-29.5-13c-5.7-4.6-9.6-11.1-12.3-17.9
	c-2.3-6-4.9-12.4-10.4-16.2c-7.3-5.2-16.7-5.7-25.4-4.8c-6.5,0.1-13.2,0.9-19.6-0.3c-12.8-6.1-22.8-16.5-31.9-27.1
	c-4.8-5.6-9.3-11.5-13.7-17.5c-2.6-3.6-6-6.7-7.8-10.8c2.9,2.8,4.6,6.6,7.3,9.6c2.6,2.9,5.1,5.9,8,8.5
	c-7.6-12.3-16.1-24.1-22.2-37.3c0.6-0.4,1.3-0.9,1.9-1.3l-0.5,1.3c2.1,5.1,5.2,9.7,8.4,14.1c3.1,4.1,6.5,8.4,11.4,10.4
	c-9-9.7-15.8-21-21.9-32.7c0.4,2.2,1,4.4-0.3,6.4c-6.3-14.9-9.1-31.6-4.9-47.5c-6.3,4.7-7.9,13-8,20.4c0.4,14.4,4.7,28.4,9.6,41.9
	c-1.7-2-4.5-2.7-6.1-4.8c0.1-1.1,0.5-3.4,0.6-4.6c-0.7,0.9-2.1,2.7-2.8,3.6c-3.1-2.7,1.2-5.9,2.1-8.7c-4.6-1-4.1,6.1-8.6,5.4
	c1.6-2.9,3.5-5.5,5.2-8.3c-0.4-0.4-0.8-0.9-1.2-1.3c-1.5,2-2.2,5.6-5.5,5c0.8-4.5,3.3-8.3,5.4-12.3c-0.7,0.2-2,0.5-2.6,0.7
	c0.3-2.2,0.6-4.5,0.9-6.7c-3.8,2.5-5.5,7-8.5,10.3c-3.3-5.4,4.2-8.3,5-13.1c-3.7,1.6-5.5,5.3-8.1,8.2c-1.3-5.1,3.4-8.8,6.8-11.9
	c-0.4-0.4-0.8-0.7-1.2-1c-1.9,2.2-3.9,4.6-7.1,4.9c2.1-2,3.1-4.7,2.9-7.6c-1.1,0.7-2.2,1.5-3.4,2.3c-1.4-5.5,4.1-8.8,7.4-12.2
	c-3.5-0.1-4.7,3.5-7,5.4c-1.3,1.2-3.1,1.6-4.8,2.1c1.3-1.3,2.5-2.8,3-4.6c-1.4,1.1-3.1,1.7-4.8,1.8c0.9-1.6,2.4-2.5,4.1-3.1
	c0.4-2.4,0.8-4.8,1.1-7.1c-2.2,1.6-4.4,3.3-6.5,5c-0.4-0.6-1.1-1.9-1.5-2.5c1.8-4,6.2-5.7,8.2-9.5c-3.7,1.4-6.3,4.9-10.3,5.3
	c2.6-4.3,7.3-6.8,9.9-11c-14,9.4-26.7,21-36.4,34.7c-4.1,6.1-8.1,12.5-10.1,19.6c0.2,16.8,2.8,33.9,10.6,48.9
	c0.6,0.2,1.7,0.5,2.2,0.7c-8.9-11.6-10.7-26.8-10-40.9c0.4,0.3,1.2,0.8,1.6,1c0.9,4.1-0.1,8.4,0.7,12.5c2,9.6,4.7,19.2,9,28.1
	c-0.5,0.6-1.1,1.1-1.6,1.7c3.6,4.1,7.5,8.3,12.4,10.9c-8.6-10.8-15-23.4-17.6-36.9c-1.8-9.2-1.3-19.3,3.8-27.4c1,5.5,1,12.3-3,16.6
	c2.5,3.9,5.5,7.8,5,12.6c2.2,0.3,2.2,2.7,2.8,4.3c1.6,6.6,3.3,13.2,5.9,19.5c1.6,0,3.3,0.1,4.9,0.1c-0.9,0.7-1.8,1.3-2.7,2
	c2.4,3.7,5,7.6,9,9.8c-0.1-3.8-5.8-4.2-4.8-8.5c2.7,1,4.2,3.6,6.5,5.2c-3.9-6.3-6-13.7-6.3-21.1c4.5,3.8,8.7,8.2,10.9,13.8
	c0.4,1.3,1.6,0.4,2.2-0.2c2.4,2.3,4.3,5.2,5.5,8.3c2,5,4.5,9.7,7.7,14c4.3-2.1,8.6-4.2,12.8-6.6c-4.5-4.8-9.5-9.1-13.7-14.2
	c-2.6-3.1-4-7.1-4.3-11.2c-3.7-2.1-5.5-6.2-6.9-10c-1.6-5.2-2.2-11.8,1.9-16c0.5,2.8,0.1,5.9,2,8.2c9.5,15.1,18.4,30.6,29.1,44.9
	c-8,0.8-16.6,3.8-21.3,10.7c-2.5,3.4-2.3,7.9-1.8,11.9c-0.4-0.7-1.1-2.1-1.4-2.8c-2.3,7.3-6.9,14.2-13.8,17.9
	c-5.2,3.1-11.2,3.8-17.1,4.7c1.5,0.8,3.1,1.3,4.7,1.9c-0.1,0.7-0.4,2-0.5,2.6c2.9,0.4,6,0.8,8.9-0.1c-0.1-0.4-0.2-1.1-0.2-1.5
	c-2.2,0-4.3,0-6.4-0.1c3.3-0.7,6.5-1.8,9.3-3.8c7.4-5.1,13.2-12.1,18.6-19.2c3.6-4.4,8.2-8.6,14.1-9.6c5.2-1,10.5,0.8,14.9,3.4
	c0,2.7,0,5.5,0.1,8.2c3.6-0.4,6.2-3.6,9.9-3.6c-0.4,2.5-2.9,3.4-4.8,4.6l2.3,0.6c-13.2,6.1-20,20.3-32.5,27.3
	c-5.4,3.4-11.7,4.9-18.1,5.4c5.1,1.8,10.9,2.4,16,0.2c7.4-3,12.1-9.7,17.9-14.9c5.7-5.2,11.9-10.5,19.5-12.5
	c7.4-1.3,15.1-1.7,22.4,0.4c4.7,1.4,8.8,4.4,11.6,8.4c-6.5-2-13.3-3.9-20.1-3.1c-9.7,0.6-18.8,4.8-26.7,10.4
	c-9.3,6.7-18.4,13.6-28.2,19.4c1.9,0.4,3.9,1.1,5.7,0.2c5-1.9,8.9-5.9,14-7.6c-2.4,4.4-6.7,7-11.3,8.7c7.1,0.7,12-5.5,16.5-10.1
	c2.7-2.2,2.8-6.3,6-8c5.5-3.1,11.9-3.9,18-5.2c0,0.8,0.1,2.3,0.1,3.1c10.2-5.9,22.4-4,33.5-3c-0.3-5.3-3.4-10-7.9-12.8
	c-10.1-6.2-22.5-7.5-34.2-6.2c2.4-1,5.7-1.7,5.7-4.9c-2-3.5-5-6.3-7.4-9.6c-1.5,0.9-3,1.9-4.6,2.8c0-5.7-5.1-9.1-9.9-11.1
	c1.4-1.7,3.1-4,1-5.9c-3.8-3.4-8.9-6.3-9.9-11.7c0.7,0.2,2.2,0.6,2.9,0.8c-1.3-3.1-2.7-6.2-3-9.6c1.3,1.2,2.5,2.5,3.7,3.7
	c0-0.9,0.1-2.6,0.1-3.5c9.1,17.4,21.1,34.1,37.9,44.8c13.3,8.6,29.5,12,45.1,10.8c-6.3,2.6-13.2,2.5-19.8,3.3c1,1.5,2.4,2.8,4.1,3.4
	c5,2,10.4,2.6,15.7,2.9c0.1,0.2,0.2,0.6,0.3,0.8c-1.3,0.4-2.6,0.6-3.9,0.6c10.3,4.7,21.2,8.4,30.6,14.8c7.6,5.2,12.8,13.4,14.8,22.4
	c-7.4-5.7-17.3-6.2-26.2-4.7c-5,0.7-9.8,2.3-14.2,4.6c6.2,1.5,12.7,2.3,18.5,5.1c1.2,0.8,2.7,1.8,2.8,3.3c0.8,1.9-1.9,2.7-3.3,2.3
	c-0.9-2.7-1.6-5.5-4.6-6.6l0.4,2.3c-10-1-19.8,2.5-28.5,7c2,3.8,7,3.7,10.7,3.5c6.8-0.6,14.6-2.2,20.5,2.2c-13,2.5-27.2,1.6-39,8.4
	c-4.6,11-15.5,17.5-25.9,22.4c-4.2,2-8.7,3.5-13,5.3c5.5,2.1,11.8,1.3,17-1.2c6.8-3.1,12.1-8.5,17.4-13.5c8-7.2,18.1-13.3,29.2-13
	c2.8,0.2,4.5,2.7,6.9,3.9c5.9,3.5,12.9,3.2,19.5,3c-4.9-3.2-6.8-9.3-5.6-14.9c1.2-5.8,2.8-12.4,7.8-16.2c4.7-3.5,11-2.1,15.9,0
	c0.1-4.7,1.5-9.8,5.5-12.7c7.4-5.7,18.1-5.4,26.2-1.5c5.2,2.4,8.9,8.1,7.5,14c4.1-0.7,8.1,0.8,11.4,3.1c3.3,2.5,7.7,2.1,11.7,2.1
	c-1.4,8,1,16.1-0.4,24c7.1,0.7,13.9,3,21,3.6c2.3,4.6,3.8,11.5,10,12c-3.5,3.6-8.8,3.8-13.2,5.7c0.1,7.1,1.4,14.1,1.3,21.2
	c2.5,2.2,5.9,4,9.3,2.9c5.4-1.2,9.6-5.4,12-10.3c1.1-2.2,1.1-4.7,2.2-6.9c0.2,0.1,0.7,0.2,0.9,0.3c0.2,5.9,1.6,11.6,1.5,17.5
	c-2.3,6.2-7.1,11.4-12.7,14.8c-3,2-6.3,0.4-8.5-1.8c-2.5,4.6-4.8,9.4-6.2,14.5c4,2,9.1,2,12.9-0.5c1.6-0.9,1.7-2.8,2.1-4.4
	c7.7,2.8,15.6-1.2,21.9-5.5c6-4,12-9.8,12.1-17.5c3.9-1,8,0.2,12-0.5c2.2-0.3,1.9-2.9,2.3-4.5c3.9,1.5,3,6.2,3.6,9.5
	c-3.1,3.4-6.8,6.1-10.4,8.8c-6.9,5.1-13.6,10.6-21.7,13.8c-14.4,5.9-30.5,6.8-45.8,4.5c-8.7-1.4-17.7-4.7-23.5-11.6
	c-2.9-3.3-4.6-7.3-6-11.3c-1.5,2.9-4.3,5.3-7.7,5.3c-6.5,0.2-13.1-0.8-19.6-1c-11,3.4-19.6,11.7-30.4,15.6
	c-12.1,4.7-25.6,3.5-37.8,0.1c-14.4-4.2-27.3-12.4-38.7-22c-13.9,11.8-28.1,23.6-44.6,31.6c-12.6,6.3-27.7,5.2-40.5,0
	c-6.7-3-14-6.9-16.7-14.2c-1.5-3.8-0.3-7.8,1.1-11.4c7.9,8,19.5,10.7,30.4,10.4c4.7-0.2,9.9-0.9,13.6-4.2c3.9-3.3,4.3-9.2,2.7-13.8
	c-3.2-7-11.9-7.3-17.3-11.7c3.4-2.1,7.2-4.4,8.8-8.3c2.6-5.4,0.3-11.9-3.5-16c-4.5-4.8-10.5-8.5-17.1-9.3c-4.7-0.4-9.6,1.7-12.2,5.6
	c-1.7,2.5-2.5,5.4-3.2,8.3c0.5-6.7-3.4-13.5-9.7-16c-5.4-2.2-12-3.8-17.4-0.8c-4.9,3.2-5.5,9.6-5.6,15c3.8,2.3,5.6,7.2,9.9,8.6
	c1.3-1.4-0.2-2.9-1.2-3.9c-2.4-2.1-5.4-4-5.7-7.5c3,0.4,4,4.2,7.1,4.4c-2-2.6-6.2-4-5.4-7.9c3,1,4.1,4.4,7.2,5.2
	c-1.7-4.2-6.6-5.7-7.9-10.1c6.1,6.3,13.6,10.9,20.6,16.1c3.7,2.3,6.9,5.5,11,7c-1.2-2.1-3.7-3.5-3.6-6.1c1-0.1,2.9-0.2,3.9-0.2
	c-0.7,0.5-1.4,1-2.2,1.4c0.5,0.4,1.5,1.3,2.1,1.7l-0.7-1.2c0.8-0.4,1.6-0.8,2.4-1.2l-0.5,1.1l1.6,0.9l-1.7,0.7
	c0.4,0.4,0.7,0.9,1.1,1.3c0.7-2.2,3.1-1.7,4.9-1.9c-1.2-2.9-3.5-5-5.5-7.3c3.4,0,5.6,3,8.5,4.5c0.2-0.5,0.6-1.4,0.8-1.9
	c-2.2-2.1-5.5-3.2-6.6-6.3c5.2,3.3,10.1,7.3,13.8,12.2c-0.3,0.7-0.9,2-1.1,2.6c0.3,0.3,0.9,0.9,1.2,1.2c-1.7,0.2-4-0.1-3.9,2.3
	c0.5,2.2,2.8,3.2,4.3,4.8c-0.6,0.1-1.2,0.2-1.8,0.2c-2.1-1.7-3.7-4.3-6.6-4.6c0.6,1.4,1.3,2.8,1.9,4.2c-1.3-0.5-2.5-1.1-3.8-1.7
	c0.4,2,0.4,4.6,2.5,5.7c1.9,1,3.3,2.7,4.6,4.3c3.4,3.1,7,5.7,10.6,8.6c-4.3,0.6-5,5.2-4.9,8.8c-0.4-0.2-1.1-0.5-1.5-0.7
	c-1-2.1-2-4.2-3.6-6c-0.3,1.7-0.7,3.3-1,5c-2.3-3.5-6.1-6-10.3-6.6c-4.2-0.5-8.4-1.4-12.1-3.3c0.1,0.7,0.3,2.1,0.4,2.8
	c-2.1-0.2-3.8-1.3-5.5-2.4c0.3,9.2,3.6,18.7,10.5,25.1c7.7,7.3,18.3,10.3,28.5,11.5c1.3,0,2.4,0.7,3.5,1.3c-2.9,0.5-5.8,0.7-8.6,1
	c4.8,3.1,10.6,3,16.1,3.7c2.3,0.2,3.6,2,3.7,4.2c2.6-0.2,5.1-1.3,7.6-2.2c-1.6-0.5-3.2-1-4.8-1.5c19.3-2.3,36.7-12.6,50.4-26
	c9.7,4.4,18.3,11.6,29,13.7c4.3,0.9,8.7,0.7,12.9-0.5c-0.4,0.8-1.2,2.3-1.6,3c14.3,0,28.6,0.6,42.8-1.6c11.6-2,22.1-8,30.5-16.1
	c0.3,3.5-2.5,5.8-5.3,7.3c-3.8,2.1-7.7,4.2-11.5,6.4c7.1,0.6,14.2,1.5,21.3,2.7c-7.2,3.7-17.5,5.7-19.8,14.7
	c5.6,2,11.8,1.9,17.1-0.6c5.1-2.3,9.2-6.1,13.2-9.9c-3-0.9-6.1-1.8-8.9-3.3c4.7-1.6,9.7-0.3,14.5-0.8c-3.2-4.1-7.8-6.6-11.6-10
	c-3.2-2.9-3.6-7.3-3.5-11.3c6.8,10.8,18.4,17.7,30.6,20.6c7.9,2.2,16.1,2.5,24.2,3.4c-8.5,0.6-19,2.9-22.4,11.9
	c7.9,2.4,16.6,0.4,23.6-3.7c0.4-1.3,0.6-2.6,1.2-3.8c1.6-1.9,4.2-2.3,6.5-2.8c-0.3-0.7-0.6-1.3-0.8-2c4.1-0.2,8.2-0.7,12.4-0.8
	c-0.4,0.8-0.8,1.7-1.3,2.6c4,0,7.9,0.7,11.8,0.6c14-0.5,28,0.2,42,0c-4.7-4.2-8.5-9.4-14.1-12.5c-6.8,3.1-13.9,5.5-20.3,9.5
	c5.9-8.4,18.1-9.1,23.8-17.9c3.5,2.9,7,6.2,9.2,10.2c4.4,7.4,12.9,10.8,20.8,13.1c13.8,3.7,28.1,4.8,42.1,7.1
	c2.1,1.8,4.3,3.4,6.5,5.1c8.3-5.8,18.5-0.3,26.3,3.7c-0.8,4.6-2.8,8.9-5.3,12.8c-6.3,0.5-12.6-0.6-18.8-1.5
	c-3.5,4.9-5.4,11.3-3.9,17.3c1.1,4,3.9,7.2,6.8,10.1c-4.8,9-12.5,17.6-11.3,28.5c5.9,1.5,11.2,4.6,16.6,7.4
	c-0.4,2.4-2.7,2.5-4.5,3.3c-1.8,1.2,0.3,2.5,1,3.6c-3.2,0.3-6,1.7-8.3,3.9c5.2-0.8,10.3-1.7,15.5-2.2c-1.7-0.6-3.5-1-5.2-1.6
	c0.5-1.9,3.8-1.8,5.5-2.9c1.3,0.9,3.4,1.4,4,3.1c1,2.9,0.1,5.9-0.3,8.8c-14.6,7.9-31,11.5-47.3,13.4c-21.3,2.1-42.7,3.8-64,5.6
	c-15.3,1.5-30.6,1.5-46,1.8c-26.7,0.2-53.4,0-80,0.1c-8.7,0.5-17.1,3.5-25.9,3.4c-6.7-0.1-13.4,0.2-20-0.4
	c-19.1-0.2-38.3-0.9-57.3-3c1.4-0.7,2.9-1.4,4.3-2.1c-12.4-0.4-24.7,4.7-37.1,2.1c-7.4-1-13.4-6.5-21-6.7c-5-2.3-10.7-2.3-15.8-4.4
	c0.8,1.8,2.5,2.6,4.2,3.5c-10.3,0.8-20.8-0.9-30.1-5.4c-3.8-1.8-6.9-4.8-9.5-8c3.1-9.2,12.8-13.2,21.2-16.2
	c1.7-7.1-0.7-14.6-5.3-20.1c-1.8-2.2-4.1-3.9-5.9-6.1c1.9-4.5,5.1-8.3,7.6-12.4c-1.4-7.1-0.2-15-4.2-21.3
	c-6.4,3.9-14.2,3.3-21.4,3.4c-1.4-5.9-0.5-12.9,4.5-16.8c7-5.5,16.4-4.5,24.6-5.9c-8.9-7.7-17.8-15.5-27-22.9
	c-6.4,0.5-13.7,0-18.5-4.9c-4.5-4.7-4.8-11.5-4.9-17.6c-5.1-6.6-13.3-10.4-21.5-11c-2.4-0.1-5.3-1.2-7.3,0.7
	c-3.2,2.4-3.3,6.7-3.3,10.3c-5.2,3.7-11.8,6.2-18.2,4.7c-7.8-1.9-13.3-8.7-16-15.9c-2.8-6.9-3.5-14.9-0.8-21.9
	c2.1-6.2,7.6-10.8,13.8-12.5c-4-6.1-6.8-13.1-6.5-20.5c-0.2-4.7,1.2-9.2,2.2-13.7c0.7,0.6,1.4,1.3,2.1,1.9c3.3-4.6,9.2-5.5,13.8-8.1
	c-4.4-1.6-7.5,3-11.8,2.1c-0.8,1.5-1.7,3-2.5,4.5c-0.4-0.7-0.7-1.4-1.1-2.1c1.9-3.6,3.9-7.4,7.5-9.6c5.6-3.6,12.9-2.5,18.7,0
	c5.3,4.6,9.9,9.9,15,14.7c4.2-2.1,7.9-5.9,8-10.8c0.1-7.7-3.4-15.1-8.1-21c-2.2-2.3-4.6-5.4-8.2-5c1.5,2.7,4.2,4.2,6.5,6.2
	c-4.9,0.2-8.4-3.7-11.2-7.2c-2.7-3.3-4.6-7.2-5.5-11.4c2.5,2.3,3.6,5.8,6.8,7.4c-1.6-4.6-4.8-8.4-6.6-12.9c-0.7,0-2.2,0.1-2.9,0.2
	c-2.3-4.5-2.8-9.5-3.2-14.4c-1.4-14.3-0.7-28.8,1.5-43c1.6-11.9,5.5-24,13.8-32.9c3-3,6-6.2,10.2-7.5c-1,1.6-2.1,3.2-3.1,4.8
	c8.3-5.1,16.5-11.1,26.2-13.1c-9.2,3.7-17.9,8.9-24.5,16.4c-11.3,12.8-17.6,30-17,47c0.2,6.5,1.7,12.8,2.9,19.2
	c0-5.7-1.1-11.3-0.8-17c0.5-15.6,4.7-31.5,14.2-44c4.8-6.5,11.3-11.8,18.6-15.2c0.5,1.5,1.1,3.1,1.6,4.6c3.6-5.5,7.2-11,11.7-15.8
	c0.3,1.4,0.4,2.7,0.5,4.1c1.9-2.3,4-4.5,6.1-6.5c-7.9,2.2-16.2,2.4-24,4.6c-4.3,1.3-7.8,4.7-9,9.1c-6.1,0.2-11.4,4-15.3,8.4
	c-9.4,10.7-15.8,24.4-16.9,38.7c0.2,13.8-2.5,27.3-3.3,41c-0.4,8.7,0.6,18,5.7,25.3c1.8,2.8,4.6,4.7,7.1,6.9
	c-8.7,0.1-13-8.8-16.6-15.4c-3.5,1.5-4.3,5.8-7.6,7.5c2.7-4.6,4.5-9.9,3.9-15.3c-0.6-3.9-4.4-6.2-8.1-6.3c1.1,3.8,3.6,7.2,2.7,11.4
	c-0.9-3.3-3.3-5.8-6.6-6.8c-5.9-2-12-3.8-17-7.8c1.4,0.7,2.9,1.1,4.2-0.1c0.4,3,3.2,3.8,5.8,3.7c-1.8-1.9-3.6-4.4-2.7-7.1
	c4.6-6.3,9.2-12.5,13.3-19.1c2.4-3.6,1.4-8.5,4.1-11.9c0.9-1.1,2.5-0.3,3.7-0.4c-1.9,3.5-4.3,6.8-6.3,10.3c5.4,0.7,9.9-3.8,9.9-9.1
	c-0.5-11.7-4.3-23.9-0.1-35.4c4.6-12.6,16-21,27.5-26.8c3.8-1.9,7.6-3.7,11.6-5c-1.5,2.6-4.1,4.4-5.7,6.8c14-5.7,28.9-8.7,42.8-14.9
	c9-4.1,17.5-11,20.6-20.7c-1.5,1.1-3,2.3-4.4,3.5c-0.4-2.7,1.1-5.2,3.2-6.8c1.6-0.5,2.5,1.4,3.6,2.1c5.7-4.7,9.8-11.1,14-17.1
	c-3.5,2.3-6.2,5.5-8.8,8.8c1-6.8,7.3-10.6,11.8-15c0.2,0.3,0.6,0.8,0.7,1.1c2.3-3.6,4.8-7,6.9-10.7c-9,3-15.9,9.9-24.2,14
	c-4.6,1.4-9.4,1.3-14.1,1.9c-6,1.1-11.9-0.6-17.7-1.9c-8.4-2-16.5-5.9-25.2-5.9c-3.7-0.1-7.9,0.4-10.6,3.2c0.4,0.4,1.3,1.1,1.7,1.5
	c2.7-1.3,5.3-3,8.3-3.4c-5.6,7.3-16.2,7.3-22.1,14.2c-1.4,1.6-2.1,3.7-2.9,5.7c11.7-2.9,21-12.3,33.3-13.4c-1.1,1.7-2.6,3.1-4.5,4
	c9.6,2.3,19.6,0.9,28.9-2.4c-4.3,5.8-11.5,8.1-18.1,10.2c-9.1,2.5-18.4,4.4-27.1,8.2c-2.9,1.4-5.9,2.7-7.7,5.5
	c3.8,0.4,6.3-3.6,10.2-2.9c-2.1,2.4-4.9,4-7.9,5c1.2,0.4,2.3,0.8,3.5,1.1c-4.2,1.6-7.2,5.4-11.6,6.6c0.6-0.6,1.8-1.8,2.4-2.4
	l0.5-0.5c1.5-0.9,2.7-2.6,4.7-2c-0.2-1-0.4-2-0.7-2.9l0.1,2c-3.6,1.1-6.8,3.3-10.1,5c1.3,0.4,2.5,1,3.7,1.5
	c-2.2,1.2-4.2,2.6-6.1,4.3c15.4-5,30-13.3,46.2-15.6c-4,4.2-9.7,5.9-15.3,6.5c6,1.7,12.4-0.7,17.3-4.1c7.3-5.5,14.2-11.8,22.4-15.9
	c-3.7,7.8-10.4,13.7-17.4,18.5c-10.5,7.1-22.2,12.1-33.9,16.7c-12.1,5-23.9,12.6-30.7,24.1c-6.5,11.1-7.7,24.7-4.4,37.1
	c-2.6-2.4-5.6-5.4-5.2-9.3c0.7-4.3,1.3-8.7,1.7-13c-1,2.3-1.8,4.8-2.7,7.1c-0.6-13.5,4.9-26.9,14-36.8c-2.1-4.2,2-7.3,4.2-10.3
	c1.2-1.5,0.2-3.2-0.6-4.6c-3.9,4.1-7,8.8-10.1,13.5c0.7-11.9,14.6-17.6,16.6-29.1c-5,1.2-6.3,6.9-8.3,10.9
	c-7.3-5.7-9.2-15.1-14.2-22.4c6.3-5.4,5.2-14.8,9.3-21.5c-0.1,6.1-2.4,12-2.6,18.1c-0.2,5.3-0.6,11.1,1.9,16
	c1.1,2.3,3.4,3.8,5.6,4.9c-2.9-12.6-6.2-26.3-1.3-38.8c2.8-7.4,10.1-11.9,17.7-13.3c-5.1,7.4-11.2,14.1-15,22.3
	c-3.4,7.5-2.6,16.6,2.3,23.3c2.2-1.7,3.8-4.1,4.8-6.7c0.7-3.4-3.1-5-4.2-7.7c-2.3-4.6-0.2-9.8,2.1-13.9c4.8-8.4,12.1-15.3,21.1-18.9
	c-10.7-0.6-22.8,0.5-31,8.1c-5.8,5.5-7.4,13.7-7.8,21.4c-0.8-0.2-1.7-0.4-2.5-0.7c0.1-2.6,2.2-5,1.1-7.7c-5.2,7.3-4.5,17.2-1.3,25.1
	c1.1,3.2,3.9,5.4,6.2,7.7c-5.2-3.9-10-8.9-11.9-15.2c-2-6.1-1.3-12.8,0.4-18.9c3.1-10.1,8.1-19.8,15.8-27.3
	c-5.5,3.5-9.8,8.6-12.6,14.4c-0.7-1.2-1.4-2.4-2.2-3.6c-4.6,4.7-6.5,11.2-7.2,17.6c2.2-3.5,3.6-7.4,4.5-11.4
	c-1.9,12.2-4.2,24.8-1.8,37.1c1.3,6.8,5.2,13.5,11.7,16.5c1.7-2.4,3.4-4.7,5.4-6.8c0.5,4.3-2.1,7.8-4.6,11c-2.1,2.6-3.7,5.6-5.2,8.7
	c-1.3-3.3,1.2-6.5,2.2-9.6c-8.2-8-12.3-19.4-12.8-30.7c-0.1-4.2,0.1-8.4,0-12.6c-1.9,4.5-1.7,9.6-3.1,14.3
	c-2.1-12.9,0.9-26.8,9-37.3c4.2-5.8,9.9-10.2,15.8-14.2c9.2-6,19.1-10.7,29.1-15.3c-4.9-3-9,3-13.7,4c4.3-6,12.2-7.2,19.1-7.9
	c10.4-0.7,20.8,0.6,31,2.3c0-0.2-0.1-0.6-0.2-0.8c-7.8-3.3-16.3-5-24.8-4.6c-9.9-0.2-21.1,1.3-28.1,9c4.1-8.7,13.9-12.9,23.2-12.6
	c19.9,0.4,39,7.7,59,7.6c8.8,0.1,17.7-3.9,23-11.1c-8.8,2.8-16.2,10.3-26,9.6c8.6-3.6,16.6-8.6,23.4-15.1c-11.8,7-25.9,8.2-39.4,7.9
	c-16.7,0.5-33.3-2.7-49.9-2.7c-3.8,2.2-7.4,4.9-10.3,8.2c1.3-5.5,1.7-11.4,5.1-16.1c1.9-3.3,5.2-5.2,8.2-7.4
	c-9.1,0.5-12.7,10.3-15.9,17.4c-1.6-9.9,7.9-16.3,11.3-24.7c6.8,2.6,11.9-4.5,18.6-3.5c9.8,0,18.4,5.6,28,6.3
	c7.1,0.6,12.6-4.7,19.1-6.2c10.9-1.6,22.6,2.4,32.9-3c-15.1-1.6-29.2-7.8-43.4-13.2c-0.3,2.6,1.3,6.8-2.7,7c1.4,0.5,2.8,1.2,4.2,1.9
	c-0.8,0.3-2.5,0.8-3.4,1.1c5.4,0,10.9,0.6,16.3,1.2c-4.2,4.3-10.2,6.4-16.1,6.4c-11.3,0.2-21.7-5.5-33-5.1
	c-5.7-0.3-11.4,1.4-15.9,4.9C195.4,238.8,207.1,227.1,222,221.6z"/>
<path class="st0" d="M371.8,234.7c6.5-2.9,13.5-4.5,20.5-5.1C386.2,233.1,379,235.6,371.8,234.7z"/>
<path class="st0" d="M199.4,243.7c-1.6-6.1,4.8-10.1,9.5-12.5c0,0.9,0,2.7,0,3.5c1.1-0.4,2.2-0.8,3.4-1.2c-1.7,4.3-6.1,6.3-9.6,8.9
	C201.6,243,200.7,244.2,199.4,243.7z"/>
<path d="M316.7,231.5c3.3,1.5,5.1,4.9,8.2,6.8c-0.8,0-2.3-0.1-3.1-0.1c7.6,9.6,15.3,19.4,25.2,26.8c1.7,1.3,2,3.5,2.6,5.4
	c-0.8,0-2.4,0-3.3,0.1c-2.5,2.1-7.1,2-7.6,5.9c-0.5-0.4-1.5-1.1-2-1.4c-0.2,1.8-0.4,3.6-0.5,5.5c-2.3,0.6-4.6,0.9-6.9,1.1
	c0,0.6,0,2,0,2.6c-4.7,1.1-8-3.3-12.5-3.4c1.3,1.1,2.6,2.2,3.9,3.3c-3.6,0.1-7-0.6-10.5-1.2c-0.4-1.6-0.7-3.1-1-4.7
	c-1.3,0.1-2.5,0.1-3.8,0.2c0-0.5,0.1-1.6,0.2-2.1c1.1,0.5,2.2,1,3.4,1.6c0.8-0.4,2.4-1.3,3.2-1.7c-3.1-3.2-9.3-2.6-10.5-7.6
	c3.2,1.6,6.3,3.3,9.6,4.6c-2.2-2.6-4.9-4.7-7.3-7c2,0.5,4,1.1,6,1.7c-3.2-2.7-6.7-5.1-9.8-8c4.9-0.2,8.1,4,12.1,5.9
	c-3.9-3.9-8.6-6.8-12.2-11c4.7-0.8,7,5.4,12,4.3c-2.6-3.7-6.7-5.7-10.1-8.4c1.3-0.4,2.5-0.8,3.8-1.2c-0.8-1.9-1.5-3.7-2.2-5.6
	c3.3,2,5.4,6,9.7,5.6c-2.2-1.9-4.6-3.7-6.8-5.7c6-2.4,8,6.2,13.8,5.4c-3.9-4-10.2-5.6-12.4-11.2c2,0.9,3.9,1.9,5.9,2.9
	c-0.4-2.2-1.8-3.8-3.5-5.2c2.6,0.6,5.2,1.1,7.8,1.3C317.6,235.1,317.2,233.3,316.7,231.5z"/>
<path class="st0" d="M446,242.8c2.2-2.7,5.2-5.1,8.9-5.1c6.8,0.6,13.5,5,15.6,11.7c0.8,2.9,0.4,6,0.3,8.9c-1.5-1.7-2.1-5-4.9-4.7
	c-2.8,1.3-5.6,2.7-8.6,3.4c0.2-4.1,0.6-8.3,2.1-12.2C456.1,240.7,450.5,243.3,446,242.8z"/>
<path class="st0" d="M217.9,247.6c1.8-1.8,4.2-1.7,6.3-0.4C222.1,247.4,220,247.6,217.9,247.6z"/>
<path class="st0" d="M493,246c2.5,0,4.9,0,7.4,0.2c-1.5,2.8-4.5,3.7-7.3,4.6C493,249.2,493,247.6,493,246z"/>
<path class="st0" d="M243.6,256.5c3.3-1.7,6.8-3.1,10.4-4.3C252.1,256.3,247.4,256.1,243.6,256.5z"/>
<path class="st0" d="M439.6,251.9c3.1,5,3.1,11.6,7.4,15.9c1.1,0.3,2.3,0.6,3.4,1c-4.1,0.9-6.6-2.8-8.3-5.9
	C440.2,259.6,439.7,255.7,439.6,251.9z"/>
<path class="st0" d="M533.2,260.3c4.4-0.5,8.9,0.7,12.1,3.8c-1.1-0.4-2.2-0.8-3.3-1.3c-2.2-0.1-1.2,2.7-1.7,4.1
	c-1.6-0.2-3.4,0.1-4.9-0.6C533.3,265,533.4,262.4,533.2,260.3z"/>
<path class="st0" d="M205.2,269.6c2.1-0.2,4.2-0.5,6.2-0.5c-1.5,0.9-3.2,1.3-4.9,1.5C206.1,270.4,205.5,269.9,205.2,269.6z"/>
<path d="M615.7,296.1c10.3-12.8,26.9-18.2,42.5-20.9C643.9,281.8,629.3,288,615.7,296.1z"/>
<path d="M236.9,282.5c7.8-2.1,16.4,0.2,23.6-4c-2,4.4-7.4,4.7-11.5,4.4C244.9,282.6,240.9,282.6,236.9,282.5z"/>
<path class="st0" d="M274.4,282.4c0.8-0.8,1.1-2.1,2.3-2.3c-0.3,1.1-0.8,2.2-1.1,3.3c3.6-0.6,0.5,2.4-0.3,3.2c0.8,0.2,2.3,0.7,3,0.9
	c-1.1,1.8-2.3,3.6-3.6,5.3c2.1-0.6,4.3-1.2,6.4-1.8c-1.4,1.3-2.8,2.7-4.5,3.7c-0.9-0.5-1.6-1.1-2.4-1.6c-0.5,1.7-1.3,3.3-2.6,4.6
	c0.4,2.7-0.8,5.3-2,7.7c1.8-0.2,3.5,0,5.3,0.4c-2.4,3.5-6.1,5.6-9.6,7.8c0-0.8-0.1-2.3-0.2-3c-6.9,8.1-17.9,10.5-28,11.7
	c-12.9,1.4-26.8,0.2-38.2-6.6c9-0.6,18-1.6,27.1-1c8.3,0.8,16.7,0.6,25,1.3c1.8,0.2,3.4-0.4,5.1-0.8c-1.2-0.8-2.6-1.4-4-1.4
	c-7.2-0.6-14.5-0.3-21.7,0c-2.8-4.4-7.5-7-12.2-9c-10.4-4.2-21.5-5.8-32.5-7.3c6-3,13-2.6,19.4-1.7c11.8,1.8,22.7,8.4,34.9,7.6
	c4.4,0,8.4-1.8,12.2-3.8c-11.4,0-23.8,2.1-34.3-3.5c3.7-1.6,7.4,0.7,11.1,1.4c3,1,6.2,0.7,9.2,0.1c-5.7-1-12-1.8-16.6-5.6
	c3.8,0.5,7.4,1.7,11.1,2.7c1.4-1.7,2.7-3.6,5.1-3.7c0,0.9-0.1,2.8-0.1,3.7c7.9-0.7,15.9-1.8,23.5-4.3
	C266,288.6,270.9,286.3,274.4,282.4z"/>
<path d="M627.3,296c7.3-7.1,18.4-7.5,28-8.2C646.9,293,636.3,292,627.3,296z"/>
<path class="st0" d="M406.6,297.3c2.3,1.3,3.8,3.7,5.6,5.6c-2,0.5-4.1,0.9-6.2,1.3c0.6-1.5,1.2-3.1,1.8-4.7c-1-0.1-2.9-0.2-3.8-0.3
	C404.8,298.5,405.7,297.9,406.6,297.3z"/>
<path d="M609.3,307.5c9.6-1.4,18.3-6.3,28.1-6.8c-7.2,3.2-14.5,6.7-22.3,8.2C613,309.4,611.1,308.3,609.3,307.5z"/>
<path class="st0" d="M161.8,315.8c17-9.6,38.2-11,56.3-3.6c-1.2-0.8-2.3-1.7-3.4-2.6c5.1,0.9,10.7,1,15.2,3.9
	c-14.6,2.1-29.2-1.5-43.8-1c-10.3,0.1-21.3,2.3-29.3,9.3c-3.7,3.1-5.9,7.4-8.1,11.6C149.9,325.7,155.2,319.4,161.8,315.8z"/>
<path class="st0" d="M506.2,307.4c1.9,0,3.8,0,5.7,0c-1.1,1.1-2.2,2.3-3.3,3.4c2.1,0.5,4.2,1.2,6,2.5c-5.4-0.1-10.5,1.3-15.3,3.7
	c-0.1-4,4.3-4.9,6.8-7C506.1,309.4,506.2,308,506.2,307.4z"/>
<path d="M536.8,309.2c2.5-1,5.3-1.7,8.1-1.3c1.9,0.4,2.6,2.4,3.6,3.8c-3.8-1.2-7.7-0.1-11.6-0.5
	C536.9,310.7,536.8,309.7,536.8,309.2z"/>
<path class="st0" d="M264,317c3-3.2,7.4-4.2,11.3-5.8c-5.7,5.4-12.9,8.8-20,12C257.6,320.4,260.3,317.6,264,317z"/>
<path class="st0" d="M192.3,320.4c14.6,2,29.4,4,43.9,6.7c-2.2,2.7-8.1-0.4-7.6,4.4c4.4,0.6,9.4,0.3,13,3.5
	c-15.1-2.2-28.6-10-43.5-13C196.1,321.7,194,321.6,192.3,320.4z"/>
<path class="st0" d="M246.9,332c9.4-4.5,20.4-5,29.1-11c-3,3.6-6.8,6.7-10.9,8.9c4.5-2,9.1-3.8,13.3-6.4c-0.7,1.1-1.1,2.5-2.3,3.2
	c-3.9,2.6-8.4,4.3-12.7,6.2c0.4-0.8,1.3-2.3,1.8-3.1c-4.2,2.2-8.7,3.9-13.2,5.1C250.5,333.7,248.7,332.8,246.9,332z"/>
<path class="st0" d="M252.7,328.3c2.1-3.3,6.2-4.2,9.5-5.8C259.1,324.5,256.2,326.9,252.7,328.3z"/>
<path class="st0" d="M438,327.5c3.2-2.8,8.2-4.1,11.7-1.2c-1.9,0.6-3.9,1-5.5,2.2C442.1,328.2,440,327.8,438,327.5z"/>
<path d="M342.5,339.6c2.7-6.5,8.7-11.5,15.7-12.6c-9.1,2.8-14.4,11.9-15.7,20.9c-2.3,15.4-0.6,32.6,8.8,45.5c0.5-6-4-11.1-3.4-17.1
	c2.6,3.9,3.2,8.7,4.9,13c0.8-8.7-4.1-16.9-2-25.6c3.3,9.6,2.5,20.3,7,29.6c0.6,1.2,0.8,2.5,0.5,3.8c5.9,7.1,13.9,11.9,20.7,18
	c1.5,1.1,1.3,3.1,1.7,4.7c-8.3-2.8-12.9-10.9-20.2-15.2c-0.4,0.3-1.1,1-1.4,1.4c1.6,2.5,4.7,3.4,6.2,6c-2.3-0.3-4.2-1.7-5.7-3.5
	c-2.1-2.5-4.7-4.8-5.7-8.1c-9.6-6.4-12.3-18.6-13.7-29.3C339.2,360.6,338.2,349.5,342.5,339.6z"/>
<path class="st0" d="M171.5,340c3-5.7,7.7-11.7,14.7-11.9c-3.3,1-6.6,2.5-8.4,5.5c-4.4,6.8-3.4,15.4-5.1,23
	c-0.8,0.1-1.7,0.2-2.1-0.6C168.4,350.9,168.8,344.9,171.5,340z"/>
<path d="M466.1,329.1c6.4-1.6,13.1-1.1,19.6-0.9c-2.3,2.2-6.7,3-5.8,7.1c-1.7,0-3.4-0.1-5.1-0.2c0.8,0.7,1.6,1.4,2.3,2.1
	c-0.7,3.1-4.2,3.6-6.6,4.7c1.7,0.5,3.5,1,5.2,1.5c-1.9,4.9-7.9,2.5-11.9,3.2c2.2,0.8,4.4,1.2,6.6,1.5c-2.5,1.8-5.6,3.3-8.6,1.7
	c-2.7-1.4-5.4,0.3-7.9,1.3c1.9-2.2,4.1-4.2,6.5-5.9c-0.8-0.2-2.3-0.5-3.1-0.6c0-2.2,0-4.4,0-6.6c3.4-0.5,6.7-1.1,10-2.2
	c-0.9-0.2-2.7-0.5-3.6-0.7C463.7,332.8,464,330.2,466.1,329.1z"/>
<path class="st0" d="M211.3,331.2c4.5-2.4,8.7,1.8,13.1,2.5C220,336.6,215.6,332.1,211.3,331.2z"/>
<path class="st0" d="M595.2,332.9c6.3-0.5,4.9,9.2,0.1,10.4C595.1,339.9,595.1,336.4,595.2,332.9z"/>
<path class="st0" d="M232.9,388.5c21.5-12.5,29-39.6,51-51.6c-10.7,12.6-21.9,24.8-31.6,38.3c-5.8,8.1-11.6,16.5-14.7,26.1
	c-1.2-0.6-2.3-1.1-3.5-1.7c0,3.2,0,6.5,0,9.8c0.9,0.3,1.8,0.7,2.7,1c-2.8,9.3,0,19.3,4.2,27.7c4.5,8,10,15.4,14.4,23.4
	c-5.9-4.3-7.8-12.9-15.1-15.4c4.7,6.7,9.9,13.1,16.4,18.2c4.1,3.3,9.2,5.6,14.5,5.3c-1.3-2.4-3.1-4.5-4.7-6.6c3,1.5,6.3,2.7,9.6,3.3
	c-3.7,6.5-8.5,13.2-16.1,15.2c-8.7,2-17-2.6-23.7-7.8c-11.9-9.3-17.3-25-16.9-39.7c0.7-11.7,5.9-22.5,9.4-33.5
	c1.1-1.7,0.1-3.7,0.6-5.6C231.3,393.3,232.1,390.8,232.9,388.5z"/>
<path d="M180.4,351.4c4.7-4.1,10.3-8,16.7-8.3C191.7,346.1,186.4,349.7,180.4,351.4z"/>
<path d="M243,354c2.3-3.6,4.8-7,7.8-10c-2.6,8-9,14.1-11.9,21.9C238.5,361.6,240.7,357.6,243,354z"/>
<path d="M378,349.1c7.2,9.4,16.6,17.1,27.1,22.7c5.3,0.2,10.6,1,15.7,2.3c9.4,6.8,17.6,16.4,20.1,28c0.9,5.2,2,10.7,0.2,15.9
	c-0.7,0.4-2,1.1-2.7,1.4c1.6-7,2.2-14.5-0.5-21.3c-2.6-6.5-7.9-11.6-13.9-15c-12.7-7.1-27.2-10.3-39.1-18.9
	c4,6.1,11.1,9.1,17.3,12.4c9.4,4.5,20.2,7.6,26.8,16.2c2.9,3.7,4.3,8.4,4.8,13c-6-9.5-16.7-14.4-26.4-19.2
	c-8.6-3.8-17.8-7.6-23.6-15.4C378.8,365.1,377.4,356.8,378,349.1z"/>
<path d="M460.7,352.9c3.5,0.2,6.8-1.2,10.2-1.8c-3.7,2.6-8.7,4.1-10.8,8.5C460.6,357.4,460.7,355.1,460.7,352.9z"/>
<path d="M329.9,353c4,14.6,7.9,29.3,11.4,44.1C331.4,384.8,329.9,368.1,329.9,353z"/>
<path class="st0" d="M441.4,355.5c2,2.5,3.4,5.5,4.5,8.5c-2.5,1.8-5.6,2.5-8,4.6c-1-0.5-1.9-0.9-2.9-1.4c2.9-1.4,6-2.2,8.7-4.1
	c-2.3-1.1-4.5-0.6-6.6,0.5c-2.6-0.5,0.1-2.2,0.8-3c1.1-0.3,2.2-0.3,3.3-0.1C441.2,358.9,441.2,357.2,441.4,355.5z"/>
<path class="st0" d="M598.5,357.2c2.8-1.1,6.6-2,9.1,0.1c2.1,6.5,0,13.9-4.6,18.8c-4.8,4.9-11.2,8.4-18,9.4
	c-5.7,0.8-11.5-0.7-16.6-3.2c7.2-0.1,14.6,0,21.7-1.7c4.5-1,9-3.9,10.3-8.6C602.1,367.1,600,361.9,598.5,357.2z"/>
<path d="M189.8,370.8c4.8-1.1,9.1-3.7,13.9-4.7C200.7,370.6,194.8,371.1,189.8,370.8z"/>
<path class="st0" d="M508.8,369.8c11.2-3.7,24.3-3.9,34.6,2.4c-0.9,4.3-1.5,8.8-3,13c-0.8,2.1-3,2.7-4.8,3.6
	c0.6-1.3,1.2-2.6,1.8-3.9c-4.6-2.5-10-1.1-15-1.4c-2.2-5.5-6.2-10.9-12.5-11.6c-6.4,0.9-7.6,8.8-13.6,10.5
	C497.5,376,503,371.7,508.8,369.8z"/>
<path d="M230.9,372.2c0.3,0.3,1,0.8,1.3,1c-0.7,4.5-5.4,6.4-8.5,9.1C223.3,377.5,229.8,376.5,230.9,372.2z"/>
<path d="M311.8,376.9c3,5.1,3.9,11,4.9,16.7C312.9,389,312.2,382.7,311.8,376.9z"/>
<path class="st0" d="M551.5,377.2c9.2,3.8,17.6,9.6,27.6,11.4c-0.2,2.7-0.9,5.6-3.2,7.3c-4.8,3.5-11.2,2.3-16.5,0.9
	c0-4.1,0-8.2,0-12.2c-2.2,0.6-4,2-5.3,3.8C551.5,385.1,551.4,381,551.5,377.2z"/>
<path class="st0" d="M162.1,396.7c3.8-7.5,10.4-16.5,19.9-14.7C174.9,386.2,168.2,391,162.1,396.7z"/>
<path class="st0" d="M452.4,385.6c1-0.3,2-0.6,3-0.8c-2.2,3.9,1.4,7.3,0.8,11.2c-1.3-0.8-2.6-1.4-4-2c0.1-0.4,0.4-1.2,0.5-1.6
	C452.5,390.2,450.2,387.4,452.4,385.6z"/>
<path d="M303.5,385.8c1.3,1-0.3,5-2.2,4.4C300.8,388.5,302.5,386.9,303.5,385.8z"/>
<path class="st0" d="M227.7,397.8c-0.1,0.8-0.5,2.4-0.6,3.2c-5.7,9.9-7.4,21.4-9.4,32.5c-1.4,7.9-1.9,15.9-3.3,23.9
	c-0.8-8.1-0.4-16.3,0.8-24.4c0.5-5.3,1.9-10.9-0.4-16C217.4,409.6,223.1,404,227.7,397.8z"/>
<path class="st0" d="M460.4,400.3c0.3-0.3,1-0.8,1.3-1c0,0.8,0,2.4-0.1,3.2c2.1,0,4.1-0.2,6.2,0c0.6,1.2,1,2.6,1.6,3.8
	c-0.4,1.6-0.9,3.3-1.6,4.8c-2.2-2.9-4.9-5.8-8.9-5.7C459.5,403.7,459.9,402,460.4,400.3z"/>
<path d="M144,408.9c2.2-3.3,5.2-7.7,9.6-7.5c0.3,0.6,1,2,1.3,2.6c-9,6.2-10.8,17.9-11.8,27.9c-0.7,6.9,0.9,13.9,4.9,19.6
	c-5.1-1-8.7-5.6-9.3-10.6C137.1,430.2,138.8,418.6,144,408.9z"/>
<path d="M377.8,400.9c4.9-0.3,6.6,5.2,10.5,7.2c-0.4,0.5-0.7,1.1-1.1,1.6C383.9,406.9,380.4,404.4,377.8,400.9z"/>
<path class="st0" d="M163.8,433.1c-2.2-12.8,7-24.2,16.7-31.3c-4.5,8.5-14.3,14.4-14.3,25l1.9-0.1
	C166.4,428.7,165,430.8,163.8,433.1z"/>
<path d="M532,403.9c3.8,4.8-1.2,10.3-0.5,15.6C528.7,414.7,530,408.8,532,403.9z"/>
<path d="M225.8,413c0.1-2.8,1.9-5,3.5-7.1c-3.6,15.7-1.1,32.7,7.3,46.5c6.1,10.7,16.4,19,28.4,21.9c-1.2,1.6-2.4,3.3-3.5,5
	c-8.1-0.5-15.7-4.6-21.4-10.3c6.1,1.5,10.6,6.5,16.8,7.7c1.6,0.5,3-0.4,4.5-0.8c-11.2-5.1-22.4-11.4-29.5-21.8
	c-4.6-6.8-6.8-15.1-6.1-23.2c-1,0.9-1.9,1.8-2.9,2.6C222.6,426.5,224.9,419.9,225.8,413z"/>
<path d="M263.8,407.6c1.2,1.6,2.4,3.4,2.4,5.5c0.2,5,0.5,10,2.1,14.8C261.9,423.1,264.3,414.4,263.8,407.6z"/>
<path d="M407,410.4c5.6-1.5,10.3,2.7,15.2,4.6C417,413.8,411.9,412.3,407,410.4z"/>
<path d="M268.5,412.5c2.8,4.6,3.1,10.1,2.8,15.4C268,423.4,268.2,417.7,268.5,412.5z"/>
<path class="st0" d="M203.3,430.5c1-5.1,2.5-10,4.6-14.7c-0.8,3.8-1.8,7.6-2.7,11.4C205,428.5,204.3,429.7,203.3,430.5z"/>
<path d="M343,442.1c-5.2-8.9-13.8-15.4-18.1-24.8C331.4,425.2,339.4,432.3,343,442.1z"/>
<path d="M231.2,417.9c0.8,1.3,1.6,2.6,1.8,4.1c1.3,6.1,3,12.2,4.8,18.1c-2.9-3.7-4.5-8.3-6.2-12.6
	C230.3,424.5,230.8,421.1,231.2,417.9z"/>
<path class="st0" d="M477.2,423.6c2.5,1.3,3,4.1,3.4,6.7c1.4-1,2.7-2,4.1-3c0.1,2.1,0.2,4.2,0.3,6.3c2.8-3.4,7.5-2.2,11.1-4.1
	c0.6,2.3,3,1.7,4.8,2.1c0.9,0.7,1.8,1.4,2.8,2.1c-0.1-3.6-3.3-6.3-2.7-10c3,0.4,3.6,3.5,3.7,6.1c3.2,3.9,6.6,7.7,10.6,10.9
	c0.3-3.1-2.3-5.3-3.3-8.1c1.9,1.2,3,3.2,4.3,5c2.4,3.6,5,7.2,7.3,11c0.5-1.6,1.1-3.1,1.9-4.5c1.2,2.9,2.1,5.9,2.9,9
	c1.1-0.9,2.1-1.8,3.2-2.7c1.3,1.7,1.6,4.5,4,5.1c-0.6-1-1.4-1.9-1.9-2.9c0.5-1.4,1.1-2.8,1.7-4.1c2.2,1.6,4.4,3.5,5.1,6.3
	c1.8-0.9,3.7-1.9,5.6-2.7c0.3,1.5,0.5,3,0.8,4.5c2.4-1.1,7.2-0.5,6.6-4.4c-2-0.7-6.7-0.4-5.1-3.8c5.1,1,7.6,6.4,12.4,8.2
	c1.1-0.7,2-1.9,3.3-2.2c6.1-0.8,12.3,0.5,18.2,2.1c-2.4,7.6-6.9,14.8-13.5,19.5c-8.2,5.9-18.9,7.1-28.7,6.2c2.9,3,6.8,5.1,11.1,5.3
	c5.7,0.3,11.4-1.4,16.6-3.7c3.8-1.6,6.6-4.8,10-7.1c0-0.8,0-1.6,0-2.5c-0.8,1.3-1.5,2.5-2.2,3.8c-1-0.1-3.1-0.4-4.1-0.5
	c6.6-8.4,12.7-17.3,18.9-26c4.2,0.1,8.4,0,12.6,0c-6.3,6.2-10.6,13.9-14.8,21.5c-3.4,6.1-6,12.9-11.7,17.4
	c-5.3,4.5-12.4,6.7-19.3,6.4c-8.8-0.1-17.6,0-26.2-1.8c-0.7-1.5-2.2-2.3-3.5-3.2c1.6-1.5,3.1-3,4.5-4.6c-0.4-0.4-1.3-1.2-1.7-1.6
	c3.6-0.6,7.1-2.1,9.8-4.6c-0.7-0.5-2-1.5-2.6-2c4.2-2.8,9.2-4.3,13-7.8c-6,2.4-12.2,4.4-18.3,6.4c-4.4,1.3-9.5,2.5-13.8,0.3
	c-2.4-1-3.2-4.5-6.2-4c-2.6,0.6-4.4,2.9-6.9,3.9c-0.3-0.7-0.8-2.1-1-2.8c-2.9-1.1-6.2-1.3-8.8-3.1c0-0.2,0-0.7,0-1
	c5.6-1.2,11.6-1.8,16.6-4.9c1.8-1,2.4-3,3-4.8c6.2,1.5,12.9-1.1,18.9,1.7c-4.7-8.3-16.1-7.1-23.3-3c0.5,1.2,1,2.5,1.5,3.7
	c-5.5,2.5-12.2,2.2-17.4-0.9c-8-4.7-14.6-12.2-24-14.3c-1.3-4-2.9-7.9-3.7-12.1c0.6,0.4,1.9,1.2,2.5,1.6c2.2-2.2,3.6-8,7.7-5.7
	C477,429.2,477,426.4,477.2,423.6z"/>
<path d="M305.3,429.9c2.8,4.9,5.2,10,6.7,15.5C306.7,442.1,305.1,435.7,305.3,429.9z"/>
<path d="M328.9,437.2c-0.2-1.4-1.7-2.8-1-4.2c4.1,6,8.2,11.9,12,18.1c4.7,7.6,9.7,15.5,17.4,20.6c7.7,4.4,17.9,5.5,22.8,13.9
	c-5.4-1.5-10.3-4.2-15.5-6.2c-2.8-1.1-6-1.3-8.9-0.2c-11.5-7.4-19.9-18.6-27.8-29.5c10.8,8.2,16.5,22.6,29.9,27.4
	c-4.1-3.4-8.5-6.5-12.1-10.5C337.7,458.2,332.2,448,328.9,437.2z"/>
<path d="M285.6,438.1c5.9,8.5,15.6,14.7,18.1,25.3c-4.1-0.5-7.6-3.2-9.3-6.9C291.3,450.5,288.3,444.4,285.6,438.1z"/>
<path d="M619,444.1c5.5-3.7,12.1-5.3,18.7-5.6c-3.8,3.5-7.7,6.9-11.5,10.3c8.8-3.2,18.6-4.8,27.8-2.3c-1.2,1.3-2.1,3.2-4,3.8
	c-5.4,1-9.8-5.8-15.1-2.8c-9.9,4.6-15.4,14.8-20.2,24c-3.8,8-8.3,16.5-16.7,20.6c-4.4,2.4-9.5,2.3-14.3,1.9c4-2.6,7.9-5.6,10.5-9.7
	c2.2-3.2,3.2-7,4.6-10.5c3.7,4-1.9,7.7-2,11.9c5.5-2.7,8.8-8.1,11.7-13.3c1.8-3.5,3.9-6.9,4.7-10.8c-2.8,1.1-3.6,4.2-5.2,6.5
	c-0.5-4,0.6-8.1,3.1-11.2c2.5-3.6,6.4-5.8,9.4-8.9c-2.5,0.7-4.9,1.7-6.7,3.7c-5.1,5.5-7.8,12.6-10.5,19.4
	C603.4,460.2,609.7,449.8,619,444.1z"/>
<path class="st0" d="M209.4,440.7c0.5,4.6,1.3,9.2,1.5,13.9C208.6,450.3,209.1,445.3,209.4,440.7z"/>
<path d="M651.1,453.6c6.3-3.2,10.5-9.3,17-12C663.7,447.1,658.2,452.2,651.1,453.6z"/>
<path d="M343.9,449.3c3.6,0.2,5.1,3.5,6.9,6c1.7,2.6,4.1,4.5,6.4,6.5c-2.4,0-4.9-0.7-6.5-2.6C348.2,456,346.1,452.6,343.9,449.3z"/>
<path d="M403.7,453.3c6.4-0.6,12.9,1,18.8,3.4C415.9,458.2,410.2,453.5,403.7,453.3z"/>
<path class="st0" d="M287,453.8c3.3,4.7,8.6,8.5,10,14.2c-3.8,12.8-13,24.6-25.7,29.2c-7.6,2.7-16.1,0-21.9-5.1
	c8.2,1.6,17.5,2.5,25-1.9c6.3-3.6,9.9-10.5,11.7-17.2C287.8,466.7,287.6,460.1,287,453.8z"/>
<path class="st0" d="M161.8,453.9c2.2,6.2,0.3,12.8-2.2,18.6c-3.1,7-4.7,14.8-3.4,22.5c-5.6-3.3-12-4.4-18.1-6.3
	c0.5-3.7,1.2-7.6,3.6-10.6c3.7-5.8,10.5-8.3,14.8-13.5C159.4,461.6,160.7,457.7,161.8,453.9z"/>
<path class="st0" d="M219.2,454.7c3.8,8.8,6.3,18.1,10.7,26.6c-3.8-3.6-5.4-8.6-6.9-13.4c-0.6,0.6-1.8,1.8-2.3,2.4
	c-3.3-2-2.9-6.5-3.5-9.9c0.4,0.9,1.3,2.5,1.8,3.4C218.9,460.8,219,457.8,219.2,454.7z"/>
<path d="M667.9,461.1c7.5-3.5,16.1-3.1,24.1-2.2c8.1,1.2,17.2,4.9,19.8,13.4c-5.2-2.7-9.3-7-14.7-9.3c-1.7,1-3.4,2.1-5.1,3.1
	c0.4-0.9,0.9-1.8,1.3-2.7c0.4-0.3,1.4-0.8,1.8-1.1C686.2,459.8,677,462.1,667.9,461.1z"/>
<path d="M130.6,490.4c-1.4-5.8-0.1-13.4,5.5-16.5c0.1,4.7-1.8,9.2-2.8,13.8C132.6,488.3,131.2,489.7,130.6,490.4z"/>
<path class="st0" d="M217,473.6c4,5.3,7,11.2,9.6,17.3C221.6,486.4,218.8,480.1,217,473.6z"/>
<path d="M661.4,474.3c-3.2,3.8-8.4,4.8-12.9,6.4C651.5,476.7,656.9,475.7,661.4,474.3z"/>
<path d="M394.9,477c2.8-2.3,6.5-1.5,9.8-1.8c4.4,0.3,9.1-0.2,13.1,2.1c-2.8,1.2-5.8,1.1-8.8,0.5C404.3,477,399.6,477.3,394.9,477z"
	/>
<path d="M419.8,478.9c4.7,2.9,10.2,6.1,12,11.8C427.6,487,423.7,483,419.8,478.9z"/>
<path class="st0" d="M509.5,479.2c4.2,1.2,8.7,1.8,12.8,3.5c2.9,1.3,2.9,4.7,1.9,7.3c-1.5-3-4.6-3.7-7.6-3.9
	c-0.3-1.4-0.6-2.7-0.8-4.1c-2.3-0.1-4.7-0.2-7-0.4C509,481,509.3,479.8,509.5,479.2z"/>
<path class="st0" d="M310.6,480.6c5.6-2.9,11.5,1.3,15.7,4.9c-5.1,3.9-10.3,7.6-15.4,11.5c0.5-3.7-0.5-7.2-2.5-10.3
	c-2.6,6-5,12-7.6,18c-7.1,0.8-13.9,3.5-20.8,5.2c-0.6-0.6-1.2-1.2-1.9-1.8c6.3-0.5,11.5-4.8,15.8-9.1
	C299.9,493.2,303.4,485,310.6,480.6z"/>
<path d="M381.1,485.4c2.7-6,10.4-1.9,15.1-4.7C392.6,485.2,386.2,484.4,381.1,485.4z"/>
<path class="st0" d="M457.4,479.8c4,3.5,8.3,6.7,13,9.3C464.3,491.7,459.4,484.7,457.4,479.8z"/>
<path d="M637,492.1c-1-5.1,4-9.5,8.7-10.4C643.6,485.9,639.4,488.2,637,492.1z"/>
<path class="st0" d="M158.6,485.6c1.7,5.6,1.8,11.5,2.9,17.3c-0.3,0.7-0.7,1.3-1,2c-0.4-2-0.8-4-2.2-5.6
	C158.1,494.7,158.3,490.2,158.6,485.6z"/>
<path d="M541.4,489.2c7.8-1.2,16.1,0.8,23.6-2.4c0.3,0.4,0.8,1.3,1,1.8c-1.8,1-3.6,2.1-5.2,3.3C554.4,491.1,547.7,491.4,541.4,489.2
	z"/>
<path class="st0" d="M668.2,495.3c9.5-3.5,21.5-1.8,27.7,6.8c-4.1,3-9.7-1.1-13.7,2.4c-4.2-2.1-8.6,0.2-11.4,3.4
	c-5.4,5.5-8.7,12.6-13.2,18.8c-3.2,4.2-6.1,9-10.7,11.8c5.4-9.6,16.5-16.7,16.5-28.7c-1.4,1-2.7,2.1-3.3,3.8
	c-2.1,4.9-3.2,10.6-6.9,14.6c-2.5,2.9-5.5,5.3-8.8,7.2c0.5-2.5,1.8-4.7,3.2-6.8c6.2-8.9,13.2-17.5,17.7-27.5c0.4,1.3,0.6,2.6,0.8,4
	c3.8-4.4,10-5.2,13.6-9.8c-5.2,0.8-9.8,3.5-14.1,6.5C666.3,499.5,667.3,497.4,668.2,495.3z"/>
<path class="st0" d="M661.8,498.9c0.4,1.4,1,2.9,0.1,4.2c-1.8,3.8-4.7,7.1-5.6,11.3c-7.2,1.1-9.5,9.6-15.7,12.4
	c2.4-2.7,5.4-4.9,7.1-8.1c2.7-4.6,5.5-9.5,10.3-12.2C658.3,503.6,660.1,501.2,661.8,498.9z"/>
<path d="M401.8,506.1l0.1-0.5c5.9,0.6,12.5,2.3,15.9,7.7c-4.9-0.1-8.1-4.1-12.5-5.5C404,507.3,402.4,507.4,401.8,506.1z"/>
<path class="st0" d="M382.9,514.6c3.2-5.5,10.1-5,15.5-4.3c5.9,1.2,12.8,3.2,15.6,9.2c-9.4-0.1-19.2-1-28.1,2.5
	c-3.5,1.3-6.5,3.7-8.5,6.9c0-1.8-1.4-3-3-1.8c-5.7,3.5-10.6,8.3-14.2,14c2.2,0.3,4.2-0.6,5.9-1.8c-5.1,6.7-10.8,13.1-16.3,19.5
	c-0.9,1-1.9,1.8-3,2.6c2-5.5,8.1-8,10.4-13.3c-5.8,2.9-9.6,8.4-14.3,12.7c6.2-14.4,15.5-28.4,29.1-36.7c7.2-4.2,15.3-7.5,23.7-7.4
	l-0.1-0.6C391.4,517.1,387.1,515.9,382.9,514.6z"/>
<path class="st0" d="M268.9,512.7c1.6,0.2,3.3,0.3,5,0.3c-1.7,1.2-2.4,2.9-2.2,4.9c-1.7,0.5-3.5,1-5.2,1.5
	C267.2,517.2,268,514.9,268.9,512.7z"/>
<path class="st0" d="M348.3,538.4c7.6-11,17.5-21.8,30.9-25.5c-16.5,16.1-33.3,32.3-46.4,51.5c-5.1,1.3-9.6,4.4-15,5
	C331.4,563.2,340.2,550.5,348.3,538.4z"/>
<path d="M531.7,512.7c4.5,2.5,8.9,5.2,13.6,7.2C539.9,523.5,532.7,518.5,531.7,512.7z"/>
<path d="M510.7,514.6c3.7,2.7,7.6,4.9,11.7,6.8C517.5,524.3,511.5,519.6,510.7,514.6z"/>
<path class="st0" d="M323.5,525.5c3.7-2.6,7-5.8,10.5-8.7c-3.3,8.8-11.4,14.4-19.5,18.5c-7,3.4-14.9,5.1-22.7,5.3
	C303,537.1,314,532.6,323.5,525.5z"/>
<path class="st0" d="M339,537c0.8-10.6,11.4-17.8,21.2-19.2c-6.7,8.4-12.7,17.5-19.5,25.8c-0.5-1.2-1.1-2.7,0.1-3.7
	c2.1-2.6,4.7-4.9,5.7-8.2C342.7,529.9,341.1,534.8,339,537z"/>
<path class="st0" d="M203.6,519c7-0.1,11,7.4,12.5,13.3C210.7,529.2,207.3,523.9,203.6,519z"/>
<path class="st0" d="M384.3,533.3c9.9-7.9,22.8-11.6,35.4-10.8c0.5,1.8,1,3.5,1.6,5.3c0.7-1.4,1.5-2.7,2.5-4c5.7,1,12,5.4,11.1,11.9
	c-13.8-2.7-28.4,1.2-39.4,9.8c-7.6,5.4-13.2,12.9-19.2,19.9c-8.3,9.1-17.3,17.9-28.5,23.3c-3.5,1.6-7.1,2.9-11,3.2
	c14.1-3.6,25.6-13.6,34.7-24.5c11.5-14.3,22-30.1,37.7-40.2c-4.8,0.3-9.7,1.5-13.7,4.2c-9.9,6.3-17.3,15.9-23.7,25.6l0.5,0.9
	c2.7,0.2,3.5-3.3,5.2-4.9c-2.5,6.2-5.9,12.1-10.6,16.9c-8.1,8.2-19,13.2-30.1,16c6.9-5.9,14.4-11,21.4-16.8c-5.1,3-10.1,6.1-15.2,9
	c0.8-1,2.5-2.9,3.3-3.8c-6.1,2.1-11.9,5-18.3,6.1c-0.5-0.1-1.6-0.4-2.1-0.6c12.6-4.1,25.6-9.1,34.6-19.3c-0.6-3.7,2-6.9,3.5-10.1
	c0.1,0.6,0.2,1.9,0.3,2.6C370.8,546.2,377.6,539.8,384.3,533.3z"/>
<path d="M563.1,537.7c-5.1-4.5-9.6-9.7-13.2-15.4C554.6,527.2,560.4,531.4,563.1,537.7z"/>
<path class="st0" d="M252.6,523.3c3.7-0.2,7.3,0.8,10.9,1.4c8.9,1.6,18,3.1,27.1,1.7c-5.7,2.2-11.9,2.4-17.9,2.9
	c1.3,0.8,2.5,1.7,3.7,2.7c-4.4,1.3-10,1.5-13.6-1.9c2.6-1.6,5.7-0.8,8.6-0.8C265.6,525.9,258.6,526,252.6,523.3z"/>
<path class="st0" d="M198.3,524.3c4.8,3.1,8.4,7.8,10.6,13c-4-2.3-7-6-10.3-9.2C198.5,526.9,198.4,525.6,198.3,524.3z"/>
<path class="st0" d="M246.7,531.4c7.1-0.9,14.3,1.4,20.6,4.6C260.4,534.5,253.6,532.5,246.7,531.4z"/>
<path class="st0" d="M459.1,533.8c3.8-1.5,7.9-3.3,12.1-2c5.8,1.1,10.5,6.3,11.4,12c0.5,3.4-1.8,6.7-4.8,8.2
	c-3.3,1.8-7.2,1.7-10.8,1.5c-2.2-0.2-3.2-2.6-4.4-4.2C459.6,544.8,458.8,539.2,459.1,533.8z"/>
<path class="st0" d="M277.8,536.7c6-1.1,11.9-2.2,18-2.6C290.3,536.7,283.8,537.1,277.8,536.7z"/>
<path class="st0" d="M624.6,535.2c0.8,1.1,1.3,2.5,2.4,3.4c1.5,0,3-0.2,4.5-0.3c0,1.3-0.7,3.1-2.4,2.8c-4.9,0-9.8-0.4-14.7-0.5
	c1.8-2.3,4.7-2.3,7.2-1.5c0.6-0.2,1.7-0.7,2.2-0.9C624.1,537.3,624.5,535.9,624.6,535.2z"/>
<path d="M562.5,541.8c7.8,2.5,13.1,9.4,16.1,16.8c2.5,5.8,4.1,12,5.3,18.2c-4.3-5.9-10-11.4-11.5-18.8c2.1,1.4,3,3.9,4,6.1
	c0.2-3.2-0.7-6.4-2.7-8.9C570.2,550.6,565.9,546.6,562.5,541.8z"/>
<path class="st0" d="M216.5,548.4c1.7,4.2,3,9.1,1.2,13.6c-1.3,3.9-4.7,7-8.7,7.9c-6.2,1.6-13.2,1.3-18.6-2.2
	c-3.3-2-5.4-5.4-7.2-8.7c1.9-1.1,2.7-2.9,2.3-5.1c-1.6-0.2-3.2-0.5-4.8-0.8c1.3-0.7,3.1-1.6,4.4-0.2c2.7,2.5,5.4,5,9,6.1
	c-2.3,1.2-4.8,0-7-0.6c0.9,3,2.2,6.3,5.5,7.3c5.1,1.5,10.8-0.1,15.1-3.1c2.3-1.6,2.8-4.7,4.9-6.4c-0.1,5.2-4.5,10.2-9.2,12.3
	c2.3,0,5,0.6,6.9-1.2C215.1,562.4,216.9,555.2,216.5,548.4z"/>
<path class="st0" d="M222,566c3.7-5,4.6-11.2,4.3-17.2c0.6,3.2,1.8,6.3,3.4,9.2l-2.1-0.1c1.3,6.6,7.9,10.2,10.1,16.4
	c-5.9,0-12.1,0.8-16.9,4.6c-2.9,2.2-4.8,5.4-6.4,8.6c-4.2-3-8.1-6.6-10.8-11C211.1,576.5,218.3,572.6,222,566z"/>
<path class="st0" d="M432.4,553.4c3.9-4,9.9-4.5,15.3-4.8c3.7,5.4,7,12.5,14.4,13.3c0,5.9,0,11.7,0,17.6c-2.5,0-5,0-7.5,0
	c-0.6-4.3-1.4-9.1-4.6-12.3c-1.8-1.9-4.4-2.3-6.8-2.8c3.9,8.8,8.1,17.5,13.5,25.5c-5.5-1.9-10.7,2.2-12.2,7.4
	c-6.7-2.5-13.1-5.6-19.7-8.3c0.8,3.9,4.4,5.9,7.1,8.4c2.1,2,1.9,5.1,1.9,7.8c-7.8,1.9-14.9-3.3-22.7-2.8c-2.7-2.9-1.6-7.6-2-11.3
	c-0.9-5.7,5-9.6,10-10.3c9-0.7,17.1,4.6,25.9,5.7c-5.8-6.5-11.5-13.4-14.2-21.8C429.7,560.8,429.5,556.3,432.4,553.4z"/>
<path class="st0" d="M319.9,561.7c3.7-4.2,9.4-5.8,13.4-9.6C332.2,558.2,324.9,560,319.9,561.7z"/>
<path class="st0" d="M482,561.5c2-3.2,3-6.9,5.7-9.5c4.5,0.2,8.9-0.1,13.4,0.1c2.7,0.9,5.2,2.4,8,3.4c-2,7.5-3,15.6-7.3,22.3
	c-2.8,4.7-7.1,8.1-11.5,11.2c0.4,1.2,0.8,2.4,1.3,3.7c5.9-3.4,12-6.4,18-9.8c3.4-2.2,7.4-3.3,11.4-2.9c4.8,0.3,9.1,3.7,11,8
	c-2.6,7.9-10.2,12.6-17.8,15c-6.5,2.2-13.8,1.3-19.4-2.7c5.2-4.4,13.4-4.5,16.8-11c-8.1,4.2-16.4,7.7-24.9,11
	c3.8,9,1.4,20.1-5.8,26.7c-2.5,2.4-6,2.3-9.2,2.1c3.7-1.5,7.7-2.8,10.2-6.1c3.6-3.7,3.9-9.1,3.4-14c-1.6,2.4-2.9,5-4.1,7.6
	c-0.1-1.5-0.2-2.9-0.3-4.3c-1.4,1.7-2.8,3.9-5.1,4.4c-2.6,0.7-5.2,1.4-7.3,3.2c-1.5-1.8-2.4-3.9-2.8-6.2c-1.1,0.6-2.2,1.2-3.4,1.9
	c0.8-1.4,1.5-2.8,2.1-4.3c-1.9-1.5-2.8,1.4-4.2,2.2c-0.8-5.9,2.4-11.6,7-15c-3-0.6-6.7-1.7-9.4,0.5c-5.4,4.5-6.9,12.2-5.4,18.8
	c-4.7-5.5-1.4-13.1,1.9-18.3c-0.7,0.3-2.2,1-2.9,1.3c0.6-7.4,8.6-9.3,14.3-11.4c-0.1-0.5-0.4-1.7-0.6-2.2
	c6.5,5.1,16.8,5.4,20.5,13.7c1.3-1.3,3.2-2.6,2.6-4.7c-1.7-4.2-4.5-8.2-5-12.8c0.7-5.3,4.8-9.4,8.2-13.3c-0.5-1.1-1-2.2-1.5-3.3
	c-7.5,1.6-9.8,9.7-12.5,15.8c-1.1-1.4-1.8-3.4-3.6-4.1c-1.6-0.4-3.1-0.4-4.7-0.6c0-3.7,0-7.5,0.1-11.2
	C473,563.7,477.2,560.7,482,561.5z"/>
<path class="st0" d="M157.9,570c1.4-6.7,6.3-13,13.1-14.6c6.2,0.9,8.3,7.4,9.5,12.7c5,1.8,9.3,5.2,14.5,6.6c-4,3.2-8.4,5.9-12.7,8.7
	c-3.2,2.1-6.2,5.8-4.7,9.9c1.5,2.4,4.1,4.1,5.1,6.9c-7.2-2.9-14.3-5.9-21.2-9.4c4.8-1,9.7-1.4,14.6-1.7c-3.6-2.3-7.9-2.2-12-3.2
	C159,582.5,156.6,575.8,157.9,570z"/>
<path d="M567.4,561.3c5,2.7,7.3,8.2,8.7,13.5C571.8,571.3,569.4,566.3,567.4,561.3z"/>
<path class="st0" d="M305.3,567.8c3.9-2.3,8.6-3,12.2-6c0.1,1.4-0.4,2.4-1.4,3.1C313,567.2,309.1,568.9,305.3,567.8z"/>
<path d="M561.2,562.7c1.5,1.4,2.6,3,3.3,4.9c-0.5,0.7-0.9,1.3-1.4,2C562.2,567.3,561.3,565.1,561.2,562.7z"/>
<path class="st0" d="M592.1,565.6c2.1,4.7,3.5,9.6,5.3,14.4c0.9,2.8,2.4,5.5,2.3,8.6c0.3,0.2,0.9,0.5,1.2,0.7l-1.7,0
	c0,7.1,1.3,14.1,3.5,20.9c3.8,11.4,7.7,22.9,8.8,35c-2.4-4.3-4.3-8.8-7-12.9c-0.9-1-0.3-2.3,0.1-3.3c0.6-8.1-3.5-15.5-7.4-22.3
	c-5.1-8.1-8.3-17.7-7.2-27.4c4.8,7,1.9,16.3,6.9,23.2C598.3,589.9,592.9,578,592.1,565.6z"/>
<path class="st0" d="M602.9,583c-4.4-4.6-4-11.4-4.5-17.2C600.1,571.4,602,577.1,602.9,583z"/>
<path class="st0" d="M726.9,568.3c3.2,0.1,6-1.9,9.2-2.2c-5.9,3.8-12.7,6.2-19.5,7.2C719.7,571.2,722.9,568,726.9,568.3z"/>
<path d="M564.3,570.3c0.7-1.4,1.5-2.8,2.4-4.2c3,1.4,1.3,4.5,1,6.9C566.9,572.4,565.2,571,564.3,570.3z"/>
<path class="st0" d="M655,588.9c-0.4-12.5,13.9-20.9,25.1-17.2c1.9,0.7,3.7,1.6,5.6,2.5c-10,8-19.4,17.1-26,28.1
	c-0.3-0.5-1-1.5-1.4-2c5.6-2.4,6.9-9,10.7-13.3c3.6-3.7,7.3-7.2,10.8-10.9c-2.4,1.1-4.8,2.3-7.1,3.6c1.1-2.4,2.3-4.7,3.5-7.1
	c-9.9,5.5-16.6,15-22.5,24.4c-0.6-0.7-1.2-1.3-1.7-2c-0.8-0.1-2.2-0.3-3-0.5c-0.2-1.2-0.4-2.5-0.6-3.7c-1.5,0.3-3,0.7-4.5,1
	c-0.2-1.7-0.3-3.4-0.4-5.1c-1.7,1.2-2.6,3.1-3.3,5c-0.9,0.3-1.9,0.6-2.8,0.9c0.4-1.8,0.9-3.6,1.3-5.5c-5.6,3.9-7.8,10.6-11.3,16.1
	c4.9-0.8,4.7-8.2,10.2-8.3c-1.8,4.1-6,7.2-5.1,12.2c1.8-2.3,3.4-4.7,5.2-6.9c0.7,1.6,1.8,3.5,0.6,5.1c-3.1,3.6-8.3,4-12.7,3.3
	c-2.8-3.4-5.7-7.2-6-11.7c-0.8-13.5,16.2-24.1,27.9-17.4C651.3,581.5,653.4,585.2,655,588.9z"/>
<path class="st0" d="M708.8,583.7c6.2-8.6,17.4-11,27.3-12.2C726.7,574.9,717.7,579.1,708.8,583.7z"/>
<path d="M562.7,572.8c3,3.9,5.4,8.2,8.5,12.1c-1.3-0.1-3,0.4-3.9-0.8C564.6,580.9,562.8,577,562.7,572.8z"/>
<path class="st0" d="M154.5,574.5c4,3.3,3.8,9.4,8.1,12.5C156.4,587.2,154.5,579.6,154.5,574.5z"/>
<path class="st0" d="M402.3,578c1.3-2.7,4.5-2.1,6.9-1.7c1.4,0.3,3.3,0.8,2.7,2.7C408.9,580.8,405.2,579.3,402.3,578z"/>
<path d="M578.9,578.9c1.6,1.4,3.1,3,4.6,4.6c0.2-1.2,0.5-3.5,0.7-4.7c2,5-0.3,10.8,2.8,15.6C582.3,590.5,580.2,584.6,578.9,578.9z"
	/>
<path class="st0" d="M677.4,586.2c2.8-4.1,6.7-7.4,11.6-8.4c0.4,2.1-0.3,3.6-2,4.4C683.7,583.3,681.4,586.7,677.4,586.2z"/>
<path d="M233.7,581.9c3.8,3.3,8.3,6,11.6,9.8C239.5,591.8,236.9,585.8,233.7,581.9z"/>
<path class="st0" d="M339.6,595.4c9-5.3,18.7-9.5,28.2-13.8C360.2,589.2,350.3,594.7,339.6,595.4z"/>
<path class="st0" d="M187.9,587.2c8.1-0.6,18.1,0.7,23,8c-1.3-0.7-2.5-1.6-3.4-2.8C200.8,591.7,194.3,589.6,187.9,587.2z"/>
<path class="st0" d="M383.3,594.3c3.2-2.4,6.5-4.8,10-6.9c-0.4,2.9-3.2,3.9-5.3,5.3c-2.7,1.5-4.9,3.8-7.3,5.7
	C381.2,596.8,381.9,595.2,383.3,594.3z"/>
<path d="M264.8,588.6c6.3,0.5,11.3,5.8,13.1,11.6C273,597,269,592.7,264.8,588.6z"/>
<path class="st0" d="M184.6,592.3c4.1-1.4,8.4-0.2,12.5,0.5c4.8,1.3,9.6,2.5,14,4.8C202,597.2,193.6,593,184.6,592.3z"/>
<path class="st0" d="M720.1,597.1c2.9-4.1,7.9-6.2,12.9-5.9C728.9,593.6,724.6,595.6,720.1,597.1z"/>
<path d="M454.5,597.1c2.5-1.7,4.8-4.8,8.2-4c-2.3,1.7-5.3,2.6-6.8,5.2C455.4,597.9,454.9,597.5,454.5,597.1z"/>
<path d="M541.8,593.7c4-1.8,8.9,0.1,9.9,4.5c0.1,1.4,1.7,4.2,0.2,4.9c-1.3-0.5-1.2-2.2-1.8-3.2C548.8,596.4,545,595.1,541.8,593.7z"
	/>
<path class="st0" d="M670,592.5c2.3,5.4-3.8,10.4-8.6,11.5C663,599.3,667.1,596.2,670,592.5z"/>
<path class="st0" d="M394,600.9c3.6-3.3,8.8-3.7,13.5-3.6c1.3,6.5,3.5,13.2,1.6,19.8c10.5-1.9,21.5-8.2,32.1-3.6
	c-4.2,5.5-10.2,9.3-16.7,11.5c0.5,3.3,3.9,4.2,6.1,6.2c6.1-2,9.2-8.1,14.4-11.5c-0.4,2.5-1.4,4.8-1.9,7.3c0.7,0.4,2.2,1.3,3,1.7
	c-3.3,12.9-23,14.9-29.9,4.1c-2.8-3.8-2.5-8.8-1-13c-2.4,1.7-5.2,3.3-8.3,3c-6.1-0.7-11.8-4.8-14.1-10.5
	C391,608.7,391,603.9,394,600.9z"/>
<path class="st0" d="M159.5,610.6c-2.4-3.8-0.8-8.3,1.6-11.7c-0.7,6.1,0.3,12.8,4.4,17.6c3,3.5,7.6,5.1,12.1,5.3
	c-0.6,3.7-2.8,7.3-6.5,8.5c-5.7,1.8-12.3,1.9-17.7-1c-2.1-0.9-2.5-3.2-3.1-5.2c0.4-1.4,0.8-2.7,1.1-4.1c2.5,3,4.9,6,8.2,8.2
	c-1.9-5.8-6.8-10.2-8.2-16.2c-0.6-3.3-0.8-7,1.1-9.9c0.7,3.7,0.1,7.5,0.8,11.3c1.3-4.4,2.4-8.9,3.3-13.5
	c-1.6,11.2,5.7,22.5,16.2,26.3C168.6,620.8,163,616.5,159.5,610.6z"/>
<path class="st0" d="M671.4,598.7c3.4,3-0.6,6.9-1.8,10c-1.2-0.8-2.3-1.7-3.3-2.6C667.6,603.4,669.5,601,671.4,598.7z"/>
<path class="st0" d="M214.4,600.1c3.7,2.5,6.3,6.2,9.9,8.9C218.8,612,213.9,605.2,214.4,600.1z"/>
<path class="st0" d="M232.9,605c-1,2.9-2.5,5.7-2.5,8.8c-2.1,0-4.4-0.4-6,1.2C227.3,611.7,228.9,607.1,232.9,605z"/>
<path class="st0" d="M645.4,605c1.3,1.2,2.5,2.5,3.6,4c-2.7,6-10.2,9.4-10.4,16.7c-1.3-0.1-2.6-0.1-3.8-0.1
	c-0.3,6.2,2.2,12.2,5.4,17.4c1.1-1.1,2.1-2.2,3.2-3.2c0.1,0.7,0.4,2.1,0.6,2.8c1.6-2.3,3.2-4.7,5-6.9c2.6,3.6-2.1,6.5-2.8,9.9
	c-4.5-1.3-9.4-2.6-12.5-6.3c-3.1-3.3-3.2-8.2-2.3-12.3C633.8,618.5,639.5,611.4,645.4,605z"/>
<path class="st0" d="M496.3,608.4c6-0.4,12.5,0.2,17.6,3.7c5.9,4,11.8,8,18.1,11.3c-0.7,4.4-1.7,9.4-5.5,12.3
	c-3.6,2.8-8.5,2.2-12.5,0.9c-9.1-2.8-17.9-8.9-21.1-18.3c5.5,1.9,10.8,4.1,16.2,6.2c0.5-1.2,1.2-2.3,1.9-3.5
	c-3.5-2.5-7.4-4.1-11.3-5.9C497.2,614,496.2,611.1,496.3,608.4z"/>
<path class="st0" d="M682.6,618c2.1-5.8,8.4-9,14.4-8.8c6-0.4,12.4,2,15.4,7.4c3.2,5.5,1.1,12.2-1.8,17.2c-1.3,0.8-2.5-0.7-2.2-1.9
	c0.5-2.5,1.4-4.8,2-7.3c-0.9,0.5-2.7,1.7-3.6,2.2c0.5-1.7,1.1-3.4,1.5-5.2c-2.4,1.3-4.5,3-6.6,4.6c0.6-4,3.7-7.2,3.9-11.4
	c-1.5,0.4-3.1,0.8-4.6,1.2c1-1.5,2-3,3-4.5c-3.3,0.2-5.4,2.7-7.4,5c-0.4-1.6-0.2-3.2,0-4.8c-3.5-0.5-8-0.4-10.1,3
	c-3.7,5.3-2.6,12-1.8,18C682.5,628.2,681,622.9,682.6,618z"/>
<path class="st0" d="M655.8,611.6c1,1.4,1.7,3.1,0.8,4.9c-1.9,4-4.8,7.5-6.8,11.5c-0.7-2-1.4-4.3-0.1-6.2
	C652,618.5,654.1,615.2,655.8,611.6z"/>
<path class="st0" d="M596.9,612.4c2.1,2.4,4.9,4.5,5.5,7.8c0.6,2.8,1.9,5.7,1.4,8.6c-0.2-0.1-0.7-0.2-0.9-0.2l-0.4-0.2
	C600,623.3,597.9,618,596.9,612.4z"/>
<path d="M154.4,614.7c5.2,3.7,8.8,9.3,14.9,11.7c-2.2,0.9-4.9,1.7-7,0.1C158.3,623.8,156.4,619,154.4,614.7z"/>
<path class="st0" d="M653.8,626.3c2-4.5,3-12.1,9.6-11.5C661.3,619.3,659.6,625.4,653.8,626.3z"/>
<path class="st0" d="M341,618c5.8,0.2,11.6-0.6,17.4-0.6c-9,4-19.2,1.4-28.5,4C333,618.8,337.1,617.9,341,618z"/>
<path class="st0" d="M661.4,624.9c0.7-3.6,2.5-8.1,6.8-8.2C667.4,620.3,665.7,624.6,661.4,624.9z"/>
<path class="st0" d="M217.7,627.1c0-5.1,6.2-6.2,10.2-5.6c4.1,0.8,8.4,2.2,11.2,5.4c2,2.2,1.9,5.2,1.4,7.9c-2.8-1.5-3.3-4.9-5.5-6.9
	c-1.4-0.2-2.1,0.4-1.9,1.8c1.9,1.9,4.6,3.4,4.7,6.5c-5.6-2.5-6.8-9.4-12.3-11.9c0.7,2.1,1.6,4.1,2.6,6.1c-1.8-1.9-3.4-3.8-5.2-5.7
	C221.2,625.5,219.5,626.3,217.7,627.1z"/>
<path class="st0" d="M245.2,650.1c8.3,5.2,16,11.6,24.9,15.8C260.4,663.4,252.2,657.1,245.2,650.1z"/>
<path class="st0" d="M329.9,666.6c5.3-7.2,12.6-12.6,20.8-16c4.9,4.3,10.5,7.7,16.3,10.6c-4,0.6-7.9,1.5-11.8,2.6
	c1.1,2.7,3.9,3.2,6.4,3.4c-5,5.3-10.6,10.3-17.4,13c-5.1,2.3-10.8,2.8-16.4,3.1c3-6.1,7.6-11.7,13.9-14.5c3-1.4,6.2-1.7,9.4-2.4
	C344.2,665.1,337,666.2,329.9,666.6z"/>
<path class="st0" d="M436.9,662.9c5.3-1.1,10.8-0.3,16,0.8c-3,5.5-8.1,9.6-14,11.4c-7,2.4-14.5,2-21.7,1.4
	C420.3,668.4,428.8,663.9,436.9,662.9z"/>
<path class="st0" d="M488,663.8c6.2-2.1,13-2.4,19.5-2.1c-1.5,4.4-4.7,8-8.8,10c-7.2,3.8-15.5,3.5-23.3,3.2
	C477.8,669.6,482.5,665.6,488,663.8z"/>
<path class="st0" d="M386.6,676.5c7.4-11.7,22.8-14.3,35.5-12.8c-3.8,5.2-8.8,9.6-15,11.4C400.5,677.4,393.5,677.1,386.6,676.5z"/>
<path class="st0" d="M355.8,679.8c7.1-12.4,23.3-19.5,37-14.6C383.8,675.8,369.5,681.1,355.8,679.8z"/>
<path class="st0" d="M553.3,675.6c3.5-4.2,7.8-8.3,13.5-9.1c6.8-0.7,13.6-0.2,20.4,0.2c-2,4.5-6.8,6.6-11.3,7.8
	c-6,1.5-12.1,3-17.1,6.8c-0.7-1.6-1.3-3.3-2.1-4.9C555.6,676,554.5,675.8,553.3,675.6z"/>
<path class="st0" d="M590,670.2c7.4-3,15.7-2,23.2,0.1c-3.2,5.2-9.3,7.7-15.1,8.6c-5.7,1.2-11.5,1-17.3,0.9
	C582.7,675.7,585.7,671.9,590,670.2z"/>
<path class="st0" d="M317.9,670.1c4.3-1.4,8.9-1.9,13.4-1.5c-3.4,7.1-9.6,13-17.3,15.1c-4.3,1.3-8.8,1.3-13.2,1.2
	C306.4,679.9,310.3,672.4,317.9,670.1z"/>
<path class="st0" d="M606.7,681.3c2.8-5.8,9.3-8.4,15.4-9.5c4.5-1,9.1,1.1,12.1,4.5c-2.6,2.8-5.5,5.4-9.2,6.5
	C618.9,684.9,612.5,683.3,606.7,681.3z"/>
<path class="st0" d="M303.4,692.5C354,685.6,404.9,681.2,456,681c13.6-1,27.3,0.1,41,0.1c44.1,0.9,88.2,4.3,132,10.1
	c0.5,6.4,0.8,13.3-2,19.2c-1-6.1,0.7-12.2,0.6-18.3c-4,2,0.7,8.2-3.9,9.3c-0.4-3.7-5.5-4.7-4.5-8.8c-5,1.3-11.3,0.5-14.9,4.8
	c-2.1,4.2-0.1,10.3,4.4,12.1c2.3,1.2,4.9,1.1,7.4,1.3c-0.8,3.7-1.4,7.5-1.5,11.3c-1.2-1-2.4-2.7-4.2-1.9c-4.1,2-6.8,5.8-10.4,8.6
	c-0.5,4.6,4.2,7,7.1,9.6c2.1,1.8,1,4.8-0.3,6.8c-1.1-0.9-2.1-1.8-3.2-2.8c0.4-0.5,1.1-1.7,1.5-2.2c-5.4,3.6-12.2,3.2-18.3,2.2
	c3.5,1.2,7.2,1.1,10.7,2.6c-0.8,2.3-1.9,4.9-4.3,5.9c-6.5,3.2-14.1,1.9-21,1c-1.3-0.4-3,0-4-1.2c3.3-3.1,7.4-5.3,11.1-7.9
	c-11.2-2.2-22.7-2-34.1-2.8c-7.3-0.2-14.8,0.3-22-1c-1.1-0.1-2.1,0.1-3.1,0.6c5.2,0.5,10.4,0.1,15.5,1.8c-2.8,5.3-8.7,8-14.4,9
	c-5.9,0.9-12,1.4-18,0.5c4-3.8,7.9-8.3,13.5-9.5c-4.6,0.9-9.2-0.4-13.7-1.7c0.9,1.4,0.6,2.8-0.1,4.2c0.3,0.1,0.9,0.4,1.3,0.5
	c1.6-1,3.2-2,4.9-2.8c-1.3,3.7-5,5.4-8,7.4c-3.1-1.4-6.5-0.2-9.6,0.4c-5.6,1.2-11.7,2.2-17.3,0.1c1.2-3.1,3.2-6.1,6.3-7.5
	c6.3-3,13.5-1.9,20.1-0.7c-2.6-1.6-5.4-2.6-8.4-3c-12.2-2-24.5,0.7-36.8,0.5c-0.4,0.2-1.2,0.6-1.6,0.8c6.9-1.1,13.8,0.3,20.5,1.7
	c-5.5,8-15.7,10.3-24.8,9.8c-4.3-0.4-8.6-0.7-12.8-1.8c2.7-4.1,8-5.2,10.3-9.7c-4.2,1.5-8.7,1.5-12.9,0.1c0.3,3.4-1.7,6.4-4.7,7.8
	c-7.7,4-16.6,4.1-25.1,4.8c1-2.1,2-4.4,4-5.9c4-3.4,9.4-3.5,14.3-4.3c-38.5-2.2-77.1,2.2-115.2,7.3c-0.9-4.8-0.9-9.7-1.4-14.5
	c-0.4,0.3-1.2,0.9-1.7,1.2c0.2,3.8,0.1,7.7-1.7,11.1c-0.3-3.8-0.1-7.7-0.1-11.5c0.3-3.8-2.5-7.1-1.8-11c3.2,2.5,4.1,6.8,3.7,10.7
	c0.5-0.6,1-1.2,1.5-1.8c-0.3-3.1-0.1-6.1,0.2-9.1c1.5,6.5,3.9,13.2,2.5,20c2.7-3,7-2.4,10.7-2.4c5.1,0.1,10.4-1.8,13.9-5.6
	c0.3-2.3-0.6-4.8-1.8-6.8c-2.7-3.4-7.5-3.5-11.4-3.2c2.8,2.9,9.1,0.7,10.2,5.2c-2.1,5.6-9.9,5-14.7,4.3c1.1-2.7,1.5-5.6,1.5-8.5
	c-1.8,0.5-3.5,1.1-5.2,1.8C305.4,718.2,302.9,705.3,303.4,692.5z"/>
<path d="M399.4,691.2c2.6-3.5,6.8-2,9.9-0.1C405.9,690.4,402.5,692,399.4,691.2z"/>
<path d="M519.1,694.1c0.5-1.7,1-4,3-4.4c3.2-0.6,7.4-0.4,9.5,2.6c1.2,1.5,0.3,3.5-0.4,5C527,696.7,523.3,694.3,519.1,694.1z"/>
<path d="M425,690.7c2.3-0.1,4.4,0.7,6.5,1.6c5.2,0.7,10.5,1.2,15.8,2.2c-5.3-0.2-10.6-0.2-15.9-0.1c1.2,2.3,3.1,4.1,5.4,5.3
	c-0.9,1.1-1.8,2.1-2.7,3.2c-0.5-0.8-1.4-2.3-1.9-3.1c0.1,1.3-0.3,2.7,0.3,3.9c1.6,1.6,4.1,1.6,6.2,2.2c-2.2,3.8-6.6,4.9-10.6,3.5
	c0.8,3.5,2.6,6.9,2.5,10.6c4.4-3.4,8.5-7.3,11.4-12.2c-1.6-2-3.9-3.2-5.8-4.8c0.6-0.5,1.3-1,2-1.4c9.7,5.6,21.2,5.1,32,5.8
	c6.5-0.3,13.2-0.6,19.4-2.8c2.3-0.8,4.5-2.2,7.1-2c-0.7,2.8-4.1,5.1-3.2,8.1c3.5,3.3,7.9,5.3,12,7.7c0.2-6.8,1.6-13.5,2.3-20.2
	c-3.1-0.1-5.4,2.1-7.5,4c0.6-1.4,1.8-2.6,1.8-4.2c-1.5-2.9-5.2-3-8-3.4c-7.7-0.5-15.5-0.4-23.1-1.9c12.4,0,24.8,0,37.2,0
	c1.7,5.2,2.3,10.8,1.7,16.2c-0.4,5.9-0.9,11.9-2.1,17.7c-27.3,2.9-54.9,1.4-82.4,0.2C424.7,714.8,425.1,702.7,425,690.7z"/>
<path class="st0" d="M295.6,695.9c-0.2-1.6,1.1-2.5,2-3.6c-0.7,6.4-0.5,12.8-0.8,19.2c-0.6-1.1-1.4-2.2-1.2-3.5
	C295.6,704,295.6,700,295.6,695.9z"/>
<path class="st0" d="M298.9,692.3c2.1,1.2,3.5,3.3,3.5,5.8c0.2,4.8-0.3,9.7-0.8,14.5c-1.4-4-1-8.4-1.1-12.6
	C300.8,697.3,299.1,695,298.9,692.3z"/>
<path d="M398,692.3c2.5,5.9,9.4,6.5,14.7,8.6c0.6-2.2,1-4.4,1.3-6.7c2,1.6,3.7,5,1.1,6.9c-3.9,3.1-9.3,3.4-14.1,3
	c-3.5-0.3-7.1-3.4-6.5-7.1C395.3,695.2,396.7,693.8,398,692.3z"/>
<path d="M305.5,697.1c8-3.5,17.5-2.9,24.6,2.2c-0.5,2.5-0.9,5.2-2.7,7.1c-3.6,4-9.1,4.8-14.1,5.8c-0.4,3.7,1.2,8-1.3,11.2
	c-0.5-4.4-0.1-8.8-0.3-13.2c-0.7,0.1-2.2,0.4-3,0.5c-0.8,2.1-0.2,4.4-0.2,6.7C305.6,711.1,306.5,703.9,305.5,697.1z"/>
<path class="st0" d="M282.7,696.5c2.8,4.7,3.3,10.3,3,15.7C282.8,707.5,282.4,701.8,282.7,696.5z"/>
<path class="st0" d="M310.6,699.6c2.5-2.3,6.3-2.3,9.5-2.2c2.5-0.1,5.5,0.9,6.1,3.6c0.9,1.6-0.5,3.7-2.2,3.8
	c-4.6,0.7-9.2,0.7-13.9,0.8C309.7,703.6,309.2,701.4,310.6,699.6z"/>
<path d="M554,697.2c9.9-1,20.6-0.7,29.5,4.3c7.6,4.2,9,15.8,3,21.9c-5.5,5.7-13.9,7.2-21.5,7.2c-9,0-18.8-1.8-25.4-8.3
	c-5.1-4.7-5.5-13.2-2-18.9C541.7,698.9,548.4,698.5,554,697.2z"/>
<path class="st0" d="M604.8,699.2c4.4-2,9.7-2.5,14.1-0.1c1.6,0.8,1.9,2.6,2.7,4c-0.2,0.7-0.7,2.1-0.9,2.8c-4,1-8.3,1.9-12.2,0.6
	C605.6,705.1,604.8,702,604.8,699.2z"/>
<path class="st0" d="M270.1,697.2c2.7,3.5,2.9,8,2.6,12.2C268.1,707.2,270.5,701.2,270.1,697.2z"/>
<path class="st0" d="M277.6,697.5c4.1,3.1,3.3,8.7,3.3,13.2C277.9,707.1,277.4,702.1,277.6,697.5z"/>
<path class="st0" d="M545.3,701.9c4.1-2.6,9.1-2.8,13.8-2.5C554.8,701.4,550,702,545.3,701.9z"/>
<path d="M360.1,700.2c8.3-0.6,17.1-1.5,25,1.6c5.7,2.1,9.2,8.8,7.5,14.7c-1,4.1-4.5,7-8,9c-9.2,5.5-20.4,6.3-30.8,5.4
	c-6.3-0.8-13.1-2.3-17.7-7c-5.6-5.3-4.4-16.2,2.9-19.4C345.8,702,353,701.3,360.1,700.2z"/>
<path class="st0" d="M368.3,700.9c6.2,1,12.3,2.9,18.3,4.8c0,3.7,0,7.4,0,11.1c-1.9,0.9-3.7,1.9-5.5,3.1c0.7-1.5,0.3-2.5-1.2-2.8
	c-2.8-0.2-5,1.9-7.2,3.3c-2.5-2.1,1.7-3.6,2.5-5.3c-4.5,0-7.1,4.3-11.2,5.4c-4.8-3.2-10.5-4.2-16-5
	C355,711.1,361.8,706.2,368.3,700.9z"/>
<path class="st0" d="M548.1,704.3c12.4-3.3,28.1-2.8,37.2,7.6c-0.8,5-4.7,8.9-9.5,10c1.9-2.2,5.7-3.1,5.6-6.6
	c-6,2.9-12.6,4.6-19.2,4.5c-5.6,0.1-12.2-0.1-16.1-4.8c-1.1-1-1.2-2.9,0.1-3.8c2.5-1.7,6.1-1.9,7.7-4.9c-1.8,0.1-3.6,0.3-5.4,0.5
	C548.2,706.2,548.1,705,548.1,704.3z"/>
<path class="st0" d="M626.8,718.5c9.9-4,20-7.9,30.2-11.2c6.5,1.5,6.5,9.5,10.9,13.5c-6.6,3.3-14.4,2.2-21.3,0.5
	C640.1,719.8,633.5,718.7,626.8,718.5z"/>
<path class="st0" d="M337.8,715c0-3.6,3-5.8,6.3-6.2c-2,2.4-4.2,4.9-3.3,8.2c-0.3,0.3-0.8,1-1,1.3
	C339.2,717.2,338.5,716.1,337.8,715z"/>
<path class="st0" d="M261.3,712.4c3.4-1.5,7.1-0.6,10.6,0.1c5.6,1.4,11.3,2.7,17.1,3.1c-5.5,2.1-11.5,1.5-17.2,1.2
	C268,716.5,264.2,715.1,261.3,712.4z"/>
<path d="M549.7,712.3c4.1,3.6,11.2,1,13.8,6.5C558.8,717.2,551.3,718.3,549.7,712.3z"/>
<path d="M518.5,718.4c4.7-1.7,12.3-1.9,14.4,3.7c0.9,2.9,1.1,7.1-2,8.9c-4.1,2-8.9,0.7-13-0.6C512.8,728.2,513.5,720.2,518.5,718.4z
	"/>
<path d="M400.4,719.6c4.2-1.4,9.4-2.1,13.2,0.6c3,1.7,3.4,6.2,1.4,8.9c-4.7,5.1-13.6,8.4-19.6,3.7c-2.1-1.1-1.6-3.8-1.6-5.7
	C394,723.4,397.1,720.6,400.4,719.6z"/>
<path class="st0" d="M517.1,724.7c1.5-5.3,8.3-5.5,12.2-2.9c2.1,1.4,1.4,4.1,1.5,6.2C526.3,726.7,521.8,725.5,517.1,724.7z"/>
<path class="st0" d="M400.5,722.3c4.6-2.2,12.3-1.5,13.6,4.5c-3.2,1.8-7,2.6-10.5,1.6C401.1,727.5,399.8,724.7,400.5,722.3z"/>
<path class="st0" d="M604.9,726c3.7-1.5,8.4-1.1,11.6,1.3c2.4,1.9,1.9,5.1,1.5,7.7c-5.5-0.1-11.5,0.4-16.2-3
	C602,729.7,602.5,726.9,604.9,726z"/>
<path class="st0" d="M623.3,726.1c3.9,4.3-1.1,10.5,0.8,15.7c2.9-3.3,1.8-8,3.5-11.8c1.8,4.4,1.2,9.6-0.8,13.8
	c-0.9,2.3-3.7,2.4-5.8,2.7C620.1,739.6,622.1,732.8,623.3,726.1z"/>
<path class="st0" d="M297.5,728.7c2.9,6,3.5,12.9,3,19.5c-1.7-1.2-3.4-2.9-3.3-5.1C297.1,738.2,297.4,733.5,297.5,728.7z"/>
<path class="st0" d="M293.7,747c0.5-4.2,0.2-8.4,0.8-12.5c2,6.4,1.8,13.2,2.2,19.9C294.3,752.7,293.4,749.8,293.7,747z"/>
<path class="st0" d="M610.5,739.7c2.8-1.4,5.8-2.3,8.7-3.3c0.2,2.8,0.2,5.6,0.2,8.5c-3.3,0-6.7,0-10-0.1
	C609.6,743,608.7,740.7,610.5,739.7z"/>
<path class="st0" d="M544,743.4c8.9-2.5,18.2-0.4,27,1.3c-9.5,7.7-23,9-34.3,4.8C538.5,746.8,540.8,744.3,544,743.4z"/>
<path class="st0" d="M384.8,744.8c5.8-2,12.2-2,18.1-0.1c-1.9,2.1-4.1,3.8-6.8,4.6c-7.4,2.7-15.2,3.7-22.9,4.5
	C375.1,749,379.8,746,384.8,744.8z"/>
<path class="st0" d="M342.5,755.9c6.4-10.4,20-11.5,31-11.1c-2.4,4.9-7.3,7.9-12.4,9.2C355,755.6,348.7,756,342.5,755.9z"/>
<path class="st0" d="M326.6,750.4c5.5-2.2,11.5-3.7,17.5-2.8c-2.2,3.9-5.6,7.2-9.8,8.6c-4.5,1.8-9.4,1.6-14.1,1.4
	c0.7-1.2,1.5-2.4,2.2-3.6c-1.1-0.3-3.4-0.9-4.5-1.2C320.6,751.3,323.8,751.6,326.6,750.4z"/>
<path class="st0" d="M596.8,754c4.1-6.3,12.2-7.8,19.2-7.7c11.2,0.5,22.8,2.8,32.3,9.2c-0.9,0-2.7,0.1-3.6,0.2
	c0.5,2.3,0.7,5.9-2.7,5.3c-2.6-0.9-0.2-3.5,0.3-5c-4.9,1.5-10.1,2-15.2,1.6c-1.4,0.1-1.9-1.4-2.7-2.2c1.1-1.5,2.3-3,3.6-4.4
	C618.1,755,607.2,757,596.8,754z"/>
<path class="st0" d="M309.1,752.2c3.2-1,6.7-3.9,9.9-1.1c-3.4,1.5-7,3.5-7.4,7.6c-5.4-0.5-10.3,3.4-15.8,1.7
	c2.9-1.9,6.5-1.9,9.7-2.8c-1-0.3-2.9-0.8-3.8-1.1C303.2,753.9,306.5,753.5,309.1,752.2z"/>
<path class="st0" d="M442.7,770.5c1.9-4,7.3-4,11.1-3.6c2.3-0.2,3.3,1.8,4,3.6C452.8,770.7,447.7,770.7,442.7,770.5z"/>
<path class="st0" d="M243.6,775.6c2.1-4,7.4-4.8,11.3-3.2c0.3,1.4,0.5,2.9,0.7,4.4C252.6,772.7,247.6,775.7,243.6,775.6z"/>
<path class="st0" d="M503.7,772.6c8.3-0.9,16.7-0.3,25-0.4l0,0.3c-7.2,1.4-14.6,1.6-21.9,1C505.8,773.5,504.8,773,503.7,772.6z"/>
<path class="st0" d="M643.8,779.7c3.3-0.9,6.7-0.2,9.5,1.7c-10.1,0.1-19.4,5-29.5,5.3C630,783.3,637,781.4,643.8,779.7z"/>
<path class="st0" d="M466.7,786.6c11.9-2,24.1-2.8,36.2-1.9c2.6,0.3,5.2,0.4,7.6,1.4c-9.4,1.3-19,0.6-28.5,0.7
	C476.9,786.8,471.8,787,466.7,786.6z"/>
<path d="M283.3,788.3c1.1-0.8,2.1-0.9,3.2-0.2C287.3,790.1,281.9,790.6,283.3,788.3z"/>
</svg>
