<?xml version="1.0" encoding="utf-8"?>
<!-- Generator: Adobe Illustrator 21.1.0, SVG Export Plug-In . SVG Version: 6.00 Build 0)  -->
<svg version="1.1" id="Layer_1" xmlns="http://www.w3.org/2000/svg" xmlns:xlink="http://www.w3.org/1999/xlink" x="0px" y="0px"
	 viewBox="0 0 1024 1024" style="enable-background:new 0 0 1024 1024;" xml:space="preserve">
<style type="text/css">
	.st0{fill:#010101;}
	.st1{fill:#FFFFFF;}
	.st2{fill:#030303;}
	.st3{fill:#FDFDFD;}
	.st4{fill:#FEFEFE;}
	.st5{fill:#A2A2A2;}
</style>
<path class="st0" d="M660.7,259.3c14.6-4.3,29.7-6.2,44.8-7.2c2.8,8.2,5.5,16.5,8.5,24.7c3.6-8,6.7-16.3,9.2-24.7
	c15.2,0.9,30.2,3.7,45.2,5.9c-0.2,6-4,11.4-2.7,17.6c5.9-3.2,8.2-10.3,14.3-13.2c18.1,2,35.1,9.5,51.1,17.6
	c-6.3,9.6-15.1,17.7-19.1,28.7c8.3-0.6,16.7-1.6,25-2.3c1.3,10.1,0.6,20.3,0.3,30.5c-0.5,8.2-0.6,16.4-1.3,24.5
	c-4.4,5.1-11.9,6.5-15.6,12.5c5.3,0.2,10.5,0.5,15.8,1c1,21.9-2.8,43.7-8,64.8c-6.3-1.4-11.3-6.1-17.6-7.5c4.2,7.6,8.9,15,12.6,22.9
	c-7.2,16.3-18.3,30.6-30.5,43.5c-2.4-5.8-4.2-11.9-6.8-17.7c-1.5,6.4,1.9,12.8,0.9,19.2c-0.6,4.1-3.6,7.1-5.3,10.8
	c13.1,5.1,27.1,7.6,40.9,10.1c18.5,3.1,37.1,5.2,55.7,7.2c14.3,1.4,28.7,2.4,42.8,5.1c8.5,1.5,17.2,5.8,21.1,13.9
	c4.4,8.3,2.8,18,3.2,27.1c0.5,6.7-2.1,13.1-3.4,19.6c-3.2,12.7-5.6,26-13.2,36.9c-2.6,3.8-6.2,7.2-10.7,8.5
	c-3.5,0.4-7.2-0.5-10.4,1.4c-7,3.5-13.4,8.9-21.5,9.2c-5.4-0.3-10.6-1.5-15.9-2.3c1.5-1.2,2.9-2.3,4.4-3.5
	c-8.6-1.8-16.5-6.1-23.3-11.7c8.9-0.6,18.2-2.6,24.6-9.3c-0.3-5.9,0.2-12.3,4-17.1c3.9-5.1,10.3-7.2,16.3-8.5
	c-0.7-3.4-1.8-6.7-2.7-10c-13.2,4.3-26.9,7-40.3,10.8c-6.6,2.1-13.4,4-19.3,7.7c-8,6-15,13-22.5,19.5c-6.7,5.7-14.8,10.1-23.7,10.5
	c1.2-7.5,6.6-13.7,7-21.4c-11.5,2.4-21.6,8.9-32.8,12.3c-5.5,1.5-11.3,2.1-16.9,1.1c3.1-4.7,8.9-9.2,7-15.5
	c-2.7-9.4-12.4-13.7-19.1-19.7c-2,3.3-4.2,6.6-6.7,9.5c7.3,14.9,13.8,30.2,21,45.1c7.8,15.8,15.9,31.5,23.8,47.3
	c3.4,8.7,12.1,13.4,19.2,18.8c9.1-4.6,21-4.3,29.4,1.9c4.7-2.3,10.1-3.7,15.2-2.3c6.1,1.8,10.6,7.1,12.8,12.9
	c4.3,11,4.1,23.5-0.3,34.4c-1.5,3.8-4.4,6.9-7.8,9.3c-2.1-5.1-1.4-11.3-4.6-15.8c-3.9-0.2-7.9-0.1-11.7-1
	c-3.8,6.7-7.5,13.6-12.4,19.6c-1.3-5.9-2.4-11.9-3.6-17.8c-4.9-0.4-9.8-1.1-14.3-3.3c-3.7,7.7-7.5,15.7-13.5,21.9
	c-1.3-6.2-2.3-12.5-4-18.7c-17.4,2.8-36.5,1.3-51.3-9c-17.1-11.9-25.7-31.9-40.4-46.1c-3.3,9.2-3.5,19.2-2.6,28.9
	c-9.9-4.5-15.3-14.6-19.9-23.8c-4.6-8.9-7.5-18.9-13.9-26.8c-5.4,3-5.7,9.6-7.5,14.8c-1.1-3.7-1.5-7.6-3.7-10.9
	c-2.5-4.2-2.4-9.3-4-13.8c-3.9-10.7-7.8-21.3-11.9-31.9c-8.3,3.5-12,12.2-18.4,18c-2.1-9.9-3.1-20.3-0.3-30.2
	c1.9-6.9,7.6-12.1,8.8-19.3c-6.2,0.9-12,3.3-18,5.2c-25.9,9-53.5,12.4-80.8,11c8.2-5.7,19.3-9.5,22.7-19.8
	c-5.8-5.9-14.7-4.8-22.1-4.1c-6.7,0.2-13.6,2.1-20.1,0c-5.9-1.7-11.2-5.1-15.8-9.1c5.5-2.1,11.2-3.8,16.5-6.3
	c-4.5-2.8-8.7-5.9-12.9-9c-24.6,26.8-50.8,52.2-78.7,75.6c6.3,16.9,16.5,31.9,27.7,45.9c4.6,5.4,9.2,11,15.4,14.5
	c6.4,2.9,13.7,2.2,20.5,1.4c7.8-1.1,15.5-2.6,23.4-2.9c9.8,0.6,20.3,2.1,28.3,8.2c3,2.1,4.8,5.3,6.7,8.3c3.1,1.5,6.4,2.6,9.1,4.9
	c8,6.7,12.3,16.7,15.3,26.5c-5.5-1.7-9.6-6.2-15.2-7.7c0.7,2.5,1.4,5,1.9,7.5c-4.9-2-8.6-6.1-13.5-7.8c-3.4-1.2-6.1,1.7-8.9,3.1
	c-4.6,3-10.2,2.8-15.4,3.4c-26.4,1.6-52.8,0.8-79.2,1c-4.6-0.2-9.5,0.6-13.9-1.2c-8.8-3.3-16.7-8.3-24.5-13.5
	c-10.8-6.9-18.5-17.4-29.3-24.4c-0.3,6.9,1.2,13.7,3.1,20.2c-5.5-1.2-10.7-4-14.6-8.1c-6.8-6.6-9.9-15.7-14.1-23.9
	c-3.5-6.8-6.8-13.9-11.8-19.8c-2.2,2.9-4.3,6-5,9.6c-1.1,4.8,0.1,9.6,1.3,14.2c-8.9-4.4-15-13-18.6-22c-2.8-7.4-2-16.3,3-22.5
	c11.6-15.9,24.2-31,37.6-45.4c6.4-7.1,12.3-15.1,14.6-24.5c1.4-5.2,1.5-10.6,0.9-15.9c-21.8,17.4-41.9,36.8-63.2,54.8
	c-10.6,9.6-27.3,8.9-38.9,1.5c-11-7.2-21.8-14.8-32.6-22.3c-16.7,29.7-24.8,63.5-26.4,97.4c6.7-2.1,14.7-3,20.8,1.1
	c8.1,5.3,10.9,15.4,12,24.6c1.3,12.6-1.5,27.2-12.3,35.2c-1.5-5.9-2.3-11.9-3.5-17.9c-4.8,0.2-9.6-0.5-14.3-0.2
	c-4.2,6.7-7.8,13.8-12.5,20.2c-2.1-4.4-2.6-9.3-3.5-14c-0.5-1.6-0.7-3.8-2.5-4.4c-5.1-1.8-10.7-1.3-15.4-4.2
	c-3.4,8.7-7.5,17.4-14.2,24c-0.8-6.9-2-13.9-4.1-20.6c-11.4-0.8-22.9,1.6-34.2-0.2c-5.4-0.8-10.6-4.1-12.8-9.2
	c-3.5-7.6-2.5-16.3-0.9-24.2c1.9-10.1,5.9-19.6,10.3-28.8c-7.1,3.6-13.4,8.6-19.5,13.7c-0.2-6.1-0.2-12.3,2.2-18.1
	c6.2-17.2,21.9-28.2,30.9-43.8c-5.8,2.3-11.4,5-17.2,7.4c2.6-3.3,5.3-6.6,7.9-10c-0.2-0.9-1.2-2-0.5-2.9c3.4-6,8.9-10.2,13.6-15.2
	c6-8.4,11.9-16.9,17.6-25.5c-8.7,1.1-16.2,5.9-23.6,10.4c1.3-11.7,8.8-21.8,17.8-29c8.9-7.4,18.1-14.4,26.4-22.5
	c-6.4-0.2-12.7,1.1-18.9,2.3c6.8-15.4,16.5-30.2,30.9-39.4c6.5-4.2,14.1-7.5,22-6.3c8.2,0.7,15.1,5.7,22.6,8.6
	c11.6,4.8,23.6,9.3,36.2,10.4c12.6-25.8,25.4-51.4,38.1-77.1c-16-1.6-32-1-48-1.5c-13.7-0.3-27.6-0.4-40.8-4.4
	c-7.9-2.4-15.7-6.5-20.7-13.3c-7.2-9.1-10.9-21-9.4-32.6c1.7-12.9,7.4-25.8,18-33.8c6.3-4.6,14-7.4,21.8-7.8c105.3,0,210.7,0,316,0
	c9.2-0.1,18.5-4,24.2-11.2c6.3-7.9,10.1-18.6,7.3-28.6c-2-6.8-5.8-13.5-12-17c-7.5-4.3-16.2-5.6-24.7-6.1
	c-14.6-0.4-29.1,0.4-43.7,0.4c-18.7,0.1-37.4,0-56.1,0c-4.3-0.3-8,2.4-11.4,4.7c-8.9,6.7-16.5,15.1-25.9,21.2
	c-21.1,12.2-46.4,14.3-70.2,13c7.4-5,15.3-9.3,22.6-14.6c5.3-3.9,9.6-9.3,11.7-15.6c-13,6.8-25.1,15-37.8,22.5
	c-12.3,7.1-27.3,9.5-41.2,6.3c4.9-1.7,9.8-3.5,14-6.5c8.1-5.5,13.8-14,17.3-23.1c-11.3,3.9-21.1,10.9-31.1,17.3
	c-12,8.3-26.8,13.3-41.5,11.5c12.3-5.9,22-16.4,27.7-28.7c-12.7,5.4-23.7,13.9-35.6,20.7c-14.4,7.7-31,10.9-47.1,9.6
	c7.9-4.2,16.1-8.1,23.5-13.1c7.3-4.9,14.6-10.5,18.8-18.5c-8.8,0.6-17.6,3.3-24.6,8.6c-6,5.1-11.9,10.4-18,15.4
	c3-15.4,9-30.8,20.2-42.2c12.1-12.5,29.6-18.6,46.7-19.6c97.3,0,194.7,0,292,0c16.5-0.5,33.1,7,43.1,20.2
	c8.8,11.5,14,25.7,15.6,40.1c2,17.6-5.2,35.7-18,47.9c-11.2,9.9-26.4,13.5-40.8,15.2c-26.3,2.7-52.7,0.2-79,0.2c-70,0-140,0-210,0
	c-9.6,0.2-19.2,0.2-28.7,1.4c-2.9,0.5-6.3,0.9-8.2,3.4c-3.5,4.3-3.4,10.3-2.5,15.5c0.9,4.8,4.6,9.3,9.6,10
	c6.3,0.1,12.5-0.8,18.8-1.2c37-3.6,74-7.2,111.1-10.1c12.7-0.9,25.3-2.9,37.9-4c9.2-0.3,18.9-0.7,27.4,3.4c3.9,1.8,7.1,4.8,9.7,8.2
	c60.4-0.3,120.6,9,181.1,5.2c1.4-5.6,1.4-11.5,0.7-17.2c-1.2-9.2-2.3-18.5-1.6-27.8c5-1.3,10.2-1.5,15.3-2.6
	c-3.6-5.1-9.6-7.3-14.5-10.6c-2.7-18.5-2.3-37.3-2.3-56c8.5-0.1,16.9,0.8,25.3,1.6c-4.1-10.3-11.6-18.7-18.6-27.1
	c12-6,24.1-11.9,36.9-16.2c5.3-1.5,11.5-3.9,16.7-1c5.2,3.4,7.6,9.7,12.6,13.4C663.9,271.4,663.3,265,660.7,259.3z"/>
<path class="st1" d="M714.9,306.6c3.4-16.6,6.4-33.6,13.7-49.1c2.2,0.5,4.5,1,6.7,1.5c-1.7,12.7-4.1,25.5-3.6,38.4
	c3-12.8,5.8-25.6,10.4-37.9c6.1,1.1,12.3,2.3,18.4,3.5c-1.2,11.8-0.3,23.7-1.3,35.5c5.1-6.8,9.1-14.3,14-21.3
	c3.6-5.1,9.8-8.1,16.1-7.6c-5.4,10.4-11.6,20.5-16.6,31.2c6.2-6.6,11-14.3,16.8-21.2c2.4-2.7,5.2-5.4,8.8-6.3
	c2.4-0.6,4.4,0.9,6.5,1.9c-4.7,9.2-9.5,18.9-9.6,29.4c4.8-9.5,9.6-19.2,17-27c3.1,1.4,6.2,2.8,9.4,4c-6.9,10.5-14.3,20.9-18.5,32.9
	c-5.7-1.3-11.2-3.2-17-3.9c-6.6,0.1-10.6,6.9-17,7.6c-5.6,0-11-1.9-16.4-2.9c-1.7-12.9,1.3-26,1.2-38.9c-3.6,12.5-6.6,25.2-8.6,38.1
	c-10.5-0.9-23-2.8-31.7,4.7c-2-3-5.2-5.2-8.9-5.6c-7.3-0.9-14.6,0.5-21.9,0.9c-2.4-13.1-4.5-26.3-9-38.9c0.9,13.5,2.8,27.1,1.6,40.6
	c-5.7-0.1-11.3,1.8-17,1.6c-2.5-1-4-3.6-6.6-4.6c-8.4-3.7-18.8-3.4-26.5,1.7c-3.4-12.1-10.6-22.5-18.3-32.2c3.6-1.2,7-5,10.9-4.1
	c5.5,8.6,10.4,17.5,15.8,26.2c-1.5-10.5-5.4-20.4-9.8-29.9c2.6-0.7,5.2-1.5,7.8-2.1c9.1,8.3,15.2,19.1,23.7,27.9
	c-4.2-10.9-10.3-20.9-16.7-30.5c5.8-1.2,11.8,1.1,15.5,5.7c5.5,6.9,9.2,15.1,15.1,21.8c-0.9-11.6,0.1-23.1,0.1-34.7
	c6.3-0.7,12.4-2.3,18.5-3.6c4.7,12.6,7.1,26,10.9,38.9c0.2-13.3-1.9-26.6-4.2-39.6c2.4,0,4.8,0,7.1,0
	C706.7,274.5,710.4,290.7,714.9,306.6z"/>
<path class="st1" d="M208.6,278.6c10-4.9,21.2-7.3,32.4-7c91.7,0,183.3,0,275,0c12.5,0.6,25.3,2.4,36.6,7.8c9.7,4.6,16.3,13.6,21,23
	c6.5,13.5,6.2,29.5,1.5,43.5c-3.8,12.3-10.9,24.2-22.3,30.9c-6.6,3.9-14.2,6.2-21.8,6.5c-80.7,0-161.3,0-242,0
	c-17-0.3-34-0.7-51-1.1c-9.7,0-19.4,0.1-29,1.2c-6.2,0.6-11.4,4.8-15.3,9.4c-3.8,4.5-3.9,10.7-3.5,16.2c0.5,5.7,4.1,11,9.4,13.3
	c8.6,3.8,18.2,3.3,27.3,2.9c25.1-1.8,50.1-5.1,75.1-7.6c25.6-2.7,51.3-5.1,76.9-7.8c8.1-0.5,17.2,0.4,23.5,6c-7,2.3-14,4.5-20.9,7
	c53.5-2.5,106.9,2.5,160.3,4.4c15.4,0.6,30.8,0.9,46.2,1.1c-1.4,2.5-3.3,5.1-6.3,5.6c-8.6,1.7-17.2-1.5-25.8-1.4
	c-15.1-0.3-30.2-1.1-45.2-0.2c23.8,1.9,47.5,5.2,71.2,7.7c0.4,3.3,0.9,6.6,1.3,9.9c4.6-8.1,9.4-16.1,13.9-24.3
	c1,5.1,2.1,10.2,4.2,15.1c5.3-3.3,10.6-6.9,16.8-8.1c-5.4,7.5-10.1,15.5-13.6,24.1c5.6,9.1,11.3,18.1,17.8,26.6
	c4.1,5.4,8.4,10.6,13.7,14.8c1.2-6.3,4.1-12,7.4-17.5c-1.4,7.6-1.6,15.3-1.3,23c5.1,6.7,11.6,12.5,17.8,18.2
	c7.6,6.6,15.9,12.6,25.4,16c-1.5-9.2-1.9-18.6,0-27.8c7.9,14.9,17.1,29.6,30.3,40.4c10.4-12.9,20-26.5,28.7-40.5
	c-0.2,9.3-0.7,18.6-0.8,27.9c6.3-2.8,12-6.7,17.5-10.8c-5.2,16.4-15.1,30.6-23.4,45.5c-3.1,5.3-6.5,11.1-12.2,13.8
	c-3.3,1.7-7-0.6-8.8-3.4c-4.1-6.5-4.5-14.8-9.1-21.2c3.9,16.3,10.5,31.9,16.9,47.3c14.3,33.3,30.7,65.7,47.6,97.7
	c-6.4,1.5-12.7,5.4-15.5,11.6c-1.7,3.4-1,7.3-0.6,11c1.6-4.5,2.8-9.7,7.2-12.5c7.9-5.3,20.8-4,25.9,4.7c2,3.2,1.7,7.2,1.4,10.9
	c-1.5-2.3-2.4-5.2-5-6.5c-4.2-2.1-9.3-1.7-13.7-0.2c-4.2,1.4-6.7,6.5-5,10.7c1.4,3.6,4.2,6.4,5.6,10c-3.5,0.3-7.1,0.4-10.6,0.2
	c-7.2-0.4-14.6,0.9-21.8-0.3c-7.6-1.2-14.5-5.6-19.3-11.7c-8.1-9.4-15.6-19.2-22.5-29.5c-3-4.2-6.2-8.7-10.7-11.4
	c-3.3-2.1-8.3-1.1-9.9,2.7c-2.5,6-2.9,12.5-4.5,18.8c-6.6-12.5-10.7-26.4-19.3-37.8c-2.2-2.7-5.3-5.7-9-5c-4.1,0.9-6.3,5-8.5,8.1
	c-1.2-3.8-2.6-7.5-3.7-11.2c-2.4-10.2-1.9-20.8-4.8-30.9c-1.1-3.4-2.5-7.3-5.9-9c-2.8-1.4-6,0.3-8.1,2.2c-2.7,2.4-5.2,4.8-8.5,6.4
	c-0.4-11.4,6.2-21.3,12-30.6c-6.7-30-9.5-60.8-12.9-91.3c-3.5,22.5-1.1,45.5,2,67.9c-18.1,1.1-36.3-1.8-53.8-6.3
	c-18.2-4.7-35.7-11.4-52.9-18.9c14,9.9,29.5,17.8,45.9,23.1c19.8,6.5,40.8,9,61.7,8.5c-8.5,9.9-21.2,15-33.6,17.9
	c-14,2.3-28,4.5-42,6.3c2-3,4.6-5.5,6.4-8.7c2.2-3.8,2-9.2-1.5-12.2c-3.3-2.8-7.7-3.5-11.9-3.7c-10.9-0.2-21.9,1-32.8-0.7
	c2.6-3,6.5-5.4,6.8-9.8c0.5-3.1-1.8-5.4-4.2-6.9c-6-3.8-12.8-6.3-19.5-8.7c-28.4-10-56.9-19.9-86.4-26.5c2.9-5.8,7.9-10.6,14.2-12.6
	c11-3.6,22.9-1.3,33.8,1.6c11.1,2.9,21.4,8.2,31,14.3c-11.7-10.5-25.3-19.9-40.8-23.5c-9.1-1.9-19.1-2.5-27.6,2
	c-8.7,4.5-15.6,11.6-22.6,18.4c-12,12.4-25.2,23.5-37.9,35.1c-20.7,18.7-41.2,37.5-62.6,55.4c-8,5.7-19.3,5.5-27.6,0.4
	c-16.8-10-32.2-22.7-50.1-30.9c-6.8-3.2-13.9-5.8-21.3-6.7c5.4,2.4,11.1,4.5,15.5,8.4c0.8,0.7,2.3,1.6,1.4,2.9
	c-7.7,17.2-14.1,35.2-15.7,54.1c-0.3,4.5-0.7,9.2,0.1,13.7c4.3-23,9.3-46.6,22.1-66.5c1.8,1.5,4.1,3.2,3.7,6
	c-0.8,5.5-5,9.7-7.1,14.8c-11.6,25.9-17.2,54-19.5,82.2c-8.3-4.9-19.5-3.7-27.2,2c-3.2-4.6-8.6-7-14-7.1c-8.9-0.5-19.4,3.3-23,12.1
	c-1.8,3.8-0.8,8.1,0.3,12c0.9-3.9,1.4-8.2,4.3-11.4c8.3-9.2,25.8-8.4,32.2,2.6c2.6,4.1,2,9.1,1.9,13.7c-1.3-3.3-2.7-7-6.2-8.5
	c-4.9-2-10.5-1.9-15.5-0.4c-5.4,1.6-7.7,8.8-4.5,13.4c2.3,3.4,5.2,6.6,6.2,10.8c-8.6,0.1-17.2,0.3-25.8-0.1c-5.4,0-10.7-3.2-13-8.1
	c-2.2-4.6-2.4-10-0.7-14.7c4.8-14.9,11.2-29.3,17.2-43.8c-8.4,2-16.3,5.4-24.4,8.4c7.5-20.7,30.1-32.2,34.8-54.3
	c-6.1-0.4-11.8,2.3-17.6,3.8c3.9-5.4,7.6-11,11.7-16.2c10.4-8.4,22.1-16.6,27.1-29.6c-6.7-2.1-13.8-2.3-20.6-0.5
	c9.7-16.8,32.4-20.7,40.7-38.5c-5.1-3.1-11.1-4.2-16.9-5.1c6.4-6.7,11.8-14.2,18.2-21c5.6-5.5,13-10.9,21.3-10.2
	c14.2,5.8,28.1,12.1,42.8,16.4c4.5,1.3,9.2,1.6,13.6,2.9c-3.6,3.8-9.2,3.3-13.4,5.9c8,2.4,17.6-0.2,22.2-7.4
	c6.3-10.1,10.9-21.1,16.4-31.6c8.2-15.4,13.8-32.2,22.9-47.1c5.1-8.3,12.5-15.3,21.6-18.9c-23.9-2.1-48,0.2-71.9,0.8
	c-12,0-24.2,0.2-36-2.3c-10.3-3-17.7-11.4-25-18.9c1.8,8.5,7.6,15.8,15.4,19.6c13.8,6.8,29.6,6.7,44.6,6.7
	c17.6,0.2,35.3-1.6,52.8,1.2c-7,2.5-14.5,1.7-21.8,1.8c-17.6-0.9-35.4,0.2-53-1.1c-11.4-0.8-23.6-2.9-32.7-10.4
	c-8.6-6.8-12.6-18-13-28.7c-1.1-20.1,16.3-39.6,36.7-39.8c105.3,0,210.7,0,316,0c7.6,0.2,15.1-2.6,21-7.3
	c13.5-10.9,17.8-30.7,11.8-46.7c-3.5-9.5-11.9-16.9-21.7-19.4c-4.9-1.5-10.1-1-15.2-1.1c-35,0-70.1,0-105.1,0
	c-4.3-0.1-8,2.5-11.5,4.7c-9.2,6.3-16.9,14.5-26,21c-13.8,8.5-30.1,13.4-46.3,12.6c6.6-4.2,13.1-9.2,16.6-16.4
	c2.5-4.7,3.4-10,3.5-15.2c-11.7,1.3-22.4,7-31.7,14c-9.1,6.6-18.5,13.4-29.3,16.8c5.4-12.9,13.9-25.7,27.5-30.8
	c-13-1.2-26.3,1.3-37.7,7.5c-11.5,6.4-22.8,13.2-34.4,19.4c7.2-11.2,15.8-22.4,28.1-28.5c-7.2-0.4-14.4,0.4-21.3,2.4
	c-19,5.4-33.2,20.7-52.1,26.3c9-8.3,17.1-17.4,24.6-27c-15.4-1.2-32.1,0.8-44.6,10.6C185.8,295.7,195.8,284.8,208.6,278.6z"/>
<path class="st0" d="M397.8,286.8c4-2.6,8.2-5.5,13.1-6.1c20.7,0.6,41.4,2.1,62.1,3.2c12.7,0.9,25.5,1.3,38.2,2.7
	c-29.1-0.2-58.1,0-87.2-0.1c-4.6,0.2-9.3-0.6-13.8,0.5c-12.7,5.6-22.4,15.8-33.9,23.3c-6.4,4.2-14,6.8-21.7,6.5
	c3.8-1.6,7.6-2.9,11.1-5.1C377.5,304.9,386.4,294.2,397.8,286.8z"/>
<path class="st1" d="M596.6,313c8.6,1.3,17.8,1.5,25.5,6c-8,4.8-15.8-3.9-24.1-1.9c6.1,2.4,11.7,5.9,17.6,8.6
	c-2.2,7.5-2.2,16,1.9,22.8c3.9,7.2,10.9,12.2,18.6,14.6c-4.5,28.9-3.8,58.9,5.1,86.9c7.4-4.8,15.3-9.4,24.3-10
	c2.5,6.8,5.9,13.4,11,18.7c2.5-1.6,5.2-3.1,7.8-4.5c-0.2,4.2-0.3,8.8,2,12.6c2.5,4.7,7.6,7.2,12.4,8.9c2,12.8,4.7,25.4,8.6,37.8
	c0.5-13-2.6-26.2,0.2-39c4.7,4.3,2.6,11.1,3,16.7c0.7,10.9,1.7,21.7,3.4,32.4c1.3-10.8,1.6-21.8,2.7-32.6c0.5-5.5-1.3-12.2,3.2-16.6
	c4,13.1-0.7,26.8,0.8,40.1c3.1-13.1,6.2-26.2,8.4-39.5c3.4-0.2,7-0.8,9.5-3.3c4.8-4.5,5-11.7,6.5-17.7c2.5,2.1,5.9,4.7,9.2,2.5
	c5.3-3.8,7.4-10.4,9.2-16.5c9.1-0.1,16.1,6.3,24.2,9.4c7.4-28,9.7-57.6,4.5-86.2c7.4-2.4,14.3-6.9,18.1-13.8c4.4-7.1,4.4-16,2-23.7
	c6-2.7,12-5.5,17.6-9c-5.7-0.8-11.4-1-17.1-1.5c6.4-2,13.2-2.2,19.9-2c0.3,10.8-1,21.6-1.2,32.3c-10.1,3.9-20.6,8.6-27.4,17.4
	c9-3.6,18.1-6.9,27.2-10c-0.8,6.8-7.1,10.1-12.3,13.4c-6,4.5-11.8,9.6-16,15.9c8.8-2,17.8-2.3,26.8-2.2c0,4.2,0,8.4,0,12.6
	c-9.5,0.1-19.1,0.5-28,4.1c9.1-0.9,18.3,0.6,27.1,2.7c-0.4,5.1-1,10.2-1.5,15.3c-9.5-1.5-19.1-3.5-28.7-2.5c9.5,2,18.5,5.5,27.4,9.4
	c-0.6,3.1-1.5,6.1-2.4,9.1c-8.8-3.7-18.2-6-27.8-5.8c7.5,10.4,18.7,19.5,19.8,33.2c-7.3-5.3-11.5-14-19.4-18.5
	c5.4,8.2,11.7,15.8,15.7,24.8c-2.6,3.1-4.4,6.9-7.1,9.9c-7.2-7.7-14.6-15.3-23.5-21c6.6,8.7,14.3,16.9,18.5,27.1
	c-0.6,2.5-3.2,4.2-4.7,6.3c-4.2-10.9-11.5-20.8-22-26.3c3.7,9.2,6.4,18.9,6.5,28.9c0.1,5.9,0.2,12.5-3.3,17.6
	c-1.6,2.5-4.4,3.6-7.1,4.6c-1.4-13.7-3.8-27.4-8.8-40.4c1.7,16.1,3.3,32.3,1.6,48.5c-3.9,2.7-7.5,5.9-11.8,8
	c-0.1-13.3,0.1-27-3.8-39.9c-7,19.8-19,37.2-30.9,54.3c-15.9-14.5-25-34.5-34.6-53.3c-2.1,13.1-3.7,26.2-3.6,39.5
	c-4.2-3.2-9.2-5.7-12.4-9.9c-1.5-15.8,1.4-31.6,1.4-47.4c-3.4,13.4-6.1,27-8.3,40.6c-5.1-1.4-8.6-6-9.2-11.2
	c-1.8-13.5,2.6-26.8,5.7-39.8c-9.6,6.8-16.8,16.4-21.9,26.9c-1.7-2.4-3.6-4.6-5.3-6.9c4.6-9.4,11.3-17.4,17.9-25.4
	c-7.8,6.2-15.2,12.8-22.8,19.2c-2.3-3.6-4.8-7.1-6.8-10.9c4.7-8.2,10.8-15.6,15.4-23.8c-6.6,5.8-11.2,13.6-18.6,18.4
	c1.9-13.2,12.8-22,19.4-32.8c-9.4,0.9-18.9,2.6-27.6,6.5c-0.6-3.3-1.8-6.5-2.2-9.9c8.8-5,18.8-6.7,28.2-10
	c-9.9-0.1-19.7,1.5-29.4,3.1c-0.7-5.1-2-10.1-2.2-15.3c9.2-1.2,18.4-2,27.6-3.2c-8.9-2.6-18.2-3.7-27.4-3.6
	c-0.1-3.9-0.5-7.9-0.9-11.8c9.3-0.3,18.6,0.8,27.9,1.5c-3.8-4.2-8.1-7.9-12.3-11.6c-4.5-3.9-10.2-6.3-13.8-11.2
	c-1.5-1.8-1.4-4.3-1.3-6.5c8.9,3.2,17.6,6.7,26.4,10c-7.4-7.6-16.8-13-26.5-17.1c-1.6-0.4-1.1-2.3-1.2-3.5
	C597.1,332.4,596.6,322.7,596.6,313z"/>
<path class="st1" d="M621.4,341.8c-2.1-10.1,3.9-21.4,13.8-24.6c4.9-1.4,11.1-1.2,14.8,2.8c2.9,3.2,4.3,7.4,6.5,11.1
	c2.6-1.2,2.8-4.8,4.4-7c11.1-0.1,21.6-3.7,32.5-5.4c4.9-0.6,11.2-1.2,14.4,3.4c2.5,3.9,4.1,8.2,6.7,12c1.1-4.5,2.4-9.5,6.7-12
	c7.1-4.1,15.6-2.6,23.3-1.6c7.7,1.4,15.5,2.9,23.3,3.4c1,2.9,2,6,4.5,8c1.1-3.4,1-7.3,3.5-10.1c3-3.5,7.8-4.6,12.1-5.1
	c10.4-0.7,21.4,8.4,20.5,19.2c-0.7,7.3-4.5,14.9-11.4,18.2c-4,2-8.6,1.7-12.9,1.4c5.5,27.6,8.2,57.1-1.3,84.1
	c-1.7-1-3.5-1.9-5.3-2.7c2.3-16.6,4.4-33.8,0.8-50.3c0,16.3-1.7,32.7-6.1,48.4c-2.4-0.6-4.8-1.2-7.2-2c1.5-12.1-3.1-23.8-7.9-34.6
	c5.8-2.2,10.5-6.8,12.8-12.6c2-4.9,2.8-10.2,3.3-15.5c-2.4,1-4.8,2.1-7.3,3c-0.3-6.1-2.5-11.8-4.6-17.5c2-0.5,4.2-1.6,6.3-0.7
	c3.9,1.8,5.7,5.9,7.7,9.4c1.6-3.7,2.3-8.2-0.2-11.8c-2.3-4-7.5-5.2-11.7-4.1c-14.5,3.5-24.7,15.8-38.9,19.8
	c-3.2,1.3-5.5-2.1-6.4-4.6c-1.8-5.8-1.8-12-3.8-17.7c-2.3,7.7-2.9,16.2-7.8,22.8c-15.7-3.6-27.1-17.2-42.9-20.5
	c-4.5-1.1-8.5,2.2-10.3,6c-1.9,3.3-0.7,7.1,0.9,10.2c1.2-3.3,1.6-7.4,4.8-9.5c2.4-1.6,5.2-0.5,7.7,0.3c-1.3,5.8-4.1,11.3-4.5,17.3
	c-1.9-0.8-3.8-1.6-5.7-2.2c-0.5,11.8,6.6,22.1,14.9,29.7c-6.3,9.9-8.3,21.9-7.5,33.5c-2.9,0.2-5.7,0.7-8.5,1.2
	c-4-15.8-4.4-32.2-6.7-48.4c-1.9,16.8-0.7,33.9,1.5,50.6c-1.9,0.9-3.9,1.9-5.8,2.9c-7.6-27.9-7.7-57.7-0.1-85.6
	c-2.6,0.9-5.3,2.4-8.1,1.3C629.4,354.2,622.7,349.1,621.4,341.8z"/>
<path class="st0" d="M633.3,326.3c4.3-3.9,11.4-2.9,14.8,1.5c1.2,2.8,1.4,6,0.6,8.9c-2.5-2.4-4.6-6.5-8.6-6.1
	c-6.7,1.1-9,9.9-5.9,15.3c1.8,3,5.3,4.1,8.3,5.5c-4.6,0.6-10.4,0.8-13.3-3.6C624.6,341.1,627.4,331.3,633.3,326.3z"/>
<path class="st0" d="M781.7,325.7c4.1-2.8,10.1-2.5,13.8,0.7c4.1,3.6,6.1,9.2,5.9,14.6c-0.1,3.4-1.7,7-4.8,8.7
	c-3.4,1.9-7.4,1.3-11.1,1.3c3-1.3,6.6-2.1,8.3-5.2c1.9-3.6,2.7-8.4,0.5-12.1c-2.3-3.2-6.8-3.4-10.3-3c-2.5,1.3-3.2,4.4-5.1,6.3
	C778.9,333.1,779.6,329.1,781.7,325.7z"/>
<path class="st2" d="M685.1,331.3c3,5.5,5.6,11.3,8.7,16.8C687.8,344.9,683.7,338.3,685.1,331.3z"/>
<path class="st0" d="M732.7,340.7c3.4-3.3,7.4-6.1,11.1-9.2c-0.3,4-1.2,8.2-3.8,11.4c-2.3,3.1-5.7,4.9-9.1,6.4
	C730.4,346.3,730.3,342.9,732.7,340.7z"/>
<path class="st2" d="M694.6,348.4c0.9-0.8,3,0.3,2.2,1.6C695.9,350.9,694,349.6,694.6,348.4z"/>
<path d="M554.5,363.5c3.2-2.6,5.3-6.2,7.5-9.6c-1.1,6.5-4,12.9-9.3,16.8c-7.6,5.9-17.3,8.2-26.7,9.3c-83-0.5-166-0.1-249-0.3
	c-17.2-0.1-34.5,0.2-51.8-0.2c0.5-0.1,1.5-0.4,2-0.5c73.9-1.4,147.9-1.5,221.8-4.2c25.7-1.2,51.4,2,77.1-0.8
	C536.1,372.7,546.6,370.3,554.5,363.5z"/>
<path class="st3" d="M672.4,362.4c2.1-1.7,7.7,0.5,5.4,3.4C675.7,367.5,669.6,365.1,672.4,362.4z"/>
<path class="st3" d="M748.5,367.7c0.3-3.8,4.3-4.2,7.4-4C756.2,368,751.7,368.3,748.5,367.7z"/>
<path class="st4" d="M669.6,367.4c4.5,4.5,10.7,6.4,16.1,9.5c-5.9-0.1-11.7-0.7-17.4-2.3C668.7,372.2,669.1,369.8,669.6,367.4z"/>
<path class="st3" d="M742.3,376.8c6.1-2.4,12-5.2,17.5-8.8c0,2.2,0,4.5,0,6.7C754.1,376.2,748.2,377.4,742.3,376.8z"/>
<path class="st1" d="M694.8,371c5.9,4.1,14.5,4.8,20.1-0.2c1.9,1.6,3.8,3.4,6.4,3.8c5.1,0.9,9.7-1.8,14.1-4
	c-1.8,9.1-5.5,17.7-7.1,26.9c-9.5-0.9-19.1-0.6-28.7,0C698.2,388.6,697,379.7,694.8,371z"/>
<path class="st1" d="M664.4,379.8c8.1,2.8,16.6,3.4,25.1,3.7c4.5,11.3,2.8,24,7.4,35.2c2.3-1.5,4.9-2.6,7.7-3
	c2.1,4.6,2.9,9.8,6.5,13.6c0.5,3.5,0.1,7.1,0.2,10.7c-11.8,1.3-22.9,5.7-33.8,9.8c-6.2-9.3-9.6-21-6.8-32
	c2.3-10.1,9.4-18.1,14.1-27.2c-3.7,0.2-6.8,3-10.5,2.5C669.3,390.5,664.4,385.7,664.4,379.8z"/>
<path class="st1" d="M738.4,382.3c9.2,1.5,18.5,0.3,27.3-2.4c-1.5,4.5-3.6,9.4-8.1,11.6c-4,2.1-8.6,1.2-12.8,0.4
	c9.5,9,13.5,22.2,14.3,35c0.5,8.1-1.8,16.4-6.7,22.9c-11.2-3.5-22.3-7.9-33.9-9.9c-0.1-4.2-0.4-8.4-1.1-12.5
	c4.6-1.7,4.8-6.9,6.2-10.9c2.7-0.2,5.5-0.1,8.2-0.1C734,405.1,735.9,393.6,738.4,382.3z"/>
<path class="st4" d="M701.4,404.5c7.9-2.3,17.6-3.5,24.8,1.6c-7,2.8-15.2,4.6-22.3,1.1C702.8,406.5,700.4,406.2,701.4,404.5z"/>
<path class="st0" d="M367.1,437.8c5.4-2.9,11.4-5.2,17.6-4.7c8.4,0.6,15.7,5.9,20.8,12.3c4.1,5.1,6.3,11.8,5.3,18.4
	c-0.6,4.4-2.6,8.5-4.6,12.4c1.2-9.8,0.5-21.1-7-28.5C391.1,439.1,378.4,437.6,367.1,437.8z"/>
<path class="st1" d="M705.4,445.6c9.6-1.6,21.1-1.8,28.9,5.1c4.5,3.6,4.7,10.6,1.7,15.2c-7.1,2.2-14.6,3-22.1,3.5
	c-6.4,0.2-13.1,0.3-19.1-2.2c-5.6-2.1-6.4-10-2.9-14.3C695.3,448.9,700.4,446.8,705.4,445.6z"/>
<path class="st0" d="M285.4,481.4c3.6-5.6,9.3-9.5,15.5-11.9c-7.4,14.5-15.1,28.8-22.8,43.2C277.9,501.9,279.2,490.5,285.4,481.4z"
	/>
<path class="st0" d="M488,540c-8.8-11.3-10.1-26.7-6.9-40.2c2.4,14.1,5.1,28.8,13.3,40.8c2.5,3.9,6.2,6.7,9.9,9.4
	C498,548.5,491.9,545.3,488,540z"/>
<path class="st0" d="M512.9,550.1c-10.4-12.3-13-30.1-8.2-45.3c2.2,15.6,5,32,14.5,45c3.4,4.6,7.9,8.2,12.7,11.2
	C524.7,559.3,517.7,556,512.9,550.1z"/>
<path class="st0" d="M536.7,556.3c-8.6-12.3-10-28.6-5.5-42.7c1.8,15.4,4.6,31.5,13.6,44.6c3.3,4.9,8,8.6,12.8,11.9
	C549.1,568.5,541.5,563.4,536.7,556.3z"/>
<path class="st0" d="M561.6,559.4c-6.3-13.5-6.7-29.3-2.5-43.5c1.6,12.8,3.3,25.7,6.8,38.2c1.3,4.4,2.8,8.9,5.2,12.8
	c3.9,6,10.7,9.2,14.6,15.2C574.5,578.9,566,569.8,561.6,559.4z"/>
<path class="st1" d="M774.3,516.2c2.1-0.6,4.3-0.3,6.4,0.1c8.4,1.5,16.2,5.1,24.4,7.5c6.8,2.2,13.9,3,20.9,4.2
	c31.8,4.5,63.9,7.7,96,10.1c7.1,0.7,12.6,6.5,14.9,13c3.7,10.5,2.6,21.9,1.6,32.7c-1.6,13.6-4,27.6-11.4,39.4
	c-3.9,5.7-9.7,11.5-17,11.5c-12.3-0.9-22.4-14.9-18-26.7c2.7-6.6,10.8-8.1,17.1-7.5c-4.2-2.2-8.7-6.1-7.6-11.4c1-5,6.2-6.6,10.5-7.9
	c-24,1.3-47.2,7.7-70,14.7c-5.5,1.9-11.4,3.4-15.9,7.3c-9.3,7.7-16.2,18.9-28.1,23.1c1-4.5,2.7-9.2,1.3-13.7
	c-1.1-3.5-5.3-4.2-8.4-3.5c-12,2.1-22.4,9.2-33.9,12.8c2-4.9,4.2-9.8,6.2-14.7c-6.3-4.2-12.6-8.4-18.8-12.6c5.5-10,11-20,15.8-30.3
	c1.6-3.5,3.1-7.1,3.9-10.9c-6.2,8.2-8.2,18.9-15,26.8c-2.8,3.6-6.9,6.2-11.4,7.1c10.2-20,23-38.9,30.3-60.3
	c30,9,61.8,15.9,93.2,10.4c-14-0.8-28-1.7-41.9-4.1c-16.5-2.8-32.8-6.9-48.7-12.3C771.8,519.3,772.8,517.5,774.3,516.2z"/>
<path class="st0" d="M170.3,530.2c3.8-1.7,8-1.2,12.1-0.8c-6,1.6-12,4.3-15.3,9.9c7.7,2.8,14.3,7.5,21.4,11.4
	c-9.4,12.2-23.2,19.8-36.1,27.8c5.8,1.4,11.6,2.6,17.5,3.8c-12.4,13.5-26.1,25.8-39.4,38.4c6.1-0.8,12.2-0.4,18.2,1
	c-10.6,13.7-21,27.6-31.2,41.6c8.1-2,16.2-4.5,24.6-5c-9,12.6-19.6,23.9-27.4,37.2c-7.3,12.1-12.6,25.8-13.5,40.1
	c5.5,4.6,13.1,4.6,19.5,7.1c-6,0.3-12.2,0.6-18.2-0.1c-3.3-0.6-8-2.6-7.3-6.7c0.3-13.3,4.5-26.2,11.1-37.7
	c6.2-10.9,14.6-20.4,20.4-31.5c-9.8,3.7-19.1,8.3-28.7,12.5c10.7-19.3,29-33.1,39.8-52.4c-9.7-1.2-18.6,3.3-28.1,4.5
	c15.2-16.6,35.9-27.5,49.3-45.7c-9.6-1.3-19.2,1.1-28.8,0.8c15.2-13.1,35.9-18.8,48.9-34.6c-6.9-3.2-13.5-7.1-20.9-8.8
	C160.8,537.7,164.5,532.4,170.3,530.2z"/>
<path class="st0" d="M307.6,589.7c23.4-18.6,46.6-37.6,70.5-55.6c-27.6,24.5-55.5,48.7-83.5,72.6c-7.4,6.4-14.7,12.8-22.9,18.1
	c-4.9,3.3-11.2,3.4-16.7,2c-7.4-2-13.4-6.9-19.3-11.6c-9-6.7-19-12-28.3-18.3c8.5,3.2,16.7,7,25.1,10.5c8.9,4.3,17.7,8.9,26.4,13.6
	c2.7,1.9,5.8-0.5,8.3-1.6C281.9,611.1,294.6,600,307.6,589.7z"/>
<path class="st1" d="M383.2,548.2c13.6-2.8,27.5,0.8,40.5,5.1c11.5,3.9,22.9,8,34.6,11.3c-14.8,20-33.2,36.9-50.4,54.7
	c17.7-10.8,33.4-24.6,47.4-39.9c3.4-3.7,5.3-8.9,10-11.1c1.9-1,3.8,0.4,5.7,0.8c-9.1,13.3-20.7,24.6-32.2,35.8
	c-20.4,19.1-41.9,37-64,54.2c4.7-2.1,10.1-3.9,15.2-2c8.5,2.8,13.5,10.7,18.2,17.8c8.7,12.4,17.3,25.2,28.9,35.1
	c6,5.4,14.5,5.2,22,5c11.3-0.3,22.7-3.3,34-0.8c5.4,1,8.3,6.2,10.2,10.8c2.1,5.3,3.1,12-0.4,17c-4,4.8-10.6,5.9-16.4,6.6
	c-12.1,0.8-24.3-0.2-36.4-0.2c-13.4,0-26.7,0-40.1,0c-4.3,0.1-8.1-2.4-11.7-4.4c-19.5-11.9-37.2-26.5-53.3-42.6
	c-1.5,7.1-1.3,14.4-1.5,21.6c-10.5-7.9-12.7-21.7-18.4-32.8c-2.9-5.8-7-11.3-13.1-14.1c-5.1,4.9-8.2,11.2-11.8,17.1
	c-3.3-4.7-5.9-10.2-5.5-16.1c0.2-4.6,2.5-8.7,4.9-12.5c7-11,16.2-20.5,24.1-30.9c8.7-10,18.7-19.2,24.7-31.3
	c4.8-9.7,4.8-21,1.9-31.3C360.4,562.5,369.6,551.2,383.2,548.2z"/>
<path class="st0" d="M621.7,603.3c-4.2-17.8-6.5-36.7-2.5-54.8c1.9,20.3,5.2,40.6,10.3,60.4c-2.7,3.4-6,6.4-8.1,10.2
	c5.3-0.2,11.3,1.4,13.9,6.4c5.2,9.6,3.2,21,5,31.4c4.6-1.8,10.4-2.4,14.3,1.3c7.8,6.8,8.9,18,15.1,26c1.8-3.2,3.5-7.1,7.3-8.3
	c4.4-1.3,8.8,1,12.2,3.6c6.6,5.1,11.3,12.1,16.2,18.7c5,6.7,10,13.3,15,20c8.3,11.9,20.5,21.2,34.7,24.7
	c-15.2,0.1-29.6-7.6-39.2-19.2c-11.5-14.3-21.1-30.5-35.3-42.4c-3,6.1-6.6,11.8-10.1,17.6c-8.8-12.2-11.5-28.2-23-38.5
	c-4.5,2.5-6.5,7.4-10.1,10.8c-5-11.7-2.5-24.8-5.2-36.9c-0.9-3.9-2.9-8.9-7.6-9.2c-5.1-0.1-9.2,4-14.4,3.6
	c2.8-7.6,7.4-14.3,11.3-21.3C622.7,606.3,621.9,604.7,621.7,603.3z"/>
<path class="st0" d="M704.7,566.6c10,33.2,24.6,64.8,38.3,96.6c-8.2-13.3-16.2-26.7-24-40.3C710,605.6,704.7,586.2,704.7,566.6z"/>
<path class="st0" d="M356,575.4c5.1,12.2,4.8,27.9-4.7,37.9c-13.1,16.5-25.9,33.3-37.6,50.9c7.5,1.8,13.6,7.2,17.3,13.9
	c2.5,4.2,4,8.8,5.7,13.3c2.9-3.1,5-6.8,8.2-9.5c9.8,14.3,21.9,27,35.3,37.9c7.7,6.2,15.5,12.3,24.4,16.7c5.8,2.9,12.4,3.8,18.8,4.4
	c17.9,1.8,36.2-0.1,54,3.8c-9.7-0.5-19.4-0.8-29,0c-10.8,0.9-21.6,1.6-32.4,1c-4.1-0.3-8.3-0.7-11.9-2.7
	c-23.3-12.5-43.3-30.5-60-50.8c-4.3,6-3,13.8-5.6,20.4c-6-11.4-8-25.1-17.5-34.4c-5.9-5.8-14.8-6-22.3-4.1
	c16.6-24,35.5-46.3,52.3-70.1C357.1,595.6,353.7,584.8,356,575.4z"/>
<path class="st0" d="M847.7,586.9c4.3-0.4,8.6-0.9,12.9-0.8c-13.8,2.3-28,5.6-39.6,13.9c-5.1,3.6-9,8.5-12,13.9
	c1.1-5.2,2.1-10.4,1.8-15.7c-13.2,4.6-26.7,9.5-40.8,10.3c3.6-3.7,7.4-7.4,10.3-11.8c-7-0.5-15.5-0.7-20-7
	c6.8,1.7,13.6,3.4,20.6,3.4c4.7,0.2,9.4-0.5,14-0.6c-1.8,2.8-4.6,4.8-6.9,7.2c10-1.7,19.7-4.9,28.9-8.8c-0.4,2.2-0.7,4.3-1.1,6.5
	C824.5,589.5,836.6,588.1,847.7,586.9z"/>
<path class="st4" d="M882,622c-0.4-4.6-1-10.5,3.4-13.5c0.6,7.5,1.5,14.9,2.1,22.3C883.9,629.4,882.2,625.7,882,622z"/>
<path class="st4" d="M868,635.9c3.4-2.1,6.7-4.1,10-6.4c1.9,2.5,4,4.9,5.7,7.6C878.4,637.1,873.2,636.8,868,635.9z"/>
<path class="st4" d="M893.2,633c2.2,1.9,4.6,3.4,7.2,4.7c-3.3,4-8.6,4.9-13.5,5.4C888.6,639.6,890.9,636.2,893.2,633z"/>
<path class="st2" d="M91.8,649.5c1.7-1,2.2,1.3,0.5,1.7C90.6,652.3,89.9,649.6,91.8,649.5z"/>
<path class="st5" d="M639.2,693.1c1.3,0.6,1.3,1.3,0.1,2C638,694.5,638,693.8,639.2,693.1z"/>
<path class="st4" d="M155.5,713c7.9-4.9,18.9-3.4,25,3.5c2.5,2.7,3.2,6.4,3.7,9.9c-5.4-3.9-12.8-4.7-18.8-1.9
	c-4.2,2-5.3,7.6-3.4,11.5c1.7,3.4,4.1,6.5,5.4,10.1c-4.4-0.6-8.7-1.8-12.7-3.8C159.5,733.5,160.9,722,155.5,713z"/>
<path class="st4" d="M187.1,714c6.9-2.7,15.2-0.8,20.2,4.8c2,2.1,2.4,5.1,2.8,7.9c-3.4-0.5-7.1-1.6-10.3,0.1
	c-3.2,1.8-4.8,5.7-5.1,9.2c-0.3,3.6,1.9,6.7,3.8,9.5c-3.6,0.2-7.2,0-10.8-0.8C188.8,734.6,190.9,723.9,187.1,714z"/>
<path class="st4" d="M504.6,715.7c5.5,0.8,10.9,4.7,11.6,10.5C511.1,724.6,506.7,720.8,504.6,715.7z"/>
<path class="st4" d="M794.6,718c6-3.3,13.7-3,19.2,1.2c3.6,2.4,5.5,6.5,6.4,10.6c-5.1-3.2-11.7-4.4-17.2-1.7
	c-3.7,1.8-5.5,6.7-3.6,10.4c1.5,2.9,3.4,5.6,4.5,8.7c-3.6,0.6-6.9-1-10-2.6C798,736.4,798.6,726.3,794.6,718z"/>
<path class="st4" d="M822.6,718.8c4.7-0.8,9.8-1,13.9,1.7c3.5,2,5.7,5.6,7.2,9.2c-3-0.3-6.2-1.1-9.1-0.1c-3.4,1.4-5.3,5-5.9,8.4
	c-0.6,3.4,1.6,6.3,3.4,8.9c-3-0.3-6-0.5-9-0.7C824.7,737.2,826.6,727.5,822.6,718.8z"/>
<path class="st4" d="M131.7,729.1c2.9-1.6,6.6-4.2,9.9-1.9c3.7,2.7,4.5,7.6,5.4,11.8c1.3,6.3,0.6,13.3-4,18.2
	C140.8,747.2,135.1,738.6,131.7,729.1z"/>
<path class="st4" d="M167.1,731c2.6-1.3,5.6-3.4,8.6-2.1c3.9,2.2,4.6,7.1,5.4,11c1.1,5.7,0,11.8-3.5,16.5
	C175.6,747.4,170.5,739.5,167.1,731z"/>
<path class="st4" d="M511.9,729.6c4,3.5,7.5,7.4,11,11.4c-4.1-0.5-8.2-0.9-12.3-1C510.8,736.5,510.4,732.9,511.9,729.6z"/>
<path class="st4" d="M523.6,730c6,1.5,11.8,5.8,12,12.4C529.7,740.8,526.1,735.3,523.6,730z"/>
<path class="st4" d="M772.4,733.3c2.5-1.5,5.3-3.8,8.4-2.6c3.6,2.1,4.3,6.6,5.2,10.3c1.3,5.6,0.6,11.8-3.2,16.2
	C780.5,748.9,776.4,741.1,772.4,733.3z"/>
<path class="st4" d="M200.2,733.3c2.8-1.3,7-2.9,9.1,0.5c3.5,6.2,3.9,14.5-0.4,20.5C205.9,747.3,202.9,740.4,200.2,733.3z"/>
<path class="st4" d="M804.6,734.1c2.7-0.9,6-2.6,8.6-0.5c2.7,2.4,3.2,6.1,3.8,9.5c0.8,4.6-0.3,9.4-2.8,13.3
	C811.1,749,807.8,741.6,804.6,734.1z"/>
<path class="st4" d="M834.1,736.9c2.2-1.2,5.4-3,7.5-0.5c3.9,5.2,4.3,12.9,0.9,18.5C840.5,748.5,837.8,742.5,834.1,736.9z"/>
</svg>
