<?xml version="1.0" encoding="utf-8"?>
<!-- Generator: Adobe Illustrator 21.1.0, SVG Export Plug-In . SVG Version: 6.00 Build 0)  -->
<svg version="1.1" id="Layer_1" xmlns="http://www.w3.org/2000/svg" xmlns:xlink="http://www.w3.org/1999/xlink" x="0px" y="0px"
	 viewBox="0 0 182.2 182.2" style="enable-background:new 0 0 182.2 182.2;" xml:space="preserve">
<style type="text/css">
	.st0{fill:#010101;}
</style>
<g>
	<path class="st0" d="M42.3,145.2c-1.4,1.6-4.5,3.6-9.2,5.9c-0.1-0.2,0.5-0.9,1.6-2c5.8-5.2,9.1-12,9.9-20.4c-2.4,3-5.8,5.1-10,6.3
		c0.4-0.5,1.2-1.2,2.5-2.2c1.2-0.9,2.1-1.7,2.6-2.4c0.5-0.9,1.1-4.2,1.9-10.1c0.1-0.7,0.4-2,1.1-3.7c0.5-1.5,0.7-2.6,0.7-3.5
		c-0.8,0.4-2.9,2.9-6.3,7.6c-1.7,2.3-4.2,4.3-7.6,6.2c2.3-4.1,3.8-7.3,4.4-9.6c1-4,2.6-7.3,4.7-9.7c-5.6,1.8-8.6,6.4-9.2,13.7
		c-1.4-4-1.2-8.2,0.6-12.9c0.8-2.2,2.7-5.7,5.7-10.4c-2.2,1.2-4.3,3.7-6.3,7.7c-0.4-2.5,0.5-5.1,2.7-7.9c2.5-3.1,3.8-5.6,3.8-7.5
		c0-1.1-0.4-2.6-1.1-4.5c-0.7-1.8-0.9-3.2-0.8-4.3c0.1-1.5,1.1-2.9,3-4.2c2-1.5,3.3-2.7,3.7-3.7c-1.2-0.5-2.4-0.3-3.5,0.5
		c-2.1,1.6-3,2.3-2.7,2.2c5.1-7.5,11.1-11.4,18-11.4c-5.2,7.1-8,11.2-8.5,12.2c0.9-0.4,2.4-1.4,4.5-3c-0.2,0.9-0.8,1.9-1.9,3.1
		c-1.2,1.4-1.9,2.4-2.3,3.1c-0.5,0.9-1,2.2-1.3,3.8c-0.5,2.3-0.9,3.7-1.1,4.3c0.9-0.7,2.2-2.2,4.1-4.7c0,0.3-0.4,1.6-1.3,3.8
		c-0.7,1.8-1,3.3-1,4.7c0,5.4,1,9.8,3,13.2c0.7-8.9,1.3-13.9,1.8-14.8c-0.2,5-0.2,8.2,0,9.8c0.5,3.7,2,5.8,4.5,6.3
		c1.1,6.9,1.9,10.8,2.5,11.8c0.4,0.7,1.3,1.5,2.5,2.3c1.2,0.9,2.1,1.6,2.5,2.2c-5.3,1.8-9.2,4.8-11.6,8.8c-0.7,1.1-1.7,3.4-3.2,7
		C44.7,141.7,43.5,143.9,42.3,145.2z M37.6,70.8c0.3-1.6,1.6-3.9,4.1-6.8c3.1-3.7,4.5-6.1,4.3-7.1c-0.4-1.1-1.6-1.3-3.8-0.5
		c-0.4,0.1-1.1,0.5-2,1.1c-0.9,0.5-1.6,0.8-2.1,0.9c3.1-4.4,6.4-6.8,9.9-7.3c0.6,0,1.2,0,1.8,0c2.6,0.3,4.4,1.8,5.4,4.5
		c1,2.8,0.3,4.9-2.1,6.4c-0.9,0.5-2.3,1.1-4.2,1.9c-2,0.7-3.4,1.4-4.3,1.9C42.3,66.9,40,68.6,37.6,70.8z M48.4,49
		c-0.5,0-3.3,1-8.5,3.1c0-0.2,0.5-0.7,1.4-1.5c0.3-0.2,1.4-1,3.2-2.2c1.3-0.9,2.3-1.6,3-2.3c1-1.1,1.5-2.3,1.4-3.5
		c-2-0.5-4.4,0.6-7.4,3.3c1.4-3.4,5.3-6.6,11.8-9.7c-1.6,0.2-3.3,0.6-4.9,1.2c0-0.3,0.4-0.8,1.1-1.4c2-1.6,4.2-2.5,6.5-2.7
		c0.6-0.1,1.8,0.1,3.7,0.4c1.6,0.4,2.7,0.3,3.3-0.1c1-0.7,1.8-2.6,2.6-5.5c0.7-2.8,1.7-4.5,2.9-5.1c-1.2,2.6-1.8,4.9-1.6,6.7
		c0.4-0.4,1.5-2,3.3-4.8c1.4-2.3,2.9-3.7,4.4-4.3c-2.1,4.3-2.3,7.4-0.7,9.3c1.6-1,2.4-2.7,2.3-5.1c0-2-0.6-3.9-1.6-5.5
		c0.4-0.1,1.1,0.4,2.3,1.5c5,5,7.8,10.7,8.5,17.1c-0.4-0.2-1-0.6-1.5-1.1c-0.7-0.7-1.1-1.1-1.4-1.2c0.3,2.6,1.5,5.2,3.7,7.8
		c2.9,3.2,4.5,5.5,5.1,6.7c-0.4-0.3-1-0.8-1.8-1.6c-0.7-0.7-1.3-1.3-1.8-1.6c0.2,0.5,0.7,2.1,1.4,4.6c-0.6-0.5-1.5-1.7-2.6-3.6
		c-1.1-1.7-2.2-2.8-3.2-3.3c1,4,1.6,6.6,2,7.7c-0.2,0.1-1-0.7-2.2-2.2c-2.8-3.3-5.9-5.2-9.3-5.8c0.1,0.4,0.7,1.3,1.8,2.7
		c0.9,1.2,1.4,2.2,1.5,3.2c-0.1,0.1-0.9-0.6-2.3-2l-2.5-2.5c0.2,0.7,0.6,1.5,1.1,2.6c0.5,1.1,0.9,1.9,1.1,2.5
		c-0.2-0.1-0.5-0.2-0.8-0.4c-0.3-0.2-0.6-0.4-0.8-0.5c0.1,1.9-0.5,3.4-1.9,4.6c-0.3,0.3-0.9,0.8-1.8,1.4c-0.8,0.6-1.4,1.1-1.8,1.5
		c0.3,0,0.7,0,1.2-0.1c0.4-0.1,0.8-0.1,1.2,0c-0.1,1.6-1.1,2.7-3.2,3.3c-2.9,0.8-4.5,1.3-4.8,1.5c0.1,0.1,0.5,0.1,1.2,0
		c0.7-0.1,1.3-0.1,1.6,0c-0.7,0.9-1.7,1.9-2.9,3.2c-1.5,1.5-2.5,2.6-3,3.1c0.4-0.1,0.9-0.4,1.5-0.7c0.7-0.4,1.2-0.6,1.5-0.8
		l-6.4,10.5c0.4-0.1,1-0.4,1.8-0.9c0.7-0.4,1.4-0.7,1.9-0.9c0.3,1.2,0.1,3.1-0.4,5.8c-0.6,2.6-0.5,4.5,0.1,5.8
		c0.7-3.4,0.9-4.9,0.8-4.5c0.4-1.6,1.2-2.6,2.3-3.1c1,1.1,1.4,2.8,1,5.2l-0.8,6c-0.3,0.4,0.3-0.7,1.6-3.3c-0.7,5.9-0.8,9.5-0.1,11
		c-0.1,0.3,0.2-1.2,1-4.6c0.2,0.7,0.4,1.9,0.6,3.4c0.2,1.8,0.4,2.9,0.5,3.5c-0.1,0.1,0.3-1.1,1.2-3.6c0.2,0,0.5,0,0.8,0.1
		c0.4,0.1,0.6,0.1,0.8,0.1c1.8,3.1,3,7,3.5,11.9c-0.7,0-1.8-0.1-3.3-0.3c-1.3-0.2-2.4-0.3-3.2-0.1c-1.6,0.2-3,1-4.3,2.2
		c-1.3,1.3-1.9,2.8-1.9,4.4c0.1,0.7,0.4,1.5,1,2.4c0.6,1.1,1,1.9,1.1,2.5c-2.8-1.9-4.1-2.8-4-2.6c-1.5-1.8-2.3-5.4-2.3-10.9
		c0-6.2-0.4-10.1-1.3-12c-1,0.4-1.6,1.5-1.9,3.3c-0.4,3.3-0.6,4.9-0.6,4.7c-1.4-2.3-2-5.3-1.9-9.1c0.1-3.5,0.8-6.6,2.1-9.1
		c-1.2,0.7-2.9,3.7-5.3,9.2c-0.5-3,0-6,1.5-9c0.2-0.4,0.9-1.6,2.1-3.6c0.9-1.5,1.5-2.7,1.9-3.6c-1.3,0.2-3.1,1.6-5.4,4.2
		c-0.7,1-1.2,1.4-1.4,1.3c0.7-2.3,2.2-4.6,4.4-6.9c3.1-3.1,4.9-5.1,5.4-5.8c-1.2-0.1-3.4,0.7-6.6,2.5c0.5-1.1,2-2.6,4.4-4.6
		c2.3-1.8,3.7-3.6,4.3-5.2c-0.4,0.1-1.2,0.2-2.2,0.3c-1,0.1-1.7,0.3-2.2,0.3c0.3-0.4,1.1-1,2.4-1.5c1.2-0.5,2.1-1.1,2.4-1.6
		c0.7-1,0.4-2.8-0.7-5.6c0.1,0,1.1,0.5,3,1.5c-0.4-0.4-1.1-1.1-2.1-2.3c-1-1.1-1.8-2-2.4-2.6C53.1,50,52,49,52,49S50.8,49,48.4,49z
		 M91.8,154.7c5.1-4,8-6.6,8.6-7.8c-7.7,5.6-13.3,8.9-16.8,9.9c-1.2,0.4-3.1,0.7-5.5,1.1c-2.6,0.4-4.4,0.7-5.6,1.1
		c-6.4,1.8-10,2.6-10.5,2.6c0.4-0.2,1.1-0.5,2.1-0.9c1-0.4,1.8-0.7,2.3-1c1.3-0.7,2.2-1.6,2.6-2.6c0.5-1.2-0.2-2-2.1-2.2
		c-2.9-0.3-6,0.4-9.3,2.2c-2.9,1.7-5.2,3.6-6.7,5.8c-1,1.4-1.5,2.1-1.8,2c0.3-1.6,1.4-3.6,3.3-6c1.8-2.3,2.6-4.5,2.6-6.7
		c-3.9,1.5-6.8,4-8.9,7.5c-2.3,4-2.7,8.1-1,12.5c-0.1,0.1-0.5-0.3-1-1c-1.5-2.1-2.2-4.8-2.2-8.2c-0.1-4.5,2.6-10.8,7.9-18.9
		c0.3-0.1-1.1,1.1-4.2,3.8c-1.8,1.6-3.6,2.5-5.5,2.7c0-0.1,0.9-0.8,2.6-2.3c2-1.7,3.4-3.9,4.4-6.6c1.8-5.3,2.8-7.9,2.9-8
		c2.1-3.3,6.2-6.5,12.2-9.6c-0.1,0.8-0.7,2.6-1.8,5.3c-1,2.4-1.5,4.4-1.6,5.8c-0.2,1.7,0,2.7,0.5,3.2c3.1-1.2,4.6-4.7,4.6-10.5
		c0.4-0.1,0.8,0.3,1.2,1.2c0.4,0.8,0.7,1.6,0.8,2.4c0.4,3.1-0.3,5.9-2,8.6c0.1-0.3-1.3,1.3-4.3,4.7c-1.5,1.8-2.2,3.7-1.9,5.8
		c2.1,0.1,4.1-0.4,6-1.8c0.4-0.2,1.2-0.8,2.4-1.8c1-0.7,1.8-1.3,2.4-1.6c0.1-0.4-0.5,0.5-1.9,2.6c-0.7,1.3-1,2.6-0.7,3.8
		c2.3,1.7,6.2,0.6,11.6-3.3c5.5-4,8.1-6,7.9-5.8c-0.2,0.3-1.2,1.2-2.9,2.6c-1.3,1.2-2.1,2.3-2.4,3.4c11.1-2.4,19.6-7.4,25.3-14.8
		c2.6,1,4.9,0.5,6.9-1.5c0.8-0.9,2.1-2.9,3.8-6.2c0,1.6-0.9,3.8-2.6,6.7c-1.7,2.6-2.4,4.9-2.1,6.9c1.5,0.3,3.7-0.2,6.6-1.4
		c-2.1,2.9-6,6-11.8,9.6C100.7,151.7,95.8,153.9,91.8,154.7z M57.7,45c-0.4,5.5,1,8.6,4.4,9.2c0.1,0.4-0.3-0.3-1-2.1
		c-0.1,0,0.3,0.1,1.1,0.3c0-0.1-0.1-0.4-0.3-0.8c-0.1-0.3-0.2-0.5-0.1-0.7c0.7,0,1.1,0,1.2-0.1c0.1-0.6-0.3-1-1.1-1.1
		c-1-0.1-1.5-0.3-1.6-0.4c1.1-0.5,2.1-1.1,3.1-1.9c-0.8-1.1-1.2-1.7-1.2-1.8c1.9,0.7,3.3,0.8,4.2,0.3c0.6-1.8,0.2-3.3-1.2-4.5
		c-0.4-0.4-1.1-0.8-2-1.3c-1-0.6-1.7-1-2-1.2c1.5-1.3,3.7-1.9,6.5-1.8c2.4,0.2,4.5,0.8,6.3,1.9c-0.7-0.8-1.1-1.4-1.1-1.9
		c0.2,0.2,0.7,0.6,1.3,1.1c0.7,0.5,1.2,0.9,1.5,1.2c1.5,1.3,2.4,1.9,2.6,1.9c-1.4-3.4-2.5-5.5-3.2-6.5c-1.5-2.1-3.6-3-6-2.7
		c-3,0.4-5.6,1.8-7.8,4.2C59.1,38.9,57.9,41.8,57.7,45z M85.3,145.6c0.6-0.6,2.1-1.8,4.6-3.7c2-1.5,3.4-3,4.1-4.5
		c-1.2,0.6-3.4,1.3-6.5,2.1c-2.7,0.7-4.8,1.5-6.3,2.4c0.1-0.1-1.4,1.2-4.7,4c-1.8,1.4-2.9,2.2-3.3,2.5c-1.4,0.8-2.7,0.9-4.1,0.3
		c0.1-1.2,0.6-2.7,1.3-4.3c0.9-1.9,1.4-3.3,1.6-4.1c-2.3,0.3-4.5,1.3-6.6,3c-0.3,0.3-1.1,1.1-2.5,2.3c-1,0.9-1.9,1.6-2.6,2.1
		c0.4-1.2,2.3-3.7,5.7-7.6c2.6-2.9,3.7-6.2,3.4-10.1c-0.1-2.2-0.7-4-1.8-5.4c-0.2-0.3-1.6-1.5-4.3-3.7c-1.8-1.5-2.6-3.1-2.4-4.8
		c0.1-2.3,1.6-3.9,4.3-4.7c2.6-0.8,4.8-0.4,6.5,1.2c-0.2,0.1-0.5,0.1-0.9,0.2c-0.4,0.1-0.7,0.2-1,0.2c0.3,0.4,0.8,0.7,1.5,1
		c1,0.3,1.6,0.5,1.8,0.7c0.1-0.1-0.4,0-1.8,0.5c2.8,1.2,4.2,2.5,4.4,3.8c0,0.1-0.7,2.3-2,6.7c0.3,0,0.7-0.3,1.2-0.8
		c0.7-0.7,1.1-1.1,1.3-1.2c-0.1,0.3-0.3,0.8-0.5,1.4c-0.4,0.8-0.6,1.4-0.7,1.6c-0.5,1.5-0.6,2.8-0.2,4.1c0.1-0.2,0.5-0.8,1.1-1.9
		c0.4-0.9,0.9-1.5,1.4-1.8c0.5,0.6,0.4,2.1-0.2,4.6c0.4,0,0.9-0.2,1.5-0.5c0.8-0.4,1.4-0.7,1.8-0.8c-0.1,0.2-0.2,0.5-0.3,1
		c-0.1,0.4-0.3,0.8-0.4,1c1.7-1,3.1-2.1,4.3-3.1c0-0.2-0.5,0.7-1.4,2.9c1.2-0.4,2.7-1,4.4-2c0,0.3-0.2,0.8-0.5,1.4
		c-0.5,0.7-0.8,1.2-0.9,1.5c0.7-0.4,1.8-0.9,3.2-1.5c1.5-0.7,2.5-1.1,3.2-1.4c-1.8,2.9-2.6,4-2.3,3.5c2.4-0.6,5.4-2.6,8.9-6
		c0.1,0.3,0,0.8-0.3,1.4c-0.4,0.8-0.5,1.4-0.5,1.6c0.8-0.3,1.5-1,2.1-2.1c1-2.2,1.5-3.1,1.3-2.9c0.1,0.1,0.3,1.1,0.6,3
		c1.3-1.6,1.8-3.7,1.5-6.2c0.3,0,0.5,0.1,0.7,0.4c0.2,0.4,0.4,0.6,0.5,0.7c0-2.2-0.1-3.9-0.3-5.1c0,0.1,0.3,0.1,1,0
		c-0.5-2.2-0.3-3.7,0.7-4.5c-0.1,1.5,0.4,2.9,1.3,4.2c0.2,0.2,0.7,0.7,1.3,1.4c0.6,0.6,1,1.1,1.2,1.4c0.7,1,0.8,2.4,0.3,4.1
		c-1,3.8-4.4,7.9-10.2,12.3C97.2,139.5,92.4,142.2,85.3,145.6z M65.2,77.3c0.1-0.4,0.3-0.9,0.8-1.5c0.4-0.6,0.7-1.1,0.7-1.4
		c0-0.2-0.3-1.3-0.9-3.3c-0.3,0.3-0.7,0.9-1.2,1.9c-0.5,0.9-1,1.5-1.3,1.9c-0.7-3.5-0.3-6.4,1-8.7c1.5-2.5,3.7-3,6.7-1.5
		c0,0.2-0.1,0.3-0.3,0.3c-0.2,0.1-0.3,0.2-0.2,0.4c0.5,3.3,2,5.8,4.4,7.6c2.6,1.9,5.6,2.2,8.8,0.8c-0.6-0.4-1.8-0.7-3.7-1
		c-1.8-0.3-3-0.7-3.7-1.2c-1.2-0.9-2.7-3-4.4-6.4c2.5-0.4,5.1,0.2,7.7,2c0.8,0.6,1.7,1.5,2.6,2.6c1.2,1.3,1.9,2.2,2.3,2.5
		c0.2,0.2,0.7,0.5,1.4,0.9c0.5,0.4,0.9,0.7,1.1,1c0.6,0.8,1.1,2.9,1.4,6.2c-0.3-0.4-0.6-1-0.9-1.8c-0.4-1-0.7-1.7-0.9-2
		c-0.8-1.4-2.1-2-3.8-1.8c-0.5,0.1-1.2,0.4-2.1,1c-0.9,0.6-1.5,0.9-2,0.9c-0.7,0-1.9-0.8-3.8-2.3c-1.6-1.4-2.6-2.4-3.1-3
		c-0.4-0.4-0.8-1.6-1.3-3.4c-0.4-1.5-1.1-2.5-1.9-2.9c-1.2,0-2,0-2.2,0.1c-0.3,1.2,0,2.6,1,4.1c1.2,1.7,1.8,2.9,1.9,3.6
		c0.1,0.4,0,0.9-0.2,1.6c-0.2,0.8-0.3,1.4-0.2,1.8c0,0.5,1.1,2.1,3.3,4.6c1-0.1,2.6-0.8,4.6-2.1c1.8-1.1,3.3-1.5,4.7-1.1
		c0.7,0.2,1.6,1.1,2.5,2.6c1.1,1.8,1.8,2.9,2.2,3.2c-0.7-0.2-1.7-0.9-2.9-2c-1.1-1-2.1-1.6-3.1-1.8c-2.4-0.4-5,1.1-7.8,4.4
		c0.4-0.1,1.1-0.5,1.9-1.3c0.8-0.8,1.5-1.3,2.2-1.4c0.7-0.1,2.3,0.6,4.6,2.1c-3.9-0.8-6.2-0.6-6.8,0.7c-0.1,1.8,0.9,3.7,2.9,5.7
		c1.9,1.9,2.7,4.1,2.3,6.5c0.7,0.4,1.7,0.9,3.1,1.3c0.3-0.1-0.8-0.3-3.3-0.7c-0.5,0.4-1.2,1.3-2,2.9c1.4,0.6,2.4,1,3.1,1.1
		c-1.5,0-3.4-0.3-5.7-0.9c3.1,2.6,5.4,4.1,7,4.3c2.7,0.4,5.2-0.5,7.4-2.5c-0.1-1.8-0.9-3.3-2.5-4.6c-2.8-2.2-4.1-3.3-4.1-3.2
		c-1.3-1.5-2.2-3.1-2.5-4.7c0.4,1,1.3,1.6,2.7,2c2.6,0.7,4,1,4.2,1.1c0.4,0.2,1,0.5,1.6,1c0.8,0.5,1.3,0.8,1.5,0.9
		c1.1,0.6,2.2,0.7,3.4,0.3c0.4-0.1,1-0.3,1.9-0.8c0.9-0.4,1.6-0.6,2.2-0.8c0.4-0.1,1.3-0.3,2.6-0.3c1-0.1,1.8-0.2,2.2-0.4
		c0.4-0.1,0.8-0.7,1.3-1.8c0.4-0.9,0.8-1.3,1.2-1.2c-1,2.8-2.3,4.9-4,6.4c0.1-0.1-1,0.6-3.3,2.1c-1.5,0.9-2.2,1.8-2.2,2.6
		c0.1,1,0.9,1.7,2.4,2.3c1.3,0.4,2.7,0.6,4.1,0.5c3.4-0.2,5.8-1.7,7.4-4.5c-0.6,0.1-1.8,0.5-3.5,1.2c-1.5,0.5-2.6,0.9-3.5,1.2
		c0.6-0.4,1.6-0.9,3-1.6c0.5,0.4-1.5,0.4-6.2,0.1c0.6-0.2,1.4-0.5,2.5-1c1.2-0.4,2.1-0.7,2.5-0.9c0.1-0.4,0-0.7-0.3-0.9
		c-0.3-0.2-0.4-0.4-0.4-0.7c3.5-2.6,6.5-5.3,8.9-8c-0.7-1.3-1.6-2.8-3-4.4c-0.1,3-1.2,5.6-3.1,7.8c0-0.1,0.3-0.9,0.9-2.2
		c0.5-1.1,0.9-2,1.1-2.9c0.6-2.3,0.1-4-1.4-4.9c-0.3,0.2-0.9,0.5-1.9,0.9c-0.9,0.4-1.5,0.7-1.9,1c0.9-1.6,2.1-2.4,3.5-2.3
		c1.2,0.1,2.5,0.7,3.7,2c2.9,3.1,3.9,6.6,3,10.2c-0.4,1.7-1.3,3.4-2.5,5.2c-2.5,3.7-3.8,6-4,7c0,0.3,0,0.7,0,1.2c0,0.4,0,0.8,0,1
		c-0.1,1.5-0.6,3.1-1.5,5.1c-1,2-1.5,3.3-1.5,4c-0.5,3.5-0.9,5.5-1.1,5.8c-1.2,1.6-3.4,2.4-6.7,2.4c-0.7,0-2.3-0.1-4.6-0.2
		c-2.1-0.1-3.7-0.1-4.8,0c-3.8,0.1-6,0.1-6.5,0c-1.8-0.7-2.9-2.3-3.1-5.1c-0.1-0.4,0-1,0.1-1.8c0.1-0.8,0.2-1.4,0.1-1.9
		c0-0.1-0.5-1.6-1.5-4.4c-0.4-1-0.6-2.4-0.8-4.3c-0.3-3.4-0.9-6.1-1.8-7.9c-1.4-3.1-2.3-5.5-2.6-6.9c-0.1-0.7-0.4-2.1-0.7-4.3
		c-0.2-1.8-0.5-3-0.9-3.8C66.4,79.5,65.3,77.1,65.2,77.3z M78.4,96.8c-0.7-0.3-3.3-2.3-7.8-6c0.4,4.4,2.2,7.4,5.6,8.9
		c0.4-0.2,0.8-0.7,1.2-1.3C77.9,97.6,78.2,97.1,78.4,96.8z M72.9,85.4c-1.8,0.7-2.4,2-1.8,3.8c0.5,1.2,1.5,2.5,2.9,3.8
		c3.1,2,4.7,3,4.7,3c0.3-2.1-0.5-4-2.3-5.7C74.3,88.3,73.1,86.7,72.9,85.4z M81.9,71.3c0.1-0.5-0.1-1.2-0.6-2.1
		c-1.3,1-2.6,1.2-3.8,0.4c-1.2-0.7-1.9-1.9-1.9-3.5c-0.3,0-0.6,0-1-0.1c-0.4-0.1-0.7-0.1-1-0.1c0.3,1.9,1.2,3.5,2.9,4.7
		C78.3,72.1,80.1,72.3,81.9,71.3z M85.3,24.5c-0.4-2.3-1.8-4.2-4.3-5.6c-0.5-0.3-1.6-0.8-3.3-1.6c-1.4-0.7-2.5-1.2-3.2-1.6
		c5.6,0.4,10.3,1.5,14.1,3.3c2.5,1.1,5.9,3.6,10.3,7.4c0-0.1-2.2-2.7-6.6-7.6c1.8,0.6,4.1,2,6.7,4.3c2.9,2.4,5.1,4,6.7,4.7
		c-0.1-0.4-1.1-1.9-2.9-4.4c1.4,0.4,3,1.7,4.8,4c1.9,2.2,3.6,3.6,5.2,4.1c-0.5-2-1.8-3.9-3.7-5.8c-2.7-2.6-4.3-4.3-4.7-4.9l11.8,5.7
		c-0.7-1.2-1.4-2.1-2-2.9c-1.3-1.5-1.9-2.4-1.9-2.5c11.1,5.2,18.4,11.8,22,19.7c1-2.9,0.7-7-1-12.5c3,2.6,4.8,6.3,5.4,11.1
		c0.1,1.5,0,3.6-0.4,6c-0.6,3-0.9,5-0.9,6c2.1-0.9,3-3.8,2.6-8.7c1,2.1,1.4,4.6,1.2,7.4c-0.2,2.9-1,4.9-2.4,6.2
		c-2.1,1.8-6.1,2.5-12.2,2.1c2.6,1.5,6,2.1,10.2,2c4.3-0.1,7.6-1,9.8-2.6c-1.5,2.4-4.2,4.2-8.2,5.4c1.5,0,3.7-0.1,6.5-0.4
		c3.2-0.3,5.5-0.5,6.7-0.5c-5.1,2.7-7.4,3.8-7.1,3.3c4.2,1.5,7.1,3.9,8.5,7.4c-3.4-1.7-4.9-2.5-4.7-2.4c-2.1-0.7-3.9-0.6-5.4,0.4
		c0.3,0.4,0.8,1,1.6,1.8c0.7,0.7,1.3,1.3,1.6,1.8c1.1,1.4,1.5,3.2,1.3,5.4c-0.3,5-2.2,9.7-5.6,14.1c-3.1,3.9-6.7,6.9-11,9
		c3.7-5.6,5.5-8.4,5.5-8.5c0.1,0-0.3,0.5-1.2,1.4c-2.5,2.6-7.8,6.5-15.9,11.5c-0.1,0.4,0.9-1.4,2.9-5.4c1.1-2.3,1.6-4.7,1.4-7.1
		c-2.6,0.1-4.4,1.8-5.3,5.1c-0.2,1-0.5,2.6-0.8,4.6c-0.3,2.3-0.5,3.8-0.7,4.6c-0.9-5-1.2-8.6-1-11c0.3-3.2,2.4-7.9,6.3-14.2
		c-2.6,1-4.9,3.8-6.7,8.6c-0.2-2.3,0.3-4.6,1.6-6.7l4-5.2c2.3-2.9,4-6.2,4.8-9.7l0.3,4.4c0.7-0.1,1.1-1,1.4-2.4c0.4-1.9,0.8-3,1-3.4
		c1.2,0.1,2.2,0.8,3.1,1.9c0.2,0.2,0.5,0.7,1,1.4c0.4,0.7,0.8,1.1,1.1,1.4c-0.2-0.6-0.5-1.5-0.8-2.7c-0.2-1.2-0.4-2-0.7-2.6
		c-0.2-0.5-0.8-1.1-1.6-1.8c-0.8-0.7-1.3-1.3-1.5-1.8c0.8-0.2,1.2-0.3,1.1-0.2c-0.4-0.1-1.6-0.6-3.6-1.4c-1.5-0.6-2.7-1.1-3.5-1.6
		c-2.6-1.4-4.1-3.2-4.7-5.5c0.1-0.1,0.4-0.1,0.9-0.2c0.5,0,0.8,0,1-0.1c-0.5-0.3-1.9-0.8-4.3-1.6c0.1-0.1,0.3-0.3,0.8-0.4
		c0.4-0.1,0.6-0.2,0.7-0.4h-4.8c4-3.7,5.8-5.3,5.2-4.7c-1.5-0.2-3.2,0.3-5.3,1.6c-2.2,1.5-4.1,2.2-5.7,2.1c2.8-2.1,4.2-4.1,4.3-6
		c-0.1,0-1.5,0.8-4.4,2.4c-0.4,0.3-1.1,0.6-2,1c-0.8,0.4-1.4,0.8-1.9,1c-1.3,0.8-2.2,1.8-2.6,3.1c0.1-0.9,0.4-2.1,1-3.7
		c0.6-1.9,1-3.2,1.1-4c-1.5,0.4-2.8,1.4-3.8,3.1c-0.2,0.3-0.7,1-1.3,2.2c-0.4,1-0.9,1.6-1.3,2.1c-0.3-2.9,1.2-5.9,4.5-8.8
		c3.9-3.4,6-5.8,6.5-7.1c0.8-2.4-0.3-5.8-3.3-10.1c0,0.8,0.3,2.1,0.9,3.8c0.5,1.6,0.7,3.1,0.6,4.4c-0.2,1.8-2.5,4.8-6.9,9.2
		c-2.2,2.2-3.5,6.3-3.8,12.2c-0.3-0.7-0.5-1.6-0.7-2.7c-0.2-1.3-0.4-2.2-0.4-2.5c-0.6-1.8-1.9-3.8-4.1-6.2c-2.2-2.5-3.6-4.5-4.2-5.9
		c0.2-0.1,1,0.6,2.4,2c0.3,0.4,1.1,1.2,2.5,2.4c0-0.5-0.3-1.1-0.8-1.6c-0.5-0.7-0.8-1.2-1-1.5c-0.1-0.1-0.2-1.7-0.4-4.8
		c-0.1-1.5-1-3.6-2.5-6.2c0.6,0.3,1.4,0.9,2.4,1.8c1.2,1.2,2,1.9,2.4,2.2c-0.7-1.8-2.2-3.8-4.6-6c-3.1-2.8-4.9-4.7-5.6-5.6
		c0.7,0.1,1.7,0.4,2.9,1c1.5,0.7,2.3,1,2.3,1S84.8,24.4,85.3,24.5z M81,105.6c-2.3-0.8-4-1.6-4.8-2.3c1,5,2.5,7.8,4.6,8.6
		C80.5,110.6,80.6,108.5,81,105.6z M76.5,66.3c-0.3,0.4-0.2,0.8,0.2,1.2c0.4,0.3,0.8,0.3,1.2,0C77.9,66.7,77.4,66.3,76.5,66.3z
		 M88.5,69.5c-1.8-6.9-5.4-9.7-10.9-8.3c1-0.9,3.2-1.6,6.5-2.2c-0.1-1-0.6-2.4-1.6-4.4c2.4,0.7,4.2,2.5,5.4,5.5
		C89,63,89.2,66.1,88.5,69.5z M84.2,120.2c-0.2-2.4-1.4-4.9-3.6-7.4c-0.7,1.8-0.7,3.7,0,5.7C81.3,120.8,82.5,121.3,84.2,120.2z
		 M84.2,105.2c-1.6,1-2.2,3-1.9,6.3c0.4,2.8,1.1,5,2.2,6.6c0.1,0,0.6-0.5,1.5-1.4c0.1,0.5,0.3,1.1,0.8,1.6c5.9-1.9,8.7-2.5,8.3-1.6
		c-0.1,0.9,0.3,1.4,1,1.6c0.1-0.2,0.7-1,2-2.3c1-1,1.5-1.9,1.8-2.7c0.7-3.6,0.2-6.4-1.5-8.5c-0.4,0-0.5,0-0.5,0.1
		c0.3,0.1,0.4,0.3,0.3,0.7c-3.2-0.6-5.2,0.4-5.8,3c-0.2,0.8-0.4,2.1-0.5,3.8c-0.1,1.9-0.2,3.2-0.3,4c-0.1-0.7-0.3-1.7-0.4-3.2
		c-0.1-1.6-0.1-2.7-0.2-3.3c-0.4-2.5-1.5-3.8-3.2-4c-0.4-0.1-0.9,0-1.5,0.1c-0.6,0.1-1.2,0.2-1.8,0.2
		C84.2,106,84.2,105.7,84.2,105.2z M85.3,120.6c0.3-0.3,0.7-0.5,1.2-0.7c-0.2-0.7-0.5-1.2-0.8-1.4C84.9,119.1,84.8,119.8,85.3,120.6
		z M93.3,120.2c0-0.1,0-0.4,0.1-0.7c0.1-0.2,0.1-0.5,0-0.8c-3.5-0.1-5.6-0.1-6.3,0c0.1-0.2,0,0.3-0.3,1.6c0.4,0,0.7-0.1,1.1-0.4
		c0.4-0.3,0.6-0.5,0.8-0.5c0.2,0.1,0.5,0.2,0.8,0.4c0.3,0.2,0.6,0.3,0.9,0.3C91.3,119.4,92.3,119.4,93.3,120.2z M93.4,63l0.7,5.9
		c0.5,2.3,1.6,3.5,3.3,3.7c-0.2,0.4-0.5,0.8-1,1c-0.6,0.3-1,0.5-1.1,0.7c-1.2,1.2-2.1,3.3-2.4,6.4c-0.6,5.3-0.9,8-0.9,7.9
		c-0.1-1.1-0.1-2.7-0.1-4.8c0-2.3,0-4-0.1-4.8c-0.3-3.6-1.6-5.6-4-6C91.1,72.4,93,69.1,93.4,63z M96.7,104.3
		c-4.2-1.5-7.2-1.4-8.9,0.1c0.5,0,2,0,4.5,0C94.2,104.4,95.7,104.4,96.7,104.3z M94,120.5c0.4-0.1,0.9-0.4,1.5-0.7
		c-0.1-0.9-0.4-1.2-0.9-0.9C94.1,119.1,93.9,119.7,94,120.5z M103.6,67.8c1.9-2.1,6.7-3.3,14.3-3.6c0.3,0.1,0.2,0.3-0.2,0.4
		c-0.8,0.2-1.2,0.4-1.2,0.4c-1.1,0.6-1.7,1.1-1.9,1.6c-0.1,0.3-0.1,0.8-0.2,1.6c0,0.7-0.1,1.2-0.2,1.5c-0.6,1.3-1.7,2.7-3.3,4.2
		c-1.5,1.5-2.8,2.3-3.7,2.4c-0.7,0.1-2.1-0.2-4-0.9c-1.5-0.4-2.9-0.3-4,0.3c0.1-0.1-0.8,1.4-3,4.4c0.2-3.3,1.2-5.5,2.9-6.7
		c0.1-0.1,0.4-0.2,0.8-0.3c0.4-0.1,0.7-0.2,0.9-0.3c0.7-0.4,1.2-1.2,1.5-2.4C102.8,69.3,103.2,68.3,103.6,67.8z M101,113.9
		c-0.2,0.2-0.7,0.7-1.4,1.3c-0.6,0.5-1.1,1-1.4,1.4c-1,1.2-1.3,2.5-1.1,4c1.6,0.4,2.7-0.3,3.3-2.1
		C100.5,117.9,100.7,116.4,101,113.9z M102.9,54.6c0.2,0.4,0.1,1-0.3,1.8c-0.5,1-0.8,1.7-0.8,2.1c4.2,0.6,6.6,1.1,6.9,1.5
		c-3.4-0.3-6,0.5-7.8,2.5c-1.2,1.4-2.2,3.8-3.2,7.1c-1-2.6-0.9-5.5,0.3-8.7C99.2,57.9,100.8,55.7,102.9,54.6z M119.8,71.1
		c-0.8,0.7-1.1,1.8-0.8,3.3c0.4,1.8,0.4,3,0.1,3.6c-0.2,0.7-1.1,2.2-2.6,4.5c-1.3,2-2.1,3.6-2.3,4.9c-0.4,0.1-1.1-0.6-2.1-2.1
		c-1.5-2.4-2.6-4-3.3-4.6c-1.8-1.7-3.7-2.2-5.9-1.5c-0.9,0.3-1.8,1.1-2.6,2.3c-1,1.4-1.8,2.3-2.5,2.6c0.2-0.4,0.5-1,1-2
		c0.5-1,0.9-1.8,1.2-2.2c1-1.8,2.2-2.7,3.4-3c1.1-0.1,2.6,0.4,4.5,1.8c1.9,1.2,3.5,1.8,4.7,1.5c2.1-0.3,3.3-1.4,3.8-3.4
		c0.1-0.6,0.1-1.4,0-2.3c-0.1-1-0.1-1.6,0-2c0.1-0.4,0.4-1.1,1-2c0.6-1,1-1.7,1.2-2.2c0.1-0.4,0.2-1.1,0.3-2.1
		c0.1-0.9,0.2-1.5,0.4-2c1.2,0.7,2,2.2,2.4,4.3c0.4,2.1,0.3,4-0.4,5.7c-0.2-0.2-0.4-0.8-0.7-1.8C120.5,71.8,120.2,71.3,119.8,71.1z
		 M105.2,104.4c-0.4,0-1,0.1-2,0.3c-1.2,0.4-1.9,0.6-2.2,0.7c0.4,1.5,0.5,4.1,0.4,7.8C104.3,111.3,105.5,108.4,105.2,104.4z
		 M112.5,65.1c-0.5,1.8-1,3.2-1.5,4.1c-0.7,1.1-2,2.1-3.8,3c-2.5,1-4.1,1.8-4.7,2.3c3.4,0.8,6.2,0.3,8.3-1.5
		c2.1-1.8,3.3-4.3,3.4-7.7C113.8,65,113.3,65,112.5,65.1z M108.7,66.2c-0.1,1.5-0.7,2.6-1.5,3.3c-1,0.9-2.2,0.9-3.5,0.1
		c-0.1,0.3-0.4,1.1-0.7,2.3c4.3-0.1,6.8-1.9,7.5-5.5C110.1,66.2,109.5,66.1,108.7,66.2z M147.6,88.7c8.5,7.3,12.5,18.1,12.1,32.6
		c-0.7-7.1-2.7-12.4-5.8-15.8c2.6,5.7,3.2,12.3,1.6,19.9c-1.5,7.1-4.2,12.5-8.1,16c0.3-0.8,0.8-1.9,1.6-3.3c1-1.8,1.7-3,2-3.6
		c1.4-3.1,1.6-5.9,0.5-8.5c-1.5-0.1-2.5,0.5-3.2,1.8c0,0.1-0.4,1.4-1.1,3.8c-2.8,10-8.6,16.7-17.6,20.1c5.7-3.6,9.4-8.2,11.2-14
		c-1,0.5-2.2,1.4-3.7,2.5c-1.6,1.2-2.9,2.1-3.7,2.6c-2.5,1.5-12.5,4.4-29.9,8.7c9.9-6.2,15.7-9.9,17.5-11.2
		c6.2-4.7,10.5-9.9,13.1-15.5c-5.9,6.5-11.6,10.8-17.4,12.7c-0.1-0.3,0.3-0.9,1.3-1.8c3.7-3.1,5.5-7,5.4-11.6
		c-0.1-2.6-0.8-4.1-2.3-4.4c-1.5-0.2-3.8,1.5-6.8,5.2c-2.6,3.3-4.4,5.4-5.5,6.4c0.1-0.2,0.7-1.7,2-4.4c1-2,1.4-3.8,1.2-5.4
		c-0.1-1.8-1.6-3.3-4.3-4.5c0.4-0.5,0.9-1,1.5-1.3c0.9-0.4,1.4-0.7,1.6-0.9c1.1-1,1.9-2.5,2.5-4.6c1-3.8,1.5-5.7,1.5-5.6
		c0.1,0.4,0.1,1,0,1.9c0,1,0,1.7,0,2c0.1,1.6,0.5,2.6,1.2,3.1c2.8-0.4,5.3-1.7,7.6-3.7c0.7-0.6,1.7-1.5,2.9-2.7
		c1.2-1.3,2.2-2.3,2.7-2.9c-0.1,0.5-0.3,1.3-0.8,2.4c-0.6,1.3-1,2.2-1.1,2.5C137.4,102.7,144.1,96.5,147.6,88.7z M104.1,96.8
		c0.7,0.4,2.1,0,4.4-1.2c3.6-1.9,4.6-3.7,3.1-5.4c-0.5,0.4-1.2,1-2,1.6c-1,0.9-1.6,1.4-2,1.6C105.5,95.3,104.3,96.4,104.1,96.8z
		 M105.5,99.4c2.3-0.7,4-1.9,5.2-3.7c-0.7,0.2-1.7,0.7-2.9,1.3c-1.2,0.7-2.1,1.1-2.7,1.3C105.1,98,105.2,98.3,105.5,99.4z
		 M107.9,66.4c-0.4-0.1-0.7-0.1-1.1,0.1s-0.5,0.5-0.5,1c0.4,0.2,0.8,0.2,1.2,0C107.8,67.3,108,66.9,107.9,66.4z M107.9,106.3
		c0-3,2.2-6.8,6.7-11.3c-1.5,6-2.1,9.6-1.8,10.7c-0.3,0-0.7-0.6-1.3-1.9c-0.2,5.3-1.5,9.2-4,11.6
		C107.7,114.7,107.8,111.7,107.9,106.3z M119.5,31.4c-3.4,0-6.6,3.2-9.6,9.6c1.6-1,2.8-1.6,3.5-1.9c-0.2,0.3-0.6,0.9-1.1,1.9
		c4.2-1.2,6.3-3.5,6.3-6.8c2.6,1.9,4.2,5.3,4.8,10.3c1.8-2.2,2.6-3.2,2.3-3.1c-0.3,3.5-0.4,5.5-0.4,5.9c0.1-0.1,0.4-0.5,0.8-1.2
		c0.4-0.5,0.7-0.9,1-1.1c0.1,1.7-0.8,4-2.9,6.9c0.7-0.1,1.4-0.3,2.1-0.8c0.9-0.7,1.4-1.1,1.6-1.2c-0.4,0.8-0.6,2.3-0.5,4.4
		c2.6-2,3.7-5,3.3-9c-0.3-3.3-1.5-6.4-3.6-9.3C124.7,32.9,122.2,31.4,119.5,31.4z M158.3,90.5c-0.3,0.1-0.8-0.3-1.5-1.1
		c-0.9-1-1.5-1.6-1.8-1.8c3.3,7,5.2,14.9,5.8,23.8c-3.1-13.1-7.5-21.4-13-24.9c1.3-3.3,1.5-6.7,0.5-10.2c0.7,0.8,1.6,1.9,3,3.2
		c1.3,1.4,2.3,2.4,2.9,3.1C156.4,85.1,157.8,87.8,158.3,90.5z"/>
</g>
</svg>
