<?xml version="1.0" encoding="utf-8"?>
<!-- Generator: Adobe Illustrator 21.1.0, SVG Export Plug-In . SVG Version: 6.00 Build 0)  -->
<svg version="1.1" id="Layer_1" xmlns="http://www.w3.org/2000/svg" xmlns:xlink="http://www.w3.org/1999/xlink" x="0px" y="0px"
	 viewBox="0 0 825 825" style="enable-background:new 0 0 825 825;" xml:space="preserve">
<style type="text/css">
	.st0{fill:#FFFFFF;}
</style>
<path d="M436.8,103.3c20.3-2.6,41.6-0.2,60.2,8.8c7.8,3.9,15.7,8.1,21.4,14.8c9.7,10.6,14.8,24.6,25.2,34.6
	c24.2,22.2,57.1,32.1,80.7,55.2c28.2,29.5,43,69.5,48.1,109.5c8,61.3-1,123.8-20.5,182.2c4.8-33.8,7.1-68,5.5-102.1
	c-2.2-44.7-10.8-89.5-29-130.5c-14.2-31.9-36-61.3-65.8-80.4c-10-6.5-20.9-11.8-32.1-15.9c-2.2-6.5-4.2-13.1-8.1-18.9
	c-8.4-14-23-23-38.3-27.6c-36.4-10.6-77.3-5.3-109.4,15.3c11.9,4.2,25,3,36.6,8.2c3.1,5.1,6.9,9.8,9.4,15.2c1.9,4.1,2.1,8.8,2,13.3
	c10.7-0.1,21.6-0.4,31.9,2.8c4,1.1,7.6,3.1,10.8,5.7c0.6,5.1,0.1,10.6-3.2,14.8c-3.9,5-9.5,9.4-10.9,15.9c-0.4,1.3,1,2.1,1.6,3
	c6.1,6.4,16.1,7.3,21.8,14.3c2.3,2.5,1.8,6.1,2.2,9.2c0.1,10.1-1.8,20.2-5.5,29.7c-1.3,2.6,1.6,4.8,3.7,5.6c7.8,3,16.6,0.1,24.2,3.6
	c-0.1,4.4-0.8,8.9-3.1,12.7c-3.1,5.4-8.8,8.5-12.9,13.1c-3.4,3.2-5.8,7.3-7.1,11.8c1.5,6.5,7.2,10.3,12.6,13.3
	c5.3,2.9,8.4,8.9,7.7,14.9c-7.6,8.6-20.3,11.8-25.7,22.5c8.4,10.2,20.9,16.5,28.1,27.8c-0.5,15.2,1.4,30.4,2.7,45.6
	c1.4,10.4,1.6,21.6-3.5,31.1c-2.4,4.9-6.4,8.6-10.4,12.2c9.6-15.7,11.5-34.8,9.7-52.8c-1.9-17.3-6.1-35-16.3-49.4
	c-4.3-5.8-9.4-11.4-16.2-14.2c2.4-0.1,4-1.9,5.7-3.4c6.8-6.4,13.6-12.8,19.8-19.8c-0.3-5.5-4.9-9.8-9.5-12.4
	c-4.1-2.2-8.2-5.1-9.7-9.8c-1.7-7.2,1.3-14.9,6.9-19.6c5.9-5,12.6-10,15.5-17.4c-8.6-4.9-18.7-5.5-28.3-6
	c5.2-13.7,7.2-29.6,1.3-43.4c-3.8-9.2-12.2-15.9-21.6-18.6c-0.4-4.8,0.6-10,3.8-13.7c3.7-4.1,8.3-7.8,10.1-13.2
	c0.9-2.9-1.6-5.3-3.7-6.8c-6.5-4-14.6-3.6-22-3.1c-5.4,0.4-10.9,0.1-16.3,0.2c1.2-9.5-0.1-20.6-7.8-27.2c-8.2-7-19.8-7.8-30.1-7.5
	c-14.9,0.7-30.2,3.3-42.9,11.6c-3.6,2.5-7.3,5.2-9.7,8.9c2.6,0,5.1,1.2,7.6,2c9.9,3.5,19.8,6.8,29.5,10.6c1.1,0.6,3,1,2.8,2.6
	c0.9,6.1,1.6,12.2,2.4,18.2c10.2-1.4,18.6,6.5,28.7,5.7c2.2,9.3,4.3,18.9,2.8,28.4c7.5,4.1,16.3,5.1,23.6,9.8
	c2.8,1.8,5.6,3.9,7.2,6.8c2.4,10.1-0.5,21.4-8.2,28.6c6.7,8.4,13.4,16.9,20,25.4c-2.9,9.3-5.5,19.9-13.9,25.8
	c8.4,4.5,12,14.1,13.2,23c0.7,6.8,1,14.2-2.6,20.3c-1.8,3.4-4.9,5.8-8.2,7.6c4.3,5.7,8.5,11.6,12.7,17.4c2.4,2.9,2,7.1,1.1,10.5
	c-2.2,7.5-9,12.3-12,19.4c-2.6,4.9-2.1,10.7-0.6,15.9c2.2,7.7,4.9,15.2,6.3,23.1c1,4.9-0.6,10.6-4.8,13.6c-4,3.1-9.1,3.9-13.8,4.8
	c4.5-5,6.2-12,4.6-18.5c-3.6-13.1-12.5-25-11.9-39.1c-0.4-8.4,3.8-16.4,10-21.9c-1.1-3.7-3.5-6.9-6.7-9c-3.6-2.4-6.9-5.2-10.7-7.4
	c2.6,0.8,3.4-2.1,4.6-3.8c4.9-9,8.7-18.6,12.7-28c-2.7-11.2-16.5-14.2-19.7-25.1c-0.1-3.7,1.3-7.4,3.5-10.5c3.9-4.9,9.2-8.6,13.6-13
	c-6-12.5-21.6-15.4-28.6-27.1c-2.4,74.5-6.7,149-11.2,223.4c-4.3-7.9-3.4-17.1-3.3-25.8c0-6.6,0.9-13.2,0.4-19.8
	c-11.2,0.2-22,3.4-33,5c-11.2,0.9-22.3-2.8-32.2-8c-1-14.4-1.7-28.8-3.5-43.2c-2-13.2-6-27.2-16.4-36.3c9.2-7.6,14.3-19.2,15.2-30.9
	c1.4-16.5-3.6-33.2-11.9-47.4c-0.9-1.8-3.5-1.5-5.1-0.8c-4.4,2.2-6.3,7.1-8.7,11.2c-2.3,4-4.4,8.4-8,11.3c-3.9,1.3-8-1.4-10.6-4.2
	c-6.3-7.3-9.4-16.7-12.3-25.8c-4.6-16.2-6.8-34.3-0.2-50.3c5.9-14.6,16.1-27,27.2-38c-5.1-3.5-7.2-10.4-13.8-11.8
	c29.6-26.3,60.8-51,95.3-70.5C383.4,117.9,409.3,106.8,436.8,103.3z"/>
<path class="st0" d="M298.2,201.9c3.1-1.4,6.3-2.3,9.7-2.7c12.8-1,25.5,0.5,38.1,2.8c-2.1,6.2-4.8,12.4-5.5,19
	c0.3,3.2,3.1,5.5,5.9,6.8c5,2.2,10.6,2.3,15.9,2.5c6,0.5,12.1,0.8,17.9,2.5c0.7,7.4-8.9,9.3-9.2,16.5c0.7,4.2,1.3,8.9,4.5,12
	c4.4,4.2,10.7,5.2,16.6,5.2c6.5,0.6,13,0.3,19.5,0.4c-2.9,7-11.4,8.1-15.5,13.9c-1.3,1.7-1.5,3.9-1.9,5.9
	c-19.5-16.5-38.6-33.4-57.3-50.7C324.1,224.6,311.4,213,298.2,201.9z"/>
<path class="st0" d="M318.1,286c11.2,3.6,22.7,5.6,34,8.7c6.9,2,14,4.6,19.5,9.4C352.4,304.5,333.8,296.6,318.1,286z"/>
<path d="M157.8,345.7c2-2.2,4.5-3.7,7.1-5.1c5.2,4.3,7.4,10.9,8.8,17.3c3.1,15.5,1.7,31.8,6.6,47c0.5,1.3,1.2,2.5,1.9,3.7
	c3.6-14.1-1.4-28.4-2.4-42.6c-0.5-7.6-0.8-15.6,2.2-22.8c7.9,5,12.2,13.9,13.5,22.9c1.6,10.9,2.8,21.8,4.1,32.7
	c7,23.5,22.8,43.1,30.9,66.1c3.8-14.1,1.2-29.3,6.4-43.1c2.7-7.5,11-11.9,18.7-10.5c1.3,9.8,0.8,19.8,0.6,29.7
	c-1.6,23.6-5.3,47-9.5,70.2c-3.1,16.7-4.5,33.8-3,50.7c1.4,13.6,4.9,27.2,11.9,39c5.7-9.2,6.8-20.6,5.3-31.1
	c-0.5-4.4-2.4-8.5-5.5-11.6c8.5,4.1,14.3,12.5,16.1,21.7c3.6,17.1,0.9,34.9-3.4,51.7c-5.2,18.5-12.9,36.5-24,52.2
	c-7.3,10.3-16.7,19.6-28.6,24.3c-6.6,2.6-14.3,2.7-20.8-0.5c-6.3-2.8-11.2-7.8-15.7-12.9c8.9-0.4,17.9-2.6,25.4-7.5
	c13-8.1,21.1-21.5,31.3-32.6c-1.9,0.5-3.7,1.2-5.1,2.6c-6.8,5.8-11.3,13.8-17.2,20.4c-9-17.7-13.1-37.4-16.2-56.8
	c-3.2-23.1-5.9-46.6-14.2-68.6c-5.4-13.9-19.2-21.7-27-34.1c-10.7-19.5-16.7-41.3-19.9-63.3c-3.3-23.7-3.8-47.8-2.3-71.6
	C146.1,374,147.6,356.9,157.8,345.7z"/>
</svg>
