<?xml version="1.0" encoding="utf-8"?>
<!-- Generator: Adobe Illustrator 21.1.0, SVG Export Plug-In . SVG Version: 6.00 Build 0)  -->
<svg version="1.1" id="Layer_1" xmlns="http://www.w3.org/2000/svg" xmlns:xlink="http://www.w3.org/1999/xlink" x="0px" y="0px"
	 viewBox="0 0 7.2 7.2" style="enable-background:new 0 0 7.2 7.2;" xml:space="preserve">
<style type="text/css">
	.st0{fill:#FFFFFF;}
</style>
<g>
	<g>
		<path class="st0" d="M0,7.2C0,4.8,0,2.4,0,0c2.4,0,4.8,0,7.2,0c0,2.4,0,4.8,0,7.2C4.8,7.2,2.4,7.2,0,7.2z M5.9,0.9
			C5.9,0.9,5.9,0.9,5.9,0.9c-0.1,0.4-0.2,0.7-0.2,1c0,0.3-0.1,0.4-0.4,0.5c0,0,0,0-0.1,0C5.2,2.4,5.1,2.5,5.1,2.5
			C5,2.9,4.9,3.2,4.7,3.5c0,0.1,0,0.1,0,0.2C4.8,3.9,4.9,4.1,5,4.3c0,0.1,0.1,0.1,0.1,0.2C5.1,4.8,5,4.9,4.8,5
			C4.6,5,4.5,5.1,4.3,5.1C4.1,5.2,4,5.3,4,5.5c0,0.1,0,0.1-0.1,0.2C3.4,5.8,3,5.9,2.6,6C2.4,6,2.4,6.1,2.4,6.2
			c0,0.1,0.1,0.1,0.1,0.1c1.2,0,2.4,0,3.6,0c0,0,0,0,0,0c0.2,0,0.2-0.1,0.2-0.2c0-0.1,0-0.1,0-0.2c0-1.2,0-2.4,0-3.6
			c0-0.4,0-0.8,0-1.2C6.4,1,6.4,1,6.3,1C6.2,0.9,6.1,0.9,5.9,0.9z M3,2.8c0,0.1,0.1,0.1,0.1,0.1C3.2,3,3.3,3.1,3.4,3.1
			C3.7,3.2,4,3.3,4.3,3.4c0.2,0,0.3-0.1,0.3-0.3c0-0.1-0.1-0.2-0.2-0.2C4.1,2.8,3.9,2.8,3.7,2.7c-0.1,0-0.2-0.1-0.2-0.1
			C3.4,2.4,3.2,2.2,3.1,2c-0.3-0.3-0.7-0.3-1,0.1c-0.2,0.3-0.4,0.7-0.6,1C1.4,3.2,1.4,3.4,1.4,3.5c0,0.3,0,0.7,0,1
			c0,0.3,0,0.5-0.1,0.7C1.1,5.4,1,5.7,0.9,5.9C0.9,6.1,0.9,6.3,1,6.3c0.2,0.1,0.4,0.1,0.5-0.1C1.7,5.9,1.8,5.5,2,5.1
			C2,5,2,4.9,2,4.8c0-0.2,0-0.4,0-0.6c0,0,0-0.1,0-0.1c0,0,0,0,0,0c0.2,0.1,0.4,0.2,0.6,0.3c0.1,0,0.1,0.1,0.2,0.2
			C2.9,4.8,3,5.1,3,5.3c0,0.1,0.1,0.2,0.3,0.2c0.2,0,0.4-0.2,0.4-0.4c0-0.3-0.1-0.5-0.1-0.8c0-0.3-0.2-0.5-0.4-0.5
			C2.9,3.8,2.7,3.7,2.6,3.6C2.7,3.3,2.9,3,3,2.8z M1.2,3.1C1.3,3.1,1.3,3,1.4,2.9c0.2-0.3,0.4-0.6,0.6-1c0.2-0.3,0.2-0.3-0.1-0.5
			c0,0,0,0,0,0c-0.1,0-0.2,0-0.2,0.1C1.5,1.6,1.4,1.7,1.4,1.8C1.2,2.1,1,2.4,0.9,2.7C0.8,2.8,0.8,2.9,0.9,3C1,3,1.1,3.1,1.2,3.1z
			 M3,0.8C2.7,0.8,2.5,1,2.5,1.2c0,0.3,0.2,0.5,0.5,0.5c0.3,0,0.5-0.2,0.5-0.5C3.5,1,3.2,0.8,3,0.8z"/>
		<path d="M5.9,0.9c0.1,0,0.3,0.1,0.4,0.1C6.4,1,6.4,1,6.4,1.1c0,0.4,0,0.8,0,1.2c0,1.2,0,2.4,0,3.6c0,0.1,0,0.1,0,0.2
			c0,0.2-0.1,0.2-0.2,0.2c0,0,0,0,0,0c-1.2,0-2.4,0-3.6,0c-0.1,0-0.1,0-0.1-0.1c0-0.1,0-0.2,0.1-0.2C3,5.9,3.4,5.8,3.8,5.7
			C3.9,5.7,4,5.6,4,5.5c0-0.2,0.1-0.3,0.3-0.4C4.5,5.1,4.6,5,4.8,5C5,4.9,5.1,4.8,5.1,4.5c0-0.1,0-0.2-0.1-0.2
			C4.9,4.1,4.8,3.9,4.7,3.7c0-0.1,0-0.1,0-0.2c0.1-0.3,0.2-0.7,0.4-1c0-0.1,0.1-0.1,0.2-0.2c0,0,0,0,0.1,0c0.3-0.1,0.4-0.2,0.4-0.5
			C5.8,1.5,5.8,1.3,5.9,0.9C5.9,0.9,5.9,0.9,5.9,0.9z"/>
		<path d="M3,2.8C2.9,3,2.7,3.3,2.6,3.6c0.2,0.1,0.4,0.2,0.5,0.2c0.3,0.1,0.4,0.3,0.4,0.5c0,0.3,0.1,0.5,0.1,0.8
			c0,0.3-0.1,0.5-0.4,0.4C3.2,5.5,3.1,5.5,3,5.3c0-0.2-0.1-0.5-0.1-0.7c0-0.1-0.1-0.2-0.2-0.2C2.5,4.3,2.3,4.2,2.1,4.1c0,0,0,0,0,0
			c0,0,0,0.1,0,0.1c0,0.2,0,0.4,0,0.6C2,4.9,2,5,2,5.1C1.8,5.5,1.7,5.9,1.5,6.2C1.4,6.4,1.2,6.5,1,6.3C0.9,6.3,0.9,6.1,0.9,5.9
			C1,5.7,1.1,5.4,1.3,5.2C1.4,5,1.4,4.7,1.4,4.5c0-0.3,0-0.7,0-1c0-0.1,0-0.2,0.1-0.4c0.2-0.4,0.4-0.7,0.6-1c0.2-0.4,0.7-0.4,1-0.1
			c0.2,0.2,0.3,0.4,0.5,0.6c0.1,0.1,0.1,0.1,0.2,0.1c0.2,0.1,0.4,0.1,0.6,0.2c0.1,0,0.2,0.1,0.2,0.2c0,0.2-0.1,0.3-0.3,0.3
			C4,3.3,3.7,3.2,3.4,3.1C3.3,3.1,3.2,3,3.2,2.9C3.1,2.9,3.1,2.8,3,2.8z"/>
		<path d="M1.2,3.1C1.1,3.1,1,3,0.9,3C0.8,2.9,0.8,2.8,0.9,2.7C1,2.4,1.2,2.1,1.4,1.8c0-0.1,0.1-0.2,0.2-0.3
			c0.1-0.1,0.1-0.1,0.2-0.1c0,0,0,0,0,0C2.1,1.6,2.1,1.7,1.9,2c-0.2,0.3-0.4,0.6-0.6,1C1.3,3,1.3,3.1,1.2,3.1z"/>
		
			<ellipse transform="matrix(0.9999 -1.016580e-02 1.016580e-02 0.9999 -1.246174e-02 3.032517e-02)" cx="3" cy="1.2" rx="0.5" ry="0.5"/>
	</g>
</g>
</svg>
