<?xml version="1.0" encoding="utf-8"?>
<!-- Generator: Adobe Illustrator 21.1.0, SVG Export Plug-In . SVG Version: 6.00 Build 0)  -->
<svg version="1.1" id="Layer_1" xmlns="http://www.w3.org/2000/svg" xmlns:xlink="http://www.w3.org/1999/xlink" x="0px" y="0px"
	 viewBox="0 0 825 825" style="enable-background:new 0 0 825 825;" xml:space="preserve">
<style type="text/css">
	.st0{fill:#FFFFFF;}
</style>
<path d="M300.2,88.2c3.8-3.1,7.6-6.8,12.6-7.6c0.8,5.1,1.5,10.2,2.2,15.3c1.2,10.6-2.7,21.2-9.1,29.5c1.1,0,3.3,0.1,4.4,0.1
	c7.9-7.5,17.3-13.9,28.1-16.5c5.4,1,10.9,2.3,15.8,5c1.8,0.8,2.7,2.6,3.6,4.2c-7.8,7-17.2,13.2-27.9,14.2c-6,0.8-11.5-2.4-17-4.5
	c-4.4,2.1-8.9,4.1-13.8,4.8c0,0.5,0,1.6,0,2.1c8.8,0.1,17.8,2.3,25,7.5c6.5,4.7,11.3,11.3,14.7,18.4c-8.1,3.7-17.5,5.9-26.2,3.7
	c-12.3-4.4-21.4-14.3-30.7-23c-5.8,2.1-11,5.4-16.4,8.3c-4.1,2.3-8.2,4.7-11.3,8.3c4.4-0.4,8.6-2,12.9-2.2
	c12.7,2.1,23.5,9.9,32.2,18.9c-0.9,1.5-1.7,3.2-3.4,4c-5.7,3.1-12.3,4-18.6,4.9c-6.5,1.2-13-1.3-18.6-4.2c-7.1-3.4-13-8.6-19.7-12.4
	c-8.9,6.6-16.9,14.6-26.9,19.7c0.2,0.5,0.5,1.6,0.6,2.1c6.5-1.8,12.9-6,20-4.7c8.2,2.1,16.6,4.1,24.1,8.3c2.3,1.4,5.3,3.6,4.7,6.7
	c-0.9,3.5-4.5,5.2-7.4,6.8c-5.8,2.7-12,4.8-18.2,6.4c-12.6-3.6-25-7.8-37.6-11.6c-6.2,7.9-12.7,15.6-18.8,23.6
	c4.5-0.9,8.2-4.2,12.8-4.7c10.6-0.9,21.5-0.2,31.4,3.7c2.4,0.9,4.2,2.7,5.3,4.9c-6,9.4-16.3,16.1-27.6,16.7
	c-11.6,0.5-23.8-1.1-34.1-6.9c-4.8,9.2-9.8,18.3-14.1,27.7c6.1-3.9,12.3-8.4,19.7-9.1c8.6-0.1,17.5-0.4,25.7,2.4
	c2.1,0.6,3.5,2.3,4.6,4.1c-7.2,10.7-17.8,19.6-30.6,22.5c-4.8,0.9-10,2.5-14.7,0.4c-3.7-1.6-7.9-1.1-11.9-1.2
	c-7.3,6.3-11.5,15.7-11.7,25.4c5.4-4.4,11.3-8.4,18.1-10.2c7.3-2.2,15.1-1.2,22.6-1.4c3-0.3,6.1,1.3,7,4.3
	c-3.2,8.1-8.3,15.5-15.6,20.4c-12,8.3-27,10.5-41.3,10.4c-0.5,10.2-1.9,20.4-4.9,30.2c0.6,0.1,1.7,0.3,2.2,0.3
	c0.4-5.1,3.3-9.6,7.5-12.5c8-5.6,17.7-8,27.2-10.1c3.3-0.8,6.7-1.3,10.1-1.2c0.2,5.7,0,11.6-2.7,16.7c-4.7,9.5-14,15.5-23.2,19.9
	c-7.4,3.5-15.3,6-23.3,8.2c0,10.3,0,20.6,0,30.9c0.8,0,1.6,0,2.3,0c-0.1-6,2.3-12,6.6-16.3c6.8-7.1,16.3-10.9,25.5-13.9
	c3.2-1.2,6.7-0.8,10.1-0.9c0.5,10.4-2.3,21.1-8.9,29.2c-7.8,9.9-19.2,16-30.8,20.5c-0.8,1.6-1.6,3.1-2.3,4.8
	c0.4,5.6,1.1,11.3,3,16.6c0.6,2,2.2,3.5,3.7,4.9c0.1-7.4,3.3-14.4,8.4-19.6c5.6-5.8,12.5-10.2,19.7-13.7c3.2-0.3,6.4-0.1,9.6-0.1
	c0.6,12.5-1.5,25.7-8.9,36.1c-6.3,9.3-15.9,15.7-26.1,20.2c3.4,9.1,7.3,18.1,9.4,27.7c0.6,0,1.7,0,2.2,0c-0.2-12,3.8-24.4,12.4-33
	c4.6-4.8,10.2-8.6,16.1-11.5c1.8,0.9,4.5,1.9,4.2,4.4c0.1,7.1,0,14.1,0.1,21.2c0.1,9-4.9,17-10.5,23.6c-4.5,5.3-9.8,9.9-15.2,14.3
	c3.4,7.7,7.2,15.6,13.9,21c0.1-11.6,2.3-23.6,9.2-33.2c3.2-4.6,7.5-8.2,12.2-11.3c1.3,0,2.7,0.1,4,0.3c2.5,2,3.3,5.3,4.3,8.2
	c1.9,7.1,3,14.5,3.6,21.8c-3.5,13.2-10.7,25.1-19.3,35.7c0.1,0.4,0.1,1.1,0.2,1.5c5.2,6,11.6,11.2,14.8,18.6
	c0.5,0.2,1.4,0.7,1.9,0.9c-1-6.9-3.5-13.8-2.1-20.8c0.9-12,7.8-22.6,15.9-31.1c1.7,0,3.3,0,5,0c3.3,7.8,6.9,15.6,9.1,23.8
	c0.5,5.7,0.4,11.4-0.2,17.1c-1.8,10.4-6.3,20-11.1,29.3c6.1,4.6,12.2,9.2,18.4,13.8c-2-5.2-3.8-10.5-4.4-16.1
	c-0.8-13.7,3.5-28.2,14-37.5c9,9.4,17.3,20.7,18.6,34.1c0.1,7.2,0.7,14.7-1.4,21.8c-1.3,5.1-3.3,10.1-5.3,15
	c7.1,3.9,14,8.1,21.3,11.6c-1.2-4-4.1-7.1-5.7-10.9c-3-6.5-5.1-14-3.5-21.1c1.5-7.4,2.9-14.8,4.1-22.3c2.4,0.1,5-0.4,7.4,0.4
	c10.6,6.3,18.5,17.1,21.3,29.2c2.6,9.6,1.3,19.6,1.6,29.4c0.4,2.6-1,4.9-2.1,7.2c8.3,3.4,16.5,7.3,25.2,9.4c-3.4-3.3-7-6.4-9.6-10.5
	c-6.6-9.9-8.6-22.1-8.9-33.8c1-4.6,2.2-10.1,6.6-12.7c12.9,6.3,24.2,16.3,30.6,29.3c5.5,10.7,7.3,22.8,7.5,34.7
	c7.1-0.1,14.2,1.5,21,3.3c13.8,3.8,27,9.4,40.1,15.2c20-9.8,41.7-15.2,63.1-20.9c2.1-16.6,4.5-34,13.9-48.2
	c5.1-8,14.1-13.2,23.6-13.2c2.3,4.4,5.5,9,4.6,14.1c-1.6,11.7-2.9,23.9-9,34.2c-2.1,3.9-6.3,5.9-10.4,6.8c0.9,2.4,3.4,1.5,5,0.8
	c7.1-2.9,14.3-5.8,21.5-8.6c-3.4-13.3-3.2-27.5,0.9-40.6c3.9-12.3,13.3-22.4,24.9-27.8c3.9,9,5.8,18.6,7,28.3c-1,7.6-2.9,15-6,22
	c-1,2.4-2.6,4.6-2.8,7.2c5.2-6.3,13.1-9.3,20.4-12.5c-5.1-11.1-6.6-23.5-6.9-35.7c0-2-0.2-4,0.4-5.9c4-11.4,10.9-21.9,20.6-29.3
	c8.5,11.5,12,26.1,11.6,40.2c-0.7,4.6-2.9,8.9-4.4,13.3c5.9-5.3,11.4-11.5,19-14.2c-1.7-3.6-4.4-6.5-6.1-10.1
	c-5.2-10.2-6.5-21.8-6.1-33.1c0.9-9.4,5.2-18,9.2-26.4c1.7,0,3.3,0,5,0c9.1,9.5,16.1,21.9,16.3,35.4c0.3,5.4-1.6,10.6-2.2,15.9
	c6.8-6.6,14.4-13.3,16.9-22.8c-8.8-8.9-17-19.6-19-32.2c-1-5.5,0.4-10.9,1.5-16.3c1.2-5.3,2.4-11,6.5-15c1.9,0.2,4-0.2,5.6,1.1
	c9.3,5.8,15,16,17.3,26.6c1.7,6.5,1.8,13.2,2.1,19.8c0.5-0.2,1.4-0.8,1.8-1c2.7-8.2,7.3-15.7,12-22.9c-9.7-7.2-18.9-15.9-23.4-27.4
	c-3.6-9.1-2-19.1-2.4-28.7c-0.3-2.9,0.6-7.2,4.3-7.2c5.9,2.2,11.2,6.2,15.7,10.5c9.2,8.9,13.1,21.9,13,34.4c3-3.2,4.5-7.5,6-11.5
	c1.9-5.6,3.8-11.2,5.5-16.9c-9.5-4.3-18.7-10.2-24.8-18.9c-7.9-10.7-10.6-24.3-10.1-37.4c3.3,0.2,6.8-0.5,10.1,0.4
	c7.7,3.8,15,8.9,20.5,15.6c4.3,5.3,6.9,12.1,6.7,19c0.6,0,1.8,0,2.4,0c2.5-9.1,4.5-18.4,4.7-27.9c-12.8-4-25.7-10.1-33.9-21.1
	c-6.3-8.1-8.8-18.6-8.3-28.8c8.2,0.9,16.3,3.1,23.8,6.4c7.2,3.2,14,8.5,16.9,16c1.4,3.2,0.7,7,2.8,10c0.7-1.5,1-3.1,0.9-4.7
	c0-8.5,0-17.1,0-25.6c-10.2-6.1-21.7-9.2-32.6-13.6c-8.5-8-16-18.4-16.7-30.5c2.8-1.1,5.8-3,8.9-1.9c10,2.4,20.4,5,28.9,11.1
	c4,2.8,6.9,7.1,7.1,12.1c0.6,0,1.7-0.1,2.3-0.1c-0.2-10-1-21.9-9.5-28.6c-5.5-4.6-13-3.3-19.4-5.6c-9.6-3.1-19.5-7-26.5-14.6
	c-3.7-3.9-5.4-9.1-5.8-14.3c1.7-0.8,3.3-1.7,5-2.3c11.3-0.7,23.1,0,33.5,4.8c4.6,2.1,8.6,6.4,8.6,11.7c0.8,0,1.7-0.1,2.5-0.1
	c-0.6-3.5-2.8-6.5-4-9.8c-2.6-6.6-4.3-13.6-5.7-20.5c-5.7,0.2-11.6-0.8-17,1.5c-4.1,1.6-8.5,0.3-12.6-0.3
	c-13.3-2.6-24.6-11.6-32-22.7c1-2,2.7-3.7,5-4.3c7.4-2.4,15.2-2.3,22.9-2.2c8.5-0.4,15.7,4.8,22.4,9.4c-0.4-1.7-0.8-3.3-1.7-4.8
	c-4.2-7.7-8.4-15.5-12.7-23.2c-9.7,5.5-21.1,7.1-32,7c-11.7-0.1-23-6.4-29.2-16.3c-0.9-1.3,0.8-2.6,1.6-3.4c3.8-3,8.8-3.9,13.5-4.9
	c5.8-1.3,11.8-1.3,17.7-1c5.6,1.2,11.1,3.1,16.7,4.4c-4.8-9.2-12.5-16.6-20.8-22.7c-1.2-1.1-3-0.6-4.2,0.2
	c-8.5,4.9-17.6,9.4-27.4,10.8c-5.4,0.9-10.4-1.8-15.4-3.2c-5.6-2.2-12.2-4.3-14.9-10.2c7.9-7.9,18.2-13.8,29.4-14.8
	c5.4-0.6,10.5,1.6,15.8,2.1c-3.9-5.3-9.2-9.2-14.4-13.2c-2.7-2-5.3-4.3-8.3-5.7c-10.7,7.3-21.5,16.4-35,17
	c-7.6-0.5-14.9-2.7-22.2-4.9c-0.3-4-0.2-8.5,3.4-11c8.4-6.7,19.1-9.4,29.2-12.4c3,1.4,6.2,2.2,9.5,2.4c-8.8-7.4-18.4-15.2-30.2-16.6
	c-7.7,10.7-18.1,20.7-31.5,23.1c-7.8,1.7-16.1,0.2-22.7-4.1c4.6-8.9,11.2-17.1,20.3-21.5c6-3.1,12.8-4.2,19.5-4.4c0-0.5,0-1.5,0-2
	c-4.9-0.8-9.4-2.7-13.9-4.8c-6.6,3.2-14,4.9-21.3,4.4c-7.8-3.9-15.2-8.6-23.3-11.7c0-2.2,0-4.5,0-6.8c6.4-1.1,12.7-2.9,18.9-5
	c10.7,2.8,20.2,9.1,28.1,16.6c1.1,0,3.2,0,4.3,0c-3.3-4.7-6.2-9.7-7.8-15.2c-2.2-7.2-1.5-14.8-1.5-22.2c-0.3-2.8,2.4-4.6,4.9-4.7
	c6.7-1.3,12.6,3.7,15.6,9.2c5.6,9.9,8.1,21.2,9.9,32.3c-0.9,3.2-2.1,6.2-2.4,9.6c10.9,3.2,20.2,9.8,30.2,14.9
	c-1.7-4.2-4.8-7.8-6.4-12.1c-1.7-3.7-2.3-7.6-2.7-11.6c1.3-8,3.1-15.9,4.8-23.8c1.6,0,3.1,0,4.7-0.1c10,6.2,16.7,17.1,18.1,28.8
	c2.1,10.1-1.7,19.9-3.9,29.6c9.5,3.6,17.3,10.4,25.3,16.4c-2-9.7-3.7-20.1-0.5-29.7c1.5-4.8,3-10,6.8-13.3c2.7-2.2,6.6-0.9,8.4,1.7
	c4.8,6.3,6.3,14.3,8.2,21.8c1.2,3.8,0.3,7.8-0.4,11.6c-1.7,8.4-3.8,16.7-5.8,25.1c7.1,6.1,14.1,12.3,21.2,18.4
	c-0.7-3.8-1.4-7.6-2.3-11.4c2.6-8.2,5.3-16.6,9.9-24c2-3,4.5-6.3,8.3-6.9c2.5-0.4,4,2.2,4.9,4.1c2.9,7.1,4.1,14.8,5.2,22.4
	c-0.1,10.9-4.6,21.3-10.3,30.3c-0.9,1.4-2,3.1-1,4.7c5,8.3,11.2,16.2,14,25.6c0.5,0,1.4,0,1.9-0.1c0-11.6,3.2-23.4,10.7-32.5
	c3.1-3.8,6.9-7.1,10.9-10c2.2,0.9,4.1,2.5,4.9,4.7c2.9,6.7,3.5,14.1,4.1,21.2c-3.5,13.5-12.1,24.9-21,35.3
	c3.8,9.7,6.5,20.2,13.6,28.1c0.7-6,1.6-12.1,4.7-17.4c5.3-9.3,14.4-15.7,23.8-20.3c1.6,2.4,3.2,4.9,4.9,7.3
	c0.1,7.8,0.3,15.8-2.8,23.1c-4.7,12.1-14.9,21.1-25.4,28.2c2.1,9.1,4.3,18.3,4.6,27.7c5.9-9.8,13.6-19,24.1-23.9
	c5.6-2.6,11.8-3.9,18-3.9c0,13-3.8,26.5-13,36c-6.6,7.2-15.4,12.1-24.5,15.6c-0.6,9.4,0.9,18.6,2.3,27.8c0.5,0,1.6,0,2.1,0
	c0.4-5.2,3.7-9.6,8-12.3c9.6-6.3,21-8.6,32-11c0.6,9.2-1.3,18.7-6.8,26.2c-9.1,12.6-23.4,20.1-37.5,25.8c-1,7.7-2,15.4-2.3,23.1
	c10.7-11.5,26.7-16.4,42-16.1c2.7-0.2,5.4,2.5,4.4,5.2c-4.2,12.3-12.1,23.7-23.7,30c-9.1,5.2-19.7,6.6-30,7.1
	c-1.3,8.6-4.3,16.8-6.9,25c4.9-4.1,9.8-8.5,15.9-10.4c3.2-1.2,6.8-0.7,10.1-0.8c7,0.1,14-0.1,21,0.1c2.4,0,4.8,2.4,4.1,4.8
	c-5.5,10.4-14,19.4-24.6,24.6c-11.1,5.7-23.8,6.1-36,5.7c-3.9,7.2-8,14.2-11.8,21.4c3.2-0.7,5.9-2.7,9-3.7c4.5-1.9,9.5-1.1,14.3-1.3
	c7.5,0.1,15.6-0.8,22.5,2.9c2.6,1.3,4.3,3.7,5.8,6.1c-8,11.2-20.3,20.5-34.5,21.2c-11.1,0.2-22.2-1.2-33.2-2.2
	c-3.3,6.5-8.4,11.7-13,17.3c-0.9,1-1.4,2.3-1.9,3.5c7.8-3.2,16.3-5.7,24.7-3.8c9.6,2.3,18.6,6.6,27.3,11.1c-0.2,2.2-0.5,4.5-2,6.3
	c-4.8,6.1-12.2,9.3-19.3,12c-4.3,1.3-8.6,3.7-13.2,2.5c-13-2.4-25.7-5.7-38.5-8.9c-5.1,6.5-10.1,14.5-18.6,16.6c0,0.5,0.1,1.5,0.1,2
	c8-2,16.3-3.2,24.5-1.7c11.2,2.9,20.2,11,28.1,19.1c1.2,1,1.5,2.5,2,4c-8.1,3.5-16.4,6.8-25,8.8c-6.1,1.5-12.5,0.5-18.4-1.1
	c-10.8-3-20.7-8.5-30.1-14.5c-6.5,4.2-14,7.6-18.9,13.8c18.4-0.1,34.4,11.7,44.9,26c0,1.6,0,3.1,0,4.7c-9.4,3-19.1,5.5-29.1,4.6
	c-16.7-0.2-30.9-11.2-41.3-23.3c-7.5,3.8-15,8.2-23.5,9.4c0,0.5,0,1.6,0,2.1c9.9,0,19.3,4.7,26.4,11.5c6.6,6.2,11.6,13.8,16.1,21.5
	c-1.6,4.6-6.5,6.2-10.9,6.6c-10.8,1.2-21.8-1.3-31.2-6.7c-11.3-6.3-20.4-15.7-28.4-25.8c-3.7,0.2-7.2,1.1-10.8,1.9
	c-11.3,2.6-22.7,5.2-33.6,9.1c-4.4,1.7-9.1,3.4-12,7.3c7.6,1,14.1,5.3,20,9.9c7.3,5.8,14.1,12.2,20.6,18.9
	c-2.4,4.5-6.8,8.4-11.9,9.2c-14.1-11-28.3-22-42.4-33c-17.3,8.5-33,20-47.3,32.9c-5.9,0.7-8.9-5.3-11.7-9.4
	c6.8-7.1,14-13.8,21.8-19.8c5.3-3.9,11.1-7.6,17.7-8.6c-17.5-10.6-37.4-18.6-58.1-18.4c-8.2,14.3-21.4,26.2-37.6,30.3
	c-8.6,2-18.1,4-26.5,0.2c-2-0.7-3.3-2.6-4.1-4.4c5.6-10.7,12.8-21.1,23.1-27.6c5.8-3.6,12.5-5.6,19.4-5.7c0-0.5,0-1.6,0-2.2
	c-8.6-0.7-16-5.4-23.5-9.3c-7.8,9.3-17.5,17.6-29.2,21.3c-8.1,2.6-16.8,2.1-25.2,1.7c-6.2-0.4-13.6-2.5-16-9
	c8-10.6,18.5-20.1,31.5-24c4.4-1.4,9-1.7,13.5-2.1c-5.1-6.1-12.4-9.6-19.1-13.8c-12,7.9-25.2,15.2-39.8,16.3
	c-12.5,0.9-25.6-3.9-33.4-14c12.1-10.3,26.7-20.2,43.3-19.1c4-0.3,7.4,1.8,11.2,2.6c0-0.6,0.1-1.8,0.1-2.4
	c-7.8-5.5-15.7-10.9-23.4-16.5c-10.1,4.8-21.2,6.9-32.1,9c-14.5,1.3-28-7.5-36.6-18.7c1.1-4.2,5.5-6,9.2-7.5
	c8.5-3.1,17.6-4.7,26.5-6.2c6-1,11.4,2.6,16.9,4.3c-0.4-1.2-0.7-2.5-1.6-3.4c-4.8-5.6-10.2-10.9-13.6-17.5
	c-5.7,0.9-11.4,0.9-17.1,1.6c-8.9,0.6-18.3,1.7-26.9-1.4c-9.9-3.4-17.9-10.7-23.8-19.2c0.9-3,3.1-5.3,6.1-6.3
	c9.2-3.3,19.2-2.6,28.9-2.7c5.7,1,11.1,3,16.7,4.5c-4.1-7.7-8.6-15.3-11.8-23.4c-8.1,0-16.3,0-24.4,0c-8.8-0.3-16.5-5.3-22.7-11.2
	c-5.2-5.1-9.6-11-13.7-17.1c1-2.1,2.2-4.8,5-4.5c12.5,0.4,25.5-1.6,37.4,2.9c4,1.3,6.8,4.9,7.2,9.1c0.5,0,1.6-0.2,2.1-0.2
	c0-0.5,0-1.4,0-1.9c-4.6-8-6-17.3-7.1-26.4c-4,0-8.1,0.3-12-0.7c-11.7-2.5-23.7-6.3-32.6-14.5c-6.1-5.6-9.3-13.8-9.3-22
	c1.8-0.8,3.4-1.9,5.3-2.3c11.4,0,23.3,2.2,32.9,8.6c3.4,2.2,6.3,5,9.2,7.8c-1.8-8.5-2.8-17.1-3-25.7c-13.9-4-28.2-10.2-37.2-22.2
	c-5.9-7.8-7.6-17.9-7.1-27.5c10.7,2.2,21.7,4.6,31.2,10.4c4.6,2.8,8.7,7.3,8.8,13c0.6,0,1.6,0,2.2,0c0.8-9.3,1.7-18.6,2.3-27.9
	c-12-5.4-24.3-12.2-31.3-23.8c-5.5-9.1-3.4-20.1-3.6-30.1c3.9,0.1,7.5,1.9,11,3.5c10.9,5.2,20.3,13.5,26.1,24.2
	c0.6,1.8,0.3,3.8,0.5,5.6c0.5-0.2,1.5-0.7,2-0.9c1.8-10.6,2.4-21.5,2.2-32.3c-10.8-6.3-19.9-16.1-23.3-28.3
	c-2.1-7.8-3.7-16.6,0-24.2c0.7-1.9,2.6-3,4.2-4.1c9.5,5.6,18.6,13,23.2,23.2c2.3,4.7,3,9.9,3.4,15.1c2.3-1.7,4.1-4,5.3-6.5
	c3.6-7.6,6-15.8,8.3-23.9c-4.3-1.1-7.4-4.5-9.5-8.2c-5.4-9.2-8.6-19.5-11.5-29.7c1.9-7.2,3.8-14.4,7.1-21.1c8,4,15,10.3,18.8,18.5
	c3.6,7.4,4.6,15.7,4.7,23.8c0.5,0,1.4,0.1,1.9,0.2c3.2-10.6,10.5-19.2,16.6-28.2c-3.6-4.2-7.1-8.6-9.5-13.6
	c-6.4-13-5.8-29.3,1.7-41.7c1.1-1.7,2.7-3.1,4.6-3.8c1.4,0.1,2.1,1.4,3,2.3c8,9.2,14.6,20.4,14.9,32.9c-1,2.5-2.1,5-2.6,7.7
	c3.4-1.9,6.1-4.7,8.6-7.6c4.3-4.7,8.5-9.4,12.5-14.2c-3-9-5.5-18.3-6.6-27.7c-0.4-6-0.9-12.5,2.4-17.9c3-5,6.8-9.8,11.7-13
	c4.8,1,6.4,6.2,7.9,10.2c1.9,6.8,3.9,13.8,3.1,20.9c-1.2,5.3-3,10.4-4.3,15.7c9.3-6.9,18.5-13.9,27.8-20.8
	c-3.6-7.9-4.5-16.6-4.6-25.2c2-7.5,4.8-14.8,8.4-21.7c1.7-3,3.6-6.2,6.7-8.2c2.5-1.7,5.6-1.1,8.4-1.2c2.1,10,3.9,20.1,4.9,30.3
	c-2.4,4.9-5.1,9.7-7.2,14.7c9.6-3.4,18-9.8,28-12.4c-0.7-3.8-1.7-7.5-2.2-11.4C284.2,109.8,290.2,96.7,300.2,88.2z"/>
<path d="M349,234.5c21.6-4,40.8-15.9,57.9-29.3c10.6,7.9,21.6,15.5,33.5,21.3c8.7,4.4,17.9,7.8,27.6,8.9c11.3,0.4,22.8,0.4,33.9-1.9
	c12.2-2.3,24.3-5.7,36.1-9.7c4.2,5.7,7.4,12,11,18.1c11.7,21.1,22.9,42.3,34.2,63.6c1.5,3,3.5,6,4.2,9.4
	c-11.5,11.9-22.4,25.4-26.9,41.6c-1,4.1-2.3,8.6-0.8,12.7c5.6,18.1,10.8,36.4,15.5,54.8c2.6,11,5.2,22.1,6.6,33.3
	c1.5,17.4,0.1,35.3-6.7,51.6c-7.9,19.5-21.6,36.1-37.1,50c-31.9,28.1-70.5,47-109.5,63c-1.2,2.5-3.8,3.8-6.6,4.1
	c-9.7,1.4-19.6,0.7-29.4,0.7c-49.4-20.2-95.9-48.1-135.6-84c-3.9-3.3-6.1-7.9-8.8-12.1c-11.5-19.4-18.2-42-17.3-64.6
	c1.5-19.1,6-37.9,10.7-56.5c3.9-15.3,8.4-30.5,12.7-45.7c0.4-7.4-2.9-14.4-6.4-20.7c-6-10.1-13.7-19.2-21.7-27.9
	c-0.1-3.3,2-6,3.4-8.8c10.6-19.4,21-38.8,31.4-58.4c4.2-8.1,8.5-16.1,12.3-24.4c3.8,0.5,7.3,2,11,3
	C305.1,233.2,327.2,238.1,349,234.5z"/>
<path class="st0" d="M384.1,230.1c8-4.5,15.5-9.8,22.8-15.3c10.1,7.6,20.6,14.8,32,20.4c10.9,5.5,22.8,9.6,35,9.9
	c19.7,0.1,39.4-4,57.4-11.9c5.7,4.7,9.1,11.4,12.9,17.6c12.1,20.9,22.7,42.7,33.3,64.4c-9.7,9.1-18.7,19.6-23.2,32.3
	c-2.4,7.2-3.2,14.9-2.3,22.4c6.5,23.4,13,46.8,18.2,70.6c2.4,11.4,5,22.9,4.9,34.6c-0.5,17.7-6.7,34.9-16.6,49.5
	c-12.8,19-30.6,34-49.5,46.6c-29.4,19.5-61.9,33.8-94.9,46c-5.1,0.6-10.5,0.7-15.6,0c-34.8-12.8-69.1-28.1-99.6-49.4
	c-17-12-32.7-26.2-44.3-43.6C244.4,508.5,238,489.9,238,471c-0.2-9.9,3.1-19.4,5.3-29c6-24.2,12.3-48.4,17.1-72.9
	c2.7-11.5-1-23.6-7.1-33.4c-4.7-7.7-10.9-14.3-17.6-20.4c12-23.9,24.3-47.8,37.1-71.3c1.7-3.5,4.6-6.5,5-10.5
	c17.4,4.8,35,9.7,53,11.6C349.7,245.9,368,239.2,384.1,230.1z"/>
<path d="M346.8,251.1c22-3.8,41.6-15.2,60.1-27.2c20.2,14.1,43,26.4,68.1,27.9c5.1,0.5,10.1-0.2,15.1-0.8
	c14.5-2.1,28.9-5.2,43.1-8.5c9.7,18.5,19.2,37.1,28.3,55.9c2.6,5.5,5.2,10.9,7.1,16.7c-7.1,1.4-10.2,8.6-13.1,14.4
	c-4.1,8.8-6.9,18.1-9.7,27.4c-2,6.3,0,12.9,1.2,19.1c6.2,27.6,14,54.8,21.3,82.1c0.6,12.1,0.5,24.6-2.9,36.4
	c-4.7,16.8-14.7,31.7-26.8,44.2c-11.8,12.1-25.5,22.3-39.8,31.2c-26.8,16.6-56,29.2-85.5,40.2c-2.3,1-4.9,0.6-7.4,0.7
	c-2.9-0.1-5.9,0.4-8.6-0.8c-36.2-14-72.2-30.3-103.1-54.3c-16.4-12.9-31.4-28.4-40.6-47.4c-7.4-15.5-11.1-33.3-7.2-50.3
	c5.6-28.3,12.9-56.2,19.9-84.1c2.8-8.9,3-18.8-0.9-27.4c-5.5-12.7-13.1-24.4-20.6-36c9-17.5,18.1-34.9,27.6-52.2
	c3.1-5.4,6-11.1,9.8-16.1c4.1,0.4,7.9,2.1,11.8,3.1C311.1,249.9,329.1,253.6,346.8,251.1z"/>
<path class="st0" d="M355,260.6c18.7-3.9,35.8-13.1,51.7-23.3c18.1,12,38.3,22.2,60.2,24.4c10.4,0.4,20.8,0.8,31.1-1
	c9.8-1.5,19.5-3.6,29.2-5.5c9.5,18.4,19,36.8,27.7,55.5c-6.7,6-10.1,14.5-13.2,22.7c-2.5,7-5,14.1-6.6,21.4c0,7.9-0.7,15.9,1.2,23.6
	c6.2,28.5,14.3,56.5,21.8,84.6c1,15-2.6,30.1-9.6,43.4c-7.6,14.6-18.8,27.3-31.8,37.3c-31.7,24.8-69,41.4-106.4,55.5
	c-2.2,0.8-4.7,2.1-7,0.9c-35.5-13.6-70.5-29.4-101-52.4c-11.4-8.5-21.9-18.3-30-30.1c-9.4-13.6-16.2-29.6-16.9-46.3
	c2.6-19.1,7.7-37.8,12.1-56.5c3.5-14.5,7.4-28.9,10.8-43.5c-0.2-9.7,1.6-20-2.5-29.2c-4.8-11.3-11.3-21.8-18-32.1
	c9.5-18.5,19.2-37,29.4-55.1c14.8,4.4,30.2,7.3,45.7,7.1C340.4,262,347.8,262.3,355,260.6z"/>
</svg>
