<?xml version="1.0" encoding="utf-8"?>
<!-- Generator: Adobe Illustrator 21.1.0, SVG Export Plug-In . SVG Version: 6.00 Build 0)  -->
<svg version="1.1" id="Layer_1" xmlns="http://www.w3.org/2000/svg" xmlns:xlink="http://www.w3.org/1999/xlink" x="0px" y="0px"
	 viewBox="0 0 825 825" style="enable-background:new 0 0 825 825;" xml:space="preserve">
<style type="text/css">
	.st0{fill:#FFFFFF;}
</style>
<path d="M511.7,111.5c11.7-2.7,24.7-2.7,35.3,3.5c15,8.5,26.7,22.8,31.9,39.2c2.4,11.8,4.4,23.6,6.7,35.4
	c1.9,9.1,5.8,18.9,14.4,23.5c10.3,4.8,22,4.9,32.8,8.1c11.9,3.2,20.9,12.3,28.5,21.5c13.7,17.3,21.3,38.4,26.4,59.6
	c8.4,35.9,9.8,72.9,9.4,109.6c-1.5,21.9-5.7,43.5-9.8,65.1c-4.1,20.9-8.2,41.9-15.1,62.1c-3.5,9.8-7.4,19.8-14.3,27.8
	c-11.2,12.9-25.9,22.2-41,29.9c-16.9,8.7-35.6,15.1-54.8,14c-13.8-1.4-26.6-7.1-38.9-13.2c-7.3-3.6-14.3-7.7-21.4-11.8
	c-21.5,27.8-43.1,55.6-64.6,83.4c-1.9,2.4-3.6,5-6,7c-12.6,10-25.2,20.2-37.9,30.1c-29.1,22.4-63.7,38.3-100.4,42.9
	c-19.6,2.7-39.6,2.2-59.2-0.9c-16.9-2.7-33.5-8.2-48.2-17.2c-16-9.8-29.6-23.4-39.8-39.2c-12.6-19.6-18.4-43-18.3-66.2
	c-0.3-17.1,2.6-34.3,9.4-50c7.7-18.5,19.8-34.9,33.6-49.4c15-15.5,32.2-28.8,49.9-41.1c33.3-22.9,70.4-40.8,109.8-50.2
	c5.2-16.5,10.1-33.5,19.5-48.2c-11-1-22-1.2-33-1.8c-10.1,0.1-20.3-0.8-30.2,1.4c-11.1,3.9-18.4,14-24,23.8
	c-5.6,10.4-10.1,21.5-16.1,31.7c-4.6,0.3-8.9,2.1-12.9,4.3c-1.7,0.7-3.5,2.4-5.3,1c-2.3-1.6-2.8-4.7-4-7.1
	c-4.6,3.6-2.6,12.8-9.8,13.1c-0.3-2.2,0.2-5-2-6.4c-2.9-1.4-6.2-2-9.3-3c1.8-22.9,13-44.7,30.3-59.7c14.7-11.4,30-22,45.1-32.9
	c1.6-1.1,3.2-2.6,5.3-2.4c25.8-0.9,49.9-11,74.8-16.7c12.9-3.3,26.3-3.8,39.4-6.3c14.9-2.6,29.6-6.1,43.8-11.4
	c11.4-4.5,22.7-9.3,33.9-14.2c2.2-1,4.6-1.9,6.5-3.4c4.6-5,1.6-13.5,7-18c5.1-4.3,12.3-6.1,16-12.1c-4.6-5.3-8.6-11.3-13.9-16
	c-4.4-0.6-8.8,0.2-13.2-0.6c-18.9-2.1-35.7-12.3-54.4-15.7c-15.7-1.8-32.2,1.3-47.1-5c-15.4-6.6-29.7-15.4-44-23.9
	c-21.8-13.6-45.1-25.9-70.7-30.1c-19.6-2.4-39.6-0.6-59.1-3.9c0.8-1.8,1.4-3.9,3.2-4.9c7.2-4.5,17.1-2.5,23.4-8.6
	c0.8-2.6-0.6-5.4-1.5-7.8c-3.3-7.1-10.3-11.8-17.5-14.4c-12.5-4.4-25.3-7.9-37.7-12.5c12.4-4.8,26.3-3.7,38.7,0.5
	c18,6,33.4,17.3,50.3,25.5c2.3,1.1,4.6,2.5,7.1,2.8c32.9,4.2,65.8,8.4,98.7,12.7c31.2,4.7,58.4,21.7,87.2,33.6
	c-5.1-14.3-3-30,1.5-44.1c3.7-11.6,10.8-22.4,21.1-29.1C487.9,118.8,499.7,114.4,511.7,111.5z"/>
<path class="st0" d="M487.6,353.7c14.3-3.6,28.7-6.8,42.8-11.1c2.4,12.7,8.3,24.6,9.1,37.5c-9.8,0.1-18.4-5.2-27.9-7
	c-3.8-0.8-7.7-0.8-11.6-0.5c-10.6,13.1-12.6,31.1-10.4,47.3c1,8.5,4.3,16.5,9.3,23.5c-26.4-14.9-50.5-33.6-73.9-52.8
	c3.1-11.3,12.4-19.9,22.6-25C460.1,359.2,474.1,357.1,487.6,353.7z"/>
</svg>
