<?xml version="1.0" encoding="utf-8"?>
<!-- Generator: Adobe Illustrator 21.1.0, SVG Export Plug-In . SVG Version: 6.00 Build 0)  -->
<svg version="1.1" id="Layer_1" xmlns="http://www.w3.org/2000/svg" xmlns:xlink="http://www.w3.org/1999/xlink" x="0px" y="0px"
	 viewBox="0 0 825 825" style="enable-background:new 0 0 825 825;" xml:space="preserve">
<style type="text/css">
	.st0{fill:#FFFFFF;}
</style>
<path d="M341.4,121.5c9.3-8.2,23.6-10.2,34.8-4.8c7.6,3.7,13.3,10.4,17.7,17.5c4.5,7.3,7.5,15.4,10.4,23.5c-1.6-1.1-3.2-2.2-4.9-3.1
	c0.5,2.4,1.4,4.7,3.1,6.5c-0.5,0.1-1.1,0.1-1.6,0.2c-0.4-0.5-1.2-1.6-1.6-2.1c-0.3,7.2,1.9,15.4-2.8,21.7c1.8,1.8,3.7,3.5,5.1,5.6
	c4.4,0,8.9-0.3,13.3,0.2c2.6,0.2,4.6,2.1,6.1,4.1c19.5,1.1,38.7,8.9,52.8,22.5c27.9,25.4,56.6,50.1,81.5,78.5
	c12.9,15.3,23.6,32.8,29.2,52.1c3.5,12.9,5.3,26.8,1.5,39.8c-4.5,16.2-16.5,29.3-29.8,39.1c-2.2,19.7,3.3,39.3,1.9,59
	c-7.5,5.1-14.8,10.4-22.7,14.8c-3.1,2-5.7,4.5-8.2,7.2c-5.3-14.7-9.3-30.5-7-46.3c0.9-6.1,2.9-12,5.7-17.5
	c-30.7,18.4-65.3,29.7-94.5,50.7c7.8,19.1,10.8,39.9,12,60.4c18.8-1.4,36.2-8.8,54.1-14c-8.1-2.1-15.2,5.1-23.3,3.5
	c10.9-4.2,22.1-7.5,33.2-11.2c1.5-0.4,2.9-1.1,4.5-0.8c2.9,1.5,4.3,4.4,5.9,7c1.1,1.8,3.5,1.7,5.4,2.1c-0.9,3.4-1.3,7.1-0.3,10.6
	c2.7-1.4,5.3-2.9,8.1-4.1c-2-1-4.1-1.8-6.3-2.2c3.6-0.3,7.3-0.8,10.9,0.3c8.1,2.5,14.6,8.2,22.4,11.5c5.9-4.4,14.4-4.3,20.1,0.4
	c-2.2,2.4-5.5,0.9-8.3,1.5c0.5,1.2,1,2.5,1.4,3.7c2.5-0.6,5.1-1,7.8-1.1c-0.7,2.7-0.4,5.3,0.5,7.9c4.8,2.2,11.5-0.2,14.8,4.8
	c4.4-3.2,10-2.3,15.1-2.3c1.8-0.1,3.2,1.2,4.7,1.8c-2.8,5.8-10.2,8-16.1,6.2c4.5,6.9,9.4,13.6,13.6,20.8c-2.7,0.2-4.6-1.6-6.7-3
	c-0.3,1.5-0.7,3-1,4.6c1,1.1,2,2.2,2.9,3.4c-3,0-4.2-2.8-5.8-4.8c-0.6,2.4-0.2,4.8,0.4,7.1c-4.3,0-6.7-3.9-10.4-5.3
	c-1.4-0.5-4.8,0.3-3.6,2.3c2.5,5.4,10.1,5.2,11.9,11.1c-4.6-1.8-9.5-2.8-14.3-4c-1.9-0.2-2.8-1.9-3.5-3.5c-3.5,0.8-7.1,0.8-10.7,1.4
	c-2.9,0.4-5,2.5-7,4.3c2.2,0.6,4.4,0.8,6.5,1.7c2,1.2,1.1,3.9,1.5,5.9c-6.2-0.8-12.4-1.3-18.5-2.8c0.4,1.4,0.5,3.2,1.7,4.2
	c2.2,0.8,4.5,1.2,6.5,2.4c-3.4,0.6-6.6,1.7-9.5,3.6c-2,1.5-4.4,0.8-6.7,0.6c2.9,4.6,9,1.5,13.1,3.7c-1.2,2.4-2.8,5-5.8,5.4
	c-5.2,0.8-10.3-1.1-15.2-2.7c-1.3,1.7-2.7,3.5-4.8,1.5c-0.4,3.1,1.4,5.9,2.7,8.6c3.1-0.2,7.7-3.9,9.3,0.6c3.4-3.1,7.8-5.6,12.6-5.3
	c0.7,4.9-4.7,9.5-9.4,8.7c3.7,5.6,7.9,10.9,12.9,15.4c-2,1.5-4.5,2.9-5.4,5.4c0.1,1.5,0.4,3,0.8,4.4c-3.2,0.1-4.7-3-7.1-4.5
	c-0.9,1.6-3,3.6-1.1,5.3c2.7,2,6,3,8.9,4.8c-7.2,0.2-16.2-3.5-21.8,2.7c0.1,1,0.2,2.1,0.4,3.1c1.3,0.9,2.8,1.4,4.2,2.3
	c0.6,2.4-1.8,3.4-3.7,3.7c-3.3,0.6-6.7,0.5-9.9,1.7c2.1,2.3,5.2,2.8,8.1,3.3c-3.7,3.9-8.4,6.5-12.7,9.5c4.5,0.2,8.5-4,12.9-1.5
	c-4.8,2.3-9.5,4.8-14.1,7.5c-1.1,0.5-1.8,1.5-2.4,2.5c-3.6,6.5-9.4,12-16.5,14.4c-5.6,1.9-11.6,2.5-17.5,1.7
	c4.7-5,11.4-6.9,16.9-10.8c-33.7,5.4-67.1,12.3-100.6,18.5c-2.1,0.5-4.4,0.6-6.2,2c2.6-3.4,1.1-7.8,0.6-11.6
	c-1.9,0.4-3.8,0.9-5.7,1.5c0.6-2.1,0.8-4.7,2.9-5.8c2.3-1.3,4.9-2.1,7.4-3.1c3.3,3.4,7.4,5.8,11.5,8c-0.4-1.6-0.1-3.7-1.8-4.6
	c-2-0.8-4.2-1-6.3-1.5c0.4-0.9,0.9-1.8,1.4-2.6c-1.9-1.1-2.8-2.8-2.2-5c-2.2,0.5-4.3,1.1-6.5,1.6c0,0.7,0,2.1,0,2.8
	c-5,3.6-11.3,4-17.2,4.9c3.3-6,10.9-5,16.4-7.3c-1.5,0-3,0.2-4.5,0.1c-17.4-6.7-35.4-11.4-53.3-16.5c-41.5-11.3-83.6-20.6-124-35.5
	c8.4-14.7,26.4-18.5,37.8-30.1c10.1,5.1,19.2,11.8,28.7,17.8c23.4,1.8,46.4-4.5,69.6-5.8c-0.7-2.5-1.8-4.8-3.5-6.8
	c4.2-1.6,9.7-0.9,12.5-5c-1.8-4.2-6.3-2.3-9.8-2.6c3.5-6.5,11.4-7.8,18.1-8.4c2.8,4.9,7.6,8,12.4,10.7c0.5-0.4,1.5-1.2,1.9-1.7
	c-0.7-0.4-2.1-1.2-2.8-1.7c0.5-0.6,1.1-1.1,1.6-1.7c-3.6-1.5-7.5-1.9-11.1-3.5c-0.2-0.6-0.5-1.9-0.7-2.6c0.9,0.1,2.9,0.2,3.8,0.2
	c-0.1-4.7-7.5-0.2-6.9-5.3c2.9,1.1,5.9,0.9,8.7-0.2c-8.4-0.3-16.8-0.9-25.1-1.8c14.3-5.2,30.4-2.8,44.4-9.3
	c-1.7-2.5-4.5-3.9-7.6-3.2c-4.9,0.5-9.9,2.5-14.8,0.5c-2.8,2.2-6.5,0.7-9.6,0.1c-3.7-1-7.5-0.6-11.2-0.1c8.2-2.2,16.7-3.8,25.2-4.2
	c-3.9-0.8-7.9-1-11.8-1.6c4-2.4,11-2,11.6-7.9c-5.7,1.3-10.6,7.4-16.9,4.3c2.5-1,5.2-1.5,7.9-2c-0.9-0.5-2.6-1.6-3.5-2.1
	c6.2-2.8,13-3.3,19.7-2.8c-6.6-2.9-14-2.6-21.1-3c10.3-3.6,21-5.3,31.6-7.7c-0.2-0.9-0.7-2.8-0.9-3.7c-4.4-0.1-8.6-1.2-12.8-2.5
	c2.8-1.8,5.7-3.5,8.8-4.8c-6.1-9-10.2-19-15.3-28.5c-7.1-14-16.2-27-22.8-41.3c-3.6-9.2-3.8-20.4,1.6-29c3-4.9,7.4-8.6,11.4-12.7
	c26-25.2,52.5-50.3,82.7-70.5c7.7-5.1,15.7-9.7,24.1-13.4c-6.2-15.5-20.4-25.6-34-34.1c-24.4-14.5-46.9-31.9-68.5-50.3
	c-30.6,30.6-45.9,72.4-72.9,105.8c-10.3,11.7-24.7,19.7-32.4,33.7c-0.5,4.7,0,9.5-0.2,14.2c-5.3,5.5-9.7,11.8-13.7,18.2
	c-2.4-0.7-4.7-1.7-6.3-3.7c-2.9,9-2.1,18.7-5.2,27.6c-2.9-4.4-6.3-8.4-10-12.2c-2,4.5-0.8,9.5-1.9,14.1c-5.4-3.2-5.1-10.5-9.9-14.3
	c-1.1-8.9,0.8-18.5,6.7-25.5c5.9-6.5,12-13,16.1-20.9c12.6-23.9,21-49.8,35.3-72.7c13.2-19.8,26.4-39.6,39.2-59.7
	c2.4-4,5.4-7.9,6.3-12.7c4.1-17,9.2-33.8,12.5-51c6.2-5.3,14.9-7.7,19.8-14.5c-10.3-11.5-19.4-24.1-28.7-36.5
	c1.6-10.9,3.7-21.8,7.1-32.3C330.9,135.3,334.9,127.2,341.4,121.5z"/>
<path class="st0" d="M381.5,614.1c-0.4-1.6,0.6-3.1,2.4-3c2.8-0.1,5.5,0.2,8.3,0.3c-0.9,1.4-1.5,3.5-3.3,4.1
	C386.4,616.4,383.8,615.1,381.5,614.1z"/>
<path d="M334.1,623.2c9.4-1.3,18.8-3.2,28.2-4.5C354.7,625.7,343.5,625.1,334.1,623.2z"/>
<path class="st0" d="M422.5,720c4.5-2.7,9.7-4.1,14.9-4.5C433.8,719.6,427.7,721.5,422.5,720z"/>
<path d="M382.7,752.8c4.1-3.1,9.4-3.3,14.3-2.9C393,753.2,387.6,753.3,382.7,752.8z"/>
</svg>
