<?xml version="1.0" encoding="utf-8"?>
<!-- Generator: Adobe Illustrator 21.1.0, SVG Export Plug-In . SVG Version: 6.00 Build 0)  -->
<svg version="1.1" id="Layer_1" xmlns="http://www.w3.org/2000/svg" xmlns:xlink="http://www.w3.org/1999/xlink" x="0px" y="0px"
	 viewBox="0 0 1024 1024" style="enable-background:new 0 0 1024 1024;" xml:space="preserve">
<style type="text/css">
	.st0{fill:#FFFFFF;}
</style>
<path d="M165,74.5c1.7,0,3.4,0,5.1,0c-0.4,5.1,1.1,10.6-1.4,15.3c-3.3,7.6-4.4,15.9-5.2,24.1c-1,12.7-1.1,25.4-2.9,38
	c-1.6,7.9-3.7,15.6-4.9,23.6c-1.3,10.5-0.2,21.1-2,31.6c-3,27-8.1,53.7-10.2,80.8c-1.4,11.4-3.4,22.8-4.6,34.2
	c-1.5,16.4-5.7,32.4-5.4,48.9c0.6,17.4-0.6,34.7-1.1,52c-0.6,13.1-1.1,26.1-1.8,39.2c-0.4,11.5-1.4,23.1-4.2,34.4
	c-0.8,3.2-4.3,5.1-4.5,8.5c-0.3,17-6.4,33.2-13.5,48.4c-1.3,3-3.2,5.7-4.1,8.8c-0.8,8.4,1.5,16.6,2.6,24.8c0.6,4.7-0.5,9.5-2.6,13.7
	c1.1,1.4,2.1,2.9,3.1,4.3c-5.6,2.1-10.9,5.1-16.1,8c1.3,3.3,2.7,6.8,5.6,9c2.9,2.3,7.8,2.2,10-1c2.3-3.1,3.9-6.8,7.3-8.9
	c1.5,3.7,2.5,7.6,4.6,11c2.3,2.7,5.6,4.5,8,7.1c-4.5,5.4-10.4,9.3-15.3,14.3c-1.1,5.3-2.9,10.5-4.5,15.6c3.8,7.9,5.9,16.4,7.9,24.9
	c1.8,6.9,5,14.6,12.2,17.4c1.4-4-1-7.5-2.6-11c-1.2-2.3-0.2-4.8,0.4-7.1c-2.7-3.3-5.3-7-5.5-11.4c-0.2-2.9,1.2-5.4,2.5-7.9
	c9.2,6,16.4,14.4,23.3,22.7c4.8,6.2,10.7,12.6,11.7,20.7c-4.4,0.2-6.2-4.5-9.9-5.8c-2.7,1-5.4,2.3-8.2,3c0.9,9.6-4.7,18.1-4.5,27.6
	c1.4-2.2,2.6-4.6,4.2-6.7c2.1-0.9,4.4-1.4,6.3-2.8c2-1.5,3.1-3.8,4.6-5.7c1.5-0.2,3-0.2,4.6-0.2c2,5.5,1.7,11.9,5.2,16.9
	c2.3,3.3,6.7,3.2,10.2,2.7c-2-4.2-6-7.1-7.5-11.6c6.1,1.6,11.9,3.9,18.1,5.2c3.1,0.8,5.9-0.8,8.8-1.6c3,0.6,6.1,1.3,9.1,1.8
	c-3,2.8-5.9,5.6-8.6,8.8c9.2,3.6,19.9,8.4,29.6,3.6c5.8,0.6,5.2,9.8,0.5,11.8c-6.8,3.1-14.4,0.8-21.5,0.7c-4,0-8.5-0.6-12.2,1.4
	c-0.9,4.3-3.6,7.8-5.9,11.3c-2.1,3-1.8,7,0.2,9.9c3.7,5.4,9.6,8.7,15.2,11.7c8.2,4.4,17.9,6.6,27.1,4.6c8.6-2,17-4.5,25.5-6.7
	c0.6,3.7-0.1,7.8,2,11.1c2.5-2.1,2.4-5.4,3.5-8.3c1.9-1.8,4.7-0.7,6.9-0.2c1.1,6.6,3.7,13.1,8.5,17.9c3.6,3.7,9.7,4.5,14,1.8
	c2.8-1.8,3.4-5.6,2.9-8.6c-0.6-4.7-1.6-9.4-2.3-14.1c9.9-2,20.1-2.1,30-3.9c9.5-1.6,18.1-6.5,26-11.8c15.7-10.7,27.1-27,33.2-44.9
	c0.8-1.9-0.2-3.9-0.3-5.8c-0.7-5.2-0.4-10.6-1.3-15.8c-4.7,3.6-7.2,9.1-10.7,13.8c-1.5-0.2-3.2,0.2-4.6-0.6
	c-2.7-2.8-3.4-7.1-6.2-9.8c-2.9-1.5-6.1-1.8-9.1-3c-0.9-5.7-0.5-11.6-2.6-17.1c-5.2,0.7-6.1,7.3-11.3,8c-0.3-2-1.4-4.2-0.3-6.2
	c1.1-2.5,4.4-3.2,5.1-5.9c1.6-4.6,3.5-9.3,7-12.9c4.3,2.1,2,7.1,1.7,10.7c7.5-2.2,13-8.6,20.8-10.1c4.2,2.3,7.9,5.4,12.2,7.6
	c4-3.2,5.3-8.3,6.5-12.9c2-8.1,3.1-16.7,7-24.2c1.1-2.1,2.8-3.7,4.6-5.1c3,3,5.5,6.3,8.3,9.5c2.7-0.8,5.5-1.7,8.3-1.4
	c0,3.3-0.8,6.6-0.4,9.9c3.2-0.4,5.1-4.4,8.4-3c-5.8,14.3-20.5,22.2-27.4,35.9c-2.3,4-2.9,8.6-4,13.1c-3.9,11.7-5.9,24.2-4.1,36.5
	c0.9,5.7,2.9,11.6,7.5,15.3c4.3,3.4,10.2,4.4,15.4,2.9c4.1-1,8.2-2.9,12.5-2c4.9,2.3,3.8,9.1,8.2,12c4.4,3.2,10.3,2.8,15.4,2
	c7.4-1.1,13.9-5.1,20.8-7.6c1.5,5-2.7,8.3-5.6,11.6c7.5,3.8,17.5,1.2,23.4,8.2c-7.4,4-16.4,0.6-23.6,5
	c-11.6,5.9-19.3,17.3-31.1,22.9c-5.3,2.2-11,3.5-16,6.5c0.3,9.3,0.8,18.6,1,27.8c10.1-1.1,19-6.4,28.5-9.9c3.2-1.1,6.1-3.2,9.3-4.2
	c2.4-0.6,4.2,1.4,5.9,2.6c-12.6,12.4-31.7,15.9-43,29.8c-2.4,2.4-2.1,6-2,9.1c0.3,4.9,2,9.6,2.7,14.5c-2-0.1-4-0.4-6-0.9
	c-0.9-3.2-1.5-6.4-2.6-9.4c-1.4-3.3-3.6-6.4-3.8-10c-1.1-13.1,0.5-26.2,1.2-39.2c0.3-7,0.8-14-0.8-20.9c-8.2,7-16.2,14.3-25.2,20.4
	c-2.2,1.6-4.9,2-7.4,2.8c-2.6,0.8-4.4,3.1-7.1,3.7c-27.8,7.2-53.8,19.9-79.3,32.7c-7.6,4.2-15.9,7.9-24.6,8.5
	c-3.8,0.4-7.1-1.6-9.3-4.6c-14.8,0.7-29.3-4.2-42.3-11c-8.3-4.5-16.7-9-24.6-14.4c-10-6.5-18.1-15.5-28.6-21.3
	c-2.6-1.5-6-1.6-7.7-4.3c-9.4-11.4-16.7-24.3-24.1-37c-5.9-10.2-10.9-21.2-19.5-29.5c-3.5-3.6-7.9-7-8.3-12.4
	c4.9-0.8,8.1,3.4,12.2,5c-0.2-5.7-5-9.1-7.9-13.4c-1.6-4.3-0.3-10.5-5.4-12.6c-1.5,4.7-1.3,9.7-1.3,14.5
	c-0.2,24.8-5.2,49.1-8.6,73.5c-2.1,16-4.8,32.2-4,48.4c0.3,18.4-0.6,36.7-0.3,55c0.1,10.3,0.3,20.6-0.9,30.8c-0.3,3.1-1.5,6-2.7,8.9
	c-2.9-6.4-5.3-13-8.1-19.4c-2.3-4.3-6.3-7.3-8.7-11.5c-0.5-22.3,3-44.5,5.5-66.6c2.8-23,3.7-46.2,6.1-69.2
	c2.3-19.6-1.1-39.4,0.6-59.1c0.3-7.6,2.7-14.8,5.1-21.9c-2.1,0.8-4.7,1.4-5.5,3.8c-1.5,4.4-1.8,9.1-3.8,13.3
	c-4.3,9.6-3.8,20.4-5.5,30.6c-1.7,10.3-3.3,20.7-5.2,31c-3.8-19.7,3.4-39,3.5-58.7c-0.1-6.8,0.6-14.9-4.8-20.1
	c-7.1-6.7-17-8.8-26.2-10.8c0-5.4,0-10.7,0.1-16.1c3.8,0.9,6.6,3.5,9.5,6c3.4,0.6,7.1,0.3,9.8,2.8c-1.7,2.1-3.6,4.1-4.7,6.6
	c7.5,2.7,15.4-0.4,22-3.9c4.8-2.1,11.3-5,15.8-0.9c3.5,3.4,9.3,2.4,12.9-0.4c-9.4-7.1-21.8-1.3-32.2-5.4c-3.2,2.1-6.3,4.4-10,5.5
	c-1.3-3.5-1.7-7.3-2.3-11c3.8-3.1,7.9-5.9,11.6-9.1c3-2.7,7.5-1.9,11-0.6c6.1,2.6,11,7.1,16.8,10.4c3.7,2.5,8.5,2.7,12.8,1.8
	c4.4-0.9,6.8-7.6,3.1-10.6c-2.2-1.7-3.3-4.3-5.1-6.3c-6.5-1.2-13.1-1.7-19.7-2.6c-9.2-1-18.8,2.8-27.6-1.1
	c1.1-15.5,1.1-31.5,6.5-46.3c-0.9-1.2-2.1-2.2-3.1-3.4c-1.5-1.1,0.1-2.8,0.7-3.8c5.8-8.8,20.8-9.9,27.1-1c1.7-2.7,4.4-4.5,6-7.2
	c1.8-4.3-5.9-6.2-3.8-10.2c3.1-4.5,3.1-10.6,7.8-14c-0.3-1.7-0.7-3.4-1-5.1c1.4-1.4,2.8-2.8,4.1-4.2c-2.4-3-6.1-4.5-9.5-5.9
	c-2.9,5.2-5.6,10.6-8.5,15.9c-2.6-7.3-3.4-15.8,0.2-22.8c1.8,1.5,3.3,3.3,5.1,4.8c0.4-0.2,1.1-0.8,1.4-1c0.4-3,0.3-6.2,0.9-9.2
	c4.8-0.6,9.7-0.7,14.5-1.3c2.4-0.3,4.9-1.9,5.4-4.5c0.5-3.9-1.3-7.6-3.5-10.6c-3.4-4.6-7.4-9.1-12.9-11.2c-0.2,3.2,0.8,6.8-1.2,9.6
	c-2.6,4.2-2.3,9.7-5.9,13.3c-1.9-7-1.4-14.7,2.1-21.1c0.8-1.9,2.5-3.6,2.1-5.7c-1.6-13.8-2.1-27.9,0.7-41.5
	c1.8-8.6,5.1-17.1,10.5-24.1c1.7,7.9-2.4,16.1,1.1,23.8c-1.1,3.8-0.4,7.6-0.2,11.4c-5.7,9-11.9,19.5-9,30.6
	c6.2-0.1,9.2-6.2,11.3-11.1c-1.4-2-3.8-4.1-2.9-6.8c2.2-3.3,6.6-4.1,9.5-6.6c-1.7-2-4-3.6-5.3-6c-0.3-4.1,2.4-7.6,2.4-11.6
	c-2.4-24.4-3.9-48.8-5.2-73.3c-0.1-9.5-0.4-19.9,5.2-28.1c3.4-5,10-5,15.2-3.3c-0.6-48.8,3.3-97.6,9.1-146
	c2.5-19.5,4.5-39.1,8.9-58.3c3.6-17.2,8.2-34.4,8.4-52c3.9-1.2,7.9-1.7,11.9-2.6C156,94.1,161.4,84.6,165,74.5z"/>
<path d="M412.2,109.2c20.1-8.5,42.2-14.1,64.1-11.3c14.8,1.8,29.4,9.8,36.7,23.2c10.6,21.6,19.3,44.1,29,66.1
	c2.4,5.9,5.6,11.4,7.4,17.6c4.9,15.3,10,30.5,15,45.8c1.3,4.1,1.7,8.4,2.5,12.6c3.3,18.9,7.5,37.7,12.9,56.1
	c5.7,19.2,13.7,37.6,20.7,56.2c1.1,4.8,1.3,9.8,2.1,14.6c0.9,7.7,2.8,15.2,2.8,23c0.3,13.6-0.9,27.2,0.6,40.8
	c0.8,10.8,1.4,21.7-0.6,32.4c-0.4,1.3-0.4,2.9-1.4,3.9c-3.3,2.3-7.2,3.1-11.1,4c-1.1-7.1-2.2-14.2-3.4-21.3c5.3-3.6,8-10,7.1-16.4
	c-3.7,1.8-6.8,4.5-10.7,5.8c-2.4,0.6-3.4-2.2-4.7-3.6c2.9-1.4,6.2-1.7,9.4-2.3c2.4-3.9,4-8.3,6.1-12.4c-4.6,1.9-5.8,8.4-11.5,8.4
	c-0.4-2.5-0.5-5.1-0.5-7.6c-2,0.5-4,1-6,1.6c-2.2-3.2,0-6.6,0.2-10c-1.5-3.6-5.7-5.9-6-10.1c0.3-1.3,1-2.5,1.6-3.7
	c3,0.8,5.8,2.5,9,2.2c3-2.4,2.5-6.7,3-10.2c2.4-0.5,4.8-1,7-2c-0.4-3.2-1.8-6.5-4.8-8.2c-4.9-3.2-11.3-4.9-16.8-2.2
	c-2.4,3.5-4.8,7.3-9,8.7c-1.4-3.2-4.2-5.2-6.2-8c-1.3-1.7,0.4-3.2,1.5-4.5c1.9-2,4.3-3.5,6.1-5.5c0.4-1.8-0.6-3.4-1.1-5.1
	c-4.7-12.1-10.6-23.7-16.3-35.4c0.6-0.4,1.9-1.2,2.5-1.7c7.7,5.1,10,15.2,18.2,19.8c3.1-3.1,4.5-7.3,5-11.5
	c1.9-17.3,0.1-35.3-7.3-51.2c-6.8-14-19.5-24.2-33.4-30.5c-11-4.9-24.4-5.2-35.2,0.5c-4.7,2.5-8.3,6.7-10.5,11.5
	c-0.9,2.5-3.5,3.3-5.6,4.5c-0.3,2.4-0.8,4.8-1.5,7.2c-2.9,0.1-5.9,0.1-8.8,0.4c2.7,2.3,5.7,4.4,9.1,5.6c3.5,1.3,6.3,3.9,9.9,5
	c1.8,0.6,3.9,1.2,4.1,3.4c-7.9,2.1-15.4-2.9-23.3-2.1c-5.1-0.4-8.2,4.3-11.2,7.7c-7.3,9.2-8.4,21.9-5.7,33c2.9-0.5,5.7-1.6,8.4-2.7
	c3.4,3.2,3,8.1,4.4,12.1c7.5,14.5,6.8,32.5,17.6,45.3c1.8,2.3,3.1,4.9,4.1,7.5c-6.2,2.8-13.3,0.2-19.3-2c-2.6-6.8-4.4-13.9-6.5-20.8
	c-0.6-4.7-6-5.7-9.5-7.7c-2.7-11.7-3.9-23.7-5.3-35.6c-1.3-12.2-2.6-24.3-3.7-36.5c1.7,0.2,3.3,0.4,5,0.6c0.3-7.9,1.9-16.4-1.2-23.9
	c-3.4,6.4-0.3,14.5-4.3,20.5c-5.8,3.4-10.6,8.2-14.5,13.6c-0.4,3.2,0.2,6.6-1.1,9.7c-5.5,12.7-0.5,26.5,0.8,39.6
	c-3.1,0.7-6.3,0.6-9.4,1.1c-3.9,5.3-3.7,13.1,0.1,18.4c4.5,6.3,11.1,10.6,15.9,16.7c-0.6,2.1-1.2,4.2-1.6,6.3c2.6-0.5,5.1-1.4,7.2-3
	c6.4-4.5,11.7-10.3,16.8-16c1.9,8.1,7,15.3,7.6,23.8c0.3,7-0.7,14.2,1.2,21.1c4.9,17.2,9.5,34.6,11.8,52.4c1.3,2.5,3.5,4.4,4.8,7
	c6.6-4.5,14.3-8.9,17.6-16.6c-3.4-0.5-6.8-0.1-10.2-0.4c1.5-4.8,4.9-8.5,8.6-11.7c-5.4-8.4-12.8-15.9-15.2-25.9
	c-0.8-4.1-1.2-9.3,2.4-12.3c3.9-3.3,8.6-5.6,13.1-7.9c9-4.4,18.1-8.4,27.4-12c-0.1,2.5,0.3,5.2-1,7.4c-1.6,2.7-3.6,5.2-5.1,7.9
	c7.1,2.2,14.6,2.4,21.9,2.4c-0.2,2.2-0.1,4.9-2.5,6c-4.1,1.9-8.7,2-13.1,1.9c-1.4-1.4-1.9-4.3-4.4-4c-2.9,2.7-2.1,9.5-7.1,9.5
	c-5.3,0.3-7.7-6-12.8-6.6c-0.4,5.3,3,12.1,8.7,12.9c4.4-2.1,7.8-6.1,12.5-7.8c4.1-0.9,4.9,5.4,2.9,7.9c-2.6,1.6-5.8,1.8-8.7,2.6
	c1.5,1.3,3,2.6,4.5,4c-1.5,1.6-4.4,2.6-4.2,5.2c-0.2,4.5,0.9,9,1.6,13.4c1.7,8.6,3.5,17.2,5.4,25.8c1.7,9.2,8.1,16.9,8.3,26.4
	c2.9,17,9.5,33,14.5,49.4c3.3-0.2,7.1,0.7,9.7-1.8c3.6-3.2,6.4-7.1,8.8-11.2c6.5-11.8,10.8-24.6,15.8-37.1
	c4.7-8.7,9.5-17.6,11.5-27.3c0.6-2.5-0.1-5-0.4-7.5c1.7-0.3,3.4-0.5,5.1-0.9c3.2,5.3-0.9,10.5-1.5,15.8c1.3,6.1,6.1,10.8,10.1,15.3
	c4.1,4.4,11.6,6.5,12.1,13.5C608.7,536,604.8,525,596,521c-5.4,5.8-4.6,14.3-6.7,21.5c8.7,2.2,17.2-3.7,26-1.2
	c1.1-1.1,2.1-2.2,3.5-2.8l0.8-0.1c6.3,4.4,14.1,4.8,21.5,4.3c12.1-1.2,24.6-3.3,36.6-0.1c-11.7,1.5-23.5,2.3-35.2,4.2
	c-14.1,3.4-28.8,2.1-43.1,4.5c7.9,2.7,16.4,2.7,24.7,2.7c11,0,21.9-1.4,32.9-1.6c6.9-0.1,13.9-0.5,20.6,1.3c1.7,0.4,2.9,1.8,4.2,3
	c-11.6,3.3-23.8,2.2-35.7,2.8c-6,0.1-12,0.3-18,0.5c-8.4,0.5-16.5,3.6-25,3.2c-6.9-0.4-14.1-0.5-20.8,1.3c-3.3,0.8-5.8,3.3-7.5,6.1
	c12.5,5.3,25.8,8.4,38.9,11.4c-4.4,3.9-10.9,4.2-15,8.6c0.3,2.1,3,5.6-0.1,6.8c-13.5,4.6-27.4,8.9-39.4,16.9
	c22.8,2.2,45.2-4.3,68-4.1c5.8,0.6,11.5,1.9,17.3,2.6c8,1.5,16.2,0.8,24.2,1.9c2.7,0.3,5.1,1.8,7,3.6c-7.8,4.3-16.9,4.9-25.7,5.1
	c-14.7-0.1-29.3-1.9-44-2.1c-9.2-0.6-18.4,1.9-26.9,5.5c5.2,0.7,10.6,0.6,15.8,0.6c20,0,40-0.3,60,0.4c6.4,0.4,12.7,2.3,19.1,2.8
	c8.2,0.6,16.5,1,24.6,2.5c-1.2,4.1-2.2,8.2-3.1,12.3c-7.4-1.3-14.8-2.5-22.3-2.9c-13.1-4.7-27.1-5.1-40.8-6.1
	c-21.8-1.1-43.6-1.8-65.3-0.5c-7,0.6-14.2,1.2-20.7,4c14.8,4.5,29.6-3.3,44.6-1.4c22.1,3,43.7,11.3,66.3,10
	c4.5,6.1,8.5,12.8,14.8,17.3c2-1.5,3.7-3.4,6.1-4.4c1,4.5-3.5,7.2-4.7,11.1c-10.6,12.3-20.1,25.7-27.8,40.1c-0.7,2.9,0.5,6.2-1.1,9
	c-1.9,3.7-4.2,7.3-5.2,11.4c0.7-0.2,2.1-0.5,2.8-0.7c1.9-6.5,6.4-11.6,9.8-17.2c4-5.9,8-11.9,12.5-17.5c2.5-3.2,6.2-5,9.4-7.5
	c-2.2-0.5-4.4-1-6.6-1.4c1.9-3.2,2.9-7.6,7.3-8c0.1,4-0.4,8.9,3.6,11.3c-3.3,5.4-7.8,10-11,15.3c-2.7,12.1-9.7,23-19.1,31
	c-3.5,2.7-5.2,6.8-7.4,10.5c-5.8,10-10.2,20.9-18.1,29.5c0-6.7,1.5-13.2,4.3-19.3c4.1-8.7,9.5-16.7,12.5-25.9
	c-4.9,3.9-6.3,10.5-10.5,14.9c-1.7,1.8-2.6,4.2-3.6,6.4c-6.9,15.9-13.3,32.2-16.4,49.4c-0.1,2.6-3.4,3.4-3.5,6
	c-2.8,14.2-8.6,27.5-14,40.9c-4.5,11.3-7.4,23.4-8.3,35.6c-2.9,3.4-4.4,8.3-8.7,10.3c-1.3-2.4-2.2-5-3.2-7.6
	c-7.6-0.2-14.7,5.5-22.3,2.9c1.9-5,6-8.6,8.8-13.1c3.7-6.3,2.5-15.7-3.9-19.8c-10.4-7.1-23.6-6.9-35.5-9.6c-7.3-1.8-15.3-3.2-21-8.5
	c10.1-1.8,20.4-0.9,30.5-1.4c10.5-0.7,21-3.2,30.4-8.1c4.4-1.8,6.4-6.5,8.2-10.5c-2.9-4.5-8.6-5.5-13.6-5.7
	c-6.4-0.4-13.2-0.3-19.1-3.3c1.3-2.2,3.5-3.6,6-3.6c4.5-0.3,9.1,0.4,13.6-0.8c-10-4.9-21-7.1-31.6-10.6c-2.3-0.8-4.2-2.5-6.1-3.8
	c-4.9-3.6-10.8-5.6-15-10c-3.5-3.1-5.8-7.2-7.3-11.5c5.1,0.8,10.2,1.8,15.4,1.6c10.2-0.1,20.4-2,30.6-0.4c8.2,1.5,16.2,4,24.5,4.6
	c3.9,0.2,4.9-5.5,8.9-4.8c2.9,0.5,4.8,3,7.4,4.2c1.8,1,3.8,0.5,5.8,0.5c0.2-2.9,0.1-5.8,0.5-8.7c5.3,0.2,10.7-0.1,15.6-2.3
	c9.8-4.3,16.7-13.1,22-22.1c1.3-2.2,0.8-4.9,1.8-7.2c1.1-1.4,3.2-2.3,3.6-4.2c1-5.2,3.7-9.8,5.6-14.6c1-2.9,3.1-5.8,2.2-8.9
	c-1.2-6.3-5.4-11.6-9.9-15.9c-3.6-3.7-8.3-5.7-12.7-8.3c-5.5-4.1-13.1-2.1-18.7-6.1c1.2-5.9,8-5.3,12.6-5.1c-2.8-2.9-5.5-6-8.1-9.2
	c-11.8-0.4-23.6-0.4-35.3,1c-14,1.5-27.5,5.9-40.9,10.1c3.5-8.2,13.3-12.9,13.8-22.5c-3.3-2-7.8-2.6-10.8,0.1
	c-5.1,4.9-9.6,10.4-15.4,14.6c-4.2,3.4-9.3,6.9-10.4,12.6c-1,4.7-3.9,8.7-6.3,12.8c-1.3,2.3-0.6,5-0.5,7.5c0.6,4.4-0.9,8.6-2,12.8
	c-3.2,10.7-10,20.8-20.2,26c-6,3.3-13.9,5.9-20.1,1.7c1.9-5.9,8.7-7.2,12.5-11.4c1.6-1.5,2.4-3.6,3.2-5.5c-1.9-0.8-3.9-1.4-5.9-2.1
	c1.8-4.4,5.1-8.3,4.8-13.3c4-1.2,7.9-4.5,7.5-9.1c0-4.3-4.2-6.4-7.8-7.3c-0.5-11.1-6.7-20.8-8.5-31.7c-9.1-1.1-18.8,1-27.2-3.4
	c-3.2-1.5-5.2-4.5-6.3-7.8c7.3-1.4,14.7,0.1,22,0c3.8,0.1,6.2-3.3,8.9-5.5c-9.2,0.5-18.3,0.9-27.5,0.9c1.2-2.1,2.4-4.3,3.4-6.6
	c7.3-1.8,14.9-2.2,22.4-2c-1.5-3.6-4-6.7-7.6-8.4c-4.3-2.1-8.9-4.3-11.2-8.6c-2.1-0.3-4.2-0.7-6.3-1c0.8-2.5,1.6-5.1,3.6-6.9
	c4.3-4.4,10.6-5.8,16.2-7.7c-3.4-2.3-8.7-0.9-10.8-5c4.9-2.2,10.6-2.6,15.7-0.8c8.8,3,16.1,10.2,19.3,19c-2.6,0.5-5.5,1-7.8-0.7
	c-2.3-1.4-3.5-4.5-6.5-4.6c-6.9-0.8-16-1.6-20.1,5.4c12.1,2.9,21,12.2,29.9,20.2c0.9-1.9,1.7-3.9,2.5-5.8
	c14.7-3.4,29.8-7.2,42.3-16.1c12.1-1.2,24.8-3.8,34.5-11.7c3.3-2.7,6.1-6,8.2-9.7c-7.1,2.4-12.5,7.9-19.3,10.7
	c-3.4,1.5-7.3,1.4-10.7,3.2c-15.5,7.4-33.5,7.2-49.9,3.2c-1.4-0.1-1.7-1.6-2.3-2.5c-3.3-6.8-10.8-10.7-12.8-18.3
	c-1.3-3.6,2-6.9,1.5-10.5c-0.3-3.7-1.1-7.3-1.8-11c-2.1-10.1-3.1-20.4-4.2-30.6c-1.5-10.5-3.2-20.9-5.2-31.2
	c-1.7-10.9-3.6-22.2-0.5-32.9c3.6,0,7.1,0.3,10.6,0.9c0.4-5.9,0.1-11.9-0.2-17.8c-1.1,3.6-2.3,7.1-3.2,10.8
	c-5.5,1.5-9.2,6.9-15.1,7.2c-3.8-1.2-7-4.3-11.2-3.9c-3.8,5.3,0.3,11.5,0.2,17.3c-2.6-1.2-5.3-2.2-8-3.1c-0.8-3.9-2.2-7.8-4.5-11.2
	c-2-3.3-5-6.2-5-10.3c0-4.4-4.6-6.9-5-11.1c-0.6-5.5,0.9-11.2-0.2-16.7c-2-9.3-8.2-17-10.7-26.1c-4.7-18.2-5.4-37.7-0.4-55.9
	c1.2-4.2,2.3-8.6,4.8-12.3c10-14.9,21.4-28.8,31.3-43.6c3.3-4.3,1.7-10.4-1.1-14.5c-2.9-4.1-6.1-8.2-6.8-13.4
	c3.2-0.5,6.5-0.6,9.6-1.4c-5.1-10-13.6-17.8-22.1-25c-3.5-3.1-7.8-5.4-10.8-9.2c-6.1-7.2-12.6-14.3-20.6-19.5
	c-2.4-1.5-3.5-4.4-5.8-6.1c-2.4-1.9-4.6-4-6.1-6.8c3.6,0.4,6.4,2.6,8.7,5.2c2.2,2.6,5.7,3.5,7.7,6.2c6,6.9,13,13.5,21.6,17
	c-2.9-8.1-9.4-14.3-15.6-19.9c-8.9-7.7-18.6-14.3-28.4-20.6c-5.6-2.8-9.7-7.8-13-13.1c-2.2-3.6-3-7.9-2.3-12.1
	c5.7,2.9,9.5,8.1,13.9,12.6c5.2,5.2,11.2,9.7,17.5,13.5c-6.6-12.5-16-23.9-19-37.9c-1.9-9.1,0.7-20.7,9.8-24.9
	C384.7,121.3,398.5,115.3,412.2,109.2z"/>
<path class="st0" d="M420.5,160.7c0.5,0,1.4-0.1,1.9-0.2c0.4,2.2,0.8,4.4,1.2,6.6c-0.5-0.2-1.5-0.7-2.1-0.9
	C421,164.4,420.7,162.5,420.5,160.7z"/>
<path d="M348.3,187c0.8-1,1.6-2.1,2.5-3.1c2.2,2.3,4.3,4.7,7.3,6c2.4,3,6.2,4.3,8.1,7.8C359.8,194.8,354.2,190.7,348.3,187z"/>
<path d="M367.3,198.3c0.5,0.1,1.4,0.4,1.9,0.5c0.2,0.5,0.7,1.5,0.9,2c-1.3-0.4-2.7-0.7-4-1.1C366.5,199.4,367,198.6,367.3,198.3z"/>
<path class="st0" d="M454,263.1c6.7-10.1,15-19.9,26.2-25.1c-5.3,8.5-14.5,14.2-17.9,23.9C459.6,262.6,456.8,262.9,454,263.1z"/>
<path class="st0" d="M465.2,265.4c7.8-9.7,16.2-20.6,28.8-23.9c-0.9,4-3,7.7-6.3,10.1c-4.1,3.1-8.5,5.9-11.8,9.8
	c3.9,1.1,7.9,1.7,11.9,2.5c-1.2,4.3-7.8,4.1-7.5,9.1c2.7,0.8,5.4,1.3,8.1,1.8c-2.1,5.9-6.7,10.6-8.3,16.8
	C471.6,285.2,471.4,273.4,465.2,265.4z"/>
<path class="st0" d="M444.2,265.5c2.4-0.9,5.1-1.4,7.7-0.9C449.8,266.5,446.6,267.4,444.2,265.5z"/>
<path class="st0" d="M456.2,359.3c1.6,1.1,1.2,4.4,0.8,6.3C455.5,364.4,455.5,361.1,456.2,359.3z"/>
<path d="M535.7,407.5c1.5-2.8,3.4-5.3,5.3-7.8c6.1,1.3,11.3,5.3,14.8,10.4c3.4,4.9,6.8,9.8,10.8,14.3c-4.6,3.7-10.1,5.9-15.4,8.4
	c0.2-6.9,0.4-14.5-3.7-20.3C544.9,408.7,540,407.7,535.7,407.5z"/>
<path d="M529.4,424.5c3.6-5,10.8-3.4,16-2.4c0.1,1.6,0.1,3.2,0.2,4.8C540.2,427.3,534,428.3,529.4,424.5z"/>
<path class="st0" d="M424.3,442.5c2.4,2.6,4.2,6.6,7.9,7.4c3.7,0.5,5.3-3.5,7-6c1.8,3.8,3.9,7.6,7.4,10.2c-3.2-0.2-6.4-0.3-9.6-0.3
	c2.6,4.6,6.8,7.9,10.5,11.7c-1.4,4.6-7.4,4.6-10.5,1.8c-4.8-4.2-9.2-9.2-12.1-14.9C423.1,449.2,423.3,445.6,424.3,442.5z"/>
<path d="M560.2,454c0-3.6-1.5-7.5,0.5-10.8c7.9,2.8,15.5,8.3,18.5,16.4c1.6,4.1,1,8.8-1,12.6c-3.7,7.5-9.8,13.5-14.5,20.4
	c-2.6,5.4-5.6,10.8-7.4,16.6c-0.7,2.8-3.3,4.2-6,4.3c-0.7-4.7,0-9.6,0.6-14.3C560.1,486.2,561.2,469.5,560.2,454z"/>
<path class="st0" d="M450.1,454.1c2.5-2.7,3.5-6.3,5.7-9.2c3.1,1.9,4.5,5.1,5.2,8.5C457.4,453,453.8,454,450.1,454.1z"/>
<path class="st0" d="M506.1,466.1c0.8-0.5,1.6-1,2.4-1.6c2.7,8.9,2.6,18.4,5,27.4c-2,0-3.9-0.2-5.8-0.7
	C507.9,482.8,508.4,474.3,506.1,466.1z"/>
<path class="st0" d="M424.2,466.2c1.5,0.1,2.9,0.3,4.4,0.5c0.1,0.7,0.2,2.1,0.2,2.8C426.9,468.9,425.2,468,424.2,466.2z"/>
<path class="st0" d="M463.9,484.2c0.6,0.2,1.7,0.5,2.2,0.6c0.6,3.5,1.6,7.2,4.3,9.7c2.7,2.6,5.4,5.4,7,8.8
	C467.8,503.4,461.7,492.8,463.9,484.2z"/>
<path d="M485.5,490.8c0.9-1.5,1.8-3.1,2.8-4.5c0.1,0.8,0.3,2.4,0.5,3.2C487.6,489.9,486.6,490.4,485.5,490.8z"/>
<path d="M483,491c0.7,0.1,2.2,0.4,2.9,0.5c-0.5,2.5-1.2,5.1-4.3,5.2C482,494.8,482.5,492.9,483,491z"/>
<path d="M432.3,503.1c8.5,8.3,7.7,21.2,12.2,31.5c2.1,4.1,2.3,8.8,3.5,13.3c2.7,11.3,8,21.9,9.4,33.4c-8.3-6-10.3-16.5-14.4-25.2
	c-2.3-4.1-1.5-9-2.7-13.5C438,529.3,430.6,516.8,432.3,503.1z"/>
<path class="st0" d="M474.6,517.7c7.4-3,15.4-4,23.3-4.8c-1.6,0.9-3.2,1.6-4.7,2.6c-0.9,1.6,1.3,2.1,2.3,2.9
	c6.2,2.9,13.2,1.8,19.8,1.7c2,5.8-0.3,13.2-6.3,15.5c-2.7-3.1-5.1-6.7-8.6-8.9c-6.2-1.7-14.1-2-18.7,3.2c-2.5,2.5-3,6.1-3.5,9.5
	c-4.9-3.2-9.9-7.8-9.9-14.1C468,521.3,471.7,519,474.6,517.7z"/>
<path d="M74.4,538.4c1.3,1.9,0.9,4-0.5,5.8C74,542.2,74.1,540.3,74.4,538.4z"/>
<path d="M422.8,559.8c3.8-3.3,8.9-4.1,13.7-4.4c-4,6.3-10.1,13.4-18.4,11.9C419.1,564.5,420.4,561.7,422.8,559.8z"/>
<path d="M731.5,564.1c7-0.1,13,4.3,19.7,5.7c5.1,0.9,9.1,4.4,13.9,6.1c6,2.3,12.8,5,15.6,11.3c-6.4,3.9-14.1,5.1-19.9,10
	c10.8,0.3,20.1-6.1,30.7-7c-0.6,2.7-1.3,5.7-3.5,7.6c-7.3,5.3-7.9,16-15.9,20.6c-1.9-3.5-1.9-7.5-3.3-11.1c-4.7-1-8.9,1.3-12.9,3.5
	c-9.8,3.7-17.5,11-25.8,17.2c-10.4,7.8-19.8,16.9-29.1,25.9c-8.4,8.1-16.9,16.2-24.9,24.6c-0.2-4,2-7.3,3.8-10.6
	c3.9-2.5,6-6.7,9-10.2c10.1-12.5,21.9-23.5,34.3-33.7c4.9-3.8,9.5-8.1,15.3-10.7c4.9-4,11-6.2,15.4-10.9c2.5-1,5.5-1.3,6.9-4
	c-15.8,3.4-27.2,16.4-42.5,21c0.1-0.7,0.3-2.1,0.4-2.8c1.4-1.2,4.1-1.7,4.1-4c0.2-3-0.5-5.9-0.7-8.8c6.7-3.4,14.5-4.5,20.4-9.4
	c-1.5-3.2-4.4-5.1-6.9-7.4c2.4-4.6,8.3-2.6,12.4-3.5C745.5,574.8,735.1,572.2,731.5,564.1z"/>
<path d="M403.7,573.8c2.8-3.7,7.2-5.4,11.7-5.7c-3.6,5.5-4,12.3-2.8,18.6c1.5,8,4.8,15.6,8.5,22.9c4.1-2,8.2-4.1,12.2-6.4
	c-1.9,3-4.1,5.9-6.4,8.6c-3.9,4.1-3.9,10.2-5.5,15.4c-1,2.6-0.9,5.3-0.4,8c-1.7-0.7-3.5-1.4-5.2-2c0.6-9.2-4.5-17.5-5.6-26.4
	c1.1-6.7-3.9-11.8-6.7-17.3C400.6,584.8,399.9,578.2,403.7,573.8z"/>
<path d="M810,573c6.7-2.7,14-2.2,21-2.6c19.3-0.4,39.2,0.5,57.5,7.2c10.5,3.6,21.2,7.2,30.7,13.1c6,3.5,12.2,7,17.3,11.9
	c2,1.7,2.1,4.5,3.2,6.8c4.2,9.5,12.6,16.1,18.8,24.2c3.5,4.7,6.5,10.3,6.2,16.4c0.2,3.5-3.2,5.8-3.5,9.2c-0.5,7.4,6.1,13.8,4.2,21.3
	c-2.9,5.2-11.1,2.2-13.7,7.7c0.4,8.3,8.1,15,6.6,23.7c-2.4,3.7-7.1,4.4-10.5,6.8c3.1,8.3,9.3,14.9,15.8,20.8
	c6.2,5.5,12.4,11.5,15.9,19.1c5.2,12.7,0.5,27.5,7.1,39.8c3.8,9.4,10.8,18,10.4,28.6c0.1,5.9-4.3,10.2-7.2,14.8
	c-3.3,4.7-3.5,10.8-2.9,16.3c1.2,8.8,5.4,16.7,8.3,25c1.3,2.8,1.5,7,5.2,7.7c-0.1,6.8,0,13.6,0,20.4c-26.4-0.2-52.8-0.3-79.2-0.8
	c-8.3-0.4-16.7-0.7-25,0.4c-2.3,0.3-4.6,0.7-6.6,1.9c-1.7,2.6-1.8,6.6-5.1,7.8c-7.9,3.6-16.8,4.4-25.3,5.5
	c-16.6,1.4-33.2,2.9-49.8,3.4c-0.2-8.5,7.6-13.8,11.4-20.6c3.6-4.3,2.1-10.5,4.8-15.2c2.7-6.5,8.5-11.1,11.5-17.5
	c-7.1-4.3-12.5-10.7-18.3-16.4c4.3-2.3,8.7-4.4,12.8-7.1c3-1.7,6-4.2,9.7-4.3c7.1-0.4,14.2-1.2,21.3-1.9c3.4-0.4,6.9-1,9.6-3.3
	c1.8-1.5,2.1-3.9,2.7-6c1.8-0.7,3.6-1.4,5.2-2.5c0.5-1.3-0.1-2.7-0.3-3.9c-3-11-6-22.1-8.8-33.1c17.8,8.7,34.6,19.4,51.9,29.1
	c4.4,2.2,10.1,3.4,14.5,0.5c4.6-3.1,5.8-9.5,4.4-14.6c-1.3-4.4-3.8-8.5-6.7-12c-12.7-14.2-31.9-21-43.3-36.5
	c1.9-1.6,3.7-3.4,5.3-5.3c-6.6-8.4-18.1-9.4-27.9-11c-5-16.3-9.8-32.8-15.2-49.1c-2.8-4.2-7.6-6.8-9.6-11.6c7.9-5.4,18-2.1,26.9-3.6
	c-4.2-5-9.5-8.6-14.7-12.4c-5.3-3.6-9.6-8.3-14.4-12.6c-1.5-1.5-3.3-2.8-4.6-4.6c-1.5-6.5-4.3-12.7-7.2-18.7
	c-0.7-1.6-1.8-3.1-1.2-4.9c2.2-1.6,4.8-2.3,7.2-3.6c-17-2.4-34.4,0.7-50.2,7.2c-7,3-14,6.2-20.8,9.8c0.5-6.2,5.7-10.8,10.6-13.9
	c11.3-8.8,17.6-22.4,28.7-31.3c6.7-4.4,13.8-8.1,20.7-12.3c-7.4-4.6-14.3,6.1-21.6,1.2c2.4-2,5.4-2.7,8.2-4.1
	c-1.1-3.1-4.4-4.1-6.7-6C806.3,575.5,807.8,573.8,810,573z"/>
<path d="M392.7,585.6c1-1.8,3.2-1,4.9-1.1c-5.5,4.6-10.6,9.6-16.2,14.1C382.1,592.1,389.1,590.2,392.7,585.6z"/>
<path class="st0" d="M65.1,613.9c-3.3-3-1.7-9.8,3-10.3c3.6-0.8,6.7,1.4,9.2,3.6c1.2-0.4,2.3-0.7,3.4-1.1c-0.5,4.3-0.8,8.6-0.3,12.9
	c1.3,2,3.1,3.8,3.9,6.1c-2.2,0.9-4.8,2.1-7.1,0.8C71.8,623.5,69.1,618,65.1,613.9z"/>
<path d="M357.5,629.7c0.3-6.6,4.9-11.7,7.4-17.6c1.4,0.8,2.4,2.2,2.2,4c-0.3,4.6-2.9,8.9-2.9,13.5c0.7,1.4,2.8,1.2,4.1,1.7
	c2.2-4.6,2.8-9.7,4.3-14.6c2.4-0.2,5.1-1.1,7.3,0.4c2.1,1.5,1.7,4.8,4,5.9c4.8,2.8,9.6,5.7,14.5,8.3c4.6,0.1,10-1.1,13.7,2.4
	c3.4,2.5,3.1,7.1,2.2,10.7c-6.5,1.3-11-4.5-16.9-5.8c-6.5-0.5-11.5-5.1-17.2-7.9c-13.4,5.7-21.7,18.8-35.2,24.2
	c2.7-8.7,10.2-14.5,16.9-20.2C361,632.8,359.2,631.3,357.5,629.7z"/>
<path d="M465.3,623.7c2.4,0.1,4,1.6,4.6,3.9c-1.5,0-3.1,0-4.6-0.1C465.3,626.2,465.3,624.9,465.3,623.7z"/>
<path d="M702.5,633c1.6-4.6,4.8-10.3,10.6-9.3C711.3,628.4,707.4,631.9,702.5,633z"/>
<path d="M28.8,629c4.7,1.9,9.5,3.8,14.2,5.7c-2.6,5.8-7.4,10.5-13.6,12.1C26.3,641.4,25.3,634.5,28.8,629z"/>
<path class="st0" d="M55.8,637.9c2.8-4.8,9.2-6.9,14.3-5c5.1,1.6,10.5,1.2,15.8,1.4c6.8,1.2,11.3,6.9,16.4,11c0,2.4-0.6,4.7-0.9,7
	c-5.8,0.4-11.5,1.4-17.2,1.6c-2.4-2.7-3.7-6.3-6.8-8.3c-2.1-0.5-4.2-0.3-6.4-0.4c-3.9-0.2-5.8-5.3-9.8-5c-2.1,1.5-3.4,3.9-5.4,5.5
	C55.2,643.2,54.3,640.3,55.8,637.9z"/>
<path class="st0" d="M469.2,640.9c1.4,0.2,2.4,1.5,3.5,2.2c-2.1,0.6-4.2,1-6.3,1.3C467.3,643.2,468.2,642,469.2,640.9z"/>
<path d="M89.2,647.4c1.7-2.4,5.6-4,8-1.7c1.8,1.3,0.9,3.7,1.2,5.5c-2.3,0.7-4.8,1.5-7.2,0.9C89.8,651,88.6,649.3,89.2,647.4z"/>
<path d="M23.9,649.1c4.9,1.3,7.3,6.1,11.4,8.8c1.1,3,3.1,5.6,4.5,8.6c-5.2,1.4-10.6,1.2-15.9,1.5C23.8,661.7,23.8,655.4,23.9,649.1z
	"/>
<path d="M679.5,658.4c-0.1-4,2.6-7.3,6.5-8c0.4,0.5,1.3,1.6,1.8,2.1C685.6,655.1,682.8,657.1,679.5,658.4z"/>
<path class="st0" d="M494.4,665.4c8-4.7,15.9-9.5,24.1-13.9c-5.4,8.2-11.1,16.2-16.6,24.4c-3.1,3.3-6.2,6.6-9.6,9.5
	c-5.8-1.3-11.8-1.1-17.5,0.5c-2.4-8.1-6-15.8-8.3-24c3.7-5.2,13.4-6,17.1-0.4c1,3.5-0.5,7.3-0.5,10.9c2,0.5,4.5,1.8,6.4,0.3
	C492,670.8,491.3,666.6,494.4,665.4z"/>
<path d="M726.4,655.5c6.8-2.7,14.3-2.1,21.5-3.2c-0.6,2.3-0.1,5.2-1.5,7.1c-10.7,7.2-21.2,14.8-31.6,22.4c-2.7,1.7-3.5,5.3-6.2,7
	c-1.6,1.1-3.6,0.5-5.4,0.5c0.1-8.6-0.5-18,4.2-25.7c4.3-0.4,8.6-1,13-1.2C721.3,659.4,723.3,656.6,726.4,655.5z"/>
<path d="M692.8,695.8c2.6-3,5.7-5.7,9.9-6c-6.5,13.7-14.4,26.7-20,40.8c-5.6,14-12.4,27.5-20,40.5c1.4,2.8,3.1,5.5,3.9,8.7
	c3.8,1.1,7.8,1.6,11.4,3.4c2.7,1.3,4,4.1,4.6,6.8c-3.2,1.2-6.6,2-9.8,3.2c7.5,2.1,15.5,3.6,21.8,8.4c2.9,2,4.4,6.7,1.6,9.5
	c-2.6,2.3-6.5,1.7-9.7,2.1c-1.2,4.9-3.4,9.5-5,14.3c-1.8,5.2,0.9,11,5.3,14c5.4,3.7,11.8,5.3,17.5,8.2c-0.7,2.6-0.2,6.2-2.9,7.7
	c-6.8,4.5-14.6,7.8-19.9,14.2c-3.5,3.9-5.4,8.9-6.2,13.9c7.2,6.1,19,1.1,25.1,9.1c-7.9,3.4-16.5,4.2-24.8,6.1
	c-8.5,1.8-16.2,5.9-23.7,10.1c-4.8,3-10.3,6.5-11.3,12.5c-1.7,8.7,0.4,17.5,1.9,26c-10.6-6.2-15.3-18.1-21.5-28
	c-8-8.7-17-16.6-23.4-26.6c-2.1-3.6-4.5-8.3-2.2-12.4c4.1-7,9.3-13.4,11.7-21.2c2.2-6.4,2.2-13.6-0.5-19.8c-1.3,3-2.1,6.4-3.9,9.2
	c-1.1,1.6-3.3,1.7-5,2.3c0.8-3.2,1.7-6.4,2.4-9.6c0.3-2.6,2.7-4.2,3.4-6.6c0.9-3,2-5.9,4-8.3c0.7,2.4,1.2,4.8,1.7,7.3
	c5.4-2.7,12.9-3.8,15.2-10.1c5.1-12.2,4.3-25.8,8.9-38c3.2-6.4,7.5-12.2,10.2-18.8c3.6-6,8-11.5,11.2-17.8
	c2.9-4.8-0.4-10.9,2.2-15.9c3.4-5,9.4-7.1,13.2-11.8c1.4-2.4,4.5-2,6.9-2.5c3.1-7.2,3.6-15.1,6.8-22.3
	C686.9,698.5,690.5,698.4,692.8,695.8z"/>
<path d="M305.6,707.5c3.8-0.8,7.6-2,11.3-3.5c-0.2,2.3-0.5,4.7-0.8,7c-14.6,8.8-28.8,19.5-37.8,34.3c-6.2,10-8.6,22.1-6.8,33.7
	c-6.9-2.5-10.1-9.8-12.8-16.1c2.4-13,10.5-24.4,20.1-33.1C287.6,722.2,297.2,715.6,305.6,707.5z"/>
<path d="M200,733.2c2,0.6,4,1.5,5.5,3c-0.6,2.6-3.7,1.7-5.1,0.4C200.2,735.4,200,734.3,200,733.2z"/>
<path d="M209.5,738.5c2.8,0.3,6.1,0.5,7.2,3.6c-2.3,0.1-4.6-0.1-6.9-0.7C209.7,740.5,209.6,739.5,209.5,738.5z"/>
<path class="st0" d="M164.3,745.5c3.7-2.2,9.4-5.5,13-1.4c0.5,4.7-0.5,9.4-2.3,13.8c-3.4-0.4-6.6-1.7-9.6-3.1
	C165,751.7,164.4,748.6,164.3,745.5z"/>
<path d="M239.6,751.9c3.6,0.1,7.5,0.6,10.2,3.3c6.3,6,9.3,17.4,2.6,24.2c-4.3,0.7-8.6,1.5-12.9,2.3c2-3.5,4.4-6.7,6.6-10
	C243.4,765.3,241.5,758.6,239.6,751.9z"/>
<path d="M612.3,805.2c1-3.3,1.3-6.8,3.3-9.6c1.3,2.5,2.5,5.3,1.5,8.2c-1.6,4.7-3.8,9.2-6,13.7c-1.7-3.5-2-7.4-2.4-11.2
	C609.9,805.9,611.1,805.6,612.3,805.2z"/>
</svg>
