<?xml version="1.0" encoding="utf-8"?>
<!-- Generator: Adobe Illustrator 21.1.0, SVG Export Plug-In . SVG Version: 6.00 Build 0)  -->
<svg version="1.1" id="Layer_1" xmlns="http://www.w3.org/2000/svg" xmlns:xlink="http://www.w3.org/1999/xlink" x="0px" y="0px"
	 viewBox="0 0 719.8 710" style="enable-background:new 0 0 719.8 710;" xml:space="preserve">
<style type="text/css">
	.st0{fill:url(#SVGID_1_);stroke:#000000;stroke-width:7.6545;}
	.st1{fill:url(#SVGID_2_);stroke:#000000;stroke-width:7.6545;}
	.st2{opacity:0.828;}
	.st3{fill:#FFFFFF;}
</style>
<g transform="translate(0 -452.36)">
	
		<linearGradient id="SVGID_1_" gradientUnits="userSpaceOnUse" x1="273.1313" y1="446.2928" x2="165.2773" y2="601.9428" gradientTransform="matrix(1 0 0 -1 0 1180.36)">
		<stop  offset="0" style="stop-color:#000000"/>
		<stop  offset="1" style="stop-color:#000000;stop-opacity:0"/>
	</linearGradient>
	<path class="st0" d="M359.5,1054.1c-67.6-0.7-122.4-53.7-122.4-119s54.8-118.2,122.4-118.5s122.4-53.2,122.4-118.5
		S427,579.9,359.5,578.6C229,577.3,123.2,684.1,123.2,815.7S229,1054.1,359.5,1054.1z"/>
	
		<linearGradient id="SVGID_2_" gradientUnits="userSpaceOnUse" x1="412.0555" y1="334.8785" x2="509.5454" y2="200.5385" gradientTransform="matrix(1 0 0 -1 0 1180.36)">
		<stop  offset="0" style="stop-color:#FFFFFF"/>
		<stop  offset="1" style="stop-color:#7D7D7D;stop-opacity:0.988"/>
	</linearGradient>
	<path class="st1" d="M362.4,578.6c67.6,0.7,122.4,53.7,122.4,119s-54.8,118.2-122.4,118.5S240,869.3,240,934.5
		s54.8,118.2,122.4,119.5c130.4,1.3,236.3-105.5,236.3-237.1S492.8,578.6,362.4,578.6z"/>
	<g class="st2">
		<path d="M388.7,929.4c0,14.5-12.1,26.2-27.1,26.2s-27.1-11.7-27.1-26.2s12.1-26.2,27.1-26.2S388.7,915,388.7,929.4L388.7,929.4z"
			/>
		<path class="st3" d="M388.7,689.4c0,14.5-12.1,26.2-27.1,26.2s-27.1-11.7-27.1-26.2s12.1-26.2,27.1-26.2S388.7,675,388.7,689.4
			L388.7,689.4z"/>
	</g>
</g>
</svg>
